<svg xmlns="http://www.w3.org/2000/svg" width="311.20398" height="164" viewBox="0 0 311.20398 164"><rect x="0" y="0" width="311.20398" height="164" fill="#FFFFFF"/><defs><marker id="arrow-0" viewBox="0 0 10 10" refX="5" refY="5" markerUnits="userSpaceOnUse" markerWidth="8" markerHeight="8" orient="auto"><path d="M 0 0 L 10 5 L 0 10 z" fill="#7A8AA6"/></marker><marker id="arrow-start-0" viewBox="0 0 10 10" refX="4.5" refY="5" markerUnits="userSpaceOnUse" markerWidth="8" markerHeight="8" orient="auto"><path d="M 0 5 L 10 10 L 10 0 z" fill="#7A8AA6"/></marker><marker id="arrow-1" viewBox="0 0 10 10" refX="5" refY="5" markerUnits="userSpaceOnUse" markerWidth="8" markerHeight="8" orient="auto"><path d="M 0 0 L 10 5 L 0 10 z" fill="#ff0"/></marker><marker id="arrow-start-1" viewBox="0 0 10 10" refX="4.5" refY="5" markerUnits="userSpaceOnUse" markerWidth="8" markerHeight="8" orient="auto"><path d="M 0 5 L 10 10 L 10 0 z" fill="#ff0"/></marker></defs><path d="M 117.696,35.000C132.667,35.000,155.124,35.000,162.610,35.000C170.096,35.000,155.124,35.000,162.610,35.000C170.096,35.000,192.553,35.000,207.524,35.000" fill="none" stroke="#7A8AA6" stroke-width="2" marker-end="url(#arrow-0)"   stroke-linecap="round" stroke-linejoin="round" /><path d="M 125.216,129.000C138.515,129.000,158.464,129.000,165.114,129.000C171.764,129.000,158.464,129.000,165.114,129.000C171.764,129.000,191.713,129.000,205.012,129.000" fill="none" stroke="#ff0" stroke-width="4" marker-end="url(#arrow-1)"  stroke-dasharray="5 5" stroke-linecap="round" stroke-linejoin="round" /><rect x="15.52" y="8.00" width="102.18" height="54.00" rx="3" ry="3" fill="#f00" stroke="#000" stroke-width="2" stroke-linejoin="round" stroke-linecap="round"/><text x="66.61" y="38.25" text-anchor="middle" font-family="Inter, Segoe UI, system-ui" font-size="13" fill="#fff"><tspan x="66.61" dy="0.00">Alpha</tspan></text><rect x="207.52" y="8.00" width="93.17" height="54.00" rx="3" ry="3" fill="#0f0" stroke="#090" stroke-width="3" stroke-linejoin="round" stroke-linecap="round"/><text x="254.11" y="38.25" text-anchor="middle" font-family="Inter, Segoe UI, system-ui" font-size="13" fill="#111"><tspan x="254.11" dy="0.00">Beta</tspan></text><rect x="8.00" y="102.00" width="117.22" height="54.00" rx="3" ry="3" fill="#00f" stroke="#0ff" stroke-width="1" stroke-linejoin="round" stroke-linecap="round"/><text x="66.61" y="132.25" text-anchor="middle" font-family="Inter, Segoe UI, system-ui" font-size="13" fill="#fff"><tspan x="66.61" dy="0.00">Gamma</tspan></text><rect x="205.01" y="102.00" width="98.19" height="54.00" rx="3" ry="3" fill="#F8FAFF" stroke="#C7D2E5" stroke-width="1" stroke-linejoin="round" stroke-linecap="round"/><text x="254.11" y="132.25" text-anchor="middle" font-family="Inter, Segoe UI, system-ui" font-size="13" fill="#1C2430"><tspan x="254.11" dy="0.00">Delta</tspan></text></svg>