<svg xmlns="http://www.w3.org/2000/svg" width="636.16" height="134" viewBox="0 0 636.16 134"><rect x="0" y="0" width="636.16" height="134" fill="#FFFFFF"/><defs><marker id="arrow-0" viewBox="0 0 10 10" refX="5" refY="5" markerUnits="userSpaceOnUse" markerWidth="8" markerHeight="8" orient="auto"><path d="M 0 0 L 10 5 L 0 10 z" fill="#7A8AA6"/></marker><marker id="arrow-start-0" viewBox="0 0 10 10" refX="4.5" refY="5" markerUnits="userSpaceOnUse" markerWidth="8" markerHeight="8" orient="auto"><path d="M 0 5 L 10 10 L 10 0 z" fill="#7A8AA6"/></marker></defs><path d="M 68.312,67.000C81.563,67.000,101.439,67.000,108.064,67.000C114.690,67.000,101.439,67.000,108.064,67.000C114.690,67.000,134.566,67.000,147.817,67.000" fill="none" stroke="#7A8AA6" stroke-width="2" marker-end="url(#arrow-0)"   stroke-linecap="round" stroke-linejoin="round" /><path d="M 249.882,51.387C271.801,51.387,304.680,55.368,315.639,51.387C326.599,47.406,304.680,31.481,315.639,27.500C326.599,23.519,359.477,27.500,381.396,27.500" fill="none" stroke="#7A8AA6" stroke-width="2" marker-end="url(#arrow-0)"   stroke-linecap="round" stroke-linejoin="round" /><rect x="298.45" y="25.44" width="34.38" height="28.00" rx="2" ry="2" fill="#FFFFFF" stroke="none"/><text x="315.64" y="42.69" text-anchor="middle" font-family="Inter, Segoe UI, system-ui" font-size="13" fill="#1C2430"><tspan x="315.64" dy="0.00">yes</tspan></text><path d="M 249.882,82.613C273.183,82.613,308.133,78.632,319.783,82.613C331.434,86.594,308.133,102.519,319.783,106.500C331.434,110.481,366.384,106.500,389.685,106.500" fill="none" stroke="#7A8AA6" stroke-width="2" marker-end="url(#arrow-0)"   stroke-linecap="round" stroke-linejoin="round" /><rect x="306.51" y="80.56" width="26.54" height="28.00" rx="2" ry="2" fill="#FFFFFF" stroke="none"/><text x="319.78" y="97.81" text-anchor="middle" font-family="Inter, Segoe UI, system-ui" font-size="13" fill="#1C2430"><tspan x="319.78" dy="0.00">no</tspan></text><path d="M 476.916,27.500C491.955,27.500,514.514,21.567,522.034,27.500C529.554,33.433,514.514,57.167,522.034,63.100C529.554,69.033,552.113,63.100,567.152,63.100" fill="none" stroke="#7A8AA6" stroke-width="2" marker-end="url(#arrow-0)"   stroke-linecap="round" stroke-linejoin="round" /><path d="M 468.628,106.500C485.048,106.500,509.679,112.433,517.890,106.500C526.100,100.567,509.679,76.833,517.890,70.900C526.100,64.967,550.731,70.900,567.152,70.900" fill="none" stroke="#7A8AA6" stroke-width="2" marker-end="url(#arrow-0)"   stroke-linecap="round" stroke-linejoin="round" /><rect x="8.00" y="47.50" width="60.31" height="39.00" rx="19.50" ry="19.50" fill="#F8FAFF" stroke="#C7D2E5" stroke-width="1" stroke-linejoin="round" stroke-linecap="round"/><text x="38.16" y="70.25" text-anchor="middle" font-family="Inter, Segoe UI, system-ui" font-size="13" fill="#1C2430"><tspan x="38.16" dy="0.00">Start</tspan></text><polygon points="206.66,8.16 265.50,67.00 206.66,125.84 147.82,67.00" fill="#F8FAFF" stroke="#C7D2E5" stroke-width="1" stroke-linejoin="round" stroke-linecap="round"/><text x="206.66" y="70.25" text-anchor="middle" font-family="Inter, Segoe UI, system-ui" font-size="13" fill="#1C2430"><tspan x="206.66" dy="0.00">Decision</tspan></text><polygon points="391.88,8.00 487.40,8.00 466.43,47.00 370.91,47.00" fill="#F8FAFF" stroke="#C7D2E5" stroke-width="1" stroke-linejoin="round" stroke-linecap="round"/><text x="429.16" y="30.75" text-anchor="middle" font-family="Inter, Segoe UI, system-ui" font-size="13" fill="#1C2430"><tspan x="429.16" dy="0.00">Do thing</tspan></text><polygon points="381.02,87.00 459.96,87.00 477.29,126.00 398.35,126.00" fill="#F8FAFF" stroke="#C7D2E5" stroke-width="1" stroke-linejoin="round" stroke-linecap="round"/><text x="429.16" y="109.75" text-anchor="middle" font-family="Inter, Segoe UI, system-ui" font-size="13" fill="#1C2430"><tspan x="429.16" dy="0.00">\Skip\</tspan></text><rect x="567.15" y="47.50" width="61.01" height="39.00" rx="6" ry="6" fill="#F8FAFF" stroke="#C7D2E5" stroke-width="1" stroke-linejoin="round" stroke-linecap="round"/><line x1="573.15" y1="49.50" x2="573.15" y2="84.50" stroke="#C7D2E5" stroke-width="1" stroke-linejoin="round" stroke-linecap="round"/><line x1="622.16" y1="49.50" x2="622.16" y2="84.50" stroke="#C7D2E5" stroke-width="1" stroke-linejoin="round" stroke-linecap="round"/><text x="597.66" y="70.25" text-anchor="middle" font-family="Inter, Segoe UI, system-ui" font-size="13" fill="#1C2430"><tspan x="597.66" dy="0.00">End</tspan></text></svg>