<svg xmlns="http://www.w3.org/2000/svg" width="100%" viewBox="-113.51116 -20.02 271.51117 130.02" style="max-width: 271.511px;"><rect x="-113.51116" y="-20.02" width="271.51117" height="130.02" fill="#FFFFFF"/><defs><marker id="arrow-0" viewBox="0 0 10 10" refX="5" refY="5" markerUnits="userSpaceOnUse" markerWidth="8" markerHeight="8" orient="auto"><path d="M 0 0 L 10 5 L 0 10 z" fill="#7A8AA6"/></marker><marker id="arrow-start-0" viewBox="0 0 10 10" refX="4.5" refY="5" markerUnits="userSpaceOnUse" markerWidth="8" markerHeight="8" orient="auto"><path d="M 0 5 L 10 10 L 10 0 z" fill="#7A8AA6"/></marker></defs><g><line x1="0.00" y1="0.00" x2="150.00" y2="0.00" stroke="#7A8AA6" stroke-width="1" stroke-dasharray="2"/><rect x="-88.77" y="-12.02" width="53.77" height="24.02" rx="4.00" ry="4.00" fill="hsl(240, 100%, 46.2745098039%)" stroke="none"/><text x="-79.77" y="1.99" text-anchor="start" font-family="Inter, Segoe UI, system-ui" font-size="13" fill="#ffffff"><tspan x="-79.77" dy="0.00">main</tspan></text><line x1="0.00" y1="90.00" x2="150.00" y2="90.00" stroke="#7A8AA6" stroke-width="1" stroke-dasharray="2"/><rect x="-105.51" y="77.98" width="70.51" height="24.02" rx="4.00" ry="4.00" fill="hsl(60, 100%, 43.5294117647%)" stroke="none"/><text x="-96.51" y="91.99" text-anchor="start" font-family="Inter, Segoe UI, system-ui" font-size="13" fill="black"><tspan x="-96.51" dy="0.00">feature</tspan></text><g class="commit-arrows"><path d="M 10 0 L 10 70 A 20 20, 0, 0, 0, 30 90 L 60 90" fill="none" stroke="hsl(60, 100%, 43.5294117647%)" stroke-width="8" stroke-linecap="round"/><path d="M 10 0 L 110 0" fill="none" stroke="hsl(240, 100%, 46.2745098039%)" stroke-width="8" stroke-linecap="round"/><path d="M 60 90 L 90 90 A 20 20, 0, 0, 0, 110 70 L 110 0" fill="none" stroke="hsl(60, 100%, 43.5294117647%)" stroke-width="8" stroke-linecap="round"/></g><g class="commit-bullets"><circle cx="10.00" cy="0.00" r="10.00" fill="hsl(240, 100%, 46.2745098039%)" stroke="hsl(240, 100%, 46.2745098039%)"/><circle cx="60.00" cy="90.00" r="10.00" fill="hsl(60, 100%, 43.5294117647%)" stroke="hsl(60, 100%, 43.5294117647%)"/><circle cx="110.00" cy="0.00" r="9.00" fill="hsl(240, 100%, 46.2745098039%)" stroke="hsl(240, 100%, 46.2745098039%)"/><circle cx="110.00" cy="0.00" r="6.00" fill="#F8FAFF" stroke="#F8FAFF"/></g><g class="commit-labels"></g></g></svg>