<svg xmlns="http://www.w3.org/2000/svg" width="6226.7" height="738" viewBox="0 0 6226.7 738"><rect width="100%" height="100%" fill="#FFFFFF"/><defs><marker id="arrow-0" viewBox="0 0 10 10" refX="5" refY="5" markerUnits="userSpaceOnUse" markerWidth="8" markerHeight="8" orient="auto"><path d="M 0 0 L 10 5 L 0 10 z" fill="#333333"/></marker><marker id="arrow-start-0" viewBox="0 0 10 10" refX="4.5" refY="5" markerUnits="userSpaceOnUse" markerWidth="8" markerHeight="8" orient="auto"><path d="M 0 5 L 10 10 L 10 0 z" fill="#333333"/></marker></defs><rect x="3902.70" y="312.00" width="459.00" height="366.00" rx="10" ry="10" fill="#FFFFDE" stroke="#AAAA33" stroke-width="1" /><text x="4132.20" y="340.00" text-anchor="middle" font-family="'trebuchet ms', verdana, arial, sans-serif" font-size="16" fill="#333333"><tspan x="4132.20" dy="0.00">Decoder (Nx)</tspan></text><rect x="5707.70" y="24.00" width="459.00" height="238.00" rx="10" ry="10" fill="#FFFFDE" stroke="#AAAA33" stroke-width="1" /><text x="5937.20" y="52.00" text-anchor="middle" font-family="'trebuchet ms', verdana, arial, sans-serif" font-size="16" fill="#333333"><tspan x="5937.20" dy="0.00">Encoder (Nx)</tspan></text><rect x="2087.20" y="84.00" width="469.50" height="206.00" rx="10" ry="10" fill="#FFFFDE" stroke="#AAAA33" stroke-width="1" /><rect x="750.40" y="84.00" width="462.40" height="206.00" rx="10" ry="10" fill="#FFFFDE" stroke="#AAAA33" stroke-width="1" /><rect x="24.00" y="52.00" width="252.00" height="342.00" rx="10" ry="10" fill="#FFFFDE" stroke="#AAAA33" stroke-width="1" /><text x="150.00" y="80.00" text-anchor="middle" font-family="'trebuchet ms', verdana, arial, sans-serif" font-size="16" fill="#333333"><tspan x="150.00" dy="0.00">Output</tspan></text><path d="M 872.800,266.000C872.800,257.000,834.133,243.500,872.800,239.000C911.467,234.500,1066.133,243.500,1104.800,239.000C1143.467,234.500,1104.800,221.000,1104.800,212.000" fill="none" stroke="#333333" stroke-width="2" marker-end="url(#arrow-0)"   stroke-linecap="round" stroke-linejoin="round" /><path d="M 5797.700,238.000C5797.700,229.000,5757.200,215.500,5797.700,211.000C5838.200,206.500,6000.200,215.500,6040.700,211.000C6081.200,206.500,6040.700,193.000,6040.700,184.000" fill="none" stroke="#333333" stroke-width="2" marker-end="url(#arrow-0)"   stroke-linecap="round" stroke-linejoin="round" /><path d="M 5797.700,134.000C5797.700,125.000,5757.200,111.500,5797.700,107.000C5838.200,102.500,6000.200,111.500,6040.700,107.000C6081.200,102.500,6040.700,89.000,6040.700,80.000" fill="none" stroke="#333333" stroke-width="2" marker-end="url(#arrow-0)"   stroke-linecap="round" stroke-linejoin="round" /><path d="M 2209.600,266.000C2209.600,257.000,2170.350,243.500,2209.600,239.000C2248.850,234.500,2405.850,243.500,2445.100,239.000C2484.350,234.500,2445.100,221.000,2445.100,212.000" fill="none" stroke="#333333" stroke-width="2" marker-end="url(#arrow-0)"   stroke-linecap="round" stroke-linejoin="round" /><path d="M 3992.700,642.000C3992.700,631.000,3952.200,614.500,3992.700,609.000C4033.200,603.500,4195.200,614.500,4235.700,609.000C4276.200,603.500,4235.700,587.000,4235.700,576.000" fill="none" stroke="#333333" stroke-width="2" marker-end="url(#arrow-0)"   stroke-linecap="round" stroke-linejoin="round" /><path d="M 3992.700,526.000C3992.700,517.000,3957.200,503.500,3992.700,499.000C4028.200,494.500,4170.200,503.500,4205.700,499.000C4241.200,494.500,4205.700,481.000,4205.700,472.000" fill="none" stroke="#333333" stroke-width="2" marker-end="url(#arrow-0)"   stroke-linecap="round" stroke-linejoin="round" /><path d="M 3992.700,422.000C3992.700,413.000,3952.200,399.500,3992.700,395.000C4033.200,390.500,4195.200,399.500,4235.700,395.000C4276.200,390.500,4235.700,377.000,4235.700,368.000" fill="none" stroke="#333333" stroke-width="2" marker-end="url(#arrow-0)"   stroke-linecap="round" stroke-linejoin="round" /><path d="M 5937.200,262.000C5937.200,327.000,6215.784,424.500,5937.200,457.000C5658.617,489.500,4544.284,454.500,4265.700,457.000C3987.117,459.500,4265.700,467.000,4265.700,472.000" fill="none" stroke="#333333" stroke-width="2" marker-end="url(#arrow-0)"   stroke-linecap="round" stroke-linejoin="round" /><path d="M 4132.200,676.000C4045.033,676.000,3914.283,727.000,3870.700,676.000C3827.117,625.000,4490.816,421.000,3870.700,370.000C3250.583,319.000,1390.233,370.000,150.000,370.000" fill="none" stroke="#333333" stroke-width="2" marker-end="url(#arrow-0)"   stroke-linecap="round" stroke-linejoin="round" /><rect x="3926.70" y="588.00" width="132.00" height="54.00" rx="0" ry="0" fill="#ECECFF" stroke="#9370DB" stroke-width="1" stroke-linejoin="round" stroke-linecap="round"/><text x="3992.70" y="619.00" text-anchor="middle" font-family="'trebuchet ms', verdana, arial, sans-serif" font-size="16" fill="#333333"><tspan x="3992.70" dy="0.00">Add &amp; Norm</tspan></text><rect x="3926.70" y="472.00" width="132.00" height="54.00" rx="0" ry="0" fill="#ECECFF" stroke="#9370DB" stroke-width="1" stroke-linejoin="round" stroke-linecap="round"/><text x="3992.70" y="503.00" text-anchor="middle" font-family="'trebuchet ms', verdana, arial, sans-serif" font-size="16" fill="#333333"><tspan x="3992.70" dy="0.00">Add &amp; Norm</tspan></text><rect x="3926.70" y="368.00" width="132.00" height="54.00" rx="0" ry="0" fill="#ECECFF" stroke="#9370DB" stroke-width="1" stroke-linejoin="round" stroke-linecap="round"/><text x="3992.70" y="399.00" text-anchor="middle" font-family="'trebuchet ms', verdana, arial, sans-serif" font-size="16" fill="#333333"><tspan x="3992.70" dy="0.00">Add &amp; Norm</tspan></text><rect x="4162.50" y="368.00" width="146.40" height="54.00" rx="0" ry="0" fill="#ECECFF" stroke="#9370DB" stroke-width="1" stroke-linejoin="round" stroke-linecap="round"/><text x="4235.70" y="399.00" text-anchor="middle" font-family="'trebuchet ms', verdana, arial, sans-serif" font-size="16" fill="#333333"><tspan x="4235.70" dy="0.00">Feed Forward</tspan></text><rect x="5731.70" y="184.00" width="132.00" height="54.00" rx="0" ry="0" fill="#ECECFF" stroke="#9370DB" stroke-width="1" stroke-linejoin="round" stroke-linecap="round"/><text x="5797.70" y="215.00" text-anchor="middle" font-family="'trebuchet ms', verdana, arial, sans-serif" font-size="16" fill="#333333"><tspan x="5797.70" dy="0.00">Add &amp; Norm</tspan></text><rect x="5731.70" y="80.00" width="132.00" height="54.00" rx="0" ry="0" fill="#ECECFF" stroke="#9370DB" stroke-width="1" stroke-linejoin="round" stroke-linecap="round"/><text x="5797.70" y="111.00" text-anchor="middle" font-family="'trebuchet ms', verdana, arial, sans-serif" font-size="16" fill="#333333"><tspan x="5797.70" dy="0.00">Add &amp; Norm</tspan></text><rect x="5967.50" y="80.00" width="146.40" height="54.00" rx="0" ry="0" fill="#ECECFF" stroke="#9370DB" stroke-width="1" stroke-linejoin="round" stroke-linecap="round"/><text x="6040.70" y="111.00" text-anchor="middle" font-family="'trebuchet ms', verdana, arial, sans-serif" font-size="16" fill="#333333"><tspan x="6040.70" dy="0.00">Feed Forward</tspan></text><rect x="1020.80" y="212.00" width="168.00" height="54.00" rx="0" ry="0" fill="#ECECFF" stroke="#9370DB" stroke-width="1" stroke-linejoin="round" stroke-linecap="round"/><text x="1104.80" y="243.00" text-anchor="middle" font-family="'trebuchet ms', verdana, arial, sans-serif" font-size="16" fill="#333333"><tspan x="1104.80" dy="0.00">Input Embedding</tspan></text><rect x="821.20" y="212.00" width="103.20" height="54.00" rx="0" ry="0" fill="#ECECFF" stroke="#9370DB" stroke-width="1" stroke-linejoin="round" stroke-linecap="round"/><text x="872.80" y="243.00" text-anchor="middle" font-family="'trebuchet ms', verdana, arial, sans-serif" font-size="16" fill="#333333"><tspan x="872.80" dy="0.00">Inputs</tspan></text><rect x="98.40" y="316.00" width="103.20" height="54.00" rx="0" ry="0" fill="#ECECFF" stroke="#9370DB" stroke-width="1" stroke-linejoin="round" stroke-linecap="round"/><text x="150.00" y="347.00" text-anchor="middle" font-family="'trebuchet ms', verdana, arial, sans-serif" font-size="16" fill="#333333"><tspan x="150.00" dy="0.00">Linear</tspan></text><rect x="5938.70" y="184.00" width="204.00" height="54.00" rx="0" ry="0" fill="#ECECFF" stroke="#9370DB" stroke-width="1" stroke-linejoin="round" stroke-linecap="round"/><text x="6040.70" y="215.00" text-anchor="middle" font-family="'trebuchet ms', verdana, arial, sans-serif" font-size="16" fill="#333333"><tspan x="6040.70" dy="0.00">Multi-Head Attention</tspan></text><rect x="4133.70" y="472.00" width="204.00" height="54.00" rx="0" ry="0" fill="#ECECFF" stroke="#9370DB" stroke-width="1" stroke-linejoin="round" stroke-linecap="round"/><text x="4235.70" y="503.00" text-anchor="middle" font-family="'trebuchet ms', verdana, arial, sans-serif" font-size="16" fill="#333333"><tspan x="4235.70" dy="0.00">Multi-Head Attention</tspan></text><rect x="4144.50" y="576.00" width="182.40" height="78.00" rx="0" ry="0" fill="#ECECFF" stroke="#9370DB" stroke-width="1" stroke-linejoin="round" stroke-linecap="round"/><text x="4235.70" y="607.00" text-anchor="middle" font-family="'trebuchet ms', verdana, arial, sans-serif" font-size="16" fill="#333333"><tspan x="4235.70" dy="0.00">Masked Multi-Head</tspan><tspan x="4235.70" dy="24.00">Attention</tspan></text><rect x="2357.50" y="212.00" width="175.20" height="54.00" rx="0" ry="0" fill="#ECECFF" stroke="#9370DB" stroke-width="1" stroke-linejoin="round" stroke-linecap="round"/><text x="2445.10" y="243.00" text-anchor="middle" font-family="'trebuchet ms', verdana, arial, sans-serif" font-size="16" fill="#333333"><tspan x="2445.10" dy="0.00">Output Embedding</tspan></text><rect x="48.00" y="108.00" width="204.00" height="54.00" rx="0" ry="0" fill="#ECECFF" stroke="#9370DB" stroke-width="1" stroke-linejoin="round" stroke-linecap="round"/><text x="150.00" y="139.00" text-anchor="middle" font-family="'trebuchet ms', verdana, arial, sans-serif" font-size="16" fill="#333333"><tspan x="150.00" dy="0.00">Output Probabilities</tspan></text><rect x="2154.40" y="212.00" width="110.40" height="54.00" rx="0" ry="0" fill="#ECECFF" stroke="#9370DB" stroke-width="1" stroke-linejoin="round" stroke-linecap="round"/><text x="2209.60" y="243.00" text-anchor="middle" font-family="'trebuchet ms', verdana, arial, sans-serif" font-size="16" fill="#333333"><tspan x="2209.60" dy="0.00">Outputs</tspan></text><rect x="774.40" y="108.00" width="196.80" height="54.00" rx="0" ry="0" fill="#ECECFF" stroke="#9370DB" stroke-width="1" stroke-linejoin="round" stroke-linecap="round"/><text x="872.80" y="139.00" text-anchor="middle" font-family="'trebuchet ms', verdana, arial, sans-serif" font-size="16" fill="#333333"><tspan x="872.80" dy="0.00">Positional Encoding</tspan></text><rect x="2111.20" y="108.00" width="196.80" height="54.00" rx="0" ry="0" fill="#ECECFF" stroke="#9370DB" stroke-width="1" stroke-linejoin="round" stroke-linecap="round"/><text x="2209.60" y="139.00" text-anchor="middle" font-family="'trebuchet ms', verdana, arial, sans-serif" font-size="16" fill="#333333"><tspan x="2209.60" dy="0.00">Positional Encoding</tspan></text><rect x="94.80" y="212.00" width="110.40" height="54.00" rx="0" ry="0" fill="#ECECFF" stroke="#9370DB" stroke-width="1" stroke-linejoin="round" stroke-linecap="round"/><text x="150.00" y="243.00" text-anchor="middle" font-family="'trebuchet ms', verdana, arial, sans-serif" font-size="16" fill="#333333"><tspan x="150.00" dy="0.00">Softmax</tspan></text></svg>