<svg xmlns="http://www.w3.org/2000/svg" width="434" height="658" viewBox="0 0 434 658"><rect width="100%" height="100%" fill="#FFFFFF"/><defs><marker id="arrow-0" viewBox="0 0 10 10" refX="5" refY="5" markerUnits="userSpaceOnUse" markerWidth="8" markerHeight="8" orient="auto"><path d="M 0 0 L 10 5 L 0 10 z" fill="#333333"/></marker><marker id="arrow-start-0" viewBox="0 0 10 10" refX="4.5" refY="5" markerUnits="userSpaceOnUse" markerWidth="8" markerHeight="8" orient="auto"><path d="M 0 5 L 10 10 L 10 0 z" fill="#333333"/></marker><marker id="arrow-class-open-0" viewBox="0 0 20 14" refX="1" refY="7" markerUnits="userSpaceOnUse" markerWidth="20" markerHeight="14" orient="auto"><path d="M 1 7 L 18 13 V 1 Z" fill="none" stroke="#333333"/></marker><marker id="arrow-class-open-start-0" viewBox="0 0 20 14" refX="18" refY="7" markerUnits="userSpaceOnUse" markerWidth="20" markerHeight="14" orient="auto"><path d="M 1 7 L 18 13 V 1 Z" fill="none" stroke="#333333"/></marker><marker id="arrow-class-dep-0" viewBox="0 0 20 14" refX="13" refY="7" markerUnits="userSpaceOnUse" markerWidth="20" markerHeight="14" orient="auto"><path d="M 18 7 L 9 13 L 14 7 L 9 1 Z" fill="#333333" stroke="#333333"/></marker><marker id="arrow-class-dep-start-0" viewBox="0 0 20 14" refX="6" refY="7" markerUnits="userSpaceOnUse" markerWidth="20" markerHeight="14" orient="auto"><path d="M 5 7 L 9 13 L 1 7 L 9 1 Z" fill="#333333" stroke="#333333"/></marker></defs><path d="M 180.400,398.000C180.400,406.333,193.667,418.833,180.400,423.000C167.133,427.167,114.067,418.833,100.800,423.000C87.533,427.167,100.800,439.667,100.800,448.000" fill="none" stroke="#333333" stroke-width="1"  marker-start="url(#arrow-class-open-start-0)"  stroke-linecap="round" stroke-linejoin="round" /><path d="M 221.200,398.000C221.200,406.333,207.933,418.833,221.200,423.000C234.467,427.167,287.533,418.833,300.800,423.000C314.067,427.167,300.800,439.667,300.800,448.000" fill="none" stroke="#333333" stroke-width="1"  marker-start="url(#arrow-class-open-start-0)"  stroke-linecap="round" stroke-linejoin="round" /><path d="M 200.800,174.000C200.800,182.333,200.800,194.833,200.800,199.000C200.800,203.167,200.800,194.833,200.800,199.000C200.800,203.167,200.800,215.667,200.800,224.000" fill="none" stroke="#333333" stroke-width="1" marker-end="url(#arrow-class-dep-0)"   stroke-linecap="round" stroke-linejoin="round" /><rect x="182.40" y="185.00" width="36.80" height="28.00" rx="0" ry="0" fill="#ECECFF" fill-opacity="0.5" stroke="none"/><text x="200.80" y="203.00" text-anchor="middle" font-family="'trebuchet ms', verdana, arial, sans-serif" font-size="16" fill="#333333"><tspan x="200.80" dy="0.00">owns</tspan></text><rect x="127.60" y="224.00" width="146.40" height="174.00" rx="0" ry="0" fill="#ECECFF" stroke="#9370DB" stroke-width="1" stroke-linejoin="round" stroke-linecap="round"/><line x1="133.60" y1="273.40" x2="268.00" y2="273.40" stroke="#9370DB" stroke-width="1.0"/><line x1="133.60" y1="345.40" x2="268.00" y2="345.40" stroke="#9370DB" stroke-width="1.0"/><text x="200.80" y="255.00" text-anchor="middle" font-family="'trebuchet ms', verdana, arial, sans-serif" font-size="16" fill="#333333"><tspan x="200.80" dy="0.00" font-weight="600">Animal</tspan></text><text x="157.60" y="303.00" text-anchor="start" font-family="'trebuchet ms', verdana, arial, sans-serif" font-size="16" fill="#333333"><tspan x="157.60" dy="0.00">+String name</tspan><tspan x="157.60" dy="24.00">+int age</tspan><tspan x="157.60" dy="48.00">+makeSound()</tspan></text><rect x="227.60" y="448.00" width="146.40" height="150.00" rx="0" ry="0" fill="#ECECFF" stroke="#9370DB" stroke-width="1" stroke-linejoin="round" stroke-linecap="round"/><line x1="233.60" y1="497.40" x2="368.00" y2="497.40" stroke="#9370DB" stroke-width="1.0"/><line x1="233.60" y1="545.40" x2="368.00" y2="545.40" stroke="#9370DB" stroke-width="1.0"/><text x="300.80" y="479.00" text-anchor="middle" font-family="'trebuchet ms', verdana, arial, sans-serif" font-size="16" fill="#333333"><tspan x="300.80" dy="0.00" font-weight="600">Cat</tspan></text><text x="257.60" y="527.00" text-anchor="start" font-family="'trebuchet ms', verdana, arial, sans-serif" font-size="16" fill="#333333"><tspan x="257.60" dy="0.00">+bool indoor</tspan><tspan x="257.60" dy="48.00">+meow()</tspan></text><rect x="24.00" y="448.00" width="153.60" height="150.00" rx="0" ry="0" fill="#ECECFF" stroke="#9370DB" stroke-width="1" stroke-linejoin="round" stroke-linecap="round"/><line x1="30.00" y1="497.40" x2="171.60" y2="497.40" stroke="#9370DB" stroke-width="1.0"/><line x1="30.00" y1="545.40" x2="171.60" y2="545.40" stroke="#9370DB" stroke-width="1.0"/><text x="100.80" y="479.00" text-anchor="middle" font-family="'trebuchet ms', verdana, arial, sans-serif" font-size="16" fill="#333333"><tspan x="100.80" dy="0.00" font-weight="600">Dog</tspan></text><text x="54.00" y="527.00" text-anchor="start" font-family="'trebuchet ms', verdana, arial, sans-serif" font-size="16" fill="#333333"><tspan x="54.00" dy="0.00">+String breed</tspan><tspan x="54.00" dy="48.00">+bark()</tspan></text><rect x="127.60" y="24.00" width="146.40" height="150.00" rx="0" ry="0" fill="#ECECFF" stroke="#9370DB" stroke-width="1" stroke-linejoin="round" stroke-linecap="round"/><line x1="133.60" y1="73.40" x2="268.00" y2="73.40" stroke="#9370DB" stroke-width="1.0"/><line x1="133.60" y1="121.40" x2="268.00" y2="121.40" stroke="#9370DB" stroke-width="1.0"/><text x="200.80" y="55.00" text-anchor="middle" font-family="'trebuchet ms', verdana, arial, sans-serif" font-size="16" fill="#333333"><tspan x="200.80" dy="0.00" font-weight="600">Owner</tspan></text><text x="157.60" y="103.00" text-anchor="start" font-family="'trebuchet ms', verdana, arial, sans-serif" font-size="16" fill="#333333"><tspan x="157.60" dy="0.00">+String name</tspan><tspan x="157.60" dy="48.00">+feed()</tspan></text></svg>