<svg xmlns="http://www.w3.org/2000/svg" width="383.59998" height="804" viewBox="0 0 383.59998 804"><rect width="100%" height="100%" fill="#FFFFFF"/><defs><marker id="arrow-0" viewBox="0 0 10 10" refX="5" refY="5" markerUnits="userSpaceOnUse" markerWidth="8" markerHeight="8" orient="auto"><path d="M 0 0 L 10 5 L 0 10 z" fill="#333333"/></marker><marker id="arrow-start-0" viewBox="0 0 10 10" refX="4.5" refY="5" markerUnits="userSpaceOnUse" markerWidth="8" markerHeight="8" orient="auto"><path d="M 0 5 L 10 10 L 10 0 z" fill="#333333"/></marker></defs><path d="M 173.800,78.000C173.800,86.283,173.800,98.708,173.800,102.850C173.800,106.992,173.800,98.708,173.800,102.850C173.800,106.992,173.800,119.417,173.800,127.700" fill="none" stroke="#333333" stroke-width="2" marker-end="url(#arrow-0)"   stroke-linecap="round" stroke-linejoin="round" /><path d="M 138.640,187.155C138.640,198.129,147.347,214.590,138.640,220.078C129.933,225.565,95.107,214.590,86.400,220.078C77.693,225.565,86.400,242.026,86.400,253.000" fill="none" stroke="#333333" stroke-width="2" marker-end="url(#arrow-0)"   stroke-linecap="round" stroke-linejoin="round" /><rect x="97.72" y="206.08" width="29.60" height="28.00" rx="0" ry="0" fill="#E8E8E8" fill-opacity="0.5" stroke="none"/><text x="112.52" y="224.08" text-anchor="middle" font-family="'trebuchet ms', verdana, arial, sans-serif" font-size="16" fill="#333333"><tspan x="112.52" dy="0.00">Yes</tspan></text><path d="M 208.960,187.155C208.960,198.129,200.253,214.590,208.960,220.078C217.667,225.565,252.493,214.590,261.200,220.078C269.907,225.565,261.200,242.026,261.200,253.000" fill="none" stroke="#333333" stroke-width="2" marker-end="url(#arrow-0)"   stroke-linecap="round" stroke-linejoin="round" /><rect x="223.88" y="206.08" width="22.40" height="28.00" rx="0" ry="0" fill="#E8E8E8" fill-opacity="0.5" stroke="none"/><text x="235.08" y="224.08" text-anchor="middle" font-family="'trebuchet ms', verdana, arial, sans-serif" font-size="16" fill="#333333"><tspan x="235.08" dy="0.00">No</tspan></text><path d="M 86.400,307.000C86.400,315.333,74.033,327.833,86.400,332.000C98.767,336.167,148.233,327.833,160.600,332.000C172.967,336.167,160.600,348.667,160.600,357.000" fill="none" stroke="#333333" stroke-width="2" marker-end="url(#arrow-0)"   stroke-linecap="round" stroke-linejoin="round" /><path d="M 261.200,307.000C261.200,315.333,273.567,327.833,261.200,332.000C248.833,336.167,199.367,327.833,187.000,332.000C174.633,336.167,187.000,348.667,187.000,357.000" fill="none" stroke="#333333" stroke-width="2" marker-end="url(#arrow-0)"   stroke-linecap="round" stroke-linejoin="round" /><path d="M 173.800,411.000C173.800,419.283,173.800,431.708,173.800,435.850C173.800,439.992,173.800,431.708,173.800,435.850C173.800,439.992,173.800,452.417,173.800,460.700" fill="none" stroke="#333333" stroke-width="2" marker-end="url(#arrow-0)"   stroke-linecap="round" stroke-linejoin="round" /><path d="M 141.960,525.106C141.960,535.255,149.420,550.479,141.960,555.553C134.500,560.628,104.660,550.479,97.200,555.553C89.740,560.628,97.200,575.851,97.200,586.000" fill="none" stroke="#333333" stroke-width="2" marker-end="url(#arrow-0)"   stroke-linecap="round" stroke-linejoin="round" /><rect x="101.18" y="541.55" width="36.80" height="28.00" rx="0" ry="0" fill="#E8E8E8" fill-opacity="0.5" stroke="none"/><text x="119.58" y="559.55" text-anchor="middle" font-family="'trebuchet ms', verdana, arial, sans-serif" font-size="16" fill="#333333"><tspan x="119.58" dy="0.00">Pass</tspan></text><path d="M 205.640,525.106C205.640,535.255,200.180,550.479,205.640,555.553C211.100,560.628,232.940,550.479,238.400,555.553C243.860,560.628,238.400,575.851,238.400,586.000" fill="none" stroke="#333333" stroke-width="2" marker-end="url(#arrow-0)"   stroke-linecap="round" stroke-linejoin="round" /><rect x="203.62" y="541.55" width="36.80" height="28.00" rx="0" ry="0" fill="#E8E8E8" fill-opacity="0.5" stroke="none"/><text x="222.02" y="559.55" text-anchor="middle" font-family="'trebuchet ms', verdana, arial, sans-serif" font-size="16" fill="#333333"><tspan x="222.02" dy="0.00">Fail</tspan></text><path d="M 262.400,586.000C301.467,586.000,360.067,649.783,379.600,586.000C399.133,522.217,413.900,267.083,379.600,203.300C345.300,139.517,242.400,203.300,173.800,203.300" fill="none" stroke="#333333" stroke-width="2" marker-end="url(#arrow-0)"   stroke-linecap="round" stroke-linejoin="round" /><path d="M 97.200,640.000C97.200,648.333,97.200,660.833,97.200,665.000C97.200,669.167,97.200,660.833,97.200,665.000C97.200,669.167,97.200,681.667,97.200,690.000" fill="none" stroke="#333333" stroke-width="2" marker-end="url(#arrow-0)"   stroke-linecap="round" stroke-linejoin="round" /><rect x="125.80" y="24.00" width="96.00" height="54.00" rx="0" ry="0" fill="#ECECFF" stroke="#9370DB" stroke-width="1" stroke-linejoin="round" stroke-linecap="round"/><text x="173.80" y="55.00" text-anchor="middle" font-family="'trebuchet ms', verdana, arial, sans-serif" font-size="16" fill="#333333"><tspan x="173.80" dy="0.00">Start</tspan></text><polygon points="173.80,127.70 256.12,165.50 173.80,203.30 91.48,165.50" fill="#ECECFF" stroke="#9370DB" stroke-width="1" stroke-linejoin="round" stroke-linecap="round"/><text x="173.80" y="169.50" text-anchor="middle" font-family="'trebuchet ms', verdana, arial, sans-serif" font-size="16" fill="#333333"><tspan x="173.80" dy="0.00">Decision</tspan></text><rect x="24.00" y="253.00" width="124.80" height="54.00" rx="0" ry="0" fill="#ECECFF" stroke="#9370DB" stroke-width="1" stroke-linejoin="round" stroke-linecap="round"/><text x="86.40" y="284.00" text-anchor="middle" font-family="'trebuchet ms', verdana, arial, sans-serif" font-size="16" fill="#333333"><tspan x="86.40" dy="0.00">Process 1</tspan></text><rect x="198.80" y="253.00" width="124.80" height="54.00" rx="0" ry="0" fill="#ECECFF" stroke="#9370DB" stroke-width="1" stroke-linejoin="round" stroke-linecap="round"/><text x="261.20" y="284.00" text-anchor="middle" font-family="'trebuchet ms', verdana, arial, sans-serif" font-size="16" fill="#333333"><tspan x="261.20" dy="0.00">Process 2</tspan></text><rect x="122.20" y="357.00" width="103.20" height="54.00" rx="0" ry="0" fill="#ECECFF" stroke="#9370DB" stroke-width="1" stroke-linejoin="round" stroke-linecap="round"/><text x="173.80" y="388.00" text-anchor="middle" font-family="'trebuchet ms', verdana, arial, sans-serif" font-size="16" fill="#333333"><tspan x="173.80" dy="0.00">Step 3</tspan></text><polygon points="173.80,460.70 281.32,498.50 173.80,536.30 66.28,498.50" fill="#ECECFF" stroke="#9370DB" stroke-width="1" stroke-linejoin="round" stroke-linecap="round"/><text x="173.80" y="502.50" text-anchor="middle" font-family="'trebuchet ms', verdana, arial, sans-serif" font-size="16" fill="#333333"><tspan x="173.80" dy="0.00">Another Check</tspan></text><rect x="42.00" y="586.00" width="110.40" height="54.00" rx="0" ry="0" fill="#ECECFF" stroke="#9370DB" stroke-width="1" stroke-linejoin="round" stroke-linecap="round"/><text x="97.20" y="617.00" text-anchor="middle" font-family="'trebuchet ms', verdana, arial, sans-serif" font-size="16" fill="#333333"><tspan x="97.20" dy="0.00">Success</tspan></text><rect x="202.40" y="586.00" width="96.00" height="54.00" rx="0" ry="0" fill="#ECECFF" stroke="#9370DB" stroke-width="1" stroke-linejoin="round" stroke-linecap="round"/><text x="250.40" y="617.00" text-anchor="middle" font-family="'trebuchet ms', verdana, arial, sans-serif" font-size="16" fill="#333333"><tspan x="250.40" dy="0.00">Retry</tspan></text><rect x="56.40" y="690.00" width="81.60" height="54.00" rx="0" ry="0" fill="#ECECFF" stroke="#9370DB" stroke-width="1" stroke-linejoin="round" stroke-linecap="round"/><text x="97.20" y="721.00" text-anchor="middle" font-family="'trebuchet ms', verdana, arial, sans-serif" font-size="16" fill="#333333"><tspan x="97.20" dy="0.00">End</tspan></text></svg>