<svg xmlns="http://www.w3.org/2000/svg" width="361.04" height="494" viewBox="0 0 361.04 494"><rect width="100%" height="100%" fill="#FFFFFF"/><defs><marker id="arrow-0" viewBox="0 0 10 10" refX="5" refY="5" markerUnits="userSpaceOnUse" markerWidth="8" markerHeight="8" orient="auto"><path d="M 0 0 L 10 5 L 0 10 z" fill="#333333"/></marker><marker id="arrow-start-0" viewBox="0 0 10 10" refX="4.5" refY="5" markerUnits="userSpaceOnUse" markerWidth="8" markerHeight="8" orient="auto"><path d="M 0 5 L 10 10 L 10 0 z" fill="#333333"/></marker><marker id="arrow-state-0" viewBox="0 0 20 14" refX="19" refY="7" markerUnits="userSpaceOnUse" markerWidth="20" markerHeight="14" orient="auto"><path d="M 19 7 L 9 13 L 14 7 L 9 1 Z" fill="#333333" stroke="#333333"/></marker></defs><path d="M 166.480,45.000C166.480,53.275,166.480,65.688,166.480,69.825C166.480,73.962,166.480,65.688,166.480,69.825C166.480,73.962,166.480,86.375,166.480,94.650" fill="none" stroke="#333333" stroke-width="1" marker-end="url(#arrow-state-0)"   stroke-linecap="round" stroke-linejoin="round" /><path d="M 166.480,151.350C166.480,159.567,166.480,171.892,166.480,176.000C166.480,180.108,166.480,171.892,166.480,176.000C166.480,180.108,166.480,192.433,166.480,200.650" fill="none" stroke="#333333" stroke-width="1" marker-end="url(#arrow-state-0)"   stroke-linecap="round" stroke-linejoin="round" /><rect x="144.48" y="162.00" width="44.00" height="28.00" rx="0" ry="0" fill="#ECECFF" fill-opacity="0.5" stroke="none"/><text x="166.48" y="180.00" text-anchor="middle" font-family="'trebuchet ms', verdana, arial, sans-serif" font-size="16" fill="#333333"><tspan x="166.48" dy="0.00">start</tspan></text><path d="M 146.280,257.350C146.280,265.567,159.247,277.892,146.280,282.000C133.313,286.108,81.447,277.892,68.480,282.000C55.513,286.108,68.480,298.433,68.480,306.650" fill="none" stroke="#333333" stroke-width="1" marker-end="url(#arrow-state-0)"   stroke-linecap="round" stroke-linejoin="round" /><rect x="74.58" y="268.00" width="65.60" height="28.00" rx="0" ry="0" fill="#ECECFF" fill-opacity="0.5" stroke="none"/><text x="107.38" y="286.00" text-anchor="middle" font-family="'trebuchet ms', verdana, arial, sans-serif" font-size="16" fill="#333333"><tspan x="107.38" dy="0.00">complete</tspan></text><path d="M 186.680,257.350C186.680,265.567,178.687,277.892,186.680,282.000C194.673,286.108,226.647,277.892,234.640,282.000C242.633,286.108,234.640,298.433,234.640,306.650" fill="none" stroke="#333333" stroke-width="1" marker-end="url(#arrow-state-0)"   stroke-linecap="round" stroke-linejoin="round" /><rect x="192.26" y="268.00" width="36.80" height="28.00" rx="0" ry="0" fill="#ECECFF" fill-opacity="0.5" stroke="none"/><text x="210.66" y="286.00" text-anchor="middle" font-family="'trebuchet ms', verdana, arial, sans-serif" font-size="16" fill="#333333"><tspan x="210.66" dy="0.00">fail</tspan></text><path d="M 261.840,306.650C272.920,306.650,289.540,332.533,295.080,306.650C300.620,280.767,313.443,177.233,295.080,151.350C276.717,125.467,221.627,151.350,184.900,151.350" fill="none" stroke="#333333" stroke-width="1" marker-end="url(#arrow-state-0)"   stroke-linecap="round" stroke-linejoin="round" /><rect x="273.08" y="215.00" width="44.00" height="28.00" rx="0" ry="0" fill="#ECECFF" fill-opacity="0.5" stroke="none"/><text x="295.08" y="233.00" text-anchor="middle" font-family="'trebuchet ms', verdana, arial, sans-serif" font-size="16" fill="#333333"><tspan x="295.08" dy="0.00">reset</tspan></text><path d="M 100.960,306.650C79.933,306.650,48.393,332.533,37.880,306.650C27.367,280.767,19.517,177.233,37.880,151.350C56.243,125.467,111.333,151.350,148.060,151.350" fill="none" stroke="#333333" stroke-width="1" marker-end="url(#arrow-state-0)"   stroke-linecap="round" stroke-linejoin="round" /><rect x="8.68" y="215.00" width="58.40" height="28.00" rx="0" ry="0" fill="#ECECFF" fill-opacity="0.5" stroke="none"/><text x="37.88" y="233.00" text-anchor="middle" font-family="'trebuchet ms', verdana, arial, sans-serif" font-size="16" fill="#333333"><tspan x="37.88" dy="0.00">restart</tspan></text><path d="M 84.720,363.350C84.720,371.625,84.720,384.037,84.720,388.175C84.720,392.312,84.720,384.037,84.720,388.175C84.720,392.312,84.720,404.725,84.720,413.000" fill="none" stroke="#333333" stroke-width="1" marker-end="url(#arrow-state-0)"   stroke-linecap="round" stroke-linejoin="round" /><rect x="59.12" y="374.17" width="51.20" height="28.00" rx="0" ry="0" fill="#ECECFF" fill-opacity="0.5" stroke="none"/><text x="84.72" y="392.17" text-anchor="middle" font-family="'trebuchet ms', verdana, arial, sans-serif" font-size="16" fill="#333333"><tspan x="84.72" dy="0.00">finish</tspan></text><rect x="195.44" y="306.65" width="105.60" height="56.70" rx="10" ry="10" fill="#ECECFF" stroke="#9370DB" stroke-width="1" stroke-linejoin="round" stroke-linecap="round"/><text x="248.24" y="339.00" text-anchor="middle" font-family="'trebuchet ms', verdana, arial, sans-serif" font-size="16" fill="#333333"><tspan x="248.24" dy="0.00">Error</tspan></text><rect x="117.64" y="94.65" width="97.68" height="56.70" rx="10" ry="10" fill="#ECECFF" stroke="#9370DB" stroke-width="1" stroke-linejoin="round" stroke-linecap="round"/><text x="166.48" y="127.00" text-anchor="middle" font-family="'trebuchet ms', verdana, arial, sans-serif" font-size="16" fill="#333333"><tspan x="166.48" dy="0.00">Idle</tspan></text><rect x="93.88" y="200.65" width="145.20" height="56.70" rx="10" ry="10" fill="#ECECFF" stroke="#9370DB" stroke-width="1" stroke-linejoin="round" stroke-linecap="round"/><text x="166.48" y="233.00" text-anchor="middle" font-family="'trebuchet ms', verdana, arial, sans-serif" font-size="16" fill="#333333"><tspan x="166.48" dy="0.00">Processing</tspan></text><rect x="24.00" y="306.65" width="121.44" height="56.70" rx="10" ry="10" fill="#ECECFF" stroke="#9370DB" stroke-width="1" stroke-linejoin="round" stroke-linecap="round"/><text x="84.72" y="339.00" text-anchor="middle" font-family="'trebuchet ms', verdana, arial, sans-serif" font-size="16" fill="#333333"><tspan x="84.72" dy="0.00">Success</tspan></text><circle cx="84.72" cy="423.50" r="10.50" fill="#9370DB" stroke="#9370DB" stroke-width="1" stroke-linejoin="round" stroke-linecap="round"/><circle cx="84.72" cy="423.50" r="6.50" fill="#FFFFFF" stroke="#FFFFFF" stroke-width="1.2" stroke-linejoin="round" stroke-linecap="round"/><circle cx="166.48" cy="34.50" r="10.50" fill="#333333" stroke="#333333" stroke-width="1" stroke-linejoin="round" stroke-linecap="round"/></svg>