<svg xmlns="http://www.w3.org/2000/svg" width="513.29004" height="565.2" viewBox="0 0 513.29004 565.2"><rect x="0" y="0" width="513.29004" height="565.2" fill="#FFFFFF"/><defs><marker id="arrow-0" viewBox="0 0 10 10" refX="5" refY="5" markerUnits="userSpaceOnUse" markerWidth="8" markerHeight="8" orient="auto"><path d="M 0 0 L 10 5 L 0 10 z" fill="#2F3B4D" stroke="#2F3B4D" stroke-width="1" stroke-dasharray="1,0"/></marker><marker id="arrow-start-0" viewBox="0 0 10 10" refX="4.5" refY="5" markerUnits="userSpaceOnUse" markerWidth="8" markerHeight="8" orient="auto"><path d="M 0 5 L 10 10 L 10 0 z" fill="#2F3B4D" stroke="#2F3B4D" stroke-width="1" stroke-dasharray="1,0"/></marker><marker id="arrow-class-open-0" viewBox="0 0 20 14" refX="1" refY="7" markerUnits="userSpaceOnUse" markerWidth="20" markerHeight="14" orient="auto"><path d="M 1 7 L 18 13 V 1 Z" fill="none" stroke="#2F3B4D" stroke-width="1" stroke-dasharray="1,0"/></marker><marker id="arrow-class-open-start-0" viewBox="0 0 20 14" refX="18" refY="7" markerUnits="userSpaceOnUse" markerWidth="20" markerHeight="14" orient="auto"><path d="M 1 7 L 18 13 V 1 Z" fill="none" stroke="#2F3B4D" stroke-width="1" stroke-dasharray="1,0"/></marker><marker id="arrow-class-dep-0" viewBox="0 0 20 14" refX="13" refY="7" markerUnits="userSpaceOnUse" markerWidth="20" markerHeight="14" orient="auto"><path d="M 18 7 L 9 13 L 14 7 L 9 1 Z" fill="#2F3B4D" stroke="#2F3B4D" stroke-width="1" stroke-dasharray="1,0"/></marker><marker id="arrow-class-dep-start-0" viewBox="0 0 20 14" refX="6" refY="7" markerUnits="userSpaceOnUse" markerWidth="20" markerHeight="14" orient="auto"><path d="M 5 7 L 9 13 L 1 7 L 9 1 Z" fill="#2F3B4D" stroke="#2F3B4D" stroke-width="1" stroke-dasharray="1,0"/></marker></defs><path d="M 262.251,174.800L 262.251,176.258C262.251,177.717,262.251,180.633,262.251,183.550C262.251,186.467,262.251,189.383,263.620,191.344C264.989,193.304,267.727,194.309,287.712,201.640C307.698,208.971,344.930,222.629,364.915,229.960C384.900,237.291,387.639,238.296,389.008,240.256C390.377,242.217,390.377,245.133,390.377,248.050C390.377,250.967,390.377,253.883,390.377,255.342L 390.377,256.800" fill="none" stroke="#2F3B4D" stroke-width="1"  marker-start="url(#arrow-class-open-start-0)" stroke-dasharray="2" stroke-linecap="round" stroke-linejoin="round" /><path d="M 166.147,382.800L 166.147,384.258C166.147,385.717,166.147,388.633,166.147,391.550C166.147,394.467,166.147,397.383,165.113,399.870C164.079,402.357,162.012,404.414,157.116,409.286C152.220,414.157,144.495,421.843,139.599,426.714C134.703,431.586,132.636,433.643,131.602,436.130C130.568,438.617,130.568,441.533,130.568,444.450C130.568,447.367,130.568,450.283,130.568,451.742L 130.568,453.200" fill="none" stroke="#2F3B4D" stroke-width="1"  marker-start="url(#arrow-class-open-start-0)" stroke-dasharray="2" stroke-linecap="round" stroke-linejoin="round" /><path d="M 262.147,382.800L 262.147,384.258C262.147,385.717,262.147,388.633,262.147,391.550C262.147,394.467,262.147,397.383,263.180,399.871C264.214,402.358,266.281,404.416,271.173,409.287C276.066,414.158,283.785,421.842,288.678,426.713C293.571,431.584,295.638,433.642,296.671,436.129C297.704,438.617,297.704,441.533,297.704,444.450C297.704,447.367,297.704,450.283,297.704,451.742L 297.704,453.200" fill="none" stroke="#2F3B4D" stroke-width="1"  marker-start="url(#arrow-class-open-start-0)" stroke-dasharray="2" stroke-linecap="round" stroke-linejoin="round" /><path d="M 214.251,174.800L 214.251,176.258C214.251,177.717,214.251,180.633,214.251,183.550C214.251,186.467,214.251,189.383,214.249,192.300C214.247,195.217,214.244,198.133,214.235,205.342C214.227,212.550,214.213,224.050,214.206,230.008C214.199,235.967,214.199,236.383,214.194,236.800C214.190,237.217,214.181,237.633,214.177,237.842C214.173,238.050,214.173,238.050,214.168,238.258C214.164,238.467,214.155,238.883,214.151,239.300C214.147,239.717,214.147,240.134,214.147,243.050C214.147,245.967,214.147,251.383,214.147,254.092L 214.147,256.800" fill="none" stroke="#2F3B4D" stroke-width="1"    stroke-linecap="round" stroke-linejoin="round" /><g transform="translate(214.25 174.80) rotate(90.00)"><polygon points="0,0 9,6 18,0 9,-6" fill="none" stroke="#2F3B4D" stroke-width="1" stroke-linejoin="round" stroke-linecap="round"/></g><rect x="175.78" y="201.80" width="76.90" height="28.00" rx="2" ry="2" fill="rgba(248,250,252, 0.92)" fill-opacity="0.85" stroke="#7B88A8" stroke-opacity="0.35" stroke-width="0.8"/><text x="214.22" y="219.80" text-anchor="middle" font-family="'trebuchet ms', verdana, arial, sans-serif" font-size="16" fill="#333333"><tspan x="214.22" dy="0.00">observers</tspan></text><rect x="8.00" y="453.20" width="181.14" height="104.00" rx="3" ry="3" fill="#ECECFF" stroke="#7B88A8" stroke-width="1" stroke-linejoin="round" stroke-linecap="round"/><line x1="14.00" y1="505.40" x2="183.14" y2="505.40" stroke="#7B88A8" stroke-width="1.0"/><text x="98.57" y="490.60" text-anchor="middle" font-family="'trebuchet ms', verdana, arial, sans-serif" font-size="16" fill="#333333"><tspan x="98.57" dy="0.00" font-weight="600">ConcreteObserverA</tspan></text><text x="38.00" y="531.40" text-anchor="start" font-family="'trebuchet ms', verdana, arial, sans-serif" font-size="16" fill="#333333"><tspan x="38.00" dy="0.00">+update()</tspan></text><rect x="239.14" y="453.20" width="181.14" height="104.00" rx="3" ry="3" fill="#ECECFF" stroke="#7B88A8" stroke-width="1" stroke-linejoin="round" stroke-linecap="round"/><line x1="245.14" y1="505.40" x2="414.27" y2="505.40" stroke="#7B88A8" stroke-width="1.0"/><text x="329.70" y="490.60" text-anchor="middle" font-family="'trebuchet ms', verdana, arial, sans-serif" font-size="16" fill="#333333"><tspan x="329.70" dy="0.00" font-weight="600">ConcreteObserverB</tspan></text><text x="269.14" y="531.40" text-anchor="start" font-family="'trebuchet ms', verdana, arial, sans-serif" font-size="16" fill="#333333"><tspan x="269.14" dy="0.00">+update()</tspan></text><rect x="339.46" y="256.80" width="165.83" height="146.40" rx="3" ry="3" fill="#ECECFF" stroke="#7B88A8" stroke-width="1" stroke-linejoin="round" stroke-linecap="round"/><line x1="345.46" y1="299.60" x2="499.29" y2="299.60" stroke="#7B88A8" stroke-width="1.0"/><line x1="345.46" y1="340.40" x2="499.29" y2="340.40" stroke="#7B88A8" stroke-width="1.0"/><text x="422.38" y="284.80" text-anchor="middle" font-family="'trebuchet ms', verdana, arial, sans-serif" font-size="16" fill="#333333"><tspan x="422.38" dy="0.00" font-weight="600">ConcreteSubject</tspan></text><text x="369.46" y="325.60" text-anchor="start" font-family="'trebuchet ms', verdana, arial, sans-serif" font-size="16" fill="#333333"><tspan x="369.46" dy="0.00">-state</tspan><tspan x="369.46" dy="40.80">+getState()</tspan><tspan x="369.46" dy="20.40">+setState()</tspan></text><rect x="138.89" y="256.80" width="150.52" height="126.00" rx="3" ry="3" fill="#ECECFF" stroke="#7B88A8" stroke-width="1" stroke-linejoin="round" stroke-linecap="round"/><line x1="144.89" y1="299.60" x2="283.40" y2="299.60" stroke="#7B88A8" stroke-width="1.0"/><line x1="144.89" y1="340.40" x2="283.40" y2="340.40" stroke="#7B88A8" stroke-width="1.0"/><text x="214.15" y="284.80" text-anchor="middle" font-family="'trebuchet ms', verdana, arial, sans-serif" font-size="16" fill="#333333"><tspan x="214.15" dy="0.00" font-weight="600">Observer</tspan></text><text x="168.89" y="325.60" text-anchor="start" font-family="'trebuchet ms', verdana, arial, sans-serif" font-size="16" fill="#333333"><tspan x="168.89" dy="0.00">&lt;&lt;interface&gt;&gt;</tspan><tspan x="168.89" dy="40.80">+update()</tspan></text><rect x="123.68" y="8.00" width="181.14" height="166.80" rx="3" ry="3" fill="#ECECFF" stroke="#7B88A8" stroke-width="1" stroke-linejoin="round" stroke-linecap="round"/><line x1="129.68" y1="50.80" x2="298.82" y2="50.80" stroke="#7B88A8" stroke-width="1.0"/><line x1="129.68" y1="91.60" x2="298.82" y2="91.60" stroke="#7B88A8" stroke-width="1.0"/><text x="214.25" y="36.00" text-anchor="middle" font-family="'trebuchet ms', verdana, arial, sans-serif" font-size="16" fill="#333333"><tspan x="214.25" dy="0.00" font-weight="600">Subject</tspan></text><text x="153.68" y="76.80" text-anchor="start" font-family="'trebuchet ms', verdana, arial, sans-serif" font-size="16" fill="#333333"><tspan x="153.68" dy="0.00">&lt;&lt;interface&gt;&gt;</tspan><tspan x="153.68" dy="40.80">+attach(Observer)</tspan><tspan x="153.68" dy="20.40">+detach(Observer)</tspan><tspan x="153.68" dy="20.40">+notify()</tspan></text></svg>