<svg xmlns="http://www.w3.org/2000/svg" width="93.58554" height="325.768" viewBox="0 0 93.58554 325.768"><rect x="0" y="0" width="93.58554" height="325.768" fill="#FFFFFF"/><defs><marker id="arrow-0" viewBox="0 0 10 10" refX="5" refY="5" markerUnits="userSpaceOnUse" markerWidth="8" markerHeight="8" orient="auto"><path d="M 0 0 L 10 5 L 0 10 z" fill="#2F3B4D" stroke="#2F3B4D" stroke-width="1" stroke-dasharray="1,0"/></marker><marker id="arrow-start-0" viewBox="0 0 10 10" refX="4.5" refY="5" markerUnits="userSpaceOnUse" markerWidth="8" markerHeight="8" orient="auto"><path d="M 0 5 L 10 10 L 10 0 z" fill="#2F3B4D" stroke="#2F3B4D" stroke-width="1" stroke-dasharray="1,0"/></marker><marker id="arrow-class-open-0" viewBox="0 0 20 14" refX="1" refY="7" markerUnits="userSpaceOnUse" markerWidth="20" markerHeight="14" orient="auto"><path d="M 1 7 L 18 13 V 1 Z" fill="none" stroke="#2F3B4D" stroke-width="1" stroke-dasharray="1,0"/></marker><marker id="arrow-class-open-start-0" viewBox="0 0 20 14" refX="18" refY="7" markerUnits="userSpaceOnUse" markerWidth="20" markerHeight="14" orient="auto"><path d="M 1 7 L 18 13 V 1 Z" fill="none" stroke="#2F3B4D" stroke-width="1" stroke-dasharray="1,0"/></marker><marker id="arrow-class-dep-0" viewBox="0 0 20 14" refX="13" refY="7" markerUnits="userSpaceOnUse" markerWidth="20" markerHeight="14" orient="auto"><path d="M 18 7 L 9 13 L 14 7 L 9 1 Z" fill="#2F3B4D" stroke="#2F3B4D" stroke-width="1" stroke-dasharray="1,0"/></marker><marker id="arrow-class-dep-start-0" viewBox="0 0 20 14" refX="6" refY="7" markerUnits="userSpaceOnUse" markerWidth="20" markerHeight="14" orient="auto"><path d="M 5 7 L 9 13 L 1 7 L 9 1 Z" fill="#2F3B4D" stroke="#2F3B4D" stroke-width="1" stroke-dasharray="1,0"/></marker></defs><path d="M 46.793,112.000L 46.793,113.324C46.793,114.648,46.793,117.296,46.793,119.944C46.793,122.592,46.793,125.241,46.537,127.864C46.281,130.487,45.770,133.085,44.794,138.041C43.818,142.996,42.378,150.309,41.272,155.928C40.166,161.547,39.393,165.472,39.558,169.356C39.723,173.241,40.827,177.086,41.824,180.561C42.820,184.035,43.711,187.139,44.522,189.964C45.332,192.788,46.062,195.334,46.428,197.931C46.793,200.527,46.793,203.176,46.793,205.824C46.793,208.472,46.793,211.120,46.793,212.444L 46.793,213.768" fill="none" stroke="#2F3B4D" stroke-width="1"    stroke-linecap="round" stroke-linejoin="round" /><g transform="translate(46.79 112.00) rotate(90.00)"><polygon points="0,0 9,6 18,0 9,-6" fill="#2F3B4D" stroke="#2F3B4D" stroke-width="1" stroke-linejoin="round" stroke-linecap="round"/></g><rect x="4.00" y="155.40" width="69.24" height="28.00" rx="2" ry="2" fill="rgba(248,250,252, 0.92)" fill-opacity="0.85" stroke="#7B88A8" stroke-opacity="0.35" stroke-width="0.8"/><text x="38.62" y="173.40" text-anchor="middle" font-family="'trebuchet ms', verdana, arial, sans-serif" font-size="16" fill="#333333"><tspan x="38.62" dy="0.00">contains</tspan></text><rect x="78.17" y="124.80" width="14.06" height="27.20" rx="2" ry="2" fill="rgba(248,250,252, 0.92)" fill-opacity="0.90" stroke="#7B88A8" stroke-opacity="0.40" stroke-width="0.8"/><text x="85.19" y="142.40" text-anchor="middle" font-family="'trebuchet ms', verdana, arial, sans-serif" font-size="16" fill="#333333"><tspan x="85.19" dy="0.00">1</tspan></text><rect x="47.95" y="183.37" width="38.48" height="27.20" rx="2" ry="2" fill="rgba(248,250,252, 0.92)" fill-opacity="0.90" stroke="#7B88A8" stroke-opacity="0.40" stroke-width="0.8"/><text x="67.19" y="200.97" text-anchor="middle" font-family="'trebuchet ms', verdana, arial, sans-serif" font-size="16" fill="#333333"><tspan x="67.19" dy="0.00">many</tspan></text><rect x="8.00" y="8.00" width="77.59" height="104.00" rx="3" ry="3" fill="#ECECFF" stroke="#7B88A8" stroke-width="1" stroke-linejoin="round" stroke-linecap="round"/><text x="46.79" y="64.00" text-anchor="middle" font-family="'trebuchet ms', verdana, arial, sans-serif" font-size="16" fill="#333333"><tspan x="46.79" dy="0.00">Class01</tspan></text><rect x="8.00" y="213.77" width="77.59" height="104.00" rx="3" ry="3" fill="#ECECFF" stroke="#7B88A8" stroke-width="1" stroke-linejoin="round" stroke-linecap="round"/><text x="46.79" y="269.77" text-anchor="middle" font-family="'trebuchet ms', verdana, arial, sans-serif" font-size="16" fill="#333333"><tspan x="46.79" dy="0.00">Class02</tspan></text></svg>