<svg xmlns="http://www.w3.org/2000/svg" width="1232.7441" height="691.1" viewBox="0 0 1232.7441 691.1"><rect x="0" y="0" width="1232.7441" height="691.1" fill="#FFFFFF"/><defs><marker id="arrow-0" viewBox="0 0 10 10" refX="5" refY="5" markerUnits="userSpaceOnUse" markerWidth="8" markerHeight="8" orient="auto"><path d="M 0 0 L 10 5 L 0 10 z" fill="#2F3B4D" stroke="#2F3B4D" stroke-width="1" stroke-dasharray="1,0"/></marker><marker id="arrow-start-0" viewBox="0 0 10 10" refX="4.5" refY="5" markerUnits="userSpaceOnUse" markerWidth="8" markerHeight="8" orient="auto"><path d="M 0 5 L 10 10 L 10 0 z" fill="#2F3B4D" stroke="#2F3B4D" stroke-width="1" stroke-dasharray="1,0"/></marker><marker id="arrow-class-open-0" viewBox="0 0 20 14" refX="1" refY="7" markerUnits="userSpaceOnUse" markerWidth="20" markerHeight="14" orient="auto"><path d="M 1 7 L 18 13 V 1 Z" fill="none" stroke="#2F3B4D" stroke-width="1" stroke-dasharray="1,0"/></marker><marker id="arrow-class-open-start-0" viewBox="0 0 20 14" refX="18" refY="7" markerUnits="userSpaceOnUse" markerWidth="20" markerHeight="14" orient="auto"><path d="M 1 7 L 18 13 V 1 Z" fill="none" stroke="#2F3B4D" stroke-width="1" stroke-dasharray="1,0"/></marker><marker id="arrow-class-dep-0" viewBox="0 0 20 14" refX="13" refY="7" markerUnits="userSpaceOnUse" markerWidth="20" markerHeight="14" orient="auto"><path d="M 18 7 L 9 13 L 14 7 L 9 1 Z" fill="#2F3B4D" stroke="#2F3B4D" stroke-width="1" stroke-dasharray="1,0"/></marker><marker id="arrow-class-dep-start-0" viewBox="0 0 20 14" refX="6" refY="7" markerUnits="userSpaceOnUse" markerWidth="20" markerHeight="14" orient="auto"><path d="M 5 7 L 9 13 L 1 7 L 9 1 Z" fill="#2F3B4D" stroke="#2F3B4D" stroke-width="1" stroke-dasharray="1,0"/></marker></defs><path class="edgePath" d="M 99.258,391.600 L 235.774,495.900" fill="none" stroke="#2F3B4D" stroke-width="1" marker-end="url(#arrow-class-dep-0)"   stroke-linecap="round" stroke-linejoin="round" /><rect x="115.78" y="486.33" width="53.93" height="28.00" rx="2" ry="2" fill="rgba(248,250,252, 0.92)" fill-opacity="0.85" stroke="#7B88A8" stroke-opacity="0.35" stroke-width="0.8"/><text x="142.74" y="504.33" text-anchor="middle" font-family="'trebuchet ms', verdana, arial, sans-serif" font-size="16" fill="#333333"><tspan x="142.74" dy="0.00">places</tspan></text><rect x="105.92" y="403.56" width="14.06" height="27.20" rx="2" ry="2" fill="rgba(248,250,252, 0.92)" fill-opacity="0.90" stroke="#7B88A8" stroke-opacity="0.40" stroke-width="0.8"/><text x="112.95" y="421.16" text-anchor="middle" font-family="'trebuchet ms', verdana, arial, sans-serif" font-size="16" fill="#333333"><tspan x="112.95" dy="0.00">1</tspan></text><rect x="215.05" y="456.74" width="14.06" height="27.20" rx="2" ry="2" fill="rgba(248,250,252, 0.92)" fill-opacity="0.90" stroke="#7B88A8" stroke-opacity="0.40" stroke-width="0.8"/><text x="222.08" y="474.34" text-anchor="middle" font-family="'trebuchet ms', verdana, arial, sans-serif" font-size="16" fill="#333333"><tspan x="222.08" dy="0.00">*</tspan></text><path class="edgePath" d="M 331.774,495.900 L 468.290,330.400" fill="none" stroke="#2F3B4D" stroke-width="1" marker-end="url(#arrow-class-dep-0)"   stroke-linecap="round" stroke-linejoin="round" /><rect x="365.41" y="399.15" width="69.24" height="28.00" rx="2" ry="2" fill="rgba(248,250,252, 0.92)" fill-opacity="0.85" stroke="#7B88A8" stroke-opacity="0.35" stroke-width="0.8"/><text x="400.03" y="417.15" text-anchor="middle" font-family="'trebuchet ms', verdana, arial, sans-serif" font-size="16" fill="#333333"><tspan x="400.03" dy="0.00">contains</tspan></text><rect x="332.29" y="454.30" width="14.06" height="27.20" rx="2" ry="2" fill="rgba(248,250,252, 0.92)" fill-opacity="0.90" stroke="#7B88A8" stroke-opacity="0.40" stroke-width="0.8"/><text x="339.32" y="471.90" text-anchor="middle" font-family="'trebuchet ms', verdana, arial, sans-serif" font-size="16" fill="#333333"><tspan x="339.32" dy="0.00">*</tspan></text><rect x="453.72" y="344.80" width="14.06" height="27.20" rx="2" ry="2" fill="rgba(248,250,252, 0.92)" fill-opacity="0.90" stroke="#7B88A8" stroke-opacity="0.40" stroke-width="0.8"/><text x="460.75" y="362.40" text-anchor="middle" font-family="'trebuchet ms', verdana, arial, sans-serif" font-size="16" fill="#333333"><tspan x="460.75" dy="0.00">*</tspan></text><path class="edgePath" d="M 359.032,557.500 L 645.936,557.500 L 645.936,97.200 L 932.840,97.200" fill="none" stroke="#2F3B4D" stroke-width="1" marker-end="url(#arrow-class-dep-0)"   stroke-linecap="round" stroke-linejoin="round" /><rect x="630.45" y="313.35" width="30.97" height="28.00" rx="2" ry="2" fill="rgba(248,250,252, 0.92)" fill-opacity="0.85" stroke="#7B88A8" stroke-opacity="0.35" stroke-width="0.8"/><text x="645.94" y="331.35" text-anchor="middle" font-family="'trebuchet ms', verdana, arial, sans-serif" font-size="16" fill="#333333"><tspan x="645.94" dy="0.00">has</tspan></text><rect x="368.80" y="555.90" width="14.06" height="27.20" rx="2" ry="2" fill="rgba(248,250,252, 0.92)" fill-opacity="0.90" stroke="#7B88A8" stroke-opacity="0.40" stroke-width="0.8"/><text x="375.83" y="573.50" text-anchor="middle" font-family="'trebuchet ms', verdana, arial, sans-serif" font-size="16" fill="#333333"><tspan x="375.83" dy="0.00">1</tspan></text><rect x="909.01" y="71.60" width="14.06" height="27.20" rx="2" ry="2" fill="rgba(248,250,252, 0.92)" fill-opacity="0.90" stroke="#7B88A8" stroke-opacity="0.40" stroke-width="0.8"/><text x="916.04" y="89.20" text-anchor="middle" font-family="'trebuchet ms', verdana, arial, sans-serif" font-size="16" fill="#333333"><tspan x="916.04" dy="0.00">1</tspan></text><path class="edgePath" d="M 1059.926,154.400 L 1098.348,204.400" fill="none" stroke="#2F3B4D" stroke-width="1"  marker-start="url(#arrow-class-open-start-0)"  stroke-linecap="round" stroke-linejoin="round" /><path class="edgePath" d="M 963.926,154.400 L 926.695,204.400" fill="none" stroke="#2F3B4D" stroke-width="1"  marker-start="url(#arrow-class-open-start-0)"  stroke-linecap="round" stroke-linejoin="round" /><rect x="1035.95" y="204.40" width="188.79" height="126.00" rx="3" ry="3" fill="#ECECFF" stroke="#7B88A8" stroke-width="1" stroke-linejoin="round" stroke-linecap="round"/><line x1="1041.95" y1="247.20" x2="1218.74" y2="247.20" stroke="#7B88A8" stroke-width="1.0"/><line x1="1041.95" y1="288.00" x2="1218.74" y2="288.00" stroke="#7B88A8" stroke-width="1.0"/><text x="1130.35" y="232.40" text-anchor="middle" font-family="'trebuchet ms', verdana, arial, sans-serif" font-size="16" fill="#333333"><tspan x="1130.35" dy="0.00" font-weight="600">CreditCard</tspan></text><text x="1065.95" y="273.20" text-anchor="start" font-family="'trebuchet ms', verdana, arial, sans-serif" font-size="16" fill="#333333"><tspan x="1065.95" dy="0.00">+String cardNumber</tspan><tspan x="1065.95" dy="40.80">+process()</tspan></text><rect x="208.52" y="495.90" width="150.52" height="187.20" rx="3" ry="3" fill="#ECECFF" stroke="#7B88A8" stroke-width="1" stroke-linejoin="round" stroke-linecap="round"/><line x1="214.52" y1="538.70" x2="353.03" y2="538.70" stroke="#7B88A8" stroke-width="1.0"/><line x1="214.52" y1="620.30" x2="353.03" y2="620.30" stroke="#7B88A8" stroke-width="1.0"/><text x="283.77" y="523.90" text-anchor="middle" font-family="'trebuchet ms', verdana, arial, sans-serif" font-size="16" fill="#333333"><tspan x="283.77" dy="0.00" font-weight="600">Order</tspan></text><text x="238.52" y="564.70" text-anchor="start" font-family="'trebuchet ms', verdana, arial, sans-serif" font-size="16" fill="#333333"><tspan x="238.52" dy="0.00">+int id</tspan><tspan x="238.52" dy="20.40">+Date date</tspan><tspan x="238.52" dy="20.40">+double total</tspan><tspan x="238.52" dy="40.80">+addItem()</tspan><tspan x="238.52" dy="20.40">+removeItem()</tspan></text><rect x="835.44" y="204.40" width="150.52" height="126.00" rx="3" ry="3" fill="#ECECFF" stroke="#7B88A8" stroke-width="1" stroke-linejoin="round" stroke-linecap="round"/><line x1="841.44" y1="247.20" x2="979.95" y2="247.20" stroke="#7B88A8" stroke-width="1.0"/><line x1="841.44" y1="288.00" x2="979.95" y2="288.00" stroke="#7B88A8" stroke-width="1.0"/><text x="910.69" y="232.40" text-anchor="middle" font-family="'trebuchet ms', verdana, arial, sans-serif" font-size="16" fill="#333333"><tspan x="910.69" dy="0.00" font-weight="600">PayPal</tspan></text><text x="865.44" y="273.20" text-anchor="start" font-family="'trebuchet ms', verdana, arial, sans-serif" font-size="16" fill="#333333"><tspan x="865.44" dy="0.00">+String email</tspan><tspan x="865.44" dy="40.80">+process()</tspan></text><rect x="932.84" y="8.00" width="158.17" height="146.40" rx="3" ry="3" fill="#ECECFF" stroke="#7B88A8" stroke-width="1" stroke-linejoin="round" stroke-linecap="round"/><line x1="938.84" y1="50.80" x2="1085.01" y2="50.80" stroke="#7B88A8" stroke-width="1.0"/><line x1="938.84" y1="112.00" x2="1085.01" y2="112.00" stroke="#7B88A8" stroke-width="1.0"/><text x="1011.93" y="36.00" text-anchor="middle" font-family="'trebuchet ms', verdana, arial, sans-serif" font-size="16" fill="#333333"><tspan x="1011.93" dy="0.00" font-weight="600">Payment</tspan></text><text x="962.84" y="76.80" text-anchor="start" font-family="'trebuchet ms', verdana, arial, sans-serif" font-size="16" fill="#333333"><tspan x="962.84" dy="0.00">&lt;&lt;abstract&gt;&gt;</tspan><tspan x="962.84" dy="20.40">+double amount</tspan><tspan x="962.84" dy="40.80">+process()</tspan></text><rect x="409.03" y="204.40" width="150.52" height="126.00" rx="3" ry="3" fill="#ECECFF" stroke="#7B88A8" stroke-width="1" stroke-linejoin="round" stroke-linecap="round"/><line x1="415.03" y1="247.20" x2="553.55" y2="247.20" stroke="#7B88A8" stroke-width="1.0"/><text x="484.29" y="232.40" text-anchor="middle" font-family="'trebuchet ms', verdana, arial, sans-serif" font-size="16" fill="#333333"><tspan x="484.29" dy="0.00" font-weight="600">Product</tspan></text><text x="439.03" y="273.20" text-anchor="start" font-family="'trebuchet ms', verdana, arial, sans-serif" font-size="16" fill="#333333"><tspan x="439.03" dy="0.00">+int id</tspan><tspan x="439.03" dy="20.40">+String name</tspan><tspan x="439.03" dy="20.40">+double price</tspan></text><rect x="8.00" y="204.40" width="150.52" height="187.20" rx="3" ry="3" fill="#ECECFF" stroke="#7B88A8" stroke-width="1" stroke-linejoin="round" stroke-linecap="round"/><line x1="14.00" y1="247.20" x2="152.52" y2="247.20" stroke="#7B88A8" stroke-width="1.0"/><line x1="14.00" y1="328.80" x2="152.52" y2="328.80" stroke="#7B88A8" stroke-width="1.0"/><text x="83.26" y="232.40" text-anchor="middle" font-family="'trebuchet ms', verdana, arial, sans-serif" font-size="16" fill="#333333"><tspan x="83.26" dy="0.00" font-weight="600">User</tspan></text><text x="38.00" y="273.20" text-anchor="start" font-family="'trebuchet ms', verdana, arial, sans-serif" font-size="16" fill="#333333"><tspan x="38.00" dy="0.00">+int id</tspan><tspan x="38.00" dy="20.40">+String name</tspan><tspan x="38.00" dy="20.40">+String email</tspan><tspan x="38.00" dy="40.80">+login()</tspan><tspan x="38.00" dy="20.40">+logout()</tspan></text></svg>