<svg xmlns="http://www.w3.org/2000/svg" width="452" height="564.35" viewBox="0 0 452 564.35"><rect width="100%" height="100%" fill="#FFFFFF"/><defs><marker id="arrow-0" viewBox="0 0 10 10" refX="10" refY="5" markerWidth="8" markerHeight="8" orient="auto-start-reverse"><path d="M 0 0 L 10 5 L 0 10 z" fill="#7A8AA6"/></marker><marker id="arrow-start-0" viewBox="0 0 10 10" refX="0" refY="5" markerWidth="8" markerHeight="8" orient="auto"><path d="M 10 0 L 0 5 L 10 10 z" fill="#7A8AA6"/></marker></defs><path d="M 208.00 162.30 L 208.00 175.12 Q 208.00 187.12 196.00 187.12 L 110.50 187.12 Q 98.50 187.12 98.50 199.12 L 98.50 211.95" fill="none" stroke="#7A8AA6" stroke-width="1.4"  marker-start="url(#arrow-start-0)"  stroke-linecap="round" stroke-linejoin="round" /><path d="M 208.00 162.30 L 208.00 350.62 Q 208.00 362.62 196.00 362.62 L 163.41 362.62 Q 153.25 362.62 153.25 372.79 L 153.25 382.95" fill="none" stroke="#7A8AA6" stroke-width="1.4"  marker-start="url(#arrow-start-0)"  stroke-linecap="round" stroke-linejoin="round" /><path d="M 208.00 162.30 L 208.00 175.12 Q 208.00 187.12 220.00 187.12 L 305.50 187.12 Q 317.50 187.12 317.50 199.12 L 317.50 211.95" fill="none" stroke="#7A8AA6" stroke-width="1.4"  marker-start="url(#arrow-start-0)"  stroke-linecap="round" stroke-linejoin="round" /><path d="M 98.50 333.35 L 98.50 346.15 Q 98.50 358.15 110.50 358.15 L 141.25 358.15 Q 153.25 358.15 153.25 370.15 L 153.25 382.95" fill="none" stroke="#7A8AA6" stroke-width="1.4" marker-end="url(#arrow-0)"   stroke-linecap="round" stroke-linejoin="round" /><rect x="96.47" y="345.70" width="58.80" height="24.90" rx="6" ry="6" fill="#FFFFFF" fill-opacity="0.85" stroke="#C7D2E5" stroke-opacity="0.35" stroke-width="0.8"/><text x="125.88" y="362.70" text-anchor="middle" font-family="Inter, Segoe UI, system-ui, -apple-system, sans-serif" font-size="13" fill="#1C2430"><tspan x="125.88" dy="0.00">chases</tspan></text><rect x="117.90" y="24.00" width="180.20" height="138.30" rx="6" ry="6" fill="#F8FAFF" stroke="#C7D2E5" stroke-width="1.4" stroke-linejoin="round" stroke-linecap="round"/><line x1="123.90" y1="59.35" x2="292.10" y2="59.35" stroke="#C7D2E5" stroke-width="1.0"/><line x1="123.90" y1="110.05" x2="292.10" y2="110.05" stroke="#C7D2E5" stroke-width="1.0"/><text x="208.00" y="47.00" text-anchor="middle" font-family="Inter, Segoe UI, system-ui, -apple-system, sans-serif" font-size="13" fill="#1C2430"><tspan x="208.00" dy="0.00" font-weight="600">Animal</tspan></text><text x="133.90" y="80.80" text-anchor="start" font-family="Inter, Segoe UI, system-ui, -apple-system, sans-serif" font-size="13" fill="#1C2430"><tspan x="133.90" dy="0.00">+String name</tspan><tspan x="133.90" dy="16.90">+int age</tspan><tspan x="133.90" dy="16.90">---</tspan><tspan x="133.90" dy="16.90">+makeSound() : void</tspan><tspan x="133.90" dy="16.90">+move() : void</tspan></text><rect x="243.00" y="211.95" width="149.00" height="121.40" rx="6" ry="6" fill="#F8FAFF" stroke="#C7D2E5" stroke-width="1.4" stroke-linejoin="round" stroke-linecap="round"/><line x1="249.00" y1="247.30" x2="386.00" y2="247.30" stroke="#C7D2E5" stroke-width="1.0"/><line x1="249.00" y1="281.10" x2="386.00" y2="281.10" stroke="#C7D2E5" stroke-width="1.0"/><text x="317.50" y="234.95" text-anchor="middle" font-family="Inter, Segoe UI, system-ui, -apple-system, sans-serif" font-size="13" fill="#1C2430"><tspan x="317.50" dy="0.00" font-weight="600">Bird</tspan></text><text x="259.00" y="268.75" text-anchor="start" font-family="Inter, Segoe UI, system-ui, -apple-system, sans-serif" font-size="13" fill="#1C2430"><tspan x="259.00" dy="0.00">+float wingspan</tspan><tspan x="259.00" dy="16.90">---</tspan><tspan x="259.00" dy="16.90">+fly() : void</tspan><tspan x="259.00" dy="16.90">+sing() : void</tspan></text><rect x="70.95" y="382.95" width="164.60" height="121.40" rx="6" ry="6" fill="#F8FAFF" stroke="#C7D2E5" stroke-width="1.4" stroke-linejoin="round" stroke-linecap="round"/><line x1="76.95" y1="418.30" x2="229.55" y2="418.30" stroke="#C7D2E5" stroke-width="1.0"/><line x1="76.95" y1="452.10" x2="229.55" y2="452.10" stroke="#C7D2E5" stroke-width="1.0"/><text x="153.25" y="405.95" text-anchor="middle" font-family="Inter, Segoe UI, system-ui, -apple-system, sans-serif" font-size="13" fill="#1C2430"><tspan x="153.25" dy="0.00" font-weight="600">Cat</tspan></text><text x="86.95" y="439.75" text-anchor="start" font-family="Inter, Segoe UI, system-ui, -apple-system, sans-serif" font-size="13" fill="#1C2430"><tspan x="86.95" dy="0.00">+String color</tspan><tspan x="86.95" dy="16.90">---</tspan><tspan x="86.95" dy="16.90">+meow() : void</tspan><tspan x="86.95" dy="16.90">+scratch() : void</tspan></text><rect x="24.00" y="211.95" width="149.00" height="121.40" rx="6" ry="6" fill="#F8FAFF" stroke="#C7D2E5" stroke-width="1.4" stroke-linejoin="round" stroke-linecap="round"/><line x1="30.00" y1="247.30" x2="167.00" y2="247.30" stroke="#C7D2E5" stroke-width="1.0"/><line x1="30.00" y1="281.10" x2="167.00" y2="281.10" stroke="#C7D2E5" stroke-width="1.0"/><text x="98.50" y="234.95" text-anchor="middle" font-family="Inter, Segoe UI, system-ui, -apple-system, sans-serif" font-size="13" fill="#1C2430"><tspan x="98.50" dy="0.00" font-weight="600">Dog</tspan></text><text x="40.00" y="268.75" text-anchor="start" font-family="Inter, Segoe UI, system-ui, -apple-system, sans-serif" font-size="13" fill="#1C2430"><tspan x="40.00" dy="0.00">+String breed</tspan><tspan x="40.00" dy="16.90">---</tspan><tspan x="40.00" dy="16.90">+bark() : void</tspan><tspan x="40.00" dy="16.90">+fetch() : void</tspan></text></svg>