<svg xmlns="http://www.w3.org/2000/svg" width="489.5133" height="533.2" viewBox="0 0 489.5133 533.2"><rect x="0" y="0" width="489.5133" height="533.2" fill="#FFFFFF"/><defs><marker id="arrow-0" viewBox="0 0 10 10" refX="5" refY="5" markerUnits="userSpaceOnUse" markerWidth="8" markerHeight="8" orient="auto"><path d="M 0 0 L 10 5 L 0 10 z" fill="#2F3B4D" stroke="#2F3B4D" stroke-width="1" stroke-dasharray="1,0"/></marker><marker id="arrow-start-0" viewBox="0 0 10 10" refX="4.5" refY="5" markerUnits="userSpaceOnUse" markerWidth="8" markerHeight="8" orient="auto"><path d="M 0 5 L 10 10 L 10 0 z" fill="#2F3B4D" stroke="#2F3B4D" stroke-width="1" stroke-dasharray="1,0"/></marker><marker id="arrow-class-open-0" viewBox="0 0 20 14" refX="1" refY="7" markerUnits="userSpaceOnUse" markerWidth="20" markerHeight="14" orient="auto"><path d="M 1 7 L 18 13 V 1 Z" fill="none" stroke="#2F3B4D" stroke-width="1" stroke-dasharray="1,0"/></marker><marker id="arrow-class-open-start-0" viewBox="0 0 20 14" refX="18" refY="7" markerUnits="userSpaceOnUse" markerWidth="20" markerHeight="14" orient="auto"><path d="M 1 7 L 18 13 V 1 Z" fill="none" stroke="#2F3B4D" stroke-width="1" stroke-dasharray="1,0"/></marker><marker id="arrow-class-dep-0" viewBox="0 0 20 14" refX="13" refY="7" markerUnits="userSpaceOnUse" markerWidth="20" markerHeight="14" orient="auto"><path d="M 18 7 L 9 13 L 14 7 L 9 1 Z" fill="#2F3B4D" stroke="#2F3B4D" stroke-width="1" stroke-dasharray="1,0"/></marker><marker id="arrow-class-dep-start-0" viewBox="0 0 20 14" refX="6" refY="7" markerUnits="userSpaceOnUse" markerWidth="20" markerHeight="14" orient="auto"><path d="M 5 7 L 9 13 L 1 7 L 9 1 Z" fill="#2F3B4D" stroke="#2F3B4D" stroke-width="1" stroke-dasharray="1,0"/></marker></defs><path d="M 178.114,154.400L 178.114,155.858C178.114,157.317,178.114,160.233,178.114,163.150C178.114,166.067,178.114,168.983,176.694,170.773C175.274,172.563,172.434,173.226,163.148,175.395C153.862,177.563,138.131,181.237,128.845,183.405C119.559,185.574,116.719,186.237,115.298,188.027C113.878,189.817,113.878,192.733,113.878,195.650C113.878,198.567,113.878,201.483,113.878,202.942L 113.878,204.400" fill="none" stroke="#2F3B4D" stroke-width="1"  marker-start="url(#arrow-class-open-start-0)" stroke-dasharray="2" stroke-linecap="round" stroke-linejoin="round" /><path d="M 313.975,154.400L 313.975,155.858C313.975,157.317,313.975,160.233,313.975,163.150C313.975,166.067,313.975,168.983,315.392,170.786C316.809,172.589,319.643,173.279,328.503,175.434C337.362,177.589,352.248,181.211,361.107,183.366C369.967,185.521,372.801,186.211,374.218,188.014C375.635,189.817,375.635,192.733,375.635,195.650C375.635,198.567,375.635,201.483,375.635,202.942L 375.635,204.400" fill="none" stroke="#2F3B4D" stroke-width="1"  marker-start="url(#arrow-class-open-start-0)" stroke-dasharray="2" stroke-linecap="round" stroke-linejoin="round" /><path d="M 375.635,371.200L 375.635,372.658C375.635,374.117,375.635,377.033,375.635,379.950C375.635,382.867,375.635,385.783,374.742,388.395C373.849,391.006,372.063,393.312,371.020,394.659C369.976,396.006,369.675,396.394,368.632,397.741C367.589,399.088,365.803,401.394,364.910,404.005C364.017,406.617,364.017,409.533,364.017,412.450C364.017,415.367,364.017,418.283,364.017,419.742L 364.017,421.200" fill="none" stroke="#2F3B4D" stroke-width="1"  marker-start="url(#arrow-class-open-start-0)"  stroke-linecap="round" stroke-linejoin="round" /><rect x="8.00" y="204.40" width="211.76" height="146.40" rx="3" ry="3" fill="#ECECFF" stroke="#7B88A8" stroke-width="1" stroke-linejoin="round" stroke-linecap="round"/><line x1="14.00" y1="247.20" x2="213.76" y2="247.20" stroke="#7B88A8" stroke-width="1.0"/><line x1="14.00" y1="288.00" x2="213.76" y2="288.00" stroke="#7B88A8" stroke-width="1.0"/><text x="113.88" y="232.40" text-anchor="middle" font-family="'trebuchet ms', verdana, arial, sans-serif" font-size="16" fill="#333333"><tspan x="113.88" dy="0.00" font-weight="600">Circle</tspan></text><text x="38.00" y="273.20" text-anchor="start" font-family="'trebuchet ms', verdana, arial, sans-serif" font-size="16" fill="#333333"><tspan x="38.00" dy="0.00">-double radius</tspan><tspan x="38.00" dy="40.80">+area() : double</tspan><tspan x="38.00" dy="20.40">+perimeter() : double</tspan></text><rect x="269.76" y="204.40" width="211.76" height="166.80" rx="3" ry="3" fill="#ECECFF" stroke="#7B88A8" stroke-width="1" stroke-linejoin="round" stroke-linecap="round"/><line x1="275.76" y1="247.20" x2="475.51" y2="247.20" stroke="#7B88A8" stroke-width="1.0"/><line x1="275.76" y1="308.40" x2="475.51" y2="308.40" stroke="#7B88A8" stroke-width="1.0"/><text x="375.63" y="232.40" text-anchor="middle" font-family="'trebuchet ms', verdana, arial, sans-serif" font-size="16" fill="#333333"><tspan x="375.63" dy="0.00" font-weight="600">Rectangle</tspan></text><text x="299.76" y="273.20" text-anchor="start" font-family="'trebuchet ms', verdana, arial, sans-serif" font-size="16" fill="#333333"><tspan x="299.76" dy="0.00">-double width</tspan><tspan x="299.76" dy="20.40">-double height</tspan><tspan x="299.76" dy="40.80">+area() : double</tspan><tspan x="299.76" dy="20.40">+perimeter() : double</tspan></text><rect x="140.17" y="8.00" width="211.76" height="146.40" rx="3" ry="3" fill="#ECECFF" stroke="#7B88A8" stroke-width="1" stroke-linejoin="round" stroke-linecap="round"/><line x1="146.17" y1="50.80" x2="345.92" y2="50.80" stroke="#7B88A8" stroke-width="1.0"/><line x1="146.17" y1="91.60" x2="345.92" y2="91.60" stroke="#7B88A8" stroke-width="1.0"/><text x="246.04" y="36.00" text-anchor="middle" font-family="'trebuchet ms', verdana, arial, sans-serif" font-size="16" fill="#333333"><tspan x="246.04" dy="0.00" font-weight="600">Shape</tspan></text><text x="170.17" y="76.80" text-anchor="start" font-family="'trebuchet ms', verdana, arial, sans-serif" font-size="16" fill="#333333"><tspan x="170.17" dy="0.00">&lt;&lt;interface&gt;&gt;</tspan><tspan x="170.17" dy="40.80">+area() : double</tspan><tspan x="170.17" dy="20.40">+perimeter() : double</tspan></text><rect x="261.97" y="421.20" width="204.10" height="104.00" rx="3" ry="3" fill="#ECECFF" stroke="#7B88A8" stroke-width="1" stroke-linejoin="round" stroke-linecap="round"/><line x1="267.97" y1="473.40" x2="460.07" y2="473.40" stroke="#7B88A8" stroke-width="1.0"/><text x="364.02" y="458.60" text-anchor="middle" font-family="'trebuchet ms', verdana, arial, sans-serif" font-size="16" fill="#333333"><tspan x="364.02" dy="0.00" font-weight="600">Square</tspan></text><text x="291.97" y="499.40" text-anchor="start" font-family="'trebuchet ms', verdana, arial, sans-serif" font-size="16" fill="#333333"><tspan x="291.97" dy="0.00">+Square(double side)</tspan></text></svg>