<svg xmlns="http://www.w3.org/2000/svg" width="490" height="730" viewBox="0 0 490 730"><rect width="100%" height="100%" fill="#FFFFFF"/><defs><marker id="arrow-0" viewBox="0 0 10 10" refX="5" refY="5" markerUnits="userSpaceOnUse" markerWidth="8" markerHeight="8" orient="auto"><path d="M 0 0 L 10 5 L 0 10 z" fill="#333333"/></marker><marker id="arrow-start-0" viewBox="0 0 10 10" refX="4.5" refY="5" markerUnits="userSpaceOnUse" markerWidth="8" markerHeight="8" orient="auto"><path d="M 0 5 L 10 10 L 10 0 z" fill="#333333"/></marker><marker id="arrow-class-open-0" viewBox="0 0 20 14" refX="1" refY="7" markerUnits="userSpaceOnUse" markerWidth="20" markerHeight="14" orient="auto"><path d="M 1 7 L 18 13 V 1 Z" fill="none" stroke="#333333"/></marker><marker id="arrow-class-open-start-0" viewBox="0 0 20 14" refX="18" refY="7" markerUnits="userSpaceOnUse" markerWidth="20" markerHeight="14" orient="auto"><path d="M 1 7 L 18 13 V 1 Z" fill="none" stroke="#333333"/></marker><marker id="arrow-class-dep-0" viewBox="0 0 20 14" refX="13" refY="7" markerUnits="userSpaceOnUse" markerWidth="20" markerHeight="14" orient="auto"><path d="M 18 7 L 9 13 L 14 7 L 9 1 Z" fill="#333333" stroke="#333333"/></marker><marker id="arrow-class-dep-start-0" viewBox="0 0 20 14" refX="6" refY="7" markerUnits="userSpaceOnUse" markerWidth="20" markerHeight="14" orient="auto"><path d="M 5 7 L 9 13 L 1 7 L 9 1 Z" fill="#333333" stroke="#333333"/></marker></defs><path d="M 183.800,222.000C183.800,230.333,196.433,242.833,183.800,247.000C171.167,251.167,120.633,242.833,108.000,247.000C95.367,251.167,108.000,263.667,108.000,272.000" fill="none" stroke="#333333" stroke-width="1"  marker-start="url(#arrow-class-open-start-0)"  stroke-linecap="round" stroke-linejoin="round" /><path d="M 227.000,222.000C227.000,307.667,232.517,436.167,227.000,479.000C221.483,521.833,199.417,476.167,193.900,479.000C188.383,481.833,193.900,490.333,193.900,496.000" fill="none" stroke="#333333" stroke-width="1"  marker-start="url(#arrow-class-open-start-0)"  stroke-linecap="round" stroke-linejoin="round" /><path d="M 270.200,222.000C270.200,230.333,257.567,242.833,270.200,247.000C282.833,251.167,333.367,242.833,346.000,247.000C358.633,251.167,346.000,263.667,346.000,272.000" fill="none" stroke="#333333" stroke-width="1"  marker-start="url(#arrow-class-open-start-0)"  stroke-linecap="round" stroke-linejoin="round" /><path d="M 108.000,446.000C108.000,454.333,102.483,466.833,108.000,471.000C113.517,475.167,135.583,466.833,141.100,471.000C146.617,475.167,141.100,487.667,141.100,496.000" fill="none" stroke="#333333" stroke-width="1" marker-end="url(#arrow-class-dep-0)"   stroke-linecap="round" stroke-linejoin="round" /><rect x="98.95" y="457.00" width="51.20" height="28.00" rx="0" ry="0" fill="#ECECFF" fill-opacity="0.5" stroke="none"/><text x="124.55" y="475.00" text-anchor="middle" font-family="'trebuchet ms', verdana, arial, sans-serif" font-size="16" fill="#333333"><tspan x="124.55" dy="0.00">chases</tspan></text><rect x="128.60" y="24.00" width="196.80" height="198.00" rx="0" ry="0" fill="#ECECFF" stroke="#9370DB" stroke-width="1" stroke-linejoin="round" stroke-linecap="round"/><line x1="134.60" y1="73.40" x2="319.40" y2="73.40" stroke="#9370DB" stroke-width="1.0"/><line x1="134.60" y1="145.40" x2="319.40" y2="145.40" stroke="#9370DB" stroke-width="1.0"/><text x="227.00" y="55.00" text-anchor="middle" font-family="'trebuchet ms', verdana, arial, sans-serif" font-size="16" fill="#333333"><tspan x="227.00" dy="0.00" font-weight="600">Animal</tspan></text><text x="158.60" y="103.00" text-anchor="start" font-family="'trebuchet ms', verdana, arial, sans-serif" font-size="16" fill="#333333"><tspan x="158.60" dy="0.00">+String name</tspan><tspan x="158.60" dy="24.00">+int age</tspan><tspan x="158.60" dy="48.00">+makeSound() : void</tspan><tspan x="158.60" dy="24.00">+move() : void</tspan></text><rect x="262.00" y="272.00" width="168.00" height="174.00" rx="0" ry="0" fill="#ECECFF" stroke="#9370DB" stroke-width="1" stroke-linejoin="round" stroke-linecap="round"/><line x1="268.00" y1="321.40" x2="424.00" y2="321.40" stroke="#9370DB" stroke-width="1.0"/><line x1="268.00" y1="369.40" x2="424.00" y2="369.40" stroke="#9370DB" stroke-width="1.0"/><text x="346.00" y="303.00" text-anchor="middle" font-family="'trebuchet ms', verdana, arial, sans-serif" font-size="16" fill="#333333"><tspan x="346.00" dy="0.00" font-weight="600">Bird</tspan></text><text x="292.00" y="351.00" text-anchor="start" font-family="'trebuchet ms', verdana, arial, sans-serif" font-size="16" fill="#333333"><tspan x="292.00" dy="0.00">+float wingspan</tspan><tspan x="292.00" dy="48.00">+fly() : void</tspan><tspan x="292.00" dy="24.00">+sing() : void</tspan></text><rect x="76.30" y="496.00" width="182.40" height="174.00" rx="0" ry="0" fill="#ECECFF" stroke="#9370DB" stroke-width="1" stroke-linejoin="round" stroke-linecap="round"/><line x1="82.30" y1="545.40" x2="252.70" y2="545.40" stroke="#9370DB" stroke-width="1.0"/><line x1="82.30" y1="593.40" x2="252.70" y2="593.40" stroke="#9370DB" stroke-width="1.0"/><text x="167.50" y="527.00" text-anchor="middle" font-family="'trebuchet ms', verdana, arial, sans-serif" font-size="16" fill="#333333"><tspan x="167.50" dy="0.00" font-weight="600">Cat</tspan></text><text x="106.30" y="575.00" text-anchor="start" font-family="'trebuchet ms', verdana, arial, sans-serif" font-size="16" fill="#333333"><tspan x="106.30" dy="0.00">+String color</tspan><tspan x="106.30" dy="48.00">+meow() : void</tspan><tspan x="106.30" dy="24.00">+scratch() : void</tspan></text><rect x="24.00" y="272.00" width="168.00" height="174.00" rx="0" ry="0" fill="#ECECFF" stroke="#9370DB" stroke-width="1" stroke-linejoin="round" stroke-linecap="round"/><line x1="30.00" y1="321.40" x2="186.00" y2="321.40" stroke="#9370DB" stroke-width="1.0"/><line x1="30.00" y1="369.40" x2="186.00" y2="369.40" stroke="#9370DB" stroke-width="1.0"/><text x="108.00" y="303.00" text-anchor="middle" font-family="'trebuchet ms', verdana, arial, sans-serif" font-size="16" fill="#333333"><tspan x="108.00" dy="0.00" font-weight="600">Dog</tspan></text><text x="54.00" y="351.00" text-anchor="start" font-family="'trebuchet ms', verdana, arial, sans-serif" font-size="16" fill="#333333"><tspan x="54.00" dy="0.00">+String breed</tspan><tspan x="54.00" dy="48.00">+bark() : void</tspan><tspan x="54.00" dy="24.00">+fetch() : void</tspan></text></svg>