<svg xmlns="http://www.w3.org/2000/svg" width="513.2127" height="565.2" viewBox="0 0 513.2127 565.2"><rect x="0" y="0" width="513.2127" height="565.2" fill="#FFFFFF"/><defs><marker id="arrow-0" viewBox="0 0 10 10" refX="5" refY="5" markerUnits="userSpaceOnUse" markerWidth="8" markerHeight="8" orient="auto"><path d="M 0 0 L 10 5 L 0 10 z" fill="#2F3B4D" stroke="#2F3B4D" stroke-width="1" stroke-dasharray="1,0"/></marker><marker id="arrow-start-0" viewBox="0 0 10 10" refX="4.5" refY="5" markerUnits="userSpaceOnUse" markerWidth="8" markerHeight="8" orient="auto"><path d="M 0 5 L 10 10 L 10 0 z" fill="#2F3B4D" stroke="#2F3B4D" stroke-width="1" stroke-dasharray="1,0"/></marker><marker id="arrow-class-open-0" viewBox="0 0 20 14" refX="1" refY="7" markerUnits="userSpaceOnUse" markerWidth="20" markerHeight="14" orient="auto"><path d="M 1 7 L 18 13 V 1 Z" fill="none" stroke="#2F3B4D" stroke-width="1" stroke-dasharray="1,0"/></marker><marker id="arrow-class-open-start-0" viewBox="0 0 20 14" refX="18" refY="7" markerUnits="userSpaceOnUse" markerWidth="20" markerHeight="14" orient="auto"><path d="M 1 7 L 18 13 V 1 Z" fill="none" stroke="#2F3B4D" stroke-width="1" stroke-dasharray="1,0"/></marker><marker id="arrow-class-dep-0" viewBox="0 0 20 14" refX="13" refY="7" markerUnits="userSpaceOnUse" markerWidth="20" markerHeight="14" orient="auto"><path d="M 18 7 L 9 13 L 14 7 L 9 1 Z" fill="#2F3B4D" stroke="#2F3B4D" stroke-width="1" stroke-dasharray="1,0"/></marker><marker id="arrow-class-dep-start-0" viewBox="0 0 20 14" refX="6" refY="7" markerUnits="userSpaceOnUse" markerWidth="20" markerHeight="14" orient="auto"><path d="M 5 7 L 9 13 L 1 7 L 9 1 Z" fill="#2F3B4D" stroke="#2F3B4D" stroke-width="1" stroke-dasharray="1,0"/></marker></defs><path d="M 366.213,174.800L 366.213,176.258C366.213,177.717,366.213,180.633,366.213,183.550C366.213,186.467,366.213,189.383,366.878,192.140C367.543,194.896,368.873,197.491,372.223,204.027C375.572,210.562,380.941,221.038,384.290,227.573C387.639,234.109,388.969,236.704,389.635,239.461C390.300,242.217,390.300,245.133,390.300,248.050C390.300,250.967,390.300,253.883,390.300,255.342L 390.300,256.800" fill="none" stroke="#2F3B4D" stroke-width="1"  marker-start="url(#arrow-class-open-start-0)" stroke-dasharray="2" stroke-linecap="round" stroke-linejoin="round" /><path d="M 166.129,382.800L 166.129,384.258C166.129,385.717,166.129,388.633,166.129,391.550C166.129,394.467,166.129,397.383,165.095,399.871C164.061,402.358,161.994,404.415,157.101,409.287C152.208,414.158,144.489,421.842,139.595,426.713C134.702,431.585,132.635,433.642,131.602,436.129C130.568,438.617,130.568,441.533,130.568,444.450C130.568,447.367,130.568,450.283,130.568,451.742L 130.568,453.200" fill="none" stroke="#2F3B4D" stroke-width="1"  marker-start="url(#arrow-class-open-start-0)" stroke-dasharray="2" stroke-linecap="round" stroke-linejoin="round" /><path d="M 262.129,382.800L 262.129,384.258C262.129,385.717,262.129,388.633,262.129,391.550C262.129,394.467,262.129,397.383,263.162,399.870C264.196,402.357,266.264,404.415,271.159,409.286C276.055,414.157,283.778,421.843,288.674,426.714C293.569,431.585,295.637,433.643,296.671,436.130C297.704,438.617,297.704,441.533,297.704,444.450C297.704,447.367,297.704,450.283,297.704,451.742L 297.704,453.200" fill="none" stroke="#2F3B4D" stroke-width="1"  marker-start="url(#arrow-class-open-start-0)" stroke-dasharray="2" stroke-linecap="round" stroke-linejoin="round" /><path d="M 270.213,174.800L 270.213,176.258C270.213,177.717,270.213,180.633,270.213,183.550C270.213,186.467,270.213,189.383,269.267,191.951C268.320,194.519,266.428,196.738,260.693,203.462C254.959,210.186,245.383,221.414,239.648,228.138C233.914,234.862,232.021,237.081,231.075,239.649C230.129,242.217,230.129,245.133,230.129,248.050C230.129,250.967,230.129,253.883,230.129,255.342L 230.129,256.800" fill="none" stroke="#2F3B4D" stroke-width="1"    stroke-linecap="round" stroke-linejoin="round" /><g transform="translate(270.21 174.80) rotate(90.00)"><polygon points="0,0 9,6 18,0 9,-6" fill="none" stroke="#2F3B4D" stroke-width="1" stroke-linejoin="round" stroke-linecap="round"/></g><rect x="211.72" y="201.80" width="76.90" height="28.00" rx="2" ry="2" fill="rgba(248,250,252, 0.92)" fill-opacity="0.85" stroke="#7B88A8" stroke-opacity="0.35" stroke-width="0.8"/><text x="250.17" y="219.80" text-anchor="middle" font-family="'trebuchet ms', verdana, arial, sans-serif" font-size="16" fill="#333333"><tspan x="250.17" dy="0.00">observers</tspan></text><rect x="8.00" y="453.20" width="181.14" height="104.00" rx="3" ry="3" fill="#ECECFF" stroke="#7B88A8" stroke-width="1" stroke-linejoin="round" stroke-linecap="round"/><line x1="14.00" y1="505.40" x2="183.14" y2="505.40" stroke="#7B88A8" stroke-width="1.0"/><text x="98.57" y="490.60" text-anchor="middle" font-family="'trebuchet ms', verdana, arial, sans-serif" font-size="16" fill="#333333"><tspan x="98.57" dy="0.00" font-weight="600">ConcreteObserverA</tspan></text><text x="38.00" y="531.40" text-anchor="start" font-family="'trebuchet ms', verdana, arial, sans-serif" font-size="16" fill="#333333"><tspan x="38.00" dy="0.00">+update()</tspan></text><rect x="239.14" y="453.20" width="181.14" height="104.00" rx="3" ry="3" fill="#ECECFF" stroke="#7B88A8" stroke-width="1" stroke-linejoin="round" stroke-linecap="round"/><line x1="245.14" y1="505.40" x2="414.27" y2="505.40" stroke="#7B88A8" stroke-width="1.0"/><text x="329.70" y="490.60" text-anchor="middle" font-family="'trebuchet ms', verdana, arial, sans-serif" font-size="16" fill="#333333"><tspan x="329.70" dy="0.00" font-weight="600">ConcreteObserverB</tspan></text><text x="269.14" y="531.40" text-anchor="start" font-family="'trebuchet ms', verdana, arial, sans-serif" font-size="16" fill="#333333"><tspan x="269.14" dy="0.00">+update()</tspan></text><rect x="339.39" y="256.80" width="165.83" height="146.40" rx="3" ry="3" fill="#ECECFF" stroke="#7B88A8" stroke-width="1" stroke-linejoin="round" stroke-linecap="round"/><line x1="345.39" y1="299.60" x2="499.21" y2="299.60" stroke="#7B88A8" stroke-width="1.0"/><line x1="345.39" y1="340.40" x2="499.21" y2="340.40" stroke="#7B88A8" stroke-width="1.0"/><text x="422.30" y="284.80" text-anchor="middle" font-family="'trebuchet ms', verdana, arial, sans-serif" font-size="16" fill="#333333"><tspan x="422.30" dy="0.00" font-weight="600">ConcreteSubject</tspan></text><text x="369.39" y="325.60" text-anchor="start" font-family="'trebuchet ms', verdana, arial, sans-serif" font-size="16" fill="#333333"><tspan x="369.39" dy="0.00">-state</tspan><tspan x="369.39" dy="40.80">+getState()</tspan><tspan x="369.39" dy="20.40">+setState()</tspan></text><rect x="138.87" y="256.80" width="150.52" height="126.00" rx="3" ry="3" fill="#ECECFF" stroke="#7B88A8" stroke-width="1" stroke-linejoin="round" stroke-linecap="round"/><line x1="144.87" y1="299.60" x2="283.39" y2="299.60" stroke="#7B88A8" stroke-width="1.0"/><line x1="144.87" y1="340.40" x2="283.39" y2="340.40" stroke="#7B88A8" stroke-width="1.0"/><text x="214.13" y="284.80" text-anchor="middle" font-family="'trebuchet ms', verdana, arial, sans-serif" font-size="16" fill="#333333"><tspan x="214.13" dy="0.00" font-weight="600">Observer</tspan></text><text x="168.87" y="325.60" text-anchor="start" font-family="'trebuchet ms', verdana, arial, sans-serif" font-size="16" fill="#333333"><tspan x="168.87" dy="0.00">&lt;&lt;interface&gt;&gt;</tspan><tspan x="168.87" dy="40.80">+update()</tspan></text><rect x="227.64" y="8.00" width="181.14" height="166.80" rx="3" ry="3" fill="#ECECFF" stroke="#7B88A8" stroke-width="1" stroke-linejoin="round" stroke-linecap="round"/><line x1="233.64" y1="50.80" x2="402.78" y2="50.80" stroke="#7B88A8" stroke-width="1.0"/><line x1="233.64" y1="91.60" x2="402.78" y2="91.60" stroke="#7B88A8" stroke-width="1.0"/><text x="318.21" y="36.00" text-anchor="middle" font-family="'trebuchet ms', verdana, arial, sans-serif" font-size="16" fill="#333333"><tspan x="318.21" dy="0.00" font-weight="600">Subject</tspan></text><text x="257.64" y="76.80" text-anchor="start" font-family="'trebuchet ms', verdana, arial, sans-serif" font-size="16" fill="#333333"><tspan x="257.64" dy="0.00">&lt;&lt;interface&gt;&gt;</tspan><tspan x="257.64" dy="40.80">+attach(Observer)</tspan><tspan x="257.64" dy="20.40">+detach(Observer)</tspan><tspan x="257.64" dy="20.40">+notify()</tspan></text></svg>