<svg xmlns="http://www.w3.org/2000/svg" width="573.4785" height="812.80005" viewBox="0 0 573.4785 812.80005"><rect x="0" y="0" width="573.4785" height="812.80005" fill="#FFFFFF"/><defs><marker id="arrow-0" viewBox="0 0 10 10" refX="5" refY="5" markerUnits="userSpaceOnUse" markerWidth="8" markerHeight="8" orient="auto"><path d="M 0 0 L 10 5 L 0 10 z" fill="#2F3B4D" stroke="#2F3B4D" stroke-width="1" stroke-dasharray="1,0"/></marker><marker id="arrow-start-0" viewBox="0 0 10 10" refX="4.5" refY="5" markerUnits="userSpaceOnUse" markerWidth="8" markerHeight="8" orient="auto"><path d="M 0 5 L 10 10 L 10 0 z" fill="#2F3B4D" stroke="#2F3B4D" stroke-width="1" stroke-dasharray="1,0"/></marker><marker id="arrow-class-open-0" viewBox="0 0 20 14" refX="1" refY="7" markerUnits="userSpaceOnUse" markerWidth="20" markerHeight="14" orient="auto"><path d="M 1 7 L 18 13 V 1 Z" fill="none" stroke="#2F3B4D" stroke-width="1" stroke-dasharray="1,0"/></marker><marker id="arrow-class-open-start-0" viewBox="0 0 20 14" refX="18" refY="7" markerUnits="userSpaceOnUse" markerWidth="20" markerHeight="14" orient="auto"><path d="M 1 7 L 18 13 V 1 Z" fill="none" stroke="#2F3B4D" stroke-width="1" stroke-dasharray="1,0"/></marker><marker id="arrow-class-dep-0" viewBox="0 0 20 14" refX="13" refY="7" markerUnits="userSpaceOnUse" markerWidth="20" markerHeight="14" orient="auto"><path d="M 18 7 L 9 13 L 14 7 L 9 1 Z" fill="#2F3B4D" stroke="#2F3B4D" stroke-width="1" stroke-dasharray="1,0"/></marker><marker id="arrow-class-dep-start-0" viewBox="0 0 20 14" refX="6" refY="7" markerUnits="userSpaceOnUse" markerWidth="20" markerHeight="14" orient="auto"><path d="M 5 7 L 9 13 L 1 7 L 9 1 Z" fill="#2F3B4D" stroke="#2F3B4D" stroke-width="1" stroke-dasharray="1,0"/></marker></defs><path d="M 185.433,195.200 L 185.431,299.500" fill="none" stroke="#2F3B4D" stroke-width="1" marker-end="url(#arrow-class-dep-0)"   stroke-linecap="round" stroke-linejoin="round" /><rect x="158.47" y="255.32" width="53.93" height="28.00" rx="2" ry="2" fill="rgba(248,250,252, 0.92)" fill-opacity="0.85" stroke="#7B88A8" stroke-opacity="0.35" stroke-width="0.8"/><text x="185.43" y="273.32" text-anchor="middle" font-family="'trebuchet ms', verdana, arial, sans-serif" font-size="16" fill="#333333"><tspan x="185.43" dy="0.00">places</tspan></text><rect x="166.41" y="208.00" width="14.06" height="27.20" rx="2" ry="2" fill="rgba(248,250,252, 0.92)" fill-opacity="0.90" stroke="#7B88A8" stroke-opacity="0.40" stroke-width="0.8"/><text x="173.43" y="225.60" text-anchor="middle" font-family="'trebuchet ms', verdana, arial, sans-serif" font-size="16" fill="#333333"><tspan x="173.43" dy="0.00">1</tspan></text><rect x="216.80" y="259.50" width="14.06" height="27.20" rx="2" ry="2" fill="rgba(248,250,252, 0.92)" fill-opacity="0.90" stroke="#7B88A8" stroke-opacity="0.40" stroke-width="0.8"/><text x="223.83" y="277.10" text-anchor="middle" font-family="'trebuchet ms', verdana, arial, sans-serif" font-size="16" fill="#333333"><tspan x="223.83" dy="0.00">*</tspan></text><path d="M 137.431,486.700 L 99.258,591.000" fill="none" stroke="#2F3B4D" stroke-width="1" marker-end="url(#arrow-class-dep-0)"   stroke-linecap="round" stroke-linejoin="round" /><rect x="50.44" y="494.93" width="69.24" height="28.00" rx="2" ry="2" fill="rgba(248,250,252, 0.92)" fill-opacity="0.85" stroke="#7B88A8" stroke-opacity="0.35" stroke-width="0.8"/><text x="85.06" y="512.93" text-anchor="middle" font-family="'trebuchet ms', verdana, arial, sans-serif" font-size="16" fill="#333333"><tspan x="85.06" dy="0.00">contains</tspan></text><rect x="137.19" y="513.92" width="14.06" height="27.20" rx="2" ry="2" fill="rgba(248,250,252, 0.92)" fill-opacity="0.90" stroke="#7B88A8" stroke-opacity="0.40" stroke-width="0.8"/><text x="144.22" y="531.52" text-anchor="middle" font-family="'trebuchet ms', verdana, arial, sans-serif" font-size="16" fill="#333333"><tspan x="144.22" dy="0.00">*</tspan></text><rect x="131.65" y="553.49" width="14.06" height="27.20" rx="2" ry="2" fill="rgba(248,250,252, 0.92)" fill-opacity="0.90" stroke="#7B88A8" stroke-opacity="0.40" stroke-width="0.8"/><text x="138.68" y="571.09" text-anchor="middle" font-family="'trebuchet ms', verdana, arial, sans-serif" font-size="16" fill="#333333"><tspan x="138.68" dy="0.00">*</tspan></text><path d="M 233.431,486.700 L 271.602,591.000" fill="none" stroke="#2F3B4D" stroke-width="1" marker-end="url(#arrow-class-dep-0)"   stroke-linecap="round" stroke-linejoin="round" /><rect x="259.60" y="496.40" width="30.97" height="28.00" rx="2" ry="2" fill="rgba(248,250,252, 0.92)" fill-opacity="0.85" stroke="#7B88A8" stroke-opacity="0.35" stroke-width="0.8"/><text x="275.08" y="514.40" text-anchor="middle" font-family="'trebuchet ms', verdana, arial, sans-serif" font-size="16" fill="#333333"><tspan x="275.08" dy="0.00">has</tspan></text><rect x="219.62" y="513.92" width="14.06" height="27.20" rx="2" ry="2" fill="rgba(248,250,252, 0.92)" fill-opacity="0.90" stroke="#7B88A8" stroke-opacity="0.40" stroke-width="0.8"/><text x="226.65" y="531.52" text-anchor="middle" font-family="'trebuchet ms', verdana, arial, sans-serif" font-size="16" fill="#333333"><tspan x="226.65" dy="0.00">1</tspan></text><rect x="266.77" y="548.48" width="14.06" height="27.20" rx="2" ry="2" fill="rgba(248,250,252, 0.92)" fill-opacity="0.90" stroke="#7B88A8" stroke-opacity="0.40" stroke-width="0.8"/><text x="273.80" y="566.08" text-anchor="middle" font-family="'trebuchet ms', verdana, arial, sans-serif" font-size="16" fill="#333333"><tspan x="273.80" dy="0.00">1</tspan></text><path d="M 366.687,680.200 L 376.687,725.800" fill="none" stroke="#2F3B4D" stroke-width="1"  marker-start="url(#arrow-class-open-start-0)"  stroke-linecap="round" stroke-linejoin="round" /><path d="M 208.516,680.200 L 198.516,725.800" fill="none" stroke="#2F3B4D" stroke-width="1"  marker-start="url(#arrow-class-open-start-0)"  stroke-linecap="round" stroke-linejoin="round" /><rect x="376.69" y="678.80" width="188.79" height="126.00" rx="3" ry="3" fill="#ECECFF" stroke="#7B88A8" stroke-width="1" stroke-linejoin="round" stroke-linecap="round"/><line x1="382.69" y1="721.60" x2="559.48" y2="721.60" stroke="#7B88A8" stroke-width="1.0"/><line x1="382.69" y1="762.40" x2="559.48" y2="762.40" stroke="#7B88A8" stroke-width="1.0"/><text x="471.08" y="706.80" text-anchor="middle" font-family="'trebuchet ms', verdana, arial, sans-serif" font-size="16" fill="#333333"><tspan x="471.08" dy="0.00" font-weight="600">CreditCard</tspan></text><text x="406.69" y="747.60" text-anchor="start" font-family="'trebuchet ms', verdana, arial, sans-serif" font-size="16" fill="#333333"><tspan x="406.69" dy="0.00">+String cardNumber</tspan><tspan x="406.69" dy="40.80">+process()</tspan></text><rect x="110.17" y="299.50" width="150.52" height="187.20" rx="3" ry="3" fill="#ECECFF" stroke="#7B88A8" stroke-width="1" stroke-linejoin="round" stroke-linecap="round"/><line x1="116.17" y1="342.30" x2="254.69" y2="342.30" stroke="#7B88A8" stroke-width="1.0"/><line x1="116.17" y1="423.90" x2="254.69" y2="423.90" stroke="#7B88A8" stroke-width="1.0"/><text x="185.43" y="327.50" text-anchor="middle" font-family="'trebuchet ms', verdana, arial, sans-serif" font-size="16" fill="#333333"><tspan x="185.43" dy="0.00" font-weight="600">Order</tspan></text><text x="140.17" y="368.30" text-anchor="start" font-family="'trebuchet ms', verdana, arial, sans-serif" font-size="16" fill="#333333"><tspan x="140.17" dy="0.00">+int id</tspan><tspan x="140.17" dy="20.40">+Date date</tspan><tspan x="140.17" dy="20.40">+double total</tspan><tspan x="140.17" dy="40.80">+addItem()</tspan><tspan x="140.17" dy="20.40">+removeItem()</tspan></text><rect x="48.00" y="678.80" width="150.52" height="126.00" rx="3" ry="3" fill="#ECECFF" stroke="#7B88A8" stroke-width="1" stroke-linejoin="round" stroke-linecap="round"/><line x1="54.00" y1="721.60" x2="192.52" y2="721.60" stroke="#7B88A8" stroke-width="1.0"/><line x1="54.00" y1="762.40" x2="192.52" y2="762.40" stroke="#7B88A8" stroke-width="1.0"/><text x="123.26" y="706.80" text-anchor="middle" font-family="'trebuchet ms', verdana, arial, sans-serif" font-size="16" fill="#333333"><tspan x="123.26" dy="0.00" font-weight="600">PayPal</tspan></text><text x="78.00" y="747.60" text-anchor="start" font-family="'trebuchet ms', verdana, arial, sans-serif" font-size="16" fill="#333333"><tspan x="78.00" dy="0.00">+String email</tspan><tspan x="78.00" dy="40.80">+process()</tspan></text><rect x="208.52" y="591.00" width="158.17" height="146.40" rx="3" ry="3" fill="#ECECFF" stroke="#7B88A8" stroke-width="1" stroke-linejoin="round" stroke-linecap="round"/><line x1="214.52" y1="633.80" x2="360.69" y2="633.80" stroke="#7B88A8" stroke-width="1.0"/><line x1="214.52" y1="695.00" x2="360.69" y2="695.00" stroke="#7B88A8" stroke-width="1.0"/><text x="287.60" y="619.00" text-anchor="middle" font-family="'trebuchet ms', verdana, arial, sans-serif" font-size="16" fill="#333333"><tspan x="287.60" dy="0.00" font-weight="600">Payment</tspan></text><text x="238.52" y="659.80" text-anchor="start" font-family="'trebuchet ms', verdana, arial, sans-serif" font-size="16" fill="#333333"><tspan x="238.52" dy="0.00">&lt;&lt;abstract&gt;&gt;</tspan><tspan x="238.52" dy="20.40">+double amount</tspan><tspan x="238.52" dy="40.80">+process()</tspan></text><rect x="8.00" y="591.00" width="150.52" height="126.00" rx="3" ry="3" fill="#ECECFF" stroke="#7B88A8" stroke-width="1" stroke-linejoin="round" stroke-linecap="round"/><line x1="14.00" y1="633.80" x2="152.52" y2="633.80" stroke="#7B88A8" stroke-width="1.0"/><text x="83.26" y="619.00" text-anchor="middle" font-family="'trebuchet ms', verdana, arial, sans-serif" font-size="16" fill="#333333"><tspan x="83.26" dy="0.00" font-weight="600">Product</tspan></text><text x="38.00" y="659.80" text-anchor="start" font-family="'trebuchet ms', verdana, arial, sans-serif" font-size="16" fill="#333333"><tspan x="38.00" dy="0.00">+int id</tspan><tspan x="38.00" dy="20.40">+String name</tspan><tspan x="38.00" dy="20.40">+double price</tspan></text><rect x="110.18" y="8.00" width="150.52" height="187.20" rx="3" ry="3" fill="#ECECFF" stroke="#7B88A8" stroke-width="1" stroke-linejoin="round" stroke-linecap="round"/><line x1="116.18" y1="50.80" x2="254.69" y2="50.80" stroke="#7B88A8" stroke-width="1.0"/><line x1="116.18" y1="132.40" x2="254.69" y2="132.40" stroke="#7B88A8" stroke-width="1.0"/><text x="185.43" y="36.00" text-anchor="middle" font-family="'trebuchet ms', verdana, arial, sans-serif" font-size="16" fill="#333333"><tspan x="185.43" dy="0.00" font-weight="600">User</tspan></text><text x="140.18" y="76.80" text-anchor="start" font-family="'trebuchet ms', verdana, arial, sans-serif" font-size="16" fill="#333333"><tspan x="140.18" dy="0.00">+int id</tspan><tspan x="140.18" dy="20.40">+String name</tspan><tspan x="140.18" dy="20.40">+String email</tspan><tspan x="140.18" dy="40.80">+login()</tspan><tspan x="140.18" dy="20.40">+logout()</tspan></text></svg>