<svg xmlns="http://www.w3.org/2000/svg" width="499.81482" height="876.80005" viewBox="0 0 499.81482 876.80005"><rect x="0" y="0" width="499.81482" height="876.80005" fill="#FFFFFF"/><defs><marker id="arrow-0" viewBox="0 0 10 10" refX="5" refY="5" markerUnits="userSpaceOnUse" markerWidth="8" markerHeight="8" orient="auto"><path d="M 0 0 L 10 5 L 0 10 z" fill="#2F3B4D" stroke="#2F3B4D" stroke-width="1" stroke-dasharray="1,0"/></marker><marker id="arrow-start-0" viewBox="0 0 10 10" refX="4.5" refY="5" markerUnits="userSpaceOnUse" markerWidth="8" markerHeight="8" orient="auto"><path d="M 0 5 L 10 10 L 10 0 z" fill="#2F3B4D" stroke="#2F3B4D" stroke-width="1" stroke-dasharray="1,0"/></marker><marker id="arrow-class-open-0" viewBox="0 0 20 14" refX="1" refY="7" markerUnits="userSpaceOnUse" markerWidth="20" markerHeight="14" orient="auto"><path d="M 1 7 L 18 13 V 1 Z" fill="none" stroke="#2F3B4D" stroke-width="1" stroke-dasharray="1,0"/></marker><marker id="arrow-class-open-start-0" viewBox="0 0 20 14" refX="18" refY="7" markerUnits="userSpaceOnUse" markerWidth="20" markerHeight="14" orient="auto"><path d="M 1 7 L 18 13 V 1 Z" fill="none" stroke="#2F3B4D" stroke-width="1" stroke-dasharray="1,0"/></marker><marker id="arrow-class-dep-0" viewBox="0 0 20 14" refX="13" refY="7" markerUnits="userSpaceOnUse" markerWidth="20" markerHeight="14" orient="auto"><path d="M 18 7 L 9 13 L 14 7 L 9 1 Z" fill="#2F3B4D" stroke="#2F3B4D" stroke-width="1" stroke-dasharray="1,0"/></marker><marker id="arrow-class-dep-start-0" viewBox="0 0 20 14" refX="6" refY="7" markerUnits="userSpaceOnUse" markerWidth="20" markerHeight="14" orient="auto"><path d="M 5 7 L 9 13 L 1 7 L 9 1 Z" fill="#2F3B4D" stroke="#2F3B4D" stroke-width="1" stroke-dasharray="1,0"/></marker></defs><path d="M 185.433,195.200 L 185.431,299.500" fill="none" stroke="#2F3B4D" stroke-width="1" marker-end="url(#arrow-class-dep-0)"   stroke-linecap="round" stroke-linejoin="round" /><rect x="158.47" y="223.35" width="53.93" height="28.00" rx="2" ry="2" fill="rgba(248,250,252, 0.92)" fill-opacity="0.85" stroke="#7B88A8" stroke-opacity="0.35" stroke-width="0.8"/><text x="185.43" y="241.35" text-anchor="middle" font-family="'trebuchet ms', verdana, arial, sans-serif" font-size="16" fill="#333333"><tspan x="185.43" dy="0.00">places</tspan></text><rect x="123.21" y="208.00" width="14.06" height="27.20" rx="2" ry="2" fill="rgba(248,250,252, 0.92)" fill-opacity="0.90" stroke="#7B88A8" stroke-opacity="0.40" stroke-width="0.8"/><text x="130.23" y="225.60" text-anchor="middle" font-family="'trebuchet ms', verdana, arial, sans-serif" font-size="16" fill="#333333"><tspan x="130.23" dy="0.00">1</tspan></text><rect x="123.20" y="259.50" width="14.06" height="27.20" rx="2" ry="2" fill="rgba(248,250,252, 0.92)" fill-opacity="0.90" stroke="#7B88A8" stroke-opacity="0.40" stroke-width="0.8"/><text x="130.23" y="277.10" text-anchor="middle" font-family="'trebuchet ms', verdana, arial, sans-serif" font-size="16" fill="#333333"><tspan x="130.23" dy="0.00">*</tspan></text><path d="M 137.431,486.700L 137.431,488.158C137.431,489.617,137.431,492.533,137.431,495.450C137.431,498.367,137.431,501.283,136.728,504.019C136.024,506.755,134.617,509.309,128.958,519.582C123.300,529.855,113.390,547.845,107.731,558.118C102.073,568.391,100.665,570.945,99.962,573.681C99.258,576.417,99.258,579.333,99.258,582.250C99.258,585.167,99.258,588.083,99.258,589.542L 99.258,591.000" fill="none" stroke="#2F3B4D" stroke-width="1" marker-end="url(#arrow-class-dep-0)"   stroke-linecap="round" stroke-linejoin="round" /><rect x="83.72" y="524.85" width="69.24" height="28.00" rx="2" ry="2" fill="rgba(248,250,252, 0.92)" fill-opacity="0.85" stroke="#7B88A8" stroke-opacity="0.35" stroke-width="0.8"/><text x="118.34" y="542.85" text-anchor="middle" font-family="'trebuchet ms', verdana, arial, sans-serif" font-size="16" fill="#333333"><tspan x="118.34" dy="0.00">contains</tspan></text><rect x="159.20" y="499.50" width="14.06" height="27.20" rx="2" ry="2" fill="rgba(248,250,252, 0.92)" fill-opacity="0.90" stroke="#7B88A8" stroke-opacity="0.40" stroke-width="0.8"/><text x="166.23" y="517.10" text-anchor="middle" font-family="'trebuchet ms', verdana, arial, sans-serif" font-size="16" fill="#333333"><tspan x="166.23" dy="0.00">*</tspan></text><rect x="63.43" y="551.00" width="14.06" height="27.20" rx="2" ry="2" fill="rgba(248,250,252, 0.92)" fill-opacity="0.90" stroke="#7B88A8" stroke-opacity="0.40" stroke-width="0.8"/><text x="70.46" y="568.60" text-anchor="middle" font-family="'trebuchet ms', verdana, arial, sans-serif" font-size="16" fill="#333333"><tspan x="70.46" dy="0.00">*</tspan></text><path d="M 233.431,486.700L 233.431,488.158C233.431,489.617,233.431,492.533,233.431,495.450C233.431,498.367,233.431,501.283,234.135,504.019C234.839,506.755,236.246,509.310,241.904,519.582C247.562,529.855,257.471,547.845,263.129,558.118C268.787,568.390,270.194,570.945,270.898,573.681C271.602,576.417,271.602,579.333,271.602,582.250C271.602,585.167,271.602,588.083,271.602,589.542L 271.602,591.000" fill="none" stroke="#2F3B4D" stroke-width="1" marker-end="url(#arrow-class-dep-0)"   stroke-linecap="round" stroke-linejoin="round" /><rect x="244.52" y="497.44" width="30.97" height="28.00" rx="2" ry="2" fill="rgba(248,250,252, 0.92)" fill-opacity="0.85" stroke="#7B88A8" stroke-opacity="0.35" stroke-width="0.8"/><text x="260.00" y="515.44" text-anchor="middle" font-family="'trebuchet ms', verdana, arial, sans-serif" font-size="16" fill="#333333"><tspan x="260.00" dy="0.00">has</tspan></text><rect x="281.60" y="489.90" width="14.06" height="27.20" rx="2" ry="2" fill="rgba(248,250,252, 0.92)" fill-opacity="0.90" stroke="#7B88A8" stroke-opacity="0.40" stroke-width="0.8"/><text x="288.63" y="507.50" text-anchor="middle" font-family="'trebuchet ms', verdana, arial, sans-serif" font-size="16" fill="#333333"><tspan x="288.63" dy="0.00">1</tspan></text><rect x="276.57" y="551.00" width="14.06" height="27.20" rx="2" ry="2" fill="rgba(248,250,252, 0.92)" fill-opacity="0.90" stroke="#7B88A8" stroke-opacity="0.40" stroke-width="0.8"/><text x="283.60" y="568.60" text-anchor="middle" font-family="'trebuchet ms', verdana, arial, sans-serif" font-size="16" fill="#333333"><tspan x="283.60" dy="0.00">1</tspan></text><path d="M 335.602,737.400L 335.602,738.858C335.602,740.317,335.602,743.233,335.602,746.150C335.602,749.067,335.602,751.983,336.637,752.414C337.672,752.845,339.741,750.790,343.676,746.884C347.611,742.979,353.410,737.221,357.345,733.316C361.279,729.410,363.349,727.355,364.384,727.786C365.419,728.217,365.419,731.133,365.419,734.050C365.419,736.967,365.419,739.883,365.419,741.342L 365.419,742.800" fill="none" stroke="#2F3B4D" stroke-width="1"  marker-start="url(#arrow-class-open-start-0)"  stroke-linecap="round" stroke-linejoin="round" /><path d="M 239.602,737.400L 239.602,738.858C239.602,740.317,239.602,743.233,239.602,746.150C239.602,749.067,239.602,751.983,238.376,752.651C237.151,753.318,234.701,751.736,228.287,747.593C221.873,743.451,211.494,736.749,205.080,732.607C198.666,728.465,196.216,726.882,194.990,727.549C193.765,728.217,193.765,731.133,193.765,734.050C193.765,736.967,193.765,739.883,193.765,741.342L 193.765,742.800" fill="none" stroke="#2F3B4D" stroke-width="1"  marker-start="url(#arrow-class-open-start-0)"  stroke-linecap="round" stroke-linejoin="round" /><rect x="303.02" y="742.80" width="188.79" height="126.00" rx="3" ry="3" fill="#ECECFF" stroke="#7B88A8" stroke-width="1" stroke-linejoin="round" stroke-linecap="round"/><line x1="309.02" y1="785.60" x2="485.81" y2="785.60" stroke="#7B88A8" stroke-width="1.0"/><line x1="309.02" y1="826.40" x2="485.81" y2="826.40" stroke="#7B88A8" stroke-width="1.0"/><text x="397.42" y="770.80" text-anchor="middle" font-family="'trebuchet ms', verdana, arial, sans-serif" font-size="16" fill="#333333"><tspan x="397.42" dy="0.00" font-weight="600">CreditCard</tspan></text><text x="333.02" y="811.60" text-anchor="start" font-family="'trebuchet ms', verdana, arial, sans-serif" font-size="16" fill="#333333"><tspan x="333.02" dy="0.00">+String cardNumber</tspan><tspan x="333.02" dy="40.80">+process()</tspan></text><rect x="110.17" y="299.50" width="150.52" height="187.20" rx="3" ry="3" fill="#ECECFF" stroke="#7B88A8" stroke-width="1" stroke-linejoin="round" stroke-linecap="round"/><line x1="116.17" y1="342.30" x2="254.69" y2="342.30" stroke="#7B88A8" stroke-width="1.0"/><line x1="116.17" y1="423.90" x2="254.69" y2="423.90" stroke="#7B88A8" stroke-width="1.0"/><text x="185.43" y="327.50" text-anchor="middle" font-family="'trebuchet ms', verdana, arial, sans-serif" font-size="16" fill="#333333"><tspan x="185.43" dy="0.00" font-weight="600">Order</tspan></text><text x="140.17" y="368.30" text-anchor="start" font-family="'trebuchet ms', verdana, arial, sans-serif" font-size="16" fill="#333333"><tspan x="140.17" dy="0.00">+int id</tspan><tspan x="140.17" dy="20.40">+Date date</tspan><tspan x="140.17" dy="20.40">+double total</tspan><tspan x="140.17" dy="40.80">+addItem()</tspan><tspan x="140.17" dy="20.40">+removeItem()</tspan></text><rect x="102.51" y="742.80" width="150.52" height="126.00" rx="3" ry="3" fill="#ECECFF" stroke="#7B88A8" stroke-width="1" stroke-linejoin="round" stroke-linecap="round"/><line x1="108.51" y1="785.60" x2="247.02" y2="785.60" stroke="#7B88A8" stroke-width="1.0"/><line x1="108.51" y1="826.40" x2="247.02" y2="826.40" stroke="#7B88A8" stroke-width="1.0"/><text x="177.77" y="770.80" text-anchor="middle" font-family="'trebuchet ms', verdana, arial, sans-serif" font-size="16" fill="#333333"><tspan x="177.77" dy="0.00" font-weight="600">PayPal</tspan></text><text x="132.51" y="811.60" text-anchor="start" font-family="'trebuchet ms', verdana, arial, sans-serif" font-size="16" fill="#333333"><tspan x="132.51" dy="0.00">+String email</tspan><tspan x="132.51" dy="40.80">+process()</tspan></text><rect x="208.52" y="591.00" width="158.17" height="146.40" rx="3" ry="3" fill="#ECECFF" stroke="#7B88A8" stroke-width="1" stroke-linejoin="round" stroke-linecap="round"/><line x1="214.52" y1="633.80" x2="360.69" y2="633.80" stroke="#7B88A8" stroke-width="1.0"/><line x1="214.52" y1="695.00" x2="360.69" y2="695.00" stroke="#7B88A8" stroke-width="1.0"/><text x="287.60" y="619.00" text-anchor="middle" font-family="'trebuchet ms', verdana, arial, sans-serif" font-size="16" fill="#333333"><tspan x="287.60" dy="0.00" font-weight="600">Payment</tspan></text><text x="238.52" y="659.80" text-anchor="start" font-family="'trebuchet ms', verdana, arial, sans-serif" font-size="16" fill="#333333"><tspan x="238.52" dy="0.00">&lt;&lt;abstract&gt;&gt;</tspan><tspan x="238.52" dy="20.40">+double amount</tspan><tspan x="238.52" dy="40.80">+process()</tspan></text><rect x="8.00" y="591.00" width="150.52" height="126.00" rx="3" ry="3" fill="#ECECFF" stroke="#7B88A8" stroke-width="1" stroke-linejoin="round" stroke-linecap="round"/><line x1="14.00" y1="633.80" x2="152.52" y2="633.80" stroke="#7B88A8" stroke-width="1.0"/><text x="83.26" y="619.00" text-anchor="middle" font-family="'trebuchet ms', verdana, arial, sans-serif" font-size="16" fill="#333333"><tspan x="83.26" dy="0.00" font-weight="600">Product</tspan></text><text x="38.00" y="659.80" text-anchor="start" font-family="'trebuchet ms', verdana, arial, sans-serif" font-size="16" fill="#333333"><tspan x="38.00" dy="0.00">+int id</tspan><tspan x="38.00" dy="20.40">+String name</tspan><tspan x="38.00" dy="20.40">+double price</tspan></text><rect x="110.18" y="8.00" width="150.52" height="187.20" rx="3" ry="3" fill="#ECECFF" stroke="#7B88A8" stroke-width="1" stroke-linejoin="round" stroke-linecap="round"/><line x1="116.18" y1="50.80" x2="254.69" y2="50.80" stroke="#7B88A8" stroke-width="1.0"/><line x1="116.18" y1="132.40" x2="254.69" y2="132.40" stroke="#7B88A8" stroke-width="1.0"/><text x="185.43" y="36.00" text-anchor="middle" font-family="'trebuchet ms', verdana, arial, sans-serif" font-size="16" fill="#333333"><tspan x="185.43" dy="0.00" font-weight="600">User</tspan></text><text x="140.18" y="76.80" text-anchor="start" font-family="'trebuchet ms', verdana, arial, sans-serif" font-size="16" fill="#333333"><tspan x="140.18" dy="0.00">+int id</tspan><tspan x="140.18" dy="20.40">+String name</tspan><tspan x="140.18" dy="20.40">+String email</tspan><tspan x="140.18" dy="40.80">+login()</tspan><tspan x="140.18" dy="20.40">+logout()</tspan></text></svg>