<svg xmlns="http://www.w3.org/2000/svg" width="499.8189" height="876.80005" viewBox="0 0 499.8189 876.80005"><rect x="0" y="0" width="499.8189" height="876.80005" fill="#FFFFFF"/><defs><marker id="arrow-0" viewBox="0 0 10 10" refX="5" refY="5" markerUnits="userSpaceOnUse" markerWidth="8" markerHeight="8" orient="auto"><path d="M 0 0 L 10 5 L 0 10 z" fill="#2F3B4D" stroke="#2F3B4D" stroke-width="1" stroke-dasharray="1,0"/></marker><marker id="arrow-start-0" viewBox="0 0 10 10" refX="4.5" refY="5" markerUnits="userSpaceOnUse" markerWidth="8" markerHeight="8" orient="auto"><path d="M 0 5 L 10 10 L 10 0 z" fill="#2F3B4D" stroke="#2F3B4D" stroke-width="1" stroke-dasharray="1,0"/></marker><marker id="arrow-class-open-0" viewBox="0 0 20 14" refX="1" refY="7" markerUnits="userSpaceOnUse" markerWidth="20" markerHeight="14" orient="auto"><path d="M 1 7 L 18 13 V 1 Z" fill="none" stroke="#2F3B4D" stroke-width="1" stroke-dasharray="1,0"/></marker><marker id="arrow-class-open-start-0" viewBox="0 0 20 14" refX="18" refY="7" markerUnits="userSpaceOnUse" markerWidth="20" markerHeight="14" orient="auto"><path d="M 1 7 L 18 13 V 1 Z" fill="none" stroke="#2F3B4D" stroke-width="1" stroke-dasharray="1,0"/></marker><marker id="arrow-class-dep-0" viewBox="0 0 20 14" refX="13" refY="7" markerUnits="userSpaceOnUse" markerWidth="20" markerHeight="14" orient="auto"><path d="M 18 7 L 9 13 L 14 7 L 9 1 Z" fill="#2F3B4D" stroke="#2F3B4D" stroke-width="1" stroke-dasharray="1,0"/></marker><marker id="arrow-class-dep-start-0" viewBox="0 0 20 14" refX="6" refY="7" markerUnits="userSpaceOnUse" markerWidth="20" markerHeight="14" orient="auto"><path d="M 5 7 L 9 13 L 1 7 L 9 1 Z" fill="#2F3B4D" stroke="#2F3B4D" stroke-width="1" stroke-dasharray="1,0"/></marker></defs><path d="M 190.105,195.200L 190.105,196.658C190.105,198.117,190.105,201.033,190.105,203.950C190.105,206.867,190.105,209.783,188.994,212.187C187.884,214.590,185.662,216.480,178.470,222.601C171.278,228.721,159.114,239.072,151.509,245.544C143.905,252.015,140.858,254.608,141.142,256.761C141.426,258.914,145.040,260.628,152.438,264.137C159.836,267.645,171.017,272.948,177.926,276.224C184.834,279.500,187.469,280.750,188.787,282.833C190.105,284.917,190.105,287.833,190.105,290.750C190.105,293.667,190.105,296.583,190.105,298.042L 190.105,299.500" fill="none" stroke="#2F3B4D" stroke-width="1" marker-end="url(#arrow-class-dep-0)"   stroke-linecap="round" stroke-linejoin="round" /><rect x="110.85" y="243.20" width="53.93" height="28.00" rx="2" ry="2" fill="rgba(248,250,252, 0.92)" fill-opacity="0.85" stroke="#7B88A8" stroke-opacity="0.35" stroke-width="0.8"/><text x="137.81" y="261.20" text-anchor="middle" font-family="'trebuchet ms', verdana, arial, sans-serif" font-size="16" fill="#333333"><tspan x="137.81" dy="0.00">places</tspan></text><rect x="171.08" y="208.00" width="14.06" height="27.20" rx="2" ry="2" fill="rgba(248,250,252, 0.92)" fill-opacity="0.90" stroke="#7B88A8" stroke-opacity="0.40" stroke-width="0.8"/><text x="178.10" y="225.60" text-anchor="middle" font-family="'trebuchet ms', verdana, arial, sans-serif" font-size="16" fill="#333333"><tspan x="178.10" dy="0.00">1</tspan></text><rect x="195.08" y="259.50" width="14.06" height="27.20" rx="2" ry="2" fill="rgba(248,250,252, 0.92)" fill-opacity="0.90" stroke="#7B88A8" stroke-opacity="0.40" stroke-width="0.8"/><text x="202.10" y="277.10" text-anchor="middle" font-family="'trebuchet ms', verdana, arial, sans-serif" font-size="16" fill="#333333"><tspan x="202.10" dy="0.00">*</tspan></text><path d="M 142.105,486.700L 142.105,488.158C142.105,489.617,142.105,492.533,142.105,495.450C142.105,498.367,142.105,501.283,143.379,503.451C144.653,505.619,147.201,507.038,152.097,509.765C156.993,512.492,164.237,516.527,169.606,519.517C174.976,522.507,178.470,524.454,178.480,526.417C178.489,528.379,175.013,530.359,162.496,537.487C149.979,544.616,128.420,556.893,116.374,563.753C104.327,570.613,101.793,572.057,100.525,574.237C99.258,576.417,99.258,579.333,99.258,582.250C99.258,585.167,99.258,588.083,99.258,589.542L 99.258,591.000" fill="none" stroke="#2F3B4D" stroke-width="1" marker-end="url(#arrow-class-dep-0)"   stroke-linecap="round" stroke-linejoin="round" /><rect x="147.34" y="512.40" width="69.24" height="28.00" rx="2" ry="2" fill="rgba(248,250,252, 0.92)" fill-opacity="0.85" stroke="#7B88A8" stroke-opacity="0.35" stroke-width="0.8"/><text x="181.96" y="530.40" text-anchor="middle" font-family="'trebuchet ms', verdana, arial, sans-serif" font-size="16" fill="#333333"><tspan x="181.96" dy="0.00">contains</tspan></text><rect x="79.88" y="470.70" width="14.06" height="27.20" rx="2" ry="2" fill="rgba(248,250,252, 0.92)" fill-opacity="0.90" stroke="#7B88A8" stroke-opacity="0.40" stroke-width="0.8"/><text x="86.90" y="488.30" text-anchor="middle" font-family="'trebuchet ms', verdana, arial, sans-serif" font-size="16" fill="#333333"><tspan x="86.90" dy="0.00">*</tspan></text><rect x="63.43" y="551.00" width="14.06" height="27.20" rx="2" ry="2" fill="rgba(248,250,252, 0.92)" fill-opacity="0.90" stroke="#7B88A8" stroke-opacity="0.40" stroke-width="0.8"/><text x="70.46" y="568.60" text-anchor="middle" font-family="'trebuchet ms', verdana, arial, sans-serif" font-size="16" fill="#333333"><tspan x="70.46" dy="0.00">*</tspan></text><path d="M 238.105,486.700L 238.105,488.158C238.105,489.617,238.105,492.533,238.105,495.450C238.105,498.367,238.105,501.283,236.663,502.958C235.220,504.632,232.336,505.064,209.607,508.468C186.877,511.872,144.303,518.247,121.039,521.731C97.774,525.215,93.818,525.808,93.776,526.606C93.734,527.404,97.606,528.407,126.484,535.891C155.363,543.375,209.247,557.340,237.601,564.688C265.955,572.037,268.778,572.768,270.190,574.592C271.602,576.417,271.602,579.333,271.602,582.250C271.602,585.167,271.602,588.083,271.602,589.542L 271.602,591.000" fill="none" stroke="#2F3B4D" stroke-width="1" marker-end="url(#arrow-class-dep-0)"   stroke-linecap="round" stroke-linejoin="round" /><rect x="74.38" y="512.40" width="30.97" height="28.00" rx="2" ry="2" fill="rgba(248,250,252, 0.92)" fill-opacity="0.85" stroke="#7B88A8" stroke-opacity="0.35" stroke-width="0.8"/><text x="89.86" y="530.40" text-anchor="middle" font-family="'trebuchet ms', verdana, arial, sans-serif" font-size="16" fill="#333333"><tspan x="89.86" dy="0.00">has</tspan></text><rect x="243.08" y="499.50" width="14.06" height="27.20" rx="2" ry="2" fill="rgba(248,250,252, 0.92)" fill-opacity="0.90" stroke="#7B88A8" stroke-opacity="0.40" stroke-width="0.8"/><text x="250.10" y="517.10" text-anchor="middle" font-family="'trebuchet ms', verdana, arial, sans-serif" font-size="16" fill="#333333"><tspan x="250.10" dy="0.00">1</tspan></text><rect x="276.57" y="551.00" width="14.06" height="27.20" rx="2" ry="2" fill="rgba(248,250,252, 0.92)" fill-opacity="0.90" stroke="#7B88A8" stroke-opacity="0.40" stroke-width="0.8"/><text x="283.60" y="568.60" text-anchor="middle" font-family="'trebuchet ms', verdana, arial, sans-serif" font-size="16" fill="#333333"><tspan x="283.60" dy="0.00">1</tspan></text><path d="M 335.602,737.400L 335.602,738.858C335.602,740.317,335.602,743.233,335.602,746.150C335.602,749.067,335.602,751.983,336.637,752.414C337.672,752.845,339.742,750.791,343.677,746.885C347.612,742.979,353.413,737.221,357.348,733.315C361.283,729.409,363.353,727.355,364.388,727.786C365.423,728.217,365.423,731.133,365.423,734.050C365.423,736.967,365.423,739.883,365.423,741.342L 365.423,742.800" fill="none" stroke="#2F3B4D" stroke-width="1"  marker-start="url(#arrow-class-open-start-0)"  stroke-linecap="round" stroke-linejoin="round" /><path d="M 239.602,737.400L 239.602,738.858C239.602,740.317,239.602,743.233,239.602,746.150C239.602,749.067,239.602,751.983,238.377,752.650C237.151,753.318,234.701,751.735,228.288,747.593C221.874,743.451,211.497,736.749,205.083,732.607C198.670,728.465,196.220,726.882,194.995,727.550C193.769,728.217,193.769,731.133,193.769,734.050C193.769,736.967,193.769,739.883,193.769,741.342L 193.769,742.800" fill="none" stroke="#2F3B4D" stroke-width="1"  marker-start="url(#arrow-class-open-start-0)"  stroke-linecap="round" stroke-linejoin="round" /><rect x="303.03" y="742.80" width="188.79" height="126.00" rx="3" ry="3" fill="#ECECFF" stroke="#7B88A8" stroke-width="1" stroke-linejoin="round" stroke-linecap="round"/><line x1="309.03" y1="785.60" x2="485.82" y2="785.60" stroke="#7B88A8" stroke-width="1.0"/><line x1="309.03" y1="826.40" x2="485.82" y2="826.40" stroke="#7B88A8" stroke-width="1.0"/><text x="397.42" y="770.80" text-anchor="middle" font-family="'trebuchet ms', verdana, arial, sans-serif" font-size="16" fill="#333333"><tspan x="397.42" dy="0.00" font-weight="600">CreditCard</tspan></text><text x="333.03" y="811.60" text-anchor="start" font-family="'trebuchet ms', verdana, arial, sans-serif" font-size="16" fill="#333333"><tspan x="333.03" dy="0.00">+String cardNumber</tspan><tspan x="333.03" dy="40.80">+process()</tspan></text><rect x="114.85" y="299.50" width="150.52" height="187.20" rx="3" ry="3" fill="#ECECFF" stroke="#7B88A8" stroke-width="1" stroke-linejoin="round" stroke-linecap="round"/><line x1="120.85" y1="342.30" x2="259.36" y2="342.30" stroke="#7B88A8" stroke-width="1.0"/><line x1="120.85" y1="423.90" x2="259.36" y2="423.90" stroke="#7B88A8" stroke-width="1.0"/><text x="190.10" y="327.50" text-anchor="middle" font-family="'trebuchet ms', verdana, arial, sans-serif" font-size="16" fill="#333333"><tspan x="190.10" dy="0.00" font-weight="600">Order</tspan></text><text x="144.85" y="368.30" text-anchor="start" font-family="'trebuchet ms', verdana, arial, sans-serif" font-size="16" fill="#333333"><tspan x="144.85" dy="0.00">+int id</tspan><tspan x="144.85" dy="20.40">+Date date</tspan><tspan x="144.85" dy="20.40">+double total</tspan><tspan x="144.85" dy="40.80">+addItem()</tspan><tspan x="144.85" dy="20.40">+removeItem()</tspan></text><rect x="102.51" y="742.80" width="150.52" height="126.00" rx="3" ry="3" fill="#ECECFF" stroke="#7B88A8" stroke-width="1" stroke-linejoin="round" stroke-linecap="round"/><line x1="108.51" y1="785.60" x2="247.03" y2="785.60" stroke="#7B88A8" stroke-width="1.0"/><line x1="108.51" y1="826.40" x2="247.03" y2="826.40" stroke="#7B88A8" stroke-width="1.0"/><text x="177.77" y="770.80" text-anchor="middle" font-family="'trebuchet ms', verdana, arial, sans-serif" font-size="16" fill="#333333"><tspan x="177.77" dy="0.00" font-weight="600">PayPal</tspan></text><text x="132.51" y="811.60" text-anchor="start" font-family="'trebuchet ms', verdana, arial, sans-serif" font-size="16" fill="#333333"><tspan x="132.51" dy="0.00">+String email</tspan><tspan x="132.51" dy="40.80">+process()</tspan></text><rect x="208.52" y="591.00" width="158.17" height="146.40" rx="3" ry="3" fill="#ECECFF" stroke="#7B88A8" stroke-width="1" stroke-linejoin="round" stroke-linecap="round"/><line x1="214.52" y1="633.80" x2="360.69" y2="633.80" stroke="#7B88A8" stroke-width="1.0"/><line x1="214.52" y1="695.00" x2="360.69" y2="695.00" stroke="#7B88A8" stroke-width="1.0"/><text x="287.60" y="619.00" text-anchor="middle" font-family="'trebuchet ms', verdana, arial, sans-serif" font-size="16" fill="#333333"><tspan x="287.60" dy="0.00" font-weight="600">Payment</tspan></text><text x="238.52" y="659.80" text-anchor="start" font-family="'trebuchet ms', verdana, arial, sans-serif" font-size="16" fill="#333333"><tspan x="238.52" dy="0.00">&lt;&lt;abstract&gt;&gt;</tspan><tspan x="238.52" dy="20.40">+double amount</tspan><tspan x="238.52" dy="40.80">+process()</tspan></text><rect x="8.00" y="591.00" width="150.52" height="126.00" rx="3" ry="3" fill="#ECECFF" stroke="#7B88A8" stroke-width="1" stroke-linejoin="round" stroke-linecap="round"/><line x1="14.00" y1="633.80" x2="152.52" y2="633.80" stroke="#7B88A8" stroke-width="1.0"/><text x="83.26" y="619.00" text-anchor="middle" font-family="'trebuchet ms', verdana, arial, sans-serif" font-size="16" fill="#333333"><tspan x="83.26" dy="0.00" font-weight="600">Product</tspan></text><text x="38.00" y="659.80" text-anchor="start" font-family="'trebuchet ms', verdana, arial, sans-serif" font-size="16" fill="#333333"><tspan x="38.00" dy="0.00">+int id</tspan><tspan x="38.00" dy="20.40">+String name</tspan><tspan x="38.00" dy="20.40">+double price</tspan></text><rect x="114.85" y="8.00" width="150.52" height="187.20" rx="3" ry="3" fill="#ECECFF" stroke="#7B88A8" stroke-width="1" stroke-linejoin="round" stroke-linecap="round"/><line x1="120.85" y1="50.80" x2="259.36" y2="50.80" stroke="#7B88A8" stroke-width="1.0"/><line x1="120.85" y1="132.40" x2="259.36" y2="132.40" stroke="#7B88A8" stroke-width="1.0"/><text x="190.10" y="36.00" text-anchor="middle" font-family="'trebuchet ms', verdana, arial, sans-serif" font-size="16" fill="#333333"><tspan x="190.10" dy="0.00" font-weight="600">User</tspan></text><text x="144.85" y="76.80" text-anchor="start" font-family="'trebuchet ms', verdana, arial, sans-serif" font-size="16" fill="#333333"><tspan x="144.85" dy="0.00">+int id</tspan><tspan x="144.85" dy="20.40">+String name</tspan><tspan x="144.85" dy="20.40">+String email</tspan><tspan x="144.85" dy="40.80">+login()</tspan><tspan x="144.85" dy="20.40">+logout()</tspan></text></svg>