<svg xmlns="http://www.w3.org/2000/svg" width="101.24062" height="474.32916" viewBox="0 0 101.24062 474.32916"><rect x="0" y="0" width="101.24062" height="474.32916" fill="#FFFFFF"/><defs><marker id="arrow-0" viewBox="0 0 10 10" refX="5" refY="5" markerUnits="userSpaceOnUse" markerWidth="8" markerHeight="8" orient="auto"><path d="M 0 0 L 10 5 L 0 10 z" fill="#2F3B4D" stroke="#2F3B4D" stroke-width="1" stroke-dasharray="1,0"/></marker><marker id="arrow-start-0" viewBox="0 0 10 10" refX="4.5" refY="5" markerUnits="userSpaceOnUse" markerWidth="8" markerHeight="8" orient="auto"><path d="M 0 5 L 10 10 L 10 0 z" fill="#2F3B4D" stroke="#2F3B4D" stroke-width="1" stroke-dasharray="1,0"/></marker><marker id="arrow-class-open-0" viewBox="0 0 20 14" refX="1" refY="7" markerUnits="userSpaceOnUse" markerWidth="20" markerHeight="14" orient="auto"><path d="M 1 7 L 18 13 V 1 Z" fill="none" stroke="#2F3B4D" stroke-width="1" stroke-dasharray="1,0"/></marker><marker id="arrow-class-open-start-0" viewBox="0 0 20 14" refX="18" refY="7" markerUnits="userSpaceOnUse" markerWidth="20" markerHeight="14" orient="auto"><path d="M 1 7 L 18 13 V 1 Z" fill="none" stroke="#2F3B4D" stroke-width="1" stroke-dasharray="1,0"/></marker><marker id="arrow-class-dep-0" viewBox="0 0 20 14" refX="13" refY="7" markerUnits="userSpaceOnUse" markerWidth="20" markerHeight="14" orient="auto"><path d="M 18 7 L 9 13 L 14 7 L 9 1 Z" fill="#2F3B4D" stroke="#2F3B4D" stroke-width="1" stroke-dasharray="1,0"/></marker><marker id="arrow-class-dep-start-0" viewBox="0 0 20 14" refX="6" refY="7" markerUnits="userSpaceOnUse" markerWidth="20" markerHeight="14" orient="auto"><path d="M 5 7 L 9 13 L 1 7 L 9 1 Z" fill="#2F3B4D" stroke="#2F3B4D" stroke-width="1" stroke-dasharray="1,0"/></marker></defs><path d="M 50.513,112.000L 50.513,113.250C50.513,114.499,50.513,116.999,50.513,119.498C50.513,121.997,50.513,124.496,50.504,126.996C50.495,129.495,50.478,131.994,50.436,137.940C50.394,143.886,50.328,153.279,50.287,159.225C50.245,165.171,50.227,167.670,50.219,170.169C50.210,172.668,50.210,175.167,50.210,177.667C50.210,180.166,50.210,182.665,50.210,183.915L 50.210,185.165" fill="none" stroke="#2F3B4D" stroke-width="1" marker-end="url(#arrow-class-dep-0)"   stroke-linecap="round" stroke-linejoin="round" /><rect x="31.49" y="124.80" width="14.06" height="27.20" rx="2" ry="2" fill="rgba(248,250,252, 0.92)" fill-opacity="0.90" stroke="#7B88A8" stroke-opacity="0.40" stroke-width="0.8"/><text x="38.51" y="142.40" text-anchor="middle" font-family="'trebuchet ms', verdana, arial, sans-serif" font-size="16" fill="#333333"><tspan x="38.51" dy="0.00">1</tspan></text><rect x="51.37" y="145.16" width="38.48" height="27.20" rx="2" ry="2" fill="rgba(248,250,252, 0.92)" fill-opacity="0.90" stroke="#7B88A8" stroke-opacity="0.40" stroke-width="0.8"/><text x="70.61" y="162.76" text-anchor="middle" font-family="'trebuchet ms', verdana, arial, sans-serif" font-size="16" fill="#333333"><tspan x="70.61" dy="0.00">many</tspan></text><path d="M 50.039,289.165L 50.039,290.414C50.039,291.664,50.039,294.163,50.039,296.662C50.039,299.162,50.039,301.661,50.033,304.160C50.028,306.659,50.018,309.159,49.993,315.105C49.969,321.051,49.930,330.443,49.905,336.389C49.881,342.335,49.870,344.834,49.865,347.334C49.860,349.833,49.860,352.332,49.860,354.831C49.860,357.331,49.860,359.830,49.860,361.079L 49.860,362.329" fill="none" stroke="#2F3B4D" stroke-width="1" marker-end="url(#arrow-class-dep-0)"   stroke-linecap="round" stroke-linejoin="round" /><rect x="31.01" y="301.96" width="14.06" height="27.20" rx="2" ry="2" fill="rgba(248,250,252, 0.92)" fill-opacity="0.90" stroke="#7B88A8" stroke-opacity="0.40" stroke-width="0.8"/><text x="38.04" y="319.56" text-anchor="middle" font-family="'trebuchet ms', verdana, arial, sans-serif" font-size="16" fill="#333333"><tspan x="38.04" dy="0.00">1</tspan></text><rect x="51.02" y="322.33" width="38.48" height="27.20" rx="2" ry="2" fill="rgba(248,250,252, 0.92)" fill-opacity="0.90" stroke="#7B88A8" stroke-opacity="0.40" stroke-width="0.8"/><text x="70.26" y="339.93" text-anchor="middle" font-family="'trebuchet ms', verdana, arial, sans-serif" font-size="16" fill="#333333"><tspan x="70.26" dy="0.00">many</tspan></text><rect x="8.00" y="8.00" width="85.24" height="104.00" rx="3" ry="3" fill="#ECECFF" stroke="#7B88A8" stroke-width="1" stroke-linejoin="round" stroke-linecap="round"/><text x="50.62" y="64.00" text-anchor="middle" font-family="'trebuchet ms', verdana, arial, sans-serif" font-size="16" fill="#333333"><tspan x="50.62" dy="0.00">Customer</tspan></text><rect x="22.49" y="362.33" width="54.62" height="104.00" rx="3" ry="3" fill="#ECECFF" stroke="#7B88A8" stroke-width="1" stroke-linejoin="round" stroke-linecap="round"/><text x="49.80" y="418.33" text-anchor="middle" font-family="'trebuchet ms', verdana, arial, sans-serif" font-size="16" fill="#333333"><tspan x="49.80" dy="0.00">Item</tspan></text><rect x="18.96" y="185.16" width="62.28" height="104.00" rx="3" ry="3" fill="#ECECFF" stroke="#7B88A8" stroke-width="1" stroke-linejoin="round" stroke-linecap="round"/><text x="50.10" y="241.16" text-anchor="middle" font-family="'trebuchet ms', verdana, arial, sans-serif" font-size="16" fill="#333333"><tspan x="50.10" dy="0.00">Order</tspan></text></svg>