<svg xmlns="http://www.w3.org/2000/svg" width="513.2141" height="565.2" viewBox="0 0 513.2141 565.2"><rect x="0" y="0" width="513.2141" height="565.2" fill="#FFFFFF"/><defs><marker id="arrow-0" viewBox="0 0 10 10" refX="5" refY="5" markerUnits="userSpaceOnUse" markerWidth="8" markerHeight="8" orient="auto"><path d="M 0 0 L 10 5 L 0 10 z" fill="#2F3B4D" stroke="#2F3B4D" stroke-width="1" stroke-dasharray="1,0"/></marker><marker id="arrow-start-0" viewBox="0 0 10 10" refX="4.5" refY="5" markerUnits="userSpaceOnUse" markerWidth="8" markerHeight="8" orient="auto"><path d="M 0 5 L 10 10 L 10 0 z" fill="#2F3B4D" stroke="#2F3B4D" stroke-width="1" stroke-dasharray="1,0"/></marker><marker id="arrow-class-open-0" viewBox="0 0 20 14" refX="1" refY="7" markerUnits="userSpaceOnUse" markerWidth="20" markerHeight="14" orient="auto"><path d="M 1 7 L 18 13 V 1 Z" fill="none" stroke="#2F3B4D" stroke-width="1" stroke-dasharray="1,0"/></marker><marker id="arrow-class-open-start-0" viewBox="0 0 20 14" refX="18" refY="7" markerUnits="userSpaceOnUse" markerWidth="20" markerHeight="14" orient="auto"><path d="M 1 7 L 18 13 V 1 Z" fill="none" stroke="#2F3B4D" stroke-width="1" stroke-dasharray="1,0"/></marker><marker id="arrow-class-dep-0" viewBox="0 0 20 14" refX="13" refY="7" markerUnits="userSpaceOnUse" markerWidth="20" markerHeight="14" orient="auto"><path d="M 18 7 L 9 13 L 14 7 L 9 1 Z" fill="#2F3B4D" stroke="#2F3B4D" stroke-width="1" stroke-dasharray="1,0"/></marker><marker id="arrow-class-dep-start-0" viewBox="0 0 20 14" refX="6" refY="7" markerUnits="userSpaceOnUse" markerWidth="20" markerHeight="14" orient="auto"><path d="M 5 7 L 9 13 L 1 7 L 9 1 Z" fill="#2F3B4D" stroke="#2F3B4D" stroke-width="1" stroke-dasharray="1,0"/></marker></defs><path d="M 369.631,174.800L 369.631,176.258C369.631,177.717,369.631,180.633,369.631,183.550C369.631,186.467,369.631,189.383,370.528,191.991C371.425,194.600,373.219,196.899,378.434,203.583C383.648,210.266,392.283,221.334,397.498,228.017C402.713,234.701,404.507,237.000,405.404,239.609C406.301,242.217,406.301,245.133,406.301,248.050C406.301,250.967,406.301,253.883,406.301,255.342L 406.301,256.800" fill="none" stroke="#2F3B4D" stroke-width="1"  marker-start="url(#arrow-class-open-start-0)" stroke-dasharray="2" stroke-linecap="round" stroke-linejoin="round" /><path d="M 166.130,382.800L 166.130,384.258C166.130,385.717,166.130,388.633,166.130,391.550C166.130,394.467,166.130,397.383,165.096,399.871C164.063,402.358,161.996,404.415,157.102,409.287C152.209,414.158,144.489,421.842,139.596,426.713C134.702,431.585,132.635,433.642,131.602,436.129C130.568,438.617,130.568,441.533,130.568,444.450C130.568,447.367,130.568,450.283,130.568,451.742L 130.568,453.200" fill="none" stroke="#2F3B4D" stroke-width="1"  marker-start="url(#arrow-class-open-start-0)" stroke-dasharray="2" stroke-linecap="round" stroke-linejoin="round" /><path d="M 262.130,382.800L 262.130,384.258C262.130,385.717,262.130,388.633,262.130,391.550C262.130,394.467,262.130,397.383,263.164,399.870C264.197,402.357,266.265,404.415,271.160,409.286C276.056,414.157,283.779,421.843,288.674,426.714C293.570,431.585,295.637,433.643,296.671,436.130C297.704,438.617,297.704,441.533,297.704,444.450C297.704,447.367,297.704,450.283,297.704,451.742L 297.704,453.200" fill="none" stroke="#2F3B4D" stroke-width="1"  marker-start="url(#arrow-class-open-start-0)" stroke-dasharray="2" stroke-linecap="round" stroke-linejoin="round" /><path d="M 273.631,174.800L 273.631,176.258C273.631,177.717,273.631,180.633,273.631,183.550C273.631,186.467,273.631,189.383,273.369,192.276C273.107,195.169,272.583,198.039,271.589,203.488C270.595,208.937,269.130,216.966,268.038,222.948C266.946,228.930,266.228,232.865,263.874,234.973C261.520,237.082,257.530,237.364,253.088,237.678C248.646,237.992,243.752,238.337,239.850,238.613C235.949,238.889,233.039,239.094,231.585,240.656C230.130,242.217,230.130,245.133,230.130,248.050C230.130,250.967,230.130,253.883,230.130,255.342L 230.130,256.800" fill="none" stroke="#2F3B4D" stroke-width="1"    stroke-linecap="round" stroke-linejoin="round" /><g transform="translate(273.63 174.80) rotate(90.00)"><polygon points="0,0 9,6 18,0 9,-6" fill="none" stroke="#2F3B4D" stroke-width="1" stroke-linejoin="round" stroke-linecap="round"/></g><rect x="227.06" y="222.80" width="76.90" height="28.00" rx="2" ry="2" fill="rgba(248,250,252, 0.92)" fill-opacity="0.85" stroke="#7B88A8" stroke-opacity="0.35" stroke-width="0.8"/><text x="265.51" y="240.80" text-anchor="middle" font-family="'trebuchet ms', verdana, arial, sans-serif" font-size="16" fill="#333333"><tspan x="265.51" dy="0.00">observers</tspan></text><rect x="8.00" y="453.20" width="181.14" height="104.00" rx="3" ry="3" fill="#ECECFF" stroke="#7B88A8" stroke-width="1" stroke-linejoin="round" stroke-linecap="round"/><line x1="14.00" y1="505.40" x2="183.14" y2="505.40" stroke="#7B88A8" stroke-width="1.0"/><text x="98.57" y="490.60" text-anchor="middle" font-family="'trebuchet ms', verdana, arial, sans-serif" font-size="16" fill="#333333"><tspan x="98.57" dy="0.00" font-weight="600">ConcreteObserverA</tspan></text><text x="38.00" y="531.40" text-anchor="start" font-family="'trebuchet ms', verdana, arial, sans-serif" font-size="16" fill="#333333"><tspan x="38.00" dy="0.00">+update()</tspan></text><rect x="239.14" y="453.20" width="181.14" height="104.00" rx="3" ry="3" fill="#ECECFF" stroke="#7B88A8" stroke-width="1" stroke-linejoin="round" stroke-linecap="round"/><line x1="245.14" y1="505.40" x2="414.27" y2="505.40" stroke="#7B88A8" stroke-width="1.0"/><text x="329.70" y="490.60" text-anchor="middle" font-family="'trebuchet ms', verdana, arial, sans-serif" font-size="16" fill="#333333"><tspan x="329.70" dy="0.00" font-weight="600">ConcreteObserverB</tspan></text><text x="269.14" y="531.40" text-anchor="start" font-family="'trebuchet ms', verdana, arial, sans-serif" font-size="16" fill="#333333"><tspan x="269.14" dy="0.00">+update()</tspan></text><rect x="339.39" y="256.80" width="165.83" height="146.40" rx="3" ry="3" fill="#ECECFF" stroke="#7B88A8" stroke-width="1" stroke-linejoin="round" stroke-linecap="round"/><line x1="345.39" y1="299.60" x2="499.21" y2="299.60" stroke="#7B88A8" stroke-width="1.0"/><line x1="345.39" y1="340.40" x2="499.21" y2="340.40" stroke="#7B88A8" stroke-width="1.0"/><text x="422.30" y="284.80" text-anchor="middle" font-family="'trebuchet ms', verdana, arial, sans-serif" font-size="16" fill="#333333"><tspan x="422.30" dy="0.00" font-weight="600">ConcreteSubject</tspan></text><text x="369.39" y="325.60" text-anchor="start" font-family="'trebuchet ms', verdana, arial, sans-serif" font-size="16" fill="#333333"><tspan x="369.39" dy="0.00">-state</tspan><tspan x="369.39" dy="40.80">+getState()</tspan><tspan x="369.39" dy="20.40">+setState()</tspan></text><rect x="138.87" y="256.80" width="150.52" height="126.00" rx="3" ry="3" fill="#ECECFF" stroke="#7B88A8" stroke-width="1" stroke-linejoin="round" stroke-linecap="round"/><line x1="144.87" y1="299.60" x2="283.39" y2="299.60" stroke="#7B88A8" stroke-width="1.0"/><line x1="144.87" y1="340.40" x2="283.39" y2="340.40" stroke="#7B88A8" stroke-width="1.0"/><text x="214.13" y="284.80" text-anchor="middle" font-family="'trebuchet ms', verdana, arial, sans-serif" font-size="16" fill="#333333"><tspan x="214.13" dy="0.00" font-weight="600">Observer</tspan></text><text x="168.87" y="325.60" text-anchor="start" font-family="'trebuchet ms', verdana, arial, sans-serif" font-size="16" fill="#333333"><tspan x="168.87" dy="0.00">&lt;&lt;interface&gt;&gt;</tspan><tspan x="168.87" dy="40.80">+update()</tspan></text><rect x="231.06" y="8.00" width="181.14" height="166.80" rx="3" ry="3" fill="#ECECFF" stroke="#7B88A8" stroke-width="1" stroke-linejoin="round" stroke-linecap="round"/><line x1="237.06" y1="50.80" x2="406.20" y2="50.80" stroke="#7B88A8" stroke-width="1.0"/><line x1="237.06" y1="91.60" x2="406.20" y2="91.60" stroke="#7B88A8" stroke-width="1.0"/><text x="321.63" y="36.00" text-anchor="middle" font-family="'trebuchet ms', verdana, arial, sans-serif" font-size="16" fill="#333333"><tspan x="321.63" dy="0.00" font-weight="600">Subject</tspan></text><text x="261.06" y="76.80" text-anchor="start" font-family="'trebuchet ms', verdana, arial, sans-serif" font-size="16" fill="#333333"><tspan x="261.06" dy="0.00">&lt;&lt;interface&gt;&gt;</tspan><tspan x="261.06" dy="40.80">+attach(Observer)</tspan><tspan x="261.06" dy="20.40">+detach(Observer)</tspan><tspan x="261.06" dy="20.40">+notify()</tspan></text></svg>