<svg xmlns="http://www.w3.org/2000/svg" width="499.81482" height="876.80005" viewBox="0 0 499.81482 876.80005"><rect x="0" y="0" width="499.81482" height="876.80005" fill="#FFFFFF"/><defs><marker id="arrow-0" viewBox="0 0 10 10" refX="5" refY="5" markerUnits="userSpaceOnUse" markerWidth="8" markerHeight="8" orient="auto"><path d="M 0 0 L 10 5 L 0 10 z" fill="#2F3B4D" stroke="#2F3B4D" stroke-width="1" stroke-dasharray="1,0"/></marker><marker id="arrow-start-0" viewBox="0 0 10 10" refX="4.5" refY="5" markerUnits="userSpaceOnUse" markerWidth="8" markerHeight="8" orient="auto"><path d="M 0 5 L 10 10 L 10 0 z" fill="#2F3B4D" stroke="#2F3B4D" stroke-width="1" stroke-dasharray="1,0"/></marker><marker id="arrow-class-open-0" viewBox="0 0 20 14" refX="1" refY="7" markerUnits="userSpaceOnUse" markerWidth="20" markerHeight="14" orient="auto"><path d="M 1 7 L 18 13 V 1 Z" fill="none" stroke="#2F3B4D" stroke-width="1" stroke-dasharray="1,0"/></marker><marker id="arrow-class-open-start-0" viewBox="0 0 20 14" refX="18" refY="7" markerUnits="userSpaceOnUse" markerWidth="20" markerHeight="14" orient="auto"><path d="M 1 7 L 18 13 V 1 Z" fill="none" stroke="#2F3B4D" stroke-width="1" stroke-dasharray="1,0"/></marker><marker id="arrow-class-dep-0" viewBox="0 0 20 14" refX="13" refY="7" markerUnits="userSpaceOnUse" markerWidth="20" markerHeight="14" orient="auto"><path d="M 18 7 L 9 13 L 14 7 L 9 1 Z" fill="#2F3B4D" stroke="#2F3B4D" stroke-width="1" stroke-dasharray="1,0"/></marker><marker id="arrow-class-dep-start-0" viewBox="0 0 20 14" refX="6" refY="7" markerUnits="userSpaceOnUse" markerWidth="20" markerHeight="14" orient="auto"><path d="M 5 7 L 9 13 L 1 7 L 9 1 Z" fill="#2F3B4D" stroke="#2F3B4D" stroke-width="1" stroke-dasharray="1,0"/></marker></defs><path d="M 185.433,195.200 L 185.431,299.500" fill="none" stroke="#2F3B4D" stroke-width="1" marker-end="url(#arrow-class-dep-0)"   stroke-linecap="round" stroke-linejoin="round" /><rect x="158.47" y="223.35" width="53.93" height="28.00" rx="2" ry="2" fill="rgba(248,250,252, 0.92)" fill-opacity="0.85" stroke="#7B88A8" stroke-opacity="0.35" stroke-width="0.8"/><text x="185.43" y="241.35" text-anchor="middle" font-family="'trebuchet ms', verdana, arial, sans-serif" font-size="16" fill="#333333"><tspan x="185.43" dy="0.00">places</tspan></text><rect x="123.21" y="208.00" width="14.06" height="27.20" rx="2" ry="2" fill="rgba(248,250,252, 0.92)" fill-opacity="0.90" stroke="#7B88A8" stroke-opacity="0.40" stroke-width="0.8"/><text x="130.23" y="225.60" text-anchor="middle" font-family="'trebuchet ms', verdana, arial, sans-serif" font-size="16" fill="#333333"><tspan x="130.23" dy="0.00">1</tspan></text><rect x="123.20" y="259.50" width="14.06" height="27.20" rx="2" ry="2" fill="rgba(248,250,252, 0.92)" fill-opacity="0.90" stroke="#7B88A8" stroke-opacity="0.40" stroke-width="0.8"/><text x="130.23" y="277.10" text-anchor="middle" font-family="'trebuchet ms', verdana, arial, sans-serif" font-size="16" fill="#333333"><tspan x="130.23" dy="0.00">*</tspan></text><path d="M 137.431,486.700L 137.431,488.158C137.431,489.617,137.431,492.533,137.431,495.450C137.431,498.367,137.431,501.283,136.533,503.891C135.635,506.498,133.839,508.796,125.708,519.197C117.577,529.598,103.112,548.102,94.981,558.503C86.851,568.904,85.054,571.202,84.156,573.809C83.258,576.417,83.258,579.333,83.258,582.250C83.258,585.167,83.258,588.083,83.258,589.542L 83.258,591.000" fill="none" stroke="#2F3B4D" stroke-width="1" marker-end="url(#arrow-class-dep-0)"   stroke-linecap="round" stroke-linejoin="round" /><rect x="75.72" y="524.85" width="69.24" height="28.00" rx="2" ry="2" fill="rgba(248,250,252, 0.92)" fill-opacity="0.85" stroke="#7B88A8" stroke-opacity="0.35" stroke-width="0.8"/><text x="110.34" y="542.85" text-anchor="middle" font-family="'trebuchet ms', verdana, arial, sans-serif" font-size="16" fill="#333333"><tspan x="110.34" dy="0.00">contains</tspan></text><rect x="150.80" y="499.50" width="14.06" height="27.20" rx="2" ry="2" fill="rgba(248,250,252, 0.92)" fill-opacity="0.90" stroke="#7B88A8" stroke-opacity="0.40" stroke-width="0.8"/><text x="157.83" y="517.10" text-anchor="middle" font-family="'trebuchet ms', verdana, arial, sans-serif" font-size="16" fill="#333333"><tspan x="157.83" dy="0.00">*</tspan></text><rect x="55.83" y="551.00" width="14.06" height="27.20" rx="2" ry="2" fill="rgba(248,250,252, 0.92)" fill-opacity="0.90" stroke="#7B88A8" stroke-opacity="0.40" stroke-width="0.8"/><text x="62.86" y="568.60" text-anchor="middle" font-family="'trebuchet ms', verdana, arial, sans-serif" font-size="16" fill="#333333"><tspan x="62.86" dy="0.00">*</tspan></text><path d="M 233.431,486.700L 233.431,488.158C233.431,489.617,233.431,492.533,233.431,495.450C233.431,498.367,233.431,501.283,234.330,503.891C235.228,506.498,237.024,508.796,245.154,519.197C253.284,529.598,267.749,548.102,275.879,558.503C284.009,568.904,285.805,571.202,286.703,573.809C287.602,576.417,287.602,579.333,287.602,582.250C287.602,585.167,287.602,588.083,287.602,589.542L 287.602,591.000" fill="none" stroke="#2F3B4D" stroke-width="1" marker-end="url(#arrow-class-dep-0)"   stroke-linecap="round" stroke-linejoin="round" /><rect x="228.24" y="495.34" width="30.97" height="28.00" rx="2" ry="2" fill="rgba(248,250,252, 0.92)" fill-opacity="0.85" stroke="#7B88A8" stroke-opacity="0.35" stroke-width="0.8"/><text x="243.72" y="513.34" text-anchor="middle" font-family="'trebuchet ms', verdana, arial, sans-serif" font-size="16" fill="#333333"><tspan x="243.72" dy="0.00">has</tspan></text><rect x="264.80" y="499.50" width="14.06" height="27.20" rx="2" ry="2" fill="rgba(248,250,252, 0.92)" fill-opacity="0.90" stroke="#7B88A8" stroke-opacity="0.40" stroke-width="0.8"/><text x="271.83" y="517.10" text-anchor="middle" font-family="'trebuchet ms', verdana, arial, sans-serif" font-size="16" fill="#333333"><tspan x="271.83" dy="0.00">1</tspan></text><rect x="292.57" y="551.00" width="14.06" height="27.20" rx="2" ry="2" fill="rgba(248,250,252, 0.92)" fill-opacity="0.90" stroke="#7B88A8" stroke-opacity="0.40" stroke-width="0.8"/><text x="299.60" y="568.60" text-anchor="middle" font-family="'trebuchet ms', verdana, arial, sans-serif" font-size="16" fill="#333333"><tspan x="299.60" dy="0.00">1</tspan></text><path d="M 335.602,737.400L 335.602,738.858C335.602,740.317,335.602,743.233,335.602,746.150C335.602,749.067,335.602,751.983,336.917,752.812C338.232,753.640,340.863,752.381,349.850,748.077C358.838,743.774,374.183,736.426,383.170,732.123C392.158,727.819,394.788,726.560,396.104,727.388C397.419,728.217,397.419,731.133,397.419,734.050C397.419,736.967,397.419,739.883,397.419,741.342L 397.419,742.800" fill="none" stroke="#2F3B4D" stroke-width="1"  marker-start="url(#arrow-class-open-start-0)"  stroke-linecap="round" stroke-linejoin="round" /><path d="M 239.602,737.400L 239.602,738.858C239.602,740.317,239.602,743.233,239.602,746.150C239.602,749.067,239.602,751.983,238.286,752.812C236.971,753.641,234.340,752.381,225.349,748.078C216.359,743.774,201.008,736.426,192.018,732.122C183.027,727.819,180.396,726.559,179.081,727.388C177.765,728.217,177.765,731.133,177.765,734.050C177.765,736.967,177.765,739.883,177.765,741.342L 177.765,742.800" fill="none" stroke="#2F3B4D" stroke-width="1"  marker-start="url(#arrow-class-open-start-0)"  stroke-linecap="round" stroke-linejoin="round" /><rect x="303.02" y="742.80" width="188.79" height="126.00" rx="3" ry="3" fill="#ECECFF" stroke="#7B88A8" stroke-width="1" stroke-linejoin="round" stroke-linecap="round"/><line x1="309.02" y1="785.60" x2="485.81" y2="785.60" stroke="#7B88A8" stroke-width="1.0"/><line x1="309.02" y1="826.40" x2="485.81" y2="826.40" stroke="#7B88A8" stroke-width="1.0"/><text x="397.42" y="770.80" text-anchor="middle" font-family="'trebuchet ms', verdana, arial, sans-serif" font-size="16" fill="#333333"><tspan x="397.42" dy="0.00" font-weight="600">CreditCard</tspan></text><text x="333.02" y="811.60" text-anchor="start" font-family="'trebuchet ms', verdana, arial, sans-serif" font-size="16" fill="#333333"><tspan x="333.02" dy="0.00">+String cardNumber</tspan><tspan x="333.02" dy="40.80">+process()</tspan></text><rect x="110.17" y="299.50" width="150.52" height="187.20" rx="3" ry="3" fill="#ECECFF" stroke="#7B88A8" stroke-width="1" stroke-linejoin="round" stroke-linecap="round"/><line x1="116.17" y1="342.30" x2="254.69" y2="342.30" stroke="#7B88A8" stroke-width="1.0"/><line x1="116.17" y1="423.90" x2="254.69" y2="423.90" stroke="#7B88A8" stroke-width="1.0"/><text x="185.43" y="327.50" text-anchor="middle" font-family="'trebuchet ms', verdana, arial, sans-serif" font-size="16" fill="#333333"><tspan x="185.43" dy="0.00" font-weight="600">Order</tspan></text><text x="140.17" y="368.30" text-anchor="start" font-family="'trebuchet ms', verdana, arial, sans-serif" font-size="16" fill="#333333"><tspan x="140.17" dy="0.00">+int id</tspan><tspan x="140.17" dy="20.40">+Date date</tspan><tspan x="140.17" dy="20.40">+double total</tspan><tspan x="140.17" dy="40.80">+addItem()</tspan><tspan x="140.17" dy="20.40">+removeItem()</tspan></text><rect x="102.51" y="742.80" width="150.52" height="126.00" rx="3" ry="3" fill="#ECECFF" stroke="#7B88A8" stroke-width="1" stroke-linejoin="round" stroke-linecap="round"/><line x1="108.51" y1="785.60" x2="247.02" y2="785.60" stroke="#7B88A8" stroke-width="1.0"/><line x1="108.51" y1="826.40" x2="247.02" y2="826.40" stroke="#7B88A8" stroke-width="1.0"/><text x="177.77" y="770.80" text-anchor="middle" font-family="'trebuchet ms', verdana, arial, sans-serif" font-size="16" fill="#333333"><tspan x="177.77" dy="0.00" font-weight="600">PayPal</tspan></text><text x="132.51" y="811.60" text-anchor="start" font-family="'trebuchet ms', verdana, arial, sans-serif" font-size="16" fill="#333333"><tspan x="132.51" dy="0.00">+String email</tspan><tspan x="132.51" dy="40.80">+process()</tspan></text><rect x="208.52" y="591.00" width="158.17" height="146.40" rx="3" ry="3" fill="#ECECFF" stroke="#7B88A8" stroke-width="1" stroke-linejoin="round" stroke-linecap="round"/><line x1="214.52" y1="633.80" x2="360.69" y2="633.80" stroke="#7B88A8" stroke-width="1.0"/><line x1="214.52" y1="695.00" x2="360.69" y2="695.00" stroke="#7B88A8" stroke-width="1.0"/><text x="287.60" y="619.00" text-anchor="middle" font-family="'trebuchet ms', verdana, arial, sans-serif" font-size="16" fill="#333333"><tspan x="287.60" dy="0.00" font-weight="600">Payment</tspan></text><text x="238.52" y="659.80" text-anchor="start" font-family="'trebuchet ms', verdana, arial, sans-serif" font-size="16" fill="#333333"><tspan x="238.52" dy="0.00">&lt;&lt;abstract&gt;&gt;</tspan><tspan x="238.52" dy="20.40">+double amount</tspan><tspan x="238.52" dy="40.80">+process()</tspan></text><rect x="8.00" y="591.00" width="150.52" height="126.00" rx="3" ry="3" fill="#ECECFF" stroke="#7B88A8" stroke-width="1" stroke-linejoin="round" stroke-linecap="round"/><line x1="14.00" y1="633.80" x2="152.52" y2="633.80" stroke="#7B88A8" stroke-width="1.0"/><text x="83.26" y="619.00" text-anchor="middle" font-family="'trebuchet ms', verdana, arial, sans-serif" font-size="16" fill="#333333"><tspan x="83.26" dy="0.00" font-weight="600">Product</tspan></text><text x="38.00" y="659.80" text-anchor="start" font-family="'trebuchet ms', verdana, arial, sans-serif" font-size="16" fill="#333333"><tspan x="38.00" dy="0.00">+int id</tspan><tspan x="38.00" dy="20.40">+String name</tspan><tspan x="38.00" dy="20.40">+double price</tspan></text><rect x="110.18" y="8.00" width="150.52" height="187.20" rx="3" ry="3" fill="#ECECFF" stroke="#7B88A8" stroke-width="1" stroke-linejoin="round" stroke-linecap="round"/><line x1="116.18" y1="50.80" x2="254.69" y2="50.80" stroke="#7B88A8" stroke-width="1.0"/><line x1="116.18" y1="132.40" x2="254.69" y2="132.40" stroke="#7B88A8" stroke-width="1.0"/><text x="185.43" y="36.00" text-anchor="middle" font-family="'trebuchet ms', verdana, arial, sans-serif" font-size="16" fill="#333333"><tspan x="185.43" dy="0.00" font-weight="600">User</tspan></text><text x="140.18" y="76.80" text-anchor="start" font-family="'trebuchet ms', verdana, arial, sans-serif" font-size="16" fill="#333333"><tspan x="140.18" dy="0.00">+int id</tspan><tspan x="140.18" dy="20.40">+String name</tspan><tspan x="140.18" dy="20.40">+String email</tspan><tspan x="140.18" dy="40.80">+login()</tspan><tspan x="140.18" dy="20.40">+logout()</tspan></text></svg>