<svg xmlns="http://www.w3.org/2000/svg" width="252" height="3034" viewBox="0 0 252 3034"><rect width="100%" height="100%" fill="#FFFFFF"/><defs><marker id="arrow-0" viewBox="0 0 10 10" refX="10" refY="5" markerWidth="8" markerHeight="8" orient="auto-start-reverse"><path d="M 0 0 L 10 5 L 0 10 z" fill="#333333"/></marker><marker id="arrow-start-0" viewBox="0 0 10 10" refX="0" refY="5" markerWidth="8" markerHeight="8" orient="auto"><path d="M 10 0 L 0 5 L 10 10 z" fill="#333333"/></marker></defs><path d="M 108.00 174.00 L 108.00 198.50 Q 108.00 199.00 108.00 199.00 L 108.00 199.00 Q 108.00 199.00 108.00 199.50 L 108.00 224.00" fill="none" stroke="#333333" stroke-width="2"  marker-start="url(#arrow-start-0)"  stroke-linecap="round" stroke-linejoin="round" /><rect x="73.20" y="183.00" width="69.60" height="32.00" rx="0" ry="0" fill="#E8E8E8" fill-opacity="0.8" stroke="none"/><text x="108.00" y="203.00" text-anchor="middle" font-family=""trebuchet ms", verdana, arial, sans-serif" font-size="16" fill="#333333"><tspan x="108.00" dy="0.00">inherits</tspan></text><path d="M 108.00 374.00 L 108.00 398.50 Q 108.00 399.00 108.00 399.00 L 108.00 399.00 Q 108.00 399.00 108.00 399.50 L 108.00 424.00" fill="none" stroke="#333333" stroke-width="2"  marker-start="url(#arrow-start-0)"  stroke-linecap="round" stroke-linejoin="round" /><rect x="73.20" y="383.00" width="69.60" height="32.00" rx="0" ry="0" fill="#E8E8E8" fill-opacity="0.8" stroke="none"/><text x="108.00" y="403.00" text-anchor="middle" font-family=""trebuchet ms", verdana, arial, sans-serif" font-size="16" fill="#333333"><tspan x="108.00" dy="0.00">inherits</tspan></text><path d="M 108.00 574.00 L 108.00 598.50 Q 108.00 599.00 108.00 599.00 L 108.00 599.00 Q 108.00 599.00 108.00 599.50 L 108.00 624.00" fill="none" stroke="#333333" stroke-width="2"  marker-start="url(#arrow-start-0)"  stroke-linecap="round" stroke-linejoin="round" /><rect x="73.20" y="583.00" width="69.60" height="32.00" rx="0" ry="0" fill="#E8E8E8" fill-opacity="0.8" stroke="none"/><text x="108.00" y="603.00" text-anchor="middle" font-family=""trebuchet ms", verdana, arial, sans-serif" font-size="16" fill="#333333"><tspan x="108.00" dy="0.00">inherits</tspan></text><path d="M 108.00 774.00 L 108.00 798.50 Q 108.00 799.00 108.00 799.00 L 108.00 799.00 Q 108.00 799.00 108.00 799.50 L 108.00 824.00" fill="none" stroke="#333333" stroke-width="2"  marker-start="url(#arrow-start-0)"  stroke-linecap="round" stroke-linejoin="round" /><rect x="73.20" y="783.00" width="69.60" height="32.00" rx="0" ry="0" fill="#E8E8E8" fill-opacity="0.8" stroke="none"/><text x="108.00" y="803.00" text-anchor="middle" font-family=""trebuchet ms", verdana, arial, sans-serif" font-size="16" fill="#333333"><tspan x="108.00" dy="0.00">inherits</tspan></text><path d="M 108.00 974.00 L 108.00 998.50 Q 108.00 999.00 108.00 999.00 L 108.00 999.00 Q 108.00 999.00 108.00 999.50 L 108.00 1024.00" fill="none" stroke="#333333" stroke-width="2"  marker-start="url(#arrow-start-0)"  stroke-linecap="round" stroke-linejoin="round" /><rect x="73.20" y="983.00" width="69.60" height="32.00" rx="0" ry="0" fill="#E8E8E8" fill-opacity="0.8" stroke="none"/><text x="108.00" y="1003.00" text-anchor="middle" font-family=""trebuchet ms", verdana, arial, sans-serif" font-size="16" fill="#333333"><tspan x="108.00" dy="0.00">inherits</tspan></text><path d="M 108.00 1174.00 L 108.00 1198.50 Q 108.00 1199.00 108.00 1199.00 L 108.00 1199.00 Q 108.00 1199.00 108.00 1199.50 L 108.00 1224.00" fill="none" stroke="#333333" stroke-width="2"  marker-start="url(#arrow-start-0)"  stroke-linecap="round" stroke-linejoin="round" /><rect x="73.20" y="1183.00" width="69.60" height="32.00" rx="0" ry="0" fill="#E8E8E8" fill-opacity="0.8" stroke="none"/><text x="108.00" y="1203.00" text-anchor="middle" font-family=""trebuchet ms", verdana, arial, sans-serif" font-size="16" fill="#333333"><tspan x="108.00" dy="0.00">inherits</tspan></text><path d="M 108.00 1374.00 L 108.00 1398.50 Q 108.00 1399.00 108.00 1399.00 L 108.00 1399.00 Q 108.00 1399.00 108.00 1399.50 L 108.00 1424.00" fill="none" stroke="#333333" stroke-width="2"  marker-start="url(#arrow-start-0)"  stroke-linecap="round" stroke-linejoin="round" /><rect x="73.20" y="1383.00" width="69.60" height="32.00" rx="0" ry="0" fill="#E8E8E8" fill-opacity="0.8" stroke="none"/><text x="108.00" y="1403.00" text-anchor="middle" font-family=""trebuchet ms", verdana, arial, sans-serif" font-size="16" fill="#333333"><tspan x="108.00" dy="0.00">inherits</tspan></text><path d="M 108.00 1574.00 L 108.00 1598.50 Q 108.00 1599.00 108.00 1599.00 L 108.00 1599.00 Q 108.00 1599.00 108.00 1599.50 L 108.00 1624.00" fill="none" stroke="#333333" stroke-width="2"  marker-start="url(#arrow-start-0)"  stroke-linecap="round" stroke-linejoin="round" /><rect x="73.20" y="1583.00" width="69.60" height="32.00" rx="0" ry="0" fill="#E8E8E8" fill-opacity="0.8" stroke="none"/><text x="108.00" y="1603.00" text-anchor="middle" font-family=""trebuchet ms", verdana, arial, sans-serif" font-size="16" fill="#333333"><tspan x="108.00" dy="0.00">inherits</tspan></text><path d="M 108.00 1774.00 L 108.00 1798.50 Q 108.00 1799.00 108.00 1799.00 L 108.00 1799.00 Q 108.00 1799.00 108.00 1799.50 L 108.00 1824.00" fill="none" stroke="#333333" stroke-width="2"  marker-start="url(#arrow-start-0)"  stroke-linecap="round" stroke-linejoin="round" /><rect x="73.20" y="1783.00" width="69.60" height="32.00" rx="0" ry="0" fill="#E8E8E8" fill-opacity="0.8" stroke="none"/><text x="108.00" y="1803.00" text-anchor="middle" font-family=""trebuchet ms", verdana, arial, sans-serif" font-size="16" fill="#333333"><tspan x="108.00" dy="0.00">inherits</tspan></text><path d="M 108.00 1974.00 L 108.00 1998.50 Q 108.00 1999.00 108.00 1999.00 L 108.00 1999.00 Q 108.00 1999.00 108.00 1999.50 L 108.00 2024.00" fill="none" stroke="#333333" stroke-width="2"  marker-start="url(#arrow-start-0)"  stroke-linecap="round" stroke-linejoin="round" /><rect x="73.20" y="1983.00" width="69.60" height="32.00" rx="0" ry="0" fill="#E8E8E8" fill-opacity="0.8" stroke="none"/><text x="108.00" y="2003.00" text-anchor="middle" font-family=""trebuchet ms", verdana, arial, sans-serif" font-size="16" fill="#333333"><tspan x="108.00" dy="0.00">inherits</tspan></text><path d="M 108.00 2174.00 L 108.00 2198.50 Q 108.00 2199.00 108.00 2199.00 L 108.00 2199.00 Q 108.00 2199.00 108.00 2199.50 L 108.00 2224.00" fill="none" stroke="#333333" stroke-width="2"  marker-start="url(#arrow-start-0)"  stroke-linecap="round" stroke-linejoin="round" /><rect x="73.20" y="2183.00" width="69.60" height="32.00" rx="0" ry="0" fill="#E8E8E8" fill-opacity="0.8" stroke="none"/><text x="108.00" y="2203.00" text-anchor="middle" font-family=""trebuchet ms", verdana, arial, sans-serif" font-size="16" fill="#333333"><tspan x="108.00" dy="0.00">inherits</tspan></text><path d="M 108.00 2374.00 L 108.00 2398.50 Q 108.00 2399.00 108.00 2399.00 L 108.00 2399.00 Q 108.00 2399.00 108.00 2399.50 L 108.00 2424.00" fill="none" stroke="#333333" stroke-width="2"  marker-start="url(#arrow-start-0)"  stroke-linecap="round" stroke-linejoin="round" /><rect x="73.20" y="2383.00" width="69.60" height="32.00" rx="0" ry="0" fill="#E8E8E8" fill-opacity="0.8" stroke="none"/><text x="108.00" y="2403.00" text-anchor="middle" font-family=""trebuchet ms", verdana, arial, sans-serif" font-size="16" fill="#333333"><tspan x="108.00" dy="0.00">inherits</tspan></text><path d="M 108.00 2574.00 L 108.00 2598.50 Q 108.00 2599.00 108.00 2599.00 L 108.00 2599.00 Q 108.00 2599.00 108.00 2599.50 L 108.00 2624.00" fill="none" stroke="#333333" stroke-width="2"  marker-start="url(#arrow-start-0)"  stroke-linecap="round" stroke-linejoin="round" /><rect x="73.20" y="2583.00" width="69.60" height="32.00" rx="0" ry="0" fill="#E8E8E8" fill-opacity="0.8" stroke="none"/><text x="108.00" y="2603.00" text-anchor="middle" font-family=""trebuchet ms", verdana, arial, sans-serif" font-size="16" fill="#333333"><tspan x="108.00" dy="0.00">inherits</tspan></text><path d="M 108.00 2774.00 L 108.00 2798.50 Q 108.00 2799.00 108.00 2799.00 L 108.00 2799.00 Q 108.00 2799.00 108.00 2799.50 L 108.00 2824.00" fill="none" stroke="#333333" stroke-width="2"  marker-start="url(#arrow-start-0)"  stroke-linecap="round" stroke-linejoin="round" /><rect x="73.20" y="2783.00" width="69.60" height="32.00" rx="0" ry="0" fill="#E8E8E8" fill-opacity="0.8" stroke="none"/><text x="108.00" y="2803.00" text-anchor="middle" font-family=""trebuchet ms", verdana, arial, sans-serif" font-size="16" fill="#333333"><tspan x="108.00" dy="0.00">inherits</tspan></text><rect x="27.60" y="24.00" width="160.80" height="150.00" rx="0" ry="0" fill="#ECECFF" stroke="#9370DB" stroke-width="1" stroke-linejoin="round" stroke-linecap="round"/><line x1="33.60" y1="73.40" x2="182.40" y2="73.40" stroke="#9370DB" stroke-width="1.0"/><line x1="33.60" y1="121.40" x2="182.40" y2="121.40" stroke="#9370DB" stroke-width="1.0"/><text x="108.00" y="55.00" text-anchor="middle" font-family=""trebuchet ms", verdana, arial, sans-serif" font-size="16" fill="#333333"><tspan x="108.00" dy="0.00" font-weight="600">C1</tspan></text><text x="57.60" y="103.00" text-anchor="start" font-family=""trebuchet ms", verdana, arial, sans-serif" font-size="16" fill="#333333"><tspan x="57.60" dy="0.00">+String field1</tspan><tspan x="57.60" dy="24.00">---</tspan><tspan x="57.60" dy="24.00">+method1()</tspan></text><rect x="24.00" y="1824.00" width="168.00" height="150.00" rx="0" ry="0" fill="#ECECFF" stroke="#9370DB" stroke-width="1" stroke-linejoin="round" stroke-linecap="round"/><line x1="30.00" y1="1873.40" x2="186.00" y2="1873.40" stroke="#9370DB" stroke-width="1.0"/><line x1="30.00" y1="1921.40" x2="186.00" y2="1921.40" stroke="#9370DB" stroke-width="1.0"/><text x="108.00" y="1855.00" text-anchor="middle" font-family=""trebuchet ms", verdana, arial, sans-serif" font-size="16" fill="#333333"><tspan x="108.00" dy="0.00" font-weight="600">C10</tspan></text><text x="54.00" y="1903.00" text-anchor="start" font-family=""trebuchet ms", verdana, arial, sans-serif" font-size="16" fill="#333333"><tspan x="54.00" dy="0.00">+String field10</tspan><tspan x="54.00" dy="24.00">---</tspan><tspan x="54.00" dy="24.00">+method10()</tspan></text><rect x="24.00" y="2024.00" width="168.00" height="150.00" rx="0" ry="0" fill="#ECECFF" stroke="#9370DB" stroke-width="1" stroke-linejoin="round" stroke-linecap="round"/><line x1="30.00" y1="2073.40" x2="186.00" y2="2073.40" stroke="#9370DB" stroke-width="1.0"/><line x1="30.00" y1="2121.40" x2="186.00" y2="2121.40" stroke="#9370DB" stroke-width="1.0"/><text x="108.00" y="2055.00" text-anchor="middle" font-family=""trebuchet ms", verdana, arial, sans-serif" font-size="16" fill="#333333"><tspan x="108.00" dy="0.00" font-weight="600">C11</tspan></text><text x="54.00" y="2103.00" text-anchor="start" font-family=""trebuchet ms", verdana, arial, sans-serif" font-size="16" fill="#333333"><tspan x="54.00" dy="0.00">+String field11</tspan><tspan x="54.00" dy="24.00">---</tspan><tspan x="54.00" dy="24.00">+method11()</tspan></text><rect x="24.00" y="2224.00" width="168.00" height="150.00" rx="0" ry="0" fill="#ECECFF" stroke="#9370DB" stroke-width="1" stroke-linejoin="round" stroke-linecap="round"/><line x1="30.00" y1="2273.40" x2="186.00" y2="2273.40" stroke="#9370DB" stroke-width="1.0"/><line x1="30.00" y1="2321.40" x2="186.00" y2="2321.40" stroke="#9370DB" stroke-width="1.0"/><text x="108.00" y="2255.00" text-anchor="middle" font-family=""trebuchet ms", verdana, arial, sans-serif" font-size="16" fill="#333333"><tspan x="108.00" dy="0.00" font-weight="600">C12</tspan></text><text x="54.00" y="2303.00" text-anchor="start" font-family=""trebuchet ms", verdana, arial, sans-serif" font-size="16" fill="#333333"><tspan x="54.00" dy="0.00">+String field12</tspan><tspan x="54.00" dy="24.00">---</tspan><tspan x="54.00" dy="24.00">+method12()</tspan></text><rect x="24.00" y="2424.00" width="168.00" height="150.00" rx="0" ry="0" fill="#ECECFF" stroke="#9370DB" stroke-width="1" stroke-linejoin="round" stroke-linecap="round"/><line x1="30.00" y1="2473.40" x2="186.00" y2="2473.40" stroke="#9370DB" stroke-width="1.0"/><line x1="30.00" y1="2521.40" x2="186.00" y2="2521.40" stroke="#9370DB" stroke-width="1.0"/><text x="108.00" y="2455.00" text-anchor="middle" font-family=""trebuchet ms", verdana, arial, sans-serif" font-size="16" fill="#333333"><tspan x="108.00" dy="0.00" font-weight="600">C13</tspan></text><text x="54.00" y="2503.00" text-anchor="start" font-family=""trebuchet ms", verdana, arial, sans-serif" font-size="16" fill="#333333"><tspan x="54.00" dy="0.00">+String field13</tspan><tspan x="54.00" dy="24.00">---</tspan><tspan x="54.00" dy="24.00">+method13()</tspan></text><rect x="24.00" y="2624.00" width="168.00" height="150.00" rx="0" ry="0" fill="#ECECFF" stroke="#9370DB" stroke-width="1" stroke-linejoin="round" stroke-linecap="round"/><line x1="30.00" y1="2673.40" x2="186.00" y2="2673.40" stroke="#9370DB" stroke-width="1.0"/><line x1="30.00" y1="2721.40" x2="186.00" y2="2721.40" stroke="#9370DB" stroke-width="1.0"/><text x="108.00" y="2655.00" text-anchor="middle" font-family=""trebuchet ms", verdana, arial, sans-serif" font-size="16" fill="#333333"><tspan x="108.00" dy="0.00" font-weight="600">C14</tspan></text><text x="54.00" y="2703.00" text-anchor="start" font-family=""trebuchet ms", verdana, arial, sans-serif" font-size="16" fill="#333333"><tspan x="54.00" dy="0.00">+String field14</tspan><tspan x="54.00" dy="24.00">---</tspan><tspan x="54.00" dy="24.00">+method14()</tspan></text><rect x="24.00" y="2824.00" width="168.00" height="150.00" rx="0" ry="0" fill="#ECECFF" stroke="#9370DB" stroke-width="1" stroke-linejoin="round" stroke-linecap="round"/><line x1="30.00" y1="2873.40" x2="186.00" y2="2873.40" stroke="#9370DB" stroke-width="1.0"/><line x1="30.00" y1="2921.40" x2="186.00" y2="2921.40" stroke="#9370DB" stroke-width="1.0"/><text x="108.00" y="2855.00" text-anchor="middle" font-family=""trebuchet ms", verdana, arial, sans-serif" font-size="16" fill="#333333"><tspan x="108.00" dy="0.00" font-weight="600">C15</tspan></text><text x="54.00" y="2903.00" text-anchor="start" font-family=""trebuchet ms", verdana, arial, sans-serif" font-size="16" fill="#333333"><tspan x="54.00" dy="0.00">+String field15</tspan><tspan x="54.00" dy="24.00">---</tspan><tspan x="54.00" dy="24.00">+method15()</tspan></text><rect x="27.60" y="224.00" width="160.80" height="150.00" rx="0" ry="0" fill="#ECECFF" stroke="#9370DB" stroke-width="1" stroke-linejoin="round" stroke-linecap="round"/><line x1="33.60" y1="273.40" x2="182.40" y2="273.40" stroke="#9370DB" stroke-width="1.0"/><line x1="33.60" y1="321.40" x2="182.40" y2="321.40" stroke="#9370DB" stroke-width="1.0"/><text x="108.00" y="255.00" text-anchor="middle" font-family=""trebuchet ms", verdana, arial, sans-serif" font-size="16" fill="#333333"><tspan x="108.00" dy="0.00" font-weight="600">C2</tspan></text><text x="57.60" y="303.00" text-anchor="start" font-family=""trebuchet ms", verdana, arial, sans-serif" font-size="16" fill="#333333"><tspan x="57.60" dy="0.00">+String field2</tspan><tspan x="57.60" dy="24.00">---</tspan><tspan x="57.60" dy="24.00">+method2()</tspan></text><rect x="27.60" y="424.00" width="160.80" height="150.00" rx="0" ry="0" fill="#ECECFF" stroke="#9370DB" stroke-width="1" stroke-linejoin="round" stroke-linecap="round"/><line x1="33.60" y1="473.40" x2="182.40" y2="473.40" stroke="#9370DB" stroke-width="1.0"/><line x1="33.60" y1="521.40" x2="182.40" y2="521.40" stroke="#9370DB" stroke-width="1.0"/><text x="108.00" y="455.00" text-anchor="middle" font-family=""trebuchet ms", verdana, arial, sans-serif" font-size="16" fill="#333333"><tspan x="108.00" dy="0.00" font-weight="600">C3</tspan></text><text x="57.60" y="503.00" text-anchor="start" font-family=""trebuchet ms", verdana, arial, sans-serif" font-size="16" fill="#333333"><tspan x="57.60" dy="0.00">+String field3</tspan><tspan x="57.60" dy="24.00">---</tspan><tspan x="57.60" dy="24.00">+method3()</tspan></text><rect x="27.60" y="624.00" width="160.80" height="150.00" rx="0" ry="0" fill="#ECECFF" stroke="#9370DB" stroke-width="1" stroke-linejoin="round" stroke-linecap="round"/><line x1="33.60" y1="673.40" x2="182.40" y2="673.40" stroke="#9370DB" stroke-width="1.0"/><line x1="33.60" y1="721.40" x2="182.40" y2="721.40" stroke="#9370DB" stroke-width="1.0"/><text x="108.00" y="655.00" text-anchor="middle" font-family=""trebuchet ms", verdana, arial, sans-serif" font-size="16" fill="#333333"><tspan x="108.00" dy="0.00" font-weight="600">C4</tspan></text><text x="57.60" y="703.00" text-anchor="start" font-family=""trebuchet ms", verdana, arial, sans-serif" font-size="16" fill="#333333"><tspan x="57.60" dy="0.00">+String field4</tspan><tspan x="57.60" dy="24.00">---</tspan><tspan x="57.60" dy="24.00">+method4()</tspan></text><rect x="27.60" y="824.00" width="160.80" height="150.00" rx="0" ry="0" fill="#ECECFF" stroke="#9370DB" stroke-width="1" stroke-linejoin="round" stroke-linecap="round"/><line x1="33.60" y1="873.40" x2="182.40" y2="873.40" stroke="#9370DB" stroke-width="1.0"/><line x1="33.60" y1="921.40" x2="182.40" y2="921.40" stroke="#9370DB" stroke-width="1.0"/><text x="108.00" y="855.00" text-anchor="middle" font-family=""trebuchet ms", verdana, arial, sans-serif" font-size="16" fill="#333333"><tspan x="108.00" dy="0.00" font-weight="600">C5</tspan></text><text x="57.60" y="903.00" text-anchor="start" font-family=""trebuchet ms", verdana, arial, sans-serif" font-size="16" fill="#333333"><tspan x="57.60" dy="0.00">+String field5</tspan><tspan x="57.60" dy="24.00">---</tspan><tspan x="57.60" dy="24.00">+method5()</tspan></text><rect x="27.60" y="1024.00" width="160.80" height="150.00" rx="0" ry="0" fill="#ECECFF" stroke="#9370DB" stroke-width="1" stroke-linejoin="round" stroke-linecap="round"/><line x1="33.60" y1="1073.40" x2="182.40" y2="1073.40" stroke="#9370DB" stroke-width="1.0"/><line x1="33.60" y1="1121.40" x2="182.40" y2="1121.40" stroke="#9370DB" stroke-width="1.0"/><text x="108.00" y="1055.00" text-anchor="middle" font-family=""trebuchet ms", verdana, arial, sans-serif" font-size="16" fill="#333333"><tspan x="108.00" dy="0.00" font-weight="600">C6</tspan></text><text x="57.60" y="1103.00" text-anchor="start" font-family=""trebuchet ms", verdana, arial, sans-serif" font-size="16" fill="#333333"><tspan x="57.60" dy="0.00">+String field6</tspan><tspan x="57.60" dy="24.00">---</tspan><tspan x="57.60" dy="24.00">+method6()</tspan></text><rect x="27.60" y="1224.00" width="160.80" height="150.00" rx="0" ry="0" fill="#ECECFF" stroke="#9370DB" stroke-width="1" stroke-linejoin="round" stroke-linecap="round"/><line x1="33.60" y1="1273.40" x2="182.40" y2="1273.40" stroke="#9370DB" stroke-width="1.0"/><line x1="33.60" y1="1321.40" x2="182.40" y2="1321.40" stroke="#9370DB" stroke-width="1.0"/><text x="108.00" y="1255.00" text-anchor="middle" font-family=""trebuchet ms", verdana, arial, sans-serif" font-size="16" fill="#333333"><tspan x="108.00" dy="0.00" font-weight="600">C7</tspan></text><text x="57.60" y="1303.00" text-anchor="start" font-family=""trebuchet ms", verdana, arial, sans-serif" font-size="16" fill="#333333"><tspan x="57.60" dy="0.00">+String field7</tspan><tspan x="57.60" dy="24.00">---</tspan><tspan x="57.60" dy="24.00">+method7()</tspan></text><rect x="27.60" y="1424.00" width="160.80" height="150.00" rx="0" ry="0" fill="#ECECFF" stroke="#9370DB" stroke-width="1" stroke-linejoin="round" stroke-linecap="round"/><line x1="33.60" y1="1473.40" x2="182.40" y2="1473.40" stroke="#9370DB" stroke-width="1.0"/><line x1="33.60" y1="1521.40" x2="182.40" y2="1521.40" stroke="#9370DB" stroke-width="1.0"/><text x="108.00" y="1455.00" text-anchor="middle" font-family=""trebuchet ms", verdana, arial, sans-serif" font-size="16" fill="#333333"><tspan x="108.00" dy="0.00" font-weight="600">C8</tspan></text><text x="57.60" y="1503.00" text-anchor="start" font-family=""trebuchet ms", verdana, arial, sans-serif" font-size="16" fill="#333333"><tspan x="57.60" dy="0.00">+String field8</tspan><tspan x="57.60" dy="24.00">---</tspan><tspan x="57.60" dy="24.00">+method8()</tspan></text><rect x="27.60" y="1624.00" width="160.80" height="150.00" rx="0" ry="0" fill="#ECECFF" stroke="#9370DB" stroke-width="1" stroke-linejoin="round" stroke-linecap="round"/><line x1="33.60" y1="1673.40" x2="182.40" y2="1673.40" stroke="#9370DB" stroke-width="1.0"/><line x1="33.60" y1="1721.40" x2="182.40" y2="1721.40" stroke="#9370DB" stroke-width="1.0"/><text x="108.00" y="1655.00" text-anchor="middle" font-family=""trebuchet ms", verdana, arial, sans-serif" font-size="16" fill="#333333"><tspan x="108.00" dy="0.00" font-weight="600">C9</tspan></text><text x="57.60" y="1703.00" text-anchor="start" font-family=""trebuchet ms", verdana, arial, sans-serif" font-size="16" fill="#333333"><tspan x="57.60" dy="0.00">+String field9</tspan><tspan x="57.60" dy="24.00">---</tspan><tspan x="57.60" dy="24.00">+method9()</tspan></text></svg>