<svg xmlns="http://www.w3.org/2000/svg" width="513.2127" height="565.2" viewBox="0 0 513.2127 565.2"><rect x="0" y="0" width="513.2127" height="565.2" fill="#FFFFFF"/><defs><marker id="arrow-0" viewBox="0 0 10 10" refX="5" refY="5" markerUnits="userSpaceOnUse" markerWidth="8" markerHeight="8" orient="auto"><path d="M 0 0 L 10 5 L 0 10 z" fill="#2F3B4D" stroke="#2F3B4D" stroke-width="1" stroke-dasharray="1,0"/></marker><marker id="arrow-start-0" viewBox="0 0 10 10" refX="4.5" refY="5" markerUnits="userSpaceOnUse" markerWidth="8" markerHeight="8" orient="auto"><path d="M 0 5 L 10 10 L 10 0 z" fill="#2F3B4D" stroke="#2F3B4D" stroke-width="1" stroke-dasharray="1,0"/></marker><marker id="arrow-class-open-0" viewBox="0 0 20 14" refX="1" refY="7" markerUnits="userSpaceOnUse" markerWidth="20" markerHeight="14" orient="auto"><path d="M 1 7 L 18 13 V 1 Z" fill="none" stroke="#2F3B4D" stroke-width="1" stroke-dasharray="1,0"/></marker><marker id="arrow-class-open-start-0" viewBox="0 0 20 14" refX="18" refY="7" markerUnits="userSpaceOnUse" markerWidth="20" markerHeight="14" orient="auto"><path d="M 1 7 L 18 13 V 1 Z" fill="none" stroke="#2F3B4D" stroke-width="1" stroke-dasharray="1,0"/></marker><marker id="arrow-class-dep-0" viewBox="0 0 20 14" refX="13" refY="7" markerUnits="userSpaceOnUse" markerWidth="20" markerHeight="14" orient="auto"><path d="M 18 7 L 9 13 L 14 7 L 9 1 Z" fill="#2F3B4D" stroke="#2F3B4D" stroke-width="1" stroke-dasharray="1,0"/></marker><marker id="arrow-class-dep-start-0" viewBox="0 0 20 14" refX="6" refY="7" markerUnits="userSpaceOnUse" markerWidth="20" markerHeight="14" orient="auto"><path d="M 5 7 L 9 13 L 1 7 L 9 1 Z" fill="#2F3B4D" stroke="#2F3B4D" stroke-width="1" stroke-dasharray="1,0"/></marker></defs><path d="M 382.213,174.800L 382.213,176.258C382.213,177.717,382.213,180.633,382.213,183.550C382.213,186.467,382.213,189.383,383.159,191.951C384.106,194.519,385.998,196.738,391.733,203.462C397.468,210.186,407.045,221.414,412.779,228.138C418.514,234.862,420.407,237.081,421.353,239.649C422.300,242.217,422.300,245.133,422.300,248.050C422.300,250.967,422.300,253.883,422.300,255.342L 422.300,256.800" fill="none" stroke="#2F3B4D" stroke-width="1"  marker-start="url(#arrow-class-open-start-0)" stroke-dasharray="2" stroke-linecap="round" stroke-linejoin="round" /><path d="M 166.129,382.800L 166.129,384.258C166.129,385.717,166.129,388.633,166.129,391.550C166.129,394.467,166.129,397.383,164.837,399.519C163.545,401.654,160.962,403.007,150.993,408.231C141.025,413.454,123.672,422.546,113.703,427.770C103.735,432.993,101.152,434.346,99.860,436.481C98.568,438.617,98.568,441.533,98.568,444.450C98.568,447.367,98.568,450.283,98.568,451.742L 98.568,453.200" fill="none" stroke="#2F3B4D" stroke-width="1"  marker-start="url(#arrow-class-open-start-0)" stroke-dasharray="2" stroke-linecap="round" stroke-linejoin="round" /><path d="M 262.129,382.800L 262.129,384.258C262.129,385.717,262.129,388.633,262.129,391.550C262.129,394.467,262.129,397.383,263.420,399.518C264.712,401.653,267.296,403.007,277.267,408.230C287.237,413.453,304.596,422.547,314.566,427.770C324.537,432.993,327.121,434.347,328.413,436.482C329.704,438.617,329.704,441.533,329.704,444.450C329.704,447.367,329.704,450.283,329.704,451.742L 329.704,453.200" fill="none" stroke="#2F3B4D" stroke-width="1"  marker-start="url(#arrow-class-open-start-0)" stroke-dasharray="2" stroke-linecap="round" stroke-linejoin="round" /><path d="M 254.213,174.800L 254.213,176.258C254.213,177.717,254.213,180.633,254.213,183.550C254.213,186.467,254.213,189.383,253.267,191.951C252.320,194.519,250.428,196.738,244.693,203.462C238.959,210.186,229.383,221.414,223.648,228.138C217.914,234.862,216.021,237.081,215.075,239.649C214.129,242.217,214.129,245.133,214.129,248.050C214.129,250.967,214.129,253.883,214.129,255.342L 214.129,256.800" fill="none" stroke="#2F3B4D" stroke-width="1"    stroke-linecap="round" stroke-linejoin="round" /><g transform="translate(254.21 174.80) rotate(90.00)"><polygon points="0,0 9,6 18,0 9,-6" fill="none" stroke="#2F3B4D" stroke-width="1" stroke-linejoin="round" stroke-linecap="round"/></g><rect x="195.72" y="201.80" width="76.90" height="28.00" rx="2" ry="2" fill="rgba(248,250,252, 0.92)" fill-opacity="0.85" stroke="#7B88A8" stroke-opacity="0.35" stroke-width="0.8"/><text x="234.17" y="219.80" text-anchor="middle" font-family="'trebuchet ms', verdana, arial, sans-serif" font-size="16" fill="#333333"><tspan x="234.17" dy="0.00">observers</tspan></text><rect x="8.00" y="453.20" width="181.14" height="104.00" rx="3" ry="3" fill="#ECECFF" stroke="#7B88A8" stroke-width="1" stroke-linejoin="round" stroke-linecap="round"/><line x1="14.00" y1="505.40" x2="183.14" y2="505.40" stroke="#7B88A8" stroke-width="1.0"/><text x="98.57" y="490.60" text-anchor="middle" font-family="'trebuchet ms', verdana, arial, sans-serif" font-size="16" fill="#333333"><tspan x="98.57" dy="0.00" font-weight="600">ConcreteObserverA</tspan></text><text x="38.00" y="531.40" text-anchor="start" font-family="'trebuchet ms', verdana, arial, sans-serif" font-size="16" fill="#333333"><tspan x="38.00" dy="0.00">+update()</tspan></text><rect x="239.14" y="453.20" width="181.14" height="104.00" rx="3" ry="3" fill="#ECECFF" stroke="#7B88A8" stroke-width="1" stroke-linejoin="round" stroke-linecap="round"/><line x1="245.14" y1="505.40" x2="414.27" y2="505.40" stroke="#7B88A8" stroke-width="1.0"/><text x="329.70" y="490.60" text-anchor="middle" font-family="'trebuchet ms', verdana, arial, sans-serif" font-size="16" fill="#333333"><tspan x="329.70" dy="0.00" font-weight="600">ConcreteObserverB</tspan></text><text x="269.14" y="531.40" text-anchor="start" font-family="'trebuchet ms', verdana, arial, sans-serif" font-size="16" fill="#333333"><tspan x="269.14" dy="0.00">+update()</tspan></text><rect x="339.39" y="256.80" width="165.83" height="146.40" rx="3" ry="3" fill="#ECECFF" stroke="#7B88A8" stroke-width="1" stroke-linejoin="round" stroke-linecap="round"/><line x1="345.39" y1="299.60" x2="499.21" y2="299.60" stroke="#7B88A8" stroke-width="1.0"/><line x1="345.39" y1="340.40" x2="499.21" y2="340.40" stroke="#7B88A8" stroke-width="1.0"/><text x="422.30" y="284.80" text-anchor="middle" font-family="'trebuchet ms', verdana, arial, sans-serif" font-size="16" fill="#333333"><tspan x="422.30" dy="0.00" font-weight="600">ConcreteSubject</tspan></text><text x="369.39" y="325.60" text-anchor="start" font-family="'trebuchet ms', verdana, arial, sans-serif" font-size="16" fill="#333333"><tspan x="369.39" dy="0.00">-state</tspan><tspan x="369.39" dy="40.80">+getState()</tspan><tspan x="369.39" dy="20.40">+setState()</tspan></text><rect x="138.87" y="256.80" width="150.52" height="126.00" rx="3" ry="3" fill="#ECECFF" stroke="#7B88A8" stroke-width="1" stroke-linejoin="round" stroke-linecap="round"/><line x1="144.87" y1="299.60" x2="283.39" y2="299.60" stroke="#7B88A8" stroke-width="1.0"/><line x1="144.87" y1="340.40" x2="283.39" y2="340.40" stroke="#7B88A8" stroke-width="1.0"/><text x="214.13" y="284.80" text-anchor="middle" font-family="'trebuchet ms', verdana, arial, sans-serif" font-size="16" fill="#333333"><tspan x="214.13" dy="0.00" font-weight="600">Observer</tspan></text><text x="168.87" y="325.60" text-anchor="start" font-family="'trebuchet ms', verdana, arial, sans-serif" font-size="16" fill="#333333"><tspan x="168.87" dy="0.00">&lt;&lt;interface&gt;&gt;</tspan><tspan x="168.87" dy="40.80">+update()</tspan></text><rect x="227.64" y="8.00" width="181.14" height="166.80" rx="3" ry="3" fill="#ECECFF" stroke="#7B88A8" stroke-width="1" stroke-linejoin="round" stroke-linecap="round"/><line x1="233.64" y1="50.80" x2="402.78" y2="50.80" stroke="#7B88A8" stroke-width="1.0"/><line x1="233.64" y1="91.60" x2="402.78" y2="91.60" stroke="#7B88A8" stroke-width="1.0"/><text x="318.21" y="36.00" text-anchor="middle" font-family="'trebuchet ms', verdana, arial, sans-serif" font-size="16" fill="#333333"><tspan x="318.21" dy="0.00" font-weight="600">Subject</tspan></text><text x="257.64" y="76.80" text-anchor="start" font-family="'trebuchet ms', verdana, arial, sans-serif" font-size="16" fill="#333333"><tspan x="257.64" dy="0.00">&lt;&lt;interface&gt;&gt;</tspan><tspan x="257.64" dy="40.80">+attach(Observer)</tspan><tspan x="257.64" dy="20.40">+detach(Observer)</tspan><tspan x="257.64" dy="20.40">+notify()</tspan></text></svg>