<svg xmlns="http://www.w3.org/2000/svg" width="101.24062" height="413.6894" viewBox="0 0 101.24062 413.6894"><rect x="0" y="0" width="101.24062" height="413.6894" fill="#FFFFFF"/><defs><marker id="arrow-0" viewBox="0 0 10 10" refX="5" refY="5" markerUnits="userSpaceOnUse" markerWidth="8" markerHeight="8" orient="auto"><path d="M 0 0 L 10 5 L 0 10 z" fill="#333333" stroke="#333333" stroke-width="1" stroke-dasharray="1,0"/></marker><marker id="arrow-start-0" viewBox="0 0 10 10" refX="4.5" refY="5" markerUnits="userSpaceOnUse" markerWidth="8" markerHeight="8" orient="auto"><path d="M 0 5 L 10 10 L 10 0 z" fill="#333333" stroke="#333333" stroke-width="1" stroke-dasharray="1,0"/></marker><marker id="arrow-class-open-0" viewBox="0 0 20 14" refX="1" refY="7" markerUnits="userSpaceOnUse" markerWidth="20" markerHeight="14" orient="auto"><path d="M 1 7 L 18 13 V 1 Z" fill="none" stroke="#333333" stroke-width="1" stroke-dasharray="1,0"/></marker><marker id="arrow-class-open-start-0" viewBox="0 0 20 14" refX="18" refY="7" markerUnits="userSpaceOnUse" markerWidth="20" markerHeight="14" orient="auto"><path d="M 1 7 L 18 13 V 1 Z" fill="none" stroke="#333333" stroke-width="1" stroke-dasharray="1,0"/></marker><marker id="arrow-class-dep-0" viewBox="0 0 20 14" refX="13" refY="7" markerUnits="userSpaceOnUse" markerWidth="20" markerHeight="14" orient="auto"><path d="M 18 7 L 9 13 L 14 7 L 9 1 Z" fill="#333333" stroke="#333333" stroke-width="1" stroke-dasharray="1,0"/></marker><marker id="arrow-class-dep-start-0" viewBox="0 0 20 14" refX="6" refY="7" markerUnits="userSpaceOnUse" markerWidth="20" markerHeight="14" orient="auto"><path d="M 5 7 L 9 13 L 1 7 L 9 1 Z" fill="#333333" stroke="#333333" stroke-width="1" stroke-dasharray="1,0"/></marker></defs><path d="M 50.620,112.000L 50.620,113.427C50.620,114.855,50.620,117.709,50.620,120.208C50.620,122.708,50.620,124.852,50.577,126.995C50.534,129.138,50.448,131.280,50.404,132.351C50.361,133.422,50.361,133.422,50.318,134.493C50.275,135.565,50.188,137.707,50.145,139.850C50.102,141.993,50.102,144.137,50.102,146.636C50.102,149.136,50.102,151.990,50.102,153.417L 50.102,154.845" fill="none" stroke="#333333" stroke-width="1" marker-end="url(#arrow-class-dep-0)"   stroke-linecap="round" stroke-linejoin="round" /><rect x="31.59" y="115.20" width="14.06" height="27.20" rx="2" ry="2" fill="rgba(232,232,232, 0.8)" fill-opacity="0.90" stroke="#9370DB" stroke-opacity="0.40" stroke-width="0.8"/><text x="38.62" y="132.80" text-anchor="middle" font-family="'trebuchet ms', verdana, arial, sans-serif" font-size="16" fill="#333333"><tspan x="38.62" dy="0.00">1</tspan></text><rect x="42.86" y="124.44" width="38.48" height="27.20" rx="2" ry="2" fill="rgba(232,232,232, 0.8)" fill-opacity="0.90" stroke="#9370DB" stroke-opacity="0.40" stroke-width="0.8"/><text x="62.10" y="142.04" text-anchor="middle" font-family="'trebuchet ms', verdana, arial, sans-serif" font-size="16" fill="#333333"><tspan x="62.10" dy="0.00">many</tspan></text><path d="M 50.102,258.845L 50.102,260.273C50.102,261.700,50.102,264.556,50.102,267.055C50.102,269.555,50.102,271.697,50.077,273.840C50.051,275.983,50.000,278.125,49.975,279.196C49.949,280.267,49.949,280.267,49.924,281.338C49.898,282.409,49.847,284.552,49.822,286.694C49.796,288.837,49.796,290.979,49.796,293.479C49.796,295.978,49.796,298.834,49.796,300.262L 49.796,301.689" fill="none" stroke="#333333" stroke-width="1" marker-end="url(#arrow-class-dep-0)"   stroke-linecap="round" stroke-linejoin="round" /><rect x="31.07" y="262.04" width="14.06" height="27.20" rx="2" ry="2" fill="rgba(232,232,232, 0.8)" fill-opacity="0.90" stroke="#9370DB" stroke-opacity="0.40" stroke-width="0.8"/><text x="38.10" y="279.64" text-anchor="middle" font-family="'trebuchet ms', verdana, arial, sans-serif" font-size="16" fill="#333333"><tspan x="38.10" dy="0.00">1</tspan></text><rect x="42.56" y="271.29" width="38.48" height="27.20" rx="2" ry="2" fill="rgba(232,232,232, 0.8)" fill-opacity="0.90" stroke="#9370DB" stroke-opacity="0.40" stroke-width="0.8"/><text x="61.80" y="288.89" text-anchor="middle" font-family="'trebuchet ms', verdana, arial, sans-serif" font-size="16" fill="#333333"><tspan x="61.80" dy="0.00">many</tspan></text><rect x="8.00" y="8.00" width="85.24" height="104.00" rx="3" ry="3" fill="#ECECFF" stroke="#9370DB" stroke-width="1" stroke-linejoin="round" stroke-linecap="round"/><text x="50.62" y="64.00" text-anchor="middle" font-family="'trebuchet ms', verdana, arial, sans-serif" font-size="16" fill="#333333"><tspan x="50.62" dy="0.00">Customer</tspan></text><rect x="22.49" y="301.69" width="54.62" height="104.00" rx="3" ry="3" fill="#ECECFF" stroke="#9370DB" stroke-width="1" stroke-linejoin="round" stroke-linecap="round"/><text x="49.80" y="357.69" text-anchor="middle" font-family="'trebuchet ms', verdana, arial, sans-serif" font-size="16" fill="#333333"><tspan x="49.80" dy="0.00">Item</tspan></text><rect x="18.96" y="154.84" width="62.28" height="104.00" rx="3" ry="3" fill="#ECECFF" stroke="#9370DB" stroke-width="1" stroke-linejoin="round" stroke-linecap="round"/><text x="50.10" y="210.84" text-anchor="middle" font-family="'trebuchet ms', verdana, arial, sans-serif" font-size="16" fill="#333333"><tspan x="50.10" dy="0.00">Order</tspan></text></svg>