<svg xmlns="http://www.w3.org/2000/svg" width="480.67136" height="876.80005" viewBox="0 0 480.67136 876.80005"><rect x="0" y="0" width="480.67136" height="876.80005" fill="#FFFFFF"/><defs><marker id="arrow-0" viewBox="0 0 10 10" refX="5" refY="5" markerUnits="userSpaceOnUse" markerWidth="8" markerHeight="8" orient="auto"><path d="M 0 0 L 10 5 L 0 10 z" fill="#2F3B4D" stroke="#2F3B4D" stroke-width="1" stroke-dasharray="1,0"/></marker><marker id="arrow-start-0" viewBox="0 0 10 10" refX="4.5" refY="5" markerUnits="userSpaceOnUse" markerWidth="8" markerHeight="8" orient="auto"><path d="M 0 5 L 10 10 L 10 0 z" fill="#2F3B4D" stroke="#2F3B4D" stroke-width="1" stroke-dasharray="1,0"/></marker><marker id="arrow-class-open-0" viewBox="0 0 20 14" refX="1" refY="7" markerUnits="userSpaceOnUse" markerWidth="20" markerHeight="14" orient="auto"><path d="M 1 7 L 18 13 V 1 Z" fill="none" stroke="#2F3B4D" stroke-width="1" stroke-dasharray="1,0"/></marker><marker id="arrow-class-open-start-0" viewBox="0 0 20 14" refX="18" refY="7" markerUnits="userSpaceOnUse" markerWidth="20" markerHeight="14" orient="auto"><path d="M 1 7 L 18 13 V 1 Z" fill="none" stroke="#2F3B4D" stroke-width="1" stroke-dasharray="1,0"/></marker><marker id="arrow-class-dep-0" viewBox="0 0 20 14" refX="13" refY="7" markerUnits="userSpaceOnUse" markerWidth="20" markerHeight="14" orient="auto"><path d="M 18 7 L 9 13 L 14 7 L 9 1 Z" fill="#2F3B4D" stroke="#2F3B4D" stroke-width="1" stroke-dasharray="1,0"/></marker><marker id="arrow-class-dep-start-0" viewBox="0 0 20 14" refX="6" refY="7" markerUnits="userSpaceOnUse" markerWidth="20" markerHeight="14" orient="auto"><path d="M 5 7 L 9 13 L 1 7 L 9 1 Z" fill="#2F3B4D" stroke="#2F3B4D" stroke-width="1" stroke-dasharray="1,0"/></marker></defs><path d="M 295.226,195.200L 295.226,203.533C295.227,211.867,295.228,228.533,295.229,238.867C295.229,249.200,295.230,253.200,295.230,257.200C295.230,261.200,295.231,265.200,295.231,272.250C295.232,279.300,295.233,289.400,295.234,294.450L 295.234,299.500" fill="none" stroke="#2F3B4D" stroke-width="1" marker-end="url(#arrow-class-dep-0)"   stroke-linecap="round" stroke-linejoin="round" /><rect x="268.26" y="233.35" width="53.93" height="28.00" rx="2" ry="2" fill="rgba(248,250,252, 0.92)" fill-opacity="0.85" stroke="#7B88A8" stroke-opacity="0.35" stroke-width="0.8"/><text x="295.23" y="251.35" text-anchor="middle" font-family="'trebuchet ms', verdana, arial, sans-serif" font-size="16" fill="#333333"><tspan x="295.23" dy="0.00">places</tspan></text><rect x="326.60" y="208.00" width="14.06" height="27.20" rx="2" ry="2" fill="rgba(248,250,252, 0.92)" fill-opacity="0.90" stroke="#7B88A8" stroke-opacity="0.40" stroke-width="0.8"/><text x="333.63" y="225.60" text-anchor="middle" font-family="'trebuchet ms', verdana, arial, sans-serif" font-size="16" fill="#333333"><tspan x="333.63" dy="0.00">1</tspan></text><rect x="326.61" y="259.50" width="14.06" height="27.20" rx="2" ry="2" fill="rgba(248,250,252, 0.92)" fill-opacity="0.90" stroke="#7B88A8" stroke-opacity="0.40" stroke-width="0.8"/><text x="333.63" y="277.10" text-anchor="middle" font-family="'trebuchet ms', verdana, arial, sans-serif" font-size="16" fill="#333333"><tspan x="333.63" dy="0.00">*</tspan></text><path d="M 343.234,486.700L 343.234,488.158C343.234,489.617,343.234,492.533,343.234,495.450C343.234,498.367,343.234,501.283,344.546,503.378C345.858,505.473,348.483,506.746,354.309,509.573C360.136,512.400,369.166,516.781,375.480,519.845C381.794,522.908,385.393,524.654,386.875,527.502C388.357,530.349,387.721,534.298,386.690,540.709C385.658,547.119,384.231,555.990,383.285,561.865C382.340,567.741,381.877,570.620,381.645,573.518C381.413,576.417,381.413,579.333,381.413,582.250C381.413,585.167,381.413,588.083,381.413,589.542L 381.413,591.000" fill="none" stroke="#2F3B4D" stroke-width="1" marker-end="url(#arrow-class-dep-0)"   stroke-linecap="round" stroke-linejoin="round" /><rect x="344.79" y="496.08" width="69.24" height="28.00" rx="2" ry="2" fill="rgba(248,250,252, 0.92)" fill-opacity="0.85" stroke="#7B88A8" stroke-opacity="0.35" stroke-width="0.8"/><text x="379.41" y="514.08" text-anchor="middle" font-family="'trebuchet ms', verdana, arial, sans-serif" font-size="16" fill="#333333"><tspan x="379.41" dy="0.00">contains</tspan></text><rect x="324.21" y="499.50" width="14.06" height="27.20" rx="2" ry="2" fill="rgba(248,250,252, 0.92)" fill-opacity="0.90" stroke="#7B88A8" stroke-opacity="0.40" stroke-width="0.8"/><text x="331.23" y="517.10" text-anchor="middle" font-family="'trebuchet ms', verdana, arial, sans-serif" font-size="16" fill="#333333"><tspan x="331.23" dy="0.00">*</tspan></text><rect x="386.39" y="551.00" width="14.06" height="27.20" rx="2" ry="2" fill="rgba(248,250,252, 0.92)" fill-opacity="0.90" stroke="#7B88A8" stroke-opacity="0.40" stroke-width="0.8"/><text x="393.41" y="568.60" text-anchor="middle" font-family="'trebuchet ms', verdana, arial, sans-serif" font-size="16" fill="#333333"><tspan x="393.41" dy="0.00">*</tspan></text><path d="M 247.234,486.700L 247.234,488.158C247.234,489.617,247.234,492.533,247.234,495.450C247.234,498.367,247.234,501.283,245.922,503.378C244.610,505.473,241.986,506.747,236.161,509.573C230.335,512.400,221.308,516.781,214.995,519.844C208.682,522.908,205.083,524.654,203.602,527.501C202.121,530.349,202.757,534.298,203.789,540.708C204.821,547.119,206.250,555.990,207.196,561.865C208.142,567.741,208.606,570.620,208.838,573.519C209.070,576.417,209.070,579.333,209.070,582.250C209.070,585.167,209.070,588.083,209.070,589.542L 209.070,591.000" fill="none" stroke="#2F3B4D" stroke-width="1" marker-end="url(#arrow-class-dep-0)"   stroke-linecap="round" stroke-linejoin="round" /><rect x="196.13" y="495.81" width="30.97" height="28.00" rx="2" ry="2" fill="rgba(248,250,252, 0.92)" fill-opacity="0.85" stroke="#7B88A8" stroke-opacity="0.35" stroke-width="0.8"/><text x="211.62" y="513.81" text-anchor="middle" font-family="'trebuchet ms', verdana, arial, sans-serif" font-size="16" fill="#333333"><tspan x="211.62" dy="0.00">has</tspan></text><rect x="228.21" y="499.50" width="14.06" height="27.20" rx="2" ry="2" fill="rgba(248,250,252, 0.92)" fill-opacity="0.90" stroke="#7B88A8" stroke-opacity="0.40" stroke-width="0.8"/><text x="235.23" y="517.10" text-anchor="middle" font-family="'trebuchet ms', verdana, arial, sans-serif" font-size="16" fill="#333333"><tspan x="235.23" dy="0.00">1</tspan></text><rect x="214.04" y="551.00" width="14.06" height="27.20" rx="2" ry="2" fill="rgba(248,250,252, 0.92)" fill-opacity="0.90" stroke="#7B88A8" stroke-opacity="0.40" stroke-width="0.8"/><text x="221.07" y="568.60" text-anchor="middle" font-family="'trebuchet ms', verdana, arial, sans-serif" font-size="16" fill="#333333"><tspan x="221.07" dy="0.00">1</tspan></text><path d="M 241.070,737.400L 241.070,738.858C241.070,740.317,241.070,743.233,241.070,746.150C241.070,749.067,241.070,751.983,242.105,752.415C243.141,752.846,245.211,750.792,249.150,746.886C253.088,742.979,258.894,737.221,262.832,733.314C266.770,729.408,268.841,727.354,269.876,727.785C270.912,728.217,270.912,731.133,270.912,734.050C270.912,736.967,270.912,739.883,270.912,741.342L 270.912,742.800" fill="none" stroke="#2F3B4D" stroke-width="1"  marker-start="url(#arrow-class-open-start-0)"  stroke-linecap="round" stroke-linejoin="round" /><path d="M 145.070,737.400L 145.070,738.858C145.070,740.317,145.070,743.233,145.070,746.150C145.070,749.067,145.070,751.983,143.845,752.650C142.620,753.317,140.170,751.734,133.760,747.592C127.349,743.451,116.978,736.750,110.568,732.608C104.158,728.466,101.708,726.883,100.483,727.550C99.258,728.217,99.258,731.133,99.258,734.050C99.258,736.967,99.258,739.883,99.258,741.342L 99.258,742.800" fill="none" stroke="#2F3B4D" stroke-width="1"  marker-start="url(#arrow-class-open-start-0)"  stroke-linecap="round" stroke-linejoin="round" /><rect x="208.52" y="742.80" width="188.79" height="126.00" rx="3" ry="3" fill="#ECECFF" stroke="#7B88A8" stroke-width="1" stroke-linejoin="round" stroke-linecap="round"/><line x1="214.52" y1="785.60" x2="391.31" y2="785.60" stroke="#7B88A8" stroke-width="1.0"/><line x1="214.52" y1="826.40" x2="391.31" y2="826.40" stroke="#7B88A8" stroke-width="1.0"/><text x="302.91" y="770.80" text-anchor="middle" font-family="'trebuchet ms', verdana, arial, sans-serif" font-size="16" fill="#333333"><tspan x="302.91" dy="0.00" font-weight="600">CreditCard</tspan></text><text x="238.52" y="811.60" text-anchor="start" font-family="'trebuchet ms', verdana, arial, sans-serif" font-size="16" fill="#333333"><tspan x="238.52" dy="0.00">+String cardNumber</tspan><tspan x="238.52" dy="40.80">+process()</tspan></text><rect x="219.98" y="299.50" width="150.52" height="187.20" rx="3" ry="3" fill="#ECECFF" stroke="#7B88A8" stroke-width="1" stroke-linejoin="round" stroke-linecap="round"/><line x1="225.98" y1="342.30" x2="364.49" y2="342.30" stroke="#7B88A8" stroke-width="1.0"/><line x1="225.98" y1="423.90" x2="364.49" y2="423.90" stroke="#7B88A8" stroke-width="1.0"/><text x="295.23" y="327.50" text-anchor="middle" font-family="'trebuchet ms', verdana, arial, sans-serif" font-size="16" fill="#333333"><tspan x="295.23" dy="0.00" font-weight="600">Order</tspan></text><text x="249.98" y="368.30" text-anchor="start" font-family="'trebuchet ms', verdana, arial, sans-serif" font-size="16" fill="#333333"><tspan x="249.98" dy="0.00">+int id</tspan><tspan x="249.98" dy="20.40">+Date date</tspan><tspan x="249.98" dy="20.40">+double total</tspan><tspan x="249.98" dy="40.80">+addItem()</tspan><tspan x="249.98" dy="20.40">+removeItem()</tspan></text><rect x="8.00" y="742.80" width="150.52" height="126.00" rx="3" ry="3" fill="#ECECFF" stroke="#7B88A8" stroke-width="1" stroke-linejoin="round" stroke-linecap="round"/><line x1="14.00" y1="785.60" x2="152.52" y2="785.60" stroke="#7B88A8" stroke-width="1.0"/><line x1="14.00" y1="826.40" x2="152.52" y2="826.40" stroke="#7B88A8" stroke-width="1.0"/><text x="83.26" y="770.80" text-anchor="middle" font-family="'trebuchet ms', verdana, arial, sans-serif" font-size="16" fill="#333333"><tspan x="83.26" dy="0.00" font-weight="600">PayPal</tspan></text><text x="38.00" y="811.60" text-anchor="start" font-family="'trebuchet ms', verdana, arial, sans-serif" font-size="16" fill="#333333"><tspan x="38.00" dy="0.00">+String email</tspan><tspan x="38.00" dy="40.80">+process()</tspan></text><rect x="113.98" y="591.00" width="158.17" height="146.40" rx="3" ry="3" fill="#ECECFF" stroke="#7B88A8" stroke-width="1" stroke-linejoin="round" stroke-linecap="round"/><line x1="119.98" y1="633.80" x2="266.16" y2="633.80" stroke="#7B88A8" stroke-width="1.0"/><line x1="119.98" y1="695.00" x2="266.16" y2="695.00" stroke="#7B88A8" stroke-width="1.0"/><text x="193.07" y="619.00" text-anchor="middle" font-family="'trebuchet ms', verdana, arial, sans-serif" font-size="16" fill="#333333"><tspan x="193.07" dy="0.00" font-weight="600">Payment</tspan></text><text x="143.98" y="659.80" text-anchor="start" font-family="'trebuchet ms', verdana, arial, sans-serif" font-size="16" fill="#333333"><tspan x="143.98" dy="0.00">&lt;&lt;abstract&gt;&gt;</tspan><tspan x="143.98" dy="20.40">+double amount</tspan><tspan x="143.98" dy="40.80">+process()</tspan></text><rect x="322.16" y="591.00" width="150.52" height="126.00" rx="3" ry="3" fill="#ECECFF" stroke="#7B88A8" stroke-width="1" stroke-linejoin="round" stroke-linecap="round"/><line x1="328.16" y1="633.80" x2="466.67" y2="633.80" stroke="#7B88A8" stroke-width="1.0"/><text x="397.41" y="619.00" text-anchor="middle" font-family="'trebuchet ms', verdana, arial, sans-serif" font-size="16" fill="#333333"><tspan x="397.41" dy="0.00" font-weight="600">Product</tspan></text><text x="352.16" y="659.80" text-anchor="start" font-family="'trebuchet ms', verdana, arial, sans-serif" font-size="16" fill="#333333"><tspan x="352.16" dy="0.00">+int id</tspan><tspan x="352.16" dy="20.40">+String name</tspan><tspan x="352.16" dy="20.40">+double price</tspan></text><rect x="219.97" y="8.00" width="150.52" height="187.20" rx="3" ry="3" fill="#ECECFF" stroke="#7B88A8" stroke-width="1" stroke-linejoin="round" stroke-linecap="round"/><line x1="225.97" y1="50.80" x2="364.48" y2="50.80" stroke="#7B88A8" stroke-width="1.0"/><line x1="225.97" y1="132.40" x2="364.48" y2="132.40" stroke="#7B88A8" stroke-width="1.0"/><text x="295.23" y="36.00" text-anchor="middle" font-family="'trebuchet ms', verdana, arial, sans-serif" font-size="16" fill="#333333"><tspan x="295.23" dy="0.00" font-weight="600">User</tspan></text><text x="249.97" y="76.80" text-anchor="start" font-family="'trebuchet ms', verdana, arial, sans-serif" font-size="16" fill="#333333"><tspan x="249.97" dy="0.00">+int id</tspan><tspan x="249.97" dy="20.40">+String name</tspan><tspan x="249.97" dy="20.40">+String email</tspan><tspan x="249.97" dy="40.80">+login()</tspan><tspan x="249.97" dy="20.40">+logout()</tspan></text></svg>