<svg xmlns="http://www.w3.org/2000/svg" width="165.688" height="338" viewBox="0 0 165.688 338"><rect x="0" y="0" width="165.688" height="338" fill="#FFFFFF"/><defs><marker id="arrow-0" viewBox="0 0 10 10" refX="5" refY="5" markerUnits="userSpaceOnUse" markerWidth="8" markerHeight="8" orient="auto"><path d="M 0 0 L 10 5 L 0 10 z" fill="#333333"/></marker><marker id="arrow-start-0" viewBox="0 0 10 10" refX="4.5" refY="5" markerUnits="userSpaceOnUse" markerWidth="8" markerHeight="8" orient="auto"><path d="M 0 5 L 10 10 L 10 0 z" fill="#333333"/></marker><marker id="arrow-class-open-0" viewBox="0 0 20 14" refX="1" refY="7" markerUnits="userSpaceOnUse" markerWidth="20" markerHeight="14" orient="auto"><path d="M 1 7 L 18 13 V 1 Z" fill="none" stroke="#333333"/></marker><marker id="arrow-class-open-start-0" viewBox="0 0 20 14" refX="18" refY="7" markerUnits="userSpaceOnUse" markerWidth="20" markerHeight="14" orient="auto"><path d="M 1 7 L 18 13 V 1 Z" fill="none" stroke="#333333"/></marker><marker id="arrow-class-dep-0" viewBox="0 0 20 14" refX="13" refY="7" markerUnits="userSpaceOnUse" markerWidth="20" markerHeight="14" orient="auto"><path d="M 18 7 L 9 13 L 14 7 L 9 1 Z" fill="#333333" stroke="#333333"/></marker><marker id="arrow-class-dep-start-0" viewBox="0 0 20 14" refX="6" refY="7" markerUnits="userSpaceOnUse" markerWidth="20" markerHeight="14" orient="auto"><path d="M 5 7 L 9 13 L 1 7 L 9 1 Z" fill="#333333" stroke="#333333"/></marker></defs><path d="M 82.844,152.000C82.844,164.333,82.844,182.833,82.844,189.000C82.844,195.167,82.844,182.833,82.844,189.000C82.844,195.167,82.844,213.667,82.844,226.000" fill="none" stroke="#333333" stroke-width="1"  marker-start="url(#arrow-class-open-start-0)"  stroke-linecap="round" stroke-linejoin="round" /><rect x="51.51" y="175.00" width="62.67" height="28.00" rx="2" ry="2" fill="#ECECFF" stroke="none"/><text x="82.84" y="193.00" text-anchor="middle" font-family="'trebuchet ms', verdana, arial, sans-serif" font-size="16" fill="#333333"><tspan x="82.84" dy="0.00">inherits</tspan></text><rect x="8.00" y="8.00" width="149.69" height="144.00" rx="3" ry="3" fill="#ECECFF" stroke="#9370DB" stroke-width="1" stroke-linejoin="round" stroke-linecap="round"/><line x1="14.00" y1="54.40" x2="151.69" y2="54.40" stroke="#9370DB" stroke-width="1.0"/><line x1="14.00" y1="102.40" x2="151.69" y2="102.40" stroke="#9370DB" stroke-width="1.0"/><text x="82.84" y="36.00" text-anchor="middle" font-family="'trebuchet ms', verdana, arial, sans-serif" font-size="16" fill="#333333"><tspan x="82.84" dy="0.00" font-weight="600">Animal</tspan></text><text x="38.00" y="84.00" text-anchor="start" font-family="'trebuchet ms', verdana, arial, sans-serif" font-size="16" fill="#333333"><tspan x="38.00" dy="0.00">+String name</tspan><tspan x="38.00" dy="48.00">+eat()</tspan></text><rect x="55.67" y="226.00" width="54.35" height="104.00" rx="3" ry="3" fill="#ECECFF" stroke="#9370DB" stroke-width="1" stroke-linejoin="round" stroke-linecap="round"/><text x="82.84" y="282.00" text-anchor="middle" font-family="'trebuchet ms', verdana, arial, sans-serif" font-size="16" fill="#333333"><tspan x="82.84" dy="0.00">Dog</tspan></text></svg>