<svg xmlns="http://www.w3.org/2000/svg" width="929.8163" height="817.875" viewBox="0 0 929.8163 817.875"><rect x="0" y="0" width="929.8163" height="817.875" fill="#FFFFFF"/><defs><marker id="arrow-0" viewBox="0 0 10 10" refX="5" refY="5" markerUnits="userSpaceOnUse" markerWidth="8" markerHeight="8" orient="auto"><path d="M 0 0 L 10 5 L 0 10 z" fill="#2F3B4D" stroke="#2F3B4D" stroke-width="1" stroke-dasharray="1,0"/></marker><marker id="arrow-start-0" viewBox="0 0 10 10" refX="4.5" refY="5" markerUnits="userSpaceOnUse" markerWidth="8" markerHeight="8" orient="auto"><path d="M 0 5 L 10 10 L 10 0 z" fill="#2F3B4D" stroke="#2F3B4D" stroke-width="1" stroke-dasharray="1,0"/></marker></defs><path d="M 636.506,195.425L 636.506,196.883C636.506,198.342,636.506,201.258,636.506,204.175C636.506,207.092,636.506,210.008,637.093,212.802C637.680,215.595,638.853,218.265,641.962,225.338C645.071,232.411,650.114,243.887,652.787,249.969C655.460,256.050,655.762,256.738,655.601,257.290C655.440,257.842,654.815,258.258,654.503,258.467C654.191,258.675,654.191,258.675,653.878,258.883C653.566,259.092,652.942,259.508,652.630,260.092C652.317,260.676,652.317,261.426,652.317,264.343C652.317,267.260,652.317,272.342,652.317,274.884L 652.317,277.425" fill="none" stroke="#2F3B4D" stroke-width="1"    stroke-linecap="round" stroke-linejoin="round" /><g transform="translate(636.51 195.42) rotate(90.00)"><path d="M 0 -6 L 0 6 M 5 -6 L 5 6" fill="none" stroke="#2F3B4D" stroke-width="1" stroke-linejoin="round" stroke-linecap="round"/></g><g transform="translate(652.32 277.42) rotate(90.00)"><g><circle cx="-4" cy="0" r="4" fill="none" stroke="#2F3B4D" stroke-width="1"/><path d="M 4 0 L 12 -6 M 4 0 L 12 6" fill="none" stroke="#2F3B4D" stroke-width="1" stroke-linejoin="round" stroke-linecap="round"/></g></g><rect x="620.23" y="223.24" width="53.93" height="28.00" rx="2" ry="2" fill="rgba(248,250,252, 0.92)" fill-opacity="0.85" stroke="#7B88A8" stroke-opacity="0.35" stroke-width="0.8"/><text x="647.19" y="241.24" text-anchor="middle" font-family="'trebuchet ms', verdana, arial, sans-serif" font-size="16" fill="#333333"><tspan x="647.19" dy="0.00">writes</tspan></text><path d="M 620.317,515.250L 620.317,516.708C620.317,518.167,620.317,521.083,620.317,524.000C620.317,526.917,620.317,529.833,619.188,532.215C618.060,534.596,615.802,536.443,608.281,542.594C600.761,548.744,587.978,559.198,580.038,565.692C572.099,572.185,569.002,574.718,569.449,576.125C569.896,577.533,573.886,577.816,578.304,578.130C582.722,578.443,587.568,578.787,591.445,579.062C595.323,579.337,598.232,579.544,599.687,581.105C601.141,582.667,601.141,585.583,601.141,588.500C601.141,591.417,601.141,594.333,601.141,595.792L 601.141,597.250" fill="none" stroke="#2F3B4D" stroke-width="1"    stroke-linecap="round" stroke-linejoin="round" /><g transform="translate(620.32 515.25) rotate(90.00)"><path d="M 0 -6 L 0 6 M 5 -6 L 5 6" fill="none" stroke="#2F3B4D" stroke-width="1" stroke-linejoin="round" stroke-linecap="round"/></g><g transform="translate(601.14 597.25) rotate(90.00)"><g><circle cx="-4" cy="0" r="4" fill="none" stroke="#2F3B4D" stroke-width="1"/><path d="M 4 0 L 12 -6 M 4 0 L 12 6" fill="none" stroke="#2F3B4D" stroke-width="1" stroke-linejoin="round" stroke-linecap="round"/></g></g><rect x="539.64" y="494.55" width="30.97" height="28.00" rx="2" ry="2" fill="rgba(248,250,252, 0.92)" fill-opacity="0.85" stroke="#7B88A8" stroke-opacity="0.35" stroke-width="0.8"/><text x="555.13" y="512.55" text-anchor="middle" font-family="'trebuchet ms', verdana, arial, sans-serif" font-size="16" fill="#333333"><tspan x="555.13" dy="0.00">has</tspan></text><path d="M 354.687,145.025L 354.687,160.710C354.687,176.396,354.687,207.767,354.687,225.452C354.687,243.138,354.687,247.138,356.687,249.137C358.687,251.138,362.687,251.138,388.430,251.137C414.172,251.138,461.657,251.138,487.399,251.137C513.141,251.138,517.141,251.138,517.142,251.185C517.143,251.233,513.144,251.328,471.165,252.328C429.187,253.329,349.229,255.234,307.250,256.234C265.272,257.234,261.273,257.330,260.540,258.925C259.808,260.520,262.342,263.615,305.396,316.208C348.450,368.800,432.024,470.890,474.735,523.063C517.446,575.236,519.294,577.493,520.218,580.080C521.141,582.667,521.141,585.583,521.141,588.500C521.141,591.417,521.141,594.333,521.141,595.792L 521.141,597.250" fill="none" stroke="#2F3B4D" stroke-width="1"    stroke-linecap="round" stroke-linejoin="round" /><g transform="translate(354.69 145.02) rotate(90.00)"><path d="M 0 -6 L 0 6 M 5 -6 L 5 6" fill="none" stroke="#2F3B4D" stroke-width="1" stroke-linejoin="round" stroke-linecap="round"/></g><g transform="translate(521.14 597.25) rotate(90.00)"><g><circle cx="-4" cy="0" r="4" fill="none" stroke="#2F3B4D" stroke-width="1"/><path d="M 4 0 L 12 -6 M 4 0 L 12 6" fill="none" stroke="#2F3B4D" stroke-width="1" stroke-linejoin="round" stroke-linecap="round"/></g></g><rect x="350.76" y="404.59" width="76.90" height="28.00" rx="2" ry="2" fill="rgba(248,250,252, 0.92)" fill-opacity="0.85" stroke="#7B88A8" stroke-opacity="0.35" stroke-width="0.8"/><text x="389.21" y="422.59" text-anchor="middle" font-family="'trebuchet ms', verdana, arial, sans-serif" font-size="16" fill="#333333"><tspan x="389.21" dy="0.00">&quot;used in&quot;</tspan></text><path d="M 748.317,515.250L 748.317,516.708C748.317,518.167,748.317,521.083,748.317,524.000C748.317,526.917,748.317,529.833,749.447,532.214C750.576,534.595,752.835,536.440,761.654,543.642C770.472,550.844,785.850,563.403,793.801,569.898C801.753,576.392,802.279,576.821,802.273,577.244C802.269,577.667,801.733,578.083,801.465,578.292C801.198,578.500,801.198,578.500,800.930,578.708C800.662,578.917,800.127,579.333,799.859,579.881C799.591,580.428,799.591,581.107,799.591,584.024C799.591,586.940,799.591,592.095,799.591,594.673L 799.591,597.250" fill="none" stroke="#2F3B4D" stroke-width="1"    stroke-linecap="round" stroke-linejoin="round" /><g transform="translate(748.32 515.25) rotate(90.00)"><path d="M 0 -6 L 0 6 M 5 -6 L 5 6" fill="none" stroke="#2F3B4D" stroke-width="1" stroke-linejoin="round" stroke-linecap="round"/></g><g transform="translate(799.59 597.25) rotate(90.00)"><g><circle cx="-4" cy="0" r="4" fill="none" stroke="#2F3B4D" stroke-width="1"/><path d="M 4 0 L 12 -6 M 4 0 L 12 6" fill="none" stroke="#2F3B4D" stroke-width="1" stroke-linejoin="round" stroke-linecap="round"/></g></g><rect x="771.03" y="559.76" width="69.24" height="28.00" rx="2" ry="2" fill="rgba(248,250,252, 0.92)" fill-opacity="0.85" stroke="#7B88A8" stroke-opacity="0.35" stroke-width="0.8"/><text x="805.65" y="577.76" text-anchor="middle" font-family="'trebuchet ms', verdana, arial, sans-serif" font-size="16" fill="#333333"><tspan x="805.65" dy="0.00">receives</tspan></text><path d="M 162.374,69.425L 162.374,70.883C162.374,72.342,162.374,75.258,162.374,78.175C162.374,81.092,162.374,84.008,161.467,86.609C160.561,89.210,158.749,91.495,137.452,118.345C116.156,145.195,75.375,196.609,53.742,223.883C32.109,251.157,29.623,254.291,29.236,257.666C28.848,261.041,30.558,264.657,52.243,310.501C73.927,356.345,115.585,444.417,137.269,490.262C158.953,536.106,160.663,539.722,163.519,541.530C166.374,543.338,170.374,543.338,266.577,543.337C362.780,543.338,551.185,543.338,647.388,543.337C743.591,543.338,747.591,543.338,749.591,545.337C751.591,547.338,751.591,551.338,751.591,560.323C751.591,569.308,751.591,583.279,751.591,590.265L 751.591,597.250" fill="none" stroke="#2F3B4D" stroke-width="1"    stroke-linecap="round" stroke-linejoin="round" /><g transform="translate(162.37 69.42) rotate(90.00)"><path d="M 0 -6 L 0 6 M 5 -6 L 5 6" fill="none" stroke="#2F3B4D" stroke-width="1" stroke-linejoin="round" stroke-linecap="round"/></g><g transform="translate(751.59 597.25) rotate(90.00)"><g><circle cx="-4" cy="0" r="4" fill="none" stroke="#2F3B4D" stroke-width="1"/><path d="M 4 0 L 12 -6 M 4 0 L 12 6" fill="none" stroke="#2F3B4D" stroke-width="1" stroke-linejoin="round" stroke-linecap="round"/></g></g><rect x="17.03" y="487.42" width="46.28" height="28.00" rx="2" ry="2" fill="rgba(248,250,252, 0.92)" fill-opacity="0.85" stroke="#7B88A8" stroke-opacity="0.35" stroke-width="0.8"/><text x="40.16" y="505.42" text-anchor="middle" font-family="'trebuchet ms', verdana, arial, sans-serif" font-size="16" fill="#333333"><tspan x="40.16" dy="0.00">posts</tspan></text><path d="M 130.374,69.425L 130.374,71.181C130.374,72.937,130.374,76.450,130.374,79.962C130.374,83.475,130.374,86.987,128.617,88.744C126.861,90.500,123.349,90.500,120.312,90.500C117.275,90.500,114.715,90.500,111.434,90.500C108.154,90.500,104.154,90.500,102.154,88.500C100.154,86.500,100.154,82.500,100.154,73.833C100.154,65.167,100.154,51.833,100.154,43.167C100.154,34.500,100.154,30.500,102.154,28.500C104.154,26.500,108.154,26.500,124.821,26.500C141.487,26.500,170.821,26.500,187.487,26.500C204.154,26.500,208.154,26.500,211.330,28.118C214.506,29.736,216.858,32.971,243.656,69.841C270.454,106.711,321.698,177.214,348.496,214.084C375.294,250.954,377.646,254.189,376.824,255.915C376.003,257.641,372.009,257.857,346.032,259.261C320.055,260.666,272.096,263.259,246.119,264.664C220.142,266.068,216.148,266.284,216.151,266.392C216.154,266.500,220.154,266.500,241.402,266.500C262.650,266.500,301.146,266.500,321.305,266.500C341.463,266.500,343.284,266.500,344.194,267.410C345.105,268.321,345.105,270.142,345.105,271.962C345.105,273.783,345.105,275.604,345.105,276.515L 345.105,277.425" fill="none" stroke="#2F3B4D" stroke-width="1"    stroke-linecap="round" stroke-linejoin="round" /><g transform="translate(130.37 69.42) rotate(90.00)"><path d="M 0 -6 L 0 6 M 5 -6 L 5 6" fill="none" stroke="#2F3B4D" stroke-width="1" stroke-linejoin="round" stroke-linecap="round"/></g><g transform="translate(345.10 277.42) rotate(90.00)"><g><circle cx="-4" cy="0" r="4" fill="none" stroke="#2F3B4D" stroke-width="1"/><path d="M 4 0 L 12 -6 M 4 0 L 12 6" fill="none" stroke="#2F3B4D" stroke-width="1" stroke-linejoin="round" stroke-linecap="round"/></g></g><rect x="261.15" y="159.65" width="84.55" height="28.00" rx="2" ry="2" fill="rgba(248,250,252, 0.92)" fill-opacity="0.85" stroke="#7B88A8" stroke-opacity="0.35" stroke-width="0.8"/><text x="303.43" y="177.65" text-anchor="middle" font-family="'trebuchet ms', verdana, arial, sans-serif" font-size="16" fill="#333333"><tspan x="303.43" dy="0.00">subscribes</tspan></text><path d="M 524.506,195.425L 524.506,196.883C524.506,198.342,524.506,201.258,524.506,204.175C524.506,207.092,524.506,210.008,524.545,212.924C524.584,215.841,524.661,218.756,524.805,224.174C524.948,229.591,525.158,237.510,525.316,243.469C525.474,249.428,525.580,253.426,523.633,255.475C521.687,257.524,517.688,257.624,502.383,258.004C487.077,258.385,460.465,259.046,445.700,259.413C430.936,259.780,428.021,259.853,426.563,261.347C425.105,262.842,425.105,265.758,425.105,268.675C425.105,271.592,425.105,274.508,425.105,275.967L 425.105,277.425" fill="none" stroke="#2F3B4D" stroke-width="1"    stroke-linecap="round" stroke-linejoin="round" /><g transform="translate(524.51 195.42) rotate(90.00)"><path d="M 0 -6 L 0 6 M 5 -6 L 5 6" fill="none" stroke="#2F3B4D" stroke-width="1" stroke-linejoin="round" stroke-linecap="round"/></g><g transform="translate(425.10 277.42) rotate(90.00)"><g><circle cx="-4" cy="0" r="4" fill="none" stroke="#2F3B4D" stroke-width="1"/><path d="M 4 0 L 12 -6 M 4 0 L 12 6" fill="none" stroke="#2F3B4D" stroke-width="1" stroke-linejoin="round" stroke-linecap="round"/></g></g><rect x="435.49" y="214.13" width="122.83" height="28.00" rx="2" ry="2" fill="rgba(248,250,252, 0.92)" fill-opacity="0.85" stroke="#7B88A8" stroke-opacity="0.35" stroke-width="0.8"/><text x="496.90" y="232.13" text-anchor="middle" font-family="'trebuchet ms', verdana, arial, sans-serif" font-size="16" fill="#333333"><tspan x="496.90" dy="0.00">&quot;subscribed to&quot;</tspan></text><rect x="578.09" y="277.42" width="212.45" height="237.82" rx="6.00" ry="6.00" fill="#FFFFFF" stroke="#7B88A8" stroke-width="1.2"/><rect x="578.09" y="277.42" width="212.45" height="33.60" rx="6.00" ry="6.00" fill="#FFFFDE"/><text x="684.32" y="298.22" text-anchor="middle" font-family="'trebuchet ms', verdana, arial, sans-serif" font-size="16" fill="#333333"><tspan x="684.32" dy="0.00">ARTICLE</tspan></text><line x1="578.09" y1="311.02" x2="790.54" y2="311.02" stroke="#AAAA33" stroke-width="1.0" stroke-opacity="0.6"/><line x1="716.86" y1="311.02" x2="716.86" y2="515.25" stroke="#AAAA33" stroke-width="1.0" stroke-opacity="0.45"/><rect x="590.89" y="315.82" width="27.00" height="14.40" rx="7.20" ry="7.20" fill="#1D4ED8"/><text x="604.39" y="327.18" text-anchor="middle" font-family="'trebuchet ms', verdana, arial, sans-serif" font-size="11.52" font-weight="600" fill="#FFFFFF">PK</text><text x="624.30" y="327.02" text-anchor="start" font-family="'trebuchet ms', verdana, arial, sans-serif" font-size="16" fill="#333333"><tspan x="624.30" dy="0.00">id</tspan></text><text x="777.74" y="327.02" text-anchor="end" font-family="'trebuchet ms', verdana, arial, sans-serif" font-size="16" fill="#2F3B4D"><tspan x="777.74" dy="0.00">int</tspan></text><line x1="578.09" y1="335.02" x2="790.54" y2="335.02" stroke="#AAAA33" stroke-width="1.0" stroke-opacity="0.35"/><rect x="590.89" y="339.82" width="26.47" height="14.40" rx="7.20" ry="7.20" fill="#0F766E"/><text x="604.13" y="351.18" text-anchor="middle" font-family="'trebuchet ms', verdana, arial, sans-serif" font-size="11.52" font-weight="600" fill="#FFFFFF">FK</text><text x="623.77" y="351.02" text-anchor="start" font-family="'trebuchet ms', verdana, arial, sans-serif" font-size="16" fill="#333333"><tspan x="623.77" dy="0.00">author_id</tspan></text><text x="777.74" y="351.02" text-anchor="end" font-family="'trebuchet ms', verdana, arial, sans-serif" font-size="16" fill="#2F3B4D"><tspan x="777.74" dy="0.00">int</tspan></text><line x1="578.09" y1="359.02" x2="790.54" y2="359.02" stroke="#AAAA33" stroke-width="1.0" stroke-opacity="0.35"/><text x="590.89" y="375.02" text-anchor="start" font-family="'trebuchet ms', verdana, arial, sans-serif" font-size="16" fill="#333333"><tspan x="590.89" dy="0.00">title</tspan></text><text x="777.74" y="375.02" text-anchor="end" font-family="'trebuchet ms', verdana, arial, sans-serif" font-size="16" fill="#2F3B4D"><tspan x="777.74" dy="0.00">string</tspan></text><line x1="578.09" y1="383.02" x2="790.54" y2="383.02" stroke="#AAAA33" stroke-width="1.0" stroke-opacity="0.35"/><text x="590.89" y="399.02" text-anchor="start" font-family="'trebuchet ms', verdana, arial, sans-serif" font-size="16" fill="#333333"><tspan x="590.89" dy="0.00">content</tspan></text><text x="777.74" y="399.02" text-anchor="end" font-family="'trebuchet ms', verdana, arial, sans-serif" font-size="16" fill="#2F3B4D"><tspan x="777.74" dy="0.00">text</tspan></text><line x1="578.09" y1="407.02" x2="790.54" y2="407.02" stroke="#AAAA33" stroke-width="1.0" stroke-opacity="0.35"/><text x="590.89" y="423.02" text-anchor="start" font-family="'trebuchet ms', verdana, arial, sans-serif" font-size="16" fill="#333333"><tspan x="590.89" dy="0.00">published_at</tspan></text><text x="777.74" y="423.02" text-anchor="end" font-family="'trebuchet ms', verdana, arial, sans-serif" font-size="16" fill="#2F3B4D"><tspan x="777.74" dy="0.00">date</tspan></text><line x1="578.09" y1="431.02" x2="790.54" y2="431.02" stroke="#AAAA33" stroke-width="1.0" stroke-opacity="0.35"/><text x="590.89" y="447.02" text-anchor="start" font-family="'trebuchet ms', verdana, arial, sans-serif" font-size="16" fill="#333333"><tspan x="590.89" dy="0.00">status</tspan></text><text x="777.74" y="447.02" text-anchor="end" font-family="'trebuchet ms', verdana, arial, sans-serif" font-size="16" fill="#2F3B4D"><tspan x="777.74" dy="0.00">string</tspan></text><rect x="482.28" y="8.00" width="212.45" height="187.42" rx="6.00" ry="6.00" fill="#FFFFFF" stroke="#7B88A8" stroke-width="1.2"/><rect x="482.28" y="8.00" width="212.45" height="33.60" rx="6.00" ry="6.00" fill="#FFFFDE"/><text x="588.51" y="28.80" text-anchor="middle" font-family="'trebuchet ms', verdana, arial, sans-serif" font-size="16" fill="#333333"><tspan x="588.51" dy="0.00">AUTHOR</tspan></text><line x1="482.28" y1="41.60" x2="694.73" y2="41.60" stroke="#AAAA33" stroke-width="1.0" stroke-opacity="0.6"/><line x1="621.05" y1="41.60" x2="621.05" y2="195.42" stroke="#AAAA33" stroke-width="1.0" stroke-opacity="0.45"/><rect x="495.08" y="46.40" width="27.00" height="14.40" rx="7.20" ry="7.20" fill="#1D4ED8"/><text x="508.58" y="57.76" text-anchor="middle" font-family="'trebuchet ms', verdana, arial, sans-serif" font-size="11.52" font-weight="600" fill="#FFFFFF">PK</text><text x="528.48" y="57.60" text-anchor="start" font-family="'trebuchet ms', verdana, arial, sans-serif" font-size="16" fill="#333333"><tspan x="528.48" dy="0.00">id</tspan></text><text x="681.93" y="57.60" text-anchor="end" font-family="'trebuchet ms', verdana, arial, sans-serif" font-size="16" fill="#2F3B4D"><tspan x="681.93" dy="0.00">int</tspan></text><line x1="482.28" y1="65.60" x2="694.73" y2="65.60" stroke="#AAAA33" stroke-width="1.0" stroke-opacity="0.35"/><text x="495.08" y="81.60" text-anchor="start" font-family="'trebuchet ms', verdana, arial, sans-serif" font-size="16" fill="#333333"><tspan x="495.08" dy="0.00">name</tspan></text><text x="681.93" y="81.60" text-anchor="end" font-family="'trebuchet ms', verdana, arial, sans-serif" font-size="16" fill="#2F3B4D"><tspan x="681.93" dy="0.00">string</tspan></text><line x1="482.28" y1="89.60" x2="694.73" y2="89.60" stroke="#AAAA33" stroke-width="1.0" stroke-opacity="0.35"/><text x="495.08" y="105.60" text-anchor="start" font-family="'trebuchet ms', verdana, arial, sans-serif" font-size="16" fill="#333333"><tspan x="495.08" dy="0.00">bio</tspan></text><text x="681.93" y="105.60" text-anchor="end" font-family="'trebuchet ms', verdana, arial, sans-serif" font-size="16" fill="#2F3B4D"><tspan x="681.93" dy="0.00">string</tspan></text><line x1="482.28" y1="113.60" x2="694.73" y2="113.60" stroke="#AAAA33" stroke-width="1.0" stroke-opacity="0.35"/><text x="495.08" y="129.60" text-anchor="start" font-family="'trebuchet ms', verdana, arial, sans-serif" font-size="16" fill="#333333"><tspan x="495.08" dy="0.00">avatar_url</tspan></text><text x="681.93" y="129.60" text-anchor="end" font-family="'trebuchet ms', verdana, arial, sans-serif" font-size="16" fill="#2F3B4D"><tspan x="681.93" dy="0.00">string</tspan></text><rect x="709.37" y="597.25" width="212.45" height="212.62" rx="6.00" ry="6.00" fill="#FFFFFF" stroke="#7B88A8" stroke-width="1.2"/><rect x="709.37" y="597.25" width="212.45" height="33.60" rx="6.00" ry="6.00" fill="#FFFFDE"/><text x="815.59" y="618.05" text-anchor="middle" font-family="'trebuchet ms', verdana, arial, sans-serif" font-size="16" fill="#333333"><tspan x="815.59" dy="0.00">COMMENT</tspan></text><line x1="709.37" y1="630.85" x2="921.82" y2="630.85" stroke="#AAAA33" stroke-width="1.0" stroke-opacity="0.6"/><line x1="854.68" y1="630.85" x2="854.68" y2="809.88" stroke="#AAAA33" stroke-width="1.0" stroke-opacity="0.45"/><rect x="722.17" y="635.65" width="27.00" height="14.40" rx="7.20" ry="7.20" fill="#1D4ED8"/><text x="735.67" y="647.01" text-anchor="middle" font-family="'trebuchet ms', verdana, arial, sans-serif" font-size="11.52" font-weight="600" fill="#FFFFFF">PK</text><text x="755.57" y="646.85" text-anchor="start" font-family="'trebuchet ms', verdana, arial, sans-serif" font-size="16" fill="#333333"><tspan x="755.57" dy="0.00">id</tspan></text><text x="909.02" y="646.85" text-anchor="end" font-family="'trebuchet ms', verdana, arial, sans-serif" font-size="16" fill="#2F3B4D"><tspan x="909.02" dy="0.00">int</tspan></text><line x1="709.37" y1="654.85" x2="921.82" y2="654.85" stroke="#AAAA33" stroke-width="1.0" stroke-opacity="0.35"/><rect x="722.17" y="659.65" width="26.47" height="14.40" rx="7.20" ry="7.20" fill="#0F766E"/><text x="735.40" y="671.01" text-anchor="middle" font-family="'trebuchet ms', verdana, arial, sans-serif" font-size="11.52" font-weight="600" fill="#FFFFFF">FK</text><text x="755.04" y="670.85" text-anchor="start" font-family="'trebuchet ms', verdana, arial, sans-serif" font-size="16" fill="#333333"><tspan x="755.04" dy="0.00">article_id</tspan></text><text x="909.02" y="670.85" text-anchor="end" font-family="'trebuchet ms', verdana, arial, sans-serif" font-size="16" fill="#2F3B4D"><tspan x="909.02" dy="0.00">int</tspan></text><line x1="709.37" y1="678.85" x2="921.82" y2="678.85" stroke="#AAAA33" stroke-width="1.0" stroke-opacity="0.35"/><rect x="722.17" y="683.65" width="26.47" height="14.40" rx="7.20" ry="7.20" fill="#0F766E"/><text x="735.40" y="695.01" text-anchor="middle" font-family="'trebuchet ms', verdana, arial, sans-serif" font-size="11.52" font-weight="600" fill="#FFFFFF">FK</text><text x="755.04" y="694.85" text-anchor="start" font-family="'trebuchet ms', verdana, arial, sans-serif" font-size="16" fill="#333333"><tspan x="755.04" dy="0.00">reader_id</tspan></text><text x="909.02" y="694.85" text-anchor="end" font-family="'trebuchet ms', verdana, arial, sans-serif" font-size="16" fill="#2F3B4D"><tspan x="909.02" dy="0.00">int</tspan></text><line x1="709.37" y1="702.85" x2="921.82" y2="702.85" stroke="#AAAA33" stroke-width="1.0" stroke-opacity="0.35"/><text x="722.17" y="718.85" text-anchor="start" font-family="'trebuchet ms', verdana, arial, sans-serif" font-size="16" fill="#333333"><tspan x="722.17" dy="0.00">body</tspan></text><text x="909.02" y="718.85" text-anchor="end" font-family="'trebuchet ms', verdana, arial, sans-serif" font-size="16" fill="#2F3B4D"><tspan x="909.02" dy="0.00">text</tspan></text><line x1="709.37" y1="726.85" x2="921.82" y2="726.85" stroke="#AAAA33" stroke-width="1.0" stroke-opacity="0.35"/><text x="722.17" y="742.85" text-anchor="start" font-family="'trebuchet ms', verdana, arial, sans-serif" font-size="16" fill="#333333"><tspan x="722.17" dy="0.00">created_at</tspan></text><text x="909.02" y="742.85" text-anchor="end" font-family="'trebuchet ms', verdana, arial, sans-serif" font-size="16" fill="#2F3B4D"><tspan x="909.02" dy="0.00">date</tspan></text><rect x="65.65" y="8.00" width="129.44" height="61.42" rx="6.00" ry="6.00" fill="#FFFFFF" stroke="#7B88A8" stroke-width="1.2"/><rect x="65.65" y="8.00" width="129.44" height="61.42" rx="6.00" ry="6.00" fill="#FFFFDE"/><text x="130.37" y="42.71" text-anchor="middle" font-family="'trebuchet ms', verdana, arial, sans-serif" font-size="16" fill="#333333"><tspan x="130.37" dy="0.00">READER</tspan></text><rect x="288.33" y="277.42" width="177.56" height="61.42" rx="6.00" ry="6.00" fill="#FFFFFF" stroke="#7B88A8" stroke-width="1.2"/><rect x="288.33" y="277.42" width="177.56" height="61.42" rx="6.00" ry="6.00" fill="#FFFFDE"/><text x="377.10" y="312.14" text-anchor="middle" font-family="'trebuchet ms', verdana, arial, sans-serif" font-size="16" fill="#333333"><tspan x="377.10" dy="0.00">SUBSCRIPTION</tspan></text><rect x="245.09" y="8.00" width="187.19" height="137.02" rx="6.00" ry="6.00" fill="#FFFFFF" stroke="#7B88A8" stroke-width="1.2"/><rect x="245.09" y="8.00" width="187.19" height="33.60" rx="6.00" ry="6.00" fill="#FFFFDE"/><text x="338.69" y="28.80" text-anchor="middle" font-family="'trebuchet ms', verdana, arial, sans-serif" font-size="16" fill="#333333"><tspan x="338.69" dy="0.00">TAG</tspan></text><line x1="245.09" y1="41.60" x2="432.28" y2="41.60" stroke="#AAAA33" stroke-width="1.0" stroke-opacity="0.6"/><line x1="358.60" y1="41.60" x2="358.60" y2="145.02" stroke="#AAAA33" stroke-width="1.0" stroke-opacity="0.45"/><rect x="257.89" y="46.40" width="27.00" height="14.40" rx="7.20" ry="7.20" fill="#1D4ED8"/><text x="271.39" y="57.76" text-anchor="middle" font-family="'trebuchet ms', verdana, arial, sans-serif" font-size="11.52" font-weight="600" fill="#FFFFFF">PK</text><text x="291.30" y="57.60" text-anchor="start" font-family="'trebuchet ms', verdana, arial, sans-serif" font-size="16" fill="#333333"><tspan x="291.30" dy="0.00">id</tspan></text><text x="419.48" y="57.60" text-anchor="end" font-family="'trebuchet ms', verdana, arial, sans-serif" font-size="16" fill="#2F3B4D"><tspan x="419.48" dy="0.00">int</tspan></text><line x1="245.09" y1="65.60" x2="432.28" y2="65.60" stroke="#AAAA33" stroke-width="1.0" stroke-opacity="0.35"/><rect x="257.89" y="70.40" width="27.52" height="14.40" rx="7.20" ry="7.20" fill="#7C3AED"/><text x="271.65" y="81.76" text-anchor="middle" font-family="'trebuchet ms', verdana, arial, sans-serif" font-size="11.52" font-weight="600" fill="#FFFFFF">UK</text><text x="291.81" y="81.60" text-anchor="start" font-family="'trebuchet ms', verdana, arial, sans-serif" font-size="16" fill="#333333"><tspan x="291.81" dy="0.00">name</tspan></text><text x="419.48" y="81.60" text-anchor="end" font-family="'trebuchet ms', verdana, arial, sans-serif" font-size="16" fill="#2F3B4D"><tspan x="419.48" dy="0.00">string</tspan></text><rect x="446.92" y="597.25" width="212.45" height="137.02" rx="6.00" ry="6.00" fill="#FFFFFF" stroke="#7B88A8" stroke-width="1.2"/><rect x="446.92" y="597.25" width="212.45" height="33.60" rx="6.00" ry="6.00" fill="#FFFFDE"/><text x="553.14" y="618.05" text-anchor="middle" font-family="'trebuchet ms', verdana, arial, sans-serif" font-size="16" fill="#333333"><tspan x="553.14" dy="0.00">TAG_MAP</tspan></text><line x1="446.92" y1="630.85" x2="659.37" y2="630.85" stroke="#AAAA33" stroke-width="1.0" stroke-opacity="0.6"/><line x1="601.77" y1="630.85" x2="601.77" y2="734.28" stroke="#AAAA33" stroke-width="1.0" stroke-opacity="0.45"/><rect x="459.72" y="635.65" width="26.47" height="14.40" rx="7.20" ry="7.20" fill="#0F766E"/><text x="472.95" y="647.01" text-anchor="middle" font-family="'trebuchet ms', verdana, arial, sans-serif" font-size="11.52" font-weight="600" fill="#FFFFFF">FK</text><text x="492.59" y="646.85" text-anchor="start" font-family="'trebuchet ms', verdana, arial, sans-serif" font-size="16" fill="#333333"><tspan x="492.59" dy="0.00">article_id</tspan></text><text x="646.57" y="646.85" text-anchor="end" font-family="'trebuchet ms', verdana, arial, sans-serif" font-size="16" fill="#2F3B4D"><tspan x="646.57" dy="0.00">int</tspan></text><line x1="446.92" y1="654.85" x2="659.37" y2="654.85" stroke="#AAAA33" stroke-width="1.0" stroke-opacity="0.35"/><rect x="459.72" y="659.65" width="26.47" height="14.40" rx="7.20" ry="7.20" fill="#0F766E"/><text x="472.95" y="671.01" text-anchor="middle" font-family="'trebuchet ms', verdana, arial, sans-serif" font-size="11.52" font-weight="600" fill="#FFFFFF">FK</text><text x="492.59" y="670.85" text-anchor="start" font-family="'trebuchet ms', verdana, arial, sans-serif" font-size="16" fill="#333333"><tspan x="492.59" dy="0.00">tag_id</tspan></text><text x="646.57" y="670.85" text-anchor="end" font-family="'trebuchet ms', verdana, arial, sans-serif" font-size="16" fill="#2F3B4D"><tspan x="646.57" dy="0.00">int</tspan></text></svg>