<svg xmlns="http://www.w3.org/2000/svg" width="798.85693" height="823.02496" viewBox="0 0 798.85693 823.02496"><rect x="0" y="0" width="798.85693" height="823.02496" fill="#FFFFFF"/><defs><marker id="arrow-0" viewBox="0 0 10 10" refX="5" refY="5" markerUnits="userSpaceOnUse" markerWidth="8" markerHeight="8" orient="auto"><path d="M 0 0 L 10 5 L 0 10 z" fill="#2F3B4D" stroke="#2F3B4D" stroke-width="1" stroke-dasharray="1,0"/></marker><marker id="arrow-start-0" viewBox="0 0 10 10" refX="4.5" refY="5" markerUnits="userSpaceOnUse" markerWidth="8" markerHeight="8" orient="auto"><path d="M 0 5 L 10 10 L 10 0 z" fill="#2F3B4D" stroke="#2F3B4D" stroke-width="1" stroke-dasharray="1,0"/></marker></defs><path d="M 549.852,229.425 L 541.763,280.000" fill="none" stroke="#2F3B4D" stroke-width="1"    stroke-linecap="round" stroke-linejoin="round" /><g transform="translate(549.85 229.42) rotate(99.09)"><path d="M 0 -6 L 0 6 M 5 -6 L 5 6" fill="none" stroke="#2F3B4D" stroke-width="1" stroke-linejoin="round" stroke-linecap="round"/></g><g transform="translate(541.76 280.00) rotate(99.09)"><g><circle cx="-4" cy="0" r="4" fill="none" stroke="#2F3B4D" stroke-width="1"/><path d="M 4 0 L 12 -6 M 4 0 L 12 6" fill="none" stroke="#2F3B4D" stroke-width="1" stroke-linejoin="round" stroke-linecap="round"/></g></g><rect x="518.84" y="240.71" width="53.93" height="28.00" rx="2" ry="2" fill="rgba(248,250,252, 0.92)" fill-opacity="0.85" stroke="#7B88A8" stroke-opacity="0.35" stroke-width="0.8"/><text x="545.81" y="258.71" text-anchor="middle" font-family="'trebuchet ms', verdana, arial, sans-serif" font-size="16" fill="#333333"><tspan x="545.81" dy="0.00">writes</tspan></text><path d="M 461.763,517.825 L 459.682,568.400" fill="none" stroke="#2F3B4D" stroke-width="1"    stroke-linecap="round" stroke-linejoin="round" /><g transform="translate(461.76 517.82) rotate(92.36)"><path d="M 0 -6 L 0 6 M 5 -6 L 5 6" fill="none" stroke="#2F3B4D" stroke-width="1" stroke-linejoin="round" stroke-linecap="round"/></g><g transform="translate(459.68 568.40) rotate(92.36)"><g><circle cx="-4" cy="0" r="4" fill="none" stroke="#2F3B4D" stroke-width="1"/><path d="M 4 0 L 12 -6 M 4 0 L 12 6" fill="none" stroke="#2F3B4D" stroke-width="1" stroke-linejoin="round" stroke-linecap="round"/></g></g><rect x="445.24" y="529.11" width="30.97" height="28.00" rx="2" ry="2" fill="rgba(248,250,252, 0.92)" fill-opacity="0.85" stroke="#7B88A8" stroke-opacity="0.35" stroke-width="0.8"/><text x="460.72" y="547.11" text-anchor="middle" font-family="'trebuchet ms', verdana, arial, sans-serif" font-size="16" fill="#333333"><tspan x="460.72" dy="0.00">has</tspan></text><path d="M 307.533,179.025L 320.046,179.025C332.558,179.025,357.583,179.025,372.095,179.025C386.608,179.025,390.608,179.025,392.608,181.025C394.608,183.025,394.608,187.025,394.608,250.677C394.608,314.329,394.608,437.633,394.608,500.529C394.608,563.425,394.608,565.912,393.364,567.156C392.120,568.400,389.632,568.400,387.145,568.400C384.657,568.400,382.170,568.400,380.926,568.400L 379.682,568.400" fill="none" stroke="#2F3B4D" stroke-width="1"    stroke-linecap="round" stroke-linejoin="round" /><g transform="translate(307.53 179.02) rotate(0.00)"><path d="M 0 -6 L 0 6 M 5 -6 L 5 6" fill="none" stroke="#2F3B4D" stroke-width="1" stroke-linejoin="round" stroke-linecap="round"/></g><g transform="translate(379.68 568.40) rotate(180.00)"><g><circle cx="-4" cy="0" r="4" fill="none" stroke="#2F3B4D" stroke-width="1"/><path d="M 4 0 L 12 -6 M 4 0 L 12 6" fill="none" stroke="#2F3B4D" stroke-width="1" stroke-linejoin="round" stroke-linecap="round"/></g></g><rect x="329.25" y="359.71" width="76.90" height="28.00" rx="2" ry="2" fill="rgba(248,250,252, 0.92)" fill-opacity="0.85" stroke="#7B88A8" stroke-opacity="0.35" stroke-width="0.8"/><text x="367.69" y="377.71" text-anchor="middle" font-family="'trebuchet ms', verdana, arial, sans-serif" font-size="16" fill="#333333"><tspan x="367.69" dy="0.00">&quot;used in&quot;</tspan></text><path d="M 589.763,517.825L 589.763,517.046C589.763,516.267,589.763,514.708,589.763,513.150C589.763,511.592,589.763,510.033,588.983,509.254C588.204,508.475,586.646,508.475,491.685,508.475C396.725,508.475,208.363,508.475,112.181,508.475C16.000,508.475,12.000,508.475,10.000,510.475C8.000,512.475,8.000,516.475,8.000,565.567C8.000,614.658,8.000,708.842,8.000,757.933C8.000,807.025,8.000,811.025,10.000,813.025C12.000,815.025,16.000,815.025,144.476,815.025C272.952,815.025,525.905,815.025,654.381,815.025C782.857,815.025,786.857,815.025,788.857,813.025C790.857,811.025,790.857,807.025,790.857,767.921C790.857,728.817,790.857,654.608,790.857,615.504C790.857,576.400,790.857,572.400,788.857,570.400C786.857,568.400,782.857,568.400,759.486,568.400C736.115,568.400,693.374,568.400,672.003,568.400L 650.632,568.400" fill="none" stroke="#2F3B4D" stroke-width="1"    stroke-linecap="round" stroke-linejoin="round" /><g transform="translate(589.76 517.82) rotate(-90.00)"><path d="M 0 -6 L 0 6 M 5 -6 L 5 6" fill="none" stroke="#2F3B4D" stroke-width="1" stroke-linejoin="round" stroke-linecap="round"/></g><g transform="translate(650.63 568.40) rotate(180.00)"><g><circle cx="-4" cy="0" r="4" fill="none" stroke="#2F3B4D" stroke-width="1"/><path d="M 4 0 L 12 -6 M 4 0 L 12 6" fill="none" stroke="#2F3B4D" stroke-width="1" stroke-linejoin="round" stroke-linecap="round"/></g></g><rect x="43.96" y="790.52" width="69.24" height="28.00" rx="2" ry="2" fill="rgba(248,250,252, 0.92)" fill-opacity="0.85" stroke="#7B88A8" stroke-opacity="0.35" stroke-width="0.8"/><text x="78.58" y="808.52" text-anchor="middle" font-family="'trebuchet ms', verdana, arial, sans-serif" font-size="16" fill="#333333"><tspan x="78.58" dy="0.00">receives</tspan></text><path d="M 138.720,103.425L 138.720,102.646C138.720,101.867,138.720,100.308,138.720,98.750C138.720,97.192,138.720,95.633,137.940,94.854C137.161,94.075,135.603,94.075,115.816,94.075C96.030,94.075,58.015,94.075,37.007,94.075C16.000,94.075,12.000,94.075,10.000,92.075C8.000,90.075,8.000,86.075,8.000,73.729C8.000,61.383,8.000,40.692,8.000,28.346C8.000,16.000,8.000,12.000,10.000,10.000C12.000,8.000,16.000,8.000,144.476,8.000C272.952,8.000,525.905,8.000,654.381,8.000C782.857,8.000,786.857,8.000,788.857,10.000C790.857,12.000,790.857,16.000,790.857,107.400C790.857,198.800,790.857,377.600,790.857,469.000C790.857,560.400,790.857,564.400,788.857,566.400C786.857,568.400,782.857,568.400,748.819,568.400C714.782,568.400,650.707,568.400,618.669,568.400L 586.632,568.400" fill="none" stroke="#2F3B4D" stroke-width="1"    stroke-linecap="round" stroke-linejoin="round" /><g transform="translate(138.72 103.42) rotate(-90.00)"><path d="M 0 -6 L 0 6 M 5 -6 L 5 6" fill="none" stroke="#2F3B4D" stroke-width="1" stroke-linejoin="round" stroke-linecap="round"/></g><g transform="translate(586.63 568.40) rotate(180.00)"><g><circle cx="-4" cy="0" r="4" fill="none" stroke="#2F3B4D" stroke-width="1"/><path d="M 4 0 L 12 -6 M 4 0 L 12 6" fill="none" stroke="#2F3B4D" stroke-width="1" stroke-linejoin="round" stroke-linecap="round"/></g></g><rect x="548.09" y="4.50" width="46.28" height="28.00" rx="2" ry="2" fill="rgba(248,250,252, 0.92)" fill-opacity="0.85" stroke="#7B88A8" stroke-opacity="0.35" stroke-width="0.8"/><text x="571.23" y="22.50" text-anchor="middle" font-family="'trebuchet ms', verdana, arial, sans-serif" font-size="16" fill="#333333"><tspan x="571.23" dy="0.00">posts</tspan></text><path d="M 106.720,103.425 L 272.259,280.000" fill="none" stroke="#2F3B4D" stroke-width="1"    stroke-linecap="round" stroke-linejoin="round" /><g transform="translate(106.72 103.42) rotate(46.85)"><path d="M 0 -6 L 0 6 M 5 -6 L 5 6" fill="none" stroke="#2F3B4D" stroke-width="1" stroke-linejoin="round" stroke-linecap="round"/></g><g transform="translate(272.26 280.00) rotate(46.85)"><g><circle cx="-4" cy="0" r="4" fill="none" stroke="#2F3B4D" stroke-width="1"/><path d="M 4 0 L 12 -6 M 4 0 L 12 6" fill="none" stroke="#2F3B4D" stroke-width="1" stroke-linejoin="round" stroke-linecap="round"/></g></g><rect x="172.04" y="204.20" width="84.55" height="28.00" rx="2" ry="2" fill="rgba(248,250,252, 0.92)" fill-opacity="0.85" stroke="#7B88A8" stroke-opacity="0.35" stroke-width="0.8"/><text x="214.32" y="222.20" text-anchor="middle" font-family="'trebuchet ms', verdana, arial, sans-serif" font-size="16" fill="#333333"><tspan x="214.32" dy="0.00">subscribes</tspan></text><path d="M 443.627,167.712 L 377.038,294.712" fill="none" stroke="#2F3B4D" stroke-width="1"    stroke-linecap="round" stroke-linejoin="round" /><g transform="translate(443.63 167.71) rotate(117.67)"><path d="M 0 -6 L 0 6 M 5 -6 L 5 6" fill="none" stroke="#2F3B4D" stroke-width="1" stroke-linejoin="round" stroke-linecap="round"/></g><g transform="translate(377.04 294.71) rotate(117.67)"><g><circle cx="-4" cy="0" r="4" fill="none" stroke="#2F3B4D" stroke-width="1"/><path d="M 4 0 L 12 -6 M 4 0 L 12 6" fill="none" stroke="#2F3B4D" stroke-width="1" stroke-linejoin="round" stroke-linecap="round"/></g></g><rect x="662.34" y="412.97" width="122.83" height="28.00" rx="2" ry="2" fill="rgba(248,250,252, 0.92)" fill-opacity="0.85" stroke="#7B88A8" stroke-opacity="0.35" stroke-width="0.8"/><text x="723.75" y="430.97" text-anchor="middle" font-family="'trebuchet ms', verdana, arial, sans-serif" font-size="16" fill="#333333"><tspan x="723.75" dy="0.00">&quot;subscribed to&quot;</tspan></text><rect x="419.54" y="280.00" width="212.45" height="237.82" rx="6.00" ry="6.00" fill="#FFFFFF" stroke="#7B88A8" stroke-width="1.2"/><rect x="419.54" y="280.00" width="212.45" height="33.60" rx="6.00" ry="6.00" fill="#FFFFDE"/><text x="525.76" y="300.80" text-anchor="middle" font-family="'trebuchet ms', verdana, arial, sans-serif" font-size="16" fill="#333333"><tspan x="525.76" dy="0.00">ARTICLE</tspan></text><line x1="419.54" y1="313.60" x2="631.99" y2="313.60" stroke="#AAAA33" stroke-width="1.0" stroke-opacity="0.6"/><line x1="558.31" y1="313.60" x2="558.31" y2="517.82" stroke="#AAAA33" stroke-width="1.0" stroke-opacity="0.45"/><rect x="432.34" y="318.40" width="27.00" height="14.40" rx="7.20" ry="7.20" fill="#1D4ED8"/><text x="445.84" y="329.76" text-anchor="middle" font-family="'trebuchet ms', verdana, arial, sans-serif" font-size="11.52" font-weight="600" fill="#FFFFFF">PK</text><text x="465.74" y="329.60" text-anchor="start" font-family="'trebuchet ms', verdana, arial, sans-serif" font-size="16" fill="#333333"><tspan x="465.74" dy="0.00">id</tspan></text><text x="619.19" y="329.60" text-anchor="end" font-family="'trebuchet ms', verdana, arial, sans-serif" font-size="16" fill="#2F3B4D"><tspan x="619.19" dy="0.00">int</tspan></text><line x1="419.54" y1="337.60" x2="631.99" y2="337.60" stroke="#AAAA33" stroke-width="1.0" stroke-opacity="0.35"/><rect x="432.34" y="342.40" width="26.47" height="14.40" rx="7.20" ry="7.20" fill="#0F766E"/><text x="445.57" y="353.76" text-anchor="middle" font-family="'trebuchet ms', verdana, arial, sans-serif" font-size="11.52" font-weight="600" fill="#FFFFFF">FK</text><text x="465.21" y="353.60" text-anchor="start" font-family="'trebuchet ms', verdana, arial, sans-serif" font-size="16" fill="#333333"><tspan x="465.21" dy="0.00">author_id</tspan></text><text x="619.19" y="353.60" text-anchor="end" font-family="'trebuchet ms', verdana, arial, sans-serif" font-size="16" fill="#2F3B4D"><tspan x="619.19" dy="0.00">int</tspan></text><line x1="419.54" y1="361.60" x2="631.99" y2="361.60" stroke="#AAAA33" stroke-width="1.0" stroke-opacity="0.35"/><text x="432.34" y="377.60" text-anchor="start" font-family="'trebuchet ms', verdana, arial, sans-serif" font-size="16" fill="#333333"><tspan x="432.34" dy="0.00">title</tspan></text><text x="619.19" y="377.60" text-anchor="end" font-family="'trebuchet ms', verdana, arial, sans-serif" font-size="16" fill="#2F3B4D"><tspan x="619.19" dy="0.00">string</tspan></text><line x1="419.54" y1="385.60" x2="631.99" y2="385.60" stroke="#AAAA33" stroke-width="1.0" stroke-opacity="0.35"/><text x="432.34" y="401.60" text-anchor="start" font-family="'trebuchet ms', verdana, arial, sans-serif" font-size="16" fill="#333333"><tspan x="432.34" dy="0.00">content</tspan></text><text x="619.19" y="401.60" text-anchor="end" font-family="'trebuchet ms', verdana, arial, sans-serif" font-size="16" fill="#2F3B4D"><tspan x="619.19" dy="0.00">text</tspan></text><line x1="419.54" y1="409.60" x2="631.99" y2="409.60" stroke="#AAAA33" stroke-width="1.0" stroke-opacity="0.35"/><text x="432.34" y="425.60" text-anchor="start" font-family="'trebuchet ms', verdana, arial, sans-serif" font-size="16" fill="#333333"><tspan x="432.34" dy="0.00">published_at</tspan></text><text x="619.19" y="425.60" text-anchor="end" font-family="'trebuchet ms', verdana, arial, sans-serif" font-size="16" fill="#2F3B4D"><tspan x="619.19" dy="0.00">date</tspan></text><line x1="419.54" y1="433.60" x2="631.99" y2="433.60" stroke="#AAAA33" stroke-width="1.0" stroke-opacity="0.35"/><text x="432.34" y="449.60" text-anchor="start" font-family="'trebuchet ms', verdana, arial, sans-serif" font-size="16" fill="#333333"><tspan x="432.34" dy="0.00">status</tspan></text><text x="619.19" y="449.60" text-anchor="end" font-family="'trebuchet ms', verdana, arial, sans-serif" font-size="16" fill="#2F3B4D"><tspan x="619.19" dy="0.00">string</tspan></text><rect x="443.63" y="42.00" width="212.45" height="187.42" rx="6.00" ry="6.00" fill="#FFFFFF" stroke="#7B88A8" stroke-width="1.2"/><rect x="443.63" y="42.00" width="212.45" height="33.60" rx="6.00" ry="6.00" fill="#FFFFDE"/><text x="549.85" y="62.80" text-anchor="middle" font-family="'trebuchet ms', verdana, arial, sans-serif" font-size="16" fill="#333333"><tspan x="549.85" dy="0.00">AUTHOR</tspan></text><line x1="443.63" y1="75.60" x2="656.08" y2="75.60" stroke="#AAAA33" stroke-width="1.0" stroke-opacity="0.6"/><line x1="582.40" y1="75.60" x2="582.40" y2="229.42" stroke="#AAAA33" stroke-width="1.0" stroke-opacity="0.45"/><rect x="456.43" y="80.40" width="27.00" height="14.40" rx="7.20" ry="7.20" fill="#1D4ED8"/><text x="469.93" y="91.76" text-anchor="middle" font-family="'trebuchet ms', verdana, arial, sans-serif" font-size="11.52" font-weight="600" fill="#FFFFFF">PK</text><text x="489.83" y="91.60" text-anchor="start" font-family="'trebuchet ms', verdana, arial, sans-serif" font-size="16" fill="#333333"><tspan x="489.83" dy="0.00">id</tspan></text><text x="643.28" y="91.60" text-anchor="end" font-family="'trebuchet ms', verdana, arial, sans-serif" font-size="16" fill="#2F3B4D"><tspan x="643.28" dy="0.00">int</tspan></text><line x1="443.63" y1="99.60" x2="656.08" y2="99.60" stroke="#AAAA33" stroke-width="1.0" stroke-opacity="0.35"/><text x="456.43" y="115.60" text-anchor="start" font-family="'trebuchet ms', verdana, arial, sans-serif" font-size="16" fill="#333333"><tspan x="456.43" dy="0.00">name</tspan></text><text x="643.28" y="115.60" text-anchor="end" font-family="'trebuchet ms', verdana, arial, sans-serif" font-size="16" fill="#2F3B4D"><tspan x="643.28" dy="0.00">string</tspan></text><line x1="443.63" y1="123.60" x2="656.08" y2="123.60" stroke="#AAAA33" stroke-width="1.0" stroke-opacity="0.35"/><text x="456.43" y="139.60" text-anchor="start" font-family="'trebuchet ms', verdana, arial, sans-serif" font-size="16" fill="#333333"><tspan x="456.43" dy="0.00">bio</tspan></text><text x="643.28" y="139.60" text-anchor="end" font-family="'trebuchet ms', verdana, arial, sans-serif" font-size="16" fill="#2F3B4D"><tspan x="643.28" dy="0.00">string</tspan></text><line x1="443.63" y1="147.60" x2="656.08" y2="147.60" stroke="#AAAA33" stroke-width="1.0" stroke-opacity="0.35"/><text x="456.43" y="163.60" text-anchor="start" font-family="'trebuchet ms', verdana, arial, sans-serif" font-size="16" fill="#333333"><tspan x="456.43" dy="0.00">avatar_url</tspan></text><text x="643.28" y="163.60" text-anchor="end" font-family="'trebuchet ms', verdana, arial, sans-serif" font-size="16" fill="#2F3B4D"><tspan x="643.28" dy="0.00">string</tspan></text><rect x="544.41" y="568.40" width="212.45" height="212.62" rx="6.00" ry="6.00" fill="#FFFFFF" stroke="#7B88A8" stroke-width="1.2"/><rect x="544.41" y="568.40" width="212.45" height="33.60" rx="6.00" ry="6.00" fill="#FFFFDE"/><text x="650.63" y="589.20" text-anchor="middle" font-family="'trebuchet ms', verdana, arial, sans-serif" font-size="16" fill="#333333"><tspan x="650.63" dy="0.00">COMMENT</tspan></text><line x1="544.41" y1="602.00" x2="756.86" y2="602.00" stroke="#AAAA33" stroke-width="1.0" stroke-opacity="0.6"/><line x1="689.72" y1="602.00" x2="689.72" y2="781.02" stroke="#AAAA33" stroke-width="1.0" stroke-opacity="0.45"/><rect x="557.21" y="606.80" width="27.00" height="14.40" rx="7.20" ry="7.20" fill="#1D4ED8"/><text x="570.71" y="618.16" text-anchor="middle" font-family="'trebuchet ms', verdana, arial, sans-serif" font-size="11.52" font-weight="600" fill="#FFFFFF">PK</text><text x="590.61" y="618.00" text-anchor="start" font-family="'trebuchet ms', verdana, arial, sans-serif" font-size="16" fill="#333333"><tspan x="590.61" dy="0.00">id</tspan></text><text x="744.06" y="618.00" text-anchor="end" font-family="'trebuchet ms', verdana, arial, sans-serif" font-size="16" fill="#2F3B4D"><tspan x="744.06" dy="0.00">int</tspan></text><line x1="544.41" y1="626.00" x2="756.86" y2="626.00" stroke="#AAAA33" stroke-width="1.0" stroke-opacity="0.35"/><rect x="557.21" y="630.80" width="26.47" height="14.40" rx="7.20" ry="7.20" fill="#0F766E"/><text x="570.44" y="642.16" text-anchor="middle" font-family="'trebuchet ms', verdana, arial, sans-serif" font-size="11.52" font-weight="600" fill="#FFFFFF">FK</text><text x="590.08" y="642.00" text-anchor="start" font-family="'trebuchet ms', verdana, arial, sans-serif" font-size="16" fill="#333333"><tspan x="590.08" dy="0.00">article_id</tspan></text><text x="744.06" y="642.00" text-anchor="end" font-family="'trebuchet ms', verdana, arial, sans-serif" font-size="16" fill="#2F3B4D"><tspan x="744.06" dy="0.00">int</tspan></text><line x1="544.41" y1="650.00" x2="756.86" y2="650.00" stroke="#AAAA33" stroke-width="1.0" stroke-opacity="0.35"/><rect x="557.21" y="654.80" width="26.47" height="14.40" rx="7.20" ry="7.20" fill="#0F766E"/><text x="570.44" y="666.16" text-anchor="middle" font-family="'trebuchet ms', verdana, arial, sans-serif" font-size="11.52" font-weight="600" fill="#FFFFFF">FK</text><text x="590.08" y="666.00" text-anchor="start" font-family="'trebuchet ms', verdana, arial, sans-serif" font-size="16" fill="#333333"><tspan x="590.08" dy="0.00">reader_id</tspan></text><text x="744.06" y="666.00" text-anchor="end" font-family="'trebuchet ms', verdana, arial, sans-serif" font-size="16" fill="#2F3B4D"><tspan x="744.06" dy="0.00">int</tspan></text><line x1="544.41" y1="674.00" x2="756.86" y2="674.00" stroke="#AAAA33" stroke-width="1.0" stroke-opacity="0.35"/><text x="557.21" y="690.00" text-anchor="start" font-family="'trebuchet ms', verdana, arial, sans-serif" font-size="16" fill="#333333"><tspan x="557.21" dy="0.00">body</tspan></text><text x="744.06" y="690.00" text-anchor="end" font-family="'trebuchet ms', verdana, arial, sans-serif" font-size="16" fill="#2F3B4D"><tspan x="744.06" dy="0.00">text</tspan></text><line x1="544.41" y1="698.00" x2="756.86" y2="698.00" stroke="#AAAA33" stroke-width="1.0" stroke-opacity="0.35"/><text x="557.21" y="714.00" text-anchor="start" font-family="'trebuchet ms', verdana, arial, sans-serif" font-size="16" fill="#333333"><tspan x="557.21" dy="0.00">created_at</tspan></text><text x="744.06" y="714.00" text-anchor="end" font-family="'trebuchet ms', verdana, arial, sans-serif" font-size="16" fill="#2F3B4D"><tspan x="744.06" dy="0.00">date</tspan></text><rect x="42.00" y="42.00" width="129.44" height="61.42" rx="6.00" ry="6.00" fill="#FFFFFF" stroke="#7B88A8" stroke-width="1.2"/><rect x="42.00" y="42.00" width="129.44" height="61.42" rx="6.00" ry="6.00" fill="#FFFFDE"/><text x="106.72" y="76.71" text-anchor="middle" font-family="'trebuchet ms', verdana, arial, sans-serif" font-size="16" fill="#333333"><tspan x="106.72" dy="0.00">READER</tspan></text><rect x="199.48" y="280.00" width="177.56" height="61.42" rx="6.00" ry="6.00" fill="#FFFFFF" stroke="#7B88A8" stroke-width="1.2"/><rect x="199.48" y="280.00" width="177.56" height="61.42" rx="6.00" ry="6.00" fill="#FFFFDE"/><text x="288.26" y="314.71" text-anchor="middle" font-family="'trebuchet ms', verdana, arial, sans-serif" font-size="16" fill="#333333"><tspan x="288.26" dy="0.00">SUBSCRIPTION</tspan></text><rect x="213.94" y="42.00" width="187.19" height="137.02" rx="6.00" ry="6.00" fill="#FFFFFF" stroke="#7B88A8" stroke-width="1.2"/><rect x="213.94" y="42.00" width="187.19" height="33.60" rx="6.00" ry="6.00" fill="#FFFFDE"/><text x="307.53" y="62.80" text-anchor="middle" font-family="'trebuchet ms', verdana, arial, sans-serif" font-size="16" fill="#333333"><tspan x="307.53" dy="0.00">TAG</tspan></text><line x1="213.94" y1="75.60" x2="401.13" y2="75.60" stroke="#AAAA33" stroke-width="1.0" stroke-opacity="0.6"/><line x1="327.45" y1="75.60" x2="327.45" y2="179.02" stroke="#AAAA33" stroke-width="1.0" stroke-opacity="0.45"/><rect x="226.74" y="80.40" width="27.00" height="14.40" rx="7.20" ry="7.20" fill="#1D4ED8"/><text x="240.24" y="91.76" text-anchor="middle" font-family="'trebuchet ms', verdana, arial, sans-serif" font-size="11.52" font-weight="600" fill="#FFFFFF">PK</text><text x="260.14" y="91.60" text-anchor="start" font-family="'trebuchet ms', verdana, arial, sans-serif" font-size="16" fill="#333333"><tspan x="260.14" dy="0.00">id</tspan></text><text x="388.33" y="91.60" text-anchor="end" font-family="'trebuchet ms', verdana, arial, sans-serif" font-size="16" fill="#2F3B4D"><tspan x="388.33" dy="0.00">int</tspan></text><line x1="213.94" y1="99.60" x2="401.13" y2="99.60" stroke="#AAAA33" stroke-width="1.0" stroke-opacity="0.35"/><rect x="226.74" y="104.40" width="27.52" height="14.40" rx="7.20" ry="7.20" fill="#7C3AED"/><text x="240.50" y="115.76" text-anchor="middle" font-family="'trebuchet ms', verdana, arial, sans-serif" font-size="11.52" font-weight="600" fill="#FFFFFF">UK</text><text x="260.66" y="115.60" text-anchor="start" font-family="'trebuchet ms', verdana, arial, sans-serif" font-size="16" fill="#333333"><tspan x="260.66" dy="0.00">name</tspan></text><text x="388.33" y="115.60" text-anchor="end" font-family="'trebuchet ms', verdana, arial, sans-serif" font-size="16" fill="#2F3B4D"><tspan x="388.33" dy="0.00">string</tspan></text><rect x="289.46" y="568.40" width="212.45" height="137.02" rx="6.00" ry="6.00" fill="#FFFFFF" stroke="#7B88A8" stroke-width="1.2"/><rect x="289.46" y="568.40" width="212.45" height="33.60" rx="6.00" ry="6.00" fill="#FFFFDE"/><text x="395.68" y="589.20" text-anchor="middle" font-family="'trebuchet ms', verdana, arial, sans-serif" font-size="16" fill="#333333"><tspan x="395.68" dy="0.00">TAG_MAP</tspan></text><line x1="289.46" y1="602.00" x2="501.91" y2="602.00" stroke="#AAAA33" stroke-width="1.0" stroke-opacity="0.6"/><line x1="444.31" y1="602.00" x2="444.31" y2="705.42" stroke="#AAAA33" stroke-width="1.0" stroke-opacity="0.45"/><rect x="302.26" y="606.80" width="26.47" height="14.40" rx="7.20" ry="7.20" fill="#0F766E"/><text x="315.49" y="618.16" text-anchor="middle" font-family="'trebuchet ms', verdana, arial, sans-serif" font-size="11.52" font-weight="600" fill="#FFFFFF">FK</text><text x="335.13" y="618.00" text-anchor="start" font-family="'trebuchet ms', verdana, arial, sans-serif" font-size="16" fill="#333333"><tspan x="335.13" dy="0.00">article_id</tspan></text><text x="489.11" y="618.00" text-anchor="end" font-family="'trebuchet ms', verdana, arial, sans-serif" font-size="16" fill="#2F3B4D"><tspan x="489.11" dy="0.00">int</tspan></text><line x1="289.46" y1="626.00" x2="501.91" y2="626.00" stroke="#AAAA33" stroke-width="1.0" stroke-opacity="0.35"/><rect x="302.26" y="630.80" width="26.47" height="14.40" rx="7.20" ry="7.20" fill="#0F766E"/><text x="315.49" y="642.16" text-anchor="middle" font-family="'trebuchet ms', verdana, arial, sans-serif" font-size="11.52" font-weight="600" fill="#FFFFFF">FK</text><text x="335.13" y="642.00" text-anchor="start" font-family="'trebuchet ms', verdana, arial, sans-serif" font-size="16" fill="#333333"><tspan x="335.13" dy="0.00">tag_id</tspan></text><text x="489.11" y="642.00" text-anchor="end" font-family="'trebuchet ms', verdana, arial, sans-serif" font-size="16" fill="#2F3B4D"><tspan x="489.11" dy="0.00">int</tspan></text></svg>