<svg xmlns="http://www.w3.org/2000/svg" width="725.085" height="752.27496" viewBox="0 0 725.085 752.27496"><rect x="0" y="0" width="725.085" height="752.27496" fill="#FFFFFF"/><defs><marker id="arrow-0" viewBox="0 0 10 10" refX="5" refY="5" markerUnits="userSpaceOnUse" markerWidth="8" markerHeight="8" orient="auto"><path d="M 0 0 L 10 5 L 0 10 z" fill="#2F3B4D" stroke="#2F3B4D" stroke-width="1" stroke-dasharray="1,0"/></marker><marker id="arrow-start-0" viewBox="0 0 10 10" refX="4.5" refY="5" markerUnits="userSpaceOnUse" markerWidth="8" markerHeight="8" orient="auto"><path d="M 0 5 L 10 10 L 10 0 z" fill="#2F3B4D" stroke="#2F3B4D" stroke-width="1" stroke-dasharray="1,0"/></marker></defs><path class="edgePath" d="M 510.852,195.425 L 503.174,244.625" fill="none" stroke="#2F3B4D" stroke-width="1"    stroke-linecap="round" stroke-linejoin="round" /><g transform="translate(510.85 195.42) rotate(98.87)"><path d="M 0 -6 L 0 6 M 5 -6 L 5 6" fill="none" stroke="#2F3B4D" stroke-width="1" stroke-linejoin="round" stroke-linecap="round"/></g><g transform="translate(503.17 244.62) rotate(98.87)"><g><circle cx="-4" cy="0" r="4" fill="none" stroke="#2F3B4D" stroke-width="1"/><path d="M 4 0 L 12 -6 M 4 0 L 12 6" fill="none" stroke="#2F3B4D" stroke-width="1" stroke-linejoin="round" stroke-linecap="round"/></g></g><rect x="480.05" y="206.02" width="53.93" height="28.00" rx="2" ry="2" fill="rgba(248,250,252, 0.92)" fill-opacity="0.85" stroke="#7B88A8" stroke-opacity="0.35" stroke-width="0.8"/><text x="507.01" y="224.02" text-anchor="middle" font-family="'trebuchet ms', verdana, arial, sans-serif" font-size="16" fill="#333333"><tspan x="507.01" dy="0.00">writes</tspan></text><path class="edgePath" d="M 423.174,482.450 L 422.410,531.650" fill="none" stroke="#2F3B4D" stroke-width="1"    stroke-linecap="round" stroke-linejoin="round" /><g transform="translate(423.17 482.45) rotate(90.89)"><path d="M 0 -6 L 0 6 M 5 -6 L 5 6" fill="none" stroke="#2F3B4D" stroke-width="1" stroke-linejoin="round" stroke-linecap="round"/></g><g transform="translate(422.41 531.65) rotate(90.89)"><g><circle cx="-4" cy="0" r="4" fill="none" stroke="#2F3B4D" stroke-width="1"/><path d="M 4 0 L 12 -6 M 4 0 L 12 6" fill="none" stroke="#2F3B4D" stroke-width="1" stroke-linejoin="round" stroke-linecap="round"/></g></g><rect x="315.13" y="446.31" width="30.97" height="28.00" rx="2" ry="2" fill="rgba(248,250,252, 0.92)" fill-opacity="0.85" stroke="#7B88A8" stroke-opacity="0.35" stroke-width="0.8"/><text x="330.61" y="464.31" text-anchor="middle" font-family="'trebuchet ms', verdana, arial, sans-serif" font-size="16" fill="#333333"><tspan x="330.61" dy="0.00">has</tspan></text><path class="edgePath" d="M 271.033,145.025 L 271.033,146.000 L 146.000,146.000 L 146.000,482.000 L 338.000,482.000 L 338.000,530.000 L 342.410,530.000 L 342.410,531.650" fill="none" stroke="#2F3B4D" stroke-width="1"    stroke-linecap="round" stroke-linejoin="round" /><g transform="translate(271.03 145.02) rotate(90.00)"><path d="M 0 -6 L 0 6 M 5 -6 L 5 6" fill="none" stroke="#2F3B4D" stroke-width="1" stroke-linejoin="round" stroke-linecap="round"/></g><g transform="translate(342.41 531.65) rotate(90.00)"><g><circle cx="-4" cy="0" r="4" fill="none" stroke="#2F3B4D" stroke-width="1"/><path d="M 4 0 L 12 -6 M 4 0 L 12 6" fill="none" stroke="#2F3B4D" stroke-width="1" stroke-linejoin="round" stroke-linecap="round"/></g></g><rect x="119.09" y="359.69" width="76.90" height="28.00" rx="2" ry="2" fill="rgba(248,250,252, 0.92)" fill-opacity="0.85" stroke="#7B88A8" stroke-opacity="0.35" stroke-width="0.8"/><text x="157.53" y="377.69" text-anchor="middle" font-family="'trebuchet ms', verdana, arial, sans-serif" font-size="16" fill="#333333"><tspan x="157.53" dy="0.00">&quot;used in&quot;</tspan></text><path class="edgePath" d="M 551.174,482.450 L 610.860,531.650" fill="none" stroke="#2F3B4D" stroke-width="1"    stroke-linecap="round" stroke-linejoin="round" /><g transform="translate(551.17 482.45) rotate(39.50)"><path d="M 0 -6 L 0 6 M 5 -6 L 5 6" fill="none" stroke="#2F3B4D" stroke-width="1" stroke-linejoin="round" stroke-linecap="round"/></g><g transform="translate(610.86 531.65) rotate(39.50)"><g><circle cx="-4" cy="0" r="4" fill="none" stroke="#2F3B4D" stroke-width="1"/><path d="M 4 0 L 12 -6 M 4 0 L 12 6" fill="none" stroke="#2F3B4D" stroke-width="1" stroke-linejoin="round" stroke-linecap="round"/></g></g><rect x="562.03" y="492.33" width="69.24" height="28.00" rx="2" ry="2" fill="rgba(248,250,252, 0.92)" fill-opacity="0.85" stroke="#7B88A8" stroke-opacity="0.35" stroke-width="0.8"/><text x="596.65" y="510.33" text-anchor="middle" font-family="'trebuchet ms', verdana, arial, sans-serif" font-size="16" fill="#333333"><tspan x="596.65" dy="0.00">receives</tspan></text><path class="edgePath" d="M 104.720,69.425 L 104.720,516.537 L 546.860,516.537 L 546.860,531.650" fill="none" stroke="#2F3B4D" stroke-width="1"    stroke-linecap="round" stroke-linejoin="round" /><g transform="translate(104.72 69.42) rotate(90.00)"><path d="M 0 -6 L 0 6 M 5 -6 L 5 6" fill="none" stroke="#2F3B4D" stroke-width="1" stroke-linejoin="round" stroke-linecap="round"/></g><g transform="translate(546.86 531.65) rotate(90.00)"><g><circle cx="-4" cy="0" r="4" fill="none" stroke="#2F3B4D" stroke-width="1"/><path d="M 4 0 L 12 -6 M 4 0 L 12 6" fill="none" stroke="#2F3B4D" stroke-width="1" stroke-linejoin="round" stroke-linecap="round"/></g></g><rect x="236.33" y="492.04" width="46.28" height="28.00" rx="2" ry="2" fill="rgba(248,250,252, 0.92)" fill-opacity="0.85" stroke="#7B88A8" stroke-opacity="0.35" stroke-width="0.8"/><text x="259.47" y="510.04" text-anchor="middle" font-family="'trebuchet ms', verdana, arial, sans-serif" font-size="16" fill="#333333"><tspan x="259.47" dy="0.00">posts</tspan></text><path class="edgePath" d="M 72.720,69.425 L 72.720,66.000 L 66.000,66.000 L 66.000,18.000 L 162.000,18.000 L 162.000,178.000 L 242.000,178.000 L 242.000,242.000 L 236.170,242.000 L 236.170,244.625" fill="none" stroke="#2F3B4D" stroke-width="1"    stroke-linecap="round" stroke-linejoin="round" /><g transform="translate(72.72 69.42) rotate(-90.00)"><path d="M 0 -6 L 0 6 M 5 -6 L 5 6" fill="none" stroke="#2F3B4D" stroke-width="1" stroke-linejoin="round" stroke-linecap="round"/></g><g transform="translate(236.17 244.62) rotate(90.00)"><g><circle cx="-4" cy="0" r="4" fill="none" stroke="#2F3B4D" stroke-width="1"/><path d="M 4 0 L 12 -6 M 4 0 L 12 6" fill="none" stroke="#2F3B4D" stroke-width="1" stroke-linejoin="round" stroke-linecap="round"/></g></g><rect x="170.46" y="152.64" width="84.55" height="28.00" rx="2" ry="2" fill="rgba(248,250,252, 0.92)" fill-opacity="0.85" stroke="#7B88A8" stroke-opacity="0.35" stroke-width="0.8"/><text x="212.73" y="170.64" text-anchor="middle" font-family="'trebuchet ms', verdana, arial, sans-serif" font-size="16" fill="#333333"><tspan x="212.73" dy="0.00">subscribes</tspan></text><path class="edgePath" d="M 404.627,133.712 L 340.949,259.337" fill="none" stroke="#2F3B4D" stroke-width="1"    stroke-linecap="round" stroke-linejoin="round" /><g transform="translate(404.63 133.71) rotate(116.88)"><path d="M 0 -6 L 0 6 M 5 -6 L 5 6" fill="none" stroke="#2F3B4D" stroke-width="1" stroke-linejoin="round" stroke-linecap="round"/></g><g transform="translate(340.95 259.34) rotate(116.88)"><g><circle cx="-4" cy="0" r="4" fill="none" stroke="#2F3B4D" stroke-width="1"/><path d="M 4 0 L 12 -6 M 4 0 L 12 6" fill="none" stroke="#2F3B4D" stroke-width="1" stroke-linejoin="round" stroke-linecap="round"/></g></g><rect x="298.97" y="207.01" width="122.83" height="28.00" rx="2" ry="2" fill="rgba(248,250,252, 0.92)" fill-opacity="0.85" stroke="#7B88A8" stroke-opacity="0.35" stroke-width="0.8"/><text x="360.38" y="225.01" text-anchor="middle" font-family="'trebuchet ms', verdana, arial, sans-serif" font-size="16" fill="#333333"><tspan x="360.38" dy="0.00">&quot;subscribed to&quot;</tspan></text><rect x="380.95" y="244.62" width="212.45" height="237.82" rx="6.00" ry="6.00" fill="#FFFFFF" stroke="#7B88A8" stroke-width="1.2"/><rect x="380.95" y="244.62" width="212.45" height="33.60" rx="6.00" ry="6.00" fill="#FFFFDE"/><text x="487.17" y="265.42" text-anchor="middle" font-family="'trebuchet ms', verdana, arial, sans-serif" font-size="16" fill="#333333"><tspan x="487.17" dy="0.00">ARTICLE</tspan></text><line x1="380.95" y1="278.23" x2="593.40" y2="278.23" stroke="#AAAA33" stroke-width="1.0" stroke-opacity="0.6"/><line x1="519.72" y1="278.23" x2="519.72" y2="482.45" stroke="#AAAA33" stroke-width="1.0" stroke-opacity="0.45"/><rect x="393.75" y="283.02" width="27.00" height="14.40" rx="7.20" ry="7.20" fill="#1D4ED8"/><text x="407.25" y="294.39" text-anchor="middle" font-family="'trebuchet ms', verdana, arial, sans-serif" font-size="11.52" font-weight="600" fill="#FFFFFF">PK</text><text x="427.15" y="294.23" text-anchor="start" font-family="'trebuchet ms', verdana, arial, sans-serif" font-size="16" fill="#333333"><tspan x="427.15" dy="0.00">id</tspan></text><text x="580.60" y="294.23" text-anchor="end" font-family="'trebuchet ms', verdana, arial, sans-serif" font-size="16" fill="#2F3B4D"><tspan x="580.60" dy="0.00">int</tspan></text><line x1="380.95" y1="302.23" x2="593.40" y2="302.23" stroke="#AAAA33" stroke-width="1.0" stroke-opacity="0.35"/><rect x="393.75" y="307.02" width="26.47" height="14.40" rx="7.20" ry="7.20" fill="#0F766E"/><text x="406.99" y="318.39" text-anchor="middle" font-family="'trebuchet ms', verdana, arial, sans-serif" font-size="11.52" font-weight="600" fill="#FFFFFF">FK</text><text x="426.62" y="318.23" text-anchor="start" font-family="'trebuchet ms', verdana, arial, sans-serif" font-size="16" fill="#333333"><tspan x="426.62" dy="0.00">author_id</tspan></text><text x="580.60" y="318.23" text-anchor="end" font-family="'trebuchet ms', verdana, arial, sans-serif" font-size="16" fill="#2F3B4D"><tspan x="580.60" dy="0.00">int</tspan></text><line x1="380.95" y1="326.23" x2="593.40" y2="326.23" stroke="#AAAA33" stroke-width="1.0" stroke-opacity="0.35"/><text x="393.75" y="342.23" text-anchor="start" font-family="'trebuchet ms', verdana, arial, sans-serif" font-size="16" fill="#333333"><tspan x="393.75" dy="0.00">title</tspan></text><text x="580.60" y="342.23" text-anchor="end" font-family="'trebuchet ms', verdana, arial, sans-serif" font-size="16" fill="#2F3B4D"><tspan x="580.60" dy="0.00">string</tspan></text><line x1="380.95" y1="350.23" x2="593.40" y2="350.23" stroke="#AAAA33" stroke-width="1.0" stroke-opacity="0.35"/><text x="393.75" y="366.23" text-anchor="start" font-family="'trebuchet ms', verdana, arial, sans-serif" font-size="16" fill="#333333"><tspan x="393.75" dy="0.00">content</tspan></text><text x="580.60" y="366.23" text-anchor="end" font-family="'trebuchet ms', verdana, arial, sans-serif" font-size="16" fill="#2F3B4D"><tspan x="580.60" dy="0.00">text</tspan></text><line x1="380.95" y1="374.23" x2="593.40" y2="374.23" stroke="#AAAA33" stroke-width="1.0" stroke-opacity="0.35"/><text x="393.75" y="390.23" text-anchor="start" font-family="'trebuchet ms', verdana, arial, sans-serif" font-size="16" fill="#333333"><tspan x="393.75" dy="0.00">published_at</tspan></text><text x="580.60" y="390.23" text-anchor="end" font-family="'trebuchet ms', verdana, arial, sans-serif" font-size="16" fill="#2F3B4D"><tspan x="580.60" dy="0.00">date</tspan></text><line x1="380.95" y1="398.23" x2="593.40" y2="398.23" stroke="#AAAA33" stroke-width="1.0" stroke-opacity="0.35"/><text x="393.75" y="414.23" text-anchor="start" font-family="'trebuchet ms', verdana, arial, sans-serif" font-size="16" fill="#333333"><tspan x="393.75" dy="0.00">status</tspan></text><text x="580.60" y="414.23" text-anchor="end" font-family="'trebuchet ms', verdana, arial, sans-serif" font-size="16" fill="#2F3B4D"><tspan x="580.60" dy="0.00">string</tspan></text><rect x="404.63" y="8.00" width="212.45" height="187.42" rx="6.00" ry="6.00" fill="#FFFFFF" stroke="#7B88A8" stroke-width="1.2"/><rect x="404.63" y="8.00" width="212.45" height="33.60" rx="6.00" ry="6.00" fill="#FFFFDE"/><text x="510.85" y="28.80" text-anchor="middle" font-family="'trebuchet ms', verdana, arial, sans-serif" font-size="16" fill="#333333"><tspan x="510.85" dy="0.00">AUTHOR</tspan></text><line x1="404.63" y1="41.60" x2="617.08" y2="41.60" stroke="#AAAA33" stroke-width="1.0" stroke-opacity="0.6"/><line x1="543.40" y1="41.60" x2="543.40" y2="195.42" stroke="#AAAA33" stroke-width="1.0" stroke-opacity="0.45"/><rect x="417.43" y="46.40" width="27.00" height="14.40" rx="7.20" ry="7.20" fill="#1D4ED8"/><text x="430.93" y="57.76" text-anchor="middle" font-family="'trebuchet ms', verdana, arial, sans-serif" font-size="11.52" font-weight="600" fill="#FFFFFF">PK</text><text x="450.83" y="57.60" text-anchor="start" font-family="'trebuchet ms', verdana, arial, sans-serif" font-size="16" fill="#333333"><tspan x="450.83" dy="0.00">id</tspan></text><text x="604.28" y="57.60" text-anchor="end" font-family="'trebuchet ms', verdana, arial, sans-serif" font-size="16" fill="#2F3B4D"><tspan x="604.28" dy="0.00">int</tspan></text><line x1="404.63" y1="65.60" x2="617.08" y2="65.60" stroke="#AAAA33" stroke-width="1.0" stroke-opacity="0.35"/><text x="417.43" y="81.60" text-anchor="start" font-family="'trebuchet ms', verdana, arial, sans-serif" font-size="16" fill="#333333"><tspan x="417.43" dy="0.00">name</tspan></text><text x="604.28" y="81.60" text-anchor="end" font-family="'trebuchet ms', verdana, arial, sans-serif" font-size="16" fill="#2F3B4D"><tspan x="604.28" dy="0.00">string</tspan></text><line x1="404.63" y1="89.60" x2="617.08" y2="89.60" stroke="#AAAA33" stroke-width="1.0" stroke-opacity="0.35"/><text x="417.43" y="105.60" text-anchor="start" font-family="'trebuchet ms', verdana, arial, sans-serif" font-size="16" fill="#333333"><tspan x="417.43" dy="0.00">bio</tspan></text><text x="604.28" y="105.60" text-anchor="end" font-family="'trebuchet ms', verdana, arial, sans-serif" font-size="16" fill="#2F3B4D"><tspan x="604.28" dy="0.00">string</tspan></text><line x1="404.63" y1="113.60" x2="617.08" y2="113.60" stroke="#AAAA33" stroke-width="1.0" stroke-opacity="0.35"/><text x="417.43" y="129.60" text-anchor="start" font-family="'trebuchet ms', verdana, arial, sans-serif" font-size="16" fill="#333333"><tspan x="417.43" dy="0.00">avatar_url</tspan></text><text x="604.28" y="129.60" text-anchor="end" font-family="'trebuchet ms', verdana, arial, sans-serif" font-size="16" fill="#2F3B4D"><tspan x="604.28" dy="0.00">string</tspan></text><rect x="504.64" y="531.65" width="212.45" height="212.62" rx="6.00" ry="6.00" fill="#FFFFFF" stroke="#7B88A8" stroke-width="1.2"/><rect x="504.64" y="531.65" width="212.45" height="33.60" rx="6.00" ry="6.00" fill="#FFFFDE"/><text x="610.86" y="552.45" text-anchor="middle" font-family="'trebuchet ms', verdana, arial, sans-serif" font-size="16" fill="#333333"><tspan x="610.86" dy="0.00">COMMENT</tspan></text><line x1="504.64" y1="565.25" x2="717.09" y2="565.25" stroke="#AAAA33" stroke-width="1.0" stroke-opacity="0.6"/><line x1="649.95" y1="565.25" x2="649.95" y2="744.27" stroke="#AAAA33" stroke-width="1.0" stroke-opacity="0.45"/><rect x="517.44" y="570.05" width="27.00" height="14.40" rx="7.20" ry="7.20" fill="#1D4ED8"/><text x="530.94" y="581.41" text-anchor="middle" font-family="'trebuchet ms', verdana, arial, sans-serif" font-size="11.52" font-weight="600" fill="#FFFFFF">PK</text><text x="550.84" y="581.25" text-anchor="start" font-family="'trebuchet ms', verdana, arial, sans-serif" font-size="16" fill="#333333"><tspan x="550.84" dy="0.00">id</tspan></text><text x="704.29" y="581.25" text-anchor="end" font-family="'trebuchet ms', verdana, arial, sans-serif" font-size="16" fill="#2F3B4D"><tspan x="704.29" dy="0.00">int</tspan></text><line x1="504.64" y1="589.25" x2="717.09" y2="589.25" stroke="#AAAA33" stroke-width="1.0" stroke-opacity="0.35"/><rect x="517.44" y="594.05" width="26.47" height="14.40" rx="7.20" ry="7.20" fill="#0F766E"/><text x="530.67" y="605.41" text-anchor="middle" font-family="'trebuchet ms', verdana, arial, sans-serif" font-size="11.52" font-weight="600" fill="#FFFFFF">FK</text><text x="550.31" y="605.25" text-anchor="start" font-family="'trebuchet ms', verdana, arial, sans-serif" font-size="16" fill="#333333"><tspan x="550.31" dy="0.00">article_id</tspan></text><text x="704.29" y="605.25" text-anchor="end" font-family="'trebuchet ms', verdana, arial, sans-serif" font-size="16" fill="#2F3B4D"><tspan x="704.29" dy="0.00">int</tspan></text><line x1="504.64" y1="613.25" x2="717.09" y2="613.25" stroke="#AAAA33" stroke-width="1.0" stroke-opacity="0.35"/><rect x="517.44" y="618.05" width="26.47" height="14.40" rx="7.20" ry="7.20" fill="#0F766E"/><text x="530.67" y="629.41" text-anchor="middle" font-family="'trebuchet ms', verdana, arial, sans-serif" font-size="11.52" font-weight="600" fill="#FFFFFF">FK</text><text x="550.31" y="629.25" text-anchor="start" font-family="'trebuchet ms', verdana, arial, sans-serif" font-size="16" fill="#333333"><tspan x="550.31" dy="0.00">reader_id</tspan></text><text x="704.29" y="629.25" text-anchor="end" font-family="'trebuchet ms', verdana, arial, sans-serif" font-size="16" fill="#2F3B4D"><tspan x="704.29" dy="0.00">int</tspan></text><line x1="504.64" y1="637.25" x2="717.09" y2="637.25" stroke="#AAAA33" stroke-width="1.0" stroke-opacity="0.35"/><text x="517.44" y="653.25" text-anchor="start" font-family="'trebuchet ms', verdana, arial, sans-serif" font-size="16" fill="#333333"><tspan x="517.44" dy="0.00">body</tspan></text><text x="704.29" y="653.25" text-anchor="end" font-family="'trebuchet ms', verdana, arial, sans-serif" font-size="16" fill="#2F3B4D"><tspan x="704.29" dy="0.00">text</tspan></text><line x1="504.64" y1="661.25" x2="717.09" y2="661.25" stroke="#AAAA33" stroke-width="1.0" stroke-opacity="0.35"/><text x="517.44" y="677.25" text-anchor="start" font-family="'trebuchet ms', verdana, arial, sans-serif" font-size="16" fill="#333333"><tspan x="517.44" dy="0.00">created_at</tspan></text><text x="704.29" y="677.25" text-anchor="end" font-family="'trebuchet ms', verdana, arial, sans-serif" font-size="16" fill="#2F3B4D"><tspan x="704.29" dy="0.00">date</tspan></text><rect x="8.00" y="8.00" width="129.44" height="61.42" rx="6.00" ry="6.00" fill="#FFFFFF" stroke="#7B88A8" stroke-width="1.2"/><rect x="8.00" y="8.00" width="129.44" height="61.42" rx="6.00" ry="6.00" fill="#FFFFDE"/><text x="72.72" y="42.71" text-anchor="middle" font-family="'trebuchet ms', verdana, arial, sans-serif" font-size="16" fill="#333333"><tspan x="72.72" dy="0.00">READER</tspan></text><rect x="163.39" y="244.62" width="177.56" height="61.42" rx="6.00" ry="6.00" fill="#FFFFFF" stroke="#7B88A8" stroke-width="1.2"/><rect x="163.39" y="244.62" width="177.56" height="61.42" rx="6.00" ry="6.00" fill="#FFFFDE"/><text x="252.17" y="279.34" text-anchor="middle" font-family="'trebuchet ms', verdana, arial, sans-serif" font-size="16" fill="#333333"><tspan x="252.17" dy="0.00">SUBSCRIPTION</tspan></text><rect x="177.44" y="8.00" width="187.19" height="137.02" rx="6.00" ry="6.00" fill="#FFFFFF" stroke="#7B88A8" stroke-width="1.2"/><rect x="177.44" y="8.00" width="187.19" height="33.60" rx="6.00" ry="6.00" fill="#FFFFDE"/><text x="271.03" y="28.80" text-anchor="middle" font-family="'trebuchet ms', verdana, arial, sans-serif" font-size="16" fill="#333333"><tspan x="271.03" dy="0.00">TAG</tspan></text><line x1="177.44" y1="41.60" x2="364.63" y2="41.60" stroke="#AAAA33" stroke-width="1.0" stroke-opacity="0.6"/><line x1="290.95" y1="41.60" x2="290.95" y2="145.02" stroke="#AAAA33" stroke-width="1.0" stroke-opacity="0.45"/><rect x="190.24" y="46.40" width="27.00" height="14.40" rx="7.20" ry="7.20" fill="#1D4ED8"/><text x="203.74" y="57.76" text-anchor="middle" font-family="'trebuchet ms', verdana, arial, sans-serif" font-size="11.52" font-weight="600" fill="#FFFFFF">PK</text><text x="223.64" y="57.60" text-anchor="start" font-family="'trebuchet ms', verdana, arial, sans-serif" font-size="16" fill="#333333"><tspan x="223.64" dy="0.00">id</tspan></text><text x="351.83" y="57.60" text-anchor="end" font-family="'trebuchet ms', verdana, arial, sans-serif" font-size="16" fill="#2F3B4D"><tspan x="351.83" dy="0.00">int</tspan></text><line x1="177.44" y1="65.60" x2="364.63" y2="65.60" stroke="#AAAA33" stroke-width="1.0" stroke-opacity="0.35"/><rect x="190.24" y="70.40" width="27.52" height="14.40" rx="7.20" ry="7.20" fill="#7C3AED"/><text x="204.00" y="81.76" text-anchor="middle" font-family="'trebuchet ms', verdana, arial, sans-serif" font-size="11.52" font-weight="600" fill="#FFFFFF">UK</text><text x="224.16" y="81.60" text-anchor="start" font-family="'trebuchet ms', verdana, arial, sans-serif" font-size="16" fill="#333333"><tspan x="224.16" dy="0.00">name</tspan></text><text x="351.83" y="81.60" text-anchor="end" font-family="'trebuchet ms', verdana, arial, sans-serif" font-size="16" fill="#2F3B4D"><tspan x="351.83" dy="0.00">string</tspan></text><rect x="252.19" y="531.65" width="212.45" height="137.02" rx="6.00" ry="6.00" fill="#FFFFFF" stroke="#7B88A8" stroke-width="1.2"/><rect x="252.19" y="531.65" width="212.45" height="33.60" rx="6.00" ry="6.00" fill="#FFFFDE"/><text x="358.41" y="552.45" text-anchor="middle" font-family="'trebuchet ms', verdana, arial, sans-serif" font-size="16" fill="#333333"><tspan x="358.41" dy="0.00">TAG_MAP</tspan></text><line x1="252.19" y1="565.25" x2="464.64" y2="565.25" stroke="#AAAA33" stroke-width="1.0" stroke-opacity="0.6"/><line x1="407.04" y1="565.25" x2="407.04" y2="668.67" stroke="#AAAA33" stroke-width="1.0" stroke-opacity="0.45"/><rect x="264.99" y="570.05" width="26.47" height="14.40" rx="7.20" ry="7.20" fill="#0F766E"/><text x="278.22" y="581.41" text-anchor="middle" font-family="'trebuchet ms', verdana, arial, sans-serif" font-size="11.52" font-weight="600" fill="#FFFFFF">FK</text><text x="297.86" y="581.25" text-anchor="start" font-family="'trebuchet ms', verdana, arial, sans-serif" font-size="16" fill="#333333"><tspan x="297.86" dy="0.00">article_id</tspan></text><text x="451.84" y="581.25" text-anchor="end" font-family="'trebuchet ms', verdana, arial, sans-serif" font-size="16" fill="#2F3B4D"><tspan x="451.84" dy="0.00">int</tspan></text><line x1="252.19" y1="589.25" x2="464.64" y2="589.25" stroke="#AAAA33" stroke-width="1.0" stroke-opacity="0.35"/><rect x="264.99" y="594.05" width="26.47" height="14.40" rx="7.20" ry="7.20" fill="#0F766E"/><text x="278.22" y="605.41" text-anchor="middle" font-family="'trebuchet ms', verdana, arial, sans-serif" font-size="11.52" font-weight="600" fill="#FFFFFF">FK</text><text x="297.86" y="605.25" text-anchor="start" font-family="'trebuchet ms', verdana, arial, sans-serif" font-size="16" fill="#333333"><tspan x="297.86" dy="0.00">tag_id</tspan></text><text x="451.84" y="605.25" text-anchor="end" font-family="'trebuchet ms', verdana, arial, sans-serif" font-size="16" fill="#2F3B4D"><tspan x="451.84" dy="0.00">int</tspan></text></svg>