<svg xmlns="http://www.w3.org/2000/svg" width="674.57733" height="847.375" viewBox="0 0 674.57733 847.375"><rect x="0" y="0" width="674.57733" height="847.375" fill="#FFFFFF"/><defs><marker id="arrow-0" viewBox="0 0 10 10" refX="5" refY="5" markerUnits="userSpaceOnUse" markerWidth="8" markerHeight="8" orient="auto"><path d="M 0 0 L 10 5 L 0 10 z" fill="#2F3B4D" stroke="#2F3B4D" stroke-width="1" stroke-dasharray="1,0"/></marker><marker id="arrow-start-0" viewBox="0 0 10 10" refX="4.5" refY="5" markerUnits="userSpaceOnUse" markerWidth="8" markerHeight="8" orient="auto"><path d="M 0 5 L 10 10 L 10 0 z" fill="#2F3B4D" stroke="#2F3B4D" stroke-width="1" stroke-dasharray="1,0"/></marker></defs><path d="M 528.352,224.925L 528.352,226.383C528.352,227.842,528.352,230.758,528.352,233.675C528.352,236.592,528.352,239.508,526.904,241.135C525.455,242.763,522.558,243.100,460.891,250.285C399.225,257.470,278.788,271.503,216.583,278.751C154.379,285.999,150.406,286.462,150.419,286.708C150.432,286.954,154.432,286.983,209.934,287.389C265.436,287.796,372.439,288.578,427.399,288.980C482.359,289.382,485.276,289.404,486.734,290.873C488.193,292.342,488.193,295.258,488.193,298.175C488.193,301.092,488.193,304.008,488.193,305.467L 488.193,306.925" fill="none" stroke="#2F3B4D" stroke-width="1"    stroke-linecap="round" stroke-linejoin="round" /><g transform="translate(528.35 224.92) rotate(90.00)"><path d="M 0 -6 L 0 6 M 5 -6 L 5 6" fill="none" stroke="#2F3B4D" stroke-width="1" stroke-linejoin="round" stroke-linecap="round"/></g><g transform="translate(488.19 306.92) rotate(90.00)"><g><circle cx="-4" cy="0" r="4" fill="none" stroke="#2F3B4D" stroke-width="1"/><path d="M 4 0 L 12 -6 M 4 0 L 12 6" fill="none" stroke="#2F3B4D" stroke-width="1" stroke-linejoin="round" stroke-linecap="round"/></g></g><rect x="119.47" y="272.92" width="53.93" height="28.00" rx="2" ry="2" fill="rgba(248,250,252, 0.92)" fill-opacity="0.85" stroke="#7B88A8" stroke-opacity="0.35" stroke-width="0.8"/><text x="146.43" y="290.92" text-anchor="middle" font-family="'trebuchet ms', verdana, arial, sans-serif" font-size="16" fill="#333333"><tspan x="146.43" dy="0.00">writes</tspan></text><path d="M 392.193,544.750L 392.193,546.208C392.193,547.667,392.193,550.583,392.193,553.500C392.193,556.417,392.193,559.333,390.776,561.140C389.360,562.946,386.528,563.643,358.305,570.582C330.083,577.521,276.470,590.703,247.721,597.771C218.972,604.840,215.088,605.795,215.144,606.351C215.201,606.906,219.198,607.062,228.404,607.422C237.610,607.782,252.025,608.345,260.690,608.684C269.355,609.022,272.269,609.136,273.727,610.651C275.184,612.167,275.184,615.083,275.184,618.000C275.184,620.917,275.184,623.833,275.184,625.292L 275.184,626.750" fill="none" stroke="#2F3B4D" stroke-width="1"    stroke-linecap="round" stroke-linejoin="round" /><g transform="translate(392.19 544.75) rotate(90.00)"><path d="M 0 -6 L 0 6 M 5 -6 L 5 6" fill="none" stroke="#2F3B4D" stroke-width="1" stroke-linejoin="round" stroke-linecap="round"/></g><g transform="translate(275.18 626.75) rotate(90.00)"><g><circle cx="-4" cy="0" r="4" fill="none" stroke="#2F3B4D" stroke-width="1"/><path d="M 4 0 L 12 -6 M 4 0 L 12 6" fill="none" stroke="#2F3B4D" stroke-width="1" stroke-linejoin="round" stroke-linecap="round"/></g></g><rect x="195.72" y="592.75" width="30.97" height="28.00" rx="2" ry="2" fill="rgba(248,250,252, 0.92)" fill-opacity="0.85" stroke="#7B88A8" stroke-opacity="0.35" stroke-width="0.8"/><text x="211.20" y="610.75" text-anchor="middle" font-family="'trebuchet ms', verdana, arial, sans-serif" font-size="16" fill="#333333"><tspan x="211.20" dy="0.00">has</tspan></text><path d="M 310.533,174.525L 310.533,178.649C310.533,182.772,310.533,191.019,310.533,195.265C310.533,199.511,310.533,199.756,310.656,199.878C310.778,200.000,311.022,200.000,311.144,200.000C311.267,200.000,311.267,200.000,311.389,200.000C311.511,200.000,311.756,200.000,311.878,199.878C312.000,199.756,312.000,199.511,312.000,169.511C312.000,139.511,312.000,79.756,312.000,47.878C312.000,16.000,312.000,12.000,310.000,10.000C308.000,8.000,304.000,8.000,255.333,8.000C206.667,8.000,113.333,8.000,64.667,8.000C16.000,8.000,12.000,8.000,11.322,9.500C10.645,11.001,13.290,14.002,52.942,58.989C92.593,103.976,169.252,190.949,208.904,235.936C248.556,280.923,251.201,283.924,251.326,287.027C251.452,290.129,249.058,293.334,209.280,346.578C169.503,399.821,92.343,503.104,52.565,556.347C12.788,609.591,10.394,612.795,11.197,614.398C12.000,616.000,16.000,616.000,48.968,616.000C81.936,616.000,143.873,616.000,175.737,616.000C207.601,616.000,209.392,616.000,210.288,616.896C211.184,617.792,211.184,619.583,211.184,621.375C211.184,623.167,211.184,624.958,211.184,625.854L 211.184,626.750" fill="none" stroke="#2F3B4D" stroke-width="1"    stroke-linecap="round" stroke-linejoin="round" /><g transform="translate(310.53 174.52) rotate(90.00)"><path d="M 0 -6 L 0 6 M 5 -6 L 5 6" fill="none" stroke="#2F3B4D" stroke-width="1" stroke-linejoin="round" stroke-linecap="round"/></g><g transform="translate(211.18 626.75) rotate(90.00)"><g><circle cx="-4" cy="0" r="4" fill="none" stroke="#2F3B4D" stroke-width="1"/><path d="M 4 0 L 12 -6 M 4 0 L 12 6" fill="none" stroke="#2F3B4D" stroke-width="1" stroke-linejoin="round" stroke-linecap="round"/></g></g><rect x="215.40" y="272.92" width="76.90" height="28.00" rx="2" ry="2" fill="rgba(248,250,252, 0.92)" fill-opacity="0.85" stroke="#7B88A8" stroke-opacity="0.35" stroke-width="0.8"/><text x="253.85" y="290.92" text-anchor="middle" font-family="'trebuchet ms', verdana, arial, sans-serif" font-size="16" fill="#333333"><tspan x="253.85" dy="0.00">&quot;used in&quot;</tspan></text><path d="M 472.193,544.750L 472.193,546.208C472.193,547.667,472.193,550.583,472.193,553.500C472.193,556.417,472.193,559.333,470.782,561.163C469.372,562.993,466.552,563.736,440.338,570.643C414.125,577.550,364.518,590.621,337.780,597.667C311.043,604.712,307.175,605.731,307.241,606.267C307.306,606.804,311.306,606.857,340.902,607.254C370.499,607.652,425.692,608.392,454.746,608.782C483.801,609.172,486.717,609.211,488.176,610.689C489.634,612.167,489.634,615.083,489.634,618.000C489.634,620.917,489.634,623.833,489.634,625.292L 489.634,626.750" fill="none" stroke="#2F3B4D" stroke-width="1"    stroke-linecap="round" stroke-linejoin="round" /><g transform="translate(472.19 544.75) rotate(90.00)"><path d="M 0 -6 L 0 6 M 5 -6 L 5 6" fill="none" stroke="#2F3B4D" stroke-width="1" stroke-linejoin="round" stroke-linecap="round"/></g><g transform="translate(489.63 626.75) rotate(90.00)"><g><circle cx="-4" cy="0" r="4" fill="none" stroke="#2F3B4D" stroke-width="1"/><path d="M 4 0 L 12 -6 M 4 0 L 12 6" fill="none" stroke="#2F3B4D" stroke-width="1" stroke-linejoin="round" stroke-linecap="round"/></g></g><rect x="268.69" y="592.75" width="69.24" height="28.00" rx="2" ry="2" fill="rgba(248,250,252, 0.92)" fill-opacity="0.85" stroke="#7B88A8" stroke-opacity="0.35" stroke-width="0.8"/><text x="303.31" y="610.75" text-anchor="middle" font-family="'trebuchet ms', verdana, arial, sans-serif" font-size="16" fill="#333333"><tspan x="303.31" dy="0.00">receives</tspan></text><path d="M 134.220,98.925L 134.220,102.289C134.220,105.653,134.220,112.382,134.220,115.894C134.220,119.407,134.220,119.703,134.368,119.852C134.516,120.000,134.813,120.000,134.961,120.000C135.110,120.000,135.110,120.000,135.258,120.000C135.407,120.000,135.703,120.000,135.852,120.148C136.000,120.297,136.000,120.593,136.000,145.260C136.000,169.927,136.000,218.963,136.000,245.482C136.000,272.000,136.000,276.000,138.000,278.000C140.000,280.000,144.000,280.000,174.000,280.000C204.000,280.000,260.000,280.000,290.000,280.000C320.000,280.000,324.000,280.000,324.001,280.051C324.001,280.101,320.003,280.202,276.390,281.306C232.778,282.410,149.552,284.515,105.939,285.619C62.327,286.723,58.328,286.824,57.645,288.380C56.962,289.937,59.595,292.948,103.890,343.622C148.186,394.295,234.144,492.630,278.439,543.303C322.735,593.977,325.367,596.988,328.684,598.494C332.000,600.000,336.000,600.000,350.667,600.000C365.333,600.000,390.667,600.000,404.667,600.000C418.667,600.000,421.333,600.000,422.667,601.333C424.000,602.667,424.000,605.333,424.000,607.864C424.000,610.394,424.000,612.789,424.000,614.122C424.000,615.455,424.000,615.728,424.136,615.864C424.272,616.000,424.545,616.000,424.681,616.000C424.817,616.000,424.817,616.000,424.953,616.000C425.089,616.000,425.361,616.000,425.498,616.136C425.634,616.272,425.634,616.545,425.634,618.336C425.634,620.128,425.634,623.439,425.634,625.094L 425.634,626.750" fill="none" stroke="#2F3B4D" stroke-width="1"    stroke-linecap="round" stroke-linejoin="round" /><g transform="translate(134.22 98.92) rotate(90.00)"><path d="M 0 -6 L 0 6 M 5 -6 L 5 6" fill="none" stroke="#2F3B4D" stroke-width="1" stroke-linejoin="round" stroke-linecap="round"/></g><g transform="translate(425.63 626.75) rotate(90.00)"><g><circle cx="-4" cy="0" r="4" fill="none" stroke="#2F3B4D" stroke-width="1"/><path d="M 4 0 L 12 -6 M 4 0 L 12 6" fill="none" stroke="#2F3B4D" stroke-width="1" stroke-linejoin="round" stroke-linecap="round"/></g></g><rect x="31.19" y="272.92" width="46.28" height="28.00" rx="2" ry="2" fill="rgba(248,250,252, 0.92)" fill-opacity="0.85" stroke="#7B88A8" stroke-opacity="0.35" stroke-width="0.8"/><text x="54.33" y="290.92" text-anchor="middle" font-family="'trebuchet ms', verdana, arial, sans-serif" font-size="16" fill="#333333"><tspan x="54.33" dy="0.00">posts</tspan></text><path d="M 102.220,98.925L 102.220,100.383C102.220,101.842,102.220,104.758,102.220,107.675C102.220,110.592,102.220,113.508,100.761,114.967C99.303,116.425,96.386,116.425,92.467,116.425C88.548,116.425,83.626,116.425,79.165,116.425C74.704,116.425,70.704,116.425,70.456,117.389C70.209,118.353,73.713,120.282,123.605,147.734C173.497,175.187,269.776,228.163,319.668,255.616C369.560,283.068,373.064,284.997,372.817,285.977C372.569,286.957,368.569,286.990,318.925,287.390C269.281,287.791,173.992,288.559,124.348,288.960C74.704,289.360,70.704,289.393,70.704,289.409C70.704,289.425,74.704,289.425,97.327,289.425C119.949,289.425,161.194,289.425,183.275,289.425C205.356,289.425,208.272,289.425,209.731,290.883C211.189,292.342,211.189,295.258,211.189,298.175C211.189,301.092,211.189,304.008,211.189,305.467L 211.189,306.925" fill="none" stroke="#2F3B4D" stroke-width="1"    stroke-linecap="round" stroke-linejoin="round" /><g transform="translate(102.22 98.92) rotate(90.00)"><path d="M 0 -6 L 0 6 M 5 -6 L 5 6" fill="none" stroke="#2F3B4D" stroke-width="1" stroke-linejoin="round" stroke-linecap="round"/></g><g transform="translate(211.19 306.92) rotate(90.00)"><g><circle cx="-4" cy="0" r="4" fill="none" stroke="#2F3B4D" stroke-width="1"/><path d="M 4 0 L 12 -6 M 4 0 L 12 6" fill="none" stroke="#2F3B4D" stroke-width="1" stroke-linejoin="round" stroke-linecap="round"/></g></g><rect x="334.29" y="272.92" width="84.55" height="28.00" rx="2" ry="2" fill="rgba(248,250,252, 0.92)" fill-opacity="0.85" stroke="#7B88A8" stroke-opacity="0.35" stroke-width="0.8"/><text x="376.57" y="290.92" text-anchor="middle" font-family="'trebuchet ms', verdana, arial, sans-serif" font-size="16" fill="#333333"><tspan x="376.57" dy="0.00">subscribes</tspan></text><path d="M 454.127,163.212L 452.669,163.213C451.211,163.212,448.294,163.212,445.377,163.213C442.461,163.212,439.544,163.212,438.086,164.671C436.627,166.129,436.627,169.046,436.627,185.248C436.627,201.450,436.627,230.938,436.627,247.681C436.627,264.425,436.627,268.425,434.627,270.425C432.627,272.425,428.627,272.425,410.767,272.425C392.907,272.425,361.188,272.425,343.328,272.425C325.468,272.425,321.468,272.425,321.463,272.566C321.458,272.707,325.448,272.990,357.584,275.265C389.721,277.541,450.004,281.809,482.141,284.085C514.277,286.360,518.267,286.642,518.290,287.118C518.314,287.593,514.370,288.262,481.676,293.804C448.982,299.345,387.538,309.760,355.379,315.211C323.219,320.663,320.343,321.150,317.447,321.394C314.551,321.637,311.634,321.637,308.718,321.637C305.801,321.637,302.884,321.637,301.426,321.637L 299.968,321.637" fill="none" stroke="#2F3B4D" stroke-width="1"    stroke-linecap="round" stroke-linejoin="round" /><g transform="translate(454.13 163.21) rotate(180.00)"><path d="M 0 -6 L 0 6 M 5 -6 L 5 6" fill="none" stroke="#2F3B4D" stroke-width="1" stroke-linejoin="round" stroke-linecap="round"/></g><g transform="translate(299.97 321.64) rotate(180.00)"><g><circle cx="-4" cy="0" r="4" fill="none" stroke="#2F3B4D" stroke-width="1"/><path d="M 4 0 L 12 -6 M 4 0 L 12 6" fill="none" stroke="#2F3B4D" stroke-width="1" stroke-linejoin="round" stroke-linecap="round"/></g></g><rect x="460.84" y="272.92" width="122.83" height="28.00" rx="2" ry="2" fill="rgba(248,250,252, 0.92)" fill-opacity="0.85" stroke="#7B88A8" stroke-opacity="0.35" stroke-width="0.8"/><text x="522.26" y="290.92" text-anchor="middle" font-family="'trebuchet ms', verdana, arial, sans-serif" font-size="16" fill="#333333"><tspan x="522.26" dy="0.00">&quot;subscribed to&quot;</tspan></text><rect x="349.97" y="306.92" width="212.45" height="237.82" rx="6.00" ry="6.00" fill="#FFFFFF" stroke="#7B88A8" stroke-width="1.2"/><rect x="349.97" y="306.92" width="212.45" height="33.60" rx="6.00" ry="6.00" fill="#FFFFDE"/><text x="456.19" y="327.72" text-anchor="middle" font-family="'trebuchet ms', verdana, arial, sans-serif" font-size="16" fill="#333333"><tspan x="456.19" dy="0.00">ARTICLE</tspan></text><line x1="349.97" y1="340.52" x2="562.42" y2="340.52" stroke="#AAAA33" stroke-width="1.0" stroke-opacity="0.6"/><line x1="488.74" y1="340.52" x2="488.74" y2="544.75" stroke="#AAAA33" stroke-width="1.0" stroke-opacity="0.45"/><rect x="362.77" y="345.32" width="27.00" height="14.40" rx="7.20" ry="7.20" fill="#1D4ED8"/><text x="376.27" y="356.68" text-anchor="middle" font-family="'trebuchet ms', verdana, arial, sans-serif" font-size="11.52" font-weight="600" fill="#FFFFFF">PK</text><text x="396.17" y="356.52" text-anchor="start" font-family="'trebuchet ms', verdana, arial, sans-serif" font-size="16" fill="#333333"><tspan x="396.17" dy="0.00">id</tspan></text><text x="549.62" y="356.52" text-anchor="end" font-family="'trebuchet ms', verdana, arial, sans-serif" font-size="16" fill="#2F3B4D"><tspan x="549.62" dy="0.00">int</tspan></text><line x1="349.97" y1="364.52" x2="562.42" y2="364.52" stroke="#AAAA33" stroke-width="1.0" stroke-opacity="0.35"/><rect x="362.77" y="369.32" width="26.47" height="14.40" rx="7.20" ry="7.20" fill="#0F766E"/><text x="376.00" y="380.68" text-anchor="middle" font-family="'trebuchet ms', verdana, arial, sans-serif" font-size="11.52" font-weight="600" fill="#FFFFFF">FK</text><text x="395.64" y="380.52" text-anchor="start" font-family="'trebuchet ms', verdana, arial, sans-serif" font-size="16" fill="#333333"><tspan x="395.64" dy="0.00">author_id</tspan></text><text x="549.62" y="380.52" text-anchor="end" font-family="'trebuchet ms', verdana, arial, sans-serif" font-size="16" fill="#2F3B4D"><tspan x="549.62" dy="0.00">int</tspan></text><line x1="349.97" y1="388.52" x2="562.42" y2="388.52" stroke="#AAAA33" stroke-width="1.0" stroke-opacity="0.35"/><text x="362.77" y="404.52" text-anchor="start" font-family="'trebuchet ms', verdana, arial, sans-serif" font-size="16" fill="#333333"><tspan x="362.77" dy="0.00">title</tspan></text><text x="549.62" y="404.52" text-anchor="end" font-family="'trebuchet ms', verdana, arial, sans-serif" font-size="16" fill="#2F3B4D"><tspan x="549.62" dy="0.00">string</tspan></text><line x1="349.97" y1="412.52" x2="562.42" y2="412.52" stroke="#AAAA33" stroke-width="1.0" stroke-opacity="0.35"/><text x="362.77" y="428.52" text-anchor="start" font-family="'trebuchet ms', verdana, arial, sans-serif" font-size="16" fill="#333333"><tspan x="362.77" dy="0.00">content</tspan></text><text x="549.62" y="428.52" text-anchor="end" font-family="'trebuchet ms', verdana, arial, sans-serif" font-size="16" fill="#2F3B4D"><tspan x="549.62" dy="0.00">text</tspan></text><line x1="349.97" y1="436.52" x2="562.42" y2="436.52" stroke="#AAAA33" stroke-width="1.0" stroke-opacity="0.35"/><text x="362.77" y="452.52" text-anchor="start" font-family="'trebuchet ms', verdana, arial, sans-serif" font-size="16" fill="#333333"><tspan x="362.77" dy="0.00">published_at</tspan></text><text x="549.62" y="452.52" text-anchor="end" font-family="'trebuchet ms', verdana, arial, sans-serif" font-size="16" fill="#2F3B4D"><tspan x="549.62" dy="0.00">date</tspan></text><line x1="349.97" y1="460.52" x2="562.42" y2="460.52" stroke="#AAAA33" stroke-width="1.0" stroke-opacity="0.35"/><text x="362.77" y="476.52" text-anchor="start" font-family="'trebuchet ms', verdana, arial, sans-serif" font-size="16" fill="#333333"><tspan x="362.77" dy="0.00">status</tspan></text><text x="549.62" y="476.52" text-anchor="end" font-family="'trebuchet ms', verdana, arial, sans-serif" font-size="16" fill="#2F3B4D"><tspan x="549.62" dy="0.00">string</tspan></text><rect x="454.13" y="37.50" width="212.45" height="187.42" rx="6.00" ry="6.00" fill="#FFFFFF" stroke="#7B88A8" stroke-width="1.2"/><rect x="454.13" y="37.50" width="212.45" height="33.60" rx="6.00" ry="6.00" fill="#FFFFDE"/><text x="560.35" y="58.30" text-anchor="middle" font-family="'trebuchet ms', verdana, arial, sans-serif" font-size="16" fill="#333333"><tspan x="560.35" dy="0.00">AUTHOR</tspan></text><line x1="454.13" y1="71.10" x2="666.58" y2="71.10" stroke="#AAAA33" stroke-width="1.0" stroke-opacity="0.6"/><line x1="592.90" y1="71.10" x2="592.90" y2="224.92" stroke="#AAAA33" stroke-width="1.0" stroke-opacity="0.45"/><rect x="466.93" y="75.90" width="27.00" height="14.40" rx="7.20" ry="7.20" fill="#1D4ED8"/><text x="480.43" y="87.26" text-anchor="middle" font-family="'trebuchet ms', verdana, arial, sans-serif" font-size="11.52" font-weight="600" fill="#FFFFFF">PK</text><text x="500.33" y="87.10" text-anchor="start" font-family="'trebuchet ms', verdana, arial, sans-serif" font-size="16" fill="#333333"><tspan x="500.33" dy="0.00">id</tspan></text><text x="653.78" y="87.10" text-anchor="end" font-family="'trebuchet ms', verdana, arial, sans-serif" font-size="16" fill="#2F3B4D"><tspan x="653.78" dy="0.00">int</tspan></text><line x1="454.13" y1="95.10" x2="666.58" y2="95.10" stroke="#AAAA33" stroke-width="1.0" stroke-opacity="0.35"/><text x="466.93" y="111.10" text-anchor="start" font-family="'trebuchet ms', verdana, arial, sans-serif" font-size="16" fill="#333333"><tspan x="466.93" dy="0.00">name</tspan></text><text x="653.78" y="111.10" text-anchor="end" font-family="'trebuchet ms', verdana, arial, sans-serif" font-size="16" fill="#2F3B4D"><tspan x="653.78" dy="0.00">string</tspan></text><line x1="454.13" y1="119.10" x2="666.58" y2="119.10" stroke="#AAAA33" stroke-width="1.0" stroke-opacity="0.35"/><text x="466.93" y="135.10" text-anchor="start" font-family="'trebuchet ms', verdana, arial, sans-serif" font-size="16" fill="#333333"><tspan x="466.93" dy="0.00">bio</tspan></text><text x="653.78" y="135.10" text-anchor="end" font-family="'trebuchet ms', verdana, arial, sans-serif" font-size="16" fill="#2F3B4D"><tspan x="653.78" dy="0.00">string</tspan></text><line x1="454.13" y1="143.10" x2="666.58" y2="143.10" stroke="#AAAA33" stroke-width="1.0" stroke-opacity="0.35"/><text x="466.93" y="159.10" text-anchor="start" font-family="'trebuchet ms', verdana, arial, sans-serif" font-size="16" fill="#333333"><tspan x="466.93" dy="0.00">avatar_url</tspan></text><text x="653.78" y="159.10" text-anchor="end" font-family="'trebuchet ms', verdana, arial, sans-serif" font-size="16" fill="#2F3B4D"><tspan x="653.78" dy="0.00">string</tspan></text><rect x="367.41" y="626.75" width="212.45" height="212.62" rx="6.00" ry="6.00" fill="#FFFFFF" stroke="#7B88A8" stroke-width="1.2"/><rect x="367.41" y="626.75" width="212.45" height="33.60" rx="6.00" ry="6.00" fill="#FFFFDE"/><text x="473.63" y="647.55" text-anchor="middle" font-family="'trebuchet ms', verdana, arial, sans-serif" font-size="16" fill="#333333"><tspan x="473.63" dy="0.00">COMMENT</tspan></text><line x1="367.41" y1="660.35" x2="579.86" y2="660.35" stroke="#AAAA33" stroke-width="1.0" stroke-opacity="0.6"/><line x1="512.72" y1="660.35" x2="512.72" y2="839.38" stroke="#AAAA33" stroke-width="1.0" stroke-opacity="0.45"/><rect x="380.21" y="665.15" width="27.00" height="14.40" rx="7.20" ry="7.20" fill="#1D4ED8"/><text x="393.71" y="676.51" text-anchor="middle" font-family="'trebuchet ms', verdana, arial, sans-serif" font-size="11.52" font-weight="600" fill="#FFFFFF">PK</text><text x="413.61" y="676.35" text-anchor="start" font-family="'trebuchet ms', verdana, arial, sans-serif" font-size="16" fill="#333333"><tspan x="413.61" dy="0.00">id</tspan></text><text x="567.06" y="676.35" text-anchor="end" font-family="'trebuchet ms', verdana, arial, sans-serif" font-size="16" fill="#2F3B4D"><tspan x="567.06" dy="0.00">int</tspan></text><line x1="367.41" y1="684.35" x2="579.86" y2="684.35" stroke="#AAAA33" stroke-width="1.0" stroke-opacity="0.35"/><rect x="380.21" y="689.15" width="26.47" height="14.40" rx="7.20" ry="7.20" fill="#0F766E"/><text x="393.45" y="700.51" text-anchor="middle" font-family="'trebuchet ms', verdana, arial, sans-serif" font-size="11.52" font-weight="600" fill="#FFFFFF">FK</text><text x="413.08" y="700.35" text-anchor="start" font-family="'trebuchet ms', verdana, arial, sans-serif" font-size="16" fill="#333333"><tspan x="413.08" dy="0.00">article_id</tspan></text><text x="567.06" y="700.35" text-anchor="end" font-family="'trebuchet ms', verdana, arial, sans-serif" font-size="16" fill="#2F3B4D"><tspan x="567.06" dy="0.00">int</tspan></text><line x1="367.41" y1="708.35" x2="579.86" y2="708.35" stroke="#AAAA33" stroke-width="1.0" stroke-opacity="0.35"/><rect x="380.21" y="713.15" width="26.47" height="14.40" rx="7.20" ry="7.20" fill="#0F766E"/><text x="393.45" y="724.51" text-anchor="middle" font-family="'trebuchet ms', verdana, arial, sans-serif" font-size="11.52" font-weight="600" fill="#FFFFFF">FK</text><text x="413.08" y="724.35" text-anchor="start" font-family="'trebuchet ms', verdana, arial, sans-serif" font-size="16" fill="#333333"><tspan x="413.08" dy="0.00">reader_id</tspan></text><text x="567.06" y="724.35" text-anchor="end" font-family="'trebuchet ms', verdana, arial, sans-serif" font-size="16" fill="#2F3B4D"><tspan x="567.06" dy="0.00">int</tspan></text><line x1="367.41" y1="732.35" x2="579.86" y2="732.35" stroke="#AAAA33" stroke-width="1.0" stroke-opacity="0.35"/><text x="380.21" y="748.35" text-anchor="start" font-family="'trebuchet ms', verdana, arial, sans-serif" font-size="16" fill="#333333"><tspan x="380.21" dy="0.00">body</tspan></text><text x="567.06" y="748.35" text-anchor="end" font-family="'trebuchet ms', verdana, arial, sans-serif" font-size="16" fill="#2F3B4D"><tspan x="567.06" dy="0.00">text</tspan></text><line x1="367.41" y1="756.35" x2="579.86" y2="756.35" stroke="#AAAA33" stroke-width="1.0" stroke-opacity="0.35"/><text x="380.21" y="772.35" text-anchor="start" font-family="'trebuchet ms', verdana, arial, sans-serif" font-size="16" fill="#333333"><tspan x="380.21" dy="0.00">created_at</tspan></text><text x="567.06" y="772.35" text-anchor="end" font-family="'trebuchet ms', verdana, arial, sans-serif" font-size="16" fill="#2F3B4D"><tspan x="567.06" dy="0.00">date</tspan></text><rect x="37.50" y="37.50" width="129.44" height="61.42" rx="6.00" ry="6.00" fill="#FFFFFF" stroke="#7B88A8" stroke-width="1.2"/><rect x="37.50" y="37.50" width="129.44" height="61.42" rx="6.00" ry="6.00" fill="#FFFFDE"/><text x="102.22" y="72.21" text-anchor="middle" font-family="'trebuchet ms', verdana, arial, sans-serif" font-size="16" fill="#333333"><tspan x="102.22" dy="0.00">READER</tspan></text><rect x="122.41" y="306.92" width="177.56" height="61.42" rx="6.00" ry="6.00" fill="#FFFFFF" stroke="#7B88A8" stroke-width="1.2"/><rect x="122.41" y="306.92" width="177.56" height="61.42" rx="6.00" ry="6.00" fill="#FFFFDE"/><text x="211.19" y="341.64" text-anchor="middle" font-family="'trebuchet ms', verdana, arial, sans-serif" font-size="16" fill="#333333"><tspan x="211.19" dy="0.00">SUBSCRIPTION</tspan></text><rect x="216.94" y="37.50" width="187.19" height="137.02" rx="6.00" ry="6.00" fill="#FFFFFF" stroke="#7B88A8" stroke-width="1.2"/><rect x="216.94" y="37.50" width="187.19" height="33.60" rx="6.00" ry="6.00" fill="#FFFFDE"/><text x="310.53" y="58.30" text-anchor="middle" font-family="'trebuchet ms', verdana, arial, sans-serif" font-size="16" fill="#333333"><tspan x="310.53" dy="0.00">TAG</tspan></text><line x1="216.94" y1="71.10" x2="404.13" y2="71.10" stroke="#AAAA33" stroke-width="1.0" stroke-opacity="0.6"/><line x1="330.45" y1="71.10" x2="330.45" y2="174.52" stroke="#AAAA33" stroke-width="1.0" stroke-opacity="0.45"/><rect x="229.74" y="75.90" width="27.00" height="14.40" rx="7.20" ry="7.20" fill="#1D4ED8"/><text x="243.24" y="87.26" text-anchor="middle" font-family="'trebuchet ms', verdana, arial, sans-serif" font-size="11.52" font-weight="600" fill="#FFFFFF">PK</text><text x="263.14" y="87.10" text-anchor="start" font-family="'trebuchet ms', verdana, arial, sans-serif" font-size="16" fill="#333333"><tspan x="263.14" dy="0.00">id</tspan></text><text x="391.33" y="87.10" text-anchor="end" font-family="'trebuchet ms', verdana, arial, sans-serif" font-size="16" fill="#2F3B4D"><tspan x="391.33" dy="0.00">int</tspan></text><line x1="216.94" y1="95.10" x2="404.13" y2="95.10" stroke="#AAAA33" stroke-width="1.0" stroke-opacity="0.35"/><rect x="229.74" y="99.90" width="27.52" height="14.40" rx="7.20" ry="7.20" fill="#7C3AED"/><text x="243.50" y="111.26" text-anchor="middle" font-family="'trebuchet ms', verdana, arial, sans-serif" font-size="11.52" font-weight="600" fill="#FFFFFF">UK</text><text x="263.66" y="111.10" text-anchor="start" font-family="'trebuchet ms', verdana, arial, sans-serif" font-size="16" fill="#333333"><tspan x="263.66" dy="0.00">name</tspan></text><text x="391.33" y="111.10" text-anchor="end" font-family="'trebuchet ms', verdana, arial, sans-serif" font-size="16" fill="#2F3B4D"><tspan x="391.33" dy="0.00">string</tspan></text><rect x="104.96" y="626.75" width="212.45" height="137.02" rx="6.00" ry="6.00" fill="#FFFFFF" stroke="#7B88A8" stroke-width="1.2"/><rect x="104.96" y="626.75" width="212.45" height="33.60" rx="6.00" ry="6.00" fill="#FFFFDE"/><text x="211.18" y="647.55" text-anchor="middle" font-family="'trebuchet ms', verdana, arial, sans-serif" font-size="16" fill="#333333"><tspan x="211.18" dy="0.00">TAG_MAP</tspan></text><line x1="104.96" y1="660.35" x2="317.41" y2="660.35" stroke="#AAAA33" stroke-width="1.0" stroke-opacity="0.6"/><line x1="259.81" y1="660.35" x2="259.81" y2="763.78" stroke="#AAAA33" stroke-width="1.0" stroke-opacity="0.45"/><rect x="117.76" y="665.15" width="26.47" height="14.40" rx="7.20" ry="7.20" fill="#0F766E"/><text x="131.00" y="676.51" text-anchor="middle" font-family="'trebuchet ms', verdana, arial, sans-serif" font-size="11.52" font-weight="600" fill="#FFFFFF">FK</text><text x="150.63" y="676.35" text-anchor="start" font-family="'trebuchet ms', verdana, arial, sans-serif" font-size="16" fill="#333333"><tspan x="150.63" dy="0.00">article_id</tspan></text><text x="304.61" y="676.35" text-anchor="end" font-family="'trebuchet ms', verdana, arial, sans-serif" font-size="16" fill="#2F3B4D"><tspan x="304.61" dy="0.00">int</tspan></text><line x1="104.96" y1="684.35" x2="317.41" y2="684.35" stroke="#AAAA33" stroke-width="1.0" stroke-opacity="0.35"/><rect x="117.76" y="689.15" width="26.47" height="14.40" rx="7.20" ry="7.20" fill="#0F766E"/><text x="131.00" y="700.51" text-anchor="middle" font-family="'trebuchet ms', verdana, arial, sans-serif" font-size="11.52" font-weight="600" fill="#FFFFFF">FK</text><text x="150.63" y="700.35" text-anchor="start" font-family="'trebuchet ms', verdana, arial, sans-serif" font-size="16" fill="#333333"><tspan x="150.63" dy="0.00">tag_id</tspan></text><text x="304.61" y="700.35" text-anchor="end" font-family="'trebuchet ms', verdana, arial, sans-serif" font-size="16" fill="#2F3B4D"><tspan x="304.61" dy="0.00">int</tspan></text></svg>