<svg xmlns="http://www.w3.org/2000/svg" width="663.64233" height="817.875" viewBox="0 0 663.64233 817.875"><rect x="0" y="0" width="663.64233" height="817.875" fill="#FFFFFF"/><defs><marker id="arrow-0" viewBox="0 0 10 10" refX="5" refY="5" markerUnits="userSpaceOnUse" markerWidth="8" markerHeight="8" orient="auto"><path d="M 0 0 L 10 5 L 0 10 z" fill="#2F3B4D" stroke="#2F3B4D" stroke-width="1" stroke-dasharray="1,0"/></marker><marker id="arrow-start-0" viewBox="0 0 10 10" refX="4.5" refY="5" markerUnits="userSpaceOnUse" markerWidth="8" markerHeight="8" orient="auto"><path d="M 0 5 L 10 10 L 10 0 z" fill="#2F3B4D" stroke="#2F3B4D" stroke-width="1" stroke-dasharray="1,0"/></marker></defs><path d="M 376.229,195.425L 376.229,196.883C376.229,198.342,376.229,201.258,376.229,204.175C376.229,207.092,376.229,210.008,376.521,212.895C376.814,215.783,377.398,218.640,378.708,225.045C380.017,231.449,382.053,241.401,383.362,247.805C384.672,254.210,385.257,257.067,385.549,259.955C385.841,262.842,385.841,265.758,385.841,268.675C385.841,271.592,385.841,274.508,385.841,275.967L 385.841,277.425" fill="none" stroke="#2F3B4D" stroke-width="1"    stroke-linecap="round" stroke-linejoin="round" /><g transform="translate(376.23 195.42) rotate(90.00)"><path d="M 0 -6 L 0 6 M 5 -6 L 5 6" fill="none" stroke="#2F3B4D" stroke-width="1" stroke-linejoin="round" stroke-linecap="round"/></g><g transform="translate(385.84 277.42) rotate(90.00)"><g><circle cx="-4" cy="0" r="4" fill="none" stroke="#2F3B4D" stroke-width="1"/><path d="M 4 0 L 12 -6 M 4 0 L 12 6" fill="none" stroke="#2F3B4D" stroke-width="1" stroke-linejoin="round" stroke-linecap="round"/></g></g><rect x="352.63" y="215.37" width="53.93" height="28.00" rx="2" ry="2" fill="rgba(248,250,252, 0.92)" fill-opacity="0.85" stroke="#7B88A8" stroke-opacity="0.35" stroke-width="0.8"/><text x="379.59" y="233.37" text-anchor="middle" font-family="'trebuchet ms', verdana, arial, sans-serif" font-size="16" fill="#333333"><tspan x="379.59" dy="0.00">writes</tspan></text><path d="M 449.841,515.250L 449.841,516.708C449.841,518.167,449.841,521.083,449.841,524.000C449.841,526.917,449.841,529.833,449.121,532.560C448.401,535.287,446.962,537.823,443.236,544.388C439.509,550.953,433.497,561.547,429.771,568.112C426.045,574.677,424.605,577.213,423.885,579.940C423.165,582.667,423.165,585.583,423.165,588.500C423.165,591.417,423.165,594.333,423.165,595.792L 423.165,597.250" fill="none" stroke="#2F3B4D" stroke-width="1"    stroke-linecap="round" stroke-linejoin="round" /><g transform="translate(449.84 515.25) rotate(90.00)"><path d="M 0 -6 L 0 6 M 5 -6 L 5 6" fill="none" stroke="#2F3B4D" stroke-width="1" stroke-linejoin="round" stroke-linecap="round"/></g><g transform="translate(423.17 597.25) rotate(90.00)"><g><circle cx="-4" cy="0" r="4" fill="none" stroke="#2F3B4D" stroke-width="1"/><path d="M 4 0 L 12 -6 M 4 0 L 12 6" fill="none" stroke="#2F3B4D" stroke-width="1" stroke-linejoin="round" stroke-linecap="round"/></g></g><rect x="421.02" y="542.25" width="30.97" height="28.00" rx="2" ry="2" fill="rgba(248,250,252, 0.92)" fill-opacity="0.85" stroke="#7B88A8" stroke-opacity="0.35" stroke-width="0.8"/><text x="436.50" y="560.25" text-anchor="middle" font-family="'trebuchet ms', verdana, arial, sans-serif" font-size="16" fill="#333333"><tspan x="436.50" dy="0.00">has</tspan></text><path d="M 562.048,145.025L 562.048,146.483C562.048,147.942,562.048,150.858,562.048,153.775C562.048,156.692,562.048,159.608,562.122,162.523C562.196,165.438,562.343,168.351,565.789,236.432C569.235,304.513,575.979,437.762,579.425,505.843C582.871,573.924,583.018,576.837,583.092,579.752C583.165,582.667,583.165,585.583,583.165,588.500C583.165,591.417,583.165,594.333,583.165,595.792L 583.165,597.250" fill="none" stroke="#2F3B4D" stroke-width="1"    stroke-linecap="round" stroke-linejoin="round" /><g transform="translate(562.05 145.02) rotate(90.00)"><path d="M 0 -6 L 0 6 M 5 -6 L 5 6" fill="none" stroke="#2F3B4D" stroke-width="1" stroke-linejoin="round" stroke-linecap="round"/></g><g transform="translate(583.17 597.25) rotate(90.00)"><g><circle cx="-4" cy="0" r="4" fill="none" stroke="#2F3B4D" stroke-width="1"/><path d="M 4 0 L 12 -6 M 4 0 L 12 6" fill="none" stroke="#2F3B4D" stroke-width="1" stroke-linejoin="round" stroke-linecap="round"/></g></g><rect x="534.16" y="357.14" width="76.90" height="28.00" rx="2" ry="2" fill="rgba(248,250,252, 0.92)" fill-opacity="0.85" stroke="#7B88A8" stroke-opacity="0.35" stroke-width="0.8"/><text x="572.61" y="375.14" text-anchor="middle" font-family="'trebuchet ms', verdana, arial, sans-serif" font-size="16" fill="#333333"><tspan x="572.61" dy="0.00">&quot;used in&quot;</tspan></text><path d="M 321.841,515.250L 321.841,516.708C321.841,518.167,321.841,521.083,321.841,524.000C321.841,526.917,321.841,529.833,321.342,532.662C320.842,535.490,319.844,538.231,317.489,544.694C315.134,551.157,311.422,561.343,309.068,567.806C306.713,574.269,305.714,577.010,305.215,579.838C304.715,582.667,304.715,585.583,304.715,588.500C304.715,591.417,304.715,594.333,304.715,595.792L 304.715,597.250" fill="none" stroke="#2F3B4D" stroke-width="1"    stroke-linecap="round" stroke-linejoin="round" /><g transform="translate(321.84 515.25) rotate(90.00)"><path d="M 0 -6 L 0 6 M 5 -6 L 5 6" fill="none" stroke="#2F3B4D" stroke-width="1" stroke-linejoin="round" stroke-linecap="round"/></g><g transform="translate(304.72 597.25) rotate(90.00)"><g><circle cx="-4" cy="0" r="4" fill="none" stroke="#2F3B4D" stroke-width="1"/><path d="M 4 0 L 12 -6 M 4 0 L 12 6" fill="none" stroke="#2F3B4D" stroke-width="1" stroke-linejoin="round" stroke-linecap="round"/></g></g><rect x="144.79" y="493.47" width="69.24" height="28.00" rx="2" ry="2" fill="rgba(248,250,252, 0.92)" fill-opacity="0.85" stroke="#7B88A8" stroke-opacity="0.35" stroke-width="0.8"/><text x="179.41" y="511.47" text-anchor="middle" font-family="'trebuchet ms', verdana, arial, sans-serif" font-size="16" fill="#333333"><tspan x="179.41" dy="0.00">receives</tspan></text><path d="M 139.285,69.425L 139.285,70.883C139.285,72.342,139.285,75.258,139.285,78.175C139.285,81.092,139.285,84.008,137.826,85.467C136.368,86.925,133.451,86.925,113.570,86.925C93.690,86.925,56.845,86.925,36.422,86.925C16.000,86.925,12.000,86.925,10.000,88.925C8.000,90.925,8.000,94.925,8.000,175.062C8.000,255.200,8.000,411.475,8.000,491.613C8.000,571.750,8.000,575.750,10.000,577.750C12.000,579.750,16.000,579.750,42.661,579.750C69.322,579.750,118.644,579.750,144.763,579.750C170.882,579.750,173.799,579.750,175.257,581.208C176.715,582.667,176.715,585.583,176.715,588.500C176.715,591.417,176.715,594.333,176.715,595.792L 176.715,597.250" fill="none" stroke="#2F3B4D" stroke-width="1"    stroke-linecap="round" stroke-linejoin="round" /><g transform="translate(139.28 69.42) rotate(90.00)"><path d="M 0 -6 L 0 6 M 5 -6 L 5 6" fill="none" stroke="#2F3B4D" stroke-width="1" stroke-linejoin="round" stroke-linecap="round"/></g><g transform="translate(176.72 597.25) rotate(90.00)"><g><circle cx="-4" cy="0" r="4" fill="none" stroke="#2F3B4D" stroke-width="1"/><path d="M 4 0 L 12 -6 M 4 0 L 12 6" fill="none" stroke="#2F3B4D" stroke-width="1" stroke-linejoin="round" stroke-linecap="round"/></g></g><rect x="13.83" y="456.98" width="46.28" height="28.00" rx="2" ry="2" fill="rgba(248,250,252, 0.92)" fill-opacity="0.85" stroke="#7B88A8" stroke-opacity="0.35" stroke-width="0.8"/><text x="36.97" y="474.98" text-anchor="middle" font-family="'trebuchet ms', verdana, arial, sans-serif" font-size="16" fill="#333333"><tspan x="36.97" dy="0.00">posts</tspan></text><path d="M 43.285,69.425L 43.285,70.883C43.285,72.342,43.285,75.258,43.285,78.175C43.285,81.092,43.285,84.008,43.686,86.869C44.088,89.729,44.891,92.533,52.748,119.964C60.605,147.396,75.517,199.454,83.374,226.886C91.231,254.317,92.034,257.121,92.436,259.981C92.837,262.842,92.837,265.758,92.837,268.675C92.837,271.592,92.837,274.508,92.837,275.967L 92.837,277.425" fill="none" stroke="#2F3B4D" stroke-width="1"    stroke-linecap="round" stroke-linejoin="round" /><g transform="translate(43.28 69.42) rotate(90.00)"><path d="M 0 -6 L 0 6 M 5 -6 L 5 6" fill="none" stroke="#2F3B4D" stroke-width="1" stroke-linejoin="round" stroke-linecap="round"/></g><g transform="translate(92.84 277.42) rotate(90.00)"><g><circle cx="-4" cy="0" r="4" fill="none" stroke="#2F3B4D" stroke-width="1"/><path d="M 4 0 L 12 -6 M 4 0 L 12 6" fill="none" stroke="#2F3B4D" stroke-width="1" stroke-linejoin="round" stroke-linecap="round"/></g></g><rect x="25.79" y="159.42" width="84.55" height="28.00" rx="2" ry="2" fill="rgba(248,250,252, 0.92)" fill-opacity="0.85" stroke="#7B88A8" stroke-opacity="0.35" stroke-width="0.8"/><text x="68.06" y="177.42" text-anchor="middle" font-family="'trebuchet ms', verdana, arial, sans-serif" font-size="16" fill="#333333"><tspan x="68.06" dy="0.00">subscribes</tspan></text><path d="M 248.229,195.425L 248.229,196.883C248.229,198.342,248.229,201.258,248.229,204.175C248.229,207.092,248.229,210.008,247.086,212.372C245.942,214.735,243.655,216.545,234.900,223.473C226.145,230.402,210.922,242.448,202.167,249.377C193.411,256.305,191.124,258.115,189.981,260.478C188.837,262.842,188.837,265.758,188.837,268.675C188.837,271.592,188.837,274.508,188.837,275.967L 188.837,277.425" fill="none" stroke="#2F3B4D" stroke-width="1"    stroke-linecap="round" stroke-linejoin="round" /><g transform="translate(248.23 195.42) rotate(90.00)"><path d="M 0 -6 L 0 6 M 5 -6 L 5 6" fill="none" stroke="#2F3B4D" stroke-width="1" stroke-linejoin="round" stroke-linecap="round"/></g><g transform="translate(188.84 277.42) rotate(90.00)"><g><circle cx="-4" cy="0" r="4" fill="none" stroke="#2F3B4D" stroke-width="1"/><path d="M 4 0 L 12 -6 M 4 0 L 12 6" fill="none" stroke="#2F3B4D" stroke-width="1" stroke-linejoin="round" stroke-linecap="round"/></g></g><rect x="157.12" y="222.42" width="122.83" height="28.00" rx="2" ry="2" fill="rgba(248,250,252, 0.92)" fill-opacity="0.85" stroke="#7B88A8" stroke-opacity="0.35" stroke-width="0.8"/><text x="218.53" y="240.42" text-anchor="middle" font-family="'trebuchet ms', verdana, arial, sans-serif" font-size="16" fill="#333333"><tspan x="218.53" dy="0.00">&quot;subscribed to&quot;</tspan></text><rect x="279.62" y="277.42" width="212.45" height="237.82" rx="6.00" ry="6.00" fill="#FFFFFF" stroke="#7B88A8" stroke-width="1.2"/><rect x="279.62" y="277.42" width="212.45" height="33.60" rx="6.00" ry="6.00" fill="#FFFFDE"/><text x="385.84" y="298.22" text-anchor="middle" font-family="'trebuchet ms', verdana, arial, sans-serif" font-size="16" fill="#333333"><tspan x="385.84" dy="0.00">ARTICLE</tspan></text><line x1="279.62" y1="311.02" x2="492.07" y2="311.02" stroke="#AAAA33" stroke-width="1.0" stroke-opacity="0.6"/><line x1="418.39" y1="311.02" x2="418.39" y2="515.25" stroke="#AAAA33" stroke-width="1.0" stroke-opacity="0.45"/><rect x="292.42" y="315.82" width="27.00" height="14.40" rx="7.20" ry="7.20" fill="#1D4ED8"/><text x="305.92" y="327.18" text-anchor="middle" font-family="'trebuchet ms', verdana, arial, sans-serif" font-size="11.52" font-weight="600" fill="#FFFFFF">PK</text><text x="325.82" y="327.02" text-anchor="start" font-family="'trebuchet ms', verdana, arial, sans-serif" font-size="16" fill="#333333"><tspan x="325.82" dy="0.00">id</tspan></text><text x="479.27" y="327.02" text-anchor="end" font-family="'trebuchet ms', verdana, arial, sans-serif" font-size="16" fill="#2F3B4D"><tspan x="479.27" dy="0.00">int</tspan></text><line x1="279.62" y1="335.02" x2="492.07" y2="335.02" stroke="#AAAA33" stroke-width="1.0" stroke-opacity="0.35"/><rect x="292.42" y="339.82" width="26.47" height="14.40" rx="7.20" ry="7.20" fill="#0F766E"/><text x="305.65" y="351.18" text-anchor="middle" font-family="'trebuchet ms', verdana, arial, sans-serif" font-size="11.52" font-weight="600" fill="#FFFFFF">FK</text><text x="325.29" y="351.02" text-anchor="start" font-family="'trebuchet ms', verdana, arial, sans-serif" font-size="16" fill="#333333"><tspan x="325.29" dy="0.00">author_id</tspan></text><text x="479.27" y="351.02" text-anchor="end" font-family="'trebuchet ms', verdana, arial, sans-serif" font-size="16" fill="#2F3B4D"><tspan x="479.27" dy="0.00">int</tspan></text><line x1="279.62" y1="359.02" x2="492.07" y2="359.02" stroke="#AAAA33" stroke-width="1.0" stroke-opacity="0.35"/><text x="292.42" y="375.02" text-anchor="start" font-family="'trebuchet ms', verdana, arial, sans-serif" font-size="16" fill="#333333"><tspan x="292.42" dy="0.00">title</tspan></text><text x="479.27" y="375.02" text-anchor="end" font-family="'trebuchet ms', verdana, arial, sans-serif" font-size="16" fill="#2F3B4D"><tspan x="479.27" dy="0.00">string</tspan></text><line x1="279.62" y1="383.02" x2="492.07" y2="383.02" stroke="#AAAA33" stroke-width="1.0" stroke-opacity="0.35"/><text x="292.42" y="399.02" text-anchor="start" font-family="'trebuchet ms', verdana, arial, sans-serif" font-size="16" fill="#333333"><tspan x="292.42" dy="0.00">content</tspan></text><text x="479.27" y="399.02" text-anchor="end" font-family="'trebuchet ms', verdana, arial, sans-serif" font-size="16" fill="#2F3B4D"><tspan x="479.27" dy="0.00">text</tspan></text><line x1="279.62" y1="407.02" x2="492.07" y2="407.02" stroke="#AAAA33" stroke-width="1.0" stroke-opacity="0.35"/><text x="292.42" y="423.02" text-anchor="start" font-family="'trebuchet ms', verdana, arial, sans-serif" font-size="16" fill="#333333"><tspan x="292.42" dy="0.00">published_at</tspan></text><text x="479.27" y="423.02" text-anchor="end" font-family="'trebuchet ms', verdana, arial, sans-serif" font-size="16" fill="#2F3B4D"><tspan x="479.27" dy="0.00">date</tspan></text><line x1="279.62" y1="431.02" x2="492.07" y2="431.02" stroke="#AAAA33" stroke-width="1.0" stroke-opacity="0.35"/><text x="292.42" y="447.02" text-anchor="start" font-family="'trebuchet ms', verdana, arial, sans-serif" font-size="16" fill="#333333"><tspan x="292.42" dy="0.00">status</tspan></text><text x="479.27" y="447.02" text-anchor="end" font-family="'trebuchet ms', verdana, arial, sans-serif" font-size="16" fill="#2F3B4D"><tspan x="479.27" dy="0.00">string</tspan></text><rect x="206.00" y="8.00" width="212.45" height="187.42" rx="6.00" ry="6.00" fill="#FFFFFF" stroke="#7B88A8" stroke-width="1.2"/><rect x="206.00" y="8.00" width="212.45" height="33.60" rx="6.00" ry="6.00" fill="#FFFFDE"/><text x="312.23" y="28.80" text-anchor="middle" font-family="'trebuchet ms', verdana, arial, sans-serif" font-size="16" fill="#333333"><tspan x="312.23" dy="0.00">AUTHOR</tspan></text><line x1="206.00" y1="41.60" x2="418.45" y2="41.60" stroke="#AAAA33" stroke-width="1.0" stroke-opacity="0.6"/><line x1="344.77" y1="41.60" x2="344.77" y2="195.42" stroke="#AAAA33" stroke-width="1.0" stroke-opacity="0.45"/><rect x="218.80" y="46.40" width="27.00" height="14.40" rx="7.20" ry="7.20" fill="#1D4ED8"/><text x="232.31" y="57.76" text-anchor="middle" font-family="'trebuchet ms', verdana, arial, sans-serif" font-size="11.52" font-weight="600" fill="#FFFFFF">PK</text><text x="252.21" y="57.60" text-anchor="start" font-family="'trebuchet ms', verdana, arial, sans-serif" font-size="16" fill="#333333"><tspan x="252.21" dy="0.00">id</tspan></text><text x="405.65" y="57.60" text-anchor="end" font-family="'trebuchet ms', verdana, arial, sans-serif" font-size="16" fill="#2F3B4D"><tspan x="405.65" dy="0.00">int</tspan></text><line x1="206.00" y1="65.60" x2="418.45" y2="65.60" stroke="#AAAA33" stroke-width="1.0" stroke-opacity="0.35"/><text x="218.80" y="81.60" text-anchor="start" font-family="'trebuchet ms', verdana, arial, sans-serif" font-size="16" fill="#333333"><tspan x="218.80" dy="0.00">name</tspan></text><text x="405.65" y="81.60" text-anchor="end" font-family="'trebuchet ms', verdana, arial, sans-serif" font-size="16" fill="#2F3B4D"><tspan x="405.65" dy="0.00">string</tspan></text><line x1="206.00" y1="89.60" x2="418.45" y2="89.60" stroke="#AAAA33" stroke-width="1.0" stroke-opacity="0.35"/><text x="218.80" y="105.60" text-anchor="start" font-family="'trebuchet ms', verdana, arial, sans-serif" font-size="16" fill="#333333"><tspan x="218.80" dy="0.00">bio</tspan></text><text x="405.65" y="105.60" text-anchor="end" font-family="'trebuchet ms', verdana, arial, sans-serif" font-size="16" fill="#2F3B4D"><tspan x="405.65" dy="0.00">string</tspan></text><line x1="206.00" y1="113.60" x2="418.45" y2="113.60" stroke="#AAAA33" stroke-width="1.0" stroke-opacity="0.35"/><text x="218.80" y="129.60" text-anchor="start" font-family="'trebuchet ms', verdana, arial, sans-serif" font-size="16" fill="#333333"><tspan x="218.80" dy="0.00">avatar_url</tspan></text><text x="405.65" y="129.60" text-anchor="end" font-family="'trebuchet ms', verdana, arial, sans-serif" font-size="16" fill="#2F3B4D"><tspan x="405.65" dy="0.00">string</tspan></text><rect x="134.49" y="597.25" width="212.45" height="212.62" rx="6.00" ry="6.00" fill="#FFFFFF" stroke="#7B88A8" stroke-width="1.2"/><rect x="134.49" y="597.25" width="212.45" height="33.60" rx="6.00" ry="6.00" fill="#FFFFDE"/><text x="240.72" y="618.05" text-anchor="middle" font-family="'trebuchet ms', verdana, arial, sans-serif" font-size="16" fill="#333333"><tspan x="240.72" dy="0.00">COMMENT</tspan></text><line x1="134.49" y1="630.85" x2="346.94" y2="630.85" stroke="#AAAA33" stroke-width="1.0" stroke-opacity="0.6"/><line x1="279.80" y1="630.85" x2="279.80" y2="809.88" stroke="#AAAA33" stroke-width="1.0" stroke-opacity="0.45"/><rect x="147.29" y="635.65" width="27.00" height="14.40" rx="7.20" ry="7.20" fill="#1D4ED8"/><text x="160.79" y="647.01" text-anchor="middle" font-family="'trebuchet ms', verdana, arial, sans-serif" font-size="11.52" font-weight="600" fill="#FFFFFF">PK</text><text x="180.69" y="646.85" text-anchor="start" font-family="'trebuchet ms', verdana, arial, sans-serif" font-size="16" fill="#333333"><tspan x="180.69" dy="0.00">id</tspan></text><text x="334.14" y="646.85" text-anchor="end" font-family="'trebuchet ms', verdana, arial, sans-serif" font-size="16" fill="#2F3B4D"><tspan x="334.14" dy="0.00">int</tspan></text><line x1="134.49" y1="654.85" x2="346.94" y2="654.85" stroke="#AAAA33" stroke-width="1.0" stroke-opacity="0.35"/><rect x="147.29" y="659.65" width="26.47" height="14.40" rx="7.20" ry="7.20" fill="#0F766E"/><text x="160.53" y="671.01" text-anchor="middle" font-family="'trebuchet ms', verdana, arial, sans-serif" font-size="11.52" font-weight="600" fill="#FFFFFF">FK</text><text x="180.16" y="670.85" text-anchor="start" font-family="'trebuchet ms', verdana, arial, sans-serif" font-size="16" fill="#333333"><tspan x="180.16" dy="0.00">article_id</tspan></text><text x="334.14" y="670.85" text-anchor="end" font-family="'trebuchet ms', verdana, arial, sans-serif" font-size="16" fill="#2F3B4D"><tspan x="334.14" dy="0.00">int</tspan></text><line x1="134.49" y1="678.85" x2="346.94" y2="678.85" stroke="#AAAA33" stroke-width="1.0" stroke-opacity="0.35"/><rect x="147.29" y="683.65" width="26.47" height="14.40" rx="7.20" ry="7.20" fill="#0F766E"/><text x="160.53" y="695.01" text-anchor="middle" font-family="'trebuchet ms', verdana, arial, sans-serif" font-size="11.52" font-weight="600" fill="#FFFFFF">FK</text><text x="180.16" y="694.85" text-anchor="start" font-family="'trebuchet ms', verdana, arial, sans-serif" font-size="16" fill="#333333"><tspan x="180.16" dy="0.00">reader_id</tspan></text><text x="334.14" y="694.85" text-anchor="end" font-family="'trebuchet ms', verdana, arial, sans-serif" font-size="16" fill="#2F3B4D"><tspan x="334.14" dy="0.00">int</tspan></text><line x1="134.49" y1="702.85" x2="346.94" y2="702.85" stroke="#AAAA33" stroke-width="1.0" stroke-opacity="0.35"/><text x="147.29" y="718.85" text-anchor="start" font-family="'trebuchet ms', verdana, arial, sans-serif" font-size="16" fill="#333333"><tspan x="147.29" dy="0.00">body</tspan></text><text x="334.14" y="718.85" text-anchor="end" font-family="'trebuchet ms', verdana, arial, sans-serif" font-size="16" fill="#2F3B4D"><tspan x="334.14" dy="0.00">text</tspan></text><line x1="134.49" y1="726.85" x2="346.94" y2="726.85" stroke="#AAAA33" stroke-width="1.0" stroke-opacity="0.35"/><text x="147.29" y="742.85" text-anchor="start" font-family="'trebuchet ms', verdana, arial, sans-serif" font-size="16" fill="#333333"><tspan x="147.29" dy="0.00">created_at</tspan></text><text x="334.14" y="742.85" text-anchor="end" font-family="'trebuchet ms', verdana, arial, sans-serif" font-size="16" fill="#2F3B4D"><tspan x="334.14" dy="0.00">date</tspan></text><rect x="26.56" y="8.00" width="129.44" height="61.42" rx="6.00" ry="6.00" fill="#FFFFFF" stroke="#7B88A8" stroke-width="1.2"/><rect x="26.56" y="8.00" width="129.44" height="61.42" rx="6.00" ry="6.00" fill="#FFFFDE"/><text x="91.28" y="42.71" text-anchor="middle" font-family="'trebuchet ms', verdana, arial, sans-serif" font-size="16" fill="#333333"><tspan x="91.28" dy="0.00">READER</tspan></text><rect x="52.06" y="277.42" width="177.56" height="61.42" rx="6.00" ry="6.00" fill="#FFFFFF" stroke="#7B88A8" stroke-width="1.2"/><rect x="52.06" y="277.42" width="177.56" height="61.42" rx="6.00" ry="6.00" fill="#FFFFDE"/><text x="140.84" y="312.14" text-anchor="middle" font-family="'trebuchet ms', verdana, arial, sans-serif" font-size="16" fill="#333333"><tspan x="140.84" dy="0.00">SUBSCRIPTION</tspan></text><rect x="468.45" y="8.00" width="187.19" height="137.02" rx="6.00" ry="6.00" fill="#FFFFFF" stroke="#7B88A8" stroke-width="1.2"/><rect x="468.45" y="8.00" width="187.19" height="33.60" rx="6.00" ry="6.00" fill="#FFFFDE"/><text x="562.05" y="28.80" text-anchor="middle" font-family="'trebuchet ms', verdana, arial, sans-serif" font-size="16" fill="#333333"><tspan x="562.05" dy="0.00">TAG</tspan></text><line x1="468.45" y1="41.60" x2="655.64" y2="41.60" stroke="#AAAA33" stroke-width="1.0" stroke-opacity="0.6"/><line x1="581.96" y1="41.60" x2="581.96" y2="145.02" stroke="#AAAA33" stroke-width="1.0" stroke-opacity="0.45"/><rect x="481.25" y="46.40" width="27.00" height="14.40" rx="7.20" ry="7.20" fill="#1D4ED8"/><text x="494.76" y="57.76" text-anchor="middle" font-family="'trebuchet ms', verdana, arial, sans-serif" font-size="11.52" font-weight="600" fill="#FFFFFF">PK</text><text x="514.66" y="57.60" text-anchor="start" font-family="'trebuchet ms', verdana, arial, sans-serif" font-size="16" fill="#333333"><tspan x="514.66" dy="0.00">id</tspan></text><text x="642.84" y="57.60" text-anchor="end" font-family="'trebuchet ms', verdana, arial, sans-serif" font-size="16" fill="#2F3B4D"><tspan x="642.84" dy="0.00">int</tspan></text><line x1="468.45" y1="65.60" x2="655.64" y2="65.60" stroke="#AAAA33" stroke-width="1.0" stroke-opacity="0.35"/><rect x="481.25" y="70.40" width="27.52" height="14.40" rx="7.20" ry="7.20" fill="#7C3AED"/><text x="495.01" y="81.76" text-anchor="middle" font-family="'trebuchet ms', verdana, arial, sans-serif" font-size="11.52" font-weight="600" fill="#FFFFFF">UK</text><text x="515.18" y="81.60" text-anchor="start" font-family="'trebuchet ms', verdana, arial, sans-serif" font-size="16" fill="#333333"><tspan x="515.18" dy="0.00">name</tspan></text><text x="642.84" y="81.60" text-anchor="end" font-family="'trebuchet ms', verdana, arial, sans-serif" font-size="16" fill="#2F3B4D"><tspan x="642.84" dy="0.00">string</tspan></text><rect x="396.94" y="597.25" width="212.45" height="137.02" rx="6.00" ry="6.00" fill="#FFFFFF" stroke="#7B88A8" stroke-width="1.2"/><rect x="396.94" y="597.25" width="212.45" height="33.60" rx="6.00" ry="6.00" fill="#FFFFDE"/><text x="503.17" y="618.05" text-anchor="middle" font-family="'trebuchet ms', verdana, arial, sans-serif" font-size="16" fill="#333333"><tspan x="503.17" dy="0.00">TAG_MAP</tspan></text><line x1="396.94" y1="630.85" x2="609.39" y2="630.85" stroke="#AAAA33" stroke-width="1.0" stroke-opacity="0.6"/><line x1="551.79" y1="630.85" x2="551.79" y2="734.28" stroke="#AAAA33" stroke-width="1.0" stroke-opacity="0.45"/><rect x="409.74" y="635.65" width="26.47" height="14.40" rx="7.20" ry="7.20" fill="#0F766E"/><text x="422.98" y="647.01" text-anchor="middle" font-family="'trebuchet ms', verdana, arial, sans-serif" font-size="11.52" font-weight="600" fill="#FFFFFF">FK</text><text x="442.61" y="646.85" text-anchor="start" font-family="'trebuchet ms', verdana, arial, sans-serif" font-size="16" fill="#333333"><tspan x="442.61" dy="0.00">article_id</tspan></text><text x="596.59" y="646.85" text-anchor="end" font-family="'trebuchet ms', verdana, arial, sans-serif" font-size="16" fill="#2F3B4D"><tspan x="596.59" dy="0.00">int</tspan></text><line x1="396.94" y1="654.85" x2="609.39" y2="654.85" stroke="#AAAA33" stroke-width="1.0" stroke-opacity="0.35"/><rect x="409.74" y="659.65" width="26.47" height="14.40" rx="7.20" ry="7.20" fill="#0F766E"/><text x="422.98" y="671.01" text-anchor="middle" font-family="'trebuchet ms', verdana, arial, sans-serif" font-size="11.52" font-weight="600" fill="#FFFFFF">FK</text><text x="442.61" y="670.85" text-anchor="start" font-family="'trebuchet ms', verdana, arial, sans-serif" font-size="16" fill="#333333"><tspan x="442.61" dy="0.00">tag_id</tspan></text><text x="596.59" y="670.85" text-anchor="end" font-family="'trebuchet ms', verdana, arial, sans-serif" font-size="16" fill="#2F3B4D"><tspan x="596.59" dy="0.00">int</tspan></text></svg>