<svg xmlns="http://www.w3.org/2000/svg" width="211.6088" height="372.05" viewBox="0 0 211.6088 372.05"><rect x="0" y="0" width="211.6088" height="372.05" fill="#FFFFFF"/><defs><marker id="arrow-0" viewBox="0 0 10 10" refX="5" refY="5" markerUnits="userSpaceOnUse" markerWidth="8" markerHeight="8" orient="auto"><path d="M 0 0 L 10 5 L 0 10 z" fill="#2F3B4D" stroke="#2F3B4D" stroke-width="1" stroke-dasharray="1,0"/></marker><marker id="arrow-start-0" viewBox="0 0 10 10" refX="4.5" refY="5" markerUnits="userSpaceOnUse" markerWidth="8" markerHeight="8" orient="auto"><path d="M 0 5 L 10 10 L 10 0 z" fill="#2F3B4D" stroke="#2F3B4D" stroke-width="1" stroke-dasharray="1,0"/></marker></defs><path d="M 92.796,145.025L 92.796,146.483C92.796,147.942,92.796,150.858,92.796,153.775C92.796,156.692,92.796,159.608,91.613,161.919C90.429,164.229,88.062,165.933,79.380,172.181C70.698,178.429,55.701,189.222,46.580,195.787C37.458,202.352,34.212,204.688,34.587,205.927C34.963,207.166,38.960,207.306,49.337,207.672C59.714,208.037,76.470,208.627,86.306,208.973C96.142,209.320,99.057,209.422,100.514,210.932C101.971,212.442,101.971,215.358,101.971,218.275C101.971,221.192,101.971,224.108,101.971,225.567L 101.971,227.025" fill="none" stroke="#2F3B4D" stroke-width="1"    stroke-linecap="round" stroke-linejoin="round" /><g transform="translate(92.80 145.02) rotate(90.00)"><path d="M 0 -6 L 0 6 M 5 -6 L 5 6" fill="none" stroke="#2F3B4D" stroke-width="1" stroke-linejoin="round" stroke-linecap="round"/></g><g transform="translate(101.97 227.02) rotate(90.00)"><g><circle cx="-4" cy="0" r="4" fill="none" stroke="#2F3B4D" stroke-width="1"/><path d="M 4 0 L 12 -6 M 4 0 L 12 6" fill="none" stroke="#2F3B4D" stroke-width="1" stroke-linejoin="round" stroke-linecap="round"/></g></g><rect x="4.00" y="193.02" width="53.93" height="28.00" rx="2" ry="2" fill="rgba(248,250,252, 0.92)" fill-opacity="0.85" stroke="#7B88A8" stroke-opacity="0.35" stroke-width="0.8"/><text x="30.97" y="211.02" text-anchor="middle" font-family="'trebuchet ms', verdana, arial, sans-serif" font-size="16" fill="#333333"><tspan x="30.97" dy="0.00">places</tspan></text><rect x="8.00" y="8.00" width="161.93" height="137.02" rx="6.00" ry="6.00" fill="#FFFFFF" stroke="#7B88A8" stroke-width="1.2"/><rect x="8.00" y="8.00" width="161.93" height="33.60" rx="6.00" ry="6.00" fill="#FFFFDE"/><text x="88.96" y="28.80" text-anchor="middle" font-family="'trebuchet ms', verdana, arial, sans-serif" font-size="16" fill="#333333"><tspan x="88.96" dy="0.00">CUSTOMER</tspan></text><line x1="8.00" y1="41.60" x2="169.93" y2="41.60" stroke="#AAAA33" stroke-width="1.0" stroke-opacity="0.6"/><line x1="96.25" y1="41.60" x2="96.25" y2="145.02" stroke="#AAAA33" stroke-width="1.0" stroke-opacity="0.45"/><text x="20.80" y="57.60" text-anchor="start" font-family="'trebuchet ms', verdana, arial, sans-serif" font-size="16" fill="#333333"><tspan x="20.80" dy="0.00">id</tspan></text><text x="157.13" y="57.60" text-anchor="end" font-family="'trebuchet ms', verdana, arial, sans-serif" font-size="16" fill="#2F3B4D"><tspan x="157.13" dy="0.00">string</tspan></text><line x1="8.00" y1="65.60" x2="169.93" y2="65.60" stroke="#AAAA33" stroke-width="1.0" stroke-opacity="0.35"/><text x="20.80" y="81.60" text-anchor="start" font-family="'trebuchet ms', verdana, arial, sans-serif" font-size="16" fill="#333333"><tspan x="20.80" dy="0.00">name</tspan></text><text x="157.13" y="81.60" text-anchor="end" font-family="'trebuchet ms', verdana, arial, sans-serif" font-size="16" fill="#2F3B4D"><tspan x="157.13" dy="0.00">string</tspan></text><rect x="8.00" y="227.02" width="195.61" height="137.02" rx="6.00" ry="6.00" fill="#FFFFFF" stroke="#7B88A8" stroke-width="1.2"/><rect x="8.00" y="227.02" width="195.61" height="33.60" rx="6.00" ry="6.00" fill="#FFFFDE"/><text x="105.80" y="247.82" text-anchor="middle" font-family="'trebuchet ms', verdana, arial, sans-serif" font-size="16" fill="#333333"><tspan x="105.80" dy="0.00">ORDER</tspan></text><line x1="8.00" y1="260.62" x2="203.61" y2="260.62" stroke="#AAAA33" stroke-width="1.0" stroke-opacity="0.6"/><line x1="129.93" y1="260.62" x2="129.93" y2="364.05" stroke="#AAAA33" stroke-width="1.0" stroke-opacity="0.45"/><text x="20.80" y="276.62" text-anchor="start" font-family="'trebuchet ms', verdana, arial, sans-serif" font-size="16" fill="#333333"><tspan x="20.80" dy="0.00">id</tspan></text><text x="190.81" y="276.62" text-anchor="end" font-family="'trebuchet ms', verdana, arial, sans-serif" font-size="16" fill="#2F3B4D"><tspan x="190.81" dy="0.00">string</tspan></text><line x1="8.00" y1="284.62" x2="203.61" y2="284.62" stroke="#AAAA33" stroke-width="1.0" stroke-opacity="0.35"/><text x="20.80" y="300.62" text-anchor="start" font-family="'trebuchet ms', verdana, arial, sans-serif" font-size="16" fill="#333333"><tspan x="20.80" dy="0.00">created_at</tspan></text><text x="190.81" y="300.62" text-anchor="end" font-family="'trebuchet ms', verdana, arial, sans-serif" font-size="16" fill="#2F3B4D"><tspan x="190.81" dy="0.00">date</tspan></text></svg>