<svg xmlns="http://www.w3.org/2000/svg" width="730.85693" height="755.02496" viewBox="0 0 730.85693 755.02496"><rect x="0" y="0" width="730.85693" height="755.02496" fill="#FFFFFF"/><defs><marker id="arrow-0" viewBox="0 0 10 10" refX="5" refY="5" markerUnits="userSpaceOnUse" markerWidth="8" markerHeight="8" orient="auto"><path d="M 0 0 L 10 5 L 0 10 z" fill="#2F3B4D" stroke="#2F3B4D" stroke-width="1" stroke-dasharray="1,0"/></marker><marker id="arrow-start-0" viewBox="0 0 10 10" refX="4.5" refY="5" markerUnits="userSpaceOnUse" markerWidth="8" markerHeight="8" orient="auto"><path d="M 0 5 L 10 10 L 10 0 z" fill="#2F3B4D" stroke="#2F3B4D" stroke-width="1" stroke-dasharray="1,0"/></marker></defs><path d="M 515.852,195.425 L 507.763,246.000" fill="none" stroke="#2F3B4D" stroke-width="1"    stroke-linecap="round" stroke-linejoin="round" /><g transform="translate(515.85 195.42) rotate(99.09)"><path d="M 0 -6 L 0 6 M 5 -6 L 5 6" fill="none" stroke="#2F3B4D" stroke-width="1" stroke-linejoin="round" stroke-linecap="round"/></g><g transform="translate(507.76 246.00) rotate(99.09)"><g><circle cx="-4" cy="0" r="4" fill="none" stroke="#2F3B4D" stroke-width="1"/><path d="M 4 0 L 12 -6 M 4 0 L 12 6" fill="none" stroke="#2F3B4D" stroke-width="1" stroke-linejoin="round" stroke-linecap="round"/></g></g><rect x="484.84" y="206.71" width="53.93" height="28.00" rx="2" ry="2" fill="rgba(248,250,252, 0.92)" fill-opacity="0.85" stroke="#7B88A8" stroke-opacity="0.35" stroke-width="0.8"/><text x="511.81" y="224.71" text-anchor="middle" font-family="'trebuchet ms', verdana, arial, sans-serif" font-size="16" fill="#333333"><tspan x="511.81" dy="0.00">writes</tspan></text><path d="M 427.763,483.825 L 425.682,534.400" fill="none" stroke="#2F3B4D" stroke-width="1"    stroke-linecap="round" stroke-linejoin="round" /><g transform="translate(427.76 483.82) rotate(92.36)"><path d="M 0 -6 L 0 6 M 5 -6 L 5 6" fill="none" stroke="#2F3B4D" stroke-width="1" stroke-linejoin="round" stroke-linecap="round"/></g><g transform="translate(425.68 534.40) rotate(92.36)"><g><circle cx="-4" cy="0" r="4" fill="none" stroke="#2F3B4D" stroke-width="1"/><path d="M 4 0 L 12 -6 M 4 0 L 12 6" fill="none" stroke="#2F3B4D" stroke-width="1" stroke-linejoin="round" stroke-linecap="round"/></g></g><rect x="319.51" y="464.76" width="30.97" height="28.00" rx="2" ry="2" fill="rgba(248,250,252, 0.92)" fill-opacity="0.85" stroke="#7B88A8" stroke-opacity="0.35" stroke-width="0.8"/><text x="335.00" y="482.76" text-anchor="middle" font-family="'trebuchet ms', verdana, arial, sans-serif" font-size="16" fill="#333333"><tspan x="335.00" dy="0.00">has</tspan></text><path d="M 273.533,145.025L 286.046,145.025C298.558,145.025,323.583,145.025,338.095,145.025C352.608,145.025,356.608,145.025,358.608,147.025C360.608,149.025,360.608,153.025,360.608,216.677C360.608,280.329,360.608,403.633,360.608,466.529C360.608,529.425,360.608,531.912,359.364,533.156C358.120,534.400,355.632,534.400,353.145,534.400C350.657,534.400,348.170,534.400,346.926,534.400L 345.682,534.400" fill="none" stroke="#2F3B4D" stroke-width="1"    stroke-linecap="round" stroke-linejoin="round" /><g transform="translate(273.53 145.02) rotate(0.00)"><path d="M 0 -6 L 0 6 M 5 -6 L 5 6" fill="none" stroke="#2F3B4D" stroke-width="1" stroke-linejoin="round" stroke-linecap="round"/></g><g transform="translate(345.68 534.40) rotate(180.00)"><g><circle cx="-4" cy="0" r="4" fill="none" stroke="#2F3B4D" stroke-width="1"/><path d="M 4 0 L 12 -6 M 4 0 L 12 6" fill="none" stroke="#2F3B4D" stroke-width="1" stroke-linejoin="round" stroke-linecap="round"/></g></g><rect x="295.25" y="325.71" width="76.90" height="28.00" rx="2" ry="2" fill="rgba(248,250,252, 0.92)" fill-opacity="0.85" stroke="#7B88A8" stroke-opacity="0.35" stroke-width="0.8"/><text x="333.69" y="343.71" text-anchor="middle" font-family="'trebuchet ms', verdana, arial, sans-serif" font-size="16" fill="#333333"><tspan x="333.69" dy="0.00">&quot;used in&quot;</tspan></text><path d="M 555.763,483.825 L 616.632,534.400" fill="none" stroke="#2F3B4D" stroke-width="1"    stroke-linecap="round" stroke-linejoin="round" /><g transform="translate(555.76 483.82) rotate(39.72)"><path d="M 0 -6 L 0 6 M 5 -6 L 5 6" fill="none" stroke="#2F3B4D" stroke-width="1" stroke-linejoin="round" stroke-linecap="round"/></g><g transform="translate(616.63 534.40) rotate(39.72)"><g><circle cx="-4" cy="0" r="4" fill="none" stroke="#2F3B4D" stroke-width="1"/><path d="M 4 0 L 12 -6 M 4 0 L 12 6" fill="none" stroke="#2F3B4D" stroke-width="1" stroke-linejoin="round" stroke-linecap="round"/></g></g><rect x="567.42" y="494.62" width="69.24" height="28.00" rx="2" ry="2" fill="rgba(248,250,252, 0.92)" fill-opacity="0.85" stroke="#7B88A8" stroke-opacity="0.35" stroke-width="0.8"/><text x="602.04" y="512.62" text-anchor="middle" font-family="'trebuchet ms', verdana, arial, sans-serif" font-size="16" fill="#333333"><tspan x="602.04" dy="0.00">receives</tspan></text><path d="M 104.720,69.425L 104.720,140.173C104.720,210.921,104.720,352.417,104.720,425.165C104.720,497.912,104.720,501.912,106.720,503.913C108.720,505.912,112.720,505.912,185.372,505.913C258.024,505.912,399.328,505.912,471.980,505.913C544.632,505.912,548.632,505.912,550.632,507.913C552.632,509.912,552.632,513.912,552.632,518.660C552.632,523.408,552.632,528.904,552.632,531.652L 552.632,534.400" fill="none" stroke="#2F3B4D" stroke-width="1"    stroke-linecap="round" stroke-linejoin="round" /><g transform="translate(104.72 69.42) rotate(90.00)"><path d="M 0 -6 L 0 6 M 5 -6 L 5 6" fill="none" stroke="#2F3B4D" stroke-width="1" stroke-linejoin="round" stroke-linecap="round"/></g><g transform="translate(552.63 534.40) rotate(90.00)"><g><circle cx="-4" cy="0" r="4" fill="none" stroke="#2F3B4D" stroke-width="1"/><path d="M 4 0 L 12 -6 M 4 0 L 12 6" fill="none" stroke="#2F3B4D" stroke-width="1" stroke-linejoin="round" stroke-linecap="round"/></g></g><rect x="238.35" y="491.91" width="46.28" height="28.00" rx="2" ry="2" fill="rgba(248,250,252, 0.92)" fill-opacity="0.85" stroke="#7B88A8" stroke-opacity="0.35" stroke-width="0.8"/><text x="261.49" y="509.91" text-anchor="middle" font-family="'trebuchet ms', verdana, arial, sans-serif" font-size="16" fill="#333333"><tspan x="261.49" dy="0.00">posts</tspan></text><path d="M 72.720,69.425 L 238.259,246.000" fill="none" stroke="#2F3B4D" stroke-width="1"    stroke-linecap="round" stroke-linejoin="round" /><g transform="translate(72.72 69.42) rotate(46.85)"><path d="M 0 -6 L 0 6 M 5 -6 L 5 6" fill="none" stroke="#2F3B4D" stroke-width="1" stroke-linejoin="round" stroke-linecap="round"/></g><g transform="translate(238.26 246.00) rotate(46.85)"><g><circle cx="-4" cy="0" r="4" fill="none" stroke="#2F3B4D" stroke-width="1"/><path d="M 4 0 L 12 -6 M 4 0 L 12 6" fill="none" stroke="#2F3B4D" stroke-width="1" stroke-linejoin="round" stroke-linecap="round"/></g></g><rect x="138.04" y="170.20" width="84.55" height="28.00" rx="2" ry="2" fill="rgba(248,250,252, 0.92)" fill-opacity="0.85" stroke="#7B88A8" stroke-opacity="0.35" stroke-width="0.8"/><text x="180.32" y="188.20" text-anchor="middle" font-family="'trebuchet ms', verdana, arial, sans-serif" font-size="16" fill="#333333"><tspan x="180.32" dy="0.00">subscribes</tspan></text><path d="M 409.627,133.712 L 343.038,260.712" fill="none" stroke="#2F3B4D" stroke-width="1"    stroke-linecap="round" stroke-linejoin="round" /><g transform="translate(409.63 133.71) rotate(117.67)"><path d="M 0 -6 L 0 6 M 5 -6 L 5 6" fill="none" stroke="#2F3B4D" stroke-width="1" stroke-linejoin="round" stroke-linecap="round"/></g><g transform="translate(343.04 260.71) rotate(117.67)"><g><circle cx="-4" cy="0" r="4" fill="none" stroke="#2F3B4D" stroke-width="1"/><path d="M 4 0 L 12 -6 M 4 0 L 12 6" fill="none" stroke="#2F3B4D" stroke-width="1" stroke-linejoin="round" stroke-linecap="round"/></g></g><rect x="606.04" y="421.49" width="122.83" height="28.00" rx="2" ry="2" fill="rgba(248,250,252, 0.92)" fill-opacity="0.85" stroke="#7B88A8" stroke-opacity="0.35" stroke-width="0.8"/><text x="667.45" y="439.49" text-anchor="middle" font-family="'trebuchet ms', verdana, arial, sans-serif" font-size="16" fill="#333333"><tspan x="667.45" dy="0.00">&quot;subscribed to&quot;</tspan></text><rect x="385.54" y="246.00" width="212.45" height="237.82" rx="6.00" ry="6.00" fill="#FFFFFF" stroke="#7B88A8" stroke-width="1.2"/><rect x="385.54" y="246.00" width="212.45" height="33.60" rx="6.00" ry="6.00" fill="#FFFFDE"/><text x="491.76" y="266.80" text-anchor="middle" font-family="'trebuchet ms', verdana, arial, sans-serif" font-size="16" fill="#333333"><tspan x="491.76" dy="0.00">ARTICLE</tspan></text><line x1="385.54" y1="279.60" x2="597.99" y2="279.60" stroke="#AAAA33" stroke-width="1.0" stroke-opacity="0.6"/><line x1="524.31" y1="279.60" x2="524.31" y2="483.82" stroke="#AAAA33" stroke-width="1.0" stroke-opacity="0.45"/><rect x="398.34" y="284.40" width="27.00" height="14.40" rx="7.20" ry="7.20" fill="#1D4ED8"/><text x="411.84" y="295.76" text-anchor="middle" font-family="'trebuchet ms', verdana, arial, sans-serif" font-size="11.52" font-weight="600" fill="#FFFFFF">PK</text><text x="431.74" y="295.60" text-anchor="start" font-family="'trebuchet ms', verdana, arial, sans-serif" font-size="16" fill="#333333"><tspan x="431.74" dy="0.00">id</tspan></text><text x="585.19" y="295.60" text-anchor="end" font-family="'trebuchet ms', verdana, arial, sans-serif" font-size="16" fill="#2F3B4D"><tspan x="585.19" dy="0.00">int</tspan></text><line x1="385.54" y1="303.60" x2="597.99" y2="303.60" stroke="#AAAA33" stroke-width="1.0" stroke-opacity="0.35"/><rect x="398.34" y="308.40" width="26.47" height="14.40" rx="7.20" ry="7.20" fill="#0F766E"/><text x="411.57" y="319.76" text-anchor="middle" font-family="'trebuchet ms', verdana, arial, sans-serif" font-size="11.52" font-weight="600" fill="#FFFFFF">FK</text><text x="431.21" y="319.60" text-anchor="start" font-family="'trebuchet ms', verdana, arial, sans-serif" font-size="16" fill="#333333"><tspan x="431.21" dy="0.00">author_id</tspan></text><text x="585.19" y="319.60" text-anchor="end" font-family="'trebuchet ms', verdana, arial, sans-serif" font-size="16" fill="#2F3B4D"><tspan x="585.19" dy="0.00">int</tspan></text><line x1="385.54" y1="327.60" x2="597.99" y2="327.60" stroke="#AAAA33" stroke-width="1.0" stroke-opacity="0.35"/><text x="398.34" y="343.60" text-anchor="start" font-family="'trebuchet ms', verdana, arial, sans-serif" font-size="16" fill="#333333"><tspan x="398.34" dy="0.00">title</tspan></text><text x="585.19" y="343.60" text-anchor="end" font-family="'trebuchet ms', verdana, arial, sans-serif" font-size="16" fill="#2F3B4D"><tspan x="585.19" dy="0.00">string</tspan></text><line x1="385.54" y1="351.60" x2="597.99" y2="351.60" stroke="#AAAA33" stroke-width="1.0" stroke-opacity="0.35"/><text x="398.34" y="367.60" text-anchor="start" font-family="'trebuchet ms', verdana, arial, sans-serif" font-size="16" fill="#333333"><tspan x="398.34" dy="0.00">content</tspan></text><text x="585.19" y="367.60" text-anchor="end" font-family="'trebuchet ms', verdana, arial, sans-serif" font-size="16" fill="#2F3B4D"><tspan x="585.19" dy="0.00">text</tspan></text><line x1="385.54" y1="375.60" x2="597.99" y2="375.60" stroke="#AAAA33" stroke-width="1.0" stroke-opacity="0.35"/><text x="398.34" y="391.60" text-anchor="start" font-family="'trebuchet ms', verdana, arial, sans-serif" font-size="16" fill="#333333"><tspan x="398.34" dy="0.00">published_at</tspan></text><text x="585.19" y="391.60" text-anchor="end" font-family="'trebuchet ms', verdana, arial, sans-serif" font-size="16" fill="#2F3B4D"><tspan x="585.19" dy="0.00">date</tspan></text><line x1="385.54" y1="399.60" x2="597.99" y2="399.60" stroke="#AAAA33" stroke-width="1.0" stroke-opacity="0.35"/><text x="398.34" y="415.60" text-anchor="start" font-family="'trebuchet ms', verdana, arial, sans-serif" font-size="16" fill="#333333"><tspan x="398.34" dy="0.00">status</tspan></text><text x="585.19" y="415.60" text-anchor="end" font-family="'trebuchet ms', verdana, arial, sans-serif" font-size="16" fill="#2F3B4D"><tspan x="585.19" dy="0.00">string</tspan></text><rect x="409.63" y="8.00" width="212.45" height="187.42" rx="6.00" ry="6.00" fill="#FFFFFF" stroke="#7B88A8" stroke-width="1.2"/><rect x="409.63" y="8.00" width="212.45" height="33.60" rx="6.00" ry="6.00" fill="#FFFFDE"/><text x="515.85" y="28.80" text-anchor="middle" font-family="'trebuchet ms', verdana, arial, sans-serif" font-size="16" fill="#333333"><tspan x="515.85" dy="0.00">AUTHOR</tspan></text><line x1="409.63" y1="41.60" x2="622.08" y2="41.60" stroke="#AAAA33" stroke-width="1.0" stroke-opacity="0.6"/><line x1="548.40" y1="41.60" x2="548.40" y2="195.42" stroke="#AAAA33" stroke-width="1.0" stroke-opacity="0.45"/><rect x="422.43" y="46.40" width="27.00" height="14.40" rx="7.20" ry="7.20" fill="#1D4ED8"/><text x="435.93" y="57.76" text-anchor="middle" font-family="'trebuchet ms', verdana, arial, sans-serif" font-size="11.52" font-weight="600" fill="#FFFFFF">PK</text><text x="455.83" y="57.60" text-anchor="start" font-family="'trebuchet ms', verdana, arial, sans-serif" font-size="16" fill="#333333"><tspan x="455.83" dy="0.00">id</tspan></text><text x="609.28" y="57.60" text-anchor="end" font-family="'trebuchet ms', verdana, arial, sans-serif" font-size="16" fill="#2F3B4D"><tspan x="609.28" dy="0.00">int</tspan></text><line x1="409.63" y1="65.60" x2="622.08" y2="65.60" stroke="#AAAA33" stroke-width="1.0" stroke-opacity="0.35"/><text x="422.43" y="81.60" text-anchor="start" font-family="'trebuchet ms', verdana, arial, sans-serif" font-size="16" fill="#333333"><tspan x="422.43" dy="0.00">name</tspan></text><text x="609.28" y="81.60" text-anchor="end" font-family="'trebuchet ms', verdana, arial, sans-serif" font-size="16" fill="#2F3B4D"><tspan x="609.28" dy="0.00">string</tspan></text><line x1="409.63" y1="89.60" x2="622.08" y2="89.60" stroke="#AAAA33" stroke-width="1.0" stroke-opacity="0.35"/><text x="422.43" y="105.60" text-anchor="start" font-family="'trebuchet ms', verdana, arial, sans-serif" font-size="16" fill="#333333"><tspan x="422.43" dy="0.00">bio</tspan></text><text x="609.28" y="105.60" text-anchor="end" font-family="'trebuchet ms', verdana, arial, sans-serif" font-size="16" fill="#2F3B4D"><tspan x="609.28" dy="0.00">string</tspan></text><line x1="409.63" y1="113.60" x2="622.08" y2="113.60" stroke="#AAAA33" stroke-width="1.0" stroke-opacity="0.35"/><text x="422.43" y="129.60" text-anchor="start" font-family="'trebuchet ms', verdana, arial, sans-serif" font-size="16" fill="#333333"><tspan x="422.43" dy="0.00">avatar_url</tspan></text><text x="609.28" y="129.60" text-anchor="end" font-family="'trebuchet ms', verdana, arial, sans-serif" font-size="16" fill="#2F3B4D"><tspan x="609.28" dy="0.00">string</tspan></text><rect x="510.41" y="534.40" width="212.45" height="212.62" rx="6.00" ry="6.00" fill="#FFFFFF" stroke="#7B88A8" stroke-width="1.2"/><rect x="510.41" y="534.40" width="212.45" height="33.60" rx="6.00" ry="6.00" fill="#FFFFDE"/><text x="616.63" y="555.20" text-anchor="middle" font-family="'trebuchet ms', verdana, arial, sans-serif" font-size="16" fill="#333333"><tspan x="616.63" dy="0.00">COMMENT</tspan></text><line x1="510.41" y1="568.00" x2="722.86" y2="568.00" stroke="#AAAA33" stroke-width="1.0" stroke-opacity="0.6"/><line x1="655.72" y1="568.00" x2="655.72" y2="747.02" stroke="#AAAA33" stroke-width="1.0" stroke-opacity="0.45"/><rect x="523.21" y="572.80" width="27.00" height="14.40" rx="7.20" ry="7.20" fill="#1D4ED8"/><text x="536.71" y="584.16" text-anchor="middle" font-family="'trebuchet ms', verdana, arial, sans-serif" font-size="11.52" font-weight="600" fill="#FFFFFF">PK</text><text x="556.61" y="584.00" text-anchor="start" font-family="'trebuchet ms', verdana, arial, sans-serif" font-size="16" fill="#333333"><tspan x="556.61" dy="0.00">id</tspan></text><text x="710.06" y="584.00" text-anchor="end" font-family="'trebuchet ms', verdana, arial, sans-serif" font-size="16" fill="#2F3B4D"><tspan x="710.06" dy="0.00">int</tspan></text><line x1="510.41" y1="592.00" x2="722.86" y2="592.00" stroke="#AAAA33" stroke-width="1.0" stroke-opacity="0.35"/><rect x="523.21" y="596.80" width="26.47" height="14.40" rx="7.20" ry="7.20" fill="#0F766E"/><text x="536.44" y="608.16" text-anchor="middle" font-family="'trebuchet ms', verdana, arial, sans-serif" font-size="11.52" font-weight="600" fill="#FFFFFF">FK</text><text x="556.08" y="608.00" text-anchor="start" font-family="'trebuchet ms', verdana, arial, sans-serif" font-size="16" fill="#333333"><tspan x="556.08" dy="0.00">article_id</tspan></text><text x="710.06" y="608.00" text-anchor="end" font-family="'trebuchet ms', verdana, arial, sans-serif" font-size="16" fill="#2F3B4D"><tspan x="710.06" dy="0.00">int</tspan></text><line x1="510.41" y1="616.00" x2="722.86" y2="616.00" stroke="#AAAA33" stroke-width="1.0" stroke-opacity="0.35"/><rect x="523.21" y="620.80" width="26.47" height="14.40" rx="7.20" ry="7.20" fill="#0F766E"/><text x="536.44" y="632.16" text-anchor="middle" font-family="'trebuchet ms', verdana, arial, sans-serif" font-size="11.52" font-weight="600" fill="#FFFFFF">FK</text><text x="556.08" y="632.00" text-anchor="start" font-family="'trebuchet ms', verdana, arial, sans-serif" font-size="16" fill="#333333"><tspan x="556.08" dy="0.00">reader_id</tspan></text><text x="710.06" y="632.00" text-anchor="end" font-family="'trebuchet ms', verdana, arial, sans-serif" font-size="16" fill="#2F3B4D"><tspan x="710.06" dy="0.00">int</tspan></text><line x1="510.41" y1="640.00" x2="722.86" y2="640.00" stroke="#AAAA33" stroke-width="1.0" stroke-opacity="0.35"/><text x="523.21" y="656.00" text-anchor="start" font-family="'trebuchet ms', verdana, arial, sans-serif" font-size="16" fill="#333333"><tspan x="523.21" dy="0.00">body</tspan></text><text x="710.06" y="656.00" text-anchor="end" font-family="'trebuchet ms', verdana, arial, sans-serif" font-size="16" fill="#2F3B4D"><tspan x="710.06" dy="0.00">text</tspan></text><line x1="510.41" y1="664.00" x2="722.86" y2="664.00" stroke="#AAAA33" stroke-width="1.0" stroke-opacity="0.35"/><text x="523.21" y="680.00" text-anchor="start" font-family="'trebuchet ms', verdana, arial, sans-serif" font-size="16" fill="#333333"><tspan x="523.21" dy="0.00">created_at</tspan></text><text x="710.06" y="680.00" text-anchor="end" font-family="'trebuchet ms', verdana, arial, sans-serif" font-size="16" fill="#2F3B4D"><tspan x="710.06" dy="0.00">date</tspan></text><rect x="8.00" y="8.00" width="129.44" height="61.42" rx="6.00" ry="6.00" fill="#FFFFFF" stroke="#7B88A8" stroke-width="1.2"/><rect x="8.00" y="8.00" width="129.44" height="61.42" rx="6.00" ry="6.00" fill="#FFFFDE"/><text x="72.72" y="42.71" text-anchor="middle" font-family="'trebuchet ms', verdana, arial, sans-serif" font-size="16" fill="#333333"><tspan x="72.72" dy="0.00">READER</tspan></text><rect x="165.48" y="246.00" width="177.56" height="61.42" rx="6.00" ry="6.00" fill="#FFFFFF" stroke="#7B88A8" stroke-width="1.2"/><rect x="165.48" y="246.00" width="177.56" height="61.42" rx="6.00" ry="6.00" fill="#FFFFDE"/><text x="254.26" y="280.71" text-anchor="middle" font-family="'trebuchet ms', verdana, arial, sans-serif" font-size="16" fill="#333333"><tspan x="254.26" dy="0.00">SUBSCRIPTION</tspan></text><rect x="179.94" y="8.00" width="187.19" height="137.02" rx="6.00" ry="6.00" fill="#FFFFFF" stroke="#7B88A8" stroke-width="1.2"/><rect x="179.94" y="8.00" width="187.19" height="33.60" rx="6.00" ry="6.00" fill="#FFFFDE"/><text x="273.53" y="28.80" text-anchor="middle" font-family="'trebuchet ms', verdana, arial, sans-serif" font-size="16" fill="#333333"><tspan x="273.53" dy="0.00">TAG</tspan></text><line x1="179.94" y1="41.60" x2="367.13" y2="41.60" stroke="#AAAA33" stroke-width="1.0" stroke-opacity="0.6"/><line x1="293.45" y1="41.60" x2="293.45" y2="145.02" stroke="#AAAA33" stroke-width="1.0" stroke-opacity="0.45"/><rect x="192.74" y="46.40" width="27.00" height="14.40" rx="7.20" ry="7.20" fill="#1D4ED8"/><text x="206.24" y="57.76" text-anchor="middle" font-family="'trebuchet ms', verdana, arial, sans-serif" font-size="11.52" font-weight="600" fill="#FFFFFF">PK</text><text x="226.14" y="57.60" text-anchor="start" font-family="'trebuchet ms', verdana, arial, sans-serif" font-size="16" fill="#333333"><tspan x="226.14" dy="0.00">id</tspan></text><text x="354.33" y="57.60" text-anchor="end" font-family="'trebuchet ms', verdana, arial, sans-serif" font-size="16" fill="#2F3B4D"><tspan x="354.33" dy="0.00">int</tspan></text><line x1="179.94" y1="65.60" x2="367.13" y2="65.60" stroke="#AAAA33" stroke-width="1.0" stroke-opacity="0.35"/><rect x="192.74" y="70.40" width="27.52" height="14.40" rx="7.20" ry="7.20" fill="#7C3AED"/><text x="206.50" y="81.76" text-anchor="middle" font-family="'trebuchet ms', verdana, arial, sans-serif" font-size="11.52" font-weight="600" fill="#FFFFFF">UK</text><text x="226.66" y="81.60" text-anchor="start" font-family="'trebuchet ms', verdana, arial, sans-serif" font-size="16" fill="#333333"><tspan x="226.66" dy="0.00">name</tspan></text><text x="354.33" y="81.60" text-anchor="end" font-family="'trebuchet ms', verdana, arial, sans-serif" font-size="16" fill="#2F3B4D"><tspan x="354.33" dy="0.00">string</tspan></text><rect x="255.46" y="534.40" width="212.45" height="137.02" rx="6.00" ry="6.00" fill="#FFFFFF" stroke="#7B88A8" stroke-width="1.2"/><rect x="255.46" y="534.40" width="212.45" height="33.60" rx="6.00" ry="6.00" fill="#FFFFDE"/><text x="361.68" y="555.20" text-anchor="middle" font-family="'trebuchet ms', verdana, arial, sans-serif" font-size="16" fill="#333333"><tspan x="361.68" dy="0.00">TAG_MAP</tspan></text><line x1="255.46" y1="568.00" x2="467.91" y2="568.00" stroke="#AAAA33" stroke-width="1.0" stroke-opacity="0.6"/><line x1="410.31" y1="568.00" x2="410.31" y2="671.42" stroke="#AAAA33" stroke-width="1.0" stroke-opacity="0.45"/><rect x="268.26" y="572.80" width="26.47" height="14.40" rx="7.20" ry="7.20" fill="#0F766E"/><text x="281.49" y="584.16" text-anchor="middle" font-family="'trebuchet ms', verdana, arial, sans-serif" font-size="11.52" font-weight="600" fill="#FFFFFF">FK</text><text x="301.13" y="584.00" text-anchor="start" font-family="'trebuchet ms', verdana, arial, sans-serif" font-size="16" fill="#333333"><tspan x="301.13" dy="0.00">article_id</tspan></text><text x="455.11" y="584.00" text-anchor="end" font-family="'trebuchet ms', verdana, arial, sans-serif" font-size="16" fill="#2F3B4D"><tspan x="455.11" dy="0.00">int</tspan></text><line x1="255.46" y1="592.00" x2="467.91" y2="592.00" stroke="#AAAA33" stroke-width="1.0" stroke-opacity="0.35"/><rect x="268.26" y="596.80" width="26.47" height="14.40" rx="7.20" ry="7.20" fill="#0F766E"/><text x="281.49" y="608.16" text-anchor="middle" font-family="'trebuchet ms', verdana, arial, sans-serif" font-size="11.52" font-weight="600" fill="#FFFFFF">FK</text><text x="301.13" y="608.00" text-anchor="start" font-family="'trebuchet ms', verdana, arial, sans-serif" font-size="16" fill="#333333"><tspan x="301.13" dy="0.00">tag_id</tspan></text><text x="455.11" y="608.00" text-anchor="end" font-family="'trebuchet ms', verdana, arial, sans-serif" font-size="16" fill="#2F3B4D"><tspan x="455.11" dy="0.00">int</tspan></text></svg>