<svg xmlns="http://www.w3.org/2000/svg" width="211.6088" height="372.05" viewBox="0 0 211.6088 372.05"><rect x="0" y="0" width="211.6088" height="372.05" fill="#FFFFFF"/><defs><marker id="arrow-0" viewBox="0 0 10 10" refX="5" refY="5" markerUnits="userSpaceOnUse" markerWidth="8" markerHeight="8" orient="auto"><path d="M 0 0 L 10 5 L 0 10 z" fill="#2F3B4D" stroke="#2F3B4D" stroke-width="1" stroke-dasharray="1,0"/></marker><marker id="arrow-start-0" viewBox="0 0 10 10" refX="4.5" refY="5" markerUnits="userSpaceOnUse" markerWidth="8" markerHeight="8" orient="auto"><path d="M 0 5 L 10 10 L 10 0 z" fill="#2F3B4D" stroke="#2F3B4D" stroke-width="1" stroke-dasharray="1,0"/></marker></defs><path d="M 105.991,145.025L 105.991,146.483C105.991,147.942,105.991,150.858,105.991,153.775C105.991,156.692,105.991,159.608,105.966,162.525C105.941,165.441,105.891,168.357,105.768,175.559C105.645,182.761,105.448,194.249,105.346,200.207C105.244,206.166,105.237,206.595,105.286,207.019C105.335,207.442,105.440,207.858,105.492,208.067C105.545,208.275,105.545,208.275,105.597,208.483C105.650,208.692,105.754,209.108,105.807,209.532C105.859,209.955,105.859,210.384,105.859,213.301C105.859,216.218,105.859,221.621,105.859,224.323L 105.859,227.025" fill="none" stroke="#2F3B4D" stroke-width="1"    stroke-linecap="round" stroke-linejoin="round" /><g transform="translate(105.99 145.02) rotate(90.00)"><path d="M 0 -6 L 0 6 M 5 -6 L 5 6" fill="none" stroke="#2F3B4D" stroke-width="1" stroke-linejoin="round" stroke-linecap="round"/></g><g transform="translate(105.86 227.02) rotate(90.00)"><g><circle cx="-4" cy="0" r="4" fill="none" stroke="#2F3B4D" stroke-width="1"/><path d="M 4 0 L 12 -6 M 4 0 L 12 6" fill="none" stroke="#2F3B4D" stroke-width="1" stroke-linejoin="round" stroke-linecap="round"/></g></g><rect x="78.26" y="193.02" width="53.93" height="28.00" rx="2" ry="2" fill="rgba(248,250,252, 0.92)" fill-opacity="0.85" stroke="#7B88A8" stroke-opacity="0.35" stroke-width="0.8"/><text x="105.23" y="211.02" text-anchor="middle" font-family="'trebuchet ms', verdana, arial, sans-serif" font-size="16" fill="#333333"><tspan x="105.23" dy="0.00">places</tspan></text><rect x="25.08" y="8.00" width="161.93" height="137.02" rx="6.00" ry="6.00" fill="#FFFFFF" stroke="#7B88A8" stroke-width="1.2"/><rect x="25.08" y="8.00" width="161.93" height="33.60" rx="6.00" ry="6.00" fill="#FFFFDE"/><text x="106.05" y="28.80" text-anchor="middle" font-family="'trebuchet ms', verdana, arial, sans-serif" font-size="16" fill="#333333"><tspan x="106.05" dy="0.00">CUSTOMER</tspan></text><line x1="25.08" y1="41.60" x2="187.01" y2="41.60" stroke="#AAAA33" stroke-width="1.0" stroke-opacity="0.6"/><line x1="113.33" y1="41.60" x2="113.33" y2="145.02" stroke="#AAAA33" stroke-width="1.0" stroke-opacity="0.45"/><text x="37.88" y="57.60" text-anchor="start" font-family="'trebuchet ms', verdana, arial, sans-serif" font-size="16" fill="#333333"><tspan x="37.88" dy="0.00">id</tspan></text><text x="174.21" y="57.60" text-anchor="end" font-family="'trebuchet ms', verdana, arial, sans-serif" font-size="16" fill="#2F3B4D"><tspan x="174.21" dy="0.00">string</tspan></text><line x1="25.08" y1="65.60" x2="187.01" y2="65.60" stroke="#AAAA33" stroke-width="1.0" stroke-opacity="0.35"/><text x="37.88" y="81.60" text-anchor="start" font-family="'trebuchet ms', verdana, arial, sans-serif" font-size="16" fill="#333333"><tspan x="37.88" dy="0.00">name</tspan></text><text x="174.21" y="81.60" text-anchor="end" font-family="'trebuchet ms', verdana, arial, sans-serif" font-size="16" fill="#2F3B4D"><tspan x="174.21" dy="0.00">string</tspan></text><rect x="8.00" y="227.02" width="195.61" height="137.02" rx="6.00" ry="6.00" fill="#FFFFFF" stroke="#7B88A8" stroke-width="1.2"/><rect x="8.00" y="227.02" width="195.61" height="33.60" rx="6.00" ry="6.00" fill="#FFFFDE"/><text x="105.80" y="247.82" text-anchor="middle" font-family="'trebuchet ms', verdana, arial, sans-serif" font-size="16" fill="#333333"><tspan x="105.80" dy="0.00">ORDER</tspan></text><line x1="8.00" y1="260.62" x2="203.61" y2="260.62" stroke="#AAAA33" stroke-width="1.0" stroke-opacity="0.6"/><line x1="129.93" y1="260.62" x2="129.93" y2="364.05" stroke="#AAAA33" stroke-width="1.0" stroke-opacity="0.45"/><text x="20.80" y="276.62" text-anchor="start" font-family="'trebuchet ms', verdana, arial, sans-serif" font-size="16" fill="#333333"><tspan x="20.80" dy="0.00">id</tspan></text><text x="190.81" y="276.62" text-anchor="end" font-family="'trebuchet ms', verdana, arial, sans-serif" font-size="16" fill="#2F3B4D"><tspan x="190.81" dy="0.00">string</tspan></text><line x1="8.00" y1="284.62" x2="203.61" y2="284.62" stroke="#AAAA33" stroke-width="1.0" stroke-opacity="0.35"/><text x="20.80" y="300.62" text-anchor="start" font-family="'trebuchet ms', verdana, arial, sans-serif" font-size="16" fill="#333333"><tspan x="20.80" dy="0.00">created_at</tspan></text><text x="190.81" y="300.62" text-anchor="end" font-family="'trebuchet ms', verdana, arial, sans-serif" font-size="16" fill="#2F3B4D"><tspan x="190.81" dy="0.00">date</tspan></text></svg>