<svg xmlns="http://www.w3.org/2000/svg" width="649.64233" height="817.875" viewBox="0 0 649.64233 817.875"><rect x="0" y="0" width="649.64233" height="817.875" fill="#FFFFFF"/><defs><marker id="arrow-0" viewBox="0 0 10 10" refX="5" refY="5" markerUnits="userSpaceOnUse" markerWidth="8" markerHeight="8" orient="auto"><path d="M 0 0 L 10 5 L 0 10 z" fill="#2F3B4D" stroke="#2F3B4D" stroke-width="1" stroke-dasharray="1,0"/></marker><marker id="arrow-start-0" viewBox="0 0 10 10" refX="4.5" refY="5" markerUnits="userSpaceOnUse" markerWidth="8" markerHeight="8" orient="auto"><path d="M 0 5 L 10 10 L 10 0 z" fill="#2F3B4D" stroke="#2F3B4D" stroke-width="1" stroke-dasharray="1,0"/></marker></defs><path d="M 362.229,195.425L 362.229,196.883C362.229,198.342,362.229,201.258,362.229,204.175C362.229,207.092,362.229,210.008,362.521,212.895C362.814,215.783,363.398,218.640,364.708,225.045C366.017,231.449,368.053,241.401,369.362,247.805C370.672,254.210,371.257,257.067,371.549,259.955C371.841,262.842,371.841,265.758,371.841,268.675C371.841,271.592,371.841,274.508,371.841,275.967L 371.841,277.425" fill="none" stroke="#2F3B4D" stroke-width="1"    stroke-linecap="round" stroke-linejoin="round" /><g transform="translate(362.23 195.42) rotate(90.00)"><path d="M 0 -6 L 0 6 M 5 -6 L 5 6" fill="none" stroke="#2F3B4D" stroke-width="1" stroke-linejoin="round" stroke-linecap="round"/></g><g transform="translate(371.84 277.42) rotate(90.00)"><g><circle cx="-4" cy="0" r="4" fill="none" stroke="#2F3B4D" stroke-width="1"/><path d="M 4 0 L 12 -6 M 4 0 L 12 6" fill="none" stroke="#2F3B4D" stroke-width="1" stroke-linejoin="round" stroke-linecap="round"/></g></g><rect x="338.63" y="215.37" width="53.93" height="28.00" rx="2" ry="2" fill="rgba(248,250,252, 0.92)" fill-opacity="0.85" stroke="#7B88A8" stroke-opacity="0.35" stroke-width="0.8"/><text x="365.59" y="233.37" text-anchor="middle" font-family="'trebuchet ms', verdana, arial, sans-serif" font-size="16" fill="#333333"><tspan x="365.59" dy="0.00">writes</tspan></text><path d="M 435.841,515.250L 435.841,516.708C435.841,518.167,435.841,521.083,435.841,524.000C435.841,526.917,435.841,529.833,435.518,532.714C435.195,535.594,434.549,538.438,433.093,544.850C431.636,551.261,429.370,561.239,427.914,567.650C426.457,574.062,425.811,576.906,425.488,579.786C425.165,582.667,425.165,585.583,425.165,588.500C425.165,591.417,425.165,594.333,425.165,595.792L 425.165,597.250" fill="none" stroke="#2F3B4D" stroke-width="1"    stroke-linecap="round" stroke-linejoin="round" /><g transform="translate(435.84 515.25) rotate(90.00)"><path d="M 0 -6 L 0 6 M 5 -6 L 5 6" fill="none" stroke="#2F3B4D" stroke-width="1" stroke-linejoin="round" stroke-linecap="round"/></g><g transform="translate(425.17 597.25) rotate(90.00)"><g><circle cx="-4" cy="0" r="4" fill="none" stroke="#2F3B4D" stroke-width="1"/><path d="M 4 0 L 12 -6 M 4 0 L 12 6" fill="none" stroke="#2F3B4D" stroke-width="1" stroke-linejoin="round" stroke-linecap="round"/></g></g><rect x="415.02" y="542.25" width="30.97" height="28.00" rx="2" ry="2" fill="rgba(248,250,252, 0.92)" fill-opacity="0.85" stroke="#7B88A8" stroke-opacity="0.35" stroke-width="0.8"/><text x="430.50" y="560.25" text-anchor="middle" font-family="'trebuchet ms', verdana, arial, sans-serif" font-size="16" fill="#333333"><tspan x="430.50" dy="0.00">has</tspan></text><path d="M 548.048,145.025L 548.048,146.483C548.048,147.942,548.048,150.858,548.048,153.775C548.048,156.692,548.048,159.608,548.066,162.525C548.084,165.441,548.120,168.358,548.955,236.437C549.790,304.516,551.424,437.759,552.259,505.838C553.094,573.917,553.130,576.834,553.148,579.750C553.165,582.667,553.165,585.583,553.165,588.500C553.165,591.417,553.165,594.333,553.165,595.792L 553.165,597.250" fill="none" stroke="#2F3B4D" stroke-width="1"    stroke-linecap="round" stroke-linejoin="round" /><g transform="translate(548.05 145.02) rotate(90.00)"><path d="M 0 -6 L 0 6 M 5 -6 L 5 6" fill="none" stroke="#2F3B4D" stroke-width="1" stroke-linejoin="round" stroke-linecap="round"/></g><g transform="translate(553.17 597.25) rotate(90.00)"><g><circle cx="-4" cy="0" r="4" fill="none" stroke="#2F3B4D" stroke-width="1"/><path d="M 4 0 L 12 -6 M 4 0 L 12 6" fill="none" stroke="#2F3B4D" stroke-width="1" stroke-linejoin="round" stroke-linecap="round"/></g></g><rect x="512.16" y="357.14" width="76.90" height="28.00" rx="2" ry="2" fill="rgba(248,250,252, 0.92)" fill-opacity="0.85" stroke="#7B88A8" stroke-opacity="0.35" stroke-width="0.8"/><text x="550.61" y="375.14" text-anchor="middle" font-family="'trebuchet ms', verdana, arial, sans-serif" font-size="16" fill="#333333"><tspan x="550.61" dy="0.00">&quot;used in&quot;</tspan></text><path d="M 307.841,515.250L 307.841,516.708C307.841,518.167,307.841,521.083,307.841,524.000C307.841,526.917,307.841,529.833,307.342,532.662C306.842,535.490,305.844,538.231,303.489,544.694C301.134,551.157,297.422,561.343,295.068,567.806C292.713,574.269,291.714,577.010,291.215,579.838C290.715,582.667,290.715,585.583,290.715,588.500C290.715,591.417,290.715,594.333,290.715,595.792L 290.715,597.250" fill="none" stroke="#2F3B4D" stroke-width="1"    stroke-linecap="round" stroke-linejoin="round" /><g transform="translate(307.84 515.25) rotate(90.00)"><path d="M 0 -6 L 0 6 M 5 -6 L 5 6" fill="none" stroke="#2F3B4D" stroke-width="1" stroke-linejoin="round" stroke-linecap="round"/></g><g transform="translate(290.72 597.25) rotate(90.00)"><g><circle cx="-4" cy="0" r="4" fill="none" stroke="#2F3B4D" stroke-width="1"/><path d="M 4 0 L 12 -6 M 4 0 L 12 6" fill="none" stroke="#2F3B4D" stroke-width="1" stroke-linejoin="round" stroke-linecap="round"/></g></g><rect x="130.79" y="493.47" width="69.24" height="28.00" rx="2" ry="2" fill="rgba(248,250,252, 0.92)" fill-opacity="0.85" stroke="#7B88A8" stroke-opacity="0.35" stroke-width="0.8"/><text x="165.41" y="511.47" text-anchor="middle" font-family="'trebuchet ms', verdana, arial, sans-serif" font-size="16" fill="#333333"><tspan x="165.41" dy="0.00">receives</tspan></text><path d="M 93.285,69.425L 93.285,70.883C93.285,72.342,93.285,75.258,93.285,78.175C93.285,81.092,93.285,84.008,91.826,85.467C90.368,86.925,87.451,86.925,75.237,86.925C63.023,86.925,41.512,86.925,28.756,86.925C16.000,86.925,12.000,86.925,10.000,88.925C8.000,90.925,8.000,94.925,8.000,175.062C8.000,255.200,8.000,411.475,8.000,491.613C8.000,571.750,8.000,575.750,10.000,577.750C12.000,579.750,16.000,579.750,40.328,579.750C64.655,579.750,109.310,579.750,133.096,579.750C156.882,579.750,159.799,579.750,161.257,581.208C162.715,582.667,162.715,585.583,162.715,588.500C162.715,591.417,162.715,594.333,162.715,595.792L 162.715,597.250" fill="none" stroke="#2F3B4D" stroke-width="1"    stroke-linecap="round" stroke-linejoin="round" /><g transform="translate(93.28 69.42) rotate(90.00)"><path d="M 0 -6 L 0 6 M 5 -6 L 5 6" fill="none" stroke="#2F3B4D" stroke-width="1" stroke-linejoin="round" stroke-linecap="round"/></g><g transform="translate(162.72 597.25) rotate(90.00)"><g><circle cx="-4" cy="0" r="4" fill="none" stroke="#2F3B4D" stroke-width="1"/><path d="M 4 0 L 12 -6 M 4 0 L 12 6" fill="none" stroke="#2F3B4D" stroke-width="1" stroke-linejoin="round" stroke-linecap="round"/></g></g><rect x="13.83" y="484.38" width="46.28" height="28.00" rx="2" ry="2" fill="rgba(248,250,252, 0.92)" fill-opacity="0.85" stroke="#7B88A8" stroke-opacity="0.35" stroke-width="0.8"/><text x="36.97" y="502.38" text-anchor="middle" font-family="'trebuchet ms', verdana, arial, sans-serif" font-size="16" fill="#333333"><tspan x="36.97" dy="0.00">posts</tspan></text><path d="M 77.285,69.425L 77.285,70.883C77.285,72.342,77.285,75.258,77.285,78.175C77.285,81.092,77.285,84.008,77.298,86.925C77.311,89.842,77.337,92.758,77.583,120.133C77.828,147.508,78.293,199.342,78.539,226.717C78.785,254.092,78.811,257.008,78.824,259.925C78.837,262.842,78.837,265.758,78.837,268.675C78.837,271.592,78.837,274.508,78.837,275.967L 78.837,277.425" fill="none" stroke="#2F3B4D" stroke-width="1"    stroke-linecap="round" stroke-linejoin="round" /><g transform="translate(77.28 69.42) rotate(90.00)"><path d="M 0 -6 L 0 6 M 5 -6 L 5 6" fill="none" stroke="#2F3B4D" stroke-width="1" stroke-linejoin="round" stroke-linecap="round"/></g><g transform="translate(78.84 277.42) rotate(90.00)"><g><circle cx="-4" cy="0" r="4" fill="none" stroke="#2F3B4D" stroke-width="1"/><path d="M 4 0 L 12 -6 M 4 0 L 12 6" fill="none" stroke="#2F3B4D" stroke-width="1" stroke-linejoin="round" stroke-linecap="round"/></g></g><rect x="35.79" y="159.42" width="84.55" height="28.00" rx="2" ry="2" fill="rgba(248,250,252, 0.92)" fill-opacity="0.85" stroke="#7B88A8" stroke-opacity="0.35" stroke-width="0.8"/><text x="78.06" y="177.42" text-anchor="middle" font-family="'trebuchet ms', verdana, arial, sans-serif" font-size="16" fill="#333333"><tspan x="78.06" dy="0.00">subscribes</tspan></text><path d="M 234.229,195.425L 234.229,196.883C234.229,198.342,234.229,201.258,234.229,204.175C234.229,207.092,234.229,210.008,233.086,212.372C231.942,214.735,229.655,216.545,220.900,223.473C212.145,230.402,196.922,242.448,188.167,249.377C179.411,256.305,177.124,258.115,175.981,260.478C174.837,262.842,174.837,265.758,174.837,268.675C174.837,271.592,174.837,274.508,174.837,275.967L 174.837,277.425" fill="none" stroke="#2F3B4D" stroke-width="1"    stroke-linecap="round" stroke-linejoin="round" /><g transform="translate(234.23 195.42) rotate(90.00)"><path d="M 0 -6 L 0 6 M 5 -6 L 5 6" fill="none" stroke="#2F3B4D" stroke-width="1" stroke-linejoin="round" stroke-linecap="round"/></g><g transform="translate(174.84 277.42) rotate(90.00)"><g><circle cx="-4" cy="0" r="4" fill="none" stroke="#2F3B4D" stroke-width="1"/><path d="M 4 0 L 12 -6 M 4 0 L 12 6" fill="none" stroke="#2F3B4D" stroke-width="1" stroke-linejoin="round" stroke-linecap="round"/></g></g><rect x="143.12" y="222.42" width="122.83" height="28.00" rx="2" ry="2" fill="rgba(248,250,252, 0.92)" fill-opacity="0.85" stroke="#7B88A8" stroke-opacity="0.35" stroke-width="0.8"/><text x="204.53" y="240.42" text-anchor="middle" font-family="'trebuchet ms', verdana, arial, sans-serif" font-size="16" fill="#333333"><tspan x="204.53" dy="0.00">&quot;subscribed to&quot;</tspan></text><rect x="265.62" y="277.42" width="212.45" height="237.82" rx="6.00" ry="6.00" fill="#FFFFFF" stroke="#7B88A8" stroke-width="1.2"/><rect x="265.62" y="277.42" width="212.45" height="33.60" rx="6.00" ry="6.00" fill="#FFFFDE"/><text x="371.84" y="298.22" text-anchor="middle" font-family="'trebuchet ms', verdana, arial, sans-serif" font-size="16" fill="#333333"><tspan x="371.84" dy="0.00">ARTICLE</tspan></text><line x1="265.62" y1="311.02" x2="478.07" y2="311.02" stroke="#AAAA33" stroke-width="1.0" stroke-opacity="0.6"/><line x1="404.39" y1="311.02" x2="404.39" y2="515.25" stroke="#AAAA33" stroke-width="1.0" stroke-opacity="0.45"/><rect x="278.42" y="315.82" width="27.00" height="14.40" rx="7.20" ry="7.20" fill="#1D4ED8"/><text x="291.92" y="327.18" text-anchor="middle" font-family="'trebuchet ms', verdana, arial, sans-serif" font-size="11.52" font-weight="600" fill="#FFFFFF">PK</text><text x="311.82" y="327.02" text-anchor="start" font-family="'trebuchet ms', verdana, arial, sans-serif" font-size="16" fill="#333333"><tspan x="311.82" dy="0.00">id</tspan></text><text x="465.27" y="327.02" text-anchor="end" font-family="'trebuchet ms', verdana, arial, sans-serif" font-size="16" fill="#2F3B4D"><tspan x="465.27" dy="0.00">int</tspan></text><line x1="265.62" y1="335.02" x2="478.07" y2="335.02" stroke="#AAAA33" stroke-width="1.0" stroke-opacity="0.35"/><rect x="278.42" y="339.82" width="26.47" height="14.40" rx="7.20" ry="7.20" fill="#0F766E"/><text x="291.65" y="351.18" text-anchor="middle" font-family="'trebuchet ms', verdana, arial, sans-serif" font-size="11.52" font-weight="600" fill="#FFFFFF">FK</text><text x="311.29" y="351.02" text-anchor="start" font-family="'trebuchet ms', verdana, arial, sans-serif" font-size="16" fill="#333333"><tspan x="311.29" dy="0.00">author_id</tspan></text><text x="465.27" y="351.02" text-anchor="end" font-family="'trebuchet ms', verdana, arial, sans-serif" font-size="16" fill="#2F3B4D"><tspan x="465.27" dy="0.00">int</tspan></text><line x1="265.62" y1="359.02" x2="478.07" y2="359.02" stroke="#AAAA33" stroke-width="1.0" stroke-opacity="0.35"/><text x="278.42" y="375.02" text-anchor="start" font-family="'trebuchet ms', verdana, arial, sans-serif" font-size="16" fill="#333333"><tspan x="278.42" dy="0.00">title</tspan></text><text x="465.27" y="375.02" text-anchor="end" font-family="'trebuchet ms', verdana, arial, sans-serif" font-size="16" fill="#2F3B4D"><tspan x="465.27" dy="0.00">string</tspan></text><line x1="265.62" y1="383.02" x2="478.07" y2="383.02" stroke="#AAAA33" stroke-width="1.0" stroke-opacity="0.35"/><text x="278.42" y="399.02" text-anchor="start" font-family="'trebuchet ms', verdana, arial, sans-serif" font-size="16" fill="#333333"><tspan x="278.42" dy="0.00">content</tspan></text><text x="465.27" y="399.02" text-anchor="end" font-family="'trebuchet ms', verdana, arial, sans-serif" font-size="16" fill="#2F3B4D"><tspan x="465.27" dy="0.00">text</tspan></text><line x1="265.62" y1="407.02" x2="478.07" y2="407.02" stroke="#AAAA33" stroke-width="1.0" stroke-opacity="0.35"/><text x="278.42" y="423.02" text-anchor="start" font-family="'trebuchet ms', verdana, arial, sans-serif" font-size="16" fill="#333333"><tspan x="278.42" dy="0.00">published_at</tspan></text><text x="465.27" y="423.02" text-anchor="end" font-family="'trebuchet ms', verdana, arial, sans-serif" font-size="16" fill="#2F3B4D"><tspan x="465.27" dy="0.00">date</tspan></text><line x1="265.62" y1="431.02" x2="478.07" y2="431.02" stroke="#AAAA33" stroke-width="1.0" stroke-opacity="0.35"/><text x="278.42" y="447.02" text-anchor="start" font-family="'trebuchet ms', verdana, arial, sans-serif" font-size="16" fill="#333333"><tspan x="278.42" dy="0.00">status</tspan></text><text x="465.27" y="447.02" text-anchor="end" font-family="'trebuchet ms', verdana, arial, sans-serif" font-size="16" fill="#2F3B4D"><tspan x="465.27" dy="0.00">string</tspan></text><rect x="192.00" y="8.00" width="212.45" height="187.42" rx="6.00" ry="6.00" fill="#FFFFFF" stroke="#7B88A8" stroke-width="1.2"/><rect x="192.00" y="8.00" width="212.45" height="33.60" rx="6.00" ry="6.00" fill="#FFFFDE"/><text x="298.23" y="28.80" text-anchor="middle" font-family="'trebuchet ms', verdana, arial, sans-serif" font-size="16" fill="#333333"><tspan x="298.23" dy="0.00">AUTHOR</tspan></text><line x1="192.00" y1="41.60" x2="404.45" y2="41.60" stroke="#AAAA33" stroke-width="1.0" stroke-opacity="0.6"/><line x1="330.77" y1="41.60" x2="330.77" y2="195.42" stroke="#AAAA33" stroke-width="1.0" stroke-opacity="0.45"/><rect x="204.80" y="46.40" width="27.00" height="14.40" rx="7.20" ry="7.20" fill="#1D4ED8"/><text x="218.31" y="57.76" text-anchor="middle" font-family="'trebuchet ms', verdana, arial, sans-serif" font-size="11.52" font-weight="600" fill="#FFFFFF">PK</text><text x="238.21" y="57.60" text-anchor="start" font-family="'trebuchet ms', verdana, arial, sans-serif" font-size="16" fill="#333333"><tspan x="238.21" dy="0.00">id</tspan></text><text x="391.65" y="57.60" text-anchor="end" font-family="'trebuchet ms', verdana, arial, sans-serif" font-size="16" fill="#2F3B4D"><tspan x="391.65" dy="0.00">int</tspan></text><line x1="192.00" y1="65.60" x2="404.45" y2="65.60" stroke="#AAAA33" stroke-width="1.0" stroke-opacity="0.35"/><text x="204.80" y="81.60" text-anchor="start" font-family="'trebuchet ms', verdana, arial, sans-serif" font-size="16" fill="#333333"><tspan x="204.80" dy="0.00">name</tspan></text><text x="391.65" y="81.60" text-anchor="end" font-family="'trebuchet ms', verdana, arial, sans-serif" font-size="16" fill="#2F3B4D"><tspan x="391.65" dy="0.00">string</tspan></text><line x1="192.00" y1="89.60" x2="404.45" y2="89.60" stroke="#AAAA33" stroke-width="1.0" stroke-opacity="0.35"/><text x="204.80" y="105.60" text-anchor="start" font-family="'trebuchet ms', verdana, arial, sans-serif" font-size="16" fill="#333333"><tspan x="204.80" dy="0.00">bio</tspan></text><text x="391.65" y="105.60" text-anchor="end" font-family="'trebuchet ms', verdana, arial, sans-serif" font-size="16" fill="#2F3B4D"><tspan x="391.65" dy="0.00">string</tspan></text><line x1="192.00" y1="113.60" x2="404.45" y2="113.60" stroke="#AAAA33" stroke-width="1.0" stroke-opacity="0.35"/><text x="204.80" y="129.60" text-anchor="start" font-family="'trebuchet ms', verdana, arial, sans-serif" font-size="16" fill="#333333"><tspan x="204.80" dy="0.00">avatar_url</tspan></text><text x="391.65" y="129.60" text-anchor="end" font-family="'trebuchet ms', verdana, arial, sans-serif" font-size="16" fill="#2F3B4D"><tspan x="391.65" dy="0.00">string</tspan></text><rect x="120.49" y="597.25" width="212.45" height="212.62" rx="6.00" ry="6.00" fill="#FFFFFF" stroke="#7B88A8" stroke-width="1.2"/><rect x="120.49" y="597.25" width="212.45" height="33.60" rx="6.00" ry="6.00" fill="#FFFFDE"/><text x="226.72" y="618.05" text-anchor="middle" font-family="'trebuchet ms', verdana, arial, sans-serif" font-size="16" fill="#333333"><tspan x="226.72" dy="0.00">COMMENT</tspan></text><line x1="120.49" y1="630.85" x2="332.94" y2="630.85" stroke="#AAAA33" stroke-width="1.0" stroke-opacity="0.6"/><line x1="265.80" y1="630.85" x2="265.80" y2="809.88" stroke="#AAAA33" stroke-width="1.0" stroke-opacity="0.45"/><rect x="133.29" y="635.65" width="27.00" height="14.40" rx="7.20" ry="7.20" fill="#1D4ED8"/><text x="146.79" y="647.01" text-anchor="middle" font-family="'trebuchet ms', verdana, arial, sans-serif" font-size="11.52" font-weight="600" fill="#FFFFFF">PK</text><text x="166.69" y="646.85" text-anchor="start" font-family="'trebuchet ms', verdana, arial, sans-serif" font-size="16" fill="#333333"><tspan x="166.69" dy="0.00">id</tspan></text><text x="320.14" y="646.85" text-anchor="end" font-family="'trebuchet ms', verdana, arial, sans-serif" font-size="16" fill="#2F3B4D"><tspan x="320.14" dy="0.00">int</tspan></text><line x1="120.49" y1="654.85" x2="332.94" y2="654.85" stroke="#AAAA33" stroke-width="1.0" stroke-opacity="0.35"/><rect x="133.29" y="659.65" width="26.47" height="14.40" rx="7.20" ry="7.20" fill="#0F766E"/><text x="146.53" y="671.01" text-anchor="middle" font-family="'trebuchet ms', verdana, arial, sans-serif" font-size="11.52" font-weight="600" fill="#FFFFFF">FK</text><text x="166.16" y="670.85" text-anchor="start" font-family="'trebuchet ms', verdana, arial, sans-serif" font-size="16" fill="#333333"><tspan x="166.16" dy="0.00">article_id</tspan></text><text x="320.14" y="670.85" text-anchor="end" font-family="'trebuchet ms', verdana, arial, sans-serif" font-size="16" fill="#2F3B4D"><tspan x="320.14" dy="0.00">int</tspan></text><line x1="120.49" y1="678.85" x2="332.94" y2="678.85" stroke="#AAAA33" stroke-width="1.0" stroke-opacity="0.35"/><rect x="133.29" y="683.65" width="26.47" height="14.40" rx="7.20" ry="7.20" fill="#0F766E"/><text x="146.53" y="695.01" text-anchor="middle" font-family="'trebuchet ms', verdana, arial, sans-serif" font-size="11.52" font-weight="600" fill="#FFFFFF">FK</text><text x="166.16" y="694.85" text-anchor="start" font-family="'trebuchet ms', verdana, arial, sans-serif" font-size="16" fill="#333333"><tspan x="166.16" dy="0.00">reader_id</tspan></text><text x="320.14" y="694.85" text-anchor="end" font-family="'trebuchet ms', verdana, arial, sans-serif" font-size="16" fill="#2F3B4D"><tspan x="320.14" dy="0.00">int</tspan></text><line x1="120.49" y1="702.85" x2="332.94" y2="702.85" stroke="#AAAA33" stroke-width="1.0" stroke-opacity="0.35"/><text x="133.29" y="718.85" text-anchor="start" font-family="'trebuchet ms', verdana, arial, sans-serif" font-size="16" fill="#333333"><tspan x="133.29" dy="0.00">body</tspan></text><text x="320.14" y="718.85" text-anchor="end" font-family="'trebuchet ms', verdana, arial, sans-serif" font-size="16" fill="#2F3B4D"><tspan x="320.14" dy="0.00">text</tspan></text><line x1="120.49" y1="726.85" x2="332.94" y2="726.85" stroke="#AAAA33" stroke-width="1.0" stroke-opacity="0.35"/><text x="133.29" y="742.85" text-anchor="start" font-family="'trebuchet ms', verdana, arial, sans-serif" font-size="16" fill="#333333"><tspan x="133.29" dy="0.00">created_at</tspan></text><text x="320.14" y="742.85" text-anchor="end" font-family="'trebuchet ms', verdana, arial, sans-serif" font-size="16" fill="#2F3B4D"><tspan x="320.14" dy="0.00">date</tspan></text><rect x="12.56" y="8.00" width="129.44" height="61.42" rx="6.00" ry="6.00" fill="#FFFFFF" stroke="#7B88A8" stroke-width="1.2"/><rect x="12.56" y="8.00" width="129.44" height="61.42" rx="6.00" ry="6.00" fill="#FFFFDE"/><text x="77.28" y="42.71" text-anchor="middle" font-family="'trebuchet ms', verdana, arial, sans-serif" font-size="16" fill="#333333"><tspan x="77.28" dy="0.00">READER</tspan></text><rect x="38.06" y="277.42" width="177.56" height="61.42" rx="6.00" ry="6.00" fill="#FFFFFF" stroke="#7B88A8" stroke-width="1.2"/><rect x="38.06" y="277.42" width="177.56" height="61.42" rx="6.00" ry="6.00" fill="#FFFFDE"/><text x="126.84" y="312.14" text-anchor="middle" font-family="'trebuchet ms', verdana, arial, sans-serif" font-size="16" fill="#333333"><tspan x="126.84" dy="0.00">SUBSCRIPTION</tspan></text><rect x="454.45" y="8.00" width="187.19" height="137.02" rx="6.00" ry="6.00" fill="#FFFFFF" stroke="#7B88A8" stroke-width="1.2"/><rect x="454.45" y="8.00" width="187.19" height="33.60" rx="6.00" ry="6.00" fill="#FFFFDE"/><text x="548.05" y="28.80" text-anchor="middle" font-family="'trebuchet ms', verdana, arial, sans-serif" font-size="16" fill="#333333"><tspan x="548.05" dy="0.00">TAG</tspan></text><line x1="454.45" y1="41.60" x2="641.64" y2="41.60" stroke="#AAAA33" stroke-width="1.0" stroke-opacity="0.6"/><line x1="567.96" y1="41.60" x2="567.96" y2="145.02" stroke="#AAAA33" stroke-width="1.0" stroke-opacity="0.45"/><rect x="467.25" y="46.40" width="27.00" height="14.40" rx="7.20" ry="7.20" fill="#1D4ED8"/><text x="480.76" y="57.76" text-anchor="middle" font-family="'trebuchet ms', verdana, arial, sans-serif" font-size="11.52" font-weight="600" fill="#FFFFFF">PK</text><text x="500.66" y="57.60" text-anchor="start" font-family="'trebuchet ms', verdana, arial, sans-serif" font-size="16" fill="#333333"><tspan x="500.66" dy="0.00">id</tspan></text><text x="628.84" y="57.60" text-anchor="end" font-family="'trebuchet ms', verdana, arial, sans-serif" font-size="16" fill="#2F3B4D"><tspan x="628.84" dy="0.00">int</tspan></text><line x1="454.45" y1="65.60" x2="641.64" y2="65.60" stroke="#AAAA33" stroke-width="1.0" stroke-opacity="0.35"/><rect x="467.25" y="70.40" width="27.52" height="14.40" rx="7.20" ry="7.20" fill="#7C3AED"/><text x="481.01" y="81.76" text-anchor="middle" font-family="'trebuchet ms', verdana, arial, sans-serif" font-size="11.52" font-weight="600" fill="#FFFFFF">UK</text><text x="501.18" y="81.60" text-anchor="start" font-family="'trebuchet ms', verdana, arial, sans-serif" font-size="16" fill="#333333"><tspan x="501.18" dy="0.00">name</tspan></text><text x="628.84" y="81.60" text-anchor="end" font-family="'trebuchet ms', verdana, arial, sans-serif" font-size="16" fill="#2F3B4D"><tspan x="628.84" dy="0.00">string</tspan></text><rect x="382.94" y="597.25" width="212.45" height="137.02" rx="6.00" ry="6.00" fill="#FFFFFF" stroke="#7B88A8" stroke-width="1.2"/><rect x="382.94" y="597.25" width="212.45" height="33.60" rx="6.00" ry="6.00" fill="#FFFFDE"/><text x="489.17" y="618.05" text-anchor="middle" font-family="'trebuchet ms', verdana, arial, sans-serif" font-size="16" fill="#333333"><tspan x="489.17" dy="0.00">TAG_MAP</tspan></text><line x1="382.94" y1="630.85" x2="595.39" y2="630.85" stroke="#AAAA33" stroke-width="1.0" stroke-opacity="0.6"/><line x1="537.79" y1="630.85" x2="537.79" y2="734.28" stroke="#AAAA33" stroke-width="1.0" stroke-opacity="0.45"/><rect x="395.74" y="635.65" width="26.47" height="14.40" rx="7.20" ry="7.20" fill="#0F766E"/><text x="408.98" y="647.01" text-anchor="middle" font-family="'trebuchet ms', verdana, arial, sans-serif" font-size="11.52" font-weight="600" fill="#FFFFFF">FK</text><text x="428.61" y="646.85" text-anchor="start" font-family="'trebuchet ms', verdana, arial, sans-serif" font-size="16" fill="#333333"><tspan x="428.61" dy="0.00">article_id</tspan></text><text x="582.59" y="646.85" text-anchor="end" font-family="'trebuchet ms', verdana, arial, sans-serif" font-size="16" fill="#2F3B4D"><tspan x="582.59" dy="0.00">int</tspan></text><line x1="382.94" y1="654.85" x2="595.39" y2="654.85" stroke="#AAAA33" stroke-width="1.0" stroke-opacity="0.35"/><rect x="395.74" y="659.65" width="26.47" height="14.40" rx="7.20" ry="7.20" fill="#0F766E"/><text x="408.98" y="671.01" text-anchor="middle" font-family="'trebuchet ms', verdana, arial, sans-serif" font-size="11.52" font-weight="600" fill="#FFFFFF">FK</text><text x="428.61" y="670.85" text-anchor="start" font-family="'trebuchet ms', verdana, arial, sans-serif" font-size="16" fill="#333333"><tspan x="428.61" dy="0.00">tag_id</tspan></text><text x="582.59" y="670.85" text-anchor="end" font-family="'trebuchet ms', verdana, arial, sans-serif" font-size="16" fill="#2F3B4D"><tspan x="582.59" dy="0.00">int</tspan></text></svg>