<svg xmlns="http://www.w3.org/2000/svg" width="211.6088" height="340.625" viewBox="0 0 211.6088 340.625"><rect x="0" y="0" width="211.6088" height="340.625" fill="#FFFFFF"/><defs><marker id="arrow-0" viewBox="0 0 10 10" refX="5" refY="5" markerUnits="userSpaceOnUse" markerWidth="8" markerHeight="8" orient="auto"><path d="M 0 0 L 10 5 L 0 10 z" fill="#2F3B4D" stroke="#2F3B4D" stroke-width="1" stroke-dasharray="1,0"/></marker><marker id="arrow-start-0" viewBox="0 0 10 10" refX="4.5" refY="5" markerUnits="userSpaceOnUse" markerWidth="8" markerHeight="8" orient="auto"><path d="M 0 5 L 10 10 L 10 0 z" fill="#2F3B4D" stroke="#2F3B4D" stroke-width="1" stroke-dasharray="1,0"/></marker></defs><path d="M 105.534,145.025 L 105.695,195.600" fill="none" stroke="#2F3B4D" stroke-width="1"    stroke-linecap="round" stroke-linejoin="round" /><g transform="translate(105.53 145.02) rotate(89.82)"><path d="M 0 -6 L 0 6 M 5 -6 L 5 6" fill="none" stroke="#2F3B4D" stroke-width="1" stroke-linejoin="round" stroke-linecap="round"/></g><g transform="translate(105.70 195.60) rotate(89.82)"><g><circle cx="-4" cy="0" r="4" fill="none" stroke="#2F3B4D" stroke-width="1"/><path d="M 4 0 L 12 -6 M 4 0 L 12 6" fill="none" stroke="#2F3B4D" stroke-width="1" stroke-linejoin="round" stroke-linecap="round"/></g></g><rect x="78.65" y="156.31" width="53.93" height="28.00" rx="2" ry="2" fill="rgba(248,250,252, 0.92)" fill-opacity="0.85" stroke="#7B88A8" stroke-opacity="0.35" stroke-width="0.8"/><text x="105.61" y="174.31" text-anchor="middle" font-family="'trebuchet ms', verdana, arial, sans-serif" font-size="16" fill="#333333"><tspan x="105.61" dy="0.00">places</tspan></text><rect x="24.46" y="8.00" width="161.93" height="137.02" rx="6.00" ry="6.00" fill="#FFFFFF" stroke="#7B88A8" stroke-width="1.2"/><rect x="24.46" y="8.00" width="161.93" height="33.60" rx="6.00" ry="6.00" fill="#FFFFDE"/><text x="105.43" y="28.80" text-anchor="middle" font-family="'trebuchet ms', verdana, arial, sans-serif" font-size="16" fill="#333333"><tspan x="105.43" dy="0.00">CUSTOMER</tspan></text><line x1="24.46" y1="41.60" x2="186.39" y2="41.60" stroke="#AAAA33" stroke-width="1.0" stroke-opacity="0.6"/><line x1="112.71" y1="41.60" x2="112.71" y2="145.02" stroke="#AAAA33" stroke-width="1.0" stroke-opacity="0.45"/><text x="37.26" y="57.60" text-anchor="start" font-family="'trebuchet ms', verdana, arial, sans-serif" font-size="16" fill="#333333"><tspan x="37.26" dy="0.00">id</tspan></text><text x="173.59" y="57.60" text-anchor="end" font-family="'trebuchet ms', verdana, arial, sans-serif" font-size="16" fill="#2F3B4D"><tspan x="173.59" dy="0.00">string</tspan></text><line x1="24.46" y1="65.60" x2="186.39" y2="65.60" stroke="#AAAA33" stroke-width="1.0" stroke-opacity="0.35"/><text x="37.26" y="81.60" text-anchor="start" font-family="'trebuchet ms', verdana, arial, sans-serif" font-size="16" fill="#333333"><tspan x="37.26" dy="0.00">name</tspan></text><text x="173.59" y="81.60" text-anchor="end" font-family="'trebuchet ms', verdana, arial, sans-serif" font-size="16" fill="#2F3B4D"><tspan x="173.59" dy="0.00">string</tspan></text><rect x="8.00" y="195.60" width="195.61" height="137.02" rx="6.00" ry="6.00" fill="#FFFFFF" stroke="#7B88A8" stroke-width="1.2"/><rect x="8.00" y="195.60" width="195.61" height="33.60" rx="6.00" ry="6.00" fill="#FFFFDE"/><text x="105.80" y="216.40" text-anchor="middle" font-family="'trebuchet ms', verdana, arial, sans-serif" font-size="16" fill="#333333"><tspan x="105.80" dy="0.00">ORDER</tspan></text><line x1="8.00" y1="229.20" x2="203.61" y2="229.20" stroke="#AAAA33" stroke-width="1.0" stroke-opacity="0.6"/><line x1="129.93" y1="229.20" x2="129.93" y2="332.62" stroke="#AAAA33" stroke-width="1.0" stroke-opacity="0.45"/><text x="20.80" y="245.20" text-anchor="start" font-family="'trebuchet ms', verdana, arial, sans-serif" font-size="16" fill="#333333"><tspan x="20.80" dy="0.00">id</tspan></text><text x="190.81" y="245.20" text-anchor="end" font-family="'trebuchet ms', verdana, arial, sans-serif" font-size="16" fill="#2F3B4D"><tspan x="190.81" dy="0.00">string</tspan></text><line x1="8.00" y1="253.20" x2="203.61" y2="253.20" stroke="#AAAA33" stroke-width="1.0" stroke-opacity="0.35"/><text x="20.80" y="269.20" text-anchor="start" font-family="'trebuchet ms', verdana, arial, sans-serif" font-size="16" fill="#333333"><tspan x="20.80" dy="0.00">created_at</tspan></text><text x="190.81" y="269.20" text-anchor="end" font-family="'trebuchet ms', verdana, arial, sans-serif" font-size="16" fill="#2F3B4D"><tspan x="190.81" dy="0.00">date</tspan></text></svg>