<svg xmlns="http://www.w3.org/2000/svg" width="500.2411" height="746.95" viewBox="0 0 500.2411 746.95"><rect x="0" y="0" width="500.2411" height="746.95" fill="#FFFFFF"/><defs><marker id="arrow-0" viewBox="0 0 10 10" refX="5" refY="5" markerUnits="userSpaceOnUse" markerWidth="8" markerHeight="8" orient="auto"><path d="M 0 0 L 10 5 L 0 10 z" fill="#2F3B4D" stroke="#2F3B4D" stroke-width="1" stroke-dasharray="1,0"/></marker><marker id="arrow-start-0" viewBox="0 0 10 10" refX="4.5" refY="5" markerUnits="userSpaceOnUse" markerWidth="8" markerHeight="8" orient="auto"><path d="M 0 5 L 10 10 L 10 0 z" fill="#2F3B4D" stroke="#2F3B4D" stroke-width="1" stroke-dasharray="1,0"/></marker></defs><path d="M 118.440,195.425 L 118.435,263.125" fill="none" stroke="#2F3B4D" stroke-width="1"    stroke-linecap="round" stroke-linejoin="round" /><g transform="translate(118.44 195.42) rotate(90.00)"><path d="M 0 -6 L 0 6 M 5 -6 L 5 6" fill="none" stroke="#2F3B4D" stroke-width="1" stroke-linejoin="round" stroke-linecap="round"/></g><g transform="translate(118.44 263.12) rotate(90.00)"><g><circle cx="-4" cy="0" r="4" fill="none" stroke="#2F3B4D" stroke-width="1"/><path d="M 4 0 L 12 -6 M 4 0 L 12 6" fill="none" stroke="#2F3B4D" stroke-width="1" stroke-linejoin="round" stroke-linecap="round"/></g></g><rect x="91.47" y="215.27" width="53.93" height="28.00" rx="2" ry="2" fill="rgba(248,250,252, 0.92)" fill-opacity="0.85" stroke="#7B88A8" stroke-opacity="0.35" stroke-width="0.8"/><text x="118.44" y="233.27" text-anchor="middle" font-family="'trebuchet ms', verdana, arial, sans-serif" font-size="16" fill="#333333"><tspan x="118.44" dy="0.00">places</tspan></text><path d="M 118.435,475.750 L 102.446,526.325" fill="none" stroke="#2F3B4D" stroke-width="1"    stroke-linecap="round" stroke-linejoin="round" /><g transform="translate(118.44 475.75) rotate(107.54)"><path d="M 0 -6 L 0 6 M 5 -6 L 5 6" fill="none" stroke="#2F3B4D" stroke-width="1" stroke-linejoin="round" stroke-linecap="round"/></g><g transform="translate(102.45 526.33) rotate(107.54)"><path d="M 0 -6 L 0 6 M 0 0 L 8 -6 M 0 0 L 8 6" fill="none" stroke="#2F3B4D" stroke-width="1" stroke-linejoin="round" stroke-linecap="round"/></g><rect x="76.31" y="485.48" width="69.24" height="28.00" rx="2" ry="2" fill="rgba(248,250,252, 0.92)" fill-opacity="0.85" stroke="#7B88A8" stroke-opacity="0.35" stroke-width="0.8"/><text x="110.93" y="503.48" text-anchor="middle" font-family="'trebuchet ms', verdana, arial, sans-serif" font-size="16" fill="#333333"><tspan x="110.93" dy="0.00">contains</tspan></text><path d="M 317.798,220.625L 308.519,220.625C299.239,220.625,280.681,220.625,269.401,220.625C258.122,220.625,254.122,220.625,252.122,222.625C250.122,224.625,250.122,228.625,250.122,277.575C250.122,326.525,250.122,420.425,250.122,469.375C250.122,518.325,250.122,522.325,248.122,524.325C246.122,526.325,242.122,526.325,230.843,526.325C219.563,526.325,201.005,526.325,191.725,526.325L 182.446,526.325" fill="none" stroke="#2F3B4D" stroke-width="1"    stroke-linecap="round" stroke-linejoin="round" /><g transform="translate(317.80 220.62) rotate(180.00)"><path d="M 0 -6 L 0 6 M 5 -6 L 5 6" fill="none" stroke="#2F3B4D" stroke-width="1" stroke-linejoin="round" stroke-linecap="round"/></g><g transform="translate(182.45 526.33) rotate(180.00)"><g><circle cx="-4" cy="0" r="4" fill="none" stroke="#2F3B4D" stroke-width="1"/><path d="M 4 0 L 12 -6 M 4 0 L 12 6" fill="none" stroke="#2F3B4D" stroke-width="1" stroke-linejoin="round" stroke-linecap="round"/></g></g><rect x="240.88" y="443.25" width="61.59" height="28.00" rx="2" ry="2" fill="rgba(248,250,252, 0.92)" fill-opacity="0.85" stroke="#7B88A8" stroke-opacity="0.35" stroke-width="0.8"/><text x="271.68" y="461.25" text-anchor="middle" font-family="'trebuchet ms', verdana, arial, sans-serif" font-size="16" fill="#333333"><tspan x="271.68" dy="0.00">&quot;is in&quot;</tspan></text><path d="M 397.798,220.625 L 381.806,271.200" fill="none" stroke="#2F3B4D" stroke-width="1"    stroke-linecap="round" stroke-linejoin="round" /><g transform="translate(397.80 220.62) rotate(107.55)"><g><circle cx="-4" cy="0" r="4" fill="none" stroke="#2F3B4D" stroke-width="1"/><path d="M 4 0 L 12 -6 M 4 0 L 12 6" fill="none" stroke="#2F3B4D" stroke-width="1" stroke-linejoin="round" stroke-linecap="round"/></g></g><g transform="translate(381.81 271.20) rotate(107.55)"><path d="M 0 -6 L 0 6 M 5 -6 L 5 6" fill="none" stroke="#2F3B4D" stroke-width="1" stroke-linejoin="round" stroke-linecap="round"/></g><rect x="339.87" y="231.91" width="99.86" height="28.00" rx="2" ry="2" fill="rgba(248,250,252, 0.92)" fill-opacity="0.85" stroke="#7B88A8" stroke-opacity="0.35" stroke-width="0.8"/><text x="389.80" y="249.91" text-anchor="middle" font-family="'trebuchet ms', verdana, arial, sans-serif" font-size="16" fill="#333333"><tspan x="389.80" dy="0.00">&quot;belongs to&quot;</tspan></text><rect x="271.37" y="271.20" width="220.87" height="162.22" rx="6.00" ry="6.00" fill="#FFFFFF" stroke="#7B88A8" stroke-width="1.2"/><rect x="271.37" y="271.20" width="220.87" height="33.60" rx="6.00" ry="6.00" fill="#FFFFDE"/><text x="381.81" y="292.00" text-anchor="middle" font-family="'trebuchet ms', verdana, arial, sans-serif" font-size="16" fill="#333333"><tspan x="381.81" dy="0.00">CATEGORY</tspan></text><line x1="271.37" y1="304.80" x2="492.24" y2="304.80" stroke="#AAAA33" stroke-width="1.0" stroke-opacity="0.6"/><line x1="418.56" y1="304.80" x2="418.56" y2="433.42" stroke="#AAAA33" stroke-width="1.0" stroke-opacity="0.45"/><rect x="284.17" y="309.60" width="27.00" height="14.40" rx="7.20" ry="7.20" fill="#1D4ED8"/><text x="297.67" y="320.96" text-anchor="middle" font-family="'trebuchet ms', verdana, arial, sans-serif" font-size="11.52" font-weight="600" fill="#FFFFFF">PK</text><text x="317.57" y="320.80" text-anchor="start" font-family="'trebuchet ms', verdana, arial, sans-serif" font-size="16" fill="#333333"><tspan x="317.57" dy="0.00">id</tspan></text><text x="479.44" y="320.80" text-anchor="end" font-family="'trebuchet ms', verdana, arial, sans-serif" font-size="16" fill="#2F3B4D"><tspan x="479.44" dy="0.00">int</tspan></text><line x1="271.37" y1="328.80" x2="492.24" y2="328.80" stroke="#AAAA33" stroke-width="1.0" stroke-opacity="0.35"/><text x="284.17" y="344.80" text-anchor="start" font-family="'trebuchet ms', verdana, arial, sans-serif" font-size="16" fill="#333333"><tspan x="284.17" dy="0.00">name</tspan></text><text x="479.44" y="344.80" text-anchor="end" font-family="'trebuchet ms', verdana, arial, sans-serif" font-size="16" fill="#2F3B4D"><tspan x="479.44" dy="0.00">string</tspan></text><line x1="271.37" y1="352.80" x2="492.24" y2="352.80" stroke="#AAAA33" stroke-width="1.0" stroke-opacity="0.35"/><text x="284.17" y="368.80" text-anchor="start" font-family="'trebuchet ms', verdana, arial, sans-serif" font-size="16" fill="#333333"><tspan x="284.17" dy="0.00">description</tspan></text><text x="479.44" y="368.80" text-anchor="end" font-family="'trebuchet ms', verdana, arial, sans-serif" font-size="16" fill="#2F3B4D"><tspan x="479.44" dy="0.00">string</tspan></text><rect x="20.64" y="8.00" width="195.61" height="187.42" rx="6.00" ry="6.00" fill="#FFFFFF" stroke="#7B88A8" stroke-width="1.2"/><rect x="20.64" y="8.00" width="195.61" height="33.60" rx="6.00" ry="6.00" fill="#FFFFDE"/><text x="118.44" y="28.80" text-anchor="middle" font-family="'trebuchet ms', verdana, arial, sans-serif" font-size="16" fill="#333333"><tspan x="118.44" dy="0.00">CUSTOMER</tspan></text><line x1="20.64" y1="41.60" x2="216.24" y2="41.60" stroke="#AAAA33" stroke-width="1.0" stroke-opacity="0.6"/><line x1="142.56" y1="41.60" x2="142.56" y2="195.42" stroke="#AAAA33" stroke-width="1.0" stroke-opacity="0.45"/><rect x="33.44" y="46.40" width="27.00" height="14.40" rx="7.20" ry="7.20" fill="#1D4ED8"/><text x="46.94" y="57.76" text-anchor="middle" font-family="'trebuchet ms', verdana, arial, sans-serif" font-size="11.52" font-weight="600" fill="#FFFFFF">PK</text><text x="66.84" y="57.60" text-anchor="start" font-family="'trebuchet ms', verdana, arial, sans-serif" font-size="16" fill="#333333"><tspan x="66.84" dy="0.00">id</tspan></text><text x="203.44" y="57.60" text-anchor="end" font-family="'trebuchet ms', verdana, arial, sans-serif" font-size="16" fill="#2F3B4D"><tspan x="203.44" dy="0.00">int</tspan></text><line x1="20.64" y1="65.60" x2="216.24" y2="65.60" stroke="#AAAA33" stroke-width="1.0" stroke-opacity="0.35"/><text x="33.44" y="81.60" text-anchor="start" font-family="'trebuchet ms', verdana, arial, sans-serif" font-size="16" fill="#333333"><tspan x="33.44" dy="0.00">name</tspan></text><text x="203.44" y="81.60" text-anchor="end" font-family="'trebuchet ms', verdana, arial, sans-serif" font-size="16" fill="#2F3B4D"><tspan x="203.44" dy="0.00">string</tspan></text><line x1="20.64" y1="89.60" x2="216.24" y2="89.60" stroke="#AAAA33" stroke-width="1.0" stroke-opacity="0.35"/><rect x="33.44" y="94.40" width="27.52" height="14.40" rx="7.20" ry="7.20" fill="#7C3AED"/><text x="47.20" y="105.76" text-anchor="middle" font-family="'trebuchet ms', verdana, arial, sans-serif" font-size="11.52" font-weight="600" fill="#FFFFFF">UK</text><text x="67.36" y="105.60" text-anchor="start" font-family="'trebuchet ms', verdana, arial, sans-serif" font-size="16" fill="#333333"><tspan x="67.36" dy="0.00">email</tspan></text><text x="203.44" y="105.60" text-anchor="end" font-family="'trebuchet ms', verdana, arial, sans-serif" font-size="16" fill="#2F3B4D"><tspan x="203.44" dy="0.00">string</tspan></text><line x1="20.64" y1="113.60" x2="216.24" y2="113.60" stroke="#AAAA33" stroke-width="1.0" stroke-opacity="0.35"/><text x="33.44" y="129.60" text-anchor="start" font-family="'trebuchet ms', verdana, arial, sans-serif" font-size="16" fill="#333333"><tspan x="33.44" dy="0.00">phone</tspan></text><text x="203.44" y="129.60" text-anchor="end" font-family="'trebuchet ms', verdana, arial, sans-serif" font-size="16" fill="#2F3B4D"><tspan x="203.44" dy="0.00">string</tspan></text><rect x="12.22" y="526.33" width="212.45" height="212.62" rx="6.00" ry="6.00" fill="#FFFFFF" stroke="#7B88A8" stroke-width="1.2"/><rect x="12.22" y="526.33" width="212.45" height="33.60" rx="6.00" ry="6.00" fill="#FFFFDE"/><text x="118.45" y="547.12" text-anchor="middle" font-family="'trebuchet ms', verdana, arial, sans-serif" font-size="16" fill="#333333"><tspan x="118.45" dy="0.00">LINE_ITEM</tspan></text><line x1="12.22" y1="559.92" x2="224.67" y2="559.92" stroke="#AAAA33" stroke-width="1.0" stroke-opacity="0.6"/><line x1="158.27" y1="559.92" x2="158.27" y2="738.95" stroke="#AAAA33" stroke-width="1.0" stroke-opacity="0.45"/><rect x="25.02" y="564.72" width="27.00" height="14.40" rx="7.20" ry="7.20" fill="#1D4ED8"/><text x="38.52" y="576.08" text-anchor="middle" font-family="'trebuchet ms', verdana, arial, sans-serif" font-size="11.52" font-weight="600" fill="#FFFFFF">PK</text><text x="58.42" y="575.92" text-anchor="start" font-family="'trebuchet ms', verdana, arial, sans-serif" font-size="16" fill="#333333"><tspan x="58.42" dy="0.00">id</tspan></text><text x="211.87" y="575.92" text-anchor="end" font-family="'trebuchet ms', verdana, arial, sans-serif" font-size="16" fill="#2F3B4D"><tspan x="211.87" dy="0.00">int</tspan></text><line x1="12.22" y1="583.92" x2="224.67" y2="583.92" stroke="#AAAA33" stroke-width="1.0" stroke-opacity="0.35"/><rect x="25.02" y="588.72" width="26.47" height="14.40" rx="7.20" ry="7.20" fill="#0F766E"/><text x="38.26" y="600.08" text-anchor="middle" font-family="'trebuchet ms', verdana, arial, sans-serif" font-size="11.52" font-weight="600" fill="#FFFFFF">FK</text><text x="57.89" y="599.92" text-anchor="start" font-family="'trebuchet ms', verdana, arial, sans-serif" font-size="16" fill="#333333"><tspan x="57.89" dy="0.00">order_id</tspan></text><text x="211.87" y="599.92" text-anchor="end" font-family="'trebuchet ms', verdana, arial, sans-serif" font-size="16" fill="#2F3B4D"><tspan x="211.87" dy="0.00">int</tspan></text><line x1="12.22" y1="607.92" x2="224.67" y2="607.92" stroke="#AAAA33" stroke-width="1.0" stroke-opacity="0.35"/><rect x="25.02" y="612.72" width="26.47" height="14.40" rx="7.20" ry="7.20" fill="#0F766E"/><text x="38.26" y="624.08" text-anchor="middle" font-family="'trebuchet ms', verdana, arial, sans-serif" font-size="11.52" font-weight="600" fill="#FFFFFF">FK</text><text x="57.89" y="623.92" text-anchor="start" font-family="'trebuchet ms', verdana, arial, sans-serif" font-size="16" fill="#333333"><tspan x="57.89" dy="0.00">product_id</tspan></text><text x="211.87" y="623.92" text-anchor="end" font-family="'trebuchet ms', verdana, arial, sans-serif" font-size="16" fill="#2F3B4D"><tspan x="211.87" dy="0.00">int</tspan></text><line x1="12.22" y1="631.92" x2="224.67" y2="631.92" stroke="#AAAA33" stroke-width="1.0" stroke-opacity="0.35"/><text x="25.02" y="647.92" text-anchor="start" font-family="'trebuchet ms', verdana, arial, sans-serif" font-size="16" fill="#333333"><tspan x="25.02" dy="0.00">quantity</tspan></text><text x="211.87" y="647.92" text-anchor="end" font-family="'trebuchet ms', verdana, arial, sans-serif" font-size="16" fill="#2F3B4D"><tspan x="211.87" dy="0.00">int</tspan></text><line x1="12.22" y1="655.92" x2="224.67" y2="655.92" stroke="#AAAA33" stroke-width="1.0" stroke-opacity="0.35"/><text x="25.02" y="671.92" text-anchor="start" font-family="'trebuchet ms', verdana, arial, sans-serif" font-size="16" fill="#333333"><tspan x="25.02" dy="0.00">unit_price</tspan></text><text x="211.87" y="671.92" text-anchor="end" font-family="'trebuchet ms', verdana, arial, sans-serif" font-size="16" fill="#2F3B4D"><tspan x="211.87" dy="0.00">float</tspan></text><rect x="8.00" y="263.12" width="220.87" height="212.62" rx="6.00" ry="6.00" fill="#FFFFFF" stroke="#7B88A8" stroke-width="1.2"/><rect x="8.00" y="263.12" width="220.87" height="33.60" rx="6.00" ry="6.00" fill="#FFFFDE"/><text x="118.44" y="283.92" text-anchor="middle" font-family="'trebuchet ms', verdana, arial, sans-serif" font-size="16" fill="#333333"><tspan x="118.44" dy="0.00">ORDER</tspan></text><line x1="8.00" y1="296.73" x2="228.87" y2="296.73" stroke="#AAAA33" stroke-width="1.0" stroke-opacity="0.6"/><line x1="155.19" y1="296.73" x2="155.19" y2="475.75" stroke="#AAAA33" stroke-width="1.0" stroke-opacity="0.45"/><rect x="20.80" y="301.52" width="27.00" height="14.40" rx="7.20" ry="7.20" fill="#1D4ED8"/><text x="34.30" y="312.89" text-anchor="middle" font-family="'trebuchet ms', verdana, arial, sans-serif" font-size="11.52" font-weight="600" fill="#FFFFFF">PK</text><text x="54.20" y="312.73" text-anchor="start" font-family="'trebuchet ms', verdana, arial, sans-serif" font-size="16" fill="#333333"><tspan x="54.20" dy="0.00">id</tspan></text><text x="216.07" y="312.73" text-anchor="end" font-family="'trebuchet ms', verdana, arial, sans-serif" font-size="16" fill="#2F3B4D"><tspan x="216.07" dy="0.00">int</tspan></text><line x1="8.00" y1="320.73" x2="228.87" y2="320.73" stroke="#AAAA33" stroke-width="1.0" stroke-opacity="0.35"/><rect x="20.80" y="325.52" width="26.47" height="14.40" rx="7.20" ry="7.20" fill="#0F766E"/><text x="34.04" y="336.89" text-anchor="middle" font-family="'trebuchet ms', verdana, arial, sans-serif" font-size="11.52" font-weight="600" fill="#FFFFFF">FK</text><text x="53.67" y="336.73" text-anchor="start" font-family="'trebuchet ms', verdana, arial, sans-serif" font-size="16" fill="#333333"><tspan x="53.67" dy="0.00">customer_id</tspan></text><text x="216.07" y="336.73" text-anchor="end" font-family="'trebuchet ms', verdana, arial, sans-serif" font-size="16" fill="#2F3B4D"><tspan x="216.07" dy="0.00">int</tspan></text><line x1="8.00" y1="344.73" x2="228.87" y2="344.73" stroke="#AAAA33" stroke-width="1.0" stroke-opacity="0.35"/><text x="20.80" y="360.73" text-anchor="start" font-family="'trebuchet ms', verdana, arial, sans-serif" font-size="16" fill="#333333"><tspan x="20.80" dy="0.00">order_date</tspan></text><text x="216.07" y="360.73" text-anchor="end" font-family="'trebuchet ms', verdana, arial, sans-serif" font-size="16" fill="#2F3B4D"><tspan x="216.07" dy="0.00">date</tspan></text><line x1="8.00" y1="368.73" x2="228.87" y2="368.73" stroke="#AAAA33" stroke-width="1.0" stroke-opacity="0.35"/><text x="20.80" y="384.73" text-anchor="start" font-family="'trebuchet ms', verdana, arial, sans-serif" font-size="16" fill="#333333"><tspan x="20.80" dy="0.00">status</tspan></text><text x="216.07" y="384.73" text-anchor="end" font-family="'trebuchet ms', verdana, arial, sans-serif" font-size="16" fill="#2F3B4D"><tspan x="216.07" dy="0.00">string</tspan></text><line x1="8.00" y1="392.73" x2="228.87" y2="392.73" stroke="#AAAA33" stroke-width="1.0" stroke-opacity="0.35"/><text x="20.80" y="408.73" text-anchor="start" font-family="'trebuchet ms', verdana, arial, sans-serif" font-size="16" fill="#333333"><tspan x="20.80" dy="0.00">total</tspan></text><text x="216.07" y="408.73" text-anchor="end" font-family="'trebuchet ms', verdana, arial, sans-serif" font-size="16" fill="#2F3B4D"><tspan x="216.07" dy="0.00">float</tspan></text><rect x="283.99" y="8.00" width="195.61" height="212.62" rx="6.00" ry="6.00" fill="#FFFFFF" stroke="#7B88A8" stroke-width="1.2"/><rect x="283.99" y="8.00" width="195.61" height="33.60" rx="6.00" ry="6.00" fill="#FFFFDE"/><text x="381.80" y="28.80" text-anchor="middle" font-family="'trebuchet ms', verdana, arial, sans-serif" font-size="16" fill="#333333"><tspan x="381.80" dy="0.00">PRODUCT</tspan></text><line x1="283.99" y1="41.60" x2="479.60" y2="41.60" stroke="#AAAA33" stroke-width="1.0" stroke-opacity="0.6"/><line x1="405.92" y1="41.60" x2="405.92" y2="220.62" stroke="#AAAA33" stroke-width="1.0" stroke-opacity="0.45"/><rect x="296.79" y="46.40" width="27.00" height="14.40" rx="7.20" ry="7.20" fill="#1D4ED8"/><text x="310.29" y="57.76" text-anchor="middle" font-family="'trebuchet ms', verdana, arial, sans-serif" font-size="11.52" font-weight="600" fill="#FFFFFF">PK</text><text x="330.20" y="57.60" text-anchor="start" font-family="'trebuchet ms', verdana, arial, sans-serif" font-size="16" fill="#333333"><tspan x="330.20" dy="0.00">id</tspan></text><text x="466.80" y="57.60" text-anchor="end" font-family="'trebuchet ms', verdana, arial, sans-serif" font-size="16" fill="#2F3B4D"><tspan x="466.80" dy="0.00">int</tspan></text><line x1="283.99" y1="65.60" x2="479.60" y2="65.60" stroke="#AAAA33" stroke-width="1.0" stroke-opacity="0.35"/><text x="296.79" y="81.60" text-anchor="start" font-family="'trebuchet ms', verdana, arial, sans-serif" font-size="16" fill="#333333"><tspan x="296.79" dy="0.00">name</tspan></text><text x="466.80" y="81.60" text-anchor="end" font-family="'trebuchet ms', verdana, arial, sans-serif" font-size="16" fill="#2F3B4D"><tspan x="466.80" dy="0.00">string</tspan></text><line x1="283.99" y1="89.60" x2="479.60" y2="89.60" stroke="#AAAA33" stroke-width="1.0" stroke-opacity="0.35"/><text x="296.79" y="105.60" text-anchor="start" font-family="'trebuchet ms', verdana, arial, sans-serif" font-size="16" fill="#333333"><tspan x="296.79" dy="0.00">category</tspan></text><text x="466.80" y="105.60" text-anchor="end" font-family="'trebuchet ms', verdana, arial, sans-serif" font-size="16" fill="#2F3B4D"><tspan x="466.80" dy="0.00">string</tspan></text><line x1="283.99" y1="113.60" x2="479.60" y2="113.60" stroke="#AAAA33" stroke-width="1.0" stroke-opacity="0.35"/><text x="296.79" y="129.60" text-anchor="start" font-family="'trebuchet ms', verdana, arial, sans-serif" font-size="16" fill="#333333"><tspan x="296.79" dy="0.00">price</tspan></text><text x="466.80" y="129.60" text-anchor="end" font-family="'trebuchet ms', verdana, arial, sans-serif" font-size="16" fill="#2F3B4D"><tspan x="466.80" dy="0.00">float</tspan></text><line x1="283.99" y1="137.60" x2="479.60" y2="137.60" stroke="#AAAA33" stroke-width="1.0" stroke-opacity="0.35"/><text x="296.79" y="153.60" text-anchor="start" font-family="'trebuchet ms', verdana, arial, sans-serif" font-size="16" fill="#333333"><tspan x="296.79" dy="0.00">stock</tspan></text><text x="466.80" y="153.60" text-anchor="end" font-family="'trebuchet ms', verdana, arial, sans-serif" font-size="16" fill="#2F3B4D"><tspan x="466.80" dy="0.00">int</tspan></text></svg>