<svg xmlns="http://www.w3.org/2000/svg" width="543.145" height="817.875" viewBox="0 0 543.145 817.875"><rect x="0" y="0" width="543.145" height="817.875" fill="#FFFFFF"/><defs><marker id="arrow-0" viewBox="0 0 10 10" refX="5" refY="5" markerUnits="userSpaceOnUse" markerWidth="8" markerHeight="8" orient="auto"><path d="M 0 0 L 10 5 L 0 10 z" fill="#2F3B4D" stroke="#2F3B4D" stroke-width="1" stroke-dasharray="1,0"/></marker><marker id="arrow-start-0" viewBox="0 0 10 10" refX="4.5" refY="5" markerUnits="userSpaceOnUse" markerWidth="8" markerHeight="8" orient="auto"><path d="M 0 5 L 10 10 L 10 0 z" fill="#2F3B4D" stroke="#2F3B4D" stroke-width="1" stroke-dasharray="1,0"/></marker></defs><path d="M 114.981,195.425L 114.981,196.883C114.981,198.342,114.981,201.258,114.981,204.175C114.981,207.092,114.981,210.008,115.672,212.751C116.363,215.493,117.745,218.062,123.531,228.811C129.316,239.560,139.504,258.490,145.289,269.239C151.075,279.988,152.457,282.557,153.148,285.299C153.839,288.042,153.839,290.958,153.839,293.875C153.839,296.792,153.839,299.708,153.839,301.167L 153.839,302.625" fill="none" stroke="#2F3B4D" stroke-width="1"    stroke-linecap="round" stroke-linejoin="round" /><g transform="translate(114.98 195.42) rotate(90.00)"><path d="M 0 -6 L 0 6 M 5 -6 L 5 6" fill="none" stroke="#2F3B4D" stroke-width="1" stroke-linejoin="round" stroke-linecap="round"/></g><g transform="translate(153.84 302.62) rotate(90.00)"><g><circle cx="-4" cy="0" r="4" fill="none" stroke="#2F3B4D" stroke-width="1"/><path d="M 4 0 L 12 -6 M 4 0 L 12 6" fill="none" stroke="#2F3B4D" stroke-width="1" stroke-linejoin="round" stroke-linecap="round"/></g></g><rect x="120.66" y="241.88" width="53.93" height="28.00" rx="2" ry="2" fill="rgba(248,250,252, 0.92)" fill-opacity="0.85" stroke="#7B88A8" stroke-opacity="0.35" stroke-width="0.8"/><text x="147.63" y="259.88" text-anchor="middle" font-family="'trebuchet ms', verdana, arial, sans-serif" font-size="16" fill="#333333"><tspan x="147.63" dy="0.00">places</tspan></text><path d="M 153.839,515.250L 153.839,516.708C153.839,518.167,153.839,521.083,153.839,524.000C153.839,526.917,153.839,529.833,154.058,532.733C154.277,535.634,154.714,538.517,155.684,544.909C156.654,551.300,158.156,561.200,159.126,567.591C160.096,573.983,160.533,576.866,160.752,579.767C160.971,582.667,160.971,585.583,160.971,588.500C160.971,591.417,160.971,594.333,160.971,595.792L 160.971,597.250" fill="none" stroke="#2F3B4D" stroke-width="1"    stroke-linecap="round" stroke-linejoin="round" /><g transform="translate(153.84 515.25) rotate(90.00)"><path d="M 0 -6 L 0 6 M 5 -6 L 5 6" fill="none" stroke="#2F3B4D" stroke-width="1" stroke-linejoin="round" stroke-linecap="round"/></g><g transform="translate(160.97 597.25) rotate(90.00)"><path d="M 0 -6 L 0 6 M 0 0 L 8 -6 M 0 0 L 8 6" fill="none" stroke="#2F3B4D" stroke-width="1" stroke-linejoin="round" stroke-linecap="round"/></g><rect x="122.78" y="542.25" width="69.24" height="28.00" rx="2" ry="2" fill="rgba(248,250,252, 0.92)" fill-opacity="0.85" stroke="#7B88A8" stroke-opacity="0.35" stroke-width="0.8"/><text x="157.40" y="560.25" text-anchor="middle" font-family="'trebuchet ms', verdana, arial, sans-serif" font-size="16" fill="#333333"><tspan x="157.40" dy="0.00">contains</tspan></text><path d="M 296.590,220.625L 296.590,222.083C296.590,223.542,296.590,226.458,296.590,229.375C296.590,232.292,296.590,235.208,296.557,238.125C296.525,241.041,296.460,243.957,295.222,299.436C293.985,354.916,291.575,462.959,290.338,518.439C289.101,573.918,289.036,576.834,289.003,579.750C288.971,582.667,288.971,585.583,288.971,588.500C288.971,591.417,288.971,594.333,288.971,595.792L 288.971,597.250" fill="none" stroke="#2F3B4D" stroke-width="1"    stroke-linecap="round" stroke-linejoin="round" /><g transform="translate(296.59 220.62) rotate(90.00)"><path d="M 0 -6 L 0 6 M 5 -6 L 5 6" fill="none" stroke="#2F3B4D" stroke-width="1" stroke-linejoin="round" stroke-linecap="round"/></g><g transform="translate(288.97 597.25) rotate(90.00)"><g><circle cx="-4" cy="0" r="4" fill="none" stroke="#2F3B4D" stroke-width="1"/><path d="M 4 0 L 12 -6 M 4 0 L 12 6" fill="none" stroke="#2F3B4D" stroke-width="1" stroke-linejoin="round" stroke-linecap="round"/></g></g><rect x="282.18" y="487.47" width="61.59" height="28.00" rx="2" ry="2" fill="rgba(248,250,252, 0.92)" fill-opacity="0.85" stroke="#7B88A8" stroke-opacity="0.35" stroke-width="0.8"/><text x="312.98" y="505.47" text-anchor="middle" font-family="'trebuchet ms', verdana, arial, sans-serif" font-size="16" fill="#333333"><tspan x="312.98" dy="0.00">&quot;is in&quot;</tspan></text><path d="M 424.590,220.625L 424.590,222.083C424.590,223.542,424.590,226.458,424.590,229.375C424.590,232.292,424.590,235.208,424.593,238.125C424.597,241.042,424.604,243.958,424.621,250.333C424.637,256.708,424.662,266.542,424.679,272.917C424.695,279.292,424.702,282.208,424.706,285.125C424.710,288.042,424.710,290.958,424.710,293.875C424.710,296.792,424.710,299.708,424.710,301.167L 424.710,302.625" fill="none" stroke="#2F3B4D" stroke-width="1"    stroke-linecap="round" stroke-linejoin="round" /><g transform="translate(424.59 220.62) rotate(90.00)"><g><circle cx="-4" cy="0" r="4" fill="none" stroke="#2F3B4D" stroke-width="1"/><path d="M 4 0 L 12 -6 M 4 0 L 12 6" fill="none" stroke="#2F3B4D" stroke-width="1" stroke-linejoin="round" stroke-linecap="round"/></g></g><g transform="translate(424.71 302.62) rotate(90.00)"><path d="M 0 -6 L 0 6 M 5 -6 L 5 6" fill="none" stroke="#2F3B4D" stroke-width="1" stroke-linejoin="round" stroke-linecap="round"/></g><rect x="374.74" y="254.67" width="99.86" height="28.00" rx="2" ry="2" fill="rgba(248,250,252, 0.92)" fill-opacity="0.85" stroke="#7B88A8" stroke-opacity="0.35" stroke-width="0.8"/><text x="424.67" y="272.67" text-anchor="middle" font-family="'trebuchet ms', verdana, arial, sans-serif" font-size="16" fill="#333333"><tspan x="424.67" dy="0.00">&quot;belongs to&quot;</tspan></text><rect x="314.27" y="302.62" width="220.87" height="162.22" rx="6.00" ry="6.00" fill="#FFFFFF" stroke="#7B88A8" stroke-width="1.2"/><rect x="314.27" y="302.62" width="220.87" height="33.60" rx="6.00" ry="6.00" fill="#FFFFDE"/><text x="424.71" y="323.42" text-anchor="middle" font-family="'trebuchet ms', verdana, arial, sans-serif" font-size="16" fill="#333333"><tspan x="424.71" dy="0.00">CATEGORY</tspan></text><line x1="314.27" y1="336.23" x2="535.15" y2="336.23" stroke="#AAAA33" stroke-width="1.0" stroke-opacity="0.6"/><line x1="461.47" y1="336.23" x2="461.47" y2="464.85" stroke="#AAAA33" stroke-width="1.0" stroke-opacity="0.45"/><rect x="327.07" y="341.02" width="27.00" height="14.40" rx="7.20" ry="7.20" fill="#1D4ED8"/><text x="340.58" y="352.39" text-anchor="middle" font-family="'trebuchet ms', verdana, arial, sans-serif" font-size="11.52" font-weight="600" fill="#FFFFFF">PK</text><text x="360.48" y="352.23" text-anchor="start" font-family="'trebuchet ms', verdana, arial, sans-serif" font-size="16" fill="#333333"><tspan x="360.48" dy="0.00">id</tspan></text><text x="522.35" y="352.23" text-anchor="end" font-family="'trebuchet ms', verdana, arial, sans-serif" font-size="16" fill="#2F3B4D"><tspan x="522.35" dy="0.00">int</tspan></text><line x1="314.27" y1="360.23" x2="535.15" y2="360.23" stroke="#AAAA33" stroke-width="1.0" stroke-opacity="0.35"/><text x="327.07" y="376.23" text-anchor="start" font-family="'trebuchet ms', verdana, arial, sans-serif" font-size="16" fill="#333333"><tspan x="327.07" dy="0.00">name</tspan></text><text x="522.35" y="376.23" text-anchor="end" font-family="'trebuchet ms', verdana, arial, sans-serif" font-size="16" fill="#2F3B4D"><tspan x="522.35" dy="0.00">string</tspan></text><line x1="314.27" y1="384.23" x2="535.15" y2="384.23" stroke="#AAAA33" stroke-width="1.0" stroke-opacity="0.35"/><text x="327.07" y="400.23" text-anchor="start" font-family="'trebuchet ms', verdana, arial, sans-serif" font-size="16" fill="#333333"><tspan x="327.07" dy="0.00">description</tspan></text><text x="522.35" y="400.23" text-anchor="end" font-family="'trebuchet ms', verdana, arial, sans-serif" font-size="16" fill="#2F3B4D"><tspan x="522.35" dy="0.00">string</tspan></text><rect x="17.18" y="8.00" width="195.61" height="187.42" rx="6.00" ry="6.00" fill="#FFFFFF" stroke="#7B88A8" stroke-width="1.2"/><rect x="17.18" y="8.00" width="195.61" height="33.60" rx="6.00" ry="6.00" fill="#FFFFDE"/><text x="114.98" y="28.80" text-anchor="middle" font-family="'trebuchet ms', verdana, arial, sans-serif" font-size="16" fill="#333333"><tspan x="114.98" dy="0.00">CUSTOMER</tspan></text><line x1="17.18" y1="41.60" x2="212.79" y2="41.60" stroke="#AAAA33" stroke-width="1.0" stroke-opacity="0.6"/><line x1="139.11" y1="41.60" x2="139.11" y2="195.42" stroke="#AAAA33" stroke-width="1.0" stroke-opacity="0.45"/><rect x="29.98" y="46.40" width="27.00" height="14.40" rx="7.20" ry="7.20" fill="#1D4ED8"/><text x="43.48" y="57.76" text-anchor="middle" font-family="'trebuchet ms', verdana, arial, sans-serif" font-size="11.52" font-weight="600" fill="#FFFFFF">PK</text><text x="63.38" y="57.60" text-anchor="start" font-family="'trebuchet ms', verdana, arial, sans-serif" font-size="16" fill="#333333"><tspan x="63.38" dy="0.00">id</tspan></text><text x="199.99" y="57.60" text-anchor="end" font-family="'trebuchet ms', verdana, arial, sans-serif" font-size="16" fill="#2F3B4D"><tspan x="199.99" dy="0.00">int</tspan></text><line x1="17.18" y1="65.60" x2="212.79" y2="65.60" stroke="#AAAA33" stroke-width="1.0" stroke-opacity="0.35"/><text x="29.98" y="81.60" text-anchor="start" font-family="'trebuchet ms', verdana, arial, sans-serif" font-size="16" fill="#333333"><tspan x="29.98" dy="0.00">name</tspan></text><text x="199.99" y="81.60" text-anchor="end" font-family="'trebuchet ms', verdana, arial, sans-serif" font-size="16" fill="#2F3B4D"><tspan x="199.99" dy="0.00">string</tspan></text><line x1="17.18" y1="89.60" x2="212.79" y2="89.60" stroke="#AAAA33" stroke-width="1.0" stroke-opacity="0.35"/><rect x="29.98" y="94.40" width="27.52" height="14.40" rx="7.20" ry="7.20" fill="#7C3AED"/><text x="43.74" y="105.76" text-anchor="middle" font-family="'trebuchet ms', verdana, arial, sans-serif" font-size="11.52" font-weight="600" fill="#FFFFFF">UK</text><text x="63.90" y="105.60" text-anchor="start" font-family="'trebuchet ms', verdana, arial, sans-serif" font-size="16" fill="#333333"><tspan x="63.90" dy="0.00">email</tspan></text><text x="199.99" y="105.60" text-anchor="end" font-family="'trebuchet ms', verdana, arial, sans-serif" font-size="16" fill="#2F3B4D"><tspan x="199.99" dy="0.00">string</tspan></text><line x1="17.18" y1="113.60" x2="212.79" y2="113.60" stroke="#AAAA33" stroke-width="1.0" stroke-opacity="0.35"/><text x="29.98" y="129.60" text-anchor="start" font-family="'trebuchet ms', verdana, arial, sans-serif" font-size="16" fill="#333333"><tspan x="29.98" dy="0.00">phone</tspan></text><text x="199.99" y="129.60" text-anchor="end" font-family="'trebuchet ms', verdana, arial, sans-serif" font-size="16" fill="#2F3B4D"><tspan x="199.99" dy="0.00">string</tspan></text><rect x="118.75" y="597.25" width="212.45" height="212.62" rx="6.00" ry="6.00" fill="#FFFFFF" stroke="#7B88A8" stroke-width="1.2"/><rect x="118.75" y="597.25" width="212.45" height="33.60" rx="6.00" ry="6.00" fill="#FFFFDE"/><text x="224.97" y="618.05" text-anchor="middle" font-family="'trebuchet ms', verdana, arial, sans-serif" font-size="16" fill="#333333"><tspan x="224.97" dy="0.00">LINE_ITEM</tspan></text><line x1="118.75" y1="630.85" x2="331.20" y2="630.85" stroke="#AAAA33" stroke-width="1.0" stroke-opacity="0.6"/><line x1="264.80" y1="630.85" x2="264.80" y2="809.88" stroke="#AAAA33" stroke-width="1.0" stroke-opacity="0.45"/><rect x="131.55" y="635.65" width="27.00" height="14.40" rx="7.20" ry="7.20" fill="#1D4ED8"/><text x="145.05" y="647.01" text-anchor="middle" font-family="'trebuchet ms', verdana, arial, sans-serif" font-size="11.52" font-weight="600" fill="#FFFFFF">PK</text><text x="164.95" y="646.85" text-anchor="start" font-family="'trebuchet ms', verdana, arial, sans-serif" font-size="16" fill="#333333"><tspan x="164.95" dy="0.00">id</tspan></text><text x="318.40" y="646.85" text-anchor="end" font-family="'trebuchet ms', verdana, arial, sans-serif" font-size="16" fill="#2F3B4D"><tspan x="318.40" dy="0.00">int</tspan></text><line x1="118.75" y1="654.85" x2="331.20" y2="654.85" stroke="#AAAA33" stroke-width="1.0" stroke-opacity="0.35"/><rect x="131.55" y="659.65" width="26.47" height="14.40" rx="7.20" ry="7.20" fill="#0F766E"/><text x="144.78" y="671.01" text-anchor="middle" font-family="'trebuchet ms', verdana, arial, sans-serif" font-size="11.52" font-weight="600" fill="#FFFFFF">FK</text><text x="164.42" y="670.85" text-anchor="start" font-family="'trebuchet ms', verdana, arial, sans-serif" font-size="16" fill="#333333"><tspan x="164.42" dy="0.00">order_id</tspan></text><text x="318.40" y="670.85" text-anchor="end" font-family="'trebuchet ms', verdana, arial, sans-serif" font-size="16" fill="#2F3B4D"><tspan x="318.40" dy="0.00">int</tspan></text><line x1="118.75" y1="678.85" x2="331.20" y2="678.85" stroke="#AAAA33" stroke-width="1.0" stroke-opacity="0.35"/><rect x="131.55" y="683.65" width="26.47" height="14.40" rx="7.20" ry="7.20" fill="#0F766E"/><text x="144.78" y="695.01" text-anchor="middle" font-family="'trebuchet ms', verdana, arial, sans-serif" font-size="11.52" font-weight="600" fill="#FFFFFF">FK</text><text x="164.42" y="694.85" text-anchor="start" font-family="'trebuchet ms', verdana, arial, sans-serif" font-size="16" fill="#333333"><tspan x="164.42" dy="0.00">product_id</tspan></text><text x="318.40" y="694.85" text-anchor="end" font-family="'trebuchet ms', verdana, arial, sans-serif" font-size="16" fill="#2F3B4D"><tspan x="318.40" dy="0.00">int</tspan></text><line x1="118.75" y1="702.85" x2="331.20" y2="702.85" stroke="#AAAA33" stroke-width="1.0" stroke-opacity="0.35"/><text x="131.55" y="718.85" text-anchor="start" font-family="'trebuchet ms', verdana, arial, sans-serif" font-size="16" fill="#333333"><tspan x="131.55" dy="0.00">quantity</tspan></text><text x="318.40" y="718.85" text-anchor="end" font-family="'trebuchet ms', verdana, arial, sans-serif" font-size="16" fill="#2F3B4D"><tspan x="318.40" dy="0.00">int</tspan></text><line x1="118.75" y1="726.85" x2="331.20" y2="726.85" stroke="#AAAA33" stroke-width="1.0" stroke-opacity="0.35"/><text x="131.55" y="742.85" text-anchor="start" font-family="'trebuchet ms', verdana, arial, sans-serif" font-size="16" fill="#333333"><tspan x="131.55" dy="0.00">unit_price</tspan></text><text x="318.40" y="742.85" text-anchor="end" font-family="'trebuchet ms', verdana, arial, sans-serif" font-size="16" fill="#2F3B4D"><tspan x="318.40" dy="0.00">float</tspan></text><rect x="43.40" y="302.62" width="220.87" height="212.62" rx="6.00" ry="6.00" fill="#FFFFFF" stroke="#7B88A8" stroke-width="1.2"/><rect x="43.40" y="302.62" width="220.87" height="33.60" rx="6.00" ry="6.00" fill="#FFFFDE"/><text x="153.84" y="323.42" text-anchor="middle" font-family="'trebuchet ms', verdana, arial, sans-serif" font-size="16" fill="#333333"><tspan x="153.84" dy="0.00">ORDER</tspan></text><line x1="43.40" y1="336.23" x2="264.27" y2="336.23" stroke="#AAAA33" stroke-width="1.0" stroke-opacity="0.6"/><line x1="190.59" y1="336.23" x2="190.59" y2="515.25" stroke="#AAAA33" stroke-width="1.0" stroke-opacity="0.45"/><rect x="56.20" y="341.02" width="27.00" height="14.40" rx="7.20" ry="7.20" fill="#1D4ED8"/><text x="69.71" y="352.39" text-anchor="middle" font-family="'trebuchet ms', verdana, arial, sans-serif" font-size="11.52" font-weight="600" fill="#FFFFFF">PK</text><text x="89.61" y="352.23" text-anchor="start" font-family="'trebuchet ms', verdana, arial, sans-serif" font-size="16" fill="#333333"><tspan x="89.61" dy="0.00">id</tspan></text><text x="251.47" y="352.23" text-anchor="end" font-family="'trebuchet ms', verdana, arial, sans-serif" font-size="16" fill="#2F3B4D"><tspan x="251.47" dy="0.00">int</tspan></text><line x1="43.40" y1="360.23" x2="264.27" y2="360.23" stroke="#AAAA33" stroke-width="1.0" stroke-opacity="0.35"/><rect x="56.20" y="365.02" width="26.47" height="14.40" rx="7.20" ry="7.20" fill="#0F766E"/><text x="69.44" y="376.39" text-anchor="middle" font-family="'trebuchet ms', verdana, arial, sans-serif" font-size="11.52" font-weight="600" fill="#FFFFFF">FK</text><text x="89.08" y="376.23" text-anchor="start" font-family="'trebuchet ms', verdana, arial, sans-serif" font-size="16" fill="#333333"><tspan x="89.08" dy="0.00">customer_id</tspan></text><text x="251.47" y="376.23" text-anchor="end" font-family="'trebuchet ms', verdana, arial, sans-serif" font-size="16" fill="#2F3B4D"><tspan x="251.47" dy="0.00">int</tspan></text><line x1="43.40" y1="384.23" x2="264.27" y2="384.23" stroke="#AAAA33" stroke-width="1.0" stroke-opacity="0.35"/><text x="56.20" y="400.23" text-anchor="start" font-family="'trebuchet ms', verdana, arial, sans-serif" font-size="16" fill="#333333"><tspan x="56.20" dy="0.00">order_date</tspan></text><text x="251.47" y="400.23" text-anchor="end" font-family="'trebuchet ms', verdana, arial, sans-serif" font-size="16" fill="#2F3B4D"><tspan x="251.47" dy="0.00">date</tspan></text><line x1="43.40" y1="408.23" x2="264.27" y2="408.23" stroke="#AAAA33" stroke-width="1.0" stroke-opacity="0.35"/><text x="56.20" y="424.23" text-anchor="start" font-family="'trebuchet ms', verdana, arial, sans-serif" font-size="16" fill="#333333"><tspan x="56.20" dy="0.00">status</tspan></text><text x="251.47" y="424.23" text-anchor="end" font-family="'trebuchet ms', verdana, arial, sans-serif" font-size="16" fill="#2F3B4D"><tspan x="251.47" dy="0.00">string</tspan></text><line x1="43.40" y1="432.23" x2="264.27" y2="432.23" stroke="#AAAA33" stroke-width="1.0" stroke-opacity="0.35"/><text x="56.20" y="448.23" text-anchor="start" font-family="'trebuchet ms', verdana, arial, sans-serif" font-size="16" fill="#333333"><tspan x="56.20" dy="0.00">total</tspan></text><text x="251.47" y="448.23" text-anchor="end" font-family="'trebuchet ms', verdana, arial, sans-serif" font-size="16" fill="#2F3B4D"><tspan x="251.47" dy="0.00">float</tspan></text><rect x="262.79" y="8.00" width="195.61" height="212.62" rx="6.00" ry="6.00" fill="#FFFFFF" stroke="#7B88A8" stroke-width="1.2"/><rect x="262.79" y="8.00" width="195.61" height="33.60" rx="6.00" ry="6.00" fill="#FFFFDE"/><text x="360.59" y="28.80" text-anchor="middle" font-family="'trebuchet ms', verdana, arial, sans-serif" font-size="16" fill="#333333"><tspan x="360.59" dy="0.00">PRODUCT</tspan></text><line x1="262.79" y1="41.60" x2="458.39" y2="41.60" stroke="#AAAA33" stroke-width="1.0" stroke-opacity="0.6"/><line x1="384.71" y1="41.60" x2="384.71" y2="220.62" stroke="#AAAA33" stroke-width="1.0" stroke-opacity="0.45"/><rect x="275.59" y="46.40" width="27.00" height="14.40" rx="7.20" ry="7.20" fill="#1D4ED8"/><text x="289.09" y="57.76" text-anchor="middle" font-family="'trebuchet ms', verdana, arial, sans-serif" font-size="11.52" font-weight="600" fill="#FFFFFF">PK</text><text x="308.99" y="57.60" text-anchor="start" font-family="'trebuchet ms', verdana, arial, sans-serif" font-size="16" fill="#333333"><tspan x="308.99" dy="0.00">id</tspan></text><text x="445.59" y="57.60" text-anchor="end" font-family="'trebuchet ms', verdana, arial, sans-serif" font-size="16" fill="#2F3B4D"><tspan x="445.59" dy="0.00">int</tspan></text><line x1="262.79" y1="65.60" x2="458.39" y2="65.60" stroke="#AAAA33" stroke-width="1.0" stroke-opacity="0.35"/><text x="275.59" y="81.60" text-anchor="start" font-family="'trebuchet ms', verdana, arial, sans-serif" font-size="16" fill="#333333"><tspan x="275.59" dy="0.00">name</tspan></text><text x="445.59" y="81.60" text-anchor="end" font-family="'trebuchet ms', verdana, arial, sans-serif" font-size="16" fill="#2F3B4D"><tspan x="445.59" dy="0.00">string</tspan></text><line x1="262.79" y1="89.60" x2="458.39" y2="89.60" stroke="#AAAA33" stroke-width="1.0" stroke-opacity="0.35"/><text x="275.59" y="105.60" text-anchor="start" font-family="'trebuchet ms', verdana, arial, sans-serif" font-size="16" fill="#333333"><tspan x="275.59" dy="0.00">category</tspan></text><text x="445.59" y="105.60" text-anchor="end" font-family="'trebuchet ms', verdana, arial, sans-serif" font-size="16" fill="#2F3B4D"><tspan x="445.59" dy="0.00">string</tspan></text><line x1="262.79" y1="113.60" x2="458.39" y2="113.60" stroke="#AAAA33" stroke-width="1.0" stroke-opacity="0.35"/><text x="275.59" y="129.60" text-anchor="start" font-family="'trebuchet ms', verdana, arial, sans-serif" font-size="16" fill="#333333"><tspan x="275.59" dy="0.00">price</tspan></text><text x="445.59" y="129.60" text-anchor="end" font-family="'trebuchet ms', verdana, arial, sans-serif" font-size="16" fill="#2F3B4D"><tspan x="445.59" dy="0.00">float</tspan></text><line x1="262.79" y1="137.60" x2="458.39" y2="137.60" stroke="#AAAA33" stroke-width="1.0" stroke-opacity="0.35"/><text x="275.59" y="153.60" text-anchor="start" font-family="'trebuchet ms', verdana, arial, sans-serif" font-size="16" fill="#333333"><tspan x="275.59" dy="0.00">stock</tspan></text><text x="445.59" y="153.60" text-anchor="end" font-family="'trebuchet ms', verdana, arial, sans-serif" font-size="16" fill="#2F3B4D"><tspan x="445.59" dy="0.00">int</tspan></text></svg>