<svg xmlns="http://www.w3.org/2000/svg" width="490.89996" height="637.2749" viewBox="0 0 490.89996 637.2749"><rect x="0" y="0" width="490.89996" height="637.2749" fill="#FFFFFF"/><defs><marker id="arrow-0" viewBox="0 0 10 10" refX="5" refY="5" markerUnits="userSpaceOnUse" markerWidth="8" markerHeight="8" orient="auto"><path d="M 0 0 L 10 5 L 0 10 z" fill="#2F3B4D" stroke="#2F3B4D" stroke-width="1" stroke-dasharray="1,0"/></marker><marker id="arrow-start-0" viewBox="0 0 10 10" refX="4.5" refY="5" markerUnits="userSpaceOnUse" markerWidth="8" markerHeight="8" orient="auto"><path d="M 0 5 L 10 10 L 10 0 z" fill="#2F3B4D" stroke="#2F3B4D" stroke-width="1" stroke-dasharray="1,0"/></marker></defs><path d="M 182.714,170.225L 182.714,171.683C182.714,173.142,182.714,176.058,182.714,178.975C182.714,181.892,182.714,184.808,181.313,186.670C179.911,188.531,177.108,189.337,167.095,192.218C157.081,195.098,139.858,200.052,129.844,202.932C119.831,205.812,117.028,206.619,115.626,208.480C114.225,210.342,114.225,213.258,114.225,216.175C114.225,219.092,114.225,222.008,114.225,223.467L 114.225,224.925" fill="none" stroke="#2F3B4D" stroke-width="1"    stroke-linecap="round" stroke-linejoin="round" /><g transform="translate(182.71 170.22) rotate(90.00)"><path d="M 0 -6 L 0 6 M 5 -6 L 5 6" fill="none" stroke="#2F3B4D" stroke-width="1" stroke-linejoin="round" stroke-linecap="round"/></g><g transform="translate(114.22 224.92) rotate(90.00)"><g><circle cx="-4" cy="0" r="4" fill="none" stroke="#2F3B4D" stroke-width="1"/><path d="M 4 0 L 12 -6 M 4 0 L 12 6" fill="none" stroke="#2F3B4D" stroke-width="1" stroke-linejoin="round" stroke-linecap="round"/></g></g><rect x="121.50" y="183.57" width="53.93" height="28.00" rx="2" ry="2" fill="rgba(248,250,252, 0.92)" fill-opacity="0.85" stroke="#7B88A8" stroke-opacity="0.35" stroke-width="0.8"/><text x="148.47" y="201.57" text-anchor="middle" font-family="'trebuchet ms', verdana, arial, sans-serif" font-size="16" fill="#333333"><tspan x="148.47" dy="0.00">writes</tspan></text><path d="M 305.160,170.225L 305.160,171.683C305.160,173.142,305.160,176.058,305.160,178.975C305.160,181.892,305.160,184.808,306.566,186.654C307.972,188.500,310.784,189.274,321.297,192.170C331.810,195.066,350.025,200.084,360.538,202.980C371.051,205.876,373.863,206.650,375.269,208.496C376.675,210.342,376.675,213.258,376.675,216.175C376.675,219.092,376.675,222.008,376.675,223.467L 376.675,224.925" fill="none" stroke="#2F3B4D" stroke-width="1"    stroke-linecap="round" stroke-linejoin="round" /><g transform="translate(305.16 170.22) rotate(90.00)"><path d="M 0 -6 L 0 6 M 5 -6 L 5 6" fill="none" stroke="#2F3B4D" stroke-width="1" stroke-linejoin="round" stroke-linecap="round"/></g><g transform="translate(376.67 224.92) rotate(90.00)"><g><circle cx="-4" cy="0" r="4" fill="none" stroke="#2F3B4D" stroke-width="1"/><path d="M 4 0 L 12 -6 M 4 0 L 12 6" fill="none" stroke="#2F3B4D" stroke-width="1" stroke-linejoin="round" stroke-linecap="round"/></g></g><rect x="325.43" y="183.57" width="30.97" height="28.00" rx="2" ry="2" fill="rgba(248,250,252, 0.92)" fill-opacity="0.85" stroke="#7B88A8" stroke-opacity="0.35" stroke-width="0.8"/><text x="340.92" y="201.57" text-anchor="middle" font-family="'trebuchet ms', verdana, arial, sans-serif" font-size="16" fill="#333333"><tspan x="340.92" dy="0.00">has</tspan></text><path d="M 114.225,412.350L 114.225,413.808C114.225,415.267,114.225,418.183,114.225,421.100C114.225,424.017,114.225,426.933,114.981,429.639C115.736,432.345,117.248,434.839,118.481,436.875C119.715,438.911,120.671,440.489,121.904,442.525C123.138,444.561,124.649,447.055,125.405,449.761C126.160,452.467,126.160,455.383,126.160,458.300C126.160,461.217,126.160,464.133,126.160,465.592L 126.160,467.050" fill="none" stroke="#2F3B4D" stroke-width="1"    stroke-linecap="round" stroke-linejoin="round" /><g transform="translate(114.22 412.35) rotate(90.00)"><path d="M 0 -6 L 0 6 M 5 -6 L 5 6" fill="none" stroke="#2F3B4D" stroke-width="1" stroke-linejoin="round" stroke-linecap="round"/></g><g transform="translate(126.16 467.05) rotate(90.00)"><g><circle cx="-4" cy="0" r="4" fill="none" stroke="#2F3B4D" stroke-width="1"/><path d="M 4 0 L 12 -6 M 4 0 L 12 6" fill="none" stroke="#2F3B4D" stroke-width="1" stroke-linejoin="round" stroke-linecap="round"/></g></g><rect x="85.57" y="425.70" width="69.24" height="28.00" rx="2" ry="2" fill="rgba(248,250,252, 0.92)" fill-opacity="0.85" stroke="#7B88A8" stroke-opacity="0.35" stroke-width="0.8"/><text x="120.19" y="443.70" text-anchor="middle" font-family="'trebuchet ms', verdana, arial, sans-serif" font-size="16" fill="#333333"><tspan x="120.19" dy="0.00">receives</tspan></text><rect x="19.94" y="467.05" width="212.45" height="162.22" rx="6.00" ry="6.00" fill="#FFFFFF" stroke="#7B88A8" stroke-width="1.2"/><rect x="19.94" y="467.05" width="212.45" height="33.60" rx="6.00" ry="6.00" fill="#FFFFDE"/><text x="126.16" y="487.85" text-anchor="middle" font-family="'trebuchet ms', verdana, arial, sans-serif" font-size="16" fill="#333333"><tspan x="126.16" dy="0.00">COMMENT</tspan></text><line x1="19.94" y1="500.65" x2="232.39" y2="500.65" stroke="#AAAA33" stroke-width="1.0" stroke-opacity="0.6"/><line x1="158.71" y1="500.65" x2="158.71" y2="629.27" stroke="#AAAA33" stroke-width="1.0" stroke-opacity="0.45"/><rect x="32.74" y="505.45" width="27.00" height="14.40" rx="7.20" ry="7.20" fill="#1D4ED8"/><text x="46.24" y="516.81" text-anchor="middle" font-family="'trebuchet ms', verdana, arial, sans-serif" font-size="11.52" font-weight="600" fill="#FFFFFF">PK</text><text x="66.14" y="516.65" text-anchor="start" font-family="'trebuchet ms', verdana, arial, sans-serif" font-size="16" fill="#333333"><tspan x="66.14" dy="0.00">id</tspan></text><text x="219.59" y="516.65" text-anchor="end" font-family="'trebuchet ms', verdana, arial, sans-serif" font-size="16" fill="#2F3B4D"><tspan x="219.59" dy="0.00">string</tspan></text><line x1="19.94" y1="524.65" x2="232.39" y2="524.65" stroke="#AAAA33" stroke-width="1.0" stroke-opacity="0.35"/><rect x="32.74" y="529.45" width="26.47" height="14.40" rx="7.20" ry="7.20" fill="#0F766E"/><text x="45.97" y="540.81" text-anchor="middle" font-family="'trebuchet ms', verdana, arial, sans-serif" font-size="11.52" font-weight="600" fill="#FFFFFF">FK</text><text x="65.61" y="540.65" text-anchor="start" font-family="'trebuchet ms', verdana, arial, sans-serif" font-size="16" fill="#333333"><tspan x="65.61" dy="0.00">post_id</tspan></text><text x="219.59" y="540.65" text-anchor="end" font-family="'trebuchet ms', verdana, arial, sans-serif" font-size="16" fill="#2F3B4D"><tspan x="219.59" dy="0.00">string</tspan></text><line x1="19.94" y1="548.65" x2="232.39" y2="548.65" stroke="#AAAA33" stroke-width="1.0" stroke-opacity="0.35"/><text x="32.74" y="564.65" text-anchor="start" font-family="'trebuchet ms', verdana, arial, sans-serif" font-size="16" fill="#333333"><tspan x="32.74" dy="0.00">body</tspan></text><text x="219.59" y="564.65" text-anchor="end" font-family="'trebuchet ms', verdana, arial, sans-serif" font-size="16" fill="#2F3B4D"><tspan x="219.59" dy="0.00">string</tspan></text><rect x="8.00" y="224.92" width="212.45" height="187.42" rx="6.00" ry="6.00" fill="#FFFFFF" stroke="#7B88A8" stroke-width="1.2"/><rect x="8.00" y="224.92" width="212.45" height="33.60" rx="6.00" ry="6.00" fill="#FFFFDE"/><text x="114.22" y="245.72" text-anchor="middle" font-family="'trebuchet ms', verdana, arial, sans-serif" font-size="16" fill="#333333"><tspan x="114.22" dy="0.00">POST</tspan></text><line x1="8.00" y1="258.52" x2="220.45" y2="258.52" stroke="#AAAA33" stroke-width="1.0" stroke-opacity="0.6"/><line x1="146.77" y1="258.52" x2="146.77" y2="412.35" stroke="#AAAA33" stroke-width="1.0" stroke-opacity="0.45"/><rect x="20.80" y="263.32" width="27.00" height="14.40" rx="7.20" ry="7.20" fill="#1D4ED8"/><text x="34.30" y="274.68" text-anchor="middle" font-family="'trebuchet ms', verdana, arial, sans-serif" font-size="11.52" font-weight="600" fill="#FFFFFF">PK</text><text x="54.20" y="274.52" text-anchor="start" font-family="'trebuchet ms', verdana, arial, sans-serif" font-size="16" fill="#333333"><tspan x="54.20" dy="0.00">id</tspan></text><text x="207.65" y="274.52" text-anchor="end" font-family="'trebuchet ms', verdana, arial, sans-serif" font-size="16" fill="#2F3B4D"><tspan x="207.65" dy="0.00">string</tspan></text><line x1="8.00" y1="282.52" x2="220.45" y2="282.52" stroke="#AAAA33" stroke-width="1.0" stroke-opacity="0.35"/><rect x="20.80" y="287.32" width="26.47" height="14.40" rx="7.20" ry="7.20" fill="#0F766E"/><text x="34.04" y="298.68" text-anchor="middle" font-family="'trebuchet ms', verdana, arial, sans-serif" font-size="11.52" font-weight="600" fill="#FFFFFF">FK</text><text x="53.67" y="298.52" text-anchor="start" font-family="'trebuchet ms', verdana, arial, sans-serif" font-size="16" fill="#333333"><tspan x="53.67" dy="0.00">user_id</tspan></text><text x="207.65" y="298.52" text-anchor="end" font-family="'trebuchet ms', verdana, arial, sans-serif" font-size="16" fill="#2F3B4D"><tspan x="207.65" dy="0.00">string</tspan></text><line x1="8.00" y1="306.52" x2="220.45" y2="306.52" stroke="#AAAA33" stroke-width="1.0" stroke-opacity="0.35"/><text x="20.80" y="322.52" text-anchor="start" font-family="'trebuchet ms', verdana, arial, sans-serif" font-size="16" fill="#333333"><tspan x="20.80" dy="0.00">title</tspan></text><text x="207.65" y="322.52" text-anchor="end" font-family="'trebuchet ms', verdana, arial, sans-serif" font-size="16" fill="#2F3B4D"><tspan x="207.65" dy="0.00">string</tspan></text><line x1="8.00" y1="330.52" x2="220.45" y2="330.52" stroke="#AAAA33" stroke-width="1.0" stroke-opacity="0.35"/><text x="20.80" y="346.52" text-anchor="start" font-family="'trebuchet ms', verdana, arial, sans-serif" font-size="16" fill="#333333"><tspan x="20.80" dy="0.00">status</tspan></text><text x="207.65" y="346.52" text-anchor="end" font-family="'trebuchet ms', verdana, arial, sans-serif" font-size="16" fill="#2F3B4D"><tspan x="207.65" dy="0.00">string</tspan></text><rect x="270.45" y="224.92" width="212.45" height="162.22" rx="6.00" ry="6.00" fill="#FFFFFF" stroke="#7B88A8" stroke-width="1.2"/><rect x="270.45" y="224.92" width="212.45" height="33.60" rx="6.00" ry="6.00" fill="#FFFFDE"/><text x="376.67" y="245.72" text-anchor="middle" font-family="'trebuchet ms', verdana, arial, sans-serif" font-size="16" fill="#333333"><tspan x="376.67" dy="0.00">SESSION</tspan></text><line x1="270.45" y1="258.52" x2="482.90" y2="258.52" stroke="#AAAA33" stroke-width="1.0" stroke-opacity="0.6"/><line x1="409.22" y1="258.52" x2="409.22" y2="387.15" stroke="#AAAA33" stroke-width="1.0" stroke-opacity="0.45"/><rect x="283.25" y="263.32" width="27.00" height="14.40" rx="7.20" ry="7.20" fill="#1D4ED8"/><text x="296.75" y="274.68" text-anchor="middle" font-family="'trebuchet ms', verdana, arial, sans-serif" font-size="11.52" font-weight="600" fill="#FFFFFF">PK</text><text x="316.65" y="274.52" text-anchor="start" font-family="'trebuchet ms', verdana, arial, sans-serif" font-size="16" fill="#333333"><tspan x="316.65" dy="0.00">id</tspan></text><text x="470.10" y="274.52" text-anchor="end" font-family="'trebuchet ms', verdana, arial, sans-serif" font-size="16" fill="#2F3B4D"><tspan x="470.10" dy="0.00">string</tspan></text><line x1="270.45" y1="282.52" x2="482.90" y2="282.52" stroke="#AAAA33" stroke-width="1.0" stroke-opacity="0.35"/><rect x="283.25" y="287.32" width="26.47" height="14.40" rx="7.20" ry="7.20" fill="#0F766E"/><text x="296.49" y="298.68" text-anchor="middle" font-family="'trebuchet ms', verdana, arial, sans-serif" font-size="11.52" font-weight="600" fill="#FFFFFF">FK</text><text x="316.12" y="298.52" text-anchor="start" font-family="'trebuchet ms', verdana, arial, sans-serif" font-size="16" fill="#333333"><tspan x="316.12" dy="0.00">user_id</tspan></text><text x="470.10" y="298.52" text-anchor="end" font-family="'trebuchet ms', verdana, arial, sans-serif" font-size="16" fill="#2F3B4D"><tspan x="470.10" dy="0.00">string</tspan></text><line x1="270.45" y1="306.52" x2="482.90" y2="306.52" stroke="#AAAA33" stroke-width="1.0" stroke-opacity="0.35"/><text x="283.25" y="322.52" text-anchor="start" font-family="'trebuchet ms', verdana, arial, sans-serif" font-size="16" fill="#333333"><tspan x="283.25" dy="0.00">created_at</tspan></text><text x="470.10" y="322.52" text-anchor="end" font-family="'trebuchet ms', verdana, arial, sans-serif" font-size="16" fill="#2F3B4D"><tspan x="470.10" dy="0.00">date</tspan></text><rect x="146.13" y="8.00" width="195.61" height="162.22" rx="6.00" ry="6.00" fill="#FFFFFF" stroke="#7B88A8" stroke-width="1.2"/><rect x="146.13" y="8.00" width="195.61" height="33.60" rx="6.00" ry="6.00" fill="#FFFFDE"/><text x="243.94" y="28.80" text-anchor="middle" font-family="'trebuchet ms', verdana, arial, sans-serif" font-size="16" fill="#333333"><tspan x="243.94" dy="0.00">USER</tspan></text><line x1="146.13" y1="41.60" x2="341.74" y2="41.60" stroke="#AAAA33" stroke-width="1.0" stroke-opacity="0.6"/><line x1="268.06" y1="41.60" x2="268.06" y2="170.22" stroke="#AAAA33" stroke-width="1.0" stroke-opacity="0.45"/><rect x="158.93" y="46.40" width="27.00" height="14.40" rx="7.20" ry="7.20" fill="#1D4ED8"/><text x="172.43" y="57.76" text-anchor="middle" font-family="'trebuchet ms', verdana, arial, sans-serif" font-size="11.52" font-weight="600" fill="#FFFFFF">PK</text><text x="192.34" y="57.60" text-anchor="start" font-family="'trebuchet ms', verdana, arial, sans-serif" font-size="16" fill="#333333"><tspan x="192.34" dy="0.00">id</tspan></text><text x="328.94" y="57.60" text-anchor="end" font-family="'trebuchet ms', verdana, arial, sans-serif" font-size="16" fill="#2F3B4D"><tspan x="328.94" dy="0.00">string</tspan></text><line x1="146.13" y1="65.60" x2="341.74" y2="65.60" stroke="#AAAA33" stroke-width="1.0" stroke-opacity="0.35"/><rect x="158.93" y="70.40" width="27.52" height="14.40" rx="7.20" ry="7.20" fill="#7C3AED"/><text x="172.69" y="81.76" text-anchor="middle" font-family="'trebuchet ms', verdana, arial, sans-serif" font-size="11.52" font-weight="600" fill="#FFFFFF">UK</text><text x="192.85" y="81.60" text-anchor="start" font-family="'trebuchet ms', verdana, arial, sans-serif" font-size="16" fill="#333333"><tspan x="192.85" dy="0.00">email</tspan></text><text x="328.94" y="81.60" text-anchor="end" font-family="'trebuchet ms', verdana, arial, sans-serif" font-size="16" fill="#2F3B4D"><tspan x="328.94" dy="0.00">string</tspan></text><line x1="146.13" y1="89.60" x2="341.74" y2="89.60" stroke="#AAAA33" stroke-width="1.0" stroke-opacity="0.35"/><text x="158.93" y="105.60" text-anchor="start" font-family="'trebuchet ms', verdana, arial, sans-serif" font-size="16" fill="#333333"><tspan x="158.93" dy="0.00">name</tspan></text><text x="328.94" y="105.60" text-anchor="end" font-family="'trebuchet ms', verdana, arial, sans-serif" font-size="16" fill="#2F3B4D"><tspan x="328.94" dy="0.00">string</tspan></text></svg>