<svg xmlns="http://www.w3.org/2000/svg" width="490.89996" height="691.87494" viewBox="0 0 490.89996 691.87494"><rect x="0" y="0" width="490.89996" height="691.87494" fill="#FFFFFF"/><defs><marker id="arrow-0" viewBox="0 0 10 10" refX="5" refY="5" markerUnits="userSpaceOnUse" markerWidth="8" markerHeight="8" orient="auto"><path d="M 0 0 L 10 5 L 0 10 z" fill="#2F3B4D" stroke="#2F3B4D" stroke-width="1" stroke-dasharray="1,0"/></marker><marker id="arrow-start-0" viewBox="0 0 10 10" refX="4.5" refY="5" markerUnits="userSpaceOnUse" markerWidth="8" markerHeight="8" orient="auto"><path d="M 0 5 L 10 10 L 10 0 z" fill="#2F3B4D" stroke="#2F3B4D" stroke-width="1" stroke-dasharray="1,0"/></marker></defs><path d="M 182.714,170.225L 182.714,171.683C182.714,173.142,182.714,176.058,182.714,178.975C182.714,181.892,182.714,184.808,181.512,187.092C180.309,189.375,177.904,191.026,167.692,198.034C157.479,205.042,139.460,217.408,129.247,224.416C119.035,231.424,116.630,233.075,115.427,235.358C114.225,237.642,114.225,240.558,114.225,243.475C114.225,246.392,114.225,249.308,114.225,250.767L 114.225,252.225" fill="none" stroke="#2F3B4D" stroke-width="1"    stroke-linecap="round" stroke-linejoin="round" /><g transform="translate(182.71 170.22) rotate(90.00)"><path d="M 0 -6 L 0 6 M 5 -6 L 5 6" fill="none" stroke="#2F3B4D" stroke-width="1" stroke-linejoin="round" stroke-linecap="round"/></g><g transform="translate(114.22 252.22) rotate(90.00)"><g><circle cx="-4" cy="0" r="4" fill="none" stroke="#2F3B4D" stroke-width="1"/><path d="M 4 0 L 12 -6 M 4 0 L 12 6" fill="none" stroke="#2F3B4D" stroke-width="1" stroke-linejoin="round" stroke-linecap="round"/></g></g><rect x="121.50" y="197.22" width="53.93" height="28.00" rx="2" ry="2" fill="rgba(248,250,252, 0.92)" fill-opacity="0.85" stroke="#7B88A8" stroke-opacity="0.35" stroke-width="0.8"/><text x="148.47" y="215.22" text-anchor="middle" font-family="'trebuchet ms', verdana, arial, sans-serif" font-size="16" fill="#333333"><tspan x="148.47" dy="0.00">writes</tspan></text><path d="M 305.160,170.225L 305.160,171.683C305.160,173.142,305.160,176.058,305.160,178.975C305.160,181.892,305.160,184.808,306.379,187.068C307.598,189.327,310.035,190.929,320.735,197.961C331.436,204.994,350.399,217.456,361.100,224.489C371.800,231.521,374.238,233.123,375.456,235.382C376.675,237.642,376.675,240.558,376.675,243.475C376.675,246.392,376.675,249.308,376.675,250.767L 376.675,252.225" fill="none" stroke="#2F3B4D" stroke-width="1"    stroke-linecap="round" stroke-linejoin="round" /><g transform="translate(305.16 170.22) rotate(90.00)"><path d="M 0 -6 L 0 6 M 5 -6 L 5 6" fill="none" stroke="#2F3B4D" stroke-width="1" stroke-linejoin="round" stroke-linecap="round"/></g><g transform="translate(376.67 252.22) rotate(90.00)"><g><circle cx="-4" cy="0" r="4" fill="none" stroke="#2F3B4D" stroke-width="1"/><path d="M 4 0 L 12 -6 M 4 0 L 12 6" fill="none" stroke="#2F3B4D" stroke-width="1" stroke-linejoin="round" stroke-linecap="round"/></g></g><rect x="325.43" y="197.22" width="30.97" height="28.00" rx="2" ry="2" fill="rgba(248,250,252, 0.92)" fill-opacity="0.85" stroke="#7B88A8" stroke-opacity="0.35" stroke-width="0.8"/><text x="340.92" y="215.22" text-anchor="middle" font-family="'trebuchet ms', verdana, arial, sans-serif" font-size="16" fill="#333333"><tspan x="340.92" dy="0.00">has</tspan></text><path d="M 114.225,439.650L 114.225,441.108C114.225,442.567,114.225,445.483,114.225,448.400C114.225,451.317,114.225,454.233,114.584,457.105C114.943,459.977,115.661,462.804,117.291,469.224C118.921,475.644,121.464,485.656,123.094,492.076C124.725,498.496,125.443,501.323,125.801,504.195C126.160,507.067,126.160,509.983,126.160,512.900C126.160,515.817,126.160,518.733,126.160,520.192L 126.160,521.650" fill="none" stroke="#2F3B4D" stroke-width="1"    stroke-linecap="round" stroke-linejoin="round" /><g transform="translate(114.22 439.65) rotate(90.00)"><path d="M 0 -6 L 0 6 M 5 -6 L 5 6" fill="none" stroke="#2F3B4D" stroke-width="1" stroke-linejoin="round" stroke-linecap="round"/></g><g transform="translate(126.16 521.65) rotate(90.00)"><g><circle cx="-4" cy="0" r="4" fill="none" stroke="#2F3B4D" stroke-width="1"/><path d="M 4 0 L 12 -6 M 4 0 L 12 6" fill="none" stroke="#2F3B4D" stroke-width="1" stroke-linejoin="round" stroke-linecap="round"/></g></g><rect x="85.57" y="466.65" width="69.24" height="28.00" rx="2" ry="2" fill="rgba(248,250,252, 0.92)" fill-opacity="0.85" stroke="#7B88A8" stroke-opacity="0.35" stroke-width="0.8"/><text x="120.19" y="484.65" text-anchor="middle" font-family="'trebuchet ms', verdana, arial, sans-serif" font-size="16" fill="#333333"><tspan x="120.19" dy="0.00">receives</tspan></text><rect x="19.94" y="521.65" width="212.45" height="162.22" rx="6.00" ry="6.00" fill="#FFFFFF" stroke="#7B88A8" stroke-width="1.2"/><rect x="19.94" y="521.65" width="212.45" height="33.60" rx="6.00" ry="6.00" fill="#FFFFDE"/><text x="126.16" y="542.45" text-anchor="middle" font-family="'trebuchet ms', verdana, arial, sans-serif" font-size="16" fill="#333333"><tspan x="126.16" dy="0.00">COMMENT</tspan></text><line x1="19.94" y1="555.25" x2="232.39" y2="555.25" stroke="#AAAA33" stroke-width="1.0" stroke-opacity="0.6"/><line x1="158.71" y1="555.25" x2="158.71" y2="683.87" stroke="#AAAA33" stroke-width="1.0" stroke-opacity="0.45"/><rect x="32.74" y="560.05" width="27.00" height="14.40" rx="7.20" ry="7.20" fill="#1D4ED8"/><text x="46.24" y="571.41" text-anchor="middle" font-family="'trebuchet ms', verdana, arial, sans-serif" font-size="11.52" font-weight="600" fill="#FFFFFF">PK</text><text x="66.14" y="571.25" text-anchor="start" font-family="'trebuchet ms', verdana, arial, sans-serif" font-size="16" fill="#333333"><tspan x="66.14" dy="0.00">id</tspan></text><text x="219.59" y="571.25" text-anchor="end" font-family="'trebuchet ms', verdana, arial, sans-serif" font-size="16" fill="#2F3B4D"><tspan x="219.59" dy="0.00">string</tspan></text><line x1="19.94" y1="579.25" x2="232.39" y2="579.25" stroke="#AAAA33" stroke-width="1.0" stroke-opacity="0.35"/><rect x="32.74" y="584.05" width="26.47" height="14.40" rx="7.20" ry="7.20" fill="#0F766E"/><text x="45.97" y="595.41" text-anchor="middle" font-family="'trebuchet ms', verdana, arial, sans-serif" font-size="11.52" font-weight="600" fill="#FFFFFF">FK</text><text x="65.61" y="595.25" text-anchor="start" font-family="'trebuchet ms', verdana, arial, sans-serif" font-size="16" fill="#333333"><tspan x="65.61" dy="0.00">post_id</tspan></text><text x="219.59" y="595.25" text-anchor="end" font-family="'trebuchet ms', verdana, arial, sans-serif" font-size="16" fill="#2F3B4D"><tspan x="219.59" dy="0.00">string</tspan></text><line x1="19.94" y1="603.25" x2="232.39" y2="603.25" stroke="#AAAA33" stroke-width="1.0" stroke-opacity="0.35"/><text x="32.74" y="619.25" text-anchor="start" font-family="'trebuchet ms', verdana, arial, sans-serif" font-size="16" fill="#333333"><tspan x="32.74" dy="0.00">body</tspan></text><text x="219.59" y="619.25" text-anchor="end" font-family="'trebuchet ms', verdana, arial, sans-serif" font-size="16" fill="#2F3B4D"><tspan x="219.59" dy="0.00">string</tspan></text><rect x="8.00" y="252.22" width="212.45" height="187.42" rx="6.00" ry="6.00" fill="#FFFFFF" stroke="#7B88A8" stroke-width="1.2"/><rect x="8.00" y="252.22" width="212.45" height="33.60" rx="6.00" ry="6.00" fill="#FFFFDE"/><text x="114.22" y="273.02" text-anchor="middle" font-family="'trebuchet ms', verdana, arial, sans-serif" font-size="16" fill="#333333"><tspan x="114.22" dy="0.00">POST</tspan></text><line x1="8.00" y1="285.82" x2="220.45" y2="285.82" stroke="#AAAA33" stroke-width="1.0" stroke-opacity="0.6"/><line x1="146.77" y1="285.82" x2="146.77" y2="439.65" stroke="#AAAA33" stroke-width="1.0" stroke-opacity="0.45"/><rect x="20.80" y="290.62" width="27.00" height="14.40" rx="7.20" ry="7.20" fill="#1D4ED8"/><text x="34.30" y="301.98" text-anchor="middle" font-family="'trebuchet ms', verdana, arial, sans-serif" font-size="11.52" font-weight="600" fill="#FFFFFF">PK</text><text x="54.20" y="301.82" text-anchor="start" font-family="'trebuchet ms', verdana, arial, sans-serif" font-size="16" fill="#333333"><tspan x="54.20" dy="0.00">id</tspan></text><text x="207.65" y="301.82" text-anchor="end" font-family="'trebuchet ms', verdana, arial, sans-serif" font-size="16" fill="#2F3B4D"><tspan x="207.65" dy="0.00">string</tspan></text><line x1="8.00" y1="309.82" x2="220.45" y2="309.82" stroke="#AAAA33" stroke-width="1.0" stroke-opacity="0.35"/><rect x="20.80" y="314.62" width="26.47" height="14.40" rx="7.20" ry="7.20" fill="#0F766E"/><text x="34.04" y="325.98" text-anchor="middle" font-family="'trebuchet ms', verdana, arial, sans-serif" font-size="11.52" font-weight="600" fill="#FFFFFF">FK</text><text x="53.67" y="325.82" text-anchor="start" font-family="'trebuchet ms', verdana, arial, sans-serif" font-size="16" fill="#333333"><tspan x="53.67" dy="0.00">user_id</tspan></text><text x="207.65" y="325.82" text-anchor="end" font-family="'trebuchet ms', verdana, arial, sans-serif" font-size="16" fill="#2F3B4D"><tspan x="207.65" dy="0.00">string</tspan></text><line x1="8.00" y1="333.82" x2="220.45" y2="333.82" stroke="#AAAA33" stroke-width="1.0" stroke-opacity="0.35"/><text x="20.80" y="349.82" text-anchor="start" font-family="'trebuchet ms', verdana, arial, sans-serif" font-size="16" fill="#333333"><tspan x="20.80" dy="0.00">title</tspan></text><text x="207.65" y="349.82" text-anchor="end" font-family="'trebuchet ms', verdana, arial, sans-serif" font-size="16" fill="#2F3B4D"><tspan x="207.65" dy="0.00">string</tspan></text><line x1="8.00" y1="357.82" x2="220.45" y2="357.82" stroke="#AAAA33" stroke-width="1.0" stroke-opacity="0.35"/><text x="20.80" y="373.82" text-anchor="start" font-family="'trebuchet ms', verdana, arial, sans-serif" font-size="16" fill="#333333"><tspan x="20.80" dy="0.00">status</tspan></text><text x="207.65" y="373.82" text-anchor="end" font-family="'trebuchet ms', verdana, arial, sans-serif" font-size="16" fill="#2F3B4D"><tspan x="207.65" dy="0.00">string</tspan></text><rect x="270.45" y="252.22" width="212.45" height="162.22" rx="6.00" ry="6.00" fill="#FFFFFF" stroke="#7B88A8" stroke-width="1.2"/><rect x="270.45" y="252.22" width="212.45" height="33.60" rx="6.00" ry="6.00" fill="#FFFFDE"/><text x="376.67" y="273.02" text-anchor="middle" font-family="'trebuchet ms', verdana, arial, sans-serif" font-size="16" fill="#333333"><tspan x="376.67" dy="0.00">SESSION</tspan></text><line x1="270.45" y1="285.82" x2="482.90" y2="285.82" stroke="#AAAA33" stroke-width="1.0" stroke-opacity="0.6"/><line x1="409.22" y1="285.82" x2="409.22" y2="414.45" stroke="#AAAA33" stroke-width="1.0" stroke-opacity="0.45"/><rect x="283.25" y="290.62" width="27.00" height="14.40" rx="7.20" ry="7.20" fill="#1D4ED8"/><text x="296.75" y="301.98" text-anchor="middle" font-family="'trebuchet ms', verdana, arial, sans-serif" font-size="11.52" font-weight="600" fill="#FFFFFF">PK</text><text x="316.65" y="301.82" text-anchor="start" font-family="'trebuchet ms', verdana, arial, sans-serif" font-size="16" fill="#333333"><tspan x="316.65" dy="0.00">id</tspan></text><text x="470.10" y="301.82" text-anchor="end" font-family="'trebuchet ms', verdana, arial, sans-serif" font-size="16" fill="#2F3B4D"><tspan x="470.10" dy="0.00">string</tspan></text><line x1="270.45" y1="309.82" x2="482.90" y2="309.82" stroke="#AAAA33" stroke-width="1.0" stroke-opacity="0.35"/><rect x="283.25" y="314.62" width="26.47" height="14.40" rx="7.20" ry="7.20" fill="#0F766E"/><text x="296.49" y="325.98" text-anchor="middle" font-family="'trebuchet ms', verdana, arial, sans-serif" font-size="11.52" font-weight="600" fill="#FFFFFF">FK</text><text x="316.12" y="325.82" text-anchor="start" font-family="'trebuchet ms', verdana, arial, sans-serif" font-size="16" fill="#333333"><tspan x="316.12" dy="0.00">user_id</tspan></text><text x="470.10" y="325.82" text-anchor="end" font-family="'trebuchet ms', verdana, arial, sans-serif" font-size="16" fill="#2F3B4D"><tspan x="470.10" dy="0.00">string</tspan></text><line x1="270.45" y1="333.82" x2="482.90" y2="333.82" stroke="#AAAA33" stroke-width="1.0" stroke-opacity="0.35"/><text x="283.25" y="349.82" text-anchor="start" font-family="'trebuchet ms', verdana, arial, sans-serif" font-size="16" fill="#333333"><tspan x="283.25" dy="0.00">created_at</tspan></text><text x="470.10" y="349.82" text-anchor="end" font-family="'trebuchet ms', verdana, arial, sans-serif" font-size="16" fill="#2F3B4D"><tspan x="470.10" dy="0.00">date</tspan></text><rect x="146.13" y="8.00" width="195.61" height="162.22" rx="6.00" ry="6.00" fill="#FFFFFF" stroke="#7B88A8" stroke-width="1.2"/><rect x="146.13" y="8.00" width="195.61" height="33.60" rx="6.00" ry="6.00" fill="#FFFFDE"/><text x="243.94" y="28.80" text-anchor="middle" font-family="'trebuchet ms', verdana, arial, sans-serif" font-size="16" fill="#333333"><tspan x="243.94" dy="0.00">USER</tspan></text><line x1="146.13" y1="41.60" x2="341.74" y2="41.60" stroke="#AAAA33" stroke-width="1.0" stroke-opacity="0.6"/><line x1="268.06" y1="41.60" x2="268.06" y2="170.22" stroke="#AAAA33" stroke-width="1.0" stroke-opacity="0.45"/><rect x="158.93" y="46.40" width="27.00" height="14.40" rx="7.20" ry="7.20" fill="#1D4ED8"/><text x="172.43" y="57.76" text-anchor="middle" font-family="'trebuchet ms', verdana, arial, sans-serif" font-size="11.52" font-weight="600" fill="#FFFFFF">PK</text><text x="192.34" y="57.60" text-anchor="start" font-family="'trebuchet ms', verdana, arial, sans-serif" font-size="16" fill="#333333"><tspan x="192.34" dy="0.00">id</tspan></text><text x="328.94" y="57.60" text-anchor="end" font-family="'trebuchet ms', verdana, arial, sans-serif" font-size="16" fill="#2F3B4D"><tspan x="328.94" dy="0.00">string</tspan></text><line x1="146.13" y1="65.60" x2="341.74" y2="65.60" stroke="#AAAA33" stroke-width="1.0" stroke-opacity="0.35"/><rect x="158.93" y="70.40" width="27.52" height="14.40" rx="7.20" ry="7.20" fill="#7C3AED"/><text x="172.69" y="81.76" text-anchor="middle" font-family="'trebuchet ms', verdana, arial, sans-serif" font-size="11.52" font-weight="600" fill="#FFFFFF">UK</text><text x="192.85" y="81.60" text-anchor="start" font-family="'trebuchet ms', verdana, arial, sans-serif" font-size="16" fill="#333333"><tspan x="192.85" dy="0.00">email</tspan></text><text x="328.94" y="81.60" text-anchor="end" font-family="'trebuchet ms', verdana, arial, sans-serif" font-size="16" fill="#2F3B4D"><tspan x="328.94" dy="0.00">string</tspan></text><line x1="146.13" y1="89.60" x2="341.74" y2="89.60" stroke="#AAAA33" stroke-width="1.0" stroke-opacity="0.35"/><text x="158.93" y="105.60" text-anchor="start" font-family="'trebuchet ms', verdana, arial, sans-serif" font-size="16" fill="#333333"><tspan x="158.93" dy="0.00">name</tspan></text><text x="328.94" y="105.60" text-anchor="end" font-family="'trebuchet ms', verdana, arial, sans-serif" font-size="16" fill="#2F3B4D"><tspan x="328.94" dy="0.00">string</tspan></text></svg>