<svg xmlns="http://www.w3.org/2000/svg" width="647.19653" height="817.875" viewBox="0 0 647.19653 817.875"><rect x="0" y="0" width="647.19653" height="817.875" fill="#FFFFFF"/><defs><marker id="arrow-0" viewBox="0 0 10 10" refX="5" refY="5" markerUnits="userSpaceOnUse" markerWidth="8" markerHeight="8" orient="auto"><path d="M 0 0 L 10 5 L 0 10 z" fill="#2F3B4D" stroke="#2F3B4D" stroke-width="1" stroke-dasharray="1,0"/></marker><marker id="arrow-start-0" viewBox="0 0 10 10" refX="4.5" refY="5" markerUnits="userSpaceOnUse" markerWidth="8" markerHeight="8" orient="auto"><path d="M 0 5 L 10 10 L 10 0 z" fill="#2F3B4D" stroke="#2F3B4D" stroke-width="1" stroke-dasharray="1,0"/></marker></defs><path d="M 119.801,195.425L 119.801,196.883C119.801,198.342,119.801,201.258,119.801,204.175C119.801,207.092,119.801,210.008,119.720,212.923C119.639,215.837,119.476,218.749,118.844,230.070C118.212,241.391,117.111,261.121,116.544,271.282C115.977,281.443,115.944,282.034,116.138,282.538C116.332,283.042,116.752,283.458,116.963,283.667C117.173,283.875,117.173,283.875,117.383,284.083C117.594,284.292,118.015,284.708,118.225,285.213C118.435,285.717,118.435,286.309,118.435,289.226C118.435,292.143,118.435,297.384,118.435,300.004L 118.435,302.625" fill="none" stroke="#2F3B4D" stroke-width="1"    stroke-linecap="round" stroke-linejoin="round" /><g transform="translate(119.80 195.42) rotate(90.00)"><path d="M 0 -6 L 0 6 M 5 -6 L 5 6" fill="none" stroke="#2F3B4D" stroke-width="1" stroke-linejoin="round" stroke-linecap="round"/></g><g transform="translate(118.44 302.62) rotate(90.00)"><g><circle cx="-4" cy="0" r="4" fill="none" stroke="#2F3B4D" stroke-width="1"/><path d="M 4 0 L 12 -6 M 4 0 L 12 6" fill="none" stroke="#2F3B4D" stroke-width="1" stroke-linejoin="round" stroke-linecap="round"/></g></g><rect x="88.95" y="268.62" width="53.93" height="28.00" rx="2" ry="2" fill="rgba(248,250,252, 0.92)" fill-opacity="0.85" stroke="#7B88A8" stroke-opacity="0.35" stroke-width="0.8"/><text x="115.91" y="286.62" text-anchor="middle" font-family="'trebuchet ms', verdana, arial, sans-serif" font-size="16" fill="#333333"><tspan x="115.91" dy="0.00">places</tspan></text><path d="M 118.435,515.250L 118.435,516.708C118.435,518.167,118.435,521.083,118.435,524.000C118.435,526.917,118.435,529.833,118.474,532.749C118.514,535.666,118.592,538.581,118.756,544.698C118.920,550.815,119.171,560.133,119.331,566.092C119.491,572.051,119.560,574.650,118.312,576.159C117.063,577.667,114.496,578.083,113.213,578.292C111.929,578.500,111.929,578.500,110.646,578.708C109.362,578.917,106.795,579.333,105.512,580.842C104.228,582.351,104.228,584.951,104.228,587.868C104.228,590.784,104.228,594.017,104.228,595.634L 104.228,597.250" fill="none" stroke="#2F3B4D" stroke-width="1"    stroke-linecap="round" stroke-linejoin="round" /><g transform="translate(118.44 515.25) rotate(90.00)"><path d="M 0 -6 L 0 6 M 5 -6 L 5 6" fill="none" stroke="#2F3B4D" stroke-width="1" stroke-linejoin="round" stroke-linecap="round"/></g><g transform="translate(104.23 597.25) rotate(90.00)"><path d="M 0 -6 L 0 6 M 0 0 L 8 -6 M 0 0 L 8 6" fill="none" stroke="#2F3B4D" stroke-width="1" stroke-linejoin="round" stroke-linecap="round"/></g><rect x="85.01" y="563.25" width="69.24" height="28.00" rx="2" ry="2" fill="rgba(248,250,252, 0.92)" fill-opacity="0.85" stroke="#7B88A8" stroke-opacity="0.35" stroke-width="0.8"/><text x="119.63" y="581.25" text-anchor="middle" font-family="'trebuchet ms', verdana, arial, sans-serif" font-size="16" fill="#333333"><tspan x="119.63" dy="0.00">contains</tspan></text><path d="M 402.707,220.625L 402.707,222.083C402.707,223.542,402.707,226.458,402.707,229.375C402.707,232.292,402.707,235.208,401.249,236.667C399.790,238.125,396.874,238.125,380.667,238.125C364.461,238.125,334.964,238.125,318.216,238.125C301.468,238.125,297.468,238.125,297.332,238.850C297.196,239.575,300.924,241.024,318.132,247.716C335.340,254.408,366.028,266.342,383.236,273.034C400.444,279.725,404.172,281.175,405.317,283.767C406.462,286.358,405.025,290.090,386.672,337.745C368.318,385.399,333.049,476.976,314.696,524.630C296.343,572.285,294.905,576.017,292.187,577.884C289.468,579.750,285.468,579.750,268.719,579.750C251.971,579.750,222.475,579.750,206.268,579.750C190.062,579.750,187.145,579.750,185.687,581.208C184.228,582.667,184.228,585.583,184.228,588.500C184.228,591.417,184.228,594.333,184.228,595.792L 184.228,597.250" fill="none" stroke="#2F3B4D" stroke-width="1"    stroke-linecap="round" stroke-linejoin="round" /><g transform="translate(402.71 220.62) rotate(90.00)"><path d="M 0 -6 L 0 6 M 5 -6 L 5 6" fill="none" stroke="#2F3B4D" stroke-width="1" stroke-linejoin="round" stroke-linecap="round"/></g><g transform="translate(184.23 597.25) rotate(90.00)"><g><circle cx="-4" cy="0" r="4" fill="none" stroke="#2F3B4D" stroke-width="1"/><path d="M 4 0 L 12 -6 M 4 0 L 12 6" fill="none" stroke="#2F3B4D" stroke-width="1" stroke-linejoin="round" stroke-linecap="round"/></g></g><rect x="377.11" y="268.62" width="61.59" height="28.00" rx="2" ry="2" fill="rgba(248,250,252, 0.92)" fill-opacity="0.85" stroke="#7B88A8" stroke-opacity="0.35" stroke-width="0.8"/><text x="407.90" y="286.62" text-anchor="middle" font-family="'trebuchet ms', verdana, arial, sans-serif" font-size="16" fill="#333333"><tspan x="407.90" dy="0.00">&quot;is in&quot;</tspan></text><path d="M 498.707,220.625L 498.707,222.083C498.707,223.542,498.707,226.458,498.707,229.375C498.707,232.292,498.707,235.208,499.557,237.852C500.407,240.495,502.107,242.865,506.550,249.061C510.994,255.256,518.180,265.276,522.650,271.508C527.119,277.740,528.871,280.182,528.259,281.612C527.646,283.042,524.669,283.458,523.136,283.673C521.604,283.887,521.515,283.900,520.027,284.108C518.538,284.316,515.650,284.721,514.206,286.381C512.761,288.042,512.761,290.958,512.761,293.875C512.761,296.792,512.761,299.708,512.761,301.167L 512.761,302.625" fill="none" stroke="#2F3B4D" stroke-width="1"    stroke-linecap="round" stroke-linejoin="round" /><g transform="translate(498.71 220.62) rotate(90.00)"><g><circle cx="-4" cy="0" r="4" fill="none" stroke="#2F3B4D" stroke-width="1"/><path d="M 4 0 L 12 -6 M 4 0 L 12 6" fill="none" stroke="#2F3B4D" stroke-width="1" stroke-linejoin="round" stroke-linecap="round"/></g></g><g transform="translate(512.76 302.62) rotate(90.00)"><path d="M 0 -6 L 0 6 M 5 -6 L 5 6" fill="none" stroke="#2F3B4D" stroke-width="1" stroke-linejoin="round" stroke-linecap="round"/></g><rect x="480.69" y="268.62" width="99.86" height="28.00" rx="2" ry="2" fill="rgba(248,250,252, 0.92)" fill-opacity="0.85" stroke="#7B88A8" stroke-opacity="0.35" stroke-width="0.8"/><text x="530.62" y="286.62" text-anchor="middle" font-family="'trebuchet ms', verdana, arial, sans-serif" font-size="16" fill="#333333"><tspan x="530.62" dy="0.00">&quot;belongs to&quot;</tspan></text><rect x="418.33" y="302.62" width="220.87" height="162.22" rx="6.00" ry="6.00" fill="#FFFFFF" stroke="#7B88A8" stroke-width="1.2"/><rect x="418.33" y="302.62" width="220.87" height="33.60" rx="6.00" ry="6.00" fill="#FFFFDE"/><text x="528.76" y="323.42" text-anchor="middle" font-family="'trebuchet ms', verdana, arial, sans-serif" font-size="16" fill="#333333"><tspan x="528.76" dy="0.00">CATEGORY</tspan></text><line x1="418.33" y1="336.23" x2="639.20" y2="336.23" stroke="#AAAA33" stroke-width="1.0" stroke-opacity="0.6"/><line x1="565.52" y1="336.23" x2="565.52" y2="464.85" stroke="#AAAA33" stroke-width="1.0" stroke-opacity="0.45"/><rect x="431.13" y="341.02" width="27.00" height="14.40" rx="7.20" ry="7.20" fill="#1D4ED8"/><text x="444.63" y="352.39" text-anchor="middle" font-family="'trebuchet ms', verdana, arial, sans-serif" font-size="11.52" font-weight="600" fill="#FFFFFF">PK</text><text x="464.53" y="352.23" text-anchor="start" font-family="'trebuchet ms', verdana, arial, sans-serif" font-size="16" fill="#333333"><tspan x="464.53" dy="0.00">id</tspan></text><text x="626.40" y="352.23" text-anchor="end" font-family="'trebuchet ms', verdana, arial, sans-serif" font-size="16" fill="#2F3B4D"><tspan x="626.40" dy="0.00">int</tspan></text><line x1="418.33" y1="360.23" x2="639.20" y2="360.23" stroke="#AAAA33" stroke-width="1.0" stroke-opacity="0.35"/><text x="431.13" y="376.23" text-anchor="start" font-family="'trebuchet ms', verdana, arial, sans-serif" font-size="16" fill="#333333"><tspan x="431.13" dy="0.00">name</tspan></text><text x="626.40" y="376.23" text-anchor="end" font-family="'trebuchet ms', verdana, arial, sans-serif" font-size="16" fill="#2F3B4D"><tspan x="626.40" dy="0.00">string</tspan></text><line x1="418.33" y1="384.23" x2="639.20" y2="384.23" stroke="#AAAA33" stroke-width="1.0" stroke-opacity="0.35"/><text x="431.13" y="400.23" text-anchor="start" font-family="'trebuchet ms', verdana, arial, sans-serif" font-size="16" fill="#333333"><tspan x="431.13" dy="0.00">description</tspan></text><text x="626.40" y="400.23" text-anchor="end" font-family="'trebuchet ms', verdana, arial, sans-serif" font-size="16" fill="#2F3B4D"><tspan x="626.40" dy="0.00">string</tspan></text><rect x="22.00" y="8.00" width="195.61" height="187.42" rx="6.00" ry="6.00" fill="#FFFFFF" stroke="#7B88A8" stroke-width="1.2"/><rect x="22.00" y="8.00" width="195.61" height="33.60" rx="6.00" ry="6.00" fill="#FFFFDE"/><text x="119.80" y="28.80" text-anchor="middle" font-family="'trebuchet ms', verdana, arial, sans-serif" font-size="16" fill="#333333"><tspan x="119.80" dy="0.00">CUSTOMER</tspan></text><line x1="22.00" y1="41.60" x2="217.61" y2="41.60" stroke="#AAAA33" stroke-width="1.0" stroke-opacity="0.6"/><line x1="143.93" y1="41.60" x2="143.93" y2="195.42" stroke="#AAAA33" stroke-width="1.0" stroke-opacity="0.45"/><rect x="34.80" y="46.40" width="27.00" height="14.40" rx="7.20" ry="7.20" fill="#1D4ED8"/><text x="48.30" y="57.76" text-anchor="middle" font-family="'trebuchet ms', verdana, arial, sans-serif" font-size="11.52" font-weight="600" fill="#FFFFFF">PK</text><text x="68.20" y="57.60" text-anchor="start" font-family="'trebuchet ms', verdana, arial, sans-serif" font-size="16" fill="#333333"><tspan x="68.20" dy="0.00">id</tspan></text><text x="204.81" y="57.60" text-anchor="end" font-family="'trebuchet ms', verdana, arial, sans-serif" font-size="16" fill="#2F3B4D"><tspan x="204.81" dy="0.00">int</tspan></text><line x1="22.00" y1="65.60" x2="217.61" y2="65.60" stroke="#AAAA33" stroke-width="1.0" stroke-opacity="0.35"/><text x="34.80" y="81.60" text-anchor="start" font-family="'trebuchet ms', verdana, arial, sans-serif" font-size="16" fill="#333333"><tspan x="34.80" dy="0.00">name</tspan></text><text x="204.81" y="81.60" text-anchor="end" font-family="'trebuchet ms', verdana, arial, sans-serif" font-size="16" fill="#2F3B4D"><tspan x="204.81" dy="0.00">string</tspan></text><line x1="22.00" y1="89.60" x2="217.61" y2="89.60" stroke="#AAAA33" stroke-width="1.0" stroke-opacity="0.35"/><rect x="34.80" y="94.40" width="27.52" height="14.40" rx="7.20" ry="7.20" fill="#7C3AED"/><text x="48.56" y="105.76" text-anchor="middle" font-family="'trebuchet ms', verdana, arial, sans-serif" font-size="11.52" font-weight="600" fill="#FFFFFF">UK</text><text x="68.72" y="105.60" text-anchor="start" font-family="'trebuchet ms', verdana, arial, sans-serif" font-size="16" fill="#333333"><tspan x="68.72" dy="0.00">email</tspan></text><text x="204.81" y="105.60" text-anchor="end" font-family="'trebuchet ms', verdana, arial, sans-serif" font-size="16" fill="#2F3B4D"><tspan x="204.81" dy="0.00">string</tspan></text><line x1="22.00" y1="113.60" x2="217.61" y2="113.60" stroke="#AAAA33" stroke-width="1.0" stroke-opacity="0.35"/><text x="34.80" y="129.60" text-anchor="start" font-family="'trebuchet ms', verdana, arial, sans-serif" font-size="16" fill="#333333"><tspan x="34.80" dy="0.00">phone</tspan></text><text x="204.81" y="129.60" text-anchor="end" font-family="'trebuchet ms', verdana, arial, sans-serif" font-size="16" fill="#2F3B4D"><tspan x="204.81" dy="0.00">string</tspan></text><rect x="14.00" y="597.25" width="212.45" height="212.62" rx="6.00" ry="6.00" fill="#FFFFFF" stroke="#7B88A8" stroke-width="1.2"/><rect x="14.00" y="597.25" width="212.45" height="33.60" rx="6.00" ry="6.00" fill="#FFFFDE"/><text x="120.23" y="618.05" text-anchor="middle" font-family="'trebuchet ms', verdana, arial, sans-serif" font-size="16" fill="#333333"><tspan x="120.23" dy="0.00">LINE_ITEM</tspan></text><line x1="14.00" y1="630.85" x2="226.45" y2="630.85" stroke="#AAAA33" stroke-width="1.0" stroke-opacity="0.6"/><line x1="160.05" y1="630.85" x2="160.05" y2="809.88" stroke="#AAAA33" stroke-width="1.0" stroke-opacity="0.45"/><rect x="26.80" y="635.65" width="27.00" height="14.40" rx="7.20" ry="7.20" fill="#1D4ED8"/><text x="40.30" y="647.01" text-anchor="middle" font-family="'trebuchet ms', verdana, arial, sans-serif" font-size="11.52" font-weight="600" fill="#FFFFFF">PK</text><text x="60.21" y="646.85" text-anchor="start" font-family="'trebuchet ms', verdana, arial, sans-serif" font-size="16" fill="#333333"><tspan x="60.21" dy="0.00">id</tspan></text><text x="213.65" y="646.85" text-anchor="end" font-family="'trebuchet ms', verdana, arial, sans-serif" font-size="16" fill="#2F3B4D"><tspan x="213.65" dy="0.00">int</tspan></text><line x1="14.00" y1="654.85" x2="226.45" y2="654.85" stroke="#AAAA33" stroke-width="1.0" stroke-opacity="0.35"/><rect x="26.80" y="659.65" width="26.47" height="14.40" rx="7.20" ry="7.20" fill="#0F766E"/><text x="40.04" y="671.01" text-anchor="middle" font-family="'trebuchet ms', verdana, arial, sans-serif" font-size="11.52" font-weight="600" fill="#FFFFFF">FK</text><text x="59.68" y="670.85" text-anchor="start" font-family="'trebuchet ms', verdana, arial, sans-serif" font-size="16" fill="#333333"><tspan x="59.68" dy="0.00">order_id</tspan></text><text x="213.65" y="670.85" text-anchor="end" font-family="'trebuchet ms', verdana, arial, sans-serif" font-size="16" fill="#2F3B4D"><tspan x="213.65" dy="0.00">int</tspan></text><line x1="14.00" y1="678.85" x2="226.45" y2="678.85" stroke="#AAAA33" stroke-width="1.0" stroke-opacity="0.35"/><rect x="26.80" y="683.65" width="26.47" height="14.40" rx="7.20" ry="7.20" fill="#0F766E"/><text x="40.04" y="695.01" text-anchor="middle" font-family="'trebuchet ms', verdana, arial, sans-serif" font-size="11.52" font-weight="600" fill="#FFFFFF">FK</text><text x="59.68" y="694.85" text-anchor="start" font-family="'trebuchet ms', verdana, arial, sans-serif" font-size="16" fill="#333333"><tspan x="59.68" dy="0.00">product_id</tspan></text><text x="213.65" y="694.85" text-anchor="end" font-family="'trebuchet ms', verdana, arial, sans-serif" font-size="16" fill="#2F3B4D"><tspan x="213.65" dy="0.00">int</tspan></text><line x1="14.00" y1="702.85" x2="226.45" y2="702.85" stroke="#AAAA33" stroke-width="1.0" stroke-opacity="0.35"/><text x="26.80" y="718.85" text-anchor="start" font-family="'trebuchet ms', verdana, arial, sans-serif" font-size="16" fill="#333333"><tspan x="26.80" dy="0.00">quantity</tspan></text><text x="213.65" y="718.85" text-anchor="end" font-family="'trebuchet ms', verdana, arial, sans-serif" font-size="16" fill="#2F3B4D"><tspan x="213.65" dy="0.00">int</tspan></text><line x1="14.00" y1="726.85" x2="226.45" y2="726.85" stroke="#AAAA33" stroke-width="1.0" stroke-opacity="0.35"/><text x="26.80" y="742.85" text-anchor="start" font-family="'trebuchet ms', verdana, arial, sans-serif" font-size="16" fill="#333333"><tspan x="26.80" dy="0.00">unit_price</tspan></text><text x="213.65" y="742.85" text-anchor="end" font-family="'trebuchet ms', verdana, arial, sans-serif" font-size="16" fill="#2F3B4D"><tspan x="213.65" dy="0.00">float</tspan></text><rect x="8.00" y="302.62" width="220.87" height="212.62" rx="6.00" ry="6.00" fill="#FFFFFF" stroke="#7B88A8" stroke-width="1.2"/><rect x="8.00" y="302.62" width="220.87" height="33.60" rx="6.00" ry="6.00" fill="#FFFFDE"/><text x="118.44" y="323.42" text-anchor="middle" font-family="'trebuchet ms', verdana, arial, sans-serif" font-size="16" fill="#333333"><tspan x="118.44" dy="0.00">ORDER</tspan></text><line x1="8.00" y1="336.23" x2="228.87" y2="336.23" stroke="#AAAA33" stroke-width="1.0" stroke-opacity="0.6"/><line x1="155.19" y1="336.23" x2="155.19" y2="515.25" stroke="#AAAA33" stroke-width="1.0" stroke-opacity="0.45"/><rect x="20.80" y="341.02" width="27.00" height="14.40" rx="7.20" ry="7.20" fill="#1D4ED8"/><text x="34.30" y="352.39" text-anchor="middle" font-family="'trebuchet ms', verdana, arial, sans-serif" font-size="11.52" font-weight="600" fill="#FFFFFF">PK</text><text x="54.20" y="352.23" text-anchor="start" font-family="'trebuchet ms', verdana, arial, sans-serif" font-size="16" fill="#333333"><tspan x="54.20" dy="0.00">id</tspan></text><text x="216.07" y="352.23" text-anchor="end" font-family="'trebuchet ms', verdana, arial, sans-serif" font-size="16" fill="#2F3B4D"><tspan x="216.07" dy="0.00">int</tspan></text><line x1="8.00" y1="360.23" x2="228.87" y2="360.23" stroke="#AAAA33" stroke-width="1.0" stroke-opacity="0.35"/><rect x="20.80" y="365.02" width="26.47" height="14.40" rx="7.20" ry="7.20" fill="#0F766E"/><text x="34.04" y="376.39" text-anchor="middle" font-family="'trebuchet ms', verdana, arial, sans-serif" font-size="11.52" font-weight="600" fill="#FFFFFF">FK</text><text x="53.67" y="376.23" text-anchor="start" font-family="'trebuchet ms', verdana, arial, sans-serif" font-size="16" fill="#333333"><tspan x="53.67" dy="0.00">customer_id</tspan></text><text x="216.07" y="376.23" text-anchor="end" font-family="'trebuchet ms', verdana, arial, sans-serif" font-size="16" fill="#2F3B4D"><tspan x="216.07" dy="0.00">int</tspan></text><line x1="8.00" y1="384.23" x2="228.87" y2="384.23" stroke="#AAAA33" stroke-width="1.0" stroke-opacity="0.35"/><text x="20.80" y="400.23" text-anchor="start" font-family="'trebuchet ms', verdana, arial, sans-serif" font-size="16" fill="#333333"><tspan x="20.80" dy="0.00">order_date</tspan></text><text x="216.07" y="400.23" text-anchor="end" font-family="'trebuchet ms', verdana, arial, sans-serif" font-size="16" fill="#2F3B4D"><tspan x="216.07" dy="0.00">date</tspan></text><line x1="8.00" y1="408.23" x2="228.87" y2="408.23" stroke="#AAAA33" stroke-width="1.0" stroke-opacity="0.35"/><text x="20.80" y="424.23" text-anchor="start" font-family="'trebuchet ms', verdana, arial, sans-serif" font-size="16" fill="#333333"><tspan x="20.80" dy="0.00">status</tspan></text><text x="216.07" y="424.23" text-anchor="end" font-family="'trebuchet ms', verdana, arial, sans-serif" font-size="16" fill="#2F3B4D"><tspan x="216.07" dy="0.00">string</tspan></text><line x1="8.00" y1="432.23" x2="228.87" y2="432.23" stroke="#AAAA33" stroke-width="1.0" stroke-opacity="0.35"/><text x="20.80" y="448.23" text-anchor="start" font-family="'trebuchet ms', verdana, arial, sans-serif" font-size="16" fill="#333333"><tspan x="20.80" dy="0.00">total</tspan></text><text x="216.07" y="448.23" text-anchor="end" font-family="'trebuchet ms', verdana, arial, sans-serif" font-size="16" fill="#2F3B4D"><tspan x="216.07" dy="0.00">float</tspan></text><rect x="368.90" y="8.00" width="195.61" height="212.62" rx="6.00" ry="6.00" fill="#FFFFFF" stroke="#7B88A8" stroke-width="1.2"/><rect x="368.90" y="8.00" width="195.61" height="33.60" rx="6.00" ry="6.00" fill="#FFFFDE"/><text x="466.71" y="28.80" text-anchor="middle" font-family="'trebuchet ms', verdana, arial, sans-serif" font-size="16" fill="#333333"><tspan x="466.71" dy="0.00">PRODUCT</tspan></text><line x1="368.90" y1="41.60" x2="564.51" y2="41.60" stroke="#AAAA33" stroke-width="1.0" stroke-opacity="0.6"/><line x1="490.83" y1="41.60" x2="490.83" y2="220.62" stroke="#AAAA33" stroke-width="1.0" stroke-opacity="0.45"/><rect x="381.70" y="46.40" width="27.00" height="14.40" rx="7.20" ry="7.20" fill="#1D4ED8"/><text x="395.20" y="57.76" text-anchor="middle" font-family="'trebuchet ms', verdana, arial, sans-serif" font-size="11.52" font-weight="600" fill="#FFFFFF">PK</text><text x="415.11" y="57.60" text-anchor="start" font-family="'trebuchet ms', verdana, arial, sans-serif" font-size="16" fill="#333333"><tspan x="415.11" dy="0.00">id</tspan></text><text x="551.71" y="57.60" text-anchor="end" font-family="'trebuchet ms', verdana, arial, sans-serif" font-size="16" fill="#2F3B4D"><tspan x="551.71" dy="0.00">int</tspan></text><line x1="368.90" y1="65.60" x2="564.51" y2="65.60" stroke="#AAAA33" stroke-width="1.0" stroke-opacity="0.35"/><text x="381.70" y="81.60" text-anchor="start" font-family="'trebuchet ms', verdana, arial, sans-serif" font-size="16" fill="#333333"><tspan x="381.70" dy="0.00">name</tspan></text><text x="551.71" y="81.60" text-anchor="end" font-family="'trebuchet ms', verdana, arial, sans-serif" font-size="16" fill="#2F3B4D"><tspan x="551.71" dy="0.00">string</tspan></text><line x1="368.90" y1="89.60" x2="564.51" y2="89.60" stroke="#AAAA33" stroke-width="1.0" stroke-opacity="0.35"/><text x="381.70" y="105.60" text-anchor="start" font-family="'trebuchet ms', verdana, arial, sans-serif" font-size="16" fill="#333333"><tspan x="381.70" dy="0.00">category</tspan></text><text x="551.71" y="105.60" text-anchor="end" font-family="'trebuchet ms', verdana, arial, sans-serif" font-size="16" fill="#2F3B4D"><tspan x="551.71" dy="0.00">string</tspan></text><line x1="368.90" y1="113.60" x2="564.51" y2="113.60" stroke="#AAAA33" stroke-width="1.0" stroke-opacity="0.35"/><text x="381.70" y="129.60" text-anchor="start" font-family="'trebuchet ms', verdana, arial, sans-serif" font-size="16" fill="#333333"><tspan x="381.70" dy="0.00">price</tspan></text><text x="551.71" y="129.60" text-anchor="end" font-family="'trebuchet ms', verdana, arial, sans-serif" font-size="16" fill="#2F3B4D"><tspan x="551.71" dy="0.00">float</tspan></text><line x1="368.90" y1="137.60" x2="564.51" y2="137.60" stroke="#AAAA33" stroke-width="1.0" stroke-opacity="0.35"/><text x="381.70" y="153.60" text-anchor="start" font-family="'trebuchet ms', verdana, arial, sans-serif" font-size="16" fill="#333333"><tspan x="381.70" dy="0.00">stock</tspan></text><text x="551.71" y="153.60" text-anchor="end" font-family="'trebuchet ms', verdana, arial, sans-serif" font-size="16" fill="#2F3B4D"><tspan x="551.71" dy="0.00">int</tspan></text></svg>