<svg xmlns="http://www.w3.org/2000/svg" width="507.7411" height="817.875" viewBox="0 0 507.7411 817.875"><rect x="0" y="0" width="507.7411" height="817.875" fill="#FFFFFF"/><defs><marker id="arrow-0" viewBox="0 0 10 10" refX="5" refY="5" markerUnits="userSpaceOnUse" markerWidth="8" markerHeight="8" orient="auto"><path d="M 0 0 L 10 5 L 0 10 z" fill="#2F3B4D" stroke="#2F3B4D" stroke-width="1" stroke-dasharray="1,0"/></marker><marker id="arrow-start-0" viewBox="0 0 10 10" refX="4.5" refY="5" markerUnits="userSpaceOnUse" markerWidth="8" markerHeight="8" orient="auto"><path d="M 0 5 L 10 10 L 10 0 z" fill="#2F3B4D" stroke="#2F3B4D" stroke-width="1" stroke-dasharray="1,0"/></marker></defs><path d="M 118.430,195.425L 118.430,196.883C118.430,198.342,118.430,201.258,118.430,204.175C118.430,207.092,118.430,210.008,117.575,212.648C116.719,215.287,115.008,217.649,107.766,227.646C100.524,237.643,87.751,255.275,80.191,265.711C72.632,276.146,70.285,279.386,71.109,281.104C71.933,282.823,75.929,283.021,82.888,283.365C89.848,283.710,99.772,284.201,106.190,284.519C112.609,284.837,115.522,284.981,116.979,286.511C118.435,288.042,118.435,290.958,118.435,293.875C118.435,296.792,118.435,299.708,118.435,301.167L 118.435,302.625" fill="none" stroke="#2F3B4D" stroke-width="1"    stroke-linecap="round" stroke-linejoin="round" /><g transform="translate(118.43 195.42) rotate(90.00)"><path d="M 0 -6 L 0 6 M 5 -6 L 5 6" fill="none" stroke="#2F3B4D" stroke-width="1" stroke-linejoin="round" stroke-linecap="round"/></g><g transform="translate(118.44 302.62) rotate(90.00)"><g><circle cx="-4" cy="0" r="4" fill="none" stroke="#2F3B4D" stroke-width="1"/><path d="M 4 0 L 12 -6 M 4 0 L 12 6" fill="none" stroke="#2F3B4D" stroke-width="1" stroke-linejoin="round" stroke-linecap="round"/></g></g><rect x="40.97" y="268.62" width="53.93" height="28.00" rx="2" ry="2" fill="rgba(248,250,252, 0.92)" fill-opacity="0.85" stroke="#7B88A8" stroke-opacity="0.35" stroke-width="0.8"/><text x="67.94" y="286.62" text-anchor="middle" font-family="'trebuchet ms', verdana, arial, sans-serif" font-size="16" fill="#333333"><tspan x="67.94" dy="0.00">places</tspan></text><path d="M 150.435,515.250L 150.435,516.708C150.435,518.167,150.435,521.083,150.435,524.000C150.435,526.917,150.435,529.833,151.119,532.580C151.802,535.326,153.169,537.903,156.641,544.446C160.112,550.989,165.688,561.498,168.939,567.626C172.191,573.755,173.118,575.502,174.549,576.584C175.980,577.667,177.914,578.083,178.881,578.292C179.848,578.500,179.848,578.500,180.815,578.708C181.782,578.917,183.716,579.333,184.683,580.531C185.650,581.728,185.650,583.707,185.650,586.624C185.650,589.540,185.650,593.395,185.650,595.323L 185.650,597.250" fill="none" stroke="#2F3B4D" stroke-width="1"    stroke-linecap="round" stroke-linejoin="round" /><g transform="translate(150.44 515.25) rotate(90.00)"><path d="M 0 -6 L 0 6 M 5 -6 L 5 6" fill="none" stroke="#2F3B4D" stroke-width="1" stroke-linejoin="round" stroke-linecap="round"/></g><g transform="translate(185.65 597.25) rotate(90.00)"><path d="M 0 -6 L 0 6 M 0 0 L 8 -6 M 0 0 L 8 6" fill="none" stroke="#2F3B4D" stroke-width="1" stroke-linejoin="round" stroke-linecap="round"/></g><rect x="139.43" y="563.25" width="69.24" height="28.00" rx="2" ry="2" fill="rgba(248,250,252, 0.92)" fill-opacity="0.85" stroke="#7B88A8" stroke-opacity="0.35" stroke-width="0.8"/><text x="174.05" y="581.25" text-anchor="middle" font-family="'trebuchet ms', verdana, arial, sans-serif" font-size="16" fill="#333333"><tspan x="174.05" dy="0.00">contains</tspan></text><path d="M 332.039,220.625L 332.039,222.083C332.039,223.542,332.039,226.458,332.039,229.375C332.039,232.292,332.039,235.208,330.581,236.667C329.122,238.125,326.206,238.125,314.007,238.125C301.808,238.125,280.326,238.125,267.585,238.125C254.845,238.125,250.845,238.125,247.101,239.105C243.358,240.085,239.871,242.046,228.423,248.482C216.975,254.919,197.566,265.831,186.118,272.268C174.670,278.704,171.183,280.665,169.955,283.577C168.726,286.490,169.756,290.355,182.432,337.944C195.109,385.532,219.432,476.843,232.109,524.431C244.785,572.020,245.815,575.885,248.330,577.817C250.845,579.750,254.845,579.750,259.187,579.750C263.530,579.750,268.215,579.750,272.016,579.750C275.817,579.750,278.734,579.750,280.192,581.208C281.650,582.667,281.650,585.583,281.650,588.500C281.650,591.417,281.650,594.333,281.650,595.792L 281.650,597.250" fill="none" stroke="#2F3B4D" stroke-width="1"    stroke-linecap="round" stroke-linejoin="round" /><g transform="translate(332.04 220.62) rotate(90.00)"><path d="M 0 -6 L 0 6 M 5 -6 L 5 6" fill="none" stroke="#2F3B4D" stroke-width="1" stroke-linejoin="round" stroke-linecap="round"/></g><g transform="translate(281.65 597.25) rotate(90.00)"><g><circle cx="-4" cy="0" r="4" fill="none" stroke="#2F3B4D" stroke-width="1"/><path d="M 4 0 L 12 -6 M 4 0 L 12 6" fill="none" stroke="#2F3B4D" stroke-width="1" stroke-linejoin="round" stroke-linecap="round"/></g></g><rect x="136.90" y="268.62" width="61.59" height="28.00" rx="2" ry="2" fill="rgba(248,250,252, 0.92)" fill-opacity="0.85" stroke="#7B88A8" stroke-opacity="0.35" stroke-width="0.8"/><text x="167.70" y="286.62" text-anchor="middle" font-family="'trebuchet ms', verdana, arial, sans-serif" font-size="16" fill="#333333"><tspan x="167.70" dy="0.00">&quot;is in&quot;</tspan></text><path d="M 380.039,220.625L 380.039,222.083C380.039,223.542,380.039,226.458,380.039,229.375C380.039,232.292,380.039,235.208,378.733,237.315C377.427,239.422,374.814,240.719,361.669,247.246C348.524,253.774,324.846,265.531,311.215,272.299C297.585,279.067,294.002,280.846,294.210,281.786C294.418,282.726,298.417,282.827,313.440,283.207C328.463,283.587,354.511,284.245,368.993,284.611C383.474,284.978,386.390,285.051,387.848,286.546C389.306,288.042,389.306,290.958,389.306,293.875C389.306,296.792,389.306,299.708,389.306,301.167L 389.306,302.625" fill="none" stroke="#2F3B4D" stroke-width="1"    stroke-linecap="round" stroke-linejoin="round" /><g transform="translate(380.04 220.62) rotate(90.00)"><g><circle cx="-4" cy="0" r="4" fill="none" stroke="#2F3B4D" stroke-width="1"/><path d="M 4 0 L 12 -6 M 4 0 L 12 6" fill="none" stroke="#2F3B4D" stroke-width="1" stroke-linejoin="round" stroke-linecap="round"/></g></g><g transform="translate(389.31 302.62) rotate(90.00)"><path d="M 0 -6 L 0 6 M 5 -6 L 5 6" fill="none" stroke="#2F3B4D" stroke-width="1" stroke-linejoin="round" stroke-linecap="round"/></g><rect x="240.49" y="268.62" width="99.86" height="28.00" rx="2" ry="2" fill="rgba(248,250,252, 0.92)" fill-opacity="0.85" stroke="#7B88A8" stroke-opacity="0.35" stroke-width="0.8"/><text x="290.42" y="286.62" text-anchor="middle" font-family="'trebuchet ms', verdana, arial, sans-serif" font-size="16" fill="#333333"><tspan x="290.42" dy="0.00">&quot;belongs to&quot;</tspan></text><rect x="278.87" y="302.62" width="220.87" height="162.22" rx="6.00" ry="6.00" fill="#FFFFFF" stroke="#7B88A8" stroke-width="1.2"/><rect x="278.87" y="302.62" width="220.87" height="33.60" rx="6.00" ry="6.00" fill="#FFFFDE"/><text x="389.31" y="323.42" text-anchor="middle" font-family="'trebuchet ms', verdana, arial, sans-serif" font-size="16" fill="#333333"><tspan x="389.31" dy="0.00">CATEGORY</tspan></text><line x1="278.87" y1="336.23" x2="499.74" y2="336.23" stroke="#AAAA33" stroke-width="1.0" stroke-opacity="0.6"/><line x1="426.06" y1="336.23" x2="426.06" y2="464.85" stroke="#AAAA33" stroke-width="1.0" stroke-opacity="0.45"/><rect x="291.67" y="341.02" width="27.00" height="14.40" rx="7.20" ry="7.20" fill="#1D4ED8"/><text x="305.17" y="352.39" text-anchor="middle" font-family="'trebuchet ms', verdana, arial, sans-serif" font-size="11.52" font-weight="600" fill="#FFFFFF">PK</text><text x="325.07" y="352.23" text-anchor="start" font-family="'trebuchet ms', verdana, arial, sans-serif" font-size="16" fill="#333333"><tspan x="325.07" dy="0.00">id</tspan></text><text x="486.94" y="352.23" text-anchor="end" font-family="'trebuchet ms', verdana, arial, sans-serif" font-size="16" fill="#2F3B4D"><tspan x="486.94" dy="0.00">int</tspan></text><line x1="278.87" y1="360.23" x2="499.74" y2="360.23" stroke="#AAAA33" stroke-width="1.0" stroke-opacity="0.35"/><text x="291.67" y="376.23" text-anchor="start" font-family="'trebuchet ms', verdana, arial, sans-serif" font-size="16" fill="#333333"><tspan x="291.67" dy="0.00">name</tspan></text><text x="486.94" y="376.23" text-anchor="end" font-family="'trebuchet ms', verdana, arial, sans-serif" font-size="16" fill="#2F3B4D"><tspan x="486.94" dy="0.00">string</tspan></text><line x1="278.87" y1="384.23" x2="499.74" y2="384.23" stroke="#AAAA33" stroke-width="1.0" stroke-opacity="0.35"/><text x="291.67" y="400.23" text-anchor="start" font-family="'trebuchet ms', verdana, arial, sans-serif" font-size="16" fill="#333333"><tspan x="291.67" dy="0.00">description</tspan></text><text x="486.94" y="400.23" text-anchor="end" font-family="'trebuchet ms', verdana, arial, sans-serif" font-size="16" fill="#2F3B4D"><tspan x="486.94" dy="0.00">string</tspan></text><rect x="20.63" y="8.00" width="195.61" height="187.42" rx="6.00" ry="6.00" fill="#FFFFFF" stroke="#7B88A8" stroke-width="1.2"/><rect x="20.63" y="8.00" width="195.61" height="33.60" rx="6.00" ry="6.00" fill="#FFFFDE"/><text x="118.43" y="28.80" text-anchor="middle" font-family="'trebuchet ms', verdana, arial, sans-serif" font-size="16" fill="#333333"><tspan x="118.43" dy="0.00">CUSTOMER</tspan></text><line x1="20.63" y1="41.60" x2="216.23" y2="41.60" stroke="#AAAA33" stroke-width="1.0" stroke-opacity="0.6"/><line x1="142.55" y1="41.60" x2="142.55" y2="195.42" stroke="#AAAA33" stroke-width="1.0" stroke-opacity="0.45"/><rect x="33.43" y="46.40" width="27.00" height="14.40" rx="7.20" ry="7.20" fill="#1D4ED8"/><text x="46.93" y="57.76" text-anchor="middle" font-family="'trebuchet ms', verdana, arial, sans-serif" font-size="11.52" font-weight="600" fill="#FFFFFF">PK</text><text x="66.83" y="57.60" text-anchor="start" font-family="'trebuchet ms', verdana, arial, sans-serif" font-size="16" fill="#333333"><tspan x="66.83" dy="0.00">id</tspan></text><text x="203.43" y="57.60" text-anchor="end" font-family="'trebuchet ms', verdana, arial, sans-serif" font-size="16" fill="#2F3B4D"><tspan x="203.43" dy="0.00">int</tspan></text><line x1="20.63" y1="65.60" x2="216.23" y2="65.60" stroke="#AAAA33" stroke-width="1.0" stroke-opacity="0.35"/><text x="33.43" y="81.60" text-anchor="start" font-family="'trebuchet ms', verdana, arial, sans-serif" font-size="16" fill="#333333"><tspan x="33.43" dy="0.00">name</tspan></text><text x="203.43" y="81.60" text-anchor="end" font-family="'trebuchet ms', verdana, arial, sans-serif" font-size="16" fill="#2F3B4D"><tspan x="203.43" dy="0.00">string</tspan></text><line x1="20.63" y1="89.60" x2="216.23" y2="89.60" stroke="#AAAA33" stroke-width="1.0" stroke-opacity="0.35"/><rect x="33.43" y="94.40" width="27.52" height="14.40" rx="7.20" ry="7.20" fill="#7C3AED"/><text x="47.19" y="105.76" text-anchor="middle" font-family="'trebuchet ms', verdana, arial, sans-serif" font-size="11.52" font-weight="600" fill="#FFFFFF">UK</text><text x="67.35" y="105.60" text-anchor="start" font-family="'trebuchet ms', verdana, arial, sans-serif" font-size="16" fill="#333333"><tspan x="67.35" dy="0.00">email</tspan></text><text x="203.43" y="105.60" text-anchor="end" font-family="'trebuchet ms', verdana, arial, sans-serif" font-size="16" fill="#2F3B4D"><tspan x="203.43" dy="0.00">string</tspan></text><line x1="20.63" y1="113.60" x2="216.23" y2="113.60" stroke="#AAAA33" stroke-width="1.0" stroke-opacity="0.35"/><text x="33.43" y="129.60" text-anchor="start" font-family="'trebuchet ms', verdana, arial, sans-serif" font-size="16" fill="#333333"><tspan x="33.43" dy="0.00">phone</tspan></text><text x="203.43" y="129.60" text-anchor="end" font-family="'trebuchet ms', verdana, arial, sans-serif" font-size="16" fill="#2F3B4D"><tspan x="203.43" dy="0.00">string</tspan></text><rect x="143.43" y="597.25" width="212.45" height="212.62" rx="6.00" ry="6.00" fill="#FFFFFF" stroke="#7B88A8" stroke-width="1.2"/><rect x="143.43" y="597.25" width="212.45" height="33.60" rx="6.00" ry="6.00" fill="#FFFFDE"/><text x="249.65" y="618.05" text-anchor="middle" font-family="'trebuchet ms', verdana, arial, sans-serif" font-size="16" fill="#333333"><tspan x="249.65" dy="0.00">LINE_ITEM</tspan></text><line x1="143.43" y1="630.85" x2="355.88" y2="630.85" stroke="#AAAA33" stroke-width="1.0" stroke-opacity="0.6"/><line x1="289.48" y1="630.85" x2="289.48" y2="809.88" stroke="#AAAA33" stroke-width="1.0" stroke-opacity="0.45"/><rect x="156.23" y="635.65" width="27.00" height="14.40" rx="7.20" ry="7.20" fill="#1D4ED8"/><text x="169.73" y="647.01" text-anchor="middle" font-family="'trebuchet ms', verdana, arial, sans-serif" font-size="11.52" font-weight="600" fill="#FFFFFF">PK</text><text x="189.63" y="646.85" text-anchor="start" font-family="'trebuchet ms', verdana, arial, sans-serif" font-size="16" fill="#333333"><tspan x="189.63" dy="0.00">id</tspan></text><text x="343.08" y="646.85" text-anchor="end" font-family="'trebuchet ms', verdana, arial, sans-serif" font-size="16" fill="#2F3B4D"><tspan x="343.08" dy="0.00">int</tspan></text><line x1="143.43" y1="654.85" x2="355.88" y2="654.85" stroke="#AAAA33" stroke-width="1.0" stroke-opacity="0.35"/><rect x="156.23" y="659.65" width="26.47" height="14.40" rx="7.20" ry="7.20" fill="#0F766E"/><text x="169.46" y="671.01" text-anchor="middle" font-family="'trebuchet ms', verdana, arial, sans-serif" font-size="11.52" font-weight="600" fill="#FFFFFF">FK</text><text x="189.10" y="670.85" text-anchor="start" font-family="'trebuchet ms', verdana, arial, sans-serif" font-size="16" fill="#333333"><tspan x="189.10" dy="0.00">order_id</tspan></text><text x="343.08" y="670.85" text-anchor="end" font-family="'trebuchet ms', verdana, arial, sans-serif" font-size="16" fill="#2F3B4D"><tspan x="343.08" dy="0.00">int</tspan></text><line x1="143.43" y1="678.85" x2="355.88" y2="678.85" stroke="#AAAA33" stroke-width="1.0" stroke-opacity="0.35"/><rect x="156.23" y="683.65" width="26.47" height="14.40" rx="7.20" ry="7.20" fill="#0F766E"/><text x="169.46" y="695.01" text-anchor="middle" font-family="'trebuchet ms', verdana, arial, sans-serif" font-size="11.52" font-weight="600" fill="#FFFFFF">FK</text><text x="189.10" y="694.85" text-anchor="start" font-family="'trebuchet ms', verdana, arial, sans-serif" font-size="16" fill="#333333"><tspan x="189.10" dy="0.00">product_id</tspan></text><text x="343.08" y="694.85" text-anchor="end" font-family="'trebuchet ms', verdana, arial, sans-serif" font-size="16" fill="#2F3B4D"><tspan x="343.08" dy="0.00">int</tspan></text><line x1="143.43" y1="702.85" x2="355.88" y2="702.85" stroke="#AAAA33" stroke-width="1.0" stroke-opacity="0.35"/><text x="156.23" y="718.85" text-anchor="start" font-family="'trebuchet ms', verdana, arial, sans-serif" font-size="16" fill="#333333"><tspan x="156.23" dy="0.00">quantity</tspan></text><text x="343.08" y="718.85" text-anchor="end" font-family="'trebuchet ms', verdana, arial, sans-serif" font-size="16" fill="#2F3B4D"><tspan x="343.08" dy="0.00">int</tspan></text><line x1="143.43" y1="726.85" x2="355.88" y2="726.85" stroke="#AAAA33" stroke-width="1.0" stroke-opacity="0.35"/><text x="156.23" y="742.85" text-anchor="start" font-family="'trebuchet ms', verdana, arial, sans-serif" font-size="16" fill="#333333"><tspan x="156.23" dy="0.00">unit_price</tspan></text><text x="343.08" y="742.85" text-anchor="end" font-family="'trebuchet ms', verdana, arial, sans-serif" font-size="16" fill="#2F3B4D"><tspan x="343.08" dy="0.00">float</tspan></text><rect x="8.00" y="302.62" width="220.87" height="212.62" rx="6.00" ry="6.00" fill="#FFFFFF" stroke="#7B88A8" stroke-width="1.2"/><rect x="8.00" y="302.62" width="220.87" height="33.60" rx="6.00" ry="6.00" fill="#FFFFDE"/><text x="118.44" y="323.42" text-anchor="middle" font-family="'trebuchet ms', verdana, arial, sans-serif" font-size="16" fill="#333333"><tspan x="118.44" dy="0.00">ORDER</tspan></text><line x1="8.00" y1="336.23" x2="228.87" y2="336.23" stroke="#AAAA33" stroke-width="1.0" stroke-opacity="0.6"/><line x1="155.19" y1="336.23" x2="155.19" y2="515.25" stroke="#AAAA33" stroke-width="1.0" stroke-opacity="0.45"/><rect x="20.80" y="341.02" width="27.00" height="14.40" rx="7.20" ry="7.20" fill="#1D4ED8"/><text x="34.30" y="352.39" text-anchor="middle" font-family="'trebuchet ms', verdana, arial, sans-serif" font-size="11.52" font-weight="600" fill="#FFFFFF">PK</text><text x="54.20" y="352.23" text-anchor="start" font-family="'trebuchet ms', verdana, arial, sans-serif" font-size="16" fill="#333333"><tspan x="54.20" dy="0.00">id</tspan></text><text x="216.07" y="352.23" text-anchor="end" font-family="'trebuchet ms', verdana, arial, sans-serif" font-size="16" fill="#2F3B4D"><tspan x="216.07" dy="0.00">int</tspan></text><line x1="8.00" y1="360.23" x2="228.87" y2="360.23" stroke="#AAAA33" stroke-width="1.0" stroke-opacity="0.35"/><rect x="20.80" y="365.02" width="26.47" height="14.40" rx="7.20" ry="7.20" fill="#0F766E"/><text x="34.04" y="376.39" text-anchor="middle" font-family="'trebuchet ms', verdana, arial, sans-serif" font-size="11.52" font-weight="600" fill="#FFFFFF">FK</text><text x="53.67" y="376.23" text-anchor="start" font-family="'trebuchet ms', verdana, arial, sans-serif" font-size="16" fill="#333333"><tspan x="53.67" dy="0.00">customer_id</tspan></text><text x="216.07" y="376.23" text-anchor="end" font-family="'trebuchet ms', verdana, arial, sans-serif" font-size="16" fill="#2F3B4D"><tspan x="216.07" dy="0.00">int</tspan></text><line x1="8.00" y1="384.23" x2="228.87" y2="384.23" stroke="#AAAA33" stroke-width="1.0" stroke-opacity="0.35"/><text x="20.80" y="400.23" text-anchor="start" font-family="'trebuchet ms', verdana, arial, sans-serif" font-size="16" fill="#333333"><tspan x="20.80" dy="0.00">order_date</tspan></text><text x="216.07" y="400.23" text-anchor="end" font-family="'trebuchet ms', verdana, arial, sans-serif" font-size="16" fill="#2F3B4D"><tspan x="216.07" dy="0.00">date</tspan></text><line x1="8.00" y1="408.23" x2="228.87" y2="408.23" stroke="#AAAA33" stroke-width="1.0" stroke-opacity="0.35"/><text x="20.80" y="424.23" text-anchor="start" font-family="'trebuchet ms', verdana, arial, sans-serif" font-size="16" fill="#333333"><tspan x="20.80" dy="0.00">status</tspan></text><text x="216.07" y="424.23" text-anchor="end" font-family="'trebuchet ms', verdana, arial, sans-serif" font-size="16" fill="#2F3B4D"><tspan x="216.07" dy="0.00">string</tspan></text><line x1="8.00" y1="432.23" x2="228.87" y2="432.23" stroke="#AAAA33" stroke-width="1.0" stroke-opacity="0.35"/><text x="20.80" y="448.23" text-anchor="start" font-family="'trebuchet ms', verdana, arial, sans-serif" font-size="16" fill="#333333"><tspan x="20.80" dy="0.00">total</tspan></text><text x="216.07" y="448.23" text-anchor="end" font-family="'trebuchet ms', verdana, arial, sans-serif" font-size="16" fill="#2F3B4D"><tspan x="216.07" dy="0.00">float</tspan></text><rect x="266.23" y="8.00" width="195.61" height="212.62" rx="6.00" ry="6.00" fill="#FFFFFF" stroke="#7B88A8" stroke-width="1.2"/><rect x="266.23" y="8.00" width="195.61" height="33.60" rx="6.00" ry="6.00" fill="#FFFFDE"/><text x="364.04" y="28.80" text-anchor="middle" font-family="'trebuchet ms', verdana, arial, sans-serif" font-size="16" fill="#333333"><tspan x="364.04" dy="0.00">PRODUCT</tspan></text><line x1="266.23" y1="41.60" x2="461.84" y2="41.60" stroke="#AAAA33" stroke-width="1.0" stroke-opacity="0.6"/><line x1="388.16" y1="41.60" x2="388.16" y2="220.62" stroke="#AAAA33" stroke-width="1.0" stroke-opacity="0.45"/><rect x="279.03" y="46.40" width="27.00" height="14.40" rx="7.20" ry="7.20" fill="#1D4ED8"/><text x="292.54" y="57.76" text-anchor="middle" font-family="'trebuchet ms', verdana, arial, sans-serif" font-size="11.52" font-weight="600" fill="#FFFFFF">PK</text><text x="312.44" y="57.60" text-anchor="start" font-family="'trebuchet ms', verdana, arial, sans-serif" font-size="16" fill="#333333"><tspan x="312.44" dy="0.00">id</tspan></text><text x="449.04" y="57.60" text-anchor="end" font-family="'trebuchet ms', verdana, arial, sans-serif" font-size="16" fill="#2F3B4D"><tspan x="449.04" dy="0.00">int</tspan></text><line x1="266.23" y1="65.60" x2="461.84" y2="65.60" stroke="#AAAA33" stroke-width="1.0" stroke-opacity="0.35"/><text x="279.03" y="81.60" text-anchor="start" font-family="'trebuchet ms', verdana, arial, sans-serif" font-size="16" fill="#333333"><tspan x="279.03" dy="0.00">name</tspan></text><text x="449.04" y="81.60" text-anchor="end" font-family="'trebuchet ms', verdana, arial, sans-serif" font-size="16" fill="#2F3B4D"><tspan x="449.04" dy="0.00">string</tspan></text><line x1="266.23" y1="89.60" x2="461.84" y2="89.60" stroke="#AAAA33" stroke-width="1.0" stroke-opacity="0.35"/><text x="279.03" y="105.60" text-anchor="start" font-family="'trebuchet ms', verdana, arial, sans-serif" font-size="16" fill="#333333"><tspan x="279.03" dy="0.00">category</tspan></text><text x="449.04" y="105.60" text-anchor="end" font-family="'trebuchet ms', verdana, arial, sans-serif" font-size="16" fill="#2F3B4D"><tspan x="449.04" dy="0.00">string</tspan></text><line x1="266.23" y1="113.60" x2="461.84" y2="113.60" stroke="#AAAA33" stroke-width="1.0" stroke-opacity="0.35"/><text x="279.03" y="129.60" text-anchor="start" font-family="'trebuchet ms', verdana, arial, sans-serif" font-size="16" fill="#333333"><tspan x="279.03" dy="0.00">price</tspan></text><text x="449.04" y="129.60" text-anchor="end" font-family="'trebuchet ms', verdana, arial, sans-serif" font-size="16" fill="#2F3B4D"><tspan x="449.04" dy="0.00">float</tspan></text><line x1="266.23" y1="137.60" x2="461.84" y2="137.60" stroke="#AAAA33" stroke-width="1.0" stroke-opacity="0.35"/><text x="279.03" y="153.60" text-anchor="start" font-family="'trebuchet ms', verdana, arial, sans-serif" font-size="16" fill="#333333"><tspan x="279.03" dy="0.00">stock</tspan></text><text x="449.04" y="153.60" text-anchor="end" font-family="'trebuchet ms', verdana, arial, sans-serif" font-size="16" fill="#2F3B4D"><tspan x="449.04" dy="0.00">int</tspan></text></svg>