<svg xmlns="http://www.w3.org/2000/svg" width="490.89996" height="691.87494" viewBox="0 0 490.89996 691.87494"><rect x="0" y="0" width="490.89996" height="691.87494" fill="#FFFFFF"/><defs><marker id="arrow-0" viewBox="0 0 10 10" refX="5" refY="5" markerUnits="userSpaceOnUse" markerWidth="8" markerHeight="8" orient="auto"><path d="M 0 0 L 10 5 L 0 10 z" fill="#2F3B4D" stroke="#2F3B4D" stroke-width="1" stroke-dasharray="1,0"/></marker><marker id="arrow-start-0" viewBox="0 0 10 10" refX="4.5" refY="5" markerUnits="userSpaceOnUse" markerWidth="8" markerHeight="8" orient="auto"><path d="M 0 5 L 10 10 L 10 0 z" fill="#2F3B4D" stroke="#2F3B4D" stroke-width="1" stroke-dasharray="1,0"/></marker></defs><path d="M 184.427,170.225L 184.427,171.683C184.427,173.142,184.427,176.058,184.427,178.975C184.427,181.892,184.427,184.808,183.546,187.429C182.665,190.050,180.904,192.374,175.849,199.045C170.795,205.716,162.447,216.734,157.392,223.405C152.337,230.076,150.576,232.400,149.695,235.021C148.815,237.642,148.815,240.558,148.815,243.475C148.815,246.392,148.815,249.308,148.815,250.767L 148.815,252.225" fill="none" stroke="#2F3B4D" stroke-width="1"    stroke-linecap="round" stroke-linejoin="round" /><g transform="translate(184.43 170.22) rotate(90.00)"><path d="M 0 -6 L 0 6 M 5 -6 L 5 6" fill="none" stroke="#2F3B4D" stroke-width="1" stroke-linejoin="round" stroke-linecap="round"/></g><g transform="translate(148.81 252.22) rotate(90.00)"><g><circle cx="-4" cy="0" r="4" fill="none" stroke="#2F3B4D" stroke-width="1"/><path d="M 4 0 L 12 -6 M 4 0 L 12 6" fill="none" stroke="#2F3B4D" stroke-width="1" stroke-linejoin="round" stroke-linecap="round"/></g></g><rect x="139.66" y="197.22" width="53.93" height="28.00" rx="2" ry="2" fill="rgba(248,250,252, 0.92)" fill-opacity="0.85" stroke="#7B88A8" stroke-opacity="0.35" stroke-width="0.8"/><text x="166.62" y="215.22" text-anchor="middle" font-family="'trebuchet ms', verdana, arial, sans-serif" font-size="16" fill="#333333"><tspan x="166.62" dy="0.00">writes</tspan></text><path d="M 304.707,170.225L 304.707,171.683C304.707,173.142,304.707,176.058,304.707,178.975C304.707,181.892,304.707,184.808,305.637,187.389C306.568,189.970,308.430,192.216,313.993,198.926C319.556,205.637,328.821,216.813,334.385,223.524C339.948,230.234,341.810,232.480,342.740,235.061C343.671,237.642,343.671,240.558,343.671,243.475C343.671,246.392,343.671,249.308,343.671,250.767L 343.671,252.225" fill="none" stroke="#2F3B4D" stroke-width="1"    stroke-linecap="round" stroke-linejoin="round" /><g transform="translate(304.71 170.22) rotate(90.00)"><path d="M 0 -6 L 0 6 M 5 -6 L 5 6" fill="none" stroke="#2F3B4D" stroke-width="1" stroke-linejoin="round" stroke-linecap="round"/></g><g transform="translate(343.67 252.22) rotate(90.00)"><g><circle cx="-4" cy="0" r="4" fill="none" stroke="#2F3B4D" stroke-width="1"/><path d="M 4 0 L 12 -6 M 4 0 L 12 6" fill="none" stroke="#2F3B4D" stroke-width="1" stroke-linejoin="round" stroke-linecap="round"/></g></g><rect x="308.71" y="197.22" width="30.97" height="28.00" rx="2" ry="2" fill="rgba(248,250,252, 0.92)" fill-opacity="0.85" stroke="#7B88A8" stroke-opacity="0.35" stroke-width="0.8"/><text x="324.19" y="215.22" text-anchor="middle" font-family="'trebuchet ms', verdana, arial, sans-serif" font-size="16" fill="#333333"><tspan x="324.19" dy="0.00">has</tspan></text><path d="M 117.408,439.650L 117.408,441.108C117.408,442.567,117.408,445.483,117.408,448.400C117.408,451.317,117.408,454.233,117.586,457.139C117.764,460.045,118.120,462.940,118.906,469.326C119.692,475.711,120.908,485.588,121.694,491.974C122.480,498.360,122.836,501.255,123.015,504.161C123.193,507.067,123.193,509.983,123.193,512.900C123.193,515.817,123.193,518.733,123.193,520.192L 123.193,521.650" fill="none" stroke="#2F3B4D" stroke-width="1"    stroke-linecap="round" stroke-linejoin="round" /><g transform="translate(117.41 439.65) rotate(90.00)"><path d="M 0 -6 L 0 6 M 5 -6 L 5 6" fill="none" stroke="#2F3B4D" stroke-width="1" stroke-linejoin="round" stroke-linecap="round"/></g><g transform="translate(123.19 521.65) rotate(90.00)"><g><circle cx="-4" cy="0" r="4" fill="none" stroke="#2F3B4D" stroke-width="1"/><path d="M 4 0 L 12 -6 M 4 0 L 12 6" fill="none" stroke="#2F3B4D" stroke-width="1" stroke-linejoin="round" stroke-linecap="round"/></g></g><rect x="62.63" y="483.50" width="69.24" height="28.00" rx="2" ry="2" fill="rgba(248,250,252, 0.92)" fill-opacity="0.85" stroke="#7B88A8" stroke-opacity="0.35" stroke-width="0.8"/><text x="97.25" y="501.50" text-anchor="middle" font-family="'trebuchet ms', verdana, arial, sans-serif" font-size="16" fill="#333333"><tspan x="97.25" dy="0.00">receives</tspan></text><rect x="19.94" y="521.65" width="212.45" height="162.22" rx="6.00" ry="6.00" fill="#FFFFFF" stroke="#7B88A8" stroke-width="1.2"/><rect x="19.94" y="521.65" width="212.45" height="33.60" rx="6.00" ry="6.00" fill="#FFFFDE"/><text x="126.16" y="542.45" text-anchor="middle" font-family="'trebuchet ms', verdana, arial, sans-serif" font-size="16" fill="#333333"><tspan x="126.16" dy="0.00">COMMENT</tspan></text><line x1="19.94" y1="555.25" x2="232.39" y2="555.25" stroke="#AAAA33" stroke-width="1.0" stroke-opacity="0.6"/><line x1="158.71" y1="555.25" x2="158.71" y2="683.87" stroke="#AAAA33" stroke-width="1.0" stroke-opacity="0.45"/><rect x="32.74" y="560.05" width="27.00" height="14.40" rx="7.20" ry="7.20" fill="#1D4ED8"/><text x="46.24" y="571.41" text-anchor="middle" font-family="'trebuchet ms', verdana, arial, sans-serif" font-size="11.52" font-weight="600" fill="#FFFFFF">PK</text><text x="66.14" y="571.25" text-anchor="start" font-family="'trebuchet ms', verdana, arial, sans-serif" font-size="16" fill="#333333"><tspan x="66.14" dy="0.00">id</tspan></text><text x="219.59" y="571.25" text-anchor="end" font-family="'trebuchet ms', verdana, arial, sans-serif" font-size="16" fill="#2F3B4D"><tspan x="219.59" dy="0.00">string</tspan></text><line x1="19.94" y1="579.25" x2="232.39" y2="579.25" stroke="#AAAA33" stroke-width="1.0" stroke-opacity="0.35"/><rect x="32.74" y="584.05" width="26.47" height="14.40" rx="7.20" ry="7.20" fill="#0F766E"/><text x="45.97" y="595.41" text-anchor="middle" font-family="'trebuchet ms', verdana, arial, sans-serif" font-size="11.52" font-weight="600" fill="#FFFFFF">FK</text><text x="65.61" y="595.25" text-anchor="start" font-family="'trebuchet ms', verdana, arial, sans-serif" font-size="16" fill="#333333"><tspan x="65.61" dy="0.00">post_id</tspan></text><text x="219.59" y="595.25" text-anchor="end" font-family="'trebuchet ms', verdana, arial, sans-serif" font-size="16" fill="#2F3B4D"><tspan x="219.59" dy="0.00">string</tspan></text><line x1="19.94" y1="603.25" x2="232.39" y2="603.25" stroke="#AAAA33" stroke-width="1.0" stroke-opacity="0.35"/><text x="32.74" y="619.25" text-anchor="start" font-family="'trebuchet ms', verdana, arial, sans-serif" font-size="16" fill="#333333"><tspan x="32.74" dy="0.00">body</tspan></text><text x="219.59" y="619.25" text-anchor="end" font-family="'trebuchet ms', verdana, arial, sans-serif" font-size="16" fill="#2F3B4D"><tspan x="219.59" dy="0.00">string</tspan></text><rect x="8.00" y="252.22" width="212.45" height="187.42" rx="6.00" ry="6.00" fill="#FFFFFF" stroke="#7B88A8" stroke-width="1.2"/><rect x="8.00" y="252.22" width="212.45" height="33.60" rx="6.00" ry="6.00" fill="#FFFFDE"/><text x="114.22" y="273.02" text-anchor="middle" font-family="'trebuchet ms', verdana, arial, sans-serif" font-size="16" fill="#333333"><tspan x="114.22" dy="0.00">POST</tspan></text><line x1="8.00" y1="285.82" x2="220.45" y2="285.82" stroke="#AAAA33" stroke-width="1.0" stroke-opacity="0.6"/><line x1="146.77" y1="285.82" x2="146.77" y2="439.65" stroke="#AAAA33" stroke-width="1.0" stroke-opacity="0.45"/><rect x="20.80" y="290.62" width="27.00" height="14.40" rx="7.20" ry="7.20" fill="#1D4ED8"/><text x="34.30" y="301.98" text-anchor="middle" font-family="'trebuchet ms', verdana, arial, sans-serif" font-size="11.52" font-weight="600" fill="#FFFFFF">PK</text><text x="54.20" y="301.82" text-anchor="start" font-family="'trebuchet ms', verdana, arial, sans-serif" font-size="16" fill="#333333"><tspan x="54.20" dy="0.00">id</tspan></text><text x="207.65" y="301.82" text-anchor="end" font-family="'trebuchet ms', verdana, arial, sans-serif" font-size="16" fill="#2F3B4D"><tspan x="207.65" dy="0.00">string</tspan></text><line x1="8.00" y1="309.82" x2="220.45" y2="309.82" stroke="#AAAA33" stroke-width="1.0" stroke-opacity="0.35"/><rect x="20.80" y="314.62" width="26.47" height="14.40" rx="7.20" ry="7.20" fill="#0F766E"/><text x="34.04" y="325.98" text-anchor="middle" font-family="'trebuchet ms', verdana, arial, sans-serif" font-size="11.52" font-weight="600" fill="#FFFFFF">FK</text><text x="53.67" y="325.82" text-anchor="start" font-family="'trebuchet ms', verdana, arial, sans-serif" font-size="16" fill="#333333"><tspan x="53.67" dy="0.00">user_id</tspan></text><text x="207.65" y="325.82" text-anchor="end" font-family="'trebuchet ms', verdana, arial, sans-serif" font-size="16" fill="#2F3B4D"><tspan x="207.65" dy="0.00">string</tspan></text><line x1="8.00" y1="333.82" x2="220.45" y2="333.82" stroke="#AAAA33" stroke-width="1.0" stroke-opacity="0.35"/><text x="20.80" y="349.82" text-anchor="start" font-family="'trebuchet ms', verdana, arial, sans-serif" font-size="16" fill="#333333"><tspan x="20.80" dy="0.00">title</tspan></text><text x="207.65" y="349.82" text-anchor="end" font-family="'trebuchet ms', verdana, arial, sans-serif" font-size="16" fill="#2F3B4D"><tspan x="207.65" dy="0.00">string</tspan></text><line x1="8.00" y1="357.82" x2="220.45" y2="357.82" stroke="#AAAA33" stroke-width="1.0" stroke-opacity="0.35"/><text x="20.80" y="373.82" text-anchor="start" font-family="'trebuchet ms', verdana, arial, sans-serif" font-size="16" fill="#333333"><tspan x="20.80" dy="0.00">status</tspan></text><text x="207.65" y="373.82" text-anchor="end" font-family="'trebuchet ms', verdana, arial, sans-serif" font-size="16" fill="#2F3B4D"><tspan x="207.65" dy="0.00">string</tspan></text><rect x="270.45" y="252.22" width="212.45" height="162.22" rx="6.00" ry="6.00" fill="#FFFFFF" stroke="#7B88A8" stroke-width="1.2"/><rect x="270.45" y="252.22" width="212.45" height="33.60" rx="6.00" ry="6.00" fill="#FFFFDE"/><text x="376.67" y="273.02" text-anchor="middle" font-family="'trebuchet ms', verdana, arial, sans-serif" font-size="16" fill="#333333"><tspan x="376.67" dy="0.00">SESSION</tspan></text><line x1="270.45" y1="285.82" x2="482.90" y2="285.82" stroke="#AAAA33" stroke-width="1.0" stroke-opacity="0.6"/><line x1="409.22" y1="285.82" x2="409.22" y2="414.45" stroke="#AAAA33" stroke-width="1.0" stroke-opacity="0.45"/><rect x="283.25" y="290.62" width="27.00" height="14.40" rx="7.20" ry="7.20" fill="#1D4ED8"/><text x="296.75" y="301.98" text-anchor="middle" font-family="'trebuchet ms', verdana, arial, sans-serif" font-size="11.52" font-weight="600" fill="#FFFFFF">PK</text><text x="316.65" y="301.82" text-anchor="start" font-family="'trebuchet ms', verdana, arial, sans-serif" font-size="16" fill="#333333"><tspan x="316.65" dy="0.00">id</tspan></text><text x="470.10" y="301.82" text-anchor="end" font-family="'trebuchet ms', verdana, arial, sans-serif" font-size="16" fill="#2F3B4D"><tspan x="470.10" dy="0.00">string</tspan></text><line x1="270.45" y1="309.82" x2="482.90" y2="309.82" stroke="#AAAA33" stroke-width="1.0" stroke-opacity="0.35"/><rect x="283.25" y="314.62" width="26.47" height="14.40" rx="7.20" ry="7.20" fill="#0F766E"/><text x="296.49" y="325.98" text-anchor="middle" font-family="'trebuchet ms', verdana, arial, sans-serif" font-size="11.52" font-weight="600" fill="#FFFFFF">FK</text><text x="316.12" y="325.82" text-anchor="start" font-family="'trebuchet ms', verdana, arial, sans-serif" font-size="16" fill="#333333"><tspan x="316.12" dy="0.00">user_id</tspan></text><text x="470.10" y="325.82" text-anchor="end" font-family="'trebuchet ms', verdana, arial, sans-serif" font-size="16" fill="#2F3B4D"><tspan x="470.10" dy="0.00">string</tspan></text><line x1="270.45" y1="333.82" x2="482.90" y2="333.82" stroke="#AAAA33" stroke-width="1.0" stroke-opacity="0.35"/><text x="283.25" y="349.82" text-anchor="start" font-family="'trebuchet ms', verdana, arial, sans-serif" font-size="16" fill="#333333"><tspan x="283.25" dy="0.00">created_at</tspan></text><text x="470.10" y="349.82" text-anchor="end" font-family="'trebuchet ms', verdana, arial, sans-serif" font-size="16" fill="#2F3B4D"><tspan x="470.10" dy="0.00">date</tspan></text><rect x="146.13" y="8.00" width="195.61" height="162.22" rx="6.00" ry="6.00" fill="#FFFFFF" stroke="#7B88A8" stroke-width="1.2"/><rect x="146.13" y="8.00" width="195.61" height="33.60" rx="6.00" ry="6.00" fill="#FFFFDE"/><text x="243.94" y="28.80" text-anchor="middle" font-family="'trebuchet ms', verdana, arial, sans-serif" font-size="16" fill="#333333"><tspan x="243.94" dy="0.00">USER</tspan></text><line x1="146.13" y1="41.60" x2="341.74" y2="41.60" stroke="#AAAA33" stroke-width="1.0" stroke-opacity="0.6"/><line x1="268.06" y1="41.60" x2="268.06" y2="170.22" stroke="#AAAA33" stroke-width="1.0" stroke-opacity="0.45"/><rect x="158.93" y="46.40" width="27.00" height="14.40" rx="7.20" ry="7.20" fill="#1D4ED8"/><text x="172.43" y="57.76" text-anchor="middle" font-family="'trebuchet ms', verdana, arial, sans-serif" font-size="11.52" font-weight="600" fill="#FFFFFF">PK</text><text x="192.34" y="57.60" text-anchor="start" font-family="'trebuchet ms', verdana, arial, sans-serif" font-size="16" fill="#333333"><tspan x="192.34" dy="0.00">id</tspan></text><text x="328.94" y="57.60" text-anchor="end" font-family="'trebuchet ms', verdana, arial, sans-serif" font-size="16" fill="#2F3B4D"><tspan x="328.94" dy="0.00">string</tspan></text><line x1="146.13" y1="65.60" x2="341.74" y2="65.60" stroke="#AAAA33" stroke-width="1.0" stroke-opacity="0.35"/><rect x="158.93" y="70.40" width="27.52" height="14.40" rx="7.20" ry="7.20" fill="#7C3AED"/><text x="172.69" y="81.76" text-anchor="middle" font-family="'trebuchet ms', verdana, arial, sans-serif" font-size="11.52" font-weight="600" fill="#FFFFFF">UK</text><text x="192.85" y="81.60" text-anchor="start" font-family="'trebuchet ms', verdana, arial, sans-serif" font-size="16" fill="#333333"><tspan x="192.85" dy="0.00">email</tspan></text><text x="328.94" y="81.60" text-anchor="end" font-family="'trebuchet ms', verdana, arial, sans-serif" font-size="16" fill="#2F3B4D"><tspan x="328.94" dy="0.00">string</tspan></text><line x1="146.13" y1="89.60" x2="341.74" y2="89.60" stroke="#AAAA33" stroke-width="1.0" stroke-opacity="0.35"/><text x="158.93" y="105.60" text-anchor="start" font-family="'trebuchet ms', verdana, arial, sans-serif" font-size="16" fill="#333333"><tspan x="158.93" dy="0.00">name</tspan></text><text x="328.94" y="105.60" text-anchor="end" font-family="'trebuchet ms', verdana, arial, sans-serif" font-size="16" fill="#2F3B4D"><tspan x="328.94" dy="0.00">string</tspan></text></svg>