<svg xmlns="http://www.w3.org/2000/svg" width="543.145" height="817.875" viewBox="0 0 543.145 817.875"><rect x="0" y="0" width="543.145" height="817.875" fill="#FFFFFF"/><defs><marker id="arrow-0" viewBox="0 0 10 10" refX="5" refY="5" markerUnits="userSpaceOnUse" markerWidth="8" markerHeight="8" orient="auto"><path d="M 0 0 L 10 5 L 0 10 z" fill="#2F3B4D" stroke="#2F3B4D" stroke-width="1" stroke-dasharray="1,0"/></marker><marker id="arrow-start-0" viewBox="0 0 10 10" refX="4.5" refY="5" markerUnits="userSpaceOnUse" markerWidth="8" markerHeight="8" orient="auto"><path d="M 0 5 L 10 10 L 10 0 z" fill="#2F3B4D" stroke="#2F3B4D" stroke-width="1" stroke-dasharray="1,0"/></marker></defs><path d="M 130.981,195.425L 130.981,196.883C130.981,198.342,130.981,201.258,130.981,204.175C130.981,207.092,130.981,210.008,131.119,212.918C131.257,215.829,131.532,218.732,132.538,229.314C133.543,239.895,135.277,258.155,136.282,268.736C137.288,279.318,137.563,282.221,137.701,285.132C137.839,288.042,137.839,290.958,137.839,293.875C137.839,296.792,137.839,299.708,137.839,301.167L 137.839,302.625" fill="none" stroke="#2F3B4D" stroke-width="1"    stroke-linecap="round" stroke-linejoin="round" /><g transform="translate(130.98 195.42) rotate(90.00)"><path d="M 0 -6 L 0 6 M 5 -6 L 5 6" fill="none" stroke="#2F3B4D" stroke-width="1" stroke-linejoin="round" stroke-linecap="round"/></g><g transform="translate(137.84 302.62) rotate(90.00)"><g><circle cx="-4" cy="0" r="4" fill="none" stroke="#2F3B4D" stroke-width="1"/><path d="M 4 0 L 12 -6 M 4 0 L 12 6" fill="none" stroke="#2F3B4D" stroke-width="1" stroke-linejoin="round" stroke-linecap="round"/></g></g><rect x="108.47" y="245.85" width="53.93" height="28.00" rx="2" ry="2" fill="rgba(248,250,252, 0.92)" fill-opacity="0.85" stroke="#7B88A8" stroke-opacity="0.35" stroke-width="0.8"/><text x="135.44" y="263.85" text-anchor="middle" font-family="'trebuchet ms', verdana, arial, sans-serif" font-size="16" fill="#333333"><tspan x="135.44" dy="0.00">places</tspan></text><path d="M 169.839,515.250L 169.839,516.708C169.839,518.167,169.839,521.083,169.839,524.000C169.839,526.917,169.839,529.833,170.483,532.600C171.127,535.367,172.415,537.984,175.626,544.509C178.838,551.034,183.972,561.466,187.184,567.991C190.395,574.516,191.683,577.133,192.327,579.900C192.971,582.667,192.971,585.583,192.971,588.500C192.971,591.417,192.971,594.333,192.971,595.792L 192.971,597.250" fill="none" stroke="#2F3B4D" stroke-width="1"    stroke-linecap="round" stroke-linejoin="round" /><g transform="translate(169.84 515.25) rotate(90.00)"><path d="M 0 -6 L 0 6 M 5 -6 L 5 6" fill="none" stroke="#2F3B4D" stroke-width="1" stroke-linejoin="round" stroke-linecap="round"/></g><g transform="translate(192.97 597.25) rotate(90.00)"><path d="M 0 -6 L 0 6 M 0 0 L 8 -6 M 0 0 L 8 6" fill="none" stroke="#2F3B4D" stroke-width="1" stroke-linejoin="round" stroke-linecap="round"/></g><rect x="356.56" y="484.48" width="69.24" height="28.00" rx="2" ry="2" fill="rgba(248,250,252, 0.92)" fill-opacity="0.85" stroke="#7B88A8" stroke-opacity="0.35" stroke-width="0.8"/><text x="391.18" y="502.48" text-anchor="middle" font-family="'trebuchet ms', verdana, arial, sans-serif" font-size="16" fill="#333333"><tspan x="391.18" dy="0.00">contains</tspan></text><path d="M 328.590,220.625L 328.590,222.083C328.590,223.542,328.590,226.458,328.590,229.375C328.590,232.292,328.590,235.208,327.131,236.667C325.673,238.125,322.756,238.125,318.788,238.125C314.820,238.125,309.800,238.125,305.290,238.125C300.780,238.125,296.780,238.125,294.780,240.125C292.780,242.125,292.780,246.125,292.780,301.062C292.780,356.000,292.780,461.875,292.780,516.812C292.780,571.750,292.780,575.750,290.780,577.750C288.780,579.750,284.780,579.750,280.270,579.750C275.760,579.750,270.740,579.750,266.772,579.750C262.804,579.750,259.887,579.750,258.429,581.208C256.971,582.667,256.971,585.583,256.971,588.500C256.971,591.417,256.971,594.333,256.971,595.792L 256.971,597.250" fill="none" stroke="#2F3B4D" stroke-width="1"    stroke-linecap="round" stroke-linejoin="round" /><g transform="translate(328.59 220.62) rotate(90.00)"><path d="M 0 -6 L 0 6 M 5 -6 L 5 6" fill="none" stroke="#2F3B4D" stroke-width="1" stroke-linejoin="round" stroke-linecap="round"/></g><g transform="translate(256.97 597.25) rotate(90.00)"><g><circle cx="-4" cy="0" r="4" fill="none" stroke="#2F3B4D" stroke-width="1"/><path d="M 4 0 L 12 -6 M 4 0 L 12 6" fill="none" stroke="#2F3B4D" stroke-width="1" stroke-linejoin="round" stroke-linecap="round"/></g></g><rect x="284.24" y="477.32" width="61.59" height="28.00" rx="2" ry="2" fill="rgba(248,250,252, 0.92)" fill-opacity="0.85" stroke="#7B88A8" stroke-opacity="0.35" stroke-width="0.8"/><text x="315.04" y="495.32" text-anchor="middle" font-family="'trebuchet ms', verdana, arial, sans-serif" font-size="16" fill="#333333"><tspan x="315.04" dy="0.00">&quot;is in&quot;</tspan></text><path d="M 392.590,220.625L 392.590,222.083C392.590,223.542,392.590,226.458,392.590,229.375C392.590,232.292,392.590,235.208,393.063,238.046C393.536,240.884,394.482,243.643,396.696,250.097C398.909,256.551,402.390,266.699,404.604,273.153C406.817,279.607,407.764,282.366,408.237,285.204C408.710,288.042,408.710,290.958,408.710,293.875C408.710,296.792,408.710,299.708,408.710,301.167L 408.710,302.625" fill="none" stroke="#2F3B4D" stroke-width="1"    stroke-linecap="round" stroke-linejoin="round" /><g transform="translate(392.59 220.62) rotate(90.00)"><g><circle cx="-4" cy="0" r="4" fill="none" stroke="#2F3B4D" stroke-width="1"/><path d="M 4 0 L 12 -6 M 4 0 L 12 6" fill="none" stroke="#2F3B4D" stroke-width="1" stroke-linejoin="round" stroke-linecap="round"/></g></g><g transform="translate(408.71 302.62) rotate(90.00)"><path d="M 0 -6 L 0 6 M 5 -6 L 5 6" fill="none" stroke="#2F3B4D" stroke-width="1" stroke-linejoin="round" stroke-linecap="round"/></g><rect x="350.72" y="247.62" width="99.86" height="28.00" rx="2" ry="2" fill="rgba(248,250,252, 0.92)" fill-opacity="0.85" stroke="#7B88A8" stroke-opacity="0.35" stroke-width="0.8"/><text x="400.65" y="265.62" text-anchor="middle" font-family="'trebuchet ms', verdana, arial, sans-serif" font-size="16" fill="#333333"><tspan x="400.65" dy="0.00">&quot;belongs to&quot;</tspan></text><rect x="314.27" y="302.62" width="220.87" height="162.22" rx="6.00" ry="6.00" fill="#FFFFFF" stroke="#7B88A8" stroke-width="1.2"/><rect x="314.27" y="302.62" width="220.87" height="33.60" rx="6.00" ry="6.00" fill="#FFFFDE"/><text x="424.71" y="323.42" text-anchor="middle" font-family="'trebuchet ms', verdana, arial, sans-serif" font-size="16" fill="#333333"><tspan x="424.71" dy="0.00">CATEGORY</tspan></text><line x1="314.27" y1="336.23" x2="535.15" y2="336.23" stroke="#AAAA33" stroke-width="1.0" stroke-opacity="0.6"/><line x1="461.47" y1="336.23" x2="461.47" y2="464.85" stroke="#AAAA33" stroke-width="1.0" stroke-opacity="0.45"/><rect x="327.07" y="341.02" width="27.00" height="14.40" rx="7.20" ry="7.20" fill="#1D4ED8"/><text x="340.58" y="352.39" text-anchor="middle" font-family="'trebuchet ms', verdana, arial, sans-serif" font-size="11.52" font-weight="600" fill="#FFFFFF">PK</text><text x="360.48" y="352.23" text-anchor="start" font-family="'trebuchet ms', verdana, arial, sans-serif" font-size="16" fill="#333333"><tspan x="360.48" dy="0.00">id</tspan></text><text x="522.35" y="352.23" text-anchor="end" font-family="'trebuchet ms', verdana, arial, sans-serif" font-size="16" fill="#2F3B4D"><tspan x="522.35" dy="0.00">int</tspan></text><line x1="314.27" y1="360.23" x2="535.15" y2="360.23" stroke="#AAAA33" stroke-width="1.0" stroke-opacity="0.35"/><text x="327.07" y="376.23" text-anchor="start" font-family="'trebuchet ms', verdana, arial, sans-serif" font-size="16" fill="#333333"><tspan x="327.07" dy="0.00">name</tspan></text><text x="522.35" y="376.23" text-anchor="end" font-family="'trebuchet ms', verdana, arial, sans-serif" font-size="16" fill="#2F3B4D"><tspan x="522.35" dy="0.00">string</tspan></text><line x1="314.27" y1="384.23" x2="535.15" y2="384.23" stroke="#AAAA33" stroke-width="1.0" stroke-opacity="0.35"/><text x="327.07" y="400.23" text-anchor="start" font-family="'trebuchet ms', verdana, arial, sans-serif" font-size="16" fill="#333333"><tspan x="327.07" dy="0.00">description</tspan></text><text x="522.35" y="400.23" text-anchor="end" font-family="'trebuchet ms', verdana, arial, sans-serif" font-size="16" fill="#2F3B4D"><tspan x="522.35" dy="0.00">string</tspan></text><rect x="17.18" y="8.00" width="195.61" height="187.42" rx="6.00" ry="6.00" fill="#FFFFFF" stroke="#7B88A8" stroke-width="1.2"/><rect x="17.18" y="8.00" width="195.61" height="33.60" rx="6.00" ry="6.00" fill="#FFFFDE"/><text x="114.98" y="28.80" text-anchor="middle" font-family="'trebuchet ms', verdana, arial, sans-serif" font-size="16" fill="#333333"><tspan x="114.98" dy="0.00">CUSTOMER</tspan></text><line x1="17.18" y1="41.60" x2="212.79" y2="41.60" stroke="#AAAA33" stroke-width="1.0" stroke-opacity="0.6"/><line x1="139.11" y1="41.60" x2="139.11" y2="195.42" stroke="#AAAA33" stroke-width="1.0" stroke-opacity="0.45"/><rect x="29.98" y="46.40" width="27.00" height="14.40" rx="7.20" ry="7.20" fill="#1D4ED8"/><text x="43.48" y="57.76" text-anchor="middle" font-family="'trebuchet ms', verdana, arial, sans-serif" font-size="11.52" font-weight="600" fill="#FFFFFF">PK</text><text x="63.38" y="57.60" text-anchor="start" font-family="'trebuchet ms', verdana, arial, sans-serif" font-size="16" fill="#333333"><tspan x="63.38" dy="0.00">id</tspan></text><text x="199.99" y="57.60" text-anchor="end" font-family="'trebuchet ms', verdana, arial, sans-serif" font-size="16" fill="#2F3B4D"><tspan x="199.99" dy="0.00">int</tspan></text><line x1="17.18" y1="65.60" x2="212.79" y2="65.60" stroke="#AAAA33" stroke-width="1.0" stroke-opacity="0.35"/><text x="29.98" y="81.60" text-anchor="start" font-family="'trebuchet ms', verdana, arial, sans-serif" font-size="16" fill="#333333"><tspan x="29.98" dy="0.00">name</tspan></text><text x="199.99" y="81.60" text-anchor="end" font-family="'trebuchet ms', verdana, arial, sans-serif" font-size="16" fill="#2F3B4D"><tspan x="199.99" dy="0.00">string</tspan></text><line x1="17.18" y1="89.60" x2="212.79" y2="89.60" stroke="#AAAA33" stroke-width="1.0" stroke-opacity="0.35"/><rect x="29.98" y="94.40" width="27.52" height="14.40" rx="7.20" ry="7.20" fill="#7C3AED"/><text x="43.74" y="105.76" text-anchor="middle" font-family="'trebuchet ms', verdana, arial, sans-serif" font-size="11.52" font-weight="600" fill="#FFFFFF">UK</text><text x="63.90" y="105.60" text-anchor="start" font-family="'trebuchet ms', verdana, arial, sans-serif" font-size="16" fill="#333333"><tspan x="63.90" dy="0.00">email</tspan></text><text x="199.99" y="105.60" text-anchor="end" font-family="'trebuchet ms', verdana, arial, sans-serif" font-size="16" fill="#2F3B4D"><tspan x="199.99" dy="0.00">string</tspan></text><line x1="17.18" y1="113.60" x2="212.79" y2="113.60" stroke="#AAAA33" stroke-width="1.0" stroke-opacity="0.35"/><text x="29.98" y="129.60" text-anchor="start" font-family="'trebuchet ms', verdana, arial, sans-serif" font-size="16" fill="#333333"><tspan x="29.98" dy="0.00">phone</tspan></text><text x="199.99" y="129.60" text-anchor="end" font-family="'trebuchet ms', verdana, arial, sans-serif" font-size="16" fill="#2F3B4D"><tspan x="199.99" dy="0.00">string</tspan></text><rect x="118.75" y="597.25" width="212.45" height="212.62" rx="6.00" ry="6.00" fill="#FFFFFF" stroke="#7B88A8" stroke-width="1.2"/><rect x="118.75" y="597.25" width="212.45" height="33.60" rx="6.00" ry="6.00" fill="#FFFFDE"/><text x="224.97" y="618.05" text-anchor="middle" font-family="'trebuchet ms', verdana, arial, sans-serif" font-size="16" fill="#333333"><tspan x="224.97" dy="0.00">LINE_ITEM</tspan></text><line x1="118.75" y1="630.85" x2="331.20" y2="630.85" stroke="#AAAA33" stroke-width="1.0" stroke-opacity="0.6"/><line x1="264.80" y1="630.85" x2="264.80" y2="809.88" stroke="#AAAA33" stroke-width="1.0" stroke-opacity="0.45"/><rect x="131.55" y="635.65" width="27.00" height="14.40" rx="7.20" ry="7.20" fill="#1D4ED8"/><text x="145.05" y="647.01" text-anchor="middle" font-family="'trebuchet ms', verdana, arial, sans-serif" font-size="11.52" font-weight="600" fill="#FFFFFF">PK</text><text x="164.95" y="646.85" text-anchor="start" font-family="'trebuchet ms', verdana, arial, sans-serif" font-size="16" fill="#333333"><tspan x="164.95" dy="0.00">id</tspan></text><text x="318.40" y="646.85" text-anchor="end" font-family="'trebuchet ms', verdana, arial, sans-serif" font-size="16" fill="#2F3B4D"><tspan x="318.40" dy="0.00">int</tspan></text><line x1="118.75" y1="654.85" x2="331.20" y2="654.85" stroke="#AAAA33" stroke-width="1.0" stroke-opacity="0.35"/><rect x="131.55" y="659.65" width="26.47" height="14.40" rx="7.20" ry="7.20" fill="#0F766E"/><text x="144.78" y="671.01" text-anchor="middle" font-family="'trebuchet ms', verdana, arial, sans-serif" font-size="11.52" font-weight="600" fill="#FFFFFF">FK</text><text x="164.42" y="670.85" text-anchor="start" font-family="'trebuchet ms', verdana, arial, sans-serif" font-size="16" fill="#333333"><tspan x="164.42" dy="0.00">order_id</tspan></text><text x="318.40" y="670.85" text-anchor="end" font-family="'trebuchet ms', verdana, arial, sans-serif" font-size="16" fill="#2F3B4D"><tspan x="318.40" dy="0.00">int</tspan></text><line x1="118.75" y1="678.85" x2="331.20" y2="678.85" stroke="#AAAA33" stroke-width="1.0" stroke-opacity="0.35"/><rect x="131.55" y="683.65" width="26.47" height="14.40" rx="7.20" ry="7.20" fill="#0F766E"/><text x="144.78" y="695.01" text-anchor="middle" font-family="'trebuchet ms', verdana, arial, sans-serif" font-size="11.52" font-weight="600" fill="#FFFFFF">FK</text><text x="164.42" y="694.85" text-anchor="start" font-family="'trebuchet ms', verdana, arial, sans-serif" font-size="16" fill="#333333"><tspan x="164.42" dy="0.00">product_id</tspan></text><text x="318.40" y="694.85" text-anchor="end" font-family="'trebuchet ms', verdana, arial, sans-serif" font-size="16" fill="#2F3B4D"><tspan x="318.40" dy="0.00">int</tspan></text><line x1="118.75" y1="702.85" x2="331.20" y2="702.85" stroke="#AAAA33" stroke-width="1.0" stroke-opacity="0.35"/><text x="131.55" y="718.85" text-anchor="start" font-family="'trebuchet ms', verdana, arial, sans-serif" font-size="16" fill="#333333"><tspan x="131.55" dy="0.00">quantity</tspan></text><text x="318.40" y="718.85" text-anchor="end" font-family="'trebuchet ms', verdana, arial, sans-serif" font-size="16" fill="#2F3B4D"><tspan x="318.40" dy="0.00">int</tspan></text><line x1="118.75" y1="726.85" x2="331.20" y2="726.85" stroke="#AAAA33" stroke-width="1.0" stroke-opacity="0.35"/><text x="131.55" y="742.85" text-anchor="start" font-family="'trebuchet ms', verdana, arial, sans-serif" font-size="16" fill="#333333"><tspan x="131.55" dy="0.00">unit_price</tspan></text><text x="318.40" y="742.85" text-anchor="end" font-family="'trebuchet ms', verdana, arial, sans-serif" font-size="16" fill="#2F3B4D"><tspan x="318.40" dy="0.00">float</tspan></text><rect x="43.40" y="302.62" width="220.87" height="212.62" rx="6.00" ry="6.00" fill="#FFFFFF" stroke="#7B88A8" stroke-width="1.2"/><rect x="43.40" y="302.62" width="220.87" height="33.60" rx="6.00" ry="6.00" fill="#FFFFDE"/><text x="153.84" y="323.42" text-anchor="middle" font-family="'trebuchet ms', verdana, arial, sans-serif" font-size="16" fill="#333333"><tspan x="153.84" dy="0.00">ORDER</tspan></text><line x1="43.40" y1="336.23" x2="264.27" y2="336.23" stroke="#AAAA33" stroke-width="1.0" stroke-opacity="0.6"/><line x1="190.59" y1="336.23" x2="190.59" y2="515.25" stroke="#AAAA33" stroke-width="1.0" stroke-opacity="0.45"/><rect x="56.20" y="341.02" width="27.00" height="14.40" rx="7.20" ry="7.20" fill="#1D4ED8"/><text x="69.71" y="352.39" text-anchor="middle" font-family="'trebuchet ms', verdana, arial, sans-serif" font-size="11.52" font-weight="600" fill="#FFFFFF">PK</text><text x="89.61" y="352.23" text-anchor="start" font-family="'trebuchet ms', verdana, arial, sans-serif" font-size="16" fill="#333333"><tspan x="89.61" dy="0.00">id</tspan></text><text x="251.47" y="352.23" text-anchor="end" font-family="'trebuchet ms', verdana, arial, sans-serif" font-size="16" fill="#2F3B4D"><tspan x="251.47" dy="0.00">int</tspan></text><line x1="43.40" y1="360.23" x2="264.27" y2="360.23" stroke="#AAAA33" stroke-width="1.0" stroke-opacity="0.35"/><rect x="56.20" y="365.02" width="26.47" height="14.40" rx="7.20" ry="7.20" fill="#0F766E"/><text x="69.44" y="376.39" text-anchor="middle" font-family="'trebuchet ms', verdana, arial, sans-serif" font-size="11.52" font-weight="600" fill="#FFFFFF">FK</text><text x="89.08" y="376.23" text-anchor="start" font-family="'trebuchet ms', verdana, arial, sans-serif" font-size="16" fill="#333333"><tspan x="89.08" dy="0.00">customer_id</tspan></text><text x="251.47" y="376.23" text-anchor="end" font-family="'trebuchet ms', verdana, arial, sans-serif" font-size="16" fill="#2F3B4D"><tspan x="251.47" dy="0.00">int</tspan></text><line x1="43.40" y1="384.23" x2="264.27" y2="384.23" stroke="#AAAA33" stroke-width="1.0" stroke-opacity="0.35"/><text x="56.20" y="400.23" text-anchor="start" font-family="'trebuchet ms', verdana, arial, sans-serif" font-size="16" fill="#333333"><tspan x="56.20" dy="0.00">order_date</tspan></text><text x="251.47" y="400.23" text-anchor="end" font-family="'trebuchet ms', verdana, arial, sans-serif" font-size="16" fill="#2F3B4D"><tspan x="251.47" dy="0.00">date</tspan></text><line x1="43.40" y1="408.23" x2="264.27" y2="408.23" stroke="#AAAA33" stroke-width="1.0" stroke-opacity="0.35"/><text x="56.20" y="424.23" text-anchor="start" font-family="'trebuchet ms', verdana, arial, sans-serif" font-size="16" fill="#333333"><tspan x="56.20" dy="0.00">status</tspan></text><text x="251.47" y="424.23" text-anchor="end" font-family="'trebuchet ms', verdana, arial, sans-serif" font-size="16" fill="#2F3B4D"><tspan x="251.47" dy="0.00">string</tspan></text><line x1="43.40" y1="432.23" x2="264.27" y2="432.23" stroke="#AAAA33" stroke-width="1.0" stroke-opacity="0.35"/><text x="56.20" y="448.23" text-anchor="start" font-family="'trebuchet ms', verdana, arial, sans-serif" font-size="16" fill="#333333"><tspan x="56.20" dy="0.00">total</tspan></text><text x="251.47" y="448.23" text-anchor="end" font-family="'trebuchet ms', verdana, arial, sans-serif" font-size="16" fill="#2F3B4D"><tspan x="251.47" dy="0.00">float</tspan></text><rect x="262.79" y="8.00" width="195.61" height="212.62" rx="6.00" ry="6.00" fill="#FFFFFF" stroke="#7B88A8" stroke-width="1.2"/><rect x="262.79" y="8.00" width="195.61" height="33.60" rx="6.00" ry="6.00" fill="#FFFFDE"/><text x="360.59" y="28.80" text-anchor="middle" font-family="'trebuchet ms', verdana, arial, sans-serif" font-size="16" fill="#333333"><tspan x="360.59" dy="0.00">PRODUCT</tspan></text><line x1="262.79" y1="41.60" x2="458.39" y2="41.60" stroke="#AAAA33" stroke-width="1.0" stroke-opacity="0.6"/><line x1="384.71" y1="41.60" x2="384.71" y2="220.62" stroke="#AAAA33" stroke-width="1.0" stroke-opacity="0.45"/><rect x="275.59" y="46.40" width="27.00" height="14.40" rx="7.20" ry="7.20" fill="#1D4ED8"/><text x="289.09" y="57.76" text-anchor="middle" font-family="'trebuchet ms', verdana, arial, sans-serif" font-size="11.52" font-weight="600" fill="#FFFFFF">PK</text><text x="308.99" y="57.60" text-anchor="start" font-family="'trebuchet ms', verdana, arial, sans-serif" font-size="16" fill="#333333"><tspan x="308.99" dy="0.00">id</tspan></text><text x="445.59" y="57.60" text-anchor="end" font-family="'trebuchet ms', verdana, arial, sans-serif" font-size="16" fill="#2F3B4D"><tspan x="445.59" dy="0.00">int</tspan></text><line x1="262.79" y1="65.60" x2="458.39" y2="65.60" stroke="#AAAA33" stroke-width="1.0" stroke-opacity="0.35"/><text x="275.59" y="81.60" text-anchor="start" font-family="'trebuchet ms', verdana, arial, sans-serif" font-size="16" fill="#333333"><tspan x="275.59" dy="0.00">name</tspan></text><text x="445.59" y="81.60" text-anchor="end" font-family="'trebuchet ms', verdana, arial, sans-serif" font-size="16" fill="#2F3B4D"><tspan x="445.59" dy="0.00">string</tspan></text><line x1="262.79" y1="89.60" x2="458.39" y2="89.60" stroke="#AAAA33" stroke-width="1.0" stroke-opacity="0.35"/><text x="275.59" y="105.60" text-anchor="start" font-family="'trebuchet ms', verdana, arial, sans-serif" font-size="16" fill="#333333"><tspan x="275.59" dy="0.00">category</tspan></text><text x="445.59" y="105.60" text-anchor="end" font-family="'trebuchet ms', verdana, arial, sans-serif" font-size="16" fill="#2F3B4D"><tspan x="445.59" dy="0.00">string</tspan></text><line x1="262.79" y1="113.60" x2="458.39" y2="113.60" stroke="#AAAA33" stroke-width="1.0" stroke-opacity="0.35"/><text x="275.59" y="129.60" text-anchor="start" font-family="'trebuchet ms', verdana, arial, sans-serif" font-size="16" fill="#333333"><tspan x="275.59" dy="0.00">price</tspan></text><text x="445.59" y="129.60" text-anchor="end" font-family="'trebuchet ms', verdana, arial, sans-serif" font-size="16" fill="#2F3B4D"><tspan x="445.59" dy="0.00">float</tspan></text><line x1="262.79" y1="137.60" x2="458.39" y2="137.60" stroke="#AAAA33" stroke-width="1.0" stroke-opacity="0.35"/><text x="275.59" y="153.60" text-anchor="start" font-family="'trebuchet ms', verdana, arial, sans-serif" font-size="16" fill="#333333"><tspan x="275.59" dy="0.00">stock</tspan></text><text x="445.59" y="153.60" text-anchor="end" font-family="'trebuchet ms', verdana, arial, sans-serif" font-size="16" fill="#2F3B4D"><tspan x="445.59" dy="0.00">int</tspan></text></svg>