<svg xmlns="http://www.w3.org/2000/svg" width="490.8999" height="691.87494" viewBox="0 0 490.8999 691.87494"><rect x="0" y="0" width="490.8999" height="691.87494" fill="#FFFFFF"/><defs><marker id="arrow-0" viewBox="0 0 10 10" refX="5" refY="5" markerUnits="userSpaceOnUse" markerWidth="8" markerHeight="8" orient="auto"><path d="M 0 0 L 10 5 L 0 10 z" fill="#2F3B4D" stroke="#2F3B4D" stroke-width="1" stroke-dasharray="1,0"/></marker><marker id="arrow-start-0" viewBox="0 0 10 10" refX="4.5" refY="5" markerUnits="userSpaceOnUse" markerWidth="8" markerHeight="8" orient="auto"><path d="M 0 5 L 10 10 L 10 0 z" fill="#2F3B4D" stroke="#2F3B4D" stroke-width="1" stroke-dasharray="1,0"/></marker></defs><path d="M 180.391,170.225L 180.391,171.683C180.391,173.142,180.391,176.058,180.391,178.975C180.391,181.892,180.391,184.808,180.945,187.615C181.500,190.423,182.608,193.120,184.897,198.687C187.185,204.254,190.653,212.690,193.147,218.758C195.641,224.826,197.162,228.525,195.925,230.472C194.688,232.418,190.692,232.611,183.530,232.958C176.368,233.304,166.040,233.803,159.419,234.123C152.798,234.443,149.884,234.584,148.428,236.113C146.971,237.642,146.971,240.558,146.971,243.475C146.971,246.392,146.971,249.308,146.971,250.767L 146.971,252.225" fill="none" stroke="#2F3B4D" stroke-width="1"    stroke-linecap="round" stroke-linejoin="round" /><g transform="translate(180.39 170.22) rotate(90.00)"><path d="M 0 -6 L 0 6 M 5 -6 L 5 6" fill="none" stroke="#2F3B4D" stroke-width="1" stroke-linejoin="round" stroke-linecap="round"/></g><g transform="translate(146.97 252.22) rotate(90.00)"><g><circle cx="-4" cy="0" r="4" fill="none" stroke="#2F3B4D" stroke-width="1"/><path d="M 4 0 L 12 -6 M 4 0 L 12 6" fill="none" stroke="#2F3B4D" stroke-width="1" stroke-linejoin="round" stroke-linecap="round"/></g></g><rect x="171.72" y="218.22" width="53.93" height="28.00" rx="2" ry="2" fill="rgba(248,250,252, 0.92)" fill-opacity="0.85" stroke="#7B88A8" stroke-opacity="0.35" stroke-width="0.8"/><text x="198.68" y="236.22" text-anchor="middle" font-family="'trebuchet ms', verdana, arial, sans-serif" font-size="16" fill="#333333"><tspan x="198.68" dy="0.00">writes</tspan></text><path d="M 299.297,170.225L 299.297,171.683C299.297,173.142,299.297,176.058,299.297,178.975C299.297,181.892,299.297,184.808,297.879,186.608C296.462,188.407,293.626,189.089,264.727,196.038C235.827,202.987,180.865,216.203,151.439,223.279C122.013,230.355,118.124,231.290,118.179,231.779C118.235,232.269,122.234,232.313,158.729,232.713C195.224,233.114,264.213,233.872,300.166,234.266C336.119,234.661,339.036,234.693,340.494,236.167C341.952,237.642,341.952,240.558,341.952,243.475C341.952,246.392,341.952,249.308,341.952,250.767L 341.952,252.225" fill="none" stroke="#2F3B4D" stroke-width="1"    stroke-linecap="round" stroke-linejoin="round" /><g transform="translate(299.30 170.22) rotate(90.00)"><path d="M 0 -6 L 0 6 M 5 -6 L 5 6" fill="none" stroke="#2F3B4D" stroke-width="1" stroke-linejoin="round" stroke-linecap="round"/></g><g transform="translate(341.95 252.22) rotate(90.00)"><g><circle cx="-4" cy="0" r="4" fill="none" stroke="#2F3B4D" stroke-width="1"/><path d="M 4 0 L 12 -6 M 4 0 L 12 6" fill="none" stroke="#2F3B4D" stroke-width="1" stroke-linejoin="round" stroke-linecap="round"/></g></g><rect x="98.75" y="218.22" width="30.97" height="28.00" rx="2" ry="2" fill="rgba(248,250,252, 0.92)" fill-opacity="0.85" stroke="#7B88A8" stroke-opacity="0.35" stroke-width="0.8"/><text x="114.23" y="236.22" text-anchor="middle" font-family="'trebuchet ms', verdana, arial, sans-serif" font-size="16" fill="#333333"><tspan x="114.23" dy="0.00">has</tspan></text><path d="M 149.217,439.650L 149.217,441.108C149.217,442.567,149.217,445.483,149.217,448.400C149.217,451.317,149.217,454.233,149.830,457.015C150.443,459.796,151.670,462.443,154.266,468.045C156.862,473.647,160.828,482.204,163.652,488.298C166.476,494.392,168.158,498.021,170.996,499.952C173.834,501.882,177.827,502.115,183.534,502.447C189.241,502.778,196.662,503.210,201.829,503.511C206.995,503.811,209.907,503.981,211.363,505.524C212.818,507.067,212.818,509.983,212.818,512.900C212.818,515.817,212.818,518.733,212.818,520.192L 212.818,521.650" fill="none" stroke="#2F3B4D" stroke-width="1"    stroke-linecap="round" stroke-linejoin="round" /><g transform="translate(149.22 439.65) rotate(90.00)"><path d="M 0 -6 L 0 6 M 5 -6 L 5 6" fill="none" stroke="#2F3B4D" stroke-width="1" stroke-linejoin="round" stroke-linecap="round"/></g><g transform="translate(212.82 521.65) rotate(90.00)"><g><circle cx="-4" cy="0" r="4" fill="none" stroke="#2F3B4D" stroke-width="1"/><path d="M 4 0 L 12 -6 M 4 0 L 12 6" fill="none" stroke="#2F3B4D" stroke-width="1" stroke-linejoin="round" stroke-linecap="round"/></g></g><rect x="135.22" y="487.65" width="69.24" height="28.00" rx="2" ry="2" fill="rgba(248,250,252, 0.92)" fill-opacity="0.85" stroke="#7B88A8" stroke-opacity="0.35" stroke-width="0.8"/><text x="169.84" y="505.65" text-anchor="middle" font-family="'trebuchet ms', verdana, arial, sans-serif" font-size="16" fill="#333333"><tspan x="169.84" dy="0.00">receives</tspan></text><rect x="139.22" y="521.65" width="212.45" height="162.22" rx="6.00" ry="6.00" fill="#FFFFFF" stroke="#7B88A8" stroke-width="1.2"/><rect x="139.22" y="521.65" width="212.45" height="33.60" rx="6.00" ry="6.00" fill="#FFFFDE"/><text x="245.44" y="542.45" text-anchor="middle" font-family="'trebuchet ms', verdana, arial, sans-serif" font-size="16" fill="#333333"><tspan x="245.44" dy="0.00">COMMENT</tspan></text><line x1="139.22" y1="555.25" x2="351.67" y2="555.25" stroke="#AAAA33" stroke-width="1.0" stroke-opacity="0.6"/><line x1="277.99" y1="555.25" x2="277.99" y2="683.87" stroke="#AAAA33" stroke-width="1.0" stroke-opacity="0.45"/><rect x="152.02" y="560.05" width="27.00" height="14.40" rx="7.20" ry="7.20" fill="#1D4ED8"/><text x="165.52" y="571.41" text-anchor="middle" font-family="'trebuchet ms', verdana, arial, sans-serif" font-size="11.52" font-weight="600" fill="#FFFFFF">PK</text><text x="185.42" y="571.25" text-anchor="start" font-family="'trebuchet ms', verdana, arial, sans-serif" font-size="16" fill="#333333"><tspan x="185.42" dy="0.00">id</tspan></text><text x="338.87" y="571.25" text-anchor="end" font-family="'trebuchet ms', verdana, arial, sans-serif" font-size="16" fill="#2F3B4D"><tspan x="338.87" dy="0.00">string</tspan></text><line x1="139.22" y1="579.25" x2="351.67" y2="579.25" stroke="#AAAA33" stroke-width="1.0" stroke-opacity="0.35"/><rect x="152.02" y="584.05" width="26.47" height="14.40" rx="7.20" ry="7.20" fill="#0F766E"/><text x="165.26" y="595.41" text-anchor="middle" font-family="'trebuchet ms', verdana, arial, sans-serif" font-size="11.52" font-weight="600" fill="#FFFFFF">FK</text><text x="184.89" y="595.25" text-anchor="start" font-family="'trebuchet ms', verdana, arial, sans-serif" font-size="16" fill="#333333"><tspan x="184.89" dy="0.00">post_id</tspan></text><text x="338.87" y="595.25" text-anchor="end" font-family="'trebuchet ms', verdana, arial, sans-serif" font-size="16" fill="#2F3B4D"><tspan x="338.87" dy="0.00">string</tspan></text><line x1="139.22" y1="603.25" x2="351.67" y2="603.25" stroke="#AAAA33" stroke-width="1.0" stroke-opacity="0.35"/><text x="152.02" y="619.25" text-anchor="start" font-family="'trebuchet ms', verdana, arial, sans-serif" font-size="16" fill="#333333"><tspan x="152.02" dy="0.00">body</tspan></text><text x="338.87" y="619.25" text-anchor="end" font-family="'trebuchet ms', verdana, arial, sans-serif" font-size="16" fill="#2F3B4D"><tspan x="338.87" dy="0.00">string</tspan></text><rect x="8.00" y="252.22" width="212.45" height="187.42" rx="6.00" ry="6.00" fill="#FFFFFF" stroke="#7B88A8" stroke-width="1.2"/><rect x="8.00" y="252.22" width="212.45" height="33.60" rx="6.00" ry="6.00" fill="#FFFFDE"/><text x="114.22" y="273.02" text-anchor="middle" font-family="'trebuchet ms', verdana, arial, sans-serif" font-size="16" fill="#333333"><tspan x="114.22" dy="0.00">POST</tspan></text><line x1="8.00" y1="285.82" x2="220.45" y2="285.82" stroke="#AAAA33" stroke-width="1.0" stroke-opacity="0.6"/><line x1="146.77" y1="285.82" x2="146.77" y2="439.65" stroke="#AAAA33" stroke-width="1.0" stroke-opacity="0.45"/><rect x="20.80" y="290.62" width="27.00" height="14.40" rx="7.20" ry="7.20" fill="#1D4ED8"/><text x="34.30" y="301.98" text-anchor="middle" font-family="'trebuchet ms', verdana, arial, sans-serif" font-size="11.52" font-weight="600" fill="#FFFFFF">PK</text><text x="54.20" y="301.82" text-anchor="start" font-family="'trebuchet ms', verdana, arial, sans-serif" font-size="16" fill="#333333"><tspan x="54.20" dy="0.00">id</tspan></text><text x="207.65" y="301.82" text-anchor="end" font-family="'trebuchet ms', verdana, arial, sans-serif" font-size="16" fill="#2F3B4D"><tspan x="207.65" dy="0.00">string</tspan></text><line x1="8.00" y1="309.82" x2="220.45" y2="309.82" stroke="#AAAA33" stroke-width="1.0" stroke-opacity="0.35"/><rect x="20.80" y="314.62" width="26.47" height="14.40" rx="7.20" ry="7.20" fill="#0F766E"/><text x="34.04" y="325.98" text-anchor="middle" font-family="'trebuchet ms', verdana, arial, sans-serif" font-size="11.52" font-weight="600" fill="#FFFFFF">FK</text><text x="53.67" y="325.82" text-anchor="start" font-family="'trebuchet ms', verdana, arial, sans-serif" font-size="16" fill="#333333"><tspan x="53.67" dy="0.00">user_id</tspan></text><text x="207.65" y="325.82" text-anchor="end" font-family="'trebuchet ms', verdana, arial, sans-serif" font-size="16" fill="#2F3B4D"><tspan x="207.65" dy="0.00">string</tspan></text><line x1="8.00" y1="333.82" x2="220.45" y2="333.82" stroke="#AAAA33" stroke-width="1.0" stroke-opacity="0.35"/><text x="20.80" y="349.82" text-anchor="start" font-family="'trebuchet ms', verdana, arial, sans-serif" font-size="16" fill="#333333"><tspan x="20.80" dy="0.00">title</tspan></text><text x="207.65" y="349.82" text-anchor="end" font-family="'trebuchet ms', verdana, arial, sans-serif" font-size="16" fill="#2F3B4D"><tspan x="207.65" dy="0.00">string</tspan></text><line x1="8.00" y1="357.82" x2="220.45" y2="357.82" stroke="#AAAA33" stroke-width="1.0" stroke-opacity="0.35"/><text x="20.80" y="373.82" text-anchor="start" font-family="'trebuchet ms', verdana, arial, sans-serif" font-size="16" fill="#333333"><tspan x="20.80" dy="0.00">status</tspan></text><text x="207.65" y="373.82" text-anchor="end" font-family="'trebuchet ms', verdana, arial, sans-serif" font-size="16" fill="#2F3B4D"><tspan x="207.65" dy="0.00">string</tspan></text><rect x="270.45" y="252.22" width="212.45" height="162.22" rx="6.00" ry="6.00" fill="#FFFFFF" stroke="#7B88A8" stroke-width="1.2"/><rect x="270.45" y="252.22" width="212.45" height="33.60" rx="6.00" ry="6.00" fill="#FFFFDE"/><text x="376.67" y="273.02" text-anchor="middle" font-family="'trebuchet ms', verdana, arial, sans-serif" font-size="16" fill="#333333"><tspan x="376.67" dy="0.00">SESSION</tspan></text><line x1="270.45" y1="285.82" x2="482.90" y2="285.82" stroke="#AAAA33" stroke-width="1.0" stroke-opacity="0.6"/><line x1="409.22" y1="285.82" x2="409.22" y2="414.45" stroke="#AAAA33" stroke-width="1.0" stroke-opacity="0.45"/><rect x="283.25" y="290.62" width="27.00" height="14.40" rx="7.20" ry="7.20" fill="#1D4ED8"/><text x="296.75" y="301.98" text-anchor="middle" font-family="'trebuchet ms', verdana, arial, sans-serif" font-size="11.52" font-weight="600" fill="#FFFFFF">PK</text><text x="316.65" y="301.82" text-anchor="start" font-family="'trebuchet ms', verdana, arial, sans-serif" font-size="16" fill="#333333"><tspan x="316.65" dy="0.00">id</tspan></text><text x="470.10" y="301.82" text-anchor="end" font-family="'trebuchet ms', verdana, arial, sans-serif" font-size="16" fill="#2F3B4D"><tspan x="470.10" dy="0.00">string</tspan></text><line x1="270.45" y1="309.82" x2="482.90" y2="309.82" stroke="#AAAA33" stroke-width="1.0" stroke-opacity="0.35"/><rect x="283.25" y="314.62" width="26.47" height="14.40" rx="7.20" ry="7.20" fill="#0F766E"/><text x="296.49" y="325.98" text-anchor="middle" font-family="'trebuchet ms', verdana, arial, sans-serif" font-size="11.52" font-weight="600" fill="#FFFFFF">FK</text><text x="316.12" y="325.82" text-anchor="start" font-family="'trebuchet ms', verdana, arial, sans-serif" font-size="16" fill="#333333"><tspan x="316.12" dy="0.00">user_id</tspan></text><text x="470.10" y="325.82" text-anchor="end" font-family="'trebuchet ms', verdana, arial, sans-serif" font-size="16" fill="#2F3B4D"><tspan x="470.10" dy="0.00">string</tspan></text><line x1="270.45" y1="333.82" x2="482.90" y2="333.82" stroke="#AAAA33" stroke-width="1.0" stroke-opacity="0.35"/><text x="283.25" y="349.82" text-anchor="start" font-family="'trebuchet ms', verdana, arial, sans-serif" font-size="16" fill="#333333"><tspan x="283.25" dy="0.00">created_at</tspan></text><text x="470.10" y="349.82" text-anchor="end" font-family="'trebuchet ms', verdana, arial, sans-serif" font-size="16" fill="#2F3B4D"><tspan x="470.10" dy="0.00">date</tspan></text><rect x="139.22" y="8.00" width="195.61" height="162.22" rx="6.00" ry="6.00" fill="#FFFFFF" stroke="#7B88A8" stroke-width="1.2"/><rect x="139.22" y="8.00" width="195.61" height="33.60" rx="6.00" ry="6.00" fill="#FFFFDE"/><text x="237.02" y="28.80" text-anchor="middle" font-family="'trebuchet ms', verdana, arial, sans-serif" font-size="16" fill="#333333"><tspan x="237.02" dy="0.00">USER</tspan></text><line x1="139.22" y1="41.60" x2="334.83" y2="41.60" stroke="#AAAA33" stroke-width="1.0" stroke-opacity="0.6"/><line x1="261.15" y1="41.60" x2="261.15" y2="170.22" stroke="#AAAA33" stroke-width="1.0" stroke-opacity="0.45"/><rect x="152.02" y="46.40" width="27.00" height="14.40" rx="7.20" ry="7.20" fill="#1D4ED8"/><text x="165.52" y="57.76" text-anchor="middle" font-family="'trebuchet ms', verdana, arial, sans-serif" font-size="11.52" font-weight="600" fill="#FFFFFF">PK</text><text x="185.42" y="57.60" text-anchor="start" font-family="'trebuchet ms', verdana, arial, sans-serif" font-size="16" fill="#333333"><tspan x="185.42" dy="0.00">id</tspan></text><text x="322.03" y="57.60" text-anchor="end" font-family="'trebuchet ms', verdana, arial, sans-serif" font-size="16" fill="#2F3B4D"><tspan x="322.03" dy="0.00">string</tspan></text><line x1="139.22" y1="65.60" x2="334.83" y2="65.60" stroke="#AAAA33" stroke-width="1.0" stroke-opacity="0.35"/><rect x="152.02" y="70.40" width="27.52" height="14.40" rx="7.20" ry="7.20" fill="#7C3AED"/><text x="165.78" y="81.76" text-anchor="middle" font-family="'trebuchet ms', verdana, arial, sans-serif" font-size="11.52" font-weight="600" fill="#FFFFFF">UK</text><text x="185.94" y="81.60" text-anchor="start" font-family="'trebuchet ms', verdana, arial, sans-serif" font-size="16" fill="#333333"><tspan x="185.94" dy="0.00">email</tspan></text><text x="322.03" y="81.60" text-anchor="end" font-family="'trebuchet ms', verdana, arial, sans-serif" font-size="16" fill="#2F3B4D"><tspan x="322.03" dy="0.00">string</tspan></text><line x1="139.22" y1="89.60" x2="334.83" y2="89.60" stroke="#AAAA33" stroke-width="1.0" stroke-opacity="0.35"/><text x="152.02" y="105.60" text-anchor="start" font-family="'trebuchet ms', verdana, arial, sans-serif" font-size="16" fill="#333333"><tspan x="152.02" dy="0.00">name</tspan></text><text x="322.03" y="105.60" text-anchor="end" font-family="'trebuchet ms', verdana, arial, sans-serif" font-size="16" fill="#2F3B4D"><tspan x="322.03" dy="0.00">string</tspan></text></svg>