<svg xmlns="http://www.w3.org/2000/svg" width="490.89996" height="627.87494" viewBox="0 0 490.89996 627.87494"><rect x="0" y="0" width="490.89996" height="627.87494" fill="#FFFFFF"/><defs><marker id="arrow-0" viewBox="0 0 10 10" refX="5" refY="5" markerUnits="userSpaceOnUse" markerWidth="8" markerHeight="8" orient="auto"><path d="M 0 0 L 10 5 L 0 10 z" fill="#333333" stroke="#333333" stroke-width="1" stroke-dasharray="1,0"/></marker><marker id="arrow-start-0" viewBox="0 0 10 10" refX="4.5" refY="5" markerUnits="userSpaceOnUse" markerWidth="8" markerHeight="8" orient="auto"><path d="M 0 5 L 10 10 L 10 0 z" fill="#333333" stroke="#333333" stroke-width="1" stroke-dasharray="1,0"/></marker></defs><path d="M 182.714,170.225L 182.714,171.683C182.714,173.142,182.714,176.058,182.714,178.975C182.714,181.892,182.714,184.808,181.289,186.579C179.865,188.349,177.016,188.973,167.025,191.161C157.035,193.349,139.904,197.101,129.914,199.289C119.923,201.477,117.074,202.101,115.650,203.871C114.225,205.642,114.225,208.558,114.225,211.475C114.225,214.392,114.225,217.308,114.225,218.767L 114.225,220.225" fill="none" stroke="#333333" stroke-width="1"    stroke-linecap="round" stroke-linejoin="round" /><g transform="translate(182.71 170.22) rotate(90.00)"><path d="M 0 -6 L 0 6 M 5 -6 L 5 6" fill="none" stroke="#333333" stroke-width="1" stroke-linejoin="round" stroke-linecap="round"/></g><g transform="translate(114.22 220.22) rotate(90.00)"><g><circle cx="-4" cy="0" r="4" fill="none" stroke="#333333" stroke-width="1"/><path d="M 4 0 L 12 -6 M 4 0 L 12 6" fill="none" stroke="#333333" stroke-width="1" stroke-linejoin="round" stroke-linecap="round"/></g></g><rect x="121.50" y="181.22" width="53.93" height="28.00" rx="2" ry="2" fill="rgba(232,232,232, 0.8)" fill-opacity="0.85" stroke="#9370DB" stroke-opacity="0.35" stroke-width="0.8"/><text x="148.47" y="199.22" text-anchor="middle" font-family="'trebuchet ms', verdana, arial, sans-serif" font-size="16" fill="#333333"><tspan x="148.47" dy="0.00">writes</tspan></text><path d="M 305.160,170.225L 305.160,171.683C305.160,173.142,305.160,176.058,305.160,178.975C305.160,181.892,305.160,184.808,306.587,186.566C308.015,188.324,310.869,188.922,321.361,191.123C331.853,193.324,349.982,197.126,360.474,199.327C370.966,201.528,373.820,202.126,375.248,203.884C376.675,205.642,376.675,208.558,376.675,211.475C376.675,214.392,376.675,217.308,376.675,218.767L 376.675,220.225" fill="none" stroke="#333333" stroke-width="1"    stroke-linecap="round" stroke-linejoin="round" /><g transform="translate(305.16 170.22) rotate(90.00)"><path d="M 0 -6 L 0 6 M 5 -6 L 5 6" fill="none" stroke="#333333" stroke-width="1" stroke-linejoin="round" stroke-linecap="round"/></g><g transform="translate(376.67 220.22) rotate(90.00)"><g><circle cx="-4" cy="0" r="4" fill="none" stroke="#333333" stroke-width="1"/><path d="M 4 0 L 12 -6 M 4 0 L 12 6" fill="none" stroke="#333333" stroke-width="1" stroke-linejoin="round" stroke-linecap="round"/></g></g><rect x="325.43" y="181.22" width="30.97" height="28.00" rx="2" ry="2" fill="rgba(232,232,232, 0.8)" fill-opacity="0.85" stroke="#9370DB" stroke-opacity="0.35" stroke-width="0.8"/><text x="340.92" y="199.22" text-anchor="middle" font-family="'trebuchet ms', verdana, arial, sans-serif" font-size="16" fill="#333333"><tspan x="340.92" dy="0.00">has</tspan></text><path d="M 114.225,407.650L 114.225,409.108C114.225,410.567,114.225,413.483,114.225,416.400C114.225,419.317,114.225,422.233,115.133,424.833C116.041,427.432,117.857,429.715,118.938,431.073C120.019,432.432,120.366,432.868,121.447,434.226C122.528,435.585,124.344,437.868,125.252,440.467C126.160,443.067,126.160,445.983,126.160,448.900C126.160,451.817,126.160,454.733,126.160,456.192L 126.160,457.650" fill="none" stroke="#333333" stroke-width="1"    stroke-linecap="round" stroke-linejoin="round" /><g transform="translate(114.22 407.65) rotate(90.00)"><path d="M 0 -6 L 0 6 M 5 -6 L 5 6" fill="none" stroke="#333333" stroke-width="1" stroke-linejoin="round" stroke-linecap="round"/></g><g transform="translate(126.16 457.65) rotate(90.00)"><g><circle cx="-4" cy="0" r="4" fill="none" stroke="#333333" stroke-width="1"/><path d="M 4 0 L 12 -6 M 4 0 L 12 6" fill="none" stroke="#333333" stroke-width="1" stroke-linejoin="round" stroke-linecap="round"/></g></g><rect x="85.57" y="418.65" width="69.24" height="28.00" rx="2" ry="2" fill="rgba(232,232,232, 0.8)" fill-opacity="0.85" stroke="#9370DB" stroke-opacity="0.35" stroke-width="0.8"/><text x="120.19" y="436.65" text-anchor="middle" font-family="'trebuchet ms', verdana, arial, sans-serif" font-size="16" fill="#333333"><tspan x="120.19" dy="0.00">receives</tspan></text><rect x="19.94" y="457.65" width="212.45" height="162.22" rx="6.00" ry="6.00" fill="#FFFFFF" stroke="#9370DB" stroke-width="1.2"/><rect x="19.94" y="457.65" width="212.45" height="33.60" rx="6.00" ry="6.00" fill="#FFFFDE"/><text x="126.16" y="478.45" text-anchor="middle" font-family="'trebuchet ms', verdana, arial, sans-serif" font-size="16" fill="#333333"><tspan x="126.16" dy="0.00">COMMENT</tspan></text><line x1="19.94" y1="491.25" x2="232.39" y2="491.25" stroke="#AAAA33" stroke-width="1.0" stroke-opacity="0.6"/><line x1="158.71" y1="491.25" x2="158.71" y2="619.87" stroke="#AAAA33" stroke-width="1.0" stroke-opacity="0.45"/><rect x="32.74" y="496.05" width="27.00" height="14.40" rx="7.20" ry="7.20" fill="#1D4ED8"/><text x="46.24" y="507.41" text-anchor="middle" font-family="'trebuchet ms', verdana, arial, sans-serif" font-size="11.52" font-weight="600" fill="#FFFFFF">PK</text><text x="66.14" y="507.25" text-anchor="start" font-family="'trebuchet ms', verdana, arial, sans-serif" font-size="16" fill="#333333"><tspan x="66.14" dy="0.00">id</tspan></text><text x="219.59" y="507.25" text-anchor="end" font-family="'trebuchet ms', verdana, arial, sans-serif" font-size="16" fill="#333333"><tspan x="219.59" dy="0.00">string</tspan></text><line x1="19.94" y1="515.25" x2="232.39" y2="515.25" stroke="#AAAA33" stroke-width="1.0" stroke-opacity="0.35"/><rect x="32.74" y="520.05" width="26.47" height="14.40" rx="7.20" ry="7.20" fill="#0F766E"/><text x="45.97" y="531.41" text-anchor="middle" font-family="'trebuchet ms', verdana, arial, sans-serif" font-size="11.52" font-weight="600" fill="#FFFFFF">FK</text><text x="65.61" y="531.25" text-anchor="start" font-family="'trebuchet ms', verdana, arial, sans-serif" font-size="16" fill="#333333"><tspan x="65.61" dy="0.00">post_id</tspan></text><text x="219.59" y="531.25" text-anchor="end" font-family="'trebuchet ms', verdana, arial, sans-serif" font-size="16" fill="#333333"><tspan x="219.59" dy="0.00">string</tspan></text><line x1="19.94" y1="539.25" x2="232.39" y2="539.25" stroke="#AAAA33" stroke-width="1.0" stroke-opacity="0.35"/><text x="32.74" y="555.25" text-anchor="start" font-family="'trebuchet ms', verdana, arial, sans-serif" font-size="16" fill="#333333"><tspan x="32.74" dy="0.00">body</tspan></text><text x="219.59" y="555.25" text-anchor="end" font-family="'trebuchet ms', verdana, arial, sans-serif" font-size="16" fill="#333333"><tspan x="219.59" dy="0.00">string</tspan></text><rect x="8.00" y="220.22" width="212.45" height="187.42" rx="6.00" ry="6.00" fill="#FFFFFF" stroke="#9370DB" stroke-width="1.2"/><rect x="8.00" y="220.22" width="212.45" height="33.60" rx="6.00" ry="6.00" fill="#FFFFDE"/><text x="114.22" y="241.02" text-anchor="middle" font-family="'trebuchet ms', verdana, arial, sans-serif" font-size="16" fill="#333333"><tspan x="114.22" dy="0.00">POST</tspan></text><line x1="8.00" y1="253.82" x2="220.45" y2="253.82" stroke="#AAAA33" stroke-width="1.0" stroke-opacity="0.6"/><line x1="146.77" y1="253.82" x2="146.77" y2="407.65" stroke="#AAAA33" stroke-width="1.0" stroke-opacity="0.45"/><rect x="20.80" y="258.62" width="27.00" height="14.40" rx="7.20" ry="7.20" fill="#1D4ED8"/><text x="34.30" y="269.98" text-anchor="middle" font-family="'trebuchet ms', verdana, arial, sans-serif" font-size="11.52" font-weight="600" fill="#FFFFFF">PK</text><text x="54.20" y="269.82" text-anchor="start" font-family="'trebuchet ms', verdana, arial, sans-serif" font-size="16" fill="#333333"><tspan x="54.20" dy="0.00">id</tspan></text><text x="207.65" y="269.82" text-anchor="end" font-family="'trebuchet ms', verdana, arial, sans-serif" font-size="16" fill="#333333"><tspan x="207.65" dy="0.00">string</tspan></text><line x1="8.00" y1="277.82" x2="220.45" y2="277.82" stroke="#AAAA33" stroke-width="1.0" stroke-opacity="0.35"/><rect x="20.80" y="282.62" width="26.47" height="14.40" rx="7.20" ry="7.20" fill="#0F766E"/><text x="34.04" y="293.98" text-anchor="middle" font-family="'trebuchet ms', verdana, arial, sans-serif" font-size="11.52" font-weight="600" fill="#FFFFFF">FK</text><text x="53.67" y="293.82" text-anchor="start" font-family="'trebuchet ms', verdana, arial, sans-serif" font-size="16" fill="#333333"><tspan x="53.67" dy="0.00">user_id</tspan></text><text x="207.65" y="293.82" text-anchor="end" font-family="'trebuchet ms', verdana, arial, sans-serif" font-size="16" fill="#333333"><tspan x="207.65" dy="0.00">string</tspan></text><line x1="8.00" y1="301.82" x2="220.45" y2="301.82" stroke="#AAAA33" stroke-width="1.0" stroke-opacity="0.35"/><text x="20.80" y="317.82" text-anchor="start" font-family="'trebuchet ms', verdana, arial, sans-serif" font-size="16" fill="#333333"><tspan x="20.80" dy="0.00">title</tspan></text><text x="207.65" y="317.82" text-anchor="end" font-family="'trebuchet ms', verdana, arial, sans-serif" font-size="16" fill="#333333"><tspan x="207.65" dy="0.00">string</tspan></text><line x1="8.00" y1="325.82" x2="220.45" y2="325.82" stroke="#AAAA33" stroke-width="1.0" stroke-opacity="0.35"/><text x="20.80" y="341.82" text-anchor="start" font-family="'trebuchet ms', verdana, arial, sans-serif" font-size="16" fill="#333333"><tspan x="20.80" dy="0.00">status</tspan></text><text x="207.65" y="341.82" text-anchor="end" font-family="'trebuchet ms', verdana, arial, sans-serif" font-size="16" fill="#333333"><tspan x="207.65" dy="0.00">string</tspan></text><rect x="270.45" y="220.22" width="212.45" height="162.22" rx="6.00" ry="6.00" fill="#FFFFFF" stroke="#9370DB" stroke-width="1.2"/><rect x="270.45" y="220.22" width="212.45" height="33.60" rx="6.00" ry="6.00" fill="#FFFFDE"/><text x="376.67" y="241.02" text-anchor="middle" font-family="'trebuchet ms', verdana, arial, sans-serif" font-size="16" fill="#333333"><tspan x="376.67" dy="0.00">SESSION</tspan></text><line x1="270.45" y1="253.82" x2="482.90" y2="253.82" stroke="#AAAA33" stroke-width="1.0" stroke-opacity="0.6"/><line x1="409.22" y1="253.82" x2="409.22" y2="382.45" stroke="#AAAA33" stroke-width="1.0" stroke-opacity="0.45"/><rect x="283.25" y="258.62" width="27.00" height="14.40" rx="7.20" ry="7.20" fill="#1D4ED8"/><text x="296.75" y="269.98" text-anchor="middle" font-family="'trebuchet ms', verdana, arial, sans-serif" font-size="11.52" font-weight="600" fill="#FFFFFF">PK</text><text x="316.65" y="269.82" text-anchor="start" font-family="'trebuchet ms', verdana, arial, sans-serif" font-size="16" fill="#333333"><tspan x="316.65" dy="0.00">id</tspan></text><text x="470.10" y="269.82" text-anchor="end" font-family="'trebuchet ms', verdana, arial, sans-serif" font-size="16" fill="#333333"><tspan x="470.10" dy="0.00">string</tspan></text><line x1="270.45" y1="277.82" x2="482.90" y2="277.82" stroke="#AAAA33" stroke-width="1.0" stroke-opacity="0.35"/><rect x="283.25" y="282.62" width="26.47" height="14.40" rx="7.20" ry="7.20" fill="#0F766E"/><text x="296.49" y="293.98" text-anchor="middle" font-family="'trebuchet ms', verdana, arial, sans-serif" font-size="11.52" font-weight="600" fill="#FFFFFF">FK</text><text x="316.12" y="293.82" text-anchor="start" font-family="'trebuchet ms', verdana, arial, sans-serif" font-size="16" fill="#333333"><tspan x="316.12" dy="0.00">user_id</tspan></text><text x="470.10" y="293.82" text-anchor="end" font-family="'trebuchet ms', verdana, arial, sans-serif" font-size="16" fill="#333333"><tspan x="470.10" dy="0.00">string</tspan></text><line x1="270.45" y1="301.82" x2="482.90" y2="301.82" stroke="#AAAA33" stroke-width="1.0" stroke-opacity="0.35"/><text x="283.25" y="317.82" text-anchor="start" font-family="'trebuchet ms', verdana, arial, sans-serif" font-size="16" fill="#333333"><tspan x="283.25" dy="0.00">created_at</tspan></text><text x="470.10" y="317.82" text-anchor="end" font-family="'trebuchet ms', verdana, arial, sans-serif" font-size="16" fill="#333333"><tspan x="470.10" dy="0.00">date</tspan></text><rect x="146.13" y="8.00" width="195.61" height="162.22" rx="6.00" ry="6.00" fill="#FFFFFF" stroke="#9370DB" stroke-width="1.2"/><rect x="146.13" y="8.00" width="195.61" height="33.60" rx="6.00" ry="6.00" fill="#FFFFDE"/><text x="243.94" y="28.80" text-anchor="middle" font-family="'trebuchet ms', verdana, arial, sans-serif" font-size="16" fill="#333333"><tspan x="243.94" dy="0.00">USER</tspan></text><line x1="146.13" y1="41.60" x2="341.74" y2="41.60" stroke="#AAAA33" stroke-width="1.0" stroke-opacity="0.6"/><line x1="268.06" y1="41.60" x2="268.06" y2="170.22" stroke="#AAAA33" stroke-width="1.0" stroke-opacity="0.45"/><rect x="158.93" y="46.40" width="27.00" height="14.40" rx="7.20" ry="7.20" fill="#1D4ED8"/><text x="172.43" y="57.76" text-anchor="middle" font-family="'trebuchet ms', verdana, arial, sans-serif" font-size="11.52" font-weight="600" fill="#FFFFFF">PK</text><text x="192.34" y="57.60" text-anchor="start" font-family="'trebuchet ms', verdana, arial, sans-serif" font-size="16" fill="#333333"><tspan x="192.34" dy="0.00">id</tspan></text><text x="328.94" y="57.60" text-anchor="end" font-family="'trebuchet ms', verdana, arial, sans-serif" font-size="16" fill="#333333"><tspan x="328.94" dy="0.00">string</tspan></text><line x1="146.13" y1="65.60" x2="341.74" y2="65.60" stroke="#AAAA33" stroke-width="1.0" stroke-opacity="0.35"/><rect x="158.93" y="70.40" width="27.52" height="14.40" rx="7.20" ry="7.20" fill="#7C3AED"/><text x="172.69" y="81.76" text-anchor="middle" font-family="'trebuchet ms', verdana, arial, sans-serif" font-size="11.52" font-weight="600" fill="#FFFFFF">UK</text><text x="192.85" y="81.60" text-anchor="start" font-family="'trebuchet ms', verdana, arial, sans-serif" font-size="16" fill="#333333"><tspan x="192.85" dy="0.00">email</tspan></text><text x="328.94" y="81.60" text-anchor="end" font-family="'trebuchet ms', verdana, arial, sans-serif" font-size="16" fill="#333333"><tspan x="328.94" dy="0.00">string</tspan></text><line x1="146.13" y1="89.60" x2="341.74" y2="89.60" stroke="#AAAA33" stroke-width="1.0" stroke-opacity="0.35"/><text x="158.93" y="105.60" text-anchor="start" font-family="'trebuchet ms', verdana, arial, sans-serif" font-size="16" fill="#333333"><tspan x="158.93" dy="0.00">name</tspan></text><text x="328.94" y="105.60" text-anchor="end" font-family="'trebuchet ms', verdana, arial, sans-serif" font-size="16" fill="#333333"><tspan x="328.94" dy="0.00">string</tspan></text></svg>