<svg xmlns="http://www.w3.org/2000/svg" width="205.00879" height="338.16" viewBox="0 0 205.00879 338.16"><rect x="0" y="0" width="205.00879" height="338.16" fill="#FFFFFF"/><defs><marker id="arrow-0" viewBox="0 0 10 10" refX="5" refY="5" markerUnits="userSpaceOnUse" markerWidth="8" markerHeight="8" orient="auto"><path d="M 0 0 L 10 5 L 0 10 z" fill="#333333" stroke="#333333" stroke-width="1" stroke-dasharray="1,0"/></marker><marker id="arrow-start-0" viewBox="0 0 10 10" refX="4.5" refY="5" markerUnits="userSpaceOnUse" markerWidth="8" markerHeight="8" orient="auto"><path d="M 0 5 L 10 10 L 10 0 z" fill="#333333" stroke="#333333" stroke-width="1" stroke-dasharray="1,0"/></marker></defs><path d="M 102.125,144.080L 102.125,145.746C102.125,147.413,102.125,150.745,102.125,153.662C102.125,156.578,102.125,159.079,102.157,161.580C102.189,164.080,102.252,166.580,102.283,167.830C102.315,169.080,102.315,169.080,102.347,170.330C102.378,171.580,102.441,174.080,102.473,176.580C102.504,179.081,102.504,181.582,102.504,184.498C102.504,187.415,102.504,190.747,102.504,192.414L 102.504,194.080" fill="none" stroke="#333333" stroke-width="1"    stroke-linecap="round" stroke-linejoin="round" /><g transform="translate(102.13 144.08) rotate(90.00)"><path d="M 0 -6 L 0 6 M 5 -6 L 5 6" fill="none" stroke="#333333" stroke-width="1" stroke-linejoin="round" stroke-linecap="round"/></g><g transform="translate(102.50 194.08) rotate(90.00)"><g><circle cx="-4" cy="0" r="4" fill="none" stroke="#333333" stroke-width="1"/><path d="M 4 0 L 12 -6 M 4 0 L 12 6" fill="none" stroke="#333333" stroke-width="1" stroke-linejoin="round" stroke-linecap="round"/></g></g><rect x="75.35" y="155.08" width="53.93" height="28.00" rx="2" ry="2" fill="rgba(232,232,232, 0.8)" fill-opacity="0.85" stroke="#9370DB" stroke-opacity="0.35" stroke-width="0.8"/><text x="102.31" y="173.08" text-anchor="middle" font-family="'trebuchet ms', verdana, arial, sans-serif" font-size="16" fill="#333333"><tspan x="102.31" dy="0.00">places</tspan></text><rect x="24.46" y="8.00" width="155.33" height="136.08" rx="10" ry="10" fill="#ECECFF" stroke="#9370DB" stroke-width="1" stroke-linejoin="round" stroke-linecap="round"/><rect x="24.96" y="32.88" width="154.33" height="32.64" rx="6" ry="6" fill="#FFFFDE" fill-opacity="0.22" stroke="none"/><text x="102.13" y="51.24" text-anchor="middle" font-family="'trebuchet ms', verdana, arial, sans-serif" font-size="16" fill="#333333"><tspan x="102.13" dy="0.00" font-weight="600">CUSTOMER</tspan></text><line x1="25.26" y1="65.52" x2="178.99" y2="65.52" stroke="#9370DB" stroke-width="1" stroke-opacity="0.35"/><rect x="24.96" y="74.70" width="154.33" height="20.40" fill="#FFFFDE" fill-opacity="0.12" stroke="none"/><line x1="91.74" y1="74.70" x2="91.74" y2="138.98" stroke="#9370DB" stroke-width="1" stroke-opacity="0.2"/><text x="54.46" y="92.04" text-anchor="start" font-family="'trebuchet ms', verdana, arial, sans-serif" font-size="16" fill="#333333" fill-opacity="0.75">string</text><text x="96.94" y="92.04" text-anchor="start" font-family="'trebuchet ms', verdana, arial, sans-serif" font-size="16" fill="#333333">id</text><text x="54.46" y="112.44" text-anchor="start" font-family="'trebuchet ms', verdana, arial, sans-serif" font-size="16" fill="#333333" fill-opacity="0.75">string</text><text x="96.94" y="112.44" text-anchor="start" font-family="'trebuchet ms', verdana, arial, sans-serif" font-size="16" fill="#333333">name</text><rect x="8.00" y="194.08" width="189.01" height="136.08" rx="10" ry="10" fill="#ECECFF" stroke="#9370DB" stroke-width="1" stroke-linejoin="round" stroke-linecap="round"/><rect x="8.50" y="218.96" width="188.01" height="32.64" rx="6" ry="6" fill="#FFFFDE" fill-opacity="0.22" stroke="none"/><text x="102.50" y="237.32" text-anchor="middle" font-family="'trebuchet ms', verdana, arial, sans-serif" font-size="16" fill="#333333"><tspan x="102.50" dy="0.00" font-weight="600">ORDER</tspan></text><line x1="8.80" y1="251.60" x2="196.21" y2="251.60" stroke="#9370DB" stroke-width="1" stroke-opacity="0.35"/><rect x="8.50" y="260.78" width="188.01" height="20.40" fill="#FFFFDE" fill-opacity="0.12" stroke="none"/><line x1="75.28" y1="260.78" x2="75.28" y2="325.06" stroke="#9370DB" stroke-width="1" stroke-opacity="0.2"/><text x="38.00" y="278.12" text-anchor="start" font-family="'trebuchet ms', verdana, arial, sans-serif" font-size="16" fill="#333333" fill-opacity="0.75">string</text><text x="80.48" y="278.12" text-anchor="start" font-family="'trebuchet ms', verdana, arial, sans-serif" font-size="16" fill="#333333">id</text><text x="38.00" y="298.52" text-anchor="start" font-family="'trebuchet ms', verdana, arial, sans-serif" font-size="16" fill="#333333" fill-opacity="0.75">date</text><text x="80.48" y="298.52" text-anchor="start" font-family="'trebuchet ms', verdana, arial, sans-serif" font-size="16" fill="#333333">created_at</text></svg>