<svg xmlns="http://www.w3.org/2000/svg" width="211.6088" height="340.05" viewBox="0 0 211.6088 340.05"><rect x="0" y="0" width="211.6088" height="340.05" fill="#FFFFFF"/><defs><marker id="arrow-0" viewBox="0 0 10 10" refX="5" refY="5" markerUnits="userSpaceOnUse" markerWidth="8" markerHeight="8" orient="auto"><path d="M 0 0 L 10 5 L 0 10 z" fill="#333333" stroke="#333333" stroke-width="1" stroke-dasharray="1,0"/></marker><marker id="arrow-start-0" viewBox="0 0 10 10" refX="4.5" refY="5" markerUnits="userSpaceOnUse" markerWidth="8" markerHeight="8" orient="auto"><path d="M 0 5 L 10 10 L 10 0 z" fill="#333333" stroke="#333333" stroke-width="1" stroke-dasharray="1,0"/></marker></defs><path d="M 105.425,145.025L 105.425,146.691C105.425,148.358,105.425,151.690,105.425,154.607C105.425,157.523,105.425,160.024,105.457,162.525C105.489,165.025,105.552,167.525,105.583,168.775C105.615,170.025,105.615,170.025,105.647,171.275C105.678,172.525,105.741,175.025,105.773,177.525C105.804,180.026,105.804,182.527,105.804,185.443C105.804,188.360,105.804,191.692,105.804,193.359L 105.804,195.025" fill="none" stroke="#333333" stroke-width="1"    stroke-linecap="round" stroke-linejoin="round" /><g transform="translate(105.43 145.02) rotate(90.00)"><path d="M 0 -6 L 0 6 M 5 -6 L 5 6" fill="none" stroke="#333333" stroke-width="1" stroke-linejoin="round" stroke-linecap="round"/></g><g transform="translate(105.80 195.02) rotate(90.00)"><g><circle cx="-4" cy="0" r="4" fill="none" stroke="#333333" stroke-width="1"/><path d="M 4 0 L 12 -6 M 4 0 L 12 6" fill="none" stroke="#333333" stroke-width="1" stroke-linejoin="round" stroke-linecap="round"/></g></g><rect x="78.65" y="156.02" width="53.93" height="28.00" rx="2" ry="2" fill="rgba(232,232,232, 0.8)" fill-opacity="0.85" stroke="#9370DB" stroke-opacity="0.35" stroke-width="0.8"/><text x="105.61" y="174.02" text-anchor="middle" font-family="'trebuchet ms', verdana, arial, sans-serif" font-size="16" fill="#333333"><tspan x="105.61" dy="0.00">places</tspan></text><rect x="24.46" y="8.00" width="161.93" height="137.02" rx="6.00" ry="6.00" fill="#FFFFFF" stroke="#9370DB" stroke-width="1.2"/><rect x="24.46" y="8.00" width="161.93" height="33.60" rx="6.00" ry="6.00" fill="#FFFFDE"/><text x="105.43" y="28.80" text-anchor="middle" font-family="'trebuchet ms', verdana, arial, sans-serif" font-size="16" fill="#333333"><tspan x="105.43" dy="0.00">CUSTOMER</tspan></text><line x1="24.46" y1="41.60" x2="186.39" y2="41.60" stroke="#AAAA33" stroke-width="1.0" stroke-opacity="0.6"/><line x1="112.71" y1="41.60" x2="112.71" y2="145.02" stroke="#AAAA33" stroke-width="1.0" stroke-opacity="0.45"/><text x="37.26" y="57.60" text-anchor="start" font-family="'trebuchet ms', verdana, arial, sans-serif" font-size="16" fill="#333333"><tspan x="37.26" dy="0.00">id</tspan></text><text x="173.59" y="57.60" text-anchor="end" font-family="'trebuchet ms', verdana, arial, sans-serif" font-size="16" fill="#333333"><tspan x="173.59" dy="0.00">string</tspan></text><line x1="24.46" y1="65.60" x2="186.39" y2="65.60" stroke="#AAAA33" stroke-width="1.0" stroke-opacity="0.35"/><text x="37.26" y="81.60" text-anchor="start" font-family="'trebuchet ms', verdana, arial, sans-serif" font-size="16" fill="#333333"><tspan x="37.26" dy="0.00">name</tspan></text><text x="173.59" y="81.60" text-anchor="end" font-family="'trebuchet ms', verdana, arial, sans-serif" font-size="16" fill="#333333"><tspan x="173.59" dy="0.00">string</tspan></text><rect x="8.00" y="195.02" width="195.61" height="137.02" rx="6.00" ry="6.00" fill="#FFFFFF" stroke="#9370DB" stroke-width="1.2"/><rect x="8.00" y="195.02" width="195.61" height="33.60" rx="6.00" ry="6.00" fill="#FFFFDE"/><text x="105.80" y="215.82" text-anchor="middle" font-family="'trebuchet ms', verdana, arial, sans-serif" font-size="16" fill="#333333"><tspan x="105.80" dy="0.00">ORDER</tspan></text><line x1="8.00" y1="228.62" x2="203.61" y2="228.62" stroke="#AAAA33" stroke-width="1.0" stroke-opacity="0.6"/><line x1="129.93" y1="228.62" x2="129.93" y2="332.05" stroke="#AAAA33" stroke-width="1.0" stroke-opacity="0.45"/><text x="20.80" y="244.62" text-anchor="start" font-family="'trebuchet ms', verdana, arial, sans-serif" font-size="16" fill="#333333"><tspan x="20.80" dy="0.00">id</tspan></text><text x="190.81" y="244.62" text-anchor="end" font-family="'trebuchet ms', verdana, arial, sans-serif" font-size="16" fill="#333333"><tspan x="190.81" dy="0.00">string</tspan></text><line x1="8.00" y1="252.62" x2="203.61" y2="252.62" stroke="#AAAA33" stroke-width="1.0" stroke-opacity="0.35"/><text x="20.80" y="268.62" text-anchor="start" font-family="'trebuchet ms', verdana, arial, sans-serif" font-size="16" fill="#333333"><tspan x="20.80" dy="0.00">created_at</tspan></text><text x="190.81" y="268.62" text-anchor="end" font-family="'trebuchet ms', verdana, arial, sans-serif" font-size="16" fill="#333333"><tspan x="190.81" dy="0.00">date</tspan></text></svg>