<svg xmlns="http://www.w3.org/2000/svg" width="182.248" height="346.09998" viewBox="0 0 182.248 346.09998"><rect x="0" y="0" width="182.248" height="346.09998" fill="#FFFFFF"/><defs><marker id="arrow-0" viewBox="0 0 10 10" refX="5" refY="5" markerUnits="userSpaceOnUse" markerWidth="8" markerHeight="8" orient="auto"><path d="M 0 0 L 10 5 L 0 10 z" fill="#333333"/></marker><marker id="arrow-start-0" viewBox="0 0 10 10" refX="4.5" refY="5" markerUnits="userSpaceOnUse" markerWidth="8" markerHeight="8" orient="auto"><path d="M 0 5 L 10 10 L 10 0 z" fill="#333333"/></marker></defs><path d="M 91.124,136.100C91.124,148.417,91.124,166.892,91.124,173.050C91.124,179.208,91.124,166.892,91.124,173.050C91.124,179.208,91.124,197.683,91.124,210.000" fill="none" stroke="#333333" stroke-width="1"    stroke-linecap="round" stroke-linejoin="round" /><g transform="translate(91.12 136.10) rotate(90.00)"><path d="M 0 -6 L 0 6 M 5 -6 L 5 6" fill="none" stroke="#333333" stroke-width="1" stroke-linejoin="round" stroke-linecap="round"/></g><g transform="translate(91.12 210.00) rotate(90.00)"><g><circle cx="-4" cy="0" r="4" fill="none" stroke="#333333" stroke-width="1"/><path d="M 4 0 L 12 -6 M 4 0 L 12 6" fill="none" stroke="#333333" stroke-width="1" stroke-linejoin="round" stroke-linecap="round"/></g></g><rect x="62.93" y="159.05" width="56.38" height="28.00" rx="2" ry="2" fill="#FFFFFF" stroke="none"/><text x="91.12" y="177.05" text-anchor="middle" font-family="'trebuchet ms', verdana, arial, sans-serif" font-size="16" fill="#333333"><tspan x="91.12" dy="0.00">places</tspan></text><rect x="21.42" y="8.00" width="139.40" height="128.10" rx="3" ry="3" fill="#ECECFF" stroke="#9370DB" stroke-width="1" stroke-linejoin="round" stroke-linecap="round"/><line x1="27.42" y1="58.45" x2="154.82" y2="58.45" stroke="#9370DB" stroke-width="1.0"/><text x="91.12" y="40.05" text-anchor="middle" font-family="'trebuchet ms', verdana, arial, sans-serif" font-size="16" fill="#333333"><tspan x="91.12" dy="0.00" font-weight="600">CUSTOMER</tspan></text><text x="51.42" y="88.05" text-anchor="start" font-family="'trebuchet ms', verdana, arial, sans-serif" font-size="16" fill="#333333"><tspan x="51.42" dy="0.00">string id</tspan><tspan x="51.42" dy="24.00">string name</tspan></text><rect x="8.00" y="210.00" width="166.25" height="128.10" rx="3" ry="3" fill="#ECECFF" stroke="#9370DB" stroke-width="1" stroke-linejoin="round" stroke-linecap="round"/><line x1="14.00" y1="260.45" x2="168.25" y2="260.45" stroke="#9370DB" stroke-width="1.0"/><text x="91.12" y="242.05" text-anchor="middle" font-family="'trebuchet ms', verdana, arial, sans-serif" font-size="16" fill="#333333"><tspan x="91.12" dy="0.00" font-weight="600">ORDER</tspan></text><text x="38.00" y="290.05" text-anchor="start" font-family="'trebuchet ms', verdana, arial, sans-serif" font-size="16" fill="#333333"><tspan x="38.00" dy="0.00">string id</tspan><tspan x="38.00" dy="24.00">date created_at</tspan></text></svg>