<svg xmlns="http://www.w3.org/2000/svg" width="180.62617" height="322.2" viewBox="0 0 180.62617 322.2"><rect x="0" y="0" width="180.62617" height="322.2" fill="#FFFFFF"/><defs><marker id="arrow-0" viewBox="0 0 10 10" refX="5" refY="5" markerUnits="userSpaceOnUse" markerWidth="8" markerHeight="8" orient="auto"><path d="M 0 0 L 10 5 L 0 10 z" fill="#333333" stroke="#333333" stroke-width="1" stroke-dasharray="1,0"/></marker><marker id="arrow-start-0" viewBox="0 0 10 10" refX="4.5" refY="5" markerUnits="userSpaceOnUse" markerWidth="8" markerHeight="8" orient="auto"><path d="M 0 5 L 10 10 L 10 0 z" fill="#333333" stroke="#333333" stroke-width="1" stroke-dasharray="1,0"/></marker></defs><path d="M 89.969,136.100L 89.969,137.766C89.969,139.433,89.969,142.765,89.969,145.682C89.969,148.599,89.969,151.099,89.997,153.600C90.026,156.100,90.083,158.600,90.112,159.850C90.141,161.100,90.141,161.100,90.170,162.350C90.198,163.600,90.256,166.100,90.284,168.600C90.313,171.101,90.313,173.601,90.313,176.518C90.313,179.435,90.313,182.767,90.313,184.434L 90.313,186.100" fill="none" stroke="#333333" stroke-width="1"    stroke-linecap="round" stroke-linejoin="round" /><g transform="translate(89.97 136.10) rotate(90.00)"><path d="M 0 -6 L 0 6 M 5 -6 L 5 6" fill="none" stroke="#333333" stroke-width="1" stroke-linejoin="round" stroke-linecap="round"/></g><g transform="translate(90.31 186.10) rotate(90.00)"><g><circle cx="-4" cy="0" r="4" fill="none" stroke="#333333" stroke-width="1"/><path d="M 4 0 L 12 -6 M 4 0 L 12 6" fill="none" stroke="#333333" stroke-width="1" stroke-linejoin="round" stroke-linecap="round"/></g></g><rect x="63.18" y="147.10" width="53.93" height="28.00" rx="2" ry="2" fill="rgba(232,232,232, 0.8)" fill-opacity="0.85" stroke="#9370DB" stroke-opacity="0.35" stroke-width="0.8"/><text x="90.14" y="165.10" text-anchor="middle" font-family="'trebuchet ms', verdana, arial, sans-serif" font-size="16" fill="#333333"><tspan x="90.14" dy="0.00">places</tspan></text><rect x="22.97" y="8.00" width="134.01" height="128.10" rx="3" ry="3" fill="#ECECFF" stroke="#9370DB" stroke-width="1" stroke-linejoin="round" stroke-linecap="round"/><line x1="28.97" y1="62.05" x2="150.97" y2="62.05" stroke="#9370DB" stroke-width="1.0"/><rect x="23.47" y="29.91" width="133.01" height="32.03" fill="#FFFFDE" fill-opacity="0.25" stroke="none"/><text x="89.97" y="47.25" text-anchor="middle" font-family="'trebuchet ms', verdana, arial, sans-serif" font-size="16" fill="#333333"><tspan x="89.97" dy="0.00" font-weight="600">CUSTOMER</tspan></text><text x="52.97" y="88.05" text-anchor="start" font-family="'trebuchet ms', verdana, arial, sans-serif" font-size="16" fill="#333333">string</text><text x="95.45" y="88.05" text-anchor="start" font-family="'trebuchet ms', verdana, arial, sans-serif" font-size="16" fill="#333333">id</text><text x="52.97" y="108.45" text-anchor="start" font-family="'trebuchet ms', verdana, arial, sans-serif" font-size="16" fill="#333333">string</text><text x="95.45" y="108.45" text-anchor="start" font-family="'trebuchet ms', verdana, arial, sans-serif" font-size="16" fill="#333333">name</text><rect x="8.00" y="186.10" width="164.63" height="128.10" rx="3" ry="3" fill="#ECECFF" stroke="#9370DB" stroke-width="1" stroke-linejoin="round" stroke-linecap="round"/><line x1="14.00" y1="240.15" x2="166.63" y2="240.15" stroke="#9370DB" stroke-width="1.0"/><rect x="8.50" y="208.01" width="163.63" height="32.03" fill="#FFFFDE" fill-opacity="0.25" stroke="none"/><text x="90.31" y="225.35" text-anchor="middle" font-family="'trebuchet ms', verdana, arial, sans-serif" font-size="16" fill="#333333"><tspan x="90.31" dy="0.00" font-weight="600">ORDER</tspan></text><text x="38.00" y="266.15" text-anchor="start" font-family="'trebuchet ms', verdana, arial, sans-serif" font-size="16" fill="#333333">string</text><text x="80.48" y="266.15" text-anchor="start" font-family="'trebuchet ms', verdana, arial, sans-serif" font-size="16" fill="#333333">id</text><text x="38.00" y="286.55" text-anchor="start" font-family="'trebuchet ms', verdana, arial, sans-serif" font-size="16" fill="#333333">date</text><text x="80.48" y="286.55" text-anchor="start" font-family="'trebuchet ms', verdana, arial, sans-serif" font-size="16" fill="#333333">created_at</text></svg>