<svg xmlns="http://www.w3.org/2000/svg" width="1940.0219" height="278" viewBox="0 0 1940.0219 278"><rect x="0" y="0" width="1940.0219" height="278" fill="#FFFFFF"/><defs><marker id="arrow-0" viewBox="0 0 10 10" refX="5" refY="5" markerUnits="userSpaceOnUse" markerWidth="8" markerHeight="8" orient="auto"><path d="M 0 0 L 10 5 L 0 10 z" fill="#2F3B4D" stroke="#2F3B4D" stroke-width="1" stroke-dasharray="1,0"/></marker><marker id="arrow-start-0" viewBox="0 0 10 10" refX="4.5" refY="5" markerUnits="userSpaceOnUse" markerWidth="8" markerHeight="8" orient="auto"><path d="M 0 5 L 10 10 L 10 0 z" fill="#2F3B4D" stroke="#2F3B4D" stroke-width="1" stroke-dasharray="1,0"/></marker></defs><path d="M 152.206,138.990 L 202.206,138.995" fill="none" stroke="#2F3B4D" stroke-width="2"    stroke-linecap="round" stroke-linejoin="round" /><path d="M 298.474,90.995L 299.932,90.995C301.390,90.995,304.307,90.995,307.224,90.995C310.140,90.995,313.057,90.995,315.747,90.213C318.436,89.432,320.898,87.868,330.167,81.984C339.436,76.100,355.511,65.895,364.780,60.011C374.049,54.126,376.511,52.563,379.201,51.782C381.890,51.000,384.807,51.000,387.724,51.000C390.640,51.000,393.557,51.000,395.015,51.000L 396.474,51.000" fill="none" stroke="#2F3B4D" stroke-width="2"    stroke-linecap="round" stroke-linejoin="round" /><path d="M 346.474,138.995 L 396.474,139.000" fill="none" stroke="#2F3B4D" stroke-width="2"    stroke-linecap="round" stroke-linejoin="round" /><path d="M 298.474,186.995L 299.932,186.995C301.390,186.995,304.307,186.995,307.224,186.995C310.140,186.995,313.057,186.995,315.746,187.777C318.436,188.558,320.898,190.122,330.167,196.008C339.436,201.893,355.512,212.101,364.780,217.987C374.049,223.873,376.512,225.437,379.201,226.218C381.890,227.000,384.807,227.000,387.724,227.000C390.640,227.000,393.557,227.000,395.015,227.000L 396.474,227.000" fill="none" stroke="#2F3B4D" stroke-width="2"    stroke-linecap="round" stroke-linejoin="round" /><path d="M 487.094,51.000L 488.552,51.000C490.011,51.000,492.927,51.000,495.844,51.000C498.761,51.000,501.677,51.000,504.385,51.753C507.092,52.505,509.590,54.011,523.830,62.592C538.069,71.174,564.050,86.831,578.289,95.412C592.528,103.994,595.026,105.499,597.734,106.252C600.441,107.005,603.358,107.005,606.274,107.005C609.191,107.005,612.108,107.005,613.566,107.005L 615.025,107.005" fill="none" stroke="#2F3B4D" stroke-width="2"    stroke-linecap="round" stroke-linejoin="round" /><path d="M 533.025,139.000 L 583.025,139.005" fill="none" stroke="#2F3B4D" stroke-width="2"    stroke-linecap="round" stroke-linejoin="round" /><path d="M 494.749,227.000L 496.207,227.000C497.666,227.000,500.582,227.000,503.499,227.000C506.416,227.000,509.332,227.000,512.010,226.200C514.687,225.399,517.125,223.798,530.119,215.266C543.112,206.734,566.661,191.271,579.655,182.739C592.648,174.207,595.086,172.606,597.764,171.805C600.441,171.005,603.358,171.005,606.274,171.005C609.191,171.005,612.108,171.005,613.566,171.005L 615.025,171.005" fill="none" stroke="#2F3B4D" stroke-width="2"    stroke-linecap="round" stroke-linejoin="round" /><path d="M 689.475,155.005L 690.934,155.005C692.392,155.005,695.309,155.005,698.226,155.005C701.142,155.005,704.059,155.005,706.929,154.640C709.800,154.276,712.624,153.547,721.539,151.245C730.455,148.943,745.461,145.069,754.377,142.767C763.292,140.465,766.117,139.736,768.987,139.372C771.857,139.007,774.774,139.007,777.691,139.007C780.607,139.007,783.524,139.007,784.982,139.007L 786.441,139.007" fill="none" stroke="#2F3B4D" stroke-width="2"    stroke-linecap="round" stroke-linejoin="round" /><rect x="721.98" y="132.81" width="31.97" height="28.40" rx="2" ry="2" fill="rgba(248,250,252, 0.92)" fill-opacity="0.95" stroke="#7B88A8" stroke-opacity="0.45" stroke-width="0.8"/><text x="737.96" y="151.01" text-anchor="middle" font-family="'trebuchet ms', verdana, arial, sans-serif" font-size="16" fill="#333333"><tspan x="737.96" dy="0.00">Yes</tspan></text><path d="M 689.475,123.005L 690.934,123.005C692.392,123.005,695.309,123.005,698.226,123.005C701.142,123.005,704.059,123.005,705.517,121.546C706.975,120.088,706.975,117.171,706.976,105.505C706.975,93.839,706.975,73.423,706.976,61.215C706.975,49.008,706.975,45.008,708.976,43.008C710.975,41.008,714.975,41.008,883.820,41.008C1052.664,41.008,1386.352,41.008,1555.196,41.008C1724.041,41.008,1728.041,41.008,1730.041,43.008C1732.041,45.008,1732.041,49.008,1732.041,63.883C1732.041,78.759,1732.041,104.510,1732.041,118.843C1732.041,133.177,1732.041,136.094,1733.499,137.552C1734.957,139.011,1737.874,139.011,1740.791,139.011C1743.707,139.011,1746.624,139.011,1748.082,139.011L 1749.541,139.011" fill="none" stroke="#2F3B4D" stroke-width="2"    stroke-linecap="round" stroke-linejoin="round" /><rect x="1016.61" y="26.81" width="25.77" height="28.40" rx="2" ry="2" fill="rgba(248,250,252, 0.92)" fill-opacity="0.95" stroke="#7B88A8" stroke-opacity="0.45" stroke-width="0.8"/><text x="1029.49" y="45.01" text-anchor="middle" font-family="'trebuchet ms', verdana, arial, sans-serif" font-size="16" fill="#333333"><tspan x="1029.49" dy="0.00">No</tspan></text><path d="M 976.577,139.007 L 1026.577,139.010" fill="none" stroke="#2F3B4D" stroke-width="2"    stroke-linecap="round" stroke-linejoin="round" /><path d="M 1154.845,155.010L 1156.303,155.010C1157.762,155.010,1160.678,155.010,1163.595,155.010C1166.512,155.010,1169.428,155.010,1172.299,154.645C1175.169,154.281,1177.993,153.552,1186.909,151.250C1195.824,148.948,1210.831,145.074,1219.746,142.772C1228.662,140.470,1231.486,139.741,1234.356,139.376C1237.227,139.012,1240.144,139.012,1243.060,139.012C1245.977,139.012,1248.894,139.012,1250.352,139.012L 1251.810,139.012" fill="none" stroke="#2F3B4D" stroke-width="2"    stroke-linecap="round" stroke-linejoin="round" /><rect x="1187.34" y="132.81" width="31.97" height="28.40" rx="2" ry="2" fill="rgba(248,250,252, 0.92)" fill-opacity="0.95" stroke="#7B88A8" stroke-opacity="0.45" stroke-width="0.8"/><text x="1203.33" y="151.01" text-anchor="middle" font-family="'trebuchet ms', verdana, arial, sans-serif" font-size="16" fill="#333333"><tspan x="1203.33" dy="0.00">Yes</tspan></text><path d="M 1154.845,123.010L 1156.303,123.010C1157.762,123.010,1160.678,123.010,1163.595,123.010C1166.512,123.010,1169.428,123.010,1170.887,124.468C1172.345,125.926,1172.345,128.843,1172.345,148.176C1172.345,167.510,1172.345,203.260,1172.345,223.135C1172.345,243.010,1172.345,247.010,1174.345,249.010C1176.345,251.010,1180.345,251.010,1271.628,251.010C1362.910,251.010,1541.475,251.010,1632.758,251.010C1724.041,251.010,1728.041,251.010,1730.041,249.010C1732.041,247.010,1732.041,243.010,1732.041,225.802C1732.041,208.594,1732.041,178.177,1732.041,161.510C1732.041,144.844,1732.041,141.927,1733.499,140.469C1734.957,139.011,1737.874,139.011,1740.791,139.011C1743.707,139.011,1746.624,139.011,1748.082,139.011L 1749.541,139.011" fill="none" stroke="#2F3B4D" stroke-width="2"    stroke-linecap="round" stroke-linejoin="round" /><rect x="1439.31" y="241.61" width="25.77" height="28.40" rx="2" ry="2" fill="rgba(248,250,252, 0.92)" fill-opacity="0.95" stroke="#7B88A8" stroke-opacity="0.45" stroke-width="0.8"/><text x="1452.19" y="259.81" text-anchor="middle" font-family="'trebuchet ms', verdana, arial, sans-serif" font-size="16" fill="#333333"><tspan x="1452.19" dy="0.00">No</tspan></text><path d="M 1464.912,139.012 L 1539.680,139.012" fill="none" stroke="#2F3B4D" stroke-width="2"    stroke-linecap="round" stroke-linejoin="round" /><path d="M 1653.265,139.012L 1654.724,139.012C1656.182,139.012,1659.099,139.012,1662.015,139.012C1664.932,139.012,1667.849,139.012,1670.718,139.380C1673.587,139.749,1676.409,140.486,1685.211,142.784C1694.012,145.082,1708.793,148.941,1717.595,151.239C1726.396,153.537,1729.219,154.274,1732.088,154.642C1734.957,155.011,1737.874,155.011,1740.791,155.011C1743.707,155.011,1746.624,155.011,1748.082,155.011L 1749.541,155.011" fill="none" stroke="#2F3B4D" stroke-width="2"    stroke-linecap="round" stroke-linejoin="round" /><rect x="1668.57" y="130.41" width="47.28" height="28.40" rx="2" ry="2" fill="rgba(248,250,252, 0.92)" fill-opacity="0.95" stroke="#7B88A8" stroke-opacity="0.45" stroke-width="0.8"/><text x="1692.21" y="148.61" text-anchor="middle" font-family="'trebuchet ms', verdana, arial, sans-serif" font-size="16" fill="#333333"><tspan x="1692.21" dy="0.00">Alert</tspan></text><rect x="8.00" y="111.99" width="144.21" height="54.00" rx="3" ry="3" fill="#ECECFF" stroke="#7B88A8" stroke-width="1" stroke-linejoin="round" stroke-linecap="round"/><text x="80.10" y="142.99" text-anchor="middle" font-family="'trebuchet ms', verdana, arial, sans-serif" font-size="16" fill="#333333"><tspan x="80.10" dy="0.00">Push to Git</tspan></text><polygon points="274.34,66.86 346.47,138.99 274.34,211.13 202.21,138.99" fill="#ECECFF" stroke="#7B88A8" stroke-width="1" stroke-linejoin="round" stroke-linecap="round"/><text x="274.34" y="142.99" text-anchor="middle" font-family="'trebuchet ms', verdana, arial, sans-serif" font-size="16" fill="#333333"><tspan x="274.34" dy="0.00">CI Triggered</tspan></text><rect x="396.47" y="8.00" width="90.62" height="54.00" rx="3" ry="3" fill="#ECECFF" stroke="#7B88A8" stroke-width="1" stroke-linejoin="round" stroke-linecap="round"/><text x="441.78" y="39.00" text-anchor="middle" font-family="'trebuchet ms', verdana, arial, sans-serif" font-size="16" fill="#333333"><tspan x="441.78" dy="0.00">Lint</tspan></text><rect x="396.47" y="112.00" width="136.55" height="54.00" rx="3" ry="3" fill="#ECECFF" stroke="#7B88A8" stroke-width="1" stroke-linejoin="round" stroke-linecap="round"/><text x="464.75" y="143.00" text-anchor="middle" font-family="'trebuchet ms', verdana, arial, sans-serif" font-size="16" fill="#333333"><tspan x="464.75" dy="0.00">Unit Tests</tspan></text><rect x="396.47" y="216.00" width="98.28" height="54.00" rx="3" ry="3" fill="#ECECFF" stroke="#7B88A8" stroke-width="1" stroke-linejoin="round" stroke-linecap="round"/><text x="445.61" y="247.00" text-anchor="middle" font-family="'trebuchet ms', verdana, arial, sans-serif" font-size="16" fill="#333333"><tspan x="445.61" dy="0.00">Build</tspan></text><polygon points="644.25,77.78 705.48,139.00 644.25,200.23 583.02,139.00" fill="#ECECFF" stroke="#7B88A8" stroke-width="1" stroke-linejoin="round" stroke-linecap="round"/><text x="644.25" y="143.00" text-anchor="middle" font-family="'trebuchet ms', verdana, arial, sans-serif" font-size="16" fill="#333333"><tspan x="644.25" dy="0.00">All Pass?</tspan></text><rect x="786.44" y="112.01" width="190.14" height="54.00" rx="3" ry="3" fill="#ECECFF" stroke="#7B88A8" stroke-width="1" stroke-linejoin="round" stroke-linecap="round"/><text x="881.51" y="143.01" text-anchor="middle" font-family="'trebuchet ms', verdana, arial, sans-serif" font-size="16" fill="#333333"><tspan x="881.51" dy="0.00">Deploy to Staging</tspan></text><rect x="1749.54" y="112.01" width="182.48" height="54.00" rx="3" ry="3" fill="#ECECFF" stroke="#7B88A8" stroke-width="1" stroke-linejoin="round" stroke-linecap="round"/><text x="1840.78" y="143.01" text-anchor="middle" font-family="'trebuchet ms', verdana, arial, sans-serif" font-size="16" fill="#333333"><tspan x="1840.78" dy="0.00">Notify Developer</tspan></text><polygon points="1098.71,66.88 1170.84,139.01 1098.71,211.14 1026.58,139.01" fill="#ECECFF" stroke="#7B88A8" stroke-width="1" stroke-linejoin="round" stroke-linecap="round"/><text x="1098.71" y="143.01" text-anchor="middle" font-family="'trebuchet ms', verdana, arial, sans-serif" font-size="16" fill="#333333"><tspan x="1098.71" dy="0.00">QA Approved?</tspan></text><rect x="1251.81" y="112.01" width="213.10" height="54.00" rx="3" ry="3" fill="#ECECFF" stroke="#7B88A8" stroke-width="1" stroke-linejoin="round" stroke-linecap="round"/><text x="1358.36" y="143.01" text-anchor="middle" font-family="'trebuchet ms', verdana, arial, sans-serif" font-size="16" fill="#333333"><tspan x="1358.36" dy="0.00">Deploy to Production</tspan></text><rect x="1539.68" y="112.01" width="113.59" height="54.00" rx="3" ry="3" fill="#ECECFF" stroke="#7B88A8" stroke-width="1" stroke-linejoin="round" stroke-linecap="round"/><text x="1596.47" y="143.01" text-anchor="middle" font-family="'trebuchet ms', verdana, arial, sans-serif" font-size="16" fill="#333333"><tspan x="1596.47" dy="0.00">Monitor</tspan></text><g transform="translate(202.21 138.99) rotate(0.00)"><polygon points="0,0 -10.40,6.24 -10.40,-6.24" fill="#2F3B4D" stroke="#2F3B4D" stroke-width="2" stroke-linejoin="round" stroke-linecap="round"/></g><g transform="translate(396.47 51.00) rotate(0.00)"><polygon points="0,0 -10.40,6.24 -10.40,-6.24" fill="#2F3B4D" stroke="#2F3B4D" stroke-width="2" stroke-linejoin="round" stroke-linecap="round"/></g><g transform="translate(396.47 139.00) rotate(0.00)"><polygon points="0,0 -10.40,6.24 -10.40,-6.24" fill="#2F3B4D" stroke="#2F3B4D" stroke-width="2" stroke-linejoin="round" stroke-linecap="round"/></g><g transform="translate(396.47 227.00) rotate(0.00)"><polygon points="0,0 -10.40,6.24 -10.40,-6.24" fill="#2F3B4D" stroke="#2F3B4D" stroke-width="2" stroke-linejoin="round" stroke-linecap="round"/></g><g transform="translate(615.02 107.00) rotate(0.00)"><polygon points="0,0 -10.40,6.24 -10.40,-6.24" fill="#2F3B4D" stroke="#2F3B4D" stroke-width="2" stroke-linejoin="round" stroke-linecap="round"/></g><g transform="translate(583.02 139.00) rotate(0.00)"><polygon points="0,0 -10.40,6.24 -10.40,-6.24" fill="#2F3B4D" stroke="#2F3B4D" stroke-width="2" stroke-linejoin="round" stroke-linecap="round"/></g><g transform="translate(615.02 171.00) rotate(0.00)"><polygon points="0,0 -10.40,6.24 -10.40,-6.24" fill="#2F3B4D" stroke="#2F3B4D" stroke-width="2" stroke-linejoin="round" stroke-linecap="round"/></g><g transform="translate(786.44 139.01) rotate(0.00)"><polygon points="0,0 -10.40,6.24 -10.40,-6.24" fill="#2F3B4D" stroke="#2F3B4D" stroke-width="2" stroke-linejoin="round" stroke-linecap="round"/></g><g transform="translate(1749.54 139.01) rotate(0.00)"><polygon points="0,0 -10.40,6.24 -10.40,-6.24" fill="#2F3B4D" stroke="#2F3B4D" stroke-width="2" stroke-linejoin="round" stroke-linecap="round"/></g><g transform="translate(1026.58 139.01) rotate(0.00)"><polygon points="0,0 -10.40,6.24 -10.40,-6.24" fill="#2F3B4D" stroke="#2F3B4D" stroke-width="2" stroke-linejoin="round" stroke-linecap="round"/></g><g transform="translate(1251.81 139.01) rotate(0.00)"><polygon points="0,0 -10.40,6.24 -10.40,-6.24" fill="#2F3B4D" stroke="#2F3B4D" stroke-width="2" stroke-linejoin="round" stroke-linecap="round"/></g><g transform="translate(1749.54 139.01) rotate(0.00)"><polygon points="0,0 -10.40,6.24 -10.40,-6.24" fill="#2F3B4D" stroke="#2F3B4D" stroke-width="2" stroke-linejoin="round" stroke-linecap="round"/></g><g transform="translate(1539.68 139.01) rotate(0.00)"><polygon points="0,0 -10.40,6.24 -10.40,-6.24" fill="#2F3B4D" stroke="#2F3B4D" stroke-width="2" stroke-linejoin="round" stroke-linecap="round"/></g><g transform="translate(1749.54 155.01) rotate(0.00)"><polygon points="0,0 -10.40,6.24 -10.40,-6.24" fill="#2F3B4D" stroke="#2F3B4D" stroke-width="2" stroke-linejoin="round" stroke-linecap="round"/></g></svg>