<svg xmlns="http://www.w3.org/2000/svg" width="500.88" height="318.0146" viewBox="0 0 500.88 318.0146"><rect x="0" y="0" width="500.88" height="318.0146" fill="#FFFFFF"/><defs><marker id="arrow-0" viewBox="0 0 10 10" refX="5" refY="5" markerUnits="userSpaceOnUse" markerWidth="8" markerHeight="8" orient="auto"><path d="M 0 0 L 10 5 L 0 10 z" fill="#2F3B4D" stroke="#2F3B4D" stroke-width="1" stroke-dasharray="1,0"/></marker><marker id="arrow-start-0" viewBox="0 0 10 10" refX="4.5" refY="5" markerUnits="userSpaceOnUse" markerWidth="8" markerHeight="8" orient="auto"><path d="M 0 5 L 10 10 L 10 0 z" fill="#2F3B4D" stroke="#2F3B4D" stroke-width="1" stroke-dasharray="1,0"/></marker></defs><path d="M 72.801,155.275L 73.809,155.275C74.817,155.275,76.833,155.275,78.849,155.275C80.865,155.275,82.880,155.275,84.051,154.281C85.221,153.286,85.546,151.296,87.770,137.676C89.993,124.055,94.116,98.803,96.340,85.182C98.564,71.561,98.889,69.572,100.059,68.577C101.229,67.583,103.245,67.583,105.261,67.583C107.276,67.583,109.292,67.583,110.300,67.583L 111.308,67.583" fill="none" stroke="#2F3B4D" stroke-width="2"    stroke-linecap="round" stroke-linejoin="round" /><path d="M 76.752,171.275L 77.904,171.275C79.056,171.275,81.359,171.275,83.375,171.275C85.391,171.275,87.119,171.275,88.847,171.273C90.574,171.271,92.302,171.267,93.166,171.265C94.030,171.263,94.030,171.263,94.894,171.261C95.758,171.259,97.486,171.255,99.213,171.253C100.941,171.251,102.669,171.251,104.685,171.251C106.701,171.251,109.004,171.251,110.156,171.251L 111.308,171.251" fill="none" stroke="#2F3B4D" stroke-width="2"    stroke-linecap="round" stroke-linejoin="round" /><path d="M 72.801,187.275L 73.809,187.275C74.817,187.275,76.833,187.275,78.849,187.275C80.865,187.275,82.880,187.275,84.050,188.270C85.220,189.265,85.543,191.254,87.768,204.927C89.992,218.599,94.117,243.955,96.342,257.627C98.566,271.299,98.890,273.289,100.059,274.284C101.229,275.279,103.245,275.279,105.261,275.279C107.276,275.279,109.292,275.279,110.300,275.279L 111.308,275.279" fill="none" stroke="#2F3B4D" stroke-width="2"    stroke-linecap="round" stroke-linejoin="round" /><path d="M 145.684,101.959L 145.684,102.966C145.684,103.974,145.684,105.990,145.684,108.006C145.684,110.022,145.684,112.037,146.692,113.045C147.700,114.053,149.716,114.053,156.385,114.053C163.054,114.053,174.376,114.053,182.037,114.053C189.698,114.053,193.698,114.053,195.698,116.053C197.698,118.053,197.698,122.053,197.698,130.437C197.698,138.821,197.698,151.589,197.698,159.973C197.698,168.356,197.698,172.356,199.698,174.356C201.698,176.356,205.698,176.356,213.359,176.356C221.020,176.356,232.342,176.356,239.011,176.356C245.680,176.356,247.696,176.356,248.704,177.364C249.712,178.372,249.712,180.388,249.712,182.404C249.712,184.419,249.712,186.435,249.712,187.443L 249.712,188.451" fill="none" stroke="#2F3B4D" stroke-width="2"    stroke-linecap="round" stroke-linejoin="round" /><path d="M 176.876,187.251L 177.884,187.251C178.891,187.251,180.907,187.251,182.923,187.251C184.939,187.251,186.954,187.251,188.649,187.988C190.344,188.726,191.717,190.202,194.067,192.727C196.418,195.252,199.745,198.826,202.095,201.351C204.445,203.876,205.819,205.352,207.513,206.089C209.208,206.827,211.223,206.827,213.239,206.827C215.255,206.827,217.271,206.827,218.279,206.827L 219.287,206.827" fill="none" stroke="#2F3B4D" stroke-width="2"    stroke-linecap="round" stroke-linejoin="round" /><path d="M 176.876,291.279L 177.884,291.279C178.891,291.279,180.907,291.279,182.923,291.279C184.939,291.279,186.954,291.279,188.293,290.327C189.632,289.374,190.293,287.470,192.999,279.680C195.706,271.891,200.457,258.215,203.163,250.425C205.869,242.635,206.530,240.731,207.869,239.779C209.208,238.827,211.223,238.827,213.239,238.827C215.255,238.827,217.271,238.827,218.279,238.827L 219.287,238.827" fill="none" stroke="#2F3B4D" stroke-width="2"    stroke-linecap="round" stroke-linejoin="round" /><path d="M 176.109,51.583L 177.117,51.583C178.125,51.583,180.141,51.583,182.157,51.583C184.173,51.583,186.188,51.583,187.541,52.530C188.893,53.477,189.583,55.371,192.411,63.141C195.239,70.912,200.206,84.558,203.034,92.328C205.862,100.099,206.551,101.993,207.904,102.940C209.256,103.887,211.272,103.887,213.288,103.887C215.303,103.887,217.319,103.887,218.327,103.887L 219.335,103.887" fill="none" stroke="#2F3B4D" stroke-width="2"    stroke-linecap="round" stroke-linejoin="round" /><path d="M 176.876,155.251L 177.884,155.251C178.891,155.251,180.907,155.251,182.923,155.251C184.939,155.251,186.954,155.251,188.654,154.518C190.354,153.784,191.737,152.318,194.090,149.824C196.444,147.330,199.767,143.808,202.120,141.314C204.474,138.819,205.857,137.353,207.557,136.620C209.256,135.887,211.272,135.887,213.288,135.887C215.303,135.887,217.319,135.887,218.327,135.887L 219.335,135.887" fill="none" stroke="#2F3B4D" stroke-width="2"    stroke-linecap="round" stroke-linejoin="round" /><path d="M 146.044,240.543L 146.044,239.535C146.044,238.527,146.044,236.511,146.044,234.495C146.044,232.480,146.044,230.464,147.052,229.456C148.060,228.448,150.076,228.448,156.684,228.448C163.292,228.448,174.493,228.448,182.094,228.448C189.694,228.448,193.694,228.448,195.694,226.448C197.694,224.448,197.694,220.448,197.694,212.038C197.694,203.629,197.694,190.809,197.694,182.399C197.694,173.990,197.694,169.990,199.694,167.990C201.694,165.990,205.694,165.990,213.294,165.990C220.895,165.990,232.096,165.990,238.704,165.990C245.312,165.990,247.328,165.990,248.336,164.982C249.344,163.974,249.344,161.958,249.344,159.942C249.344,157.927,249.344,155.911,249.344,154.903L 249.344,153.895" fill="none" stroke="#2F3B4D" stroke-width="2"    stroke-linecap="round" stroke-linejoin="round" /><path d="M 284.088,222.827L 285.096,222.827C286.104,222.827,288.120,222.827,290.135,222.827C292.151,222.827,294.167,222.827,295.550,221.892C296.933,220.956,297.683,219.085,299.679,214.110C301.675,209.134,304.916,201.054,306.911,196.078C308.907,191.102,309.657,189.231,311.040,188.296C312.423,187.360,314.439,187.360,316.455,187.360C318.471,187.360,320.487,187.360,321.494,187.360L 322.502,187.360" fill="none" stroke="#2F3B4D" stroke-width="2"    stroke-linecap="round" stroke-linejoin="round" /><path d="M 283.352,119.887L 284.360,119.887C285.368,119.887,287.384,119.887,289.399,119.887C291.415,119.887,293.431,119.887,294.830,120.816C296.230,121.744,297.013,123.602,299.115,128.585C301.217,133.569,304.637,141.679,306.739,146.662C308.841,151.646,309.624,153.503,311.024,154.432C312.423,155.360,314.439,155.360,316.455,155.360C318.471,155.360,320.487,155.360,321.494,155.360L 322.502,155.360" fill="none" stroke="#2F3B4D" stroke-width="2"    stroke-linecap="round" stroke-linejoin="round" /><path d="M 388.852,171.360 L 423.408,171.360" fill="none" stroke="#2F3B4D" stroke-width="2"    stroke-linecap="round" stroke-linejoin="round" /><path d="M 176.109,83.583L 178.189,83.583C180.268,83.583,184.426,83.583,186.874,83.583C189.321,83.583,190.057,83.583,190.425,83.951C190.793,84.319,190.793,85.055,190.793,85.423C190.793,85.791,190.793,85.791,190.793,86.159C190.793,86.528,190.793,87.264,190.425,87.632C190.057,88.000,189.321,88.000,183.321,88.000C177.321,88.000,166.057,88.000,158.425,88.000C150.793,88.000,146.793,88.000,144.793,86.000C142.793,84.000,142.793,80.000,142.793,68.667C142.793,57.333,142.793,38.667,142.793,27.333C142.793,16.000,142.793,12.000,144.793,10.000C146.793,8.000,150.793,8.000,199.460,8.000C248.127,8.000,341.460,8.000,390.127,8.000C438.793,8.000,442.793,8.000,444.793,10.000C446.793,12.000,446.793,16.000,446.793,38.000C446.793,60.000,446.793,100.000,446.793,122.000C446.793,144.000,446.793,148.000,444.793,150.000C442.793,152.000,438.793,152.000,433.740,152.000C428.687,152.000,422.580,152.000,419.247,152.000C415.913,152.000,415.353,152.000,415.073,152.280C414.793,152.560,414.793,153.120,414.793,153.400C414.793,153.680,414.793,153.680,414.793,153.960C414.793,154.240,414.793,154.800,415.073,155.080C415.353,155.360,415.913,155.360,418.000,155.360C420.086,155.360,423.699,155.360,425.506,155.360L 427.312,155.360" fill="none" stroke="#2F3B4D" stroke-width="2"    stroke-linecap="round" stroke-linejoin="round" /><path d="M 180.780,171.251L 181.788,171.251C182.796,171.251,184.812,171.251,186.827,171.251C188.843,171.251,190.859,171.251,191.867,170.243C192.875,169.235,192.875,167.219,192.875,151.950C192.875,136.681,192.875,108.159,192.875,91.898C192.875,75.637,192.875,71.637,194.875,69.637C196.875,67.637,200.875,67.637,235.281,67.637C269.688,67.637,334.500,67.637,368.907,67.637C403.313,67.637,407.313,67.637,409.313,69.637C411.313,71.637,411.313,75.637,411.313,91.917C411.313,108.196,411.313,136.754,411.313,152.042C411.313,167.329,411.313,169.344,412.321,170.352C413.329,171.360,415.345,171.360,417.361,171.360C419.376,171.360,421.392,171.360,422.400,171.360L 423.408,171.360" fill="none" stroke="#2F3B4D" stroke-width="2"    stroke-linecap="round" stroke-linejoin="round" /><path d="M 176.876,259.279L 177.884,259.279C178.891,259.279,180.907,259.279,182.923,259.279C184.939,259.279,186.954,259.279,187.962,260.286C188.970,261.294,188.970,263.310,188.970,265.684C188.970,268.057,188.970,270.789,188.970,274.155C188.970,277.520,188.970,281.520,190.970,283.520C192.970,285.520,196.970,285.520,232.678,285.520C268.386,285.520,335.802,285.520,371.510,285.520C407.218,285.520,411.218,285.520,413.218,283.520C415.218,281.520,415.218,277.520,415.218,262.168C415.218,246.816,415.218,220.112,415.218,205.752C415.218,191.392,415.218,189.376,416.226,188.368C417.234,187.360,419.249,187.360,421.265,187.360C423.281,187.360,425.297,187.360,426.304,187.360L 427.312,187.360" fill="none" stroke="#2F3B4D" stroke-width="2"    stroke-linecap="round" stroke-linejoin="round" /><circle cx="42.38" cy="171.28" r="34.38" fill="#ECECFF" stroke="#7B88A8" stroke-width="1" stroke-linejoin="round" stroke-linecap="round"/><circle cx="42.38" cy="171.28" r="30.38" fill="none" stroke="#7B88A8" stroke-width="1" stroke-linejoin="round" stroke-linecap="round"/><text x="42.38" y="175.28" text-anchor="middle" font-family="'trebuchet ms', verdana, arial, sans-serif" font-size="16" fill="#333333"><tspan x="42.38" dy="0.00">A</tspan></text><circle cx="145.68" cy="67.58" r="34.38" fill="#ECECFF" stroke="#7B88A8" stroke-width="1" stroke-linejoin="round" stroke-linecap="round"/><circle cx="145.68" cy="67.58" r="30.38" fill="none" stroke="#7B88A8" stroke-width="1" stroke-linejoin="round" stroke-linecap="round"/><text x="145.68" y="71.58" text-anchor="middle" font-family="'trebuchet ms', verdana, arial, sans-serif" font-size="16" fill="#333333"><tspan x="145.68" dy="0.00">B</tspan></text><circle cx="146.04" cy="171.25" r="34.74" fill="#ECECFF" stroke="#7B88A8" stroke-width="1" stroke-linejoin="round" stroke-linecap="round"/><circle cx="146.04" cy="171.25" r="30.74" fill="none" stroke="#7B88A8" stroke-width="1" stroke-linejoin="round" stroke-linecap="round"/><text x="146.04" y="175.25" text-anchor="middle" font-family="'trebuchet ms', verdana, arial, sans-serif" font-size="16" fill="#333333"><tspan x="146.04" dy="0.00">C</tspan></text><circle cx="146.04" cy="275.28" r="34.74" fill="#ECECFF" stroke="#7B88A8" stroke-width="1" stroke-linejoin="round" stroke-linecap="round"/><circle cx="146.04" cy="275.28" r="30.74" fill="none" stroke="#7B88A8" stroke-width="1" stroke-linejoin="round" stroke-linecap="round"/><text x="146.04" y="279.28" text-anchor="middle" font-family="'trebuchet ms', verdana, arial, sans-serif" font-size="16" fill="#333333"><tspan x="146.04" dy="0.00">D</tspan></text><circle cx="249.71" cy="222.83" r="34.38" fill="#ECECFF" stroke="#7B88A8" stroke-width="1" stroke-linejoin="round" stroke-linecap="round"/><circle cx="249.71" cy="222.83" r="30.38" fill="none" stroke="#7B88A8" stroke-width="1" stroke-linejoin="round" stroke-linecap="round"/><text x="249.71" y="226.83" text-anchor="middle" font-family="'trebuchet ms', verdana, arial, sans-serif" font-size="16" fill="#333333"><tspan x="249.71" dy="0.00">E</tspan></text><circle cx="249.34" cy="119.89" r="34.01" fill="#ECECFF" stroke="#7B88A8" stroke-width="1" stroke-linejoin="round" stroke-linecap="round"/><circle cx="249.34" cy="119.89" r="30.01" fill="none" stroke="#7B88A8" stroke-width="1" stroke-linejoin="round" stroke-linecap="round"/><text x="249.34" y="123.89" text-anchor="middle" font-family="'trebuchet ms', verdana, arial, sans-serif" font-size="16" fill="#333333"><tspan x="249.34" dy="0.00">F</tspan></text><circle cx="353.75" cy="171.36" r="35.10" fill="#ECECFF" stroke="#7B88A8" stroke-width="1" stroke-linejoin="round" stroke-linecap="round"/><circle cx="353.75" cy="171.36" r="31.10" fill="none" stroke="#7B88A8" stroke-width="1" stroke-linejoin="round" stroke-linecap="round"/><text x="353.75" y="175.36" text-anchor="middle" font-family="'trebuchet ms', verdana, arial, sans-serif" font-size="16" fill="#333333"><tspan x="353.75" dy="0.00">G</tspan></text><circle cx="458.14" cy="171.36" r="34.74" fill="#ECECFF" stroke="#7B88A8" stroke-width="1" stroke-linejoin="round" stroke-linecap="round"/><circle cx="458.14" cy="171.36" r="30.74" fill="none" stroke="#7B88A8" stroke-width="1" stroke-linejoin="round" stroke-linecap="round"/><text x="458.14" y="175.36" text-anchor="middle" font-family="'trebuchet ms', verdana, arial, sans-serif" font-size="16" fill="#333333"><tspan x="458.14" dy="0.00">H</tspan></text><g transform="translate(111.31 67.58) rotate(0.00)"><polygon points="0,0 -10.40,6.24 -10.40,-6.24" fill="#2F3B4D" stroke="#2F3B4D" stroke-width="2" stroke-linejoin="round" stroke-linecap="round"/></g><g transform="translate(111.31 171.25) rotate(0.00)"><polygon points="0,0 -10.40,6.24 -10.40,-6.24" fill="#2F3B4D" stroke="#2F3B4D" stroke-width="2" stroke-linejoin="round" stroke-linecap="round"/></g><g transform="translate(111.31 275.28) rotate(0.00)"><polygon points="0,0 -10.40,6.24 -10.40,-6.24" fill="#2F3B4D" stroke="#2F3B4D" stroke-width="2" stroke-linejoin="round" stroke-linecap="round"/></g><g transform="translate(249.71 188.45) rotate(90.00)"><polygon points="0,0 -10.40,6.24 -10.40,-6.24" fill="#2F3B4D" stroke="#2F3B4D" stroke-width="2" stroke-linejoin="round" stroke-linecap="round"/></g><g transform="translate(219.29 206.83) rotate(0.00)"><polygon points="0,0 -10.40,6.24 -10.40,-6.24" fill="#2F3B4D" stroke="#2F3B4D" stroke-width="2" stroke-linejoin="round" stroke-linecap="round"/></g><g transform="translate(219.29 238.83) rotate(0.00)"><polygon points="0,0 -10.40,6.24 -10.40,-6.24" fill="#2F3B4D" stroke="#2F3B4D" stroke-width="2" stroke-linejoin="round" stroke-linecap="round"/></g><g transform="translate(219.33 103.89) rotate(0.00)"><polygon points="0,0 -10.40,6.24 -10.40,-6.24" fill="#2F3B4D" stroke="#2F3B4D" stroke-width="2" stroke-linejoin="round" stroke-linecap="round"/></g><g transform="translate(219.33 135.89) rotate(0.00)"><polygon points="0,0 -10.40,6.24 -10.40,-6.24" fill="#2F3B4D" stroke="#2F3B4D" stroke-width="2" stroke-linejoin="round" stroke-linecap="round"/></g><g transform="translate(249.34 153.90) rotate(-90.00)"><polygon points="0,0 -10.40,6.24 -10.40,-6.24" fill="#2F3B4D" stroke="#2F3B4D" stroke-width="2" stroke-linejoin="round" stroke-linecap="round"/></g><g transform="translate(322.50 187.36) rotate(0.00)"><polygon points="0,0 -10.40,6.24 -10.40,-6.24" fill="#2F3B4D" stroke="#2F3B4D" stroke-width="2" stroke-linejoin="round" stroke-linecap="round"/></g><g transform="translate(322.50 155.36) rotate(0.00)"><polygon points="0,0 -10.40,6.24 -10.40,-6.24" fill="#2F3B4D" stroke="#2F3B4D" stroke-width="2" stroke-linejoin="round" stroke-linecap="round"/></g><g transform="translate(423.41 171.36) rotate(0.00)"><polygon points="0,0 -10.40,6.24 -10.40,-6.24" fill="#2F3B4D" stroke="#2F3B4D" stroke-width="2" stroke-linejoin="round" stroke-linecap="round"/></g><g transform="translate(427.31 155.36) rotate(0.00)"><polygon points="0,0 -10.40,6.24 -10.40,-6.24" fill="#2F3B4D" stroke="#2F3B4D" stroke-width="2" stroke-linejoin="round" stroke-linecap="round"/></g><g transform="translate(423.41 171.36) rotate(0.00)"><polygon points="0,0 -10.40,6.24 -10.40,-6.24" fill="#2F3B4D" stroke="#2F3B4D" stroke-width="2" stroke-linejoin="round" stroke-linecap="round"/></g><g transform="translate(427.31 187.36) rotate(0.00)"><polygon points="0,0 -10.40,6.24 -10.40,-6.24" fill="#2F3B4D" stroke="#2F3B4D" stroke-width="2" stroke-linejoin="round" stroke-linecap="round"/></g></svg>