<svg xmlns="http://www.w3.org/2000/svg" width="1304.6" height="351.4" viewBox="0 0 1304.6 351.4"><rect width="100%" height="100%" fill="#FFFFFF"/><defs><marker id="arrow-0" viewBox="0 0 10 10" refX="5" refY="5" markerUnits="userSpaceOnUse" markerWidth="8" markerHeight="8" orient="auto"><path d="M 0 0 L 10 5 L 0 10 z" fill="#333333"/></marker><marker id="arrow-start-0" viewBox="0 0 10 10" refX="4.5" refY="5" markerUnits="userSpaceOnUse" markerWidth="8" markerHeight="8" orient="auto"><path d="M 0 5 L 10 10 L 10 0 z" fill="#333333"/></marker><marker id="arrow-1" viewBox="0 0 10 10" refX="5" refY="5" markerUnits="userSpaceOnUse" markerWidth="8" markerHeight="8" orient="auto"><path d="M 0 0 L 10 5 L 0 10 z" fill="red"/></marker><marker id="arrow-start-1" viewBox="0 0 10 10" refX="4.5" refY="5" markerUnits="userSpaceOnUse" markerWidth="8" markerHeight="8" orient="auto"><path d="M 0 5 L 10 10 L 10 0 z" fill="red"/></marker><marker id="arrow-2" viewBox="0 0 10 10" refX="5" refY="5" markerUnits="userSpaceOnUse" markerWidth="8" markerHeight="8" orient="auto"><path d="M 0 0 L 10 5 L 0 10 z" fill="blue"/></marker><marker id="arrow-start-2" viewBox="0 0 10 10" refX="4.5" refY="5" markerUnits="userSpaceOnUse" markerWidth="8" markerHeight="8" orient="auto"><path d="M 0 5 L 10 10 L 10 0 z" fill="blue"/></marker></defs><path d="M 129.60 160.40 L 154.40 160.40 L 154.40 160.40 L 179.20 160.40" fill="none" stroke="red" stroke-width="2" marker-end="url(#arrow-1)"   stroke-linecap="round" stroke-linejoin="round" /><path d="M 294.40 160.40 L 319.19 160.40 L 319.19 160.40 L 343.98 160.40" fill="none" stroke="blue" stroke-width="2" marker-end="url(#arrow-2)"   stroke-linecap="round" stroke-linejoin="round" /><path d="M 508.62 160.40 L 537.37 160.40 L 537.37 53.70 L 566.12 53.70" fill="none" stroke="#333333" stroke-width="2" marker-end="url(#arrow-0)"   stroke-linecap="round" stroke-linejoin="round" /><rect x="545.37" y="93.05" width="51.20" height="28.00" rx="0" ry="0" fill="#E8E8E8" fill-opacity="0.5" stroke="none"/><text x="570.97" y="111.05" text-anchor="middle" font-family="'trebuchet ms', verdana, arial, sans-serif" font-size="16" fill="#333333"><tspan x="570.97" dy="0.00">Path 1</tspan></text><path d="M 508.62 160.40 L 538.75 160.40 L 538.75 160.40 L 568.88 160.40" fill="none" stroke="#333333" stroke-width="2" marker-end="url(#arrow-0)"   stroke-linecap="round" stroke-linejoin="round" /><rect x="513.15" y="146.40" width="51.20" height="28.00" rx="0" ry="0" fill="#E8E8E8" fill-opacity="0.5" stroke="none"/><text x="538.75" y="164.40" text-anchor="middle" font-family="'trebuchet ms', verdana, arial, sans-serif" font-size="16" fill="#333333"><tspan x="538.75" dy="0.00">Path 2</tspan></text><path d="M 508.62 160.40 L 533.41 160.40 L 533.41 264.40 L 558.20 264.40" fill="none" stroke="#333333" stroke-width="2" marker-end="url(#arrow-0)"   stroke-linecap="round" stroke-linejoin="round" /><rect x="541.41" y="198.40" width="51.20" height="28.00" rx="0" ry="0" fill="#E8E8E8" fill-opacity="0.5" stroke="none"/><text x="567.01" y="216.40" text-anchor="middle" font-family="'trebuchet ms', verdana, arial, sans-serif" font-size="16" fill="#333333"><tspan x="567.01" dy="0.00">Path 3</tspan></text><path d="M 695.48 53.70 L 724.27 53.70 L 724.27 160.40 L 753.06 160.40" fill="none" stroke="#333333" stroke-width="2" marker-end="url(#arrow-0)"   stroke-linecap="round" stroke-linejoin="round" /><path d="M 692.72 160.40 L 722.89 160.40 L 722.89 160.40 L 753.06 160.40" fill="none" stroke="#333333" stroke-width="2" marker-end="url(#arrow-0)"   stroke-linecap="round" stroke-linejoin="round" /><path d="M 703.40 264.40 L 728.23 264.40 L 728.23 160.40 L 753.06 160.40" fill="none" stroke="#333333" stroke-width="2" marker-end="url(#arrow-0)"   stroke-linecap="round" stroke-linejoin="round" /><path d="M 885.54 160.40 L 910.28 160.40 L 910.28 160.40 L 935.02 160.40" fill="none" stroke="#333333" stroke-width="2" marker-end="url(#arrow-0)"   stroke-linecap="round" stroke-linejoin="round" /><path d="M 1041.58 160.40 L 1066.29 160.40 L 1066.29 160.40 L 1091.00 160.40" fill="none" stroke="#333333" stroke-width="2" marker-end="url(#arrow-0)"   stroke-linecap="round" stroke-linejoin="round" /><rect x="24.00" y="132.05" width="105.60" height="56.70" rx="28.35" ry="28.35" fill="#ECECFF" stroke="#9370DB" stroke-width="1" stroke-linejoin="round" stroke-linecap="round"/><text x="76.80" y="164.40" text-anchor="middle" font-family="'trebuchet ms', verdana, arial, sans-serif" font-size="16" fill="#333333"><tspan x="76.80" dy="0.00">Start</tspan></text><polygon points="179.20,133.40 294.40,133.40 273.66,187.40 199.94,187.40" fill="#ECECFF" stroke="#9370DB" stroke-width="1" stroke-linejoin="round" stroke-linecap="round"/><text x="236.80" y="164.40" text-anchor="middle" font-family="'trebuchet ms', verdana, arial, sans-serif" font-size="16" fill="#333333"><tspan x="236.80" dy="0.00">Input</tspan></text><polygon points="426.30,122.60 508.62,160.40 426.30,198.20 343.98,160.40" fill="#ECECFF" stroke="#9370DB" stroke-width="1" stroke-linejoin="round" stroke-linecap="round"/><text x="426.30" y="164.40" text-anchor="middle" font-family="'trebuchet ms', verdana, arial, sans-serif" font-size="16" fill="#333333"><tspan x="426.30" dy="0.00">Decision</tspan></text><ellipse cx="630.80" cy="31.13" rx="64.68" ry="7.13" fill="#e1f5fe" stroke="#9370DB" stroke-width="1" stroke-linejoin="round" stroke-linecap="round"/><rect x="566.12" y="31.13" width="129.36" height="45.14" fill="#e1f5fe" stroke="#9370DB" stroke-width="1" stroke-linejoin="round" stroke-linecap="round"/><ellipse cx="630.80" cy="76.27" rx="64.68" ry="7.13" fill="none" stroke="#9370DB" stroke-width="1" stroke-linejoin="round" stroke-linecap="round"/><text x="630.80" y="57.70" text-anchor="middle" font-family="'trebuchet ms', verdana, arial, sans-serif" font-size="16" fill="#333333"><tspan x="630.80" dy="0.00">Database</tspan></text><polygon points="591.17,133.40 670.43,133.40 692.72,187.40 568.88,187.40" fill="#ECECFF" stroke="#9370DB" stroke-width="1" stroke-linejoin="round" stroke-linecap="round"/><text x="630.80" y="164.40" text-anchor="middle" font-family="'trebuchet ms', verdana, arial, sans-serif" font-size="16" fill="#333333"><tspan x="630.80" dy="0.00">Output</tspan></text><rect x="558.20" y="237.40" width="145.20" height="54.00" rx="6" ry="6" fill="#ECECFF" stroke="#9370DB" stroke-width="1" stroke-linejoin="round" stroke-linecap="round"/><line x1="564.20" y1="239.40" x2="564.20" y2="289.40" stroke="#9370DB" stroke-width="1" stroke-linejoin="round" stroke-linecap="round"/><line x1="697.40" y1="239.40" x2="697.40" y2="289.40" stroke="#9370DB" stroke-width="1" stroke-linejoin="round" stroke-linecap="round"/><text x="630.80" y="268.40" text-anchor="middle" font-family="'trebuchet ms', verdana, arial, sans-serif" font-size="16" fill="#333333"><tspan x="630.80" dy="0.00">Subroutine</tspan></text><polygon points="786.18,130.70 852.42,130.70 885.54,160.40 852.42,190.10 786.18,190.10 753.06,160.40" fill="#fff3e0" stroke="#9370DB" stroke-width="1" stroke-linejoin="round" stroke-linecap="round"/><text x="819.30" y="164.40" text-anchor="middle" font-family="'trebuchet ms', verdana, arial, sans-serif" font-size="16" fill="#333333"><tspan x="819.30" dy="0.00">Hexagon</tspan></text><polygon points="935.02,133.40 1018.14,133.40 1041.58,160.40 1018.14,187.40 935.02,187.40" fill="#ECECFF" stroke="#9370DB" stroke-width="1" stroke-linejoin="round" stroke-linecap="round"/><text x="988.30" y="164.40" text-anchor="middle" font-family="'trebuchet ms', verdana, arial, sans-serif" font-size="16" fill="#333333"><tspan x="988.30" dy="0.00">Flag</tspan></text><circle cx="1167.80" cy="160.40" r="76.80" fill="#ECECFF" stroke="#9370DB" stroke-width="1" stroke-linejoin="round" stroke-linecap="round"/><circle cx="1167.80" cy="160.40" r="72.80" fill="none" stroke="#9370DB" stroke-width="1" stroke-linejoin="round" stroke-linecap="round"/><text x="1167.80" y="164.40" text-anchor="middle" font-family="'trebuchet ms', verdana, arial, sans-serif" font-size="16" fill="#333333"><tspan x="1167.80" dy="0.00">Double Circle</tspan></text></svg>