<svg xmlns="http://www.w3.org/2000/svg" width="376.42044" height="1422.6162" viewBox="0 0 376.42044 1422.6162"><rect x="0" y="0" width="376.42044" height="1422.6162" fill="#FFFFFF"/><defs><marker id="arrow-0" viewBox="0 0 10 10" refX="5" refY="5" markerUnits="userSpaceOnUse" markerWidth="8" markerHeight="8" orient="auto"><path d="M 0 0 L 10 5 L 0 10 z" fill="#2F3B4D" stroke="#2F3B4D" stroke-width="1" stroke-dasharray="1,0"/></marker><marker id="arrow-start-0" viewBox="0 0 10 10" refX="4.5" refY="5" markerUnits="userSpaceOnUse" markerWidth="8" markerHeight="8" orient="auto"><path d="M 0 5 L 10 10 L 10 0 z" fill="#2F3B4D" stroke="#2F3B4D" stroke-width="1" stroke-dasharray="1,0"/></marker></defs><path d="M 209.697,47.000L 209.697,48.138C209.697,49.275,209.697,51.550,209.697,53.825C209.697,56.100,209.697,58.375,209.818,60.644C209.939,62.912,210.182,65.174,210.467,67.826C210.752,70.479,211.079,73.521,211.363,76.174C211.648,78.826,211.891,81.088,212.012,83.356C212.134,85.625,212.134,87.900,212.134,90.175C212.134,92.450,212.134,94.725,212.134,95.862L 212.134,97.000" fill="none" stroke="#2F3B4D" stroke-width="2"    stroke-linecap="round" stroke-linejoin="round" /><path d="M 180.134,194.723L 180.134,196.182C180.134,197.640,180.134,200.557,180.134,203.473C180.134,206.390,180.134,209.307,179.791,212.182C179.448,215.058,178.762,217.893,175.921,229.642C173.079,241.391,168.081,262.055,165.239,273.804C162.397,285.553,161.712,288.388,161.369,291.264C161.026,294.140,161.026,297.057,161.026,299.973C161.026,302.890,161.026,305.807,161.026,307.265L 161.026,308.723" fill="none" stroke="#2F3B4D" stroke-width="2"    stroke-linecap="round" stroke-linejoin="round" /><rect x="166.80" y="239.73" width="25.77" height="28.40" rx="2" ry="2" fill="rgba(248,250,252, 0.92)" fill-opacity="0.95" stroke="#7B88A8" stroke-opacity="0.45" stroke-width="0.8"/><text x="179.69" y="257.93" text-anchor="middle" font-family="'trebuchet ms', verdana, arial, sans-serif" font-size="16" fill="#333333"><tspan x="179.69" dy="0.00">No</tspan></text><path d="M 161.026,362.723L 161.026,364.182C161.026,365.640,161.026,368.557,161.026,371.473C161.026,374.390,161.026,377.307,160.037,379.837C159.048,382.367,157.070,384.511,155.753,385.939C154.435,387.367,153.778,388.080,152.460,389.508C151.142,390.936,149.165,393.080,148.176,395.610C147.187,398.140,147.187,401.057,147.187,403.973C147.187,406.890,147.187,409.807,147.187,411.265L 147.187,412.723" fill="none" stroke="#2F3B4D" stroke-width="2"    stroke-linecap="round" stroke-linejoin="round" /><path d="M 131.187,584.625L 131.187,586.083C131.187,587.542,131.187,590.458,131.187,593.375C131.187,596.292,131.187,599.208,129.728,600.667C128.270,602.125,125.353,602.125,119.669,602.125C113.985,602.125,105.533,602.125,99.306,602.125C93.080,602.125,89.080,602.125,87.080,604.125C85.080,606.125,85.080,610.125,85.080,715.133C85.080,820.140,85.080,1026.155,85.080,1130.320C85.080,1234.485,85.080,1236.801,86.238,1237.958C87.396,1239.116,89.712,1239.116,90.869,1239.116C92.027,1239.116,92.027,1239.116,93.185,1239.116C94.343,1239.116,96.658,1239.116,97.816,1240.274C98.974,1241.432,98.974,1243.747,98.974,1246.664C98.974,1249.581,98.974,1253.099,98.974,1254.857L 98.974,1256.616" fill="none" stroke="#2F3B4D" stroke-width="2"    stroke-linecap="round" stroke-linejoin="round" /><rect x="72.20" y="906.42" width="25.77" height="28.40" rx="2" ry="2" fill="rgba(248,250,252, 0.92)" fill-opacity="0.95" stroke="#7B88A8" stroke-opacity="0.45" stroke-width="0.8"/><text x="85.08" y="924.62" text-anchor="middle" font-family="'trebuchet ms', verdana, arial, sans-serif" font-size="16" fill="#333333"><tspan x="85.08" dy="0.00">No</tspan></text><path d="M 66.974,1256.616L 66.974,1255.158C66.974,1253.700,66.974,1250.783,66.974,1247.866C66.974,1244.950,66.974,1242.033,65.516,1240.575C64.057,1239.116,61.141,1239.116,53.312,1239.116C45.483,1239.116,32.741,1239.116,24.371,1239.116C16.000,1239.116,12.000,1239.116,10.000,1237.116C8.000,1235.116,8.000,1231.116,8.000,1089.967C8.000,948.819,8.000,670.521,8.000,529.372C8.000,388.223,8.000,384.223,10.000,382.223C12.000,380.223,16.000,380.223,34.713,380.223C53.425,380.223,86.851,380.223,105.022,380.223C123.193,380.223,126.109,380.223,127.568,378.765C129.026,377.307,129.026,374.390,129.026,371.473C129.026,368.557,129.026,365.640,129.026,364.182L 129.026,362.723" fill="none" stroke="#2F3B4D" stroke-width="2"    stroke-linecap="round" stroke-linejoin="round" /><path d="M 179.187,568.625L 179.187,570.083C179.187,571.542,179.187,574.458,179.187,577.375C179.187,580.292,179.187,583.208,179.505,586.090C179.823,588.971,180.460,591.818,183.681,606.228C186.903,620.638,192.710,646.612,195.932,661.022C199.154,675.432,199.790,678.279,200.108,681.160C200.426,684.042,200.426,686.958,200.426,689.875C200.426,692.792,200.426,695.708,200.426,697.167L 200.426,698.625" fill="none" stroke="#2F3B4D" stroke-width="2"    stroke-linecap="round" stroke-linejoin="round" /><rect x="173.82" y="619.43" width="31.97" height="28.40" rx="2" ry="2" fill="rgba(248,250,252, 0.92)" fill-opacity="0.95" stroke="#7B88A8" stroke-opacity="0.45" stroke-width="0.8"/><text x="189.81" y="637.63" text-anchor="middle" font-family="'trebuchet ms', verdana, arial, sans-serif" font-size="16" fill="#333333"><tspan x="189.81" dy="0.00">Yes</tspan></text><path d="M 200.426,810.893L 200.426,812.351C200.426,813.810,200.426,816.726,200.426,819.643C200.426,822.560,200.426,825.476,199.858,828.278C199.290,831.079,198.153,833.765,194.278,842.922C190.402,852.079,183.789,867.707,179.914,876.864C176.038,886.021,174.902,888.707,174.333,891.508C173.765,894.310,173.765,897.226,173.765,900.143C173.765,903.060,173.765,905.976,173.765,907.435L 173.765,908.893" fill="none" stroke="#2F3B4D" stroke-width="2"    stroke-linecap="round" stroke-linejoin="round" /><rect x="171.11" y="845.69" width="31.97" height="28.40" rx="2" ry="2" fill="rgba(248,250,252, 0.92)" fill-opacity="0.95" stroke="#7B88A8" stroke-opacity="0.45" stroke-width="0.8"/><text x="187.10" y="863.89" text-anchor="middle" font-family="'trebuchet ms', verdana, arial, sans-serif" font-size="16" fill="#333333"><tspan x="187.10" dy="0.00">Yes</tspan></text><path d="M 173.765,962.893L 173.765,964.351C173.765,965.810,173.765,968.726,173.765,971.643C173.765,974.560,173.765,977.476,173.916,980.385C174.067,983.294,174.369,986.195,175.034,992.578C175.699,998.961,176.726,1008.825,177.390,1015.208C178.055,1021.591,178.357,1024.492,178.508,1027.401C178.659,1030.310,178.659,1033.226,178.659,1036.143C178.659,1039.060,178.659,1041.976,178.659,1043.435L 178.659,1044.893" fill="none" stroke="#2F3B4D" stroke-width="2"    stroke-linecap="round" stroke-linejoin="round" /><path d="M 146.659,1142.616L 146.659,1144.075C146.659,1145.533,146.659,1148.450,146.659,1151.366C146.659,1154.283,146.659,1157.200,146.116,1160.011C145.573,1162.823,144.488,1165.530,139.750,1177.343C135.012,1189.157,126.621,1210.076,121.883,1221.889C117.145,1233.702,116.060,1236.409,115.517,1239.221C114.974,1242.033,114.974,1244.950,114.974,1247.866C114.974,1250.783,114.974,1253.700,114.974,1255.158L 114.974,1256.616" fill="none" stroke="#2F3B4D" stroke-width="2"    stroke-linecap="round" stroke-linejoin="round" /><rect x="117.93" y="1185.42" width="25.77" height="28.40" rx="2" ry="2" fill="rgba(248,250,252, 0.92)" fill-opacity="0.95" stroke="#7B88A8" stroke-opacity="0.45" stroke-width="0.8"/><text x="130.82" y="1203.62" text-anchor="middle" font-family="'trebuchet ms', verdana, arial, sans-serif" font-size="16" fill="#333333"><tspan x="130.82" dy="0.00">No</tspan></text><path d="M 210.659,1142.616L 210.659,1144.075C210.659,1145.533,210.659,1148.450,210.659,1151.366C210.659,1154.283,210.659,1157.200,211.346,1159.944C212.033,1162.689,213.406,1165.262,219.749,1177.142C226.091,1189.022,237.403,1210.210,243.745,1222.090C250.088,1233.970,251.461,1236.543,252.148,1239.288C252.835,1242.033,252.835,1244.950,252.835,1247.866C252.835,1250.783,252.835,1253.700,252.835,1255.158L 252.835,1256.616" fill="none" stroke="#2F3B4D" stroke-width="2"    stroke-linecap="round" stroke-linejoin="round" /><rect x="215.76" y="1185.42" width="31.97" height="28.40" rx="2" ry="2" fill="rgba(248,250,252, 0.92)" fill-opacity="0.95" stroke="#7B88A8" stroke-opacity="0.45" stroke-width="0.8"/><text x="231.75" y="1203.62" text-anchor="middle" font-family="'trebuchet ms', verdana, arial, sans-serif" font-size="16" fill="#333333"><tspan x="231.75" dy="0.00">Yes</tspan></text><path d="M 232.426,810.893L 232.426,821.037C232.426,831.180,232.426,851.467,232.426,863.611C232.426,875.755,232.426,879.755,234.426,881.755C236.426,883.755,240.426,883.755,247.161,883.755C253.896,883.755,263.365,883.755,270.100,883.755C276.835,883.755,280.835,883.755,282.835,885.755C284.835,887.755,284.835,891.755,284.835,953.898C284.835,1016.042,284.835,1136.329,284.835,1196.473L 284.835,1256.616" fill="none" stroke="#2F3B4D" stroke-width="2"    stroke-linecap="round" stroke-linejoin="round" /><rect x="271.95" y="1006.44" width="25.77" height="28.40" rx="2" ry="2" fill="rgba(248,250,252, 0.92)" fill-opacity="0.95" stroke="#7B88A8" stroke-opacity="0.45" stroke-width="0.8"/><text x="284.83" y="1024.64" text-anchor="middle" font-family="'trebuchet ms', verdana, arial, sans-serif" font-size="16" fill="#333333"><tspan x="284.83" dy="0.00">No</tspan></text><path d="M 228.134,210.723L 228.134,212.182C228.134,213.640,228.134,216.557,228.134,219.473C228.134,222.390,228.134,225.307,229.592,226.765C231.050,228.223,233.967,228.223,249.359,228.223C264.751,228.223,292.618,228.223,308.551,228.223C324.484,228.223,328.484,228.223,330.484,230.223C332.484,232.223,332.484,236.223,332.484,403.401C332.484,570.579,332.484,900.935,332.484,1067.418C332.484,1233.900,332.484,1236.508,331.180,1237.812C329.876,1239.116,327.268,1239.116,325.964,1239.116C324.660,1239.116,324.660,1239.116,323.355,1239.116C322.051,1239.116,319.443,1239.116,318.139,1240.420C316.835,1241.724,316.835,1244.333,316.835,1247.249C316.835,1250.166,316.835,1253.391,316.835,1255.004L 316.835,1256.616" fill="none" stroke="#2F3B4D" stroke-width="2"    stroke-linecap="round" stroke-linejoin="round" /><rect x="316.50" y="485.09" width="31.97" height="28.40" rx="2" ry="2" fill="rgba(248,250,252, 0.92)" fill-opacity="0.95" stroke="#7B88A8" stroke-opacity="0.45" stroke-width="0.8"/><text x="332.48" y="503.29" text-anchor="middle" font-family="'trebuchet ms', verdana, arial, sans-serif" font-size="16" fill="#333333"><tspan x="332.48" dy="0.00">Yes</tspan></text><path d="M 284.835,1310.616L 284.835,1312.075C284.835,1313.533,284.835,1316.450,284.835,1319.366C284.835,1322.283,284.835,1325.200,283.481,1327.201C282.128,1329.202,279.421,1330.287,274.538,1332.244C269.656,1334.202,262.599,1337.031,257.717,1338.988C252.835,1340.945,250.128,1342.031,248.775,1344.032C247.421,1346.033,247.421,1348.950,247.421,1351.866C247.421,1354.783,247.421,1357.700,247.421,1359.158L 247.421,1360.616" fill="none" stroke="#2F3B4D" stroke-width="2"    stroke-linecap="round" stroke-linejoin="round" /><rect x="158.52" y="8.00" width="102.35" height="39.00" rx="19.50" ry="19.50" fill="#ECECFF" stroke="#7B88A8" stroke-width="1" stroke-linejoin="round" stroke-linecap="round"/><text x="209.70" y="31.50" text-anchor="middle" font-family="'trebuchet ms', verdana, arial, sans-serif" font-size="16" fill="#333333"><tspan x="209.70" dy="0.00">User Visit</tspan></text><polygon points="212.13,97.00 277.00,161.86 212.13,226.72 147.27,161.86" fill="#ECECFF" stroke="#7B88A8" stroke-width="1" stroke-linejoin="round" stroke-linecap="round"/><text x="212.13" y="165.86" text-anchor="middle" font-family="'trebuchet ms', verdana, arial, sans-serif" font-size="16" fill="#333333"><tspan x="212.13" dy="0.00">Logged in?</tspan></text><rect x="57.61" y="308.72" width="174.83" height="54.00" rx="3" ry="3" fill="#ECECFF" stroke="#7B88A8" stroke-width="1" stroke-linejoin="round" stroke-linecap="round"/><text x="145.03" y="339.72" text-anchor="middle" font-family="'trebuchet ms', verdana, arial, sans-serif" font-size="16" fill="#333333"><tspan x="145.03" dy="0.00">Show Login Form</tspan></text><polygon points="147.19,412.72 241.14,506.67 147.19,600.63 53.24,506.67" fill="#ECECFF" stroke="#7B88A8" stroke-width="1" stroke-linejoin="round" stroke-linecap="round"/><text x="147.19" y="510.67" text-anchor="middle" font-family="'trebuchet ms', verdana, arial, sans-serif" font-size="16" fill="#333333"><tspan x="147.19" dy="0.00">Credentials Valid?</tspan></text><rect x="14.70" y="1256.62" width="136.55" height="54.00" rx="3" ry="3" fill="#ECECFF" stroke="#7B88A8" stroke-width="1" stroke-linejoin="round" stroke-linecap="round"/><text x="82.97" y="1287.62" text-anchor="middle" font-family="'trebuchet ms', verdana, arial, sans-serif" font-size="16" fill="#333333"><tspan x="82.97" dy="0.00">Show Error</tspan></text><polygon points="216.43,682.63 288.56,754.76 216.43,826.89 144.29,754.76" fill="#ECECFF" stroke="#7B88A8" stroke-width="1" stroke-linejoin="round" stroke-linecap="round"/><text x="216.43" y="758.76" text-anchor="middle" font-family="'trebuchet ms', verdana, arial, sans-serif" font-size="16" fill="#333333"><tspan x="216.43" dy="0.00">2FA Enabled?</tspan></text><rect x="113.13" y="908.89" width="121.26" height="54.00" rx="3" ry="3" fill="#ECECFF" stroke="#7B88A8" stroke-width="1" stroke-linejoin="round" stroke-linecap="round"/><text x="173.77" y="939.89" text-anchor="middle" font-family="'trebuchet ms', verdana, arial, sans-serif" font-size="16" fill="#333333"><tspan x="173.77" dy="0.00">Send OTP</tspan></text><polygon points="178.66,1044.89 243.52,1109.75 178.66,1174.62 113.80,1109.75" fill="#ECECFF" stroke="#7B88A8" stroke-width="1" stroke-linejoin="round" stroke-linecap="round"/><text x="178.66" y="1113.75" text-anchor="middle" font-family="'trebuchet ms', verdana, arial, sans-serif" font-size="16" fill="#333333"><tspan x="178.66" dy="0.00">OTP Valid?</tspan></text><rect x="201.25" y="1256.62" width="167.17" height="54.00" rx="3" ry="3" fill="#ECECFF" stroke="#7B88A8" stroke-width="1" stroke-linejoin="round" stroke-linecap="round"/><text x="284.83" y="1287.62" text-anchor="middle" font-family="'trebuchet ms', verdana, arial, sans-serif" font-size="16" fill="#333333"><tspan x="284.83" dy="0.00">Create Session</tspan></text><rect x="182.97" y="1360.62" width="128.90" height="54.00" rx="3" ry="3" fill="#ECECFF" stroke="#7B88A8" stroke-width="1" stroke-linejoin="round" stroke-linecap="round"/><text x="247.42" y="1391.62" text-anchor="middle" font-family="'trebuchet ms', verdana, arial, sans-serif" font-size="16" fill="#333333"><tspan x="247.42" dy="0.00">Dashboard</tspan></text><g transform="translate(212.13 97.00) rotate(90.00)"><polygon points="0,0 -10.40,6.24 -10.40,-6.24" fill="#2F3B4D" stroke="#2F3B4D" stroke-width="2" stroke-linejoin="round" stroke-linecap="round"/></g><g transform="translate(161.03 308.72) rotate(90.00)"><polygon points="0,0 -10.40,6.24 -10.40,-6.24" fill="#2F3B4D" stroke="#2F3B4D" stroke-width="2" stroke-linejoin="round" stroke-linecap="round"/></g><g transform="translate(147.19 412.72) rotate(90.00)"><polygon points="0,0 -10.40,6.24 -10.40,-6.24" fill="#2F3B4D" stroke="#2F3B4D" stroke-width="2" stroke-linejoin="round" stroke-linecap="round"/></g><g transform="translate(98.97 1256.62) rotate(90.00)"><polygon points="0,0 -10.40,6.24 -10.40,-6.24" fill="#2F3B4D" stroke="#2F3B4D" stroke-width="2" stroke-linejoin="round" stroke-linecap="round"/></g><g transform="translate(129.03 362.72) rotate(-90.00)"><polygon points="0,0 -10.40,6.24 -10.40,-6.24" fill="#2F3B4D" stroke="#2F3B4D" stroke-width="2" stroke-linejoin="round" stroke-linecap="round"/></g><g transform="translate(200.43 698.63) rotate(90.00)"><polygon points="0,0 -10.40,6.24 -10.40,-6.24" fill="#2F3B4D" stroke="#2F3B4D" stroke-width="2" stroke-linejoin="round" stroke-linecap="round"/></g><g transform="translate(173.77 908.89) rotate(90.00)"><polygon points="0,0 -10.40,6.24 -10.40,-6.24" fill="#2F3B4D" stroke="#2F3B4D" stroke-width="2" stroke-linejoin="round" stroke-linecap="round"/></g><g transform="translate(178.66 1044.89) rotate(90.00)"><polygon points="0,0 -10.40,6.24 -10.40,-6.24" fill="#2F3B4D" stroke="#2F3B4D" stroke-width="2" stroke-linejoin="round" stroke-linecap="round"/></g><g transform="translate(114.97 1256.62) rotate(90.00)"><polygon points="0,0 -10.40,6.24 -10.40,-6.24" fill="#2F3B4D" stroke="#2F3B4D" stroke-width="2" stroke-linejoin="round" stroke-linecap="round"/></g><g transform="translate(252.83 1256.62) rotate(90.00)"><polygon points="0,0 -10.40,6.24 -10.40,-6.24" fill="#2F3B4D" stroke="#2F3B4D" stroke-width="2" stroke-linejoin="round" stroke-linecap="round"/></g><g transform="translate(284.83 1256.62) rotate(90.00)"><polygon points="0,0 -10.40,6.24 -10.40,-6.24" fill="#2F3B4D" stroke="#2F3B4D" stroke-width="2" stroke-linejoin="round" stroke-linecap="round"/></g><g transform="translate(316.83 1256.62) rotate(90.00)"><polygon points="0,0 -10.40,6.24 -10.40,-6.24" fill="#2F3B4D" stroke="#2F3B4D" stroke-width="2" stroke-linejoin="round" stroke-linecap="round"/></g><g transform="translate(247.42 1360.62) rotate(90.00)"><polygon points="0,0 -10.40,6.24 -10.40,-6.24" fill="#2F3B4D" stroke="#2F3B4D" stroke-width="2" stroke-linejoin="round" stroke-linecap="round"/></g></svg>