<svg xmlns="http://www.w3.org/2000/svg" width="720.4" height="690" viewBox="0 0 720.4 690"><rect width="100%" height="100%" fill="#FFFFFF"/><defs><marker id="arrow-0" viewBox="0 0 10 10" refX="5" refY="5" markerUnits="userSpaceOnUse" markerWidth="8" markerHeight="8" orient="auto"><path d="M 0 0 L 10 5 L 0 10 z" fill="#333333"/></marker><marker id="arrow-start-0" viewBox="0 0 10 10" refX="4.5" refY="5" markerUnits="userSpaceOnUse" markerWidth="8" markerHeight="8" orient="auto"><path d="M 0 5 L 10 10 L 10 0 z" fill="#333333"/></marker></defs><rect x="24.00" y="496.00" width="636.40" height="134.00" rx="10" ry="10" fill="#FFFFDE" stroke="#AAAA33" stroke-width="1" /><text x="342.20" y="524.00" text-anchor="middle" font-family="'trebuchet ms', verdana, arial, sans-serif" font-size="16" fill="#333333"><tspan x="342.20" dy="0.00">Testing</tspan></text><path d="M 409.000,78.000C409.000,86.283,409.000,98.708,409.000,102.850C409.000,106.992,409.000,98.708,409.000,102.850C409.000,106.992,409.000,119.417,409.000,127.700" fill="none" stroke="#333333" stroke-width="2" marker-end="url(#arrow-0)"   stroke-linecap="round" stroke-linejoin="round" /><path d="M 358.720,186.415C358.720,197.512,362.807,214.159,358.720,219.707C354.633,225.256,338.287,214.159,334.200,219.707C330.113,225.256,334.200,241.902,334.200,253.000" fill="none" stroke="#333333" stroke-width="2" marker-end="url(#arrow-0)"   stroke-linecap="round" stroke-linejoin="round" /><rect x="331.66" y="205.71" width="29.60" height="28.00" rx="0" ry="0" fill="#E8E8E8" fill-opacity="0.5" stroke="none"/><text x="346.46" y="223.71" text-anchor="middle" font-family="'trebuchet ms', verdana, arial, sans-serif" font-size="16" fill="#333333"><tspan x="346.46" dy="0.00">Yes</tspan></text><path d="M 409.000,203.300C409.000,208.667,398.533,216.717,409.000,219.400C419.467,222.083,461.333,213.800,471.800,219.400C482.267,225.000,471.800,241.800,471.800,253.000" fill="none" stroke="#333333" stroke-width="2" marker-end="url(#arrow-0)"   stroke-linecap="round" stroke-linejoin="round" /><rect x="429.20" y="205.40" width="22.40" height="28.00" rx="0" ry="0" fill="#E8E8E8" fill-opacity="0.5" stroke="none"/><text x="440.40" y="223.40" text-anchor="middle" font-family="'trebuchet ms', verdana, arial, sans-serif" font-size="16" fill="#333333"><tspan x="440.40" dy="0.00">No</tspan></text><path d="M 495.800,253.000C477.800,253.000,450.800,264.098,441.800,253.000C432.800,241.902,438.887,197.512,441.800,186.415C444.713,175.317,453.453,186.415,459.280,186.415" fill="none" stroke="#333333" stroke-width="2" marker-end="url(#arrow-0)"   stroke-linecap="round" stroke-linejoin="round" /><path d="M 334.200,307.000C334.200,315.283,334.200,327.708,334.200,331.850C334.200,335.992,334.200,327.708,334.200,331.850C334.200,335.992,334.200,348.417,334.200,356.700" fill="none" stroke="#333333" stroke-width="2" marker-end="url(#arrow-0)"   stroke-linecap="round" stroke-linejoin="round" /><path d="M 114.000,606.000C114.000,597.000,75.333,583.500,114.000,579.000C152.667,574.500,307.333,583.500,346.000,579.000C384.667,574.500,346.000,561.000,346.000,552.000" fill="none" stroke="#333333" stroke-width="2" marker-end="url(#arrow-0)"   stroke-linecap="round" stroke-linejoin="round" /><path d="M 346.000,606.000C346.000,597.000,308.000,583.500,346.000,579.000C384.000,574.500,536.000,583.500,574.000,579.000C612.000,574.500,574.000,561.000,574.000,552.000" fill="none" stroke="#333333" stroke-width="2" marker-end="url(#arrow-0)"   stroke-linecap="round" stroke-linejoin="round" /><path d="M 334.200,438.300C334.200,447.917,332.867,462.342,334.200,467.150C335.533,471.958,340.867,462.342,342.200,467.150C343.533,471.958,342.200,486.383,342.200,496.000" fill="none" stroke="#333333" stroke-width="2" marker-end="url(#arrow-0)"   stroke-linecap="round" stroke-linejoin="round" /><rect x="361.00" y="24.00" width="96.00" height="54.00" rx="0" ry="0" fill="#90EE90" stroke="#9370DB" stroke-width="1" stroke-linejoin="round" stroke-linecap="round"/><text x="409.00" y="55.00" text-anchor="middle" font-family="'trebuchet ms', verdana, arial, sans-serif" font-size="16" fill="#333333"><tspan x="409.00" dy="0.00">Start</tspan></text><polygon points="409.00,127.70 521.56,165.50 409.00,203.30 296.44,165.50" fill="#FFD700" stroke="#9370DB" stroke-width="1" stroke-linejoin="round" stroke-linecap="round"/><text x="409.00" y="169.50" text-anchor="middle" font-family="'trebuchet ms', verdana, arial, sans-serif" font-size="16" fill="#333333"><tspan x="409.00" dy="0.00">Is it working?</tspan></text><rect x="282.60" y="253.00" width="103.20" height="54.00" rx="0" ry="0" fill="#ECECFF" stroke="#9370DB" stroke-width="1" stroke-linejoin="round" stroke-linecap="round"/><text x="334.20" y="284.00" text-anchor="middle" font-family="'trebuchet ms', verdana, arial, sans-serif" font-size="16" fill="#333333"><tspan x="334.20" dy="0.00">Great!</tspan></text><rect x="435.80" y="253.00" width="96.00" height="54.00" rx="0" ry="0" fill="#ECECFF" stroke="#9370DB" stroke-width="1" stroke-linejoin="round" stroke-linecap="round"/><text x="483.80" y="284.00" text-anchor="middle" font-family="'trebuchet ms', verdana, arial, sans-serif" font-size="16" fill="#333333"><tspan x="483.80" dy="0.00">Debug</tspan></text><circle cx="334.20" cy="397.50" r="40.80" fill="#FFB6C1" stroke="#9370DB" stroke-width="1" stroke-linejoin="round" stroke-linecap="round"/><circle cx="334.20" cy="397.50" r="36.80" fill="none" stroke="#9370DB" stroke-width="1" stroke-linejoin="round" stroke-linecap="round"/><text x="334.20" y="401.50" text-anchor="middle" font-family="'trebuchet ms', verdana, arial, sans-serif" font-size="16" fill="#333333"><tspan x="334.20" dy="0.00">End</tspan></text><rect x="48.00" y="552.00" width="132.00" height="54.00" rx="0" ry="0" fill="#ECECFF" stroke="#9370DB" stroke-width="1" stroke-linejoin="round" stroke-linecap="round"/><text x="114.00" y="583.00" text-anchor="middle" font-family="'trebuchet ms', verdana, arial, sans-serif" font-size="16" fill="#333333"><tspan x="114.00" dy="0.00">Unit Tests</tspan></text><rect x="254.80" y="552.00" width="182.40" height="54.00" rx="0" ry="0" fill="#ECECFF" stroke="#9370DB" stroke-width="1" stroke-linejoin="round" stroke-linecap="round"/><text x="346.00" y="583.00" text-anchor="middle" font-family="'trebuchet ms', verdana, arial, sans-serif" font-size="16" fill="#333333"><tspan x="346.00" dy="0.00">Integration Tests</tspan></text><rect x="511.60" y="552.00" width="124.80" height="54.00" rx="0" ry="0" fill="#ECECFF" stroke="#9370DB" stroke-width="1" stroke-linejoin="round" stroke-linecap="round"/><text x="574.00" y="583.00" text-anchor="middle" font-family="'trebuchet ms', verdana, arial, sans-serif" font-size="16" fill="#333333"><tspan x="574.00" dy="0.00">E2E Tests</tspan></text></svg>