<svg xmlns="http://www.w3.org/2000/svg" width="1824.5957" height="281.0268" viewBox="0 0 1824.5957 281.0268"><rect x="0" y="0" width="1824.5957" height="281.0268" fill="#FFFFFF"/><defs><marker id="arrow-0" viewBox="0 0 10 10" refX="5" refY="5" markerUnits="userSpaceOnUse" markerWidth="8" markerHeight="8" orient="auto"><path d="M 0 0 L 10 5 L 0 10 z" fill="#2F3B4D" stroke="#2F3B4D" stroke-width="1" stroke-dasharray="1,0"/></marker><marker id="arrow-start-0" viewBox="0 0 10 10" refX="4.5" refY="5" markerUnits="userSpaceOnUse" markerWidth="8" markerHeight="8" orient="auto"><path d="M 0 5 L 10 10 L 10 0 z" fill="#2F3B4D" stroke="#2F3B4D" stroke-width="1" stroke-dasharray="1,0"/></marker></defs><path d="M 152.206,138.985L 153.873,138.985C155.539,138.985,158.873,138.985,161.789,138.985C164.706,138.985,167.206,138.985,169.706,138.985C172.206,138.986,174.706,138.987,175.956,138.988C177.206,138.989,177.206,138.989,178.456,138.989C179.706,138.990,182.206,138.991,184.706,138.992C187.206,138.992,189.706,138.992,192.623,138.992C195.539,138.992,198.873,138.992,200.539,138.992L 202.206,138.992" fill="none" stroke="#2F3B4D" stroke-width="2"    stroke-linecap="round" stroke-linejoin="round" /><path d="M 298.474,90.992L 299.932,90.992C301.390,90.992,304.307,90.992,307.224,90.992C310.140,90.992,313.057,90.992,315.747,90.211C318.436,89.429,320.899,87.866,330.167,81.982C339.436,76.098,355.511,65.894,364.780,60.010C374.049,54.126,376.511,52.563,379.201,51.782C381.890,51.000,384.807,51.000,387.724,51.000C390.640,51.000,393.557,51.000,395.015,51.000L 396.474,51.000" fill="none" stroke="#2F3B4D" stroke-width="2"    stroke-linecap="round" stroke-linejoin="round" /><path d="M 346.474,138.992L 348.140,138.992C349.807,138.992,353.140,138.992,356.057,138.992C358.974,138.992,361.474,138.992,363.974,138.993C366.474,138.993,368.974,138.995,370.224,138.995C371.474,138.996,371.474,138.996,372.724,138.997C373.974,138.997,376.474,138.999,378.974,138.999C381.474,139.000,383.974,139.000,386.890,139.000C389.807,139.000,393.140,139.000,394.807,139.000L 396.474,139.000" fill="none" stroke="#2F3B4D" stroke-width="2"    stroke-linecap="round" stroke-linejoin="round" /><path d="M 298.474,186.992L 299.932,186.992C301.390,186.992,304.307,186.992,307.224,186.992C310.140,186.992,313.057,186.992,315.746,187.774C318.436,188.556,320.898,190.119,330.167,196.005C339.436,201.892,355.512,212.100,364.781,217.987C374.049,223.873,376.512,225.436,379.201,226.218C381.890,227.000,384.807,227.000,387.724,227.000C390.640,227.000,393.557,227.000,395.015,227.000L 396.474,227.000" fill="none" stroke="#2F3B4D" stroke-width="2"    stroke-linecap="round" stroke-linejoin="round" /><path d="M 487.094,51.000L 488.552,51.000C490.011,51.000,492.927,51.000,495.844,51.000C498.761,51.000,501.677,51.000,504.385,51.753C507.092,52.506,509.590,54.011,523.830,62.593C538.069,71.175,564.050,86.833,578.289,95.415C592.528,103.997,595.026,105.502,597.734,106.255C600.441,107.008,603.358,107.008,606.274,107.008C609.191,107.008,612.108,107.008,613.566,107.008L 615.025,107.008" fill="none" stroke="#2F3B4D" stroke-width="2"    stroke-linecap="round" stroke-linejoin="round" /><path d="M 533.025,139.000L 534.691,139.000C536.358,139.000,539.691,139.000,542.608,139.000C545.525,139.000,548.025,139.000,550.524,139.001C553.025,139.001,555.525,139.003,556.774,139.003C558.025,139.004,558.025,139.004,559.274,139.005C560.525,139.005,563.025,139.007,565.524,139.007C568.025,139.008,570.525,139.008,573.441,139.008C576.358,139.008,579.691,139.008,581.358,139.008L 583.025,139.008" fill="none" stroke="#2F3B4D" stroke-width="2"    stroke-linecap="round" stroke-linejoin="round" /><path d="M 494.749,227.000L 496.207,227.000C497.666,227.000,500.582,227.000,503.499,227.000C506.416,227.000,509.332,227.000,512.010,226.200C514.687,225.399,517.125,223.798,530.119,215.267C543.112,206.735,566.661,191.273,579.655,182.741C592.648,174.210,595.086,172.609,597.764,171.808C600.441,171.008,603.358,171.008,606.274,171.008C609.191,171.008,612.108,171.008,613.566,171.008L 615.025,171.008" fill="none" stroke="#2F3B4D" stroke-width="2"    stroke-linecap="round" stroke-linejoin="round" /><path d="M 689.475,155.008L 690.934,155.008C692.392,155.008,695.309,155.008,698.226,155.008C701.142,155.008,704.059,155.008,706.842,154.398C709.625,153.789,712.275,152.570,716.745,150.514C721.215,148.458,727.505,145.565,731.975,143.509C736.445,141.453,739.094,140.234,741.878,139.625C744.661,139.015,747.577,139.015,750.494,139.015C753.411,139.015,756.327,139.015,757.786,139.015L 759.244,139.015" fill="none" stroke="#2F3B4D" stroke-width="2"    stroke-linecap="round" stroke-linejoin="round" /><rect x="713.59" y="130.41" width="31.97" height="28.40" rx="2" ry="2" fill="rgba(248,250,252, 0.92)" fill-opacity="0.95" stroke="#7B88A8" stroke-opacity="0.45" stroke-width="0.8"/><text x="729.58" y="148.61" text-anchor="middle" font-family="'trebuchet ms', verdana, arial, sans-serif" font-size="16" fill="#333333"><tspan x="729.58" dy="0.00">Yes</tspan></text><path d="M 689.475,123.008L 690.934,123.008C692.392,123.008,695.309,123.008,698.226,123.008C701.142,123.008,704.059,123.008,705.517,121.550C706.975,120.091,706.975,117.175,706.976,104.177C706.975,91.179,706.975,68.099,706.976,54.560C706.975,41.020,706.975,37.020,708.976,35.020C710.975,33.020,714.975,33.020,864.582,33.020C1014.188,33.020,1309.401,33.020,1459.008,33.020C1608.615,33.020,1612.615,33.020,1614.614,35.020C1616.615,37.020,1616.615,41.020,1616.614,56.330C1616.615,71.640,1616.615,98.261,1616.614,113.029C1616.615,127.798,1616.615,130.714,1618.073,132.173C1619.531,133.631,1622.448,133.631,1625.364,133.631C1628.281,133.631,1631.198,133.631,1632.656,133.631L 1634.115,133.631" fill="none" stroke="#2F3B4D" stroke-width="2"    stroke-linecap="round" stroke-linejoin="round" /><rect x="989.19" y="18.82" width="25.77" height="28.40" rx="2" ry="2" fill="rgba(248,250,252, 0.92)" fill-opacity="0.95" stroke="#7B88A8" stroke-opacity="0.45" stroke-width="0.8"/><text x="1002.07" y="37.02" text-anchor="middle" font-family="'trebuchet ms', verdana, arial, sans-serif" font-size="16" fill="#333333"><tspan x="1002.07" dy="0.00">No</tspan></text><path d="M 949.380,139.015L 951.361,139.015C953.342,139.015,957.303,139.015,960.220,139.015C963.137,139.015,965.009,139.015,966.880,139.016C968.752,139.016,970.624,139.017,971.560,139.018C972.496,139.018,972.496,139.018,973.432,139.019C974.368,139.019,976.240,139.021,978.112,139.021C979.984,139.022,981.856,139.022,984.772,139.022C987.689,139.022,991.650,139.022,993.631,139.022L 995.612,139.022" fill="none" stroke="#2F3B4D" stroke-width="2"    stroke-linecap="round" stroke-linejoin="round" /><path d="M 1123.880,155.022L 1125.338,155.022C1126.796,155.022,1129.713,155.022,1132.630,155.022C1135.546,155.022,1138.463,155.022,1141.246,154.412C1144.029,153.803,1146.679,152.584,1151.149,150.527C1155.619,148.471,1161.909,145.577,1166.379,143.521C1170.849,141.465,1173.499,140.246,1176.282,139.636C1179.065,139.027,1181.982,139.027,1184.898,139.027C1187.815,139.027,1190.732,139.027,1192.190,139.027L 1193.648,139.027" fill="none" stroke="#2F3B4D" stroke-width="2"    stroke-linecap="round" stroke-linejoin="round" /><rect x="1149.81" y="229.32" width="31.97" height="28.40" rx="2" ry="2" fill="rgba(248,250,252, 0.92)" fill-opacity="0.95" stroke="#7B88A8" stroke-opacity="0.45" stroke-width="0.8"/><text x="1165.80" y="247.52" text-anchor="middle" font-family="'trebuchet ms', verdana, arial, sans-serif" font-size="16" fill="#333333"><tspan x="1165.80" dy="0.00">Yes</tspan></text><path d="M 1123.880,123.022L 1123.505,123.022C1123.130,123.022,1122.380,123.022,1121.630,123.022C1120.880,123.022,1120.130,123.022,1119.755,123.397C1119.380,123.772,1119.380,124.522,1119.380,147.522C1119.380,170.523,1119.380,215.775,1119.380,240.401C1119.380,265.027,1119.380,269.027,1121.380,271.027C1123.380,273.027,1127.380,273.027,1211.919,273.027C1296.458,273.027,1461.536,273.027,1546.075,273.027C1630.615,273.027,1634.615,273.027,1636.614,271.027C1638.615,269.027,1638.615,265.027,1638.614,243.519C1638.615,222.012,1638.615,182.996,1638.614,163.114C1638.615,143.231,1638.615,142.481,1638.239,142.106C1637.865,141.731,1637.115,141.731,1636.364,141.731C1635.615,141.731,1634.865,141.731,1634.489,141.731L 1634.115,141.731" fill="none" stroke="#2F3B4D" stroke-width="2"    stroke-linecap="round" stroke-linejoin="round" /><rect x="1356.76" y="248.26" width="25.77" height="28.40" rx="2" ry="2" fill="rgba(248,250,252, 0.92)" fill-opacity="0.95" stroke="#7B88A8" stroke-opacity="0.45" stroke-width="0.8"/><text x="1369.64" y="266.46" text-anchor="middle" font-family="'trebuchet ms', verdana, arial, sans-serif" font-size="16" fill="#333333"><tspan x="1369.64" dy="0.00">No</tspan></text><path d="M 1406.750,139.027 L 1452.981,139.030" fill="none" stroke="#2F3B4D" stroke-width="2"    stroke-linecap="round" stroke-linejoin="round" /><path d="M 1566.567,139.030L 1568.025,139.030C1569.483,139.030,1572.400,139.030,1575.317,139.030C1578.233,139.030,1581.150,139.030,1583.993,139.489C1586.835,139.949,1589.603,140.867,1593.644,142.208C1597.684,143.549,1602.997,145.312,1607.038,146.653C1611.078,147.994,1613.846,148.912,1616.689,149.372C1619.531,149.831,1622.448,149.831,1625.364,149.831C1628.281,149.831,1631.198,149.831,1632.656,149.831L 1634.115,149.831" fill="none" stroke="#2F3B4D" stroke-width="2"    stroke-linecap="round" stroke-linejoin="round" /><rect x="1575.88" y="149.05" width="47.28" height="28.40" rx="2" ry="2" fill="rgba(248,250,252, 0.92)" fill-opacity="0.95" stroke="#7B88A8" stroke-opacity="0.45" stroke-width="0.8"/><text x="1599.52" y="167.25" text-anchor="middle" font-family="'trebuchet ms', verdana, arial, sans-serif" font-size="16" fill="#333333"><tspan x="1599.52" dy="0.00">Alert</tspan></text><rect x="8.00" y="111.98" width="144.21" height="54.00" rx="3" ry="3" fill="#ECECFF" stroke="#7B88A8" stroke-width="1" stroke-linejoin="round" stroke-linecap="round"/><text x="80.10" y="142.98" text-anchor="middle" font-family="'trebuchet ms', verdana, arial, sans-serif" font-size="16" fill="#333333"><tspan x="80.10" dy="0.00">Push to Git</tspan></text><polygon points="274.34,66.86 346.47,138.99 274.34,211.13 202.21,138.99" fill="#ECECFF" stroke="#7B88A8" stroke-width="1" stroke-linejoin="round" stroke-linecap="round"/><text x="274.34" y="142.99" text-anchor="middle" font-family="'trebuchet ms', verdana, arial, sans-serif" font-size="16" fill="#333333"><tspan x="274.34" dy="0.00">CI Triggered</tspan></text><rect x="396.47" y="8.00" width="90.62" height="54.00" rx="3" ry="3" fill="#ECECFF" stroke="#7B88A8" stroke-width="1" stroke-linejoin="round" stroke-linecap="round"/><text x="441.78" y="39.00" text-anchor="middle" font-family="'trebuchet ms', verdana, arial, sans-serif" font-size="16" fill="#333333"><tspan x="441.78" dy="0.00">Lint</tspan></text><rect x="396.47" y="112.00" width="136.55" height="54.00" rx="3" ry="3" fill="#ECECFF" stroke="#7B88A8" stroke-width="1" stroke-linejoin="round" stroke-linecap="round"/><text x="464.75" y="143.00" text-anchor="middle" font-family="'trebuchet ms', verdana, arial, sans-serif" font-size="16" fill="#333333"><tspan x="464.75" dy="0.00">Unit Tests</tspan></text><rect x="396.47" y="216.00" width="98.28" height="54.00" rx="3" ry="3" fill="#ECECFF" stroke="#7B88A8" stroke-width="1" stroke-linejoin="round" stroke-linecap="round"/><text x="445.61" y="247.00" text-anchor="middle" font-family="'trebuchet ms', verdana, arial, sans-serif" font-size="16" fill="#333333"><tspan x="445.61" dy="0.00">Build</tspan></text><polygon points="644.25,77.78 705.48,139.01 644.25,200.23 583.02,139.01" fill="#ECECFF" stroke="#7B88A8" stroke-width="1" stroke-linejoin="round" stroke-linecap="round"/><text x="644.25" y="143.01" text-anchor="middle" font-family="'trebuchet ms', verdana, arial, sans-serif" font-size="16" fill="#333333"><tspan x="644.25" dy="0.00">All Pass?</tspan></text><rect x="759.24" y="112.02" width="190.14" height="54.00" rx="3" ry="3" fill="#ECECFF" stroke="#7B88A8" stroke-width="1" stroke-linejoin="round" stroke-linecap="round"/><text x="854.31" y="143.02" text-anchor="middle" font-family="'trebuchet ms', verdana, arial, sans-serif" font-size="16" fill="#333333"><tspan x="854.31" dy="0.00">Deploy to Staging</tspan></text><rect x="1634.11" y="112.03" width="182.48" height="54.00" rx="3" ry="3" fill="#ECECFF" stroke="#7B88A8" stroke-width="1" stroke-linejoin="round" stroke-linecap="round"/><text x="1725.36" y="143.03" text-anchor="middle" font-family="'trebuchet ms', verdana, arial, sans-serif" font-size="16" fill="#333333"><tspan x="1725.36" dy="0.00">Notify Developer</tspan></text><polygon points="1067.75,66.89 1139.88,139.02 1067.75,211.16 995.61,139.02" fill="#ECECFF" stroke="#7B88A8" stroke-width="1" stroke-linejoin="round" stroke-linecap="round"/><text x="1067.75" y="143.02" text-anchor="middle" font-family="'trebuchet ms', verdana, arial, sans-serif" font-size="16" fill="#333333"><tspan x="1067.75" dy="0.00">QA Approved?</tspan></text><rect x="1193.65" y="112.03" width="213.10" height="54.00" rx="3" ry="3" fill="#ECECFF" stroke="#7B88A8" stroke-width="1" stroke-linejoin="round" stroke-linecap="round"/><text x="1300.20" y="143.03" text-anchor="middle" font-family="'trebuchet ms', verdana, arial, sans-serif" font-size="16" fill="#333333"><tspan x="1300.20" dy="0.00">Deploy to Production</tspan></text><rect x="1452.98" y="112.03" width="113.59" height="54.00" rx="3" ry="3" fill="#ECECFF" stroke="#7B88A8" stroke-width="1" stroke-linejoin="round" stroke-linecap="round"/><text x="1509.77" y="143.03" text-anchor="middle" font-family="'trebuchet ms', verdana, arial, sans-serif" font-size="16" fill="#333333"><tspan x="1509.77" dy="0.00">Monitor</tspan></text><g transform="translate(202.21 138.99) rotate(0.00)"><polygon points="0,0 -10.40,6.24 -10.40,-6.24" fill="#2F3B4D" stroke="#2F3B4D" stroke-width="2" stroke-linejoin="round" stroke-linecap="round"/></g><g transform="translate(396.47 51.00) rotate(0.00)"><polygon points="0,0 -10.40,6.24 -10.40,-6.24" fill="#2F3B4D" stroke="#2F3B4D" stroke-width="2" stroke-linejoin="round" stroke-linecap="round"/></g><g transform="translate(396.47 139.00) rotate(0.00)"><polygon points="0,0 -10.40,6.24 -10.40,-6.24" fill="#2F3B4D" stroke="#2F3B4D" stroke-width="2" stroke-linejoin="round" stroke-linecap="round"/></g><g transform="translate(396.47 227.00) rotate(0.00)"><polygon points="0,0 -10.40,6.24 -10.40,-6.24" fill="#2F3B4D" stroke="#2F3B4D" stroke-width="2" stroke-linejoin="round" stroke-linecap="round"/></g><g transform="translate(615.02 107.01) rotate(0.00)"><polygon points="0,0 -10.40,6.24 -10.40,-6.24" fill="#2F3B4D" stroke="#2F3B4D" stroke-width="2" stroke-linejoin="round" stroke-linecap="round"/></g><g transform="translate(583.02 139.01) rotate(0.00)"><polygon points="0,0 -10.40,6.24 -10.40,-6.24" fill="#2F3B4D" stroke="#2F3B4D" stroke-width="2" stroke-linejoin="round" stroke-linecap="round"/></g><g transform="translate(615.02 171.01) rotate(0.00)"><polygon points="0,0 -10.40,6.24 -10.40,-6.24" fill="#2F3B4D" stroke="#2F3B4D" stroke-width="2" stroke-linejoin="round" stroke-linecap="round"/></g><g transform="translate(759.24 139.02) rotate(0.00)"><polygon points="0,0 -10.40,6.24 -10.40,-6.24" fill="#2F3B4D" stroke="#2F3B4D" stroke-width="2" stroke-linejoin="round" stroke-linecap="round"/></g><g transform="translate(1634.11 133.63) rotate(0.00)"><polygon points="0,0 -10.40,6.24 -10.40,-6.24" fill="#2F3B4D" stroke="#2F3B4D" stroke-width="2" stroke-linejoin="round" stroke-linecap="round"/></g><g transform="translate(995.61 139.02) rotate(0.00)"><polygon points="0,0 -10.40,6.24 -10.40,-6.24" fill="#2F3B4D" stroke="#2F3B4D" stroke-width="2" stroke-linejoin="round" stroke-linecap="round"/></g><g transform="translate(1193.65 139.03) rotate(0.00)"><polygon points="0,0 -10.40,6.24 -10.40,-6.24" fill="#2F3B4D" stroke="#2F3B4D" stroke-width="2" stroke-linejoin="round" stroke-linecap="round"/></g><g transform="translate(1634.11 141.73) rotate(0.00)"><polygon points="0,0 -10.40,6.24 -10.40,-6.24" fill="#2F3B4D" stroke="#2F3B4D" stroke-width="2" stroke-linejoin="round" stroke-linecap="round"/></g><g transform="translate(1452.98 139.03) rotate(0.00)"><polygon points="0,0 -10.40,6.24 -10.40,-6.24" fill="#2F3B4D" stroke="#2F3B4D" stroke-width="2" stroke-linejoin="round" stroke-linecap="round"/></g><g transform="translate(1634.11 149.83) rotate(0.00)"><polygon points="0,0 -10.40,6.24 -10.40,-6.24" fill="#2F3B4D" stroke="#2F3B4D" stroke-width="2" stroke-linejoin="round" stroke-linecap="round"/></g></svg>