<svg xmlns="http://www.w3.org/2000/svg" width="369.72186" height="1422.6162" viewBox="0 0 369.72186 1422.6162"><rect x="0" y="0" width="369.72186" height="1422.6162" fill="#FFFFFF"/><defs><marker id="arrow-0" viewBox="0 0 10 10" refX="5" refY="5" markerUnits="userSpaceOnUse" markerWidth="8" markerHeight="8" orient="auto"><path d="M 0 0 L 10 5 L 0 10 z" fill="#2F3B4D" stroke="#2F3B4D" stroke-width="1" stroke-dasharray="1,0"/></marker><marker id="arrow-start-0" viewBox="0 0 10 10" refX="4.5" refY="5" markerUnits="userSpaceOnUse" markerWidth="8" markerHeight="8" orient="auto"><path d="M 0 5 L 10 10 L 10 0 z" fill="#2F3B4D" stroke="#2F3B4D" stroke-width="1" stroke-dasharray="1,0"/></marker></defs><path d="M 162.074,47.000 L 162.074,97.000" fill="none" stroke="#2F3B4D" stroke-width="2"    stroke-linecap="round" stroke-linejoin="round" /><path d="M 178.074,210.723L 178.074,212.182C178.074,213.640,178.074,216.557,178.074,219.473C178.074,222.390,178.074,225.307,177.042,227.795C176.010,230.284,173.946,232.345,165.265,241.015C156.584,249.685,141.286,264.964,132.222,274.017C123.158,283.070,120.327,285.897,120.911,287.372C121.495,288.848,125.493,288.973,137.349,289.345C149.205,289.716,168.919,290.333,180.234,290.687C191.548,291.041,194.464,291.132,195.921,292.636C197.379,294.140,197.379,297.057,197.379,299.973C197.379,302.890,197.379,305.807,197.379,307.265L 197.379,308.723" fill="none" stroke="#2F3B4D" stroke-width="2"    stroke-linecap="round" stroke-linejoin="round" /><rect x="104.61" y="274.52" width="25.77" height="28.40" rx="2" ry="2" fill="rgba(248,250,252, 0.92)" fill-opacity="0.95" stroke="#7B88A8" stroke-opacity="0.45" stroke-width="0.8"/><text x="117.50" y="292.72" text-anchor="middle" font-family="'trebuchet ms', verdana, arial, sans-serif" font-size="16" fill="#333333"><tspan x="117.50" dy="0.00">No</tspan></text><path d="M 213.379,362.723L 213.379,364.182C213.379,365.640,213.379,368.557,213.379,371.473C213.379,374.390,213.379,377.307,212.315,379.762C211.251,382.218,209.123,384.213,207.521,385.715C205.918,387.218,204.840,388.228,203.237,389.731C201.635,391.234,199.507,393.228,198.443,395.684C197.379,398.140,197.379,401.057,197.379,403.973C197.379,406.890,197.379,409.807,197.379,411.265L 197.379,412.723" fill="none" stroke="#2F3B4D" stroke-width="2"    stroke-linecap="round" stroke-linejoin="round" /><path d="M 181.379,584.625L 181.379,586.083C181.379,587.542,181.379,590.458,181.379,593.375C181.379,596.292,181.379,599.208,179.921,600.667C178.462,602.125,175.546,602.125,160.120,602.125C144.695,602.125,116.761,602.125,100.794,602.125C84.827,602.125,80.827,602.125,78.878,604.124C76.929,606.124,77.031,610.122,78.199,655.918C79.366,701.713,81.599,789.305,82.767,835.100C83.934,880.896,84.036,884.894,84.045,888.893C84.055,892.892,83.971,896.891,82.779,953.975C81.588,1011.058,79.288,1121.226,78.111,1177.597C76.935,1233.968,76.881,1236.542,78.141,1237.829C79.402,1239.116,81.977,1239.116,83.264,1239.116C84.551,1239.116,84.551,1239.116,85.839,1239.116C87.126,1239.116,89.701,1239.116,90.988,1240.404C92.275,1241.691,92.275,1244.266,92.275,1247.182C92.275,1250.099,92.275,1253.358,92.275,1254.987L 92.275,1256.616" fill="none" stroke="#2F3B4D" stroke-width="2"    stroke-linecap="round" stroke-linejoin="round" /><rect x="71.25" y="874.69" width="25.77" height="28.40" rx="2" ry="2" fill="rgba(248,250,252, 0.92)" fill-opacity="0.95" stroke="#7B88A8" stroke-opacity="0.45" stroke-width="0.8"/><text x="84.14" y="892.89" text-anchor="middle" font-family="'trebuchet ms', verdana, arial, sans-serif" font-size="16" fill="#333333"><tspan x="84.14" dy="0.00">No</tspan></text><path d="M 60.275,1256.616L 60.275,1253.700C60.275,1250.783,60.275,1244.950,60.367,1242.033C60.459,1239.116,60.643,1239.116,60.735,1097.967C60.827,956.819,60.827,674.521,60.827,531.372C60.827,388.223,60.827,384.223,62.827,382.223C64.827,380.223,68.827,380.223,87.461,380.223C106.094,380.223,139.362,380.223,157.454,380.223C175.546,380.223,178.462,380.223,179.921,378.765C181.379,377.307,181.379,374.390,181.379,371.473C181.379,368.557,181.379,365.640,181.379,364.182L 181.379,362.723" fill="none" stroke="#2F3B4D" stroke-width="2"    stroke-linecap="round" stroke-linejoin="round" /><path d="M 213.379,584.625L 213.379,586.083C213.379,587.542,213.379,590.458,213.379,593.375C213.379,596.292,213.379,599.208,212.058,601.285C210.737,603.362,208.096,604.598,188.366,613.834C168.637,623.069,131.819,640.303,111.599,649.768C91.379,659.233,87.756,660.929,87.944,661.829C88.132,662.728,92.130,662.831,106.860,663.210C121.589,663.589,147.050,664.245,161.238,664.610C175.426,664.975,178.341,665.050,179.799,666.546C181.257,668.042,181.257,670.958,181.257,673.875C181.257,676.792,181.257,679.708,181.257,681.167L 181.257,682.625" fill="none" stroke="#2F3B4D" stroke-width="2"    stroke-linecap="round" stroke-linejoin="round" /><rect x="68.15" y="648.43" width="31.97" height="28.40" rx="2" ry="2" fill="rgba(248,250,252, 0.92)" fill-opacity="0.95" stroke="#7B88A8" stroke-opacity="0.45" stroke-width="0.8"/><text x="84.13" y="666.63" text-anchor="middle" font-family="'trebuchet ms', verdana, arial, sans-serif" font-size="16" fill="#333333"><tspan x="84.13" dy="0.00">Yes</tspan></text><path d="M 165.257,810.893L 165.257,812.351C165.257,813.810,165.257,816.726,165.257,819.643C165.257,822.560,165.257,825.476,164.990,828.368C164.724,831.260,164.190,834.128,162.558,842.905C160.926,851.681,158.194,866.367,156.585,875.017C154.977,883.667,154.491,886.280,155.560,887.795C156.630,889.310,159.255,889.726,160.567,889.935C161.880,890.143,161.880,890.143,163.192,890.351C164.505,890.560,167.130,890.976,168.443,892.514C169.755,894.051,169.755,896.709,169.755,899.625C169.755,902.542,169.755,905.718,169.755,907.305L 169.755,908.893" fill="none" stroke="#2F3B4D" stroke-width="2"    stroke-linecap="round" stroke-linejoin="round" /><rect x="138.02" y="874.69" width="31.97" height="28.40" rx="2" ry="2" fill="rgba(248,250,252, 0.92)" fill-opacity="0.95" stroke="#7B88A8" stroke-opacity="0.45" stroke-width="0.8"/><text x="154.00" y="892.89" text-anchor="middle" font-family="'trebuchet ms', verdana, arial, sans-serif" font-size="16" fill="#333333"><tspan x="154.00" dy="0.00">Yes</tspan></text><path d="M 169.755,962.893L 169.755,964.351C169.755,965.810,169.755,968.726,169.755,971.643C169.755,974.560,169.755,977.476,169.886,980.387C170.016,983.298,170.278,986.203,170.852,992.584C171.426,998.965,172.313,1008.821,172.888,1015.202C173.462,1021.583,173.723,1024.488,173.854,1027.399C173.985,1030.310,173.985,1033.226,173.985,1036.143C173.985,1039.060,173.985,1041.976,173.985,1043.435L 173.985,1044.893" fill="none" stroke="#2F3B4D" stroke-width="2"    stroke-linecap="round" stroke-linejoin="round" /><path d="M 141.985,1142.616L 141.985,1144.075C141.985,1145.533,141.985,1148.450,141.985,1151.366C141.985,1154.283,141.985,1157.200,141.105,1159.821C140.226,1162.443,138.467,1164.769,130.033,1175.924C121.598,1187.079,106.489,1207.061,97.729,1218.648C88.968,1230.235,86.556,1233.426,87.339,1235.227C88.122,1237.028,92.100,1237.441,94.672,1237.707C97.243,1237.973,98.408,1238.094,100.440,1238.305C102.473,1238.515,105.374,1238.816,106.825,1240.424C108.275,1242.033,108.275,1244.950,108.275,1247.866C108.275,1250.783,108.275,1253.700,108.275,1255.158L 108.275,1256.616" fill="none" stroke="#2F3B4D" stroke-width="2"    stroke-linecap="round" stroke-linejoin="round" /><rect x="71.26" y="1222.42" width="25.77" height="28.40" rx="2" ry="2" fill="rgba(248,250,252, 0.92)" fill-opacity="0.95" stroke="#7B88A8" stroke-opacity="0.45" stroke-width="0.8"/><text x="84.14" y="1240.62" text-anchor="middle" font-family="'trebuchet ms', verdana, arial, sans-serif" font-size="16" fill="#333333"><tspan x="84.14" dy="0.00">No</tspan></text><path d="M 205.985,1142.616L 205.985,1144.075C205.985,1145.533,205.985,1148.450,205.985,1151.366C205.985,1154.283,205.985,1157.200,205.165,1159.864C204.346,1162.529,202.706,1164.941,195.168,1176.037C187.629,1187.133,174.191,1206.911,166.348,1218.455C158.506,1229.999,156.258,1233.308,157.133,1235.016C158.008,1236.725,162.007,1236.833,175.903,1237.210C189.800,1237.588,213.595,1238.233,226.950,1238.596C240.305,1238.958,243.221,1239.037,244.679,1240.535C246.136,1242.033,246.136,1244.950,246.136,1247.866C246.136,1250.783,246.136,1253.700,246.136,1255.158L 246.136,1256.616" fill="none" stroke="#2F3B4D" stroke-width="2"    stroke-linecap="round" stroke-linejoin="round" /><rect x="138.03" y="1222.42" width="31.97" height="28.40" rx="2" ry="2" fill="rgba(248,250,252, 0.92)" fill-opacity="0.95" stroke="#7B88A8" stroke-opacity="0.45" stroke-width="0.8"/><text x="154.01" y="1240.62" text-anchor="middle" font-family="'trebuchet ms', verdana, arial, sans-serif" font-size="16" fill="#333333"><tspan x="154.01" dy="0.00">Yes</tspan></text><path d="M 197.257,810.893L 197.257,821.037C197.257,831.180,197.257,851.467,197.257,863.611C197.257,875.755,197.257,879.755,199.257,881.755C201.257,883.755,205.257,883.755,216.737,883.755C228.217,883.755,247.177,883.755,258.656,883.755C270.136,883.755,274.136,883.755,274.634,885.075C275.131,886.395,272.126,889.035,246.856,911.238C221.585,933.441,174.048,975.207,148.778,997.410C123.507,1019.613,120.502,1022.253,120.199,1025.173C119.897,1028.093,122.297,1031.293,148.195,1065.830C174.093,1100.368,223.490,1166.242,249.063,1200.345C274.637,1234.449,276.387,1236.783,277.261,1239.408C278.136,1242.033,278.136,1244.950,278.136,1247.866C278.136,1250.783,278.136,1253.700,278.136,1255.158L 278.136,1256.616" fill="none" stroke="#2F3B4D" stroke-width="2"    stroke-linecap="round" stroke-linejoin="round" /><rect x="104.61" y="1010.69" width="25.77" height="28.40" rx="2" ry="2" fill="rgba(248,250,252, 0.92)" fill-opacity="0.95" stroke="#7B88A8" stroke-opacity="0.45" stroke-width="0.8"/><text x="117.50" y="1028.89" text-anchor="middle" font-family="'trebuchet ms', verdana, arial, sans-serif" font-size="16" fill="#333333"><tspan x="117.50" dy="0.00">No</tspan></text><path d="M 162.074,226.723L 162.074,228.182C162.074,229.640,162.074,232.557,162.074,235.473C162.074,238.390,162.074,241.307,163.532,242.765C164.990,244.223,167.907,244.223,191.912,244.223C215.917,244.223,261.011,244.223,285.558,244.223C310.105,244.223,314.105,244.223,315.387,246.090C316.668,247.956,315.232,251.689,289.116,319.557C263.000,387.424,212.204,519.425,186.088,587.292C159.971,655.159,158.535,658.892,158.355,662.685C158.174,666.478,159.250,670.330,185.547,764.488C211.845,858.646,263.363,1043.110,289.659,1137.266C315.956,1231.421,317.030,1235.269,315.570,1237.193C314.110,1239.116,310.115,1239.116,307.579,1239.116C305.043,1239.116,303.964,1239.116,301.967,1239.116C299.970,1239.116,297.053,1239.116,295.595,1240.575C294.136,1242.033,294.136,1244.950,294.136,1247.866C294.136,1250.783,294.136,1253.700,294.136,1255.158L 294.136,1256.616" fill="none" stroke="#2F3B4D" stroke-width="2"    stroke-linecap="round" stroke-linejoin="round" /><rect x="141.12" y="648.43" width="31.97" height="28.40" rx="2" ry="2" fill="rgba(248,250,252, 0.92)" fill-opacity="0.95" stroke="#7B88A8" stroke-opacity="0.45" stroke-width="0.8"/><text x="157.10" y="666.63" text-anchor="middle" font-family="'trebuchet ms', verdana, arial, sans-serif" font-size="16" fill="#333333"><tspan x="157.10" dy="0.00">Yes</tspan></text><path d="M 278.136,1310.616L 278.136,1312.283C278.136,1313.950,278.136,1317.283,278.136,1320.200C278.136,1323.116,278.136,1325.616,278.136,1328.116C278.135,1330.616,278.134,1333.116,278.134,1334.366C278.133,1335.616,278.133,1335.616,278.133,1336.866C278.132,1338.116,278.131,1340.616,278.131,1343.116C278.130,1345.616,278.130,1348.116,278.130,1351.033C278.130,1353.950,278.130,1357.283,278.130,1358.950L 278.130,1360.616" fill="none" stroke="#2F3B4D" stroke-width="2"    stroke-linecap="round" stroke-linejoin="round" /><rect x="110.90" y="8.00" width="102.35" height="39.00" rx="19.50" ry="19.50" fill="#ECECFF" stroke="#7B88A8" stroke-width="1" stroke-linejoin="round" stroke-linecap="round"/><text x="162.07" y="31.50" text-anchor="middle" font-family="'trebuchet ms', verdana, arial, sans-serif" font-size="16" fill="#333333"><tspan x="162.07" dy="0.00">User Visit</tspan></text><polygon points="162.07,97.00 226.94,161.86 162.07,226.72 97.21,161.86" fill="#ECECFF" stroke="#7B88A8" stroke-width="1" stroke-linejoin="round" stroke-linecap="round"/><text x="162.07" y="165.86" text-anchor="middle" font-family="'trebuchet ms', verdana, arial, sans-serif" font-size="16" fill="#333333"><tspan x="162.07" dy="0.00">Logged in?</tspan></text><rect x="109.97" y="308.72" width="174.83" height="54.00" rx="3" ry="3" fill="#ECECFF" stroke="#7B88A8" stroke-width="1" stroke-linejoin="round" stroke-linecap="round"/><text x="197.38" y="339.72" text-anchor="middle" font-family="'trebuchet ms', verdana, arial, sans-serif" font-size="16" fill="#333333"><tspan x="197.38" dy="0.00">Show Login Form</tspan></text><polygon points="197.38,412.72 291.33,506.67 197.38,600.63 103.43,506.67" fill="#ECECFF" stroke="#7B88A8" stroke-width="1" stroke-linejoin="round" stroke-linecap="round"/><text x="197.38" y="510.67" text-anchor="middle" font-family="'trebuchet ms', verdana, arial, sans-serif" font-size="16" fill="#333333"><tspan x="197.38" dy="0.00">Credentials Valid?</tspan></text><rect x="8.00" y="1256.62" width="136.55" height="54.00" rx="3" ry="3" fill="#ECECFF" stroke="#7B88A8" stroke-width="1" stroke-linejoin="round" stroke-linecap="round"/><text x="76.28" y="1287.62" text-anchor="middle" font-family="'trebuchet ms', verdana, arial, sans-serif" font-size="16" fill="#333333"><tspan x="76.28" dy="0.00">Show Error</tspan></text><polygon points="181.26,682.63 253.39,754.76 181.26,826.89 109.12,754.76" fill="#ECECFF" stroke="#7B88A8" stroke-width="1" stroke-linejoin="round" stroke-linecap="round"/><text x="181.26" y="758.76" text-anchor="middle" font-family="'trebuchet ms', verdana, arial, sans-serif" font-size="16" fill="#333333"><tspan x="181.26" dy="0.00">2FA Enabled?</tspan></text><rect x="109.12" y="908.89" width="121.26" height="54.00" rx="3" ry="3" fill="#ECECFF" stroke="#7B88A8" stroke-width="1" stroke-linejoin="round" stroke-linecap="round"/><text x="169.76" y="939.89" text-anchor="middle" font-family="'trebuchet ms', verdana, arial, sans-serif" font-size="16" fill="#333333"><tspan x="169.76" dy="0.00">Send OTP</tspan></text><polygon points="173.98,1044.89 238.85,1109.75 173.98,1174.62 109.12,1109.75" fill="#ECECFF" stroke="#7B88A8" stroke-width="1" stroke-linejoin="round" stroke-linecap="round"/><text x="173.98" y="1113.75" text-anchor="middle" font-family="'trebuchet ms', verdana, arial, sans-serif" font-size="16" fill="#333333"><tspan x="173.98" dy="0.00">OTP Valid?</tspan></text><rect x="194.55" y="1256.62" width="167.17" height="54.00" rx="3" ry="3" fill="#ECECFF" stroke="#7B88A8" stroke-width="1" stroke-linejoin="round" stroke-linecap="round"/><text x="278.14" y="1287.62" text-anchor="middle" font-family="'trebuchet ms', verdana, arial, sans-serif" font-size="16" fill="#333333"><tspan x="278.14" dy="0.00">Create Session</tspan></text><rect x="213.68" y="1360.62" width="128.90" height="54.00" rx="3" ry="3" fill="#ECECFF" stroke="#7B88A8" stroke-width="1" stroke-linejoin="round" stroke-linecap="round"/><text x="278.13" y="1391.62" text-anchor="middle" font-family="'trebuchet ms', verdana, arial, sans-serif" font-size="16" fill="#333333"><tspan x="278.13" dy="0.00">Dashboard</tspan></text><g transform="translate(162.07 97.00) rotate(90.00)"><polygon points="0,0 -10.40,6.24 -10.40,-6.24" fill="#2F3B4D" stroke="#2F3B4D" stroke-width="2" stroke-linejoin="round" stroke-linecap="round"/></g><g transform="translate(197.38 308.72) rotate(90.00)"><polygon points="0,0 -10.40,6.24 -10.40,-6.24" fill="#2F3B4D" stroke="#2F3B4D" stroke-width="2" stroke-linejoin="round" stroke-linecap="round"/></g><g transform="translate(197.38 412.72) rotate(90.00)"><polygon points="0,0 -10.40,6.24 -10.40,-6.24" fill="#2F3B4D" stroke="#2F3B4D" stroke-width="2" stroke-linejoin="round" stroke-linecap="round"/></g><g transform="translate(92.28 1256.62) rotate(90.00)"><polygon points="0,0 -10.40,6.24 -10.40,-6.24" fill="#2F3B4D" stroke="#2F3B4D" stroke-width="2" stroke-linejoin="round" stroke-linecap="round"/></g><g transform="translate(181.38 362.72) rotate(-90.00)"><polygon points="0,0 -10.40,6.24 -10.40,-6.24" fill="#2F3B4D" stroke="#2F3B4D" stroke-width="2" stroke-linejoin="round" stroke-linecap="round"/></g><g transform="translate(181.26 682.63) rotate(90.00)"><polygon points="0,0 -10.40,6.24 -10.40,-6.24" fill="#2F3B4D" stroke="#2F3B4D" stroke-width="2" stroke-linejoin="round" stroke-linecap="round"/></g><g transform="translate(169.76 908.89) rotate(90.00)"><polygon points="0,0 -10.40,6.24 -10.40,-6.24" fill="#2F3B4D" stroke="#2F3B4D" stroke-width="2" stroke-linejoin="round" stroke-linecap="round"/></g><g transform="translate(173.98 1044.89) rotate(90.00)"><polygon points="0,0 -10.40,6.24 -10.40,-6.24" fill="#2F3B4D" stroke="#2F3B4D" stroke-width="2" stroke-linejoin="round" stroke-linecap="round"/></g><g transform="translate(108.28 1256.62) rotate(90.00)"><polygon points="0,0 -10.40,6.24 -10.40,-6.24" fill="#2F3B4D" stroke="#2F3B4D" stroke-width="2" stroke-linejoin="round" stroke-linecap="round"/></g><g transform="translate(246.14 1256.62) rotate(90.00)"><polygon points="0,0 -10.40,6.24 -10.40,-6.24" fill="#2F3B4D" stroke="#2F3B4D" stroke-width="2" stroke-linejoin="round" stroke-linecap="round"/></g><g transform="translate(278.14 1256.62) rotate(90.00)"><polygon points="0,0 -10.40,6.24 -10.40,-6.24" fill="#2F3B4D" stroke="#2F3B4D" stroke-width="2" stroke-linejoin="round" stroke-linecap="round"/></g><g transform="translate(294.14 1256.62) rotate(90.00)"><polygon points="0,0 -10.40,6.24 -10.40,-6.24" fill="#2F3B4D" stroke="#2F3B4D" stroke-width="2" stroke-linejoin="round" stroke-linecap="round"/></g><g transform="translate(278.13 1360.62) rotate(90.00)"><polygon points="0,0 -10.40,6.24 -10.40,-6.24" fill="#2F3B4D" stroke="#2F3B4D" stroke-width="2" stroke-linejoin="round" stroke-linecap="round"/></g></svg>