<svg xmlns="http://www.w3.org/2000/svg" width="526.0866" height="315.46298" viewBox="0 0 526.0866 315.46298"><rect x="0" y="0" width="526.0866" height="315.46298" fill="#FFFFFF"/><defs><marker id="arrow-0" viewBox="0 0 10 10" refX="5" refY="5" markerUnits="userSpaceOnUse" markerWidth="8" markerHeight="8" orient="auto"><path d="M 0 0 L 10 5 L 0 10 z" fill="#2F3B4D" stroke="#2F3B4D" stroke-width="1" stroke-dasharray="1,0"/></marker><marker id="arrow-start-0" viewBox="0 0 10 10" refX="4.5" refY="5" markerUnits="userSpaceOnUse" markerWidth="8" markerHeight="8" orient="auto"><path d="M 0 5 L 10 10 L 10 0 z" fill="#2F3B4D" stroke="#2F3B4D" stroke-width="1" stroke-dasharray="1,0"/></marker></defs><path d="M 98.008,134.738L 99.016,134.738C100.024,134.738,102.040,134.738,104.055,134.738C106.071,134.738,108.087,134.738,109.344,133.762C110.600,132.785,111.098,130.832,113.894,119.859C116.690,108.887,121.784,88.896,124.579,77.924C127.375,66.952,127.873,64.999,129.130,64.022C130.386,63.046,132.402,63.046,134.418,63.046C136.434,63.046,138.449,63.046,139.457,63.046L 140.465,63.046" fill="none" stroke="#2F3B4D" stroke-width="2"    stroke-linecap="round" stroke-linejoin="round" /><path d="M 101.959,150.738L 103.110,150.738C104.262,150.738,106.566,150.738,108.582,150.738C110.598,150.738,112.325,150.738,114.053,150.736C115.781,150.734,117.509,150.730,118.373,150.728C119.237,150.726,119.237,150.726,120.100,150.724C120.964,150.722,122.692,150.718,124.420,150.716C126.148,150.714,127.876,150.714,129.891,150.714C131.907,150.714,134.211,150.714,135.363,150.714L 136.515,150.714" fill="none" stroke="#2F3B4D" stroke-width="2"    stroke-linecap="round" stroke-linejoin="round" /><path d="M 98.008,166.738L 99.016,166.738C100.024,166.738,102.040,166.738,104.055,166.738C106.071,166.738,108.087,166.738,109.342,167.715C110.597,168.692,111.092,170.647,113.881,181.670C116.671,192.693,121.756,212.786,124.546,223.810C127.335,234.833,127.830,236.787,129.085,237.764C130.340,238.742,132.356,238.742,134.372,238.742C136.387,238.742,138.403,238.742,139.411,238.742L 140.419,238.742" fill="none" stroke="#2F3B4D" stroke-width="2"    stroke-linecap="round" stroke-linejoin="round" /><path d="M 186.891,77.471L 186.891,77.970C186.891,78.470,186.891,79.468,186.891,80.467C186.891,81.466,186.891,82.464,186.391,82.964C185.892,83.463,184.893,83.463,183.319,83.463C181.745,83.463,179.595,83.463,176.946,83.463C174.297,83.463,171.148,83.463,169.574,81.889C168.000,80.315,168.000,77.166,168.000,68.499C168.000,59.833,168.000,45.648,168.000,36.555C168.000,27.463,168.000,23.463,166.000,21.463C164.000,19.463,160.000,19.463,135.333,19.463C110.667,19.463,65.333,19.463,40.667,19.463C16.000,19.463,12.000,19.463,10.000,21.463C8.000,23.463,8.000,27.463,8.000,73.463C8.000,119.463,8.000,207.463,8.000,253.463C8.000,299.463,8.000,303.463,10.000,305.463C12.000,307.463,16.000,307.463,56.667,307.463C97.333,307.463,174.667,307.463,215.333,307.463C256.000,307.463,260.000,307.463,262.000,305.463C264.000,303.463,264.000,299.463,264.000,275.886C264.000,252.310,264.000,209.157,264.000,187.157C264.000,165.157,264.000,164.310,263.577,163.886C263.153,163.463,262.306,163.463,261.883,163.463C261.459,163.463,261.459,163.463,261.036,163.463C260.612,163.463,259.766,163.463,259.342,163.886C258.919,164.310,258.919,165.157,258.919,166.557C258.919,167.957,258.919,169.911,258.919,170.888L 258.919,171.865" fill="none" stroke="#2F3B4D" stroke-width="2"    stroke-linecap="round" stroke-linejoin="round" /><path d="M 202.082,166.714L 203.090,166.714C204.098,166.714,206.114,166.714,208.130,166.714C210.145,166.714,212.161,166.714,213.856,167.451C215.550,168.189,216.924,169.665,219.274,172.190C221.624,174.715,224.951,178.289,227.301,180.814C229.652,183.339,231.025,184.814,232.720,185.552C234.414,186.290,236.430,186.290,238.446,186.290C240.462,186.290,242.477,186.290,243.485,186.290L 244.493,186.290" fill="none" stroke="#2F3B4D" stroke-width="2"    stroke-linecap="round" stroke-linejoin="round" /><path d="M 202.082,238.742L 203.090,238.742C204.098,238.742,206.114,238.742,208.130,238.742C210.145,238.742,212.161,238.742,213.839,237.989C215.518,237.237,216.859,235.731,219.225,233.075C221.592,230.419,224.984,226.612,227.350,223.956C229.717,221.300,231.058,219.795,232.736,219.043C234.414,218.290,236.430,218.290,238.446,218.290C240.462,218.290,242.477,218.290,243.485,218.290L 244.493,218.290" fill="none" stroke="#2F3B4D" stroke-width="2"    stroke-linecap="round" stroke-linejoin="round" /><path d="M 201.316,63.046L 202.324,63.046C203.332,63.046,205.348,63.046,207.363,63.046C209.379,63.046,211.395,63.046,213.092,63.781C214.789,64.516,216.168,65.987,218.651,68.635C221.135,71.284,224.723,75.111,227.206,77.760C229.690,80.409,231.068,81.879,232.765,82.615C234.463,83.350,236.478,83.350,238.494,83.350C240.510,83.350,242.526,83.350,243.534,83.350L 244.542,83.350" fill="none" stroke="#2F3B4D" stroke-width="2"    stroke-linecap="round" stroke-linejoin="round" /><path d="M 202.082,134.714L 203.090,134.714C204.098,134.714,206.114,134.714,208.130,134.714C210.145,134.714,212.161,134.714,213.861,133.980C215.560,133.247,216.944,131.781,219.297,129.287C221.650,126.793,224.974,123.271,227.327,120.777C229.680,118.282,231.064,116.816,232.763,116.083C234.463,115.350,236.478,115.350,238.494,115.350C240.510,115.350,242.526,115.350,243.534,115.350L 244.542,115.350" fill="none" stroke="#2F3B4D" stroke-width="2"    stroke-linecap="round" stroke-linejoin="round" /><path d="M 187.251,223.910L 187.251,222.902C187.251,221.894,187.251,219.878,187.251,217.863C187.251,215.847,187.251,213.831,188.258,212.823C189.266,211.815,191.282,211.815,195.224,211.815C199.165,211.815,205.033,211.815,209.967,211.815C214.901,211.815,218.901,211.815,220.901,209.815C222.901,207.815,222.901,203.815,222.901,194.088C222.901,184.361,222.901,168.908,222.901,159.181C222.901,149.454,222.901,145.454,224.901,143.454C226.901,141.454,230.901,141.454,235.834,141.454C240.768,141.454,246.636,141.454,250.577,141.454C254.519,141.454,256.535,141.454,257.543,140.446C258.551,139.438,258.551,137.422,258.551,135.406C258.551,133.391,258.551,131.375,258.551,130.367L 258.551,129.359" fill="none" stroke="#2F3B4D" stroke-width="2"    stroke-linecap="round" stroke-linejoin="round" /><path d="M 305.344,186.290L 306.352,186.290C307.360,186.290,309.376,186.290,311.391,186.290C313.407,186.290,315.423,186.290,317.119,185.553C318.814,184.817,320.190,183.343,322.531,180.836C324.873,178.328,328.180,174.786,330.522,172.278C332.863,169.770,334.239,168.297,335.934,167.560C337.630,166.823,339.646,166.823,341.662,166.823C343.677,166.823,345.693,166.823,346.701,166.823L 347.709,166.823" fill="none" stroke="#2F3B4D" stroke-width="2"    stroke-linecap="round" stroke-linejoin="round" /><path d="M 304.560,115.350L 305.568,115.350C306.575,115.350,308.591,115.350,310.607,115.350C312.623,115.350,314.639,115.350,316.349,116.072C318.060,116.794,319.467,118.239,321.924,120.762C324.380,123.285,327.888,126.888,330.345,129.411C332.802,131.935,334.208,133.379,335.919,134.101C337.630,134.823,339.646,134.823,341.662,134.823C343.677,134.823,345.693,134.823,346.701,134.823L 347.709,134.823" fill="none" stroke="#2F3B4D" stroke-width="2"    stroke-linecap="round" stroke-linejoin="round" /><path d="M 414.059,150.823 L 448.615,150.823" fill="none" stroke="#2F3B4D" stroke-width="2"    stroke-linecap="round" stroke-linejoin="round" /><path d="M 205.267,47.046L 206.274,47.046C207.282,47.046,209.298,47.046,211.314,47.046C213.330,47.046,215.345,47.046,216.353,46.038C217.361,45.030,217.361,43.014,217.361,38.506C217.361,33.999,217.361,26.999,217.361,21.500C217.361,16.000,217.361,12.000,219.361,10.000C221.361,8.000,225.361,8.000,260.538,8.000C295.716,8.000,362.070,8.000,397.247,8.000C432.424,8.000,436.424,8.000,438.424,10.000C440.424,12.000,440.424,16.000,440.424,36.129C440.424,56.259,440.424,92.517,440.424,111.654C440.424,130.792,440.424,132.807,441.432,133.815C442.440,134.823,444.456,134.823,446.472,134.823C448.487,134.823,450.503,134.823,451.511,134.823L 452.519,134.823" fill="none" stroke="#2F3B4D" stroke-width="2"    stroke-linecap="round" stroke-linejoin="round" /><path d="M 205.987,150.714L 206.994,150.714C208.002,150.714,210.018,150.714,212.034,150.714C214.050,150.714,216.065,150.714,217.073,149.706C218.081,148.698,218.081,146.682,218.081,131.413C218.081,116.144,218.081,87.622,218.081,71.361C218.081,55.100,218.081,51.100,220.081,49.100C222.081,47.100,226.081,47.100,260.488,47.100C294.894,47.100,359.707,47.100,394.114,47.100C428.520,47.100,432.520,47.100,434.520,49.100C436.520,51.100,436.520,55.100,436.520,71.380C436.520,87.659,436.520,116.217,436.520,131.505C436.520,146.792,436.520,148.807,437.528,149.815C438.536,150.823,440.552,150.823,442.567,150.823C444.583,150.823,446.599,150.823,447.607,150.823L 448.615,150.823" fill="none" stroke="#2F3B4D" stroke-width="2"    stroke-linecap="round" stroke-linejoin="round" /><path d="M 205.987,254.742L 206.994,254.742C208.002,254.742,210.018,254.742,212.034,254.742C214.050,254.742,216.065,254.742,217.073,255.749C218.081,256.757,218.081,258.773,218.081,260.293C218.081,261.813,218.081,262.838,218.081,264.870C218.081,266.903,218.081,269.943,219.601,271.463C221.121,272.983,224.162,272.983,259.219,272.983C294.276,272.983,361.350,272.983,396.887,272.983C432.424,272.983,436.424,272.983,438.424,270.983C440.424,268.983,440.424,264.983,440.424,248.298C440.424,231.612,440.424,202.241,440.424,186.548C440.424,170.855,440.424,168.839,441.432,167.831C442.440,166.823,444.456,166.823,446.472,166.823C448.487,166.823,450.503,166.823,451.511,166.823L 452.519,166.823" fill="none" stroke="#2F3B4D" stroke-width="2"    stroke-linecap="round" stroke-linejoin="round" /><circle cx="67.58" cy="150.74" r="34.38" fill="#ECECFF" stroke="#7B88A8" stroke-width="1" stroke-linejoin="round" stroke-linecap="round"/><circle cx="67.58" cy="150.74" r="30.38" fill="none" stroke="#7B88A8" stroke-width="1" stroke-linejoin="round" stroke-linecap="round"/><text x="67.58" y="154.74" text-anchor="middle" font-family="'trebuchet ms', verdana, arial, sans-serif" font-size="16" fill="#333333"><tspan x="67.58" dy="0.00">A</tspan></text><circle cx="170.89" cy="47.05" r="34.38" fill="#ECECFF" stroke="#7B88A8" stroke-width="1" stroke-linejoin="round" stroke-linecap="round"/><circle cx="170.89" cy="47.05" r="30.38" fill="none" stroke="#7B88A8" stroke-width="1" stroke-linejoin="round" stroke-linecap="round"/><text x="170.89" y="51.05" text-anchor="middle" font-family="'trebuchet ms', verdana, arial, sans-serif" font-size="16" fill="#333333"><tspan x="170.89" dy="0.00">B</tspan></text><circle cx="171.25" cy="150.71" r="34.74" fill="#ECECFF" stroke="#7B88A8" stroke-width="1" stroke-linejoin="round" stroke-linecap="round"/><circle cx="171.25" cy="150.71" r="30.74" fill="none" stroke="#7B88A8" stroke-width="1" stroke-linejoin="round" stroke-linecap="round"/><text x="171.25" y="154.71" text-anchor="middle" font-family="'trebuchet ms', verdana, arial, sans-serif" font-size="16" fill="#333333"><tspan x="171.25" dy="0.00">C</tspan></text><circle cx="171.25" cy="254.74" r="34.74" fill="#ECECFF" stroke="#7B88A8" stroke-width="1" stroke-linejoin="round" stroke-linecap="round"/><circle cx="171.25" cy="254.74" r="30.74" fill="none" stroke="#7B88A8" stroke-width="1" stroke-linejoin="round" stroke-linecap="round"/><text x="171.25" y="258.74" text-anchor="middle" font-family="'trebuchet ms', verdana, arial, sans-serif" font-size="16" fill="#333333"><tspan x="171.25" dy="0.00">D</tspan></text><circle cx="274.92" cy="202.29" r="34.38" fill="#ECECFF" stroke="#7B88A8" stroke-width="1" stroke-linejoin="round" stroke-linecap="round"/><circle cx="274.92" cy="202.29" r="30.38" fill="none" stroke="#7B88A8" stroke-width="1" stroke-linejoin="round" stroke-linecap="round"/><text x="274.92" y="206.29" text-anchor="middle" font-family="'trebuchet ms', verdana, arial, sans-serif" font-size="16" fill="#333333"><tspan x="274.92" dy="0.00">E</tspan></text><circle cx="274.55" cy="99.35" r="34.01" fill="#ECECFF" stroke="#7B88A8" stroke-width="1" stroke-linejoin="round" stroke-linecap="round"/><circle cx="274.55" cy="99.35" r="30.01" fill="none" stroke="#7B88A8" stroke-width="1" stroke-linejoin="round" stroke-linecap="round"/><text x="274.55" y="103.35" text-anchor="middle" font-family="'trebuchet ms', verdana, arial, sans-serif" font-size="16" fill="#333333"><tspan x="274.55" dy="0.00">F</tspan></text><circle cx="378.95" cy="150.82" r="35.10" fill="#ECECFF" stroke="#7B88A8" stroke-width="1" stroke-linejoin="round" stroke-linecap="round"/><circle cx="378.95" cy="150.82" r="31.10" fill="none" stroke="#7B88A8" stroke-width="1" stroke-linejoin="round" stroke-linecap="round"/><text x="378.95" y="154.82" text-anchor="middle" font-family="'trebuchet ms', verdana, arial, sans-serif" font-size="16" fill="#333333"><tspan x="378.95" dy="0.00">G</tspan></text><circle cx="483.35" cy="150.82" r="34.74" fill="#ECECFF" stroke="#7B88A8" stroke-width="1" stroke-linejoin="round" stroke-linecap="round"/><circle cx="483.35" cy="150.82" r="30.74" fill="none" stroke="#7B88A8" stroke-width="1" stroke-linejoin="round" stroke-linecap="round"/><text x="483.35" y="154.82" text-anchor="middle" font-family="'trebuchet ms', verdana, arial, sans-serif" font-size="16" fill="#333333"><tspan x="483.35" dy="0.00">H</tspan></text><g transform="translate(140.47 63.05) rotate(0.00)"><polygon points="0,0 -10.40,6.24 -10.40,-6.24" fill="#2F3B4D" stroke="#2F3B4D" stroke-width="2" stroke-linejoin="round" stroke-linecap="round"/></g><g transform="translate(136.51 150.71) rotate(0.00)"><polygon points="0,0 -10.40,6.24 -10.40,-6.24" fill="#2F3B4D" stroke="#2F3B4D" stroke-width="2" stroke-linejoin="round" stroke-linecap="round"/></g><g transform="translate(140.42 238.74) rotate(0.00)"><polygon points="0,0 -10.40,6.24 -10.40,-6.24" fill="#2F3B4D" stroke="#2F3B4D" stroke-width="2" stroke-linejoin="round" stroke-linecap="round"/></g><g transform="translate(258.92 171.86) rotate(90.00)"><polygon points="0,0 -10.40,6.24 -10.40,-6.24" fill="#2F3B4D" stroke="#2F3B4D" stroke-width="2" stroke-linejoin="round" stroke-linecap="round"/></g><g transform="translate(244.49 186.29) rotate(0.00)"><polygon points="0,0 -10.40,6.24 -10.40,-6.24" fill="#2F3B4D" stroke="#2F3B4D" stroke-width="2" stroke-linejoin="round" stroke-linecap="round"/></g><g transform="translate(244.49 218.29) rotate(0.00)"><polygon points="0,0 -10.40,6.24 -10.40,-6.24" fill="#2F3B4D" stroke="#2F3B4D" stroke-width="2" stroke-linejoin="round" stroke-linecap="round"/></g><g transform="translate(244.54 83.35) rotate(0.00)"><polygon points="0,0 -10.40,6.24 -10.40,-6.24" fill="#2F3B4D" stroke="#2F3B4D" stroke-width="2" stroke-linejoin="round" stroke-linecap="round"/></g><g transform="translate(244.54 115.35) rotate(0.00)"><polygon points="0,0 -10.40,6.24 -10.40,-6.24" fill="#2F3B4D" stroke="#2F3B4D" stroke-width="2" stroke-linejoin="round" stroke-linecap="round"/></g><g transform="translate(258.55 129.36) rotate(-90.00)"><polygon points="0,0 -10.40,6.24 -10.40,-6.24" fill="#2F3B4D" stroke="#2F3B4D" stroke-width="2" stroke-linejoin="round" stroke-linecap="round"/></g><g transform="translate(347.71 166.82) rotate(0.00)"><polygon points="0,0 -10.40,6.24 -10.40,-6.24" fill="#2F3B4D" stroke="#2F3B4D" stroke-width="2" stroke-linejoin="round" stroke-linecap="round"/></g><g transform="translate(347.71 134.82) rotate(0.00)"><polygon points="0,0 -10.40,6.24 -10.40,-6.24" fill="#2F3B4D" stroke="#2F3B4D" stroke-width="2" stroke-linejoin="round" stroke-linecap="round"/></g><g transform="translate(448.61 150.82) rotate(0.00)"><polygon points="0,0 -10.40,6.24 -10.40,-6.24" fill="#2F3B4D" stroke="#2F3B4D" stroke-width="2" stroke-linejoin="round" stroke-linecap="round"/></g><g transform="translate(452.52 134.82) rotate(0.00)"><polygon points="0,0 -10.40,6.24 -10.40,-6.24" fill="#2F3B4D" stroke="#2F3B4D" stroke-width="2" stroke-linejoin="round" stroke-linecap="round"/></g><g transform="translate(448.61 150.82) rotate(0.00)"><polygon points="0,0 -10.40,6.24 -10.40,-6.24" fill="#2F3B4D" stroke="#2F3B4D" stroke-width="2" stroke-linejoin="round" stroke-linecap="round"/></g><g transform="translate(452.52 166.82) rotate(0.00)"><polygon points="0,0 -10.40,6.24 -10.40,-6.24" fill="#2F3B4D" stroke="#2F3B4D" stroke-width="2" stroke-linejoin="round" stroke-linecap="round"/></g></svg>