<svg xmlns="http://www.w3.org/2000/svg" width="2025.1124" height="166.03311" viewBox="0 0 2025.1124 166.03311"><rect x="0" y="0" width="2025.1124" height="166.03311" fill="#FFFFFF"/><defs><marker id="arrow-0" viewBox="0 0 10 10" refX="5" refY="5" markerUnits="userSpaceOnUse" markerWidth="8" markerHeight="8" orient="auto"><path d="M 0 0 L 10 5 L 0 10 z" fill="#2F3B4D" stroke="#2F3B4D" stroke-width="1" stroke-dasharray="1,0"/></marker><marker id="arrow-start-0" viewBox="0 0 10 10" refX="4.5" refY="5" markerUnits="userSpaceOnUse" markerWidth="8" markerHeight="8" orient="auto"><path d="M 0 5 L 10 10 L 10 0 z" fill="#2F3B4D" stroke="#2F3B4D" stroke-width="1" stroke-dasharray="1,0"/></marker></defs><path d="M 106.275,35.000L 107.501,35.000C108.727,35.000,111.179,35.000,113.631,35.000C116.083,35.000,118.535,35.000,120.987,35.003C123.439,35.005,125.891,35.011,136.973,35.036C148.056,35.061,167.769,35.105,178.851,35.130C189.934,35.154,192.386,35.160,194.838,35.163C197.289,35.165,199.741,35.165,202.193,35.165C204.645,35.165,207.097,35.165,208.323,35.165L 209.549,35.165" fill="none" stroke="#2F3B4D" stroke-width="2"    stroke-linecap="round" stroke-linejoin="round" /><path d="M 402.823,62.000L 402.823,63.354C402.823,64.708,402.823,67.415,402.823,69.867C402.823,72.319,402.823,74.515,402.504,76.664C402.185,78.813,401.547,80.915,401.228,81.966C400.909,83.017,400.909,83.017,400.590,84.067C400.271,85.118,399.633,87.220,399.314,89.369C398.995,91.518,398.995,93.714,398.995,96.166C398.995,98.618,398.995,101.326,398.995,102.679L 398.995,104.033" fill="none" stroke="#2F3B4D" stroke-width="2"   stroke-dasharray="2" stroke-linecap="round" stroke-linejoin="round" /><path d="M 596.097,35.000L 597.323,35.000C598.549,35.000,601.000,35.000,603.452,35.000C605.904,35.000,608.356,35.000,610.808,35.000C613.260,35.001,615.712,35.001,626.794,35.004C637.877,35.007,657.590,35.012,668.672,35.015C679.755,35.018,682.207,35.019,684.659,35.019C687.111,35.019,689.562,35.019,692.014,35.019C694.466,35.019,696.918,35.019,698.144,35.019L 699.370,35.019" fill="none" stroke="#2F3B4D" stroke-width="3.5"    stroke-linecap="round" stroke-linejoin="round" /><path d="M 999.195,35.000L 1000.596,35.000C1001.997,35.000,1004.799,35.000,1007.251,35.000C1009.703,35.000,1011.805,35.000,1013.906,35.002C1016.008,35.003,1018.110,35.006,1019.160,35.008C1020.211,35.010,1020.211,35.010,1021.262,35.011C1022.313,35.013,1024.414,35.016,1026.516,35.018C1028.618,35.019,1030.719,35.019,1033.171,35.019C1035.623,35.019,1038.426,35.019,1039.827,35.019L 1041.228,35.019" fill="none" stroke="#2F3B4D" stroke-width="2"    stroke-linecap="round" stroke-linejoin="round" /><path d="M 1310.432,35.000L 1311.658,35.000C1312.884,35.000,1315.336,35.000,1317.788,35.000C1320.240,35.000,1322.692,35.000,1325.144,35.001C1327.595,35.001,1330.047,35.003,1334.751,35.005C1339.454,35.008,1346.408,35.012,1351.112,35.014C1355.815,35.017,1358.267,35.018,1360.719,35.019C1363.171,35.019,1365.623,35.019,1368.075,35.019C1370.526,35.019,1372.978,35.019,1374.204,35.019L 1375.430,35.019" fill="none" stroke="#2F3B4D" stroke-width="2"    stroke-linecap="round" stroke-linejoin="round" /><path d="M 1580.187,62.000L 1580.187,63.226C1580.187,64.452,1580.187,66.904,1580.187,69.356C1580.187,71.808,1580.187,74.260,1579.361,76.392C1578.536,78.525,1576.885,80.337,1575.797,81.533C1574.708,82.728,1574.182,83.305,1573.094,84.500C1572.006,85.696,1570.355,87.509,1569.530,89.641C1568.704,91.773,1568.704,94.225,1568.704,96.677C1568.704,99.129,1568.704,101.581,1568.704,102.807L 1568.704,104.033" fill="none" stroke="#2F3B4D" stroke-width="2"   stroke-dasharray="2" stroke-linecap="round" stroke-linejoin="round" /><path d="M 1830.874,35.224L 1832.099,35.224C1833.326,35.224,1835.777,35.224,1838.229,35.224C1840.681,35.224,1843.133,35.224,1845.585,35.216C1848.037,35.208,1850.489,35.193,1855.192,35.163C1859.895,35.134,1866.850,35.090,1871.553,35.060C1876.256,35.031,1878.708,35.015,1881.160,35.008C1883.612,35.000,1886.064,35.000,1888.516,35.000C1890.968,35.000,1893.420,35.000,1894.646,35.000L 1895.872,35.000" fill="none" stroke="#2F3B4D" stroke-width="3.5"    stroke-linecap="round" stroke-linejoin="round" /><rect x="8.00" y="8.00" width="98.28" height="54.00" rx="3" ry="3" fill="#ECECFF" stroke="#7B88A8" stroke-width="1" stroke-linejoin="round" stroke-linecap="round"/><text x="57.14" y="39.00" text-anchor="middle" font-family="'trebuchet ms', verdana, arial, sans-serif" font-size="16" fill="#333333"><tspan x="57.14" dy="0.00">Solid</tspan></text><rect x="209.55" y="8.17" width="98.28" height="54.00" rx="3" ry="3" fill="#ECECFF" stroke="#7B88A8" stroke-width="1" stroke-linejoin="round" stroke-linecap="round"/><text x="258.69" y="39.17" text-anchor="middle" font-family="'trebuchet ms', verdana, arial, sans-serif" font-size="16" fill="#333333"><tspan x="258.69" dy="0.00">Arrow</tspan></text><rect x="349.86" y="8.00" width="105.93" height="54.00" rx="3" ry="3" fill="#ECECFF" stroke="#7B88A8" stroke-width="1" stroke-linejoin="round" stroke-linecap="round"/><text x="402.82" y="39.00" text-anchor="middle" font-family="'trebuchet ms', verdana, arial, sans-serif" font-size="16" fill="#333333"><tspan x="402.82" dy="0.00">Dotted</tspan></text><rect x="349.86" y="104.03" width="98.28" height="54.00" rx="3" ry="3" fill="#ECECFF" stroke="#7B88A8" stroke-width="1" stroke-linejoin="round" stroke-linecap="round"/><text x="399.00" y="135.03" text-anchor="middle" font-family="'trebuchet ms', verdana, arial, sans-serif" font-size="16" fill="#333333"><tspan x="399.00" dy="0.00">Arrow</tspan></text><rect x="497.82" y="8.00" width="98.28" height="54.00" rx="3" ry="3" fill="#ECECFF" stroke="#7B88A8" stroke-width="1" stroke-linejoin="round" stroke-linecap="round"/><text x="546.96" y="39.00" text-anchor="middle" font-family="'trebuchet ms', verdana, arial, sans-serif" font-size="16" fill="#333333"><tspan x="546.96" dy="0.00">Thick</tspan></text><rect x="699.37" y="8.02" width="98.28" height="54.00" rx="3" ry="3" fill="#ECECFF" stroke="#7B88A8" stroke-width="1" stroke-linejoin="round" stroke-linecap="round"/><text x="748.51" y="39.02" text-anchor="middle" font-family="'trebuchet ms', verdana, arial, sans-serif" font-size="16" fill="#333333"><tspan x="748.51" dy="0.00">Arrow</tspan></text><rect x="839.68" y="8.00" width="159.52" height="54.00" rx="3" ry="3" fill="#ECECFF" stroke="#7B88A8" stroke-width="1" stroke-linejoin="round" stroke-linecap="round"/><text x="919.44" y="39.00" text-anchor="middle" font-family="'trebuchet ms', verdana, arial, sans-serif" font-size="16" fill="#333333"><tspan x="919.44" dy="0.00">Bidirectional</tspan></text><rect x="1041.23" y="8.02" width="90.62" height="54.00" rx="3" ry="3" fill="#ECECFF" stroke="#7B88A8" stroke-width="1" stroke-linejoin="round" stroke-linecap="round"/><text x="1086.54" y="39.02" text-anchor="middle" font-family="'trebuchet ms', verdana, arial, sans-serif" font-size="16" fill="#333333"><tspan x="1086.54" dy="0.00">Both</tspan></text><rect x="1173.88" y="8.00" width="136.55" height="54.00" rx="3" ry="3" fill="#ECECFF" stroke="#7B88A8" stroke-width="1" stroke-linejoin="round" stroke-linecap="round"/><text x="1242.16" y="39.00" text-anchor="middle" font-family="'trebuchet ms', verdana, arial, sans-serif" font-size="16" fill="#333333"><tspan x="1242.16" dy="0.00">Undirected</tspan></text><rect x="1375.43" y="8.02" width="90.62" height="54.00" rx="3" ry="3" fill="#ECECFF" stroke="#7B88A8" stroke-width="1" stroke-linejoin="round" stroke-linecap="round"/><text x="1420.74" y="39.02" text-anchor="middle" font-family="'trebuchet ms', verdana, arial, sans-serif" font-size="16" fill="#333333"><tspan x="1420.74" dy="0.00">Line</tspan></text><rect x="1508.08" y="8.00" width="144.21" height="54.00" rx="3" ry="3" fill="#ECECFF" stroke="#7B88A8" stroke-width="1" stroke-linejoin="round" stroke-linecap="round"/><text x="1580.19" y="39.00" text-anchor="middle" font-family="'trebuchet ms', verdana, arial, sans-serif" font-size="16" fill="#333333"><tspan x="1580.19" dy="0.00">Dotted Line</tspan></text><rect x="1508.08" y="104.03" width="121.24" height="54.00" rx="3" ry="3" fill="#ECECFF" stroke="#7B88A8" stroke-width="1" stroke-linejoin="round" stroke-linecap="round"/><text x="1568.70" y="135.03" text-anchor="middle" font-family="'trebuchet ms', verdana, arial, sans-serif" font-size="16" fill="#333333"><tspan x="1568.70" dy="0.00">No Arrow</tspan></text><rect x="1694.32" y="8.22" width="136.55" height="54.00" rx="3" ry="3" fill="#ECECFF" stroke="#7B88A8" stroke-width="1" stroke-linejoin="round" stroke-linecap="round"/><text x="1762.60" y="39.22" text-anchor="middle" font-family="'trebuchet ms', verdana, arial, sans-serif" font-size="16" fill="#333333"><tspan x="1762.60" dy="0.00">Thick Line</tspan></text><rect x="1895.87" y="8.00" width="121.24" height="54.00" rx="3" ry="3" fill="#ECECFF" stroke="#7B88A8" stroke-width="1" stroke-linejoin="round" stroke-linecap="round"/><text x="1956.49" y="39.00" text-anchor="middle" font-family="'trebuchet ms', verdana, arial, sans-serif" font-size="16" fill="#333333"><tspan x="1956.49" dy="0.00">No Arrow</tspan></text><g transform="translate(209.55 35.17) rotate(0.00)"><polygon points="0,0 -10.40,6.24 -10.40,-6.24" fill="#2F3B4D" stroke="#2F3B4D" stroke-width="2" stroke-linejoin="round" stroke-linecap="round"/></g><g transform="translate(399.00 104.03) rotate(90.00)"><polygon points="0,0 -10.40,6.24 -10.40,-6.24" fill="#2F3B4D" stroke="#2F3B4D" stroke-width="2" stroke-linejoin="round" stroke-linecap="round"/></g><g transform="translate(699.37 35.02) rotate(0.00)"><polygon points="0,0 -13.70,8.22 -13.70,-8.22" fill="#2F3B4D" stroke="#2F3B4D" stroke-width="3.5" stroke-linejoin="round" stroke-linecap="round"/></g><g transform="translate(999.19 35.00) rotate(180.00)"><polygon points="0,0 -10.40,6.24 -10.40,-6.24" fill="#2F3B4D" stroke="#2F3B4D" stroke-width="2" stroke-linejoin="round" stroke-linecap="round"/></g><g transform="translate(1041.23 35.02) rotate(0.00)"><polygon points="0,0 -10.40,6.24 -10.40,-6.24" fill="#2F3B4D" stroke="#2F3B4D" stroke-width="2" stroke-linejoin="round" stroke-linecap="round"/></g></svg>