<svg xmlns="http://www.w3.org/2000/svg" width="280.33435" height="625.5427" viewBox="0 0 280.33435 625.5427"><rect x="0" y="0" width="280.33435" height="625.5427" fill="#FFFFFF"/><defs><marker id="arrow-0" viewBox="0 0 10 10" refX="5" refY="5" markerUnits="userSpaceOnUse" markerWidth="8" markerHeight="8" orient="auto"><path d="M 0 0 L 10 5 L 0 10 z" fill="#2F3B4D" stroke="#2F3B4D" stroke-width="1" stroke-dasharray="1,0"/></marker><marker id="arrow-start-0" viewBox="0 0 10 10" refX="4.5" refY="5" markerUnits="userSpaceOnUse" markerWidth="8" markerHeight="8" orient="auto"><path d="M 0 5 L 10 10 L 10 0 z" fill="#2F3B4D" stroke="#2F3B4D" stroke-width="1" stroke-dasharray="1,0"/></marker></defs><path d="M 134.727,106.275 L 134.727,151.094" fill="none" stroke="#2F3B4D" stroke-width="2"    stroke-linecap="round" stroke-linejoin="round" /><path d="M 134.727,205.094 L 134.727,249.912" fill="none" stroke="#2F3B4D" stroke-width="2"    stroke-linecap="round" stroke-linejoin="round" /><path d="M 166.727,318.546L 166.727,319.853C166.727,321.160,166.727,323.775,166.727,326.389C166.727,329.004,166.727,331.618,166.101,334.073C165.476,336.528,164.224,338.823,158.537,349.256C152.850,359.689,142.727,378.258,136.708,389.299C130.690,400.340,128.775,403.852,129.814,405.727C130.854,407.601,134.847,407.838,145.655,408.480C156.464,409.121,174.088,410.167,184.205,410.768C194.322,411.368,196.932,411.523,198.237,412.908C199.542,414.292,199.542,416.907,199.542,419.521C199.542,422.136,199.542,424.750,199.542,426.057L 199.542,427.364" fill="none" stroke="#2F3B4D" stroke-width="2"    stroke-linecap="round" stroke-linejoin="round" /><rect x="110.88" y="393.16" width="31.97" height="28.40" rx="2" ry="2" fill="rgba(248,250,252, 0.92)" fill-opacity="0.95" stroke="#7B88A8" stroke-opacity="0.45" stroke-width="0.8"/><text x="126.86" y="411.36" text-anchor="middle" font-family="'trebuchet ms', verdana, arial, sans-serif" font-size="16" fill="#333333"><tspan x="126.86" dy="0.00">Yes</tspan></text><path d="M 102.727,318.546L 102.727,319.853C102.727,321.160,102.727,323.775,102.727,326.389C102.727,329.004,102.727,331.618,102.093,334.068C101.459,336.519,100.191,338.805,94.055,349.871C87.919,360.937,76.915,380.782,70.791,391.828C64.666,402.873,63.421,405.119,64.031,406.601C64.641,408.083,67.106,408.802,68.338,409.162C69.570,409.521,69.570,409.521,70.803,409.881C72.035,410.240,74.500,410.959,75.733,412.602C76.965,414.246,76.965,416.813,76.965,419.428C76.965,422.042,76.965,424.703,76.965,426.034L 76.965,427.364" fill="none" stroke="#2F3B4D" stroke-width="2"    stroke-linecap="round" stroke-linejoin="round" /><rect x="49.29" y="393.16" width="25.77" height="28.40" rx="2" ry="2" fill="rgba(248,250,252, 0.92)" fill-opacity="0.95" stroke="#7B88A8" stroke-opacity="0.45" stroke-width="0.8"/><text x="62.18" y="411.36" text-anchor="middle" font-family="'trebuchet ms', verdana, arial, sans-serif" font-size="16" fill="#333333"><tspan x="62.18" dy="0.00">No</tspan></text><path d="M 199.542,481.364L 199.542,482.672C199.542,483.979,199.542,486.593,199.542,489.208C199.542,491.822,199.542,494.436,198.573,496.621C197.604,498.806,195.666,500.561,191.754,504.105C187.841,507.648,181.954,512.980,178.041,516.524C174.129,520.068,172.191,521.823,171.222,524.008C170.253,526.192,170.253,528.807,170.253,531.421C170.253,534.035,170.253,536.650,170.253,537.957L 170.253,539.264" fill="none" stroke="#2F3B4D" stroke-width="2"    stroke-linecap="round" stroke-linejoin="round" /><path d="M 76.965,481.364L 76.965,482.672C76.965,483.979,76.965,486.593,76.965,489.208C76.965,491.822,76.965,494.436,77.934,496.621C78.903,498.806,80.841,500.561,84.753,504.105C88.666,507.648,94.553,512.980,98.465,516.524C102.378,520.068,104.316,521.823,105.285,524.008C106.253,526.192,106.253,528.807,106.253,531.421C106.253,534.035,106.253,536.650,106.253,537.957L 106.253,539.264" fill="none" stroke="#2F3B4D" stroke-width="2"    stroke-linecap="round" stroke-linejoin="round" /><rect x="77.93" y="151.09" width="113.59" height="54.00" rx="3" ry="3" fill="#ECECFF" stroke="#7B88A8" stroke-width="1" stroke-linejoin="round" stroke-linecap="round"/><text x="134.73" y="182.09" text-anchor="middle" font-family="'trebuchet ms', verdana, arial, sans-serif" font-size="16" fill="#333333"><tspan x="134.73" dy="0.00">Collect</tspan></text><polygon points="134.73,249.91 185.04,300.23 134.73,350.55 84.41,300.23" fill="#ECECFF" stroke="#7B88A8" stroke-width="1" stroke-linejoin="round" stroke-linecap="round"/><text x="134.73" y="304.23" text-anchor="middle" font-family="'trebuchet ms', verdana, arial, sans-serif" font-size="16" fill="#333333"><tspan x="134.73" dy="0.00">Valid?</tspan></text><rect x="158.75" y="427.36" width="113.59" height="54.00" rx="3" ry="3" fill="#ECECFF" stroke="#7B88A8" stroke-width="1" stroke-linejoin="round" stroke-linecap="round"/><text x="215.54" y="458.36" text-anchor="middle" font-family="'trebuchet ms', verdana, arial, sans-serif" font-size="16" fill="#333333"><tspan x="215.54" dy="0.00">Process</tspan></text><rect x="8.00" y="427.36" width="105.93" height="54.00" rx="3" ry="3" fill="#ECECFF" stroke="#7B88A8" stroke-width="1" stroke-linejoin="round" stroke-linecap="round"/><text x="60.97" y="458.36" text-anchor="middle" font-family="'trebuchet ms', verdana, arial, sans-serif" font-size="16" fill="#333333"><tspan x="60.97" dy="0.00">Reject</tspan></text><circle cx="138.25" cy="571.86" r="45.68" fill="#ECECFF" stroke="#7B88A8" stroke-width="1" stroke-linejoin="round" stroke-linecap="round"/><circle cx="138.25" cy="571.86" r="41.68" fill="none" stroke="#7B88A8" stroke-width="1" stroke-linejoin="round" stroke-linecap="round"/><text x="138.25" y="575.86" text-anchor="middle" font-family="'trebuchet ms', verdana, arial, sans-serif" font-size="16" fill="#333333"><tspan x="138.25" dy="0.00">Done</tspan></text><circle cx="134.73" cy="57.14" r="49.14" fill="#ECECFF" stroke="#7B88A8" stroke-width="1" stroke-linejoin="round" stroke-linecap="round"/><circle cx="134.73" cy="57.14" r="45.14" fill="none" stroke="#7B88A8" stroke-width="1" stroke-linejoin="round" stroke-linecap="round"/><text x="134.73" y="61.14" text-anchor="middle" font-family="'trebuchet ms', verdana, arial, sans-serif" font-size="16" fill="#333333"><tspan x="134.73" dy="0.00">Start</tspan></text><g transform="translate(134.73 151.09) rotate(90.00)"><polygon points="0,0 -10.40,6.24 -10.40,-6.24" fill="#2F3B4D" stroke="#2F3B4D" stroke-width="2" stroke-linejoin="round" stroke-linecap="round"/></g><g transform="translate(134.73 249.91) rotate(90.00)"><polygon points="0,0 -10.40,6.24 -10.40,-6.24" fill="#2F3B4D" stroke="#2F3B4D" stroke-width="2" stroke-linejoin="round" stroke-linecap="round"/></g><g transform="translate(199.54 427.36) rotate(90.00)"><polygon points="0,0 -10.40,6.24 -10.40,-6.24" fill="#2F3B4D" stroke="#2F3B4D" stroke-width="2" stroke-linejoin="round" stroke-linecap="round"/></g><g transform="translate(76.97 427.36) rotate(90.00)"><polygon points="0,0 -10.40,6.24 -10.40,-6.24" fill="#2F3B4D" stroke="#2F3B4D" stroke-width="2" stroke-linejoin="round" stroke-linecap="round"/></g><g transform="translate(170.25 539.26) rotate(90.00)"><polygon points="0,0 -10.40,6.24 -10.40,-6.24" fill="#2F3B4D" stroke="#2F3B4D" stroke-width="2" stroke-linejoin="round" stroke-linecap="round"/></g><g transform="translate(106.25 539.26) rotate(90.00)"><polygon points="0,0 -10.40,6.24 -10.40,-6.24" fill="#2F3B4D" stroke="#2F3B4D" stroke-width="2" stroke-linejoin="round" stroke-linecap="round"/></g></svg>