<svg xmlns="http://www.w3.org/2000/svg" width="720.4" height="690" viewBox="0 0 720.4 690"><rect width="100%" height="100%" fill="#FFFFFF"/><defs><marker id="arrow-0" viewBox="0 0 10 10" refX="5" refY="5" markerUnits="userSpaceOnUse" markerWidth="8" markerHeight="8" orient="auto"><path d="M 0 0 L 10 5 L 0 10 z" fill="#333333"/></marker><marker id="arrow-start-0" viewBox="0 0 10 10" refX="4.5" refY="5" markerUnits="userSpaceOnUse" markerWidth="8" markerHeight="8" orient="auto"><path d="M 0 5 L 10 10 L 10 0 z" fill="#333333"/></marker></defs><rect x="24.00" y="496.00" width="636.40" height="134.00" rx="10" ry="10" fill="#FFFFDE" stroke="#AAAA33" stroke-width="1" /><text x="342.20" y="524.00" text-anchor="middle" font-family="'trebuchet ms', verdana, arial, sans-serif" font-size="16" fill="#333333"><tspan x="342.20" dy="0.00">Testing</tspan></text><path d="M 409.000,78.000C409.000,85.455,409.000,95.395,409.000,102.850C409.000,110.305,409.000,95.395,409.000,102.850C409.000,110.305,409.000,120.245,409.000,127.700" fill="none" stroke="#333333" stroke-width="2" marker-end="url(#arrow-0)"   stroke-linecap="round" stroke-linejoin="round" /><path d="M 358.720,186.415C358.720,196.403,366.076,209.720,358.720,219.707C351.364,229.695,341.556,209.720,334.200,219.707C326.844,229.695,334.200,243.012,334.200,253.000" fill="none" stroke="#333333" stroke-width="2" marker-end="url(#arrow-0)"   stroke-linecap="round" stroke-linejoin="round" /><rect x="331.66" y="205.71" width="29.60" height="28.00" rx="0" ry="0" fill="#E8E8E8" fill-opacity="0.5" stroke="none"/><text x="346.46" y="223.71" text-anchor="middle" font-family="'trebuchet ms', verdana, arial, sans-serif" font-size="16" fill="#333333"><tspan x="346.46" dy="0.00">Yes</tspan></text><path d="M 409.000,203.300C409.000,208.130,390.160,214.570,409.000,219.400C427.840,224.230,452.960,209.320,471.800,219.400C490.640,229.480,471.800,242.920,471.800,253.000" fill="none" stroke="#333333" stroke-width="2" marker-end="url(#arrow-0)"   stroke-linecap="round" stroke-linejoin="round" /><rect x="429.20" y="205.40" width="22.40" height="28.00" rx="0" ry="0" fill="#E8E8E8" fill-opacity="0.5" stroke="none"/><text x="440.40" y="223.40" text-anchor="middle" font-family="'trebuchet ms', verdana, arial, sans-serif" font-size="16" fill="#333333"><tspan x="440.40" dy="0.00">No</tspan></text><path d="M 495.800,253.000C479.600,253.000,458.000,272.976,441.800,253.000C425.600,233.024,436.556,206.390,441.800,186.415C447.044,166.439,454.036,186.415,459.280,186.415" fill="none" stroke="#333333" stroke-width="2" marker-end="url(#arrow-0)"   stroke-linecap="round" stroke-linejoin="round" /><path d="M 334.200,307.000C334.200,314.455,334.200,324.395,334.200,331.850C334.200,339.305,334.200,324.395,334.200,331.850C334.200,339.305,334.200,349.245,334.200,356.700" fill="none" stroke="#333333" stroke-width="2" marker-end="url(#arrow-0)"   stroke-linecap="round" stroke-linejoin="round" /><path d="M 114.000,606.000C114.000,597.900,44.400,587.100,114.000,579.000C183.600,570.900,276.400,587.100,346.000,579.000C415.600,570.900,346.000,560.100,346.000,552.000" fill="none" stroke="#333333" stroke-width="2" marker-end="url(#arrow-0)"   stroke-linecap="round" stroke-linejoin="round" /><path d="M 346.000,606.000C346.000,597.900,277.600,587.100,346.000,579.000C414.400,570.900,505.600,587.100,574.000,579.000C642.400,570.900,574.000,560.100,574.000,552.000" fill="none" stroke="#333333" stroke-width="2" marker-end="url(#arrow-0)"   stroke-linecap="round" stroke-linejoin="round" /><path d="M 334.200,438.300C334.200,446.955,331.800,458.495,334.200,467.150C336.600,475.805,339.800,458.495,342.200,467.150C344.600,475.805,342.200,487.345,342.200,496.000" fill="none" stroke="#333333" stroke-width="2" marker-end="url(#arrow-0)"   stroke-linecap="round" stroke-linejoin="round" /><rect x="361.00" y="24.00" width="96.00" height="54.00" rx="0" ry="0" fill="#90EE90" stroke="#9370DB" stroke-width="1" stroke-linejoin="round" stroke-linecap="round"/><text x="409.00" y="55.00" text-anchor="middle" font-family="'trebuchet ms', verdana, arial, sans-serif" font-size="16" fill="#333333"><tspan x="409.00" dy="0.00">Start</tspan></text><polygon points="409.00,127.70 521.56,165.50 409.00,203.30 296.44,165.50" fill="#FFD700" stroke="#9370DB" stroke-width="1" stroke-linejoin="round" stroke-linecap="round"/><text x="409.00" y="169.50" text-anchor="middle" font-family="'trebuchet ms', verdana, arial, sans-serif" font-size="16" fill="#333333"><tspan x="409.00" dy="0.00">Is it working?</tspan></text><rect x="282.60" y="253.00" width="103.20" height="54.00" rx="0" ry="0" fill="#ECECFF" stroke="#9370DB" stroke-width="1" stroke-linejoin="round" stroke-linecap="round"/><text x="334.20" y="284.00" text-anchor="middle" font-family="'trebuchet ms', verdana, arial, sans-serif" font-size="16" fill="#333333"><tspan x="334.20" dy="0.00">Great!</tspan></text><rect x="435.80" y="253.00" width="96.00" height="54.00" rx="0" ry="0" fill="#ECECFF" stroke="#9370DB" stroke-width="1" stroke-linejoin="round" stroke-linecap="round"/><text x="483.80" y="284.00" text-anchor="middle" font-family="'trebuchet ms', verdana, arial, sans-serif" font-size="16" fill="#333333"><tspan x="483.80" dy="0.00">Debug</tspan></text><circle cx="334.20" cy="397.50" r="40.80" fill="#FFB6C1" stroke="#9370DB" stroke-width="1" stroke-linejoin="round" stroke-linecap="round"/><circle cx="334.20" cy="397.50" r="36.80" fill="none" stroke="#9370DB" stroke-width="1" stroke-linejoin="round" stroke-linecap="round"/><text x="334.20" y="401.50" text-anchor="middle" font-family="'trebuchet ms', verdana, arial, sans-serif" font-size="16" fill="#333333"><tspan x="334.20" dy="0.00">End</tspan></text><rect x="48.00" y="552.00" width="132.00" height="54.00" rx="0" ry="0" fill="#ECECFF" stroke="#9370DB" stroke-width="1" stroke-linejoin="round" stroke-linecap="round"/><text x="114.00" y="583.00" text-anchor="middle" font-family="'trebuchet ms', verdana, arial, sans-serif" font-size="16" fill="#333333"><tspan x="114.00" dy="0.00">Unit Tests</tspan></text><rect x="254.80" y="552.00" width="182.40" height="54.00" rx="0" ry="0" fill="#ECECFF" stroke="#9370DB" stroke-width="1" stroke-linejoin="round" stroke-linecap="round"/><text x="346.00" y="583.00" text-anchor="middle" font-family="'trebuchet ms', verdana, arial, sans-serif" font-size="16" fill="#333333"><tspan x="346.00" dy="0.00">Integration Tests</tspan></text><rect x="511.60" y="552.00" width="124.80" height="54.00" rx="0" ry="0" fill="#ECECFF" stroke="#9370DB" stroke-width="1" stroke-linejoin="round" stroke-linecap="round"/><text x="574.00" y="583.00" text-anchor="middle" font-family="'trebuchet ms', verdana, arial, sans-serif" font-size="16" fill="#333333"><tspan x="574.00" dy="0.00">E2E Tests</tspan></text></svg>