<svg xmlns="http://www.w3.org/2000/svg" width="190.6423" height="916.9139" viewBox="0 0 190.6423 916.9139"><rect x="0" y="0" width="190.6423" height="916.9139" fill="#FFFFFF"/><defs><marker id="arrow-0" viewBox="0 0 10 10" refX="5" refY="5" markerUnits="userSpaceOnUse" markerWidth="8" markerHeight="8" orient="auto"><path d="M 0 0 L 10 5 L 0 10 z" fill="#2F3B4D" stroke="#2F3B4D" stroke-width="1" stroke-dasharray="1,0"/></marker><marker id="arrow-start-0" viewBox="0 0 10 10" refX="4.5" refY="5" markerUnits="userSpaceOnUse" markerWidth="8" markerHeight="8" orient="auto"><path d="M 0 5 L 10 10 L 10 0 z" fill="#2F3B4D" stroke="#2F3B4D" stroke-width="1" stroke-dasharray="1,0"/></marker></defs><rect x="8.00" y="587.22" width="158.28" height="321.69" rx="10" ry="10" fill="#FFFFDE" stroke="#AAAA33" stroke-width="1" /><text x="87.14" y="615.22" text-anchor="middle" font-family="'trebuchet ms', verdana, arial, sans-serif" font-size="16" fill="#333333"><tspan x="87.14" dy="0.00">LoopBlock</tspan></text><path d="M 95.182,62.000L 95.182,63.328C95.182,64.656,95.182,67.313,95.182,69.637C95.182,71.961,95.182,73.954,95.178,75.946C95.174,77.938,95.167,79.930,95.163,80.927C95.159,81.923,95.159,81.923,95.155,82.919C95.151,83.915,95.143,85.907,95.139,87.900C95.135,89.892,95.135,91.884,95.135,94.208C95.135,96.533,95.135,99.189,95.135,100.517L 95.135,101.845" fill="none" stroke="#2F3B4D" stroke-width="2"    stroke-linecap="round" stroke-linejoin="round" /><path d="M 95.135,202.479L 95.135,203.642C95.135,204.804,95.135,207.128,95.135,209.452C95.135,211.777,95.135,214.101,95.133,216.425C95.131,218.750,95.128,221.074,95.120,226.885C95.111,232.697,95.098,241.996,95.091,247.150C95.083,252.305,95.082,253.315,95.057,254.324C95.033,255.334,94.985,256.343,94.961,256.847C94.937,257.352,94.937,257.352,94.913,257.856C94.889,258.361,94.841,259.370,94.817,260.380C94.793,261.389,94.793,262.399,94.793,264.724C94.793,267.048,94.793,270.686,94.793,272.506L 94.793,274.325" fill="none" stroke="#2F3B4D" stroke-width="2"    stroke-linecap="round" stroke-linejoin="round" /><rect x="79.10" y="240.12" width="31.97" height="28.40" rx="2" ry="2" fill="rgba(248,250,252, 0.92)" fill-opacity="0.95" stroke="#7B88A8" stroke-opacity="0.45" stroke-width="0.8"/><text x="95.08" y="258.32" text-anchor="middle" font-family="'trebuchet ms', verdana, arial, sans-serif" font-size="16" fill="#333333"><tspan x="95.08" dy="0.00">yes</tspan></text><path d="M 94.793,328.325L 94.793,329.653C94.793,330.981,94.793,333.638,94.793,335.962C94.793,338.286,94.793,340.279,94.786,342.271C94.778,344.263,94.764,346.255,94.757,347.252C94.750,348.248,94.750,348.248,94.742,349.244C94.735,350.240,94.721,352.232,94.713,354.225C94.706,356.217,94.706,358.209,94.706,360.533C94.706,362.858,94.706,365.514,94.706,366.842L 94.706,368.170" fill="none" stroke="#2F3B4D" stroke-width="2"    stroke-linecap="round" stroke-linejoin="round" /><path d="M 110.706,384.170L 110.706,383.008C110.706,381.846,110.706,379.522,110.706,377.197C110.706,374.873,110.706,372.549,111.868,371.387C113.031,370.224,115.355,370.224,125.344,370.224C135.334,370.224,152.988,370.224,163.815,370.224C174.642,370.224,178.642,370.224,179.058,369.004C179.474,367.783,176.306,365.341,152.828,347.245C129.350,329.149,85.562,295.400,62.084,277.304C38.606,259.209,35.438,256.767,35.737,254.871C36.035,252.975,39.801,251.626,62.980,243.317C86.159,235.009,128.753,219.742,151.932,211.433C175.111,203.125,178.877,201.775,178.760,201.100C178.642,200.425,174.642,200.425,163.887,200.425C153.131,200.425,135.619,200.425,125.701,200.425C115.783,200.425,113.459,200.425,112.297,199.263C111.135,198.101,111.135,195.777,111.135,193.452C111.135,191.128,111.135,188.804,111.135,187.642L 111.135,186.479" fill="none" stroke="#2F3B4D" stroke-width="2"    stroke-linecap="round" stroke-linejoin="round" /><rect x="16.29" y="240.12" width="31.97" height="28.40" rx="2" ry="2" fill="rgba(248,250,252, 0.92)" fill-opacity="0.95" stroke="#7B88A8" stroke-opacity="0.45" stroke-width="0.8"/><text x="32.27" y="258.32" text-anchor="middle" font-family="'trebuchet ms', verdana, arial, sans-serif" font-size="16" fill="#333333"><tspan x="32.27" dy="0.00">yes</tspan></text><path d="M 94.706,461.532L 94.706,462.694C94.706,463.856,94.706,466.181,94.706,468.505C94.706,470.829,94.706,473.154,94.704,475.478C94.702,477.802,94.697,480.127,94.685,485.939C94.673,491.751,94.654,501.051,94.644,506.205C94.634,511.359,94.632,512.368,94.625,513.378C94.619,514.387,94.608,515.396,94.603,515.900C94.597,516.405,94.597,516.405,94.592,516.909C94.586,517.414,94.576,518.423,94.570,519.432C94.565,520.441,94.565,521.450,94.565,523.774C94.565,526.098,94.565,529.738,94.565,531.558L 94.565,533.378" fill="none" stroke="#2F3B4D" stroke-width="2"    stroke-linecap="round" stroke-linejoin="round" /><rect x="82.47" y="499.18" width="24.31" height="28.40" rx="2" ry="2" fill="rgba(248,250,252, 0.92)" fill-opacity="0.95" stroke="#7B88A8" stroke-opacity="0.45" stroke-width="0.8"/><text x="94.63" y="517.38" text-anchor="middle" font-family="'trebuchet ms', verdana, arial, sans-serif" font-size="16" fill="#333333"><tspan x="94.63" dy="0.00">no</tspan></text><path d="M 87.190,681.223L 87.190,682.551C87.190,683.879,87.190,686.536,87.190,688.860C87.190,691.184,87.190,693.177,87.187,695.169C87.184,697.161,87.178,699.153,87.175,700.150C87.172,701.146,87.172,701.146,87.170,702.142C87.167,703.138,87.161,705.130,87.158,707.122C87.155,709.115,87.155,711.107,87.155,713.431C87.155,715.756,87.155,718.412,87.155,719.740L 87.155,721.068" fill="none" stroke="#2F3B4D" stroke-width="2"    stroke-linecap="round" stroke-linejoin="round" /><path d="M 87.155,775.068L 87.155,776.397C87.155,777.725,87.155,780.381,87.155,782.706C87.155,785.030,87.155,787.022,87.154,789.014C87.152,791.007,87.149,792.999,87.148,793.995C87.146,794.991,87.146,794.991,87.145,795.987C87.144,796.983,87.141,798.976,87.139,800.968C87.138,802.960,87.138,804.952,87.138,807.277C87.138,809.601,87.138,812.258,87.138,813.586L 87.138,814.914" fill="none" stroke="#2F3B4D" stroke-width="2"    stroke-linecap="round" stroke-linejoin="round" /><path d="M 103.138,814.914L 103.138,813.752C103.138,812.590,103.138,810.265,103.138,807.941C103.138,805.617,103.138,803.292,104.300,802.130C105.462,800.968,107.786,800.968,113.760,800.968C119.733,800.968,129.356,800.968,136.167,800.968C142.978,800.968,146.978,800.968,148.978,798.968C150.978,796.968,150.978,792.968,150.978,777.335C150.978,761.702,150.978,734.435,150.978,718.802C150.978,703.169,150.978,699.169,148.978,697.169C146.978,695.169,142.978,695.169,136.176,695.169C129.373,695.169,119.768,695.169,113.803,695.169C107.838,695.169,105.514,695.169,104.352,694.007C103.190,692.845,103.190,690.520,103.190,688.196C103.190,685.872,103.190,683.547,103.190,682.385L 103.190,681.223" fill="none" stroke="#2F3B4D" stroke-width="2"    stroke-linecap="round" stroke-linejoin="round" /><path d="M 94.565,587.378L 94.565,588.540C94.565,589.702,94.565,592.026,94.565,594.350C94.565,596.675,94.565,598.999,93.955,601.150C93.344,603.302,92.124,605.280,91.505,606.283C90.886,607.286,90.869,607.314,90.250,608.318C89.631,609.321,88.410,611.299,87.800,613.450C87.190,615.601,87.190,617.926,87.190,620.250C87.190,622.574,87.190,624.899,87.190,626.061L 87.190,627.223" fill="none" stroke="#2F3B4D" stroke-width="2"    stroke-linecap="round" stroke-linejoin="round" /><rect x="46.04" y="8.00" width="98.28" height="54.00" rx="3" ry="3" fill="#ECECFF" stroke="#7B88A8" stroke-width="1" stroke-linejoin="round" stroke-linecap="round"/><text x="95.18" y="39.00" text-anchor="middle" font-family="'trebuchet ms', verdana, arial, sans-serif" font-size="16" fill="#333333"><tspan x="95.18" dy="0.00">Start</tspan></text><polygon points="95.13,101.85 145.45,152.16 95.13,202.48 44.82,152.16" fill="#ECECFF" stroke="#7B88A8" stroke-width="1" stroke-linejoin="round" stroke-linecap="round"/><text x="95.13" y="156.16" text-anchor="middle" font-family="'trebuchet ms', verdana, arial, sans-serif" font-size="16" fill="#333333"><tspan x="95.13" dy="0.00">Decide</tspan></text><rect x="38.00" y="274.32" width="113.59" height="54.00" rx="3" ry="3" fill="#ECECFF" stroke="#7B88A8" stroke-width="1" stroke-linejoin="round" stroke-linecap="round"/><text x="94.79" y="305.32" text-anchor="middle" font-family="'trebuchet ms', verdana, arial, sans-serif" font-size="16" fill="#333333"><tspan x="94.79" dy="0.00">Do work</tspan></text><polygon points="94.71,368.17 141.39,414.85 94.71,461.53 48.03,414.85" fill="#ECECFF" stroke="#7B88A8" stroke-width="1" stroke-linejoin="round" stroke-linecap="round"/><text x="94.71" y="418.85" text-anchor="middle" font-family="'trebuchet ms', verdana, arial, sans-serif" font-size="16" fill="#333333"><tspan x="94.71" dy="0.00">More?</tspan></text><rect x="52.89" y="533.38" width="83.34" height="54.00" rx="3" ry="3" fill="#ECECFF" stroke="#7B88A8" stroke-width="1" stroke-linejoin="round" stroke-linecap="round"/><text x="94.56" y="564.38" text-anchor="middle" font-family="'trebuchet ms', verdana, arial, sans-serif" font-size="16" fill="#333333"><tspan x="94.56" dy="0.00">End</tspan></text><rect x="44.79" y="627.22" width="84.80" height="54.00" rx="3" ry="3" fill="#ECECFF" stroke="#7B88A8" stroke-width="1" stroke-linejoin="round" stroke-linecap="round"/><text x="87.19" y="658.22" text-anchor="middle" font-family="'trebuchet ms', verdana, arial, sans-serif" font-size="16" fill="#333333"><tspan x="87.19" dy="0.00">One</tspan></text><rect x="44.76" y="721.07" width="84.78" height="54.00" rx="3" ry="3" fill="#ECECFF" stroke="#7B88A8" stroke-width="1" stroke-linejoin="round" stroke-linecap="round"/><text x="87.16" y="752.07" text-anchor="middle" font-family="'trebuchet ms', verdana, arial, sans-serif" font-size="16" fill="#333333"><tspan x="87.16" dy="0.00">Two</tspan></text><rect x="38.00" y="814.91" width="98.28" height="54.00" rx="3" ry="3" fill="#ECECFF" stroke="#7B88A8" stroke-width="1" stroke-linejoin="round" stroke-linecap="round"/><text x="87.14" y="845.91" text-anchor="middle" font-family="'trebuchet ms', verdana, arial, sans-serif" font-size="16" fill="#333333"><tspan x="87.14" dy="0.00">Three</tspan></text><g transform="translate(95.13 101.85) rotate(90.00)"><polygon points="0,0 -10.40,6.24 -10.40,-6.24" fill="#2F3B4D" stroke="#2F3B4D" stroke-width="2" stroke-linejoin="round" stroke-linecap="round"/></g><g transform="translate(94.79 274.32) rotate(90.00)"><polygon points="0,0 -10.40,6.24 -10.40,-6.24" fill="#2F3B4D" stroke="#2F3B4D" stroke-width="2" stroke-linejoin="round" stroke-linecap="round"/></g><g transform="translate(94.71 368.17) rotate(90.00)"><polygon points="0,0 -10.40,6.24 -10.40,-6.24" fill="#2F3B4D" stroke="#2F3B4D" stroke-width="2" stroke-linejoin="round" stroke-linecap="round"/></g><g transform="translate(111.13 186.48) rotate(-90.00)"><polygon points="0,0 -10.40,6.24 -10.40,-6.24" fill="#2F3B4D" stroke="#2F3B4D" stroke-width="2" stroke-linejoin="round" stroke-linecap="round"/></g><g transform="translate(94.56 533.38) rotate(90.00)"><polygon points="0,0 -10.40,6.24 -10.40,-6.24" fill="#2F3B4D" stroke="#2F3B4D" stroke-width="2" stroke-linejoin="round" stroke-linecap="round"/></g><g transform="translate(87.16 721.07) rotate(90.00)"><polygon points="0,0 -10.40,6.24 -10.40,-6.24" fill="#2F3B4D" stroke="#2F3B4D" stroke-width="2" stroke-linejoin="round" stroke-linecap="round"/></g><g transform="translate(87.14 814.91) rotate(90.00)"><polygon points="0,0 -10.40,6.24 -10.40,-6.24" fill="#2F3B4D" stroke="#2F3B4D" stroke-width="2" stroke-linejoin="round" stroke-linecap="round"/></g><g transform="translate(103.19 681.22) rotate(-90.00)"><polygon points="0,0 -10.40,6.24 -10.40,-6.24" fill="#2F3B4D" stroke="#2F3B4D" stroke-width="2" stroke-linejoin="round" stroke-linecap="round"/></g><g transform="translate(87.19 627.22) rotate(90.00)"><polygon points="0,0 -10.40,6.24 -10.40,-6.24" fill="#2F3B4D" stroke="#2F3B4D" stroke-width="2" stroke-linejoin="round" stroke-linecap="round"/></g></svg>