<svg xmlns="http://www.w3.org/2000/svg" width="1940.0219" height="278" viewBox="0 0 1940.0219 278"><rect x="0" y="0" width="1940.0219" height="278" fill="#FFFFFF"/><defs><marker id="arrow-0" viewBox="0 0 10 10" refX="5" refY="5" markerUnits="userSpaceOnUse" markerWidth="8" markerHeight="8" orient="auto"><path d="M 0 0 L 10 5 L 0 10 z" fill="#2F3B4D" stroke="#2F3B4D" stroke-width="1" stroke-dasharray="1,0"/></marker><marker id="arrow-start-0" viewBox="0 0 10 10" refX="4.5" refY="5" markerUnits="userSpaceOnUse" markerWidth="8" markerHeight="8" orient="auto"><path d="M 0 5 L 10 10 L 10 0 z" fill="#2F3B4D" stroke="#2F3B4D" stroke-width="1" stroke-dasharray="1,0"/></marker></defs><path d="M 152.206,138.639L 153.872,138.639C155.539,138.639,158.872,138.639,161.789,138.639C164.706,138.639,167.206,138.639,169.706,138.653C172.206,138.667,174.706,138.696,175.956,138.710C177.206,138.724,177.206,138.724,178.456,138.738C179.706,138.753,182.206,138.781,184.706,138.795C187.206,138.809,189.706,138.809,192.623,138.809C195.540,138.809,198.873,138.809,200.539,138.809L 202.206,138.809" fill="none" stroke="#2F3B4D" stroke-width="2"    stroke-linecap="round" stroke-linejoin="round" /><path d="M 298.474,90.809L 299.932,90.810C301.390,90.809,304.307,90.809,307.224,90.810C310.140,90.809,313.057,90.809,315.748,90.030C318.439,89.251,320.905,87.693,330.172,81.838C339.439,75.982,355.508,65.828,364.775,59.972C374.042,54.116,376.508,52.558,379.199,51.779C381.890,51.000,384.807,51.000,387.724,51.000C390.640,51.000,393.557,51.000,395.015,51.000L 396.474,51.000" fill="none" stroke="#2F3B4D" stroke-width="2"    stroke-linecap="round" stroke-linejoin="round" /><path d="M 346.474,138.809L 348.140,138.809C349.807,138.809,353.140,138.809,356.057,138.809C358.973,138.809,361.474,138.809,363.974,138.825C366.474,138.841,368.974,138.873,370.224,138.889C371.474,138.905,371.474,138.905,372.724,138.921C373.974,138.937,376.474,138.968,378.974,138.984C381.474,139.000,383.974,139.000,386.891,139.000C389.807,139.000,393.141,139.000,394.807,139.000L 396.474,139.000" fill="none" stroke="#2F3B4D" stroke-width="2"    stroke-linecap="round" stroke-linejoin="round" /><path d="M 298.474,186.809L 299.932,186.809C301.390,186.809,304.307,186.809,307.224,186.809C310.140,186.809,313.057,186.809,315.745,187.594C318.433,188.378,320.892,189.947,330.162,195.861C339.433,201.775,355.515,212.035,364.785,217.949C374.056,223.863,376.515,225.431,379.203,226.216C381.890,227.000,384.807,227.000,387.724,227.000C390.640,227.000,393.557,227.000,395.015,227.000L 396.474,227.000" fill="none" stroke="#2F3B4D" stroke-width="2"    stroke-linecap="round" stroke-linejoin="round" /><path d="M 487.094,51.000L 488.552,51.000C490.011,51.000,492.927,51.000,495.844,51.000C498.761,51.000,501.677,51.000,504.384,51.755C507.090,52.509,509.586,54.019,523.826,62.631C538.067,71.244,564.052,86.960,578.293,95.572C592.533,104.185,595.029,105.694,597.735,106.449C600.441,107.203,603.358,107.203,606.274,107.203C609.191,107.203,612.108,107.203,613.566,107.203L 615.025,107.203" fill="none" stroke="#2F3B4D" stroke-width="2"    stroke-linecap="round" stroke-linejoin="round" /><path d="M 533.025,139.000L 534.691,139.000C536.358,139.000,539.691,139.000,542.607,139.000C545.524,139.000,548.024,139.000,550.524,139.017C553.025,139.034,555.525,139.068,556.774,139.085C558.025,139.102,558.025,139.102,559.274,139.119C560.525,139.136,563.025,139.169,565.525,139.186C568.025,139.203,570.525,139.203,573.442,139.203C576.358,139.203,579.691,139.203,581.358,139.203L 583.025,139.203" fill="none" stroke="#2F3B4D" stroke-width="2"    stroke-linecap="round" stroke-linejoin="round" /><path d="M 494.749,227.000L 496.207,227.000C497.666,227.000,500.582,227.000,503.499,227.000C506.416,227.000,509.332,227.000,512.011,226.202C514.690,225.403,517.130,223.806,530.123,215.305C543.115,206.804,566.659,191.399,579.651,182.898C592.643,174.397,595.084,172.800,597.763,172.002C600.441,171.203,603.358,171.203,606.274,171.203C609.191,171.203,612.108,171.203,613.566,171.203L 615.025,171.203" fill="none" stroke="#2F3B4D" stroke-width="2"    stroke-linecap="round" stroke-linejoin="round" /><path d="M 689.475,155.203L 690.934,155.203C692.392,155.203,695.309,155.203,698.226,155.203C701.142,155.203,704.059,155.203,706.931,154.848C709.804,154.492,712.633,153.781,721.546,151.539C730.459,149.297,745.457,145.525,754.370,143.284C763.284,141.042,766.112,140.331,768.985,139.975C771.857,139.619,774.774,139.619,777.691,139.619C780.607,139.619,783.524,139.619,784.982,139.619L 786.441,139.619" fill="none" stroke="#2F3B4D" stroke-width="2"    stroke-linecap="round" stroke-linejoin="round" /><rect x="750.98" y="125.21" width="31.97" height="28.40" rx="2" ry="2" fill="rgba(248,250,252, 0.92)" fill-opacity="0.95" stroke="#7B88A8" stroke-opacity="0.45" stroke-width="0.8"/><text x="766.96" y="143.41" text-anchor="middle" font-family="'trebuchet ms', verdana, arial, sans-serif" font-size="16" fill="#333333"><tspan x="766.96" dy="0.00">Yes</tspan></text><path d="M 689.475,123.203L 690.934,123.203C692.392,123.203,695.309,123.203,698.226,123.203C701.142,123.203,704.059,123.203,705.517,121.745C706.975,120.287,706.975,117.370,706.976,103.664C706.975,89.958,706.975,65.463,706.976,51.216C706.975,36.968,706.975,32.968,708.971,31.109C710.966,29.250,714.956,29.532,800.003,35.539C885.050,41.547,1051.154,53.280,1136.202,59.288C1221.249,65.295,1225.239,65.577,1229.229,65.572C1233.218,65.566,1237.208,65.274,1319.015,59.272C1400.822,53.269,1560.448,41.558,1642.255,35.556C1724.062,29.554,1728.051,29.261,1730.046,31.115C1732.041,32.968,1732.041,36.968,1732.041,49.804C1732.041,62.640,1732.041,84.311,1732.041,96.606C1732.041,108.900,1732.041,111.816,1733.499,113.275C1734.957,114.733,1737.874,114.733,1740.791,114.733C1743.707,114.733,1746.624,114.733,1748.082,114.733L 1749.541,114.733" fill="none" stroke="#2F3B4D" stroke-width="2"    stroke-linecap="round" stroke-linejoin="round" /><rect x="1216.34" y="51.66" width="25.77" height="28.40" rx="2" ry="2" fill="rgba(248,250,252, 0.92)" fill-opacity="0.95" stroke="#7B88A8" stroke-opacity="0.45" stroke-width="0.8"/><text x="1229.23" y="69.86" text-anchor="middle" font-family="'trebuchet ms', verdana, arial, sans-serif" font-size="16" fill="#333333"><tspan x="1229.23" dy="0.00">No</tspan></text><path d="M 976.577,139.619L 978.244,139.619C979.910,139.619,983.243,139.619,986.160,139.619C989.077,139.619,991.577,139.619,994.077,139.636C996.577,139.652,999.077,139.685,1000.327,139.702C1001.577,139.718,1001.577,139.718,1002.827,139.735C1004.077,139.751,1006.577,139.784,1009.077,139.801C1011.577,139.817,1014.077,139.817,1016.994,139.817C1019.911,139.817,1023.244,139.817,1024.911,139.817L 1026.577,139.817" fill="none" stroke="#2F3B4D" stroke-width="2"    stroke-linecap="round" stroke-linejoin="round" /><path d="M 1154.845,155.817L 1156.303,155.817C1157.762,155.817,1160.678,155.817,1163.595,155.817C1166.512,155.817,1169.428,155.817,1172.300,155.457C1175.171,155.097,1177.998,154.376,1186.912,152.104C1195.826,149.832,1210.829,146.008,1219.743,143.735C1228.658,141.463,1231.484,140.743,1234.355,140.382C1237.227,140.022,1240.144,140.022,1243.060,140.022C1245.977,140.022,1248.894,140.022,1250.352,140.022L 1251.810,140.022" fill="none" stroke="#2F3B4D" stroke-width="2"    stroke-linecap="round" stroke-linejoin="round" /><rect x="1216.34" y="125.80" width="31.97" height="28.40" rx="2" ry="2" fill="rgba(248,250,252, 0.92)" fill-opacity="0.95" stroke="#7B88A8" stroke-opacity="0.45" stroke-width="0.8"/><text x="1232.33" y="144.00" text-anchor="middle" font-family="'trebuchet ms', verdana, arial, sans-serif" font-size="16" fill="#333333"><tspan x="1232.33" dy="0.00">Yes</tspan></text><path d="M 1154.845,123.817L 1156.303,123.817C1157.762,123.817,1160.678,123.817,1163.595,123.817C1166.512,123.817,1169.428,123.817,1170.887,125.275C1172.345,126.734,1172.345,129.650,1172.345,138.227C1172.345,146.803,1172.345,161.039,1172.345,170.157C1172.345,179.275,1172.345,183.275,1174.288,184.800C1176.231,186.325,1180.116,185.375,1236.665,171.550C1293.214,157.725,1402.427,131.024,1458.976,117.199C1515.525,103.374,1519.410,102.424,1523.203,102.709C1526.995,102.995,1530.695,104.515,1563.636,118.055C1596.577,131.595,1658.759,157.154,1691.700,170.694C1724.641,184.234,1728.341,185.754,1730.191,184.515C1732.041,183.275,1732.041,179.275,1732.041,171.310C1732.041,163.344,1732.041,151.414,1732.041,143.990C1732.041,136.566,1732.041,133.650,1733.499,132.191C1734.957,130.733,1737.874,130.733,1740.791,130.733C1743.707,130.733,1746.624,130.733,1748.082,130.733L 1749.541,130.733" fill="none" stroke="#2F3B4D" stroke-width="2"    stroke-linecap="round" stroke-linejoin="round" /><rect x="1510.41" y="87.27" width="25.77" height="28.40" rx="2" ry="2" fill="rgba(248,250,252, 0.92)" fill-opacity="0.95" stroke="#7B88A8" stroke-opacity="0.45" stroke-width="0.8"/><text x="1523.30" y="105.47" text-anchor="middle" font-family="'trebuchet ms', verdana, arial, sans-serif" font-size="16" fill="#333333"><tspan x="1523.30" dy="0.00">No</tspan></text><path d="M 1464.912,140.022L 1466.370,140.022C1467.828,140.022,1470.745,140.022,1473.662,140.022C1476.578,140.022,1479.495,140.022,1482.184,139.240C1484.873,138.457,1487.334,136.892,1492.731,133.460C1498.129,130.027,1506.463,124.728,1511.860,121.296C1517.257,117.863,1519.718,116.298,1522.407,115.516C1525.096,114.733,1528.013,114.733,1530.930,114.733C1533.846,114.733,1536.763,114.733,1538.221,114.733L 1539.680,114.733" fill="none" stroke="#2F3B4D" stroke-width="2"    stroke-linecap="round" stroke-linejoin="round" /><path d="M 1653.265,114.733 L 1749.541,114.733" fill="none" stroke="#2F3B4D" stroke-width="2"    stroke-linecap="round" stroke-linejoin="round" /><rect x="1698.77" y="100.53" width="47.28" height="28.40" rx="2" ry="2" fill="rgba(248,250,252, 0.92)" fill-opacity="0.95" stroke="#7B88A8" stroke-opacity="0.45" stroke-width="0.8"/><text x="1722.40" y="118.73" text-anchor="middle" font-family="'trebuchet ms', verdana, arial, sans-serif" font-size="16" fill="#333333"><tspan x="1722.40" dy="0.00">Alert</tspan></text><rect x="8.00" y="111.64" width="144.21" height="54.00" rx="3" ry="3" fill="#ECECFF" stroke="#7B88A8" stroke-width="1" stroke-linejoin="round" stroke-linecap="round"/><text x="80.10" y="142.64" text-anchor="middle" font-family="'trebuchet ms', verdana, arial, sans-serif" font-size="16" fill="#333333"><tspan x="80.10" dy="0.00">Push to Git</tspan></text><polygon points="274.34,66.68 346.47,138.81 274.34,210.94 202.21,138.81" fill="#ECECFF" stroke="#7B88A8" stroke-width="1" stroke-linejoin="round" stroke-linecap="round"/><text x="274.34" y="142.81" text-anchor="middle" font-family="'trebuchet ms', verdana, arial, sans-serif" font-size="16" fill="#333333"><tspan x="274.34" dy="0.00">CI Triggered</tspan></text><rect x="396.47" y="8.00" width="90.62" height="54.00" rx="3" ry="3" fill="#ECECFF" stroke="#7B88A8" stroke-width="1" stroke-linejoin="round" stroke-linecap="round"/><text x="441.78" y="39.00" text-anchor="middle" font-family="'trebuchet ms', verdana, arial, sans-serif" font-size="16" fill="#333333"><tspan x="441.78" dy="0.00">Lint</tspan></text><rect x="396.47" y="112.00" width="136.55" height="54.00" rx="3" ry="3" fill="#ECECFF" stroke="#7B88A8" stroke-width="1" stroke-linejoin="round" stroke-linecap="round"/><text x="464.75" y="143.00" text-anchor="middle" font-family="'trebuchet ms', verdana, arial, sans-serif" font-size="16" fill="#333333"><tspan x="464.75" dy="0.00">Unit Tests</tspan></text><rect x="396.47" y="216.00" width="98.28" height="54.00" rx="3" ry="3" fill="#ECECFF" stroke="#7B88A8" stroke-width="1" stroke-linejoin="round" stroke-linecap="round"/><text x="445.61" y="247.00" text-anchor="middle" font-family="'trebuchet ms', verdana, arial, sans-serif" font-size="16" fill="#333333"><tspan x="445.61" dy="0.00">Build</tspan></text><polygon points="644.25,77.98 705.48,139.20 644.25,200.43 583.02,139.20" fill="#ECECFF" stroke="#7B88A8" stroke-width="1" stroke-linejoin="round" stroke-linecap="round"/><text x="644.25" y="143.20" text-anchor="middle" font-family="'trebuchet ms', verdana, arial, sans-serif" font-size="16" fill="#333333"><tspan x="644.25" dy="0.00">All Pass?</tspan></text><rect x="786.44" y="112.62" width="190.14" height="54.00" rx="3" ry="3" fill="#ECECFF" stroke="#7B88A8" stroke-width="1" stroke-linejoin="round" stroke-linecap="round"/><text x="881.51" y="143.62" text-anchor="middle" font-family="'trebuchet ms', verdana, arial, sans-serif" font-size="16" fill="#333333"><tspan x="881.51" dy="0.00">Deploy to Staging</tspan></text><rect x="1749.54" y="87.73" width="182.48" height="54.00" rx="3" ry="3" fill="#ECECFF" stroke="#7B88A8" stroke-width="1" stroke-linejoin="round" stroke-linecap="round"/><text x="1840.78" y="118.73" text-anchor="middle" font-family="'trebuchet ms', verdana, arial, sans-serif" font-size="16" fill="#333333"><tspan x="1840.78" dy="0.00">Notify Developer</tspan></text><polygon points="1098.71,67.68 1170.84,139.82 1098.71,211.95 1026.58,139.82" fill="#ECECFF" stroke="#7B88A8" stroke-width="1" stroke-linejoin="round" stroke-linecap="round"/><text x="1098.71" y="143.82" text-anchor="middle" font-family="'trebuchet ms', verdana, arial, sans-serif" font-size="16" fill="#333333"><tspan x="1098.71" dy="0.00">QA Approved?</tspan></text><rect x="1251.81" y="113.02" width="213.10" height="54.00" rx="3" ry="3" fill="#ECECFF" stroke="#7B88A8" stroke-width="1" stroke-linejoin="round" stroke-linecap="round"/><text x="1358.36" y="144.02" text-anchor="middle" font-family="'trebuchet ms', verdana, arial, sans-serif" font-size="16" fill="#333333"><tspan x="1358.36" dy="0.00">Deploy to Production</tspan></text><rect x="1539.68" y="87.73" width="113.59" height="54.00" rx="3" ry="3" fill="#ECECFF" stroke="#7B88A8" stroke-width="1" stroke-linejoin="round" stroke-linecap="round"/><text x="1596.47" y="118.73" text-anchor="middle" font-family="'trebuchet ms', verdana, arial, sans-serif" font-size="16" fill="#333333"><tspan x="1596.47" dy="0.00">Monitor</tspan></text><g transform="translate(202.21 138.81) rotate(0.00)"><polygon points="0,0 -10.40,6.24 -10.40,-6.24" fill="#2F3B4D" stroke="#2F3B4D" stroke-width="2" stroke-linejoin="round" stroke-linecap="round"/></g><g transform="translate(396.47 51.00) rotate(0.00)"><polygon points="0,0 -10.40,6.24 -10.40,-6.24" fill="#2F3B4D" stroke="#2F3B4D" stroke-width="2" stroke-linejoin="round" stroke-linecap="round"/></g><g transform="translate(396.47 139.00) rotate(0.00)"><polygon points="0,0 -10.40,6.24 -10.40,-6.24" fill="#2F3B4D" stroke="#2F3B4D" stroke-width="2" stroke-linejoin="round" stroke-linecap="round"/></g><g transform="translate(396.47 227.00) rotate(0.00)"><polygon points="0,0 -10.40,6.24 -10.40,-6.24" fill="#2F3B4D" stroke="#2F3B4D" stroke-width="2" stroke-linejoin="round" stroke-linecap="round"/></g><g transform="translate(615.02 107.20) rotate(0.00)"><polygon points="0,0 -10.40,6.24 -10.40,-6.24" fill="#2F3B4D" stroke="#2F3B4D" stroke-width="2" stroke-linejoin="round" stroke-linecap="round"/></g><g transform="translate(583.02 139.20) rotate(0.00)"><polygon points="0,0 -10.40,6.24 -10.40,-6.24" fill="#2F3B4D" stroke="#2F3B4D" stroke-width="2" stroke-linejoin="round" stroke-linecap="round"/></g><g transform="translate(615.02 171.20) rotate(0.00)"><polygon points="0,0 -10.40,6.24 -10.40,-6.24" fill="#2F3B4D" stroke="#2F3B4D" stroke-width="2" stroke-linejoin="round" stroke-linecap="round"/></g><g transform="translate(786.44 139.62) rotate(0.00)"><polygon points="0,0 -10.40,6.24 -10.40,-6.24" fill="#2F3B4D" stroke="#2F3B4D" stroke-width="2" stroke-linejoin="round" stroke-linecap="round"/></g><g transform="translate(1749.54 114.73) rotate(0.00)"><polygon points="0,0 -10.40,6.24 -10.40,-6.24" fill="#2F3B4D" stroke="#2F3B4D" stroke-width="2" stroke-linejoin="round" stroke-linecap="round"/></g><g transform="translate(1026.58 139.82) rotate(0.00)"><polygon points="0,0 -10.40,6.24 -10.40,-6.24" fill="#2F3B4D" stroke="#2F3B4D" stroke-width="2" stroke-linejoin="round" stroke-linecap="round"/></g><g transform="translate(1251.81 140.02) rotate(0.00)"><polygon points="0,0 -10.40,6.24 -10.40,-6.24" fill="#2F3B4D" stroke="#2F3B4D" stroke-width="2" stroke-linejoin="round" stroke-linecap="round"/></g><g transform="translate(1749.54 130.73) rotate(0.00)"><polygon points="0,0 -10.40,6.24 -10.40,-6.24" fill="#2F3B4D" stroke="#2F3B4D" stroke-width="2" stroke-linejoin="round" stroke-linecap="round"/></g><g transform="translate(1539.68 114.73) rotate(0.00)"><polygon points="0,0 -10.40,6.24 -10.40,-6.24" fill="#2F3B4D" stroke="#2F3B4D" stroke-width="2" stroke-linejoin="round" stroke-linecap="round"/></g><g transform="translate(1749.54 114.73) rotate(0.00)"><polygon points="0,0 -10.40,6.24 -10.40,-6.24" fill="#2F3B4D" stroke="#2F3B4D" stroke-width="2" stroke-linejoin="round" stroke-linecap="round"/></g></svg>