<svg xmlns="http://www.w3.org/2000/svg" width="1940.0219" height="278" viewBox="0 0 1940.0219 278"><rect x="0" y="0" width="1940.0219" height="278" fill="#FFFFFF"/><defs><marker id="arrow-0" viewBox="0 0 10 10" refX="5" refY="5" markerUnits="userSpaceOnUse" markerWidth="8" markerHeight="8" orient="auto"><path d="M 0 0 L 10 5 L 0 10 z" fill="#2F3B4D" stroke="#2F3B4D" stroke-width="1" stroke-dasharray="1,0"/></marker><marker id="arrow-start-0" viewBox="0 0 10 10" refX="4.5" refY="5" markerUnits="userSpaceOnUse" markerWidth="8" markerHeight="8" orient="auto"><path d="M 0 5 L 10 10 L 10 0 z" fill="#2F3B4D" stroke="#2F3B4D" stroke-width="1" stroke-dasharray="1,0"/></marker></defs><path d="M 152.206,138.999 L 202.206,138.999" fill="none" stroke="#2F3B4D" stroke-width="2"    stroke-linecap="round" stroke-linejoin="round" /><path d="M 298.474,90.999L 299.932,90.999C301.390,90.999,304.307,90.999,307.224,90.999C310.140,90.999,313.057,90.999,315.747,90.218C318.436,89.436,320.898,87.873,330.167,81.988C339.436,76.103,355.511,65.896,364.780,60.012C374.049,54.127,376.511,52.563,379.201,51.782C381.890,51.000,384.807,51.000,387.724,51.000C390.640,51.000,393.557,51.000,395.015,51.000L 396.474,51.000" fill="none" stroke="#2F3B4D" stroke-width="2"    stroke-linecap="round" stroke-linejoin="round" /><path d="M 346.474,138.999 L 396.474,139.000" fill="none" stroke="#2F3B4D" stroke-width="2"    stroke-linecap="round" stroke-linejoin="round" /><path d="M 298.474,186.999L 299.932,186.999C301.390,186.999,304.307,186.999,307.224,186.999C310.140,186.999,313.057,186.999,315.747,187.781C318.436,188.563,320.898,190.126,330.167,196.011C339.436,201.896,355.511,212.103,364.780,217.988C374.049,223.873,376.511,225.437,379.201,226.218C381.890,227.000,384.807,227.000,387.724,227.000C390.640,227.000,393.557,227.000,395.015,227.000L 396.474,227.000" fill="none" stroke="#2F3B4D" stroke-width="2"    stroke-linecap="round" stroke-linejoin="round" /><path d="M 487.094,51.000L 488.552,51.000C490.011,51.000,492.927,51.000,495.844,51.000C498.761,51.000,501.677,51.000,504.385,51.753C507.092,52.505,509.590,54.011,523.830,62.591C538.069,71.172,564.050,86.828,578.289,95.409C592.528,103.990,595.026,105.495,597.734,106.248C600.441,107.000,603.358,107.000,606.274,107.000C609.191,107.000,612.108,107.000,613.566,107.000L 615.025,107.000" fill="none" stroke="#2F3B4D" stroke-width="2"    stroke-linecap="round" stroke-linejoin="round" /><path d="M 533.025,139.000 L 583.025,139.000" fill="none" stroke="#2F3B4D" stroke-width="2"    stroke-linecap="round" stroke-linejoin="round" /><path d="M 494.749,227.000L 496.207,227.000C497.666,227.000,500.582,227.000,503.499,227.000C506.416,227.000,509.332,227.000,512.010,226.200C514.687,225.399,517.125,223.798,530.119,215.265C543.112,206.732,566.661,191.268,579.655,182.735C592.649,174.202,595.087,172.601,597.764,171.801C600.441,171.000,603.358,171.000,606.274,171.000C609.191,171.000,612.108,171.000,613.566,171.000L 615.025,171.000" fill="none" stroke="#2F3B4D" stroke-width="2"    stroke-linecap="round" stroke-linejoin="round" /><path d="M 689.475,123.000L 690.934,123.000C692.392,123.000,695.309,123.000,698.226,123.000C701.142,123.000,704.059,123.000,706.965,122.826C709.871,122.652,712.767,122.304,721.028,121.311C729.289,120.317,742.916,118.679,751.465,117.651C760.014,116.623,763.486,116.206,765.387,117.738C767.289,119.270,767.619,122.751,767.812,124.780C768.004,126.810,768.059,127.387,768.224,129.128C768.389,130.868,768.665,133.772,770.261,135.224C771.857,136.676,774.774,136.676,777.691,136.676C780.607,136.676,783.524,136.676,784.982,136.676L 786.441,136.676" fill="none" stroke="#2F3B4D" stroke-width="2"    stroke-linecap="round" stroke-linejoin="round" /><rect x="750.98" y="101.59" width="31.97" height="28.40" rx="2" ry="2" fill="rgba(248,250,252, 0.92)" fill-opacity="0.95" stroke="#7B88A8" stroke-opacity="0.45" stroke-width="0.8"/><text x="766.96" y="119.79" text-anchor="middle" font-family="'trebuchet ms', verdana, arial, sans-serif" font-size="16" fill="#333333"><tspan x="766.96" dy="0.00">Yes</tspan></text><path d="M 689.475,155.000L 690.934,155.000C692.392,155.000,695.309,155.000,698.226,155.000C701.142,155.000,704.059,155.000,705.517,156.459C706.975,157.917,706.975,160.834,706.976,171.816C706.975,182.798,706.975,201.846,706.976,213.370C706.975,224.894,706.975,228.894,708.894,230.328C710.812,231.762,714.648,230.631,799.772,205.516C884.896,180.401,1051.308,131.302,1136.432,106.187C1221.556,81.072,1225.392,79.940,1229.223,79.960C1233.053,79.980,1236.878,81.152,1318.768,106.247C1400.657,131.342,1560.612,180.360,1642.502,205.455C1724.392,230.550,1728.216,231.722,1730.128,230.308C1732.041,228.894,1732.041,224.894,1732.041,209.335C1732.041,193.776,1732.041,166.657,1732.041,151.639C1732.041,136.622,1732.041,133.705,1733.499,132.247C1734.957,130.788,1737.874,130.788,1740.791,130.788C1743.707,130.788,1746.624,130.788,1748.082,130.788L 1749.541,130.788" fill="none" stroke="#2F3B4D" stroke-width="2"    stroke-linecap="round" stroke-linejoin="round" /><rect x="1216.34" y="64.61" width="25.77" height="28.40" rx="2" ry="2" fill="rgba(248,250,252, 0.92)" fill-opacity="0.95" stroke="#7B88A8" stroke-opacity="0.45" stroke-width="0.8"/><text x="1229.23" y="82.81" text-anchor="middle" font-family="'trebuchet ms', verdana, arial, sans-serif" font-size="16" fill="#333333"><tspan x="1229.23" dy="0.00">No</tspan></text><path d="M 976.577,136.676 L 1026.577,136.676" fill="none" stroke="#2F3B4D" stroke-width="2"    stroke-linecap="round" stroke-linejoin="round" /><path d="M 1154.845,120.676L 1156.303,120.676C1157.762,120.676,1160.678,120.676,1163.595,120.676C1166.512,120.676,1169.428,120.676,1172.172,121.364C1174.916,122.053,1177.487,123.430,1185.860,127.916C1194.233,132.401,1208.408,139.995,1217.120,144.662C1225.831,149.328,1229.079,151.068,1230.869,150.103C1232.658,149.138,1232.988,145.468,1233.188,143.251C1233.388,141.033,1233.457,140.268,1233.622,138.433C1233.787,136.598,1234.049,133.693,1235.638,132.241C1237.227,130.788,1240.144,130.788,1243.060,130.788C1245.977,130.788,1248.894,130.788,1250.352,130.788L 1251.810,130.788" fill="none" stroke="#2F3B4D" stroke-width="2"    stroke-linecap="round" stroke-linejoin="round" /><rect x="1216.34" y="138.61" width="31.97" height="28.40" rx="2" ry="2" fill="rgba(248,250,252, 0.92)" fill-opacity="0.95" stroke="#7B88A8" stroke-opacity="0.45" stroke-width="0.8"/><text x="1232.33" y="156.81" text-anchor="middle" font-family="'trebuchet ms', verdana, arial, sans-serif" font-size="16" fill="#333333"><tspan x="1232.33" dy="0.00">Yes</tspan></text><path d="M 1154.845,152.676L 1156.303,152.676C1157.762,152.676,1160.678,152.676,1163.595,152.676C1166.512,152.676,1169.428,152.676,1170.887,151.217C1172.345,149.759,1172.345,146.842,1172.345,133.352C1172.345,119.861,1172.345,95.797,1172.345,81.764C1172.345,67.732,1172.345,63.732,1174.320,62.047C1176.295,60.363,1180.245,60.994,1236.762,70.021C1293.278,79.048,1402.362,96.472,1458.879,105.499C1515.396,114.527,1519.346,115.158,1523.252,114.954C1527.159,114.751,1531.022,113.714,1563.881,104.890C1596.741,96.066,1658.596,79.455,1691.455,70.631C1724.314,61.807,1728.178,60.769,1730.109,62.251C1732.041,63.732,1732.041,67.732,1732.041,80.783C1732.041,93.834,1732.041,115.936,1732.041,128.446C1732.041,140.955,1732.041,143.872,1733.499,145.330C1734.957,146.788,1737.874,146.788,1740.791,146.788C1743.707,146.788,1746.624,146.788,1748.082,146.788L 1749.541,146.788" fill="none" stroke="#2F3B4D" stroke-width="2"    stroke-linecap="round" stroke-linejoin="round" /><rect x="1510.41" y="101.59" width="25.77" height="28.40" rx="2" ry="2" fill="rgba(248,250,252, 0.92)" fill-opacity="0.95" stroke="#7B88A8" stroke-opacity="0.45" stroke-width="0.8"/><text x="1523.30" y="119.79" text-anchor="middle" font-family="'trebuchet ms', verdana, arial, sans-serif" font-size="16" fill="#333333"><tspan x="1523.30" dy="0.00">No</tspan></text><path d="M 1464.912,130.788 L 1539.680,130.788" fill="none" stroke="#2F3B4D" stroke-width="2"    stroke-linecap="round" stroke-linejoin="round" /><path d="M 1653.265,130.788L 1654.724,130.788C1656.182,130.788,1659.099,130.788,1662.015,130.788C1664.932,130.788,1667.849,130.788,1670.707,130.382C1673.566,129.975,1676.367,129.161,1683.547,127.076C1690.726,124.990,1702.284,121.633,1709.490,119.540C1716.696,117.446,1719.549,116.617,1721.779,117.453C1724.009,118.288,1725.616,120.788,1726.433,122.062C1727.251,123.335,1727.281,123.381,1728.084,124.631C1728.887,125.881,1730.464,128.335,1732.711,129.562C1734.957,130.788,1737.874,130.788,1740.791,130.788C1743.707,130.788,1746.624,130.788,1748.082,130.788L 1749.541,130.788" fill="none" stroke="#2F3B4D" stroke-width="2"    stroke-linecap="round" stroke-linejoin="round" /><rect x="1698.77" y="101.59" width="47.28" height="28.40" rx="2" ry="2" fill="rgba(248,250,252, 0.92)" fill-opacity="0.95" stroke="#7B88A8" stroke-opacity="0.45" stroke-width="0.8"/><text x="1722.40" y="119.79" text-anchor="middle" font-family="'trebuchet ms', verdana, arial, sans-serif" font-size="16" fill="#333333"><tspan x="1722.40" dy="0.00">Alert</tspan></text><rect x="8.00" y="112.00" width="144.21" height="54.00" rx="3" ry="3" fill="#ECECFF" stroke="#7B88A8" stroke-width="1" stroke-linejoin="round" stroke-linecap="round"/><text x="80.10" y="143.00" text-anchor="middle" font-family="'trebuchet ms', verdana, arial, sans-serif" font-size="16" fill="#333333"><tspan x="80.10" dy="0.00">Push to Git</tspan></text><polygon points="274.34,66.87 346.47,139.00 274.34,211.13 202.21,139.00" fill="#ECECFF" stroke="#7B88A8" stroke-width="1" stroke-linejoin="round" stroke-linecap="round"/><text x="274.34" y="143.00" text-anchor="middle" font-family="'trebuchet ms', verdana, arial, sans-serif" font-size="16" fill="#333333"><tspan x="274.34" dy="0.00">CI Triggered</tspan></text><rect x="396.47" y="8.00" width="90.62" height="54.00" rx="3" ry="3" fill="#ECECFF" stroke="#7B88A8" stroke-width="1" stroke-linejoin="round" stroke-linecap="round"/><text x="441.78" y="39.00" text-anchor="middle" font-family="'trebuchet ms', verdana, arial, sans-serif" font-size="16" fill="#333333"><tspan x="441.78" dy="0.00">Lint</tspan></text><rect x="396.47" y="112.00" width="136.55" height="54.00" rx="3" ry="3" fill="#ECECFF" stroke="#7B88A8" stroke-width="1" stroke-linejoin="round" stroke-linecap="round"/><text x="464.75" y="143.00" text-anchor="middle" font-family="'trebuchet ms', verdana, arial, sans-serif" font-size="16" fill="#333333"><tspan x="464.75" dy="0.00">Unit Tests</tspan></text><rect x="396.47" y="216.00" width="98.28" height="54.00" rx="3" ry="3" fill="#ECECFF" stroke="#7B88A8" stroke-width="1" stroke-linejoin="round" stroke-linecap="round"/><text x="445.61" y="247.00" text-anchor="middle" font-family="'trebuchet ms', verdana, arial, sans-serif" font-size="16" fill="#333333"><tspan x="445.61" dy="0.00">Build</tspan></text><polygon points="644.25,77.77 705.48,139.00 644.25,200.23 583.02,139.00" fill="#ECECFF" stroke="#7B88A8" stroke-width="1" stroke-linejoin="round" stroke-linecap="round"/><text x="644.25" y="143.00" text-anchor="middle" font-family="'trebuchet ms', verdana, arial, sans-serif" font-size="16" fill="#333333"><tspan x="644.25" dy="0.00">All Pass?</tspan></text><rect x="786.44" y="109.68" width="190.14" height="54.00" rx="3" ry="3" fill="#ECECFF" stroke="#7B88A8" stroke-width="1" stroke-linejoin="round" stroke-linecap="round"/><text x="881.51" y="140.68" text-anchor="middle" font-family="'trebuchet ms', verdana, arial, sans-serif" font-size="16" fill="#333333"><tspan x="881.51" dy="0.00">Deploy to Staging</tspan></text><rect x="1749.54" y="103.79" width="182.48" height="54.00" rx="3" ry="3" fill="#ECECFF" stroke="#7B88A8" stroke-width="1" stroke-linejoin="round" stroke-linecap="round"/><text x="1840.78" y="134.79" text-anchor="middle" font-family="'trebuchet ms', verdana, arial, sans-serif" font-size="16" fill="#333333"><tspan x="1840.78" dy="0.00">Notify Developer</tspan></text><polygon points="1098.71,64.54 1170.84,136.68 1098.71,208.81 1026.58,136.68" fill="#ECECFF" stroke="#7B88A8" stroke-width="1" stroke-linejoin="round" stroke-linecap="round"/><text x="1098.71" y="140.68" text-anchor="middle" font-family="'trebuchet ms', verdana, arial, sans-serif" font-size="16" fill="#333333"><tspan x="1098.71" dy="0.00">QA Approved?</tspan></text><rect x="1251.81" y="103.79" width="213.10" height="54.00" rx="3" ry="3" fill="#ECECFF" stroke="#7B88A8" stroke-width="1" stroke-linejoin="round" stroke-linecap="round"/><text x="1358.36" y="134.79" text-anchor="middle" font-family="'trebuchet ms', verdana, arial, sans-serif" font-size="16" fill="#333333"><tspan x="1358.36" dy="0.00">Deploy to Production</tspan></text><rect x="1539.68" y="103.79" width="113.59" height="54.00" rx="3" ry="3" fill="#ECECFF" stroke="#7B88A8" stroke-width="1" stroke-linejoin="round" stroke-linecap="round"/><text x="1596.47" y="134.79" text-anchor="middle" font-family="'trebuchet ms', verdana, arial, sans-serif" font-size="16" fill="#333333"><tspan x="1596.47" dy="0.00">Monitor</tspan></text><g transform="translate(202.21 139.00) rotate(0.00)"><polygon points="0,0 -10.40,6.24 -10.40,-6.24" fill="#2F3B4D" stroke="#2F3B4D" stroke-width="2" stroke-linejoin="round" stroke-linecap="round"/></g><g transform="translate(396.47 51.00) rotate(0.00)"><polygon points="0,0 -10.40,6.24 -10.40,-6.24" fill="#2F3B4D" stroke="#2F3B4D" stroke-width="2" stroke-linejoin="round" stroke-linecap="round"/></g><g transform="translate(396.47 139.00) rotate(0.00)"><polygon points="0,0 -10.40,6.24 -10.40,-6.24" fill="#2F3B4D" stroke="#2F3B4D" stroke-width="2" stroke-linejoin="round" stroke-linecap="round"/></g><g transform="translate(396.47 227.00) rotate(0.00)"><polygon points="0,0 -10.40,6.24 -10.40,-6.24" fill="#2F3B4D" stroke="#2F3B4D" stroke-width="2" stroke-linejoin="round" stroke-linecap="round"/></g><g transform="translate(615.02 107.00) rotate(0.00)"><polygon points="0,0 -10.40,6.24 -10.40,-6.24" fill="#2F3B4D" stroke="#2F3B4D" stroke-width="2" stroke-linejoin="round" stroke-linecap="round"/></g><g transform="translate(583.02 139.00) rotate(0.00)"><polygon points="0,0 -10.40,6.24 -10.40,-6.24" fill="#2F3B4D" stroke="#2F3B4D" stroke-width="2" stroke-linejoin="round" stroke-linecap="round"/></g><g transform="translate(615.02 171.00) rotate(0.00)"><polygon points="0,0 -10.40,6.24 -10.40,-6.24" fill="#2F3B4D" stroke="#2F3B4D" stroke-width="2" stroke-linejoin="round" stroke-linecap="round"/></g><g transform="translate(786.44 136.68) rotate(0.00)"><polygon points="0,0 -10.40,6.24 -10.40,-6.24" fill="#2F3B4D" stroke="#2F3B4D" stroke-width="2" stroke-linejoin="round" stroke-linecap="round"/></g><g transform="translate(1749.54 130.79) rotate(0.00)"><polygon points="0,0 -10.40,6.24 -10.40,-6.24" fill="#2F3B4D" stroke="#2F3B4D" stroke-width="2" stroke-linejoin="round" stroke-linecap="round"/></g><g transform="translate(1026.58 136.68) rotate(0.00)"><polygon points="0,0 -10.40,6.24 -10.40,-6.24" fill="#2F3B4D" stroke="#2F3B4D" stroke-width="2" stroke-linejoin="round" stroke-linecap="round"/></g><g transform="translate(1251.81 130.79) rotate(0.00)"><polygon points="0,0 -10.40,6.24 -10.40,-6.24" fill="#2F3B4D" stroke="#2F3B4D" stroke-width="2" stroke-linejoin="round" stroke-linecap="round"/></g><g transform="translate(1749.54 146.79) rotate(0.00)"><polygon points="0,0 -10.40,6.24 -10.40,-6.24" fill="#2F3B4D" stroke="#2F3B4D" stroke-width="2" stroke-linejoin="round" stroke-linecap="round"/></g><g transform="translate(1539.68 130.79) rotate(0.00)"><polygon points="0,0 -10.40,6.24 -10.40,-6.24" fill="#2F3B4D" stroke="#2F3B4D" stroke-width="2" stroke-linejoin="round" stroke-linecap="round"/></g><g transform="translate(1749.54 130.79) rotate(0.00)"><polygon points="0,0 -10.40,6.24 -10.40,-6.24" fill="#2F3B4D" stroke="#2F3B4D" stroke-width="2" stroke-linejoin="round" stroke-linecap="round"/></g></svg>