<svg xmlns="http://www.w3.org/2000/svg" width="1789.0605" height="1079.7455" viewBox="0 0 1789.0605 1079.7455"><rect x="0" y="0" width="1789.0605" height="1079.7455" fill="#FFFFFF"/><defs><marker id="arrow-0" viewBox="0 0 10 10" refX="5" refY="5" markerUnits="userSpaceOnUse" markerWidth="8" markerHeight="8" orient="auto"><path d="M 0 0 L 10 5 L 0 10 z" fill="#2F3B4D" stroke="#2F3B4D" stroke-width="1" stroke-dasharray="1,0"/></marker><marker id="arrow-start-0" viewBox="0 0 10 10" refX="4.5" refY="5" markerUnits="userSpaceOnUse" markerWidth="8" markerHeight="8" orient="auto"><path d="M 0 5 L 10 10 L 10 0 z" fill="#2F3B4D" stroke="#2F3B4D" stroke-width="1" stroke-dasharray="1,0"/></marker></defs><path d="M 448.155,434.415L 446.696,434.415C445.238,434.415,442.321,434.415,439.405,434.415C436.488,434.415,433.571,434.415,430.688,434.725C427.805,435.036,424.955,435.657,373.958,446.773C322.960,457.889,223.815,479.500,172.817,490.616C121.820,501.732,118.970,502.353,116.087,502.664C113.204,502.975,110.287,502.975,107.370,502.975C104.454,502.975,101.537,502.975,100.079,502.975L 98.620,502.975" fill="none" stroke="#2F3B4D" stroke-width="2"    stroke-linecap="round" stroke-linejoin="round" /><rect x="213.75" y="424.34" width="215.69" height="28.40" rx="2" ry="2" fill="rgba(248,250,252, 0.92)" fill-opacity="0.95" stroke="#7B88A8" stroke-opacity="0.45" stroke-width="0.8"/><text x="321.59" y="442.54" text-anchor="middle" font-family="'trebuchet ms', verdana, arial, sans-serif" font-size="16" fill="#333333"><tspan x="321.59" dy="0.00">1. Prompt to authorise sync</tspan></text><path d="M 608.958,402.415L 610.416,402.415C611.874,402.415,614.791,402.415,617.708,402.415C620.624,402.415,623.541,402.415,626.355,401.876C629.168,401.337,631.878,400.259,665.099,387.049C698.319,373.838,762.049,348.495,795.270,335.284C828.490,322.073,831.200,320.996,834.013,320.457C836.827,319.918,839.744,319.918,842.660,319.918C845.577,319.918,848.494,319.918,849.952,319.918L 851.410,319.918" fill="none" stroke="#2F3B4D" stroke-width="2"    stroke-linecap="round" stroke-linejoin="round" /><rect x="652.90" y="268.64" width="185.07" height="52.40" rx="2" ry="2" fill="rgba(248,250,252, 0.92)" fill-opacity="0.95" stroke="#7B88A8" stroke-opacity="0.45" stroke-width="0.8"/><text x="745.44" y="286.84" text-anchor="middle" font-family="'trebuchet ms', verdana, arial, sans-serif" font-size="16" fill="#333333"><tspan x="745.44" dy="0.00">2. Check connectivity &amp;</tspan><tspan x="745.44" dy="24.00">compatibility</tspan></text><path d="M 969.783,271.918L 971.241,271.918C972.699,271.918,975.616,271.918,978.533,271.918C981.449,271.918,984.366,271.918,987.041,271.113C989.716,270.309,992.149,268.701,1045.941,233.135C1099.734,197.570,1204.885,128.048,1258.678,92.483C1312.470,56.917,1314.903,55.309,1317.578,54.504C1320.253,53.700,1323.170,53.700,1326.086,53.700C1329.003,53.700,1331.920,53.700,1333.378,53.700L 1334.836,53.700" fill="none" stroke="#2F3B4D" stroke-width="2"    stroke-linecap="round" stroke-linejoin="round" /><rect x="1040.64" y="136.61" width="223.34" height="52.40" rx="2" ry="2" fill="rgba(248,250,252, 0.92)" fill-opacity="0.95" stroke="#7B88A8" stroke-opacity="0.45" stroke-width="0.8"/><text x="1152.31" y="154.81" text-anchor="middle" font-family="'trebuchet ms', verdana, arial, sans-serif" font-size="16" fill="#333333"><tspan x="1152.31" dy="0.00">3. Fetch stored elements for</tspan><tspan x="1152.31" dy="24.00">OPAQUE</tspan></text><path d="M 881.840,359.860L 881.840,328.320C881.841,296.779,881.841,233.698,881.840,200.158C881.841,166.617,881.841,162.617,879.840,160.617C877.841,158.617,873.841,158.617,814.824,158.617C755.807,158.617,641.774,158.617,582.757,158.617C523.740,158.617,519.740,158.617,517.740,160.617C515.740,162.617,515.740,166.617,515.740,198.910C515.740,231.203,515.740,291.789,515.740,322.082L 515.740,352.375" fill="none" stroke="#2F3B4D" stroke-width="2"    stroke-linecap="round" stroke-linejoin="round" /><rect x="629.14" y="144.42" width="146.79" height="28.40" rx="2" ry="2" fill="rgba(248,250,252, 0.92)" fill-opacity="0.95" stroke="#7B88A8" stroke-opacity="0.45" stroke-width="0.8"/><text x="702.53" y="162.62" text-anchor="middle" font-family="'trebuchet ms', verdana, arial, sans-serif" font-size="16" fill="#333333"><tspan x="702.53" dy="0.00">4. Sends challenge</tspan></text><path d="M 98.620,502.975L 100.079,502.975C101.537,502.975,104.454,502.975,107.370,502.975C110.287,502.975,113.204,502.975,116.111,502.809C119.018,502.644,121.916,502.314,173.951,496.386C225.986,490.458,327.157,478.932,379.192,473.003C431.227,467.075,434.125,466.745,437.032,466.580C439.939,466.415,442.856,466.415,445.773,466.415C448.689,466.415,451.606,466.415,453.064,466.415L 454.523,466.415" fill="none" stroke="#2F3B4D" stroke-width="2"    stroke-linecap="round" stroke-linejoin="round" /><rect x="186.55" y="514.13" width="192.72" height="52.40" rx="2" ry="2" fill="rgba(248,250,252, 0.92)" fill-opacity="0.95" stroke="#7B88A8" stroke-opacity="0.45" stroke-width="0.8"/><text x="282.91" y="532.33" text-anchor="middle" font-family="'trebuchet ms', verdana, arial, sans-serif" font-size="16" fill="#333333"><tspan x="282.91" dy="0.00">5. Enter master password</tspan><tspan x="282.91" dy="24.00">and confirm sync</tspan></text><path d="M 615.326,434.415L 616.784,434.415C618.242,434.415,621.159,434.415,624.076,434.415C626.992,434.415,629.909,434.415,632.769,434.817C635.629,435.219,638.433,436.023,671.029,445.371C703.625,454.719,766.013,472.612,798.608,481.960C831.204,491.308,834.008,492.112,836.868,492.514C839.728,492.916,842.645,492.916,845.561,492.916C848.478,492.916,851.395,492.916,852.853,492.916L 854.311,492.916" fill="none" stroke="#2F3B4D" stroke-width="2"    stroke-linecap="round" stroke-linejoin="round" /><rect x="678.54" y="413.40" width="93.21" height="28.40" rx="2" ry="2" fill="rgba(248,250,252, 0.92)" fill-opacity="0.95" stroke="#7B88A8" stroke-opacity="0.45" stroke-width="0.8"/><text x="725.14" y="431.60" text-anchor="middle" font-family="'trebuchet ms', verdana, arial, sans-serif" font-size="16" fill="#333333"><tspan x="725.14" dy="0.00">6. Password</tspan></text><path d="M 850.601,540.916L 849.142,540.916C847.684,540.916,844.767,540.916,841.851,540.916C838.934,540.916,836.017,540.916,833.228,540.320C830.439,539.723,827.778,538.530,795.472,524.043C763.166,509.556,701.215,481.775,668.909,467.289C636.603,452.802,633.941,451.608,631.152,451.012C628.363,450.415,625.447,450.415,622.530,450.415C619.613,450.415,616.697,450.415,615.238,450.415L 613.780,450.415" fill="none" stroke="#2F3B4D" stroke-width="2"    stroke-linecap="round" stroke-linejoin="round" /><rect x="553.92" y="554.12" width="54.93" height="28.40" rx="2" ry="2" fill="rgba(248,250,252, 0.92)" fill-opacity="0.95" stroke="#7B88A8" stroke-opacity="0.45" stroke-width="0.8"/><text x="581.39" y="572.32" text-anchor="middle" font-family="'trebuchet ms', verdana, arial, sans-serif" font-size="16" fill="#333333"><tspan x="581.39" dy="0.00">7. Ke1</tspan></text><path d="M 547.740,352.375L 547.740,330.539C547.740,308.704,547.740,265.033,547.740,241.197C547.740,217.361,547.740,213.361,549.740,211.361C551.740,209.361,555.740,209.361,612.090,209.361C668.440,209.361,777.140,209.361,833.490,209.361C889.841,209.361,893.841,209.361,895.840,211.361C897.841,213.361,897.841,217.361,897.840,243.526C897.841,269.690,897.841,318.019,897.840,342.184L 897.840,366.348" fill="none" stroke="#2F3B4D" stroke-width="2"    stroke-linecap="round" stroke-linejoin="round" /><rect x="702.31" y="195.16" width="54.93" height="28.40" rx="2" ry="2" fill="rgba(248,250,252, 0.92)" fill-opacity="0.95" stroke="#7B88A8" stroke-opacity="0.45" stroke-width="0.8"/><text x="729.77" y="213.36" text-anchor="middle" font-family="'trebuchet ms', verdana, arial, sans-serif" font-size="16" fill="#333333"><tspan x="729.77" dy="0.00">8. Ke1</tspan></text><path d="M 976.271,287.918L 977.729,287.918C979.187,287.918,982.104,287.918,985.021,287.918C987.937,287.918,990.854,287.918,993.747,287.654C996.639,287.390,999.508,286.862,1052.202,277.167C1104.897,267.471,1207.418,248.607,1260.113,238.912C1312.807,229.216,1315.676,228.688,1318.568,228.424C1321.461,228.160,1324.378,228.160,1327.294,228.160C1330.211,228.160,1333.128,228.160,1334.586,228.160L 1336.044,228.160" fill="none" stroke="#2F3B4D" stroke-width="2"    stroke-linecap="round" stroke-linejoin="round" /><rect x="1149.97" y="632.31" width="177.41" height="148.40" rx="2" ry="2" fill="rgba(248,250,252, 0.92)" fill-opacity="0.95" stroke="#7B88A8" stroke-opacity="0.45" stroke-width="0.8"/><text x="1238.67" y="650.51" text-anchor="middle" font-family="'trebuchet ms', verdana, arial, sans-serif" font-size="16" fill="#333333"><tspan x="1238.67" dy="0.00">9. self_identity,</tspan><tspan x="1238.67" dy="24.00">self_private_key,</tspan><tspan x="1238.67" dy="24.00">self_public_key,</tspan><tspan x="1238.67" dy="24.00">client_record,</tspan><tspan x="1238.67" dy="24.00">credential_identifier,</tspan><tspan x="1238.67" dy="24.00">oprf_seed, ke1</tspan></text><path d="M 1339.755,276.160L 1338.297,276.160C1336.838,276.160,1333.922,276.160,1331.005,276.160C1328.088,276.160,1325.172,276.160,1322.260,276.284C1319.349,276.408,1316.443,276.655,1263.485,281.157C1210.527,285.660,1107.517,294.418,1054.559,298.921C1001.601,303.424,998.695,303.671,995.783,303.794C992.872,303.918,989.955,303.918,987.038,303.918C984.122,303.918,981.205,303.918,979.747,303.918L 978.288,303.918" fill="none" stroke="#2F3B4D" stroke-width="2"    stroke-linecap="round" stroke-linejoin="round" /><rect x="1075.16" y="299.58" width="62.59" height="28.40" rx="2" ry="2" fill="rgba(248,250,252, 0.92)" fill-opacity="0.95" stroke="#7B88A8" stroke-opacity="0.45" stroke-width="0.8"/><text x="1106.45" y="317.78" text-anchor="middle" font-family="'trebuchet ms', verdana, arial, sans-serif" font-size="16" fill="#333333"><tspan x="1106.45" dy="0.00">10. Ke2</tspan></text><path d="M 913.840,368.366L 913.840,369.824C913.841,371.282,913.841,374.199,913.840,377.116C913.841,380.032,913.841,382.949,912.382,384.407C910.924,385.866,908.007,385.866,898.749,385.866C889.490,385.866,873.890,385.866,864.090,385.866C854.290,385.866,850.290,385.866,848.290,383.866C846.290,381.866,846.290,377.866,846.290,372.171C846.290,366.476,846.290,359.087,846.290,353.392C846.290,347.697,846.290,343.697,844.290,341.697C842.290,339.697,838.290,339.697,792.657,339.697C747.024,339.697,659.757,339.697,614.665,339.697C569.574,339.697,566.657,339.697,565.199,341.156C563.740,342.614,563.740,345.531,563.740,348.447C563.740,351.364,563.740,354.281,563.740,355.739L 563.740,357.197" fill="none" stroke="#2F3B4D" stroke-width="2"    stroke-linecap="round" stroke-linejoin="round" /><rect x="713.74" y="229.50" width="62.59" height="28.40" rx="2" ry="2" fill="rgba(248,250,252, 0.92)" fill-opacity="0.95" stroke="#7B88A8" stroke-opacity="0.45" stroke-width="0.8"/><text x="745.04" y="247.70" text-anchor="middle" font-family="'trebuchet ms', verdana, arial, sans-serif" font-size="16" fill="#333333"><tspan x="745.04" dy="0.00">11. Ke2</tspan></text><path d="M 608.958,466.415L 610.416,466.415C611.874,466.415,614.791,466.415,617.708,466.415C620.624,466.415,623.541,466.415,625.963,467.509C628.385,468.604,630.312,470.793,667.148,512.632C703.984,554.472,775.729,635.961,812.564,677.800C849.400,719.640,851.328,721.829,853.750,722.923C856.172,724.018,859.088,724.018,862.005,724.018C864.922,724.018,867.838,724.018,869.297,724.018L 870.755,724.018" fill="none" stroke="#2F3B4D" stroke-width="2"    stroke-linecap="round" stroke-linejoin="round" /><rect x="413.97" y="784.57" width="162.10" height="52.40" rx="2" ry="2" fill="rgba(248,250,252, 0.92)" fill-opacity="0.95" stroke="#7B88A8" stroke-opacity="0.45" stroke-width="0.8"/><text x="495.02" y="802.77" text-anchor="middle" font-family="'trebuchet ms', verdana, arial, sans-serif" font-size="16" fill="#333333"><tspan x="495.02" dy="0.00">12. self_identity,</tspan><tspan x="495.02" dy="24.00">server_identity, ke2</tspan></text><path d="M 849.393,788.018L 847.934,788.018C846.476,788.018,843.559,788.018,840.643,788.018C837.726,788.018,834.809,788.018,832.514,786.824C830.218,785.630,828.544,783.241,793.677,733.502C758.811,683.762,690.751,586.671,655.884,536.931C621.018,487.192,619.344,484.803,617.048,483.609C614.753,482.415,611.836,482.415,608.919,482.415C606.003,482.415,603.086,482.415,601.628,482.415L 600.169,482.415" fill="none" stroke="#2F3B4D" stroke-width="2"    stroke-linecap="round" stroke-linejoin="round" /><rect x="665.86" y="750.17" width="169.76" height="52.40" rx="2" ry="2" fill="rgba(248,250,252, 0.92)" fill-opacity="0.95" stroke="#7B88A8" stroke-opacity="0.45" stroke-width="0.8"/><text x="750.74" y="768.37" text-anchor="middle" font-family="'trebuchet ms', verdana, arial, sans-serif" font-size="16" fill="#333333"><tspan x="750.74" dy="0.00">13. Ke3, session_key,</tspan><tspan x="750.74" dy="24.00">export_key</tspan></text><path d="M 579.740,365.986L 579.740,364.362C579.740,362.738,579.740,359.491,579.740,356.243C579.740,352.995,579.740,349.748,581.364,348.124C582.988,346.500,586.236,346.500,601.362,346.500C616.489,346.500,643.494,346.500,658.997,346.500C674.500,346.500,678.500,346.500,680.500,348.500C682.500,350.500,682.500,354.500,682.500,360.500C682.500,366.500,682.500,374.500,682.500,380.500C682.500,386.500,682.500,390.500,684.500,392.500C686.500,394.500,690.500,394.500,729.167,394.500C767.833,394.500,841.167,394.500,879.167,394.500C917.167,394.500,919.833,394.500,921.167,393.167C922.500,391.833,922.500,389.167,922.500,387.112C922.500,385.057,922.500,383.613,922.500,382.280C922.500,380.947,922.500,379.723,923.112,379.112C923.723,378.500,924.947,378.500,925.559,378.500C926.170,378.500,926.170,378.500,926.782,378.500C927.394,378.500,928.617,378.500,929.229,377.888C929.841,377.277,929.841,376.053,929.840,374.028C929.841,372.003,929.841,369.175,929.840,367.762L 929.840,366.348" fill="none" stroke="#2F3B4D" stroke-width="2"    stroke-linecap="round" stroke-linejoin="round" /><rect x="628.06" y="220.30" width="62.59" height="28.40" rx="2" ry="2" fill="rgba(248,250,252, 0.92)" fill-opacity="0.95" stroke="#7B88A8" stroke-opacity="0.45" stroke-width="0.8"/><text x="659.35" y="238.50" text-anchor="middle" font-family="'trebuchet ms', verdana, arial, sans-serif" font-size="16" fill="#333333"><tspan x="659.35" dy="0.00">14. Ke3</tspan></text><path d="M 969.783,335.918L 971.241,335.918C972.699,335.918,975.616,335.918,978.533,335.918C981.449,335.918,984.366,335.918,987.191,336.427C990.015,336.937,992.748,337.956,1048.221,358.642C1103.694,379.327,1211.908,419.680,1267.381,440.366C1322.854,461.051,1325.587,462.070,1328.411,462.580C1331.236,463.090,1334.153,463.090,1337.069,463.090C1339.986,463.090,1342.903,463.090,1344.361,463.090L 1345.820,463.090" fill="none" stroke="#2F3B4D" stroke-width="2"    stroke-linecap="round" stroke-linejoin="round" /><rect x="1174.68" y="539.88" width="62.59" height="28.40" rx="2" ry="2" fill="rgba(248,250,252, 0.92)" fill-opacity="0.95" stroke="#7B88A8" stroke-opacity="0.45" stroke-width="0.8"/><text x="1205.98" y="558.08" text-anchor="middle" font-family="'trebuchet ms', verdana, arial, sans-serif" font-size="16" fill="#333333"><tspan x="1205.98" dy="0.00">15. Ke3</tspan></text><path d="M 1336.002,527.090L 1334.544,527.090C1333.085,527.090,1330.169,527.090,1327.252,527.090C1324.335,527.090,1321.419,527.090,1318.697,526.361C1315.976,525.632,1313.450,524.174,1259.510,493.041C1205.569,461.908,1100.215,401.100,1046.275,369.967C992.335,338.834,989.809,337.376,987.087,336.647C984.366,335.918,981.449,335.918,978.533,335.918C975.616,335.918,972.699,335.918,971.241,335.918L 969.783,335.918" fill="none" stroke="#2F3B4D" stroke-width="2"    stroke-linecap="round" stroke-linejoin="round" /><rect x="1152.66" y="489.85" width="123.83" height="28.40" rx="2" ry="2" fill="rgba(248,250,252, 0.92)" fill-opacity="0.95" stroke="#7B88A8" stroke-opacity="0.45" stroke-width="0.8"/><text x="1214.57" y="508.05" text-anchor="middle" font-family="'trebuchet ms', verdana, arial, sans-serif" font-size="16" fill="#333333"><tspan x="1214.57" dy="0.00">16. session_key</tspan></text><circle cx="913.84" cy="303.92" r="64.45" fill="#ECECFF" stroke="#7B88A8" stroke-width="1" stroke-linejoin="round" stroke-linecap="round"/><circle cx="913.84" cy="303.92" r="60.45" fill="none" stroke="#7B88A8" stroke-width="1" stroke-linejoin="round" stroke-linecap="round"/><text x="913.84" y="307.92" text-anchor="middle" font-family="'trebuchet ms', verdana, arial, sans-serif" font-size="16" fill="#333333"><tspan x="913.84" dy="0.00">Baldr API</tspan></text><circle cx="531.74" cy="434.41" r="83.59" fill="#ECECFF" stroke="#7B88A8" stroke-width="1" stroke-linejoin="round" stroke-linecap="round"/><circle cx="531.74" cy="434.41" r="79.59" fill="none" stroke="#7B88A8" stroke-width="1" stroke-linejoin="round" stroke-linecap="round"/><text x="531.74" y="438.41" text-anchor="middle" font-family="'trebuchet ms', verdana, arial, sans-serif" font-size="16" fill="#333333"><tspan x="531.74" dy="0.00">Forseti Client</tspan></text><circle cx="955.94" cy="524.92" r="106.55" fill="#ECECFF" stroke="#7B88A8" stroke-width="1" stroke-linejoin="round" stroke-linecap="round"/><circle cx="955.94" cy="524.92" r="102.55" fill="none" stroke="#7B88A8" stroke-width="1" stroke-linejoin="round" stroke-linecap="round"/><text x="955.94" y="528.92" text-anchor="middle" font-family="'trebuchet ms', verdana, arial, sans-serif" font-size="16" fill="#333333"><tspan x="955.94" dy="0.00">GenerateKE1 Function</tspan></text><circle cx="1441.39" cy="244.16" r="106.55" fill="#ECECFF" stroke="#7B88A8" stroke-width="1" stroke-linejoin="round" stroke-linecap="round"/><circle cx="1441.39" cy="244.16" r="102.55" fill="none" stroke="#7B88A8" stroke-width="1" stroke-linejoin="round" stroke-linecap="round"/><text x="1441.39" y="248.16" text-anchor="middle" font-family="'trebuchet ms', verdana, arial, sans-serif" font-size="16" fill="#333333"><tspan x="1441.39" dy="0.00">GenerateKE2 Function</tspan></text><circle cx="955.94" cy="788.02" r="106.55" fill="#ECECFF" stroke="#7B88A8" stroke-width="1" stroke-linejoin="round" stroke-linecap="round"/><circle cx="955.94" cy="788.02" r="102.55" fill="none" stroke="#7B88A8" stroke-width="1" stroke-linejoin="round" stroke-linecap="round"/><text x="955.94" y="792.02" text-anchor="middle" font-family="'trebuchet ms', verdana, arial, sans-serif" font-size="16" fill="#333333"><tspan x="955.94" dy="0.00">GenerateKE3 Function</tspan></text><ellipse cx="1693.33" cy="15.13" rx="87.73" ry="7.13" fill="#ECECFF" stroke="#7B88A8" stroke-width="1" stroke-linejoin="round" stroke-linecap="round"/><rect x="1605.59" y="15.13" width="175.47" height="45.14" fill="#ECECFF" stroke="#7B88A8" stroke-width="1" stroke-linejoin="round" stroke-linecap="round"/><ellipse cx="1693.33" cy="60.27" rx="87.73" ry="7.13" fill="none" stroke="#7B88A8" stroke-width="1" stroke-linejoin="round" stroke-linecap="round"/><text x="1693.33" y="41.70" text-anchor="middle" font-family="'trebuchet ms', verdana, arial, sans-serif" font-size="16" fill="#333333"><tspan x="1693.33" dy="0.00">Database File</tspan></text><ellipse cx="1430.99" cy="15.13" rx="96.15" ry="7.13" fill="#ECECFF" stroke="#7B88A8" stroke-width="1" stroke-linejoin="round" stroke-linecap="round"/><rect x="1334.84" y="15.13" width="192.31" height="45.14" fill="#ECECFF" stroke="#7B88A8" stroke-width="1" stroke-linejoin="round" stroke-linecap="round"/><ellipse cx="1430.99" cy="60.27" rx="96.15" ry="7.13" fill="none" stroke="#7B88A8" stroke-width="1" stroke-linejoin="round" stroke-linecap="round"/><text x="1430.99" y="41.70" text-anchor="middle" font-family="'trebuchet ms', verdana, arial, sans-serif" font-size="16" fill="#333333"><tspan x="1430.99" dy="0.00">Server Database</tspan></text><circle cx="1445.21" cy="511.09" r="110.38" fill="#ECECFF" stroke="#7B88A8" stroke-width="1" stroke-linejoin="round" stroke-linecap="round"/><circle cx="1445.21" cy="511.09" r="106.38" fill="none" stroke="#7B88A8" stroke-width="1" stroke-linejoin="round" stroke-linecap="round"/><text x="1445.21" y="515.09" text-anchor="middle" font-family="'trebuchet ms', verdana, arial, sans-serif" font-size="16" fill="#333333"><tspan x="1445.21" dy="0.00">ServerFinish Function</tspan></text><rect x="8.00" y="475.97" width="90.62" height="54.00" rx="3" ry="3" fill="#ECECFF" stroke="#7B88A8" stroke-width="1" stroke-linejoin="round" stroke-linecap="round"/><text x="53.31" y="506.97" text-anchor="middle" font-family="'trebuchet ms', verdana, arial, sans-serif" font-size="16" fill="#333333"><tspan x="53.31" dy="0.00">User</tspan></text><g transform="translate(98.62 502.97) rotate(180.00)"><polygon points="0,0 -10.40,6.24 -10.40,-6.24" fill="#2F3B4D" stroke="#2F3B4D" stroke-width="2" stroke-linejoin="round" stroke-linecap="round"/></g><g transform="translate(851.41 319.92) rotate(0.00)"><polygon points="0,0 -10.40,6.24 -10.40,-6.24" fill="#2F3B4D" stroke="#2F3B4D" stroke-width="2" stroke-linejoin="round" stroke-linecap="round"/></g><g transform="translate(1334.84 53.70) rotate(0.00)"><polygon points="0,0 -10.40,6.24 -10.40,-6.24" fill="#2F3B4D" stroke="#2F3B4D" stroke-width="2" stroke-linejoin="round" stroke-linecap="round"/></g><g transform="translate(515.74 352.38) rotate(90.00)"><polygon points="0,0 -10.40,6.24 -10.40,-6.24" fill="#2F3B4D" stroke="#2F3B4D" stroke-width="2" stroke-linejoin="round" stroke-linecap="round"/></g><g transform="translate(454.52 466.41) rotate(0.00)"><polygon points="0,0 -10.40,6.24 -10.40,-6.24" fill="#2F3B4D" stroke="#2F3B4D" stroke-width="2" stroke-linejoin="round" stroke-linecap="round"/></g><g transform="translate(854.31 492.92) rotate(0.00)"><polygon points="0,0 -10.40,6.24 -10.40,-6.24" fill="#2F3B4D" stroke="#2F3B4D" stroke-width="2" stroke-linejoin="round" stroke-linecap="round"/></g><g transform="translate(613.78 450.41) rotate(180.00)"><polygon points="0,0 -10.40,6.24 -10.40,-6.24" fill="#2F3B4D" stroke="#2F3B4D" stroke-width="2" stroke-linejoin="round" stroke-linecap="round"/></g><g transform="translate(897.84 366.35) rotate(-90.00)"><polygon points="0,0 -10.40,6.24 -10.40,-6.24" fill="#2F3B4D" stroke="#2F3B4D" stroke-width="2" stroke-linejoin="round" stroke-linecap="round"/></g><g transform="translate(1336.04 228.16) rotate(0.00)"><polygon points="0,0 -10.40,6.24 -10.40,-6.24" fill="#2F3B4D" stroke="#2F3B4D" stroke-width="2" stroke-linejoin="round" stroke-linecap="round"/></g><g transform="translate(978.29 303.92) rotate(180.00)"><polygon points="0,0 -10.40,6.24 -10.40,-6.24" fill="#2F3B4D" stroke="#2F3B4D" stroke-width="2" stroke-linejoin="round" stroke-linecap="round"/></g><g transform="translate(563.74 357.20) rotate(90.00)"><polygon points="0,0 -10.40,6.24 -10.40,-6.24" fill="#2F3B4D" stroke="#2F3B4D" stroke-width="2" stroke-linejoin="round" stroke-linecap="round"/></g><g transform="translate(870.75 724.02) rotate(0.00)"><polygon points="0,0 -10.40,6.24 -10.40,-6.24" fill="#2F3B4D" stroke="#2F3B4D" stroke-width="2" stroke-linejoin="round" stroke-linecap="round"/></g><g transform="translate(600.17 482.41) rotate(180.00)"><polygon points="0,0 -10.40,6.24 -10.40,-6.24" fill="#2F3B4D" stroke="#2F3B4D" stroke-width="2" stroke-linejoin="round" stroke-linecap="round"/></g><g transform="translate(929.84 366.35) rotate(-90.00)"><polygon points="0,0 -10.40,6.24 -10.40,-6.24" fill="#2F3B4D" stroke="#2F3B4D" stroke-width="2" stroke-linejoin="round" stroke-linecap="round"/></g><g transform="translate(1345.82 463.09) rotate(0.00)"><polygon points="0,0 -10.40,6.24 -10.40,-6.24" fill="#2F3B4D" stroke="#2F3B4D" stroke-width="2" stroke-linejoin="round" stroke-linecap="round"/></g><g transform="translate(969.78 335.92) rotate(180.00)"><polygon points="0,0 -10.40,6.24 -10.40,-6.24" fill="#2F3B4D" stroke="#2F3B4D" stroke-width="2" stroke-linejoin="round" stroke-linecap="round"/></g></svg>