<svg xmlns="http://www.w3.org/2000/svg" width="908.52014" height="1110.5803" viewBox="0 0 908.52014 1110.5803"><rect x="0" y="0" width="908.52014" height="1110.5803" fill="#FFFFFF"/><defs><marker id="arrow-0" viewBox="0 0 10 10" refX="5" refY="5" markerUnits="userSpaceOnUse" markerWidth="8" markerHeight="8" orient="auto"><path d="M 0 0 L 10 5 L 0 10 z" fill="#2F3B4D" stroke="#2F3B4D" stroke-width="1" stroke-dasharray="1,0"/></marker><marker id="arrow-start-0" viewBox="0 0 10 10" refX="4.5" refY="5" markerUnits="userSpaceOnUse" markerWidth="8" markerHeight="8" orient="auto"><path d="M 0 5 L 10 10 L 10 0 z" fill="#2F3B4D" stroke="#2F3B4D" stroke-width="1" stroke-dasharray="1,0"/></marker></defs><rect x="8.00" y="352.96" width="892.52" height="417.78" rx="10" ry="10" fill="#FFFFDE" stroke="#AAAA33" stroke-width="1" /><text x="454.26" y="380.96" text-anchor="middle" font-family="'trebuchet ms', verdana, arial, sans-serif" font-size="16" fill="#333333"><tspan x="454.26" dy="0.00">Process</tspan></text><rect x="562.20" y="8.00" width="338.32" height="478.96" rx="10" ry="10" fill="#FFFFDE" stroke="#AAAA33" stroke-width="1" /><text x="731.36" y="36.00" text-anchor="middle" font-family="'trebuchet ms', verdana, arial, sans-serif" font-size="16" fill="#333333"><tspan x="731.36" dy="0.00">Ingest</tspan></text><rect x="562.20" y="636.74" width="315.35" height="465.84" rx="10" ry="10" fill="#FFFFDE" stroke="#AAAA33" stroke-width="1" /><text x="719.88" y="664.74" text-anchor="middle" font-family="'trebuchet ms', verdana, arial, sans-serif" font-size="16" fill="#333333"><tspan x="719.88" dy="0.00">Output</tspan></text><path d="M 725.975,102.000L 725.975,103.450C725.975,104.899,725.975,107.799,725.975,110.336C725.975,112.873,725.975,115.048,725.961,117.222C725.947,119.397,725.919,121.572,725.905,122.659C725.891,123.747,725.891,123.747,725.877,124.834C725.863,125.921,725.835,128.096,725.821,130.271C725.807,132.445,725.807,134.620,725.807,137.157C725.807,139.694,725.807,142.594,725.807,144.043L 725.807,145.493" fill="none" stroke="#2F3B4D" stroke-width="2"    stroke-linecap="round" stroke-linejoin="round" /><path d="M 741.807,244.672L 741.807,245.940C741.807,247.209,741.807,249.746,741.807,252.283C741.807,254.820,741.807,257.357,742.414,259.739C743.022,262.122,744.237,264.349,754.340,282.876C764.444,301.402,783.436,336.228,793.539,354.755C803.643,373.282,804.858,375.509,805.465,377.891C806.072,380.274,806.072,382.811,806.072,385.348C806.072,387.885,806.072,390.422,806.072,391.691L 806.072,392.959" fill="none" stroke="#2F3B4D" stroke-width="2"    stroke-linecap="round" stroke-linejoin="round" /><rect x="814.86" y="252.74" width="24.31" height="28.40" rx="2" ry="2" fill="rgba(248,250,252, 0.92)" fill-opacity="0.95" stroke="#7B88A8" stroke-opacity="0.45" stroke-width="0.8"/><text x="827.01" y="270.94" text-anchor="middle" font-family="'trebuchet ms', verdana, arial, sans-serif" font-size="16" fill="#333333"><tspan x="827.01" dy="0.00">ok</tspan></text><path d="M 693.807,228.672L 693.807,229.940C693.807,231.209,693.807,233.746,693.807,236.283C693.807,238.820,693.807,241.357,693.139,243.704C692.471,246.051,691.134,248.207,686.362,255.908C681.590,263.609,673.383,276.855,668.611,284.556C663.839,292.257,662.503,294.414,661.834,296.760C661.166,299.107,661.166,301.644,661.166,304.182C661.166,306.719,661.166,309.256,661.166,310.524L 661.166,311.793" fill="none" stroke="#2F3B4D" stroke-width="2"    stroke-linecap="round" stroke-linejoin="round" /><rect x="649.43" y="269.34" width="39.62" height="28.40" rx="2" ry="2" fill="rgba(248,250,252, 0.92)" fill-opacity="0.95" stroke="#7B88A8" stroke-opacity="0.45" stroke-width="0.8"/><text x="669.24" y="287.54" text-anchor="middle" font-family="'trebuchet ms', verdana, arial, sans-serif" font-size="16" fill="#333333"><tspan x="669.24" dy="0.00">fail</tspan></text><path d="M 741.625,419.959L 740.356,419.959C739.087,419.959,736.550,419.959,734.013,419.959C731.476,419.959,728.939,419.959,726.432,420.232C723.924,420.505,721.447,421.051,656.390,435.388C591.334,449.725,463.699,477.854,398.642,492.191C333.586,506.528,331.108,507.074,328.601,507.347C326.094,507.620,323.557,507.620,321.019,507.620C318.482,507.620,315.945,507.620,314.677,507.620L 313.408,507.620" fill="none" stroke="#2F3B4D" stroke-width="2"    stroke-linecap="round" stroke-linejoin="round" /><path d="M 214.016,533.452L 212.748,533.452C211.479,533.452,208.942,533.452,206.405,533.452C203.868,533.452,201.331,533.452,199.626,534.643C197.922,535.835,197.050,538.217,193.431,548.111C189.812,558.004,183.445,575.408,179.826,585.302C176.206,595.195,175.335,597.578,173.630,598.769C171.926,599.960,169.389,599.960,166.852,599.960C164.315,599.960,161.778,599.960,160.509,599.960L 159.241,599.960" fill="none" stroke="#2F3B4D" stroke-width="2"    stroke-linecap="round" stroke-linejoin="round" /><path d="M 263.712,544.452L 263.712,545.901C263.712,547.351,263.712,550.250,263.712,552.787C263.712,555.324,263.712,557.499,263.682,559.674C263.652,561.849,263.593,564.024,263.563,565.111C263.533,566.199,263.533,566.199,263.503,567.286C263.473,568.373,263.414,570.548,263.384,572.723C263.354,574.898,263.354,577.074,263.354,579.611C263.354,582.148,263.354,585.046,263.354,586.496L 263.354,587.945" fill="none" stroke="#2F3B4D" stroke-width="2"    stroke-linecap="round" stroke-linejoin="round" /><path d="M 313.408,532.437L 314.677,532.437C315.945,532.437,318.482,532.437,321.019,532.437C323.557,532.437,326.094,532.437,327.787,533.633C329.480,534.828,330.329,537.219,333.840,547.108C337.351,556.997,343.525,574.385,347.036,584.274C350.547,594.163,351.396,596.554,353.089,597.750C354.782,598.945,357.319,598.945,359.856,598.945C362.393,598.945,364.930,598.945,366.199,598.945L 367.467,598.945" fill="none" stroke="#2F3B4D" stroke-width="2"    stroke-linecap="round" stroke-linejoin="round" /><path d="M 159.241,624.428L 160.509,624.428C161.778,624.428,164.315,624.428,166.852,624.428C169.389,624.428,171.926,624.428,173.195,625.697C174.463,626.965,174.463,629.502,174.463,641.026C174.463,652.551,174.463,673.062,174.463,685.317C174.463,697.573,174.463,701.573,176.463,703.573C178.463,705.573,182.463,705.573,262.053,705.573C341.643,705.573,496.823,705.573,574.413,705.573L 652.003,705.573" fill="none" stroke="#2F3B4D" stroke-width="2"    stroke-linecap="round" stroke-linejoin="round" /><path d="M 323.974,627.933L 325.243,627.933C326.511,627.933,329.048,627.933,331.586,627.933C334.123,627.933,336.660,627.933,337.928,629.201C339.197,630.470,339.197,633.007,339.197,642.597C339.197,652.187,339.197,668.830,339.197,679.151C339.197,689.473,339.197,693.473,341.197,695.473C343.197,697.473,347.197,697.473,399.331,697.473C451.466,697.473,551.734,697.473,601.869,697.473L 652.003,697.473" fill="none" stroke="#2F3B4D" stroke-width="2"    stroke-linecap="round" stroke-linejoin="round" /><path d="M 488.708,630.945L 489.976,630.945C491.245,630.945,493.782,630.945,496.319,630.945C498.856,630.945,501.393,630.945,502.662,632.214C503.931,633.482,503.931,636.019,503.931,643.757C503.931,651.495,503.931,664.434,503.931,672.904C503.931,681.373,503.931,685.373,505.931,687.373C507.931,689.373,511.931,689.373,536.609,689.373C561.288,689.373,606.645,689.373,629.324,689.373L 652.003,689.373" fill="none" stroke="#2F3B4D" stroke-width="2"    stroke-linecap="round" stroke-linejoin="round" /><path d="M 716.451,730.740L 716.451,732.189C716.451,733.639,716.451,736.538,716.451,739.075C716.451,741.612,716.451,743.787,716.431,745.962C716.411,748.137,716.372,750.312,716.352,751.399C716.332,752.486,716.332,752.486,716.312,753.573C716.292,754.661,716.253,756.835,716.233,759.010C716.213,761.185,716.213,763.360,716.213,765.897C716.213,768.434,716.213,771.333,716.213,772.783L 716.213,774.233" fill="none" stroke="#2F3B4D" stroke-width="2"    stroke-linecap="round" stroke-linejoin="round" /><path d="M 684.213,835.594L 684.213,836.863C684.213,838.131,684.213,840.668,684.213,843.206C684.213,845.743,684.213,848.280,683.637,850.678C683.060,853.077,681.907,855.337,678.005,862.986C674.102,870.635,667.450,883.674,663.547,891.324C659.645,898.973,658.492,901.233,657.915,903.631C657.339,906.030,657.339,908.567,657.339,911.104C657.339,913.641,657.339,916.178,657.339,917.447L 657.339,918.715" fill="none" stroke="#2F3B4D" stroke-width="2"    stroke-linecap="round" stroke-linejoin="round" /><rect x="598.78" y="879.17" width="39.62" height="28.40" rx="2" ry="2" fill="rgba(248,250,252, 0.92)" fill-opacity="0.95" stroke="#7B88A8" stroke-opacity="0.45" stroke-width="0.8"/><text x="618.59" y="897.37" text-anchor="middle" font-family="'trebuchet ms', verdana, arial, sans-serif" font-size="16" fill="#333333"><tspan x="618.59" dy="0.00">fast</tspan></text><path d="M 748.213,835.594L 748.213,836.863C748.213,838.131,748.213,840.668,748.213,843.206C748.213,845.743,748.213,848.280,748.784,850.681C749.355,853.082,750.497,855.348,754.351,862.995C758.205,870.641,764.771,883.669,768.625,891.315C772.479,898.962,773.620,901.227,774.191,903.629C774.762,906.030,774.762,908.567,774.762,911.104C774.762,913.641,774.762,916.178,774.762,917.447L 774.762,918.715" fill="none" stroke="#2F3B4D" stroke-width="2"    stroke-linecap="round" stroke-linejoin="round" /><rect x="748.52" y="876.54" width="39.62" height="28.40" rx="2" ry="2" fill="rgba(248,250,252, 0.92)" fill-opacity="0.95" stroke="#7B88A8" stroke-opacity="0.45" stroke-width="0.8"/><text x="768.33" y="894.74" text-anchor="middle" font-family="'trebuchet ms', verdana, arial, sans-serif" font-size="16" fill="#333333"><tspan x="768.33" dy="0.00">slow</tspan></text><path d="M 657.339,972.715L 657.339,973.984C657.339,975.252,657.339,977.790,657.339,980.327C657.339,982.864,657.339,985.401,658.582,986.922C659.825,988.444,662.311,988.950,665.506,989.600C668.701,990.251,672.605,991.045,675.800,991.695C678.995,992.346,681.481,992.852,682.724,994.373C683.967,995.895,683.967,998.432,683.967,1000.969C683.967,1003.506,683.967,1006.043,683.967,1007.312L 683.967,1008.580" fill="none" stroke="#2F3B4D" stroke-width="2"    stroke-linecap="round" stroke-linejoin="round" /><path d="M 774.762,972.715L 774.762,973.984C774.762,975.252,774.762,977.790,774.762,980.327C774.762,982.864,774.762,985.401,773.519,986.921C772.275,988.441,769.789,988.944,766.566,989.596C763.344,990.248,759.386,991.048,756.163,991.700C752.941,992.352,750.454,992.855,749.211,994.375C747.967,995.895,747.967,998.432,747.967,1000.969C747.967,1003.506,747.967,1006.043,747.967,1007.312L 747.967,1008.580" fill="none" stroke="#2F3B4D" stroke-width="2"    stroke-linecap="round" stroke-linejoin="round" /><path d="M 645.166,365.793L 645.166,452.153C645.166,538.513,645.166,711.233,645.166,799.593C645.166,887.953,645.166,891.953,647.166,893.953C649.166,895.953,653.166,895.953,662.966,895.953C672.767,895.953,688.367,895.953,698.167,895.953C707.967,895.953,711.967,895.953,713.967,897.953C715.967,899.953,715.967,903.953,715.967,922.724C715.967,941.496,715.967,975.038,715.967,991.809L 715.967,1008.580" fill="none" stroke="#2F3B4D" stroke-width="2"    stroke-linecap="round" stroke-linejoin="round" /><path d="M 693.975,102.000L 693.975,103.269C693.975,104.537,693.975,107.074,693.975,109.611C693.975,112.148,693.975,114.685,692.707,115.954C691.438,117.223,688.901,117.223,621.857,117.223C554.813,117.223,423.263,117.223,355.488,117.223C287.712,117.223,283.712,117.223,281.712,119.223C279.712,121.223,279.712,125.223,279.712,187.427C279.712,249.632,279.712,370.042,279.712,430.247L 279.712,490.452" fill="none" stroke="#2F3B4D" stroke-width="2"   stroke-dasharray="2" stroke-linecap="round" stroke-linejoin="round" /><rect x="463.21" y="98.49" width="47.28" height="28.40" rx="2" ry="2" fill="rgba(248,250,252, 0.92)" fill-opacity="0.95" stroke="#7B88A8" stroke-opacity="0.45" stroke-width="0.8"/><text x="486.84" y="116.69" text-anchor="middle" font-family="'trebuchet ms', verdana, arial, sans-serif" font-size="16" fill="#333333"><tspan x="486.84" dy="0.00">retry</tspan></text><path d="M 806.072,446.959L 806.072,499.634C806.072,552.309,806.072,657.660,806.072,712.335C806.072,767.010,806.072,771.010,804.072,773.010C802.072,775.010,798.072,775.010,787.031,775.010C775.990,775.010,757.907,775.010,747.597,775.010C737.288,775.010,734.750,775.010,733.482,776.279C732.213,777.547,732.213,780.084,732.213,782.621C732.213,785.159,732.213,787.696,732.213,788.964L 732.213,790.233" fill="none" stroke="#2F3B4D" stroke-width="2"    stroke-linecap="round" stroke-linejoin="round" /><path d="M 323.974,599.960L 325.243,599.960C326.511,599.960,329.048,599.960,331.586,599.960C334.123,599.960,336.660,599.960,337.928,598.692C339.197,597.423,339.197,594.886,339.197,556.025C339.197,517.164,339.197,441.978,339.197,402.385C339.197,362.793,339.197,358.793,341.197,356.793C343.197,354.793,347.197,354.793,389.364,354.793C431.532,354.793,511.866,354.793,552.034,354.793L 592.201,354.793" fill="none" stroke="#2F3B4D" stroke-width="2"   stroke-dasharray="2" stroke-linecap="round" stroke-linejoin="round" /><rect x="315.56" y="344.29" width="47.28" height="28.40" rx="2" ry="2" fill="rgba(248,250,252, 0.92)" fill-opacity="0.95" stroke="#7B88A8" stroke-opacity="0.45" stroke-width="0.8"/><text x="339.20" y="362.49" text-anchor="middle" font-family="'trebuchet ms', verdana, arial, sans-serif" font-size="16" fill="#333333"><tspan x="339.20" dy="0.00">audit</tspan></text><rect x="673.01" y="48.00" width="105.93" height="54.00" rx="3" ry="3" fill="#ECECFF" stroke="#7B88A8" stroke-width="1" stroke-linejoin="round" stroke-linecap="round"/><text x="725.98" y="79.00" text-anchor="middle" font-family="'trebuchet ms', verdana, arial, sans-serif" font-size="16" fill="#333333"><tspan x="725.98" dy="0.00">Source</tspan></text><polygon points="725.81,145.49 783.40,203.08 725.81,260.67 668.22,203.08" fill="#ECECFF" stroke="#7B88A8" stroke-width="1" stroke-linejoin="round" stroke-linecap="round"/><text x="725.81" y="207.08" text-anchor="middle" font-family="'trebuchet ms', verdana, arial, sans-serif" font-size="16" fill="#333333"><tspan x="725.81" dy="0.00">Validate</tspan></text><rect x="741.62" y="392.96" width="128.90" height="54.00" rx="3" ry="3" fill="#ECECFF" stroke="#7B88A8" stroke-width="1" stroke-linejoin="round" stroke-linecap="round"/><text x="806.07" y="423.96" text-anchor="middle" font-family="'trebuchet ms', verdana, arial, sans-serif" font-size="16" fill="#333333"><tspan x="806.07" dy="0.00">Normalize</tspan></text><rect x="592.20" y="311.79" width="105.93" height="54.00" rx="3" ry="3" fill="#ECECFF" stroke="#7B88A8" stroke-width="1" stroke-linejoin="round" stroke-linecap="round"/><text x="645.17" y="342.79" text-anchor="middle" font-family="'trebuchet ms', verdana, arial, sans-serif" font-size="16" fill="#333333"><tspan x="645.17" dy="0.00">Reject</tspan></text><rect x="214.02" y="490.45" width="99.39" height="54.00" rx="3" ry="3" fill="#ECECFF" stroke="#7B88A8" stroke-width="1" stroke-linejoin="round" stroke-linecap="round"/><text x="263.71" y="521.45" text-anchor="middle" font-family="'trebuchet ms', verdana, arial, sans-serif" font-size="16" fill="#333333"><tspan x="263.71" dy="0.00">Queue</tspan></text><rect x="38.00" y="587.95" width="121.24" height="54.00" rx="3" ry="3" fill="#ECECFF" stroke="#7B88A8" stroke-width="1" stroke-linejoin="round" stroke-linecap="round"/><text x="98.62" y="618.95" text-anchor="middle" font-family="'trebuchet ms', verdana, arial, sans-serif" font-size="16" fill="#333333"><tspan x="98.62" dy="0.00">Worker 1</tspan></text><rect x="202.73" y="587.95" width="121.24" height="54.00" rx="3" ry="3" fill="#ECECFF" stroke="#7B88A8" stroke-width="1" stroke-linejoin="round" stroke-linecap="round"/><text x="263.35" y="618.95" text-anchor="middle" font-family="'trebuchet ms', verdana, arial, sans-serif" font-size="16" fill="#333333"><tspan x="263.35" dy="0.00">Worker 2</tspan></text><rect x="367.47" y="587.95" width="121.24" height="54.00" rx="3" ry="3" fill="#ECECFF" stroke="#7B88A8" stroke-width="1" stroke-linejoin="round" stroke-linecap="round"/><text x="428.09" y="618.95" text-anchor="middle" font-family="'trebuchet ms', verdana, arial, sans-serif" font-size="16" fill="#333333"><tspan x="428.09" dy="0.00">Worker 3</tspan></text><rect x="652.00" y="676.74" width="128.90" height="54.00" rx="3" ry="3" fill="#ECECFF" stroke="#7B88A8" stroke-width="1" stroke-linejoin="round" stroke-linecap="round"/><text x="716.45" y="707.74" text-anchor="middle" font-family="'trebuchet ms', verdana, arial, sans-serif" font-size="16" fill="#333333"><tspan x="716.45" dy="0.00">Aggregate</tspan></text><polygon points="716.21,774.23 762.89,820.91 716.21,867.59 669.53,820.91" fill="#ECECFF" stroke="#7B88A8" stroke-width="1" stroke-linejoin="round" stroke-linecap="round"/><text x="716.21" y="824.91" text-anchor="middle" font-family="'trebuchet ms', verdana, arial, sans-serif" font-size="16" fill="#333333"><tspan x="716.21" dy="0.00">Route</tspan></text><rect x="592.20" y="918.72" width="98.28" height="54.00" rx="3" ry="3" fill="#ECECFF" stroke="#7B88A8" stroke-width="1" stroke-linejoin="round" stroke-linecap="round"/><text x="641.34" y="949.72" text-anchor="middle" font-family="'trebuchet ms', verdana, arial, sans-serif" font-size="16" fill="#333333"><tspan x="641.34" dy="0.00">Cache</tspan></text><rect x="733.97" y="918.72" width="113.59" height="54.00" rx="3" ry="3" fill="#ECECFF" stroke="#7B88A8" stroke-width="1" stroke-linejoin="round" stroke-linecap="round"/><text x="790.76" y="949.72" text-anchor="middle" font-family="'trebuchet ms', verdana, arial, sans-serif" font-size="16" fill="#333333"><tspan x="790.76" dy="0.00">Archive</tspan></text><rect x="663.00" y="1008.58" width="105.93" height="54.00" rx="3" ry="3" fill="#ECECFF" stroke="#7B88A8" stroke-width="1" stroke-linejoin="round" stroke-linecap="round"/><text x="715.97" y="1039.58" text-anchor="middle" font-family="'trebuchet ms', verdana, arial, sans-serif" font-size="16" fill="#333333"><tspan x="715.97" dy="0.00">Notify</tspan></text><g transform="translate(725.81 145.49) rotate(90.00)"><polygon points="0,0 -10.40,6.24 -10.40,-6.24" fill="#2F3B4D" stroke="#2F3B4D" stroke-width="2" stroke-linejoin="round" stroke-linecap="round"/></g><g transform="translate(806.07 392.96) rotate(90.00)"><polygon points="0,0 -10.40,6.24 -10.40,-6.24" fill="#2F3B4D" stroke="#2F3B4D" stroke-width="2" stroke-linejoin="round" stroke-linecap="round"/></g><g transform="translate(661.17 311.79) rotate(90.00)"><polygon points="0,0 -10.40,6.24 -10.40,-6.24" fill="#2F3B4D" stroke="#2F3B4D" stroke-width="2" stroke-linejoin="round" stroke-linecap="round"/></g><g transform="translate(313.41 507.62) rotate(180.00)"><polygon points="0,0 -10.40,6.24 -10.40,-6.24" fill="#2F3B4D" stroke="#2F3B4D" stroke-width="2" stroke-linejoin="round" stroke-linecap="round"/></g><g transform="translate(159.24 599.96) rotate(180.00)"><polygon points="0,0 -10.40,6.24 -10.40,-6.24" fill="#2F3B4D" stroke="#2F3B4D" stroke-width="2" stroke-linejoin="round" stroke-linecap="round"/></g><g transform="translate(263.35 587.95) rotate(90.00)"><polygon points="0,0 -10.40,6.24 -10.40,-6.24" fill="#2F3B4D" stroke="#2F3B4D" stroke-width="2" stroke-linejoin="round" stroke-linecap="round"/></g><g transform="translate(367.47 598.95) rotate(0.00)"><polygon points="0,0 -10.40,6.24 -10.40,-6.24" fill="#2F3B4D" stroke="#2F3B4D" stroke-width="2" stroke-linejoin="round" stroke-linecap="round"/></g><g transform="translate(652.00 705.57) rotate(0.00)"><polygon points="0,0 -10.40,6.24 -10.40,-6.24" fill="#2F3B4D" stroke="#2F3B4D" stroke-width="2" stroke-linejoin="round" stroke-linecap="round"/></g><g transform="translate(652.00 697.47) rotate(0.00)"><polygon points="0,0 -10.40,6.24 -10.40,-6.24" fill="#2F3B4D" stroke="#2F3B4D" stroke-width="2" stroke-linejoin="round" stroke-linecap="round"/></g><g transform="translate(652.00 689.37) rotate(0.00)"><polygon points="0,0 -10.40,6.24 -10.40,-6.24" fill="#2F3B4D" stroke="#2F3B4D" stroke-width="2" stroke-linejoin="round" stroke-linecap="round"/></g><g transform="translate(716.21 774.23) rotate(90.00)"><polygon points="0,0 -10.40,6.24 -10.40,-6.24" fill="#2F3B4D" stroke="#2F3B4D" stroke-width="2" stroke-linejoin="round" stroke-linecap="round"/></g><g transform="translate(657.34 918.72) rotate(90.00)"><polygon points="0,0 -10.40,6.24 -10.40,-6.24" fill="#2F3B4D" stroke="#2F3B4D" stroke-width="2" stroke-linejoin="round" stroke-linecap="round"/></g><g transform="translate(774.76 918.72) rotate(90.00)"><polygon points="0,0 -10.40,6.24 -10.40,-6.24" fill="#2F3B4D" stroke="#2F3B4D" stroke-width="2" stroke-linejoin="round" stroke-linecap="round"/></g><g transform="translate(683.97 1008.58) rotate(90.00)"><polygon points="0,0 -10.40,6.24 -10.40,-6.24" fill="#2F3B4D" stroke="#2F3B4D" stroke-width="2" stroke-linejoin="round" stroke-linecap="round"/></g><g transform="translate(747.97 1008.58) rotate(90.00)"><polygon points="0,0 -10.40,6.24 -10.40,-6.24" fill="#2F3B4D" stroke="#2F3B4D" stroke-width="2" stroke-linejoin="round" stroke-linecap="round"/></g><g transform="translate(715.97 1008.58) rotate(90.00)"><polygon points="0,0 -10.40,6.24 -10.40,-6.24" fill="#2F3B4D" stroke="#2F3B4D" stroke-width="2" stroke-linejoin="round" stroke-linecap="round"/></g><g transform="translate(279.71 490.45) rotate(90.00)"><polygon points="0,0 -10.40,6.24 -10.40,-6.24" fill="#2F3B4D" stroke="#2F3B4D" stroke-width="2" stroke-linejoin="round" stroke-linecap="round"/></g><g transform="translate(732.21 790.23) rotate(90.00)"><polygon points="0,0 -10.40,6.24 -10.40,-6.24" fill="#2F3B4D" stroke="#2F3B4D" stroke-width="2" stroke-linejoin="round" stroke-linecap="round"/></g><g transform="translate(592.20 354.79) rotate(0.00)"><polygon points="0,0 -10.40,6.24 -10.40,-6.24" fill="#2F3B4D" stroke="#2F3B4D" stroke-width="2" stroke-linejoin="round" stroke-linecap="round"/></g></svg>