<svg xmlns="http://www.w3.org/2000/svg" width="175.35312" height="852.9139" viewBox="0 0 175.35312 852.9139"><rect x="0" y="0" width="175.35312" height="852.9139" fill="#FFFFFF"/><defs><marker id="arrow-0" viewBox="0 0 10 10" refX="5" refY="5" markerUnits="userSpaceOnUse" markerWidth="8" markerHeight="8" orient="auto"><path d="M 0 0 L 10 5 L 0 10 z" fill="#2F3B4D" stroke="#2F3B4D" stroke-width="1" stroke-dasharray="1,0"/></marker><marker id="arrow-start-0" viewBox="0 0 10 10" refX="4.5" refY="5" markerUnits="userSpaceOnUse" markerWidth="8" markerHeight="8" orient="auto"><path d="M 0 5 L 10 10 L 10 0 z" fill="#2F3B4D" stroke="#2F3B4D" stroke-width="1" stroke-dasharray="1,0"/></marker></defs><rect x="8.84" y="523.22" width="158.28" height="321.69" rx="10" ry="10" fill="#FFFFDE" stroke="#AAAA33" stroke-width="1" /><text x="87.98" y="551.22" text-anchor="middle" font-family="'trebuchet ms', verdana, arial, sans-serif" font-size="16" fill="#333333"><tspan x="87.98" dy="0.00">LoopBlock</tspan></text><path d="M 95.639,62.000 L 95.635,101.845" fill="none" stroke="#2F3B4D" stroke-width="2"    stroke-linecap="round" stroke-linejoin="round" /><path d="M 111.635,186.479L 111.635,187.642C111.635,188.804,111.635,191.128,111.635,193.452C111.635,195.777,111.635,198.101,110.473,199.263C109.311,200.425,106.987,200.425,91.715,200.425C76.443,200.425,48.224,200.425,32.114,200.425C16.004,200.425,12.004,200.425,10.004,202.425C8.004,204.425,8.004,208.425,8.004,212.629C8.004,216.833,8.004,221.241,8.004,225.445C8.004,229.648,8.004,233.648,10.004,235.648C12.004,237.648,16.004,237.648,29.447,237.648C42.889,237.648,65.774,237.648,78.378,237.648C90.983,237.648,93.307,237.648,94.469,238.811C95.631,239.973,95.631,242.297,95.631,244.621C95.631,246.946,95.631,249.270,95.631,250.432L 95.631,251.594" fill="none" stroke="#2F3B4D" stroke-width="2"    stroke-linecap="round" stroke-linejoin="round" /><rect x="3.03" y="196.83" width="31.97" height="28.40" rx="2" ry="2" fill="rgba(248,250,252, 0.92)" fill-opacity="0.95" stroke="#7B88A8" stroke-opacity="0.45" stroke-width="0.8"/><text x="19.02" y="215.03" text-anchor="middle" font-family="'trebuchet ms', verdana, arial, sans-serif" font-size="16" fill="#333333"><tspan x="19.02" dy="0.00">yes</tspan></text><path d="M 95.631,305.594L 95.631,306.757C95.631,307.919,95.631,310.243,95.631,312.567C95.631,314.892,95.631,317.216,94.469,318.378C93.307,319.540,90.983,319.540,77.934,319.540C64.886,319.540,41.114,319.540,27.671,319.540C14.228,319.540,11.114,319.540,9.557,321.097C8.000,322.654,8.000,325.768,8.000,327.325C8.000,328.882,8.000,328.882,8.000,330.439C8.000,331.996,8.000,335.110,9.557,336.667C11.114,338.224,14.228,338.224,30.337,338.224C46.446,338.224,75.550,338.224,91.264,338.224C106.978,338.224,109.303,338.224,110.465,339.387C111.627,340.549,111.627,342.873,111.627,345.197C111.627,347.522,111.627,349.846,111.627,351.008L 111.627,352.170" fill="none" stroke="#2F3B4D" stroke-width="2"    stroke-linecap="round" stroke-linejoin="round" /><path d="M 95.627,336.170L 95.627,335.008C95.627,333.846,95.627,331.522,95.627,329.197C95.627,326.873,95.627,324.549,96.789,323.387C97.951,322.224,100.276,322.224,110.230,322.224C120.184,322.224,137.769,322.224,148.561,322.224C159.353,322.224,163.353,322.224,165.353,320.224C167.353,318.224,167.353,314.224,167.353,298.591C167.353,282.958,167.353,255.692,167.353,240.059C167.353,224.425,167.353,220.425,165.353,218.425C163.353,216.425,159.353,216.425,148.562,216.425C137.772,216.425,120.190,216.425,110.237,216.425C100.284,216.425,97.960,216.425,96.798,215.263C95.635,214.101,95.635,211.777,95.635,209.452C95.635,207.128,95.635,204.804,95.635,203.642L 95.635,202.479" fill="none" stroke="#2F3B4D" stroke-width="2"    stroke-linecap="round" stroke-linejoin="round" /><rect x="140.36" y="211.38" width="31.97" height="28.40" rx="2" ry="2" fill="rgba(248,250,252, 0.92)" fill-opacity="0.95" stroke="#7B88A8" stroke-opacity="0.45" stroke-width="0.8"/><text x="156.34" y="229.58" text-anchor="middle" font-family="'trebuchet ms', verdana, arial, sans-serif" font-size="16" fill="#333333"><tspan x="156.34" dy="0.00">yes</tspan></text><path d="M 95.627,429.532 L 95.623,478.647" fill="none" stroke="#2F3B4D" stroke-width="2"    stroke-linecap="round" stroke-linejoin="round" /><rect x="83.47" y="439.89" width="24.31" height="28.40" rx="2" ry="2" fill="rgba(248,250,252, 0.92)" fill-opacity="0.95" stroke="#7B88A8" stroke-opacity="0.45" stroke-width="0.8"/><text x="95.63" y="458.09" text-anchor="middle" font-family="'trebuchet ms', verdana, arial, sans-serif" font-size="16" fill="#333333"><tspan x="95.63" dy="0.00">no</tspan></text><path d="M 87.980,617.223 L 87.977,657.068" fill="none" stroke="#2F3B4D" stroke-width="2"    stroke-linecap="round" stroke-linejoin="round" /><path d="M 87.977,711.068 L 87.976,750.914" fill="none" stroke="#2F3B4D" stroke-width="2"    stroke-linecap="round" stroke-linejoin="round" /><path d="M 103.976,750.914L 103.976,749.752C103.976,748.590,103.976,746.265,103.976,743.941C103.976,741.617,103.976,739.292,105.138,738.130C106.300,736.968,108.625,736.968,114.594,736.968C120.564,736.968,130.178,736.968,136.985,736.968C143.792,736.968,147.792,736.968,149.792,734.968C151.792,732.968,151.792,728.968,151.792,713.335C151.792,697.702,151.792,670.435,151.792,654.802C151.792,639.169,151.792,635.169,149.792,633.169C147.792,631.169,143.792,631.169,136.986,631.169C130.179,631.169,120.566,631.169,114.597,631.169C108.628,631.169,106.304,631.169,105.142,630.007C103.980,628.845,103.980,626.520,103.980,624.196C103.980,621.872,103.980,619.547,103.980,618.385L 103.980,617.223" fill="none" stroke="#2F3B4D" stroke-width="2"    stroke-linecap="round" stroke-linejoin="round" /><path d="M 95.623,532.647L 95.623,534.296C95.623,535.945,95.623,539.244,95.623,541.568C95.623,543.893,95.623,545.243,94.986,546.142C94.349,547.040,93.075,547.488,92.438,547.711C91.801,547.935,91.801,547.935,91.164,548.159C90.527,548.382,89.254,548.830,88.617,549.728C87.980,550.627,87.980,551.977,87.980,554.302C87.980,556.626,87.980,559.925,87.980,561.574L 87.980,563.223" fill="none" stroke="#2F3B4D" stroke-width="2"    stroke-linecap="round" stroke-linejoin="round" /><rect x="46.50" y="8.00" width="98.28" height="54.00" rx="3" ry="3" fill="#ECECFF" stroke="#7B88A8" stroke-width="1" stroke-linejoin="round" stroke-linecap="round"/><text x="95.64" y="39.00" text-anchor="middle" font-family="'trebuchet ms', verdana, arial, sans-serif" font-size="16" fill="#333333"><tspan x="95.64" dy="0.00">Start</tspan></text><polygon points="95.64,101.85 145.95,152.16 95.64,202.48 45.32,152.16" fill="#ECECFF" stroke="#7B88A8" stroke-width="1" stroke-linejoin="round" stroke-linecap="round"/><text x="95.64" y="156.16" text-anchor="middle" font-family="'trebuchet ms', verdana, arial, sans-serif" font-size="16" fill="#333333"><tspan x="95.64" dy="0.00">Decide</tspan></text><rect x="38.84" y="251.59" width="113.59" height="54.00" rx="3" ry="3" fill="#ECECFF" stroke="#7B88A8" stroke-width="1" stroke-linejoin="round" stroke-linecap="round"/><text x="95.63" y="282.59" text-anchor="middle" font-family="'trebuchet ms', verdana, arial, sans-serif" font-size="16" fill="#333333"><tspan x="95.63" dy="0.00">Do work</tspan></text><polygon points="95.63,336.17 142.31,382.85 95.63,429.53 48.95,382.85" fill="#ECECFF" stroke="#7B88A8" stroke-width="1" stroke-linejoin="round" stroke-linecap="round"/><text x="95.63" y="386.85" text-anchor="middle" font-family="'trebuchet ms', verdana, arial, sans-serif" font-size="16" fill="#333333"><tspan x="95.63" dy="0.00">More?</tspan></text><rect x="53.95" y="478.65" width="83.34" height="54.00" rx="3" ry="3" fill="#ECECFF" stroke="#7B88A8" stroke-width="1" stroke-linejoin="round" stroke-linecap="round"/><text x="95.62" y="509.65" text-anchor="middle" font-family="'trebuchet ms', verdana, arial, sans-serif" font-size="16" fill="#333333"><tspan x="95.62" dy="0.00">End</tspan></text><rect x="45.58" y="563.22" width="84.80" height="54.00" rx="3" ry="3" fill="#ECECFF" stroke="#7B88A8" stroke-width="1" stroke-linejoin="round" stroke-linecap="round"/><text x="87.98" y="594.22" text-anchor="middle" font-family="'trebuchet ms', verdana, arial, sans-serif" font-size="16" fill="#333333"><tspan x="87.98" dy="0.00">One</tspan></text><rect x="45.59" y="657.07" width="84.78" height="54.00" rx="3" ry="3" fill="#ECECFF" stroke="#7B88A8" stroke-width="1" stroke-linejoin="round" stroke-linecap="round"/><text x="87.98" y="688.07" text-anchor="middle" font-family="'trebuchet ms', verdana, arial, sans-serif" font-size="16" fill="#333333"><tspan x="87.98" dy="0.00">Two</tspan></text><rect x="38.84" y="750.91" width="98.28" height="54.00" rx="3" ry="3" fill="#ECECFF" stroke="#7B88A8" stroke-width="1" stroke-linejoin="round" stroke-linecap="round"/><text x="87.98" y="781.91" text-anchor="middle" font-family="'trebuchet ms', verdana, arial, sans-serif" font-size="16" fill="#333333"><tspan x="87.98" dy="0.00">Three</tspan></text><g transform="translate(95.64 101.85) rotate(90.00)"><polygon points="0,0 -10.40,6.24 -10.40,-6.24" fill="#2F3B4D" stroke="#2F3B4D" stroke-width="2" stroke-linejoin="round" stroke-linecap="round"/></g><g transform="translate(95.63 251.59) rotate(90.00)"><polygon points="0,0 -10.40,6.24 -10.40,-6.24" fill="#2F3B4D" stroke="#2F3B4D" stroke-width="2" stroke-linejoin="round" stroke-linecap="round"/></g><g transform="translate(111.63 352.17) rotate(90.00)"><polygon points="0,0 -10.40,6.24 -10.40,-6.24" fill="#2F3B4D" stroke="#2F3B4D" stroke-width="2" stroke-linejoin="round" stroke-linecap="round"/></g><g transform="translate(95.64 202.48) rotate(-90.00)"><polygon points="0,0 -10.40,6.24 -10.40,-6.24" fill="#2F3B4D" stroke="#2F3B4D" stroke-width="2" stroke-linejoin="round" stroke-linecap="round"/></g><g transform="translate(95.62 478.65) rotate(90.00)"><polygon points="0,0 -10.40,6.24 -10.40,-6.24" fill="#2F3B4D" stroke="#2F3B4D" stroke-width="2" stroke-linejoin="round" stroke-linecap="round"/></g><g transform="translate(87.98 657.07) rotate(90.00)"><polygon points="0,0 -10.40,6.24 -10.40,-6.24" fill="#2F3B4D" stroke="#2F3B4D" stroke-width="2" stroke-linejoin="round" stroke-linecap="round"/></g><g transform="translate(87.98 750.91) rotate(90.00)"><polygon points="0,0 -10.40,6.24 -10.40,-6.24" fill="#2F3B4D" stroke="#2F3B4D" stroke-width="2" stroke-linejoin="round" stroke-linecap="round"/></g><g transform="translate(103.98 617.22) rotate(-90.00)"><polygon points="0,0 -10.40,6.24 -10.40,-6.24" fill="#2F3B4D" stroke="#2F3B4D" stroke-width="2" stroke-linejoin="round" stroke-linecap="round"/></g><g transform="translate(87.98 563.22) rotate(90.00)"><polygon points="0,0 -10.40,6.24 -10.40,-6.24" fill="#2F3B4D" stroke="#2F3B4D" stroke-width="2" stroke-linejoin="round" stroke-linecap="round"/></g></svg>