<svg xmlns="http://www.w3.org/2000/svg" width="2025.1124" height="166.03308" viewBox="0 0 2025.1124 166.03308"><rect x="0" y="0" width="2025.1124" height="166.03308" fill="#FFFFFF"/><defs><marker id="arrow-0" viewBox="0 0 10 10" refX="5" refY="5" markerUnits="userSpaceOnUse" markerWidth="8" markerHeight="8" orient="auto"><path d="M 0 0 L 10 5 L 0 10 z" fill="#2F3B4D" stroke="#2F3B4D" stroke-width="1" stroke-dasharray="1,0"/></marker><marker id="arrow-start-0" viewBox="0 0 10 10" refX="4.5" refY="5" markerUnits="userSpaceOnUse" markerWidth="8" markerHeight="8" orient="auto"><path d="M 0 5 L 10 10 L 10 0 z" fill="#2F3B4D" stroke="#2F3B4D" stroke-width="1" stroke-dasharray="1,0"/></marker></defs><path d="M 106.275,51.000L 107.501,51.000C108.727,51.000,111.179,51.000,113.631,51.000C116.083,51.000,118.535,51.000,120.924,51.388C123.313,51.777,125.638,52.554,136.784,56.277C147.929,60.000,167.895,66.669,179.041,70.393C190.186,74.116,192.512,74.893,194.901,75.281C197.289,75.669,199.741,75.669,202.193,75.669C204.645,75.669,207.097,75.669,208.323,75.669L 209.549,75.669" fill="none" stroke="#2F3B4D" stroke-width="2"    stroke-linecap="round" stroke-linejoin="round" /><path d="M 402.823,62.000L 402.823,63.354C402.823,64.708,402.823,67.415,402.823,69.867C402.823,72.319,402.823,74.515,402.504,76.664C402.185,78.813,401.547,80.915,401.228,81.966C400.909,83.017,400.909,83.017,400.590,84.067C400.271,85.118,399.633,87.220,399.314,89.369C398.995,91.518,398.995,93.714,398.995,96.166C398.995,98.618,398.995,101.326,398.995,102.679L 398.995,104.033" fill="none" stroke="#2F3B4D" stroke-width="2"   stroke-dasharray="2" stroke-linecap="round" stroke-linejoin="round" /><path d="M 596.097,63.144L 597.323,63.144C598.549,63.144,601.000,63.144,603.452,63.144C605.904,63.144,608.356,63.144,610.728,62.707C613.099,62.271,615.391,61.397,626.553,57.143C637.716,52.889,657.751,45.254,668.913,41.000C680.076,36.746,682.367,35.873,684.739,35.437C687.111,35.000,689.562,35.000,692.014,35.000C694.466,35.000,696.918,35.000,698.144,35.000L 699.370,35.000" fill="none" stroke="#2F3B4D" stroke-width="3.5"    stroke-linecap="round" stroke-linejoin="round" /><path d="M 999.195,47.144L 1000.421,47.144C1001.647,47.144,1004.099,47.144,1006.551,47.144C1009.002,47.144,1011.454,47.144,1013.563,46.293C1015.672,45.443,1017.439,43.742,1018.657,42.569C1019.876,41.395,1020.547,40.749,1021.765,39.575C1022.984,38.402,1024.750,36.701,1026.859,35.850C1028.968,35.000,1031.420,35.000,1033.872,35.000C1036.324,35.000,1038.776,35.000,1040.002,35.000L 1041.228,35.000" fill="none" stroke="#2F3B4D" stroke-width="2"    stroke-linecap="round" stroke-linejoin="round" /><path d="M 1310.432,63.144L 1311.658,63.144C1312.884,63.144,1315.336,63.144,1317.788,63.144C1320.240,63.144,1322.692,63.144,1324.879,62.383C1327.067,61.622,1328.989,60.101,1333.957,56.171C1338.925,52.241,1346.937,45.902,1351.905,41.973C1356.873,38.043,1358.796,36.521,1360.983,35.761C1363.171,35.000,1365.623,35.000,1368.075,35.000C1370.526,35.000,1372.978,35.000,1374.204,35.000L 1375.430,35.000" fill="none" stroke="#2F3B4D" stroke-width="2"    stroke-linecap="round" stroke-linejoin="round" /><path d="M 1580.187,62.000L 1580.187,63.226C1580.187,64.452,1580.187,66.904,1580.187,69.356C1580.187,71.808,1580.187,74.260,1579.361,76.392C1578.536,78.525,1576.885,80.337,1575.797,81.533C1574.708,82.728,1574.182,83.305,1573.094,84.500C1572.006,85.696,1570.355,87.509,1569.530,89.641C1568.704,91.773,1568.704,94.225,1568.704,96.677C1568.704,99.129,1568.704,101.581,1568.704,102.807L 1568.704,104.033" fill="none" stroke="#2F3B4D" stroke-width="2"   stroke-dasharray="2" stroke-linecap="round" stroke-linejoin="round" /><path d="M 1830.874,63.144L 1832.099,63.144C1833.326,63.144,1835.777,63.144,1838.229,63.144C1840.681,63.144,1843.133,63.144,1845.320,62.383C1847.508,61.622,1849.431,60.101,1854.399,56.171C1859.366,52.241,1867.379,45.903,1872.347,41.973C1877.314,38.043,1879.237,36.521,1881.425,35.761C1883.612,35.000,1886.064,35.000,1888.516,35.000C1890.968,35.000,1893.420,35.000,1894.646,35.000L 1895.872,35.000" fill="none" stroke="#2F3B4D" stroke-width="3.5"    stroke-linecap="round" stroke-linejoin="round" /><rect x="8.00" y="8.00" width="98.28" height="54.00" rx="3" ry="3" fill="#ECECFF" stroke="#7B88A8" stroke-width="1" stroke-linejoin="round" stroke-linecap="round"/><text x="57.14" y="39.00" text-anchor="middle" font-family="'trebuchet ms', verdana, arial, sans-serif" font-size="16" fill="#333333"><tspan x="57.14" dy="0.00">Solid</tspan></text><rect x="209.55" y="64.67" width="98.28" height="54.00" rx="3" ry="3" fill="#ECECFF" stroke="#7B88A8" stroke-width="1" stroke-linejoin="round" stroke-linecap="round"/><text x="258.69" y="95.67" text-anchor="middle" font-family="'trebuchet ms', verdana, arial, sans-serif" font-size="16" fill="#333333"><tspan x="258.69" dy="0.00">Arrow</tspan></text><rect x="349.86" y="8.00" width="105.93" height="54.00" rx="3" ry="3" fill="#ECECFF" stroke="#7B88A8" stroke-width="1" stroke-linejoin="round" stroke-linecap="round"/><text x="402.82" y="39.00" text-anchor="middle" font-family="'trebuchet ms', verdana, arial, sans-serif" font-size="16" fill="#333333"><tspan x="402.82" dy="0.00">Dotted</tspan></text><rect x="349.86" y="104.03" width="98.28" height="54.00" rx="3" ry="3" fill="#ECECFF" stroke="#7B88A8" stroke-width="1" stroke-linejoin="round" stroke-linecap="round"/><text x="399.00" y="135.03" text-anchor="middle" font-family="'trebuchet ms', verdana, arial, sans-serif" font-size="16" fill="#333333"><tspan x="399.00" dy="0.00">Arrow</tspan></text><rect x="497.82" y="36.14" width="98.28" height="54.00" rx="3" ry="3" fill="#ECECFF" stroke="#7B88A8" stroke-width="1" stroke-linejoin="round" stroke-linecap="round"/><text x="546.96" y="67.14" text-anchor="middle" font-family="'trebuchet ms', verdana, arial, sans-serif" font-size="16" fill="#333333"><tspan x="546.96" dy="0.00">Thick</tspan></text><rect x="699.37" y="8.00" width="98.28" height="54.00" rx="3" ry="3" fill="#ECECFF" stroke="#7B88A8" stroke-width="1" stroke-linejoin="round" stroke-linecap="round"/><text x="748.51" y="39.00" text-anchor="middle" font-family="'trebuchet ms', verdana, arial, sans-serif" font-size="16" fill="#333333"><tspan x="748.51" dy="0.00">Arrow</tspan></text><rect x="839.68" y="36.14" width="159.52" height="54.00" rx="3" ry="3" fill="#ECECFF" stroke="#7B88A8" stroke-width="1" stroke-linejoin="round" stroke-linecap="round"/><text x="919.44" y="67.14" text-anchor="middle" font-family="'trebuchet ms', verdana, arial, sans-serif" font-size="16" fill="#333333"><tspan x="919.44" dy="0.00">Bidirectional</tspan></text><rect x="1041.23" y="8.00" width="90.62" height="54.00" rx="3" ry="3" fill="#ECECFF" stroke="#7B88A8" stroke-width="1" stroke-linejoin="round" stroke-linecap="round"/><text x="1086.54" y="39.00" text-anchor="middle" font-family="'trebuchet ms', verdana, arial, sans-serif" font-size="16" fill="#333333"><tspan x="1086.54" dy="0.00">Both</tspan></text><rect x="1173.88" y="36.14" width="136.55" height="54.00" rx="3" ry="3" fill="#ECECFF" stroke="#7B88A8" stroke-width="1" stroke-linejoin="round" stroke-linecap="round"/><text x="1242.16" y="67.14" text-anchor="middle" font-family="'trebuchet ms', verdana, arial, sans-serif" font-size="16" fill="#333333"><tspan x="1242.16" dy="0.00">Undirected</tspan></text><rect x="1375.43" y="8.00" width="90.62" height="54.00" rx="3" ry="3" fill="#ECECFF" stroke="#7B88A8" stroke-width="1" stroke-linejoin="round" stroke-linecap="round"/><text x="1420.74" y="39.00" text-anchor="middle" font-family="'trebuchet ms', verdana, arial, sans-serif" font-size="16" fill="#333333"><tspan x="1420.74" dy="0.00">Line</tspan></text><rect x="1508.08" y="8.00" width="144.21" height="54.00" rx="3" ry="3" fill="#ECECFF" stroke="#7B88A8" stroke-width="1" stroke-linejoin="round" stroke-linecap="round"/><text x="1580.19" y="39.00" text-anchor="middle" font-family="'trebuchet ms', verdana, arial, sans-serif" font-size="16" fill="#333333"><tspan x="1580.19" dy="0.00">Dotted Line</tspan></text><rect x="1508.08" y="104.03" width="121.24" height="54.00" rx="3" ry="3" fill="#ECECFF" stroke="#7B88A8" stroke-width="1" stroke-linejoin="round" stroke-linecap="round"/><text x="1568.70" y="135.03" text-anchor="middle" font-family="'trebuchet ms', verdana, arial, sans-serif" font-size="16" fill="#333333"><tspan x="1568.70" dy="0.00">No Arrow</tspan></text><rect x="1694.32" y="36.14" width="136.55" height="54.00" rx="3" ry="3" fill="#ECECFF" stroke="#7B88A8" stroke-width="1" stroke-linejoin="round" stroke-linecap="round"/><text x="1762.60" y="67.14" text-anchor="middle" font-family="'trebuchet ms', verdana, arial, sans-serif" font-size="16" fill="#333333"><tspan x="1762.60" dy="0.00">Thick Line</tspan></text><rect x="1895.87" y="8.00" width="121.24" height="54.00" rx="3" ry="3" fill="#ECECFF" stroke="#7B88A8" stroke-width="1" stroke-linejoin="round" stroke-linecap="round"/><text x="1956.49" y="39.00" text-anchor="middle" font-family="'trebuchet ms', verdana, arial, sans-serif" font-size="16" fill="#333333"><tspan x="1956.49" dy="0.00">No Arrow</tspan></text><g transform="translate(209.55 75.67) rotate(0.00)"><polygon points="0,0 -10.40,6.24 -10.40,-6.24" fill="#2F3B4D" stroke="#2F3B4D" stroke-width="2" stroke-linejoin="round" stroke-linecap="round"/></g><g transform="translate(399.00 104.03) rotate(90.00)"><polygon points="0,0 -10.40,6.24 -10.40,-6.24" fill="#2F3B4D" stroke="#2F3B4D" stroke-width="2" stroke-linejoin="round" stroke-linecap="round"/></g><g transform="translate(699.37 35.00) rotate(0.00)"><polygon points="0,0 -13.70,8.22 -13.70,-8.22" fill="#2F3B4D" stroke="#2F3B4D" stroke-width="3.5" stroke-linejoin="round" stroke-linecap="round"/></g><g transform="translate(999.19 47.14) rotate(0.00)"><polygon points="0,0 -10.40,6.24 -10.40,-6.24" fill="#2F3B4D" stroke="#2F3B4D" stroke-width="2" stroke-linejoin="round" stroke-linecap="round"/></g><g transform="translate(1041.23 35.00) rotate(0.00)"><polygon points="0,0 -10.40,6.24 -10.40,-6.24" fill="#2F3B4D" stroke="#2F3B4D" stroke-width="2" stroke-linejoin="round" stroke-linecap="round"/></g></svg>