<svg xmlns="http://www.w3.org/2000/svg" width="2025.1124" height="550.1654" viewBox="0 0 2025.1124 550.1654"><rect x="0" y="0" width="2025.1124" height="550.1654" fill="#FFFFFF"/><defs><marker id="arrow-0" viewBox="0 0 10 10" refX="5" refY="5" markerUnits="userSpaceOnUse" markerWidth="8" markerHeight="8" orient="auto"><path d="M 0 0 L 10 5 L 0 10 z" fill="#2F3B4D" stroke="#2F3B4D" stroke-width="1" stroke-dasharray="1,0"/></marker><marker id="arrow-start-0" viewBox="0 0 10 10" refX="4.5" refY="5" markerUnits="userSpaceOnUse" markerWidth="8" markerHeight="8" orient="auto"><path d="M 0 5 L 10 10 L 10 0 z" fill="#2F3B4D" stroke="#2F3B4D" stroke-width="1" stroke-dasharray="1,0"/></marker></defs><path d="M 106.275,35.000L 107.501,35.000C108.727,35.000,111.179,35.000,113.631,35.000C116.083,35.000,118.535,35.000,120.987,35.001C123.439,35.003,125.891,35.005,136.973,35.018C148.056,35.030,167.769,35.052,178.851,35.064C189.934,35.077,192.386,35.080,194.838,35.081C197.289,35.082,199.741,35.082,202.193,35.082C204.645,35.082,207.097,35.082,208.323,35.082L 209.549,35.082" fill="none" stroke="#2F3B4D" stroke-width="2"    stroke-linecap="round" stroke-linejoin="round" /><path d="M 402.823,62.000L 402.823,63.226C402.823,64.452,402.823,66.904,402.823,69.356C402.823,71.808,402.823,74.260,402.811,76.712C402.799,79.163,402.776,81.615,402.149,146.513C401.523,211.411,400.295,338.755,399.669,403.652C399.043,468.550,399.019,471.002,399.007,473.454C398.995,475.906,398.995,478.358,398.995,480.810C398.995,483.262,398.995,485.714,398.995,486.939L 398.995,488.165" fill="none" stroke="#2F3B4D" stroke-width="2"   stroke-dasharray="2" stroke-linecap="round" stroke-linejoin="round" /><path d="M 596.097,35.015L 597.323,35.015C598.549,35.015,601.000,35.015,603.452,35.015C605.904,35.015,608.356,35.015,610.808,35.015C613.260,35.014,615.712,35.014,626.794,35.012C637.877,35.009,657.590,35.005,668.672,35.003C679.755,35.001,682.207,35.000,684.659,35.000C687.111,35.000,689.562,35.000,692.014,35.000C694.466,35.000,696.918,35.000,698.144,35.000L 699.370,35.000" fill="none" stroke="#2F3B4D" stroke-width="3.5"    stroke-linecap="round" stroke-linejoin="round" /><path d="M 999.195,35.015L 1000.596,35.015C1001.997,35.015,1004.799,35.015,1007.251,35.015C1009.703,35.015,1011.805,35.015,1013.906,35.014C1016.008,35.012,1018.110,35.010,1019.160,35.009C1020.211,35.007,1020.211,35.007,1021.262,35.006C1022.313,35.005,1024.414,35.002,1026.516,35.001C1028.618,35.000,1030.719,35.000,1033.171,35.000C1035.623,35.000,1038.426,35.000,1039.827,35.000L 1041.228,35.000" fill="none" stroke="#2F3B4D" stroke-width="2"    stroke-linecap="round" stroke-linejoin="round" /><path d="M 1310.432,35.015L 1311.658,35.015C1312.884,35.015,1315.336,35.015,1317.788,35.015C1320.240,35.015,1322.692,35.015,1325.144,35.014C1327.595,35.014,1330.047,35.013,1334.751,35.011C1339.454,35.009,1346.408,35.006,1351.112,35.004C1355.815,35.002,1358.267,35.001,1360.719,35.001C1363.171,35.000,1365.623,35.000,1368.075,35.000C1370.526,35.000,1372.978,35.000,1374.204,35.000L 1375.430,35.000" fill="none" stroke="#2F3B4D" stroke-width="2"    stroke-linecap="round" stroke-linejoin="round" /><path d="M 1580.187,62.000L 1580.187,63.226C1580.187,64.452,1580.187,66.904,1580.187,69.356C1580.187,71.808,1580.187,74.260,1579.361,76.392C1578.536,78.525,1576.885,80.337,1575.797,81.533C1574.708,82.728,1574.182,83.305,1573.094,84.500C1572.006,85.696,1570.355,87.509,1569.530,89.641C1568.704,91.773,1568.704,94.225,1568.704,96.677C1568.704,99.129,1568.704,101.581,1568.704,102.807L 1568.704,104.033" fill="none" stroke="#2F3B4D" stroke-width="2"   stroke-dasharray="2" stroke-linecap="round" stroke-linejoin="round" /><path d="M 1830.874,35.015L 1832.099,35.015C1833.326,35.015,1835.777,35.015,1838.229,35.015C1840.681,35.015,1843.133,35.015,1845.585,35.014C1848.037,35.014,1850.489,35.013,1855.192,35.011C1859.895,35.009,1866.850,35.006,1871.553,35.004C1876.256,35.002,1878.708,35.001,1881.160,35.001C1883.612,35.000,1886.064,35.000,1888.516,35.000C1890.968,35.000,1893.420,35.000,1894.646,35.000L 1895.872,35.000" fill="none" stroke="#2F3B4D" stroke-width="3.5"    stroke-linecap="round" stroke-linejoin="round" /><rect x="8.00" y="8.00" width="98.28" height="54.00" rx="3" ry="3" fill="#ECECFF" stroke="#7B88A8" stroke-width="1" stroke-linejoin="round" stroke-linecap="round"/><text x="57.14" y="39.00" text-anchor="middle" font-family="'trebuchet ms', verdana, arial, sans-serif" font-size="16" fill="#333333"><tspan x="57.14" dy="0.00">Solid</tspan></text><rect x="209.55" y="8.08" width="98.28" height="54.00" rx="3" ry="3" fill="#ECECFF" stroke="#7B88A8" stroke-width="1" stroke-linejoin="round" stroke-linecap="round"/><text x="258.69" y="39.08" text-anchor="middle" font-family="'trebuchet ms', verdana, arial, sans-serif" font-size="16" fill="#333333"><tspan x="258.69" dy="0.00">Arrow</tspan></text><rect x="349.86" y="8.00" width="105.93" height="54.00" rx="3" ry="3" fill="#ECECFF" stroke="#7B88A8" stroke-width="1" stroke-linejoin="round" stroke-linecap="round"/><text x="402.82" y="39.00" text-anchor="middle" font-family="'trebuchet ms', verdana, arial, sans-serif" font-size="16" fill="#333333"><tspan x="402.82" dy="0.00">Dotted</tspan></text><rect x="349.86" y="488.17" width="98.28" height="54.00" rx="3" ry="3" fill="#ECECFF" stroke="#7B88A8" stroke-width="1" stroke-linejoin="round" stroke-linecap="round"/><text x="399.00" y="519.17" text-anchor="middle" font-family="'trebuchet ms', verdana, arial, sans-serif" font-size="16" fill="#333333"><tspan x="399.00" dy="0.00">Arrow</tspan></text><rect x="497.82" y="8.01" width="98.28" height="54.00" rx="3" ry="3" fill="#ECECFF" stroke="#7B88A8" stroke-width="1" stroke-linejoin="round" stroke-linecap="round"/><text x="546.96" y="39.01" text-anchor="middle" font-family="'trebuchet ms', verdana, arial, sans-serif" font-size="16" fill="#333333"><tspan x="546.96" dy="0.00">Thick</tspan></text><rect x="699.37" y="8.00" width="98.28" height="54.00" rx="3" ry="3" fill="#ECECFF" stroke="#7B88A8" stroke-width="1" stroke-linejoin="round" stroke-linecap="round"/><text x="748.51" y="39.00" text-anchor="middle" font-family="'trebuchet ms', verdana, arial, sans-serif" font-size="16" fill="#333333"><tspan x="748.51" dy="0.00">Arrow</tspan></text><rect x="839.68" y="8.01" width="159.52" height="54.00" rx="3" ry="3" fill="#ECECFF" stroke="#7B88A8" stroke-width="1" stroke-linejoin="round" stroke-linecap="round"/><text x="919.44" y="39.01" text-anchor="middle" font-family="'trebuchet ms', verdana, arial, sans-serif" font-size="16" fill="#333333"><tspan x="919.44" dy="0.00">Bidirectional</tspan></text><rect x="1041.23" y="8.00" width="90.62" height="54.00" rx="3" ry="3" fill="#ECECFF" stroke="#7B88A8" stroke-width="1" stroke-linejoin="round" stroke-linecap="round"/><text x="1086.54" y="39.00" text-anchor="middle" font-family="'trebuchet ms', verdana, arial, sans-serif" font-size="16" fill="#333333"><tspan x="1086.54" dy="0.00">Both</tspan></text><rect x="1173.88" y="8.01" width="136.55" height="54.00" rx="3" ry="3" fill="#ECECFF" stroke="#7B88A8" stroke-width="1" stroke-linejoin="round" stroke-linecap="round"/><text x="1242.16" y="39.01" text-anchor="middle" font-family="'trebuchet ms', verdana, arial, sans-serif" font-size="16" fill="#333333"><tspan x="1242.16" dy="0.00">Undirected</tspan></text><rect x="1375.43" y="8.00" width="90.62" height="54.00" rx="3" ry="3" fill="#ECECFF" stroke="#7B88A8" stroke-width="1" stroke-linejoin="round" stroke-linecap="round"/><text x="1420.74" y="39.00" text-anchor="middle" font-family="'trebuchet ms', verdana, arial, sans-serif" font-size="16" fill="#333333"><tspan x="1420.74" dy="0.00">Line</tspan></text><rect x="1508.08" y="8.00" width="144.21" height="54.00" rx="3" ry="3" fill="#ECECFF" stroke="#7B88A8" stroke-width="1" stroke-linejoin="round" stroke-linecap="round"/><text x="1580.19" y="39.00" text-anchor="middle" font-family="'trebuchet ms', verdana, arial, sans-serif" font-size="16" fill="#333333"><tspan x="1580.19" dy="0.00">Dotted Line</tspan></text><rect x="1508.08" y="104.03" width="121.24" height="54.00" rx="3" ry="3" fill="#ECECFF" stroke="#7B88A8" stroke-width="1" stroke-linejoin="round" stroke-linecap="round"/><text x="1568.70" y="135.03" text-anchor="middle" font-family="'trebuchet ms', verdana, arial, sans-serif" font-size="16" fill="#333333"><tspan x="1568.70" dy="0.00">No Arrow</tspan></text><rect x="1694.32" y="8.01" width="136.55" height="54.00" rx="3" ry="3" fill="#ECECFF" stroke="#7B88A8" stroke-width="1" stroke-linejoin="round" stroke-linecap="round"/><text x="1762.60" y="39.01" text-anchor="middle" font-family="'trebuchet ms', verdana, arial, sans-serif" font-size="16" fill="#333333"><tspan x="1762.60" dy="0.00">Thick Line</tspan></text><rect x="1895.87" y="8.00" width="121.24" height="54.00" rx="3" ry="3" fill="#ECECFF" stroke="#7B88A8" stroke-width="1" stroke-linejoin="round" stroke-linecap="round"/><text x="1956.49" y="39.00" text-anchor="middle" font-family="'trebuchet ms', verdana, arial, sans-serif" font-size="16" fill="#333333"><tspan x="1956.49" dy="0.00">No Arrow</tspan></text><g transform="translate(209.55 35.08) rotate(0.00)"><polygon points="0,0 -10.40,6.24 -10.40,-6.24" fill="#2F3B4D" stroke="#2F3B4D" stroke-width="2" stroke-linejoin="round" stroke-linecap="round"/></g><g transform="translate(399.00 488.17) rotate(90.00)"><polygon points="0,0 -10.40,6.24 -10.40,-6.24" fill="#2F3B4D" stroke="#2F3B4D" stroke-width="2" stroke-linejoin="round" stroke-linecap="round"/></g><g transform="translate(699.37 35.00) rotate(0.00)"><polygon points="0,0 -13.70,8.22 -13.70,-8.22" fill="#2F3B4D" stroke="#2F3B4D" stroke-width="3.5" stroke-linejoin="round" stroke-linecap="round"/></g><g transform="translate(999.19 35.01) rotate(180.00)"><polygon points="0,0 -10.40,6.24 -10.40,-6.24" fill="#2F3B4D" stroke="#2F3B4D" stroke-width="2" stroke-linejoin="round" stroke-linecap="round"/></g><g transform="translate(1041.23 35.00) rotate(0.00)"><polygon points="0,0 -10.40,6.24 -10.40,-6.24" fill="#2F3B4D" stroke="#2F3B4D" stroke-width="2" stroke-linejoin="round" stroke-linecap="round"/></g></svg>