<svg xmlns="http://www.w3.org/2000/svg" width="280.33435" height="625.5427" viewBox="0 0 280.33435 625.5427"><rect x="0" y="0" width="280.33435" height="625.5427" fill="#FFFFFF"/><defs><marker id="arrow-0" viewBox="0 0 10 10" refX="5" refY="5" markerUnits="userSpaceOnUse" markerWidth="8" markerHeight="8" orient="auto"><path d="M 0 0 L 10 5 L 0 10 z" fill="#2F3B4D" stroke="#2F3B4D" stroke-width="1" stroke-dasharray="1,0"/></marker><marker id="arrow-start-0" viewBox="0 0 10 10" refX="4.5" refY="5" markerUnits="userSpaceOnUse" markerWidth="8" markerHeight="8" orient="auto"><path d="M 0 5 L 10 10 L 10 0 z" fill="#2F3B4D" stroke="#2F3B4D" stroke-width="1" stroke-dasharray="1,0"/></marker></defs><path d="M 138.261,106.275 L 138.259,151.094" fill="none" stroke="#2F3B4D" stroke-width="2"    stroke-linecap="round" stroke-linejoin="round" /><path d="M 138.259,205.094 L 138.257,249.912" fill="none" stroke="#2F3B4D" stroke-width="2"    stroke-linecap="round" stroke-linejoin="round" /><path d="M 170.257,318.546L 170.257,319.853C170.257,321.160,170.257,323.775,170.257,326.389C170.257,329.004,170.257,331.618,170.866,334.082C171.476,336.545,172.695,338.858,178.722,350.294C184.749,361.729,195.584,382.288,201.399,393.320C207.214,404.352,208.007,405.858,207.633,406.971C207.258,408.083,205.715,408.802,204.943,409.162C204.171,409.521,204.171,409.521,203.400,409.881C202.628,410.240,201.085,410.959,200.313,412.170C199.542,413.380,199.542,415.083,199.542,417.697C199.542,420.312,199.542,423.838,199.542,425.601L 199.542,427.364" fill="none" stroke="#2F3B4D" stroke-width="2"    stroke-linecap="round" stroke-linejoin="round" /><rect x="192.82" y="393.16" width="31.97" height="28.40" rx="2" ry="2" fill="rgba(248,250,252, 0.92)" fill-opacity="0.95" stroke="#7B88A8" stroke-opacity="0.45" stroke-width="0.8"/><text x="208.80" y="411.36" text-anchor="middle" font-family="'trebuchet ms', verdana, arial, sans-serif" font-size="16" fill="#333333"><tspan x="208.80" dy="0.00">Yes</tspan></text><path d="M 106.257,318.546L 106.257,319.853C106.257,321.160,106.257,323.775,106.257,326.389C106.257,329.004,106.257,331.618,105.647,334.082C105.038,336.545,103.818,338.858,97.791,350.294C91.763,361.730,80.926,382.288,75.111,393.321C69.296,404.353,68.502,405.859,68.877,406.971C69.251,408.083,70.794,408.802,71.565,409.162C72.337,409.521,72.337,409.521,73.108,409.881C73.880,410.240,75.422,410.959,76.194,412.170C76.965,413.380,76.965,415.082,76.965,417.697C76.965,420.311,76.965,423.838,76.965,425.601L 76.965,427.364" fill="none" stroke="#2F3B4D" stroke-width="2"    stroke-linecap="round" stroke-linejoin="round" /><rect x="54.82" y="393.16" width="25.77" height="28.40" rx="2" ry="2" fill="rgba(248,250,252, 0.92)" fill-opacity="0.95" stroke="#7B88A8" stroke-opacity="0.45" stroke-width="0.8"/><text x="67.71" y="411.36" text-anchor="middle" font-family="'trebuchet ms', verdana, arial, sans-serif" font-size="16" fill="#333333"><tspan x="67.71" dy="0.00">No</tspan></text><path d="M 199.542,481.364L 199.542,482.672C199.542,483.979,199.542,486.593,199.542,489.208C199.542,491.822,199.542,494.436,198.573,496.621C197.604,498.806,195.666,500.561,191.753,504.105C187.841,507.648,181.953,512.980,178.041,516.524C174.128,520.068,172.190,521.823,171.222,524.008C170.253,526.192,170.253,528.807,170.253,531.421C170.253,534.035,170.253,536.650,170.253,537.957L 170.253,539.264" fill="none" stroke="#2F3B4D" stroke-width="2"    stroke-linecap="round" stroke-linejoin="round" /><path d="M 76.965,481.364L 76.965,482.672C76.965,483.979,76.965,486.593,76.965,489.208C76.965,491.822,76.965,494.436,77.934,496.621C78.903,498.806,80.841,500.561,84.753,504.105C88.665,507.648,94.552,512.980,98.465,516.524C102.377,520.068,104.315,521.823,105.284,524.008C106.253,526.192,106.253,528.807,106.253,531.421C106.253,534.035,106.253,536.650,106.253,537.957L 106.253,539.264" fill="none" stroke="#2F3B4D" stroke-width="2"    stroke-linecap="round" stroke-linejoin="round" /><rect x="81.47" y="151.09" width="113.59" height="54.00" rx="3" ry="3" fill="#ECECFF" stroke="#7B88A8" stroke-width="1" stroke-linejoin="round" stroke-linecap="round"/><text x="138.26" y="182.09" text-anchor="middle" font-family="'trebuchet ms', verdana, arial, sans-serif" font-size="16" fill="#333333"><tspan x="138.26" dy="0.00">Collect</tspan></text><polygon points="138.26,249.91 188.57,300.23 138.26,350.55 87.94,300.23" fill="#ECECFF" stroke="#7B88A8" stroke-width="1" stroke-linejoin="round" stroke-linecap="round"/><text x="138.26" y="304.23" text-anchor="middle" font-family="'trebuchet ms', verdana, arial, sans-serif" font-size="16" fill="#333333"><tspan x="138.26" dy="0.00">Valid?</tspan></text><rect x="158.75" y="427.36" width="113.59" height="54.00" rx="3" ry="3" fill="#ECECFF" stroke="#7B88A8" stroke-width="1" stroke-linejoin="round" stroke-linecap="round"/><text x="215.54" y="458.36" text-anchor="middle" font-family="'trebuchet ms', verdana, arial, sans-serif" font-size="16" fill="#333333"><tspan x="215.54" dy="0.00">Process</tspan></text><rect x="8.00" y="427.36" width="105.93" height="54.00" rx="3" ry="3" fill="#ECECFF" stroke="#7B88A8" stroke-width="1" stroke-linejoin="round" stroke-linecap="round"/><text x="60.97" y="458.36" text-anchor="middle" font-family="'trebuchet ms', verdana, arial, sans-serif" font-size="16" fill="#333333"><tspan x="60.97" dy="0.00">Reject</tspan></text><circle cx="138.25" cy="571.86" r="45.68" fill="#ECECFF" stroke="#7B88A8" stroke-width="1" stroke-linejoin="round" stroke-linecap="round"/><circle cx="138.25" cy="571.86" r="41.68" fill="none" stroke="#7B88A8" stroke-width="1" stroke-linejoin="round" stroke-linecap="round"/><text x="138.25" y="575.86" text-anchor="middle" font-family="'trebuchet ms', verdana, arial, sans-serif" font-size="16" fill="#333333"><tspan x="138.25" dy="0.00">Done</tspan></text><circle cx="138.26" cy="57.14" r="49.14" fill="#ECECFF" stroke="#7B88A8" stroke-width="1" stroke-linejoin="round" stroke-linecap="round"/><circle cx="138.26" cy="57.14" r="45.14" fill="none" stroke="#7B88A8" stroke-width="1" stroke-linejoin="round" stroke-linecap="round"/><text x="138.26" y="61.14" text-anchor="middle" font-family="'trebuchet ms', verdana, arial, sans-serif" font-size="16" fill="#333333"><tspan x="138.26" dy="0.00">Start</tspan></text><g transform="translate(138.26 151.09) rotate(90.00)"><polygon points="0,0 -10.40,6.24 -10.40,-6.24" fill="#2F3B4D" stroke="#2F3B4D" stroke-width="2" stroke-linejoin="round" stroke-linecap="round"/></g><g transform="translate(138.26 249.91) rotate(90.00)"><polygon points="0,0 -10.40,6.24 -10.40,-6.24" fill="#2F3B4D" stroke="#2F3B4D" stroke-width="2" stroke-linejoin="round" stroke-linecap="round"/></g><g transform="translate(199.54 427.36) rotate(90.00)"><polygon points="0,0 -10.40,6.24 -10.40,-6.24" fill="#2F3B4D" stroke="#2F3B4D" stroke-width="2" stroke-linejoin="round" stroke-linecap="round"/></g><g transform="translate(76.97 427.36) rotate(90.00)"><polygon points="0,0 -10.40,6.24 -10.40,-6.24" fill="#2F3B4D" stroke="#2F3B4D" stroke-width="2" stroke-linejoin="round" stroke-linecap="round"/></g><g transform="translate(170.25 539.26) rotate(90.00)"><polygon points="0,0 -10.40,6.24 -10.40,-6.24" fill="#2F3B4D" stroke="#2F3B4D" stroke-width="2" stroke-linejoin="round" stroke-linecap="round"/></g><g transform="translate(106.25 539.26) rotate(90.00)"><polygon points="0,0 -10.40,6.24 -10.40,-6.24" fill="#2F3B4D" stroke="#2F3B4D" stroke-width="2" stroke-linejoin="round" stroke-linecap="round"/></g></svg>