<svg xmlns="http://www.w3.org/2000/svg" width="207.41924" height="1159.8105" viewBox="0 0 207.41924 1159.8105"><rect x="0" y="0" width="207.41924" height="1159.8105" fill="#FFFFFF"/><defs><marker id="arrow-0" viewBox="0 0 10 10" refX="5" refY="5" markerUnits="userSpaceOnUse" markerWidth="8" markerHeight="8" orient="auto"><path d="M 0 0 L 10 5 L 0 10 z" fill="#2F3B4D" stroke="#2F3B4D" stroke-width="1" stroke-dasharray="1,0"/></marker><marker id="arrow-start-0" viewBox="0 0 10 10" refX="4.5" refY="5" markerUnits="userSpaceOnUse" markerWidth="8" markerHeight="8" orient="auto"><path d="M 0 5 L 10 10 L 10 0 z" fill="#2F3B4D" stroke="#2F3B4D" stroke-width="1" stroke-dasharray="1,0"/></marker></defs><path d="M 102.826,47.000L 102.826,48.138C102.826,49.275,102.826,51.550,102.826,53.825C102.826,56.100,102.826,58.375,102.831,60.650C102.836,62.925,102.847,65.200,102.859,67.732C102.871,70.264,102.884,73.053,102.895,75.585C102.907,78.117,102.918,80.392,102.923,82.667C102.928,84.942,102.928,87.217,102.928,89.492C102.928,91.767,102.928,94.042,102.928,95.180L 102.928,96.317" fill="none" stroke="#2F3B4D" stroke-width="2"    stroke-linecap="round" stroke-linejoin="round" /><path d="M 102.928,135.317L 102.928,136.455C102.928,137.592,102.928,139.867,102.928,142.142C102.928,144.417,102.928,146.692,102.934,148.967C102.940,151.242,102.952,153.517,102.965,156.049C102.978,158.581,102.992,161.371,103.005,163.903C103.018,166.435,103.030,168.710,103.036,170.985C103.042,173.260,103.042,175.535,103.042,177.810C103.042,180.085,103.042,182.360,103.042,183.497L 103.042,184.635" fill="none" stroke="#2F3B4D" stroke-width="2"    stroke-linecap="round" stroke-linejoin="round" /><path d="M 103.042,244.035L 103.042,245.679C103.042,247.322,103.042,250.610,103.042,253.487C103.042,256.364,103.042,258.830,103.052,261.296C103.061,263.762,103.081,266.228,103.091,267.460C103.101,268.693,103.101,268.693,103.111,269.926C103.121,271.159,103.141,273.625,103.151,276.091C103.161,278.557,103.161,281.023,103.161,283.900C103.161,286.777,103.161,290.064,103.161,291.708L 103.161,293.352" fill="none" stroke="#2F3B4D" stroke-width="2"    stroke-linecap="round" stroke-linejoin="round" /><path d="M 103.161,399.283L 103.161,400.926C103.161,402.570,103.161,405.858,103.161,408.735C103.161,411.612,103.161,414.078,103.171,416.544C103.181,419.010,103.200,421.475,103.210,422.708C103.220,423.941,103.220,423.941,103.230,425.174C103.240,426.407,103.260,428.873,103.270,431.339C103.280,433.805,103.280,436.271,103.280,439.148C103.280,442.024,103.280,445.312,103.280,446.956L 103.280,448.600" fill="none" stroke="#2F3B4D" stroke-width="2"    stroke-linecap="round" stroke-linejoin="round" /><path d="M 103.280,556.506L 103.280,558.150C103.280,559.794,103.280,563.082,103.280,565.959C103.280,568.835,103.280,571.301,103.290,573.767C103.299,576.233,103.318,578.699,103.328,579.932C103.337,581.165,103.337,581.165,103.347,582.398C103.357,583.631,103.376,586.097,103.385,588.563C103.395,591.028,103.395,593.494,103.395,596.371C103.395,599.248,103.395,602.536,103.395,604.180L 103.395,605.824" fill="none" stroke="#2F3B4D" stroke-width="2"    stroke-linecap="round" stroke-linejoin="round" /><path d="M 103.395,665.224L 103.395,666.361C103.395,667.499,103.395,669.774,103.395,672.049C103.395,674.324,103.395,676.599,103.400,678.874C103.406,681.149,103.416,683.424,103.428,685.956C103.440,688.488,103.454,691.277,103.466,693.809C103.478,696.341,103.488,698.616,103.494,700.891C103.499,703.166,103.499,705.441,103.499,707.716C103.499,709.991,103.499,712.266,103.499,713.404L 103.499,714.541" fill="none" stroke="#2F3B4D" stroke-width="2"    stroke-linecap="round" stroke-linejoin="round" /><path d="M 103.499,753.541L 103.499,754.679C103.499,755.816,103.499,758.091,103.499,760.366C103.499,762.641,103.499,764.916,103.504,767.191C103.509,769.466,103.518,771.741,103.528,774.273C103.539,776.805,103.550,779.594,103.560,782.126C103.571,784.658,103.580,786.933,103.585,789.208C103.589,791.483,103.589,793.758,103.589,796.033C103.589,798.308,103.589,800.583,103.589,801.721L 103.589,802.858" fill="none" stroke="#2F3B4D" stroke-width="2"    stroke-linecap="round" stroke-linejoin="round" /><path d="M 103.589,841.858L 103.589,842.996C103.589,844.133,103.589,846.408,103.589,848.683C103.589,850.958,103.589,853.233,103.593,855.508C103.597,857.783,103.604,860.058,103.612,862.590C103.620,865.123,103.629,867.912,103.637,870.444C103.646,872.976,103.653,875.251,103.657,877.526C103.660,879.801,103.660,882.076,103.660,884.351C103.660,886.626,103.660,888.901,103.660,890.038L 103.660,891.176" fill="none" stroke="#2F3B4D" stroke-width="2"    stroke-linecap="round" stroke-linejoin="round" /><path d="M 103.660,945.176L 103.660,946.820C103.660,948.464,103.660,951.751,103.660,954.628C103.660,957.505,103.660,959.971,103.664,962.437C103.669,964.903,103.677,967.369,103.681,968.602C103.685,969.834,103.685,969.834,103.689,971.067C103.693,972.300,103.701,974.766,103.706,977.232C103.710,979.698,103.710,982.164,103.710,985.041C103.710,987.917,103.710,991.205,103.710,992.849L 103.710,994.493" fill="none" stroke="#2F3B4D" stroke-width="2"    stroke-linecap="round" stroke-linejoin="round" /><path d="M 103.710,1048.493L 103.710,1050.137C103.710,1051.781,103.710,1055.069,103.710,1057.946C103.710,1060.823,103.710,1063.288,103.712,1065.754C103.714,1068.220,103.718,1070.686,103.720,1071.919C103.722,1073.152,103.722,1073.152,103.724,1074.385C103.726,1075.618,103.731,1078.084,103.733,1080.549C103.735,1083.015,103.735,1085.481,103.735,1088.358C103.735,1091.235,103.735,1094.523,103.735,1096.167L 103.735,1097.811" fill="none" stroke="#2F3B4D" stroke-width="2"    stroke-linecap="round" stroke-linejoin="round" /><rect x="63.13" y="8.00" width="79.39" height="39.00" rx="19.50" ry="19.50" fill="#ECECFF" stroke="#7B88A8" stroke-width="1" stroke-linejoin="round" stroke-linecap="round"/><text x="102.83" y="31.50" text-anchor="middle" font-family="'trebuchet ms', verdana, arial, sans-serif" font-size="16" fill="#333333"><tspan x="102.83" dy="0.00">Stadium</tspan></text><rect x="48.45" y="96.32" width="108.95" height="39.00" rx="6" ry="6" fill="#ECECFF" stroke="#7B88A8" stroke-width="1" stroke-linejoin="round" stroke-linecap="round"/><line x1="54.45" y1="98.32" x2="54.45" y2="133.32" stroke="#7B88A8" stroke-width="1" stroke-linejoin="round" stroke-linecap="round"/><line x1="151.40" y1="98.32" x2="151.40" y2="133.32" stroke="#7B88A8" stroke-width="1" stroke-linejoin="round" stroke-linecap="round"/><text x="102.93" y="119.82" text-anchor="middle" font-family="'trebuchet ms', verdana, arial, sans-serif" font-size="16" fill="#333333"><tspan x="102.93" dy="0.00">Subroutine</tspan></text><ellipse cx="103.04" cy="191.76" rx="66.68" ry="7.13" fill="#ECECFF" stroke="#7B88A8" stroke-width="1" stroke-linejoin="round" stroke-linecap="round"/><rect x="36.36" y="191.76" width="133.36" height="45.14" fill="#ECECFF" stroke="#7B88A8" stroke-width="1" stroke-linejoin="round" stroke-linecap="round"/><ellipse cx="103.04" cy="236.91" rx="66.68" ry="7.13" fill="none" stroke="#7B88A8" stroke-width="1" stroke-linejoin="round" stroke-linecap="round"/><text x="103.04" y="218.33" text-anchor="middle" font-family="'trebuchet ms', verdana, arial, sans-serif" font-size="16" fill="#333333"><tspan x="103.04" dy="0.00">Cylinder</tspan></text><circle cx="103.16" cy="346.32" r="52.97" fill="#ECECFF" stroke="#7B88A8" stroke-width="1" stroke-linejoin="round" stroke-linecap="round"/><circle cx="103.16" cy="346.32" r="48.97" fill="none" stroke="#7B88A8" stroke-width="1" stroke-linejoin="round" stroke-linecap="round"/><text x="103.16" y="350.32" text-anchor="middle" font-family="'trebuchet ms', verdana, arial, sans-serif" font-size="16" fill="#333333"><tspan x="103.16" dy="0.00">Circle</tspan></text><polygon points="103.28,448.60 157.23,502.55 103.28,556.51 49.33,502.55" fill="#ECECFF" stroke="#7B88A8" stroke-width="1" stroke-linejoin="round" stroke-linecap="round"/><text x="103.28" y="506.55" text-anchor="middle" font-family="'trebuchet ms', verdana, arial, sans-serif" font-size="16" fill="#333333"><tspan x="103.28" dy="0.00">Diamond</tspan></text><polygon points="69.32,605.82 137.47,605.82 171.55,635.52 137.47,665.22 69.32,665.22 35.24,635.52" fill="#ECECFF" stroke="#7B88A8" stroke-width="1" stroke-linejoin="round" stroke-linecap="round"/><text x="103.39" y="639.52" text-anchor="middle" font-family="'trebuchet ms', verdana, arial, sans-serif" font-size="16" fill="#333333"><tspan x="103.39" dy="0.00">Hexagon</tspan></text><polygon points="54.49,714.54 180.08,714.54 152.51,753.54 26.92,753.54" fill="#ECECFF" stroke="#7B88A8" stroke-width="1" stroke-linejoin="round" stroke-linecap="round"/><text x="103.50" y="738.04" text-anchor="middle" font-family="'trebuchet ms', verdana, arial, sans-serif" font-size="16" fill="#333333"><tspan x="103.50" dy="0.00">Parallelogram</tspan></text><polygon points="11.40,802.86 162.59,802.86 195.78,841.86 44.59,841.86" fill="#ECECFF" stroke="#7B88A8" stroke-width="1" stroke-linejoin="round" stroke-linecap="round"/><text x="103.59" y="826.36" text-anchor="middle" font-family="'trebuchet ms', verdana, arial, sans-serif" font-size="16" fill="#333333"><tspan x="103.59" dy="0.00">Parallelogram Alt</tspan></text><polygon points="54.16,891.18 153.16,891.18 181.00,945.18 26.32,945.18" fill="#ECECFF" stroke="#7B88A8" stroke-width="1" stroke-linejoin="round" stroke-linecap="round"/><text x="103.66" y="922.18" text-anchor="middle" font-family="'trebuchet ms', verdana, arial, sans-serif" font-size="16" fill="#333333"><tspan x="103.66" dy="0.00">Trapezoid</tspan></text><polygon points="8.00,994.49 199.42,994.49 164.96,1048.49 42.46,1048.49" fill="#ECECFF" stroke="#7B88A8" stroke-width="1" stroke-linejoin="round" stroke-linecap="round"/><text x="103.71" y="1025.49" text-anchor="middle" font-family="'trebuchet ms', verdana, arial, sans-serif" font-size="16" fill="#333333"><tspan x="103.71" dy="0.00">Trapezoid Alt</tspan></text><polygon points="21.80,1097.81 149.62,1097.81 185.67,1124.81 149.62,1151.81 21.80,1151.81" fill="#ECECFF" stroke="#7B88A8" stroke-width="1" stroke-linejoin="round" stroke-linecap="round"/><text x="103.73" y="1128.81" text-anchor="middle" font-family="'trebuchet ms', verdana, arial, sans-serif" font-size="16" fill="#333333"><tspan x="103.73" dy="0.00">Asymmetric</tspan></text><g transform="translate(102.93 96.32) rotate(90.00)"><polygon points="0,0 -10.40,6.24 -10.40,-6.24" fill="#2F3B4D" stroke="#2F3B4D" stroke-width="2" stroke-linejoin="round" stroke-linecap="round"/></g><g transform="translate(103.04 184.63) rotate(90.00)"><polygon points="0,0 -10.40,6.24 -10.40,-6.24" fill="#2F3B4D" stroke="#2F3B4D" stroke-width="2" stroke-linejoin="round" stroke-linecap="round"/></g><g transform="translate(103.16 293.35) rotate(90.00)"><polygon points="0,0 -10.40,6.24 -10.40,-6.24" fill="#2F3B4D" stroke="#2F3B4D" stroke-width="2" stroke-linejoin="round" stroke-linecap="round"/></g><g transform="translate(103.28 448.60) rotate(90.00)"><polygon points="0,0 -10.40,6.24 -10.40,-6.24" fill="#2F3B4D" stroke="#2F3B4D" stroke-width="2" stroke-linejoin="round" stroke-linecap="round"/></g><g transform="translate(103.39 605.82) rotate(90.00)"><polygon points="0,0 -10.40,6.24 -10.40,-6.24" fill="#2F3B4D" stroke="#2F3B4D" stroke-width="2" stroke-linejoin="round" stroke-linecap="round"/></g><g transform="translate(103.50 714.54) rotate(90.00)"><polygon points="0,0 -10.40,6.24 -10.40,-6.24" fill="#2F3B4D" stroke="#2F3B4D" stroke-width="2" stroke-linejoin="round" stroke-linecap="round"/></g><g transform="translate(103.59 802.86) rotate(90.00)"><polygon points="0,0 -10.40,6.24 -10.40,-6.24" fill="#2F3B4D" stroke="#2F3B4D" stroke-width="2" stroke-linejoin="round" stroke-linecap="round"/></g><g transform="translate(103.66 891.18) rotate(90.00)"><polygon points="0,0 -10.40,6.24 -10.40,-6.24" fill="#2F3B4D" stroke="#2F3B4D" stroke-width="2" stroke-linejoin="round" stroke-linecap="round"/></g><g transform="translate(103.71 994.49) rotate(90.00)"><polygon points="0,0 -10.40,6.24 -10.40,-6.24" fill="#2F3B4D" stroke="#2F3B4D" stroke-width="2" stroke-linejoin="round" stroke-linecap="round"/></g><g transform="translate(103.73 1097.81) rotate(90.00)"><polygon points="0,0 -10.40,6.24 -10.40,-6.24" fill="#2F3B4D" stroke="#2F3B4D" stroke-width="2" stroke-linejoin="round" stroke-linecap="round"/></g></svg>