<svg xmlns="http://www.w3.org/2000/svg" width="908.5202" height="1206.5803" viewBox="0 0 908.5202 1206.5803"><rect x="0" y="0" width="908.5202" height="1206.5803" fill="#FFFFFF"/><defs><marker id="arrow-0" viewBox="0 0 10 10" refX="5" refY="5" markerUnits="userSpaceOnUse" markerWidth="8" markerHeight="8" orient="auto"><path d="M 0 0 L 10 5 L 0 10 z" fill="#2F3B4D" stroke="#2F3B4D" stroke-width="1" stroke-dasharray="1,0"/></marker><marker id="arrow-start-0" viewBox="0 0 10 10" refX="4.5" refY="5" markerUnits="userSpaceOnUse" markerWidth="8" markerHeight="8" orient="auto"><path d="M 0 5 L 10 10 L 10 0 z" fill="#2F3B4D" stroke="#2F3B4D" stroke-width="1" stroke-dasharray="1,0"/></marker></defs><rect x="8.00" y="384.96" width="892.52" height="449.78" rx="10" ry="10" fill="#FFFFDE" stroke="#AAAA33" stroke-width="1" /><text x="454.26" y="412.96" text-anchor="middle" font-family="'trebuchet ms', verdana, arial, sans-serif" font-size="16" fill="#333333"><tspan x="454.26" dy="0.00">Process</tspan></text><rect x="562.20" y="8.00" width="338.32" height="510.96" rx="10" ry="10" fill="#FFFFDE" stroke="#AAAA33" stroke-width="1" /><text x="731.36" y="36.00" text-anchor="middle" font-family="'trebuchet ms', verdana, arial, sans-serif" font-size="16" fill="#333333"><tspan x="731.36" dy="0.00">Ingest</tspan></text><rect x="562.20" y="700.74" width="315.35" height="497.84" rx="10" ry="10" fill="#FFFFDE" stroke="#AAAA33" stroke-width="1" /><text x="719.88" y="728.74" text-anchor="middle" font-family="'trebuchet ms', verdana, arial, sans-serif" font-size="16" fill="#333333"><tspan x="719.88" dy="0.00">Output</tspan></text><path d="M 720.471,102.000 L 720.471,145.493" fill="none" stroke="#2F3B4D" stroke-width="2"    stroke-linecap="round" stroke-linejoin="round" /><path d="M 736.471,244.672L 736.471,245.940C736.471,247.209,736.471,249.746,736.471,252.283C736.471,254.820,736.471,257.357,735.203,258.672C733.936,259.988,731.400,260.082,636.501,263.587C541.601,267.093,354.338,274.010,258.707,277.542C163.077,281.075,159.079,281.223,159.043,281.683C159.007,282.144,162.931,282.918,270.185,304.067C377.439,325.216,588.022,366.740,694.558,387.747C801.094,408.755,803.583,409.246,804.828,410.760C806.072,412.274,806.072,414.811,806.072,417.348C806.072,419.885,806.072,422.422,806.072,423.691L 806.072,424.959" fill="none" stroke="#2F3B4D" stroke-width="2"    stroke-linecap="round" stroke-linejoin="round" /><rect x="142.93" y="267.17" width="24.31" height="28.40" rx="2" ry="2" fill="rgba(248,250,252, 0.92)" fill-opacity="0.95" stroke="#7B88A8" stroke-opacity="0.45" stroke-width="0.8"/><text x="155.08" y="285.37" text-anchor="middle" font-family="'trebuchet ms', verdana, arial, sans-serif" font-size="16" fill="#333333"><tspan x="155.08" dy="0.00">ok</tspan></text><path d="M 688.471,228.672L 688.471,229.940C688.471,231.209,688.471,233.746,688.471,236.283C688.471,238.820,688.471,241.357,687.207,242.727C685.942,244.097,683.413,244.300,607.585,250.386C531.757,256.472,382.629,268.441,306.072,274.586C229.515,280.730,225.528,281.050,225.526,281.390C225.524,281.729,229.508,282.087,301.516,288.569C373.523,295.051,513.554,307.655,584.833,314.071C656.112,320.487,658.639,320.715,659.903,322.097C661.166,323.479,661.166,326.016,661.166,328.553C661.166,331.090,661.166,333.628,661.166,334.896L 661.166,336.165" fill="none" stroke="#2F3B4D" stroke-width="2"    stroke-linecap="round" stroke-linejoin="round" /><rect x="201.73" y="267.17" width="39.62" height="28.40" rx="2" ry="2" fill="rgba(248,250,252, 0.92)" fill-opacity="0.95" stroke="#7B88A8" stroke-opacity="0.45" stroke-width="0.8"/><text x="221.54" y="285.37" text-anchor="middle" font-family="'trebuchet ms', verdana, arial, sans-serif" font-size="16" fill="#333333"><tspan x="221.54" dy="0.00">fail</tspan></text><path d="M 741.625,467.959L 740.356,467.959C739.087,467.959,736.550,467.959,734.013,467.959C731.476,467.959,728.939,467.959,726.438,468.261C723.938,468.563,721.473,469.166,656.351,485.113C591.228,501.060,463.447,532.351,398.324,548.298C333.201,564.245,330.737,564.849,328.236,565.150C325.735,565.452,323.198,565.452,320.661,565.452C318.124,565.452,315.587,565.452,314.318,565.452L 313.050,565.452" fill="none" stroke="#2F3B4D" stroke-width="2"    stroke-linecap="round" stroke-linejoin="round" /><path d="M 213.658,597.452L 212.389,597.452C211.121,597.452,208.584,597.452,206.047,597.452C203.509,597.452,200.972,597.452,199.268,598.643C197.563,599.835,196.691,602.217,193.132,611.941C189.573,621.666,183.326,638.732,179.767,648.456C176.207,658.180,175.335,660.563,173.631,661.754C171.926,662.945,169.389,662.945,166.852,662.945C164.315,662.945,161.778,662.945,160.509,662.945L 159.241,662.945" fill="none" stroke="#2F3B4D" stroke-width="2"    stroke-linecap="round" stroke-linejoin="round" /><path d="M 263.354,608.452 L 263.354,651.945" fill="none" stroke="#2F3B4D" stroke-width="2"    stroke-linecap="round" stroke-linejoin="round" /><path d="M 313.050,597.452L 314.318,597.452C315.587,597.452,318.124,597.452,320.661,597.452C323.198,597.452,325.735,597.452,327.440,598.643C329.144,599.835,330.017,602.217,333.576,611.941C337.135,621.666,343.382,638.732,346.941,648.456C350.501,658.180,351.373,660.563,353.077,661.754C354.782,662.945,357.319,662.945,359.856,662.945C362.393,662.945,364.930,662.945,366.199,662.945L 367.467,662.945" fill="none" stroke="#2F3B4D" stroke-width="2"    stroke-linecap="round" stroke-linejoin="round" /><path d="M 159.241,694.945L 160.509,694.945C161.778,694.945,164.315,694.945,166.852,694.945C169.389,694.945,171.926,694.945,173.195,696.214C174.463,697.482,174.463,700.019,174.463,717.133C174.463,734.248,174.463,765.939,174.463,783.784C174.463,801.630,174.463,805.630,176.463,807.630C178.463,809.630,182.463,809.630,257.296,809.630C332.129,809.630,477.795,809.630,552.628,809.630C627.461,809.630,631.461,809.630,633.461,807.630C635.461,805.630,635.461,801.630,635.461,795.917C635.461,790.204,635.461,782.777,635.461,777.796C635.461,772.814,635.461,770.277,636.729,769.008C637.998,767.740,640.535,767.740,643.072,767.740C645.609,767.740,648.146,767.740,649.415,767.740L 650.684,767.740" fill="none" stroke="#2F3B4D" stroke-width="2"    stroke-linecap="round" stroke-linejoin="round" /><path d="M 323.974,678.945L 325.243,678.945C326.511,678.945,329.048,678.945,331.586,678.945C334.123,678.945,336.660,678.945,337.928,680.214C339.197,681.482,339.197,684.019,339.197,696.818C339.197,709.617,339.197,732.679,339.197,746.209C339.197,759.740,339.197,763.740,341.197,765.740C343.197,767.740,347.197,767.740,399.111,767.740C451.026,767.740,550.855,767.740,600.769,767.740L 650.684,767.740" fill="none" stroke="#2F3B4D" stroke-width="2"    stroke-linecap="round" stroke-linejoin="round" /><path d="M 488.708,694.945L 489.977,694.945C491.245,694.945,493.782,694.945,496.319,694.945C498.856,694.945,501.393,694.945,502.662,696.214C503.931,697.482,503.931,700.019,503.931,707.485C503.931,714.951,503.931,727.345,503.931,735.542C503.931,743.740,503.931,747.740,505.931,749.740C507.931,751.740,511.931,751.740,536.389,751.740C560.848,751.740,605.766,751.740,628.225,751.740L 650.684,751.740" fill="none" stroke="#2F3B4D" stroke-width="2"    stroke-linecap="round" stroke-linejoin="round" /><path d="M 715.131,794.740 L 715.131,838.233" fill="none" stroke="#2F3B4D" stroke-width="2"    stroke-linecap="round" stroke-linejoin="round" /><path d="M 683.131,899.594L 683.131,900.863C683.131,902.131,683.131,904.668,683.131,907.206C683.131,909.743,683.131,912.280,681.868,913.439C680.604,914.599,678.076,914.380,597.810,907.449C517.543,900.518,359.538,886.874,278.543,879.880C197.547,872.885,193.562,872.541,193.507,872.865C193.452,873.188,197.327,874.180,274.059,893.810C350.790,913.440,500.377,951.709,576.400,971.158C652.423,990.607,654.881,991.236,656.110,992.819C657.339,994.402,657.339,996.939,657.339,999.476C657.339,1002.013,657.339,1004.550,657.339,1005.819L 657.339,1007.087" fill="none" stroke="#2F3B4D" stroke-width="2"    stroke-linecap="round" stroke-linejoin="round" /><rect x="169.77" y="858.00" width="39.62" height="28.40" rx="2" ry="2" fill="rgba(248,250,252, 0.92)" fill-opacity="0.95" stroke="#7B88A8" stroke-opacity="0.45" stroke-width="0.8"/><text x="189.58" y="876.20" text-anchor="middle" font-family="'trebuchet ms', verdana, arial, sans-serif" font-size="16" fill="#333333"><tspan x="189.58" dy="0.00">fast</tspan></text><path d="M 747.131,899.594L 747.131,900.863C747.131,902.131,747.131,904.668,747.131,907.206C747.131,909.743,747.131,912.280,745.868,913.437C744.604,914.594,742.077,914.371,663.496,907.444C584.914,900.516,430.279,886.883,350.969,879.892C271.660,872.900,267.675,872.548,267.630,872.829C267.585,873.109,271.480,874.021,355.423,893.676C439.367,913.332,603.359,951.731,686.590,971.219C769.822,990.708,772.292,991.286,773.527,992.844C774.762,994.402,774.762,996.939,774.762,999.476C774.762,1002.013,774.762,1004.550,774.762,1005.819L 774.762,1007.087" fill="none" stroke="#2F3B4D" stroke-width="2"    stroke-linecap="round" stroke-linejoin="round" /><rect x="243.88" y="858.00" width="39.62" height="28.40" rx="2" ry="2" fill="rgba(248,250,252, 0.92)" fill-opacity="0.95" stroke="#7B88A8" stroke-opacity="0.45" stroke-width="0.8"/><text x="263.69" y="876.20" text-anchor="middle" font-family="'trebuchet ms', verdana, arial, sans-serif" font-size="16" fill="#333333"><tspan x="263.69" dy="0.00">slow</tspan></text><path d="M 657.339,1061.087L 657.339,1062.356C657.339,1063.625,657.339,1066.162,657.339,1068.699C657.339,1071.236,657.339,1073.773,658.479,1075.598C659.618,1077.423,661.898,1078.537,665.210,1080.155C668.522,1081.773,672.867,1083.895,676.179,1085.513C679.491,1087.131,681.771,1088.244,682.911,1090.069C684.050,1091.895,684.050,1094.432,684.050,1096.969C684.050,1099.506,684.050,1102.043,684.050,1103.312L 684.050,1104.580" fill="none" stroke="#2F3B4D" stroke-width="2"    stroke-linecap="round" stroke-linejoin="round" /><path d="M 774.762,1061.087L 774.762,1062.356C774.762,1063.625,774.762,1066.162,774.762,1068.699C774.762,1071.236,774.762,1073.773,773.622,1075.598C772.483,1077.423,770.203,1078.537,766.891,1080.155C763.579,1081.773,759.234,1083.895,755.922,1085.513C752.610,1087.131,750.330,1088.244,749.190,1090.069C748.050,1091.895,748.050,1094.432,748.050,1096.969C748.050,1099.506,748.050,1102.043,748.050,1103.312L 748.050,1104.580" fill="none" stroke="#2F3B4D" stroke-width="2"    stroke-linecap="round" stroke-linejoin="round" /><path d="M 645.166,390.165L 645.166,482.494C645.166,574.823,645.166,759.481,645.166,853.810C645.166,948.139,645.166,952.139,647.166,954.139C649.166,956.139,653.166,956.139,662.980,956.139C672.794,956.139,688.422,956.139,698.236,956.139C708.050,956.139,712.050,956.139,714.050,958.139C716.050,960.139,716.050,964.139,716.050,988.879C716.050,1013.619,716.050,1059.100,716.050,1081.840L 716.050,1104.580" fill="none" stroke="#2F3B4D" stroke-width="2"    stroke-linecap="round" stroke-linejoin="round" /><path d="M 704.471,102.000L 704.471,103.269C704.471,104.537,704.471,107.074,704.471,109.611C704.471,112.148,704.471,114.685,703.203,115.954C701.934,117.223,699.397,117.223,630.544,117.223C561.691,117.223,426.522,117.223,356.938,117.223C287.354,117.223,283.354,117.223,281.597,119.208C279.841,121.193,280.327,125.163,283.439,150.536C286.550,175.909,292.285,222.684,295.396,248.057C298.508,273.430,298.994,277.400,299.082,281.379C299.170,285.358,298.859,289.346,295.603,331.058C292.347,372.770,286.147,452.206,282.948,493.188C279.749,534.171,279.551,536.700,279.453,539.233C279.354,541.767,279.354,544.304,279.354,546.841C279.354,549.378,279.354,551.915,279.354,553.184L 279.354,554.452" fill="none" stroke="#2F3B4D" stroke-width="2"   stroke-dasharray="2" stroke-linecap="round" stroke-linejoin="round" /><rect x="275.84" y="267.17" width="47.28" height="28.40" rx="2" ry="2" fill="rgba(248,250,252, 0.92)" fill-opacity="0.95" stroke="#7B88A8" stroke-opacity="0.45" stroke-width="0.8"/><text x="299.48" y="285.37" text-anchor="middle" font-family="'trebuchet ms', verdana, arial, sans-serif" font-size="16" fill="#333333"><tspan x="299.48" dy="0.00">retry</tspan></text><path d="M 806.072,478.959L 806.072,536.968C806.072,594.976,806.072,710.993,806.072,771.002C806.072,831.010,806.072,835.010,804.072,837.010C802.072,839.010,798.072,839.010,786.851,839.010C775.629,839.010,757.186,839.010,746.696,839.010C736.206,839.010,733.668,839.010,732.400,840.279C731.131,841.547,731.131,844.084,731.131,846.621C731.131,849.159,731.131,851.696,731.131,852.964L 731.131,854.233" fill="none" stroke="#2F3B4D" stroke-width="2"    stroke-linecap="round" stroke-linejoin="round" /><path d="M 295.354,651.945L 295.354,650.677C295.354,649.408,295.354,646.871,295.354,644.334C295.354,641.797,295.354,639.260,296.623,637.991C297.891,636.723,300.428,636.723,307.515,636.723C314.602,636.723,326.240,636.723,334.058,636.723C341.877,636.723,345.877,636.723,346.942,634.955C348.007,633.187,346.137,629.651,327.166,593.775C308.195,557.900,272.123,489.686,253.152,453.811C234.181,417.935,232.311,414.399,233.374,412.540C234.437,410.680,238.433,410.497,256.341,409.676C274.249,408.855,306.069,407.396,323.977,406.575C341.885,405.754,345.881,405.570,349.879,405.479C353.877,405.387,357.877,405.387,400.490,405.387C443.103,405.387,524.329,405.387,566.211,405.387C608.092,405.387,610.629,405.387,611.898,404.119C613.166,402.850,613.166,400.313,613.166,397.776C613.166,395.239,613.166,392.702,613.166,391.433L 613.166,390.165" fill="none" stroke="#2F3B4D" stroke-width="2"   stroke-dasharray="2" stroke-linecap="round" stroke-linejoin="round" /><rect x="206.80" y="396.66" width="47.28" height="28.40" rx="2" ry="2" fill="rgba(248,250,252, 0.92)" fill-opacity="0.95" stroke="#7B88A8" stroke-opacity="0.45" stroke-width="0.8"/><text x="230.44" y="414.86" text-anchor="middle" font-family="'trebuchet ms', verdana, arial, sans-serif" font-size="16" fill="#333333"><tspan x="230.44" dy="0.00">audit</tspan></text><rect x="667.51" y="48.00" width="105.93" height="54.00" rx="3" ry="3" fill="#ECECFF" stroke="#7B88A8" stroke-width="1" stroke-linejoin="round" stroke-linecap="round"/><text x="720.47" y="79.00" text-anchor="middle" font-family="'trebuchet ms', verdana, arial, sans-serif" font-size="16" fill="#333333"><tspan x="720.47" dy="0.00">Source</tspan></text><polygon points="720.47,145.49 778.06,203.08 720.47,260.67 662.88,203.08" fill="#ECECFF" stroke="#7B88A8" stroke-width="1" stroke-linejoin="round" stroke-linecap="round"/><text x="720.47" y="207.08" text-anchor="middle" font-family="'trebuchet ms', verdana, arial, sans-serif" font-size="16" fill="#333333"><tspan x="720.47" dy="0.00">Validate</tspan></text><rect x="741.62" y="424.96" width="128.90" height="54.00" rx="3" ry="3" fill="#ECECFF" stroke="#7B88A8" stroke-width="1" stroke-linejoin="round" stroke-linecap="round"/><text x="806.07" y="455.96" text-anchor="middle" font-family="'trebuchet ms', verdana, arial, sans-serif" font-size="16" fill="#333333"><tspan x="806.07" dy="0.00">Normalize</tspan></text><rect x="592.20" y="336.16" width="105.93" height="54.00" rx="3" ry="3" fill="#ECECFF" stroke="#7B88A8" stroke-width="1" stroke-linejoin="round" stroke-linecap="round"/><text x="645.17" y="367.16" text-anchor="middle" font-family="'trebuchet ms', verdana, arial, sans-serif" font-size="16" fill="#333333"><tspan x="645.17" dy="0.00">Reject</tspan></text><rect x="213.66" y="554.45" width="99.39" height="54.00" rx="3" ry="3" fill="#ECECFF" stroke="#7B88A8" stroke-width="1" stroke-linejoin="round" stroke-linecap="round"/><text x="263.35" y="585.45" text-anchor="middle" font-family="'trebuchet ms', verdana, arial, sans-serif" font-size="16" fill="#333333"><tspan x="263.35" dy="0.00">Queue</tspan></text><rect x="38.00" y="651.95" width="121.24" height="54.00" rx="3" ry="3" fill="#ECECFF" stroke="#7B88A8" stroke-width="1" stroke-linejoin="round" stroke-linecap="round"/><text x="98.62" y="682.95" text-anchor="middle" font-family="'trebuchet ms', verdana, arial, sans-serif" font-size="16" fill="#333333"><tspan x="98.62" dy="0.00">Worker 1</tspan></text><rect x="202.73" y="651.95" width="121.24" height="54.00" rx="3" ry="3" fill="#ECECFF" stroke="#7B88A8" stroke-width="1" stroke-linejoin="round" stroke-linecap="round"/><text x="263.35" y="682.95" text-anchor="middle" font-family="'trebuchet ms', verdana, arial, sans-serif" font-size="16" fill="#333333"><tspan x="263.35" dy="0.00">Worker 2</tspan></text><rect x="367.47" y="651.95" width="121.24" height="54.00" rx="3" ry="3" fill="#ECECFF" stroke="#7B88A8" stroke-width="1" stroke-linejoin="round" stroke-linecap="round"/><text x="428.09" y="682.95" text-anchor="middle" font-family="'trebuchet ms', verdana, arial, sans-serif" font-size="16" fill="#333333"><tspan x="428.09" dy="0.00">Worker 3</tspan></text><rect x="650.68" y="740.74" width="128.90" height="54.00" rx="3" ry="3" fill="#ECECFF" stroke="#7B88A8" stroke-width="1" stroke-linejoin="round" stroke-linecap="round"/><text x="715.13" y="771.74" text-anchor="middle" font-family="'trebuchet ms', verdana, arial, sans-serif" font-size="16" fill="#333333"><tspan x="715.13" dy="0.00">Aggregate</tspan></text><polygon points="715.13,838.23 761.81,884.91 715.13,931.59 668.45,884.91" fill="#ECECFF" stroke="#7B88A8" stroke-width="1" stroke-linejoin="round" stroke-linecap="round"/><text x="715.13" y="888.91" text-anchor="middle" font-family="'trebuchet ms', verdana, arial, sans-serif" font-size="16" fill="#333333"><tspan x="715.13" dy="0.00">Route</tspan></text><rect x="592.20" y="1007.09" width="98.28" height="54.00" rx="3" ry="3" fill="#ECECFF" stroke="#7B88A8" stroke-width="1" stroke-linejoin="round" stroke-linecap="round"/><text x="641.34" y="1038.09" text-anchor="middle" font-family="'trebuchet ms', verdana, arial, sans-serif" font-size="16" fill="#333333"><tspan x="641.34" dy="0.00">Cache</tspan></text><rect x="733.97" y="1007.09" width="113.59" height="54.00" rx="3" ry="3" fill="#ECECFF" stroke="#7B88A8" stroke-width="1" stroke-linejoin="round" stroke-linecap="round"/><text x="790.76" y="1038.09" text-anchor="middle" font-family="'trebuchet ms', verdana, arial, sans-serif" font-size="16" fill="#333333"><tspan x="790.76" dy="0.00">Archive</tspan></text><rect x="663.09" y="1104.58" width="105.93" height="54.00" rx="3" ry="3" fill="#ECECFF" stroke="#7B88A8" stroke-width="1" stroke-linejoin="round" stroke-linecap="round"/><text x="716.05" y="1135.58" text-anchor="middle" font-family="'trebuchet ms', verdana, arial, sans-serif" font-size="16" fill="#333333"><tspan x="716.05" dy="0.00">Notify</tspan></text><g transform="translate(720.47 145.49) rotate(90.00)"><polygon points="0,0 -10.40,6.24 -10.40,-6.24" fill="#2F3B4D" stroke="#2F3B4D" stroke-width="2" stroke-linejoin="round" stroke-linecap="round"/></g><g transform="translate(806.07 424.96) rotate(90.00)"><polygon points="0,0 -10.40,6.24 -10.40,-6.24" fill="#2F3B4D" stroke="#2F3B4D" stroke-width="2" stroke-linejoin="round" stroke-linecap="round"/></g><g transform="translate(661.17 336.16) rotate(90.00)"><polygon points="0,0 -10.40,6.24 -10.40,-6.24" fill="#2F3B4D" stroke="#2F3B4D" stroke-width="2" stroke-linejoin="round" stroke-linecap="round"/></g><g transform="translate(313.05 565.45) rotate(180.00)"><polygon points="0,0 -10.40,6.24 -10.40,-6.24" fill="#2F3B4D" stroke="#2F3B4D" stroke-width="2" stroke-linejoin="round" stroke-linecap="round"/></g><g transform="translate(159.24 662.95) rotate(180.00)"><polygon points="0,0 -10.40,6.24 -10.40,-6.24" fill="#2F3B4D" stroke="#2F3B4D" stroke-width="2" stroke-linejoin="round" stroke-linecap="round"/></g><g transform="translate(263.35 651.95) rotate(90.00)"><polygon points="0,0 -10.40,6.24 -10.40,-6.24" fill="#2F3B4D" stroke="#2F3B4D" stroke-width="2" stroke-linejoin="round" stroke-linecap="round"/></g><g transform="translate(367.47 662.95) rotate(0.00)"><polygon points="0,0 -10.40,6.24 -10.40,-6.24" fill="#2F3B4D" stroke="#2F3B4D" stroke-width="2" stroke-linejoin="round" stroke-linecap="round"/></g><g transform="translate(650.68 767.74) rotate(0.00)"><polygon points="0,0 -10.40,6.24 -10.40,-6.24" fill="#2F3B4D" stroke="#2F3B4D" stroke-width="2" stroke-linejoin="round" stroke-linecap="round"/></g><g transform="translate(650.68 767.74) rotate(0.00)"><polygon points="0,0 -10.40,6.24 -10.40,-6.24" fill="#2F3B4D" stroke="#2F3B4D" stroke-width="2" stroke-linejoin="round" stroke-linecap="round"/></g><g transform="translate(650.68 751.74) rotate(0.00)"><polygon points="0,0 -10.40,6.24 -10.40,-6.24" fill="#2F3B4D" stroke="#2F3B4D" stroke-width="2" stroke-linejoin="round" stroke-linecap="round"/></g><g transform="translate(715.13 838.23) rotate(90.00)"><polygon points="0,0 -10.40,6.24 -10.40,-6.24" fill="#2F3B4D" stroke="#2F3B4D" stroke-width="2" stroke-linejoin="round" stroke-linecap="round"/></g><g transform="translate(657.34 1007.09) rotate(90.00)"><polygon points="0,0 -10.40,6.24 -10.40,-6.24" fill="#2F3B4D" stroke="#2F3B4D" stroke-width="2" stroke-linejoin="round" stroke-linecap="round"/></g><g transform="translate(774.76 1007.09) rotate(90.00)"><polygon points="0,0 -10.40,6.24 -10.40,-6.24" fill="#2F3B4D" stroke="#2F3B4D" stroke-width="2" stroke-linejoin="round" stroke-linecap="round"/></g><g transform="translate(684.05 1104.58) rotate(90.00)"><polygon points="0,0 -10.40,6.24 -10.40,-6.24" fill="#2F3B4D" stroke="#2F3B4D" stroke-width="2" stroke-linejoin="round" stroke-linecap="round"/></g><g transform="translate(748.05 1104.58) rotate(90.00)"><polygon points="0,0 -10.40,6.24 -10.40,-6.24" fill="#2F3B4D" stroke="#2F3B4D" stroke-width="2" stroke-linejoin="round" stroke-linecap="round"/></g><g transform="translate(716.05 1104.58) rotate(90.00)"><polygon points="0,0 -10.40,6.24 -10.40,-6.24" fill="#2F3B4D" stroke="#2F3B4D" stroke-width="2" stroke-linejoin="round" stroke-linecap="round"/></g><g transform="translate(279.35 554.45) rotate(90.00)"><polygon points="0,0 -10.40,6.24 -10.40,-6.24" fill="#2F3B4D" stroke="#2F3B4D" stroke-width="2" stroke-linejoin="round" stroke-linecap="round"/></g><g transform="translate(731.13 854.23) rotate(90.00)"><polygon points="0,0 -10.40,6.24 -10.40,-6.24" fill="#2F3B4D" stroke="#2F3B4D" stroke-width="2" stroke-linejoin="round" stroke-linecap="round"/></g><g transform="translate(613.17 390.16) rotate(-90.00)"><polygon points="0,0 -10.40,6.24 -10.40,-6.24" fill="#2F3B4D" stroke="#2F3B4D" stroke-width="2" stroke-linejoin="round" stroke-linecap="round"/></g></svg>