<svg xmlns="http://www.w3.org/2000/svg" width="280.33435" height="625.5427" viewBox="0 0 280.33435 625.5427"><rect x="0" y="0" width="280.33435" height="625.5427" fill="#FFFFFF"/><defs><marker id="arrow-0" viewBox="0 0 10 10" refX="5" refY="5" markerUnits="userSpaceOnUse" markerWidth="8" markerHeight="8" orient="auto"><path d="M 0 0 L 10 5 L 0 10 z" fill="#2F3B4D" stroke="#2F3B4D" stroke-width="1" stroke-dasharray="1,0"/></marker><marker id="arrow-start-0" viewBox="0 0 10 10" refX="4.5" refY="5" markerUnits="userSpaceOnUse" markerWidth="8" markerHeight="8" orient="auto"><path d="M 0 5 L 10 10 L 10 0 z" fill="#2F3B4D" stroke="#2F3B4D" stroke-width="1" stroke-dasharray="1,0"/></marker></defs><path d="M 138.253,106.275 L 138.253,151.094" fill="none" stroke="#2F3B4D" stroke-width="2"    stroke-linecap="round" stroke-linejoin="round" /><path d="M 138.253,205.094 L 138.253,249.912" fill="none" stroke="#2F3B4D" stroke-width="2"    stroke-linecap="round" stroke-linejoin="round" /><path d="M 170.253,318.546L 170.253,319.853C170.253,321.160,170.253,323.775,170.253,326.389C170.253,329.004,170.253,331.618,170.913,334.054C171.573,336.489,172.893,338.746,179.781,350.525C186.669,362.304,199.126,383.606,206.014,395.385C212.902,407.164,214.222,409.421,214.882,411.857C215.542,414.292,215.542,416.907,215.542,419.521C215.542,422.136,215.542,424.750,215.542,426.057L 215.542,427.364" fill="none" stroke="#2F3B4D" stroke-width="2"    stroke-linecap="round" stroke-linejoin="round" /><rect x="176.91" y="358.76" width="31.97" height="28.40" rx="2" ry="2" fill="rgba(248,250,252, 0.92)" fill-opacity="0.95" stroke="#7B88A8" stroke-opacity="0.45" stroke-width="0.8"/><text x="192.90" y="376.96" text-anchor="middle" font-family="'trebuchet ms', verdana, arial, sans-serif" font-size="16" fill="#333333"><tspan x="192.90" dy="0.00">Yes</tspan></text><path d="M 106.253,318.546L 106.253,319.853C106.253,321.160,106.253,323.775,106.253,326.389C106.253,329.004,106.253,331.618,105.593,334.054C104.934,336.489,103.614,338.746,96.726,350.525C89.838,362.304,77.381,383.606,70.493,395.385C63.605,407.164,62.285,409.421,61.625,411.857C60.965,414.292,60.965,416.907,60.965,419.521C60.965,422.136,60.965,424.750,60.965,426.057L 60.965,427.364" fill="none" stroke="#2F3B4D" stroke-width="2"    stroke-linecap="round" stroke-linejoin="round" /><rect x="70.73" y="358.76" width="25.77" height="28.40" rx="2" ry="2" fill="rgba(248,250,252, 0.92)" fill-opacity="0.95" stroke="#7B88A8" stroke-opacity="0.45" stroke-width="0.8"/><text x="83.61" y="376.96" text-anchor="middle" font-family="'trebuchet ms', verdana, arial, sans-serif" font-size="16" fill="#333333"><tspan x="83.61" dy="0.00">No</tspan></text><path d="M 215.542,481.364L 215.542,482.672C215.542,483.979,215.542,486.593,215.542,489.208C215.542,491.822,215.542,494.436,214.278,496.080C213.015,497.724,210.489,498.398,201.538,500.784C192.586,503.171,177.209,507.270,168.257,509.657C159.306,512.043,156.780,512.717,155.517,514.361C154.253,516.004,154.253,518.619,154.253,521.233C154.253,523.848,154.253,526.462,154.253,527.769L 154.253,529.076" fill="none" stroke="#2F3B4D" stroke-width="2"    stroke-linecap="round" stroke-linejoin="round" /><path d="M 60.965,481.364L 60.965,482.672C60.965,483.979,60.965,486.593,60.965,489.208C60.965,491.822,60.965,494.436,62.228,496.080C63.491,497.724,66.018,498.398,74.969,500.784C83.921,503.171,99.298,507.270,108.249,509.657C117.201,512.043,119.727,512.717,120.990,514.361C122.253,516.004,122.253,518.619,122.253,521.233C122.253,523.848,122.253,526.462,122.253,527.769L 122.253,529.076" fill="none" stroke="#2F3B4D" stroke-width="2"    stroke-linecap="round" stroke-linejoin="round" /><rect x="81.46" y="151.09" width="113.59" height="54.00" rx="3" ry="3" fill="#ECECFF" stroke="#7B88A8" stroke-width="1" stroke-linejoin="round" stroke-linecap="round"/><text x="138.25" y="182.09" text-anchor="middle" font-family="'trebuchet ms', verdana, arial, sans-serif" font-size="16" fill="#333333"><tspan x="138.25" dy="0.00">Collect</tspan></text><polygon points="138.25,249.91 188.57,300.23 138.25,350.55 87.94,300.23" fill="#ECECFF" stroke="#7B88A8" stroke-width="1" stroke-linejoin="round" stroke-linecap="round"/><text x="138.25" y="304.23" text-anchor="middle" font-family="'trebuchet ms', verdana, arial, sans-serif" font-size="16" fill="#333333"><tspan x="138.25" dy="0.00">Valid?</tspan></text><rect x="158.75" y="427.36" width="113.59" height="54.00" rx="3" ry="3" fill="#ECECFF" stroke="#7B88A8" stroke-width="1" stroke-linejoin="round" stroke-linecap="round"/><text x="215.54" y="458.36" text-anchor="middle" font-family="'trebuchet ms', verdana, arial, sans-serif" font-size="16" fill="#333333"><tspan x="215.54" dy="0.00">Process</tspan></text><rect x="8.00" y="427.36" width="105.93" height="54.00" rx="3" ry="3" fill="#ECECFF" stroke="#7B88A8" stroke-width="1" stroke-linejoin="round" stroke-linecap="round"/><text x="60.97" y="458.36" text-anchor="middle" font-family="'trebuchet ms', verdana, arial, sans-serif" font-size="16" fill="#333333"><tspan x="60.97" dy="0.00">Reject</tspan></text><circle cx="138.25" cy="571.86" r="45.68" fill="#ECECFF" stroke="#7B88A8" stroke-width="1" stroke-linejoin="round" stroke-linecap="round"/><circle cx="138.25" cy="571.86" r="41.68" fill="none" stroke="#7B88A8" stroke-width="1" stroke-linejoin="round" stroke-linecap="round"/><text x="138.25" y="575.86" text-anchor="middle" font-family="'trebuchet ms', verdana, arial, sans-serif" font-size="16" fill="#333333"><tspan x="138.25" dy="0.00">Done</tspan></text><circle cx="138.25" cy="57.14" r="49.14" fill="#ECECFF" stroke="#7B88A8" stroke-width="1" stroke-linejoin="round" stroke-linecap="round"/><circle cx="138.25" cy="57.14" r="45.14" fill="none" stroke="#7B88A8" stroke-width="1" stroke-linejoin="round" stroke-linecap="round"/><text x="138.25" y="61.14" text-anchor="middle" font-family="'trebuchet ms', verdana, arial, sans-serif" font-size="16" fill="#333333"><tspan x="138.25" dy="0.00">Start</tspan></text><g transform="translate(138.25 151.09) rotate(90.00)"><polygon points="0,0 -10.40,6.24 -10.40,-6.24" fill="#2F3B4D" stroke="#2F3B4D" stroke-width="2" stroke-linejoin="round" stroke-linecap="round"/></g><g transform="translate(138.25 249.91) rotate(90.00)"><polygon points="0,0 -10.40,6.24 -10.40,-6.24" fill="#2F3B4D" stroke="#2F3B4D" stroke-width="2" stroke-linejoin="round" stroke-linecap="round"/></g><g transform="translate(215.54 427.36) rotate(90.00)"><polygon points="0,0 -10.40,6.24 -10.40,-6.24" fill="#2F3B4D" stroke="#2F3B4D" stroke-width="2" stroke-linejoin="round" stroke-linecap="round"/></g><g transform="translate(60.97 427.36) rotate(90.00)"><polygon points="0,0 -10.40,6.24 -10.40,-6.24" fill="#2F3B4D" stroke="#2F3B4D" stroke-width="2" stroke-linejoin="round" stroke-linecap="round"/></g><g transform="translate(154.25 529.08) rotate(90.00)"><polygon points="0,0 -10.40,6.24 -10.40,-6.24" fill="#2F3B4D" stroke="#2F3B4D" stroke-width="2" stroke-linejoin="round" stroke-linecap="round"/></g><g transform="translate(122.25 529.08) rotate(90.00)"><polygon points="0,0 -10.40,6.24 -10.40,-6.24" fill="#2F3B4D" stroke="#2F3B4D" stroke-width="2" stroke-linejoin="round" stroke-linecap="round"/></g></svg>