<svg xmlns="http://www.w3.org/2000/svg" width="505.028" height="131.17859" viewBox="0 0 505.028 131.17859"><rect x="0" y="0" width="505.028" height="131.17859" fill="#FFFFFF"/><defs><marker id="arrow-0" viewBox="0 0 10 10" refX="5" refY="5" markerUnits="userSpaceOnUse" markerWidth="8" markerHeight="8" orient="auto"><path d="M 0 0 L 10 5 L 0 10 z" fill="#2F3B4D" stroke="#2F3B4D" stroke-width="1" stroke-dasharray="1,0"/></marker><marker id="arrow-start-0" viewBox="0 0 10 10" refX="4.5" refY="5" markerUnits="userSpaceOnUse" markerWidth="8" markerHeight="8" orient="auto"><path d="M 0 5 L 10 10 L 10 0 z" fill="#2F3B4D" stroke="#2F3B4D" stroke-width="1" stroke-dasharray="1,0"/></marker></defs><path d="M 72.075,65.589 L 108.137,65.589" fill="none" stroke="#2F3B4D" stroke-width="2"    stroke-linecap="round" stroke-linejoin="round" /><path d="M 223.315,65.589L 224.367,65.589C225.419,65.589,227.523,65.589,229.626,65.589C231.730,65.589,233.833,65.589,235.739,64.975C237.644,64.360,239.351,63.131,247.185,57.490C255.018,51.850,268.978,41.798,276.812,36.158C284.646,30.517,286.353,29.288,288.258,28.673C290.163,28.059,292.267,28.059,294.371,28.059C296.474,28.059,298.578,28.059,299.629,28.059L 300.681,28.059" fill="none" stroke="#2F3B4D" stroke-width="2"    stroke-linecap="round" stroke-linejoin="round" /><rect x="239.61" y="43.15" width="31.97" height="28.40" rx="2" ry="2" fill="rgba(248,250,252, 0.92)" fill-opacity="0.95" stroke="#7B88A8" stroke-opacity="0.45" stroke-width="0.8"/><text x="255.60" y="61.35" text-anchor="middle" font-family="'trebuchet ms', verdana, arial, sans-serif" font-size="16" fill="#333333"><tspan x="255.60" dy="0.00">yes</tspan></text><path d="M 207.315,81.589L 208.367,81.589C209.419,81.589,211.523,81.589,213.626,81.589C215.730,81.589,217.833,81.589,219.886,81.912C221.939,82.235,223.941,82.880,234.073,86.146C244.205,89.412,262.467,95.298,272.599,98.564C282.732,101.829,284.734,102.475,286.787,102.797C288.839,103.120,290.943,103.120,293.047,103.120C295.150,103.120,297.254,103.120,298.306,103.120L 299.357,103.120" fill="none" stroke="#2F3B4D" stroke-width="2"    stroke-linecap="round" stroke-linejoin="round" /><rect x="241.18" y="78.15" width="24.31" height="28.40" rx="2" ry="2" fill="rgba(248,250,252, 0.92)" fill-opacity="0.95" stroke="#7B88A8" stroke-opacity="0.45" stroke-width="0.8"/><text x="253.34" y="96.35" text-anchor="middle" font-family="'trebuchet ms', verdana, arial, sans-serif" font-size="16" fill="#333333"><tspan x="253.34" dy="0.00">no</tspan></text><path d="M 394.883,28.059L 395.935,28.059C396.987,28.059,399.090,28.059,401.194,28.059C403.298,28.059,405.401,28.059,407.190,28.809C408.979,29.559,410.454,31.060,413.243,33.898C416.032,36.736,420.136,40.912,422.925,43.750C425.714,46.589,427.188,48.089,428.977,48.839C430.766,49.589,432.870,49.589,434.973,49.589C437.077,49.589,439.180,49.589,440.232,49.589L 441.284,49.589" fill="none" stroke="#2F3B4D" stroke-width="2"    stroke-linecap="round" stroke-linejoin="round" /><path d="M 381.497,103.120L 382.549,103.120C383.601,103.120,385.704,103.120,387.808,103.120C389.911,103.120,392.015,103.120,393.959,102.564C395.904,102.007,397.689,100.895,402.554,97.863C407.418,94.831,415.363,89.879,420.227,86.847C425.092,83.815,426.877,82.702,428.822,82.146C430.766,81.589,432.870,81.589,434.973,81.589C437.077,81.589,439.180,81.589,440.232,81.589L 441.284,81.589" fill="none" stroke="#2F3B4D" stroke-width="2"    stroke-linecap="round" stroke-linejoin="round" /><rect x="8.00" y="46.09" width="64.08" height="39.00" rx="19.50" ry="19.50" fill="#ECECFF" stroke="#7B88A8" stroke-width="1" stroke-linejoin="round" stroke-linecap="round"/><text x="40.04" y="69.59" text-anchor="middle" font-family="'trebuchet ms', verdana, arial, sans-serif" font-size="16" fill="#333333"><tspan x="40.04" dy="0.00">Start</tspan></text><polygon points="165.73,8.00 223.32,65.59 165.73,123.18 108.14,65.59" fill="#ECECFF" stroke="#7B88A8" stroke-width="1" stroke-linejoin="round" stroke-linecap="round"/><text x="165.73" y="69.59" text-anchor="middle" font-family="'trebuchet ms', verdana, arial, sans-serif" font-size="16" fill="#333333"><tspan x="165.73" dy="0.00">Decision</tspan></text><polygon points="311.02,8.56 405.22,8.56 384.54,47.56 290.34,47.56" fill="#ECECFF" stroke="#7B88A8" stroke-width="1" stroke-linejoin="round" stroke-linecap="round"/><text x="347.78" y="32.06" text-anchor="middle" font-family="'trebuchet ms', verdana, arial, sans-serif" font-size="16" fill="#333333"><tspan x="347.78" dy="0.00">Do thing</tspan></text><polygon points="290.34,83.62 372.48,83.62 390.51,122.62 308.37,122.62" fill="#ECECFF" stroke="#7B88A8" stroke-width="1" stroke-linejoin="round" stroke-linecap="round"/><text x="340.43" y="107.12" text-anchor="middle" font-family="'trebuchet ms', verdana, arial, sans-serif" font-size="16" fill="#333333"><tspan x="340.43" dy="0.00">\Skip\</tspan></text><rect x="441.28" y="46.09" width="55.74" height="39.00" rx="6" ry="6" fill="#ECECFF" stroke="#7B88A8" stroke-width="1" stroke-linejoin="round" stroke-linecap="round"/><line x1="447.28" y1="48.09" x2="447.28" y2="83.09" stroke="#7B88A8" stroke-width="1" stroke-linejoin="round" stroke-linecap="round"/><line x1="491.03" y1="48.09" x2="491.03" y2="83.09" stroke="#7B88A8" stroke-width="1" stroke-linejoin="round" stroke-linecap="round"/><text x="469.16" y="69.59" text-anchor="middle" font-family="'trebuchet ms', verdana, arial, sans-serif" font-size="16" fill="#333333"><tspan x="469.16" dy="0.00">End</tspan></text><g transform="translate(108.14 65.59) rotate(0.00)"><polygon points="0,0 -10.40,6.24 -10.40,-6.24" fill="#2F3B4D" stroke="#2F3B4D" stroke-width="2" stroke-linejoin="round" stroke-linecap="round"/></g><g transform="translate(300.68 28.06) rotate(0.00)"><polygon points="0,0 -10.40,6.24 -10.40,-6.24" fill="#2F3B4D" stroke="#2F3B4D" stroke-width="2" stroke-linejoin="round" stroke-linecap="round"/></g><g transform="translate(299.36 103.12) rotate(0.00)"><polygon points="0,0 -10.40,6.24 -10.40,-6.24" fill="#2F3B4D" stroke="#2F3B4D" stroke-width="2" stroke-linejoin="round" stroke-linecap="round"/></g><g transform="translate(441.28 49.59) rotate(0.00)"><polygon points="0,0 -10.40,6.24 -10.40,-6.24" fill="#2F3B4D" stroke="#2F3B4D" stroke-width="2" stroke-linejoin="round" stroke-linecap="round"/></g><g transform="translate(441.28 81.59) rotate(0.00)"><polygon points="0,0 -10.40,6.24 -10.40,-6.24" fill="#2F3B4D" stroke="#2F3B4D" stroke-width="2" stroke-linejoin="round" stroke-linecap="round"/></g></svg>