<svg xmlns="http://www.w3.org/2000/svg" width="908.52014" height="1206.5803" viewBox="0 0 908.52014 1206.5803"><rect x="0" y="0" width="908.52014" height="1206.5803" fill="#FFFFFF"/><defs><marker id="arrow-0" viewBox="0 0 10 10" refX="5" refY="5" markerUnits="userSpaceOnUse" markerWidth="8" markerHeight="8" orient="auto"><path d="M 0 0 L 10 5 L 0 10 z" fill="#2F3B4D" stroke="#2F3B4D" stroke-width="1" stroke-dasharray="1,0"/></marker><marker id="arrow-start-0" viewBox="0 0 10 10" refX="4.5" refY="5" markerUnits="userSpaceOnUse" markerWidth="8" markerHeight="8" orient="auto"><path d="M 0 5 L 10 10 L 10 0 z" fill="#2F3B4D" stroke="#2F3B4D" stroke-width="1" stroke-dasharray="1,0"/></marker></defs><rect x="8.00" y="384.96" width="785.84" height="449.78" rx="10" ry="10" fill="#FFFFDE" stroke="#AAAA33" stroke-width="1" /><text x="400.92" y="412.96" text-anchor="middle" font-family="'trebuchet ms', verdana, arial, sans-serif" font-size="16" fill="#333333"><tspan x="400.92" dy="0.00">Process</tspan></text><rect x="562.20" y="8.00" width="338.32" height="510.96" rx="10" ry="10" fill="#FFFFDE" stroke="#AAAA33" stroke-width="1" /><text x="731.36" y="36.00" text-anchor="middle" font-family="'trebuchet ms', verdana, arial, sans-serif" font-size="16" fill="#333333"><tspan x="731.36" dy="0.00">Ingest</tspan></text><rect x="562.20" y="700.74" width="315.35" height="497.84" rx="10" ry="10" fill="#FFFFDE" stroke="#AAAA33" stroke-width="1" /><text x="719.88" y="728.74" text-anchor="middle" font-family="'trebuchet ms', verdana, arial, sans-serif" font-size="16" fill="#333333"><tspan x="719.88" dy="0.00">Output</tspan></text><path d="M 721.578,102.000L 721.578,103.269C721.578,104.537,721.578,107.074,721.578,109.611C721.578,112.148,721.578,114.685,722.319,116.984C723.060,119.282,724.542,121.341,725.367,122.486C726.191,123.631,726.357,123.862,727.182,125.007C728.006,126.152,729.488,128.211,730.229,130.509C730.970,132.808,730.970,135.345,730.970,137.882C730.970,140.419,730.970,142.956,730.970,144.225L 730.970,145.493" fill="none" stroke="#2F3B4D" stroke-width="2"    stroke-linecap="round" stroke-linejoin="round" /><path d="M 714.970,244.672L 714.970,245.940C714.970,247.209,714.970,249.746,714.970,252.283C714.970,254.820,714.970,257.357,714.510,259.808C714.050,262.259,713.130,264.623,703.870,288.414C694.610,312.206,677.010,357.425,667.749,381.216C658.489,405.008,657.569,407.372,657.109,409.823C656.649,412.274,656.649,414.811,656.649,417.348C656.649,419.885,656.649,422.422,656.649,423.691L 656.649,424.959" fill="none" stroke="#2F3B4D" stroke-width="2"    stroke-linecap="round" stroke-linejoin="round" /><rect x="673.65" y="320.62" width="24.31" height="28.40" rx="2" ry="2" fill="rgba(248,250,252, 0.92)" fill-opacity="0.95" stroke="#7B88A8" stroke-opacity="0.45" stroke-width="0.8"/><text x="685.81" y="338.82" text-anchor="middle" font-family="'trebuchet ms', verdana, arial, sans-serif" font-size="16" fill="#333333"><tspan x="685.81" dy="0.00">ok</tspan></text><path d="M 762.970,228.672L 762.970,229.940C762.970,231.209,762.970,233.746,762.970,236.283C762.970,238.820,762.970,241.357,763.539,243.760C764.107,246.163,765.242,248.431,771.105,260.138C776.968,271.845,787.557,292.991,793.420,304.698C799.283,316.405,800.419,318.674,800.987,321.076C801.555,323.479,801.555,326.016,801.555,328.553C801.555,331.090,801.555,333.628,801.555,334.896L 801.555,336.165" fill="none" stroke="#2F3B4D" stroke-width="2"    stroke-linecap="round" stroke-linejoin="round" /><rect x="768.24" y="279.78" width="39.62" height="28.40" rx="2" ry="2" fill="rgba(248,250,252, 0.92)" fill-opacity="0.95" stroke="#7B88A8" stroke-opacity="0.45" stroke-width="0.8"/><text x="788.05" y="297.98" text-anchor="middle" font-family="'trebuchet ms', verdana, arial, sans-serif" font-size="16" fill="#333333"><tspan x="788.05" dy="0.00">fail</tspan></text><path d="M 592.201,467.959L 590.932,467.959C589.664,467.959,587.127,467.959,584.590,467.959C582.053,467.959,579.515,467.959,577.061,468.410C574.607,468.861,572.235,469.762,530.674,485.560C489.114,501.358,408.363,532.053,366.803,547.851C325.242,563.649,322.870,564.551,320.416,565.001C317.962,565.452,315.424,565.452,312.887,565.452C310.350,565.452,307.813,565.452,306.545,565.452L 305.276,565.452" fill="none" stroke="#2F3B4D" stroke-width="2"    stroke-linecap="round" stroke-linejoin="round" /><path d="M 205.884,597.452L 204.616,597.452C203.347,597.452,200.810,597.452,198.273,597.452C195.736,597.452,193.199,597.452,191.626,598.684C190.052,599.915,189.443,602.378,187.048,612.062C184.653,621.746,180.472,638.651,178.077,648.335C175.681,658.019,175.072,660.482,173.499,661.714C171.926,662.945,169.389,662.945,166.852,662.945C164.315,662.945,161.778,662.945,160.509,662.945L 159.241,662.945" fill="none" stroke="#2F3B4D" stroke-width="2"    stroke-linecap="round" stroke-linejoin="round" /><path d="M 305.276,597.452L 306.545,597.452C307.813,597.452,310.350,597.452,312.887,597.452C315.424,597.452,317.962,597.452,319.783,598.594C321.605,599.735,322.712,602.018,327.450,611.792C332.187,621.566,340.556,638.831,345.294,648.605C350.031,658.379,351.138,660.662,352.960,661.804C354.782,662.945,357.319,662.945,359.856,662.945C362.393,662.945,364.930,662.945,366.199,662.945L 367.467,662.945" fill="none" stroke="#2F3B4D" stroke-width="2"    stroke-linecap="round" stroke-linejoin="round" /><path d="M 255.580,608.452L 255.580,609.724C255.580,610.995,255.580,613.538,255.580,616.075C255.580,618.612,255.580,621.143,256.228,623.496C256.876,625.849,258.171,628.024,258.819,629.111C259.467,630.199,259.467,630.199,260.115,631.286C260.763,632.373,262.058,634.548,262.706,636.901C263.354,639.254,263.354,641.785,263.354,644.323C263.354,646.860,263.354,649.402,263.354,650.674L 263.354,651.945" fill="none" stroke="#2F3B4D" stroke-width="2"    stroke-linecap="round" stroke-linejoin="round" /><path d="M 159.241,694.945L 160.509,694.945C161.778,694.945,164.315,694.945,166.852,694.945C169.389,694.945,171.926,694.945,173.195,696.214C174.463,697.482,174.463,700.019,174.463,730.181C174.463,760.343,174.463,818.130,174.463,849.024C174.463,879.917,174.463,883.917,176.463,885.917C178.463,887.917,182.463,887.917,254.673,887.917C326.882,887.917,467.302,887.917,539.511,887.917C611.721,887.917,615.721,887.917,617.721,885.917C619.721,883.917,619.721,879.917,619.721,861.156C619.721,842.395,619.721,808.873,619.721,790.843C619.721,772.814,619.721,770.277,620.990,769.008C622.258,767.740,624.795,767.740,627.332,767.740C629.869,767.740,632.406,767.740,633.675,767.740L 634.943,767.740" fill="none" stroke="#2F3B4D" stroke-width="2"    stroke-linecap="round" stroke-linejoin="round" /><path d="M 488.708,694.945L 489.976,694.945C491.245,694.945,493.782,694.945,496.319,694.945C498.856,694.945,501.393,694.945,502.662,696.214C503.931,697.482,503.931,700.019,503.930,707.485C503.931,714.951,503.931,727.345,503.930,735.542C503.931,743.740,503.931,747.740,505.930,749.740C507.931,751.740,511.931,751.740,533.766,751.740C555.602,751.740,595.272,751.740,615.108,751.740L 634.943,751.740" fill="none" stroke="#2F3B4D" stroke-width="2"    stroke-linecap="round" stroke-linejoin="round" /><path d="M 323.974,678.945L 325.243,678.945C326.511,678.945,329.048,678.945,331.586,678.945C334.123,678.945,336.660,678.945,337.928,680.214C339.197,681.482,339.197,684.019,339.197,696.818C339.197,709.617,339.197,732.679,339.197,746.209C339.197,759.740,339.197,763.740,341.197,765.740C343.197,767.740,347.197,767.740,396.488,767.740C445.779,767.740,540.361,767.740,587.652,767.740L 634.943,767.740" fill="none" stroke="#2F3B4D" stroke-width="2"    stroke-linecap="round" stroke-linejoin="round" /><path d="M 699.391,794.740L 699.391,796.008C699.391,797.277,699.391,799.814,699.391,802.351C699.391,804.888,699.391,807.425,700.176,809.690C700.961,811.955,702.531,813.948,705.559,817.793C708.587,821.638,713.073,827.334,716.101,831.179C719.129,835.024,720.699,837.017,721.484,839.282C722.269,841.547,722.269,844.084,722.269,846.621C722.269,849.159,722.269,851.696,722.269,852.964L 722.269,854.233" fill="none" stroke="#2F3B4D" stroke-width="2"    stroke-linecap="round" stroke-linejoin="round" /><path d="M 690.269,915.594L 690.269,916.863C690.269,918.131,690.269,920.668,690.269,923.206C690.269,925.743,690.269,928.280,689.667,930.665C689.064,933.050,687.860,935.283,682.974,944.341C678.088,953.399,669.520,969.283,664.634,978.341C659.748,987.399,658.543,989.632,657.941,992.017C657.339,994.402,657.339,996.939,657.339,999.476C657.339,1002.013,657.339,1004.550,657.339,1005.819L 657.339,1007.087" fill="none" stroke="#2F3B4D" stroke-width="2"    stroke-linecap="round" stroke-linejoin="round" /><rect x="653.99" y="947.14" width="39.62" height="28.40" rx="2" ry="2" fill="rgba(248,250,252, 0.92)" fill-opacity="0.95" stroke="#7B88A8" stroke-opacity="0.45" stroke-width="0.8"/><text x="673.80" y="965.34" text-anchor="middle" font-family="'trebuchet ms', verdana, arial, sans-serif" font-size="16" fill="#333333"><tspan x="673.80" dy="0.00">fast</tspan></text><path d="M 738.269,899.594L 738.269,900.863C738.269,902.131,738.269,904.668,738.269,907.206C738.269,909.743,738.269,912.280,738.812,914.695C739.355,917.110,740.441,919.403,745.980,931.097C751.519,942.792,761.512,963.889,767.051,975.584C772.590,987.279,773.676,989.572,774.219,991.987C774.762,994.402,774.762,996.939,774.762,999.476C774.762,1002.013,774.762,1004.550,774.762,1005.819L 774.762,1007.087" fill="none" stroke="#2F3B4D" stroke-width="2"    stroke-linecap="round" stroke-linejoin="round" /><rect x="742.18" y="950.70" width="39.62" height="28.40" rx="2" ry="2" fill="rgba(248,250,252, 0.92)" fill-opacity="0.95" stroke="#7B88A8" stroke-opacity="0.45" stroke-width="0.8"/><text x="761.99" y="968.90" text-anchor="middle" font-family="'trebuchet ms', verdana, arial, sans-serif" font-size="16" fill="#333333"><tspan x="761.99" dy="0.00">slow</tspan></text><path d="M 657.339,1061.087L 657.339,1062.356C657.339,1063.625,657.339,1066.162,657.339,1068.699C657.339,1071.236,657.339,1073.773,658.536,1075.461C659.733,1077.150,662.127,1077.989,667.131,1079.744C672.135,1081.499,679.748,1084.169,684.752,1085.924C689.756,1087.679,692.150,1088.518,693.347,1090.207C694.544,1091.895,694.544,1094.432,694.544,1096.969C694.544,1099.506,694.544,1102.043,694.544,1103.312L 694.544,1104.580" fill="none" stroke="#2F3B4D" stroke-width="2"    stroke-linecap="round" stroke-linejoin="round" /><path d="M 774.762,1061.087L 774.762,1062.356C774.762,1063.625,774.762,1066.162,774.762,1068.699C774.762,1071.236,774.762,1073.773,773.586,1075.518C772.411,1077.262,770.059,1078.215,765.865,1079.913C761.671,1081.612,755.635,1084.056,751.441,1085.755C747.248,1087.453,744.896,1088.405,743.720,1090.150C742.544,1091.895,742.544,1094.432,742.544,1096.969C742.544,1099.506,742.544,1102.043,742.544,1103.312L 742.544,1104.580" fill="none" stroke="#2F3B4D" stroke-width="2"    stroke-linecap="round" stroke-linejoin="round" /><path d="M 817.555,390.165L 817.555,391.433C817.555,392.702,817.555,395.239,817.555,397.776C817.555,400.313,817.555,402.850,818.823,404.119C820.092,405.387,822.629,405.387,830.442,405.387C838.255,405.387,851.344,405.387,859.888,405.387C868.433,405.387,872.433,405.387,874.433,407.387C876.433,409.387,876.433,413.387,876.433,525.382C876.433,637.377,876.433,857.368,876.433,969.363C876.433,1081.358,876.433,1085.358,874.433,1087.358C872.433,1089.358,868.433,1089.358,844.720,1089.358C821.007,1089.358,777.581,1089.358,754.600,1089.358C731.619,1089.358,729.082,1089.358,727.813,1090.626C726.544,1091.895,726.544,1094.432,726.544,1096.969C726.544,1099.506,726.544,1102.043,726.544,1103.312L 726.544,1104.580" fill="none" stroke="#2F3B4D" stroke-width="2"    stroke-linecap="round" stroke-linejoin="round" /><path d="M 705.578,102.000L 705.578,103.269C705.578,104.537,705.578,107.074,705.578,109.611C705.578,112.148,705.578,114.685,704.309,115.954C703.041,117.223,700.504,117.223,630.171,117.223C559.838,117.223,421.709,117.223,350.645,117.223C279.580,117.223,275.580,117.223,273.580,119.223C271.580,121.223,271.580,125.223,271.580,198.094C271.580,270.966,271.580,412.709,271.580,483.581L 271.580,554.452" fill="none" stroke="#2F3B4D" stroke-width="2"   stroke-dasharray="2" stroke-linecap="round" stroke-linejoin="round" /><rect x="475.00" y="103.02" width="47.28" height="28.40" rx="2" ry="2" fill="rgba(248,250,252, 0.92)" fill-opacity="0.95" stroke="#7B88A8" stroke-opacity="0.45" stroke-width="0.8"/><text x="498.63" y="121.22" text-anchor="middle" font-family="'trebuchet ms', verdana, arial, sans-serif" font-size="16" fill="#333333"><tspan x="498.63" dy="0.00">retry</tspan></text><path d="M 656.649,478.959L 656.649,480.228C656.649,481.496,656.649,484.033,656.649,486.570C656.649,489.107,656.649,491.645,655.380,492.913C654.112,494.182,651.575,494.182,638.979,494.182C626.383,494.182,603.729,494.182,590.402,494.182C577.075,494.182,573.075,494.182,571.075,496.182C569.075,498.182,569.075,502.182,569.075,557.653C569.075,613.125,569.075,720.067,569.075,775.539C569.075,831.010,569.075,835.010,571.075,837.010C573.075,839.010,577.075,839.010,596.006,839.010C614.936,839.010,648.797,839.010,666.996,839.010C685.195,839.010,687.732,839.010,689.000,840.279C690.269,841.547,690.269,844.084,690.269,846.621C690.269,849.159,690.269,851.696,690.269,852.964L 690.269,854.233" fill="none" stroke="#2F3B4D" stroke-width="2"    stroke-linecap="round" stroke-linejoin="round" /><path d="M 444.088,651.945L 444.088,650.677C444.088,649.408,444.088,646.871,444.088,644.334C444.088,641.797,444.088,639.260,445.356,637.991C446.625,636.723,449.162,636.723,504.073,636.723C558.984,636.723,666.270,636.723,721.912,636.723C777.555,636.723,781.555,636.723,783.555,634.723C785.555,632.723,785.555,628.723,785.555,587.630C785.555,546.537,785.555,468.351,785.555,429.258L 785.555,390.165" fill="none" stroke="#2F3B4D" stroke-width="2"   stroke-dasharray="2" stroke-linecap="round" stroke-linejoin="round" /><rect x="591.18" y="622.52" width="47.28" height="28.40" rx="2" ry="2" fill="rgba(248,250,252, 0.92)" fill-opacity="0.95" stroke="#7B88A8" stroke-opacity="0.45" stroke-width="0.8"/><text x="614.82" y="640.72" text-anchor="middle" font-family="'trebuchet ms', verdana, arial, sans-serif" font-size="16" fill="#333333"><tspan x="614.82" dy="0.00">audit</tspan></text><rect x="668.61" y="48.00" width="105.93" height="54.00" rx="3" ry="3" fill="#ECECFF" stroke="#7B88A8" stroke-width="1" stroke-linejoin="round" stroke-linecap="round"/><text x="721.58" y="79.00" text-anchor="middle" font-family="'trebuchet ms', verdana, arial, sans-serif" font-size="16" fill="#333333"><tspan x="721.58" dy="0.00">Source</tspan></text><polygon points="730.97,145.49 788.56,203.08 730.97,260.67 673.38,203.08" fill="#ECECFF" stroke="#7B88A8" stroke-width="1" stroke-linejoin="round" stroke-linecap="round"/><text x="730.97" y="207.08" text-anchor="middle" font-family="'trebuchet ms', verdana, arial, sans-serif" font-size="16" fill="#333333"><tspan x="730.97" dy="0.00">Validate</tspan></text><rect x="592.20" y="424.96" width="128.90" height="54.00" rx="3" ry="3" fill="#ECECFF" stroke="#7B88A8" stroke-width="1" stroke-linejoin="round" stroke-linecap="round"/><text x="656.65" y="455.96" text-anchor="middle" font-family="'trebuchet ms', verdana, arial, sans-serif" font-size="16" fill="#333333"><tspan x="656.65" dy="0.00">Normalize</tspan></text><rect x="764.59" y="336.16" width="105.93" height="54.00" rx="3" ry="3" fill="#ECECFF" stroke="#7B88A8" stroke-width="1" stroke-linejoin="round" stroke-linecap="round"/><text x="817.55" y="367.16" text-anchor="middle" font-family="'trebuchet ms', verdana, arial, sans-serif" font-size="16" fill="#333333"><tspan x="817.55" dy="0.00">Reject</tspan></text><rect x="205.88" y="554.45" width="99.39" height="54.00" rx="3" ry="3" fill="#ECECFF" stroke="#7B88A8" stroke-width="1" stroke-linejoin="round" stroke-linecap="round"/><text x="255.58" y="585.45" text-anchor="middle" font-family="'trebuchet ms', verdana, arial, sans-serif" font-size="16" fill="#333333"><tspan x="255.58" dy="0.00">Queue</tspan></text><rect x="38.00" y="651.95" width="121.24" height="54.00" rx="3" ry="3" fill="#ECECFF" stroke="#7B88A8" stroke-width="1" stroke-linejoin="round" stroke-linecap="round"/><text x="98.62" y="682.95" text-anchor="middle" font-family="'trebuchet ms', verdana, arial, sans-serif" font-size="16" fill="#333333"><tspan x="98.62" dy="0.00">Worker 1</tspan></text><rect x="367.47" y="651.95" width="121.24" height="54.00" rx="3" ry="3" fill="#ECECFF" stroke="#7B88A8" stroke-width="1" stroke-linejoin="round" stroke-linecap="round"/><text x="428.09" y="682.95" text-anchor="middle" font-family="'trebuchet ms', verdana, arial, sans-serif" font-size="16" fill="#333333"><tspan x="428.09" dy="0.00">Worker 2</tspan></text><rect x="202.73" y="651.95" width="121.24" height="54.00" rx="3" ry="3" fill="#ECECFF" stroke="#7B88A8" stroke-width="1" stroke-linejoin="round" stroke-linecap="round"/><text x="263.35" y="682.95" text-anchor="middle" font-family="'trebuchet ms', verdana, arial, sans-serif" font-size="16" fill="#333333"><tspan x="263.35" dy="0.00">Worker 3</tspan></text><rect x="634.94" y="740.74" width="128.90" height="54.00" rx="3" ry="3" fill="#ECECFF" stroke="#7B88A8" stroke-width="1" stroke-linejoin="round" stroke-linecap="round"/><text x="699.39" y="771.74" text-anchor="middle" font-family="'trebuchet ms', verdana, arial, sans-serif" font-size="16" fill="#333333"><tspan x="699.39" dy="0.00">Aggregate</tspan></text><polygon points="706.27,838.23 752.95,884.91 706.27,931.59 659.59,884.91" fill="#ECECFF" stroke="#7B88A8" stroke-width="1" stroke-linejoin="round" stroke-linecap="round"/><text x="706.27" y="888.91" text-anchor="middle" font-family="'trebuchet ms', verdana, arial, sans-serif" font-size="16" fill="#333333"><tspan x="706.27" dy="0.00">Route</tspan></text><rect x="592.20" y="1007.09" width="98.28" height="54.00" rx="3" ry="3" fill="#ECECFF" stroke="#7B88A8" stroke-width="1" stroke-linejoin="round" stroke-linecap="round"/><text x="641.34" y="1038.09" text-anchor="middle" font-family="'trebuchet ms', verdana, arial, sans-serif" font-size="16" fill="#333333"><tspan x="641.34" dy="0.00">Cache</tspan></text><rect x="733.97" y="1007.09" width="113.59" height="54.00" rx="3" ry="3" fill="#ECECFF" stroke="#7B88A8" stroke-width="1" stroke-linejoin="round" stroke-linecap="round"/><text x="790.76" y="1038.09" text-anchor="middle" font-family="'trebuchet ms', verdana, arial, sans-serif" font-size="16" fill="#333333"><tspan x="790.76" dy="0.00">Archive</tspan></text><rect x="673.58" y="1104.58" width="105.93" height="54.00" rx="3" ry="3" fill="#ECECFF" stroke="#7B88A8" stroke-width="1" stroke-linejoin="round" stroke-linecap="round"/><text x="726.54" y="1135.58" text-anchor="middle" font-family="'trebuchet ms', verdana, arial, sans-serif" font-size="16" fill="#333333"><tspan x="726.54" dy="0.00">Notify</tspan></text><g transform="translate(730.97 145.49) rotate(90.00)"><polygon points="0,0 -10.40,6.24 -10.40,-6.24" fill="#2F3B4D" stroke="#2F3B4D" stroke-width="2" stroke-linejoin="round" stroke-linecap="round"/></g><g transform="translate(656.65 424.96) rotate(90.00)"><polygon points="0,0 -10.40,6.24 -10.40,-6.24" fill="#2F3B4D" stroke="#2F3B4D" stroke-width="2" stroke-linejoin="round" stroke-linecap="round"/></g><g transform="translate(801.55 336.16) rotate(90.00)"><polygon points="0,0 -10.40,6.24 -10.40,-6.24" fill="#2F3B4D" stroke="#2F3B4D" stroke-width="2" stroke-linejoin="round" stroke-linecap="round"/></g><g transform="translate(305.28 565.45) rotate(180.00)"><polygon points="0,0 -10.40,6.24 -10.40,-6.24" fill="#2F3B4D" stroke="#2F3B4D" stroke-width="2" stroke-linejoin="round" stroke-linecap="round"/></g><g transform="translate(159.24 662.95) rotate(180.00)"><polygon points="0,0 -10.40,6.24 -10.40,-6.24" fill="#2F3B4D" stroke="#2F3B4D" stroke-width="2" stroke-linejoin="round" stroke-linecap="round"/></g><g transform="translate(367.47 662.95) rotate(0.00)"><polygon points="0,0 -10.40,6.24 -10.40,-6.24" fill="#2F3B4D" stroke="#2F3B4D" stroke-width="2" stroke-linejoin="round" stroke-linecap="round"/></g><g transform="translate(263.35 651.95) rotate(90.00)"><polygon points="0,0 -10.40,6.24 -10.40,-6.24" fill="#2F3B4D" stroke="#2F3B4D" stroke-width="2" stroke-linejoin="round" stroke-linecap="round"/></g><g transform="translate(634.94 767.74) rotate(0.00)"><polygon points="0,0 -10.40,6.24 -10.40,-6.24" fill="#2F3B4D" stroke="#2F3B4D" stroke-width="2" stroke-linejoin="round" stroke-linecap="round"/></g><g transform="translate(634.94 751.74) rotate(0.00)"><polygon points="0,0 -10.40,6.24 -10.40,-6.24" fill="#2F3B4D" stroke="#2F3B4D" stroke-width="2" stroke-linejoin="round" stroke-linecap="round"/></g><g transform="translate(634.94 767.74) rotate(0.00)"><polygon points="0,0 -10.40,6.24 -10.40,-6.24" fill="#2F3B4D" stroke="#2F3B4D" stroke-width="2" stroke-linejoin="round" stroke-linecap="round"/></g><g transform="translate(722.27 854.23) rotate(90.00)"><polygon points="0,0 -10.40,6.24 -10.40,-6.24" fill="#2F3B4D" stroke="#2F3B4D" stroke-width="2" stroke-linejoin="round" stroke-linecap="round"/></g><g transform="translate(657.34 1007.09) rotate(90.00)"><polygon points="0,0 -10.40,6.24 -10.40,-6.24" fill="#2F3B4D" stroke="#2F3B4D" stroke-width="2" stroke-linejoin="round" stroke-linecap="round"/></g><g transform="translate(774.76 1007.09) rotate(90.00)"><polygon points="0,0 -10.40,6.24 -10.40,-6.24" fill="#2F3B4D" stroke="#2F3B4D" stroke-width="2" stroke-linejoin="round" stroke-linecap="round"/></g><g transform="translate(694.54 1104.58) rotate(90.00)"><polygon points="0,0 -10.40,6.24 -10.40,-6.24" fill="#2F3B4D" stroke="#2F3B4D" stroke-width="2" stroke-linejoin="round" stroke-linecap="round"/></g><g transform="translate(742.54 1104.58) rotate(90.00)"><polygon points="0,0 -10.40,6.24 -10.40,-6.24" fill="#2F3B4D" stroke="#2F3B4D" stroke-width="2" stroke-linejoin="round" stroke-linecap="round"/></g><g transform="translate(726.54 1104.58) rotate(90.00)"><polygon points="0,0 -10.40,6.24 -10.40,-6.24" fill="#2F3B4D" stroke="#2F3B4D" stroke-width="2" stroke-linejoin="round" stroke-linecap="round"/></g><g transform="translate(271.58 554.45) rotate(90.00)"><polygon points="0,0 -10.40,6.24 -10.40,-6.24" fill="#2F3B4D" stroke="#2F3B4D" stroke-width="2" stroke-linejoin="round" stroke-linecap="round"/></g><g transform="translate(690.27 854.23) rotate(90.00)"><polygon points="0,0 -10.40,6.24 -10.40,-6.24" fill="#2F3B4D" stroke="#2F3B4D" stroke-width="2" stroke-linejoin="round" stroke-linecap="round"/></g><g transform="translate(785.55 390.16) rotate(-90.00)"><polygon points="0,0 -10.40,6.24 -10.40,-6.24" fill="#2F3B4D" stroke="#2F3B4D" stroke-width="2" stroke-linejoin="round" stroke-linecap="round"/></g></svg>