<svg xmlns="http://www.w3.org/2000/svg" width="1044.0787" height="134.77133" viewBox="0 0 1044.0787 134.77133"><rect x="0" y="0" width="1044.0787" height="134.77133" fill="#FFFFFF"/><defs><marker id="arrow-0" viewBox="0 0 10 10" refX="5" refY="5" markerUnits="userSpaceOnUse" markerWidth="8" markerHeight="8" orient="auto"><path d="M 0 0 L 10 5 L 0 10 z" fill="#2F3B4D" stroke="#2F3B4D" stroke-width="1" stroke-dasharray="1,0"/></marker><marker id="arrow-start-0" viewBox="0 0 10 10" refX="4.5" refY="5" markerUnits="userSpaceOnUse" markerWidth="8" markerHeight="8" orient="auto"><path d="M 0 5 L 10 10 L 10 0 z" fill="#2F3B4D" stroke="#2F3B4D" stroke-width="1" stroke-dasharray="1,0"/></marker></defs><path d="M 113.930,70.376L 115.295,70.376C116.659,70.376,119.387,70.376,122.115,70.376C124.844,70.376,127.572,70.376,130.057,69.597C132.541,68.819,134.782,67.262,145.223,60.007C155.665,52.753,174.307,39.800,185.271,32.182C196.235,24.565,199.520,22.282,202.432,22.687C205.344,23.091,207.883,26.181,213.915,33.523C219.947,40.865,229.472,52.458,235.100,59.309C240.729,66.159,242.461,68.268,244.691,69.322C246.921,70.376,249.649,70.376,252.378,70.376C255.106,70.376,257.834,70.376,259.199,70.376L 260.563,70.376" fill="none" stroke="#2F3B4D" stroke-width="2"    stroke-linecap="round" stroke-linejoin="round" /><rect x="156.20" y="5.80" width="93.21" height="28.40" rx="2" ry="2" fill="rgba(248,250,252, 0.92)" fill-opacity="0.95" stroke="#7B88A8" stroke-opacity="0.45" stroke-width="0.8"/><text x="202.80" y="24.00" text-anchor="middle" font-family="'trebuchet ms', verdana, arial, sans-serif" font-size="16" fill="#333333"><tspan x="202.80" dy="0.00">POST /login</tspan></text><path d="M 404.769,70.376L 406.133,70.376C407.497,70.376,410.225,70.376,412.954,70.376C415.682,70.376,418.410,70.376,420.958,69.697C423.505,69.018,425.872,67.660,438.773,60.260C451.674,52.859,475.109,39.415,488.561,31.698C502.014,23.981,505.483,21.990,508.613,22.428C511.743,22.866,514.534,25.732,521.756,33.151C528.978,40.569,540.632,52.540,547.411,59.503C554.190,66.466,556.093,68.421,558.409,69.398C560.724,70.376,563.453,70.376,566.181,70.376C568.909,70.376,571.638,70.376,573.002,70.376L 574.366,70.376" fill="none" stroke="#2F3B4D" stroke-width="2"    stroke-linecap="round" stroke-linejoin="round" /><rect x="447.04" y="5.80" width="123.83" height="28.40" rx="2" ry="2" fill="rgba(248,250,252, 0.92)" fill-opacity="0.95" stroke="#7B88A8" stroke-opacity="0.45" stroke-width="0.8"/><text x="508.95" y="24.00" text-anchor="middle" font-family="'trebuchet ms', verdana, arial, sans-serif" font-size="16" fill="#333333"><tspan x="508.95" dy="0.00">Forward request</tspan></text><path d="M 726.227,70.376L 727.591,70.376C728.955,70.376,731.684,70.376,734.412,70.376C737.140,70.376,739.869,70.376,742.439,69.739C745.010,69.102,747.423,67.829,761.566,60.367C775.708,52.904,801.581,39.252,816.286,31.493C830.991,23.733,834.529,21.867,837.758,22.300C840.987,22.734,843.907,25.467,852.361,33.381C860.814,41.295,874.802,54.388,882.791,61.867C890.781,69.347,892.773,71.211,895.133,72.143C897.493,73.076,900.221,73.076,902.950,73.076C905.678,73.076,908.406,73.076,909.771,73.076L 911.135,73.076" fill="none" stroke="#2F3B4D" stroke-width="2"    stroke-linecap="round" stroke-linejoin="round" /><rect x="768.50" y="5.80" width="139.14" height="28.40" rx="2" ry="2" fill="rgba(248,250,252, 0.92)" fill-opacity="0.95" stroke="#7B88A8" stroke-opacity="0.45" stroke-width="0.8"/><text x="838.07" y="24.00" text-anchor="middle" font-family="'trebuchet ms', verdana, arial, sans-serif" font-size="16" fill="#333333"><tspan x="838.07" dy="0.00">Query credentials</tspan></text><path d="M 911.135,73.076L 909.771,73.076C908.406,73.076,905.678,73.076,902.950,73.076C900.221,73.076,897.493,73.076,894.797,73.371C892.101,73.667,889.438,74.259,878.113,76.775C866.788,79.290,846.802,83.730,834.856,86.383C822.911,89.037,819.006,89.904,815.128,89.796C811.251,89.688,807.400,88.605,796.629,85.575C785.858,82.545,768.167,77.569,758.009,74.711C747.850,71.853,745.223,71.114,742.546,70.745C739.869,70.376,737.140,70.376,734.412,70.376C731.684,70.376,728.955,70.376,727.591,70.376L 726.227,70.376" fill="none" stroke="#2F3B4D" stroke-width="2"    stroke-linecap="round" stroke-linejoin="round" /><rect x="768.50" y="76.57" width="93.21" height="28.40" rx="2" ry="2" fill="rgba(248,250,252, 0.92)" fill-opacity="0.95" stroke="#7B88A8" stroke-opacity="0.45" stroke-width="0.8"/><text x="815.10" y="94.77" text-anchor="middle" font-family="'trebuchet ms', verdana, arial, sans-serif" font-size="16" fill="#333333"><tspan x="815.10" dy="0.00">Return user</tspan></text><path d="M 574.366,70.376L 573.002,70.376C571.638,70.376,568.909,70.376,566.181,70.376C563.453,70.376,560.724,70.376,558.088,70.867C555.451,71.358,552.905,72.340,545.959,75.019C539.013,77.698,527.667,82.075,520.128,84.984C512.589,87.892,508.857,89.332,505.048,89.580C501.238,89.827,497.351,88.883,484.679,85.806C472.007,82.729,450.550,77.518,438.495,74.591C426.441,71.663,423.790,71.020,421.100,70.698C418.410,70.376,415.682,70.376,412.954,70.376C410.225,70.376,407.497,70.376,406.133,70.376L 404.769,70.376" fill="none" stroke="#2F3B4D" stroke-width="2"    stroke-linecap="round" stroke-linejoin="round" /><rect x="447.04" y="76.57" width="116.17" height="28.40" rx="2" ry="2" fill="rgba(248,250,252, 0.92)" fill-opacity="0.95" stroke="#7B88A8" stroke-opacity="0.45" stroke-width="0.8"/><text x="505.13" y="94.77" text-anchor="middle" font-family="'trebuchet ms', verdana, arial, sans-serif" font-size="16" fill="#333333"><tspan x="505.13" dy="0.00">Generate token</tspan></text><path d="M 260.563,70.376L 259.199,70.376C257.834,70.376,255.106,70.376,252.378,70.376C249.649,70.376,246.921,70.376,244.524,71.267C242.127,72.158,240.061,73.940,235.315,78.033C230.570,82.126,223.144,88.530,217.917,93.038C212.690,97.546,209.661,100.159,206.306,100.684C202.950,101.209,199.268,99.646,187.802,94.780C176.336,89.913,157.085,81.743,146.204,77.125C135.323,72.507,132.812,71.442,130.192,70.909C127.572,70.376,124.844,70.376,122.115,70.376C119.387,70.376,116.659,70.376,115.295,70.376L 113.930,70.376" fill="none" stroke="#2F3B4D" stroke-width="2"    stroke-linecap="round" stroke-linejoin="round" /><rect x="156.20" y="76.57" width="100.86" height="52.40" rx="2" ry="2" fill="rgba(248,250,252, 0.92)" fill-opacity="0.95" stroke="#7B88A8" stroke-opacity="0.45" stroke-width="0.8"/><text x="206.63" y="94.77" text-anchor="middle" font-family="'trebuchet ms', verdana, arial, sans-serif" font-size="16" fill="#333333"><tspan x="206.63" dy="0.00">Set cookie &amp;</tspan><tspan x="206.63" dy="24.00">return 200</tspan></text><rect x="8.00" y="43.38" width="105.93" height="54.00" rx="3" ry="3" fill="#ECECFF" stroke="#7B88A8" stroke-width="1" stroke-linejoin="round" stroke-linecap="round"/><text x="60.97" y="74.38" text-anchor="middle" font-family="'trebuchet ms', verdana, arial, sans-serif" font-size="16" fill="#333333"><tspan x="60.97" dy="0.00">Client</tspan></text><rect x="260.56" y="43.38" width="144.21" height="54.00" rx="3" ry="3" fill="#ECECFF" stroke="#7B88A8" stroke-width="1" stroke-linejoin="round" stroke-linecap="round"/><text x="332.67" y="74.38" text-anchor="middle" font-family="'trebuchet ms', verdana, arial, sans-serif" font-size="16" fill="#333333"><tspan x="332.67" dy="0.00">API Gateway</tspan></text><rect x="574.37" y="43.38" width="151.86" height="54.00" rx="3" ry="3" fill="#ECECFF" stroke="#7B88A8" stroke-width="1" stroke-linejoin="round" stroke-linecap="round"/><text x="650.30" y="74.38" text-anchor="middle" font-family="'trebuchet ms', verdana, arial, sans-serif" font-size="16" fill="#333333"><tspan x="650.30" dy="0.00">Auth Service</tspan></text><ellipse cx="973.61" cy="50.50" rx="62.47" ry="7.13" fill="#ECECFF" stroke="#7B88A8" stroke-width="1" stroke-linejoin="round" stroke-linecap="round"/><rect x="911.13" y="50.50" width="124.94" height="45.14" fill="#ECECFF" stroke="#7B88A8" stroke-width="1" stroke-linejoin="round" stroke-linecap="round"/><ellipse cx="973.61" cy="95.65" rx="62.47" ry="7.13" fill="none" stroke="#7B88A8" stroke-width="1" stroke-linejoin="round" stroke-linecap="round"/><text x="973.61" y="77.08" text-anchor="middle" font-family="'trebuchet ms', verdana, arial, sans-serif" font-size="16" fill="#333333"><tspan x="973.61" dy="0.00">User DB</tspan></text><g transform="translate(260.56 70.38) rotate(0.00)"><polygon points="0,0 -10.40,6.24 -10.40,-6.24" fill="#2F3B4D" stroke="#2F3B4D" stroke-width="2" stroke-linejoin="round" stroke-linecap="round"/></g><g transform="translate(574.37 70.38) rotate(0.00)"><polygon points="0,0 -10.40,6.24 -10.40,-6.24" fill="#2F3B4D" stroke="#2F3B4D" stroke-width="2" stroke-linejoin="round" stroke-linecap="round"/></g><g transform="translate(911.13 73.08) rotate(0.00)"><polygon points="0,0 -10.40,6.24 -10.40,-6.24" fill="#2F3B4D" stroke="#2F3B4D" stroke-width="2" stroke-linejoin="round" stroke-linecap="round"/></g><g transform="translate(726.23 70.38) rotate(180.00)"><polygon points="0,0 -10.40,6.24 -10.40,-6.24" fill="#2F3B4D" stroke="#2F3B4D" stroke-width="2" stroke-linejoin="round" stroke-linecap="round"/></g><g transform="translate(404.77 70.38) rotate(180.00)"><polygon points="0,0 -10.40,6.24 -10.40,-6.24" fill="#2F3B4D" stroke="#2F3B4D" stroke-width="2" stroke-linejoin="round" stroke-linecap="round"/></g><g transform="translate(113.93 70.38) rotate(180.00)"><polygon points="0,0 -10.40,6.24 -10.40,-6.24" fill="#2F3B4D" stroke="#2F3B4D" stroke-width="2" stroke-linejoin="round" stroke-linecap="round"/></g></svg>