<svg xmlns="http://www.w3.org/2000/svg" width="1940.0219" height="278" viewBox="0 0 1940.0219 278"><rect x="0" y="0" width="1940.0219" height="278" fill="#FFFFFF"/><defs><marker id="arrow-0" viewBox="0 0 10 10" refX="5" refY="5" markerUnits="userSpaceOnUse" markerWidth="8" markerHeight="8" orient="auto"><path d="M 0 0 L 10 5 L 0 10 z" fill="#2F3B4D" stroke="#2F3B4D" stroke-width="1" stroke-dasharray="1,0"/></marker><marker id="arrow-start-0" viewBox="0 0 10 10" refX="4.5" refY="5" markerUnits="userSpaceOnUse" markerWidth="8" markerHeight="8" orient="auto"><path d="M 0 5 L 10 10 L 10 0 z" fill="#2F3B4D" stroke="#2F3B4D" stroke-width="1" stroke-dasharray="1,0"/></marker></defs><path d="M 152.206,138.990 L 202.206,138.995" fill="none" stroke="#2F3B4D" stroke-width="2"    stroke-linecap="round" stroke-linejoin="round" /><path d="M 298.474,90.995L 299.932,90.995C301.390,90.995,304.307,90.995,307.224,90.995C310.140,90.995,313.057,90.995,315.605,90.026C318.154,89.057,320.334,87.120,329.744,78.756C339.154,70.392,355.794,55.603,365.204,47.239C374.614,38.875,376.794,36.938,379.342,35.969C381.890,35.000,384.807,35.000,387.724,35.000C390.640,35.000,393.557,35.000,395.015,35.000L 396.474,35.000" fill="none" stroke="#2F3B4D" stroke-width="2"    stroke-linecap="round" stroke-linejoin="round" /><path d="M 346.474,138.995 L 396.474,139.000" fill="none" stroke="#2F3B4D" stroke-width="2"    stroke-linecap="round" stroke-linejoin="round" /><path d="M 298.474,186.995L 299.932,186.995C301.390,186.995,304.307,186.995,307.224,186.995C310.140,186.995,313.057,186.995,315.605,187.964C318.154,188.933,320.333,190.871,329.744,199.236C339.154,207.601,355.794,222.394,365.204,230.759C374.614,239.124,376.794,241.062,379.342,242.031C381.890,243.000,384.807,243.000,387.724,243.000C390.640,243.000,393.557,243.000,395.015,243.000L 396.474,243.000" fill="none" stroke="#2F3B4D" stroke-width="2"    stroke-linecap="round" stroke-linejoin="round" /><path d="M 487.094,35.000L 488.552,35.000C490.011,35.000,492.927,35.000,495.844,35.000C498.761,35.000,501.677,35.000,504.288,35.893C506.900,36.786,509.205,38.573,523.541,49.680C537.876,60.788,564.242,81.217,578.578,92.324C592.913,103.432,595.219,105.218,597.830,106.112C600.441,107.005,603.358,107.005,606.274,107.005C609.191,107.005,612.108,107.005,613.566,107.005L 615.025,107.005" fill="none" stroke="#2F3B4D" stroke-width="2"    stroke-linecap="round" stroke-linejoin="round" /><path d="M 533.025,139.000 L 583.025,139.005" fill="none" stroke="#2F3B4D" stroke-width="2"    stroke-linecap="round" stroke-linejoin="round" /><path d="M 494.749,243.000L 496.207,243.000C497.666,243.000,500.582,243.000,503.499,243.000C506.416,243.000,509.332,243.000,511.905,242.059C514.478,241.118,516.706,239.237,529.805,228.178C542.903,217.120,566.871,196.885,579.969,185.826C593.067,174.768,595.296,172.886,597.869,171.946C600.441,171.005,603.358,171.005,606.274,171.005C609.191,171.005,612.108,171.005,613.566,171.005L 615.025,171.005" fill="none" stroke="#2F3B4D" stroke-width="2"    stroke-linecap="round" stroke-linejoin="round" /><path d="M 689.475,155.005L 690.934,155.005C692.392,155.005,695.309,155.005,698.226,155.005C701.142,155.005,704.059,155.005,706.929,154.640C709.800,154.276,712.624,153.547,721.539,151.245C730.455,148.943,745.461,145.069,754.377,142.767C763.292,140.465,766.117,139.736,768.987,139.372C771.857,139.007,774.774,139.007,777.691,139.007C780.607,139.007,783.524,139.007,784.982,139.007L 786.441,139.007" fill="none" stroke="#2F3B4D" stroke-width="2"    stroke-linecap="round" stroke-linejoin="round" /><rect x="731.27" y="130.41" width="31.97" height="28.40" rx="2" ry="2" fill="rgba(248,250,252, 0.92)" fill-opacity="0.95" stroke="#7B88A8" stroke-opacity="0.45" stroke-width="0.8"/><text x="747.25" y="148.61" text-anchor="middle" font-family="'trebuchet ms', verdana, arial, sans-serif" font-size="16" fill="#333333"><tspan x="747.25" dy="0.00">Yes</tspan></text><path d="M 705.475,139.005L 706.934,139.005C708.392,139.005,711.309,139.005,714.226,139.005C717.142,139.005,720.059,139.005,721.517,140.463C722.975,141.921,722.975,144.838,722.976,157.839C722.975,170.839,722.975,193.923,722.976,207.466C722.975,221.008,722.975,225.008,724.976,227.008C726.975,229.008,730.975,229.008,897.153,229.008C1063.331,229.008,1391.686,229.008,1557.863,229.008C1724.041,229.008,1728.041,229.008,1730.041,227.008C1732.041,225.008,1732.041,221.008,1732.041,207.466C1732.041,193.925,1732.041,170.843,1732.041,157.843C1732.041,144.844,1732.041,141.927,1733.499,140.469C1734.957,139.011,1737.874,139.011,1740.791,139.011C1743.707,139.011,1746.624,139.011,1748.082,139.011L 1749.541,139.011" fill="none" stroke="#2F3B4D" stroke-width="2"    stroke-linecap="round" stroke-linejoin="round" /><rect x="1019.00" y="219.61" width="25.77" height="28.40" rx="2" ry="2" fill="rgba(248,250,252, 0.92)" fill-opacity="0.95" stroke="#7B88A8" stroke-opacity="0.45" stroke-width="0.8"/><text x="1031.88" y="237.81" text-anchor="middle" font-family="'trebuchet ms', verdana, arial, sans-serif" font-size="16" fill="#333333"><tspan x="1031.88" dy="0.00">No</tspan></text><path d="M 976.577,139.007 L 1026.577,139.010" fill="none" stroke="#2F3B4D" stroke-width="2"    stroke-linecap="round" stroke-linejoin="round" /><path d="M 1138.845,171.010L 1140.303,171.010C1141.762,171.010,1144.678,171.010,1147.595,171.010C1150.512,171.010,1153.428,171.010,1156.236,170.456C1159.043,169.902,1161.741,168.795,1173.386,164.016C1185.032,159.236,1205.624,150.785,1217.269,146.006C1228.914,141.227,1231.612,140.119,1234.419,139.566C1237.227,139.012,1240.144,139.012,1243.060,139.012C1245.977,139.012,1248.894,139.012,1250.352,139.012L 1251.810,139.012" fill="none" stroke="#2F3B4D" stroke-width="2"    stroke-linecap="round" stroke-linejoin="round" /><rect x="1197.51" y="133.36" width="31.97" height="28.40" rx="2" ry="2" fill="rgba(248,250,252, 0.92)" fill-opacity="0.95" stroke="#7B88A8" stroke-opacity="0.45" stroke-width="0.8"/><text x="1213.49" y="151.56" text-anchor="middle" font-family="'trebuchet ms', verdana, arial, sans-serif" font-size="16" fill="#333333"><tspan x="1213.49" dy="0.00">Yes</tspan></text><path d="M 1170.845,139.010L 1172.303,139.010C1173.762,139.010,1176.678,139.010,1179.595,139.010C1182.512,139.010,1185.428,139.010,1186.887,137.551C1188.345,136.093,1188.345,133.176,1188.345,125.176C1188.345,117.177,1188.345,104.093,1188.345,95.552C1188.345,87.010,1188.345,83.010,1190.345,81.010C1192.345,79.010,1196.345,79.010,1284.961,79.010C1373.577,79.010,1546.809,79.010,1635.425,79.010C1724.041,79.010,1728.041,79.010,1730.041,81.010C1732.041,83.010,1732.041,87.010,1732.041,95.552C1732.041,104.094,1732.041,117.177,1732.041,125.177C1732.041,133.177,1732.041,136.094,1733.499,137.552C1734.957,139.011,1737.874,139.011,1740.791,139.011C1743.707,139.011,1746.624,139.011,1748.082,139.011L 1749.541,139.011" fill="none" stroke="#2F3B4D" stroke-width="2"    stroke-linecap="round" stroke-linejoin="round" /><rect x="1447.31" y="64.81" width="25.77" height="28.40" rx="2" ry="2" fill="rgba(248,250,252, 0.92)" fill-opacity="0.95" stroke="#7B88A8" stroke-opacity="0.45" stroke-width="0.8"/><text x="1460.19" y="83.01" text-anchor="middle" font-family="'trebuchet ms', verdana, arial, sans-serif" font-size="16" fill="#333333"><tspan x="1460.19" dy="0.00">No</tspan></text><path d="M 1464.912,139.012 L 1539.680,139.012" fill="none" stroke="#2F3B4D" stroke-width="2"    stroke-linecap="round" stroke-linejoin="round" /><path d="M 1653.265,139.012L 1654.724,139.012C1656.182,139.012,1659.099,139.012,1662.015,139.012C1664.932,139.012,1667.849,139.012,1670.718,139.380C1673.587,139.749,1676.409,140.486,1685.211,142.784C1694.012,145.082,1708.793,148.941,1717.595,151.239C1726.396,153.537,1729.219,154.274,1732.088,154.642C1734.957,155.011,1737.874,155.011,1740.791,155.011C1743.707,155.011,1746.624,155.011,1748.082,155.011L 1749.541,155.011" fill="none" stroke="#2F3B4D" stroke-width="2"    stroke-linecap="round" stroke-linejoin="round" /><rect x="1668.57" y="130.41" width="47.28" height="28.40" rx="2" ry="2" fill="rgba(248,250,252, 0.92)" fill-opacity="0.95" stroke="#7B88A8" stroke-opacity="0.45" stroke-width="0.8"/><text x="1692.21" y="148.61" text-anchor="middle" font-family="'trebuchet ms', verdana, arial, sans-serif" font-size="16" fill="#333333"><tspan x="1692.21" dy="0.00">Alert</tspan></text><rect x="8.00" y="111.99" width="144.21" height="54.00" rx="3" ry="3" fill="#ECECFF" stroke="#7B88A8" stroke-width="1" stroke-linejoin="round" stroke-linecap="round"/><text x="80.10" y="142.99" text-anchor="middle" font-family="'trebuchet ms', verdana, arial, sans-serif" font-size="16" fill="#333333"><tspan x="80.10" dy="0.00">Push to Git</tspan></text><polygon points="274.34,66.86 346.47,138.99 274.34,211.13 202.21,138.99" fill="#ECECFF" stroke="#7B88A8" stroke-width="1" stroke-linejoin="round" stroke-linecap="round"/><text x="274.34" y="142.99" text-anchor="middle" font-family="'trebuchet ms', verdana, arial, sans-serif" font-size="16" fill="#333333"><tspan x="274.34" dy="0.00">CI Triggered</tspan></text><rect x="396.47" y="8.00" width="90.62" height="54.00" rx="3" ry="3" fill="#ECECFF" stroke="#7B88A8" stroke-width="1" stroke-linejoin="round" stroke-linecap="round"/><text x="441.78" y="39.00" text-anchor="middle" font-family="'trebuchet ms', verdana, arial, sans-serif" font-size="16" fill="#333333"><tspan x="441.78" dy="0.00">Lint</tspan></text><rect x="396.47" y="112.00" width="136.55" height="54.00" rx="3" ry="3" fill="#ECECFF" stroke="#7B88A8" stroke-width="1" stroke-linejoin="round" stroke-linecap="round"/><text x="464.75" y="143.00" text-anchor="middle" font-family="'trebuchet ms', verdana, arial, sans-serif" font-size="16" fill="#333333"><tspan x="464.75" dy="0.00">Unit Tests</tspan></text><rect x="396.47" y="216.00" width="98.28" height="54.00" rx="3" ry="3" fill="#ECECFF" stroke="#7B88A8" stroke-width="1" stroke-linejoin="round" stroke-linecap="round"/><text x="445.61" y="247.00" text-anchor="middle" font-family="'trebuchet ms', verdana, arial, sans-serif" font-size="16" fill="#333333"><tspan x="445.61" dy="0.00">Build</tspan></text><polygon points="644.25,77.78 705.48,139.00 644.25,200.23 583.02,139.00" fill="#ECECFF" stroke="#7B88A8" stroke-width="1" stroke-linejoin="round" stroke-linecap="round"/><text x="644.25" y="143.00" text-anchor="middle" font-family="'trebuchet ms', verdana, arial, sans-serif" font-size="16" fill="#333333"><tspan x="644.25" dy="0.00">All Pass?</tspan></text><rect x="786.44" y="112.01" width="190.14" height="54.00" rx="3" ry="3" fill="#ECECFF" stroke="#7B88A8" stroke-width="1" stroke-linejoin="round" stroke-linecap="round"/><text x="881.51" y="143.01" text-anchor="middle" font-family="'trebuchet ms', verdana, arial, sans-serif" font-size="16" fill="#333333"><tspan x="881.51" dy="0.00">Deploy to Staging</tspan></text><rect x="1749.54" y="112.01" width="182.48" height="54.00" rx="3" ry="3" fill="#ECECFF" stroke="#7B88A8" stroke-width="1" stroke-linejoin="round" stroke-linecap="round"/><text x="1840.78" y="143.01" text-anchor="middle" font-family="'trebuchet ms', verdana, arial, sans-serif" font-size="16" fill="#333333"><tspan x="1840.78" dy="0.00">Notify Developer</tspan></text><polygon points="1098.71,66.88 1170.84,139.01 1098.71,211.14 1026.58,139.01" fill="#ECECFF" stroke="#7B88A8" stroke-width="1" stroke-linejoin="round" stroke-linecap="round"/><text x="1098.71" y="143.01" text-anchor="middle" font-family="'trebuchet ms', verdana, arial, sans-serif" font-size="16" fill="#333333"><tspan x="1098.71" dy="0.00">QA Approved?</tspan></text><rect x="1251.81" y="112.01" width="213.10" height="54.00" rx="3" ry="3" fill="#ECECFF" stroke="#7B88A8" stroke-width="1" stroke-linejoin="round" stroke-linecap="round"/><text x="1358.36" y="143.01" text-anchor="middle" font-family="'trebuchet ms', verdana, arial, sans-serif" font-size="16" fill="#333333"><tspan x="1358.36" dy="0.00">Deploy to Production</tspan></text><rect x="1539.68" y="112.01" width="113.59" height="54.00" rx="3" ry="3" fill="#ECECFF" stroke="#7B88A8" stroke-width="1" stroke-linejoin="round" stroke-linecap="round"/><text x="1596.47" y="143.01" text-anchor="middle" font-family="'trebuchet ms', verdana, arial, sans-serif" font-size="16" fill="#333333"><tspan x="1596.47" dy="0.00">Monitor</tspan></text><g transform="translate(202.21 138.99) rotate(0.00)"><polygon points="0,0 -10.40,6.24 -10.40,-6.24" fill="#2F3B4D" stroke="#2F3B4D" stroke-width="2" stroke-linejoin="round" stroke-linecap="round"/></g><g transform="translate(396.47 35.00) rotate(0.00)"><polygon points="0,0 -10.40,6.24 -10.40,-6.24" fill="#2F3B4D" stroke="#2F3B4D" stroke-width="2" stroke-linejoin="round" stroke-linecap="round"/></g><g transform="translate(396.47 139.00) rotate(0.00)"><polygon points="0,0 -10.40,6.24 -10.40,-6.24" fill="#2F3B4D" stroke="#2F3B4D" stroke-width="2" stroke-linejoin="round" stroke-linecap="round"/></g><g transform="translate(396.47 243.00) rotate(0.00)"><polygon points="0,0 -10.40,6.24 -10.40,-6.24" fill="#2F3B4D" stroke="#2F3B4D" stroke-width="2" stroke-linejoin="round" stroke-linecap="round"/></g><g transform="translate(615.02 107.00) rotate(0.00)"><polygon points="0,0 -10.40,6.24 -10.40,-6.24" fill="#2F3B4D" stroke="#2F3B4D" stroke-width="2" stroke-linejoin="round" stroke-linecap="round"/></g><g transform="translate(583.02 139.00) rotate(0.00)"><polygon points="0,0 -10.40,6.24 -10.40,-6.24" fill="#2F3B4D" stroke="#2F3B4D" stroke-width="2" stroke-linejoin="round" stroke-linecap="round"/></g><g transform="translate(615.02 171.00) rotate(0.00)"><polygon points="0,0 -10.40,6.24 -10.40,-6.24" fill="#2F3B4D" stroke="#2F3B4D" stroke-width="2" stroke-linejoin="round" stroke-linecap="round"/></g><g transform="translate(786.44 139.01) rotate(0.00)"><polygon points="0,0 -10.40,6.24 -10.40,-6.24" fill="#2F3B4D" stroke="#2F3B4D" stroke-width="2" stroke-linejoin="round" stroke-linecap="round"/></g><g transform="translate(1749.54 139.01) rotate(0.00)"><polygon points="0,0 -10.40,6.24 -10.40,-6.24" fill="#2F3B4D" stroke="#2F3B4D" stroke-width="2" stroke-linejoin="round" stroke-linecap="round"/></g><g transform="translate(1026.58 139.01) rotate(0.00)"><polygon points="0,0 -10.40,6.24 -10.40,-6.24" fill="#2F3B4D" stroke="#2F3B4D" stroke-width="2" stroke-linejoin="round" stroke-linecap="round"/></g><g transform="translate(1251.81 139.01) rotate(0.00)"><polygon points="0,0 -10.40,6.24 -10.40,-6.24" fill="#2F3B4D" stroke="#2F3B4D" stroke-width="2" stroke-linejoin="round" stroke-linecap="round"/></g><g transform="translate(1749.54 139.01) rotate(0.00)"><polygon points="0,0 -10.40,6.24 -10.40,-6.24" fill="#2F3B4D" stroke="#2F3B4D" stroke-width="2" stroke-linejoin="round" stroke-linecap="round"/></g><g transform="translate(1539.68 139.01) rotate(0.00)"><polygon points="0,0 -10.40,6.24 -10.40,-6.24" fill="#2F3B4D" stroke="#2F3B4D" stroke-width="2" stroke-linejoin="round" stroke-linecap="round"/></g><g transform="translate(1749.54 155.01) rotate(0.00)"><polygon points="0,0 -10.40,6.24 -10.40,-6.24" fill="#2F3B4D" stroke="#2F3B4D" stroke-width="2" stroke-linejoin="round" stroke-linecap="round"/></g></svg>