<svg xmlns="http://www.w3.org/2000/svg" width="471.76624" height="131.17859" viewBox="0 0 471.76624 131.17859"><rect x="0" y="0" width="471.76624" height="131.17859" fill="#FFFFFF"/><defs><marker id="arrow-0" viewBox="0 0 10 10" refX="5" refY="5" markerUnits="userSpaceOnUse" markerWidth="8" markerHeight="8" orient="auto"><path d="M 0 0 L 10 5 L 0 10 z" fill="#333333" stroke="#333333" stroke-width="1" stroke-dasharray="1,0"/></marker><marker id="arrow-start-0" viewBox="0 0 10 10" refX="4.5" refY="5" markerUnits="userSpaceOnUse" markerWidth="8" markerHeight="8" orient="auto"><path d="M 0 5 L 10 10 L 10 0 z" fill="#333333" stroke="#333333" stroke-width="1" stroke-dasharray="1,0"/></marker></defs><path d="M 72.075,65.589 L 107.371,65.589" fill="none" stroke="#333333" stroke-width="2"    stroke-linecap="round" stroke-linejoin="round" /><path d="M 190.550,33.589L 191.579,33.589C192.609,33.589,194.668,33.589,196.727,33.589C198.786,33.589,200.844,33.589,202.899,33.490C204.953,33.390,207.002,33.191,214.799,32.432C222.595,31.674,236.140,30.357,243.936,29.598C251.733,28.840,253.782,28.641,255.836,28.541C257.890,28.441,259.949,28.441,262.008,28.441C264.067,28.441,266.126,28.441,267.156,28.441L 268.185,28.441" fill="none" stroke="#333333" stroke-width="2"    stroke-linecap="round" stroke-linejoin="round" /><rect x="213.88" y="-46.98" width="30.97" height="28.00" rx="2" ry="2" fill="rgba(232,232,232, 0.8)" fill-opacity="0.85" stroke="#9370DB" stroke-opacity="0.35" stroke-width="0.8"/><text x="229.37" y="-28.98" text-anchor="middle" font-family="'trebuchet ms', verdana, arial, sans-serif" font-size="16" fill="#333333"><tspan x="229.37" dy="0.00">yes</tspan></text><path d="M 190.550,97.589L 191.579,97.589C192.609,97.589,194.668,97.589,196.727,97.589C198.786,97.589,200.844,97.589,202.898,97.694C204.952,97.799,207.000,98.009,214.347,98.762C221.694,99.515,234.339,100.811,241.686,101.564C249.033,102.317,251.081,102.527,253.135,102.632C255.189,102.737,257.247,102.737,259.306,102.737C261.365,102.737,263.424,102.737,264.454,102.737L 265.483,102.737" fill="none" stroke="#333333" stroke-width="2"    stroke-linecap="round" stroke-linejoin="round" /><rect x="216.36" y="150.16" width="23.31" height="28.00" rx="2" ry="2" fill="rgba(232,232,232, 0.8)" fill-opacity="0.85" stroke="#9370DB" stroke-opacity="0.35" stroke-width="0.8"/><text x="228.02" y="168.16" text-anchor="middle" font-family="'trebuchet ms', verdana, arial, sans-serif" font-size="16" fill="#333333"><tspan x="228.02" dy="0.00">no</tspan></text><path d="M 362.387,28.441L 363.417,28.441C364.446,28.441,366.505,28.441,368.564,28.441C370.623,28.441,372.682,28.441,374.216,29.338C375.751,30.235,376.762,32.029,379.745,37.324C382.727,42.618,387.682,51.413,390.665,56.707C393.647,62.002,394.658,63.796,396.193,64.693C397.728,65.589,399.787,65.589,401.845,65.589C403.904,65.589,405.963,65.589,406.993,65.589L 408.022,65.589" fill="none" stroke="#333333" stroke-width="2"    stroke-linecap="round" stroke-linejoin="round" /><path d="M 335.069,102.737L 336.098,102.737C337.128,102.737,339.186,102.737,341.245,102.737C343.304,102.737,345.363,102.737,347.208,102.109C349.054,101.481,350.685,100.225,357.910,94.662C365.136,89.099,377.955,79.228,385.181,73.665C392.406,68.102,394.037,66.846,395.882,66.218C397.728,65.589,399.787,65.589,401.845,65.589C403.904,65.589,405.963,65.589,406.993,65.589L 408.022,65.589" fill="none" stroke="#333333" stroke-width="2"    stroke-linecap="round" stroke-linejoin="round" /><rect x="8.00" y="46.09" width="64.08" height="39.00" rx="19.50" ry="19.50" fill="#ECECFF" stroke="#9370DB" stroke-width="1" stroke-linejoin="round" stroke-linecap="round"/><text x="40.04" y="69.59" text-anchor="middle" font-family="'trebuchet ms', verdana, arial, sans-serif" font-size="16" fill="#333333"><tspan x="40.04" dy="0.00">Start</tspan></text><polygon points="164.96,8.00 222.55,65.59 164.96,123.18 107.37,65.59" fill="#ECECFF" stroke="#9370DB" stroke-width="1" stroke-linejoin="round" stroke-linecap="round"/><text x="164.96" y="69.59" text-anchor="middle" font-family="'trebuchet ms', verdana, arial, sans-serif" font-size="16" fill="#333333"><tspan x="164.96" dy="0.00">Decision</tspan></text><polygon points="278.52,8.94 372.73,8.94 352.05,47.94 257.85,47.94" fill="#ECECFF" stroke="#9370DB" stroke-width="1" stroke-linejoin="round" stroke-linecap="round"/><text x="315.29" y="32.44" text-anchor="middle" font-family="'trebuchet ms', verdana, arial, sans-serif" font-size="16" fill="#333333"><tspan x="315.29" dy="0.00">Do thing</tspan></text><polygon points="257.85,83.24 327.43,83.24 342.71,122.24 273.12,122.24" fill="#ECECFF" stroke="#9370DB" stroke-width="1" stroke-linejoin="round" stroke-linecap="round"/><text x="300.28" y="106.74" text-anchor="middle" font-family="'trebuchet ms', verdana, arial, sans-serif" font-size="16" fill="#333333"><tspan x="300.28" dy="0.00">Skip</tspan></text><rect x="408.02" y="46.09" width="55.74" height="39.00" rx="6" ry="6" fill="#ECECFF" stroke="#9370DB" stroke-width="1" stroke-linejoin="round" stroke-linecap="round"/><line x1="414.02" y1="48.09" x2="414.02" y2="83.09" stroke="#9370DB" stroke-width="1" stroke-linejoin="round" stroke-linecap="round"/><line x1="457.77" y1="48.09" x2="457.77" y2="83.09" stroke="#9370DB" stroke-width="1" stroke-linejoin="round" stroke-linecap="round"/><text x="435.89" y="69.59" text-anchor="middle" font-family="'trebuchet ms', verdana, arial, sans-serif" font-size="16" fill="#333333"><tspan x="435.89" dy="0.00">End</tspan></text><g transform="translate(107.37 65.59) rotate(0.00)"><polygon points="0,0 -10.40,6.24 -10.40,-6.24" fill="#333333" stroke="#333333" stroke-width="2" stroke-linejoin="round" stroke-linecap="round"/></g><g transform="translate(268.18 28.44) rotate(0.00)"><polygon points="0,0 -10.40,6.24 -10.40,-6.24" fill="#333333" stroke="#333333" stroke-width="2" stroke-linejoin="round" stroke-linecap="round"/></g><g transform="translate(265.48 102.74) rotate(0.00)"><polygon points="0,0 -10.40,6.24 -10.40,-6.24" fill="#333333" stroke="#333333" stroke-width="2" stroke-linejoin="round" stroke-linecap="round"/></g><g transform="translate(408.02 65.59) rotate(0.00)"><polygon points="0,0 -10.40,6.24 -10.40,-6.24" fill="#333333" stroke="#333333" stroke-width="2" stroke-linejoin="round" stroke-linecap="round"/></g><g transform="translate(408.02 65.59) rotate(0.00)"><polygon points="0,0 -10.40,6.24 -10.40,-6.24" fill="#333333" stroke="#333333" stroke-width="2" stroke-linejoin="round" stroke-linecap="round"/></g></svg>