<svg xmlns="http://www.w3.org/2000/svg" width="526.0866" height="320" viewBox="0 0 526.0866 320"><rect x="0" y="0" width="526.0866" height="320" fill="#FFFFFF"/><defs><marker id="arrow-0" viewBox="0 0 10 10" refX="5" refY="5" markerUnits="userSpaceOnUse" markerWidth="8" markerHeight="8" orient="auto"><path d="M 0 0 L 10 5 L 0 10 z" fill="#2F3B4D" stroke="#2F3B4D" stroke-width="1" stroke-dasharray="1,0"/></marker><marker id="arrow-start-0" viewBox="0 0 10 10" refX="4.5" refY="5" markerUnits="userSpaceOnUse" markerWidth="8" markerHeight="8" orient="auto"><path d="M 0 5 L 10 10 L 10 0 z" fill="#2F3B4D" stroke="#2F3B4D" stroke-width="1" stroke-dasharray="1,0"/></marker></defs><path d="M 98.008,139.275L 99.016,139.275C100.024,139.275,102.040,139.275,104.055,139.275C106.071,139.275,108.087,139.275,109.257,138.281C110.427,137.286,110.752,135.296,112.976,121.676C115.200,108.055,119.323,82.803,121.547,69.182C123.770,55.561,124.095,53.572,125.265,52.577C126.436,51.583,128.452,51.583,130.467,51.583C132.483,51.583,134.499,51.583,135.507,51.583L 136.515,51.583" fill="none" stroke="#2F3B4D" stroke-width="2"    stroke-linecap="round" stroke-linejoin="round" /><path d="M 101.959,155.275L 103.110,155.275C104.262,155.275,106.566,155.275,108.582,155.275C110.598,155.275,112.325,155.275,114.053,155.273C115.781,155.271,117.509,155.267,118.373,155.265C119.237,155.263,119.237,155.263,120.100,155.261C120.964,155.259,122.692,155.255,124.420,155.253C126.148,155.251,127.876,155.251,129.891,155.251C131.907,155.251,134.211,155.251,135.363,155.251L 136.515,155.251" fill="none" stroke="#2F3B4D" stroke-width="2"    stroke-linecap="round" stroke-linejoin="round" /><path d="M 98.008,171.275L 99.016,171.275C100.024,171.275,102.040,171.275,104.055,171.275C106.071,171.275,108.087,171.275,109.257,172.270C110.426,173.265,110.750,175.254,112.974,188.927C115.199,202.599,119.324,227.955,121.548,241.627C123.773,255.299,124.096,257.289,125.266,258.284C126.436,259.279,128.452,259.279,130.467,259.279C132.483,259.279,134.499,259.279,135.507,259.279L 136.515,259.279" fill="none" stroke="#2F3B4D" stroke-width="2"    stroke-linecap="round" stroke-linejoin="round" /><path d="M 170.891,85.959L 170.891,88.725C170.891,91.491,170.891,97.023,170.891,100.030C170.891,103.036,170.891,103.518,170.650,103.759C170.409,104.000,169.927,104.000,169.686,104.000C169.445,104.000,169.445,104.000,169.204,104.000C168.964,104.000,168.482,104.000,168.241,103.759C168.000,103.518,168.000,103.036,168.000,89.036C168.000,75.036,168.000,47.518,168.000,31.759C168.000,16.000,168.000,12.000,166.000,10.000C164.000,8.000,160.000,8.000,135.333,8.000C110.667,8.000,65.333,8.000,40.667,8.000C16.000,8.000,12.000,8.000,10.000,10.000C8.000,12.000,8.000,16.000,8.000,64.667C8.000,113.333,8.000,206.667,8.000,255.333C8.000,304.000,8.000,308.000,10.000,310.000C12.000,312.000,16.000,312.000,59.333,312.000C102.667,312.000,185.333,312.000,228.667,312.000C272.000,312.000,276.000,312.000,278.000,310.000C280.000,308.000,280.000,304.000,280.000,280.423C280.000,256.847,280.000,213.694,280.000,191.694C280.000,169.694,280.000,168.847,279.577,168.423C279.153,168.000,278.306,168.000,277.830,168.000C277.354,168.000,277.249,168.000,276.826,168.000C276.402,168.000,275.660,168.000,275.290,168.371C274.919,168.742,274.919,169.484,274.919,170.226C274.919,170.967,274.919,171.709,274.919,172.080L 274.919,172.451" fill="none" stroke="#2F3B4D" stroke-width="2"    stroke-linecap="round" stroke-linejoin="round" /><path d="M 202.082,171.251L 203.090,171.251C204.098,171.251,206.114,171.251,208.130,171.251C210.145,171.251,212.161,171.251,213.856,171.988C215.550,172.726,216.924,174.202,219.274,176.727C221.624,179.252,224.951,182.826,227.301,185.351C229.652,187.876,231.025,189.352,232.720,190.089C234.414,190.827,236.430,190.827,238.446,190.827C240.462,190.827,242.477,190.827,243.485,190.827L 244.493,190.827" fill="none" stroke="#2F3B4D" stroke-width="2"    stroke-linecap="round" stroke-linejoin="round" /><path d="M 202.082,243.279L 203.090,243.279C204.098,243.279,206.114,243.279,208.130,243.279C210.145,243.279,212.161,243.279,213.839,242.526C215.518,241.774,216.859,240.268,219.225,237.612C221.592,234.956,224.984,231.149,227.350,228.493C229.717,225.837,231.058,224.332,232.736,223.580C234.414,222.827,236.430,222.827,238.446,222.827C240.462,222.827,242.477,222.827,243.485,222.827L 244.493,222.827" fill="none" stroke="#2F3B4D" stroke-width="2"    stroke-linecap="round" stroke-linejoin="round" /><path d="M 201.316,67.583L 202.324,67.583C203.332,67.583,205.348,67.583,207.363,67.583C209.379,67.583,211.395,67.583,213.092,68.318C214.789,69.053,216.168,70.524,218.651,73.172C221.135,75.821,224.723,79.648,227.206,82.297C229.690,84.946,231.068,86.416,232.765,87.152C234.463,87.887,236.478,87.887,238.494,87.887C240.510,87.887,242.526,87.887,243.534,87.887L 244.542,87.887" fill="none" stroke="#2F3B4D" stroke-width="2"    stroke-linecap="round" stroke-linejoin="round" /><path d="M 202.082,139.251L 203.090,139.251C204.098,139.251,206.114,139.251,208.130,139.251C210.145,139.251,212.161,139.251,213.861,138.518C215.560,137.784,216.944,136.318,219.297,133.824C221.650,131.330,224.974,127.808,227.327,125.314C229.680,122.819,231.064,121.353,232.763,120.620C234.463,119.887,236.478,119.887,238.494,119.887C240.510,119.887,242.526,119.887,243.534,119.887L 244.542,119.887" fill="none" stroke="#2F3B4D" stroke-width="2"    stroke-linecap="round" stroke-linejoin="round" /><path d="M 171.251,224.543L 171.251,223.535C171.251,222.527,171.251,220.511,171.251,218.495C171.251,216.480,171.251,214.464,172.258,213.456C173.266,212.448,175.282,212.448,181.890,212.448C188.499,212.448,199.700,212.448,207.300,212.448C214.901,212.448,218.901,212.448,220.901,210.448C222.901,208.448,222.901,204.448,222.901,196.038C222.901,187.629,222.901,174.809,222.901,166.399C222.901,157.990,222.901,153.990,224.901,151.990C226.901,149.990,230.901,149.990,238.501,149.990C246.102,149.990,257.302,149.990,263.911,149.990C270.519,149.990,272.535,149.990,273.543,148.982C274.551,147.974,274.551,145.958,274.551,143.942C274.551,141.927,274.551,139.911,274.551,138.903L 274.551,137.895" fill="none" stroke="#2F3B4D" stroke-width="2"    stroke-linecap="round" stroke-linejoin="round" /><path d="M 309.295,206.827L 310.303,206.827C311.310,206.827,313.326,206.827,315.342,206.827C317.358,206.827,319.373,206.827,320.757,205.892C322.140,204.956,322.890,203.085,324.886,198.110C326.881,193.134,330.122,185.054,332.118,180.078C334.114,175.102,334.864,173.231,336.247,172.296C337.630,171.360,339.646,171.360,341.662,171.360C343.677,171.360,345.693,171.360,346.701,171.360L 347.709,171.360" fill="none" stroke="#2F3B4D" stroke-width="2"    stroke-linecap="round" stroke-linejoin="round" /><path d="M 308.559,103.887L 309.566,103.887C310.574,103.887,312.590,103.887,314.606,103.887C316.622,103.887,318.637,103.887,320.037,104.816C321.437,105.744,322.220,107.602,324.322,112.585C326.424,117.569,329.844,125.679,331.946,130.662C334.048,135.646,334.831,137.503,336.231,138.432C337.630,139.360,339.646,139.360,341.662,139.360C343.677,139.360,345.693,139.360,346.701,139.360L 347.709,139.360" fill="none" stroke="#2F3B4D" stroke-width="2"    stroke-linecap="round" stroke-linejoin="round" /><path d="M 414.059,155.360L 415.066,155.360C416.074,155.360,418.090,155.360,420.106,155.360C422.122,155.360,424.137,155.360,425.816,156.113C427.495,156.865,428.837,158.369,430.544,160.284C432.252,162.198,434.326,164.523,436.033,166.437C437.741,168.352,439.083,169.856,440.761,170.608C442.440,171.360,444.456,171.360,446.472,171.360C448.487,171.360,450.503,171.360,451.511,171.360L 452.519,171.360" fill="none" stroke="#2F3B4D" stroke-width="2"    stroke-linecap="round" stroke-linejoin="round" /><path d="M 201.316,35.583L 244.113,35.583C286.911,35.583,372.506,35.583,417.303,35.583C462.100,35.583,466.100,35.583,468.101,37.583C470.100,39.583,470.100,43.583,470.101,61.755C470.100,79.927,470.100,112.272,470.101,130.235C470.100,148.198,470.100,151.779,468.310,153.570C466.520,155.360,462.939,155.360,459.358,155.360C455.777,155.360,452.196,155.360,450.405,155.360L 448.615,155.360" fill="none" stroke="#2F3B4D" stroke-width="2"    stroke-linecap="round" stroke-linejoin="round" /><path d="M 205.987,155.251L 206.994,155.251C208.002,155.251,210.018,155.251,212.034,155.251C214.050,155.251,216.065,155.251,217.073,154.243C218.081,153.235,218.081,151.219,218.081,135.950C218.081,120.681,218.081,92.159,218.081,75.898C218.081,59.637,218.081,55.637,220.081,53.637C222.081,51.637,226.081,51.637,260.488,51.637C294.894,51.637,359.707,51.637,394.114,51.637C428.520,51.637,432.520,51.637,434.520,53.637C436.520,55.637,436.520,59.637,436.520,75.917C436.520,92.196,436.520,120.754,436.520,136.042C436.520,151.329,436.520,153.344,437.528,154.352C438.536,155.360,440.552,155.360,442.567,155.360C444.583,155.360,446.599,155.360,447.607,155.360L 448.615,155.360" fill="none" stroke="#2F3B4D" stroke-width="2"    stroke-linecap="round" stroke-linejoin="round" /><path d="M 202.082,275.279L 203.245,275.279C204.407,275.279,206.731,275.279,208.747,275.279C210.763,275.279,212.470,275.279,213.323,276.132C214.177,276.986,214.177,278.692,214.177,279.546C214.177,280.399,214.177,280.399,214.177,281.253C214.177,282.106,214.177,283.813,215.030,284.667C215.884,285.520,217.591,285.520,253.299,285.520C289.007,285.520,358.715,285.520,395.570,285.520C432.424,285.520,436.424,285.520,438.424,283.520C440.424,281.520,440.424,277.520,440.424,259.501C440.424,241.483,440.424,209.445,440.424,192.418C440.424,175.392,440.424,173.376,441.432,172.368C442.440,171.360,444.456,171.360,446.472,171.360C448.487,171.360,450.503,171.360,451.511,171.360L 452.519,171.360" fill="none" stroke="#2F3B4D" stroke-width="2"    stroke-linecap="round" stroke-linejoin="round" /><circle cx="67.58" cy="155.28" r="34.38" fill="#ECECFF" stroke="#7B88A8" stroke-width="1" stroke-linejoin="round" stroke-linecap="round"/><circle cx="67.58" cy="155.28" r="30.38" fill="none" stroke="#7B88A8" stroke-width="1" stroke-linejoin="round" stroke-linecap="round"/><text x="67.58" y="159.28" text-anchor="middle" font-family="'trebuchet ms', verdana, arial, sans-serif" font-size="16" fill="#333333"><tspan x="67.58" dy="0.00">A</tspan></text><circle cx="170.89" cy="51.58" r="34.38" fill="#ECECFF" stroke="#7B88A8" stroke-width="1" stroke-linejoin="round" stroke-linecap="round"/><circle cx="170.89" cy="51.58" r="30.38" fill="none" stroke="#7B88A8" stroke-width="1" stroke-linejoin="round" stroke-linecap="round"/><text x="170.89" y="55.58" text-anchor="middle" font-family="'trebuchet ms', verdana, arial, sans-serif" font-size="16" fill="#333333"><tspan x="170.89" dy="0.00">B</tspan></text><circle cx="171.25" cy="155.25" r="34.74" fill="#ECECFF" stroke="#7B88A8" stroke-width="1" stroke-linejoin="round" stroke-linecap="round"/><circle cx="171.25" cy="155.25" r="30.74" fill="none" stroke="#7B88A8" stroke-width="1" stroke-linejoin="round" stroke-linecap="round"/><text x="171.25" y="159.25" text-anchor="middle" font-family="'trebuchet ms', verdana, arial, sans-serif" font-size="16" fill="#333333"><tspan x="171.25" dy="0.00">C</tspan></text><circle cx="171.25" cy="259.28" r="34.74" fill="#ECECFF" stroke="#7B88A8" stroke-width="1" stroke-linejoin="round" stroke-linecap="round"/><circle cx="171.25" cy="259.28" r="30.74" fill="none" stroke="#7B88A8" stroke-width="1" stroke-linejoin="round" stroke-linecap="round"/><text x="171.25" y="263.28" text-anchor="middle" font-family="'trebuchet ms', verdana, arial, sans-serif" font-size="16" fill="#333333"><tspan x="171.25" dy="0.00">D</tspan></text><circle cx="274.92" cy="206.83" r="34.38" fill="#ECECFF" stroke="#7B88A8" stroke-width="1" stroke-linejoin="round" stroke-linecap="round"/><circle cx="274.92" cy="206.83" r="30.38" fill="none" stroke="#7B88A8" stroke-width="1" stroke-linejoin="round" stroke-linecap="round"/><text x="274.92" y="210.83" text-anchor="middle" font-family="'trebuchet ms', verdana, arial, sans-serif" font-size="16" fill="#333333"><tspan x="274.92" dy="0.00">E</tspan></text><circle cx="274.55" cy="103.89" r="34.01" fill="#ECECFF" stroke="#7B88A8" stroke-width="1" stroke-linejoin="round" stroke-linecap="round"/><circle cx="274.55" cy="103.89" r="30.01" fill="none" stroke="#7B88A8" stroke-width="1" stroke-linejoin="round" stroke-linecap="round"/><text x="274.55" y="107.89" text-anchor="middle" font-family="'trebuchet ms', verdana, arial, sans-serif" font-size="16" fill="#333333"><tspan x="274.55" dy="0.00">F</tspan></text><circle cx="378.95" cy="155.36" r="35.10" fill="#ECECFF" stroke="#7B88A8" stroke-width="1" stroke-linejoin="round" stroke-linecap="round"/><circle cx="378.95" cy="155.36" r="31.10" fill="none" stroke="#7B88A8" stroke-width="1" stroke-linejoin="round" stroke-linecap="round"/><text x="378.95" y="159.36" text-anchor="middle" font-family="'trebuchet ms', verdana, arial, sans-serif" font-size="16" fill="#333333"><tspan x="378.95" dy="0.00">G</tspan></text><circle cx="483.35" cy="155.36" r="34.74" fill="#ECECFF" stroke="#7B88A8" stroke-width="1" stroke-linejoin="round" stroke-linecap="round"/><circle cx="483.35" cy="155.36" r="30.74" fill="none" stroke="#7B88A8" stroke-width="1" stroke-linejoin="round" stroke-linecap="round"/><text x="483.35" y="159.36" text-anchor="middle" font-family="'trebuchet ms', verdana, arial, sans-serif" font-size="16" fill="#333333"><tspan x="483.35" dy="0.00">H</tspan></text><g transform="translate(136.51 51.58) rotate(0.00)"><polygon points="0,0 -10.40,6.24 -10.40,-6.24" fill="#2F3B4D" stroke="#2F3B4D" stroke-width="2" stroke-linejoin="round" stroke-linecap="round"/></g><g transform="translate(136.51 155.25) rotate(0.00)"><polygon points="0,0 -10.40,6.24 -10.40,-6.24" fill="#2F3B4D" stroke="#2F3B4D" stroke-width="2" stroke-linejoin="round" stroke-linecap="round"/></g><g transform="translate(136.51 259.28) rotate(0.00)"><polygon points="0,0 -10.40,6.24 -10.40,-6.24" fill="#2F3B4D" stroke="#2F3B4D" stroke-width="2" stroke-linejoin="round" stroke-linecap="round"/></g><g transform="translate(274.92 172.45) rotate(90.00)"><polygon points="0,0 -10.40,6.24 -10.40,-6.24" fill="#2F3B4D" stroke="#2F3B4D" stroke-width="2" stroke-linejoin="round" stroke-linecap="round"/></g><g transform="translate(244.49 190.83) rotate(0.00)"><polygon points="0,0 -10.40,6.24 -10.40,-6.24" fill="#2F3B4D" stroke="#2F3B4D" stroke-width="2" stroke-linejoin="round" stroke-linecap="round"/></g><g transform="translate(244.49 222.83) rotate(0.00)"><polygon points="0,0 -10.40,6.24 -10.40,-6.24" fill="#2F3B4D" stroke="#2F3B4D" stroke-width="2" stroke-linejoin="round" stroke-linecap="round"/></g><g transform="translate(244.54 87.89) rotate(0.00)"><polygon points="0,0 -10.40,6.24 -10.40,-6.24" fill="#2F3B4D" stroke="#2F3B4D" stroke-width="2" stroke-linejoin="round" stroke-linecap="round"/></g><g transform="translate(244.54 119.89) rotate(0.00)"><polygon points="0,0 -10.40,6.24 -10.40,-6.24" fill="#2F3B4D" stroke="#2F3B4D" stroke-width="2" stroke-linejoin="round" stroke-linecap="round"/></g><g transform="translate(274.55 137.90) rotate(-90.00)"><polygon points="0,0 -10.40,6.24 -10.40,-6.24" fill="#2F3B4D" stroke="#2F3B4D" stroke-width="2" stroke-linejoin="round" stroke-linecap="round"/></g><g transform="translate(347.71 171.36) rotate(0.00)"><polygon points="0,0 -10.40,6.24 -10.40,-6.24" fill="#2F3B4D" stroke="#2F3B4D" stroke-width="2" stroke-linejoin="round" stroke-linecap="round"/></g><g transform="translate(347.71 139.36) rotate(0.00)"><polygon points="0,0 -10.40,6.24 -10.40,-6.24" fill="#2F3B4D" stroke="#2F3B4D" stroke-width="2" stroke-linejoin="round" stroke-linecap="round"/></g><g transform="translate(452.52 171.36) rotate(0.00)"><polygon points="0,0 -10.40,6.24 -10.40,-6.24" fill="#2F3B4D" stroke="#2F3B4D" stroke-width="2" stroke-linejoin="round" stroke-linecap="round"/></g><g transform="translate(448.61 155.36) rotate(0.00)"><polygon points="0,0 -10.40,6.24 -10.40,-6.24" fill="#2F3B4D" stroke="#2F3B4D" stroke-width="2" stroke-linejoin="round" stroke-linecap="round"/></g><g transform="translate(448.61 155.36) rotate(0.00)"><polygon points="0,0 -10.40,6.24 -10.40,-6.24" fill="#2F3B4D" stroke="#2F3B4D" stroke-width="2" stroke-linejoin="round" stroke-linecap="round"/></g><g transform="translate(452.52 171.36) rotate(0.00)"><polygon points="0,0 -10.40,6.24 -10.40,-6.24" fill="#2F3B4D" stroke="#2F3B4D" stroke-width="2" stroke-linejoin="round" stroke-linecap="round"/></g></svg>