<svg xmlns="http://www.w3.org/2000/svg" width="720.4" height="690" viewBox="0 0 720.4 690"><rect width="100%" height="100%" fill="#FFFFFF"/><defs><marker id="arrow-0" viewBox="0 0 10 10" refX="5" refY="5" markerUnits="userSpaceOnUse" markerWidth="8" markerHeight="8" orient="auto"><path d="M 0 0 L 10 5 L 0 10 z" fill="#333333"/></marker><marker id="arrow-start-0" viewBox="0 0 10 10" refX="4.5" refY="5" markerUnits="userSpaceOnUse" markerWidth="8" markerHeight="8" orient="auto"><path d="M 0 5 L 10 10 L 10 0 z" fill="#333333"/></marker></defs><rect x="24.00" y="496.00" width="636.40" height="134.00" rx="10" ry="10" fill="#FFFFDE" stroke="#AAAA33" stroke-width="1" /><text x="342.20" y="524.00" text-anchor="middle" font-family="'trebuchet ms', verdana, arial, sans-serif" font-size="16" fill="#333333"><tspan x="342.20" dy="0.00">Testing</tspan></text><path d="M 409.00 78.00 L 409.00 102.85 L 409.00 102.85 L 409.00 127.70" fill="none" stroke="#333333" stroke-width="2" marker-end="url(#arrow-0)"   stroke-linecap="round" stroke-linejoin="round" /><path d="M 358.72 203.30 L 358.72 228.15 L 334.20 228.15 L 334.20 253.00" fill="none" stroke="#333333" stroke-width="2" marker-end="url(#arrow-0)"   stroke-linecap="round" stroke-linejoin="round" /><rect x="331.66" y="214.15" width="29.60" height="28.00" rx="0" ry="0" fill="#E8E8E8" fill-opacity="0.5" stroke="none"/><text x="346.46" y="232.15" text-anchor="middle" font-family="'trebuchet ms', verdana, arial, sans-serif" font-size="16" fill="#333333"><tspan x="346.46" dy="0.00">Yes</tspan></text><path d="M 409.00 203.30 L 409.00 219.40 L 471.80 219.40 L 471.80 253.00" fill="none" stroke="#333333" stroke-width="2" marker-end="url(#arrow-0)"   stroke-linecap="round" stroke-linejoin="round" /><rect x="429.20" y="205.40" width="22.40" height="28.00" rx="0" ry="0" fill="#E8E8E8" fill-opacity="0.5" stroke="none"/><text x="440.40" y="223.40" text-anchor="middle" font-family="'trebuchet ms', verdana, arial, sans-serif" font-size="16" fill="#333333"><tspan x="440.40" dy="0.00">No</tspan></text><path d="M 495.80 253.00 L 441.80 253.00 L 441.80 203.30 L 459.28 203.30" fill="none" stroke="#333333" stroke-width="2" marker-end="url(#arrow-0)"   stroke-linecap="round" stroke-linejoin="round" /><path d="M 334.20 307.00 L 334.20 331.85 L 334.20 331.85 L 334.20 356.70" fill="none" stroke="#333333" stroke-width="2" marker-end="url(#arrow-0)"   stroke-linecap="round" stroke-linejoin="round" /><path d="M 114.00 606.00 L 114.00 579.00 L 346.00 579.00 L 346.00 552.00" fill="none" stroke="#333333" stroke-width="2" marker-end="url(#arrow-0)"   stroke-linecap="round" stroke-linejoin="round" /><path d="M 346.00 606.00 L 346.00 579.00 L 574.00 579.00 L 574.00 552.00" fill="none" stroke="#333333" stroke-width="2" marker-end="url(#arrow-0)"   stroke-linecap="round" stroke-linejoin="round" /><path d="M 334.20 438.30 L 334.20 467.15 L 345.70 467.15 L 345.70 496.00" fill="none" stroke="#333333" stroke-width="2" marker-end="url(#arrow-0)"   stroke-linecap="round" stroke-linejoin="round" /><rect x="361.00" y="24.00" width="96.00" height="54.00" rx="0" ry="0" fill="#90EE90" stroke="#9370DB" stroke-width="1" stroke-linejoin="round" stroke-linecap="round"/><text x="409.00" y="55.00" text-anchor="middle" font-family="'trebuchet ms', verdana, arial, sans-serif" font-size="16" fill="#333333"><tspan x="409.00" dy="0.00">Start</tspan></text><polygon points="409.00,127.70 521.56,165.50 409.00,203.30 296.44,165.50" fill="#FFD700" stroke="#9370DB" stroke-width="1" stroke-linejoin="round" stroke-linecap="round"/><text x="409.00" y="169.50" text-anchor="middle" font-family="'trebuchet ms', verdana, arial, sans-serif" font-size="16" fill="#333333"><tspan x="409.00" dy="0.00">Is it working?</tspan></text><rect x="282.60" y="253.00" width="103.20" height="54.00" rx="0" ry="0" fill="#ECECFF" stroke="#9370DB" stroke-width="1" stroke-linejoin="round" stroke-linecap="round"/><text x="334.20" y="284.00" text-anchor="middle" font-family="'trebuchet ms', verdana, arial, sans-serif" font-size="16" fill="#333333"><tspan x="334.20" dy="0.00">Great!</tspan></text><rect x="435.80" y="253.00" width="96.00" height="54.00" rx="0" ry="0" fill="#ECECFF" stroke="#9370DB" stroke-width="1" stroke-linejoin="round" stroke-linecap="round"/><text x="483.80" y="284.00" text-anchor="middle" font-family="'trebuchet ms', verdana, arial, sans-serif" font-size="16" fill="#333333"><tspan x="483.80" dy="0.00">Debug</tspan></text><circle cx="334.20" cy="397.50" r="40.80" fill="#FFB6C1" stroke="#9370DB" stroke-width="1" stroke-linejoin="round" stroke-linecap="round"/><circle cx="334.20" cy="397.50" r="36.80" fill="none" stroke="#9370DB" stroke-width="1" stroke-linejoin="round" stroke-linecap="round"/><text x="334.20" y="401.50" text-anchor="middle" font-family="'trebuchet ms', verdana, arial, sans-serif" font-size="16" fill="#333333"><tspan x="334.20" dy="0.00">End</tspan></text><rect x="48.00" y="552.00" width="132.00" height="54.00" rx="0" ry="0" fill="#ECECFF" stroke="#9370DB" stroke-width="1" stroke-linejoin="round" stroke-linecap="round"/><text x="114.00" y="583.00" text-anchor="middle" font-family="'trebuchet ms', verdana, arial, sans-serif" font-size="16" fill="#333333"><tspan x="114.00" dy="0.00">Unit Tests</tspan></text><rect x="254.80" y="552.00" width="182.40" height="54.00" rx="0" ry="0" fill="#ECECFF" stroke="#9370DB" stroke-width="1" stroke-linejoin="round" stroke-linecap="round"/><text x="346.00" y="583.00" text-anchor="middle" font-family="'trebuchet ms', verdana, arial, sans-serif" font-size="16" fill="#333333"><tspan x="346.00" dy="0.00">Integration Tests</tspan></text><rect x="511.60" y="552.00" width="124.80" height="54.00" rx="0" ry="0" fill="#ECECFF" stroke="#9370DB" stroke-width="1" stroke-linejoin="round" stroke-linecap="round"/><text x="574.00" y="583.00" text-anchor="middle" font-family="'trebuchet ms', verdana, arial, sans-serif" font-size="16" fill="#333333"><tspan x="574.00" dy="0.00">E2E Tests</tspan></text></svg>