<svg xmlns="http://www.w3.org/2000/svg" width="215.16354" height="852.9139" viewBox="0 0 215.16354 852.9139"><rect x="0" y="0" width="215.16354" height="852.9139" fill="#FFFFFF"/><defs><marker id="arrow-0" viewBox="0 0 10 10" refX="5" refY="5" markerUnits="userSpaceOnUse" markerWidth="8" markerHeight="8" orient="auto"><path d="M 0 0 L 10 5 L 0 10 z" fill="#2F3B4D" stroke="#2F3B4D" stroke-width="1" stroke-dasharray="1,0"/></marker><marker id="arrow-start-0" viewBox="0 0 10 10" refX="4.5" refY="5" markerUnits="userSpaceOnUse" markerWidth="8" markerHeight="8" orient="auto"><path d="M 0 5 L 10 10 L 10 0 z" fill="#2F3B4D" stroke="#2F3B4D" stroke-width="1" stroke-dasharray="1,0"/></marker></defs><rect x="48.65" y="523.22" width="158.28" height="321.69" rx="10" ry="10" fill="#FFFFDE" stroke="#AAAA33" stroke-width="1" /><text x="127.79" y="551.22" text-anchor="middle" font-family="'trebuchet ms', verdana, arial, sans-serif" font-size="16" fill="#333333"><tspan x="127.79" dy="0.00">LoopBlock</tspan></text><path d="M 135.450,62.000 L 135.446,101.845" fill="none" stroke="#2F3B4D" stroke-width="2"    stroke-linecap="round" stroke-linejoin="round" /><path d="M 151.446,186.479L 151.446,187.642C151.446,188.804,151.446,191.128,151.446,193.452C151.446,195.777,151.446,198.101,150.284,199.263C149.122,200.425,146.797,200.425,124.890,200.425C102.982,200.425,61.491,200.425,38.745,200.425C16.000,200.425,12.000,200.425,10.000,202.425C8.000,204.425,8.000,208.425,8.000,212.629C8.000,216.833,8.000,221.241,8.000,225.445C8.000,229.648,8.000,233.648,10.000,235.648C12.000,237.648,16.000,237.648,36.078,237.648C56.156,237.648,92.312,237.648,111.553,237.648C130.793,237.648,133.117,237.648,134.279,238.811C135.442,239.973,135.442,242.297,135.442,244.621C135.442,246.946,135.442,249.270,135.442,250.432L 135.442,251.594" fill="none" stroke="#2F3B4D" stroke-width="2"    stroke-linecap="round" stroke-linejoin="round" /><rect x="11.62" y="227.98" width="31.97" height="28.40" rx="2" ry="2" fill="rgba(248,250,252, 0.92)" fill-opacity="0.95" stroke="#7B88A8" stroke-opacity="0.45" stroke-width="0.8"/><text x="27.60" y="246.18" text-anchor="middle" font-family="'trebuchet ms', verdana, arial, sans-serif" font-size="16" fill="#333333"><tspan x="27.60" dy="0.00">yes</tspan></text><path d="M 135.442,305.594L 135.442,306.757C135.442,307.919,135.442,310.243,135.442,312.567C135.442,314.892,135.442,317.216,134.279,318.378C133.117,319.540,130.793,319.540,124.381,319.540C117.968,319.540,107.468,319.540,100.660,319.540C93.853,319.540,90.739,319.540,89.182,321.097C87.625,322.654,87.625,325.768,87.625,327.325C87.625,328.882,87.625,328.882,87.625,330.439C87.625,331.996,87.625,335.110,89.182,336.667C90.739,338.224,93.853,338.224,103.326,338.224C112.800,338.224,128.632,338.224,137.710,338.224C146.789,338.224,149.113,338.224,150.275,339.387C151.438,340.549,151.438,342.873,151.438,345.197C151.438,347.522,151.438,349.846,151.438,351.008L 151.438,352.170" fill="none" stroke="#2F3B4D" stroke-width="2"    stroke-linecap="round" stroke-linejoin="round" /><path d="M 135.438,336.170L 135.438,335.008C135.438,333.846,135.438,331.522,135.438,329.197C135.438,326.873,135.438,324.549,136.600,323.387C137.762,322.224,140.086,322.224,150.040,322.224C159.995,322.224,177.579,322.224,188.371,322.224C199.164,322.224,203.164,322.224,205.164,320.224C207.164,318.224,207.164,314.224,207.164,298.591C207.164,282.958,207.164,255.692,207.164,240.059C207.164,224.425,207.164,220.425,205.164,218.425C203.164,216.425,199.164,216.425,188.373,216.425C177.582,216.425,160.000,216.425,150.047,216.425C140.094,216.425,137.770,216.425,136.608,215.263C135.446,214.101,135.446,211.777,135.446,209.452C135.446,207.128,135.446,204.804,135.446,203.642L 135.446,202.479" fill="none" stroke="#2F3B4D" stroke-width="2"    stroke-linecap="round" stroke-linejoin="round" /><rect x="180.17" y="211.38" width="31.97" height="28.40" rx="2" ry="2" fill="rgba(248,250,252, 0.92)" fill-opacity="0.95" stroke="#7B88A8" stroke-opacity="0.45" stroke-width="0.8"/><text x="196.15" y="229.58" text-anchor="middle" font-family="'trebuchet ms', verdana, arial, sans-serif" font-size="16" fill="#333333"><tspan x="196.15" dy="0.00">yes</tspan></text><path d="M 135.438,429.532 L 135.434,478.647" fill="none" stroke="#2F3B4D" stroke-width="2"    stroke-linecap="round" stroke-linejoin="round" /><rect x="123.28" y="439.89" width="24.31" height="28.40" rx="2" ry="2" fill="rgba(248,250,252, 0.92)" fill-opacity="0.95" stroke="#7B88A8" stroke-opacity="0.45" stroke-width="0.8"/><text x="135.44" y="458.09" text-anchor="middle" font-family="'trebuchet ms', verdana, arial, sans-serif" font-size="16" fill="#333333"><tspan x="135.44" dy="0.00">no</tspan></text><path d="M 127.790,617.223 L 127.788,657.068" fill="none" stroke="#2F3B4D" stroke-width="2"    stroke-linecap="round" stroke-linejoin="round" /><path d="M 127.788,711.068 L 127.787,750.914" fill="none" stroke="#2F3B4D" stroke-width="2"    stroke-linecap="round" stroke-linejoin="round" /><path d="M 143.787,750.914L 143.787,749.752C143.787,748.590,143.787,746.265,143.787,743.941C143.787,741.617,143.787,739.292,144.949,738.130C146.111,736.968,148.435,736.968,154.405,736.968C160.374,736.968,169.988,736.968,176.796,736.968C183.603,736.968,187.603,736.968,189.603,734.968C191.603,732.968,191.603,728.968,191.603,713.335C191.603,697.702,191.603,670.435,191.603,654.802C191.603,639.169,191.603,635.169,189.603,633.169C187.603,631.169,183.603,631.169,176.796,631.169C169.990,631.169,160.376,631.169,154.407,631.169C148.439,631.169,146.114,631.169,144.952,630.007C143.790,628.845,143.790,626.520,143.790,624.196C143.790,621.872,143.790,619.547,143.790,618.385L 143.790,617.223" fill="none" stroke="#2F3B4D" stroke-width="2"    stroke-linecap="round" stroke-linejoin="round" /><path d="M 135.434,532.647L 135.434,534.296C135.434,535.945,135.434,539.244,135.434,541.568C135.434,543.893,135.434,545.243,134.797,546.142C134.160,547.040,132.886,547.488,132.249,547.711C131.612,547.935,131.612,547.935,130.975,548.159C130.338,548.382,129.064,548.830,128.427,549.728C127.790,550.627,127.790,551.977,127.790,554.302C127.790,556.626,127.790,559.925,127.790,561.574L 127.790,563.223" fill="none" stroke="#2F3B4D" stroke-width="2"    stroke-linecap="round" stroke-linejoin="round" /><rect x="86.31" y="8.00" width="98.28" height="54.00" rx="3" ry="3" fill="#ECECFF" stroke="#7B88A8" stroke-width="1" stroke-linejoin="round" stroke-linecap="round"/><text x="135.45" y="39.00" text-anchor="middle" font-family="'trebuchet ms', verdana, arial, sans-serif" font-size="16" fill="#333333"><tspan x="135.45" dy="0.00">Start</tspan></text><polygon points="135.45,101.85 185.76,152.16 135.45,202.48 85.13,152.16" fill="#ECECFF" stroke="#7B88A8" stroke-width="1" stroke-linejoin="round" stroke-linecap="round"/><text x="135.45" y="156.16" text-anchor="middle" font-family="'trebuchet ms', verdana, arial, sans-serif" font-size="16" fill="#333333"><tspan x="135.45" dy="0.00">Decide</tspan></text><rect x="78.65" y="251.59" width="113.59" height="54.00" rx="3" ry="3" fill="#ECECFF" stroke="#7B88A8" stroke-width="1" stroke-linejoin="round" stroke-linecap="round"/><text x="135.44" y="282.59" text-anchor="middle" font-family="'trebuchet ms', verdana, arial, sans-serif" font-size="16" fill="#333333"><tspan x="135.44" dy="0.00">Do work</tspan></text><polygon points="135.44,336.17 182.12,382.85 135.44,429.53 88.76,382.85" fill="#ECECFF" stroke="#7B88A8" stroke-width="1" stroke-linejoin="round" stroke-linecap="round"/><text x="135.44" y="386.85" text-anchor="middle" font-family="'trebuchet ms', verdana, arial, sans-serif" font-size="16" fill="#333333"><tspan x="135.44" dy="0.00">More?</tspan></text><rect x="93.76" y="478.65" width="83.34" height="54.00" rx="3" ry="3" fill="#ECECFF" stroke="#7B88A8" stroke-width="1" stroke-linejoin="round" stroke-linecap="round"/><text x="135.43" y="509.65" text-anchor="middle" font-family="'trebuchet ms', verdana, arial, sans-serif" font-size="16" fill="#333333"><tspan x="135.43" dy="0.00">End</tspan></text><rect x="85.39" y="563.22" width="84.80" height="54.00" rx="3" ry="3" fill="#ECECFF" stroke="#7B88A8" stroke-width="1" stroke-linejoin="round" stroke-linecap="round"/><text x="127.79" y="594.22" text-anchor="middle" font-family="'trebuchet ms', verdana, arial, sans-serif" font-size="16" fill="#333333"><tspan x="127.79" dy="0.00">One</tspan></text><rect x="85.40" y="657.07" width="84.78" height="54.00" rx="3" ry="3" fill="#ECECFF" stroke="#7B88A8" stroke-width="1" stroke-linejoin="round" stroke-linecap="round"/><text x="127.79" y="688.07" text-anchor="middle" font-family="'trebuchet ms', verdana, arial, sans-serif" font-size="16" fill="#333333"><tspan x="127.79" dy="0.00">Two</tspan></text><rect x="78.65" y="750.91" width="98.28" height="54.00" rx="3" ry="3" fill="#ECECFF" stroke="#7B88A8" stroke-width="1" stroke-linejoin="round" stroke-linecap="round"/><text x="127.79" y="781.91" text-anchor="middle" font-family="'trebuchet ms', verdana, arial, sans-serif" font-size="16" fill="#333333"><tspan x="127.79" dy="0.00">Three</tspan></text><g transform="translate(135.45 101.85) rotate(90.00)"><polygon points="0,0 -10.40,6.24 -10.40,-6.24" fill="#2F3B4D" stroke="#2F3B4D" stroke-width="2" stroke-linejoin="round" stroke-linecap="round"/></g><g transform="translate(135.44 251.59) rotate(90.00)"><polygon points="0,0 -10.40,6.24 -10.40,-6.24" fill="#2F3B4D" stroke="#2F3B4D" stroke-width="2" stroke-linejoin="round" stroke-linecap="round"/></g><g transform="translate(151.44 352.17) rotate(90.00)"><polygon points="0,0 -10.40,6.24 -10.40,-6.24" fill="#2F3B4D" stroke="#2F3B4D" stroke-width="2" stroke-linejoin="round" stroke-linecap="round"/></g><g transform="translate(135.45 202.48) rotate(-90.00)"><polygon points="0,0 -10.40,6.24 -10.40,-6.24" fill="#2F3B4D" stroke="#2F3B4D" stroke-width="2" stroke-linejoin="round" stroke-linecap="round"/></g><g transform="translate(135.43 478.65) rotate(90.00)"><polygon points="0,0 -10.40,6.24 -10.40,-6.24" fill="#2F3B4D" stroke="#2F3B4D" stroke-width="2" stroke-linejoin="round" stroke-linecap="round"/></g><g transform="translate(127.79 657.07) rotate(90.00)"><polygon points="0,0 -10.40,6.24 -10.40,-6.24" fill="#2F3B4D" stroke="#2F3B4D" stroke-width="2" stroke-linejoin="round" stroke-linecap="round"/></g><g transform="translate(127.79 750.91) rotate(90.00)"><polygon points="0,0 -10.40,6.24 -10.40,-6.24" fill="#2F3B4D" stroke="#2F3B4D" stroke-width="2" stroke-linejoin="round" stroke-linecap="round"/></g><g transform="translate(143.79 617.22) rotate(-90.00)"><polygon points="0,0 -10.40,6.24 -10.40,-6.24" fill="#2F3B4D" stroke="#2F3B4D" stroke-width="2" stroke-linejoin="round" stroke-linecap="round"/></g><g transform="translate(127.79 563.22) rotate(90.00)"><polygon points="0,0 -10.40,6.24 -10.40,-6.24" fill="#2F3B4D" stroke="#2F3B4D" stroke-width="2" stroke-linejoin="round" stroke-linecap="round"/></g></svg>