<svg xmlns="http://www.w3.org/2000/svg" width="526.0866" height="314.3148" viewBox="0 0 526.0866 314.3148"><rect x="0" y="0" width="526.0866" height="314.3148" fill="#FFFFFF"/><defs><marker id="arrow-0" viewBox="0 0 10 10" refX="5" refY="5" markerUnits="userSpaceOnUse" markerWidth="8" markerHeight="8" orient="auto"><path d="M 0 0 L 10 5 L 0 10 z" fill="#2F3B4D" stroke="#2F3B4D" stroke-width="1" stroke-dasharray="1,0"/></marker><marker id="arrow-start-0" viewBox="0 0 10 10" refX="4.5" refY="5" markerUnits="userSpaceOnUse" markerWidth="8" markerHeight="8" orient="auto"><path d="M 0 5 L 10 10 L 10 0 z" fill="#2F3B4D" stroke="#2F3B4D" stroke-width="1" stroke-dasharray="1,0"/></marker></defs><path d="M 95.827,129.994L 96.835,129.994C97.843,129.994,99.859,129.994,101.875,129.994C103.891,129.994,105.906,129.994,107.204,129.028C108.502,128.063,109.082,126.132,112.200,115.748C115.318,105.364,120.975,86.527,124.093,76.143C127.211,65.759,127.791,63.828,129.089,62.863C130.386,61.897,132.402,61.897,134.418,61.897C136.434,61.897,138.449,61.897,139.457,61.897L 140.465,61.897" fill="none" stroke="#2F3B4D" stroke-width="2"    stroke-linecap="round" stroke-linejoin="round" /><path d="M 101.959,149.578L 103.110,149.578C104.262,149.578,106.566,149.578,108.582,149.578C110.598,149.578,112.325,149.578,114.053,149.577C115.781,149.576,117.509,149.574,118.373,149.573C119.237,149.572,119.237,149.572,120.100,149.571C120.964,149.570,122.692,149.568,124.420,149.566C126.148,149.565,127.876,149.565,129.891,149.565C131.907,149.565,134.211,149.565,135.363,149.565L 136.515,149.565" fill="none" stroke="#2F3B4D" stroke-width="2"    stroke-linecap="round" stroke-linejoin="round" /><path d="M 95.827,169.182L 96.835,169.182C97.843,169.182,99.859,169.182,101.875,169.182C103.891,169.182,105.906,169.182,107.202,170.148C108.498,171.114,109.074,173.046,112.187,183.482C115.299,193.918,120.948,212.858,124.060,223.294C127.172,233.730,127.748,235.662,129.044,236.628C130.340,237.593,132.356,237.593,134.372,237.593C136.387,237.593,138.403,237.593,139.411,237.593L 140.419,237.593" fill="none" stroke="#2F3B4D" stroke-width="2"    stroke-linecap="round" stroke-linejoin="round" /><path d="M 186.891,76.323L 186.891,76.822C186.891,77.322,186.891,78.320,186.891,79.319C186.891,80.317,186.891,81.316,186.391,81.815C185.892,82.315,184.893,82.315,183.319,82.315C181.745,82.315,179.595,82.315,176.946,82.315C174.297,82.315,171.148,82.315,169.574,80.741C168.000,79.166,168.000,76.018,168.000,67.351C168.000,58.685,168.000,44.500,168.000,35.407C168.000,26.315,168.000,22.315,166.000,20.315C164.000,18.315,160.000,18.315,135.333,18.315C110.667,18.315,65.333,18.315,40.667,18.315C16.000,18.315,12.000,18.315,10.000,20.315C8.000,22.315,8.000,26.315,8.000,72.315C8.000,118.315,8.000,206.315,8.000,252.315C8.000,298.315,8.000,302.315,10.000,304.315C12.000,306.315,16.000,306.315,56.667,306.315C97.333,306.315,174.667,306.315,215.333,306.315C256.000,306.315,260.000,306.315,262.000,304.315C264.000,302.315,264.000,298.315,264.000,274.738C264.000,251.162,264.000,208.009,264.000,186.009C264.000,164.009,264.000,163.162,263.577,162.738C263.153,162.315,262.306,162.315,261.883,162.315C261.459,162.315,261.459,162.315,261.036,162.315C260.612,162.315,259.766,162.315,259.342,162.738C258.919,163.162,258.919,164.009,258.919,165.410C258.919,166.811,258.919,168.767,258.919,169.744L 258.919,170.722" fill="none" stroke="#2F3B4D" stroke-width="2"    stroke-linecap="round" stroke-linejoin="round" /><path d="M 199.791,169.365L 200.799,169.365C201.807,169.365,203.823,169.365,205.839,169.365C207.854,169.365,209.870,169.365,211.677,169.980C213.483,170.594,215.081,171.823,217.701,173.839C220.321,175.855,223.963,178.657,226.583,180.673C229.203,182.689,230.801,183.918,232.608,184.533C234.414,185.148,236.430,185.148,238.446,185.148C240.462,185.148,242.477,185.148,243.485,185.148L 244.493,185.148" fill="none" stroke="#2F3B4D" stroke-width="2"    stroke-linecap="round" stroke-linejoin="round" /><path d="M 202.082,237.593L 203.090,237.593C204.098,237.593,206.114,237.593,208.130,237.593C210.145,237.593,212.161,237.593,213.840,236.841C215.518,236.089,216.859,234.584,219.226,231.928C221.592,229.273,224.983,225.468,227.350,222.812C229.716,220.157,231.057,218.652,232.736,217.900C234.414,217.148,236.430,217.148,238.446,217.148C240.462,217.148,242.477,217.148,243.485,217.148L 244.493,217.148" fill="none" stroke="#2F3B4D" stroke-width="2"    stroke-linecap="round" stroke-linejoin="round" /><path d="M 201.316,61.897L 202.324,61.897C203.332,61.897,205.348,61.897,207.363,61.897C209.379,61.897,211.395,61.897,213.092,62.633C214.789,63.368,216.168,64.839,218.651,67.489C221.135,70.138,224.723,73.967,227.206,76.616C229.690,79.266,231.068,80.737,232.766,81.472C234.463,82.208,236.478,82.208,238.494,82.208C240.510,82.208,242.526,82.208,243.534,82.208L 244.542,82.208" fill="none" stroke="#2F3B4D" stroke-width="2"    stroke-linecap="round" stroke-linejoin="round" /><path d="M 199.791,129.766L 200.799,129.766C201.807,129.766,203.823,129.766,205.839,129.766C207.854,129.766,209.870,129.766,211.682,129.158C213.493,128.550,215.101,127.333,217.724,125.348C220.347,123.363,223.986,120.610,226.609,118.625C229.232,116.640,230.839,115.424,232.651,114.816C234.463,114.208,236.478,114.208,238.494,114.208C240.510,114.208,242.526,114.208,243.534,114.208L 244.542,114.208" fill="none" stroke="#2F3B4D" stroke-width="2"    stroke-linecap="round" stroke-linejoin="round" /><path d="M 187.251,222.762L 187.251,221.754C187.251,220.746,187.251,218.730,187.251,216.714C187.251,214.699,187.251,212.683,188.258,211.675C189.266,210.667,191.282,210.667,195.224,210.667C199.165,210.667,205.033,210.667,209.967,210.667C214.901,210.667,218.901,210.667,220.901,208.667C222.901,206.667,222.901,202.667,222.901,192.941C222.901,183.215,222.901,167.763,222.901,158.037C222.901,148.311,222.901,144.311,224.901,142.311C226.901,140.311,230.901,140.311,235.834,140.311C240.768,140.311,246.636,140.311,250.577,140.311C254.519,140.311,256.535,140.311,257.543,139.303C258.551,138.295,258.551,136.280,258.551,134.264C258.551,132.248,258.551,130.232,258.551,129.224L 258.551,128.217" fill="none" stroke="#2F3B4D" stroke-width="2"    stroke-linecap="round" stroke-linejoin="round" /><path d="M 305.344,185.148L 306.352,185.148C307.360,185.148,309.376,185.148,311.391,185.148C313.407,185.148,315.423,185.148,317.119,184.411C318.814,183.674,320.190,182.201,322.532,179.694C324.873,177.187,328.180,173.645,330.521,171.138C332.863,168.631,334.239,167.158,335.934,166.421C337.630,165.684,339.646,165.684,341.662,165.684C343.677,165.684,345.693,165.684,346.701,165.684L 347.709,165.684" fill="none" stroke="#2F3B4D" stroke-width="2"    stroke-linecap="round" stroke-linejoin="round" /><path d="M 304.560,114.208L 305.568,114.208C306.575,114.208,308.591,114.208,310.607,114.208C312.623,114.208,314.639,114.208,316.349,114.930C318.060,115.652,319.466,117.096,321.923,119.620C324.380,122.144,327.888,125.748,330.345,128.272C332.802,130.796,334.208,132.240,335.919,132.962C337.630,133.684,339.646,133.684,341.662,133.684C343.677,133.684,345.693,133.684,346.701,133.684L 347.709,133.684" fill="none" stroke="#2F3B4D" stroke-width="2"    stroke-linecap="round" stroke-linejoin="round" /><path d="M 414.059,149.684L 415.066,149.684C416.074,149.684,418.090,149.684,420.106,149.684C422.122,149.684,424.137,149.684,426.002,150.216C427.866,150.748,429.578,151.811,430.564,152.423C431.549,153.034,431.807,153.195,432.793,153.806C433.778,154.418,435.491,155.481,437.355,156.013C439.219,156.545,441.235,156.545,443.251,156.545C445.267,156.545,447.282,156.545,448.290,156.545L 449.298,156.545" fill="none" stroke="#2F3B4D" stroke-width="2"    stroke-linecap="round" stroke-linejoin="round" /><path d="M 205.267,45.897L 206.274,45.897C207.282,45.897,209.298,45.897,211.314,45.897C213.330,45.897,215.345,45.897,216.353,44.890C217.361,43.882,217.361,41.866,217.361,37.550C217.361,33.233,217.361,26.617,217.361,21.308C217.361,16.000,217.361,12.000,219.361,10.000C221.361,8.000,225.361,8.000,260.358,8.000C295.355,8.000,361.349,8.000,396.346,8.000C431.343,8.000,435.343,8.000,437.343,10.000C439.343,12.000,439.343,16.000,439.343,36.321C439.343,56.641,439.343,93.283,439.343,112.611C439.343,131.940,439.343,133.956,440.351,134.964C441.359,135.971,443.374,135.971,445.390,135.971C447.406,135.971,449.422,135.971,450.430,135.971L 451.437,135.971" fill="none" stroke="#2F3B4D" stroke-width="2"    stroke-linecap="round" stroke-linejoin="round" /><path d="M 205.987,149.578L 206.994,149.578C208.002,149.578,210.018,149.578,212.034,149.578C214.050,149.578,216.065,149.578,217.073,148.571C218.081,147.563,218.081,145.547,218.081,130.155C218.081,114.762,218.081,85.994,218.081,69.610C218.081,53.225,218.081,49.225,220.081,47.225C222.081,45.225,226.081,45.225,260.493,45.225C294.905,45.225,359.728,45.225,394.140,45.225C428.552,45.225,432.552,45.225,434.552,47.225C436.552,49.225,436.552,53.225,436.552,69.381C436.552,85.537,436.552,113.849,436.552,129.013C436.552,144.176,436.552,146.192,437.559,147.200C438.567,148.208,440.583,148.208,442.599,148.208C444.615,148.208,446.630,148.208,447.638,148.208L 448.646,148.208" fill="none" stroke="#2F3B4D" stroke-width="2"    stroke-linecap="round" stroke-linejoin="round" /><path d="M 205.987,253.593L 206.994,253.593C208.002,253.593,210.018,253.593,212.034,253.593C214.050,253.593,216.065,253.593,217.073,254.601C218.081,255.609,218.081,257.625,218.081,259.112C218.081,260.599,218.081,261.557,218.081,263.524C218.081,265.490,218.081,268.464,219.568,269.951C221.055,271.438,224.029,271.438,259.019,271.438C294.009,271.438,361.014,271.438,396.516,271.438C432.019,271.438,436.019,271.438,438.019,269.438C440.019,267.438,440.019,263.438,440.019,246.687C440.019,229.935,440.019,200.432,440.019,184.672C440.019,168.913,440.019,166.897,441.027,165.889C442.035,164.881,444.051,164.881,446.066,164.881C448.082,164.881,450.098,164.881,451.106,164.881L 452.114,164.881" fill="none" stroke="#2F3B4D" stroke-width="2"    stroke-linecap="round" stroke-linejoin="round" /><circle cx="67.58" cy="149.59" r="34.38" fill="#ECECFF" stroke="#7B88A8" stroke-width="1" stroke-linejoin="round" stroke-linecap="round"/><circle cx="67.58" cy="149.59" r="30.38" fill="none" stroke="#7B88A8" stroke-width="1" stroke-linejoin="round" stroke-linecap="round"/><text x="67.58" y="153.59" text-anchor="middle" font-family="'trebuchet ms', verdana, arial, sans-serif" font-size="16" fill="#333333"><tspan x="67.58" dy="0.00">A</tspan></text><circle cx="170.89" cy="45.90" r="34.38" fill="#ECECFF" stroke="#7B88A8" stroke-width="1" stroke-linejoin="round" stroke-linecap="round"/><circle cx="170.89" cy="45.90" r="30.38" fill="none" stroke="#7B88A8" stroke-width="1" stroke-linejoin="round" stroke-linecap="round"/><text x="170.89" y="49.90" text-anchor="middle" font-family="'trebuchet ms', verdana, arial, sans-serif" font-size="16" fill="#333333"><tspan x="170.89" dy="0.00">B</tspan></text><circle cx="171.25" cy="149.57" r="34.74" fill="#ECECFF" stroke="#7B88A8" stroke-width="1" stroke-linejoin="round" stroke-linecap="round"/><circle cx="171.25" cy="149.57" r="30.74" fill="none" stroke="#7B88A8" stroke-width="1" stroke-linejoin="round" stroke-linecap="round"/><text x="171.25" y="153.57" text-anchor="middle" font-family="'trebuchet ms', verdana, arial, sans-serif" font-size="16" fill="#333333"><tspan x="171.25" dy="0.00">C</tspan></text><circle cx="171.25" cy="253.59" r="34.74" fill="#ECECFF" stroke="#7B88A8" stroke-width="1" stroke-linejoin="round" stroke-linecap="round"/><circle cx="171.25" cy="253.59" r="30.74" fill="none" stroke="#7B88A8" stroke-width="1" stroke-linejoin="round" stroke-linecap="round"/><text x="171.25" y="257.59" text-anchor="middle" font-family="'trebuchet ms', verdana, arial, sans-serif" font-size="16" fill="#333333"><tspan x="171.25" dy="0.00">D</tspan></text><circle cx="274.92" cy="201.15" r="34.38" fill="#ECECFF" stroke="#7B88A8" stroke-width="1" stroke-linejoin="round" stroke-linecap="round"/><circle cx="274.92" cy="201.15" r="30.38" fill="none" stroke="#7B88A8" stroke-width="1" stroke-linejoin="round" stroke-linecap="round"/><text x="274.92" y="205.15" text-anchor="middle" font-family="'trebuchet ms', verdana, arial, sans-serif" font-size="16" fill="#333333"><tspan x="274.92" dy="0.00">E</tspan></text><circle cx="274.55" cy="98.21" r="34.01" fill="#ECECFF" stroke="#7B88A8" stroke-width="1" stroke-linejoin="round" stroke-linecap="round"/><circle cx="274.55" cy="98.21" r="30.01" fill="none" stroke="#7B88A8" stroke-width="1" stroke-linejoin="round" stroke-linecap="round"/><text x="274.55" y="102.21" text-anchor="middle" font-family="'trebuchet ms', verdana, arial, sans-serif" font-size="16" fill="#333333"><tspan x="274.55" dy="0.00">F</tspan></text><circle cx="378.95" cy="149.68" r="35.10" fill="#ECECFF" stroke="#7B88A8" stroke-width="1" stroke-linejoin="round" stroke-linecap="round"/><circle cx="378.95" cy="149.68" r="31.10" fill="none" stroke="#7B88A8" stroke-width="1" stroke-linejoin="round" stroke-linecap="round"/><text x="378.95" y="153.68" text-anchor="middle" font-family="'trebuchet ms', verdana, arial, sans-serif" font-size="16" fill="#333333"><tspan x="378.95" dy="0.00">G</tspan></text><circle cx="483.35" cy="149.69" r="34.74" fill="#ECECFF" stroke="#7B88A8" stroke-width="1" stroke-linejoin="round" stroke-linecap="round"/><circle cx="483.35" cy="149.69" r="30.74" fill="none" stroke="#7B88A8" stroke-width="1" stroke-linejoin="round" stroke-linecap="round"/><text x="483.35" y="153.69" text-anchor="middle" font-family="'trebuchet ms', verdana, arial, sans-serif" font-size="16" fill="#333333"><tspan x="483.35" dy="0.00">H</tspan></text><g transform="translate(140.47 61.90) rotate(0.00)"><polygon points="0,0 -10.40,6.24 -10.40,-6.24" fill="#2F3B4D" stroke="#2F3B4D" stroke-width="2" stroke-linejoin="round" stroke-linecap="round"/></g><g transform="translate(136.51 149.57) rotate(0.00)"><polygon points="0,0 -10.40,6.24 -10.40,-6.24" fill="#2F3B4D" stroke="#2F3B4D" stroke-width="2" stroke-linejoin="round" stroke-linecap="round"/></g><g transform="translate(140.42 237.59) rotate(0.00)"><polygon points="0,0 -10.40,6.24 -10.40,-6.24" fill="#2F3B4D" stroke="#2F3B4D" stroke-width="2" stroke-linejoin="round" stroke-linecap="round"/></g><g transform="translate(258.92 170.72) rotate(90.00)"><polygon points="0,0 -10.40,6.24 -10.40,-6.24" fill="#2F3B4D" stroke="#2F3B4D" stroke-width="2" stroke-linejoin="round" stroke-linecap="round"/></g><g transform="translate(244.49 185.15) rotate(0.00)"><polygon points="0,0 -10.40,6.24 -10.40,-6.24" fill="#2F3B4D" stroke="#2F3B4D" stroke-width="2" stroke-linejoin="round" stroke-linecap="round"/></g><g transform="translate(244.49 217.15) rotate(0.00)"><polygon points="0,0 -10.40,6.24 -10.40,-6.24" fill="#2F3B4D" stroke="#2F3B4D" stroke-width="2" stroke-linejoin="round" stroke-linecap="round"/></g><g transform="translate(244.54 82.21) rotate(0.00)"><polygon points="0,0 -10.40,6.24 -10.40,-6.24" fill="#2F3B4D" stroke="#2F3B4D" stroke-width="2" stroke-linejoin="round" stroke-linecap="round"/></g><g transform="translate(244.54 114.21) rotate(0.00)"><polygon points="0,0 -10.40,6.24 -10.40,-6.24" fill="#2F3B4D" stroke="#2F3B4D" stroke-width="2" stroke-linejoin="round" stroke-linecap="round"/></g><g transform="translate(258.55 128.22) rotate(-90.00)"><polygon points="0,0 -10.40,6.24 -10.40,-6.24" fill="#2F3B4D" stroke="#2F3B4D" stroke-width="2" stroke-linejoin="round" stroke-linecap="round"/></g><g transform="translate(347.71 165.68) rotate(0.00)"><polygon points="0,0 -10.40,6.24 -10.40,-6.24" fill="#2F3B4D" stroke="#2F3B4D" stroke-width="2" stroke-linejoin="round" stroke-linecap="round"/></g><g transform="translate(347.71 133.68) rotate(0.00)"><polygon points="0,0 -10.40,6.24 -10.40,-6.24" fill="#2F3B4D" stroke="#2F3B4D" stroke-width="2" stroke-linejoin="round" stroke-linecap="round"/></g><g transform="translate(449.30 156.54) rotate(0.00)"><polygon points="0,0 -10.40,6.24 -10.40,-6.24" fill="#2F3B4D" stroke="#2F3B4D" stroke-width="2" stroke-linejoin="round" stroke-linecap="round"/></g><g transform="translate(451.44 135.97) rotate(0.00)"><polygon points="0,0 -10.40,6.24 -10.40,-6.24" fill="#2F3B4D" stroke="#2F3B4D" stroke-width="2" stroke-linejoin="round" stroke-linecap="round"/></g><g transform="translate(448.65 148.21) rotate(0.00)"><polygon points="0,0 -10.40,6.24 -10.40,-6.24" fill="#2F3B4D" stroke="#2F3B4D" stroke-width="2" stroke-linejoin="round" stroke-linecap="round"/></g><g transform="translate(452.11 164.88) rotate(0.00)"><polygon points="0,0 -10.40,6.24 -10.40,-6.24" fill="#2F3B4D" stroke="#2F3B4D" stroke-width="2" stroke-linejoin="round" stroke-linecap="round"/></g></svg>