<svg xmlns="http://www.w3.org/2000/svg" width="505.028" height="135.5838" viewBox="0 0 505.028 135.5838"><rect x="0" y="0" width="505.028" height="135.5838" fill="#FFFFFF"/><defs><marker id="arrow-0" viewBox="0 0 10 10" refX="5" refY="5" markerUnits="userSpaceOnUse" markerWidth="8" markerHeight="8" orient="auto"><path d="M 0 0 L 10 5 L 0 10 z" fill="#2F3B4D" stroke="#2F3B4D" stroke-width="1" stroke-dasharray="1,0"/></marker><marker id="arrow-start-0" viewBox="0 0 10 10" refX="4.5" refY="5" markerUnits="userSpaceOnUse" markerWidth="8" markerHeight="8" orient="auto"><path d="M 0 5 L 10 10 L 10 0 z" fill="#2F3B4D" stroke="#2F3B4D" stroke-width="1" stroke-dasharray="1,0"/></marker></defs><path d="M 72.075,69.995 L 108.137,69.995" fill="none" stroke="#2F3B4D" stroke-width="2"    stroke-linecap="round" stroke-linejoin="round" /><path d="M 207.315,53.995L 208.367,53.995C209.419,53.995,211.523,53.995,213.626,53.995C215.730,53.995,217.833,53.995,219.818,53.509C221.803,53.024,223.669,52.053,230.885,48.301C238.100,44.548,250.665,38.013,258.219,34.085C265.773,30.156,268.316,28.833,271.021,28.171C273.726,27.509,276.593,27.507,278.408,27.506C280.223,27.505,280.986,27.504,282.419,27.503C283.853,27.503,285.956,27.501,288.060,27.501C290.163,27.500,292.267,27.500,294.371,27.500C296.474,27.500,298.578,27.500,299.629,27.500L 300.681,27.500" fill="none" stroke="#2F3B4D" stroke-width="2"    stroke-linecap="round" stroke-linejoin="round" /><rect x="254.88" y="13.31" width="31.97" height="28.40" rx="2" ry="2" fill="rgba(248,250,252, 0.92)" fill-opacity="0.95" stroke="#7B88A8" stroke-opacity="0.45" stroke-width="0.8"/><text x="270.86" y="31.51" text-anchor="middle" font-family="'trebuchet ms', verdana, arial, sans-serif" font-size="16" fill="#333333"><tspan x="270.86" dy="0.00">yes</tspan></text><path d="M 207.315,85.995L 208.367,85.995C209.419,85.995,211.523,85.995,213.626,85.995C215.730,85.995,217.833,85.995,219.936,86.030C222.039,86.065,224.142,86.135,229.992,86.331C235.842,86.527,245.440,86.849,252.238,87.076C259.036,87.304,263.034,87.438,266.625,88.716C270.215,89.994,273.399,92.416,275.846,94.277C278.293,96.138,280.003,97.440,281.695,98.727C283.387,100.014,285.062,101.288,286.951,101.925C288.839,102.561,290.943,102.561,293.047,102.561C295.150,102.561,297.254,102.561,298.306,102.561L 299.357,102.561" fill="none" stroke="#2F3B4D" stroke-width="2"    stroke-linecap="round" stroke-linejoin="round" /><rect x="254.88" y="73.37" width="24.31" height="28.40" rx="2" ry="2" fill="rgba(248,250,252, 0.92)" fill-opacity="0.95" stroke="#7B88A8" stroke-opacity="0.45" stroke-width="0.8"/><text x="267.03" y="91.57" text-anchor="middle" font-family="'trebuchet ms', verdana, arial, sans-serif" font-size="16" fill="#333333"><tspan x="267.03" dy="0.00">no</tspan></text><path d="M 394.883,27.500L 395.935,27.500C396.987,27.500,399.090,27.500,401.194,27.500C403.298,27.500,405.401,27.500,407.190,28.250C408.979,29.000,410.454,30.501,413.243,33.339C416.032,36.177,420.136,40.353,422.925,43.192C425.714,46.030,427.188,47.530,428.977,48.280C430.766,49.031,432.870,49.031,434.973,49.031C437.077,49.031,439.180,49.031,440.232,49.031L 441.284,49.031" fill="none" stroke="#2F3B4D" stroke-width="2"    stroke-linecap="round" stroke-linejoin="round" /><path d="M 381.497,102.561L 382.549,102.561C383.601,102.561,385.704,102.561,387.808,102.561C389.911,102.561,392.015,102.561,393.959,102.005C395.904,101.449,397.689,100.336,402.554,97.304C407.418,94.272,415.363,89.320,420.227,86.288C425.092,83.256,426.877,82.143,428.822,81.587C430.766,81.031,432.870,81.031,434.973,81.031C437.077,81.031,439.180,81.031,440.232,81.031L 441.284,81.031" fill="none" stroke="#2F3B4D" stroke-width="2"    stroke-linecap="round" stroke-linejoin="round" /><rect x="8.00" y="50.49" width="64.08" height="39.00" rx="19.50" ry="19.50" fill="#ECECFF" stroke="#7B88A8" stroke-width="1" stroke-linejoin="round" stroke-linecap="round"/><text x="40.04" y="73.99" text-anchor="middle" font-family="'trebuchet ms', verdana, arial, sans-serif" font-size="16" fill="#333333"><tspan x="40.04" dy="0.00">Start</tspan></text><polygon points="165.73,12.41 223.32,69.99 165.73,127.58 108.14,69.99" fill="#ECECFF" stroke="#7B88A8" stroke-width="1" stroke-linejoin="round" stroke-linecap="round"/><text x="165.73" y="73.99" text-anchor="middle" font-family="'trebuchet ms', verdana, arial, sans-serif" font-size="16" fill="#333333"><tspan x="165.73" dy="0.00">Decision</tspan></text><polygon points="311.02,8.00 405.22,8.00 384.54,47.00 290.34,47.00" fill="#ECECFF" stroke="#7B88A8" stroke-width="1" stroke-linejoin="round" stroke-linecap="round"/><text x="347.78" y="31.50" text-anchor="middle" font-family="'trebuchet ms', verdana, arial, sans-serif" font-size="16" fill="#333333"><tspan x="347.78" dy="0.00">Do thing</tspan></text><polygon points="290.34,83.06 372.48,83.06 390.51,122.06 308.37,122.06" fill="#ECECFF" stroke="#7B88A8" stroke-width="1" stroke-linejoin="round" stroke-linecap="round"/><text x="340.43" y="106.56" text-anchor="middle" font-family="'trebuchet ms', verdana, arial, sans-serif" font-size="16" fill="#333333"><tspan x="340.43" dy="0.00">\Skip\</tspan></text><rect x="441.28" y="45.53" width="55.74" height="39.00" rx="6" ry="6" fill="#ECECFF" stroke="#7B88A8" stroke-width="1" stroke-linejoin="round" stroke-linecap="round"/><line x1="447.28" y1="47.53" x2="447.28" y2="82.53" stroke="#7B88A8" stroke-width="1" stroke-linejoin="round" stroke-linecap="round"/><line x1="491.03" y1="47.53" x2="491.03" y2="82.53" stroke="#7B88A8" stroke-width="1" stroke-linejoin="round" stroke-linecap="round"/><text x="469.16" y="69.03" text-anchor="middle" font-family="'trebuchet ms', verdana, arial, sans-serif" font-size="16" fill="#333333"><tspan x="469.16" dy="0.00">End</tspan></text><g transform="translate(108.14 69.99) rotate(0.00)"><polygon points="0,0 -10.40,6.24 -10.40,-6.24" fill="#2F3B4D" stroke="#2F3B4D" stroke-width="2" stroke-linejoin="round" stroke-linecap="round"/></g><g transform="translate(300.68 27.50) rotate(0.00)"><polygon points="0,0 -10.40,6.24 -10.40,-6.24" fill="#2F3B4D" stroke="#2F3B4D" stroke-width="2" stroke-linejoin="round" stroke-linecap="round"/></g><g transform="translate(299.36 102.56) rotate(0.00)"><polygon points="0,0 -10.40,6.24 -10.40,-6.24" fill="#2F3B4D" stroke="#2F3B4D" stroke-width="2" stroke-linejoin="round" stroke-linecap="round"/></g><g transform="translate(441.28 49.03) rotate(0.00)"><polygon points="0,0 -10.40,6.24 -10.40,-6.24" fill="#2F3B4D" stroke="#2F3B4D" stroke-width="2" stroke-linejoin="round" stroke-linecap="round"/></g><g transform="translate(441.28 81.03) rotate(0.00)"><polygon points="0,0 -10.40,6.24 -10.40,-6.24" fill="#2F3B4D" stroke="#2F3B4D" stroke-width="2" stroke-linejoin="round" stroke-linecap="round"/></g></svg>