<svg xmlns="http://www.w3.org/2000/svg" width="369.72186" height="1422.6162" viewBox="0 0 369.72186 1422.6162"><rect x="0" y="0" width="369.72186" height="1422.6162" fill="#FFFFFF"/><defs><marker id="arrow-0" viewBox="0 0 10 10" refX="5" refY="5" markerUnits="userSpaceOnUse" markerWidth="8" markerHeight="8" orient="auto"><path d="M 0 0 L 10 5 L 0 10 z" fill="#2F3B4D" stroke="#2F3B4D" stroke-width="1" stroke-dasharray="1,0"/></marker><marker id="arrow-start-0" viewBox="0 0 10 10" refX="4.5" refY="5" markerUnits="userSpaceOnUse" markerWidth="8" markerHeight="8" orient="auto"><path d="M 0 5 L 10 10 L 10 0 z" fill="#2F3B4D" stroke="#2F3B4D" stroke-width="1" stroke-dasharray="1,0"/></marker></defs><path d="M 187.990,47.000L 187.990,48.138C187.990,49.275,187.990,51.550,187.990,53.825C187.990,56.100,187.990,58.375,187.995,60.650C188.001,62.925,188.012,65.200,188.025,67.846C188.038,70.492,188.052,73.508,188.065,76.154C188.078,78.800,188.089,81.075,188.094,83.350C188.100,85.625,188.100,87.900,188.100,90.175C188.100,92.450,188.100,94.725,188.100,95.862L 188.100,97.000" fill="none" stroke="#2F3B4D" stroke-width="2"    stroke-linecap="round" stroke-linejoin="round" /><path d="M 172.100,210.723L 172.100,212.182C172.100,213.640,172.100,216.557,172.100,219.473C172.100,222.390,172.100,225.307,172.475,228.174C172.851,231.042,173.602,233.860,176.235,243.742C178.868,253.623,183.384,270.569,185.695,279.243C188.007,287.917,188.114,288.320,188.178,288.730C188.243,289.140,188.264,289.557,188.275,289.765C188.286,289.973,188.286,289.973,188.297,290.182C188.307,290.390,188.329,290.807,188.340,291.224C188.350,291.640,188.350,292.058,188.350,294.974C188.350,297.891,188.350,303.307,188.350,306.015L 188.350,308.723" fill="none" stroke="#2F3B4D" stroke-width="2"    stroke-linecap="round" stroke-linejoin="round" /><rect x="175.34" y="274.52" width="25.77" height="28.40" rx="2" ry="2" fill="rgba(248,250,252, 0.92)" fill-opacity="0.95" stroke="#7B88A8" stroke-opacity="0.45" stroke-width="0.8"/><text x="188.22" y="292.72" text-anchor="middle" font-family="'trebuchet ms', verdana, arial, sans-serif" font-size="16" fill="#333333"><tspan x="188.22" dy="0.00">No</tspan></text><path d="M 204.350,362.723L 204.350,364.182C204.350,365.640,204.350,368.557,204.350,371.473C204.350,374.390,204.350,377.307,203.291,379.767C202.231,382.227,200.111,384.230,198.526,385.729C196.941,387.227,195.891,388.220,194.306,389.718C192.721,391.216,190.601,393.220,189.541,395.680C188.482,398.140,188.482,401.057,188.482,403.973C188.482,406.890,188.482,409.807,188.482,411.265L 188.482,412.723" fill="none" stroke="#2F3B4D" stroke-width="2"    stroke-linecap="round" stroke-linejoin="round" /><path d="M 172.482,584.625L 172.482,586.083C172.482,587.542,172.482,590.458,172.482,593.375C172.482,596.292,172.482,599.208,171.023,600.667C169.565,602.125,166.648,602.125,151.964,602.125C137.281,602.125,110.830,602.125,95.604,602.125C80.379,602.125,76.379,602.125,74.699,604.099C73.019,606.073,73.659,610.022,81.092,655.842C88.524,701.663,102.749,789.355,110.181,835.176C117.614,880.996,118.254,884.945,118.311,888.901C118.368,892.858,117.841,896.823,110.307,953.550C102.772,1010.277,88.230,1119.766,80.741,1176.154C73.252,1232.542,72.815,1235.829,74.255,1237.473C75.695,1239.116,79.011,1239.116,80.869,1239.116C82.726,1239.116,83.126,1239.116,84.784,1239.116C86.442,1239.116,89.359,1239.116,90.817,1240.575C92.275,1242.033,92.275,1244.950,92.275,1247.866C92.275,1250.783,92.275,1253.700,92.275,1255.158L 92.275,1256.616" fill="none" stroke="#2F3B4D" stroke-width="2"    stroke-linecap="round" stroke-linejoin="round" /><rect x="106.01" y="874.69" width="25.77" height="28.40" rx="2" ry="2" fill="rgba(248,250,252, 0.92)" fill-opacity="0.95" stroke="#7B88A8" stroke-opacity="0.45" stroke-width="0.8"/><text x="118.89" y="892.89" text-anchor="middle" font-family="'trebuchet ms', verdana, arial, sans-serif" font-size="16" fill="#333333"><tspan x="118.89" dy="0.00">No</tspan></text><path d="M 60.275,1256.616L 60.275,1254.030C60.275,1251.443,60.275,1246.270,60.275,1243.354C60.275,1240.437,60.275,1239.777,59.945,1239.446C59.615,1239.116,58.955,1239.116,58.624,1239.116C58.294,1239.116,58.294,1239.116,57.964,1239.116C57.634,1239.116,56.973,1239.116,56.643,1238.786C56.313,1238.456,56.313,1237.795,56.313,1096.647C56.313,955.498,56.313,673.861,56.313,531.042C56.313,388.223,56.313,384.223,58.313,382.223C60.313,380.223,64.313,380.223,82.194,380.223C100.075,380.223,131.838,380.223,149.178,380.223C166.517,380.223,169.434,380.223,170.892,378.765C172.350,377.307,172.350,374.390,172.350,371.473C172.350,368.557,172.350,365.640,172.350,364.182L 172.350,362.723" fill="none" stroke="#2F3B4D" stroke-width="2"    stroke-linecap="round" stroke-linejoin="round" /><path d="M 204.482,584.625L 204.482,586.083C204.482,587.542,204.482,590.458,204.482,593.375C204.482,596.292,204.482,599.208,204.112,602.077C203.742,604.946,203.001,607.768,200.409,617.649C197.817,627.531,193.372,644.473,191.097,653.145C188.822,661.818,188.716,662.222,188.673,662.632C188.630,663.042,188.650,663.458,188.660,663.667C188.670,663.875,188.670,663.875,188.680,664.083C188.690,664.292,188.710,664.708,188.720,665.125C188.730,665.542,188.730,665.959,188.730,668.876C188.730,671.793,188.730,677.209,188.730,679.917L 188.730,682.625" fill="none" stroke="#2F3B4D" stroke-width="2"    stroke-linecap="round" stroke-linejoin="round" /><rect x="172.63" y="648.43" width="31.97" height="28.40" rx="2" ry="2" fill="rgba(248,250,252, 0.92)" fill-opacity="0.95" stroke="#7B88A8" stroke-opacity="0.45" stroke-width="0.8"/><text x="188.61" y="666.63" text-anchor="middle" font-family="'trebuchet ms', verdana, arial, sans-serif" font-size="16" fill="#333333"><tspan x="188.61" dy="0.00">Yes</tspan></text><path d="M 172.730,810.893L 172.730,812.351C172.730,813.810,172.730,816.726,172.730,819.643C172.730,822.560,172.730,825.476,173.105,828.344C173.480,831.211,174.231,834.030,176.862,843.912C179.493,853.794,184.005,870.739,186.315,879.414C188.624,888.088,188.732,888.490,188.786,888.900C188.841,889.310,188.843,889.726,188.845,889.935C188.846,890.143,188.846,890.143,188.847,890.351C188.848,890.560,188.850,890.976,188.851,891.393C188.853,891.810,188.853,892.226,188.853,895.143C188.853,898.060,188.853,903.476,188.853,906.185L 188.853,908.893" fill="none" stroke="#2F3B4D" stroke-width="2"    stroke-linecap="round" stroke-linejoin="round" /><rect x="172.86" y="874.69" width="31.97" height="28.40" rx="2" ry="2" fill="rgba(248,250,252, 0.92)" fill-opacity="0.95" stroke="#7B88A8" stroke-opacity="0.45" stroke-width="0.8"/><text x="188.84" y="892.89" text-anchor="middle" font-family="'trebuchet ms', verdana, arial, sans-serif" font-size="16" fill="#333333"><tspan x="188.84" dy="0.00">Yes</tspan></text><path d="M 188.853,962.893L 188.853,964.351C188.853,965.810,188.853,968.726,188.853,971.643C188.853,974.560,188.853,977.476,188.502,980.350C188.151,983.224,187.450,986.055,185.860,992.473C184.270,998.891,181.792,1008.895,180.202,1015.313C178.612,1021.731,177.911,1024.562,177.560,1027.436C177.210,1030.310,177.210,1033.226,177.210,1036.143C177.210,1039.060,177.210,1041.976,177.210,1043.435L 177.210,1044.893" fill="none" stroke="#2F3B4D" stroke-width="2"    stroke-linecap="round" stroke-linejoin="round" /><path d="M 145.210,1142.616L 145.210,1144.075C145.210,1145.533,145.210,1148.450,145.210,1151.366C145.210,1154.283,145.210,1157.200,144.319,1159.812C143.428,1162.425,141.646,1164.734,132.939,1176.017C124.233,1187.300,108.601,1207.556,99.654,1219.152C90.706,1230.747,88.441,1233.682,89.151,1235.357C89.860,1237.033,93.543,1237.450,95.777,1237.702C98.011,1237.955,98.796,1238.044,100.637,1238.252C102.479,1238.460,105.377,1238.788,106.826,1240.411C108.275,1242.033,108.275,1244.950,108.275,1247.866C108.275,1250.783,108.275,1253.700,108.275,1255.158L 108.275,1256.616" fill="none" stroke="#2F3B4D" stroke-width="2"    stroke-linecap="round" stroke-linejoin="round" /><rect x="73.29" y="1222.42" width="25.77" height="28.40" rx="2" ry="2" fill="rgba(248,250,252, 0.92)" fill-opacity="0.95" stroke="#7B88A8" stroke-opacity="0.45" stroke-width="0.8"/><text x="86.18" y="1240.62" text-anchor="middle" font-family="'trebuchet ms', verdana, arial, sans-serif" font-size="16" fill="#333333"><tspan x="86.18" dy="0.00">No</tspan></text><path d="M 209.210,1142.616L 209.210,1144.075C209.210,1145.533,209.210,1148.450,209.210,1151.366C209.210,1154.283,209.210,1157.200,210.101,1159.812C210.991,1162.425,212.773,1164.734,221.479,1176.017C230.185,1187.299,245.815,1207.555,254.762,1219.151C263.709,1230.746,265.974,1233.681,265.264,1235.357C264.555,1237.033,260.871,1237.450,258.637,1237.702C256.402,1237.955,255.616,1238.044,253.775,1238.252C251.933,1238.461,249.035,1238.788,247.585,1240.411C246.136,1242.033,246.136,1244.950,246.136,1247.866C246.136,1250.783,246.136,1253.700,246.136,1255.158L 246.136,1256.616" fill="none" stroke="#2F3B4D" stroke-width="2"    stroke-linecap="round" stroke-linejoin="round" /><rect x="252.26" y="1222.42" width="31.97" height="28.40" rx="2" ry="2" fill="rgba(248,250,252, 0.92)" fill-opacity="0.95" stroke="#7B88A8" stroke-opacity="0.45" stroke-width="0.8"/><text x="268.24" y="1240.62" text-anchor="middle" font-family="'trebuchet ms', verdana, arial, sans-serif" font-size="16" fill="#333333"><tspan x="268.24" dy="0.00">Yes</tspan></text><path d="M 204.730,810.893L 204.730,812.351C204.730,813.810,204.730,816.726,204.730,819.643C204.730,822.560,204.730,825.476,206.188,826.935C207.646,828.393,210.563,828.393,219.680,828.393C228.798,828.393,244.115,828.393,253.774,828.393C263.433,828.393,267.433,828.393,268.271,830.020C269.108,831.648,266.783,834.903,244.550,866.025C222.317,897.148,180.177,956.138,157.944,987.261C135.712,1018.383,133.387,1021.638,133.320,1024.938C133.254,1028.239,135.446,1031.584,158.535,1066.821C181.624,1102.058,225.610,1169.185,247.909,1203.216C270.208,1237.247,270.821,1238.182,271.686,1238.649C272.550,1239.116,273.668,1239.116,274.226,1239.116C274.785,1239.116,274.785,1239.116,275.343,1239.116C275.902,1239.116,277.019,1239.116,277.578,1239.675C278.136,1240.233,278.136,1241.351,278.136,1244.267C278.136,1247.184,278.136,1251.900,278.136,1254.258L 278.136,1256.616" fill="none" stroke="#2F3B4D" stroke-width="2"    stroke-linecap="round" stroke-linejoin="round" /><rect x="118.18" y="1010.69" width="25.77" height="28.40" rx="2" ry="2" fill="rgba(248,250,252, 0.92)" fill-opacity="0.95" stroke="#7B88A8" stroke-opacity="0.45" stroke-width="0.8"/><text x="131.06" y="1028.89" text-anchor="middle" font-family="'trebuchet ms', verdana, arial, sans-serif" font-size="16" fill="#333333"><tspan x="131.06" dy="0.00">No</tspan></text><path d="M 204.100,210.723L 204.100,212.182C204.100,213.640,204.100,216.557,204.100,219.473C204.100,222.390,204.100,225.307,205.558,226.765C207.016,228.223,209.933,228.223,226.769,228.223C243.606,228.223,274.362,228.223,291.740,228.223C309.118,228.223,313.118,228.223,314.273,230.036C315.428,231.849,313.739,235.474,280.843,306.062C247.947,376.649,183.844,514.199,150.948,584.786C118.052,655.374,116.362,658.999,116.180,662.699C115.998,666.399,117.323,670.173,150.871,765.706C184.420,861.239,250.190,1048.531,283.269,1142.726C316.347,1236.920,316.732,1238.018,316.343,1238.567C315.954,1239.116,314.791,1239.116,314.209,1239.116C313.627,1239.116,313.627,1239.116,313.045,1239.116C312.464,1239.116,311.300,1239.116,310.718,1239.698C310.136,1240.280,310.136,1241.443,310.136,1244.360C310.136,1247.277,310.136,1251.946,310.136,1254.281L 310.136,1256.616" fill="none" stroke="#2F3B4D" stroke-width="2"    stroke-linecap="round" stroke-linejoin="round" /><rect x="98.69" y="648.43" width="31.97" height="28.40" rx="2" ry="2" fill="rgba(248,250,252, 0.92)" fill-opacity="0.95" stroke="#7B88A8" stroke-opacity="0.45" stroke-width="0.8"/><text x="114.67" y="666.63" text-anchor="middle" font-family="'trebuchet ms', verdana, arial, sans-serif" font-size="16" fill="#333333"><tspan x="114.67" dy="0.00">Yes</tspan></text><path d="M 278.136,1310.616L 278.136,1312.283C278.136,1313.950,278.136,1317.283,278.136,1320.200C278.136,1323.116,278.136,1325.616,278.135,1328.116C278.135,1330.616,278.133,1333.116,278.132,1334.366C278.131,1335.616,278.131,1335.616,278.130,1336.866C278.129,1338.116,278.128,1340.616,278.127,1343.116C278.126,1345.616,278.126,1348.116,278.126,1351.033C278.126,1353.950,278.126,1357.283,278.126,1358.950L 278.126,1360.616" fill="none" stroke="#2F3B4D" stroke-width="2"    stroke-linecap="round" stroke-linejoin="round" /><rect x="136.81" y="8.00" width="102.35" height="39.00" rx="19.50" ry="19.50" fill="#ECECFF" stroke="#7B88A8" stroke-width="1" stroke-linejoin="round" stroke-linecap="round"/><text x="187.99" y="31.50" text-anchor="middle" font-family="'trebuchet ms', verdana, arial, sans-serif" font-size="16" fill="#333333"><tspan x="187.99" dy="0.00">User Visit</tspan></text><polygon points="188.10,97.00 252.96,161.86 188.10,226.72 123.24,161.86" fill="#ECECFF" stroke="#7B88A8" stroke-width="1" stroke-linejoin="round" stroke-linecap="round"/><text x="188.10" y="165.86" text-anchor="middle" font-family="'trebuchet ms', verdana, arial, sans-serif" font-size="16" fill="#333333"><tspan x="188.10" dy="0.00">Logged in?</tspan></text><rect x="100.94" y="308.72" width="174.83" height="54.00" rx="3" ry="3" fill="#ECECFF" stroke="#7B88A8" stroke-width="1" stroke-linejoin="round" stroke-linecap="round"/><text x="188.35" y="339.72" text-anchor="middle" font-family="'trebuchet ms', verdana, arial, sans-serif" font-size="16" fill="#333333"><tspan x="188.35" dy="0.00">Show Login Form</tspan></text><polygon points="188.48,412.72 282.43,506.67 188.48,600.63 94.53,506.67" fill="#ECECFF" stroke="#7B88A8" stroke-width="1" stroke-linejoin="round" stroke-linecap="round"/><text x="188.48" y="510.67" text-anchor="middle" font-family="'trebuchet ms', verdana, arial, sans-serif" font-size="16" fill="#333333"><tspan x="188.48" dy="0.00">Credentials Valid?</tspan></text><rect x="8.00" y="1256.62" width="136.55" height="54.00" rx="3" ry="3" fill="#ECECFF" stroke="#7B88A8" stroke-width="1" stroke-linejoin="round" stroke-linecap="round"/><text x="76.28" y="1287.62" text-anchor="middle" font-family="'trebuchet ms', verdana, arial, sans-serif" font-size="16" fill="#333333"><tspan x="76.28" dy="0.00">Show Error</tspan></text><polygon points="188.73,682.63 260.86,754.76 188.73,826.89 116.60,754.76" fill="#ECECFF" stroke="#7B88A8" stroke-width="1" stroke-linejoin="round" stroke-linecap="round"/><text x="188.73" y="758.76" text-anchor="middle" font-family="'trebuchet ms', verdana, arial, sans-serif" font-size="16" fill="#333333"><tspan x="188.73" dy="0.00">2FA Enabled?</tspan></text><rect x="128.22" y="908.89" width="121.26" height="54.00" rx="3" ry="3" fill="#ECECFF" stroke="#7B88A8" stroke-width="1" stroke-linejoin="round" stroke-linecap="round"/><text x="188.85" y="939.89" text-anchor="middle" font-family="'trebuchet ms', verdana, arial, sans-serif" font-size="16" fill="#333333"><tspan x="188.85" dy="0.00">Send OTP</tspan></text><polygon points="177.21,1044.89 242.07,1109.75 177.21,1174.62 112.35,1109.75" fill="#ECECFF" stroke="#7B88A8" stroke-width="1" stroke-linejoin="round" stroke-linecap="round"/><text x="177.21" y="1113.75" text-anchor="middle" font-family="'trebuchet ms', verdana, arial, sans-serif" font-size="16" fill="#333333"><tspan x="177.21" dy="0.00">OTP Valid?</tspan></text><rect x="194.55" y="1256.62" width="167.17" height="54.00" rx="3" ry="3" fill="#ECECFF" stroke="#7B88A8" stroke-width="1" stroke-linejoin="round" stroke-linecap="round"/><text x="278.14" y="1287.62" text-anchor="middle" font-family="'trebuchet ms', verdana, arial, sans-serif" font-size="16" fill="#333333"><tspan x="278.14" dy="0.00">Create Session</tspan></text><rect x="213.68" y="1360.62" width="128.90" height="54.00" rx="3" ry="3" fill="#ECECFF" stroke="#7B88A8" stroke-width="1" stroke-linejoin="round" stroke-linecap="round"/><text x="278.13" y="1391.62" text-anchor="middle" font-family="'trebuchet ms', verdana, arial, sans-serif" font-size="16" fill="#333333"><tspan x="278.13" dy="0.00">Dashboard</tspan></text><g transform="translate(188.10 97.00) rotate(90.00)"><polygon points="0,0 -10.40,6.24 -10.40,-6.24" fill="#2F3B4D" stroke="#2F3B4D" stroke-width="2" stroke-linejoin="round" stroke-linecap="round"/></g><g transform="translate(188.35 308.72) rotate(90.00)"><polygon points="0,0 -10.40,6.24 -10.40,-6.24" fill="#2F3B4D" stroke="#2F3B4D" stroke-width="2" stroke-linejoin="round" stroke-linecap="round"/></g><g transform="translate(188.48 412.72) rotate(90.00)"><polygon points="0,0 -10.40,6.24 -10.40,-6.24" fill="#2F3B4D" stroke="#2F3B4D" stroke-width="2" stroke-linejoin="round" stroke-linecap="round"/></g><g transform="translate(92.28 1256.62) rotate(90.00)"><polygon points="0,0 -10.40,6.24 -10.40,-6.24" fill="#2F3B4D" stroke="#2F3B4D" stroke-width="2" stroke-linejoin="round" stroke-linecap="round"/></g><g transform="translate(172.35 362.72) rotate(-90.00)"><polygon points="0,0 -10.40,6.24 -10.40,-6.24" fill="#2F3B4D" stroke="#2F3B4D" stroke-width="2" stroke-linejoin="round" stroke-linecap="round"/></g><g transform="translate(188.73 682.63) rotate(90.00)"><polygon points="0,0 -10.40,6.24 -10.40,-6.24" fill="#2F3B4D" stroke="#2F3B4D" stroke-width="2" stroke-linejoin="round" stroke-linecap="round"/></g><g transform="translate(188.85 908.89) rotate(90.00)"><polygon points="0,0 -10.40,6.24 -10.40,-6.24" fill="#2F3B4D" stroke="#2F3B4D" stroke-width="2" stroke-linejoin="round" stroke-linecap="round"/></g><g transform="translate(177.21 1044.89) rotate(90.00)"><polygon points="0,0 -10.40,6.24 -10.40,-6.24" fill="#2F3B4D" stroke="#2F3B4D" stroke-width="2" stroke-linejoin="round" stroke-linecap="round"/></g><g transform="translate(108.28 1256.62) rotate(90.00)"><polygon points="0,0 -10.40,6.24 -10.40,-6.24" fill="#2F3B4D" stroke="#2F3B4D" stroke-width="2" stroke-linejoin="round" stroke-linecap="round"/></g><g transform="translate(246.14 1256.62) rotate(90.00)"><polygon points="0,0 -10.40,6.24 -10.40,-6.24" fill="#2F3B4D" stroke="#2F3B4D" stroke-width="2" stroke-linejoin="round" stroke-linecap="round"/></g><g transform="translate(278.14 1256.62) rotate(90.00)"><polygon points="0,0 -10.40,6.24 -10.40,-6.24" fill="#2F3B4D" stroke="#2F3B4D" stroke-width="2" stroke-linejoin="round" stroke-linecap="round"/></g><g transform="translate(310.14 1256.62) rotate(90.00)"><polygon points="0,0 -10.40,6.24 -10.40,-6.24" fill="#2F3B4D" stroke="#2F3B4D" stroke-width="2" stroke-linejoin="round" stroke-linecap="round"/></g><g transform="translate(278.13 1360.62) rotate(90.00)"><polygon points="0,0 -10.40,6.24 -10.40,-6.24" fill="#2F3B4D" stroke="#2F3B4D" stroke-width="2" stroke-linejoin="round" stroke-linecap="round"/></g></svg>