<svg xmlns="http://www.w3.org/2000/svg" width="280.33435" height="593.5427" viewBox="0 0 280.33435 593.5427"><rect x="0" y="0" width="280.33435" height="593.5427" fill="#FFFFFF"/><defs><marker id="arrow-0" viewBox="0 0 10 10" refX="5" refY="5" markerUnits="userSpaceOnUse" markerWidth="8" markerHeight="8" orient="auto"><path d="M 0 0 L 10 5 L 0 10 z" fill="#333333" stroke="#333333" stroke-width="1" stroke-dasharray="1,0"/></marker><marker id="arrow-start-0" viewBox="0 0 10 10" refX="4.5" refY="5" markerUnits="userSpaceOnUse" markerWidth="8" markerHeight="8" orient="auto"><path d="M 0 5 L 10 10 L 10 0 z" fill="#333333" stroke="#333333" stroke-width="1" stroke-dasharray="1,0"/></marker></defs><path d="M 138.253,106.275 L 138.253,151.094" fill="none" stroke="#333333" stroke-width="2"    stroke-linecap="round" stroke-linejoin="round" /><path d="M 138.253,205.094 L 138.253,249.912" fill="none" stroke="#333333" stroke-width="2"    stroke-linecap="round" stroke-linejoin="round" /><path d="M 170.253,318.546L 170.253,319.853C170.253,321.160,170.253,323.775,170.253,326.389C170.253,329.004,170.253,331.618,171.176,333.851C172.099,336.084,173.944,337.936,180.570,344.585C187.195,351.233,198.600,362.678,205.225,369.326C211.851,375.974,213.696,377.826,214.619,380.059C215.542,382.292,215.542,384.907,215.542,387.521C215.542,390.136,215.542,392.750,215.542,394.057L 215.542,395.364" fill="none" stroke="#333333" stroke-width="2"    stroke-linecap="round" stroke-linejoin="round" /><rect x="200.90" y="342.96" width="30.97" height="28.00" rx="2" ry="2" fill="rgba(232,232,232, 0.8)" fill-opacity="0.85" stroke="#9370DB" stroke-opacity="0.35" stroke-width="0.8"/><text x="216.38" y="360.96" text-anchor="middle" font-family="'trebuchet ms', verdana, arial, sans-serif" font-size="16" fill="#333333"><tspan x="216.38" dy="0.00">Yes</tspan></text><path d="M 106.253,318.546L 106.253,319.853C106.253,321.160,106.253,323.775,106.253,326.389C106.253,329.004,106.253,331.618,105.331,333.851C104.408,336.084,102.562,337.936,95.937,344.585C89.312,351.233,77.907,362.678,71.281,369.326C64.656,375.974,62.811,377.826,61.888,380.059C60.965,382.292,60.965,384.907,60.965,387.521C60.965,390.136,60.965,392.750,60.965,394.057L 60.965,395.364" fill="none" stroke="#333333" stroke-width="2"    stroke-linecap="round" stroke-linejoin="round" /><rect x="50.84" y="342.96" width="24.77" height="28.00" rx="2" ry="2" fill="rgba(232,232,232, 0.8)" fill-opacity="0.85" stroke="#9370DB" stroke-opacity="0.35" stroke-width="0.8"/><text x="63.23" y="360.96" text-anchor="middle" font-family="'trebuchet ms', verdana, arial, sans-serif" font-size="16" fill="#333333"><tspan x="63.23" dy="0.00">No</tspan></text><path d="M 215.542,449.364L 215.542,450.672C215.542,451.979,215.542,454.593,215.542,457.208C215.542,459.822,215.542,462.436,214.278,464.080C213.015,465.724,210.489,466.398,201.538,468.784C192.586,471.171,177.209,475.270,168.257,477.657C159.306,480.043,156.780,480.717,155.517,482.361C154.253,484.004,154.253,486.619,154.253,489.233C154.253,491.848,154.253,494.462,154.253,495.769L 154.253,497.076" fill="none" stroke="#333333" stroke-width="2"    stroke-linecap="round" stroke-linejoin="round" /><path d="M 60.965,449.364L 60.965,450.672C60.965,451.979,60.965,454.593,60.965,457.208C60.965,459.822,60.965,462.436,62.228,464.080C63.491,465.724,66.018,466.398,74.969,468.784C83.921,471.171,99.298,475.270,108.249,477.657C117.201,480.043,119.727,480.717,120.990,482.361C122.253,484.004,122.253,486.619,122.253,489.233C122.253,491.848,122.253,494.462,122.253,495.769L 122.253,497.076" fill="none" stroke="#333333" stroke-width="2"    stroke-linecap="round" stroke-linejoin="round" /><rect x="81.46" y="151.09" width="113.59" height="54.00" rx="3" ry="3" fill="#ECECFF" stroke="#9370DB" stroke-width="1" stroke-linejoin="round" stroke-linecap="round"/><text x="138.25" y="182.09" text-anchor="middle" font-family="'trebuchet ms', verdana, arial, sans-serif" font-size="16" fill="#333333"><tspan x="138.25" dy="0.00">Collect</tspan></text><polygon points="138.25,249.91 188.57,300.23 138.25,350.55 87.94,300.23" fill="#ECECFF" stroke="#9370DB" stroke-width="1" stroke-linejoin="round" stroke-linecap="round"/><text x="138.25" y="304.23" text-anchor="middle" font-family="'trebuchet ms', verdana, arial, sans-serif" font-size="16" fill="#333333"><tspan x="138.25" dy="0.00">Valid?</tspan></text><rect x="158.75" y="395.36" width="113.59" height="54.00" rx="3" ry="3" fill="#ECECFF" stroke="#9370DB" stroke-width="1" stroke-linejoin="round" stroke-linecap="round"/><text x="215.54" y="426.36" text-anchor="middle" font-family="'trebuchet ms', verdana, arial, sans-serif" font-size="16" fill="#333333"><tspan x="215.54" dy="0.00">Process</tspan></text><rect x="8.00" y="395.36" width="105.93" height="54.00" rx="3" ry="3" fill="#ECECFF" stroke="#9370DB" stroke-width="1" stroke-linejoin="round" stroke-linecap="round"/><text x="60.97" y="426.36" text-anchor="middle" font-family="'trebuchet ms', verdana, arial, sans-serif" font-size="16" fill="#333333"><tspan x="60.97" dy="0.00">Reject</tspan></text><circle cx="138.25" cy="539.86" r="45.68" fill="#ECECFF" stroke="#9370DB" stroke-width="1" stroke-linejoin="round" stroke-linecap="round"/><circle cx="138.25" cy="539.86" r="41.68" fill="none" stroke="#9370DB" stroke-width="1" stroke-linejoin="round" stroke-linecap="round"/><text x="138.25" y="543.86" text-anchor="middle" font-family="'trebuchet ms', verdana, arial, sans-serif" font-size="16" fill="#333333"><tspan x="138.25" dy="0.00">Done</tspan></text><circle cx="138.25" cy="57.14" r="49.14" fill="#ECECFF" stroke="#9370DB" stroke-width="1" stroke-linejoin="round" stroke-linecap="round"/><circle cx="138.25" cy="57.14" r="45.14" fill="none" stroke="#9370DB" stroke-width="1" stroke-linejoin="round" stroke-linecap="round"/><text x="138.25" y="61.14" text-anchor="middle" font-family="'trebuchet ms', verdana, arial, sans-serif" font-size="16" fill="#333333"><tspan x="138.25" dy="0.00">Start</tspan></text><g transform="translate(138.25 151.09) rotate(90.00)"><polygon points="0,0 -10.40,6.24 -10.40,-6.24" fill="#333333" stroke="#333333" stroke-width="2" stroke-linejoin="round" stroke-linecap="round"/></g><g transform="translate(138.25 249.91) rotate(90.00)"><polygon points="0,0 -10.40,6.24 -10.40,-6.24" fill="#333333" stroke="#333333" stroke-width="2" stroke-linejoin="round" stroke-linecap="round"/></g><g transform="translate(215.54 395.36) rotate(90.00)"><polygon points="0,0 -10.40,6.24 -10.40,-6.24" fill="#333333" stroke="#333333" stroke-width="2" stroke-linejoin="round" stroke-linecap="round"/></g><g transform="translate(60.97 395.36) rotate(90.00)"><polygon points="0,0 -10.40,6.24 -10.40,-6.24" fill="#333333" stroke="#333333" stroke-width="2" stroke-linejoin="round" stroke-linecap="round"/></g><g transform="translate(154.25 497.08) rotate(90.00)"><polygon points="0,0 -10.40,6.24 -10.40,-6.24" fill="#333333" stroke="#333333" stroke-width="2" stroke-linejoin="round" stroke-linecap="round"/></g><g transform="translate(122.25 497.08) rotate(90.00)"><polygon points="0,0 -10.40,6.24 -10.40,-6.24" fill="#333333" stroke="#333333" stroke-width="2" stroke-linejoin="round" stroke-linecap="round"/></g></svg>