<svg xmlns="http://www.w3.org/2000/svg" width="280.33435" height="625.5427" viewBox="0 0 280.33435 625.5427"><rect x="0" y="0" width="280.33435" height="625.5427" fill="#FFFFFF"/><defs><marker id="arrow-0" viewBox="0 0 10 10" refX="5" refY="5" markerUnits="userSpaceOnUse" markerWidth="8" markerHeight="8" orient="auto"><path d="M 0 0 L 10 5 L 0 10 z" fill="#2F3B4D" stroke="#2F3B4D" stroke-width="1" stroke-dasharray="1,0"/></marker><marker id="arrow-start-0" viewBox="0 0 10 10" refX="4.5" refY="5" markerUnits="userSpaceOnUse" markerWidth="8" markerHeight="8" orient="auto"><path d="M 0 5 L 10 10 L 10 0 z" fill="#2F3B4D" stroke="#2F3B4D" stroke-width="1" stroke-dasharray="1,0"/></marker></defs><path d="M 138.253,106.275 L 138.253,151.094" fill="none" stroke="#2F3B4D" stroke-width="2"    stroke-linecap="round" stroke-linejoin="round" /><path d="M 138.253,205.094 L 138.253,249.912" fill="none" stroke="#2F3B4D" stroke-width="2"    stroke-linecap="round" stroke-linejoin="round" /><path d="M 170.253,318.546L 170.253,319.853C170.253,321.160,170.253,323.775,170.253,326.389C170.253,329.004,170.253,331.618,170.716,334.148C171.178,336.678,172.103,339.123,176.522,350.808C180.941,362.493,188.854,383.417,193.273,395.102C197.692,406.787,198.617,409.233,199.079,411.762C199.542,414.292,199.542,416.907,199.542,419.521C199.542,422.136,199.542,424.750,199.542,426.057L 199.542,427.364" fill="none" stroke="#2F3B4D" stroke-width="2"    stroke-linecap="round" stroke-linejoin="round" /><rect x="168.91" y="358.76" width="31.97" height="28.40" rx="2" ry="2" fill="rgba(248,250,252, 0.92)" fill-opacity="0.95" stroke="#7B88A8" stroke-opacity="0.45" stroke-width="0.8"/><text x="184.90" y="376.96" text-anchor="middle" font-family="'trebuchet ms', verdana, arial, sans-serif" font-size="16" fill="#333333"><tspan x="184.90" dy="0.00">Yes</tspan></text><path d="M 106.253,318.546L 106.253,319.853C106.253,321.160,106.253,323.775,106.253,326.389C106.253,329.004,106.253,331.618,105.791,334.148C105.329,336.678,104.404,339.123,99.985,350.808C95.566,362.493,87.653,383.417,83.234,395.102C78.815,406.787,77.890,409.233,77.428,411.762C76.965,414.292,76.965,416.907,76.965,419.521C76.965,422.136,76.965,424.750,76.965,426.057L 76.965,427.364" fill="none" stroke="#2F3B4D" stroke-width="2"    stroke-linecap="round" stroke-linejoin="round" /><rect x="78.73" y="358.76" width="25.77" height="28.40" rx="2" ry="2" fill="rgba(248,250,252, 0.92)" fill-opacity="0.95" stroke="#7B88A8" stroke-opacity="0.45" stroke-width="0.8"/><text x="91.61" y="376.96" text-anchor="middle" font-family="'trebuchet ms', verdana, arial, sans-serif" font-size="16" fill="#333333"><tspan x="91.61" dy="0.00">No</tspan></text><path d="M 199.542,481.364L 199.542,482.672C199.542,483.979,199.542,486.593,199.542,489.208C199.542,491.822,199.542,494.436,198.573,496.621C197.604,498.806,195.666,500.561,191.754,504.105C187.841,507.648,181.954,512.980,178.041,516.524C174.129,520.068,172.191,521.823,171.222,524.008C170.253,526.192,170.253,528.807,170.253,531.421C170.253,534.035,170.253,536.650,170.253,537.957L 170.253,539.264" fill="none" stroke="#2F3B4D" stroke-width="2"    stroke-linecap="round" stroke-linejoin="round" /><path d="M 76.965,481.364L 76.965,482.672C76.965,483.979,76.965,486.593,76.965,489.208C76.965,491.822,76.965,494.436,77.934,496.621C78.903,498.806,80.841,500.561,84.753,504.105C88.666,507.648,94.553,512.980,98.465,516.524C102.378,520.068,104.316,521.823,105.285,524.008C106.253,526.192,106.253,528.807,106.253,531.421C106.253,534.035,106.253,536.650,106.253,537.957L 106.253,539.264" fill="none" stroke="#2F3B4D" stroke-width="2"    stroke-linecap="round" stroke-linejoin="round" /><rect x="81.46" y="151.09" width="113.59" height="54.00" rx="3" ry="3" fill="#ECECFF" stroke="#7B88A8" stroke-width="1" stroke-linejoin="round" stroke-linecap="round"/><text x="138.25" y="182.09" text-anchor="middle" font-family="'trebuchet ms', verdana, arial, sans-serif" font-size="16" fill="#333333"><tspan x="138.25" dy="0.00">Collect</tspan></text><polygon points="138.25,249.91 188.57,300.23 138.25,350.55 87.94,300.23" fill="#ECECFF" stroke="#7B88A8" stroke-width="1" stroke-linejoin="round" stroke-linecap="round"/><text x="138.25" y="304.23" text-anchor="middle" font-family="'trebuchet ms', verdana, arial, sans-serif" font-size="16" fill="#333333"><tspan x="138.25" dy="0.00">Valid?</tspan></text><rect x="158.75" y="427.36" width="113.59" height="54.00" rx="3" ry="3" fill="#ECECFF" stroke="#7B88A8" stroke-width="1" stroke-linejoin="round" stroke-linecap="round"/><text x="215.54" y="458.36" text-anchor="middle" font-family="'trebuchet ms', verdana, arial, sans-serif" font-size="16" fill="#333333"><tspan x="215.54" dy="0.00">Process</tspan></text><rect x="8.00" y="427.36" width="105.93" height="54.00" rx="3" ry="3" fill="#ECECFF" stroke="#7B88A8" stroke-width="1" stroke-linejoin="round" stroke-linecap="round"/><text x="60.97" y="458.36" text-anchor="middle" font-family="'trebuchet ms', verdana, arial, sans-serif" font-size="16" fill="#333333"><tspan x="60.97" dy="0.00">Reject</tspan></text><circle cx="138.25" cy="571.86" r="45.68" fill="#ECECFF" stroke="#7B88A8" stroke-width="1" stroke-linejoin="round" stroke-linecap="round"/><circle cx="138.25" cy="571.86" r="41.68" fill="none" stroke="#7B88A8" stroke-width="1" stroke-linejoin="round" stroke-linecap="round"/><text x="138.25" y="575.86" text-anchor="middle" font-family="'trebuchet ms', verdana, arial, sans-serif" font-size="16" fill="#333333"><tspan x="138.25" dy="0.00">Done</tspan></text><circle cx="138.25" cy="57.14" r="49.14" fill="#ECECFF" stroke="#7B88A8" stroke-width="1" stroke-linejoin="round" stroke-linecap="round"/><circle cx="138.25" cy="57.14" r="45.14" fill="none" stroke="#7B88A8" stroke-width="1" stroke-linejoin="round" stroke-linecap="round"/><text x="138.25" y="61.14" text-anchor="middle" font-family="'trebuchet ms', verdana, arial, sans-serif" font-size="16" fill="#333333"><tspan x="138.25" dy="0.00">Start</tspan></text><g transform="translate(138.25 151.09) rotate(90.00)"><polygon points="0,0 -10.40,6.24 -10.40,-6.24" fill="#2F3B4D" stroke="#2F3B4D" stroke-width="2" stroke-linejoin="round" stroke-linecap="round"/></g><g transform="translate(138.25 249.91) rotate(90.00)"><polygon points="0,0 -10.40,6.24 -10.40,-6.24" fill="#2F3B4D" stroke="#2F3B4D" stroke-width="2" stroke-linejoin="round" stroke-linecap="round"/></g><g transform="translate(199.54 427.36) rotate(90.00)"><polygon points="0,0 -10.40,6.24 -10.40,-6.24" fill="#2F3B4D" stroke="#2F3B4D" stroke-width="2" stroke-linejoin="round" stroke-linecap="round"/></g><g transform="translate(76.97 427.36) rotate(90.00)"><polygon points="0,0 -10.40,6.24 -10.40,-6.24" fill="#2F3B4D" stroke="#2F3B4D" stroke-width="2" stroke-linejoin="round" stroke-linecap="round"/></g><g transform="translate(170.25 539.26) rotate(90.00)"><polygon points="0,0 -10.40,6.24 -10.40,-6.24" fill="#2F3B4D" stroke="#2F3B4D" stroke-width="2" stroke-linejoin="round" stroke-linecap="round"/></g><g transform="translate(106.25 539.26) rotate(90.00)"><polygon points="0,0 -10.40,6.24 -10.40,-6.24" fill="#2F3B4D" stroke="#2F3B4D" stroke-width="2" stroke-linejoin="round" stroke-linecap="round"/></g></svg>