<svg xmlns="http://www.w3.org/2000/svg" width="346.1151" height="587.551" viewBox="0 0 346.1151 587.551"><rect x="0" y="0" width="346.1151" height="587.551" fill="#FFFFFF"/><defs><marker id="arrow-0" viewBox="0 0 10 10" refX="5" refY="5" markerUnits="userSpaceOnUse" markerWidth="8" markerHeight="8" orient="auto"><path d="M 0 0 L 10 5 L 0 10 z" fill="#2F3B4D" stroke="#2F3B4D" stroke-width="1" stroke-dasharray="1,0"/></marker><marker id="arrow-start-0" viewBox="0 0 10 10" refX="4.5" refY="5" markerUnits="userSpaceOnUse" markerWidth="8" markerHeight="8" orient="auto"><path d="M 0 5 L 10 10 L 10 0 z" fill="#2F3B4D" stroke="#2F3B4D" stroke-width="1" stroke-dasharray="1,0"/></marker></defs><path d="M 157.147,47.000L 157.147,48.138C157.147,49.275,157.147,51.550,157.147,53.825C157.147,56.100,157.147,58.375,157.145,60.650C157.143,62.925,157.140,65.200,157.138,66.463C157.136,67.726,157.136,67.977,157.134,69.240C157.132,70.503,157.129,72.778,157.128,75.053C157.126,77.328,157.126,79.603,157.126,81.878C157.126,84.153,157.126,86.428,157.126,87.566L 157.126,88.703" fill="none" stroke="#2F3B4D" stroke-width="2"    stroke-linecap="round" stroke-linejoin="round" /><path d="M 173.126,127.703L 173.126,128.841C173.126,129.978,173.126,132.253,173.126,134.528C173.126,136.803,173.126,139.078,172.479,141.152C171.833,143.225,170.540,145.097,169.529,146.562C168.517,148.027,167.787,149.084,166.776,150.548C165.764,152.013,164.471,153.885,163.825,155.958C163.178,158.032,163.178,160.307,163.178,162.582C163.178,164.857,163.178,167.132,163.178,168.269L 163.178,169.407" fill="none" stroke="#2F3B4D" stroke-width="2"    stroke-linecap="round" stroke-linejoin="round" /><path d="M 195.178,238.041L 195.178,239.257C195.178,240.473,195.178,242.906,195.178,245.339C195.178,247.772,195.178,250.204,195.980,252.336C196.781,254.467,198.384,256.297,208.750,268.134C219.117,279.971,238.247,301.814,248.613,313.651C258.979,325.488,260.582,327.318,261.383,329.449C262.185,331.581,262.185,334.013,262.185,336.446C262.185,338.879,262.185,341.311,262.185,342.528L 262.185,343.744" fill="none" stroke="#2F3B4D" stroke-width="2"    stroke-linecap="round" stroke-linejoin="round" /><rect x="222.75" y="288.17" width="31.97" height="28.40" rx="2" ry="2" fill="rgba(248,250,252, 0.92)" fill-opacity="0.95" stroke="#7B88A8" stroke-opacity="0.45" stroke-width="0.8"/><text x="238.73" y="306.37" text-anchor="middle" font-family="'trebuchet ms', verdana, arial, sans-serif" font-size="16" fill="#333333"><tspan x="238.73" dy="0.00">Yes</tspan></text><path d="M 131.178,238.041L 131.178,239.257C131.178,240.473,131.178,242.906,131.178,245.339C131.178,247.772,131.178,250.204,130.830,252.586C130.481,254.967,129.783,257.298,126.315,268.885C122.846,280.471,116.607,301.314,113.139,312.900C109.671,324.487,108.973,326.817,108.624,329.199C108.275,331.581,108.275,334.013,108.275,336.446C108.275,338.879,108.275,341.311,108.275,342.528L 108.275,343.744" fill="none" stroke="#2F3B4D" stroke-width="2"    stroke-linecap="round" stroke-linejoin="round" /><rect x="103.41" y="288.17" width="25.77" height="28.40" rx="2" ry="2" fill="rgba(248,250,252, 0.92)" fill-opacity="0.95" stroke="#7B88A8" stroke-opacity="0.45" stroke-width="0.8"/><text x="116.29" y="306.37" text-anchor="middle" font-family="'trebuchet ms', verdana, arial, sans-serif" font-size="16" fill="#333333"><tspan x="116.29" dy="0.00">No</tspan></text><path d="M 76.275,343.744L 76.275,342.607C76.275,341.469,76.275,339.194,76.275,336.919C76.275,334.644,76.275,332.369,77.413,331.232C78.550,330.094,80.825,330.094,82.109,330.094C83.393,330.094,83.685,330.094,85.114,330.094C86.544,330.094,89.111,330.094,90.395,328.811C91.679,327.527,91.679,324.960,91.679,295.503C91.679,266.046,91.679,209.700,91.679,179.527C91.679,149.353,91.679,145.353,93.679,143.353C95.679,141.353,99.679,141.353,109.449,141.353C119.219,141.353,134.760,141.353,143.668,141.353C152.576,141.353,154.851,141.353,155.988,140.216C157.126,139.078,157.126,136.803,157.126,134.528C157.126,132.253,157.126,129.978,157.126,128.841L 157.126,127.703" fill="none" stroke="#2F3B4D" stroke-width="2"    stroke-linecap="round" stroke-linejoin="round" /><path d="M 262.185,397.744L 262.185,398.961C262.185,400.177,262.185,402.610,262.185,405.042C262.185,407.475,262.185,409.908,261.041,411.539C259.898,413.171,257.612,414.001,253.013,415.671C248.415,417.341,241.505,419.851,236.907,421.521C232.309,423.191,230.022,424.021,228.879,425.653C227.736,427.284,227.736,429.717,227.736,432.150C227.736,434.582,227.736,437.015,227.736,438.231L 227.736,439.448" fill="none" stroke="#2F3B4D" stroke-width="2"    stroke-linecap="round" stroke-linejoin="round" /><path d="M 227.736,498.848L 227.736,499.985C227.736,501.123,227.736,503.398,227.736,505.673C227.736,507.948,227.736,510.223,227.735,512.498C227.734,514.773,227.732,517.048,227.731,518.311C227.730,519.574,227.729,519.825,227.728,521.088C227.727,522.351,227.725,524.626,227.724,526.901C227.723,529.176,227.723,531.451,227.723,533.726C227.723,536.001,227.723,538.276,227.723,539.414L 227.723,540.551" fill="none" stroke="#2F3B4D" stroke-width="2"    stroke-linecap="round" stroke-linejoin="round" /><polygon points="163.18,169.41 213.50,219.72 163.18,270.04 112.86,219.72" fill="#ECECFF" stroke="#7B88A8" stroke-width="1" stroke-linejoin="round" stroke-linecap="round"/><text x="163.18" y="223.72" text-anchor="middle" font-family="'trebuchet ms', verdana, arial, sans-serif" font-size="16" fill="#333333"><tspan x="163.18" dy="0.00">Valid?</tspan></text><rect x="203.15" y="540.55" width="49.14" height="39.00" rx="19.50" ry="19.50" fill="#ECECFF" stroke="#7B88A8" stroke-width="1" stroke-linejoin="round" stroke-linecap="round"/><text x="227.72" y="564.05" text-anchor="middle" font-family="'trebuchet ms', verdana, arial, sans-serif" font-size="16" fill="#333333"><tspan x="227.72" dy="0.00">End</tspan></text><rect x="8.00" y="343.74" width="136.55" height="54.00" rx="3" ry="3" fill="#ECECFF" stroke="#7B88A8" stroke-width="1" stroke-linejoin="round" stroke-linecap="round"/><text x="76.28" y="374.74" text-anchor="middle" font-family="'trebuchet ms', verdana, arial, sans-serif" font-size="16" fill="#333333"><tspan x="76.28" dy="0.00">Show Error</tspan></text><polygon points="115.46,88.70 222.22,88.70 198.79,127.70 92.03,127.70" fill="#ECECFF" stroke="#7B88A8" stroke-width="1" stroke-linejoin="round" stroke-linecap="round"/><text x="157.13" y="112.20" text-anchor="middle" font-family="'trebuchet ms', verdana, arial, sans-serif" font-size="16" fill="#333333"><tspan x="157.13" dy="0.00">Read Input</tspan></text><rect x="186.25" y="343.74" width="151.86" height="54.00" rx="3" ry="3" fill="#ECECFF" stroke="#7B88A8" stroke-width="1" stroke-linejoin="round" stroke-linecap="round"/><text x="262.18" y="374.74" text-anchor="middle" font-family="'trebuchet ms', verdana, arial, sans-serif" font-size="16" fill="#333333"><tspan x="262.18" dy="0.00">Process Data</tspan></text><ellipse cx="227.74" cy="446.58" rx="75.10" ry="7.13" fill="#ECECFF" stroke="#7B88A8" stroke-width="1" stroke-linejoin="round" stroke-linecap="round"/><rect x="152.63" y="446.58" width="150.21" height="45.14" fill="#ECECFF" stroke="#7B88A8" stroke-width="1" stroke-linejoin="round" stroke-linecap="round"/><ellipse cx="227.74" cy="491.72" rx="75.10" ry="7.13" fill="none" stroke="#7B88A8" stroke-width="1" stroke-linejoin="round" stroke-linecap="round"/><text x="227.74" y="473.15" text-anchor="middle" font-family="'trebuchet ms', verdana, arial, sans-serif" font-size="16" fill="#333333"><tspan x="227.74" dy="0.00">Save to DB</tspan></text><rect x="125.11" y="8.00" width="64.08" height="39.00" rx="19.50" ry="19.50" fill="#ECECFF" stroke="#7B88A8" stroke-width="1" stroke-linejoin="round" stroke-linecap="round"/><text x="157.15" y="31.50" text-anchor="middle" font-family="'trebuchet ms', verdana, arial, sans-serif" font-size="16" fill="#333333"><tspan x="157.15" dy="0.00">Start</tspan></text><g transform="translate(157.13 88.70) rotate(90.00)"><polygon points="0,0 -10.40,6.24 -10.40,-6.24" fill="#2F3B4D" stroke="#2F3B4D" stroke-width="2" stroke-linejoin="round" stroke-linecap="round"/></g><g transform="translate(163.18 169.41) rotate(90.00)"><polygon points="0,0 -10.40,6.24 -10.40,-6.24" fill="#2F3B4D" stroke="#2F3B4D" stroke-width="2" stroke-linejoin="round" stroke-linecap="round"/></g><g transform="translate(262.18 343.74) rotate(90.00)"><polygon points="0,0 -10.40,6.24 -10.40,-6.24" fill="#2F3B4D" stroke="#2F3B4D" stroke-width="2" stroke-linejoin="round" stroke-linecap="round"/></g><g transform="translate(108.28 343.74) rotate(90.00)"><polygon points="0,0 -10.40,6.24 -10.40,-6.24" fill="#2F3B4D" stroke="#2F3B4D" stroke-width="2" stroke-linejoin="round" stroke-linecap="round"/></g><g transform="translate(157.13 127.70) rotate(-90.00)"><polygon points="0,0 -10.40,6.24 -10.40,-6.24" fill="#2F3B4D" stroke="#2F3B4D" stroke-width="2" stroke-linejoin="round" stroke-linecap="round"/></g><g transform="translate(227.74 439.45) rotate(90.00)"><polygon points="0,0 -10.40,6.24 -10.40,-6.24" fill="#2F3B4D" stroke="#2F3B4D" stroke-width="2" stroke-linejoin="round" stroke-linecap="round"/></g><g transform="translate(227.72 540.55) rotate(90.00)"><polygon points="0,0 -10.40,6.24 -10.40,-6.24" fill="#2F3B4D" stroke="#2F3B4D" stroke-width="2" stroke-linejoin="round" stroke-linecap="round"/></g></svg>