<svg xmlns="http://www.w3.org/2000/svg" width="908.52026" height="1206.5803" viewBox="0 0 908.52026 1206.5803"><rect x="0" y="0" width="908.52026" height="1206.5803" fill="#FFFFFF"/><defs><marker id="arrow-0" viewBox="0 0 10 10" refX="5" refY="5" markerUnits="userSpaceOnUse" markerWidth="8" markerHeight="8" orient="auto"><path d="M 0 0 L 10 5 L 0 10 z" fill="#2F3B4D" stroke="#2F3B4D" stroke-width="1" stroke-dasharray="1,0"/></marker><marker id="arrow-start-0" viewBox="0 0 10 10" refX="4.5" refY="5" markerUnits="userSpaceOnUse" markerWidth="8" markerHeight="8" orient="auto"><path d="M 0 5 L 10 10 L 10 0 z" fill="#2F3B4D" stroke="#2F3B4D" stroke-width="1" stroke-dasharray="1,0"/></marker></defs><rect x="8.00" y="384.96" width="802.51" height="449.78" rx="10" ry="10" fill="#FFFFDE" stroke="#AAAA33" stroke-width="1" /><text x="409.25" y="412.96" text-anchor="middle" font-family="'trebuchet ms', verdana, arial, sans-serif" font-size="16" fill="#333333"><tspan x="409.25" dy="0.00">Process</tspan></text><rect x="562.20" y="8.00" width="338.32" height="510.96" rx="10" ry="10" fill="#FFFFDE" stroke="#AAAA33" stroke-width="1" /><text x="731.36" y="36.00" text-anchor="middle" font-family="'trebuchet ms', verdana, arial, sans-serif" font-size="16" fill="#333333"><tspan x="731.36" dy="0.00">Ingest</tspan></text><rect x="562.20" y="700.74" width="315.35" height="497.84" rx="10" ry="10" fill="#FFFFDE" stroke="#AAAA33" stroke-width="1" /><text x="719.88" y="728.74" text-anchor="middle" font-family="'trebuchet ms', verdana, arial, sans-serif" font-size="16" fill="#333333"><tspan x="719.88" dy="0.00">Output</tspan></text><path d="M 735.296,102.000L 735.296,103.447C735.296,104.894,735.296,107.789,735.296,110.326C735.296,112.863,735.296,115.043,735.371,117.220C735.446,119.397,735.597,121.572,735.672,122.659C735.747,123.747,735.747,123.747,735.822,124.834C735.898,125.921,736.048,128.096,736.123,130.273C736.199,132.450,736.199,134.630,736.199,137.167C736.199,139.704,736.199,142.599,736.199,144.046L 736.199,145.493" fill="none" stroke="#2F3B4D" stroke-width="2"    stroke-linecap="round" stroke-linejoin="round" /><path d="M 720.199,244.672L 720.199,245.940C720.199,247.209,720.199,249.746,720.199,252.283C720.199,254.820,720.199,257.357,718.931,258.681C717.664,260.005,715.129,260.116,635.490,263.608C555.851,267.100,399.107,273.972,318.737,277.496C238.367,281.020,234.371,281.195,234.288,281.859C234.205,282.524,238.035,283.677,307.866,304.706C377.697,325.734,513.529,366.638,582.660,387.456C651.790,408.273,654.220,409.005,655.434,410.639C656.649,412.274,656.649,414.811,656.649,417.348C656.649,419.885,656.649,422.422,656.649,423.691L 656.649,424.959" fill="none" stroke="#2F3B4D" stroke-width="2"    stroke-linecap="round" stroke-linejoin="round" /><rect x="218.22" y="267.17" width="24.31" height="28.40" rx="2" ry="2" fill="rgba(248,250,252, 0.92)" fill-opacity="0.95" stroke="#7B88A8" stroke-opacity="0.45" stroke-width="0.8"/><text x="230.38" y="285.37" text-anchor="middle" font-family="'trebuchet ms', verdana, arial, sans-serif" font-size="16" fill="#333333"><tspan x="230.38" dy="0.00">ok</tspan></text><path d="M 768.199,228.672L 768.199,229.940C768.199,231.209,768.199,233.746,768.199,236.283C768.199,238.820,768.199,241.357,766.936,242.747C765.673,244.136,763.148,244.378,699.958,250.433C636.768,256.489,512.914,268.357,448.996,274.482C385.078,280.607,381.096,280.989,381.096,281.365C381.097,281.742,385.079,282.113,454.557,288.590C524.034,295.068,659.005,307.652,727.754,314.061C796.503,320.471,799.029,320.707,800.292,322.093C801.555,323.479,801.555,326.016,801.555,328.553C801.555,331.090,801.555,333.628,801.555,334.896L 801.555,336.165" fill="none" stroke="#2F3B4D" stroke-width="2"    stroke-linecap="round" stroke-linejoin="round" /><rect x="357.30" y="267.17" width="39.62" height="28.40" rx="2" ry="2" fill="rgba(248,250,252, 0.92)" fill-opacity="0.95" stroke="#7B88A8" stroke-opacity="0.45" stroke-width="0.8"/><text x="377.11" y="285.37" text-anchor="middle" font-family="'trebuchet ms', verdana, arial, sans-serif" font-size="16" fill="#333333"><tspan x="377.11" dy="0.00">fail</tspan></text><path d="M 592.201,467.959L 590.932,467.959C589.664,467.959,587.127,467.959,584.590,467.959C582.053,467.959,579.516,467.959,577.066,468.422C574.616,468.885,572.254,469.811,531.985,485.597C491.715,501.383,413.539,532.029,373.269,547.814C333.000,563.600,330.638,564.526,328.188,564.989C325.738,565.452,323.201,565.452,320.664,565.452C318.127,565.452,315.590,565.452,314.322,565.452L 313.053,565.452" fill="none" stroke="#2F3B4D" stroke-width="2"    stroke-linecap="round" stroke-linejoin="round" /><path d="M 213.661,597.452L 212.392,597.452C211.124,597.452,208.587,597.452,206.050,597.452C203.513,597.452,200.975,597.452,199.271,598.643C197.566,599.835,196.694,602.217,193.134,611.941C189.574,621.666,183.327,638.732,179.767,648.456C176.208,658.180,175.335,660.563,173.631,661.754C171.926,662.945,169.389,662.945,166.852,662.945C164.315,662.945,161.778,662.945,160.509,662.945L 159.241,662.945" fill="none" stroke="#2F3B4D" stroke-width="2"    stroke-linecap="round" stroke-linejoin="round" /><path d="M 263.357,608.452 L 263.354,651.945" fill="none" stroke="#2F3B4D" stroke-width="2"    stroke-linecap="round" stroke-linejoin="round" /><path d="M 313.053,597.452L 314.322,597.452C315.590,597.452,318.127,597.452,320.664,597.452C323.201,597.452,325.738,597.452,327.443,598.643C329.147,599.835,330.019,602.217,333.578,611.941C337.137,621.666,343.383,638.732,346.942,648.456C350.501,658.180,351.373,660.563,353.077,661.754C354.782,662.945,357.319,662.945,359.856,662.945C362.393,662.945,364.930,662.945,366.199,662.945L 367.467,662.945" fill="none" stroke="#2F3B4D" stroke-width="2"    stroke-linecap="round" stroke-linejoin="round" /><path d="M 159.241,694.945L 160.509,694.945C161.778,694.945,164.315,694.945,166.852,694.945C169.389,694.945,171.926,694.945,173.195,696.214C174.463,697.482,174.463,700.019,174.463,730.181C174.463,760.343,174.463,818.130,174.463,849.024C174.463,879.917,174.463,883.917,176.463,885.917C178.463,887.917,182.463,887.917,257.451,887.917C332.438,887.917,478.413,887.917,553.400,887.917C628.387,887.917,632.387,887.917,634.387,885.917C636.387,883.917,636.387,879.917,636.387,861.156C636.387,842.395,636.387,808.873,636.387,790.844C636.387,772.814,636.387,770.277,637.656,769.008C638.924,767.740,641.462,767.740,643.999,767.740C646.536,767.740,649.073,767.740,650.341,767.740L 651.610,767.740" fill="none" stroke="#2F3B4D" stroke-width="2"    stroke-linecap="round" stroke-linejoin="round" /><path d="M 323.974,694.945L 325.243,694.945C326.511,694.945,329.048,694.945,331.586,694.945C334.123,694.945,336.660,694.945,337.928,696.214C339.197,697.482,339.197,700.019,339.197,710.152C339.197,720.284,339.197,738.012,339.197,748.876C339.197,759.740,339.197,763.740,341.197,765.740C343.197,767.740,347.197,767.740,399.266,767.740C451.335,767.740,551.472,767.740,601.541,767.740L 651.610,767.740" fill="none" stroke="#2F3B4D" stroke-width="2"    stroke-linecap="round" stroke-linejoin="round" /><path d="M 488.708,694.945L 489.977,694.945C491.245,694.945,493.782,694.945,496.319,694.945C498.856,694.945,501.393,694.945,502.662,696.214C503.931,697.482,503.931,700.019,503.931,707.485C503.931,714.951,503.931,727.345,503.931,735.542C503.931,743.740,503.931,747.740,505.931,749.740C507.931,751.740,511.931,751.740,536.544,751.740C561.157,751.740,606.383,751.740,628.997,751.740L 651.610,751.740" fill="none" stroke="#2F3B4D" stroke-width="2"    stroke-linecap="round" stroke-linejoin="round" /><path d="M 716.058,794.740L 716.058,796.008C716.058,797.277,716.058,799.814,716.058,802.351C716.058,804.888,716.058,807.425,716.670,809.805C717.282,812.185,718.506,814.407,720.560,818.137C722.614,821.867,725.499,827.105,727.553,830.835C729.607,834.565,730.831,836.788,731.443,839.168C732.055,841.547,732.055,844.084,732.055,846.621C732.055,849.159,732.055,851.696,732.055,852.964L 732.055,854.233" fill="none" stroke="#2F3B4D" stroke-width="2"    stroke-linecap="round" stroke-linejoin="round" /><path d="M 684.055,899.594L 684.055,900.863C684.055,902.131,684.055,904.668,684.055,907.206C684.055,909.743,684.055,912.280,682.791,913.438C681.527,914.597,679.000,914.377,599.363,907.447C519.727,900.517,362.982,886.877,282.617,879.884C202.252,872.891,198.267,872.544,198.211,872.871C198.155,873.198,202.027,874.199,277.975,893.826C353.923,913.453,501.946,951.707,577.186,971.151C652.426,990.595,654.882,991.230,656.110,992.816C657.339,994.402,657.339,996.939,657.339,999.476C657.339,1002.013,657.339,1004.550,657.339,1005.819L 657.339,1007.087" fill="none" stroke="#2F3B4D" stroke-width="2"    stroke-linecap="round" stroke-linejoin="round" /><rect x="174.47" y="858.00" width="39.62" height="28.40" rx="2" ry="2" fill="rgba(248,250,252, 0.92)" fill-opacity="0.95" stroke="#7B88A8" stroke-opacity="0.45" stroke-width="0.8"/><text x="194.28" y="876.20" text-anchor="middle" font-family="'trebuchet ms', verdana, arial, sans-serif" font-size="16" fill="#333333"><tspan x="194.28" dy="0.00">fast</tspan></text><path d="M 748.055,899.594L 748.055,900.863C748.055,902.131,748.055,904.668,748.055,907.206C748.055,909.743,748.055,912.280,746.793,913.419C745.531,914.558,743.007,914.299,675.722,907.400C608.438,900.501,476.392,886.961,408.380,879.987C340.367,873.013,336.388,872.605,336.329,872.923C336.270,873.242,340.131,874.286,412.632,893.900C485.133,913.513,626.274,951.695,698.069,971.117C769.864,990.540,772.313,991.202,773.538,992.802C774.762,994.402,774.762,996.939,774.762,999.476C774.762,1002.013,774.762,1004.550,774.762,1005.819L 774.762,1007.087" fill="none" stroke="#2F3B4D" stroke-width="2"    stroke-linecap="round" stroke-linejoin="round" /><rect x="312.60" y="858.00" width="39.62" height="28.40" rx="2" ry="2" fill="rgba(248,250,252, 0.92)" fill-opacity="0.95" stroke="#7B88A8" stroke-opacity="0.45" stroke-width="0.8"/><text x="332.41" y="876.20" text-anchor="middle" font-family="'trebuchet ms', verdana, arial, sans-serif" font-size="16" fill="#333333"><tspan x="332.41" dy="0.00">slow</tspan></text><path d="M 657.339,1061.087L 657.339,1062.356C657.339,1063.625,657.339,1066.162,657.339,1068.699C657.339,1071.236,657.339,1073.773,658.479,1075.598C659.618,1077.423,661.898,1078.537,665.210,1080.155C668.522,1081.773,672.866,1083.895,676.178,1085.513C679.490,1087.131,681.770,1088.244,682.910,1090.069C684.049,1091.895,684.049,1094.432,684.049,1096.969C684.049,1099.506,684.049,1102.043,684.049,1103.312L 684.049,1104.580" fill="none" stroke="#2F3B4D" stroke-width="2"    stroke-linecap="round" stroke-linejoin="round" /><path d="M 774.762,1061.087L 774.762,1062.356C774.762,1063.625,774.762,1066.162,774.762,1068.699C774.762,1071.236,774.762,1073.773,773.622,1075.598C772.482,1077.423,770.203,1078.537,766.891,1080.155C763.578,1081.773,759.233,1083.895,755.921,1085.513C752.609,1087.131,750.329,1088.244,749.189,1090.069C748.049,1091.895,748.049,1094.432,748.049,1096.969C748.049,1099.506,748.049,1102.043,748.049,1103.312L 748.049,1104.580" fill="none" stroke="#2F3B4D" stroke-width="2"    stroke-linecap="round" stroke-linejoin="round" /><path d="M 817.555,390.165L 817.555,482.494C817.555,574.823,817.555,759.481,817.555,853.810C817.555,948.139,817.555,952.139,815.555,954.139C813.555,956.139,809.555,956.139,794.637,956.139C779.720,956.139,753.885,956.139,738.967,956.139C724.049,956.139,720.049,956.139,718.049,958.139C716.049,960.139,716.049,964.139,716.049,988.879C716.049,1013.619,716.049,1059.100,716.049,1081.840L 716.049,1104.580" fill="none" stroke="#2F3B4D" stroke-width="2"    stroke-linecap="round" stroke-linejoin="round" /><path d="M 719.296,102.000L 719.296,103.269C719.296,104.537,719.296,107.074,719.296,109.611C719.296,112.148,719.296,114.685,718.027,115.954C716.759,117.223,714.221,117.223,642.898,117.223C571.575,117.223,431.466,117.223,359.412,117.223C287.357,117.223,283.357,117.223,279.971,118.665C276.585,120.107,273.814,122.991,248.909,148.907C224.005,174.823,176.968,223.770,152.064,249.686C127.159,275.602,124.388,278.486,124.046,281.634C123.703,284.782,125.791,288.195,151.419,330.089C177.047,371.983,226.216,452.360,251.463,493.631C276.709,534.901,278.033,537.065,278.695,539.416C279.357,541.767,279.357,544.304,279.357,546.841C279.357,549.378,279.357,551.915,279.357,553.184L 279.357,554.452" fill="none" stroke="#2F3B4D" stroke-width="2"   stroke-dasharray="2" stroke-linecap="round" stroke-linejoin="round" /><rect x="97.98" y="267.17" width="47.28" height="28.40" rx="2" ry="2" fill="rgba(248,250,252, 0.92)" fill-opacity="0.95" stroke="#7B88A8" stroke-opacity="0.45" stroke-width="0.8"/><text x="121.62" y="285.37" text-anchor="middle" font-family="'trebuchet ms', verdana, arial, sans-serif" font-size="16" fill="#333333"><tspan x="121.62" dy="0.00">retry</tspan></text><path d="M 656.649,478.959L 656.649,480.228C656.649,481.496,656.649,484.033,656.649,486.570C656.649,489.107,656.649,491.645,655.380,492.913C654.112,494.182,651.575,494.182,648.493,494.182C645.412,494.182,641.786,494.182,637.973,494.182C634.160,494.182,630.160,494.182,628.160,496.182C626.160,498.182,626.160,502.182,626.160,557.653C626.160,613.125,626.160,720.067,626.160,775.539C626.160,831.010,626.160,835.010,628.160,837.010C630.160,839.010,634.160,839.010,645.207,839.010C656.255,839.010,674.349,839.010,684.665,839.010C694.981,839.010,697.518,839.010,698.786,840.279C700.055,841.547,700.055,844.084,700.055,846.621C700.055,849.159,700.055,851.696,700.055,852.964L 700.055,854.233" fill="none" stroke="#2F3B4D" stroke-width="2"    stroke-linecap="round" stroke-linejoin="round" /><path d="M 323.974,662.945L 325.243,662.945C326.511,662.945,329.048,662.945,331.586,662.945C334.123,662.945,336.660,662.945,337.928,661.677C339.197,660.408,339.197,657.871,339.197,653.620C339.197,649.369,339.197,643.404,339.197,638.421C339.197,633.438,339.197,629.438,341.197,627.438C343.197,625.438,347.197,625.438,413.559,625.438C479.920,625.438,608.644,625.438,675.005,625.438C741.367,625.438,745.367,625.438,745.520,624.670C745.674,623.903,741.980,622.367,657.798,587.373C573.616,552.378,408.946,483.924,324.764,448.929C240.582,413.934,236.889,412.399,237.038,411.508C237.188,410.618,241.180,410.373,325.943,405.168C410.705,399.962,576.238,389.797,660.270,384.636C744.303,379.476,746.835,379.320,749.370,379.242C751.904,379.165,754.441,379.165,756.979,379.165C759.516,379.165,762.053,379.165,763.321,379.165L 764.590,379.165" fill="none" stroke="#2F3B4D" stroke-width="2"   stroke-dasharray="2" stroke-linecap="round" stroke-linejoin="round" /><rect x="209.56" y="396.66" width="47.28" height="28.40" rx="2" ry="2" fill="rgba(248,250,252, 0.92)" fill-opacity="0.95" stroke="#7B88A8" stroke-opacity="0.45" stroke-width="0.8"/><text x="233.20" y="414.86" text-anchor="middle" font-family="'trebuchet ms', verdana, arial, sans-serif" font-size="16" fill="#333333"><tspan x="233.20" dy="0.00">audit</tspan></text><rect x="682.33" y="48.00" width="105.93" height="54.00" rx="3" ry="3" fill="#ECECFF" stroke="#7B88A8" stroke-width="1" stroke-linejoin="round" stroke-linecap="round"/><text x="735.30" y="79.00" text-anchor="middle" font-family="'trebuchet ms', verdana, arial, sans-serif" font-size="16" fill="#333333"><tspan x="735.30" dy="0.00">Source</tspan></text><polygon points="736.20,145.49 793.79,203.08 736.20,260.67 678.61,203.08" fill="#ECECFF" stroke="#7B88A8" stroke-width="1" stroke-linejoin="round" stroke-linecap="round"/><text x="736.20" y="207.08" text-anchor="middle" font-family="'trebuchet ms', verdana, arial, sans-serif" font-size="16" fill="#333333"><tspan x="736.20" dy="0.00">Validate</tspan></text><rect x="592.20" y="424.96" width="128.90" height="54.00" rx="3" ry="3" fill="#ECECFF" stroke="#7B88A8" stroke-width="1" stroke-linejoin="round" stroke-linecap="round"/><text x="656.65" y="455.96" text-anchor="middle" font-family="'trebuchet ms', verdana, arial, sans-serif" font-size="16" fill="#333333"><tspan x="656.65" dy="0.00">Normalize</tspan></text><rect x="764.59" y="336.16" width="105.93" height="54.00" rx="3" ry="3" fill="#ECECFF" stroke="#7B88A8" stroke-width="1" stroke-linejoin="round" stroke-linecap="round"/><text x="817.55" y="367.16" text-anchor="middle" font-family="'trebuchet ms', verdana, arial, sans-serif" font-size="16" fill="#333333"><tspan x="817.55" dy="0.00">Reject</tspan></text><rect x="213.66" y="554.45" width="99.39" height="54.00" rx="3" ry="3" fill="#ECECFF" stroke="#7B88A8" stroke-width="1" stroke-linejoin="round" stroke-linecap="round"/><text x="263.36" y="585.45" text-anchor="middle" font-family="'trebuchet ms', verdana, arial, sans-serif" font-size="16" fill="#333333"><tspan x="263.36" dy="0.00">Queue</tspan></text><rect x="38.00" y="651.95" width="121.24" height="54.00" rx="3" ry="3" fill="#ECECFF" stroke="#7B88A8" stroke-width="1" stroke-linejoin="round" stroke-linecap="round"/><text x="98.62" y="682.95" text-anchor="middle" font-family="'trebuchet ms', verdana, arial, sans-serif" font-size="16" fill="#333333"><tspan x="98.62" dy="0.00">Worker 1</tspan></text><rect x="202.73" y="651.95" width="121.24" height="54.00" rx="3" ry="3" fill="#ECECFF" stroke="#7B88A8" stroke-width="1" stroke-linejoin="round" stroke-linecap="round"/><text x="263.35" y="682.95" text-anchor="middle" font-family="'trebuchet ms', verdana, arial, sans-serif" font-size="16" fill="#333333"><tspan x="263.35" dy="0.00">Worker 2</tspan></text><rect x="367.47" y="651.95" width="121.24" height="54.00" rx="3" ry="3" fill="#ECECFF" stroke="#7B88A8" stroke-width="1" stroke-linejoin="round" stroke-linecap="round"/><text x="428.09" y="682.95" text-anchor="middle" font-family="'trebuchet ms', verdana, arial, sans-serif" font-size="16" fill="#333333"><tspan x="428.09" dy="0.00">Worker 3</tspan></text><rect x="651.61" y="740.74" width="128.90" height="54.00" rx="3" ry="3" fill="#ECECFF" stroke="#7B88A8" stroke-width="1" stroke-linejoin="round" stroke-linecap="round"/><text x="716.06" y="771.74" text-anchor="middle" font-family="'trebuchet ms', verdana, arial, sans-serif" font-size="16" fill="#333333"><tspan x="716.06" dy="0.00">Aggregate</tspan></text><polygon points="716.05,838.23 762.74,884.91 716.05,931.59 669.37,884.91" fill="#ECECFF" stroke="#7B88A8" stroke-width="1" stroke-linejoin="round" stroke-linecap="round"/><text x="716.05" y="888.91" text-anchor="middle" font-family="'trebuchet ms', verdana, arial, sans-serif" font-size="16" fill="#333333"><tspan x="716.05" dy="0.00">Route</tspan></text><rect x="592.20" y="1007.09" width="98.28" height="54.00" rx="3" ry="3" fill="#ECECFF" stroke="#7B88A8" stroke-width="1" stroke-linejoin="round" stroke-linecap="round"/><text x="641.34" y="1038.09" text-anchor="middle" font-family="'trebuchet ms', verdana, arial, sans-serif" font-size="16" fill="#333333"><tspan x="641.34" dy="0.00">Cache</tspan></text><rect x="733.97" y="1007.09" width="113.59" height="54.00" rx="3" ry="3" fill="#ECECFF" stroke="#7B88A8" stroke-width="1" stroke-linejoin="round" stroke-linecap="round"/><text x="790.76" y="1038.09" text-anchor="middle" font-family="'trebuchet ms', verdana, arial, sans-serif" font-size="16" fill="#333333"><tspan x="790.76" dy="0.00">Archive</tspan></text><rect x="663.08" y="1104.58" width="105.93" height="54.00" rx="3" ry="3" fill="#ECECFF" stroke="#7B88A8" stroke-width="1" stroke-linejoin="round" stroke-linecap="round"/><text x="716.05" y="1135.58" text-anchor="middle" font-family="'trebuchet ms', verdana, arial, sans-serif" font-size="16" fill="#333333"><tspan x="716.05" dy="0.00">Notify</tspan></text><g transform="translate(736.20 145.49) rotate(90.00)"><polygon points="0,0 -10.40,6.24 -10.40,-6.24" fill="#2F3B4D" stroke="#2F3B4D" stroke-width="2" stroke-linejoin="round" stroke-linecap="round"/></g><g transform="translate(656.65 424.96) rotate(90.00)"><polygon points="0,0 -10.40,6.24 -10.40,-6.24" fill="#2F3B4D" stroke="#2F3B4D" stroke-width="2" stroke-linejoin="round" stroke-linecap="round"/></g><g transform="translate(801.55 336.16) rotate(90.00)"><polygon points="0,0 -10.40,6.24 -10.40,-6.24" fill="#2F3B4D" stroke="#2F3B4D" stroke-width="2" stroke-linejoin="round" stroke-linecap="round"/></g><g transform="translate(313.05 565.45) rotate(180.00)"><polygon points="0,0 -10.40,6.24 -10.40,-6.24" fill="#2F3B4D" stroke="#2F3B4D" stroke-width="2" stroke-linejoin="round" stroke-linecap="round"/></g><g transform="translate(159.24 662.95) rotate(180.00)"><polygon points="0,0 -10.40,6.24 -10.40,-6.24" fill="#2F3B4D" stroke="#2F3B4D" stroke-width="2" stroke-linejoin="round" stroke-linecap="round"/></g><g transform="translate(263.35 651.95) rotate(90.00)"><polygon points="0,0 -10.40,6.24 -10.40,-6.24" fill="#2F3B4D" stroke="#2F3B4D" stroke-width="2" stroke-linejoin="round" stroke-linecap="round"/></g><g transform="translate(367.47 662.95) rotate(0.00)"><polygon points="0,0 -10.40,6.24 -10.40,-6.24" fill="#2F3B4D" stroke="#2F3B4D" stroke-width="2" stroke-linejoin="round" stroke-linecap="round"/></g><g transform="translate(651.61 767.74) rotate(0.00)"><polygon points="0,0 -10.40,6.24 -10.40,-6.24" fill="#2F3B4D" stroke="#2F3B4D" stroke-width="2" stroke-linejoin="round" stroke-linecap="round"/></g><g transform="translate(651.61 767.74) rotate(0.00)"><polygon points="0,0 -10.40,6.24 -10.40,-6.24" fill="#2F3B4D" stroke="#2F3B4D" stroke-width="2" stroke-linejoin="round" stroke-linecap="round"/></g><g transform="translate(651.61 751.74) rotate(0.00)"><polygon points="0,0 -10.40,6.24 -10.40,-6.24" fill="#2F3B4D" stroke="#2F3B4D" stroke-width="2" stroke-linejoin="round" stroke-linecap="round"/></g><g transform="translate(732.05 854.23) rotate(90.00)"><polygon points="0,0 -10.40,6.24 -10.40,-6.24" fill="#2F3B4D" stroke="#2F3B4D" stroke-width="2" stroke-linejoin="round" stroke-linecap="round"/></g><g transform="translate(657.34 1007.09) rotate(90.00)"><polygon points="0,0 -10.40,6.24 -10.40,-6.24" fill="#2F3B4D" stroke="#2F3B4D" stroke-width="2" stroke-linejoin="round" stroke-linecap="round"/></g><g transform="translate(774.76 1007.09) rotate(90.00)"><polygon points="0,0 -10.40,6.24 -10.40,-6.24" fill="#2F3B4D" stroke="#2F3B4D" stroke-width="2" stroke-linejoin="round" stroke-linecap="round"/></g><g transform="translate(684.05 1104.58) rotate(90.00)"><polygon points="0,0 -10.40,6.24 -10.40,-6.24" fill="#2F3B4D" stroke="#2F3B4D" stroke-width="2" stroke-linejoin="round" stroke-linecap="round"/></g><g transform="translate(748.05 1104.58) rotate(90.00)"><polygon points="0,0 -10.40,6.24 -10.40,-6.24" fill="#2F3B4D" stroke="#2F3B4D" stroke-width="2" stroke-linejoin="round" stroke-linecap="round"/></g><g transform="translate(716.05 1104.58) rotate(90.00)"><polygon points="0,0 -10.40,6.24 -10.40,-6.24" fill="#2F3B4D" stroke="#2F3B4D" stroke-width="2" stroke-linejoin="round" stroke-linecap="round"/></g><g transform="translate(279.36 554.45) rotate(90.00)"><polygon points="0,0 -10.40,6.24 -10.40,-6.24" fill="#2F3B4D" stroke="#2F3B4D" stroke-width="2" stroke-linejoin="round" stroke-linecap="round"/></g><g transform="translate(700.05 854.23) rotate(90.00)"><polygon points="0,0 -10.40,6.24 -10.40,-6.24" fill="#2F3B4D" stroke="#2F3B4D" stroke-width="2" stroke-linejoin="round" stroke-linecap="round"/></g><g transform="translate(764.59 379.16) rotate(0.00)"><polygon points="0,0 -10.40,6.24 -10.40,-6.24" fill="#2F3B4D" stroke="#2F3B4D" stroke-width="2" stroke-linejoin="round" stroke-linecap="round"/></g></svg>