<svg xmlns="http://www.w3.org/2000/svg" width="183.34814" height="916.9139" viewBox="0 0 183.34814 916.9139"><rect x="0" y="0" width="183.34814" height="916.9139" fill="#FFFFFF"/><defs><marker id="arrow-0" viewBox="0 0 10 10" refX="5" refY="5" markerUnits="userSpaceOnUse" markerWidth="8" markerHeight="8" orient="auto"><path d="M 0 0 L 10 5 L 0 10 z" fill="#2F3B4D" stroke="#2F3B4D" stroke-width="1" stroke-dasharray="1,0"/></marker><marker id="arrow-start-0" viewBox="0 0 10 10" refX="4.5" refY="5" markerUnits="userSpaceOnUse" markerWidth="8" markerHeight="8" orient="auto"><path d="M 0 5 L 10 10 L 10 0 z" fill="#2F3B4D" stroke="#2F3B4D" stroke-width="1" stroke-dasharray="1,0"/></marker></defs><rect x="8.83" y="587.22" width="158.28" height="321.69" rx="10" ry="10" fill="#FFFFDE" stroke="#AAAA33" stroke-width="1" /><text x="87.97" y="615.22" text-anchor="middle" font-family="'trebuchet ms', verdana, arial, sans-serif" font-size="16" fill="#333333"><tspan x="87.97" dy="0.00">LoopBlock</tspan></text><path d="M 95.639,62.000L 95.639,63.328C95.639,64.656,95.639,67.313,95.639,69.637C95.639,71.961,95.639,73.954,95.638,75.946C95.638,77.938,95.637,79.930,95.636,80.927C95.635,81.923,95.635,81.923,95.635,82.919C95.634,83.915,95.633,85.907,95.632,87.900C95.632,89.892,95.632,91.884,95.632,94.208C95.632,96.533,95.632,99.189,95.632,100.517L 95.632,101.845" fill="none" stroke="#2F3B4D" stroke-width="2"    stroke-linecap="round" stroke-linejoin="round" /><path d="M 111.632,186.479L 111.632,187.642C111.632,188.804,111.632,191.128,111.632,193.452C111.632,195.777,111.632,198.101,110.470,199.263C109.307,200.425,106.983,200.425,91.711,200.425C76.439,200.425,48.220,200.425,32.110,200.425C16.000,200.425,12.000,200.425,10.000,202.425C8.000,204.425,8.000,208.425,8.000,216.418C8.000,224.410,8.000,236.394,8.000,244.387C8.000,252.379,8.000,256.379,10.000,258.379C12.000,260.379,16.000,260.379,29.442,260.379C42.885,260.379,65.769,260.379,78.374,260.379C90.978,260.379,93.302,260.379,94.464,261.541C95.627,262.703,95.627,265.028,95.627,267.352C95.627,269.676,95.627,272.001,95.627,273.163L 95.627,274.325" fill="none" stroke="#2F3B4D" stroke-width="2"    stroke-linecap="round" stroke-linejoin="round" /><rect x="3.56" y="208.20" width="31.97" height="28.40" rx="2" ry="2" fill="rgba(248,250,252, 0.92)" fill-opacity="0.95" stroke="#7B88A8" stroke-opacity="0.45" stroke-width="0.8"/><text x="19.54" y="226.40" text-anchor="middle" font-family="'trebuchet ms', verdana, arial, sans-serif" font-size="16" fill="#333333"><tspan x="19.54" dy="0.00">yes</tspan></text><path d="M 95.627,328.325 L 95.621,368.170" fill="none" stroke="#2F3B4D" stroke-width="2"    stroke-linecap="round" stroke-linejoin="round" /><path d="M 111.621,384.170L 111.621,383.008C111.621,381.846,111.621,379.522,111.621,377.197C111.621,374.873,111.621,372.549,112.783,371.387C113.945,370.224,116.269,370.224,124.891,370.224C133.512,370.224,148.430,370.224,157.889,370.224C167.348,370.224,171.348,370.224,173.348,368.224C175.348,366.224,175.348,362.224,175.348,338.591C175.348,314.958,175.348,271.692,175.348,248.059C175.348,224.425,175.348,220.425,173.348,218.425C171.348,216.425,167.348,216.425,155.224,216.425C143.100,216.425,122.853,216.425,111.566,216.425C100.280,216.425,97.956,216.425,96.794,215.263C95.632,214.101,95.632,211.777,95.632,209.452C95.632,207.128,95.632,204.804,95.632,203.642L 95.632,202.479" fill="none" stroke="#2F3B4D" stroke-width="2"    stroke-linecap="round" stroke-linejoin="round" /><rect x="147.83" y="226.54" width="31.97" height="28.40" rx="2" ry="2" fill="rgba(248,250,252, 0.92)" fill-opacity="0.95" stroke="#7B88A8" stroke-opacity="0.45" stroke-width="0.8"/><text x="163.81" y="244.74" text-anchor="middle" font-family="'trebuchet ms', verdana, arial, sans-serif" font-size="16" fill="#333333"><tspan x="163.81" dy="0.00">yes</tspan></text><path d="M 95.621,461.532L 95.621,462.694C95.621,463.856,95.621,466.181,95.621,468.505C95.621,470.829,95.621,473.154,95.619,475.478C95.618,477.802,95.615,480.127,95.608,486.290C95.601,492.453,95.589,502.456,95.581,508.620C95.574,514.783,95.571,517.107,95.570,519.432C95.569,521.756,95.569,524.080,95.569,526.405C95.569,528.729,95.569,531.053,95.569,532.215L 95.569,533.378" fill="none" stroke="#2F3B4D" stroke-width="2"    stroke-linecap="round" stroke-linejoin="round" /><rect x="83.43" y="489.85" width="24.31" height="28.40" rx="2" ry="2" fill="rgba(248,250,252, 0.92)" fill-opacity="0.95" stroke="#7B88A8" stroke-opacity="0.45" stroke-width="0.8"/><text x="95.59" y="508.05" text-anchor="middle" font-family="'trebuchet ms', verdana, arial, sans-serif" font-size="16" fill="#333333"><tspan x="95.59" dy="0.00">no</tspan></text><path d="M 87.971,681.223 L 87.971,721.068" fill="none" stroke="#2F3B4D" stroke-width="2"    stroke-linecap="round" stroke-linejoin="round" /><path d="M 87.971,775.068 L 87.972,814.914" fill="none" stroke="#2F3B4D" stroke-width="2"    stroke-linecap="round" stroke-linejoin="round" /><path d="M 103.972,814.914L 103.972,813.752C103.972,812.590,103.972,810.265,103.972,807.941C103.972,805.617,103.972,803.292,105.134,802.130C106.296,800.968,108.620,800.968,114.589,800.968C120.558,800.968,130.172,800.968,136.979,800.968C143.786,800.968,147.786,800.968,149.786,798.968C151.786,796.968,151.786,792.968,151.786,777.335C151.786,761.702,151.786,734.435,151.786,718.802C151.786,703.169,151.786,699.169,149.786,697.169C147.786,695.169,143.786,695.169,136.979,695.169C130.172,695.169,120.558,695.169,114.589,695.169C108.620,695.169,106.295,695.169,105.133,694.007C103.971,692.845,103.971,690.520,103.971,688.196C103.971,685.872,103.971,683.547,103.971,682.385L 103.971,681.223" fill="none" stroke="#2F3B4D" stroke-width="2"    stroke-linecap="round" stroke-linejoin="round" /><path d="M 95.569,587.378L 95.569,588.540C95.569,589.702,95.569,592.026,95.569,594.350C95.569,596.675,95.569,598.999,94.945,601.142C94.322,603.285,93.075,605.247,92.432,606.258C91.789,607.270,91.750,607.331,91.107,608.342C90.465,609.354,89.218,611.315,88.594,613.458C87.971,615.601,87.971,617.926,87.971,620.250C87.971,622.574,87.971,624.899,87.971,626.061L 87.971,627.223" fill="none" stroke="#2F3B4D" stroke-width="2"    stroke-linecap="round" stroke-linejoin="round" /><rect x="46.50" y="8.00" width="98.28" height="54.00" rx="3" ry="3" fill="#ECECFF" stroke="#7B88A8" stroke-width="1" stroke-linejoin="round" stroke-linecap="round"/><text x="95.64" y="39.00" text-anchor="middle" font-family="'trebuchet ms', verdana, arial, sans-serif" font-size="16" fill="#333333"><tspan x="95.64" dy="0.00">Start</tspan></text><polygon points="95.63,101.85 145.95,152.16 95.63,202.48 45.31,152.16" fill="#ECECFF" stroke="#7B88A8" stroke-width="1" stroke-linejoin="round" stroke-linecap="round"/><text x="95.63" y="156.16" text-anchor="middle" font-family="'trebuchet ms', verdana, arial, sans-serif" font-size="16" fill="#333333"><tspan x="95.63" dy="0.00">Decide</tspan></text><rect x="38.83" y="274.32" width="113.59" height="54.00" rx="3" ry="3" fill="#ECECFF" stroke="#7B88A8" stroke-width="1" stroke-linejoin="round" stroke-linecap="round"/><text x="95.63" y="305.32" text-anchor="middle" font-family="'trebuchet ms', verdana, arial, sans-serif" font-size="16" fill="#333333"><tspan x="95.63" dy="0.00">Do work</tspan></text><polygon points="95.62,368.17 142.30,414.85 95.62,461.53 48.94,414.85" fill="#ECECFF" stroke="#7B88A8" stroke-width="1" stroke-linejoin="round" stroke-linecap="round"/><text x="95.62" y="418.85" text-anchor="middle" font-family="'trebuchet ms', verdana, arial, sans-serif" font-size="16" fill="#333333"><tspan x="95.62" dy="0.00">More?</tspan></text><rect x="53.90" y="533.38" width="83.34" height="54.00" rx="3" ry="3" fill="#ECECFF" stroke="#7B88A8" stroke-width="1" stroke-linejoin="round" stroke-linecap="round"/><text x="95.57" y="564.38" text-anchor="middle" font-family="'trebuchet ms', verdana, arial, sans-serif" font-size="16" fill="#333333"><tspan x="95.57" dy="0.00">End</tspan></text><rect x="45.57" y="627.22" width="84.80" height="54.00" rx="3" ry="3" fill="#ECECFF" stroke="#7B88A8" stroke-width="1" stroke-linejoin="round" stroke-linecap="round"/><text x="87.97" y="658.22" text-anchor="middle" font-family="'trebuchet ms', verdana, arial, sans-serif" font-size="16" fill="#333333"><tspan x="87.97" dy="0.00">One</tspan></text><rect x="45.58" y="721.07" width="84.78" height="54.00" rx="3" ry="3" fill="#ECECFF" stroke="#7B88A8" stroke-width="1" stroke-linejoin="round" stroke-linecap="round"/><text x="87.97" y="752.07" text-anchor="middle" font-family="'trebuchet ms', verdana, arial, sans-serif" font-size="16" fill="#333333"><tspan x="87.97" dy="0.00">Two</tspan></text><rect x="38.83" y="814.91" width="98.28" height="54.00" rx="3" ry="3" fill="#ECECFF" stroke="#7B88A8" stroke-width="1" stroke-linejoin="round" stroke-linecap="round"/><text x="87.97" y="845.91" text-anchor="middle" font-family="'trebuchet ms', verdana, arial, sans-serif" font-size="16" fill="#333333"><tspan x="87.97" dy="0.00">Three</tspan></text><g transform="translate(95.63 101.85) rotate(90.00)"><polygon points="0,0 -10.40,6.24 -10.40,-6.24" fill="#2F3B4D" stroke="#2F3B4D" stroke-width="2" stroke-linejoin="round" stroke-linecap="round"/></g><g transform="translate(95.63 274.32) rotate(90.00)"><polygon points="0,0 -10.40,6.24 -10.40,-6.24" fill="#2F3B4D" stroke="#2F3B4D" stroke-width="2" stroke-linejoin="round" stroke-linecap="round"/></g><g transform="translate(95.62 368.17) rotate(90.00)"><polygon points="0,0 -10.40,6.24 -10.40,-6.24" fill="#2F3B4D" stroke="#2F3B4D" stroke-width="2" stroke-linejoin="round" stroke-linecap="round"/></g><g transform="translate(95.63 202.48) rotate(-90.00)"><polygon points="0,0 -10.40,6.24 -10.40,-6.24" fill="#2F3B4D" stroke="#2F3B4D" stroke-width="2" stroke-linejoin="round" stroke-linecap="round"/></g><g transform="translate(95.57 533.38) rotate(90.00)"><polygon points="0,0 -10.40,6.24 -10.40,-6.24" fill="#2F3B4D" stroke="#2F3B4D" stroke-width="2" stroke-linejoin="round" stroke-linecap="round"/></g><g transform="translate(87.97 721.07) rotate(90.00)"><polygon points="0,0 -10.40,6.24 -10.40,-6.24" fill="#2F3B4D" stroke="#2F3B4D" stroke-width="2" stroke-linejoin="round" stroke-linecap="round"/></g><g transform="translate(87.97 814.91) rotate(90.00)"><polygon points="0,0 -10.40,6.24 -10.40,-6.24" fill="#2F3B4D" stroke="#2F3B4D" stroke-width="2" stroke-linejoin="round" stroke-linecap="round"/></g><g transform="translate(103.97 681.22) rotate(-90.00)"><polygon points="0,0 -10.40,6.24 -10.40,-6.24" fill="#2F3B4D" stroke="#2F3B4D" stroke-width="2" stroke-linejoin="round" stroke-linecap="round"/></g><g transform="translate(87.97 627.22) rotate(90.00)"><polygon points="0,0 -10.40,6.24 -10.40,-6.24" fill="#2F3B4D" stroke="#2F3B4D" stroke-width="2" stroke-linejoin="round" stroke-linecap="round"/></g></svg>