<svg xmlns="http://www.w3.org/2000/svg" width="346.1151" height="587.551" viewBox="0 0 346.1151 587.551"><rect x="0" y="0" width="346.1151" height="587.551" fill="#FFFFFF"/><defs><marker id="arrow-0" viewBox="0 0 10 10" refX="5" refY="5" markerUnits="userSpaceOnUse" markerWidth="8" markerHeight="8" orient="auto"><path d="M 0 0 L 10 5 L 0 10 z" fill="#2F3B4D" stroke="#2F3B4D" stroke-width="1" stroke-dasharray="1,0"/></marker><marker id="arrow-start-0" viewBox="0 0 10 10" refX="4.5" refY="5" markerUnits="userSpaceOnUse" markerWidth="8" markerHeight="8" orient="auto"><path d="M 0 5 L 10 10 L 10 0 z" fill="#2F3B4D" stroke="#2F3B4D" stroke-width="1" stroke-dasharray="1,0"/></marker></defs><path d="M 150.103,47.000 L 150.103,88.703" fill="none" stroke="#2F3B4D" stroke-width="2"    stroke-linecap="round" stroke-linejoin="round" /><path d="M 166.103,127.703L 166.103,128.841C166.103,129.978,166.103,132.253,166.103,134.528C166.103,136.803,166.103,139.078,165.258,140.977C164.412,142.876,162.721,144.398,160.900,146.037C159.079,147.677,157.127,149.434,155.306,151.073C153.485,152.713,151.794,154.235,150.949,156.133C150.103,158.032,150.103,160.307,150.103,162.582C150.103,164.857,150.103,167.132,150.103,168.269L 150.103,169.407" fill="none" stroke="#2F3B4D" stroke-width="2"    stroke-linecap="round" stroke-linejoin="round" /><path d="M 182.103,238.041L 182.103,239.257C182.103,240.473,182.103,242.906,182.103,245.339C182.103,247.772,182.103,250.204,181.641,252.546C181.178,254.887,180.253,257.137,176.142,267.138C172.031,277.140,164.734,294.893,160.325,305.619C155.916,316.345,154.396,320.045,155.632,322.010C156.868,323.975,160.862,324.207,175.199,325.037C189.536,325.867,214.218,327.297,227.772,328.082C241.327,328.867,243.756,329.007,244.970,330.294C246.185,331.581,246.185,334.013,246.185,336.446C246.185,338.879,246.185,341.311,246.185,342.528L 246.185,343.744" fill="none" stroke="#2F3B4D" stroke-width="2"    stroke-linecap="round" stroke-linejoin="round" /><rect x="136.89" y="309.54" width="31.97" height="28.40" rx="2" ry="2" fill="rgba(248,250,252, 0.92)" fill-opacity="0.95" stroke="#7B88A8" stroke-opacity="0.45" stroke-width="0.8"/><text x="152.88" y="327.74" text-anchor="middle" font-family="'trebuchet ms', verdana, arial, sans-serif" font-size="16" fill="#333333"><tspan x="152.88" dy="0.00">Yes</tspan></text><path d="M 118.103,238.041L 118.103,239.257C118.103,240.473,118.103,242.906,118.103,245.339C118.103,247.772,118.103,250.204,117.674,252.559C117.245,254.913,116.387,257.190,112.082,268.613C107.777,280.036,100.025,300.606,95.988,311.319C91.950,322.032,91.628,322.888,91.547,323.766C91.467,324.645,91.628,325.545,91.709,325.996C91.790,326.446,91.790,326.446,91.871,326.896C91.952,327.347,92.114,328.247,92.195,329.155C92.275,330.063,92.275,330.978,92.275,333.411C92.275,335.843,92.275,339.794,92.275,341.769L 92.275,343.744" fill="none" stroke="#2F3B4D" stroke-width="2"    stroke-linecap="round" stroke-linejoin="round" /><rect x="78.42" y="309.54" width="25.77" height="28.40" rx="2" ry="2" fill="rgba(248,250,252, 0.92)" fill-opacity="0.95" stroke="#7B88A8" stroke-opacity="0.45" stroke-width="0.8"/><text x="91.31" y="327.74" text-anchor="middle" font-family="'trebuchet ms', verdana, arial, sans-serif" font-size="16" fill="#333333"><tspan x="91.31" dy="0.00">No</tspan></text><path d="M 76.275,343.744L 76.275,341.793C76.275,339.843,76.275,335.941,76.275,333.666C76.275,331.391,76.275,330.743,76.600,330.419C76.924,330.094,77.573,330.094,77.897,330.094C78.221,330.094,78.221,330.094,78.546,330.094C78.870,330.094,79.519,330.094,79.843,329.770C80.167,329.446,80.167,328.797,80.167,299.340C80.167,269.883,80.167,211.618,80.167,180.486C80.167,149.353,80.167,145.353,82.167,143.353C84.167,141.353,88.167,141.353,96.019,141.353C103.871,141.353,115.574,141.353,122.564,141.353C129.553,141.353,131.828,141.353,132.966,140.216C134.103,139.078,134.103,136.803,134.103,134.528C134.103,132.253,134.103,129.978,134.103,128.841L 134.103,127.703" fill="none" stroke="#2F3B4D" stroke-width="2"    stroke-linecap="round" stroke-linejoin="round" /><path d="M 262.185,397.744L 262.185,399.134C262.185,400.524,262.185,403.305,262.185,405.737C262.185,408.170,262.185,410.255,262.179,412.340C262.173,414.426,262.162,416.511,262.156,417.553C262.150,418.596,262.150,418.596,262.144,419.639C262.138,420.681,262.127,422.766,262.121,424.851C262.115,426.937,262.115,429.022,262.115,431.455C262.115,433.887,262.115,436.667,262.115,438.058L 262.115,439.448" fill="none" stroke="#2F3B4D" stroke-width="2"    stroke-linecap="round" stroke-linejoin="round" /><path d="M 262.115,498.848L 262.115,499.985C262.115,501.123,262.115,503.398,262.115,505.673C262.115,507.948,262.115,510.223,262.115,512.498C262.114,514.773,262.112,517.048,262.111,518.311C262.111,519.574,262.110,519.825,262.110,521.088C262.109,522.351,262.107,524.626,262.106,526.901C262.106,529.176,262.106,531.451,262.106,533.726C262.106,536.001,262.106,538.276,262.106,539.414L 262.106,540.551" fill="none" stroke="#2F3B4D" stroke-width="2"    stroke-linecap="round" stroke-linejoin="round" /><polygon points="150.10,169.41 200.42,219.72 150.10,270.04 99.79,219.72" fill="#ECECFF" stroke="#7B88A8" stroke-width="1" stroke-linejoin="round" stroke-linecap="round"/><text x="150.10" y="223.72" text-anchor="middle" font-family="'trebuchet ms', verdana, arial, sans-serif" font-size="16" fill="#333333"><tspan x="150.10" dy="0.00">Valid?</tspan></text><rect x="237.53" y="540.55" width="49.14" height="39.00" rx="19.50" ry="19.50" fill="#ECECFF" stroke="#7B88A8" stroke-width="1" stroke-linejoin="round" stroke-linecap="round"/><text x="262.11" y="564.05" text-anchor="middle" font-family="'trebuchet ms', verdana, arial, sans-serif" font-size="16" fill="#333333"><tspan x="262.11" dy="0.00">End</tspan></text><rect x="8.00" y="343.74" width="136.55" height="54.00" rx="3" ry="3" fill="#ECECFF" stroke="#7B88A8" stroke-width="1" stroke-linejoin="round" stroke-linecap="round"/><text x="76.28" y="374.74" text-anchor="middle" font-family="'trebuchet ms', verdana, arial, sans-serif" font-size="16" fill="#333333"><tspan x="76.28" dy="0.00">Show Error</tspan></text><polygon points="108.44,88.70 215.20,88.70 191.76,127.70 85.01,127.70" fill="#ECECFF" stroke="#7B88A8" stroke-width="1" stroke-linejoin="round" stroke-linecap="round"/><text x="150.10" y="112.20" text-anchor="middle" font-family="'trebuchet ms', verdana, arial, sans-serif" font-size="16" fill="#333333"><tspan x="150.10" dy="0.00">Read Input</tspan></text><rect x="186.25" y="343.74" width="151.86" height="54.00" rx="3" ry="3" fill="#ECECFF" stroke="#7B88A8" stroke-width="1" stroke-linejoin="round" stroke-linecap="round"/><text x="262.18" y="374.74" text-anchor="middle" font-family="'trebuchet ms', verdana, arial, sans-serif" font-size="16" fill="#333333"><tspan x="262.18" dy="0.00">Process Data</tspan></text><ellipse cx="262.12" cy="446.58" rx="75.10" ry="7.13" fill="#ECECFF" stroke="#7B88A8" stroke-width="1" stroke-linejoin="round" stroke-linecap="round"/><rect x="187.01" y="446.58" width="150.21" height="45.14" fill="#ECECFF" stroke="#7B88A8" stroke-width="1" stroke-linejoin="round" stroke-linecap="round"/><ellipse cx="262.12" cy="491.72" rx="75.10" ry="7.13" fill="none" stroke="#7B88A8" stroke-width="1" stroke-linejoin="round" stroke-linecap="round"/><text x="262.12" y="473.15" text-anchor="middle" font-family="'trebuchet ms', verdana, arial, sans-serif" font-size="16" fill="#333333"><tspan x="262.12" dy="0.00">Save to DB</tspan></text><rect x="118.07" y="8.00" width="64.08" height="39.00" rx="19.50" ry="19.50" fill="#ECECFF" stroke="#7B88A8" stroke-width="1" stroke-linejoin="round" stroke-linecap="round"/><text x="150.10" y="31.50" text-anchor="middle" font-family="'trebuchet ms', verdana, arial, sans-serif" font-size="16" fill="#333333"><tspan x="150.10" dy="0.00">Start</tspan></text><g transform="translate(150.10 88.70) rotate(90.00)"><polygon points="0,0 -10.40,6.24 -10.40,-6.24" fill="#2F3B4D" stroke="#2F3B4D" stroke-width="2" stroke-linejoin="round" stroke-linecap="round"/></g><g transform="translate(150.10 169.41) rotate(90.00)"><polygon points="0,0 -10.40,6.24 -10.40,-6.24" fill="#2F3B4D" stroke="#2F3B4D" stroke-width="2" stroke-linejoin="round" stroke-linecap="round"/></g><g transform="translate(246.18 343.74) rotate(90.00)"><polygon points="0,0 -10.40,6.24 -10.40,-6.24" fill="#2F3B4D" stroke="#2F3B4D" stroke-width="2" stroke-linejoin="round" stroke-linecap="round"/></g><g transform="translate(92.28 343.74) rotate(90.00)"><polygon points="0,0 -10.40,6.24 -10.40,-6.24" fill="#2F3B4D" stroke="#2F3B4D" stroke-width="2" stroke-linejoin="round" stroke-linecap="round"/></g><g transform="translate(134.10 127.70) rotate(-90.00)"><polygon points="0,0 -10.40,6.24 -10.40,-6.24" fill="#2F3B4D" stroke="#2F3B4D" stroke-width="2" stroke-linejoin="round" stroke-linecap="round"/></g><g transform="translate(262.12 439.45) rotate(90.00)"><polygon points="0,0 -10.40,6.24 -10.40,-6.24" fill="#2F3B4D" stroke="#2F3B4D" stroke-width="2" stroke-linejoin="round" stroke-linecap="round"/></g><g transform="translate(262.11 540.55) rotate(90.00)"><polygon points="0,0 -10.40,6.24 -10.40,-6.24" fill="#2F3B4D" stroke="#2F3B4D" stroke-width="2" stroke-linejoin="round" stroke-linecap="round"/></g></svg>