<svg xmlns="http://www.w3.org/2000/svg" width="526.0866" height="348.92386" viewBox="0 0 526.0866 348.92386"><rect x="0" y="0" width="526.0866" height="348.92386" fill="#FFFFFF"/><defs><marker id="arrow-0" viewBox="0 0 10 10" refX="5" refY="5" markerUnits="userSpaceOnUse" markerWidth="8" markerHeight="8" orient="auto"><path d="M 0 0 L 10 5 L 0 10 z" fill="#2F3B4D" stroke="#2F3B4D" stroke-width="1" stroke-dasharray="1,0"/></marker><marker id="arrow-start-0" viewBox="0 0 10 10" refX="4.5" refY="5" markerUnits="userSpaceOnUse" markerWidth="8" markerHeight="8" orient="auto"><path d="M 0 5 L 10 10 L 10 0 z" fill="#2F3B4D" stroke="#2F3B4D" stroke-width="1" stroke-dasharray="1,0"/></marker></defs><path d="M 95.827,164.603L 96.835,164.603C97.843,164.603,99.859,164.603,101.875,164.603C103.891,164.603,105.906,164.603,107.204,163.637C108.502,162.672,109.082,160.741,112.200,150.357C115.318,139.973,120.975,121.136,124.093,110.752C127.211,100.368,127.791,98.437,129.089,97.472C130.386,96.506,132.402,96.506,134.418,96.506C136.434,96.506,138.449,96.506,139.457,96.506L 140.465,96.506" fill="none" stroke="#2F3B4D" stroke-width="2"    stroke-linecap="round" stroke-linejoin="round" /><path d="M 101.959,184.187L 103.110,184.187C104.262,184.187,106.566,184.187,108.582,184.187C110.598,184.187,112.325,184.187,114.053,184.186C115.781,184.185,117.509,184.183,118.373,184.182C119.237,184.181,119.237,184.181,120.100,184.180C120.964,184.179,122.692,184.177,124.420,184.176C126.148,184.174,127.876,184.174,129.891,184.174C131.907,184.174,134.211,184.174,135.363,184.174L 136.515,184.174" fill="none" stroke="#2F3B4D" stroke-width="2"    stroke-linecap="round" stroke-linejoin="round" /><path d="M 95.827,203.791L 96.835,203.791C97.843,203.791,99.859,203.791,101.875,203.791C103.891,203.791,105.906,203.791,107.202,204.757C108.498,205.723,109.074,207.655,112.187,218.091C115.299,228.527,120.948,247.467,124.060,257.903C127.172,268.339,127.748,270.271,129.044,271.237C130.340,272.202,132.356,272.202,134.372,272.202C136.387,272.202,138.403,272.202,139.411,272.202L 140.419,272.202" fill="none" stroke="#2F3B4D" stroke-width="2"    stroke-linecap="round" stroke-linejoin="round" /><path d="M 186.891,110.932L 186.891,111.431C186.891,111.931,186.891,112.929,186.891,113.928C186.891,114.927,186.891,115.925,186.391,116.425C185.892,116.924,184.893,116.924,183.319,116.924C181.745,116.924,179.595,116.924,176.946,116.924C174.297,116.924,171.148,116.924,169.574,115.350C168.000,113.775,168.000,110.627,168.000,101.960C168.000,93.294,168.000,79.109,168.000,70.016C168.000,60.924,168.000,56.924,166.000,54.924C164.000,52.924,160.000,52.924,135.333,52.924C110.667,52.924,65.333,52.924,40.667,52.924C16.000,52.924,12.000,52.924,10.000,54.924C8.000,56.924,8.000,60.924,8.000,106.924C8.000,152.924,8.000,240.924,8.000,286.924C8.000,332.924,8.000,336.924,10.000,338.924C12.000,340.924,16.000,340.924,56.667,340.924C97.333,340.924,174.667,340.924,215.333,340.924C256.000,340.924,260.000,340.924,262.000,338.924C264.000,336.924,264.000,332.924,264.000,309.347C264.000,285.771,264.000,242.618,264.000,220.618C264.000,198.618,264.000,197.771,263.577,197.347C263.153,196.924,262.306,196.924,261.883,196.924C261.459,196.924,261.459,196.924,261.036,196.924C260.612,196.924,259.766,196.924,259.342,197.347C258.919,197.771,258.919,198.618,258.919,200.019C258.919,201.420,258.919,203.376,258.919,204.353L 258.919,205.331" fill="none" stroke="#2F3B4D" stroke-width="2"    stroke-linecap="round" stroke-linejoin="round" /><path d="M 199.791,203.974L 200.799,203.974C201.807,203.974,203.823,203.974,205.839,203.974C207.854,203.974,209.870,203.974,211.677,204.589C213.483,205.203,215.081,206.432,217.701,208.448C220.321,210.464,223.963,213.267,226.583,215.282C229.203,217.298,230.801,218.527,232.608,219.142C234.414,219.757,236.430,219.757,238.446,219.757C240.462,219.757,242.477,219.757,243.485,219.757L 244.493,219.757" fill="none" stroke="#2F3B4D" stroke-width="2"    stroke-linecap="round" stroke-linejoin="round" /><path d="M 202.082,272.202L 203.090,272.202C204.098,272.202,206.114,272.202,208.130,272.202C210.145,272.202,212.161,272.202,213.840,271.450C215.518,270.698,216.859,269.193,219.226,266.538C221.592,263.882,224.983,260.077,227.350,257.422C229.716,254.766,231.057,253.261,232.736,252.509C234.414,251.757,236.430,251.757,238.446,251.757C240.462,251.757,242.477,251.757,243.485,251.757L 244.493,251.757" fill="none" stroke="#2F3B4D" stroke-width="2"    stroke-linecap="round" stroke-linejoin="round" /><path d="M 201.316,96.506L 202.324,96.506C203.332,96.506,205.348,96.506,207.363,96.506C209.379,96.506,211.395,96.506,213.092,97.242C214.789,97.977,216.168,99.448,218.651,102.098C221.135,104.747,224.723,108.576,227.206,111.225C229.690,113.875,231.068,115.346,232.766,116.081C234.463,116.817,236.478,116.817,238.494,116.817C240.510,116.817,242.526,116.817,243.534,116.817L 244.542,116.817" fill="none" stroke="#2F3B4D" stroke-width="2"    stroke-linecap="round" stroke-linejoin="round" /><path d="M 199.791,164.375L 200.799,164.375C201.807,164.375,203.823,164.375,205.839,164.375C207.854,164.375,209.870,164.375,211.682,163.767C213.493,163.159,215.101,161.942,217.724,159.957C220.347,157.972,223.986,155.219,226.609,153.234C229.232,151.249,230.839,150.033,232.651,149.425C234.463,148.817,236.478,148.817,238.494,148.817C240.510,148.817,242.526,148.817,243.534,148.817L 244.542,148.817" fill="none" stroke="#2F3B4D" stroke-width="2"    stroke-linecap="round" stroke-linejoin="round" /><path d="M 187.251,257.371L 187.251,256.363C187.251,255.355,187.251,253.339,187.251,251.324C187.251,249.308,187.251,247.292,188.258,246.284C189.266,245.276,191.282,245.276,194.435,245.276C197.588,245.276,201.877,245.276,206.022,245.276C210.167,245.276,214.167,245.276,216.167,243.276C218.167,241.276,218.167,237.276,218.167,227.550C218.167,217.824,218.167,202.372,218.167,192.646C218.167,182.920,218.167,178.920,220.167,176.920C222.167,174.920,226.167,174.920,231.890,174.920C237.612,174.920,245.058,174.920,249.788,174.920C254.519,174.920,256.535,174.920,257.543,173.912C258.551,172.904,258.551,170.889,258.551,168.873C258.551,166.857,258.551,164.841,258.551,163.834L 258.551,162.826" fill="none" stroke="#2F3B4D" stroke-width="2"    stroke-linecap="round" stroke-linejoin="round" /><path d="M 305.344,219.757L 306.352,219.757C307.360,219.757,309.376,219.757,311.391,219.757C313.407,219.757,315.423,219.757,317.119,219.020C318.814,218.283,320.190,216.810,322.532,214.303C324.873,211.796,328.180,208.254,330.521,205.747C332.863,203.240,334.239,201.767,335.934,201.030C337.630,200.293,339.646,200.293,341.662,200.293C343.677,200.293,345.693,200.293,346.701,200.293L 347.709,200.293" fill="none" stroke="#2F3B4D" stroke-width="2"    stroke-linecap="round" stroke-linejoin="round" /><path d="M 304.560,148.817L 305.568,148.817C306.575,148.817,308.591,148.817,310.607,148.817C312.623,148.817,314.639,148.817,316.349,149.539C318.060,150.261,319.466,151.705,321.923,154.229C324.380,156.753,327.888,160.357,330.345,162.881C332.802,165.405,334.208,166.849,335.919,167.571C337.630,168.293,339.646,168.293,341.662,168.293C343.677,168.293,345.693,168.293,346.701,168.293L 347.709,168.293" fill="none" stroke="#2F3B4D" stroke-width="2"    stroke-linecap="round" stroke-linejoin="round" /><path d="M 414.059,184.293L 415.066,184.293C416.074,184.293,418.090,184.293,420.106,184.293C422.122,184.293,424.137,184.293,426.002,184.825C427.866,185.357,429.578,186.420,430.564,187.032C431.549,187.643,431.807,187.804,432.793,188.416C433.778,189.027,435.491,190.090,437.355,190.622C439.219,191.154,441.235,191.154,443.251,191.154C445.267,191.154,447.282,191.154,448.290,191.154L 449.298,191.154" fill="none" stroke="#2F3B4D" stroke-width="2"    stroke-linecap="round" stroke-linejoin="round" /><path d="M 205.267,80.506L 206.274,80.506C207.282,80.506,209.298,80.506,211.314,80.506C213.330,80.506,215.345,80.506,216.353,79.499C217.361,78.491,217.361,76.475,217.361,66.391C217.361,56.306,217.361,38.153,217.361,27.077C217.361,16.000,217.361,12.000,219.361,10.000C221.361,8.000,225.361,8.000,260.358,8.000C295.355,8.000,361.349,8.000,396.346,8.000C431.343,8.000,435.343,8.000,437.343,10.000C439.343,12.000,439.343,16.000,439.343,42.089C439.343,68.178,439.343,116.355,439.343,141.452C439.343,166.549,439.343,168.565,440.351,169.573C441.359,170.580,443.374,170.580,445.390,170.580C447.406,170.580,449.422,170.580,450.430,170.580L 451.437,170.580" fill="none" stroke="#2F3B4D" stroke-width="2"    stroke-linecap="round" stroke-linejoin="round" /><path d="M 205.987,184.187L 206.994,184.187C208.002,184.187,210.018,184.187,212.034,184.187C214.050,184.187,216.065,184.187,217.073,183.180C218.081,182.172,218.081,180.156,218.081,164.888C218.081,149.620,218.081,121.100,218.081,104.841C218.081,88.581,218.081,84.581,220.081,82.581C222.081,80.581,226.081,80.581,260.493,80.581C294.905,80.581,359.728,80.581,394.140,80.581C428.552,80.581,432.552,80.581,434.552,82.581C436.552,84.581,436.552,88.581,436.552,104.612C436.552,120.644,436.552,148.707,436.552,163.746C436.552,178.786,436.552,180.801,437.559,181.809C438.567,182.817,440.583,182.817,442.599,182.817C444.615,182.817,446.630,182.817,447.638,182.817L 448.646,182.817" fill="none" stroke="#2F3B4D" stroke-width="2"    stroke-linecap="round" stroke-linejoin="round" /><path d="M 205.987,288.202L 207.148,288.202C208.310,288.202,210.634,288.202,212.649,288.202C214.665,288.202,216.373,288.202,217.227,289.056C218.081,289.910,218.081,291.618,218.081,292.472C218.081,293.326,218.081,293.326,218.081,294.180C218.081,295.034,218.081,296.742,218.935,297.596C219.789,298.450,221.497,298.450,256.487,298.450C291.476,298.450,359.748,298.450,395.883,298.450C432.019,298.450,436.019,298.450,438.019,296.450C440.019,294.450,440.019,290.450,440.019,274.965C440.019,259.479,440.019,232.509,440.019,218.015C440.019,203.522,440.019,201.506,441.027,200.498C442.035,199.490,444.051,199.490,446.066,199.490C448.082,199.490,450.098,199.490,451.106,199.490L 452.114,199.490" fill="none" stroke="#2F3B4D" stroke-width="2"    stroke-linecap="round" stroke-linejoin="round" /><circle cx="67.58" cy="184.20" r="34.38" fill="#ECECFF" stroke="#7B88A8" stroke-width="1" stroke-linejoin="round" stroke-linecap="round"/><circle cx="67.58" cy="184.20" r="30.38" fill="none" stroke="#7B88A8" stroke-width="1" stroke-linejoin="round" stroke-linecap="round"/><text x="67.58" y="188.20" text-anchor="middle" font-family="'trebuchet ms', verdana, arial, sans-serif" font-size="16" fill="#333333"><tspan x="67.58" dy="0.00">A</tspan></text><circle cx="170.89" cy="80.51" r="34.38" fill="#ECECFF" stroke="#7B88A8" stroke-width="1" stroke-linejoin="round" stroke-linecap="round"/><circle cx="170.89" cy="80.51" r="30.38" fill="none" stroke="#7B88A8" stroke-width="1" stroke-linejoin="round" stroke-linecap="round"/><text x="170.89" y="84.51" text-anchor="middle" font-family="'trebuchet ms', verdana, arial, sans-serif" font-size="16" fill="#333333"><tspan x="170.89" dy="0.00">B</tspan></text><circle cx="171.25" cy="184.17" r="34.74" fill="#ECECFF" stroke="#7B88A8" stroke-width="1" stroke-linejoin="round" stroke-linecap="round"/><circle cx="171.25" cy="184.17" r="30.74" fill="none" stroke="#7B88A8" stroke-width="1" stroke-linejoin="round" stroke-linecap="round"/><text x="171.25" y="188.17" text-anchor="middle" font-family="'trebuchet ms', verdana, arial, sans-serif" font-size="16" fill="#333333"><tspan x="171.25" dy="0.00">C</tspan></text><circle cx="171.25" cy="288.20" r="34.74" fill="#ECECFF" stroke="#7B88A8" stroke-width="1" stroke-linejoin="round" stroke-linecap="round"/><circle cx="171.25" cy="288.20" r="30.74" fill="none" stroke="#7B88A8" stroke-width="1" stroke-linejoin="round" stroke-linecap="round"/><text x="171.25" y="292.20" text-anchor="middle" font-family="'trebuchet ms', verdana, arial, sans-serif" font-size="16" fill="#333333"><tspan x="171.25" dy="0.00">D</tspan></text><circle cx="274.92" cy="235.76" r="34.38" fill="#ECECFF" stroke="#7B88A8" stroke-width="1" stroke-linejoin="round" stroke-linecap="round"/><circle cx="274.92" cy="235.76" r="30.38" fill="none" stroke="#7B88A8" stroke-width="1" stroke-linejoin="round" stroke-linecap="round"/><text x="274.92" y="239.76" text-anchor="middle" font-family="'trebuchet ms', verdana, arial, sans-serif" font-size="16" fill="#333333"><tspan x="274.92" dy="0.00">E</tspan></text><circle cx="274.55" cy="132.82" r="34.01" fill="#ECECFF" stroke="#7B88A8" stroke-width="1" stroke-linejoin="round" stroke-linecap="round"/><circle cx="274.55" cy="132.82" r="30.01" fill="none" stroke="#7B88A8" stroke-width="1" stroke-linejoin="round" stroke-linecap="round"/><text x="274.55" y="136.82" text-anchor="middle" font-family="'trebuchet ms', verdana, arial, sans-serif" font-size="16" fill="#333333"><tspan x="274.55" dy="0.00">F</tspan></text><circle cx="378.95" cy="184.29" r="35.10" fill="#ECECFF" stroke="#7B88A8" stroke-width="1" stroke-linejoin="round" stroke-linecap="round"/><circle cx="378.95" cy="184.29" r="31.10" fill="none" stroke="#7B88A8" stroke-width="1" stroke-linejoin="round" stroke-linecap="round"/><text x="378.95" y="188.29" text-anchor="middle" font-family="'trebuchet ms', verdana, arial, sans-serif" font-size="16" fill="#333333"><tspan x="378.95" dy="0.00">G</tspan></text><circle cx="483.35" cy="184.30" r="34.74" fill="#ECECFF" stroke="#7B88A8" stroke-width="1" stroke-linejoin="round" stroke-linecap="round"/><circle cx="483.35" cy="184.30" r="30.74" fill="none" stroke="#7B88A8" stroke-width="1" stroke-linejoin="round" stroke-linecap="round"/><text x="483.35" y="188.30" text-anchor="middle" font-family="'trebuchet ms', verdana, arial, sans-serif" font-size="16" fill="#333333"><tspan x="483.35" dy="0.00">H</tspan></text><g transform="translate(140.47 96.51) rotate(0.00)"><polygon points="0,0 -10.40,6.24 -10.40,-6.24" fill="#2F3B4D" stroke="#2F3B4D" stroke-width="2" stroke-linejoin="round" stroke-linecap="round"/></g><g transform="translate(136.51 184.17) rotate(0.00)"><polygon points="0,0 -10.40,6.24 -10.40,-6.24" fill="#2F3B4D" stroke="#2F3B4D" stroke-width="2" stroke-linejoin="round" stroke-linecap="round"/></g><g transform="translate(140.42 272.20) rotate(0.00)"><polygon points="0,0 -10.40,6.24 -10.40,-6.24" fill="#2F3B4D" stroke="#2F3B4D" stroke-width="2" stroke-linejoin="round" stroke-linecap="round"/></g><g transform="translate(258.92 205.33) rotate(90.00)"><polygon points="0,0 -10.40,6.24 -10.40,-6.24" fill="#2F3B4D" stroke="#2F3B4D" stroke-width="2" stroke-linejoin="round" stroke-linecap="round"/></g><g transform="translate(244.49 219.76) rotate(0.00)"><polygon points="0,0 -10.40,6.24 -10.40,-6.24" fill="#2F3B4D" stroke="#2F3B4D" stroke-width="2" stroke-linejoin="round" stroke-linecap="round"/></g><g transform="translate(244.49 251.76) rotate(0.00)"><polygon points="0,0 -10.40,6.24 -10.40,-6.24" fill="#2F3B4D" stroke="#2F3B4D" stroke-width="2" stroke-linejoin="round" stroke-linecap="round"/></g><g transform="translate(244.54 116.82) rotate(0.00)"><polygon points="0,0 -10.40,6.24 -10.40,-6.24" fill="#2F3B4D" stroke="#2F3B4D" stroke-width="2" stroke-linejoin="round" stroke-linecap="round"/></g><g transform="translate(244.54 148.82) rotate(0.00)"><polygon points="0,0 -10.40,6.24 -10.40,-6.24" fill="#2F3B4D" stroke="#2F3B4D" stroke-width="2" stroke-linejoin="round" stroke-linecap="round"/></g><g transform="translate(258.55 162.83) rotate(-90.00)"><polygon points="0,0 -10.40,6.24 -10.40,-6.24" fill="#2F3B4D" stroke="#2F3B4D" stroke-width="2" stroke-linejoin="round" stroke-linecap="round"/></g><g transform="translate(347.71 200.29) rotate(0.00)"><polygon points="0,0 -10.40,6.24 -10.40,-6.24" fill="#2F3B4D" stroke="#2F3B4D" stroke-width="2" stroke-linejoin="round" stroke-linecap="round"/></g><g transform="translate(347.71 168.29) rotate(0.00)"><polygon points="0,0 -10.40,6.24 -10.40,-6.24" fill="#2F3B4D" stroke="#2F3B4D" stroke-width="2" stroke-linejoin="round" stroke-linecap="round"/></g><g transform="translate(449.30 191.15) rotate(0.00)"><polygon points="0,0 -10.40,6.24 -10.40,-6.24" fill="#2F3B4D" stroke="#2F3B4D" stroke-width="2" stroke-linejoin="round" stroke-linecap="round"/></g><g transform="translate(451.44 170.58) rotate(0.00)"><polygon points="0,0 -10.40,6.24 -10.40,-6.24" fill="#2F3B4D" stroke="#2F3B4D" stroke-width="2" stroke-linejoin="round" stroke-linecap="round"/></g><g transform="translate(448.65 182.82) rotate(0.00)"><polygon points="0,0 -10.40,6.24 -10.40,-6.24" fill="#2F3B4D" stroke="#2F3B4D" stroke-width="2" stroke-linejoin="round" stroke-linecap="round"/></g><g transform="translate(452.11 199.49) rotate(0.00)"><polygon points="0,0 -10.40,6.24 -10.40,-6.24" fill="#2F3B4D" stroke="#2F3B4D" stroke-width="2" stroke-linejoin="round" stroke-linecap="round"/></g></svg>