<svg xmlns="http://www.w3.org/2000/svg" width="1044.0787" height="154.44629" viewBox="0 0 1044.0787 154.44629"><rect x="0" y="0" width="1044.0787" height="154.44629" fill="#FFFFFF"/><defs><marker id="arrow-0" viewBox="0 0 10 10" refX="5" refY="5" markerUnits="userSpaceOnUse" markerWidth="8" markerHeight="8" orient="auto"><path d="M 0 0 L 10 5 L 0 10 z" fill="#2F3B4D" stroke="#2F3B4D" stroke-width="1" stroke-dasharray="1,0"/></marker><marker id="arrow-start-0" viewBox="0 0 10 10" refX="4.5" refY="5" markerUnits="userSpaceOnUse" markerWidth="8" markerHeight="8" orient="auto"><path d="M 0 5 L 10 10 L 10 0 z" fill="#2F3B4D" stroke="#2F3B4D" stroke-width="1" stroke-dasharray="1,0"/></marker></defs><path d="M 113.930,116.581L 115.295,116.581C116.659,116.581,119.387,116.581,122.115,116.581C124.844,116.581,127.572,116.581,130.300,116.582C133.029,116.582,135.757,116.583,145.841,116.588C155.925,116.593,173.365,116.600,184.085,116.605C194.805,116.610,198.805,116.612,202.805,116.614C206.805,116.617,210.805,116.620,216.339,116.625C221.872,116.630,228.940,116.636,233.838,116.640C238.736,116.644,241.464,116.646,244.193,116.647C246.921,116.649,249.649,116.649,252.378,116.649C255.106,116.649,257.834,116.649,259.199,116.649L 260.563,116.649" fill="none" stroke="#2F3B4D" stroke-width="2"    stroke-linecap="round" stroke-linejoin="round" /><rect x="156.20" y="102.41" width="93.21" height="28.40" rx="2" ry="2" fill="rgba(248,250,252, 0.92)" fill-opacity="0.95" stroke="#7B88A8" stroke-opacity="0.45" stroke-width="0.8"/><text x="202.80" y="120.61" text-anchor="middle" font-family="'trebuchet ms', verdana, arial, sans-serif" font-size="16" fill="#333333"><tspan x="202.80" dy="0.00">POST /login</tspan></text><path d="M 404.769,116.649L 406.133,116.649C407.497,116.649,410.225,116.649,412.954,116.649C415.682,116.649,418.410,116.649,421.139,116.649C423.867,116.650,426.595,116.651,439.231,116.656C451.867,116.661,474.410,116.670,487.681,116.675C500.953,116.680,504.953,116.682,508.953,116.684C512.953,116.686,516.953,116.689,523.763,116.693C530.572,116.697,540.192,116.704,546.366,116.707C552.539,116.711,555.268,116.713,557.996,116.714C560.724,116.715,563.453,116.715,566.181,116.715C568.909,116.715,571.638,116.715,573.002,116.715L 574.366,116.715" fill="none" stroke="#2F3B4D" stroke-width="2"    stroke-linecap="round" stroke-linejoin="round" /><rect x="447.04" y="102.48" width="123.83" height="28.40" rx="2" ry="2" fill="rgba(248,250,252, 0.92)" fill-opacity="0.95" stroke="#7B88A8" stroke-opacity="0.45" stroke-width="0.8"/><text x="508.95" y="120.68" text-anchor="middle" font-family="'trebuchet ms', verdana, arial, sans-serif" font-size="16" fill="#333333"><tspan x="508.95" dy="0.00">Forward request</tspan></text><path d="M 726.227,116.715L 727.591,116.715C728.955,116.715,731.684,116.715,734.412,116.715C737.140,116.715,739.869,116.715,742.597,116.715C745.325,116.716,748.054,116.717,761.965,116.721C775.877,116.725,800.972,116.732,815.519,116.737C830.067,116.741,834.067,116.742,838.066,116.743C842.067,116.744,846.067,116.744,858.245,116.744C870.423,116.745,890.779,116.746,900.957,116.746L 911.135,116.746" fill="none" stroke="#2F3B4D" stroke-width="2"    stroke-linecap="round" stroke-linejoin="round" /><rect x="768.50" y="102.54" width="139.14" height="28.40" rx="2" ry="2" fill="rgba(248,250,252, 0.92)" fill-opacity="0.95" stroke="#7B88A8" stroke-opacity="0.45" stroke-width="0.8"/><text x="838.07" y="120.74" text-anchor="middle" font-family="'trebuchet ms', verdana, arial, sans-serif" font-size="16" fill="#333333"><tspan x="838.07" dy="0.00">Query credentials</tspan></text><path d="M 911.135,116.746L 909.771,116.746C908.406,116.746,905.678,116.746,902.950,116.746C900.221,116.746,897.493,116.746,895.109,115.840C892.725,114.934,890.686,113.122,878.904,102.652C867.121,92.182,845.596,73.055,833.339,62.163C821.081,51.270,818.091,48.613,815.165,48.682C812.239,48.750,809.376,51.544,798.268,62.384C787.160,73.225,767.808,92.111,757.155,102.508C746.502,112.904,744.550,114.809,742.209,115.762C739.869,116.715,737.140,116.715,734.412,116.715C731.684,116.715,728.955,116.715,727.591,116.715L 726.227,116.715" fill="none" stroke="#2F3B4D" stroke-width="2"    stroke-linecap="round" stroke-linejoin="round" /><rect x="768.50" y="31.76" width="93.21" height="28.40" rx="2" ry="2" fill="rgba(248,250,252, 0.92)" fill-opacity="0.95" stroke="#7B88A8" stroke-opacity="0.45" stroke-width="0.8"/><text x="815.10" y="49.96" text-anchor="middle" font-family="'trebuchet ms', verdana, arial, sans-serif" font-size="16" fill="#333333"><tspan x="815.10" dy="0.00">Return user</tspan></text><path d="M 574.366,116.715L 573.002,116.715C571.638,116.715,568.909,116.715,566.181,116.715C563.453,116.715,560.724,116.715,558.545,115.621C556.366,114.527,554.737,112.339,547.119,102.113C539.502,91.887,525.898,73.623,517.901,62.887C509.904,52.151,507.515,48.943,504.792,48.629C502.069,48.315,499.013,50.896,486.057,61.835C473.102,72.774,450.247,92.071,437.777,102.600C425.308,113.128,423.223,114.888,420.817,115.769C418.410,116.649,415.682,116.649,412.954,116.649C410.225,116.649,407.497,116.649,406.133,116.649L 404.769,116.649" fill="none" stroke="#2F3B4D" stroke-width="2"    stroke-linecap="round" stroke-linejoin="round" /><rect x="447.04" y="31.53" width="116.17" height="28.40" rx="2" ry="2" fill="rgba(248,250,252, 0.92)" fill-opacity="0.95" stroke="#7B88A8" stroke-opacity="0.45" stroke-width="0.8"/><text x="505.13" y="49.73" text-anchor="middle" font-family="'trebuchet ms', verdana, arial, sans-serif" font-size="16" fill="#333333"><tspan x="505.13" dy="0.00">Generate token</tspan></text><path d="M 260.563,116.649L 259.199,116.649C257.834,116.649,255.106,116.649,252.378,116.649C249.649,116.649,246.921,116.649,245.004,115.402C243.086,114.155,241.980,111.661,236.531,99.381C231.082,87.101,221.291,65.035,215.584,52.174C209.877,39.312,208.255,35.656,206.103,35.313C203.952,34.970,201.272,37.939,189.464,51.023C177.656,64.107,156.720,87.306,145.338,99.918C133.956,112.530,132.128,114.556,129.850,115.568C127.572,116.581,124.844,116.581,122.115,116.581C119.387,116.581,116.659,116.581,115.295,116.581L 113.930,116.581" fill="none" stroke="#2F3B4D" stroke-width="2"    stroke-linecap="round" stroke-linejoin="round" /><rect x="156.20" y="5.80" width="100.86" height="52.40" rx="2" ry="2" fill="rgba(248,250,252, 0.92)" fill-opacity="0.95" stroke="#7B88A8" stroke-opacity="0.45" stroke-width="0.8"/><text x="206.63" y="24.00" text-anchor="middle" font-family="'trebuchet ms', verdana, arial, sans-serif" font-size="16" fill="#333333"><tspan x="206.63" dy="0.00">Set cookie &amp;</tspan><tspan x="206.63" dy="24.00">return 200</tspan></text><rect x="8.00" y="89.58" width="105.93" height="54.00" rx="3" ry="3" fill="#ECECFF" stroke="#7B88A8" stroke-width="1" stroke-linejoin="round" stroke-linecap="round"/><text x="60.97" y="120.58" text-anchor="middle" font-family="'trebuchet ms', verdana, arial, sans-serif" font-size="16" fill="#333333"><tspan x="60.97" dy="0.00">Client</tspan></text><rect x="260.56" y="89.65" width="144.21" height="54.00" rx="3" ry="3" fill="#ECECFF" stroke="#7B88A8" stroke-width="1" stroke-linejoin="round" stroke-linecap="round"/><text x="332.67" y="120.65" text-anchor="middle" font-family="'trebuchet ms', verdana, arial, sans-serif" font-size="16" fill="#333333"><tspan x="332.67" dy="0.00">API Gateway</tspan></text><rect x="574.37" y="89.71" width="151.86" height="54.00" rx="3" ry="3" fill="#ECECFF" stroke="#7B88A8" stroke-width="1" stroke-linejoin="round" stroke-linecap="round"/><text x="650.30" y="120.71" text-anchor="middle" font-family="'trebuchet ms', verdana, arial, sans-serif" font-size="16" fill="#333333"><tspan x="650.30" dy="0.00">Auth Service</tspan></text><ellipse cx="973.61" cy="94.17" rx="62.47" ry="7.13" fill="#ECECFF" stroke="#7B88A8" stroke-width="1" stroke-linejoin="round" stroke-linecap="round"/><rect x="911.13" y="94.17" width="124.94" height="45.14" fill="#ECECFF" stroke="#7B88A8" stroke-width="1" stroke-linejoin="round" stroke-linecap="round"/><ellipse cx="973.61" cy="139.32" rx="62.47" ry="7.13" fill="none" stroke="#7B88A8" stroke-width="1" stroke-linejoin="round" stroke-linecap="round"/><text x="973.61" y="120.75" text-anchor="middle" font-family="'trebuchet ms', verdana, arial, sans-serif" font-size="16" fill="#333333"><tspan x="973.61" dy="0.00">User DB</tspan></text><g transform="translate(260.56 116.65) rotate(0.00)"><polygon points="0,0 -10.40,6.24 -10.40,-6.24" fill="#2F3B4D" stroke="#2F3B4D" stroke-width="2" stroke-linejoin="round" stroke-linecap="round"/></g><g transform="translate(574.37 116.71) rotate(0.00)"><polygon points="0,0 -10.40,6.24 -10.40,-6.24" fill="#2F3B4D" stroke="#2F3B4D" stroke-width="2" stroke-linejoin="round" stroke-linecap="round"/></g><g transform="translate(911.13 116.75) rotate(0.00)"><polygon points="0,0 -10.40,6.24 -10.40,-6.24" fill="#2F3B4D" stroke="#2F3B4D" stroke-width="2" stroke-linejoin="round" stroke-linecap="round"/></g><g transform="translate(726.23 116.71) rotate(180.00)"><polygon points="0,0 -10.40,6.24 -10.40,-6.24" fill="#2F3B4D" stroke="#2F3B4D" stroke-width="2" stroke-linejoin="round" stroke-linecap="round"/></g><g transform="translate(404.77 116.65) rotate(180.00)"><polygon points="0,0 -10.40,6.24 -10.40,-6.24" fill="#2F3B4D" stroke="#2F3B4D" stroke-width="2" stroke-linejoin="round" stroke-linecap="round"/></g><g transform="translate(113.93 116.58) rotate(180.00)"><polygon points="0,0 -10.40,6.24 -10.40,-6.24" fill="#2F3B4D" stroke="#2F3B4D" stroke-width="2" stroke-linejoin="round" stroke-linecap="round"/></g></svg>