<svg xmlns="http://www.w3.org/2000/svg" width="505.028" height="131.17859" viewBox="0 0 505.028 131.17859"><rect x="0" y="0" width="505.028" height="131.17859" fill="#FFFFFF"/><defs><marker id="arrow-0" viewBox="0 0 10 10" refX="5" refY="5" markerUnits="userSpaceOnUse" markerWidth="8" markerHeight="8" orient="auto"><path d="M 0 0 L 10 5 L 0 10 z" fill="#2F3B4D" stroke="#2F3B4D" stroke-width="1" stroke-dasharray="1,0"/></marker><marker id="arrow-start-0" viewBox="0 0 10 10" refX="4.5" refY="5" markerUnits="userSpaceOnUse" markerWidth="8" markerHeight="8" orient="auto"><path d="M 0 5 L 10 10 L 10 0 z" fill="#2F3B4D" stroke="#2F3B4D" stroke-width="1" stroke-dasharray="1,0"/></marker></defs><path d="M 72.075,65.589 L 108.137,65.589" fill="none" stroke="#2F3B4D" stroke-width="2"    stroke-linecap="round" stroke-linejoin="round" /><path d="M 191.315,33.589L 192.367,33.589C193.419,33.589,195.523,33.589,197.626,33.589C199.730,33.589,201.833,33.589,203.935,33.520C206.036,33.451,208.135,33.313,221.106,32.461C234.077,31.608,257.920,30.040,270.891,29.187C283.862,28.335,285.961,28.197,288.062,28.128C290.163,28.059,292.267,28.059,294.371,28.059C296.474,28.059,298.578,28.059,299.629,28.059L 300.681,28.059" fill="none" stroke="#2F3B4D" stroke-width="2"    stroke-linecap="round" stroke-linejoin="round" /><rect x="242.63" y="15.79" width="31.97" height="28.40" rx="2" ry="2" fill="rgba(248,250,252, 0.92)" fill-opacity="0.95" stroke="#7B88A8" stroke-opacity="0.45" stroke-width="0.8"/><text x="258.62" y="33.99" text-anchor="middle" font-family="'trebuchet ms', verdana, arial, sans-serif" font-size="16" fill="#333333"><tspan x="258.62" dy="0.00">yes</tspan></text><path d="M 191.315,97.589L 192.367,97.589C193.419,97.589,195.523,97.589,197.626,97.589C199.730,97.589,201.833,97.589,203.935,97.659C206.036,97.729,208.135,97.870,220.885,98.721C233.635,99.573,257.037,101.136,269.788,101.988C282.538,102.840,284.637,102.980,286.738,103.050C288.839,103.120,290.943,103.120,293.047,103.120C295.150,103.120,297.254,103.120,298.306,103.120L 299.357,103.120" fill="none" stroke="#2F3B4D" stroke-width="2"    stroke-linecap="round" stroke-linejoin="round" /><rect x="233.18" y="86.15" width="24.31" height="28.40" rx="2" ry="2" fill="rgba(248,250,252, 0.92)" fill-opacity="0.95" stroke="#7B88A8" stroke-opacity="0.45" stroke-width="0.8"/><text x="245.34" y="104.35" text-anchor="middle" font-family="'trebuchet ms', verdana, arial, sans-serif" font-size="16" fill="#333333"><tspan x="245.34" dy="0.00">no</tspan></text><path d="M 394.883,28.059L 395.935,28.059C396.987,28.059,399.090,28.059,401.194,28.059C403.298,28.059,405.401,28.059,406.970,28.975C408.538,29.891,409.571,31.724,412.581,37.063C415.590,42.401,420.577,51.247,423.587,56.586C426.596,61.925,427.629,63.757,429.198,64.673C430.766,65.589,432.870,65.589,434.973,65.589C437.077,65.589,439.180,65.589,440.232,65.589L 441.284,65.589" fill="none" stroke="#2F3B4D" stroke-width="2"    stroke-linecap="round" stroke-linejoin="round" /><path d="M 381.497,103.120L 382.549,103.120C383.601,103.120,385.704,103.120,387.808,103.120C389.911,103.120,392.015,103.120,393.779,102.346C395.543,101.572,396.968,100.025,402.013,94.543C407.058,89.062,415.723,79.647,420.768,74.166C425.813,68.685,427.238,67.137,429.002,66.363C430.766,65.589,432.870,65.589,434.973,65.589C437.077,65.589,439.180,65.589,440.232,65.589L 441.284,65.589" fill="none" stroke="#2F3B4D" stroke-width="2"    stroke-linecap="round" stroke-linejoin="round" /><rect x="8.00" y="46.09" width="64.08" height="39.00" rx="19.50" ry="19.50" fill="#ECECFF" stroke="#7B88A8" stroke-width="1" stroke-linejoin="round" stroke-linecap="round"/><text x="40.04" y="69.59" text-anchor="middle" font-family="'trebuchet ms', verdana, arial, sans-serif" font-size="16" fill="#333333"><tspan x="40.04" dy="0.00">Start</tspan></text><polygon points="165.73,8.00 223.32,65.59 165.73,123.18 108.14,65.59" fill="#ECECFF" stroke="#7B88A8" stroke-width="1" stroke-linejoin="round" stroke-linecap="round"/><text x="165.73" y="69.59" text-anchor="middle" font-family="'trebuchet ms', verdana, arial, sans-serif" font-size="16" fill="#333333"><tspan x="165.73" dy="0.00">Decision</tspan></text><polygon points="311.02,8.56 405.22,8.56 384.54,47.56 290.34,47.56" fill="#ECECFF" stroke="#7B88A8" stroke-width="1" stroke-linejoin="round" stroke-linecap="round"/><text x="347.78" y="32.06" text-anchor="middle" font-family="'trebuchet ms', verdana, arial, sans-serif" font-size="16" fill="#333333"><tspan x="347.78" dy="0.00">Do thing</tspan></text><polygon points="290.34,83.62 372.48,83.62 390.51,122.62 308.37,122.62" fill="#ECECFF" stroke="#7B88A8" stroke-width="1" stroke-linejoin="round" stroke-linecap="round"/><text x="340.43" y="107.12" text-anchor="middle" font-family="'trebuchet ms', verdana, arial, sans-serif" font-size="16" fill="#333333"><tspan x="340.43" dy="0.00">\Skip\</tspan></text><rect x="441.28" y="46.09" width="55.74" height="39.00" rx="6" ry="6" fill="#ECECFF" stroke="#7B88A8" stroke-width="1" stroke-linejoin="round" stroke-linecap="round"/><line x1="447.28" y1="48.09" x2="447.28" y2="83.09" stroke="#7B88A8" stroke-width="1" stroke-linejoin="round" stroke-linecap="round"/><line x1="491.03" y1="48.09" x2="491.03" y2="83.09" stroke="#7B88A8" stroke-width="1" stroke-linejoin="round" stroke-linecap="round"/><text x="469.16" y="69.59" text-anchor="middle" font-family="'trebuchet ms', verdana, arial, sans-serif" font-size="16" fill="#333333"><tspan x="469.16" dy="0.00">End</tspan></text><g transform="translate(108.14 65.59) rotate(0.00)"><polygon points="0,0 -10.40,6.24 -10.40,-6.24" fill="#2F3B4D" stroke="#2F3B4D" stroke-width="2" stroke-linejoin="round" stroke-linecap="round"/></g><g transform="translate(300.68 28.06) rotate(0.00)"><polygon points="0,0 -10.40,6.24 -10.40,-6.24" fill="#2F3B4D" stroke="#2F3B4D" stroke-width="2" stroke-linejoin="round" stroke-linecap="round"/></g><g transform="translate(299.36 103.12) rotate(0.00)"><polygon points="0,0 -10.40,6.24 -10.40,-6.24" fill="#2F3B4D" stroke="#2F3B4D" stroke-width="2" stroke-linejoin="round" stroke-linecap="round"/></g><g transform="translate(441.28 65.59) rotate(0.00)"><polygon points="0,0 -10.40,6.24 -10.40,-6.24" fill="#2F3B4D" stroke="#2F3B4D" stroke-width="2" stroke-linejoin="round" stroke-linecap="round"/></g><g transform="translate(441.28 65.59) rotate(0.00)"><polygon points="0,0 -10.40,6.24 -10.40,-6.24" fill="#2F3B4D" stroke="#2F3B4D" stroke-width="2" stroke-linejoin="round" stroke-linecap="round"/></g></svg>