<svg xmlns="http://www.w3.org/2000/svg" width="375.41415" height="1422.6162" viewBox="0 0 375.41415 1422.6162"><rect x="0" y="0" width="375.41415" height="1422.6162" fill="#FFFFFF"/><defs><marker id="arrow-0" viewBox="0 0 10 10" refX="5" refY="5" markerUnits="userSpaceOnUse" markerWidth="8" markerHeight="8" orient="auto"><path d="M 0 0 L 10 5 L 0 10 z" fill="#2F3B4D" stroke="#2F3B4D" stroke-width="1" stroke-dasharray="1,0"/></marker><marker id="arrow-start-0" viewBox="0 0 10 10" refX="4.5" refY="5" markerUnits="userSpaceOnUse" markerWidth="8" markerHeight="8" orient="auto"><path d="M 0 5 L 10 10 L 10 0 z" fill="#2F3B4D" stroke="#2F3B4D" stroke-width="1" stroke-dasharray="1,0"/></marker></defs><path d="M 208.690,47.000L 208.690,48.138C208.690,49.275,208.690,51.550,208.690,53.825C208.690,56.100,208.690,58.375,208.812,60.644C208.933,62.912,209.176,65.174,209.461,67.826C209.746,70.479,210.072,73.521,210.357,76.174C210.642,78.826,210.885,81.088,211.006,83.356C211.128,85.625,211.128,87.900,211.128,90.175C211.128,92.450,211.128,94.725,211.128,95.862L 211.128,97.000" fill="none" stroke="#2F3B4D" stroke-width="2"    stroke-linecap="round" stroke-linejoin="round" /><path d="M 179.128,194.723L 179.128,196.182C179.128,197.640,179.128,200.557,179.128,203.473C179.128,206.390,179.128,209.307,178.535,212.098C177.943,214.889,176.759,217.554,171.500,229.388C166.240,241.222,156.907,262.225,151.648,274.059C146.389,285.893,145.204,288.558,144.612,291.349C144.020,294.140,144.020,297.057,144.020,299.973C144.020,302.890,144.020,305.807,144.020,307.265L 144.020,308.723" fill="none" stroke="#2F3B4D" stroke-width="2"    stroke-linecap="round" stroke-linejoin="round" /><rect x="145.02" y="235.89" width="25.77" height="28.40" rx="2" ry="2" fill="rgba(248,250,252, 0.92)" fill-opacity="0.95" stroke="#7B88A8" stroke-opacity="0.45" stroke-width="0.8"/><text x="157.90" y="254.09" text-anchor="middle" font-family="'trebuchet ms', verdana, arial, sans-serif" font-size="16" fill="#333333"><tspan x="157.90" dy="0.00">No</tspan></text><path d="M 208.020,362.723L 208.020,364.182C208.020,365.640,208.020,368.557,208.020,371.473C208.020,374.390,208.020,377.307,206.603,379.109C205.185,380.911,202.351,381.598,193.462,383.755C184.572,385.911,169.628,389.536,160.739,391.692C151.849,393.848,149.015,394.536,147.598,396.338C146.181,398.140,146.181,401.057,146.181,403.973C146.181,406.890,146.181,409.807,146.181,411.265L 146.181,412.723" fill="none" stroke="#2F3B4D" stroke-width="2"    stroke-linecap="round" stroke-linejoin="round" /><path d="M 82.181,536.625L 82.181,538.083C82.181,539.542,82.181,542.458,82.181,545.375C82.181,548.292,82.181,551.208,82.112,554.123C82.044,557.039,81.907,559.952,76.606,672.660C71.306,785.369,60.842,1007.872,55.542,1120.581C50.242,1233.289,50.105,1236.203,50.036,1239.118C49.968,1242.033,49.968,1244.950,49.968,1247.866C49.968,1250.783,49.968,1253.700,49.968,1255.158L 49.968,1256.616" fill="none" stroke="#2F3B4D" stroke-width="2"    stroke-linecap="round" stroke-linejoin="round" /><rect x="47.40" y="1005.55" width="25.77" height="28.40" rx="2" ry="2" fill="rgba(248,250,252, 0.92)" fill-opacity="0.95" stroke="#7B88A8" stroke-opacity="0.45" stroke-width="0.8"/><text x="60.28" y="1023.75" text-anchor="middle" font-family="'trebuchet ms', verdana, arial, sans-serif" font-size="16" fill="#333333"><tspan x="60.28" dy="0.00">No</tspan></text><path d="M 33.968,1256.616L 33.968,1254.281C33.968,1251.945,33.968,1247.274,33.968,1244.358C33.968,1241.441,33.968,1240.278,33.387,1239.697C32.805,1239.116,31.643,1239.116,31.062,1239.116C30.481,1239.116,30.481,1239.116,29.900,1239.116C29.318,1239.116,28.156,1239.116,27.575,1238.535C26.994,1237.954,26.994,1236.792,26.994,1095.643C26.994,954.494,26.994,673.359,26.994,530.791C26.994,388.223,26.994,384.223,28.994,382.223C30.994,380.223,34.994,380.223,42.373,380.223C49.752,380.223,60.511,380.223,67.349,380.223C74.186,380.223,77.103,380.223,78.561,378.765C80.020,377.307,80.020,374.390,80.020,371.473C80.020,368.557,80.020,365.640,80.020,364.182L 80.020,362.723" fill="none" stroke="#2F3B4D" stroke-width="2"    stroke-linecap="round" stroke-linejoin="round" /><path d="M 210.181,536.625L 210.181,538.083C210.181,539.542,210.181,542.458,210.181,545.375C210.181,548.292,210.181,551.208,210.249,554.123C210.318,557.039,210.456,559.952,211.260,576.995C212.065,594.039,213.536,625.212,214.340,642.255C215.145,659.298,215.282,662.212,215.351,665.127C215.420,668.042,215.420,670.958,215.420,673.875C215.420,676.792,215.420,679.708,215.420,681.167L 215.420,682.625" fill="none" stroke="#2F3B4D" stroke-width="2"    stroke-linecap="round" stroke-linejoin="round" /><rect x="197.60" y="612.08" width="31.97" height="28.40" rx="2" ry="2" fill="rgba(248,250,252, 0.92)" fill-opacity="0.95" stroke="#7B88A8" stroke-opacity="0.45" stroke-width="0.8"/><text x="213.59" y="630.28" text-anchor="middle" font-family="'trebuchet ms', verdana, arial, sans-serif" font-size="16" fill="#333333"><tspan x="213.59" dy="0.00">Yes</tspan></text><path d="M 167.420,778.893L 167.420,780.351C167.420,781.810,167.420,784.726,167.420,787.643C167.420,790.560,167.420,793.476,167.502,796.391C167.584,799.305,167.747,802.217,168.555,816.594C169.363,830.972,170.816,856.814,171.623,871.191C172.431,885.569,172.595,888.481,172.677,891.395C172.759,894.310,172.759,897.226,172.759,900.143C172.759,903.060,172.759,905.976,172.759,907.435L 172.759,908.893" fill="none" stroke="#2F3B4D" stroke-width="2"    stroke-linecap="round" stroke-linejoin="round" /><rect x="154.91" y="843.94" width="31.97" height="28.40" rx="2" ry="2" fill="rgba(248,250,252, 0.92)" fill-opacity="0.95" stroke="#7B88A8" stroke-opacity="0.45" stroke-width="0.8"/><text x="170.89" y="862.14" text-anchor="middle" font-family="'trebuchet ms', verdana, arial, sans-serif" font-size="16" fill="#333333"><tspan x="170.89" dy="0.00">Yes</tspan></text><path d="M 172.759,962.893L 172.759,964.351C172.759,965.810,172.759,968.726,172.759,971.643C172.759,974.560,172.759,977.476,172.910,980.385C173.061,983.294,173.363,986.195,174.028,992.578C174.692,998.961,175.719,1008.825,176.384,1015.208C177.049,1021.591,177.351,1024.492,177.502,1027.401C177.653,1030.310,177.653,1033.226,177.653,1036.143C177.653,1039.060,177.653,1041.976,177.653,1043.435L 177.653,1044.893" fill="none" stroke="#2F3B4D" stroke-width="2"    stroke-linecap="round" stroke-linejoin="round" /><path d="M 145.653,1142.616L 145.653,1144.075C145.653,1145.533,145.653,1148.450,145.653,1151.366C145.653,1154.283,145.653,1157.200,145.369,1160.088C145.085,1162.977,144.517,1165.838,142.187,1177.574C139.856,1189.310,135.764,1209.922,133.434,1221.658C131.104,1233.395,130.536,1236.255,130.252,1239.144C129.968,1242.033,129.968,1244.950,129.968,1247.866C129.968,1250.783,129.968,1253.700,129.968,1255.158L 129.968,1256.616" fill="none" stroke="#2F3B4D" stroke-width="2"    stroke-linecap="round" stroke-linejoin="round" /><rect x="124.93" y="1185.42" width="25.77" height="28.40" rx="2" ry="2" fill="rgba(248,250,252, 0.92)" fill-opacity="0.95" stroke="#7B88A8" stroke-opacity="0.45" stroke-width="0.8"/><text x="137.81" y="1203.62" text-anchor="middle" font-family="'trebuchet ms', verdana, arial, sans-serif" font-size="16" fill="#333333"><tspan x="137.81" dy="0.00">No</tspan></text><path d="M 209.653,1142.616L 209.653,1144.075C209.653,1145.533,209.653,1148.450,209.653,1151.366C209.653,1154.283,209.653,1157.200,209.839,1160.104C210.026,1163.009,210.398,1165.902,211.908,1177.622C213.417,1189.342,216.064,1209.890,217.574,1221.610C219.083,1233.331,219.456,1236.224,219.642,1239.128C219.829,1242.033,219.829,1244.950,219.829,1247.866C219.829,1250.783,219.829,1253.700,219.829,1255.158L 219.829,1256.616" fill="none" stroke="#2F3B4D" stroke-width="2"    stroke-linecap="round" stroke-linejoin="round" /><rect x="198.76" y="1185.42" width="31.97" height="28.40" rx="2" ry="2" fill="rgba(248,250,252, 0.92)" fill-opacity="0.95" stroke="#7B88A8" stroke-opacity="0.45" stroke-width="0.8"/><text x="214.74" y="1203.62" text-anchor="middle" font-family="'trebuchet ms', verdana, arial, sans-serif" font-size="16" fill="#333333"><tspan x="214.74" dy="0.00">Yes</tspan></text><path d="M 263.420,778.893L 263.420,856.703C263.420,934.513,263.420,1090.134,263.420,1169.944C263.420,1249.755,263.420,1253.755,265.420,1255.755C267.420,1257.755,271.420,1257.755,285.393,1257.755C299.366,1257.755,323.313,1257.755,335.381,1257.755C347.449,1257.755,347.639,1257.755,347.734,1257.660C347.829,1257.565,347.829,1257.375,347.829,1257.185C347.829,1256.996,347.829,1256.806,347.829,1256.711L 347.829,1256.616" fill="none" stroke="#2F3B4D" stroke-width="2"    stroke-linecap="round" stroke-linejoin="round" /><rect x="250.54" y="1012.87" width="25.77" height="28.40" rx="2" ry="2" fill="rgba(248,250,252, 0.92)" fill-opacity="0.95" stroke="#7B88A8" stroke-opacity="0.45" stroke-width="0.8"/><text x="263.42" y="1031.07" text-anchor="middle" font-family="'trebuchet ms', verdana, arial, sans-serif" font-size="16" fill="#333333"><tspan x="263.42" dy="0.00">No</tspan></text><path d="M 243.128,194.723L 243.128,196.182C243.128,197.640,243.128,200.557,243.128,203.473C243.128,206.390,243.128,209.307,244.586,210.765C246.044,212.223,248.961,212.223,258.019,212.223C267.078,212.223,282.278,212.223,291.878,212.223C301.478,212.223,305.478,212.223,307.478,214.223C309.478,216.223,309.478,220.223,309.478,390.843C309.478,561.462,309.478,898.702,309.478,1067.850C309.478,1236.999,309.478,1238.058,310.007,1238.587C310.536,1239.116,311.595,1239.116,312.124,1239.116C312.653,1239.116,312.653,1239.116,313.183,1239.116C313.712,1239.116,314.770,1239.116,315.299,1239.645C315.829,1240.175,315.829,1241.233,315.829,1244.150C315.829,1247.066,315.829,1251.841,315.829,1254.229L 315.829,1256.616" fill="none" stroke="#2F3B4D" stroke-width="2"    stroke-linecap="round" stroke-linejoin="round" /><rect x="293.50" y="496.13" width="31.97" height="28.40" rx="2" ry="2" fill="rgba(248,250,252, 0.92)" fill-opacity="0.95" stroke="#7B88A8" stroke-opacity="0.45" stroke-width="0.8"/><text x="309.48" y="514.33" text-anchor="middle" font-family="'trebuchet ms', verdana, arial, sans-serif" font-size="16" fill="#333333"><tspan x="309.48" dy="0.00">Yes</tspan></text><path d="M 283.829,1310.616L 283.829,1312.075C283.829,1313.533,283.829,1316.450,283.829,1319.366C283.829,1322.283,283.829,1325.200,282.475,1327.201C281.121,1329.202,278.414,1330.287,273.532,1332.244C268.650,1334.202,261.593,1337.031,256.711,1338.988C251.829,1340.945,249.122,1342.031,247.768,1344.032C246.415,1346.033,246.415,1348.950,246.415,1351.866C246.415,1354.783,246.415,1357.700,246.415,1359.158L 246.415,1360.616" fill="none" stroke="#2F3B4D" stroke-width="2"    stroke-linecap="round" stroke-linejoin="round" /><rect x="157.51" y="8.00" width="102.35" height="39.00" rx="19.50" ry="19.50" fill="#ECECFF" stroke="#7B88A8" stroke-width="1" stroke-linejoin="round" stroke-linecap="round"/><text x="208.69" y="31.50" text-anchor="middle" font-family="'trebuchet ms', verdana, arial, sans-serif" font-size="16" fill="#333333"><tspan x="208.69" dy="0.00">User Visit</tspan></text><polygon points="211.13,97.00 275.99,161.86 211.13,226.72 146.27,161.86" fill="#ECECFF" stroke="#7B88A8" stroke-width="1" stroke-linejoin="round" stroke-linecap="round"/><text x="211.13" y="165.86" text-anchor="middle" font-family="'trebuchet ms', verdana, arial, sans-serif" font-size="16" fill="#333333"><tspan x="211.13" dy="0.00">Logged in?</tspan></text><rect x="56.61" y="308.72" width="174.83" height="54.00" rx="3" ry="3" fill="#ECECFF" stroke="#7B88A8" stroke-width="1" stroke-linejoin="round" stroke-linecap="round"/><text x="144.02" y="339.72" text-anchor="middle" font-family="'trebuchet ms', verdana, arial, sans-serif" font-size="16" fill="#333333"><tspan x="144.02" dy="0.00">Show Login Form</tspan></text><polygon points="146.18,412.72 240.13,506.67 146.18,600.63 52.23,506.67" fill="#ECECFF" stroke="#7B88A8" stroke-width="1" stroke-linejoin="round" stroke-linecap="round"/><text x="146.18" y="510.67" text-anchor="middle" font-family="'trebuchet ms', verdana, arial, sans-serif" font-size="16" fill="#333333"><tspan x="146.18" dy="0.00">Credentials Valid?</tspan></text><rect x="13.69" y="1256.62" width="136.55" height="54.00" rx="3" ry="3" fill="#ECECFF" stroke="#7B88A8" stroke-width="1" stroke-linejoin="round" stroke-linecap="round"/><text x="81.97" y="1287.62" text-anchor="middle" font-family="'trebuchet ms', verdana, arial, sans-serif" font-size="16" fill="#333333"><tspan x="81.97" dy="0.00">Show Error</tspan></text><polygon points="215.42,682.63 287.55,754.76 215.42,826.89 143.29,754.76" fill="#ECECFF" stroke="#7B88A8" stroke-width="1" stroke-linejoin="round" stroke-linecap="round"/><text x="215.42" y="758.76" text-anchor="middle" font-family="'trebuchet ms', verdana, arial, sans-serif" font-size="16" fill="#333333"><tspan x="215.42" dy="0.00">2FA Enabled?</tspan></text><rect x="112.13" y="908.89" width="121.26" height="54.00" rx="3" ry="3" fill="#ECECFF" stroke="#7B88A8" stroke-width="1" stroke-linejoin="round" stroke-linecap="round"/><text x="172.76" y="939.89" text-anchor="middle" font-family="'trebuchet ms', verdana, arial, sans-serif" font-size="16" fill="#333333"><tspan x="172.76" dy="0.00">Send OTP</tspan></text><polygon points="177.65,1044.89 242.51,1109.75 177.65,1174.62 112.79,1109.75" fill="#ECECFF" stroke="#7B88A8" stroke-width="1" stroke-linejoin="round" stroke-linecap="round"/><text x="177.65" y="1113.75" text-anchor="middle" font-family="'trebuchet ms', verdana, arial, sans-serif" font-size="16" fill="#333333"><tspan x="177.65" dy="0.00">OTP Valid?</tspan></text><rect x="200.24" y="1256.62" width="167.17" height="54.00" rx="3" ry="3" fill="#ECECFF" stroke="#7B88A8" stroke-width="1" stroke-linejoin="round" stroke-linecap="round"/><text x="283.83" y="1287.62" text-anchor="middle" font-family="'trebuchet ms', verdana, arial, sans-serif" font-size="16" fill="#333333"><tspan x="283.83" dy="0.00">Create Session</tspan></text><rect x="181.97" y="1360.62" width="128.90" height="54.00" rx="3" ry="3" fill="#ECECFF" stroke="#7B88A8" stroke-width="1" stroke-linejoin="round" stroke-linecap="round"/><text x="246.41" y="1391.62" text-anchor="middle" font-family="'trebuchet ms', verdana, arial, sans-serif" font-size="16" fill="#333333"><tspan x="246.41" dy="0.00">Dashboard</tspan></text><g transform="translate(211.13 97.00) rotate(90.00)"><polygon points="0,0 -10.40,6.24 -10.40,-6.24" fill="#2F3B4D" stroke="#2F3B4D" stroke-width="2" stroke-linejoin="round" stroke-linecap="round"/></g><g transform="translate(144.02 308.72) rotate(90.00)"><polygon points="0,0 -10.40,6.24 -10.40,-6.24" fill="#2F3B4D" stroke="#2F3B4D" stroke-width="2" stroke-linejoin="round" stroke-linecap="round"/></g><g transform="translate(146.18 412.72) rotate(90.00)"><polygon points="0,0 -10.40,6.24 -10.40,-6.24" fill="#2F3B4D" stroke="#2F3B4D" stroke-width="2" stroke-linejoin="round" stroke-linecap="round"/></g><g transform="translate(49.97 1256.62) rotate(90.00)"><polygon points="0,0 -10.40,6.24 -10.40,-6.24" fill="#2F3B4D" stroke="#2F3B4D" stroke-width="2" stroke-linejoin="round" stroke-linecap="round"/></g><g transform="translate(80.02 362.72) rotate(-90.00)"><polygon points="0,0 -10.40,6.24 -10.40,-6.24" fill="#2F3B4D" stroke="#2F3B4D" stroke-width="2" stroke-linejoin="round" stroke-linecap="round"/></g><g transform="translate(215.42 682.63) rotate(90.00)"><polygon points="0,0 -10.40,6.24 -10.40,-6.24" fill="#2F3B4D" stroke="#2F3B4D" stroke-width="2" stroke-linejoin="round" stroke-linecap="round"/></g><g transform="translate(172.76 908.89) rotate(90.00)"><polygon points="0,0 -10.40,6.24 -10.40,-6.24" fill="#2F3B4D" stroke="#2F3B4D" stroke-width="2" stroke-linejoin="round" stroke-linecap="round"/></g><g transform="translate(177.65 1044.89) rotate(90.00)"><polygon points="0,0 -10.40,6.24 -10.40,-6.24" fill="#2F3B4D" stroke="#2F3B4D" stroke-width="2" stroke-linejoin="round" stroke-linecap="round"/></g><g transform="translate(129.97 1256.62) rotate(90.00)"><polygon points="0,0 -10.40,6.24 -10.40,-6.24" fill="#2F3B4D" stroke="#2F3B4D" stroke-width="2" stroke-linejoin="round" stroke-linecap="round"/></g><g transform="translate(219.83 1256.62) rotate(90.00)"><polygon points="0,0 -10.40,6.24 -10.40,-6.24" fill="#2F3B4D" stroke="#2F3B4D" stroke-width="2" stroke-linejoin="round" stroke-linecap="round"/></g><g transform="translate(347.83 1256.62) rotate(90.00)"><polygon points="0,0 -10.40,6.24 -10.40,-6.24" fill="#2F3B4D" stroke="#2F3B4D" stroke-width="2" stroke-linejoin="round" stroke-linecap="round"/></g><g transform="translate(315.83 1256.62) rotate(90.00)"><polygon points="0,0 -10.40,6.24 -10.40,-6.24" fill="#2F3B4D" stroke="#2F3B4D" stroke-width="2" stroke-linejoin="round" stroke-linecap="round"/></g><g transform="translate(246.41 1360.62) rotate(90.00)"><polygon points="0,0 -10.40,6.24 -10.40,-6.24" fill="#2F3B4D" stroke="#2F3B4D" stroke-width="2" stroke-linejoin="round" stroke-linecap="round"/></g></svg>