<svg xmlns="http://www.w3.org/2000/svg" width="1044.0787" height="134.77133" viewBox="0 0 1044.0787 134.77133"><rect x="0" y="0" width="1044.0787" height="134.77133" fill="#FFFFFF"/><defs><marker id="arrow-0" viewBox="0 0 10 10" refX="5" refY="5" markerUnits="userSpaceOnUse" markerWidth="8" markerHeight="8" orient="auto"><path d="M 0 0 L 10 5 L 0 10 z" fill="#2F3B4D" stroke="#2F3B4D" stroke-width="1" stroke-dasharray="1,0"/></marker><marker id="arrow-start-0" viewBox="0 0 10 10" refX="4.5" refY="5" markerUnits="userSpaceOnUse" markerWidth="8" markerHeight="8" orient="auto"><path d="M 0 5 L 10 10 L 10 0 z" fill="#2F3B4D" stroke="#2F3B4D" stroke-width="1" stroke-dasharray="1,0"/></marker></defs><path d="M 113.930,70.939 L 260.563,70.944" fill="none" stroke="#2F3B4D" stroke-width="2"    stroke-linecap="round" stroke-linejoin="round" /><rect x="140.64" y="45.54" width="93.21" height="28.40" rx="2" ry="2" fill="rgba(248,250,252, 0.92)" fill-opacity="0.95" stroke="#7B88A8" stroke-opacity="0.45" stroke-width="0.8"/><text x="187.25" y="63.74" text-anchor="middle" font-family="'trebuchet ms', verdana, arial, sans-serif" font-size="16" fill="#333333"><tspan x="187.25" dy="0.00">POST /login</tspan></text><path d="M 404.769,70.944L 406.133,70.944C407.497,70.944,410.225,70.944,412.954,70.944C415.682,70.944,418.410,70.944,421.139,70.944C423.867,70.945,426.595,70.945,448.041,70.950C469.486,70.955,509.649,70.964,531.094,70.969C552.539,70.974,555.268,70.975,557.996,70.975C560.724,70.976,563.453,70.976,566.181,70.976C568.909,70.976,571.638,70.976,573.002,70.976L 574.366,70.976" fill="none" stroke="#2F3B4D" stroke-width="2"    stroke-linecap="round" stroke-linejoin="round" /><rect x="427.66" y="45.56" width="123.83" height="28.40" rx="2" ry="2" fill="rgba(248,250,252, 0.92)" fill-opacity="0.95" stroke="#7B88A8" stroke-opacity="0.45" stroke-width="0.8"/><text x="489.57" y="63.76" text-anchor="middle" font-family="'trebuchet ms', verdana, arial, sans-serif" font-size="16" fill="#333333"><tspan x="489.57" dy="0.00">Forward request</tspan></text><path d="M 726.227,70.976L 727.591,70.976C728.955,70.976,731.684,70.976,734.412,70.976C737.140,70.976,739.869,70.976,742.597,70.976C745.325,70.976,748.054,70.976,772.051,70.980C796.048,70.983,841.314,70.990,865.311,70.993C889.308,70.997,892.036,70.997,894.765,70.997C897.493,70.997,900.221,70.997,902.950,70.997C905.678,70.997,908.406,70.997,909.771,70.997L 911.135,70.997" fill="none" stroke="#2F3B4D" stroke-width="2"    stroke-linecap="round" stroke-linejoin="round" /><rect x="749.11" y="45.59" width="139.14" height="28.40" rx="2" ry="2" fill="rgba(248,250,252, 0.92)" fill-opacity="0.95" stroke="#7B88A8" stroke-opacity="0.45" stroke-width="0.8"/><text x="818.68" y="63.79" text-anchor="middle" font-family="'trebuchet ms', verdana, arial, sans-serif" font-size="16" fill="#333333"><tspan x="818.68" dy="0.00">Query credentials</tspan></text><path d="M 911.135,86.997L 909.771,86.997C908.406,86.997,905.678,86.997,902.950,86.997C900.221,86.997,897.493,86.997,894.765,86.997C892.036,86.997,889.308,86.997,865.311,86.993C841.314,86.990,796.048,86.983,772.051,86.980C748.054,86.976,745.325,86.976,742.597,86.976C739.869,86.976,737.140,86.976,734.412,86.976C731.684,86.976,728.955,86.976,727.591,86.976L 726.227,86.976" fill="none" stroke="#2F3B4D" stroke-width="2"    stroke-linecap="round" stroke-linejoin="round" /><rect x="772.08" y="83.99" width="93.21" height="28.40" rx="2" ry="2" fill="rgba(248,250,252, 0.92)" fill-opacity="0.95" stroke="#7B88A8" stroke-opacity="0.45" stroke-width="0.8"/><text x="818.68" y="102.19" text-anchor="middle" font-family="'trebuchet ms', verdana, arial, sans-serif" font-size="16" fill="#333333"><tspan x="818.68" dy="0.00">Return user</tspan></text><path d="M 574.366,86.976L 573.002,86.976C571.638,86.976,568.909,86.976,566.181,86.976C563.453,86.976,560.724,86.976,557.996,86.975C555.268,86.975,552.539,86.974,531.094,86.969C509.649,86.964,469.486,86.955,448.041,86.950C426.595,86.945,423.867,86.945,421.139,86.944C418.410,86.944,415.682,86.944,412.954,86.944C410.225,86.944,407.497,86.944,406.133,86.944L 404.769,86.944" fill="none" stroke="#2F3B4D" stroke-width="2"    stroke-linecap="round" stroke-linejoin="round" /><rect x="431.48" y="83.96" width="116.17" height="28.40" rx="2" ry="2" fill="rgba(248,250,252, 0.92)" fill-opacity="0.95" stroke="#7B88A8" stroke-opacity="0.45" stroke-width="0.8"/><text x="489.56" y="102.16" text-anchor="middle" font-family="'trebuchet ms', verdana, arial, sans-serif" font-size="16" fill="#333333"><tspan x="489.56" dy="0.00">Generate token</tspan></text><path d="M 260.563,86.944 L 113.930,86.939" fill="none" stroke="#2F3B4D" stroke-width="2"    stroke-linecap="round" stroke-linejoin="round" /><rect x="136.82" y="80.34" width="100.86" height="52.40" rx="2" ry="2" fill="rgba(248,250,252, 0.92)" fill-opacity="0.95" stroke="#7B88A8" stroke-opacity="0.45" stroke-width="0.8"/><text x="187.25" y="98.54" text-anchor="middle" font-family="'trebuchet ms', verdana, arial, sans-serif" font-size="16" fill="#333333"><tspan x="187.25" dy="0.00">Set cookie &amp;</tspan><tspan x="187.25" dy="24.00">return 200</tspan></text><rect x="8.00" y="43.94" width="105.93" height="54.00" rx="3" ry="3" fill="#ECECFF" stroke="#7B88A8" stroke-width="1" stroke-linejoin="round" stroke-linecap="round"/><text x="60.97" y="74.94" text-anchor="middle" font-family="'trebuchet ms', verdana, arial, sans-serif" font-size="16" fill="#333333"><tspan x="60.97" dy="0.00">Client</tspan></text><rect x="260.56" y="43.94" width="144.21" height="54.00" rx="3" ry="3" fill="#ECECFF" stroke="#7B88A8" stroke-width="1" stroke-linejoin="round" stroke-linecap="round"/><text x="332.67" y="74.94" text-anchor="middle" font-family="'trebuchet ms', verdana, arial, sans-serif" font-size="16" fill="#333333"><tspan x="332.67" dy="0.00">API Gateway</tspan></text><rect x="574.37" y="43.98" width="151.86" height="54.00" rx="3" ry="3" fill="#ECECFF" stroke="#7B88A8" stroke-width="1" stroke-linejoin="round" stroke-linecap="round"/><text x="650.30" y="74.98" text-anchor="middle" font-family="'trebuchet ms', verdana, arial, sans-serif" font-size="16" fill="#333333"><tspan x="650.30" dy="0.00">Auth Service</tspan></text><ellipse cx="973.61" cy="48.43" rx="62.47" ry="7.13" fill="#ECECFF" stroke="#7B88A8" stroke-width="1" stroke-linejoin="round" stroke-linecap="round"/><rect x="911.13" y="48.43" width="124.94" height="45.14" fill="#ECECFF" stroke="#7B88A8" stroke-width="1" stroke-linejoin="round" stroke-linecap="round"/><ellipse cx="973.61" cy="93.57" rx="62.47" ry="7.13" fill="none" stroke="#7B88A8" stroke-width="1" stroke-linejoin="round" stroke-linecap="round"/><text x="973.61" y="75.00" text-anchor="middle" font-family="'trebuchet ms', verdana, arial, sans-serif" font-size="16" fill="#333333"><tspan x="973.61" dy="0.00">User DB</tspan></text><g transform="translate(260.56 70.94) rotate(0.00)"><polygon points="0,0 -10.40,6.24 -10.40,-6.24" fill="#2F3B4D" stroke="#2F3B4D" stroke-width="2" stroke-linejoin="round" stroke-linecap="round"/></g><g transform="translate(574.37 70.98) rotate(0.00)"><polygon points="0,0 -10.40,6.24 -10.40,-6.24" fill="#2F3B4D" stroke="#2F3B4D" stroke-width="2" stroke-linejoin="round" stroke-linecap="round"/></g><g transform="translate(911.13 71.00) rotate(0.00)"><polygon points="0,0 -10.40,6.24 -10.40,-6.24" fill="#2F3B4D" stroke="#2F3B4D" stroke-width="2" stroke-linejoin="round" stroke-linecap="round"/></g><g transform="translate(726.23 86.98) rotate(180.00)"><polygon points="0,0 -10.40,6.24 -10.40,-6.24" fill="#2F3B4D" stroke="#2F3B4D" stroke-width="2" stroke-linejoin="round" stroke-linecap="round"/></g><g transform="translate(404.77 86.94) rotate(180.00)"><polygon points="0,0 -10.40,6.24 -10.40,-6.24" fill="#2F3B4D" stroke="#2F3B4D" stroke-width="2" stroke-linejoin="round" stroke-linecap="round"/></g><g transform="translate(113.93 86.94) rotate(180.00)"><polygon points="0,0 -10.40,6.24 -10.40,-6.24" fill="#2F3B4D" stroke="#2F3B4D" stroke-width="2" stroke-linejoin="round" stroke-linecap="round"/></g></svg>