<svg xmlns="http://www.w3.org/2000/svg" width="1789.0605" height="877.5331" viewBox="0 0 1789.0605 877.5331"><rect x="0" y="0" width="1789.0605" height="877.5331" fill="#FFFFFF"/><defs><marker id="arrow-0" viewBox="0 0 10 10" refX="5" refY="5" markerUnits="userSpaceOnUse" markerWidth="8" markerHeight="8" orient="auto"><path d="M 0 0 L 10 5 L 0 10 z" fill="#2F3B4D" stroke="#2F3B4D" stroke-width="1" stroke-dasharray="1,0"/></marker><marker id="arrow-start-0" viewBox="0 0 10 10" refX="4.5" refY="5" markerUnits="userSpaceOnUse" markerWidth="8" markerHeight="8" orient="auto"><path d="M 0 5 L 10 10 L 10 0 z" fill="#2F3B4D" stroke="#2F3B4D" stroke-width="1" stroke-dasharray="1,0"/></marker></defs><path d="M 449.700,324.658L 448.242,324.658C446.784,324.658,443.867,324.658,440.950,324.658C438.034,324.658,435.117,324.658,432.956,325.936C430.796,327.214,429.391,329.770,414.456,356.952C399.521,384.133,371.055,435.940,355.860,463.597C340.664,491.253,338.737,494.759,336.151,495.342C333.566,495.926,330.320,493.588,294.722,467.943C259.123,442.299,191.171,393.348,156.012,368.020C120.853,342.691,118.487,340.987,115.845,340.134C113.204,339.282,110.287,339.282,107.370,339.282C104.454,339.282,101.537,339.282,100.079,339.282L 98.620,339.282" fill="none" stroke="#2F3B4D" stroke-width="2"    stroke-linecap="round" stroke-linejoin="round" /><rect x="228.97" y="484.06" width="215.69" height="28.40" rx="2" ry="2" fill="rgba(248,250,252, 0.92)" fill-opacity="0.95" stroke="#7B88A8" stroke-opacity="0.45" stroke-width="0.8"/><text x="336.81" y="502.26" text-anchor="middle" font-family="'trebuchet ms', verdana, arial, sans-serif" font-size="16" fill="#333333"><tspan x="336.81" dy="0.00">1. Prompt to authorise sync</tspan></text><path d="M 613.780,324.658L 615.238,324.658C616.697,324.658,619.613,324.658,622.530,324.658C625.447,324.658,628.363,324.658,630.937,325.597C633.510,326.537,635.741,328.417,654.558,344.274C673.375,360.131,708.779,389.966,728.010,406.172C747.242,422.378,750.300,424.956,753.026,424.641C755.751,424.327,758.143,421.121,770.696,404.292C783.249,387.464,805.964,357.014,818.193,340.619C830.422,324.225,832.166,321.887,834.497,320.718C836.827,319.549,839.744,319.549,842.660,319.549C845.577,319.549,848.494,319.549,849.952,319.549L 851.410,319.549" fill="none" stroke="#2F3B4D" stroke-width="2"    stroke-linecap="round" stroke-linejoin="round" /><rect x="660.83" y="401.33" width="185.07" height="52.40" rx="2" ry="2" fill="rgba(248,250,252, 0.92)" fill-opacity="0.95" stroke="#7B88A8" stroke-opacity="0.45" stroke-width="0.8"/><text x="753.36" y="419.53" text-anchor="middle" font-family="'trebuchet ms', verdana, arial, sans-serif" font-size="16" fill="#333333"><tspan x="753.36" dy="0.00">2. Check connectivity &amp;</tspan><tspan x="753.36" dy="24.00">compatibility</tspan></text><path d="M 978.288,335.549L 979.747,335.549C981.205,335.549,984.122,335.549,987.038,335.549C989.955,335.549,992.872,335.549,995.787,335.487C998.702,335.425,1001.616,335.301,1036.931,333.795C1072.246,332.289,1139.961,329.401,1175.817,327.871C1211.672,326.342,1215.669,326.172,1219.613,326.549C1223.557,326.927,1227.448,327.852,1242.308,331.385C1257.168,334.918,1282.996,341.059,1297.328,344.467C1311.661,347.875,1314.499,348.550,1317.376,348.887C1320.253,349.225,1323.170,349.225,1326.086,349.225C1329.003,349.225,1331.920,349.225,1333.378,349.225L 1334.836,349.225" fill="none" stroke="#2F3B4D" stroke-width="2"    stroke-linecap="round" stroke-linejoin="round" /><rect x="1107.99" y="299.80" width="223.34" height="52.40" rx="2" ry="2" fill="rgba(248,250,252, 0.92)" fill-opacity="0.95" stroke="#7B88A8" stroke-opacity="0.45" stroke-width="0.8"/><text x="1219.67" y="318.00" text-anchor="middle" font-family="'trebuchet ms', verdana, arial, sans-serif" font-size="16" fill="#333333"><tspan x="1219.67" dy="0.00">3. Fetch stored elements for</tspan><tspan x="1219.67" dy="24.00">OPAQUE</tspan></text><path d="M 849.393,335.549L 847.934,335.549C846.476,335.549,843.559,335.549,840.643,335.549C837.726,335.549,834.809,335.549,832.864,336.924C830.919,338.299,829.946,341.049,814.335,385.160C798.724,429.272,768.474,514.747,752.682,559.369C736.890,603.992,735.556,607.762,734.188,607.775C732.819,607.787,731.417,604.041,715.029,560.261C698.641,516.481,667.267,432.666,651.069,389.394C634.871,346.121,633.848,343.389,631.879,342.023C629.909,340.658,626.992,340.658,624.076,340.658C621.159,340.658,618.242,340.658,616.784,340.658L 615.326,340.658" fill="none" stroke="#2F3B4D" stroke-width="2"    stroke-linecap="round" stroke-linejoin="round" /><rect x="660.83" y="597.33" width="146.79" height="28.40" rx="2" ry="2" fill="rgba(248,250,252, 0.92)" fill-opacity="0.95" stroke="#7B88A8" stroke-opacity="0.45" stroke-width="0.8"/><text x="734.22" y="615.53" text-anchor="middle" font-family="'trebuchet ms', verdana, arial, sans-serif" font-size="16" fill="#333333"><tspan x="734.22" dy="0.00">4. Sends challenge</tspan></text><path d="M 98.620,339.282L 100.079,339.282C101.537,339.282,104.454,339.282,107.370,339.282C110.287,339.282,113.204,339.282,116.120,339.286C119.037,339.291,121.954,339.299,154.822,339.399C187.690,339.498,250.509,339.688,283.919,339.788C317.329,339.889,321.329,339.901,325.304,340.217C329.280,340.533,333.232,341.152,349.603,343.717C365.975,346.282,394.765,350.793,410.601,353.274C426.437,355.755,429.319,356.206,432.218,356.432C435.117,356.658,438.034,356.658,440.950,356.658C443.867,356.658,446.784,356.658,448.242,356.658L 449.700,356.658" fill="none" stroke="#2F3B4D" stroke-width="2"    stroke-linecap="round" stroke-linejoin="round" /><rect x="228.97" y="313.71" width="192.72" height="52.40" rx="2" ry="2" fill="rgba(248,250,252, 0.92)" fill-opacity="0.95" stroke="#7B88A8" stroke-opacity="0.45" stroke-width="0.8"/><text x="325.33" y="331.91" text-anchor="middle" font-family="'trebuchet ms', verdana, arial, sans-serif" font-size="16" fill="#333333"><tspan x="325.33" dy="0.00">5. Enter master password</tspan><tspan x="325.33" dy="24.00">and confirm sync</tspan></text><path d="M 600.169,292.658L 601.628,292.658C603.086,292.658,606.003,292.658,608.919,292.658C611.836,292.658,614.753,292.658,616.753,291.304C618.754,289.950,619.838,287.243,634.055,251.754C648.271,216.265,675.619,147.994,690.036,112.002C704.454,76.011,705.941,72.297,708.479,71.325C711.016,70.353,714.604,72.122,734.241,81.805C753.879,91.488,789.566,109.085,808.717,118.528C827.869,127.971,830.485,129.261,833.251,129.906C836.017,130.551,838.934,130.551,841.851,130.551C844.767,130.551,847.684,130.551,849.142,130.551L 850.601,130.551" fill="none" stroke="#2F3B4D" stroke-width="2"    stroke-linecap="round" stroke-linejoin="round" /><rect x="660.83" y="54.38" width="93.21" height="28.40" rx="2" ry="2" fill="rgba(248,250,252, 0.92)" fill-opacity="0.95" stroke="#7B88A8" stroke-opacity="0.45" stroke-width="0.8"/><text x="707.43" y="72.58" text-anchor="middle" font-family="'trebuchet ms', verdana, arial, sans-serif" font-size="16" fill="#333333"><tspan x="707.43" dy="0.00">6. Password</tspan></text><path d="M 870.755,178.551L 869.297,178.551C867.838,178.551,864.922,178.551,862.005,178.551C859.088,178.551,856.172,178.551,854.262,179.938C852.352,181.324,851.450,184.098,824.575,266.693C797.700,349.288,744.852,511.705,717.809,594.815C690.766,677.926,689.529,681.729,688.556,681.663C687.583,681.596,686.876,677.659,675.363,613.615C663.851,549.571,641.534,425.421,630.118,361.910C618.701,298.399,618.185,295.528,616.469,294.093C614.753,292.658,611.836,292.658,608.919,292.658C606.003,292.658,603.086,292.658,601.628,292.658L 600.169,292.658" fill="none" stroke="#2F3B4D" stroke-width="2"    stroke-linecap="round" stroke-linejoin="round" /><rect x="660.83" y="671.33" width="54.93" height="28.40" rx="2" ry="2" fill="rgba(248,250,252, 0.92)" fill-opacity="0.95" stroke="#7B88A8" stroke-opacity="0.45" stroke-width="0.8"/><text x="688.29" y="689.53" text-anchor="middle" font-family="'trebuchet ms', verdana, arial, sans-serif" font-size="16" fill="#333333"><tspan x="688.29" dy="0.00">7. Ke1</tspan></text><path d="M 613.780,356.658L 615.238,356.658C616.697,356.658,619.613,356.658,622.530,356.658C625.447,356.658,628.363,356.658,630.608,355.429C632.852,354.201,634.423,351.744,642.848,338.574C651.272,325.405,666.548,301.523,675.264,287.898C683.980,274.272,686.136,270.903,688.946,270.217C691.756,269.532,695.220,271.531,718.227,284.805C741.234,298.079,783.783,322.628,806.320,335.631C828.858,348.634,831.384,350.092,834.105,350.821C836.827,351.549,839.744,351.549,842.660,351.549C845.577,351.549,848.494,351.549,849.952,351.549L 851.410,351.549" fill="none" stroke="#2F3B4D" stroke-width="2"    stroke-linecap="round" stroke-linejoin="round" /><rect x="660.83" y="253.33" width="54.93" height="28.40" rx="2" ry="2" fill="rgba(248,250,252, 0.92)" fill-opacity="0.95" stroke="#7B88A8" stroke-opacity="0.45" stroke-width="0.8"/><text x="688.29" y="271.53" text-anchor="middle" font-family="'trebuchet ms', verdana, arial, sans-serif" font-size="16" fill="#333333"><tspan x="688.29" dy="0.00">8. Ke1</tspan></text><path d="M 969.783,367.549L 971.241,367.549C972.699,367.549,975.616,367.549,978.533,367.549C981.449,367.549,984.366,367.549,987.040,368.355C989.714,369.160,992.146,370.770,1025.382,392.777C1058.617,414.783,1122.656,457.186,1156.343,479.492C1190.030,501.798,1193.365,504.006,1197.013,504.829C1200.660,505.653,1204.621,505.091,1225.187,502.172C1245.753,499.254,1282.925,493.979,1302.955,491.137C1322.985,488.295,1325.873,487.885,1328.775,487.680C1331.677,487.475,1334.594,487.475,1337.511,487.475C1340.427,487.475,1343.344,487.475,1344.802,487.475L 1346.260,487.475" fill="none" stroke="#2F3B4D" stroke-width="2"    stroke-linecap="round" stroke-linejoin="round" /><rect x="1107.99" y="432.01" width="177.41" height="148.40" rx="2" ry="2" fill="rgba(248,250,252, 0.92)" fill-opacity="0.95" stroke="#7B88A8" stroke-opacity="0.45" stroke-width="0.8"/><text x="1196.70" y="450.21" text-anchor="middle" font-family="'trebuchet ms', verdana, arial, sans-serif" font-size="16" fill="#333333"><tspan x="1196.70" dy="0.00">9. self_identity,</tspan><tspan x="1196.70" dy="24.00">self_private_key,</tspan><tspan x="1196.70" dy="24.00">self_public_key,</tspan><tspan x="1196.70" dy="24.00">client_record,</tspan><tspan x="1196.70" dy="24.00">credential_identifier,</tspan><tspan x="1196.70" dy="24.00">oprf_seed, ke1</tspan></text><path d="M 1336.044,551.475L 1334.586,551.475C1333.128,551.475,1330.211,551.475,1327.294,551.475C1324.378,551.475,1321.461,551.475,1318.696,552.122C1315.931,552.769,1313.317,554.063,1285.233,567.966C1257.149,581.868,1203.595,608.380,1175.026,622.522C1146.456,636.665,1142.872,638.440,1140.105,637.580C1137.339,636.721,1135.391,633.227,1110.767,589.057C1086.144,544.886,1038.843,460.039,1014.483,416.342C990.123,372.645,988.703,370.097,986.534,368.823C984.366,367.549,981.449,367.549,978.533,367.549C975.616,367.549,972.699,367.549,971.241,367.549L 969.783,367.549" fill="none" stroke="#2F3B4D" stroke-width="2"    stroke-linecap="round" stroke-linejoin="round" /><rect x="1107.99" y="626.01" width="62.59" height="28.40" rx="2" ry="2" fill="rgba(248,250,252, 0.92)" fill-opacity="0.95" stroke="#7B88A8" stroke-opacity="0.45" stroke-width="0.8"/><text x="1139.29" y="644.21" text-anchor="middle" font-family="'trebuchet ms', verdana, arial, sans-serif" font-size="16" fill="#333333"><tspan x="1139.29" dy="0.00">10. Ke2</tspan></text><path d="M 851.410,351.549L 849.952,351.549C848.494,351.549,845.577,351.549,842.660,351.549C839.744,351.549,836.827,351.549,834.890,352.927C832.953,354.304,831.995,357.059,809.020,423.168C786.045,489.276,741.051,618.737,717.898,685.357C694.745,751.976,693.432,755.755,692.477,755.666C691.521,755.578,690.924,751.623,681.002,685.919C671.080,620.215,651.833,492.762,641.992,427.594C632.151,362.426,631.716,359.542,630.039,358.100C628.363,356.658,625.447,356.658,622.530,356.658C619.613,356.658,616.697,356.658,615.238,356.658L 613.780,356.658" fill="none" stroke="#2F3B4D" stroke-width="2"    stroke-linecap="round" stroke-linejoin="round" /><rect x="660.83" y="745.33" width="62.59" height="28.40" rx="2" ry="2" fill="rgba(248,250,252, 0.92)" fill-opacity="0.95" stroke="#7B88A8" stroke-opacity="0.45" stroke-width="0.8"/><text x="692.12" y="763.53" text-anchor="middle" font-family="'trebuchet ms', verdana, arial, sans-serif" font-size="16" fill="#333333"><tspan x="692.12" dy="0.00">11. Ke2</tspan></text><path d="M 600.169,388.658L 601.628,388.658C603.086,388.658,606.003,388.658,608.919,388.658C611.836,388.658,614.753,388.658,617.191,389.738C619.629,390.818,621.589,392.978,640.947,414.309C660.304,435.640,697.058,476.144,716.779,497.876C736.500,519.609,739.189,522.571,742.505,523.722C745.822,524.873,749.767,524.212,765.235,521.622C780.704,519.032,807.695,514.513,822.629,512.012C837.563,509.511,840.440,509.030,843.337,508.789C846.233,508.548,849.150,508.548,852.067,508.548C854.983,508.548,857.900,508.548,859.358,508.548L 860.817,508.548" fill="none" stroke="#2F3B4D" stroke-width="2"    stroke-linecap="round" stroke-linejoin="round" /><rect x="660.83" y="499.33" width="162.10" height="52.40" rx="2" ry="2" fill="rgba(248,250,252, 0.92)" fill-opacity="0.95" stroke="#7B88A8" stroke-opacity="0.45" stroke-width="0.8"/><text x="741.88" y="517.53" text-anchor="middle" font-family="'trebuchet ms', verdana, arial, sans-serif" font-size="16" fill="#333333"><tspan x="741.88" dy="0.00">12. self_identity,</tspan><tspan x="741.88" dy="24.00">server_identity, ke2</tspan></text><path d="M 849.393,556.548L 847.934,556.548C846.476,556.548,843.559,556.548,840.643,556.548C837.726,556.548,834.809,556.548,832.934,557.946C831.059,559.343,830.225,562.138,816.432,608.386C802.639,654.633,775.886,744.333,761.938,791.100C747.991,837.867,746.847,841.700,745.736,841.691C744.625,841.681,743.545,837.830,722.600,763.088C701.654,688.346,660.842,542.715,640.043,468.495C619.243,394.275,618.456,391.466,616.604,390.062C614.753,388.658,611.836,388.658,608.919,388.658C606.003,388.658,603.086,388.658,601.628,388.658L 600.169,388.658" fill="none" stroke="#2F3B4D" stroke-width="2"    stroke-linecap="round" stroke-linejoin="round" /><rect x="660.83" y="819.33" width="169.76" height="52.40" rx="2" ry="2" fill="rgba(248,250,252, 0.92)" fill-opacity="0.95" stroke="#7B88A8" stroke-opacity="0.45" stroke-width="0.8"/><text x="745.70" y="837.53" text-anchor="middle" font-family="'trebuchet ms', verdana, arial, sans-serif" font-size="16" fill="#333333"><tspan x="745.70" dy="0.00">13. Ke3, session_key,</tspan><tspan x="745.70" dy="24.00">export_key</tspan></text><path d="M 608.958,372.658L 610.416,372.658C611.874,372.658,614.791,372.658,617.708,372.658C620.624,372.658,623.541,372.658,626.317,372.033C629.093,371.408,631.729,370.159,640.865,365.828C650.001,361.498,665.638,354.085,675.264,349.523C684.890,344.960,688.504,343.246,692.281,342.735C696.058,342.224,699.998,342.916,723.275,347.000C746.552,351.084,789.166,358.561,811.909,362.551C834.653,366.541,837.526,367.045,840.420,367.297C843.315,367.549,846.232,367.549,849.148,367.549C852.065,367.549,854.982,367.549,856.440,367.549L 857.898,367.549" fill="none" stroke="#2F3B4D" stroke-width="2"    stroke-linecap="round" stroke-linejoin="round" /><rect x="660.83" y="327.33" width="62.59" height="28.40" rx="2" ry="2" fill="rgba(248,250,252, 0.92)" fill-opacity="0.95" stroke="#7B88A8" stroke-opacity="0.45" stroke-width="0.8"/><text x="692.12" y="345.53" text-anchor="middle" font-family="'trebuchet ms', verdana, arial, sans-serif" font-size="16" fill="#333333"><tspan x="692.12" dy="0.00">14. Ke3</tspan></text><path d="M 969.783,303.549L 971.241,303.549C972.699,303.549,975.616,303.549,978.533,303.549C981.449,303.549,984.366,303.549,986.855,302.518C989.345,301.487,991.407,299.424,1015.327,275.503C1039.247,251.581,1085.024,205.801,1109.327,181.496C1133.630,157.192,1136.458,154.363,1139.871,153.034C1143.283,151.706,1147.280,151.876,1175.497,153.083C1203.715,154.289,1256.155,156.531,1283.832,157.714C1311.508,158.897,1314.422,159.022,1317.338,159.084C1320.253,159.146,1323.170,159.146,1326.086,159.146C1329.003,159.146,1331.920,159.146,1333.378,159.146L 1334.836,159.146" fill="none" stroke="#2F3B4D" stroke-width="2"    stroke-linecap="round" stroke-linejoin="round" /><rect x="1107.99" y="137.33" width="62.59" height="28.40" rx="2" ry="2" fill="rgba(248,250,252, 0.92)" fill-opacity="0.95" stroke="#7B88A8" stroke-opacity="0.45" stroke-width="0.8"/><text x="1139.29" y="155.53" text-anchor="middle" font-family="'trebuchet ms', verdana, arial, sans-serif" font-size="16" fill="#333333"><tspan x="1139.29" dy="0.00">15. Ke3</tspan></text><path d="M 1345.820,207.146L 1344.361,207.146C1342.903,207.146,1339.986,207.146,1337.069,207.146C1334.153,207.146,1331.236,207.146,1329.343,208.538C1327.450,209.930,1326.580,212.714,1300.774,295.317C1274.969,377.919,1224.227,540.340,1198.260,623.459C1172.293,706.578,1171.100,710.396,1169.688,710.479C1168.277,710.562,1166.647,706.909,1137.885,642.463C1109.123,578.017,1053.230,452.779,1024.689,388.827C996.148,324.876,994.959,322.213,992.907,320.881C990.854,319.549,987.937,319.549,985.021,319.549C982.104,319.549,979.187,319.549,977.729,319.549L 976.271,319.549" fill="none" stroke="#2F3B4D" stroke-width="2"    stroke-linecap="round" stroke-linejoin="round" /><rect x="1107.99" y="700.01" width="123.83" height="28.40" rx="2" ry="2" fill="rgba(248,250,252, 0.92)" fill-opacity="0.95" stroke="#7B88A8" stroke-opacity="0.45" stroke-width="0.8"/><text x="1169.91" y="718.21" text-anchor="middle" font-family="'trebuchet ms', verdana, arial, sans-serif" font-size="16" fill="#333333"><tspan x="1169.91" dy="0.00">16. session_key</tspan></text><circle cx="913.84" cy="335.55" r="64.45" fill="#ECECFF" stroke="#7B88A8" stroke-width="1" stroke-linejoin="round" stroke-linecap="round"/><circle cx="913.84" cy="335.55" r="60.45" fill="none" stroke="#7B88A8" stroke-width="1" stroke-linejoin="round" stroke-linecap="round"/><text x="913.84" y="339.55" text-anchor="middle" font-family="'trebuchet ms', verdana, arial, sans-serif" font-size="16" fill="#333333"><tspan x="913.84" dy="0.00">Baldr API</tspan></text><circle cx="531.74" cy="340.66" r="83.59" fill="#ECECFF" stroke="#7B88A8" stroke-width="1" stroke-linejoin="round" stroke-linecap="round"/><circle cx="531.74" cy="340.66" r="79.59" fill="none" stroke="#7B88A8" stroke-width="1" stroke-linejoin="round" stroke-linecap="round"/><text x="531.74" y="344.66" text-anchor="middle" font-family="'trebuchet ms', verdana, arial, sans-serif" font-size="16" fill="#333333"><tspan x="531.74" dy="0.00">Forseti Client</tspan></text><circle cx="955.94" cy="114.55" r="106.55" fill="#ECECFF" stroke="#7B88A8" stroke-width="1" stroke-linejoin="round" stroke-linecap="round"/><circle cx="955.94" cy="114.55" r="102.55" fill="none" stroke="#7B88A8" stroke-width="1" stroke-linejoin="round" stroke-linecap="round"/><text x="955.94" y="118.55" text-anchor="middle" font-family="'trebuchet ms', verdana, arial, sans-serif" font-size="16" fill="#333333"><tspan x="955.94" dy="0.00">GenerateKE1 Function</tspan></text><circle cx="1441.39" cy="535.48" r="106.55" fill="#ECECFF" stroke="#7B88A8" stroke-width="1" stroke-linejoin="round" stroke-linecap="round"/><circle cx="1441.39" cy="535.48" r="102.55" fill="none" stroke="#7B88A8" stroke-width="1" stroke-linejoin="round" stroke-linecap="round"/><text x="1441.39" y="539.48" text-anchor="middle" font-family="'trebuchet ms', verdana, arial, sans-serif" font-size="16" fill="#333333"><tspan x="1441.39" dy="0.00">GenerateKE2 Function</tspan></text><circle cx="955.94" cy="556.55" r="106.55" fill="#ECECFF" stroke="#7B88A8" stroke-width="1" stroke-linejoin="round" stroke-linecap="round"/><circle cx="955.94" cy="556.55" r="102.55" fill="none" stroke="#7B88A8" stroke-width="1" stroke-linejoin="round" stroke-linecap="round"/><text x="955.94" y="560.55" text-anchor="middle" font-family="'trebuchet ms', verdana, arial, sans-serif" font-size="16" fill="#333333"><tspan x="955.94" dy="0.00">GenerateKE3 Function</tspan></text><ellipse cx="1693.33" cy="15.13" rx="87.73" ry="7.13" fill="#ECECFF" stroke="#7B88A8" stroke-width="1" stroke-linejoin="round" stroke-linecap="round"/><rect x="1605.59" y="15.13" width="175.47" height="45.14" fill="#ECECFF" stroke="#7B88A8" stroke-width="1" stroke-linejoin="round" stroke-linecap="round"/><ellipse cx="1693.33" cy="60.27" rx="87.73" ry="7.13" fill="none" stroke="#7B88A8" stroke-width="1" stroke-linejoin="round" stroke-linecap="round"/><text x="1693.33" y="41.70" text-anchor="middle" font-family="'trebuchet ms', verdana, arial, sans-serif" font-size="16" fill="#333333"><tspan x="1693.33" dy="0.00">Database File</tspan></text><ellipse cx="1430.99" cy="326.65" rx="96.15" ry="7.13" fill="#ECECFF" stroke="#7B88A8" stroke-width="1" stroke-linejoin="round" stroke-linecap="round"/><rect x="1334.84" y="326.65" width="192.31" height="45.14" fill="#ECECFF" stroke="#7B88A8" stroke-width="1" stroke-linejoin="round" stroke-linecap="round"/><ellipse cx="1430.99" cy="371.80" rx="96.15" ry="7.13" fill="none" stroke="#7B88A8" stroke-width="1" stroke-linejoin="round" stroke-linecap="round"/><text x="1430.99" y="353.22" text-anchor="middle" font-family="'trebuchet ms', verdana, arial, sans-serif" font-size="16" fill="#333333"><tspan x="1430.99" dy="0.00">Server Database</tspan></text><circle cx="1445.21" cy="159.15" r="110.38" fill="#ECECFF" stroke="#7B88A8" stroke-width="1" stroke-linejoin="round" stroke-linecap="round"/><circle cx="1445.21" cy="159.15" r="106.38" fill="none" stroke="#7B88A8" stroke-width="1" stroke-linejoin="round" stroke-linecap="round"/><text x="1445.21" y="163.15" text-anchor="middle" font-family="'trebuchet ms', verdana, arial, sans-serif" font-size="16" fill="#333333"><tspan x="1445.21" dy="0.00">ServerFinish Function</tspan></text><rect x="8.00" y="312.28" width="90.62" height="54.00" rx="3" ry="3" fill="#ECECFF" stroke="#7B88A8" stroke-width="1" stroke-linejoin="round" stroke-linecap="round"/><text x="53.31" y="343.28" text-anchor="middle" font-family="'trebuchet ms', verdana, arial, sans-serif" font-size="16" fill="#333333"><tspan x="53.31" dy="0.00">User</tspan></text><g transform="translate(98.62 339.28) rotate(180.00)"><polygon points="0,0 -10.40,6.24 -10.40,-6.24" fill="#2F3B4D" stroke="#2F3B4D" stroke-width="2" stroke-linejoin="round" stroke-linecap="round"/></g><g transform="translate(851.41 319.55) rotate(0.00)"><polygon points="0,0 -10.40,6.24 -10.40,-6.24" fill="#2F3B4D" stroke="#2F3B4D" stroke-width="2" stroke-linejoin="round" stroke-linecap="round"/></g><g transform="translate(1334.84 349.22) rotate(0.00)"><polygon points="0,0 -10.40,6.24 -10.40,-6.24" fill="#2F3B4D" stroke="#2F3B4D" stroke-width="2" stroke-linejoin="round" stroke-linecap="round"/></g><g transform="translate(615.33 340.66) rotate(180.00)"><polygon points="0,0 -10.40,6.24 -10.40,-6.24" fill="#2F3B4D" stroke="#2F3B4D" stroke-width="2" stroke-linejoin="round" stroke-linecap="round"/></g><g transform="translate(449.70 356.66) rotate(0.00)"><polygon points="0,0 -10.40,6.24 -10.40,-6.24" fill="#2F3B4D" stroke="#2F3B4D" stroke-width="2" stroke-linejoin="round" stroke-linecap="round"/></g><g transform="translate(850.60 130.55) rotate(0.00)"><polygon points="0,0 -10.40,6.24 -10.40,-6.24" fill="#2F3B4D" stroke="#2F3B4D" stroke-width="2" stroke-linejoin="round" stroke-linecap="round"/></g><g transform="translate(600.17 292.66) rotate(180.00)"><polygon points="0,0 -10.40,6.24 -10.40,-6.24" fill="#2F3B4D" stroke="#2F3B4D" stroke-width="2" stroke-linejoin="round" stroke-linecap="round"/></g><g transform="translate(851.41 351.55) rotate(0.00)"><polygon points="0,0 -10.40,6.24 -10.40,-6.24" fill="#2F3B4D" stroke="#2F3B4D" stroke-width="2" stroke-linejoin="round" stroke-linecap="round"/></g><g transform="translate(1346.26 487.48) rotate(0.00)"><polygon points="0,0 -10.40,6.24 -10.40,-6.24" fill="#2F3B4D" stroke="#2F3B4D" stroke-width="2" stroke-linejoin="round" stroke-linecap="round"/></g><g transform="translate(969.78 367.55) rotate(180.00)"><polygon points="0,0 -10.40,6.24 -10.40,-6.24" fill="#2F3B4D" stroke="#2F3B4D" stroke-width="2" stroke-linejoin="round" stroke-linecap="round"/></g><g transform="translate(613.78 356.66) rotate(180.00)"><polygon points="0,0 -10.40,6.24 -10.40,-6.24" fill="#2F3B4D" stroke="#2F3B4D" stroke-width="2" stroke-linejoin="round" stroke-linecap="round"/></g><g transform="translate(860.82 508.55) rotate(0.00)"><polygon points="0,0 -10.40,6.24 -10.40,-6.24" fill="#2F3B4D" stroke="#2F3B4D" stroke-width="2" stroke-linejoin="round" stroke-linecap="round"/></g><g transform="translate(600.17 388.66) rotate(180.00)"><polygon points="0,0 -10.40,6.24 -10.40,-6.24" fill="#2F3B4D" stroke="#2F3B4D" stroke-width="2" stroke-linejoin="round" stroke-linecap="round"/></g><g transform="translate(857.90 367.55) rotate(0.00)"><polygon points="0,0 -10.40,6.24 -10.40,-6.24" fill="#2F3B4D" stroke="#2F3B4D" stroke-width="2" stroke-linejoin="round" stroke-linecap="round"/></g><g transform="translate(1334.84 159.15) rotate(0.00)"><polygon points="0,0 -10.40,6.24 -10.40,-6.24" fill="#2F3B4D" stroke="#2F3B4D" stroke-width="2" stroke-linejoin="round" stroke-linecap="round"/></g><g transform="translate(976.27 319.55) rotate(180.00)"><polygon points="0,0 -10.40,6.24 -10.40,-6.24" fill="#2F3B4D" stroke="#2F3B4D" stroke-width="2" stroke-linejoin="round" stroke-linecap="round"/></g></svg>