<svg xmlns="http://www.w3.org/2000/svg" width="369.72186" height="1262.6162" viewBox="0 0 369.72186 1262.6162"><rect x="0" y="0" width="369.72186" height="1262.6162" fill="#FFFFFF"/><defs><marker id="arrow-0" viewBox="0 0 10 10" refX="5" refY="5" markerUnits="userSpaceOnUse" markerWidth="8" markerHeight="8" orient="auto"><path d="M 0 0 L 10 5 L 0 10 z" fill="#2F3B4D" stroke="#2F3B4D" stroke-width="1" stroke-dasharray="1,0"/></marker><marker id="arrow-start-0" viewBox="0 0 10 10" refX="4.5" refY="5" markerUnits="userSpaceOnUse" markerWidth="8" markerHeight="8" orient="auto"><path d="M 0 5 L 10 10 L 10 0 z" fill="#2F3B4D" stroke="#2F3B4D" stroke-width="1" stroke-dasharray="1,0"/></marker></defs><path d="M 177.206,47.000 L 177.207,97.000" fill="none" stroke="#2F3B4D" stroke-width="2"    stroke-linecap="round" stroke-linejoin="round" /><path d="M 161.207,210.723L 161.207,212.182C161.207,213.640,161.207,216.557,161.207,219.473C161.207,222.390,161.207,225.307,161.804,228.096C162.400,230.885,163.593,233.546,165.663,238.166C167.734,242.785,170.681,249.362,172.752,253.981C174.822,258.600,176.015,261.262,176.611,264.051C177.208,266.840,177.208,269.757,177.208,272.673C177.208,275.590,177.208,278.507,177.208,279.965L 177.208,281.423" fill="none" stroke="#2F3B4D" stroke-width="2"    stroke-linecap="round" stroke-linejoin="round" /><rect x="158.72" y="237.23" width="25.77" height="28.40" rx="2" ry="2" fill="rgba(248,250,252, 0.92)" fill-opacity="0.95" stroke="#7B88A8" stroke-opacity="0.45" stroke-width="0.8"/><text x="171.61" y="255.43" text-anchor="middle" font-family="'trebuchet ms', verdana, arial, sans-serif" font-size="16" fill="#333333"><tspan x="171.61" dy="0.00">No</tspan></text><path d="M 193.208,335.423L 193.208,336.882C193.208,338.340,193.208,341.257,193.208,344.173C193.208,347.090,193.208,350.007,191.982,352.254C190.755,354.502,188.303,356.081,186.863,357.008C185.422,357.935,184.994,358.211,183.554,359.138C182.113,360.066,179.661,361.644,178.434,363.892C177.208,366.140,177.208,369.057,177.208,371.973C177.208,374.890,177.208,377.807,177.208,379.265L 177.208,380.723" fill="none" stroke="#2F3B4D" stroke-width="2"    stroke-linecap="round" stroke-linejoin="round" /><path d="M 161.208,552.625L 161.208,554.083C161.208,555.542,161.208,558.458,161.208,561.375C161.208,564.292,161.208,567.208,159.750,568.667C158.292,570.125,155.375,570.125,143.964,570.125C132.553,570.125,112.647,570.125,100.695,570.125C88.742,570.125,84.742,570.125,82.742,572.125C80.742,574.125,80.742,578.125,80.742,662.779C80.742,747.433,80.742,912.741,80.742,996.356C80.742,1079.972,80.742,1081.894,81.703,1082.855C82.664,1083.816,84.586,1083.816,85.547,1083.816C86.509,1083.816,86.509,1083.816,87.470,1083.816C88.431,1083.816,90.353,1083.816,91.314,1084.777C92.275,1085.738,92.275,1087.661,92.275,1090.577C92.275,1093.494,92.275,1097.405,92.275,1099.361L 92.275,1101.316" fill="none" stroke="#2F3B4D" stroke-width="2"    stroke-linecap="round" stroke-linejoin="round" /><rect x="67.86" y="778.30" width="25.77" height="28.40" rx="2" ry="2" fill="rgba(248,250,252, 0.92)" fill-opacity="0.95" stroke="#7B88A8" stroke-opacity="0.45" stroke-width="0.8"/><text x="80.74" y="796.50" text-anchor="middle" font-family="'trebuchet ms', verdana, arial, sans-serif" font-size="16" fill="#333333"><tspan x="80.74" dy="0.00">No</tspan></text><path d="M 60.275,1101.316L 60.275,978.584C60.275,855.852,60.275,610.388,60.275,485.655C60.275,360.923,60.275,356.923,62.275,354.923C64.275,352.923,68.275,352.923,83.639,352.923C99.003,352.923,125.730,352.923,140.552,352.923C155.375,352.923,158.291,352.923,159.750,351.465C161.208,350.007,161.208,347.090,161.208,344.173C161.208,341.257,161.208,338.340,161.208,336.882L 161.208,335.423" fill="none" stroke="#2F3B4D" stroke-width="2"    stroke-linecap="round" stroke-linejoin="round" /><path d="M 193.208,552.625L 193.208,554.083C193.208,555.542,193.208,558.458,193.208,561.375C193.208,564.292,193.208,567.208,192.612,569.997C192.015,572.787,190.823,575.448,188.752,580.067C186.682,584.687,183.734,591.263,181.664,595.883C179.594,600.502,178.401,603.163,177.805,605.953C177.208,608.742,177.208,611.658,177.208,614.575C177.208,617.492,177.208,620.408,177.208,621.867L 177.208,623.325" fill="none" stroke="#2F3B4D" stroke-width="2"    stroke-linecap="round" stroke-linejoin="round" /><rect x="166.83" y="579.13" width="31.97" height="28.40" rx="2" ry="2" fill="rgba(248,250,252, 0.92)" fill-opacity="0.95" stroke="#7B88A8" stroke-opacity="0.45" stroke-width="0.8"/><text x="182.81" y="597.33" text-anchor="middle" font-family="'trebuchet ms', verdana, arial, sans-serif" font-size="16" fill="#333333"><tspan x="182.81" dy="0.00">Yes</tspan></text><path d="M 161.208,751.593L 161.208,753.051C161.208,754.510,161.208,757.426,161.208,760.343C161.208,763.260,161.208,766.176,161.805,768.965C162.401,771.754,163.594,774.416,165.664,779.035C167.734,783.654,170.682,790.231,172.752,794.851C174.822,799.470,176.015,802.131,176.611,804.920C177.208,807.710,177.208,810.626,177.208,813.543C177.208,816.460,177.208,819.376,177.208,820.835L 177.208,822.293" fill="none" stroke="#2F3B4D" stroke-width="2"    stroke-linecap="round" stroke-linejoin="round" /><rect x="155.63" y="778.10" width="31.97" height="28.40" rx="2" ry="2" fill="rgba(248,250,252, 0.92)" fill-opacity="0.95" stroke="#7B88A8" stroke-opacity="0.45" stroke-width="0.8"/><text x="171.61" y="796.30" text-anchor="middle" font-family="'trebuchet ms', verdana, arial, sans-serif" font-size="16" fill="#333333"><tspan x="171.61" dy="0.00">Yes</tspan></text><path d="M 177.208,876.293 L 177.207,916.893" fill="none" stroke="#2F3B4D" stroke-width="2"    stroke-linecap="round" stroke-linejoin="round" /><path d="M 145.207,1014.616L 145.207,1016.075C145.207,1017.533,145.207,1020.450,145.207,1023.366C145.207,1026.283,145.207,1029.200,144.359,1031.845C143.512,1034.490,141.816,1036.863,136.509,1044.293C131.201,1051.723,122.281,1064.209,116.974,1071.640C111.666,1079.069,109.971,1081.443,109.123,1084.088C108.275,1086.733,108.275,1089.650,108.275,1092.566C108.275,1095.483,108.275,1098.400,108.275,1099.858L 108.275,1101.316" fill="none" stroke="#2F3B4D" stroke-width="2"    stroke-linecap="round" stroke-linejoin="round" /><rect x="104.62" y="1056.70" width="25.77" height="28.40" rx="2" ry="2" fill="rgba(248,250,252, 0.92)" fill-opacity="0.95" stroke="#7B88A8" stroke-opacity="0.45" stroke-width="0.8"/><text x="117.50" y="1074.90" text-anchor="middle" font-family="'trebuchet ms', verdana, arial, sans-serif" font-size="16" fill="#333333"><tspan x="117.50" dy="0.00">No</tspan></text><path d="M 209.207,1014.616L 209.207,1016.075C209.207,1017.533,209.207,1020.450,209.207,1023.366C209.207,1026.283,209.207,1029.200,210.055,1031.845C210.902,1034.490,212.597,1036.863,217.905,1044.293C223.212,1051.723,232.131,1064.209,237.438,1071.640C242.746,1079.069,244.441,1081.443,245.289,1084.088C246.136,1086.733,246.136,1089.650,246.136,1092.566C246.136,1095.483,246.136,1098.400,246.136,1099.858L 246.136,1101.316" fill="none" stroke="#2F3B4D" stroke-width="2"    stroke-linecap="round" stroke-linejoin="round" /><rect x="213.39" y="1054.26" width="31.97" height="28.40" rx="2" ry="2" fill="rgba(248,250,252, 0.92)" fill-opacity="0.95" stroke="#7B88A8" stroke-opacity="0.45" stroke-width="0.8"/><text x="229.37" y="1072.46" text-anchor="middle" font-family="'trebuchet ms', verdana, arial, sans-serif" font-size="16" fill="#333333"><tspan x="229.37" dy="0.00">Yes</tspan></text><path d="M 193.208,751.593L 193.208,755.070C193.208,758.547,193.208,765.501,193.208,770.978C193.208,776.455,193.208,780.455,195.208,782.455C197.208,784.455,201.208,784.455,213.363,784.455C225.518,784.455,245.827,784.455,257.982,784.455C270.136,784.455,274.136,784.455,276.136,786.455C278.136,788.455,278.136,792.455,278.136,845.265C278.136,898.075,278.136,999.696,278.136,1050.506L 278.136,1101.316" fill="none" stroke="#2F3B4D" stroke-width="2"    stroke-linecap="round" stroke-linejoin="round" /><rect x="265.25" y="869.79" width="25.77" height="28.40" rx="2" ry="2" fill="rgba(248,250,252, 0.92)" fill-opacity="0.95" stroke="#7B88A8" stroke-opacity="0.45" stroke-width="0.8"/><text x="278.14" y="887.99" text-anchor="middle" font-family="'trebuchet ms', verdana, arial, sans-serif" font-size="16" fill="#333333"><tspan x="278.14" dy="0.00">No</tspan></text><path d="M 193.207,210.723L 193.207,212.182C193.207,213.640,193.207,216.557,193.207,219.473C193.207,222.390,193.207,225.307,194.665,226.765C196.124,228.223,199.040,228.223,215.451,228.223C231.862,228.223,261.767,228.223,278.719,228.223C295.672,228.223,299.672,228.223,301.672,230.223C303.672,232.223,303.672,236.223,303.672,378.027C303.672,519.832,303.672,799.440,303.672,940.039C303.672,1080.638,303.672,1082.227,302.877,1083.021C302.082,1083.816,300.493,1083.816,299.699,1083.816C298.904,1083.816,298.904,1083.816,298.109,1083.816C297.315,1083.816,295.726,1083.816,294.931,1084.611C294.136,1085.405,294.136,1086.995,294.136,1089.911C294.136,1092.828,294.136,1097.072,294.136,1099.194L 294.136,1101.316" fill="none" stroke="#2F3B4D" stroke-width="2"    stroke-linecap="round" stroke-linejoin="round" /><rect x="287.69" y="591.36" width="31.97" height="28.40" rx="2" ry="2" fill="rgba(248,250,252, 0.92)" fill-opacity="0.95" stroke="#7B88A8" stroke-opacity="0.45" stroke-width="0.8"/><text x="303.67" y="609.56" text-anchor="middle" font-family="'trebuchet ms', verdana, arial, sans-serif" font-size="16" fill="#333333"><tspan x="303.67" dy="0.00">Yes</tspan></text><path d="M 278.136,1155.316L 278.136,1157.375C278.136,1159.433,278.136,1163.549,278.136,1166.466C278.136,1169.383,278.136,1171.099,278.136,1172.816C278.135,1174.533,278.134,1176.250,278.133,1177.108C278.133,1177.966,278.133,1177.966,278.132,1178.825C278.131,1179.683,278.130,1181.400,278.130,1183.116C278.129,1184.833,278.129,1186.550,278.129,1189.466C278.129,1192.383,278.129,1196.500,278.129,1198.558L 278.129,1200.616" fill="none" stroke="#2F3B4D" stroke-width="2"    stroke-linecap="round" stroke-linejoin="round" /><rect x="126.03" y="8.00" width="102.35" height="39.00" rx="19.50" ry="19.50" fill="#ECECFF" stroke="#7B88A8" stroke-width="1" stroke-linejoin="round" stroke-linecap="round"/><text x="177.21" y="31.50" text-anchor="middle" font-family="'trebuchet ms', verdana, arial, sans-serif" font-size="16" fill="#333333"><tspan x="177.21" dy="0.00">User Visit</tspan></text><polygon points="177.21,97.00 242.07,161.86 177.21,226.72 112.35,161.86" fill="#ECECFF" stroke="#7B88A8" stroke-width="1" stroke-linejoin="round" stroke-linecap="round"/><text x="177.21" y="165.86" text-anchor="middle" font-family="'trebuchet ms', verdana, arial, sans-serif" font-size="16" fill="#333333"><tspan x="177.21" dy="0.00">Logged in?</tspan></text><rect x="89.79" y="281.42" width="174.83" height="54.00" rx="3" ry="3" fill="#ECECFF" stroke="#7B88A8" stroke-width="1" stroke-linejoin="round" stroke-linecap="round"/><text x="177.21" y="312.42" text-anchor="middle" font-family="'trebuchet ms', verdana, arial, sans-serif" font-size="16" fill="#333333"><tspan x="177.21" dy="0.00">Show Login Form</tspan></text><polygon points="177.21,380.72 271.16,474.67 177.21,568.63 83.26,474.67" fill="#ECECFF" stroke="#7B88A8" stroke-width="1" stroke-linejoin="round" stroke-linecap="round"/><text x="177.21" y="478.67" text-anchor="middle" font-family="'trebuchet ms', verdana, arial, sans-serif" font-size="16" fill="#333333"><tspan x="177.21" dy="0.00">Credentials Valid?</tspan></text><rect x="8.00" y="1101.32" width="136.55" height="54.00" rx="3" ry="3" fill="#ECECFF" stroke="#7B88A8" stroke-width="1" stroke-linejoin="round" stroke-linecap="round"/><text x="76.28" y="1132.32" text-anchor="middle" font-family="'trebuchet ms', verdana, arial, sans-serif" font-size="16" fill="#333333"><tspan x="76.28" dy="0.00">Show Error</tspan></text><polygon points="177.21,623.33 249.34,695.46 177.21,767.59 105.07,695.46" fill="#ECECFF" stroke="#7B88A8" stroke-width="1" stroke-linejoin="round" stroke-linecap="round"/><text x="177.21" y="699.46" text-anchor="middle" font-family="'trebuchet ms', verdana, arial, sans-serif" font-size="16" fill="#333333"><tspan x="177.21" dy="0.00">2FA Enabled?</tspan></text><rect x="116.58" y="822.29" width="121.26" height="54.00" rx="3" ry="3" fill="#ECECFF" stroke="#7B88A8" stroke-width="1" stroke-linejoin="round" stroke-linecap="round"/><text x="177.21" y="853.29" text-anchor="middle" font-family="'trebuchet ms', verdana, arial, sans-serif" font-size="16" fill="#333333"><tspan x="177.21" dy="0.00">Send OTP</tspan></text><polygon points="177.21,916.89 242.07,981.75 177.21,1046.62 112.35,981.75" fill="#ECECFF" stroke="#7B88A8" stroke-width="1" stroke-linejoin="round" stroke-linecap="round"/><text x="177.21" y="985.75" text-anchor="middle" font-family="'trebuchet ms', verdana, arial, sans-serif" font-size="16" fill="#333333"><tspan x="177.21" dy="0.00">OTP Valid?</tspan></text><rect x="194.55" y="1101.32" width="167.17" height="54.00" rx="3" ry="3" fill="#ECECFF" stroke="#7B88A8" stroke-width="1" stroke-linejoin="round" stroke-linecap="round"/><text x="278.14" y="1132.32" text-anchor="middle" font-family="'trebuchet ms', verdana, arial, sans-serif" font-size="16" fill="#333333"><tspan x="278.14" dy="0.00">Create Session</tspan></text><rect x="213.68" y="1200.62" width="128.90" height="54.00" rx="3" ry="3" fill="#ECECFF" stroke="#7B88A8" stroke-width="1" stroke-linejoin="round" stroke-linecap="round"/><text x="278.13" y="1231.62" text-anchor="middle" font-family="'trebuchet ms', verdana, arial, sans-serif" font-size="16" fill="#333333"><tspan x="278.13" dy="0.00">Dashboard</tspan></text><g transform="translate(177.21 97.00) rotate(90.00)"><polygon points="0,0 -10.40,6.24 -10.40,-6.24" fill="#2F3B4D" stroke="#2F3B4D" stroke-width="2" stroke-linejoin="round" stroke-linecap="round"/></g><g transform="translate(177.21 281.42) rotate(90.00)"><polygon points="0,0 -10.40,6.24 -10.40,-6.24" fill="#2F3B4D" stroke="#2F3B4D" stroke-width="2" stroke-linejoin="round" stroke-linecap="round"/></g><g transform="translate(177.21 380.72) rotate(90.00)"><polygon points="0,0 -10.40,6.24 -10.40,-6.24" fill="#2F3B4D" stroke="#2F3B4D" stroke-width="2" stroke-linejoin="round" stroke-linecap="round"/></g><g transform="translate(92.28 1101.32) rotate(90.00)"><polygon points="0,0 -10.40,6.24 -10.40,-6.24" fill="#2F3B4D" stroke="#2F3B4D" stroke-width="2" stroke-linejoin="round" stroke-linecap="round"/></g><g transform="translate(161.21 335.42) rotate(-90.00)"><polygon points="0,0 -10.40,6.24 -10.40,-6.24" fill="#2F3B4D" stroke="#2F3B4D" stroke-width="2" stroke-linejoin="round" stroke-linecap="round"/></g><g transform="translate(177.21 623.33) rotate(90.00)"><polygon points="0,0 -10.40,6.24 -10.40,-6.24" fill="#2F3B4D" stroke="#2F3B4D" stroke-width="2" stroke-linejoin="round" stroke-linecap="round"/></g><g transform="translate(177.21 822.29) rotate(90.00)"><polygon points="0,0 -10.40,6.24 -10.40,-6.24" fill="#2F3B4D" stroke="#2F3B4D" stroke-width="2" stroke-linejoin="round" stroke-linecap="round"/></g><g transform="translate(177.21 916.89) rotate(90.00)"><polygon points="0,0 -10.40,6.24 -10.40,-6.24" fill="#2F3B4D" stroke="#2F3B4D" stroke-width="2" stroke-linejoin="round" stroke-linecap="round"/></g><g transform="translate(108.28 1101.32) rotate(90.00)"><polygon points="0,0 -10.40,6.24 -10.40,-6.24" fill="#2F3B4D" stroke="#2F3B4D" stroke-width="2" stroke-linejoin="round" stroke-linecap="round"/></g><g transform="translate(246.14 1101.32) rotate(90.00)"><polygon points="0,0 -10.40,6.24 -10.40,-6.24" fill="#2F3B4D" stroke="#2F3B4D" stroke-width="2" stroke-linejoin="round" stroke-linecap="round"/></g><g transform="translate(278.14 1101.32) rotate(90.00)"><polygon points="0,0 -10.40,6.24 -10.40,-6.24" fill="#2F3B4D" stroke="#2F3B4D" stroke-width="2" stroke-linejoin="round" stroke-linecap="round"/></g><g transform="translate(294.14 1101.32) rotate(90.00)"><polygon points="0,0 -10.40,6.24 -10.40,-6.24" fill="#2F3B4D" stroke="#2F3B4D" stroke-width="2" stroke-linejoin="round" stroke-linecap="round"/></g><g transform="translate(278.13 1200.62) rotate(90.00)"><polygon points="0,0 -10.40,6.24 -10.40,-6.24" fill="#2F3B4D" stroke="#2F3B4D" stroke-width="2" stroke-linejoin="round" stroke-linecap="round"/></g></svg>