<svg xmlns="http://www.w3.org/2000/svg" width="346.1151" height="587.551" viewBox="0 0 346.1151 587.551"><rect x="0" y="0" width="346.1151" height="587.551" fill="#FFFFFF"/><defs><marker id="arrow-0" viewBox="0 0 10 10" refX="5" refY="5" markerUnits="userSpaceOnUse" markerWidth="8" markerHeight="8" orient="auto"><path d="M 0 0 L 10 5 L 0 10 z" fill="#2F3B4D" stroke="#2F3B4D" stroke-width="1" stroke-dasharray="1,0"/></marker><marker id="arrow-start-0" viewBox="0 0 10 10" refX="4.5" refY="5" markerUnits="userSpaceOnUse" markerWidth="8" markerHeight="8" orient="auto"><path d="M 0 5 L 10 10 L 10 0 z" fill="#2F3B4D" stroke="#2F3B4D" stroke-width="1" stroke-dasharray="1,0"/></marker></defs><path d="M 169.299,47.000L 169.299,48.138C169.299,49.275,169.299,51.550,169.299,53.825C169.299,56.100,169.299,58.375,169.298,60.650C169.296,62.925,169.294,65.200,169.292,66.463C169.291,67.726,169.290,67.977,169.289,69.240C169.287,70.503,169.285,72.778,169.284,75.053C169.282,77.328,169.282,79.603,169.282,81.878C169.282,84.153,169.282,86.428,169.282,87.566L 169.282,88.703" fill="none" stroke="#2F3B4D" stroke-width="2"    stroke-linecap="round" stroke-linejoin="round" /><path d="M 185.282,127.703L 185.282,128.841C185.282,129.978,185.282,132.253,185.282,134.528C185.282,136.803,185.282,139.078,184.436,140.976C183.591,142.875,181.899,144.396,180.075,146.036C178.251,147.676,176.295,149.435,174.471,151.075C172.647,152.715,170.956,154.236,170.110,156.134C169.264,158.032,169.264,160.307,169.264,162.582C169.264,164.857,169.264,167.132,169.264,168.269L 169.264,169.407" fill="none" stroke="#2F3B4D" stroke-width="2"    stroke-linecap="round" stroke-linejoin="round" /><path d="M 201.264,238.041L 201.264,239.257C201.264,240.473,201.264,242.906,201.264,245.339C201.264,247.772,201.264,250.204,201.979,252.405C202.693,254.606,204.122,256.574,212.303,267.846C220.484,279.117,235.417,299.690,243.304,310.557C251.191,321.424,252.033,322.584,251.897,323.615C251.760,324.645,250.645,325.545,250.088,325.996C249.530,326.446,249.530,326.446,248.972,326.896C248.415,327.347,247.300,328.247,246.742,329.414C246.185,330.581,246.185,332.015,246.185,334.448C246.185,336.880,246.185,340.312,246.185,342.028L 246.185,343.744" fill="none" stroke="#2F3B4D" stroke-width="2"    stroke-linecap="round" stroke-linejoin="round" /><rect x="236.89" y="309.54" width="31.97" height="28.40" rx="2" ry="2" fill="rgba(248,250,252, 0.92)" fill-opacity="0.95" stroke="#7B88A8" stroke-opacity="0.45" stroke-width="0.8"/><text x="252.88" y="327.74" text-anchor="middle" font-family="'trebuchet ms', verdana, arial, sans-serif" font-size="16" fill="#333333"><tspan x="252.88" dy="0.00">Yes</tspan></text><path d="M 137.264,238.041L 137.264,239.257C137.264,240.473,137.264,242.906,137.264,245.339C137.264,247.772,137.264,250.204,136.549,252.405C135.834,254.605,134.405,256.574,126.938,266.854C119.471,277.135,105.966,295.728,98.073,306.595C90.180,317.462,87.899,320.603,88.646,322.624C89.393,324.645,93.170,325.545,95.763,326.164C98.356,326.782,99.766,327.119,101.655,327.569C103.543,328.019,105.909,328.584,107.092,330.082C108.275,331.581,108.275,334.013,108.275,336.446C108.275,338.879,108.275,341.311,108.275,342.528L 108.275,343.744" fill="none" stroke="#2F3B4D" stroke-width="2"    stroke-linecap="round" stroke-linejoin="round" /><rect x="72.73" y="309.54" width="25.77" height="28.40" rx="2" ry="2" fill="rgba(248,250,252, 0.92)" fill-opacity="0.95" stroke="#7B88A8" stroke-opacity="0.45" stroke-width="0.8"/><text x="85.62" y="327.74" text-anchor="middle" font-family="'trebuchet ms', verdana, arial, sans-serif" font-size="16" fill="#333333"><tspan x="85.62" dy="0.00">No</tspan></text><path d="M 76.275,343.744L 76.275,342.593C76.275,341.441,76.275,339.138,76.275,336.863C76.275,334.588,76.275,332.341,77.399,331.218C78.522,330.094,80.769,330.094,81.893,330.094C83.016,330.094,83.016,330.094,84.140,330.094C85.263,330.094,87.510,330.094,88.633,328.971C89.757,327.847,89.757,325.600,89.757,296.144C89.757,266.687,89.757,210.020,89.757,179.687C89.757,149.353,89.757,145.353,91.757,143.353C93.757,141.353,97.757,141.353,107.207,141.353C116.657,141.353,131.557,141.353,140.145,141.353C148.732,141.353,151.007,141.353,152.145,140.216C153.282,139.078,153.282,136.803,153.282,134.528C153.282,132.253,153.282,129.978,153.282,128.841L 153.282,127.703" fill="none" stroke="#2F3B4D" stroke-width="2"    stroke-linecap="round" stroke-linejoin="round" /><path d="M 262.185,397.744L 262.185,399.134C262.185,400.524,262.185,403.305,262.185,405.737C262.185,408.170,262.185,410.255,262.176,412.340C262.168,414.426,262.151,416.511,262.143,417.553C262.134,418.596,262.134,418.596,262.126,419.639C262.117,420.681,262.101,422.766,262.092,424.851C262.084,426.937,262.084,429.022,262.084,431.455C262.084,433.887,262.084,436.667,262.084,438.058L 262.084,439.448" fill="none" stroke="#2F3B4D" stroke-width="2"    stroke-linecap="round" stroke-linejoin="round" /><path d="M 262.084,498.848L 262.084,499.985C262.084,501.123,262.084,503.398,262.084,505.673C262.084,507.948,262.084,510.223,262.083,512.498C262.082,514.773,262.079,517.048,262.078,518.311C262.077,519.574,262.077,519.825,262.076,521.088C262.074,522.351,262.072,524.626,262.071,526.901C262.070,529.176,262.070,531.451,262.070,533.726C262.070,536.001,262.070,538.276,262.070,539.414L 262.070,540.551" fill="none" stroke="#2F3B4D" stroke-width="2"    stroke-linecap="round" stroke-linejoin="round" /><polygon points="169.26,169.41 219.58,219.72 169.26,270.04 118.95,219.72" fill="#ECECFF" stroke="#7B88A8" stroke-width="1" stroke-linejoin="round" stroke-linecap="round"/><text x="169.26" y="223.72" text-anchor="middle" font-family="'trebuchet ms', verdana, arial, sans-serif" font-size="16" fill="#333333"><tspan x="169.26" dy="0.00">Valid?</tspan></text><rect x="237.50" y="540.55" width="49.14" height="39.00" rx="19.50" ry="19.50" fill="#ECECFF" stroke="#7B88A8" stroke-width="1" stroke-linejoin="round" stroke-linecap="round"/><text x="262.07" y="564.05" text-anchor="middle" font-family="'trebuchet ms', verdana, arial, sans-serif" font-size="16" fill="#333333"><tspan x="262.07" dy="0.00">End</tspan></text><rect x="8.00" y="343.74" width="136.55" height="54.00" rx="3" ry="3" fill="#ECECFF" stroke="#7B88A8" stroke-width="1" stroke-linejoin="round" stroke-linecap="round"/><text x="76.28" y="374.74" text-anchor="middle" font-family="'trebuchet ms', verdana, arial, sans-serif" font-size="16" fill="#333333"><tspan x="76.28" dy="0.00">Show Error</tspan></text><polygon points="127.62,88.70 234.38,88.70 210.94,127.70 104.19,127.70" fill="#ECECFF" stroke="#7B88A8" stroke-width="1" stroke-linejoin="round" stroke-linecap="round"/><text x="169.28" y="112.20" text-anchor="middle" font-family="'trebuchet ms', verdana, arial, sans-serif" font-size="16" fill="#333333"><tspan x="169.28" dy="0.00">Read Input</tspan></text><rect x="186.25" y="343.74" width="151.86" height="54.00" rx="3" ry="3" fill="#ECECFF" stroke="#7B88A8" stroke-width="1" stroke-linejoin="round" stroke-linecap="round"/><text x="262.18" y="374.74" text-anchor="middle" font-family="'trebuchet ms', verdana, arial, sans-serif" font-size="16" fill="#333333"><tspan x="262.18" dy="0.00">Process Data</tspan></text><ellipse cx="262.08" cy="446.58" rx="75.10" ry="7.13" fill="#ECECFF" stroke="#7B88A8" stroke-width="1" stroke-linejoin="round" stroke-linecap="round"/><rect x="186.98" y="446.58" width="150.21" height="45.14" fill="#ECECFF" stroke="#7B88A8" stroke-width="1" stroke-linejoin="round" stroke-linecap="round"/><ellipse cx="262.08" cy="491.72" rx="75.10" ry="7.13" fill="none" stroke="#7B88A8" stroke-width="1" stroke-linejoin="round" stroke-linecap="round"/><text x="262.08" y="473.15" text-anchor="middle" font-family="'trebuchet ms', verdana, arial, sans-serif" font-size="16" fill="#333333"><tspan x="262.08" dy="0.00">Save to DB</tspan></text><rect x="137.26" y="8.00" width="64.08" height="39.00" rx="19.50" ry="19.50" fill="#ECECFF" stroke="#7B88A8" stroke-width="1" stroke-linejoin="round" stroke-linecap="round"/><text x="169.30" y="31.50" text-anchor="middle" font-family="'trebuchet ms', verdana, arial, sans-serif" font-size="16" fill="#333333"><tspan x="169.30" dy="0.00">Start</tspan></text><g transform="translate(169.28 88.70) rotate(90.00)"><polygon points="0,0 -10.40,6.24 -10.40,-6.24" fill="#2F3B4D" stroke="#2F3B4D" stroke-width="2" stroke-linejoin="round" stroke-linecap="round"/></g><g transform="translate(169.26 169.41) rotate(90.00)"><polygon points="0,0 -10.40,6.24 -10.40,-6.24" fill="#2F3B4D" stroke="#2F3B4D" stroke-width="2" stroke-linejoin="round" stroke-linecap="round"/></g><g transform="translate(246.18 343.74) rotate(90.00)"><polygon points="0,0 -10.40,6.24 -10.40,-6.24" fill="#2F3B4D" stroke="#2F3B4D" stroke-width="2" stroke-linejoin="round" stroke-linecap="round"/></g><g transform="translate(108.28 343.74) rotate(90.00)"><polygon points="0,0 -10.40,6.24 -10.40,-6.24" fill="#2F3B4D" stroke="#2F3B4D" stroke-width="2" stroke-linejoin="round" stroke-linecap="round"/></g><g transform="translate(153.28 127.70) rotate(-90.00)"><polygon points="0,0 -10.40,6.24 -10.40,-6.24" fill="#2F3B4D" stroke="#2F3B4D" stroke-width="2" stroke-linejoin="round" stroke-linecap="round"/></g><g transform="translate(262.08 439.45) rotate(90.00)"><polygon points="0,0 -10.40,6.24 -10.40,-6.24" fill="#2F3B4D" stroke="#2F3B4D" stroke-width="2" stroke-linejoin="round" stroke-linecap="round"/></g><g transform="translate(262.07 540.55) rotate(90.00)"><polygon points="0,0 -10.40,6.24 -10.40,-6.24" fill="#2F3B4D" stroke="#2F3B4D" stroke-width="2" stroke-linejoin="round" stroke-linecap="round"/></g></svg>