<svg xmlns="http://www.w3.org/2000/svg" width="376.42044" height="1422.6162" viewBox="0 0 376.42044 1422.6162"><rect x="0" y="0" width="376.42044" height="1422.6162" fill="#FFFFFF"/><defs><marker id="arrow-0" viewBox="0 0 10 10" refX="5" refY="5" markerUnits="userSpaceOnUse" markerWidth="8" markerHeight="8" orient="auto"><path d="M 0 0 L 10 5 L 0 10 z" fill="#2F3B4D" stroke="#2F3B4D" stroke-width="1" stroke-dasharray="1,0"/></marker><marker id="arrow-start-0" viewBox="0 0 10 10" refX="4.5" refY="5" markerUnits="userSpaceOnUse" markerWidth="8" markerHeight="8" orient="auto"><path d="M 0 5 L 10 10 L 10 0 z" fill="#2F3B4D" stroke="#2F3B4D" stroke-width="1" stroke-dasharray="1,0"/></marker></defs><path d="M 209.697,47.000L 209.697,48.138C209.697,49.275,209.697,51.550,209.697,53.825C209.697,56.100,209.697,58.375,209.818,60.644C209.939,62.912,210.182,65.174,210.467,67.826C210.752,70.479,211.079,73.521,211.363,76.174C211.648,78.826,211.891,81.088,212.012,83.356C212.134,85.625,212.134,87.900,212.134,90.175C212.134,92.450,212.134,94.725,212.134,95.862L 212.134,97.000" fill="none" stroke="#2F3B4D" stroke-width="2"    stroke-linecap="round" stroke-linejoin="round" /><path d="M 212.134,226.723L 212.134,228.182C212.134,229.640,212.134,232.557,212.134,235.473C212.134,238.390,212.134,241.307,210.939,243.602C209.745,245.896,207.356,247.570,197.366,254.566C187.376,261.563,169.784,273.883,159.794,280.880C149.804,287.877,147.415,289.550,146.221,291.845C145.026,294.140,145.026,297.057,145.026,299.973C145.026,302.890,145.026,305.807,145.026,307.265L 145.026,308.723" fill="none" stroke="#2F3B4D" stroke-width="2"    stroke-linecap="round" stroke-linejoin="round" /><rect x="169.34" y="237.30" width="25.77" height="28.40" rx="2" ry="2" fill="rgba(248,250,252, 0.92)" fill-opacity="0.95" stroke="#7B88A8" stroke-opacity="0.45" stroke-width="0.8"/><text x="182.22" y="255.50" text-anchor="middle" font-family="'trebuchet ms', verdana, arial, sans-serif" font-size="16" fill="#333333"><tspan x="182.22" dy="0.00">No</tspan></text><path d="M 177.026,362.723L 177.026,364.182C177.026,365.640,177.026,368.557,177.026,371.473C177.026,374.390,177.026,377.307,175.723,379.420C174.420,381.533,171.814,382.843,168.144,384.688C164.474,386.533,159.739,388.913,156.069,390.758C152.399,392.603,149.793,393.913,148.490,396.027C147.187,398.140,147.187,401.057,147.187,403.973C147.187,406.890,147.187,409.807,147.187,411.265L 147.187,412.723" fill="none" stroke="#2F3B4D" stroke-width="2"    stroke-linecap="round" stroke-linejoin="round" /><path d="M 147.187,600.625L 147.187,602.083C147.187,603.542,147.187,606.458,147.187,609.375C147.187,612.292,147.187,615.208,145.728,616.667C144.270,618.125,141.353,618.125,131.669,618.125C121.985,618.125,105.533,618.125,95.306,618.125C85.080,618.125,81.080,618.125,79.080,620.125C77.080,622.125,77.080,626.125,77.080,728.781C77.080,831.438,77.080,1032.750,77.080,1134.249C77.080,1235.747,77.080,1237.432,76.238,1238.274C75.396,1239.116,73.712,1239.116,72.869,1239.116C72.027,1239.116,72.027,1239.116,71.185,1239.116C70.343,1239.116,68.658,1239.116,67.816,1239.958C66.974,1240.801,66.974,1242.485,66.974,1245.402C66.974,1248.318,66.974,1252.467,66.974,1254.542L 66.974,1256.616" fill="none" stroke="#2F3B4D" stroke-width="2"    stroke-linecap="round" stroke-linejoin="round" /><rect x="64.20" y="996.40" width="25.77" height="28.40" rx="2" ry="2" fill="rgba(248,250,252, 0.92)" fill-opacity="0.95" stroke="#7B88A8" stroke-opacity="0.45" stroke-width="0.8"/><text x="77.08" y="1014.60" text-anchor="middle" font-family="'trebuchet ms', verdana, arial, sans-serif" font-size="16" fill="#333333"><tspan x="77.08" dy="0.00">No</tspan></text><path d="M 50.974,1256.616L 50.974,1255.158C50.974,1253.700,50.974,1250.783,50.974,1247.866C50.974,1244.950,50.974,1242.033,49.516,1240.575C48.057,1239.116,45.141,1239.116,39.978,1239.116C34.816,1239.116,27.408,1239.116,21.704,1239.116C16.000,1239.116,12.000,1239.116,10.000,1237.116C8.000,1235.116,8.000,1231.116,8.000,1089.967C8.000,948.819,8.000,670.521,8.000,529.372C8.000,388.223,8.000,384.223,10.000,382.223C12.000,380.223,16.000,380.223,37.379,380.223C58.759,380.223,97.517,380.223,118.355,380.223C139.193,380.223,142.109,380.223,143.568,378.765C145.026,377.307,145.026,374.390,145.026,371.473C145.026,368.557,145.026,365.640,145.026,364.182L 145.026,362.723" fill="none" stroke="#2F3B4D" stroke-width="2"    stroke-linecap="round" stroke-linejoin="round" /><path d="M 179.187,568.625L 179.187,570.083C179.187,571.542,179.187,574.458,179.187,577.375C179.187,580.292,179.187,583.208,179.809,585.986C180.430,588.763,181.674,591.402,187.259,603.249C192.844,615.097,202.769,636.154,208.354,648.001C213.939,659.849,215.183,662.487,215.804,665.264C216.426,668.042,216.426,670.958,216.426,673.875C216.426,676.792,216.426,679.708,216.426,681.167L 216.426,682.625" fill="none" stroke="#2F3B4D" stroke-width="2"    stroke-linecap="round" stroke-linejoin="round" /><rect x="181.82" y="611.43" width="31.97" height="28.40" rx="2" ry="2" fill="rgba(248,250,252, 0.92)" fill-opacity="0.95" stroke="#7B88A8" stroke-opacity="0.45" stroke-width="0.8"/><text x="197.81" y="629.63" text-anchor="middle" font-family="'trebuchet ms', verdana, arial, sans-serif" font-size="16" fill="#333333"><tspan x="197.81" dy="0.00">Yes</tspan></text><path d="M 216.426,826.893L 216.426,828.351C216.426,829.810,216.426,832.726,216.426,835.643C216.426,838.560,216.426,841.476,215.446,844.014C214.466,846.553,212.506,848.712,206.376,855.466C200.246,862.219,189.946,873.567,183.816,880.320C177.686,887.074,175.725,889.233,174.745,891.771C173.765,894.310,173.765,897.226,173.765,900.143C173.765,903.060,173.765,905.976,173.765,907.435L 173.765,908.893" fill="none" stroke="#2F3B4D" stroke-width="2"    stroke-linecap="round" stroke-linejoin="round" /><rect x="179.11" y="853.69" width="31.97" height="28.40" rx="2" ry="2" fill="rgba(248,250,252, 0.92)" fill-opacity="0.95" stroke="#7B88A8" stroke-opacity="0.45" stroke-width="0.8"/><text x="195.10" y="871.89" text-anchor="middle" font-family="'trebuchet ms', verdana, arial, sans-serif" font-size="16" fill="#333333"><tspan x="195.10" dy="0.00">Yes</tspan></text><path d="M 173.765,962.893L 173.765,964.351C173.765,965.810,173.765,968.726,173.765,971.643C173.765,974.560,173.765,977.476,173.916,980.385C174.067,983.294,174.369,986.195,175.034,992.578C175.699,998.961,176.726,1008.825,177.390,1015.208C178.055,1021.591,178.357,1024.492,178.508,1027.401C178.659,1030.310,178.659,1033.226,178.659,1036.143C178.659,1039.060,178.659,1041.976,178.659,1043.435L 178.659,1044.893" fill="none" stroke="#2F3B4D" stroke-width="2"    stroke-linecap="round" stroke-linejoin="round" /><path d="M 146.659,1142.616L 146.659,1144.075C146.659,1145.533,146.659,1148.450,146.659,1151.366C146.659,1154.283,146.659,1157.200,146.116,1160.011C145.573,1162.823,144.488,1165.530,139.750,1177.343C135.012,1189.157,126.621,1210.076,121.883,1221.889C117.145,1233.702,116.060,1236.409,115.517,1239.221C114.974,1242.033,114.974,1244.950,114.974,1247.866C114.974,1250.783,114.974,1253.700,114.974,1255.158L 114.974,1256.616" fill="none" stroke="#2F3B4D" stroke-width="2"    stroke-linecap="round" stroke-linejoin="round" /><rect x="117.93" y="1185.42" width="25.77" height="28.40" rx="2" ry="2" fill="rgba(248,250,252, 0.92)" fill-opacity="0.95" stroke="#7B88A8" stroke-opacity="0.45" stroke-width="0.8"/><text x="130.82" y="1203.62" text-anchor="middle" font-family="'trebuchet ms', verdana, arial, sans-serif" font-size="16" fill="#333333"><tspan x="130.82" dy="0.00">No</tspan></text><path d="M 210.659,1142.616L 210.659,1144.075C210.659,1145.533,210.659,1148.450,210.659,1151.366C210.659,1154.283,210.659,1157.200,211.118,1160.042C211.577,1162.885,212.494,1165.653,216.398,1177.436C220.302,1189.218,227.192,1210.014,231.096,1221.797C235.000,1233.579,235.918,1236.348,236.376,1239.190C236.835,1242.033,236.835,1244.950,236.835,1247.866C236.835,1250.783,236.835,1253.700,236.835,1255.158L 236.835,1256.616" fill="none" stroke="#2F3B4D" stroke-width="2"    stroke-linecap="round" stroke-linejoin="round" /><rect x="207.76" y="1185.42" width="31.97" height="28.40" rx="2" ry="2" fill="rgba(248,250,252, 0.92)" fill-opacity="0.95" stroke="#7B88A8" stroke-opacity="0.45" stroke-width="0.8"/><text x="223.75" y="1203.62" text-anchor="middle" font-family="'trebuchet ms', verdana, arial, sans-serif" font-size="16" fill="#333333"><tspan x="223.75" dy="0.00">Yes</tspan></text><path d="M 248.426,794.893L 248.426,796.351C248.426,797.810,248.426,800.726,248.426,803.643C248.426,806.560,248.426,809.476,248.657,812.375C248.888,815.273,249.350,818.153,260.520,887.833C271.691,957.514,293.570,1093.995,304.741,1163.676C315.912,1233.356,316.373,1236.236,316.604,1239.135C316.835,1242.033,316.835,1244.950,316.835,1247.866C316.835,1250.783,316.835,1253.700,316.835,1255.158L 316.835,1256.616" fill="none" stroke="#2F3B4D" stroke-width="2"    stroke-linecap="round" stroke-linejoin="round" /><rect x="321.53" y="996.37" width="25.77" height="28.40" rx="2" ry="2" fill="rgba(248,250,252, 0.92)" fill-opacity="0.95" stroke="#7B88A8" stroke-opacity="0.45" stroke-width="0.8"/><text x="334.42" y="1014.57" text-anchor="middle" font-family="'trebuchet ms', verdana, arial, sans-serif" font-size="16" fill="#333333"><tspan x="334.42" dy="0.00">No</tspan></text><path d="M 228.134,210.723L 228.134,212.182C228.134,213.640,228.134,216.557,228.134,219.473C228.134,222.390,228.134,225.307,229.592,226.765C231.050,228.223,233.967,228.223,245.692,228.223C257.417,228.223,277.951,228.223,290.218,228.223C302.484,228.223,306.484,228.223,308.484,230.223C310.484,232.223,310.484,236.223,310.484,402.843C310.484,569.462,310.484,898.702,310.484,1065.184C310.484,1231.666,310.484,1235.391,312.347,1237.254C314.209,1239.116,317.935,1239.116,320.201,1239.116C322.468,1239.116,323.276,1239.116,325.139,1239.116C327.002,1239.116,329.918,1239.116,331.377,1240.575C332.835,1242.033,332.835,1244.950,332.835,1247.866C332.835,1250.783,332.835,1253.700,332.835,1255.158L 332.835,1256.616" fill="none" stroke="#2F3B4D" stroke-width="2"    stroke-linecap="round" stroke-linejoin="round" /><rect x="294.50" y="522.13" width="31.97" height="28.40" rx="2" ry="2" fill="rgba(248,250,252, 0.92)" fill-opacity="0.95" stroke="#7B88A8" stroke-opacity="0.45" stroke-width="0.8"/><text x="310.48" y="540.33" text-anchor="middle" font-family="'trebuchet ms', verdana, arial, sans-serif" font-size="16" fill="#333333"><tspan x="310.48" dy="0.00">Yes</tspan></text><path d="M 284.835,1310.616L 284.835,1312.075C284.835,1313.533,284.835,1316.450,284.835,1319.366C284.835,1322.283,284.835,1325.200,283.481,1327.201C282.128,1329.202,279.421,1330.287,274.538,1332.244C269.656,1334.202,262.599,1337.031,257.717,1338.988C252.835,1340.945,250.128,1342.031,248.775,1344.032C247.421,1346.033,247.421,1348.950,247.421,1351.866C247.421,1354.783,247.421,1357.700,247.421,1359.158L 247.421,1360.616" fill="none" stroke="#2F3B4D" stroke-width="2"    stroke-linecap="round" stroke-linejoin="round" /><rect x="158.52" y="8.00" width="102.35" height="39.00" rx="19.50" ry="19.50" fill="#ECECFF" stroke="#7B88A8" stroke-width="1" stroke-linejoin="round" stroke-linecap="round"/><text x="209.70" y="31.50" text-anchor="middle" font-family="'trebuchet ms', verdana, arial, sans-serif" font-size="16" fill="#333333"><tspan x="209.70" dy="0.00">User Visit</tspan></text><polygon points="212.13,97.00 277.00,161.86 212.13,226.72 147.27,161.86" fill="#ECECFF" stroke="#7B88A8" stroke-width="1" stroke-linejoin="round" stroke-linecap="round"/><text x="212.13" y="165.86" text-anchor="middle" font-family="'trebuchet ms', verdana, arial, sans-serif" font-size="16" fill="#333333"><tspan x="212.13" dy="0.00">Logged in?</tspan></text><rect x="57.61" y="308.72" width="174.83" height="54.00" rx="3" ry="3" fill="#ECECFF" stroke="#7B88A8" stroke-width="1" stroke-linejoin="round" stroke-linecap="round"/><text x="145.03" y="339.72" text-anchor="middle" font-family="'trebuchet ms', verdana, arial, sans-serif" font-size="16" fill="#333333"><tspan x="145.03" dy="0.00">Show Login Form</tspan></text><polygon points="147.19,412.72 241.14,506.67 147.19,600.63 53.24,506.67" fill="#ECECFF" stroke="#7B88A8" stroke-width="1" stroke-linejoin="round" stroke-linecap="round"/><text x="147.19" y="510.67" text-anchor="middle" font-family="'trebuchet ms', verdana, arial, sans-serif" font-size="16" fill="#333333"><tspan x="147.19" dy="0.00">Credentials Valid?</tspan></text><rect x="14.70" y="1256.62" width="136.55" height="54.00" rx="3" ry="3" fill="#ECECFF" stroke="#7B88A8" stroke-width="1" stroke-linejoin="round" stroke-linecap="round"/><text x="82.97" y="1287.62" text-anchor="middle" font-family="'trebuchet ms', verdana, arial, sans-serif" font-size="16" fill="#333333"><tspan x="82.97" dy="0.00">Show Error</tspan></text><polygon points="216.43,682.63 288.56,754.76 216.43,826.89 144.29,754.76" fill="#ECECFF" stroke="#7B88A8" stroke-width="1" stroke-linejoin="round" stroke-linecap="round"/><text x="216.43" y="758.76" text-anchor="middle" font-family="'trebuchet ms', verdana, arial, sans-serif" font-size="16" fill="#333333"><tspan x="216.43" dy="0.00">2FA Enabled?</tspan></text><rect x="113.13" y="908.89" width="121.26" height="54.00" rx="3" ry="3" fill="#ECECFF" stroke="#7B88A8" stroke-width="1" stroke-linejoin="round" stroke-linecap="round"/><text x="173.77" y="939.89" text-anchor="middle" font-family="'trebuchet ms', verdana, arial, sans-serif" font-size="16" fill="#333333"><tspan x="173.77" dy="0.00">Send OTP</tspan></text><polygon points="178.66,1044.89 243.52,1109.75 178.66,1174.62 113.80,1109.75" fill="#ECECFF" stroke="#7B88A8" stroke-width="1" stroke-linejoin="round" stroke-linecap="round"/><text x="178.66" y="1113.75" text-anchor="middle" font-family="'trebuchet ms', verdana, arial, sans-serif" font-size="16" fill="#333333"><tspan x="178.66" dy="0.00">OTP Valid?</tspan></text><rect x="201.25" y="1256.62" width="167.17" height="54.00" rx="3" ry="3" fill="#ECECFF" stroke="#7B88A8" stroke-width="1" stroke-linejoin="round" stroke-linecap="round"/><text x="284.83" y="1287.62" text-anchor="middle" font-family="'trebuchet ms', verdana, arial, sans-serif" font-size="16" fill="#333333"><tspan x="284.83" dy="0.00">Create Session</tspan></text><rect x="182.97" y="1360.62" width="128.90" height="54.00" rx="3" ry="3" fill="#ECECFF" stroke="#7B88A8" stroke-width="1" stroke-linejoin="round" stroke-linecap="round"/><text x="247.42" y="1391.62" text-anchor="middle" font-family="'trebuchet ms', verdana, arial, sans-serif" font-size="16" fill="#333333"><tspan x="247.42" dy="0.00">Dashboard</tspan></text><g transform="translate(212.13 97.00) rotate(90.00)"><polygon points="0,0 -10.40,6.24 -10.40,-6.24" fill="#2F3B4D" stroke="#2F3B4D" stroke-width="2" stroke-linejoin="round" stroke-linecap="round"/></g><g transform="translate(145.03 308.72) rotate(90.00)"><polygon points="0,0 -10.40,6.24 -10.40,-6.24" fill="#2F3B4D" stroke="#2F3B4D" stroke-width="2" stroke-linejoin="round" stroke-linecap="round"/></g><g transform="translate(147.19 412.72) rotate(90.00)"><polygon points="0,0 -10.40,6.24 -10.40,-6.24" fill="#2F3B4D" stroke="#2F3B4D" stroke-width="2" stroke-linejoin="round" stroke-linecap="round"/></g><g transform="translate(66.97 1256.62) rotate(90.00)"><polygon points="0,0 -10.40,6.24 -10.40,-6.24" fill="#2F3B4D" stroke="#2F3B4D" stroke-width="2" stroke-linejoin="round" stroke-linecap="round"/></g><g transform="translate(145.03 362.72) rotate(-90.00)"><polygon points="0,0 -10.40,6.24 -10.40,-6.24" fill="#2F3B4D" stroke="#2F3B4D" stroke-width="2" stroke-linejoin="round" stroke-linecap="round"/></g><g transform="translate(216.43 682.63) rotate(90.00)"><polygon points="0,0 -10.40,6.24 -10.40,-6.24" fill="#2F3B4D" stroke="#2F3B4D" stroke-width="2" stroke-linejoin="round" stroke-linecap="round"/></g><g transform="translate(173.77 908.89) rotate(90.00)"><polygon points="0,0 -10.40,6.24 -10.40,-6.24" fill="#2F3B4D" stroke="#2F3B4D" stroke-width="2" stroke-linejoin="round" stroke-linecap="round"/></g><g transform="translate(178.66 1044.89) rotate(90.00)"><polygon points="0,0 -10.40,6.24 -10.40,-6.24" fill="#2F3B4D" stroke="#2F3B4D" stroke-width="2" stroke-linejoin="round" stroke-linecap="round"/></g><g transform="translate(114.97 1256.62) rotate(90.00)"><polygon points="0,0 -10.40,6.24 -10.40,-6.24" fill="#2F3B4D" stroke="#2F3B4D" stroke-width="2" stroke-linejoin="round" stroke-linecap="round"/></g><g transform="translate(236.83 1256.62) rotate(90.00)"><polygon points="0,0 -10.40,6.24 -10.40,-6.24" fill="#2F3B4D" stroke="#2F3B4D" stroke-width="2" stroke-linejoin="round" stroke-linecap="round"/></g><g transform="translate(316.83 1256.62) rotate(90.00)"><polygon points="0,0 -10.40,6.24 -10.40,-6.24" fill="#2F3B4D" stroke="#2F3B4D" stroke-width="2" stroke-linejoin="round" stroke-linecap="round"/></g><g transform="translate(332.83 1256.62) rotate(90.00)"><polygon points="0,0 -10.40,6.24 -10.40,-6.24" fill="#2F3B4D" stroke="#2F3B4D" stroke-width="2" stroke-linejoin="round" stroke-linecap="round"/></g><g transform="translate(247.42 1360.62) rotate(90.00)"><polygon points="0,0 -10.40,6.24 -10.40,-6.24" fill="#2F3B4D" stroke="#2F3B4D" stroke-width="2" stroke-linejoin="round" stroke-linecap="round"/></g></svg>