<svg xmlns="http://www.w3.org/2000/svg" width="346.1151" height="555.551" viewBox="0 0 346.1151 555.551"><rect x="0" y="0" width="346.1151" height="555.551" fill="#FFFFFF"/><defs><marker id="arrow-0" viewBox="0 0 10 10" refX="5" refY="5" markerUnits="userSpaceOnUse" markerWidth="8" markerHeight="8" orient="auto"><path d="M 0 0 L 10 5 L 0 10 z" fill="#2F3B4D" stroke="#2F3B4D" stroke-width="1" stroke-dasharray="1,0"/></marker><marker id="arrow-start-0" viewBox="0 0 10 10" refX="4.5" refY="5" markerUnits="userSpaceOnUse" markerWidth="8" markerHeight="8" orient="auto"><path d="M 0 5 L 10 10 L 10 0 z" fill="#2F3B4D" stroke="#2F3B4D" stroke-width="1" stroke-dasharray="1,0"/></marker></defs><path d="M 169.268,47.000L 169.268,48.138C169.268,49.275,169.268,51.550,169.268,53.825C169.268,56.100,169.268,58.375,169.267,60.650C169.266,62.925,169.264,65.200,169.263,66.463C169.262,67.726,169.262,67.977,169.260,69.240C169.259,70.503,169.257,72.778,169.256,75.053C169.256,77.328,169.256,79.603,169.256,81.878C169.256,84.153,169.256,86.428,169.256,87.566L 169.256,88.703" fill="none" stroke="#2F3B4D" stroke-width="2"    stroke-linecap="round" stroke-linejoin="round" /><path d="M 185.256,127.703L 185.256,128.841C185.256,129.978,185.256,132.253,185.256,134.528C185.256,136.803,185.256,139.078,184.410,140.977C183.564,142.875,181.873,144.396,180.050,146.036C178.226,147.676,176.272,149.434,174.449,151.074C172.625,152.714,170.934,154.235,170.088,156.134C169.243,158.032,169.243,160.307,169.243,162.582C169.243,164.857,169.243,167.132,169.243,168.269L 169.243,169.407" fill="none" stroke="#2F3B4D" stroke-width="2"    stroke-linecap="round" stroke-linejoin="round" /><path d="M 201.243,238.041L 201.243,239.257C201.243,240.473,201.243,242.906,201.243,245.339C201.243,247.772,201.243,250.204,202.030,252.348C202.817,254.492,204.391,256.346,211.094,264.243C217.798,272.140,229.630,286.079,236.333,293.975C243.036,301.872,244.610,303.727,245.398,305.870C246.185,308.014,246.185,310.447,246.185,312.880C246.185,315.312,246.185,317.745,246.185,318.961L 246.185,320.178" fill="none" stroke="#2F3B4D" stroke-width="2"    stroke-linecap="round" stroke-linejoin="round" /><rect x="231.72" y="244.55" width="31.97" height="28.40" rx="2" ry="2" fill="rgba(248,250,252, 0.92)" fill-opacity="0.95" stroke="#7B88A8" stroke-opacity="0.45" stroke-width="0.8"/><text x="247.70" y="262.75" text-anchor="middle" font-family="'trebuchet ms', verdana, arial, sans-serif" font-size="16" fill="#333333"><tspan x="247.70" dy="0.00">Yes</tspan></text><path d="M 137.243,238.041L 137.243,239.257C137.243,240.473,137.243,242.906,137.243,245.339C137.243,247.772,137.243,250.204,136.659,252.488C136.075,254.771,134.907,256.905,130.663,264.662C126.419,272.419,119.099,285.799,114.855,293.556C110.611,301.313,109.443,303.447,108.859,305.731C108.275,308.014,108.275,310.447,108.275,312.880C108.275,315.312,108.275,317.745,108.275,318.961L 108.275,320.178" fill="none" stroke="#2F3B4D" stroke-width="2"    stroke-linecap="round" stroke-linejoin="round" /><rect x="83.07" y="282.31" width="25.77" height="28.40" rx="2" ry="2" fill="rgba(248,250,252, 0.92)" fill-opacity="0.95" stroke="#7B88A8" stroke-opacity="0.45" stroke-width="0.8"/><text x="95.96" y="300.51" text-anchor="middle" font-family="'trebuchet ms', verdana, arial, sans-serif" font-size="16" fill="#333333"><tspan x="95.96" dy="0.00">No</tspan></text><path d="M 76.275,320.178L 76.275,293.707C76.275,267.236,76.275,214.295,76.275,185.824C76.275,157.353,76.275,153.353,78.275,151.353C80.275,149.353,84.275,149.353,95.301,149.353C106.327,149.353,124.379,149.353,135.209,149.353C146.039,149.353,149.647,149.353,151.451,147.549C153.256,145.745,153.256,142.137,153.256,138.528C153.256,134.920,153.256,131.312,153.256,129.508L 153.256,127.703" fill="none" stroke="#2F3B4D" stroke-width="2"    stroke-linecap="round" stroke-linejoin="round" /><path d="M 262.185,374.178L 262.185,376.270C262.185,378.363,262.185,382.549,262.185,384.982C262.185,387.414,262.185,388.094,262.178,388.774C262.171,389.453,262.157,390.133,262.150,390.473C262.143,390.813,262.143,390.813,262.136,391.152C262.129,391.492,262.115,392.172,262.108,392.852C262.101,393.531,262.101,394.211,262.101,396.644C262.101,399.076,262.101,403.262,262.101,405.355L 262.101,407.448" fill="none" stroke="#2F3B4D" stroke-width="2"    stroke-linecap="round" stroke-linejoin="round" /><path d="M 262.101,466.848L 262.101,467.985C262.101,469.123,262.101,471.398,262.101,473.673C262.101,475.948,262.101,478.223,262.100,480.498C262.099,482.773,262.097,485.048,262.096,486.311C262.095,487.574,262.095,487.825,262.094,489.088C262.093,490.351,262.091,492.626,262.090,494.901C262.089,497.176,262.089,499.451,262.089,501.726C262.089,504.001,262.089,506.276,262.089,507.414L 262.089,508.551" fill="none" stroke="#2F3B4D" stroke-width="2"    stroke-linecap="round" stroke-linejoin="round" /><polygon points="169.24,169.41 219.56,219.72 169.24,270.04 118.93,219.72" fill="#ECECFF" stroke="#7B88A8" stroke-width="1" stroke-linejoin="round" stroke-linecap="round"/><text x="169.24" y="223.72" text-anchor="middle" font-family="'trebuchet ms', verdana, arial, sans-serif" font-size="16" fill="#333333"><tspan x="169.24" dy="0.00">Valid?</tspan></text><rect x="237.52" y="508.55" width="49.14" height="39.00" rx="19.50" ry="19.50" fill="#ECECFF" stroke="#7B88A8" stroke-width="1" stroke-linejoin="round" stroke-linecap="round"/><text x="262.09" y="532.05" text-anchor="middle" font-family="'trebuchet ms', verdana, arial, sans-serif" font-size="16" fill="#333333"><tspan x="262.09" dy="0.00">End</tspan></text><rect x="8.00" y="320.18" width="136.55" height="54.00" rx="3" ry="3" fill="#ECECFF" stroke="#7B88A8" stroke-width="1" stroke-linejoin="round" stroke-linecap="round"/><text x="76.28" y="351.18" text-anchor="middle" font-family="'trebuchet ms', verdana, arial, sans-serif" font-size="16" fill="#333333"><tspan x="76.28" dy="0.00">Show Error</tspan></text><polygon points="127.59,88.70 234.35,88.70 210.92,127.70 104.16,127.70" fill="#ECECFF" stroke="#7B88A8" stroke-width="1" stroke-linejoin="round" stroke-linecap="round"/><text x="169.26" y="112.20" text-anchor="middle" font-family="'trebuchet ms', verdana, arial, sans-serif" font-size="16" fill="#333333"><tspan x="169.26" dy="0.00">Read Input</tspan></text><rect x="186.25" y="320.18" width="151.86" height="54.00" rx="3" ry="3" fill="#ECECFF" stroke="#7B88A8" stroke-width="1" stroke-linejoin="round" stroke-linecap="round"/><text x="262.18" y="351.18" text-anchor="middle" font-family="'trebuchet ms', verdana, arial, sans-serif" font-size="16" fill="#333333"><tspan x="262.18" dy="0.00">Process Data</tspan></text><ellipse cx="262.10" cy="414.58" rx="75.10" ry="7.13" fill="#ECECFF" stroke="#7B88A8" stroke-width="1" stroke-linejoin="round" stroke-linecap="round"/><rect x="187.00" y="414.58" width="150.21" height="45.14" fill="#ECECFF" stroke="#7B88A8" stroke-width="1" stroke-linejoin="round" stroke-linecap="round"/><ellipse cx="262.10" cy="459.72" rx="75.10" ry="7.13" fill="none" stroke="#7B88A8" stroke-width="1" stroke-linejoin="round" stroke-linecap="round"/><text x="262.10" y="441.15" text-anchor="middle" font-family="'trebuchet ms', verdana, arial, sans-serif" font-size="16" fill="#333333"><tspan x="262.10" dy="0.00">Save to DB</tspan></text><rect x="137.23" y="8.00" width="64.08" height="39.00" rx="19.50" ry="19.50" fill="#ECECFF" stroke="#7B88A8" stroke-width="1" stroke-linejoin="round" stroke-linecap="round"/><text x="169.27" y="31.50" text-anchor="middle" font-family="'trebuchet ms', verdana, arial, sans-serif" font-size="16" fill="#333333"><tspan x="169.27" dy="0.00">Start</tspan></text><g transform="translate(169.26 88.70) rotate(90.00)"><polygon points="0,0 -10.40,6.24 -10.40,-6.24" fill="#2F3B4D" stroke="#2F3B4D" stroke-width="2" stroke-linejoin="round" stroke-linecap="round"/></g><g transform="translate(169.24 169.41) rotate(90.00)"><polygon points="0,0 -10.40,6.24 -10.40,-6.24" fill="#2F3B4D" stroke="#2F3B4D" stroke-width="2" stroke-linejoin="round" stroke-linecap="round"/></g><g transform="translate(246.18 320.18) rotate(90.00)"><polygon points="0,0 -10.40,6.24 -10.40,-6.24" fill="#2F3B4D" stroke="#2F3B4D" stroke-width="2" stroke-linejoin="round" stroke-linecap="round"/></g><g transform="translate(108.28 320.18) rotate(90.00)"><polygon points="0,0 -10.40,6.24 -10.40,-6.24" fill="#2F3B4D" stroke="#2F3B4D" stroke-width="2" stroke-linejoin="round" stroke-linecap="round"/></g><g transform="translate(153.26 127.70) rotate(-90.00)"><polygon points="0,0 -10.40,6.24 -10.40,-6.24" fill="#2F3B4D" stroke="#2F3B4D" stroke-width="2" stroke-linejoin="round" stroke-linecap="round"/></g><g transform="translate(262.10 407.45) rotate(90.00)"><polygon points="0,0 -10.40,6.24 -10.40,-6.24" fill="#2F3B4D" stroke="#2F3B4D" stroke-width="2" stroke-linejoin="round" stroke-linecap="round"/></g><g transform="translate(262.09 508.55) rotate(90.00)"><polygon points="0,0 -10.40,6.24 -10.40,-6.24" fill="#2F3B4D" stroke="#2F3B4D" stroke-width="2" stroke-linejoin="round" stroke-linecap="round"/></g></svg>