<svg xmlns="http://www.w3.org/2000/svg" width="658.1" height="579.85004" viewBox="0 0 658.1 579.85004"><rect width="100%" height="100%" fill="#FFFFFF"/><defs><marker id="arrow-0" viewBox="0 0 10 10" refX="10" refY="5" markerWidth="8" markerHeight="8" orient="auto-start-reverse"><path d="M 0 0 L 10 5 L 0 10 z" fill="#7A8AA6"/></marker><marker id="arrow-start-0" viewBox="0 0 10 10" refX="0" refY="5" markerWidth="8" markerHeight="8" orient="auto"><path d="M 10 0 L 0 5 L 10 10 z" fill="#7A8AA6"/></marker></defs><rect x="24.00" y="410.05" width="574.10" height="109.80" rx="10" ry="10" fill="#F7FAFF" stroke="#D7E0F0" stroke-width="1.2" /><text x="311.05" y="435.05" text-anchor="middle" font-family="Inter, Segoe UI, system-ui, -apple-system, sans-serif" font-size="13" fill="#1C2430"><tspan x="311.05" dy="0.00">Testing</tspan></text><path d="M 365.50 60.90 L 365.50 85.01 Q 365.50 85.51 365.50 85.51 L 365.50 85.51 Q 365.50 85.51 365.50 86.01 L 365.50 110.12" fill="none" stroke="#7A8AA6" stroke-width="1.4" marker-end="url(#arrow-0)"   stroke-linecap="round" stroke-linejoin="round" /><path d="M 365.50 161.78 L 365.50 174.39 Q 365.50 186.39 353.50 186.39 L 315.05 186.39 Q 303.05 186.39 303.05 198.39 L 303.05 211.00" fill="none" stroke="#7A8AA6" stroke-width="1.4" marker-end="url(#arrow-0)"   stroke-linecap="round" stroke-linejoin="round" /><rect x="316.57" y="173.94" width="35.40" height="24.90" rx="6" ry="6" fill="#FFFFFF" fill-opacity="0.85" stroke="#C7D2E5" stroke-opacity="0.35" stroke-width="0.8"/><text x="334.27" y="190.94" text-anchor="middle" font-family="Inter, Segoe UI, system-ui, -apple-system, sans-serif" font-size="13" fill="#1C2430"><tspan x="334.27" dy="0.00">Yes</tspan></text><path d="M 365.50 161.78 L 365.50 169.71 Q 365.50 177.64 373.43 177.64 L 415.95 177.64 Q 427.95 177.64 427.95 189.64 L 427.95 211.00" fill="none" stroke="#7A8AA6" stroke-width="1.4" marker-end="url(#arrow-0)"   stroke-linecap="round" stroke-linejoin="round" /><rect x="382.92" y="165.19" width="27.60" height="24.90" rx="6" ry="6" fill="#FFFFFF" fill-opacity="0.85" stroke="#C7D2E5" stroke-opacity="0.35" stroke-width="0.8"/><text x="396.72" y="182.19" text-anchor="middle" font-family="Inter, Segoe UI, system-ui, -apple-system, sans-serif" font-size="13" fill="#1C2430"><tspan x="396.72" dy="0.00">No</tspan></text><path d="M 427.95 247.90 L 427.95 199.76 Q 427.95 187.76 415.95 187.76 L 377.50 187.76 Q 365.50 187.76 365.50 175.76 L 365.50 110.12" fill="none" stroke="#7A8AA6" stroke-width="1.4" marker-end="url(#arrow-0)"   stroke-linecap="round" stroke-linejoin="round" /><path d="M 303.05 247.90 L 303.05 272.08 Q 303.05 272.58 303.05 272.58 L 303.05 272.58 Q 303.05 272.58 303.05 273.08 L 303.05 297.25" fill="none" stroke="#7A8AA6" stroke-width="1.4" marker-end="url(#arrow-0)"   stroke-linecap="round" stroke-linejoin="round" /><path d="M 103.00 495.85 L 103.00 486.62 Q 103.00 477.40 112.22 477.40 L 305.77 477.40 Q 315.00 477.40 315.00 468.18 L 315.00 458.95" fill="none" stroke="#7A8AA6" stroke-width="1.4" marker-end="url(#arrow-0)"   stroke-linecap="round" stroke-linejoin="round" /><path d="M 315.00 495.85 L 315.00 486.62 Q 315.00 477.40 324.22 477.40 L 513.78 477.40 Q 523.00 477.40 523.00 468.18 L 523.00 458.95" fill="none" stroke="#7A8AA6" stroke-width="1.4" marker-end="url(#arrow-0)"   stroke-linecap="round" stroke-linejoin="round" /><path d="M 303.05 352.65 L 303.05 377.35 Q 303.05 381.35 307.05 381.35 L 307.05 381.35 Q 311.05 381.35 311.05 385.35 L 311.05 410.05" fill="none" stroke="#7A8AA6" stroke-width="1.4" marker-end="url(#arrow-0)"   stroke-linecap="round" stroke-linejoin="round" /><rect x="330.00" y="24.00" width="71.00" height="36.90" rx="6" ry="6" fill="#90EE90" stroke="#C7D2E5" stroke-width="1.4" stroke-linejoin="round" stroke-linecap="round"/><text x="365.50" y="47.00" text-anchor="middle" font-family="Inter, Segoe UI, system-ui, -apple-system, sans-serif" font-size="13" fill="#1C2430"><tspan x="365.50" dy="0.00">Start</tspan></text><polygon points="365.50,110.12 464.34,135.95 365.50,161.78 266.66,135.95" fill="#FFD700" stroke="#C7D2E5" stroke-width="1.4" stroke-linejoin="round" stroke-linecap="round"/><text x="365.50" y="140.50" text-anchor="middle" font-family="Inter, Segoe UI, system-ui, -apple-system, sans-serif" font-size="13" fill="#1C2430"><tspan x="365.50" dy="0.00">Is it working?</tspan></text><rect x="263.65" y="211.00" width="78.80" height="36.90" rx="6" ry="6" fill="#F8FAFF" stroke="#C7D2E5" stroke-width="1.4" stroke-linejoin="round" stroke-linecap="round"/><text x="303.05" y="234.00" text-anchor="middle" font-family="Inter, Segoe UI, system-ui, -apple-system, sans-serif" font-size="13" fill="#1C2430"><tspan x="303.05" dy="0.00">Great!</tspan></text><rect x="392.45" y="211.00" width="71.00" height="36.90" rx="6" ry="6" fill="#F8FAFF" stroke="#C7D2E5" stroke-width="1.4" stroke-linejoin="round" stroke-linecap="round"/><text x="427.95" y="234.00" text-anchor="middle" font-family="Inter, Segoe UI, system-ui, -apple-system, sans-serif" font-size="13" fill="#1C2430"><tspan x="427.95" dy="0.00">Debug</tspan></text><circle cx="303.05" cy="324.95" r="27.70" fill="#FFB6C1" stroke="#C7D2E5" stroke-width="1.4" stroke-linejoin="round" stroke-linecap="round"/><circle cx="303.05" cy="324.95" r="23.70" fill="none" stroke="#C7D2E5" stroke-width="1" stroke-linejoin="round" stroke-linecap="round"/><text x="303.05" y="329.50" text-anchor="middle" font-family="Inter, Segoe UI, system-ui, -apple-system, sans-serif" font-size="13" fill="#1C2430"><tspan x="303.05" dy="0.00">End</tspan></text><rect x="48.00" y="458.95" width="110.00" height="36.90" rx="6" ry="6" fill="#F8FAFF" stroke="#C7D2E5" stroke-width="1.4" stroke-linejoin="round" stroke-linecap="round"/><text x="103.00" y="481.95" text-anchor="middle" font-family="Inter, Segoe UI, system-ui, -apple-system, sans-serif" font-size="13" fill="#1C2430"><tspan x="103.00" dy="0.00">Unit Tests</tspan></text><rect x="232.70" y="458.95" width="164.60" height="36.90" rx="6" ry="6" fill="#F8FAFF" stroke="#C7D2E5" stroke-width="1.4" stroke-linejoin="round" stroke-linecap="round"/><text x="315.00" y="481.95" text-anchor="middle" font-family="Inter, Segoe UI, system-ui, -apple-system, sans-serif" font-size="13" fill="#1C2430"><tspan x="315.00" dy="0.00">Integration Tests</tspan></text><rect x="471.90" y="458.95" width="102.20" height="36.90" rx="6" ry="6" fill="#F8FAFF" stroke="#C7D2E5" stroke-width="1.4" stroke-linejoin="round" stroke-linecap="round"/><text x="523.00" y="481.95" text-anchor="middle" font-family="Inter, Segoe UI, system-ui, -apple-system, sans-serif" font-size="13" fill="#1C2430"><tspan x="523.00" dy="0.00">E2E Tests</tspan></text></svg>