<svg xmlns="http://www.w3.org/2000/svg" width="175.35358" height="916.9139" viewBox="0 0 175.35358 916.9139"><rect x="0" y="0" width="175.35358" height="916.9139" fill="#FFFFFF"/><defs><marker id="arrow-0" viewBox="0 0 10 10" refX="5" refY="5" markerUnits="userSpaceOnUse" markerWidth="8" markerHeight="8" orient="auto"><path d="M 0 0 L 10 5 L 0 10 z" fill="#2F3B4D" stroke="#2F3B4D" stroke-width="1" stroke-dasharray="1,0"/></marker><marker id="arrow-start-0" viewBox="0 0 10 10" refX="4.5" refY="5" markerUnits="userSpaceOnUse" markerWidth="8" markerHeight="8" orient="auto"><path d="M 0 5 L 10 10 L 10 0 z" fill="#2F3B4D" stroke="#2F3B4D" stroke-width="1" stroke-dasharray="1,0"/></marker></defs><rect x="8.84" y="587.22" width="158.28" height="321.69" rx="10" ry="10" fill="#FFFFDE" stroke="#AAAA33" stroke-width="1" /><text x="87.98" y="615.22" text-anchor="middle" font-family="'trebuchet ms', verdana, arial, sans-serif" font-size="16" fill="#333333"><tspan x="87.98" dy="0.00">LoopBlock</tspan></text><path d="M 95.644,62.000L 95.644,63.328C95.644,64.656,95.644,67.313,95.644,69.637C95.644,71.961,95.644,73.954,95.644,75.946C95.643,77.938,95.642,79.930,95.641,80.927C95.641,81.923,95.641,81.923,95.640,82.919C95.640,83.915,95.638,85.907,95.638,87.900C95.637,89.892,95.637,91.884,95.637,94.208C95.637,96.533,95.637,99.189,95.637,100.517L 95.637,101.845" fill="none" stroke="#2F3B4D" stroke-width="2"    stroke-linecap="round" stroke-linejoin="round" /><path d="M 111.637,186.479L 111.637,187.642C111.637,188.804,111.637,191.128,111.637,193.452C111.637,195.777,111.637,198.101,110.475,199.263C109.313,200.425,106.988,200.425,91.717,200.425C76.445,200.425,48.225,200.425,32.115,200.425C16.005,200.425,12.005,200.425,10.005,202.425C8.005,204.425,8.005,208.425,8.005,216.418C8.005,224.410,8.005,236.394,8.005,244.387C8.005,252.379,8.005,256.379,10.005,258.379C12.005,260.379,16.005,260.379,29.448,260.379C42.890,260.379,65.775,260.379,78.379,260.379C90.983,260.379,93.308,260.379,94.470,261.541C95.632,262.703,95.632,265.028,95.632,267.352C95.632,269.676,95.632,272.001,95.632,273.163L 95.632,274.325" fill="none" stroke="#2F3B4D" stroke-width="2"    stroke-linecap="round" stroke-linejoin="round" /><rect x="3.56" y="208.20" width="31.97" height="28.40" rx="2" ry="2" fill="rgba(248,250,252, 0.92)" fill-opacity="0.95" stroke="#7B88A8" stroke-opacity="0.45" stroke-width="0.8"/><text x="19.54" y="226.40" text-anchor="middle" font-family="'trebuchet ms', verdana, arial, sans-serif" font-size="16" fill="#333333"><tspan x="19.54" dy="0.00">yes</tspan></text><path d="M 95.632,328.325L 95.632,329.487C95.632,330.649,95.632,332.974,95.632,335.298C95.632,337.622,95.632,339.947,94.470,341.109C93.308,342.271,90.983,342.271,78.378,342.271C65.773,342.271,42.886,342.271,29.443,342.271C16.000,342.271,12.000,342.271,10.000,344.271C8.000,346.271,8.000,350.271,8.000,352.930C8.000,355.589,8.000,356.907,8.000,359.566C8.000,362.224,8.000,366.224,10.000,368.224C12.000,370.224,16.000,370.224,32.109,370.224C48.218,370.224,76.436,370.224,91.707,370.224C106.978,370.224,109.302,370.224,110.464,371.387C111.626,372.549,111.626,374.873,111.626,377.197C111.626,379.522,111.626,381.846,111.626,383.008L 111.626,384.170" fill="none" stroke="#2F3B4D" stroke-width="2"    stroke-linecap="round" stroke-linejoin="round" /><path d="M 95.626,368.170L 95.626,367.008C95.626,365.846,95.626,363.522,95.626,361.197C95.626,358.873,95.626,356.549,96.788,355.387C97.951,354.224,100.275,354.224,110.229,354.224C120.184,354.224,137.769,354.224,148.561,354.224C159.354,354.224,163.354,354.224,165.354,352.224C167.354,350.224,167.354,346.224,167.354,325.258C167.354,304.291,167.354,266.358,167.354,245.392C167.354,224.425,167.354,220.425,165.354,218.425C163.354,216.425,159.354,216.425,148.563,216.425C137.772,216.425,120.191,216.425,110.239,216.425C100.286,216.425,97.961,216.425,96.799,215.263C95.637,214.101,95.637,211.777,95.637,209.452C95.637,207.128,95.637,204.804,95.637,203.642L 95.637,202.479" fill="none" stroke="#2F3B4D" stroke-width="2"    stroke-linecap="round" stroke-linejoin="round" /><rect x="139.83" y="228.94" width="31.97" height="28.40" rx="2" ry="2" fill="rgba(248,250,252, 0.92)" fill-opacity="0.95" stroke="#7B88A8" stroke-opacity="0.45" stroke-width="0.8"/><text x="155.82" y="247.14" text-anchor="middle" font-family="'trebuchet ms', verdana, arial, sans-serif" font-size="16" fill="#333333"><tspan x="155.82" dy="0.00">yes</tspan></text><path d="M 95.626,461.532L 95.626,462.694C95.626,463.856,95.626,466.181,95.626,468.505C95.626,470.829,95.626,473.154,95.625,475.478C95.624,477.802,95.621,480.127,95.613,486.290C95.606,492.453,95.594,502.456,95.587,508.620C95.580,514.783,95.577,517.107,95.575,519.432C95.574,521.756,95.574,524.080,95.574,526.405C95.574,528.729,95.574,531.053,95.574,532.215L 95.574,533.378" fill="none" stroke="#2F3B4D" stroke-width="2"    stroke-linecap="round" stroke-linejoin="round" /><rect x="83.44" y="489.85" width="24.31" height="28.40" rx="2" ry="2" fill="rgba(248,250,252, 0.92)" fill-opacity="0.95" stroke="#7B88A8" stroke-opacity="0.45" stroke-width="0.8"/><text x="95.59" y="508.05" text-anchor="middle" font-family="'trebuchet ms', verdana, arial, sans-serif" font-size="16" fill="#333333"><tspan x="95.59" dy="0.00">no</tspan></text><path d="M 87.977,681.223 L 87.976,721.068" fill="none" stroke="#2F3B4D" stroke-width="2"    stroke-linecap="round" stroke-linejoin="round" /><path d="M 87.976,775.068 L 87.977,814.914" fill="none" stroke="#2F3B4D" stroke-width="2"    stroke-linecap="round" stroke-linejoin="round" /><path d="M 103.977,814.914L 103.977,813.752C103.977,812.590,103.977,810.265,103.977,807.941C103.977,805.617,103.977,803.292,105.139,802.130C106.301,800.968,108.626,800.968,114.595,800.968C120.564,800.968,130.178,800.968,136.984,800.968C143.791,800.968,147.791,800.968,149.791,798.968C151.791,796.968,151.791,792.968,151.791,777.335C151.791,761.702,151.791,734.435,151.791,718.802C151.791,703.169,151.791,699.169,149.791,697.169C147.791,695.169,143.791,695.169,136.984,695.169C130.177,695.169,120.563,695.169,114.594,695.169C108.625,695.169,106.301,695.169,105.139,694.007C103.977,692.845,103.977,690.520,103.977,688.196C103.977,685.872,103.977,683.547,103.977,682.385L 103.977,681.223" fill="none" stroke="#2F3B4D" stroke-width="2"    stroke-linecap="round" stroke-linejoin="round" /><path d="M 95.574,587.378L 95.574,588.540C95.574,589.702,95.574,592.026,95.574,594.350C95.574,596.675,95.574,598.999,94.951,601.142C94.327,603.285,93.080,605.247,92.438,606.258C91.795,607.270,91.756,607.331,91.113,608.342C90.470,609.354,89.223,611.315,88.600,613.458C87.977,615.601,87.977,617.926,87.977,620.250C87.977,622.574,87.977,624.899,87.977,626.061L 87.977,627.223" fill="none" stroke="#2F3B4D" stroke-width="2"    stroke-linecap="round" stroke-linejoin="round" /><rect x="46.51" y="8.00" width="98.28" height="54.00" rx="3" ry="3" fill="#ECECFF" stroke="#7B88A8" stroke-width="1" stroke-linejoin="round" stroke-linecap="round"/><text x="95.64" y="39.00" text-anchor="middle" font-family="'trebuchet ms', verdana, arial, sans-serif" font-size="16" fill="#333333"><tspan x="95.64" dy="0.00">Start</tspan></text><polygon points="95.64,101.85 145.95,152.16 95.64,202.48 45.32,152.16" fill="#ECECFF" stroke="#7B88A8" stroke-width="1" stroke-linejoin="round" stroke-linecap="round"/><text x="95.64" y="156.16" text-anchor="middle" font-family="'trebuchet ms', verdana, arial, sans-serif" font-size="16" fill="#333333"><tspan x="95.64" dy="0.00">Decide</tspan></text><rect x="38.84" y="274.32" width="113.59" height="54.00" rx="3" ry="3" fill="#ECECFF" stroke="#7B88A8" stroke-width="1" stroke-linejoin="round" stroke-linecap="round"/><text x="95.63" y="305.32" text-anchor="middle" font-family="'trebuchet ms', verdana, arial, sans-serif" font-size="16" fill="#333333"><tspan x="95.63" dy="0.00">Do work</tspan></text><polygon points="95.63,368.17 142.31,414.85 95.63,461.53 48.95,414.85" fill="#ECECFF" stroke="#7B88A8" stroke-width="1" stroke-linejoin="round" stroke-linecap="round"/><text x="95.63" y="418.85" text-anchor="middle" font-family="'trebuchet ms', verdana, arial, sans-serif" font-size="16" fill="#333333"><tspan x="95.63" dy="0.00">More?</tspan></text><rect x="53.90" y="533.38" width="83.34" height="54.00" rx="3" ry="3" fill="#ECECFF" stroke="#7B88A8" stroke-width="1" stroke-linejoin="round" stroke-linecap="round"/><text x="95.57" y="564.38" text-anchor="middle" font-family="'trebuchet ms', verdana, arial, sans-serif" font-size="16" fill="#333333"><tspan x="95.57" dy="0.00">End</tspan></text><rect x="45.58" y="627.22" width="84.80" height="54.00" rx="3" ry="3" fill="#ECECFF" stroke="#7B88A8" stroke-width="1" stroke-linejoin="round" stroke-linecap="round"/><text x="87.98" y="658.22" text-anchor="middle" font-family="'trebuchet ms', verdana, arial, sans-serif" font-size="16" fill="#333333"><tspan x="87.98" dy="0.00">One</tspan></text><rect x="45.58" y="721.07" width="84.78" height="54.00" rx="3" ry="3" fill="#ECECFF" stroke="#7B88A8" stroke-width="1" stroke-linejoin="round" stroke-linecap="round"/><text x="87.98" y="752.07" text-anchor="middle" font-family="'trebuchet ms', verdana, arial, sans-serif" font-size="16" fill="#333333"><tspan x="87.98" dy="0.00">Two</tspan></text><rect x="38.84" y="814.91" width="98.28" height="54.00" rx="3" ry="3" fill="#ECECFF" stroke="#7B88A8" stroke-width="1" stroke-linejoin="round" stroke-linecap="round"/><text x="87.98" y="845.91" text-anchor="middle" font-family="'trebuchet ms', verdana, arial, sans-serif" font-size="16" fill="#333333"><tspan x="87.98" dy="0.00">Three</tspan></text><g transform="translate(95.64 101.85) rotate(90.00)"><polygon points="0,0 -10.40,6.24 -10.40,-6.24" fill="#2F3B4D" stroke="#2F3B4D" stroke-width="2" stroke-linejoin="round" stroke-linecap="round"/></g><g transform="translate(95.63 274.32) rotate(90.00)"><polygon points="0,0 -10.40,6.24 -10.40,-6.24" fill="#2F3B4D" stroke="#2F3B4D" stroke-width="2" stroke-linejoin="round" stroke-linecap="round"/></g><g transform="translate(111.63 384.17) rotate(90.00)"><polygon points="0,0 -10.40,6.24 -10.40,-6.24" fill="#2F3B4D" stroke="#2F3B4D" stroke-width="2" stroke-linejoin="round" stroke-linecap="round"/></g><g transform="translate(95.64 202.48) rotate(-90.00)"><polygon points="0,0 -10.40,6.24 -10.40,-6.24" fill="#2F3B4D" stroke="#2F3B4D" stroke-width="2" stroke-linejoin="round" stroke-linecap="round"/></g><g transform="translate(95.57 533.38) rotate(90.00)"><polygon points="0,0 -10.40,6.24 -10.40,-6.24" fill="#2F3B4D" stroke="#2F3B4D" stroke-width="2" stroke-linejoin="round" stroke-linecap="round"/></g><g transform="translate(87.98 721.07) rotate(90.00)"><polygon points="0,0 -10.40,6.24 -10.40,-6.24" fill="#2F3B4D" stroke="#2F3B4D" stroke-width="2" stroke-linejoin="round" stroke-linecap="round"/></g><g transform="translate(87.98 814.91) rotate(90.00)"><polygon points="0,0 -10.40,6.24 -10.40,-6.24" fill="#2F3B4D" stroke="#2F3B4D" stroke-width="2" stroke-linejoin="round" stroke-linecap="round"/></g><g transform="translate(103.98 681.22) rotate(-90.00)"><polygon points="0,0 -10.40,6.24 -10.40,-6.24" fill="#2F3B4D" stroke="#2F3B4D" stroke-width="2" stroke-linejoin="round" stroke-linecap="round"/></g><g transform="translate(87.98 627.22) rotate(90.00)"><polygon points="0,0 -10.40,6.24 -10.40,-6.24" fill="#2F3B4D" stroke="#2F3B4D" stroke-width="2" stroke-linejoin="round" stroke-linecap="round"/></g></svg>