<svg xmlns="http://www.w3.org/2000/svg" width="908.52014" height="1206.5803" viewBox="0 0 908.52014 1206.5803"><rect x="0" y="0" width="908.52014" height="1206.5803" fill="#FFFFFF"/><defs><marker id="arrow-0" viewBox="0 0 10 10" refX="5" refY="5" markerUnits="userSpaceOnUse" markerWidth="8" markerHeight="8" orient="auto"><path d="M 0 0 L 10 5 L 0 10 z" fill="#2F3B4D" stroke="#2F3B4D" stroke-width="1" stroke-dasharray="1,0"/></marker><marker id="arrow-start-0" viewBox="0 0 10 10" refX="4.5" refY="5" markerUnits="userSpaceOnUse" markerWidth="8" markerHeight="8" orient="auto"><path d="M 0 5 L 10 10 L 10 0 z" fill="#2F3B4D" stroke="#2F3B4D" stroke-width="1" stroke-dasharray="1,0"/></marker></defs><rect x="8.00" y="384.96" width="785.84" height="449.78" rx="10" ry="10" fill="#FFFFDE" stroke="#AAAA33" stroke-width="1" /><text x="400.92" y="412.96" text-anchor="middle" font-family="'trebuchet ms', verdana, arial, sans-serif" font-size="16" fill="#333333"><tspan x="400.92" dy="0.00">Process</tspan></text><rect x="562.20" y="8.00" width="338.32" height="510.96" rx="10" ry="10" fill="#FFFFDE" stroke="#AAAA33" stroke-width="1" /><text x="731.36" y="36.00" text-anchor="middle" font-family="'trebuchet ms', verdana, arial, sans-serif" font-size="16" fill="#333333"><tspan x="731.36" dy="0.00">Ingest</tspan></text><rect x="562.20" y="700.74" width="315.35" height="497.84" rx="10" ry="10" fill="#FFFFDE" stroke="#AAAA33" stroke-width="1" /><text x="719.88" y="728.74" text-anchor="middle" font-family="'trebuchet ms', verdana, arial, sans-serif" font-size="16" fill="#333333"><tspan x="719.88" dy="0.00">Output</tspan></text><path d="M 753.578,102.000L 753.578,103.269C753.578,104.537,753.578,107.074,753.578,109.611C753.578,112.148,753.578,114.685,752.479,116.588C751.380,118.491,749.183,119.759,746.514,121.300C743.845,122.840,740.704,124.653,738.034,126.193C735.365,127.734,733.168,129.002,732.069,130.905C730.970,132.808,730.970,135.345,730.970,137.882C730.970,140.419,730.970,142.956,730.970,144.225L 730.970,145.493" fill="none" stroke="#2F3B4D" stroke-width="2"    stroke-linecap="round" stroke-linejoin="round" /><path d="M 698.970,228.672L 698.970,229.940C698.970,231.209,698.970,233.746,698.970,236.283C698.970,238.820,698.970,241.357,698.657,243.855C698.343,246.352,697.716,248.811,690.976,275.222C684.236,301.633,671.383,351.997,664.643,378.409C657.904,404.820,657.276,407.278,656.962,409.776C656.649,412.274,656.649,414.811,656.649,417.348C656.649,419.885,656.649,422.422,656.649,423.691L 656.649,424.959" fill="none" stroke="#2F3B4D" stroke-width="2"    stroke-linecap="round" stroke-linejoin="round" /><rect x="633.04" y="235.69" width="24.31" height="28.40" rx="2" ry="2" fill="rgba(248,250,252, 0.92)" fill-opacity="0.95" stroke="#7B88A8" stroke-opacity="0.45" stroke-width="0.8"/><text x="645.20" y="253.89" text-anchor="middle" font-family="'trebuchet ms', verdana, arial, sans-serif" font-size="16" fill="#333333"><tspan x="645.20" dy="0.00">ok</tspan></text><path d="M 762.970,228.672L 762.970,229.940C762.970,231.209,762.970,233.746,762.970,236.283C762.970,238.820,762.970,241.357,763.704,243.661C764.437,245.964,765.904,248.035,774.268,259.841C782.632,271.647,797.893,293.189,806.258,304.995C814.622,316.802,816.088,318.872,816.822,321.176C817.555,323.479,817.555,326.016,817.555,328.553C817.555,331.090,817.555,333.628,817.555,334.896L 817.555,336.165" fill="none" stroke="#2F3B4D" stroke-width="2"    stroke-linecap="round" stroke-linejoin="round" /><rect x="778.64" y="279.78" width="39.62" height="28.40" rx="2" ry="2" fill="rgba(248,250,252, 0.92)" fill-opacity="0.95" stroke="#7B88A8" stroke-opacity="0.45" stroke-width="0.8"/><text x="798.45" y="297.98" text-anchor="middle" font-family="'trebuchet ms', verdana, arial, sans-serif" font-size="16" fill="#333333"><tspan x="798.45" dy="0.00">fail</tspan></text><path d="M 592.201,451.959L 590.932,451.959C589.664,451.959,587.127,451.959,584.590,451.959C582.053,451.959,579.515,451.959,577.087,452.472C574.658,452.986,572.338,454.012,530.752,472.415C489.165,490.817,408.312,526.594,366.725,544.997C325.139,563.399,322.819,564.425,320.390,564.939C317.962,565.452,315.424,565.452,312.887,565.452C310.350,565.452,307.813,565.452,306.545,565.452L 305.276,565.452" fill="none" stroke="#2F3B4D" stroke-width="2"    stroke-linecap="round" stroke-linejoin="round" /><path d="M 205.884,581.452L 204.616,581.452C203.347,581.452,200.810,581.452,198.273,581.452C195.736,581.452,193.199,581.452,191.683,582.696C190.167,583.941,189.672,586.429,187.220,598.767C184.767,611.105,180.357,633.292,177.905,645.630C175.452,657.968,174.958,660.457,173.442,661.701C171.926,662.945,169.389,662.945,166.852,662.945C164.315,662.945,161.778,662.945,160.509,662.945L 159.241,662.945" fill="none" stroke="#2F3B4D" stroke-width="2"    stroke-linecap="round" stroke-linejoin="round" /><path d="M 305.276,597.452L 311.104,597.452C316.932,597.452,328.589,597.452,336.417,597.452C344.245,597.452,348.245,597.452,350.245,599.452C352.245,601.452,352.245,605.452,352.245,617.766C352.245,630.079,352.245,650.707,352.245,662.289C352.245,673.871,352.245,676.408,353.513,677.677C354.782,678.945,357.319,678.945,359.856,678.945C362.393,678.945,364.930,678.945,366.199,678.945L 367.467,678.945" fill="none" stroke="#2F3B4D" stroke-width="2"    stroke-linecap="round" stroke-linejoin="round" /><path d="M 255.580,608.452L 255.580,609.724C255.580,610.995,255.580,613.538,255.580,616.075C255.580,618.612,255.580,621.143,256.228,623.496C256.876,625.849,258.171,628.024,258.819,629.111C259.467,630.199,259.467,630.199,260.115,631.286C260.763,632.373,262.058,634.548,262.706,636.901C263.354,639.254,263.354,641.785,263.354,644.323C263.354,646.860,263.354,649.402,263.354,650.674L 263.354,651.945" fill="none" stroke="#2F3B4D" stroke-width="2"    stroke-linecap="round" stroke-linejoin="round" /><path d="M 159.241,694.945L 160.509,694.945C161.778,694.945,164.315,694.945,166.852,694.945C169.389,694.945,171.926,694.945,173.195,696.214C174.463,697.482,174.463,700.019,174.463,712.784C174.463,725.549,174.463,748.542,174.463,762.038C174.463,775.534,174.463,779.534,176.463,781.534C178.463,783.534,182.463,783.534,255.357,783.534C328.250,783.534,470.037,783.534,542.247,783.534C614.456,783.534,617.089,783.534,618.405,782.218C619.721,780.902,619.721,778.269,619.721,776.905C619.721,775.542,619.721,775.446,619.721,774.130C619.721,772.814,619.721,770.277,620.990,769.008C622.258,767.740,624.795,767.740,627.332,767.740C629.869,767.740,632.406,767.740,633.675,767.740L 634.943,767.740" fill="none" stroke="#2F3B4D" stroke-width="2"    stroke-linecap="round" stroke-linejoin="round" /><path d="M 488.708,678.945L 489.976,678.945C491.245,678.945,493.782,678.945,496.319,678.945C498.856,678.945,501.393,678.945,502.662,680.214C503.931,681.482,503.931,684.019,503.930,696.818C503.931,709.617,503.931,732.679,503.930,746.209C503.931,759.740,503.931,763.740,505.930,765.740C507.931,767.740,511.931,767.740,533.766,767.740C555.602,767.740,595.272,767.740,615.108,767.740L 634.943,767.740" fill="none" stroke="#2F3B4D" stroke-width="2"    stroke-linecap="round" stroke-linejoin="round" /><path d="M 323.974,678.945L 325.243,678.945C326.511,678.945,329.048,678.945,331.586,678.945C334.123,678.945,336.660,678.945,337.928,680.214C339.197,681.482,339.197,684.019,339.197,699.485C339.197,714.951,339.197,743.345,339.197,759.542C339.197,775.740,339.197,779.740,341.197,781.740C343.197,783.740,347.197,783.740,396.488,783.740C445.779,783.740,540.361,783.740,587.652,783.740L 634.943,783.740" fill="none" stroke="#2F3B4D" stroke-width="2"    stroke-linecap="round" stroke-linejoin="round" /><path d="M 699.391,794.740L 699.391,796.008C699.391,797.277,699.391,799.814,699.391,802.351C699.391,804.888,699.391,807.425,700.220,809.654C701.049,811.883,702.707,813.804,708.357,820.351C714.008,826.899,723.652,838.073,729.303,844.621C734.954,851.169,736.611,853.089,737.440,855.318C738.269,857.547,738.269,860.084,738.269,862.621C738.269,865.158,738.269,867.695,738.269,868.964L 738.269,870.233" fill="none" stroke="#2F3B4D" stroke-width="2"    stroke-linecap="round" stroke-linejoin="round" /><path d="M 674.269,899.594L 674.269,900.863C674.269,902.131,674.269,904.668,674.269,907.206C674.269,909.743,674.269,912.280,673.770,914.715C673.272,917.150,672.275,919.483,667.285,931.158C662.295,942.832,653.312,963.849,648.323,975.524C643.333,987.199,642.336,989.532,641.837,991.967C641.339,994.402,641.339,996.939,641.339,999.476C641.339,1002.013,641.339,1004.550,641.339,1005.819L 641.339,1007.087" fill="none" stroke="#2F3B4D" stroke-width="2"    stroke-linecap="round" stroke-linejoin="round" /><rect x="504.96" y="940.32" width="39.62" height="28.40" rx="2" ry="2" fill="rgba(248,250,252, 0.92)" fill-opacity="0.95" stroke="#7B88A8" stroke-opacity="0.45" stroke-width="0.8"/><text x="524.77" y="958.52" text-anchor="middle" font-family="'trebuchet ms', verdana, arial, sans-serif" font-size="16" fill="#333333"><tspan x="524.77" dy="0.00">fast</tspan></text><path d="M 738.269,899.594L 738.269,900.863C738.269,902.131,738.269,904.668,738.269,907.206C738.269,909.743,738.269,912.280,738.983,914.597C739.697,916.914,741.126,919.010,749.160,930.803C757.195,942.596,771.836,964.085,779.871,975.878C787.905,987.671,789.334,989.768,790.048,992.085C790.762,994.402,790.762,996.939,790.762,999.476C790.762,1002.013,790.762,1004.550,790.762,1005.819L 790.762,1007.087" fill="none" stroke="#2F3B4D" stroke-width="2"    stroke-linecap="round" stroke-linejoin="round" /><rect x="752.58" y="950.70" width="39.62" height="28.40" rx="2" ry="2" fill="rgba(248,250,252, 0.92)" fill-opacity="0.95" stroke="#7B88A8" stroke-opacity="0.45" stroke-width="0.8"/><text x="772.39" y="968.90" text-anchor="middle" font-family="'trebuchet ms', verdana, arial, sans-serif" font-size="16" fill="#333333"><tspan x="772.39" dy="0.00">slow</tspan></text><path d="M 641.339,1061.087L 641.339,1062.356C641.339,1063.625,641.339,1066.162,641.339,1068.699C641.339,1071.236,641.339,1073.773,642.571,1075.344C643.803,1076.914,646.267,1077.519,653.902,1079.391C661.538,1081.264,674.345,1084.404,681.981,1086.277C689.616,1088.149,692.080,1088.754,693.312,1090.324C694.544,1091.895,694.544,1094.432,694.544,1096.969C694.544,1099.506,694.544,1102.043,694.544,1103.312L 694.544,1104.580" fill="none" stroke="#2F3B4D" stroke-width="2"    stroke-linecap="round" stroke-linejoin="round" /><path d="M 790.762,1061.087L 790.762,1062.356C790.762,1063.625,790.762,1066.162,790.762,1068.699C790.762,1071.236,790.762,1073.773,789.538,1075.373C788.313,1076.973,785.864,1077.635,779.052,1079.479C772.241,1081.322,761.066,1084.346,754.254,1086.189C747.442,1088.032,744.993,1088.695,743.769,1090.295C742.544,1091.895,742.544,1094.432,742.544,1096.969C742.544,1099.506,742.544,1102.043,742.544,1103.312L 742.544,1104.580" fill="none" stroke="#2F3B4D" stroke-width="2"    stroke-linecap="round" stroke-linejoin="round" /><path d="M 849.555,390.165L 849.555,391.433C849.555,392.702,849.555,395.239,849.555,397.776C849.555,400.313,849.555,402.850,850.823,404.119C852.092,405.387,854.629,405.387,858.093,405.387C861.556,405.387,865.947,405.387,870.142,405.387C874.337,405.387,878.337,405.387,880.337,407.387C882.337,409.387,882.337,413.387,882.337,525.382C882.337,637.377,882.337,857.368,882.337,969.363C882.337,1081.358,882.337,1085.358,880.337,1087.358C878.337,1089.358,874.337,1089.358,854.974,1089.358C835.610,1089.358,800.883,1089.358,782.251,1089.358C763.619,1089.358,761.082,1089.358,759.813,1090.626C758.544,1091.895,758.544,1094.432,758.544,1096.969C758.544,1099.506,758.544,1102.043,758.544,1103.312L 758.544,1104.580" fill="none" stroke="#2F3B4D" stroke-width="2"    stroke-linecap="round" stroke-linejoin="round" /><path d="M 689.578,102.000L 689.578,103.269C689.578,104.537,689.578,107.074,689.578,109.611C689.578,112.148,689.578,114.685,688.309,115.954C687.041,117.223,684.504,117.223,614.171,117.223C543.838,117.223,405.709,117.223,334.645,117.223C263.580,117.223,259.580,117.223,257.580,119.223C255.580,121.223,255.580,125.223,255.580,198.094C255.580,270.966,255.580,412.709,255.580,483.581L 255.580,554.452" fill="none" stroke="#2F3B4D" stroke-width="2"   stroke-dasharray="2" stroke-linecap="round" stroke-linejoin="round" /><rect x="448.94" y="103.02" width="47.28" height="28.40" rx="2" ry="2" fill="rgba(248,250,252, 0.92)" fill-opacity="0.95" stroke="#7B88A8" stroke-opacity="0.45" stroke-width="0.8"/><text x="472.58" y="121.22" text-anchor="middle" font-family="'trebuchet ms', verdana, arial, sans-serif" font-size="16" fill="#333333"><tspan x="472.58" dy="0.00">retry</tspan></text><path d="M 656.649,478.959L 656.649,480.228C656.649,481.496,656.649,484.033,656.649,486.570C656.649,489.107,656.649,491.645,655.380,492.913C654.112,494.182,651.575,494.182,637.646,494.182C623.717,494.182,598.396,494.182,583.736,494.182C569.075,494.182,565.075,494.182,563.075,496.182C561.075,498.182,561.075,502.182,561.075,560.320C561.075,618.458,561.075,730.734,561.075,788.872C561.075,847.010,561.075,851.010,563.075,853.010C565.075,855.010,569.075,855.010,586.672,855.010C604.269,855.010,635.464,855.010,652.329,855.010C669.195,855.010,671.732,855.010,673.000,856.279C674.269,857.547,674.269,860.084,674.269,862.621C674.269,865.159,674.269,867.696,674.269,868.964L 674.269,870.233" fill="none" stroke="#2F3B4D" stroke-width="2"    stroke-linecap="round" stroke-linejoin="round" /><path d="M 428.088,651.945L 428.088,650.677C428.088,649.408,428.088,646.871,428.088,644.334C428.088,641.797,428.088,639.260,429.356,637.991C430.625,636.723,433.162,636.723,490.740,636.723C548.318,636.723,660.936,636.723,719.246,636.723C777.555,636.723,781.555,636.723,783.555,634.723C785.555,632.723,785.555,628.723,785.555,587.630C785.555,546.537,785.555,468.351,785.555,429.258L 785.555,390.165" fill="none" stroke="#2F3B4D" stroke-width="2"   stroke-dasharray="2" stroke-linecap="round" stroke-linejoin="round" /><rect x="583.18" y="622.52" width="47.28" height="28.40" rx="2" ry="2" fill="rgba(248,250,252, 0.92)" fill-opacity="0.95" stroke="#7B88A8" stroke-opacity="0.45" stroke-width="0.8"/><text x="606.82" y="640.72" text-anchor="middle" font-family="'trebuchet ms', verdana, arial, sans-serif" font-size="16" fill="#333333"><tspan x="606.82" dy="0.00">audit</tspan></text><rect x="668.61" y="48.00" width="105.93" height="54.00" rx="3" ry="3" fill="#ECECFF" stroke="#7B88A8" stroke-width="1" stroke-linejoin="round" stroke-linecap="round"/><text x="721.58" y="79.00" text-anchor="middle" font-family="'trebuchet ms', verdana, arial, sans-serif" font-size="16" fill="#333333"><tspan x="721.58" dy="0.00">Source</tspan></text><polygon points="730.97,145.49 788.56,203.08 730.97,260.67 673.38,203.08" fill="#ECECFF" stroke="#7B88A8" stroke-width="1" stroke-linejoin="round" stroke-linecap="round"/><text x="730.97" y="207.08" text-anchor="middle" font-family="'trebuchet ms', verdana, arial, sans-serif" font-size="16" fill="#333333"><tspan x="730.97" dy="0.00">Validate</tspan></text><rect x="592.20" y="424.96" width="128.90" height="54.00" rx="3" ry="3" fill="#ECECFF" stroke="#7B88A8" stroke-width="1" stroke-linejoin="round" stroke-linecap="round"/><text x="656.65" y="455.96" text-anchor="middle" font-family="'trebuchet ms', verdana, arial, sans-serif" font-size="16" fill="#333333"><tspan x="656.65" dy="0.00">Normalize</tspan></text><rect x="764.59" y="336.16" width="105.93" height="54.00" rx="3" ry="3" fill="#ECECFF" stroke="#7B88A8" stroke-width="1" stroke-linejoin="round" stroke-linecap="round"/><text x="817.55" y="367.16" text-anchor="middle" font-family="'trebuchet ms', verdana, arial, sans-serif" font-size="16" fill="#333333"><tspan x="817.55" dy="0.00">Reject</tspan></text><rect x="205.88" y="554.45" width="99.39" height="54.00" rx="3" ry="3" fill="#ECECFF" stroke="#7B88A8" stroke-width="1" stroke-linejoin="round" stroke-linecap="round"/><text x="255.58" y="585.45" text-anchor="middle" font-family="'trebuchet ms', verdana, arial, sans-serif" font-size="16" fill="#333333"><tspan x="255.58" dy="0.00">Queue</tspan></text><rect x="38.00" y="651.95" width="121.24" height="54.00" rx="3" ry="3" fill="#ECECFF" stroke="#7B88A8" stroke-width="1" stroke-linejoin="round" stroke-linecap="round"/><text x="98.62" y="682.95" text-anchor="middle" font-family="'trebuchet ms', verdana, arial, sans-serif" font-size="16" fill="#333333"><tspan x="98.62" dy="0.00">Worker 1</tspan></text><rect x="367.47" y="651.95" width="121.24" height="54.00" rx="3" ry="3" fill="#ECECFF" stroke="#7B88A8" stroke-width="1" stroke-linejoin="round" stroke-linecap="round"/><text x="428.09" y="682.95" text-anchor="middle" font-family="'trebuchet ms', verdana, arial, sans-serif" font-size="16" fill="#333333"><tspan x="428.09" dy="0.00">Worker 2</tspan></text><rect x="202.73" y="651.95" width="121.24" height="54.00" rx="3" ry="3" fill="#ECECFF" stroke="#7B88A8" stroke-width="1" stroke-linejoin="round" stroke-linecap="round"/><text x="263.35" y="682.95" text-anchor="middle" font-family="'trebuchet ms', verdana, arial, sans-serif" font-size="16" fill="#333333"><tspan x="263.35" dy="0.00">Worker 3</tspan></text><rect x="634.94" y="740.74" width="128.90" height="54.00" rx="3" ry="3" fill="#ECECFF" stroke="#7B88A8" stroke-width="1" stroke-linejoin="round" stroke-linecap="round"/><text x="699.39" y="771.74" text-anchor="middle" font-family="'trebuchet ms', verdana, arial, sans-serif" font-size="16" fill="#333333"><tspan x="699.39" dy="0.00">Aggregate</tspan></text><polygon points="706.27,838.23 752.95,884.91 706.27,931.59 659.59,884.91" fill="#ECECFF" stroke="#7B88A8" stroke-width="1" stroke-linejoin="round" stroke-linecap="round"/><text x="706.27" y="888.91" text-anchor="middle" font-family="'trebuchet ms', verdana, arial, sans-serif" font-size="16" fill="#333333"><tspan x="706.27" dy="0.00">Route</tspan></text><rect x="592.20" y="1007.09" width="98.28" height="54.00" rx="3" ry="3" fill="#ECECFF" stroke="#7B88A8" stroke-width="1" stroke-linejoin="round" stroke-linecap="round"/><text x="641.34" y="1038.09" text-anchor="middle" font-family="'trebuchet ms', verdana, arial, sans-serif" font-size="16" fill="#333333"><tspan x="641.34" dy="0.00">Cache</tspan></text><rect x="733.97" y="1007.09" width="113.59" height="54.00" rx="3" ry="3" fill="#ECECFF" stroke="#7B88A8" stroke-width="1" stroke-linejoin="round" stroke-linecap="round"/><text x="790.76" y="1038.09" text-anchor="middle" font-family="'trebuchet ms', verdana, arial, sans-serif" font-size="16" fill="#333333"><tspan x="790.76" dy="0.00">Archive</tspan></text><rect x="673.58" y="1104.58" width="105.93" height="54.00" rx="3" ry="3" fill="#ECECFF" stroke="#7B88A8" stroke-width="1" stroke-linejoin="round" stroke-linecap="round"/><text x="726.54" y="1135.58" text-anchor="middle" font-family="'trebuchet ms', verdana, arial, sans-serif" font-size="16" fill="#333333"><tspan x="726.54" dy="0.00">Notify</tspan></text><g transform="translate(730.97 145.49) rotate(90.00)"><polygon points="0,0 -10.40,6.24 -10.40,-6.24" fill="#2F3B4D" stroke="#2F3B4D" stroke-width="2" stroke-linejoin="round" stroke-linecap="round"/></g><g transform="translate(656.65 424.96) rotate(90.00)"><polygon points="0,0 -10.40,6.24 -10.40,-6.24" fill="#2F3B4D" stroke="#2F3B4D" stroke-width="2" stroke-linejoin="round" stroke-linecap="round"/></g><g transform="translate(817.55 336.16) rotate(90.00)"><polygon points="0,0 -10.40,6.24 -10.40,-6.24" fill="#2F3B4D" stroke="#2F3B4D" stroke-width="2" stroke-linejoin="round" stroke-linecap="round"/></g><g transform="translate(305.28 565.45) rotate(180.00)"><polygon points="0,0 -10.40,6.24 -10.40,-6.24" fill="#2F3B4D" stroke="#2F3B4D" stroke-width="2" stroke-linejoin="round" stroke-linecap="round"/></g><g transform="translate(159.24 662.95) rotate(180.00)"><polygon points="0,0 -10.40,6.24 -10.40,-6.24" fill="#2F3B4D" stroke="#2F3B4D" stroke-width="2" stroke-linejoin="round" stroke-linecap="round"/></g><g transform="translate(367.47 678.95) rotate(0.00)"><polygon points="0,0 -10.40,6.24 -10.40,-6.24" fill="#2F3B4D" stroke="#2F3B4D" stroke-width="2" stroke-linejoin="round" stroke-linecap="round"/></g><g transform="translate(263.35 651.95) rotate(90.00)"><polygon points="0,0 -10.40,6.24 -10.40,-6.24" fill="#2F3B4D" stroke="#2F3B4D" stroke-width="2" stroke-linejoin="round" stroke-linecap="round"/></g><g transform="translate(634.94 767.74) rotate(0.00)"><polygon points="0,0 -10.40,6.24 -10.40,-6.24" fill="#2F3B4D" stroke="#2F3B4D" stroke-width="2" stroke-linejoin="round" stroke-linecap="round"/></g><g transform="translate(634.94 767.74) rotate(0.00)"><polygon points="0,0 -10.40,6.24 -10.40,-6.24" fill="#2F3B4D" stroke="#2F3B4D" stroke-width="2" stroke-linejoin="round" stroke-linecap="round"/></g><g transform="translate(634.94 783.74) rotate(0.00)"><polygon points="0,0 -10.40,6.24 -10.40,-6.24" fill="#2F3B4D" stroke="#2F3B4D" stroke-width="2" stroke-linejoin="round" stroke-linecap="round"/></g><g transform="translate(738.27 870.23) rotate(90.00)"><polygon points="0,0 -10.40,6.24 -10.40,-6.24" fill="#2F3B4D" stroke="#2F3B4D" stroke-width="2" stroke-linejoin="round" stroke-linecap="round"/></g><g transform="translate(641.34 1007.09) rotate(90.00)"><polygon points="0,0 -10.40,6.24 -10.40,-6.24" fill="#2F3B4D" stroke="#2F3B4D" stroke-width="2" stroke-linejoin="round" stroke-linecap="round"/></g><g transform="translate(790.76 1007.09) rotate(90.00)"><polygon points="0,0 -10.40,6.24 -10.40,-6.24" fill="#2F3B4D" stroke="#2F3B4D" stroke-width="2" stroke-linejoin="round" stroke-linecap="round"/></g><g transform="translate(694.54 1104.58) rotate(90.00)"><polygon points="0,0 -10.40,6.24 -10.40,-6.24" fill="#2F3B4D" stroke="#2F3B4D" stroke-width="2" stroke-linejoin="round" stroke-linecap="round"/></g><g transform="translate(742.54 1104.58) rotate(90.00)"><polygon points="0,0 -10.40,6.24 -10.40,-6.24" fill="#2F3B4D" stroke="#2F3B4D" stroke-width="2" stroke-linejoin="round" stroke-linecap="round"/></g><g transform="translate(758.54 1104.58) rotate(90.00)"><polygon points="0,0 -10.40,6.24 -10.40,-6.24" fill="#2F3B4D" stroke="#2F3B4D" stroke-width="2" stroke-linejoin="round" stroke-linecap="round"/></g><g transform="translate(255.58 554.45) rotate(90.00)"><polygon points="0,0 -10.40,6.24 -10.40,-6.24" fill="#2F3B4D" stroke="#2F3B4D" stroke-width="2" stroke-linejoin="round" stroke-linecap="round"/></g><g transform="translate(674.27 870.23) rotate(90.00)"><polygon points="0,0 -10.40,6.24 -10.40,-6.24" fill="#2F3B4D" stroke="#2F3B4D" stroke-width="2" stroke-linejoin="round" stroke-linecap="round"/></g><g transform="translate(785.55 390.16) rotate(-90.00)"><polygon points="0,0 -10.40,6.24 -10.40,-6.24" fill="#2F3B4D" stroke="#2F3B4D" stroke-width="2" stroke-linejoin="round" stroke-linecap="round"/></g></svg>