<svg xmlns="http://www.w3.org/2000/svg" width="474.06274" height="131.17859" viewBox="0 0 474.06274 131.17859"><rect x="0" y="0" width="474.06274" height="131.17859" fill="#FFFFFF"/><defs><marker id="arrow-0" viewBox="0 0 10 10" refX="5" refY="5" markerUnits="userSpaceOnUse" markerWidth="8" markerHeight="8" orient="auto"><path d="M 0 0 L 10 5 L 0 10 z" fill="#333333" stroke="#333333" stroke-width="1" stroke-dasharray="1,0"/></marker><marker id="arrow-start-0" viewBox="0 0 10 10" refX="4.5" refY="5" markerUnits="userSpaceOnUse" markerWidth="8" markerHeight="8" orient="auto"><path d="M 0 5 L 10 10 L 10 0 z" fill="#333333" stroke="#333333" stroke-width="1" stroke-dasharray="1,0"/></marker></defs><path d="M 72.075,65.589 L 108.137,65.589" fill="none" stroke="#333333" stroke-width="2"    stroke-linecap="round" stroke-linejoin="round" /><path d="M 191.315,33.589L 192.367,33.589C193.419,33.589,195.523,33.589,197.626,33.589C199.730,33.589,201.833,33.589,203.931,33.480C206.029,33.372,208.121,33.154,215.935,32.341C223.748,31.528,237.283,30.120,245.096,29.307C252.910,28.494,255.002,28.276,257.100,28.168C259.198,28.059,261.302,28.059,263.405,28.059C265.509,28.059,267.612,28.059,268.664,28.059L 269.716,28.059" fill="none" stroke="#333333" stroke-width="2"    stroke-linecap="round" stroke-linejoin="round" /><rect x="215.03" y="-47.18" width="30.97" height="28.00" rx="2" ry="2" fill="rgba(232,232,232, 0.8)" fill-opacity="0.85" stroke="#9370DB" stroke-opacity="0.35" stroke-width="0.8"/><text x="230.52" y="-29.18" text-anchor="middle" font-family="'trebuchet ms', verdana, arial, sans-serif" font-size="16" fill="#333333"><tspan x="230.52" dy="0.00">yes</tspan></text><path d="M 191.315,97.589L 192.367,97.589C193.419,97.589,195.523,97.589,197.626,97.589C199.730,97.589,201.833,97.589,203.931,97.701C206.029,97.812,208.120,98.036,215.713,98.846C223.306,99.656,236.401,101.053,243.994,101.864C251.587,102.674,253.679,102.897,255.777,103.009C257.874,103.120,259.978,103.120,262.081,103.120C264.185,103.120,266.289,103.120,267.340,103.120L 268.392,103.120" fill="none" stroke="#333333" stroke-width="2"    stroke-linecap="round" stroke-linejoin="round" /><rect x="218.20" y="150.35" width="23.31" height="28.00" rx="2" ry="2" fill="rgba(232,232,232, 0.8)" fill-opacity="0.85" stroke="#9370DB" stroke-opacity="0.35" stroke-width="0.8"/><text x="229.85" y="168.35" text-anchor="middle" font-family="'trebuchet ms', verdana, arial, sans-serif" font-size="16" fill="#333333"><tspan x="229.85" dy="0.00">no</tspan></text><path d="M 363.918,28.059L 364.970,28.059C366.022,28.059,368.125,28.059,370.229,28.059C372.332,28.059,374.436,28.059,376.004,28.975C377.573,29.891,378.606,31.724,381.615,37.063C384.625,42.401,389.612,51.247,392.621,56.586C395.631,61.925,396.664,63.757,398.233,64.673C399.801,65.589,401.904,65.589,404.008,65.589C406.112,65.589,408.215,65.589,409.267,65.589L 410.319,65.589" fill="none" stroke="#333333" stroke-width="2"    stroke-linecap="round" stroke-linejoin="round" /><path d="M 350.532,103.120L 351.584,103.120C352.635,103.120,354.739,103.120,356.843,103.120C358.946,103.120,361.050,103.120,362.814,102.346C364.578,101.572,366.003,100.025,371.048,94.543C376.093,89.062,384.758,79.647,389.803,74.166C394.848,68.685,396.273,67.137,398.037,66.363C399.801,65.589,401.904,65.589,404.008,65.589C406.112,65.589,408.215,65.589,409.267,65.589L 410.319,65.589" fill="none" stroke="#333333" stroke-width="2"    stroke-linecap="round" stroke-linejoin="round" /><rect x="8.00" y="46.09" width="64.08" height="39.00" rx="19.50" ry="19.50" fill="#ECECFF" stroke="#9370DB" stroke-width="1" stroke-linejoin="round" stroke-linecap="round"/><text x="40.04" y="69.59" text-anchor="middle" font-family="'trebuchet ms', verdana, arial, sans-serif" font-size="16" fill="#333333"><tspan x="40.04" dy="0.00">Start</tspan></text><polygon points="165.73,8.00 223.32,65.59 165.73,123.18 108.14,65.59" fill="#ECECFF" stroke="#9370DB" stroke-width="1" stroke-linejoin="round" stroke-linecap="round"/><text x="165.73" y="69.59" text-anchor="middle" font-family="'trebuchet ms', verdana, arial, sans-serif" font-size="16" fill="#333333"><tspan x="165.73" dy="0.00">Decision</tspan></text><polygon points="280.06,8.56 374.26,8.56 353.58,47.56 259.38,47.56" fill="#ECECFF" stroke="#9370DB" stroke-width="1" stroke-linejoin="round" stroke-linecap="round"/><text x="316.82" y="32.06" text-anchor="middle" font-family="'trebuchet ms', verdana, arial, sans-serif" font-size="16" fill="#333333"><tspan x="316.82" dy="0.00">Do thing</tspan></text><polygon points="259.38,83.62 341.52,83.62 359.55,122.62 277.41,122.62" fill="#ECECFF" stroke="#9370DB" stroke-width="1" stroke-linejoin="round" stroke-linecap="round"/><text x="309.46" y="107.12" text-anchor="middle" font-family="'trebuchet ms', verdana, arial, sans-serif" font-size="16" fill="#333333"><tspan x="309.46" dy="0.00">\Skip\</tspan></text><rect x="410.32" y="46.09" width="55.74" height="39.00" rx="6" ry="6" fill="#ECECFF" stroke="#9370DB" stroke-width="1" stroke-linejoin="round" stroke-linecap="round"/><line x1="416.32" y1="48.09" x2="416.32" y2="83.09" stroke="#9370DB" stroke-width="1" stroke-linejoin="round" stroke-linecap="round"/><line x1="460.06" y1="48.09" x2="460.06" y2="83.09" stroke="#9370DB" stroke-width="1" stroke-linejoin="round" stroke-linecap="round"/><text x="438.19" y="69.59" text-anchor="middle" font-family="'trebuchet ms', verdana, arial, sans-serif" font-size="16" fill="#333333"><tspan x="438.19" dy="0.00">End</tspan></text><g transform="translate(108.14 65.59) rotate(0.00)"><polygon points="0,0 -10.40,6.24 -10.40,-6.24" fill="#333333" stroke="#333333" stroke-width="2" stroke-linejoin="round" stroke-linecap="round"/></g><g transform="translate(269.72 28.06) rotate(0.00)"><polygon points="0,0 -10.40,6.24 -10.40,-6.24" fill="#333333" stroke="#333333" stroke-width="2" stroke-linejoin="round" stroke-linecap="round"/></g><g transform="translate(268.39 103.12) rotate(0.00)"><polygon points="0,0 -10.40,6.24 -10.40,-6.24" fill="#333333" stroke="#333333" stroke-width="2" stroke-linejoin="round" stroke-linecap="round"/></g><g transform="translate(410.32 65.59) rotate(0.00)"><polygon points="0,0 -10.40,6.24 -10.40,-6.24" fill="#333333" stroke="#333333" stroke-width="2" stroke-linejoin="round" stroke-linecap="round"/></g><g transform="translate(410.32 65.59) rotate(0.00)"><polygon points="0,0 -10.40,6.24 -10.40,-6.24" fill="#333333" stroke="#333333" stroke-width="2" stroke-linejoin="round" stroke-linecap="round"/></g></svg>