<svg xmlns="http://www.w3.org/2000/svg" width="620.4" height="5222" viewBox="0 0 620.4 5222"><rect width="100%" height="100%" fill="#FFFFFF"/><defs><marker id="arrow-0" viewBox="0 0 10 10" refX="10" refY="5" markerWidth="8" markerHeight="8" orient="auto-start-reverse"><path d="M 0 0 L 10 5 L 0 10 z" fill="#333333"/></marker><marker id="arrow-start-0" viewBox="0 0 10 10" refX="0" refY="5" markerWidth="8" markerHeight="8" orient="auto"><path d="M 10 0 L 0 5 L 10 10 z" fill="#333333"/></marker></defs><rect x="24.00" y="24.00" width="180.00" height="1590.00" rx="10" ry="10" fill="#FFFFDE" stroke="#AAAA33" stroke-width="1" /><text x="114.00" y="52.00" text-anchor="middle" font-family=""trebuchet ms", verdana, arial, sans-serif" font-size="16" fill="#333333"><tspan x="114.00" dy="0.00">Group 1</tspan></text><rect x="198.40" y="1746.00" width="180.00" height="1590.00" rx="10" ry="10" fill="#FFFFDE" stroke="#AAAA33" stroke-width="1" /><text x="288.40" y="1774.00" text-anchor="middle" font-family=""trebuchet ms", verdana, arial, sans-serif" font-size="16" fill="#333333"><tspan x="288.40" dy="0.00">Group 2</tspan></text><rect x="380.40" y="3572.00" width="180.00" height="1590.00" rx="10" ry="10" fill="#FFFFDE" stroke="#AAAA33" stroke-width="1" /><text x="470.40" y="3600.00" text-anchor="middle" font-family=""trebuchet ms", verdana, arial, sans-serif" font-size="16" fill="#333333"><tspan x="470.40" dy="0.00">Group 3</tspan></text><path d="M 176.40 107.00 L 126.00 107.00 Q 114.00 107.00 114.00 119.00 L 114.00 199.00 Q 114.00 211.00 102.00 211.00 L 51.60 211.00" fill="none" stroke="#333333" stroke-width="2" marker-end="url(#arrow-0)"   stroke-linecap="round" stroke-linejoin="round" /><path d="M 176.40 211.00 L 126.00 211.00 Q 114.00 211.00 114.00 223.00 L 114.00 303.00 Q 114.00 315.00 102.00 315.00 L 51.60 315.00" fill="none" stroke="#333333" stroke-width="2" marker-end="url(#arrow-0)"   stroke-linecap="round" stroke-linejoin="round" /><path d="M 176.40 315.00 L 126.00 315.00 Q 114.00 315.00 114.00 327.00 L 114.00 407.00 Q 114.00 419.00 102.00 419.00 L 51.60 419.00" fill="none" stroke="#333333" stroke-width="2" marker-end="url(#arrow-0)"   stroke-linecap="round" stroke-linejoin="round" /><path d="M 176.40 419.00 L 126.00 419.00 Q 114.00 419.00 114.00 431.00 L 114.00 511.00 Q 114.00 523.00 102.00 523.00 L 51.60 523.00" fill="none" stroke="#333333" stroke-width="2" marker-end="url(#arrow-0)"   stroke-linecap="round" stroke-linejoin="round" /><path d="M 176.40 523.00 L 126.00 523.00 Q 114.00 523.00 114.00 535.00 L 114.00 615.00 Q 114.00 627.00 102.00 627.00 L 51.60 627.00" fill="none" stroke="#333333" stroke-width="2" marker-end="url(#arrow-0)"   stroke-linecap="round" stroke-linejoin="round" /><path d="M 176.40 627.00 L 126.00 627.00 Q 114.00 627.00 114.00 639.00 L 114.00 719.00 Q 114.00 731.00 102.00 731.00 L 51.60 731.00" fill="none" stroke="#333333" stroke-width="2" marker-end="url(#arrow-0)"   stroke-linecap="round" stroke-linejoin="round" /><path d="M 176.40 731.00 L 126.00 731.00 Q 114.00 731.00 114.00 743.00 L 114.00 823.00 Q 114.00 835.00 102.00 835.00 L 51.60 835.00" fill="none" stroke="#333333" stroke-width="2" marker-end="url(#arrow-0)"   stroke-linecap="round" stroke-linejoin="round" /><path d="M 176.40 835.00 L 126.00 835.00 Q 114.00 835.00 114.00 847.00 L 114.00 927.00 Q 114.00 939.00 102.00 939.00 L 51.60 939.00" fill="none" stroke="#333333" stroke-width="2" marker-end="url(#arrow-0)"   stroke-linecap="round" stroke-linejoin="round" /><path d="M 176.40 939.00 L 124.20 939.00 Q 112.20 939.00 112.20 951.00 L 112.20 1031.00 Q 112.20 1043.00 100.20 1043.00 L 48.00 1043.00" fill="none" stroke="#333333" stroke-width="2" marker-end="url(#arrow-0)"   stroke-linecap="round" stroke-linejoin="round" /><path d="M 180.00 1043.00 L 126.00 1043.00 Q 114.00 1043.00 114.00 1055.00 L 114.00 1135.00 Q 114.00 1147.00 102.00 1147.00 L 48.00 1147.00" fill="none" stroke="#333333" stroke-width="2" marker-end="url(#arrow-0)"   stroke-linecap="round" stroke-linejoin="round" /><path d="M 180.00 1147.00 L 126.00 1147.00 Q 114.00 1147.00 114.00 1159.00 L 114.00 1239.00 Q 114.00 1251.00 102.00 1251.00 L 48.00 1251.00" fill="none" stroke="#333333" stroke-width="2" marker-end="url(#arrow-0)"   stroke-linecap="round" stroke-linejoin="round" /><path d="M 180.00 1251.00 L 126.00 1251.00 Q 114.00 1251.00 114.00 1263.00 L 114.00 1343.00 Q 114.00 1355.00 102.00 1355.00 L 48.00 1355.00" fill="none" stroke="#333333" stroke-width="2" marker-end="url(#arrow-0)"   stroke-linecap="round" stroke-linejoin="round" /><path d="M 180.00 1355.00 L 126.00 1355.00 Q 114.00 1355.00 114.00 1367.00 L 114.00 1447.00 Q 114.00 1459.00 102.00 1459.00 L 48.00 1459.00" fill="none" stroke="#333333" stroke-width="2" marker-end="url(#arrow-0)"   stroke-linecap="round" stroke-linejoin="round" /><path d="M 180.00 1459.00 L 126.00 1459.00 Q 114.00 1459.00 114.00 1471.00 L 114.00 1551.00 Q 114.00 1563.00 102.00 1563.00 L 48.00 1563.00" fill="none" stroke="#333333" stroke-width="2" marker-end="url(#arrow-0)"   stroke-linecap="round" stroke-linejoin="round" /><path d="M 354.40 1829.00 L 300.40 1829.00 Q 288.40 1829.00 288.40 1841.00 L 288.40 1921.00 Q 288.40 1933.00 276.40 1933.00 L 222.40 1933.00" fill="none" stroke="#333333" stroke-width="2" marker-end="url(#arrow-0)"   stroke-linecap="round" stroke-linejoin="round" /><path d="M 354.40 1933.00 L 300.40 1933.00 Q 288.40 1933.00 288.40 1945.00 L 288.40 2025.00 Q 288.40 2037.00 276.40 2037.00 L 222.40 2037.00" fill="none" stroke="#333333" stroke-width="2" marker-end="url(#arrow-0)"   stroke-linecap="round" stroke-linejoin="round" /><path d="M 354.40 2037.00 L 300.40 2037.00 Q 288.40 2037.00 288.40 2049.00 L 288.40 2129.00 Q 288.40 2141.00 276.40 2141.00 L 222.40 2141.00" fill="none" stroke="#333333" stroke-width="2" marker-end="url(#arrow-0)"   stroke-linecap="round" stroke-linejoin="round" /><path d="M 354.40 2141.00 L 300.40 2141.00 Q 288.40 2141.00 288.40 2153.00 L 288.40 2233.00 Q 288.40 2245.00 276.40 2245.00 L 222.40 2245.00" fill="none" stroke="#333333" stroke-width="2" marker-end="url(#arrow-0)"   stroke-linecap="round" stroke-linejoin="round" /><path d="M 354.40 2245.00 L 300.40 2245.00 Q 288.40 2245.00 288.40 2257.00 L 288.40 2337.00 Q 288.40 2349.00 276.40 2349.00 L 222.40 2349.00" fill="none" stroke="#333333" stroke-width="2" marker-end="url(#arrow-0)"   stroke-linecap="round" stroke-linejoin="round" /><path d="M 354.40 2349.00 L 300.40 2349.00 Q 288.40 2349.00 288.40 2361.00 L 288.40 2441.00 Q 288.40 2453.00 276.40 2453.00 L 222.40 2453.00" fill="none" stroke="#333333" stroke-width="2" marker-end="url(#arrow-0)"   stroke-linecap="round" stroke-linejoin="round" /><path d="M 354.40 2453.00 L 300.40 2453.00 Q 288.40 2453.00 288.40 2465.00 L 288.40 2545.00 Q 288.40 2557.00 276.40 2557.00 L 222.40 2557.00" fill="none" stroke="#333333" stroke-width="2" marker-end="url(#arrow-0)"   stroke-linecap="round" stroke-linejoin="round" /><path d="M 354.40 2557.00 L 300.40 2557.00 Q 288.40 2557.00 288.40 2569.00 L 288.40 2649.00 Q 288.40 2661.00 276.40 2661.00 L 222.40 2661.00" fill="none" stroke="#333333" stroke-width="2" marker-end="url(#arrow-0)"   stroke-linecap="round" stroke-linejoin="round" /><path d="M 354.40 2661.00 L 300.40 2661.00 Q 288.40 2661.00 288.40 2673.00 L 288.40 2753.00 Q 288.40 2765.00 276.40 2765.00 L 222.40 2765.00" fill="none" stroke="#333333" stroke-width="2" marker-end="url(#arrow-0)"   stroke-linecap="round" stroke-linejoin="round" /><path d="M 354.40 2765.00 L 300.40 2765.00 Q 288.40 2765.00 288.40 2777.00 L 288.40 2857.00 Q 288.40 2869.00 276.40 2869.00 L 222.40 2869.00" fill="none" stroke="#333333" stroke-width="2" marker-end="url(#arrow-0)"   stroke-linecap="round" stroke-linejoin="round" /><path d="M 354.40 2869.00 L 300.40 2869.00 Q 288.40 2869.00 288.40 2881.00 L 288.40 2961.00 Q 288.40 2973.00 276.40 2973.00 L 222.40 2973.00" fill="none" stroke="#333333" stroke-width="2" marker-end="url(#arrow-0)"   stroke-linecap="round" stroke-linejoin="round" /><path d="M 354.40 2973.00 L 300.40 2973.00 Q 288.40 2973.00 288.40 2985.00 L 288.40 3065.00 Q 288.40 3077.00 276.40 3077.00 L 222.40 3077.00" fill="none" stroke="#333333" stroke-width="2" marker-end="url(#arrow-0)"   stroke-linecap="round" stroke-linejoin="round" /><path d="M 354.40 3077.00 L 300.40 3077.00 Q 288.40 3077.00 288.40 3089.00 L 288.40 3169.00 Q 288.40 3181.00 276.40 3181.00 L 222.40 3181.00" fill="none" stroke="#333333" stroke-width="2" marker-end="url(#arrow-0)"   stroke-linecap="round" stroke-linejoin="round" /><path d="M 354.40 3181.00 L 300.40 3181.00 Q 288.40 3181.00 288.40 3193.00 L 288.40 3273.00 Q 288.40 3285.00 276.40 3285.00 L 222.40 3285.00" fill="none" stroke="#333333" stroke-width="2" marker-end="url(#arrow-0)"   stroke-linecap="round" stroke-linejoin="round" /><path d="M 536.40 3655.00 L 482.40 3655.00 Q 470.40 3655.00 470.40 3667.00 L 470.40 3747.00 Q 470.40 3759.00 458.40 3759.00 L 404.40 3759.00" fill="none" stroke="#333333" stroke-width="2" marker-end="url(#arrow-0)"   stroke-linecap="round" stroke-linejoin="round" /><path d="M 536.40 3759.00 L 482.40 3759.00 Q 470.40 3759.00 470.40 3771.00 L 470.40 3851.00 Q 470.40 3863.00 458.40 3863.00 L 404.40 3863.00" fill="none" stroke="#333333" stroke-width="2" marker-end="url(#arrow-0)"   stroke-linecap="round" stroke-linejoin="round" /><path d="M 536.40 3863.00 L 482.40 3863.00 Q 470.40 3863.00 470.40 3875.00 L 470.40 3955.00 Q 470.40 3967.00 458.40 3967.00 L 404.40 3967.00" fill="none" stroke="#333333" stroke-width="2" marker-end="url(#arrow-0)"   stroke-linecap="round" stroke-linejoin="round" /><path d="M 536.40 3967.00 L 482.40 3967.00 Q 470.40 3967.00 470.40 3979.00 L 470.40 4059.00 Q 470.40 4071.00 458.40 4071.00 L 404.40 4071.00" fill="none" stroke="#333333" stroke-width="2" marker-end="url(#arrow-0)"   stroke-linecap="round" stroke-linejoin="round" /><path d="M 536.40 4071.00 L 482.40 4071.00 Q 470.40 4071.00 470.40 4083.00 L 470.40 4163.00 Q 470.40 4175.00 458.40 4175.00 L 404.40 4175.00" fill="none" stroke="#333333" stroke-width="2" marker-end="url(#arrow-0)"   stroke-linecap="round" stroke-linejoin="round" /><path d="M 536.40 4175.00 L 482.40 4175.00 Q 470.40 4175.00 470.40 4187.00 L 470.40 4267.00 Q 470.40 4279.00 458.40 4279.00 L 404.40 4279.00" fill="none" stroke="#333333" stroke-width="2" marker-end="url(#arrow-0)"   stroke-linecap="round" stroke-linejoin="round" /><path d="M 536.40 4279.00 L 482.40 4279.00 Q 470.40 4279.00 470.40 4291.00 L 470.40 4371.00 Q 470.40 4383.00 458.40 4383.00 L 404.40 4383.00" fill="none" stroke="#333333" stroke-width="2" marker-end="url(#arrow-0)"   stroke-linecap="round" stroke-linejoin="round" /><path d="M 536.40 4383.00 L 482.40 4383.00 Q 470.40 4383.00 470.40 4395.00 L 470.40 4475.00 Q 470.40 4487.00 458.40 4487.00 L 404.40 4487.00" fill="none" stroke="#333333" stroke-width="2" marker-end="url(#arrow-0)"   stroke-linecap="round" stroke-linejoin="round" /><path d="M 536.40 4487.00 L 482.40 4487.00 Q 470.40 4487.00 470.40 4499.00 L 470.40 4579.00 Q 470.40 4591.00 458.40 4591.00 L 404.40 4591.00" fill="none" stroke="#333333" stroke-width="2" marker-end="url(#arrow-0)"   stroke-linecap="round" stroke-linejoin="round" /><path d="M 536.40 4591.00 L 482.40 4591.00 Q 470.40 4591.00 470.40 4603.00 L 470.40 4683.00 Q 470.40 4695.00 458.40 4695.00 L 404.40 4695.00" fill="none" stroke="#333333" stroke-width="2" marker-end="url(#arrow-0)"   stroke-linecap="round" stroke-linejoin="round" /><path d="M 536.40 4695.00 L 482.40 4695.00 Q 470.40 4695.00 470.40 4707.00 L 470.40 4787.00 Q 470.40 4799.00 458.40 4799.00 L 404.40 4799.00" fill="none" stroke="#333333" stroke-width="2" marker-end="url(#arrow-0)"   stroke-linecap="round" stroke-linejoin="round" /><path d="M 536.40 4799.00 L 482.40 4799.00 Q 470.40 4799.00 470.40 4811.00 L 470.40 4891.00 Q 470.40 4903.00 458.40 4903.00 L 404.40 4903.00" fill="none" stroke="#333333" stroke-width="2" marker-end="url(#arrow-0)"   stroke-linecap="round" stroke-linejoin="round" /><path d="M 536.40 4903.00 L 482.40 4903.00 Q 470.40 4903.00 470.40 4915.00 L 470.40 4995.00 Q 470.40 5007.00 458.40 5007.00 L 404.40 5007.00" fill="none" stroke="#333333" stroke-width="2" marker-end="url(#arrow-0)"   stroke-linecap="round" stroke-linejoin="round" /><path d="M 536.40 5007.00 L 482.40 5007.00 Q 470.40 5007.00 470.40 5019.00 L 470.40 5099.00 Q 470.40 5111.00 458.40 5111.00 L 404.40 5111.00" fill="none" stroke="#333333" stroke-width="2" marker-end="url(#arrow-0)"   stroke-linecap="round" stroke-linejoin="round" /><path d="M 176.40 107.00 L 187.90 107.00 Q 199.40 107.00 199.40 118.50 L 199.40 1817.50 Q 199.40 1829.00 210.90 1829.00 L 222.40 1829.00" fill="none" stroke="#333333" stroke-width="2" marker-end="url(#arrow-0)"   stroke-linecap="round" stroke-linejoin="round" /><path d="M 354.40 1829.00 L 367.40 1829.00 Q 379.40 1829.00 379.40 1841.00 L 379.40 3643.00 Q 379.40 3655.00 391.40 3655.00 L 404.40 3655.00" fill="none" stroke="#333333" stroke-width="2" marker-end="url(#arrow-0)"   stroke-linecap="round" stroke-linejoin="round" /><rect x="51.60" y="80.00" width="124.80" height="54.00" rx="0" ry="0" fill="#ECECFF" stroke="#9370DB" stroke-width="1" stroke-linejoin="round" stroke-linecap="round"/><text x="114.00" y="111.00" text-anchor="middle" font-family=""trebuchet ms", verdana, arial, sans-serif" font-size="16" fill="#333333"><tspan x="114.00" dy="0.00">Service 1</tspan></text><rect x="48.00" y="1016.00" width="132.00" height="54.00" rx="0" ry="0" fill="#ECECFF" stroke="#9370DB" stroke-width="1" stroke-linejoin="round" stroke-linecap="round"/><text x="114.00" y="1047.00" text-anchor="middle" font-family=""trebuchet ms", verdana, arial, sans-serif" font-size="16" fill="#333333"><tspan x="114.00" dy="0.00">Service 10</tspan></text><rect x="48.00" y="1120.00" width="132.00" height="54.00" rx="0" ry="0" fill="#ECECFF" stroke="#9370DB" stroke-width="1" stroke-linejoin="round" stroke-linecap="round"/><text x="114.00" y="1151.00" text-anchor="middle" font-family=""trebuchet ms", verdana, arial, sans-serif" font-size="16" fill="#333333"><tspan x="114.00" dy="0.00">Service 11</tspan></text><rect x="48.00" y="1224.00" width="132.00" height="54.00" rx="0" ry="0" fill="#ECECFF" stroke="#9370DB" stroke-width="1" stroke-linejoin="round" stroke-linecap="round"/><text x="114.00" y="1255.00" text-anchor="middle" font-family=""trebuchet ms", verdana, arial, sans-serif" font-size="16" fill="#333333"><tspan x="114.00" dy="0.00">Service 12</tspan></text><rect x="48.00" y="1328.00" width="132.00" height="54.00" rx="0" ry="0" fill="#ECECFF" stroke="#9370DB" stroke-width="1" stroke-linejoin="round" stroke-linecap="round"/><text x="114.00" y="1359.00" text-anchor="middle" font-family=""trebuchet ms", verdana, arial, sans-serif" font-size="16" fill="#333333"><tspan x="114.00" dy="0.00">Service 13</tspan></text><rect x="48.00" y="1432.00" width="132.00" height="54.00" rx="0" ry="0" fill="#ECECFF" stroke="#9370DB" stroke-width="1" stroke-linejoin="round" stroke-linecap="round"/><text x="114.00" y="1463.00" text-anchor="middle" font-family=""trebuchet ms", verdana, arial, sans-serif" font-size="16" fill="#333333"><tspan x="114.00" dy="0.00">Service 14</tspan></text><rect x="48.00" y="1536.00" width="132.00" height="54.00" rx="0" ry="0" fill="#ECECFF" stroke="#9370DB" stroke-width="1" stroke-linejoin="round" stroke-linecap="round"/><text x="114.00" y="1567.00" text-anchor="middle" font-family=""trebuchet ms", verdana, arial, sans-serif" font-size="16" fill="#333333"><tspan x="114.00" dy="0.00">Service 15</tspan></text><rect x="222.40" y="1802.00" width="132.00" height="54.00" rx="0" ry="0" fill="#ECECFF" stroke="#9370DB" stroke-width="1" stroke-linejoin="round" stroke-linecap="round"/><text x="288.40" y="1833.00" text-anchor="middle" font-family=""trebuchet ms", verdana, arial, sans-serif" font-size="16" fill="#333333"><tspan x="288.40" dy="0.00">Service 16</tspan></text><rect x="222.40" y="1906.00" width="132.00" height="54.00" rx="0" ry="0" fill="#ECECFF" stroke="#9370DB" stroke-width="1" stroke-linejoin="round" stroke-linecap="round"/><text x="288.40" y="1937.00" text-anchor="middle" font-family=""trebuchet ms", verdana, arial, sans-serif" font-size="16" fill="#333333"><tspan x="288.40" dy="0.00">Service 17</tspan></text><rect x="222.40" y="2010.00" width="132.00" height="54.00" rx="0" ry="0" fill="#ECECFF" stroke="#9370DB" stroke-width="1" stroke-linejoin="round" stroke-linecap="round"/><text x="288.40" y="2041.00" text-anchor="middle" font-family=""trebuchet ms", verdana, arial, sans-serif" font-size="16" fill="#333333"><tspan x="288.40" dy="0.00">Service 18</tspan></text><rect x="222.40" y="2114.00" width="132.00" height="54.00" rx="0" ry="0" fill="#ECECFF" stroke="#9370DB" stroke-width="1" stroke-linejoin="round" stroke-linecap="round"/><text x="288.40" y="2145.00" text-anchor="middle" font-family=""trebuchet ms", verdana, arial, sans-serif" font-size="16" fill="#333333"><tspan x="288.40" dy="0.00">Service 19</tspan></text><rect x="51.60" y="184.00" width="124.80" height="54.00" rx="0" ry="0" fill="#ECECFF" stroke="#9370DB" stroke-width="1" stroke-linejoin="round" stroke-linecap="round"/><text x="114.00" y="215.00" text-anchor="middle" font-family=""trebuchet ms", verdana, arial, sans-serif" font-size="16" fill="#333333"><tspan x="114.00" dy="0.00">Service 2</tspan></text><rect x="222.40" y="2218.00" width="132.00" height="54.00" rx="0" ry="0" fill="#ECECFF" stroke="#9370DB" stroke-width="1" stroke-linejoin="round" stroke-linecap="round"/><text x="288.40" y="2249.00" text-anchor="middle" font-family=""trebuchet ms", verdana, arial, sans-serif" font-size="16" fill="#333333"><tspan x="288.40" dy="0.00">Service 20</tspan></text><rect x="222.40" y="2322.00" width="132.00" height="54.00" rx="0" ry="0" fill="#ECECFF" stroke="#9370DB" stroke-width="1" stroke-linejoin="round" stroke-linecap="round"/><text x="288.40" y="2353.00" text-anchor="middle" font-family=""trebuchet ms", verdana, arial, sans-serif" font-size="16" fill="#333333"><tspan x="288.40" dy="0.00">Service 21</tspan></text><rect x="222.40" y="2426.00" width="132.00" height="54.00" rx="0" ry="0" fill="#ECECFF" stroke="#9370DB" stroke-width="1" stroke-linejoin="round" stroke-linecap="round"/><text x="288.40" y="2457.00" text-anchor="middle" font-family=""trebuchet ms", verdana, arial, sans-serif" font-size="16" fill="#333333"><tspan x="288.40" dy="0.00">Service 22</tspan></text><rect x="222.40" y="2530.00" width="132.00" height="54.00" rx="0" ry="0" fill="#ECECFF" stroke="#9370DB" stroke-width="1" stroke-linejoin="round" stroke-linecap="round"/><text x="288.40" y="2561.00" text-anchor="middle" font-family=""trebuchet ms", verdana, arial, sans-serif" font-size="16" fill="#333333"><tspan x="288.40" dy="0.00">Service 23</tspan></text><rect x="222.40" y="2634.00" width="132.00" height="54.00" rx="0" ry="0" fill="#ECECFF" stroke="#9370DB" stroke-width="1" stroke-linejoin="round" stroke-linecap="round"/><text x="288.40" y="2665.00" text-anchor="middle" font-family=""trebuchet ms", verdana, arial, sans-serif" font-size="16" fill="#333333"><tspan x="288.40" dy="0.00">Service 24</tspan></text><rect x="222.40" y="2738.00" width="132.00" height="54.00" rx="0" ry="0" fill="#ECECFF" stroke="#9370DB" stroke-width="1" stroke-linejoin="round" stroke-linecap="round"/><text x="288.40" y="2769.00" text-anchor="middle" font-family=""trebuchet ms", verdana, arial, sans-serif" font-size="16" fill="#333333"><tspan x="288.40" dy="0.00">Service 25</tspan></text><rect x="222.40" y="2842.00" width="132.00" height="54.00" rx="0" ry="0" fill="#ECECFF" stroke="#9370DB" stroke-width="1" stroke-linejoin="round" stroke-linecap="round"/><text x="288.40" y="2873.00" text-anchor="middle" font-family=""trebuchet ms", verdana, arial, sans-serif" font-size="16" fill="#333333"><tspan x="288.40" dy="0.00">Service 26</tspan></text><rect x="222.40" y="2946.00" width="132.00" height="54.00" rx="0" ry="0" fill="#ECECFF" stroke="#9370DB" stroke-width="1" stroke-linejoin="round" stroke-linecap="round"/><text x="288.40" y="2977.00" text-anchor="middle" font-family=""trebuchet ms", verdana, arial, sans-serif" font-size="16" fill="#333333"><tspan x="288.40" dy="0.00">Service 27</tspan></text><rect x="222.40" y="3050.00" width="132.00" height="54.00" rx="0" ry="0" fill="#ECECFF" stroke="#9370DB" stroke-width="1" stroke-linejoin="round" stroke-linecap="round"/><text x="288.40" y="3081.00" text-anchor="middle" font-family=""trebuchet ms", verdana, arial, sans-serif" font-size="16" fill="#333333"><tspan x="288.40" dy="0.00">Service 28</tspan></text><rect x="222.40" y="3154.00" width="132.00" height="54.00" rx="0" ry="0" fill="#ECECFF" stroke="#9370DB" stroke-width="1" stroke-linejoin="round" stroke-linecap="round"/><text x="288.40" y="3185.00" text-anchor="middle" font-family=""trebuchet ms", verdana, arial, sans-serif" font-size="16" fill="#333333"><tspan x="288.40" dy="0.00">Service 29</tspan></text><rect x="51.60" y="288.00" width="124.80" height="54.00" rx="0" ry="0" fill="#ECECFF" stroke="#9370DB" stroke-width="1" stroke-linejoin="round" stroke-linecap="round"/><text x="114.00" y="319.00" text-anchor="middle" font-family=""trebuchet ms", verdana, arial, sans-serif" font-size="16" fill="#333333"><tspan x="114.00" dy="0.00">Service 3</tspan></text><rect x="222.40" y="3258.00" width="132.00" height="54.00" rx="0" ry="0" fill="#ECECFF" stroke="#9370DB" stroke-width="1" stroke-linejoin="round" stroke-linecap="round"/><text x="288.40" y="3289.00" text-anchor="middle" font-family=""trebuchet ms", verdana, arial, sans-serif" font-size="16" fill="#333333"><tspan x="288.40" dy="0.00">Service 30</tspan></text><rect x="404.40" y="3628.00" width="132.00" height="54.00" rx="0" ry="0" fill="#ECECFF" stroke="#9370DB" stroke-width="1" stroke-linejoin="round" stroke-linecap="round"/><text x="470.40" y="3659.00" text-anchor="middle" font-family=""trebuchet ms", verdana, arial, sans-serif" font-size="16" fill="#333333"><tspan x="470.40" dy="0.00">Service 31</tspan></text><rect x="404.40" y="3732.00" width="132.00" height="54.00" rx="0" ry="0" fill="#ECECFF" stroke="#9370DB" stroke-width="1" stroke-linejoin="round" stroke-linecap="round"/><text x="470.40" y="3763.00" text-anchor="middle" font-family=""trebuchet ms", verdana, arial, sans-serif" font-size="16" fill="#333333"><tspan x="470.40" dy="0.00">Service 32</tspan></text><rect x="404.40" y="3836.00" width="132.00" height="54.00" rx="0" ry="0" fill="#ECECFF" stroke="#9370DB" stroke-width="1" stroke-linejoin="round" stroke-linecap="round"/><text x="470.40" y="3867.00" text-anchor="middle" font-family=""trebuchet ms", verdana, arial, sans-serif" font-size="16" fill="#333333"><tspan x="470.40" dy="0.00">Service 33</tspan></text><rect x="404.40" y="3940.00" width="132.00" height="54.00" rx="0" ry="0" fill="#ECECFF" stroke="#9370DB" stroke-width="1" stroke-linejoin="round" stroke-linecap="round"/><text x="470.40" y="3971.00" text-anchor="middle" font-family=""trebuchet ms", verdana, arial, sans-serif" font-size="16" fill="#333333"><tspan x="470.40" dy="0.00">Service 34</tspan></text><rect x="404.40" y="4044.00" width="132.00" height="54.00" rx="0" ry="0" fill="#ECECFF" stroke="#9370DB" stroke-width="1" stroke-linejoin="round" stroke-linecap="round"/><text x="470.40" y="4075.00" text-anchor="middle" font-family=""trebuchet ms", verdana, arial, sans-serif" font-size="16" fill="#333333"><tspan x="470.40" dy="0.00">Service 35</tspan></text><rect x="404.40" y="4148.00" width="132.00" height="54.00" rx="0" ry="0" fill="#ECECFF" stroke="#9370DB" stroke-width="1" stroke-linejoin="round" stroke-linecap="round"/><text x="470.40" y="4179.00" text-anchor="middle" font-family=""trebuchet ms", verdana, arial, sans-serif" font-size="16" fill="#333333"><tspan x="470.40" dy="0.00">Service 36</tspan></text><rect x="404.40" y="4252.00" width="132.00" height="54.00" rx="0" ry="0" fill="#ECECFF" stroke="#9370DB" stroke-width="1" stroke-linejoin="round" stroke-linecap="round"/><text x="470.40" y="4283.00" text-anchor="middle" font-family=""trebuchet ms", verdana, arial, sans-serif" font-size="16" fill="#333333"><tspan x="470.40" dy="0.00">Service 37</tspan></text><rect x="404.40" y="4356.00" width="132.00" height="54.00" rx="0" ry="0" fill="#ECECFF" stroke="#9370DB" stroke-width="1" stroke-linejoin="round" stroke-linecap="round"/><text x="470.40" y="4387.00" text-anchor="middle" font-family=""trebuchet ms", verdana, arial, sans-serif" font-size="16" fill="#333333"><tspan x="470.40" dy="0.00">Service 38</tspan></text><rect x="404.40" y="4460.00" width="132.00" height="54.00" rx="0" ry="0" fill="#ECECFF" stroke="#9370DB" stroke-width="1" stroke-linejoin="round" stroke-linecap="round"/><text x="470.40" y="4491.00" text-anchor="middle" font-family=""trebuchet ms", verdana, arial, sans-serif" font-size="16" fill="#333333"><tspan x="470.40" dy="0.00">Service 39</tspan></text><rect x="51.60" y="392.00" width="124.80" height="54.00" rx="0" ry="0" fill="#ECECFF" stroke="#9370DB" stroke-width="1" stroke-linejoin="round" stroke-linecap="round"/><text x="114.00" y="423.00" text-anchor="middle" font-family=""trebuchet ms", verdana, arial, sans-serif" font-size="16" fill="#333333"><tspan x="114.00" dy="0.00">Service 4</tspan></text><rect x="404.40" y="4564.00" width="132.00" height="54.00" rx="0" ry="0" fill="#ECECFF" stroke="#9370DB" stroke-width="1" stroke-linejoin="round" stroke-linecap="round"/><text x="470.40" y="4595.00" text-anchor="middle" font-family=""trebuchet ms", verdana, arial, sans-serif" font-size="16" fill="#333333"><tspan x="470.40" dy="0.00">Service 40</tspan></text><rect x="404.40" y="4668.00" width="132.00" height="54.00" rx="0" ry="0" fill="#ECECFF" stroke="#9370DB" stroke-width="1" stroke-linejoin="round" stroke-linecap="round"/><text x="470.40" y="4699.00" text-anchor="middle" font-family=""trebuchet ms", verdana, arial, sans-serif" font-size="16" fill="#333333"><tspan x="470.40" dy="0.00">Service 41</tspan></text><rect x="404.40" y="4772.00" width="132.00" height="54.00" rx="0" ry="0" fill="#ECECFF" stroke="#9370DB" stroke-width="1" stroke-linejoin="round" stroke-linecap="round"/><text x="470.40" y="4803.00" text-anchor="middle" font-family=""trebuchet ms", verdana, arial, sans-serif" font-size="16" fill="#333333"><tspan x="470.40" dy="0.00">Service 42</tspan></text><rect x="404.40" y="4876.00" width="132.00" height="54.00" rx="0" ry="0" fill="#ECECFF" stroke="#9370DB" stroke-width="1" stroke-linejoin="round" stroke-linecap="round"/><text x="470.40" y="4907.00" text-anchor="middle" font-family=""trebuchet ms", verdana, arial, sans-serif" font-size="16" fill="#333333"><tspan x="470.40" dy="0.00">Service 43</tspan></text><rect x="404.40" y="4980.00" width="132.00" height="54.00" rx="0" ry="0" fill="#ECECFF" stroke="#9370DB" stroke-width="1" stroke-linejoin="round" stroke-linecap="round"/><text x="470.40" y="5011.00" text-anchor="middle" font-family=""trebuchet ms", verdana, arial, sans-serif" font-size="16" fill="#333333"><tspan x="470.40" dy="0.00">Service 44</tspan></text><rect x="404.40" y="5084.00" width="132.00" height="54.00" rx="0" ry="0" fill="#ECECFF" stroke="#9370DB" stroke-width="1" stroke-linejoin="round" stroke-linecap="round"/><text x="470.40" y="5115.00" text-anchor="middle" font-family=""trebuchet ms", verdana, arial, sans-serif" font-size="16" fill="#333333"><tspan x="470.40" dy="0.00">Service 45</tspan></text><rect x="51.60" y="496.00" width="124.80" height="54.00" rx="0" ry="0" fill="#ECECFF" stroke="#9370DB" stroke-width="1" stroke-linejoin="round" stroke-linecap="round"/><text x="114.00" y="527.00" text-anchor="middle" font-family=""trebuchet ms", verdana, arial, sans-serif" font-size="16" fill="#333333"><tspan x="114.00" dy="0.00">Service 5</tspan></text><rect x="51.60" y="600.00" width="124.80" height="54.00" rx="0" ry="0" fill="#ECECFF" stroke="#9370DB" stroke-width="1" stroke-linejoin="round" stroke-linecap="round"/><text x="114.00" y="631.00" text-anchor="middle" font-family=""trebuchet ms", verdana, arial, sans-serif" font-size="16" fill="#333333"><tspan x="114.00" dy="0.00">Service 6</tspan></text><rect x="51.60" y="704.00" width="124.80" height="54.00" rx="0" ry="0" fill="#ECECFF" stroke="#9370DB" stroke-width="1" stroke-linejoin="round" stroke-linecap="round"/><text x="114.00" y="735.00" text-anchor="middle" font-family=""trebuchet ms", verdana, arial, sans-serif" font-size="16" fill="#333333"><tspan x="114.00" dy="0.00">Service 7</tspan></text><rect x="51.60" y="808.00" width="124.80" height="54.00" rx="0" ry="0" fill="#ECECFF" stroke="#9370DB" stroke-width="1" stroke-linejoin="round" stroke-linecap="round"/><text x="114.00" y="839.00" text-anchor="middle" font-family=""trebuchet ms", verdana, arial, sans-serif" font-size="16" fill="#333333"><tspan x="114.00" dy="0.00">Service 8</tspan></text><rect x="51.60" y="912.00" width="124.80" height="54.00" rx="0" ry="0" fill="#ECECFF" stroke="#9370DB" stroke-width="1" stroke-linejoin="round" stroke-linecap="round"/><text x="114.00" y="943.00" text-anchor="middle" font-family=""trebuchet ms", verdana, arial, sans-serif" font-size="16" fill="#333333"><tspan x="114.00" dy="0.00">Service 9</tspan></text></svg>