<svg xmlns="http://www.w3.org/2000/svg" width="1789.0605" height="768.06006" viewBox="0 0 1789.0605 768.06006"><rect x="0" y="0" width="1789.0605" height="768.06006" fill="#FFFFFF"/><defs><marker id="arrow-0" viewBox="0 0 10 10" refX="5" refY="5" markerUnits="userSpaceOnUse" markerWidth="8" markerHeight="8" orient="auto"><path d="M 0 0 L 10 5 L 0 10 z" fill="#2F3B4D" stroke="#2F3B4D" stroke-width="1" stroke-dasharray="1,0"/></marker><marker id="arrow-start-0" viewBox="0 0 10 10" refX="4.5" refY="5" markerUnits="userSpaceOnUse" markerWidth="8" markerHeight="8" orient="auto"><path d="M 0 5 L 10 10 L 10 0 z" fill="#2F3B4D" stroke="#2F3B4D" stroke-width="1" stroke-dasharray="1,0"/></marker></defs><path d="M 449.700,379.501L 448.242,379.501C446.784,379.501,443.867,379.501,440.950,379.501C438.034,379.501,435.117,379.501,432.612,378.485C430.107,377.470,428.014,375.439,413.551,361.402C399.088,347.366,372.255,321.324,357.404,306.911C342.552,292.497,339.682,289.711,336.246,288.318C332.811,286.926,328.811,286.925,289.113,286.925C249.414,286.924,174.017,286.922,136.319,286.921L 98.620,286.921" fill="none" stroke="#2F3B4D" stroke-width="2"    stroke-linecap="round" stroke-linejoin="round" /><rect x="228.97" y="272.73" width="215.69" height="28.40" rx="2" ry="2" fill="rgba(248,250,252, 0.92)" fill-opacity="0.95" stroke="#7B88A8" stroke-opacity="0.45" stroke-width="0.8"/><text x="336.81" y="290.93" text-anchor="middle" font-family="'trebuchet ms', verdana, arial, sans-serif" font-size="16" fill="#333333"><tspan x="336.81" dy="0.00">1. Prompt to authorise sync</tspan></text><path d="M 600.169,347.501L 601.628,347.501C603.086,347.501,606.003,347.501,608.919,347.501C611.836,347.501,614.753,347.501,617.270,348.504C619.787,349.507,621.905,351.512,643.068,371.553C664.230,391.595,704.438,429.672,725.994,450.085C747.551,470.499,750.455,473.250,752.441,472.697C754.428,472.145,755.496,468.291,768.532,421.264C781.567,374.238,806.570,284.039,819.461,237.535C832.352,191.030,833.131,188.220,834.979,186.814C836.827,185.409,839.744,185.409,842.660,185.409C845.577,185.409,848.494,185.409,849.952,185.409L 851.410,185.409" fill="none" stroke="#2F3B4D" stroke-width="2"    stroke-linecap="round" stroke-linejoin="round" /><rect x="660.83" y="449.80" width="185.07" height="52.40" rx="2" ry="2" fill="rgba(248,250,252, 0.92)" fill-opacity="0.95" stroke="#7B88A8" stroke-opacity="0.45" stroke-width="0.8"/><text x="753.36" y="468.00" text-anchor="middle" font-family="'trebuchet ms', verdana, arial, sans-serif" font-size="16" fill="#333333"><tspan x="753.36" dy="0.00">2. Check connectivity &amp;</tspan><tspan x="753.36" dy="24.00">compatibility</tspan></text><path d="M 976.271,153.409L 977.729,153.409C979.187,153.409,982.104,153.409,985.021,153.409C987.937,153.409,990.854,153.409,992.312,151.951C993.771,150.492,993.771,147.576,993.771,141.874C993.771,136.173,993.771,127.687,993.771,121.444C993.771,115.200,993.771,111.200,994.979,110.794C996.187,110.388,998.604,113.575,1035.045,161.642C1071.485,209.708,1141.950,302.652,1178.391,350.718C1214.832,398.785,1217.249,401.972,1219.080,401.665C1220.911,401.359,1222.157,397.558,1237.813,349.798C1253.468,302.039,1283.533,210.321,1299.189,162.562C1314.844,114.802,1316.090,111.001,1316.713,111.101C1317.336,111.200,1317.336,115.200,1317.336,126.041C1317.336,136.881,1317.336,154.561,1317.336,164.860C1317.336,175.158,1317.336,178.075,1318.795,179.533C1320.253,180.992,1323.170,180.992,1326.086,180.992C1329.003,180.992,1331.920,180.992,1333.378,180.992L 1334.836,180.992" fill="none" stroke="#2F3B4D" stroke-width="2"    stroke-linecap="round" stroke-linejoin="round" /><rect x="1107.99" y="378.96" width="223.34" height="52.40" rx="2" ry="2" fill="rgba(248,250,252, 0.92)" fill-opacity="0.95" stroke="#7B88A8" stroke-opacity="0.45" stroke-width="0.8"/><text x="1219.67" y="397.16" text-anchor="middle" font-family="'trebuchet ms', verdana, arial, sans-serif" font-size="16" fill="#333333"><tspan x="1219.67" dy="0.00">3. Fetch stored elements for</tspan><tspan x="1219.67" dy="24.00">OPAQUE</tspan></text><path d="M 881.840,225.351L 881.840,211.777C881.841,198.203,881.841,171.055,881.840,155.480C881.841,139.906,881.841,135.906,880.247,132.698C878.653,129.490,875.465,127.073,852.456,109.631C829.447,92.188,786.615,59.719,763.606,42.276C740.597,24.833,737.409,22.416,734.035,22.120C730.661,21.824,727.101,23.647,692.468,41.386C657.834,59.126,592.128,92.781,557.494,110.520C522.861,128.259,519.300,130.083,517.520,132.994C515.740,135.906,515.740,139.906,515.740,170.165C515.740,200.425,515.740,256.943,515.740,285.202L 515.740,313.461" fill="none" stroke="#2F3B4D" stroke-width="2"    stroke-linecap="round" stroke-linejoin="round" /><rect x="660.83" y="5.80" width="146.79" height="28.40" rx="2" ry="2" fill="rgba(248,250,252, 0.92)" fill-opacity="0.95" stroke="#7B88A8" stroke-opacity="0.45" stroke-width="0.8"/><text x="734.22" y="24.00" text-anchor="middle" font-family="'trebuchet ms', verdana, arial, sans-serif" font-size="16" fill="#333333"><tspan x="734.22" dy="0.00">4. Sends challenge</tspan></text><path d="M 98.620,302.921L 100.079,302.921C101.537,302.921,104.454,302.921,107.370,302.921C110.287,302.921,113.204,302.921,116.045,303.383C118.886,303.846,121.652,304.772,154.624,315.804C187.595,326.837,250.772,347.978,284.257,359.182C317.742,370.387,321.535,371.656,325.313,372.970C329.091,374.284,332.853,375.642,349.294,381.576C365.734,387.510,394.852,398.020,410.783,403.770C426.714,409.521,429.457,410.511,432.287,411.006C435.117,411.501,438.034,411.501,440.950,411.501C443.867,411.501,446.784,411.501,448.242,411.501L 449.700,411.501" fill="none" stroke="#2F3B4D" stroke-width="2"    stroke-linecap="round" stroke-linejoin="round" /><rect x="228.97" y="346.73" width="192.72" height="52.40" rx="2" ry="2" fill="rgba(248,250,252, 0.92)" fill-opacity="0.95" stroke="#7B88A8" stroke-opacity="0.45" stroke-width="0.8"/><text x="325.33" y="364.93" text-anchor="middle" font-family="'trebuchet ms', verdana, arial, sans-serif" font-size="16" fill="#333333"><tspan x="325.33" dy="0.00">5. Enter master password</tspan><tspan x="325.33" dy="24.00">and confirm sync</tspan></text><path d="M 615.326,395.501L 616.784,395.501C618.242,395.501,621.159,395.501,624.076,395.501C626.992,395.501,629.909,395.501,631.718,394.085C633.526,392.670,634.227,389.839,646.180,341.530C658.134,293.221,681.340,199.435,693.424,150.600C705.507,101.766,706.468,97.883,707.766,97.767C709.065,97.650,710.701,101.300,731.049,146.704C751.398,192.108,790.460,279.265,810.588,324.175C830.715,369.085,831.908,371.746,833.963,373.077C836.017,374.408,838.934,374.408,841.851,374.408C844.767,374.408,847.684,374.408,849.142,374.408L 850.601,374.408" fill="none" stroke="#2F3B4D" stroke-width="2"    stroke-linecap="round" stroke-linejoin="round" /><rect x="660.83" y="79.80" width="93.21" height="28.40" rx="2" ry="2" fill="rgba(248,250,252, 0.92)" fill-opacity="0.95" stroke="#7B88A8" stroke-opacity="0.45" stroke-width="0.8"/><text x="707.43" y="98.00" text-anchor="middle" font-family="'trebuchet ms', verdana, arial, sans-serif" font-size="16" fill="#333333"><tspan x="707.43" dy="0.00">6. Password</tspan></text><path d="M 854.311,422.408L 852.853,422.408C851.395,422.408,848.478,422.408,845.561,422.408C842.645,422.408,839.728,422.408,837.534,421.148C835.341,419.889,833.870,417.370,810.125,376.696C786.380,336.022,740.361,257.193,716.342,216.051C692.324,174.909,690.308,171.454,688.843,171.675C687.379,171.895,686.467,175.789,677.298,214.953C668.129,254.117,650.702,328.549,641.656,367.185C632.610,405.821,631.945,408.661,630.154,410.081C628.363,411.501,625.447,411.501,622.530,411.501C619.613,411.501,616.697,411.501,615.238,411.501L 613.780,411.501" fill="none" stroke="#2F3B4D" stroke-width="2"    stroke-linecap="round" stroke-linejoin="round" /><rect x="660.83" y="153.80" width="54.93" height="28.40" rx="2" ry="2" fill="rgba(248,250,252, 0.92)" fill-opacity="0.95" stroke="#7B88A8" stroke-opacity="0.45" stroke-width="0.8"/><text x="688.29" y="172.00" text-anchor="middle" font-family="'trebuchet ms', verdana, arial, sans-serif" font-size="16" fill="#333333"><tspan x="688.29" dy="0.00">7. Ke1</tspan></text><path d="M 547.740,313.461L 547.740,312.003C547.740,310.545,547.740,307.628,547.740,304.711C547.740,301.795,547.740,298.878,549.102,296.897C550.463,294.916,553.186,293.870,574.744,285.594C596.302,277.317,636.695,261.809,658.759,253.338C680.823,244.867,684.557,243.434,688.423,242.787C692.289,242.140,696.286,242.280,729.754,243.452C763.221,244.624,826.158,246.829,859.085,247.982C892.011,249.135,894.926,249.237,896.383,247.830C897.841,246.423,897.841,243.506,897.840,240.589C897.841,237.673,897.841,234.756,897.840,233.298L 897.840,231.839" fill="none" stroke="#2F3B4D" stroke-width="2"    stroke-linecap="round" stroke-linejoin="round" /><rect x="660.83" y="227.80" width="54.93" height="28.40" rx="2" ry="2" fill="rgba(248,250,252, 0.92)" fill-opacity="0.95" stroke="#7B88A8" stroke-opacity="0.45" stroke-width="0.8"/><text x="688.29" y="246.00" text-anchor="middle" font-family="'trebuchet ms', verdana, arial, sans-serif" font-size="16" fill="#333333"><tspan x="688.29" dy="0.00">8. Ke1</tspan></text><path d="M 978.288,169.409L 979.747,169.409C981.205,169.409,984.122,169.409,987.038,169.409C989.955,169.409,992.872,169.409,995.009,170.700C997.147,171.990,998.505,174.571,1031.059,236.426C1063.613,298.282,1127.362,419.411,1160.168,481.746C1192.974,544.080,1194.837,547.620,1195.857,547.392C1196.876,547.163,1197.052,543.167,1199.768,481.540C1202.484,419.913,1207.740,300.655,1210.456,239.028C1213.172,177.401,1213.348,173.405,1213.436,173.407C1213.524,173.409,1213.524,177.409,1213.524,200.381C1213.524,223.354,1213.524,265.298,1213.524,288.270C1213.524,311.242,1213.524,315.242,1215.524,317.242C1217.524,319.242,1221.524,319.242,1243.647,319.242C1265.770,319.242,1306.015,319.242,1326.138,319.242L 1346.260,319.242" fill="none" stroke="#2F3B4D" stroke-width="2"    stroke-linecap="round" stroke-linejoin="round" /><rect x="1107.99" y="476.96" width="177.41" height="148.40" rx="2" ry="2" fill="rgba(248,250,252, 0.92)" fill-opacity="0.95" stroke="#7B88A8" stroke-opacity="0.45" stroke-width="0.8"/><text x="1196.70" y="495.16" text-anchor="middle" font-family="'trebuchet ms', verdana, arial, sans-serif" font-size="16" fill="#333333"><tspan x="1196.70" dy="0.00">9. self_identity,</tspan><tspan x="1196.70" dy="24.00">self_private_key,</tspan><tspan x="1196.70" dy="24.00">self_public_key,</tspan><tspan x="1196.70" dy="24.00">client_record,</tspan><tspan x="1196.70" dy="24.00">credential_identifier,</tspan><tspan x="1196.70" dy="24.00">oprf_seed, ke1</tspan></text><path d="M 1336.044,383.242L 1314.522,383.242C1292.999,383.243,1249.953,383.243,1226.430,383.242C1202.907,383.243,1198.907,383.243,1196.907,381.242C1194.907,379.243,1194.907,375.243,1194.907,344.270C1194.907,313.298,1194.907,255.354,1194.907,224.381C1194.907,193.409,1194.907,189.409,1192.970,186.913C1191.033,184.416,1187.158,183.424,1179.825,181.545C1172.492,179.667,1161.702,176.902,1154.369,175.024C1147.037,173.145,1143.162,172.152,1139.234,171.851C1135.306,171.549,1131.325,171.939,1108.524,174.172C1085.722,176.405,1044.101,180.481,1021.838,182.661C999.576,184.841,996.673,185.125,993.764,185.267C990.854,185.409,987.937,185.409,985.021,185.409C982.104,185.409,979.187,185.409,977.729,185.409L 976.271,185.409" fill="none" stroke="#2F3B4D" stroke-width="2"    stroke-linecap="round" stroke-linejoin="round" /><rect x="1107.99" y="156.96" width="62.59" height="28.40" rx="2" ry="2" fill="rgba(248,250,252, 0.92)" fill-opacity="0.95" stroke="#7B88A8" stroke-opacity="0.45" stroke-width="0.8"/><text x="1139.29" y="175.16" text-anchor="middle" font-family="'trebuchet ms', verdana, arial, sans-serif" font-size="16" fill="#333333"><tspan x="1139.29" dy="0.00">10. Ke2</tspan></text><path d="M 913.840,233.857L 913.840,235.315C913.841,236.774,913.841,239.690,913.840,242.607C913.841,245.524,913.841,248.440,912.440,250.307C911.040,252.173,908.240,252.990,873.207,263.204C838.173,273.418,770.906,293.030,735.352,303.395C699.799,313.761,695.959,314.880,692.053,315.205C688.146,315.529,684.174,315.058,664.226,312.694C644.278,310.330,608.354,306.072,588.943,303.771C569.533,301.470,566.637,301.127,565.188,302.414C563.740,303.700,563.740,306.617,563.740,309.534C563.740,312.450,563.740,315.367,563.740,316.825L 563.740,318.284" fill="none" stroke="#2F3B4D" stroke-width="2"    stroke-linecap="round" stroke-linejoin="round" /><rect x="660.83" y="301.80" width="62.59" height="28.40" rx="2" ry="2" fill="rgba(248,250,252, 0.92)" fill-opacity="0.95" stroke="#7B88A8" stroke-opacity="0.45" stroke-width="0.8"/><text x="692.12" y="320.00" text-anchor="middle" font-family="'trebuchet ms', verdana, arial, sans-serif" font-size="16" fill="#333333"><tspan x="692.12" dy="0.00">11. Ke2</tspan></text><path d="M 608.958,427.501L 610.416,427.501C611.874,427.501,614.791,427.501,617.708,427.501C620.624,427.501,623.541,427.501,625.902,428.647C628.263,429.792,630.068,432.083,648.066,454.929C666.065,477.774,700.258,521.174,718.592,544.445C736.926,567.716,739.401,570.858,742.620,572.705C745.838,574.552,749.800,575.103,766.919,577.487C784.037,579.871,814.313,584.087,830.895,586.396C847.477,588.705,850.366,589.107,853.269,589.308C856.172,589.509,859.088,589.509,862.005,589.509C864.922,589.509,867.838,589.509,869.297,589.509L 870.755,589.509" fill="none" stroke="#2F3B4D" stroke-width="2"    stroke-linecap="round" stroke-linejoin="round" /><rect x="660.83" y="547.80" width="162.10" height="52.40" rx="2" ry="2" fill="rgba(248,250,252, 0.92)" fill-opacity="0.95" stroke="#7B88A8" stroke-opacity="0.45" stroke-width="0.8"/><text x="741.88" y="566.00" text-anchor="middle" font-family="'trebuchet ms', verdana, arial, sans-serif" font-size="16" fill="#333333"><tspan x="741.88" dy="0.00">12. self_identity,</tspan><tspan x="741.88" dy="24.00">server_identity, ke2</tspan></text><path d="M 849.393,653.509L 847.934,653.509C846.476,653.509,843.559,653.509,840.643,653.509C837.726,653.509,834.809,653.509,831.925,653.815C829.041,654.121,826.189,654.733,813.780,657.395C801.371,660.057,779.404,664.770,766.465,667.546C753.526,670.322,749.615,671.161,746.682,669.836C743.749,668.510,741.794,665.021,721.167,628.210C700.541,591.399,661.244,521.267,640.882,484.928C620.521,448.590,619.095,446.046,616.924,444.773C614.753,443.501,611.836,443.501,608.919,443.501C606.003,443.501,603.086,443.501,601.628,443.501L 600.169,443.501" fill="none" stroke="#2F3B4D" stroke-width="2"    stroke-linecap="round" stroke-linejoin="round" /><rect x="660.83" y="645.80" width="169.76" height="52.40" rx="2" ry="2" fill="rgba(248,250,252, 0.92)" fill-opacity="0.95" stroke="#7B88A8" stroke-opacity="0.45" stroke-width="0.8"/><text x="745.70" y="664.00" text-anchor="middle" font-family="'trebuchet ms', verdana, arial, sans-serif" font-size="16" fill="#333333"><tspan x="745.70" dy="0.00">13. Ke3, session_key,</tspan><tspan x="745.70" dy="24.00">export_key</tspan></text><path d="M 579.740,327.072L 579.740,325.614C579.740,324.155,579.740,321.239,579.740,318.322C579.740,315.405,579.740,312.489,580.926,311.879C582.112,311.269,584.484,312.967,601.587,325.208C618.690,337.448,650.525,360.232,668.069,372.788C685.613,385.344,688.866,387.672,692.213,387.818C695.561,387.963,699.004,385.926,737.369,363.225C775.734,340.524,849.022,297.160,886.921,274.735C924.820,252.310,927.330,250.825,928.585,248.624C929.841,246.423,929.841,243.506,929.840,240.589C929.841,237.673,929.841,234.756,929.840,233.298L 929.840,231.839" fill="none" stroke="#2F3B4D" stroke-width="2"    stroke-linecap="round" stroke-linejoin="round" /><rect x="660.83" y="375.80" width="62.59" height="28.40" rx="2" ry="2" fill="rgba(248,250,252, 0.92)" fill-opacity="0.95" stroke="#7B88A8" stroke-opacity="0.45" stroke-width="0.8"/><text x="692.12" y="394.00" text-anchor="middle" font-family="'trebuchet ms', verdana, arial, sans-serif" font-size="16" fill="#333333"><tspan x="692.12" dy="0.00">14. Ke3</tspan></text><path d="M 969.783,201.409L 971.241,201.409C972.699,201.409,975.616,201.409,978.533,201.409C981.449,201.409,984.366,201.409,987.226,201.812C990.085,202.216,992.888,203.023,1016.300,209.761C1039.713,216.500,1083.734,229.170,1107.666,236.058C1131.599,242.947,1135.443,244.053,1137.994,242.708C1140.545,241.363,1141.803,237.566,1143.590,232.172C1145.377,226.779,1147.693,219.790,1149.480,214.396C1151.267,209.003,1152.526,205.206,1153.155,205.308C1153.784,205.409,1153.784,209.409,1153.784,268.870C1153.784,328.330,1153.784,443.251,1153.784,502.711C1153.784,562.172,1153.784,566.172,1155.784,568.172C1157.784,570.172,1161.784,570.172,1195.367,570.172C1228.951,570.172,1292.118,570.172,1323.701,570.172L 1355.285,570.172" fill="none" stroke="#2F3B4D" stroke-width="2"    stroke-linecap="round" stroke-linejoin="round" /><rect x="1107.99" y="230.96" width="62.59" height="28.40" rx="2" ry="2" fill="rgba(248,250,252, 0.92)" fill-opacity="0.95" stroke="#7B88A8" stroke-opacity="0.45" stroke-width="0.8"/><text x="1139.29" y="249.16" text-anchor="middle" font-family="'trebuchet ms', verdana, arial, sans-serif" font-size="16" fill="#333333"><tspan x="1139.29" dy="0.00">15. Ke3</tspan></text><path d="M 1334.836,634.172L 1333.378,634.172C1331.920,634.172,1329.003,634.172,1326.086,634.172C1323.170,634.172,1320.253,634.172,1318.177,632.851C1316.100,631.530,1314.864,628.888,1291.140,578.198C1267.416,527.507,1221.205,428.768,1197.252,377.586C1173.298,326.405,1171.603,322.782,1170.328,322.925C1169.053,323.067,1168.199,326.975,1157.151,377.523C1146.104,428.071,1124.863,525.260,1113.815,575.808C1102.768,626.356,1101.913,630.264,1101.486,630.218C1101.059,630.172,1101.059,626.172,1101.059,556.045C1101.059,485.917,1101.059,349.663,1101.059,279.536C1101.059,209.409,1101.059,205.409,1099.059,203.409C1097.059,201.409,1093.059,201.409,1071.180,201.409C1049.300,201.409,1009.542,201.409,989.662,201.409L 969.783,201.409" fill="none" stroke="#2F3B4D" stroke-width="2"    stroke-linecap="round" stroke-linejoin="round" /><rect x="1107.99" y="304.96" width="123.83" height="28.40" rx="2" ry="2" fill="rgba(248,250,252, 0.92)" fill-opacity="0.95" stroke="#7B88A8" stroke-opacity="0.45" stroke-width="0.8"/><text x="1169.91" y="323.16" text-anchor="middle" font-family="'trebuchet ms', verdana, arial, sans-serif" font-size="16" fill="#333333"><tspan x="1169.91" dy="0.00">16. session_key</tspan></text><circle cx="913.84" cy="169.41" r="64.45" fill="#ECECFF" stroke="#7B88A8" stroke-width="1" stroke-linejoin="round" stroke-linecap="round"/><circle cx="913.84" cy="169.41" r="60.45" fill="none" stroke="#7B88A8" stroke-width="1" stroke-linejoin="round" stroke-linecap="round"/><text x="913.84" y="173.41" text-anchor="middle" font-family="'trebuchet ms', verdana, arial, sans-serif" font-size="16" fill="#333333"><tspan x="913.84" dy="0.00">Baldr API</tspan></text><circle cx="531.74" cy="395.50" r="83.59" fill="#ECECFF" stroke="#7B88A8" stroke-width="1" stroke-linejoin="round" stroke-linecap="round"/><circle cx="531.74" cy="395.50" r="79.59" fill="none" stroke="#7B88A8" stroke-width="1" stroke-linejoin="round" stroke-linecap="round"/><text x="531.74" y="399.50" text-anchor="middle" font-family="'trebuchet ms', verdana, arial, sans-serif" font-size="16" fill="#333333"><tspan x="531.74" dy="0.00">Forseti Client</tspan></text><circle cx="955.94" cy="390.41" r="106.55" fill="#ECECFF" stroke="#7B88A8" stroke-width="1" stroke-linejoin="round" stroke-linecap="round"/><circle cx="955.94" cy="390.41" r="102.55" fill="none" stroke="#7B88A8" stroke-width="1" stroke-linejoin="round" stroke-linecap="round"/><text x="955.94" y="394.41" text-anchor="middle" font-family="'trebuchet ms', verdana, arial, sans-serif" font-size="16" fill="#333333"><tspan x="955.94" dy="0.00">GenerateKE1 Function</tspan></text><circle cx="1441.39" cy="367.24" r="106.55" fill="#ECECFF" stroke="#7B88A8" stroke-width="1" stroke-linejoin="round" stroke-linecap="round"/><circle cx="1441.39" cy="367.24" r="102.55" fill="none" stroke="#7B88A8" stroke-width="1" stroke-linejoin="round" stroke-linecap="round"/><text x="1441.39" y="371.24" text-anchor="middle" font-family="'trebuchet ms', verdana, arial, sans-serif" font-size="16" fill="#333333"><tspan x="1441.39" dy="0.00">GenerateKE2 Function</tspan></text><circle cx="955.94" cy="653.51" r="106.55" fill="#ECECFF" stroke="#7B88A8" stroke-width="1" stroke-linejoin="round" stroke-linecap="round"/><circle cx="955.94" cy="653.51" r="102.55" fill="none" stroke="#7B88A8" stroke-width="1" stroke-linejoin="round" stroke-linecap="round"/><text x="955.94" y="657.51" text-anchor="middle" font-family="'trebuchet ms', verdana, arial, sans-serif" font-size="16" fill="#333333"><tspan x="955.94" dy="0.00">GenerateKE3 Function</tspan></text><ellipse cx="1693.33" cy="112.09" rx="87.73" ry="7.13" fill="#ECECFF" stroke="#7B88A8" stroke-width="1" stroke-linejoin="round" stroke-linecap="round"/><rect x="1605.59" y="112.09" width="175.47" height="45.14" fill="#ECECFF" stroke="#7B88A8" stroke-width="1" stroke-linejoin="round" stroke-linecap="round"/><ellipse cx="1693.33" cy="157.23" rx="87.73" ry="7.13" fill="none" stroke="#7B88A8" stroke-width="1" stroke-linejoin="round" stroke-linecap="round"/><text x="1693.33" y="138.66" text-anchor="middle" font-family="'trebuchet ms', verdana, arial, sans-serif" font-size="16" fill="#333333"><tspan x="1693.33" dy="0.00">Database File</tspan></text><ellipse cx="1430.99" cy="158.42" rx="96.15" ry="7.13" fill="#ECECFF" stroke="#7B88A8" stroke-width="1" stroke-linejoin="round" stroke-linecap="round"/><rect x="1334.84" y="158.42" width="192.31" height="45.14" fill="#ECECFF" stroke="#7B88A8" stroke-width="1" stroke-linejoin="round" stroke-linecap="round"/><ellipse cx="1430.99" cy="203.56" rx="96.15" ry="7.13" fill="none" stroke="#7B88A8" stroke-width="1" stroke-linejoin="round" stroke-linecap="round"/><text x="1430.99" y="184.99" text-anchor="middle" font-family="'trebuchet ms', verdana, arial, sans-serif" font-size="16" fill="#333333"><tspan x="1430.99" dy="0.00">Server Database</tspan></text><circle cx="1445.21" cy="634.17" r="110.38" fill="#ECECFF" stroke="#7B88A8" stroke-width="1" stroke-linejoin="round" stroke-linecap="round"/><circle cx="1445.21" cy="634.17" r="106.38" fill="none" stroke="#7B88A8" stroke-width="1" stroke-linejoin="round" stroke-linecap="round"/><text x="1445.21" y="638.17" text-anchor="middle" font-family="'trebuchet ms', verdana, arial, sans-serif" font-size="16" fill="#333333"><tspan x="1445.21" dy="0.00">ServerFinish Function</tspan></text><rect x="8.00" y="259.92" width="90.62" height="54.00" rx="3" ry="3" fill="#ECECFF" stroke="#7B88A8" stroke-width="1" stroke-linejoin="round" stroke-linecap="round"/><text x="53.31" y="290.92" text-anchor="middle" font-family="'trebuchet ms', verdana, arial, sans-serif" font-size="16" fill="#333333"><tspan x="53.31" dy="0.00">User</tspan></text><g transform="translate(98.62 286.92) rotate(180.00)"><polygon points="0,0 -10.40,6.24 -10.40,-6.24" fill="#2F3B4D" stroke="#2F3B4D" stroke-width="2" stroke-linejoin="round" stroke-linecap="round"/></g><g transform="translate(851.41 185.41) rotate(0.00)"><polygon points="0,0 -10.40,6.24 -10.40,-6.24" fill="#2F3B4D" stroke="#2F3B4D" stroke-width="2" stroke-linejoin="round" stroke-linecap="round"/></g><g transform="translate(1334.84 180.99) rotate(0.00)"><polygon points="0,0 -10.40,6.24 -10.40,-6.24" fill="#2F3B4D" stroke="#2F3B4D" stroke-width="2" stroke-linejoin="round" stroke-linecap="round"/></g><g transform="translate(515.74 313.46) rotate(90.00)"><polygon points="0,0 -10.40,6.24 -10.40,-6.24" fill="#2F3B4D" stroke="#2F3B4D" stroke-width="2" stroke-linejoin="round" stroke-linecap="round"/></g><g transform="translate(449.70 411.50) rotate(0.00)"><polygon points="0,0 -10.40,6.24 -10.40,-6.24" fill="#2F3B4D" stroke="#2F3B4D" stroke-width="2" stroke-linejoin="round" stroke-linecap="round"/></g><g transform="translate(850.60 374.41) rotate(0.00)"><polygon points="0,0 -10.40,6.24 -10.40,-6.24" fill="#2F3B4D" stroke="#2F3B4D" stroke-width="2" stroke-linejoin="round" stroke-linecap="round"/></g><g transform="translate(613.78 411.50) rotate(180.00)"><polygon points="0,0 -10.40,6.24 -10.40,-6.24" fill="#2F3B4D" stroke="#2F3B4D" stroke-width="2" stroke-linejoin="round" stroke-linecap="round"/></g><g transform="translate(897.84 231.84) rotate(-90.00)"><polygon points="0,0 -10.40,6.24 -10.40,-6.24" fill="#2F3B4D" stroke="#2F3B4D" stroke-width="2" stroke-linejoin="round" stroke-linecap="round"/></g><g transform="translate(1346.26 319.24) rotate(0.00)"><polygon points="0,0 -10.40,6.24 -10.40,-6.24" fill="#2F3B4D" stroke="#2F3B4D" stroke-width="2" stroke-linejoin="round" stroke-linecap="round"/></g><g transform="translate(976.27 185.41) rotate(180.00)"><polygon points="0,0 -10.40,6.24 -10.40,-6.24" fill="#2F3B4D" stroke="#2F3B4D" stroke-width="2" stroke-linejoin="round" stroke-linecap="round"/></g><g transform="translate(563.74 318.28) rotate(90.00)"><polygon points="0,0 -10.40,6.24 -10.40,-6.24" fill="#2F3B4D" stroke="#2F3B4D" stroke-width="2" stroke-linejoin="round" stroke-linecap="round"/></g><g transform="translate(870.75 589.51) rotate(0.00)"><polygon points="0,0 -10.40,6.24 -10.40,-6.24" fill="#2F3B4D" stroke="#2F3B4D" stroke-width="2" stroke-linejoin="round" stroke-linecap="round"/></g><g transform="translate(600.17 443.50) rotate(180.00)"><polygon points="0,0 -10.40,6.24 -10.40,-6.24" fill="#2F3B4D" stroke="#2F3B4D" stroke-width="2" stroke-linejoin="round" stroke-linecap="round"/></g><g transform="translate(929.84 231.84) rotate(-90.00)"><polygon points="0,0 -10.40,6.24 -10.40,-6.24" fill="#2F3B4D" stroke="#2F3B4D" stroke-width="2" stroke-linejoin="round" stroke-linecap="round"/></g><g transform="translate(1355.28 570.17) rotate(0.00)"><polygon points="0,0 -10.40,6.24 -10.40,-6.24" fill="#2F3B4D" stroke="#2F3B4D" stroke-width="2" stroke-linejoin="round" stroke-linecap="round"/></g><g transform="translate(969.78 201.41) rotate(180.00)"><polygon points="0,0 -10.40,6.24 -10.40,-6.24" fill="#2F3B4D" stroke="#2F3B4D" stroke-width="2" stroke-linejoin="round" stroke-linecap="round"/></g></svg>