<svg xmlns="http://www.w3.org/2000/svg" width="546.16003" height="144" viewBox="0 0 546.16003 144"><rect x="0" y="0" width="546.16003" height="144" fill="#FFFFFF"/><defs><marker id="arrow-0" viewBox="0 0 10 10" refX="5" refY="5" markerUnits="userSpaceOnUse" markerWidth="8" markerHeight="8" orient="auto"><path d="M 0 0 L 10 5 L 0 10 z" fill="#333333"/></marker><marker id="arrow-start-0" viewBox="0 0 10 10" refX="4.5" refY="5" markerUnits="userSpaceOnUse" markerWidth="8" markerHeight="8" orient="auto"><path d="M 0 5 L 10 10 L 10 0 z" fill="#333333"/></marker></defs><path d="M 68.312,72.000C76.563,72.000,88.939,72.000,93.064,72.000C97.190,72.000,88.939,72.000,93.064,72.000C97.190,72.000,109.566,72.000,117.817,72.000" fill="none" stroke="#333333" stroke-width="2" marker-end="url(#arrow-0)"   stroke-linecap="round" stroke-linejoin="round" /><path d="M 219.882,56.387C236.801,56.387,262.180,61.201,270.639,56.387C279.099,51.572,262.180,32.314,270.639,27.500C279.099,22.686,304.477,27.500,321.396,27.500" fill="none" stroke="#333333" stroke-width="2" marker-end="url(#arrow-0)"   stroke-linecap="round" stroke-linejoin="round" /><rect x="253.45" y="27.94" width="34.38" height="28.00" rx="2" ry="2" fill="#FFFFFF" stroke="none"/><text x="270.64" y="45.94" text-anchor="middle" font-family="'trebuchet ms', verdana, arial, sans-serif" font-size="16" fill="#333333"><tspan x="270.64" dy="0.00">yes</tspan></text><path d="M 219.882,87.613C238.183,87.613,265.633,82.799,274.783,87.613C283.934,92.428,265.633,111.686,274.783,116.500C283.934,121.314,311.384,116.500,329.685,116.500" fill="none" stroke="#333333" stroke-width="2" marker-end="url(#arrow-0)"   stroke-linecap="round" stroke-linejoin="round" /><rect x="261.51" y="88.06" width="26.54" height="28.00" rx="2" ry="2" fill="#FFFFFF" stroke="none"/><text x="274.78" y="106.06" text-anchor="middle" font-family="'trebuchet ms', verdana, arial, sans-serif" font-size="16" fill="#333333"><tspan x="274.78" dy="0.00">no</tspan></text><path d="M 416.916,27.500C426.955,27.500,442.014,20.733,447.034,27.500C452.054,34.267,442.014,61.333,447.034,68.100C452.054,74.867,467.113,68.100,477.152,68.100" fill="none" stroke="#333333" stroke-width="2" marker-end="url(#arrow-0)"   stroke-linecap="round" stroke-linejoin="round" /><path d="M 408.628,116.500C420.048,116.500,437.179,123.267,442.890,116.500C448.600,109.733,437.179,82.667,442.890,75.900C448.600,69.133,465.731,75.900,477.152,75.900" fill="none" stroke="#333333" stroke-width="2" marker-end="url(#arrow-0)"   stroke-linecap="round" stroke-linejoin="round" /><rect x="8.00" y="52.50" width="60.31" height="39.00" rx="19.50" ry="19.50" fill="#ECECFF" stroke="#9370DB" stroke-width="1" stroke-linejoin="round" stroke-linecap="round"/><text x="38.16" y="76.00" text-anchor="middle" font-family="'trebuchet ms', verdana, arial, sans-serif" font-size="16" fill="#333333"><tspan x="38.16" dy="0.00">Start</tspan></text><polygon points="176.66,13.16 235.50,72.00 176.66,130.84 117.82,72.00" fill="#ECECFF" stroke="#9370DB" stroke-width="1" stroke-linejoin="round" stroke-linecap="round"/><text x="176.66" y="76.00" text-anchor="middle" font-family="'trebuchet ms', verdana, arial, sans-serif" font-size="16" fill="#333333"><tspan x="176.66" dy="0.00">Decision</tspan></text><polygon points="331.88,8.00 427.40,8.00 406.43,47.00 310.91,47.00" fill="#ECECFF" stroke="#9370DB" stroke-width="1" stroke-linejoin="round" stroke-linecap="round"/><text x="369.16" y="31.50" text-anchor="middle" font-family="'trebuchet ms', verdana, arial, sans-serif" font-size="16" fill="#333333"><tspan x="369.16" dy="0.00">Do thing</tspan></text><polygon points="321.02,97.00 399.96,97.00 417.29,136.00 338.35,136.00" fill="#ECECFF" stroke="#9370DB" stroke-width="1" stroke-linejoin="round" stroke-linecap="round"/><text x="369.16" y="120.50" text-anchor="middle" font-family="'trebuchet ms', verdana, arial, sans-serif" font-size="16" fill="#333333"><tspan x="369.16" dy="0.00">\Skip\</tspan></text><rect x="477.15" y="52.50" width="61.01" height="39.00" rx="6" ry="6" fill="#ECECFF" stroke="#9370DB" stroke-width="1" stroke-linejoin="round" stroke-linecap="round"/><line x1="483.15" y1="54.50" x2="483.15" y2="89.50" stroke="#9370DB" stroke-width="1" stroke-linejoin="round" stroke-linecap="round"/><line x1="532.16" y1="54.50" x2="532.16" y2="89.50" stroke="#9370DB" stroke-width="1" stroke-linejoin="round" stroke-linecap="round"/><text x="507.66" y="76.00" text-anchor="middle" font-family="'trebuchet ms', verdana, arial, sans-serif" font-size="16" fill="#333333"><tspan x="507.66" dy="0.00">End</tspan></text></svg>