<svg xmlns="http://www.w3.org/2000/svg" width="526.0866" height="315.45667" viewBox="0 0 526.0866 315.45667"><rect x="0" y="0" width="526.0866" height="315.45667" fill="#FFFFFF"/><defs><marker id="arrow-0" viewBox="0 0 10 10" refX="5" refY="5" markerUnits="userSpaceOnUse" markerWidth="8" markerHeight="8" orient="auto"><path d="M 0 0 L 10 5 L 0 10 z" fill="#2F3B4D" stroke="#2F3B4D" stroke-width="1" stroke-dasharray="1,0"/></marker><marker id="arrow-start-0" viewBox="0 0 10 10" refX="4.5" refY="5" markerUnits="userSpaceOnUse" markerWidth="8" markerHeight="8" orient="auto"><path d="M 0 5 L 10 10 L 10 0 z" fill="#2F3B4D" stroke="#2F3B4D" stroke-width="1" stroke-dasharray="1,0"/></marker></defs><path d="M 98.008,134.730L 99.016,134.730C100.024,134.730,102.040,134.730,104.055,134.730C106.071,134.730,108.087,134.730,109.344,133.753C110.600,132.776,111.098,130.823,113.894,119.851C116.690,108.880,121.783,88.889,124.579,77.918C127.375,66.946,127.873,64.993,129.130,64.016C130.386,63.039,132.402,63.039,134.418,63.039C136.434,63.039,138.449,63.039,139.457,63.039L 140.465,63.039" fill="none" stroke="#2F3B4D" stroke-width="2"    stroke-linecap="round" stroke-linejoin="round" /><path d="M 101.959,150.730L 103.110,150.730C104.262,150.730,106.566,150.730,108.582,150.730C110.598,150.730,112.325,150.730,114.053,150.728C115.781,150.726,117.509,150.722,118.373,150.720C119.237,150.718,119.237,150.718,120.100,150.717C120.964,150.715,122.692,150.711,124.420,150.709C126.148,150.707,127.876,150.707,129.891,150.707C131.907,150.707,134.211,150.707,135.363,150.707L 136.515,150.707" fill="none" stroke="#2F3B4D" stroke-width="2"    stroke-linecap="round" stroke-linejoin="round" /><path d="M 98.008,166.730L 99.016,166.730C100.024,166.730,102.040,166.730,104.055,166.730C106.071,166.730,108.087,166.730,109.342,167.707C110.597,168.684,111.092,170.638,113.881,181.662C116.671,192.686,121.756,212.779,124.546,223.803C127.335,234.827,127.830,236.781,129.085,237.758C130.340,238.735,132.356,238.735,134.372,238.735C136.387,238.735,138.403,238.735,139.411,238.735L 140.419,238.735" fill="none" stroke="#2F3B4D" stroke-width="2"    stroke-linecap="round" stroke-linejoin="round" /><path d="M 186.891,77.465L 186.891,77.964C186.891,78.463,186.891,79.462,186.891,80.461C186.891,81.459,186.891,82.458,186.391,82.957C185.892,83.457,184.893,83.457,183.319,83.457C181.745,83.457,179.595,83.457,176.946,83.457C174.297,83.457,171.148,83.457,169.574,81.882C168.000,80.308,168.000,77.160,168.000,68.493C168.000,59.826,168.000,45.642,168.000,36.549C168.000,27.457,168.000,23.457,166.000,21.457C164.000,19.457,160.000,19.457,135.333,19.457C110.667,19.457,65.333,19.457,40.667,19.457C16.000,19.457,12.000,19.457,10.000,21.457C8.000,23.457,8.000,27.457,8.000,73.457C8.000,119.457,8.000,207.457,8.000,253.457C8.000,299.457,8.000,303.457,10.000,305.457C12.000,307.457,16.000,307.457,56.667,307.457C97.333,307.457,174.667,307.457,215.333,307.457C256.000,307.457,260.000,307.457,262.000,305.457C264.000,303.457,264.000,299.457,264.000,275.880C264.000,252.304,264.000,209.150,264.000,187.150C264.000,165.150,264.000,164.304,263.577,163.880C263.153,163.457,262.306,163.457,261.883,163.457C261.459,163.457,261.459,163.457,261.036,163.457C260.612,163.457,259.766,163.457,259.342,163.880C258.919,164.304,258.919,165.150,258.919,166.552C258.919,167.953,258.919,169.908,258.919,170.886L 258.919,171.864" fill="none" stroke="#2F3B4D" stroke-width="2"    stroke-linecap="round" stroke-linejoin="round" /><path d="M 202.082,166.707L 203.090,166.707C204.098,166.707,206.114,166.707,208.130,166.707C210.145,166.707,212.161,166.707,213.856,167.445C215.550,168.183,216.923,169.659,219.274,172.184C221.624,174.710,224.951,178.286,227.302,180.812C229.652,183.338,231.025,184.814,232.720,185.552C234.414,186.289,236.430,186.289,238.446,186.289C240.462,186.289,242.477,186.289,243.485,186.289L 244.493,186.289" fill="none" stroke="#2F3B4D" stroke-width="2"    stroke-linecap="round" stroke-linejoin="round" /><path d="M 202.082,238.735L 203.090,238.735C204.098,238.735,206.114,238.735,208.130,238.735C210.145,238.735,212.161,238.735,213.840,237.983C215.518,237.230,216.859,235.726,219.226,233.070C221.592,230.415,224.983,226.610,227.350,223.954C229.716,221.299,231.057,219.794,232.736,219.042C234.414,218.289,236.430,218.289,238.446,218.289C240.462,218.289,242.477,218.289,243.485,218.289L 244.493,218.289" fill="none" stroke="#2F3B4D" stroke-width="2"    stroke-linecap="round" stroke-linejoin="round" /><path d="M 201.316,63.039L 202.324,63.039C203.332,63.039,205.348,63.039,207.363,63.039C209.379,63.039,211.395,63.039,213.092,63.775C214.789,64.510,216.168,65.981,218.651,68.630C221.135,71.280,224.723,75.109,227.206,77.758C229.690,80.408,231.068,81.879,232.766,82.614C234.463,83.349,236.478,83.349,238.494,83.349C240.510,83.349,242.526,83.349,243.534,83.349L 244.542,83.349" fill="none" stroke="#2F3B4D" stroke-width="2"    stroke-linecap="round" stroke-linejoin="round" /><path d="M 202.082,134.707L 203.090,134.707C204.098,134.707,206.114,134.707,208.130,134.707C210.145,134.707,212.161,134.707,213.861,133.974C215.560,133.241,216.944,131.775,219.297,129.282C221.650,126.789,224.973,123.268,227.327,120.775C229.680,118.281,231.063,116.815,232.763,116.082C234.463,115.349,236.478,115.349,238.494,115.349C240.510,115.349,242.526,115.349,243.534,115.349L 244.542,115.349" fill="none" stroke="#2F3B4D" stroke-width="2"    stroke-linecap="round" stroke-linejoin="round" /><path d="M 187.251,223.904L 187.251,222.896C187.251,221.888,187.251,219.872,187.251,217.856C187.251,215.841,187.251,213.825,188.258,212.817C189.266,211.809,191.282,211.809,195.224,211.809C199.165,211.809,205.033,211.809,209.967,211.809C214.901,211.809,218.901,211.809,220.901,209.809C222.901,207.809,222.901,203.809,222.901,194.083C222.901,184.357,222.901,168.905,222.901,159.179C222.901,149.453,222.901,145.453,224.901,143.453C226.901,141.453,230.901,141.453,235.834,141.453C240.768,141.453,246.636,141.453,250.577,141.453C254.519,141.453,256.535,141.453,257.543,140.445C258.551,139.437,258.551,137.422,258.551,135.406C258.551,133.390,258.551,131.374,258.551,130.366L 258.551,129.358" fill="none" stroke="#2F3B4D" stroke-width="2"    stroke-linecap="round" stroke-linejoin="round" /><path d="M 305.344,186.289L 306.352,186.289C307.360,186.289,309.376,186.289,311.391,186.289C313.407,186.289,315.423,186.289,317.119,185.553C318.814,184.816,320.190,183.343,322.532,180.836C324.873,178.328,328.180,174.787,330.521,172.280C332.863,169.773,334.239,168.299,335.934,167.563C337.630,166.826,339.646,166.826,341.662,166.826C343.677,166.826,345.693,166.826,346.701,166.826L 347.709,166.826" fill="none" stroke="#2F3B4D" stroke-width="2"    stroke-linecap="round" stroke-linejoin="round" /><path d="M 304.560,115.349L 305.568,115.349C306.575,115.349,308.591,115.349,310.607,115.349C312.623,115.349,314.639,115.349,316.349,116.072C318.060,116.794,319.466,118.238,321.923,120.762C324.380,123.286,327.888,126.890,330.345,129.413C332.802,131.937,334.208,133.382,335.919,134.104C337.630,134.826,339.646,134.826,341.662,134.826C343.677,134.826,345.693,134.826,346.701,134.826L 347.709,134.826" fill="none" stroke="#2F3B4D" stroke-width="2"    stroke-linecap="round" stroke-linejoin="round" /><path d="M 414.059,150.826 L 448.615,150.830" fill="none" stroke="#2F3B4D" stroke-width="2"    stroke-linecap="round" stroke-linejoin="round" /><path d="M 205.267,47.039L 206.274,47.039C207.282,47.039,209.298,47.039,211.314,47.039C213.330,47.039,215.345,47.039,216.353,46.031C217.361,45.023,217.361,43.008,217.361,38.501C217.361,33.995,217.361,26.997,217.361,21.499C217.361,16.000,217.361,12.000,219.361,10.000C221.361,8.000,225.361,8.000,260.538,8.000C295.716,8.000,362.070,8.000,397.247,8.000C432.424,8.000,436.424,8.000,438.424,10.000C440.424,12.000,440.424,16.000,440.424,36.130C440.424,56.261,440.424,92.522,440.424,111.660C440.424,130.798,440.424,132.814,441.432,133.822C442.440,134.830,444.456,134.830,446.472,134.830C448.487,134.830,450.503,134.830,451.511,134.830L 452.519,134.830" fill="none" stroke="#2F3B4D" stroke-width="2"    stroke-linecap="round" stroke-linejoin="round" /><path d="M 205.987,150.707L 206.994,150.707C208.002,150.707,210.018,150.707,212.034,150.707C214.050,150.707,216.065,150.707,217.073,149.699C218.081,148.691,218.081,146.676,218.081,131.408C218.081,116.140,218.081,87.620,218.081,71.360C218.081,55.100,218.081,51.100,220.081,49.100C222.081,47.100,226.081,47.100,260.488,47.100C294.894,47.100,359.707,47.100,394.114,47.100C428.520,47.100,432.520,47.100,434.520,49.100C436.520,51.100,436.520,55.100,436.520,71.381C436.520,87.661,436.520,116.222,436.520,131.510C436.520,146.798,436.520,148.814,437.528,149.822C438.536,150.830,440.552,150.830,442.567,150.830C444.583,150.830,446.599,150.830,447.607,150.830L 448.615,150.830" fill="none" stroke="#2F3B4D" stroke-width="2"    stroke-linecap="round" stroke-linejoin="round" /><path d="M 205.987,254.735L 206.994,254.735C208.002,254.735,210.018,254.735,212.034,254.735C214.050,254.735,216.065,254.735,217.073,255.743C218.081,256.751,218.081,258.767,218.081,260.287C218.081,261.808,218.081,262.834,218.081,264.867C218.081,266.901,218.081,269.942,219.602,271.463C221.123,272.983,224.164,272.983,259.221,272.983C294.278,272.983,361.351,272.983,396.888,272.983C432.424,272.983,436.424,272.983,438.424,270.983C440.424,268.983,440.424,264.983,440.424,248.299C440.424,231.614,440.424,202.246,440.424,186.553C440.424,170.861,440.424,168.845,441.432,167.837C442.440,166.830,444.456,166.830,446.472,166.830C448.487,166.830,450.503,166.830,451.511,166.830L 452.519,166.830" fill="none" stroke="#2F3B4D" stroke-width="2"    stroke-linecap="round" stroke-linejoin="round" /><circle cx="67.58" cy="150.73" r="34.38" fill="#ECECFF" stroke="#7B88A8" stroke-width="1" stroke-linejoin="round" stroke-linecap="round"/><circle cx="67.58" cy="150.73" r="30.38" fill="none" stroke="#7B88A8" stroke-width="1" stroke-linejoin="round" stroke-linecap="round"/><text x="67.58" y="154.73" text-anchor="middle" font-family="'trebuchet ms', verdana, arial, sans-serif" font-size="16" fill="#333333"><tspan x="67.58" dy="0.00">A</tspan></text><circle cx="170.89" cy="47.04" r="34.38" fill="#ECECFF" stroke="#7B88A8" stroke-width="1" stroke-linejoin="round" stroke-linecap="round"/><circle cx="170.89" cy="47.04" r="30.38" fill="none" stroke="#7B88A8" stroke-width="1" stroke-linejoin="round" stroke-linecap="round"/><text x="170.89" y="51.04" text-anchor="middle" font-family="'trebuchet ms', verdana, arial, sans-serif" font-size="16" fill="#333333"><tspan x="170.89" dy="0.00">B</tspan></text><circle cx="171.25" cy="150.71" r="34.74" fill="#ECECFF" stroke="#7B88A8" stroke-width="1" stroke-linejoin="round" stroke-linecap="round"/><circle cx="171.25" cy="150.71" r="30.74" fill="none" stroke="#7B88A8" stroke-width="1" stroke-linejoin="round" stroke-linecap="round"/><text x="171.25" y="154.71" text-anchor="middle" font-family="'trebuchet ms', verdana, arial, sans-serif" font-size="16" fill="#333333"><tspan x="171.25" dy="0.00">C</tspan></text><circle cx="171.25" cy="254.74" r="34.74" fill="#ECECFF" stroke="#7B88A8" stroke-width="1" stroke-linejoin="round" stroke-linecap="round"/><circle cx="171.25" cy="254.74" r="30.74" fill="none" stroke="#7B88A8" stroke-width="1" stroke-linejoin="round" stroke-linecap="round"/><text x="171.25" y="258.74" text-anchor="middle" font-family="'trebuchet ms', verdana, arial, sans-serif" font-size="16" fill="#333333"><tspan x="171.25" dy="0.00">D</tspan></text><circle cx="274.92" cy="202.29" r="34.38" fill="#ECECFF" stroke="#7B88A8" stroke-width="1" stroke-linejoin="round" stroke-linecap="round"/><circle cx="274.92" cy="202.29" r="30.38" fill="none" stroke="#7B88A8" stroke-width="1" stroke-linejoin="round" stroke-linecap="round"/><text x="274.92" y="206.29" text-anchor="middle" font-family="'trebuchet ms', verdana, arial, sans-serif" font-size="16" fill="#333333"><tspan x="274.92" dy="0.00">E</tspan></text><circle cx="274.55" cy="99.35" r="34.01" fill="#ECECFF" stroke="#7B88A8" stroke-width="1" stroke-linejoin="round" stroke-linecap="round"/><circle cx="274.55" cy="99.35" r="30.01" fill="none" stroke="#7B88A8" stroke-width="1" stroke-linejoin="round" stroke-linecap="round"/><text x="274.55" y="103.35" text-anchor="middle" font-family="'trebuchet ms', verdana, arial, sans-serif" font-size="16" fill="#333333"><tspan x="274.55" dy="0.00">F</tspan></text><circle cx="378.95" cy="150.83" r="35.10" fill="#ECECFF" stroke="#7B88A8" stroke-width="1" stroke-linejoin="round" stroke-linecap="round"/><circle cx="378.95" cy="150.83" r="31.10" fill="none" stroke="#7B88A8" stroke-width="1" stroke-linejoin="round" stroke-linecap="round"/><text x="378.95" y="154.83" text-anchor="middle" font-family="'trebuchet ms', verdana, arial, sans-serif" font-size="16" fill="#333333"><tspan x="378.95" dy="0.00">G</tspan></text><circle cx="483.35" cy="150.83" r="34.74" fill="#ECECFF" stroke="#7B88A8" stroke-width="1" stroke-linejoin="round" stroke-linecap="round"/><circle cx="483.35" cy="150.83" r="30.74" fill="none" stroke="#7B88A8" stroke-width="1" stroke-linejoin="round" stroke-linecap="round"/><text x="483.35" y="154.83" text-anchor="middle" font-family="'trebuchet ms', verdana, arial, sans-serif" font-size="16" fill="#333333"><tspan x="483.35" dy="0.00">H</tspan></text><g transform="translate(140.47 63.04) rotate(0.00)"><polygon points="0,0 -10.40,6.24 -10.40,-6.24" fill="#2F3B4D" stroke="#2F3B4D" stroke-width="2" stroke-linejoin="round" stroke-linecap="round"/></g><g transform="translate(136.51 150.71) rotate(0.00)"><polygon points="0,0 -10.40,6.24 -10.40,-6.24" fill="#2F3B4D" stroke="#2F3B4D" stroke-width="2" stroke-linejoin="round" stroke-linecap="round"/></g><g transform="translate(140.42 238.74) rotate(0.00)"><polygon points="0,0 -10.40,6.24 -10.40,-6.24" fill="#2F3B4D" stroke="#2F3B4D" stroke-width="2" stroke-linejoin="round" stroke-linecap="round"/></g><g transform="translate(258.92 171.86) rotate(90.00)"><polygon points="0,0 -10.40,6.24 -10.40,-6.24" fill="#2F3B4D" stroke="#2F3B4D" stroke-width="2" stroke-linejoin="round" stroke-linecap="round"/></g><g transform="translate(244.49 186.29) rotate(0.00)"><polygon points="0,0 -10.40,6.24 -10.40,-6.24" fill="#2F3B4D" stroke="#2F3B4D" stroke-width="2" stroke-linejoin="round" stroke-linecap="round"/></g><g transform="translate(244.49 218.29) rotate(0.00)"><polygon points="0,0 -10.40,6.24 -10.40,-6.24" fill="#2F3B4D" stroke="#2F3B4D" stroke-width="2" stroke-linejoin="round" stroke-linecap="round"/></g><g transform="translate(244.54 83.35) rotate(0.00)"><polygon points="0,0 -10.40,6.24 -10.40,-6.24" fill="#2F3B4D" stroke="#2F3B4D" stroke-width="2" stroke-linejoin="round" stroke-linecap="round"/></g><g transform="translate(244.54 115.35) rotate(0.00)"><polygon points="0,0 -10.40,6.24 -10.40,-6.24" fill="#2F3B4D" stroke="#2F3B4D" stroke-width="2" stroke-linejoin="round" stroke-linecap="round"/></g><g transform="translate(258.55 129.36) rotate(-90.00)"><polygon points="0,0 -10.40,6.24 -10.40,-6.24" fill="#2F3B4D" stroke="#2F3B4D" stroke-width="2" stroke-linejoin="round" stroke-linecap="round"/></g><g transform="translate(347.71 166.83) rotate(0.00)"><polygon points="0,0 -10.40,6.24 -10.40,-6.24" fill="#2F3B4D" stroke="#2F3B4D" stroke-width="2" stroke-linejoin="round" stroke-linecap="round"/></g><g transform="translate(347.71 134.83) rotate(0.00)"><polygon points="0,0 -10.40,6.24 -10.40,-6.24" fill="#2F3B4D" stroke="#2F3B4D" stroke-width="2" stroke-linejoin="round" stroke-linecap="round"/></g><g transform="translate(448.61 150.83) rotate(0.00)"><polygon points="0,0 -10.40,6.24 -10.40,-6.24" fill="#2F3B4D" stroke="#2F3B4D" stroke-width="2" stroke-linejoin="round" stroke-linecap="round"/></g><g transform="translate(452.52 134.83) rotate(0.00)"><polygon points="0,0 -10.40,6.24 -10.40,-6.24" fill="#2F3B4D" stroke="#2F3B4D" stroke-width="2" stroke-linejoin="round" stroke-linecap="round"/></g><g transform="translate(448.61 150.83) rotate(0.00)"><polygon points="0,0 -10.40,6.24 -10.40,-6.24" fill="#2F3B4D" stroke="#2F3B4D" stroke-width="2" stroke-linejoin="round" stroke-linecap="round"/></g><g transform="translate(452.52 166.83) rotate(0.00)"><polygon points="0,0 -10.40,6.24 -10.40,-6.24" fill="#2F3B4D" stroke="#2F3B4D" stroke-width="2" stroke-linejoin="round" stroke-linecap="round"/></g></svg>