<svg xmlns="http://www.w3.org/2000/svg" width="505.028" height="131.17859" viewBox="0 0 505.028 131.17859"><rect x="0" y="0" width="505.028" height="131.17859" fill="#FFFFFF"/><defs><marker id="arrow-0" viewBox="0 0 10 10" refX="5" refY="5" markerUnits="userSpaceOnUse" markerWidth="8" markerHeight="8" orient="auto"><path d="M 0 0 L 10 5 L 0 10 z" fill="#2F3B4D" stroke="#2F3B4D" stroke-width="1" stroke-dasharray="1,0"/></marker><marker id="arrow-start-0" viewBox="0 0 10 10" refX="4.5" refY="5" markerUnits="userSpaceOnUse" markerWidth="8" markerHeight="8" orient="auto"><path d="M 0 5 L 10 10 L 10 0 z" fill="#2F3B4D" stroke="#2F3B4D" stroke-width="1" stroke-dasharray="1,0"/></marker></defs><path d="M 72.075,65.589 L 108.137,65.589" fill="none" stroke="#2F3B4D" stroke-width="2"    stroke-linecap="round" stroke-linejoin="round" /><path d="M 207.315,49.589L 208.367,49.589C209.419,49.589,211.523,49.589,213.626,49.589C215.730,49.589,217.833,49.589,219.861,49.198C221.890,48.807,223.842,48.024,230.996,45.158C238.150,42.291,250.504,37.340,258.015,34.331C265.526,31.321,268.193,30.252,270.959,29.624C273.726,28.996,276.593,28.809,278.410,28.690C280.227,28.571,280.995,28.521,282.428,28.427C283.862,28.333,285.961,28.196,288.062,28.127C290.163,28.059,292.267,28.059,294.371,28.059C296.474,28.059,298.578,28.059,299.629,28.059L 300.681,28.059" fill="none" stroke="#2F3B4D" stroke-width="2"    stroke-linecap="round" stroke-linejoin="round" /><rect x="254.88" y="14.98" width="31.97" height="28.40" rx="2" ry="2" fill="rgba(248,250,252, 0.92)" fill-opacity="0.95" stroke="#7B88A8" stroke-opacity="0.45" stroke-width="0.8"/><text x="270.86" y="33.18" text-anchor="middle" font-family="'trebuchet ms', verdana, arial, sans-serif" font-size="16" fill="#333333"><tspan x="270.86" dy="0.00">yes</tspan></text><path d="M 207.315,81.589L 208.367,81.589C209.419,81.589,211.523,81.589,213.626,81.589C215.730,81.589,217.833,81.589,219.850,82.007C221.867,82.426,223.797,83.262,230.137,86.009C236.477,88.756,247.227,93.414,254.111,96.397C260.995,99.379,264.014,100.687,267.165,101.435C270.316,102.182,273.600,102.370,275.834,102.497C278.068,102.625,279.251,102.693,280.893,102.786C282.535,102.880,284.636,103.000,286.738,103.060C288.839,103.120,290.943,103.120,293.047,103.120C295.150,103.120,297.254,103.120,298.306,103.120L 299.357,103.120" fill="none" stroke="#2F3B4D" stroke-width="2"    stroke-linecap="round" stroke-linejoin="round" /><rect x="254.88" y="87.79" width="24.31" height="28.40" rx="2" ry="2" fill="rgba(248,250,252, 0.92)" fill-opacity="0.95" stroke="#7B88A8" stroke-opacity="0.45" stroke-width="0.8"/><text x="267.03" y="105.99" text-anchor="middle" font-family="'trebuchet ms', verdana, arial, sans-serif" font-size="16" fill="#333333"><tspan x="267.03" dy="0.00">no</tspan></text><path d="M 394.883,28.059L 395.935,28.059C396.987,28.059,399.090,28.059,401.194,28.059C403.298,28.059,405.401,28.059,407.190,28.809C408.979,29.559,410.454,31.059,413.243,33.898C416.032,36.736,420.136,40.912,422.925,43.750C425.714,46.588,427.188,48.089,428.977,48.839C430.766,49.589,432.870,49.589,434.973,49.589C437.077,49.589,439.180,49.589,440.232,49.589L 441.284,49.589" fill="none" stroke="#2F3B4D" stroke-width="2"    stroke-linecap="round" stroke-linejoin="round" /><path d="M 381.497,103.120L 382.549,103.120C383.601,103.120,385.704,103.120,387.808,103.120C389.911,103.120,392.015,103.120,393.959,102.564C395.904,102.007,397.689,100.895,402.554,97.862C407.418,94.830,415.363,89.879,420.227,86.847C425.092,83.815,426.877,82.702,428.822,82.146C430.766,81.589,432.870,81.589,434.973,81.589C437.077,81.589,439.180,81.589,440.232,81.589L 441.284,81.589" fill="none" stroke="#2F3B4D" stroke-width="2"    stroke-linecap="round" stroke-linejoin="round" /><rect x="8.00" y="46.09" width="64.08" height="39.00" rx="19.50" ry="19.50" fill="#ECECFF" stroke="#7B88A8" stroke-width="1" stroke-linejoin="round" stroke-linecap="round"/><text x="40.04" y="69.59" text-anchor="middle" font-family="'trebuchet ms', verdana, arial, sans-serif" font-size="16" fill="#333333"><tspan x="40.04" dy="0.00">Start</tspan></text><polygon points="165.73,8.00 223.32,65.59 165.73,123.18 108.14,65.59" fill="#ECECFF" stroke="#7B88A8" stroke-width="1" stroke-linejoin="round" stroke-linecap="round"/><text x="165.73" y="69.59" text-anchor="middle" font-family="'trebuchet ms', verdana, arial, sans-serif" font-size="16" fill="#333333"><tspan x="165.73" dy="0.00">Decision</tspan></text><polygon points="311.02,8.56 405.22,8.56 384.54,47.56 290.34,47.56" fill="#ECECFF" stroke="#7B88A8" stroke-width="1" stroke-linejoin="round" stroke-linecap="round"/><text x="347.78" y="32.06" text-anchor="middle" font-family="'trebuchet ms', verdana, arial, sans-serif" font-size="16" fill="#333333"><tspan x="347.78" dy="0.00">Do thing</tspan></text><polygon points="290.34,83.62 372.48,83.62 390.51,122.62 308.37,122.62" fill="#ECECFF" stroke="#7B88A8" stroke-width="1" stroke-linejoin="round" stroke-linecap="round"/><text x="340.43" y="107.12" text-anchor="middle" font-family="'trebuchet ms', verdana, arial, sans-serif" font-size="16" fill="#333333"><tspan x="340.43" dy="0.00">\Skip\</tspan></text><rect x="441.28" y="46.09" width="55.74" height="39.00" rx="6" ry="6" fill="#ECECFF" stroke="#7B88A8" stroke-width="1" stroke-linejoin="round" stroke-linecap="round"/><line x1="447.28" y1="48.09" x2="447.28" y2="83.09" stroke="#7B88A8" stroke-width="1" stroke-linejoin="round" stroke-linecap="round"/><line x1="491.03" y1="48.09" x2="491.03" y2="83.09" stroke="#7B88A8" stroke-width="1" stroke-linejoin="round" stroke-linecap="round"/><text x="469.16" y="69.59" text-anchor="middle" font-family="'trebuchet ms', verdana, arial, sans-serif" font-size="16" fill="#333333"><tspan x="469.16" dy="0.00">End</tspan></text><g transform="translate(108.14 65.59) rotate(0.00)"><polygon points="0,0 -10.40,6.24 -10.40,-6.24" fill="#2F3B4D" stroke="#2F3B4D" stroke-width="2" stroke-linejoin="round" stroke-linecap="round"/></g><g transform="translate(300.68 28.06) rotate(0.00)"><polygon points="0,0 -10.40,6.24 -10.40,-6.24" fill="#2F3B4D" stroke="#2F3B4D" stroke-width="2" stroke-linejoin="round" stroke-linecap="round"/></g><g transform="translate(299.36 103.12) rotate(0.00)"><polygon points="0,0 -10.40,6.24 -10.40,-6.24" fill="#2F3B4D" stroke="#2F3B4D" stroke-width="2" stroke-linejoin="round" stroke-linecap="round"/></g><g transform="translate(441.28 49.59) rotate(0.00)"><polygon points="0,0 -10.40,6.24 -10.40,-6.24" fill="#2F3B4D" stroke="#2F3B4D" stroke-width="2" stroke-linejoin="round" stroke-linecap="round"/></g><g transform="translate(441.28 81.59) rotate(0.00)"><polygon points="0,0 -10.40,6.24 -10.40,-6.24" fill="#2F3B4D" stroke="#2F3B4D" stroke-width="2" stroke-linejoin="round" stroke-linecap="round"/></g></svg>