<svg xmlns="http://www.w3.org/2000/svg" width="474.06274" height="131.17859" viewBox="0 0 474.06274 131.17859"><rect x="0" y="0" width="474.06274" height="131.17859" fill="#FFFFFF"/><defs><marker id="arrow-0" viewBox="0 0 10 10" refX="5" refY="5" markerUnits="userSpaceOnUse" markerWidth="8" markerHeight="8" orient="auto"><path d="M 0 0 L 10 5 L 0 10 z" fill="#2F3B4D" stroke="#2F3B4D" stroke-width="1" stroke-dasharray="1,0"/></marker><marker id="arrow-start-0" viewBox="0 0 10 10" refX="4.5" refY="5" markerUnits="userSpaceOnUse" markerWidth="8" markerHeight="8" orient="auto"><path d="M 0 5 L 10 10 L 10 0 z" fill="#2F3B4D" stroke="#2F3B4D" stroke-width="1" stroke-dasharray="1,0"/></marker></defs><path d="M 72.075,65.589 L 108.137,65.589" fill="none" stroke="#2F3B4D" stroke-width="2"    stroke-linecap="round" stroke-linejoin="round" /><path d="M 191.315,33.589L 192.367,33.589C193.419,33.589,195.523,33.589,197.626,33.589C199.730,33.589,201.833,33.589,203.933,33.498C206.032,33.406,208.128,33.223,217.613,32.392C227.099,31.562,243.974,30.086,253.459,29.256C262.944,28.425,265.040,28.242,267.140,28.150C269.239,28.059,271.343,28.059,273.446,28.059C275.550,28.059,277.654,28.059,278.705,28.059L 279.757,28.059" fill="none" stroke="#2F3B4D" stroke-width="2"    stroke-linecap="round" stroke-linejoin="round" /><rect x="231.82" y="47.67" width="31.97" height="28.40" rx="2" ry="2" fill="rgba(248,250,252, 0.92)" fill-opacity="0.95" stroke="#7B88A8" stroke-opacity="0.45" stroke-width="0.8"/><text x="247.81" y="65.87" text-anchor="middle" font-family="'trebuchet ms', verdana, arial, sans-serif" font-size="16" fill="#333333"><tspan x="247.81" dy="0.00">yes</tspan></text><path d="M 191.315,97.589L 192.367,97.589C193.419,97.589,195.523,97.589,197.626,97.589C199.730,97.589,201.833,97.589,203.932,97.695C206.030,97.800,208.123,98.010,216.241,98.827C224.358,99.643,238.501,101.066,246.618,101.883C254.736,102.699,256.829,102.910,258.927,103.015C261.026,103.120,263.129,103.120,265.233,103.120C267.336,103.120,269.440,103.120,270.492,103.120L 271.544,103.120" fill="none" stroke="#2F3B4D" stroke-width="2"    stroke-linecap="round" stroke-linejoin="round" /><rect x="231.84" y="98.67" width="24.31" height="28.40" rx="2" ry="2" fill="rgba(248,250,252, 0.92)" fill-opacity="0.95" stroke="#7B88A8" stroke-opacity="0.45" stroke-width="0.8"/><text x="243.99" y="116.87" text-anchor="middle" font-family="'trebuchet ms', verdana, arial, sans-serif" font-size="16" fill="#333333"><tspan x="243.99" dy="0.00">no</tspan></text><path d="M 373.959,28.059L 375.011,28.059C376.063,28.059,378.166,28.059,380.270,28.059C382.374,28.059,384.477,28.059,385.828,29.067C387.178,30.076,387.776,32.093,389.330,37.339C390.884,42.586,393.394,51.062,394.948,56.309C396.502,61.556,397.100,63.573,398.450,64.581C399.801,65.589,401.904,65.589,404.008,65.589C406.112,65.589,408.215,65.589,409.267,65.589L 410.319,65.589" fill="none" stroke="#2F3B4D" stroke-width="2"    stroke-linecap="round" stroke-linejoin="round" /><path d="M 353.683,103.120L 354.735,103.120C355.787,103.120,357.891,103.120,359.994,103.120C362.098,103.120,364.201,103.120,365.928,102.313C367.655,101.507,369.004,99.893,373.561,94.445C378.119,88.996,385.884,79.713,390.441,74.265C394.998,68.817,396.348,67.203,398.074,66.396C399.801,65.589,401.904,65.589,404.008,65.589C406.112,65.589,408.215,65.589,409.267,65.589L 410.319,65.589" fill="none" stroke="#2F3B4D" stroke-width="2"    stroke-linecap="round" stroke-linejoin="round" /><rect x="8.00" y="46.09" width="64.08" height="39.00" rx="19.50" ry="19.50" fill="#ECECFF" stroke="#7B88A8" stroke-width="1" stroke-linejoin="round" stroke-linecap="round"/><text x="40.04" y="69.59" text-anchor="middle" font-family="'trebuchet ms', verdana, arial, sans-serif" font-size="16" fill="#333333"><tspan x="40.04" dy="0.00">Start</tspan></text><polygon points="165.73,8.00 223.32,65.59 165.73,123.18 108.14,65.59" fill="#ECECFF" stroke="#7B88A8" stroke-width="1" stroke-linejoin="round" stroke-linecap="round"/><text x="165.73" y="69.59" text-anchor="middle" font-family="'trebuchet ms', verdana, arial, sans-serif" font-size="16" fill="#333333"><tspan x="165.73" dy="0.00">Decision</tspan></text><polygon points="290.10,8.56 384.30,8.56 363.62,47.56 269.42,47.56" fill="#ECECFF" stroke="#7B88A8" stroke-width="1" stroke-linejoin="round" stroke-linecap="round"/><text x="326.86" y="32.06" text-anchor="middle" font-family="'trebuchet ms', verdana, arial, sans-serif" font-size="16" fill="#333333"><tspan x="326.86" dy="0.00">Do thing</tspan></text><polygon points="262.53,83.62 344.67,83.62 362.70,122.62 280.56,122.62" fill="#ECECFF" stroke="#7B88A8" stroke-width="1" stroke-linejoin="round" stroke-linecap="round"/><text x="312.61" y="107.12" text-anchor="middle" font-family="'trebuchet ms', verdana, arial, sans-serif" font-size="16" fill="#333333"><tspan x="312.61" dy="0.00">\Skip\</tspan></text><rect x="410.32" y="46.09" width="55.74" height="39.00" rx="6" ry="6" fill="#ECECFF" stroke="#7B88A8" stroke-width="1" stroke-linejoin="round" stroke-linecap="round"/><line x1="416.32" y1="48.09" x2="416.32" y2="83.09" stroke="#7B88A8" stroke-width="1" stroke-linejoin="round" stroke-linecap="round"/><line x1="460.06" y1="48.09" x2="460.06" y2="83.09" stroke="#7B88A8" stroke-width="1" stroke-linejoin="round" stroke-linecap="round"/><text x="438.19" y="69.59" text-anchor="middle" font-family="'trebuchet ms', verdana, arial, sans-serif" font-size="16" fill="#333333"><tspan x="438.19" dy="0.00">End</tspan></text><g transform="translate(108.14 65.59) rotate(0.00)"><polygon points="0,0 -10.40,6.24 -10.40,-6.24" fill="#2F3B4D" stroke="#2F3B4D" stroke-width="2" stroke-linejoin="round" stroke-linecap="round"/></g><g transform="translate(279.76 28.06) rotate(0.00)"><polygon points="0,0 -10.40,6.24 -10.40,-6.24" fill="#2F3B4D" stroke="#2F3B4D" stroke-width="2" stroke-linejoin="round" stroke-linecap="round"/></g><g transform="translate(271.54 103.12) rotate(0.00)"><polygon points="0,0 -10.40,6.24 -10.40,-6.24" fill="#2F3B4D" stroke="#2F3B4D" stroke-width="2" stroke-linejoin="round" stroke-linecap="round"/></g><g transform="translate(410.32 65.59) rotate(0.00)"><polygon points="0,0 -10.40,6.24 -10.40,-6.24" fill="#2F3B4D" stroke="#2F3B4D" stroke-width="2" stroke-linejoin="round" stroke-linecap="round"/></g><g transform="translate(410.32 65.59) rotate(0.00)"><polygon points="0,0 -10.40,6.24 -10.40,-6.24" fill="#2F3B4D" stroke="#2F3B4D" stroke-width="2" stroke-linejoin="round" stroke-linecap="round"/></g></svg>