<svg xmlns="http://www.w3.org/2000/svg" width="474.06274" height="131.17859" viewBox="0 0 474.06274 131.17859"><rect x="0" y="0" width="474.06274" height="131.17859" fill="#FFFFFF"/><defs><marker id="arrow-0" viewBox="0 0 10 10" refX="5" refY="5" markerUnits="userSpaceOnUse" markerWidth="8" markerHeight="8" orient="auto"><path d="M 0 0 L 10 5 L 0 10 z" fill="#2F3B4D" stroke="#2F3B4D" stroke-width="1" stroke-dasharray="1,0"/></marker><marker id="arrow-start-0" viewBox="0 0 10 10" refX="4.5" refY="5" markerUnits="userSpaceOnUse" markerWidth="8" markerHeight="8" orient="auto"><path d="M 0 5 L 10 10 L 10 0 z" fill="#2F3B4D" stroke="#2F3B4D" stroke-width="1" stroke-dasharray="1,0"/></marker></defs><path d="M 72.075,65.589 L 108.137,65.589" fill="none" stroke="#2F3B4D" stroke-width="2"    stroke-linecap="round" stroke-linejoin="round" /><path d="M 207.315,49.589L 208.367,49.589C209.419,49.589,211.523,49.589,213.626,49.589C215.730,49.589,217.833,49.589,219.876,49.237C221.919,48.885,223.901,48.180,230.259,45.919C236.618,43.658,247.353,39.840,253.711,37.579C260.070,35.318,262.052,34.614,264.095,34.261C266.137,33.909,268.241,33.909,270.345,33.909C272.448,33.909,274.552,33.909,275.604,33.909L 276.655,33.909" fill="none" stroke="#2F3B4D" stroke-width="2"    stroke-linecap="round" stroke-linejoin="round" /><rect x="230.72" y="21.07" width="31.97" height="28.40" rx="2" ry="2" fill="rgba(248,250,252, 0.92)" fill-opacity="0.95" stroke="#7B88A8" stroke-opacity="0.45" stroke-width="0.8"/><text x="246.70" y="39.27" text-anchor="middle" font-family="'trebuchet ms', verdana, arial, sans-serif" font-size="16" fill="#333333"><tspan x="246.70" dy="0.00">yes</tspan></text><path d="M 207.315,81.589L 208.367,81.589C209.419,81.589,211.523,81.589,213.626,81.589C215.730,81.589,217.833,81.589,219.851,82.007C221.868,82.424,223.799,83.258,228.880,85.455C233.961,87.651,242.193,91.209,247.274,93.405C252.356,95.601,254.287,96.436,256.304,96.853C258.321,97.270,260.425,97.270,262.528,97.270C264.632,97.270,266.735,97.270,267.787,97.270L 268.839,97.270" fill="none" stroke="#2F3B4D" stroke-width="2"    stroke-linecap="round" stroke-linejoin="round" /><rect x="230.59" y="77.25" width="24.31" height="28.40" rx="2" ry="2" fill="rgba(248,250,252, 0.92)" fill-opacity="0.95" stroke="#7B88A8" stroke-opacity="0.45" stroke-width="0.8"/><text x="242.74" y="95.45" text-anchor="middle" font-family="'trebuchet ms', verdana, arial, sans-serif" font-size="16" fill="#333333"><tspan x="242.74" dy="0.00">no</tspan></text><path d="M 370.857,33.909L 371.909,33.909C372.961,33.909,375.065,33.909,377.168,33.909C379.272,33.909,381.375,33.909,383.020,34.778C384.664,35.647,385.849,37.385,387.626,39.992C389.403,42.600,391.773,46.076,393.550,48.683C395.328,51.291,396.512,53.029,398.157,53.898C399.801,54.767,401.904,54.767,404.008,54.767C406.112,54.767,408.215,54.767,409.267,54.767L 410.319,54.767" fill="none" stroke="#2F3B4D" stroke-width="2"    stroke-linecap="round" stroke-linejoin="round" /><path d="M 350.979,97.270L 352.031,97.270C353.082,97.270,355.186,97.270,357.290,97.270C359.393,97.270,361.497,97.270,363.446,96.721C365.395,96.172,367.189,95.075,371.975,92.147C376.760,89.220,384.537,84.462,389.323,81.535C394.108,78.607,395.903,77.510,397.852,76.961C399.801,76.412,401.904,76.412,404.008,76.412C406.112,76.412,408.215,76.412,409.267,76.412L 410.319,76.412" fill="none" stroke="#2F3B4D" stroke-width="2"    stroke-linecap="round" stroke-linejoin="round" /><rect x="8.00" y="46.09" width="64.08" height="39.00" rx="19.50" ry="19.50" fill="#ECECFF" stroke="#7B88A8" stroke-width="1" stroke-linejoin="round" stroke-linecap="round"/><text x="40.04" y="69.59" text-anchor="middle" font-family="'trebuchet ms', verdana, arial, sans-serif" font-size="16" fill="#333333"><tspan x="40.04" dy="0.00">Start</tspan></text><polygon points="165.73,8.00 223.32,65.59 165.73,123.18 108.14,65.59" fill="#ECECFF" stroke="#7B88A8" stroke-width="1" stroke-linejoin="round" stroke-linecap="round"/><text x="165.73" y="69.59" text-anchor="middle" font-family="'trebuchet ms', verdana, arial, sans-serif" font-size="16" fill="#333333"><tspan x="165.73" dy="0.00">Decision</tspan></text><polygon points="290.10,8.56 384.30,8.56 363.62,47.56 269.42,47.56" fill="#ECECFF" stroke="#7B88A8" stroke-width="1" stroke-linejoin="round" stroke-linecap="round"/><text x="326.86" y="32.06" text-anchor="middle" font-family="'trebuchet ms', verdana, arial, sans-serif" font-size="16" fill="#333333"><tspan x="326.86" dy="0.00">Do thing</tspan></text><polygon points="262.53,83.62 344.67,83.62 362.70,122.62 280.56,122.62" fill="#ECECFF" stroke="#7B88A8" stroke-width="1" stroke-linejoin="round" stroke-linecap="round"/><text x="312.61" y="107.12" text-anchor="middle" font-family="'trebuchet ms', verdana, arial, sans-serif" font-size="16" fill="#333333"><tspan x="312.61" dy="0.00">\Skip\</tspan></text><rect x="410.32" y="46.09" width="55.74" height="39.00" rx="6" ry="6" fill="#ECECFF" stroke="#7B88A8" stroke-width="1" stroke-linejoin="round" stroke-linecap="round"/><line x1="416.32" y1="48.09" x2="416.32" y2="83.09" stroke="#7B88A8" stroke-width="1" stroke-linejoin="round" stroke-linecap="round"/><line x1="460.06" y1="48.09" x2="460.06" y2="83.09" stroke="#7B88A8" stroke-width="1" stroke-linejoin="round" stroke-linecap="round"/><text x="438.19" y="69.59" text-anchor="middle" font-family="'trebuchet ms', verdana, arial, sans-serif" font-size="16" fill="#333333"><tspan x="438.19" dy="0.00">End</tspan></text><g transform="translate(108.14 65.59) rotate(0.00)"><polygon points="0,0 -10.40,6.24 -10.40,-6.24" fill="#2F3B4D" stroke="#2F3B4D" stroke-width="2" stroke-linejoin="round" stroke-linecap="round"/></g><g transform="translate(276.66 33.91) rotate(0.00)"><polygon points="0,0 -10.40,6.24 -10.40,-6.24" fill="#2F3B4D" stroke="#2F3B4D" stroke-width="2" stroke-linejoin="round" stroke-linecap="round"/></g><g transform="translate(268.84 97.27) rotate(0.00)"><polygon points="0,0 -10.40,6.24 -10.40,-6.24" fill="#2F3B4D" stroke="#2F3B4D" stroke-width="2" stroke-linejoin="round" stroke-linecap="round"/></g><g transform="translate(410.32 54.77) rotate(0.00)"><polygon points="0,0 -10.40,6.24 -10.40,-6.24" fill="#2F3B4D" stroke="#2F3B4D" stroke-width="2" stroke-linejoin="round" stroke-linecap="round"/></g><g transform="translate(410.32 76.41) rotate(0.00)"><polygon points="0,0 -10.40,6.24 -10.40,-6.24" fill="#2F3B4D" stroke="#2F3B4D" stroke-width="2" stroke-linejoin="round" stroke-linecap="round"/></g></svg>