<svg xmlns="http://www.w3.org/2000/svg" width="914.3296" height="1403.0596" viewBox="0 0 914.3296 1403.0596"><rect x="0" y="0" width="914.3296" height="1403.0596" fill="#FFFFFF"/><defs><marker id="arrow-0" viewBox="0 0 10 10" refX="5" refY="5" markerUnits="userSpaceOnUse" markerWidth="8" markerHeight="8" orient="auto"><path d="M 0 0 L 10 5 L 0 10 z" fill="#333333" stroke="#333333" stroke-width="1" stroke-dasharray="1,0"/></marker><marker id="arrow-start-0" viewBox="0 0 10 10" refX="4.5" refY="5" markerUnits="userSpaceOnUse" markerWidth="8" markerHeight="8" orient="auto"><path d="M 0 5 L 10 10 L 10 0 z" fill="#333333" stroke="#333333" stroke-width="1" stroke-dasharray="1,0"/></marker></defs><rect x="8.00" y="645.44" width="743.10" height="417.78" rx="10" ry="10" fill="#FFFFDE" stroke="#AAAA33" stroke-width="1" /><text x="379.55" y="673.44" text-anchor="middle" font-family="'trebuchet ms', verdana, arial, sans-serif" font-size="16" fill="#333333"><tspan x="379.55" dy="0.00">Process</tspan></text><rect x="562.20" y="8.00" width="290.78" height="771.44" rx="10" ry="10" fill="#FFFFDE" stroke="#AAAA33" stroke-width="1" /><text x="707.59" y="36.00" text-anchor="middle" font-family="'trebuchet ms', verdana, arial, sans-serif" font-size="16" fill="#333333"><tspan x="707.59" dy="0.00">Ingest</tspan></text><rect x="562.20" y="929.22" width="338.44" height="465.84" rx="10" ry="10" fill="#FFFFDE" stroke="#AAAA33" stroke-width="1" /><text x="731.42" y="957.22" text-anchor="middle" font-family="'trebuchet ms', verdana, arial, sans-serif" font-size="16" fill="#333333"><tspan x="731.42" dy="0.00">Output</tspan></text><path d="M 697.304,102.000L 697.304,103.340C697.304,104.681,697.304,107.361,697.304,109.898C697.304,112.435,697.304,114.829,697.804,117.113C698.304,119.397,699.304,121.572,699.804,122.659C700.304,123.747,700.304,123.747,700.804,124.834C701.304,125.921,702.304,128.096,702.805,130.380C703.305,132.664,703.305,135.058,703.305,137.595C703.305,140.132,703.305,142.812,703.305,144.153L 703.305,145.493" fill="none" stroke="#333333" stroke-width="2"    stroke-linecap="round" stroke-linejoin="round" /><path d="M 671.305,228.672L 671.305,229.940C671.305,231.209,671.305,233.746,671.305,236.283C671.305,238.820,671.305,241.357,671.261,243.893C671.217,246.430,671.130,248.965,668.731,318.751C666.332,388.537,661.621,525.573,659.222,595.359C656.823,665.145,656.736,667.680,656.692,670.216C656.649,672.753,656.649,675.290,656.649,677.827C656.649,680.364,656.649,682.901,656.649,684.170L 656.649,685.438" fill="none" stroke="#333333" stroke-width="2"    stroke-linecap="round" stroke-linejoin="round" /><rect x="652.32" y="443.05" width="23.31" height="28.00" rx="2" ry="2" fill="rgba(232,232,232, 0.8)" fill-opacity="0.85" stroke="#9370DB" stroke-opacity="0.35" stroke-width="0.8"/><text x="663.98" y="461.05" text-anchor="middle" font-family="'trebuchet ms', verdana, arial, sans-serif" font-size="16" fill="#333333"><tspan x="663.98" dy="0.00">ok</tspan></text><path d="M 735.305,228.672L 735.305,229.940C735.305,231.209,735.305,233.746,735.305,236.283C735.305,238.820,735.305,241.357,735.434,243.887C735.564,246.418,735.824,248.942,741.479,303.934C747.134,358.927,758.185,466.388,763.841,521.381C769.496,576.374,769.755,578.897,769.885,581.428C770.015,583.958,770.015,586.495,770.015,589.033C770.015,591.570,770.015,594.107,770.015,595.375L 770.015,596.644" fill="none" stroke="#333333" stroke-width="2"    stroke-linecap="round" stroke-linejoin="round" /><rect x="733.35" y="398.66" width="38.62" height="28.00" rx="2" ry="2" fill="rgba(232,232,232, 0.8)" fill-opacity="0.85" stroke="#9370DB" stroke-opacity="0.35" stroke-width="0.8"/><text x="752.66" y="416.66" text-anchor="middle" font-family="'trebuchet ms', verdana, arial, sans-serif" font-size="16" fill="#333333"><tspan x="752.66" dy="0.00">fail</tspan></text><path d="M 592.201,712.438L 590.885,712.438C589.569,712.438,586.936,712.438,584.399,712.438C581.862,712.438,579.420,712.438,578.199,713.659C576.978,714.880,576.978,717.322,576.978,718.543C576.978,719.763,576.978,719.763,576.978,720.984C576.978,722.205,576.978,724.647,575.758,725.868C574.537,727.089,572.095,727.089,532.701,727.089C493.306,727.089,416.959,727.089,376.786,727.089C336.613,727.089,332.613,727.089,330.613,729.089C328.613,731.089,328.613,735.089,328.613,744.961C328.613,754.833,328.613,770.576,328.613,779.717C328.613,788.857,328.613,791.394,327.344,792.663C326.075,793.931,323.538,793.931,321.001,793.931C318.464,793.931,315.927,793.931,314.659,793.931L 313.390,793.931" fill="none" stroke="#333333" stroke-width="2"    stroke-linecap="round" stroke-linejoin="round" /><path d="M 213.998,809.931L 212.729,809.931C211.461,809.931,208.924,809.931,206.387,809.931C203.850,809.931,201.313,809.931,199.681,811.147C198.050,812.362,197.325,814.794,193.635,827.160C189.946,839.527,183.293,861.829,179.603,874.195C175.914,886.562,175.188,888.993,173.557,890.209C171.926,891.424,169.389,891.424,166.852,891.424C164.315,891.424,161.778,891.424,160.509,891.424L 159.241,891.424" fill="none" stroke="#333333" stroke-width="2"    stroke-linecap="round" stroke-linejoin="round" /><path d="M 313.390,825.931L 314.659,825.931C315.927,825.931,318.464,825.931,321.001,825.931C323.538,825.931,326.075,825.931,327.697,827.150C329.319,828.368,330.026,830.805,333.611,843.169C337.197,855.532,343.661,877.823,347.246,890.187C350.832,902.551,351.538,904.988,353.160,906.206C354.782,907.424,357.319,907.424,359.856,907.424C362.393,907.424,364.930,907.424,366.199,907.424L 367.467,907.424" fill="none" stroke="#333333" stroke-width="2"    stroke-linecap="round" stroke-linejoin="round" /><path d="M 263.694,836.931L 263.694,838.381C263.694,839.830,263.694,842.729,263.694,845.266C263.694,847.803,263.694,849.978,263.666,852.153C263.637,854.328,263.581,856.503,263.552,857.591C263.524,858.678,263.524,858.678,263.496,859.765C263.467,860.852,263.411,863.027,263.382,865.202C263.354,867.377,263.354,869.553,263.354,872.090C263.354,874.627,263.354,877.526,263.354,878.975L 263.354,880.424" fill="none" stroke="#333333" stroke-width="2"    stroke-linecap="round" stroke-linejoin="round" /><path d="M 159.241,923.424L 160.509,923.424C161.778,923.424,164.315,923.424,166.852,923.424C169.389,923.424,171.926,923.424,173.195,924.693C174.463,925.961,174.463,928.499,174.463,932.565C174.463,936.631,174.463,942.226,174.463,947.024C174.463,951.822,174.463,955.822,176.463,957.821C178.463,959.822,182.463,959.822,247.549,959.821C312.635,959.822,438.807,959.822,503.892,959.821C568.978,959.822,572.978,959.822,574.978,961.821C576.978,963.822,576.978,967.822,576.978,972.619C576.978,977.417,576.978,983.012,576.978,987.078C576.978,991.145,576.978,993.682,578.247,994.950C579.516,996.219,582.053,996.219,584.590,996.219C587.127,996.219,589.664,996.219,590.932,996.219L 592.201,996.219" fill="none" stroke="#333333" stroke-width="2"    stroke-linecap="round" stroke-linejoin="round" /><path d="M 488.708,907.424L 508.380,907.424C528.053,907.424,567.397,907.424,589.070,907.424C610.742,907.424,614.742,907.424,616.742,909.424C618.742,911.424,618.742,915.424,618.742,928.223C618.742,941.022,618.742,962.621,618.742,975.420C618.742,988.219,618.742,992.219,616.742,994.219C614.742,996.219,610.742,996.219,606.318,996.219C601.895,996.219,597.048,996.219,594.624,996.219L 592.201,996.219" fill="none" stroke="#333333" stroke-width="2"    stroke-linecap="round" stroke-linejoin="round" /><path d="M 323.974,907.424L 325.243,907.424C326.511,907.424,329.048,907.424,331.586,907.424C334.123,907.424,336.660,907.424,337.928,908.693C339.197,909.961,339.197,912.499,339.197,927.930C339.197,943.362,339.197,971.687,339.197,987.850C339.197,1004.013,339.197,1008.013,341.197,1010.013C343.197,1012.013,347.197,1012.013,386.827,1012.013C426.457,1012.013,501.718,1012.013,539.348,1012.047C576.978,1012.082,576.978,1012.150,579.516,1012.185C582.053,1012.219,587.127,1012.219,589.664,1012.219L 592.201,1012.219" fill="none" stroke="#333333" stroke-width="2"    stroke-linecap="round" stroke-linejoin="round" /><path d="M 656.649,1023.219L 656.649,1024.487C656.649,1025.756,656.649,1028.293,656.649,1030.830C656.649,1033.367,656.649,1035.904,657.917,1037.173C659.186,1038.441,661.723,1038.441,663.239,1038.441C664.756,1038.441,665.251,1038.441,667.015,1038.441C668.779,1038.441,671.812,1038.441,673.328,1039.958C674.845,1041.474,674.845,1044.506,674.845,1047.348C674.845,1050.189,674.845,1052.839,674.845,1056.164C674.845,1059.489,674.845,1063.489,676.845,1065.489C678.845,1067.489,682.845,1067.489,693.307,1067.489C703.770,1067.489,720.695,1067.489,730.427,1067.489C740.158,1067.489,742.695,1067.489,743.964,1068.758C745.232,1070.026,745.232,1072.563,745.232,1075.101C745.232,1077.638,745.232,1080.175,745.232,1081.443L 745.232,1082.712" fill="none" stroke="#333333" stroke-width="2"    stroke-linecap="round" stroke-linejoin="round" /><path d="M 697.232,1128.073L 697.232,1129.342C697.232,1130.610,697.232,1133.147,697.232,1135.685C697.232,1138.222,697.232,1140.759,696.485,1143.053C695.738,1145.347,694.245,1147.397,689.523,1153.880C684.801,1160.363,676.852,1171.277,672.130,1177.760C667.408,1184.242,665.914,1186.293,665.168,1188.587C664.421,1190.881,664.421,1193.418,664.421,1195.955C664.421,1198.492,664.421,1201.029,664.421,1202.298L 664.421,1203.566" fill="none" stroke="#333333" stroke-width="2"    stroke-linecap="round" stroke-linejoin="round" /><rect x="634.21" y="1151.82" width="38.62" height="28.00" rx="2" ry="2" fill="rgba(232,232,232, 0.8)" fill-opacity="0.85" stroke="#9370DB" stroke-opacity="0.35" stroke-width="0.8"/><text x="653.52" y="1169.82" text-anchor="middle" font-family="'trebuchet ms', verdana, arial, sans-serif" font-size="16" fill="#333333"><tspan x="653.52" dy="0.00">fast</tspan></text><path d="M 761.232,1128.073L 761.232,1129.342C761.232,1130.610,761.232,1133.147,761.232,1135.685C761.232,1138.222,761.232,1140.759,762.196,1142.852C763.159,1144.946,765.086,1146.596,772.892,1153.279C780.697,1159.962,794.380,1171.678,802.185,1178.361C809.990,1185.044,811.917,1186.694,812.881,1188.787C813.844,1190.881,813.844,1193.418,813.844,1195.955C813.844,1198.492,813.844,1201.029,813.844,1202.298L 813.844,1203.566" fill="none" stroke="#333333" stroke-width="2"    stroke-linecap="round" stroke-linejoin="round" /><rect x="768.23" y="1151.82" width="38.62" height="28.00" rx="2" ry="2" fill="rgba(232,232,232, 0.8)" fill-opacity="0.85" stroke="#9370DB" stroke-opacity="0.35" stroke-width="0.8"/><text x="787.54" y="1169.82" text-anchor="middle" font-family="'trebuchet ms', verdana, arial, sans-serif" font-size="16" fill="#333333"><tspan x="787.54" dy="0.00">slow</tspan></text><path d="M 664.421,1257.566L 664.421,1258.835C664.421,1260.104,664.421,1262.641,664.421,1265.178C664.421,1267.715,664.421,1270.252,665.653,1271.822C666.885,1273.393,669.349,1273.996,676.995,1275.869C684.640,1277.742,697.467,1280.884,705.112,1282.757C712.758,1284.630,715.222,1285.233,716.454,1286.804C717.686,1288.374,717.686,1290.911,717.686,1293.448C717.686,1295.985,717.686,1298.522,717.686,1299.791L 717.686,1301.060" fill="none" stroke="#333333" stroke-width="2"    stroke-linecap="round" stroke-linejoin="round" /><path d="M 813.844,1257.566L 813.844,1258.835C813.844,1260.104,813.844,1262.641,813.844,1265.178C813.844,1267.715,813.844,1270.252,812.669,1271.997C811.493,1273.743,809.142,1274.697,804.958,1276.395C800.774,1278.092,794.756,1280.534,790.572,1282.231C786.388,1283.929,784.037,1284.883,782.861,1286.629C781.686,1288.374,781.686,1290.911,781.686,1293.448C781.686,1295.985,781.686,1298.522,781.686,1299.791L 781.686,1301.060" fill="none" stroke="#333333" stroke-width="2"    stroke-linecap="round" stroke-linejoin="round" /><path d="M 802.015,650.644L 802.015,651.912C802.015,653.181,802.015,655.718,802.015,658.255C802.015,660.792,802.015,663.329,803.284,664.598C804.552,665.866,807.089,665.866,822.475,665.866C837.861,665.866,866.095,665.866,882.212,665.866C898.330,665.866,902.330,665.866,904.330,667.866C906.330,669.866,906.330,673.866,906.330,775.195C906.330,876.523,906.330,1075.180,906.330,1176.509C906.330,1277.837,906.330,1281.837,904.330,1283.837C902.330,1285.837,898.330,1285.837,873.491,1285.837C848.652,1285.837,802.975,1285.837,778.867,1285.837C754.760,1285.837,752.223,1285.837,750.954,1287.106C749.686,1288.374,749.686,1290.911,749.686,1293.448C749.686,1295.985,749.686,1298.522,749.686,1299.791L 749.686,1301.060" fill="none" stroke="#333333" stroke-width="2"    stroke-linecap="round" stroke-linejoin="round" /><path d="M 633.304,102.000L 633.304,103.269C633.304,104.537,633.304,107.074,633.304,109.611C633.304,112.148,633.304,114.685,632.677,117.057C632.050,119.428,630.797,121.634,569.822,228.946C508.847,336.257,388.151,548.674,327.176,655.986C266.201,763.297,264.947,765.503,264.321,767.874C263.694,770.246,263.694,772.783,263.694,775.320C263.694,777.857,263.694,780.394,263.694,781.663L 263.694,782.931" fill="none" stroke="#333333" stroke-width="2"   stroke-dasharray="2" stroke-linecap="round" stroke-linejoin="round" /><rect x="425.36" y="428.47" width="46.28" height="28.00" rx="2" ry="2" fill="rgba(232,232,232, 0.8)" fill-opacity="0.85" stroke="#9370DB" stroke-opacity="0.35" stroke-width="0.8"/><text x="448.50" y="446.47" text-anchor="middle" font-family="'trebuchet ms', verdana, arial, sans-serif" font-size="16" fill="#333333"><tspan x="448.50" dy="0.00">retry</tspan></text><path d="M 656.649,739.438L 656.649,742.592C656.649,745.746,656.649,752.055,656.649,755.780C656.649,759.506,656.649,760.648,656.077,761.220C655.506,761.791,654.363,761.791,653.792,761.791C653.220,761.791,653.220,761.791,652.649,761.791C652.077,761.791,650.934,761.791,650.363,762.363C649.791,762.934,649.791,764.077,649.791,794.077C649.791,824.077,649.791,882.934,649.791,914.363C649.791,945.791,649.791,949.791,651.791,951.791C653.791,953.791,657.791,953.791,671.791,953.791C685.791,953.791,709.791,953.791,723.791,953.791C737.791,953.791,741.791,953.791,743.791,955.791C745.791,957.791,745.791,961.791,745.791,976.411C745.791,991.031,745.791,1016.272,745.791,1030.272C745.791,1044.272,745.791,1047.031,744.411,1048.411C743.031,1049.791,740.272,1049.791,738.892,1049.791C737.512,1049.791,737.512,1049.791,736.132,1049.791C734.752,1049.791,731.992,1049.791,730.612,1051.171C729.232,1052.551,729.232,1055.311,729.232,1058.131C729.232,1060.951,729.232,1063.832,729.232,1065.272L 729.232,1066.712" fill="none" stroke="#333333" stroke-width="2"    stroke-linecap="round" stroke-linejoin="round" /><path d="M 428.088,880.424L 428.088,863.276C428.088,846.128,428.088,811.831,428.088,792.682C428.088,773.534,428.088,769.534,430.088,767.534C432.088,765.534,436.088,765.534,485.742,765.534C535.397,765.534,630.706,765.534,680.360,765.534C730.015,765.534,734.015,765.534,736.015,763.534C738.015,761.534,738.015,757.534,738.015,738.386C738.015,719.237,738.015,684.941,738.015,667.792L 738.015,650.644" fill="none" stroke="#333333" stroke-width="2"   stroke-dasharray="2" stroke-linecap="round" stroke-linejoin="round" /><rect x="559.91" y="783.53" width="46.28" height="28.00" rx="2" ry="2" fill="rgba(232,232,232, 0.8)" fill-opacity="0.85" stroke="#9370DB" stroke-opacity="0.35" stroke-width="0.8"/><text x="583.05" y="801.53" text-anchor="middle" font-family="'trebuchet ms', verdana, arial, sans-serif" font-size="16" fill="#333333"><tspan x="583.05" dy="0.00">audit</tspan></text><rect x="612.34" y="48.00" width="105.93" height="54.00" rx="3" ry="3" fill="#ECECFF" stroke="#9370DB" stroke-width="1" stroke-linejoin="round" stroke-linecap="round"/><text x="665.30" y="79.00" text-anchor="middle" font-family="'trebuchet ms', verdana, arial, sans-serif" font-size="16" fill="#333333"><tspan x="665.30" dy="0.00">Source</tspan></text><polygon points="703.30,145.49 760.89,203.08 703.30,260.67 645.72,203.08" fill="#ECECFF" stroke="#9370DB" stroke-width="1" stroke-linejoin="round" stroke-linecap="round"/><text x="703.30" y="207.08" text-anchor="middle" font-family="'trebuchet ms', verdana, arial, sans-serif" font-size="16" fill="#333333"><tspan x="703.30" dy="0.00">Validate</tspan></text><rect x="592.20" y="685.44" width="128.90" height="54.00" rx="3" ry="3" fill="#ECECFF" stroke="#9370DB" stroke-width="1" stroke-linejoin="round" stroke-linecap="round"/><text x="656.65" y="716.44" text-anchor="middle" font-family="'trebuchet ms', verdana, arial, sans-serif" font-size="16" fill="#333333"><tspan x="656.65" dy="0.00">Normalize</tspan></text><rect x="717.05" y="596.64" width="105.93" height="54.00" rx="3" ry="3" fill="#ECECFF" stroke="#9370DB" stroke-width="1" stroke-linejoin="round" stroke-linecap="round"/><text x="770.02" y="627.64" text-anchor="middle" font-family="'trebuchet ms', verdana, arial, sans-serif" font-size="16" fill="#333333"><tspan x="770.02" dy="0.00">Reject</tspan></text><rect x="214.00" y="782.93" width="99.39" height="54.00" rx="3" ry="3" fill="#ECECFF" stroke="#9370DB" stroke-width="1" stroke-linejoin="round" stroke-linecap="round"/><text x="263.69" y="813.93" text-anchor="middle" font-family="'trebuchet ms', verdana, arial, sans-serif" font-size="16" fill="#333333"><tspan x="263.69" dy="0.00">Queue</tspan></text><rect x="38.00" y="880.42" width="121.24" height="54.00" rx="3" ry="3" fill="#ECECFF" stroke="#9370DB" stroke-width="1" stroke-linejoin="round" stroke-linecap="round"/><text x="98.62" y="911.42" text-anchor="middle" font-family="'trebuchet ms', verdana, arial, sans-serif" font-size="16" fill="#333333"><tspan x="98.62" dy="0.00">Worker 1</tspan></text><rect x="367.47" y="880.42" width="121.24" height="54.00" rx="3" ry="3" fill="#ECECFF" stroke="#9370DB" stroke-width="1" stroke-linejoin="round" stroke-linecap="round"/><text x="428.09" y="911.42" text-anchor="middle" font-family="'trebuchet ms', verdana, arial, sans-serif" font-size="16" fill="#333333"><tspan x="428.09" dy="0.00">Worker 2</tspan></text><rect x="202.73" y="880.42" width="121.24" height="54.00" rx="3" ry="3" fill="#ECECFF" stroke="#9370DB" stroke-width="1" stroke-linejoin="round" stroke-linecap="round"/><text x="263.35" y="911.42" text-anchor="middle" font-family="'trebuchet ms', verdana, arial, sans-serif" font-size="16" fill="#333333"><tspan x="263.35" dy="0.00">Worker 3</tspan></text><rect x="592.20" y="969.22" width="128.90" height="54.00" rx="3" ry="3" fill="#ECECFF" stroke="#9370DB" stroke-width="1" stroke-linejoin="round" stroke-linecap="round"/><text x="656.65" y="1000.22" text-anchor="middle" font-family="'trebuchet ms', verdana, arial, sans-serif" font-size="16" fill="#333333"><tspan x="656.65" dy="0.00">Aggregate</tspan></text><polygon points="729.23,1066.71 775.91,1113.39 729.23,1160.07 682.55,1113.39" fill="#ECECFF" stroke="#9370DB" stroke-width="1" stroke-linejoin="round" stroke-linecap="round"/><text x="729.23" y="1117.39" text-anchor="middle" font-family="'trebuchet ms', verdana, arial, sans-serif" font-size="16" fill="#333333"><tspan x="729.23" dy="0.00">Route</tspan></text><rect x="615.28" y="1203.57" width="98.28" height="54.00" rx="3" ry="3" fill="#ECECFF" stroke="#9370DB" stroke-width="1" stroke-linejoin="round" stroke-linecap="round"/><text x="664.42" y="1234.57" text-anchor="middle" font-family="'trebuchet ms', verdana, arial, sans-serif" font-size="16" fill="#333333"><tspan x="664.42" dy="0.00">Cache</tspan></text><rect x="757.05" y="1203.57" width="113.59" height="54.00" rx="3" ry="3" fill="#ECECFF" stroke="#9370DB" stroke-width="1" stroke-linejoin="round" stroke-linecap="round"/><text x="813.84" y="1234.57" text-anchor="middle" font-family="'trebuchet ms', verdana, arial, sans-serif" font-size="16" fill="#333333"><tspan x="813.84" dy="0.00">Archive</tspan></text><rect x="696.72" y="1301.06" width="105.93" height="54.00" rx="3" ry="3" fill="#ECECFF" stroke="#9370DB" stroke-width="1" stroke-linejoin="round" stroke-linecap="round"/><text x="749.69" y="1332.06" text-anchor="middle" font-family="'trebuchet ms', verdana, arial, sans-serif" font-size="16" fill="#333333"><tspan x="749.69" dy="0.00">Notify</tspan></text><g transform="translate(703.30 145.49) rotate(90.00)"><polygon points="0,0 -10.40,6.24 -10.40,-6.24" fill="#333333" stroke="#333333" stroke-width="2" stroke-linejoin="round" stroke-linecap="round"/></g><g transform="translate(656.65 685.44) rotate(90.00)"><polygon points="0,0 -10.40,6.24 -10.40,-6.24" fill="#333333" stroke="#333333" stroke-width="2" stroke-linejoin="round" stroke-linecap="round"/></g><g transform="translate(770.02 596.64) rotate(90.00)"><polygon points="0,0 -10.40,6.24 -10.40,-6.24" fill="#333333" stroke="#333333" stroke-width="2" stroke-linejoin="round" stroke-linecap="round"/></g><g transform="translate(313.39 793.93) rotate(180.00)"><polygon points="0,0 -10.40,6.24 -10.40,-6.24" fill="#333333" stroke="#333333" stroke-width="2" stroke-linejoin="round" stroke-linecap="round"/></g><g transform="translate(159.24 891.42) rotate(180.00)"><polygon points="0,0 -10.40,6.24 -10.40,-6.24" fill="#333333" stroke="#333333" stroke-width="2" stroke-linejoin="round" stroke-linecap="round"/></g><g transform="translate(367.47 907.42) rotate(0.00)"><polygon points="0,0 -10.40,6.24 -10.40,-6.24" fill="#333333" stroke="#333333" stroke-width="2" stroke-linejoin="round" stroke-linecap="round"/></g><g transform="translate(263.35 880.42) rotate(90.00)"><polygon points="0,0 -10.40,6.24 -10.40,-6.24" fill="#333333" stroke="#333333" stroke-width="2" stroke-linejoin="round" stroke-linecap="round"/></g><g transform="translate(592.20 996.22) rotate(0.00)"><polygon points="0,0 -10.40,6.24 -10.40,-6.24" fill="#333333" stroke="#333333" stroke-width="2" stroke-linejoin="round" stroke-linecap="round"/></g><g transform="translate(592.20 996.22) rotate(180.00)"><polygon points="0,0 -10.40,6.24 -10.40,-6.24" fill="#333333" stroke="#333333" stroke-width="2" stroke-linejoin="round" stroke-linecap="round"/></g><g transform="translate(592.20 1012.22) rotate(0.00)"><polygon points="0,0 -10.40,6.24 -10.40,-6.24" fill="#333333" stroke="#333333" stroke-width="2" stroke-linejoin="round" stroke-linecap="round"/></g><g transform="translate(745.23 1082.71) rotate(90.00)"><polygon points="0,0 -10.40,6.24 -10.40,-6.24" fill="#333333" stroke="#333333" stroke-width="2" stroke-linejoin="round" stroke-linecap="round"/></g><g transform="translate(664.42 1203.57) rotate(90.00)"><polygon points="0,0 -10.40,6.24 -10.40,-6.24" fill="#333333" stroke="#333333" stroke-width="2" stroke-linejoin="round" stroke-linecap="round"/></g><g transform="translate(813.84 1203.57) rotate(90.00)"><polygon points="0,0 -10.40,6.24 -10.40,-6.24" fill="#333333" stroke="#333333" stroke-width="2" stroke-linejoin="round" stroke-linecap="round"/></g><g transform="translate(717.69 1301.06) rotate(90.00)"><polygon points="0,0 -10.40,6.24 -10.40,-6.24" fill="#333333" stroke="#333333" stroke-width="2" stroke-linejoin="round" stroke-linecap="round"/></g><g transform="translate(781.69 1301.06) rotate(90.00)"><polygon points="0,0 -10.40,6.24 -10.40,-6.24" fill="#333333" stroke="#333333" stroke-width="2" stroke-linejoin="round" stroke-linecap="round"/></g><g transform="translate(749.69 1301.06) rotate(90.00)"><polygon points="0,0 -10.40,6.24 -10.40,-6.24" fill="#333333" stroke="#333333" stroke-width="2" stroke-linejoin="round" stroke-linecap="round"/></g><g transform="translate(263.69 782.93) rotate(90.00)"><polygon points="0,0 -10.40,6.24 -10.40,-6.24" fill="#333333" stroke="#333333" stroke-width="2" stroke-linejoin="round" stroke-linecap="round"/></g><g transform="translate(729.23 1066.71) rotate(90.00)"><polygon points="0,0 -10.40,6.24 -10.40,-6.24" fill="#333333" stroke="#333333" stroke-width="2" stroke-linejoin="round" stroke-linecap="round"/></g><g transform="translate(738.02 650.64) rotate(-90.00)"><polygon points="0,0 -10.40,6.24 -10.40,-6.24" fill="#333333" stroke="#333333" stroke-width="2" stroke-linejoin="round" stroke-linecap="round"/></g></svg>