<svg xmlns="http://www.w3.org/2000/svg" width="174.27539" height="916.9139" viewBox="0 0 174.27539 916.9139"><rect x="0" y="0" width="174.27539" height="916.9139" fill="#FFFFFF"/><defs><marker id="arrow-0" viewBox="0 0 10 10" refX="5" refY="5" markerUnits="userSpaceOnUse" markerWidth="8" markerHeight="8" orient="auto"><path d="M 0 0 L 10 5 L 0 10 z" fill="#2F3B4D" stroke="#2F3B4D" stroke-width="1" stroke-dasharray="1,0"/></marker><marker id="arrow-start-0" viewBox="0 0 10 10" refX="4.5" refY="5" markerUnits="userSpaceOnUse" markerWidth="8" markerHeight="8" orient="auto"><path d="M 0 5 L 10 10 L 10 0 z" fill="#2F3B4D" stroke="#2F3B4D" stroke-width="1" stroke-dasharray="1,0"/></marker></defs><rect x="8.00" y="587.22" width="158.28" height="321.69" rx="10" ry="10" fill="#FFFFDE" stroke="#AAAA33" stroke-width="1" /><text x="87.14" y="615.22" text-anchor="middle" font-family="'trebuchet ms', verdana, arial, sans-serif" font-size="16" fill="#333333"><tspan x="87.14" dy="0.00">LoopBlock</tspan></text><path d="M 88.610,62.000 L 88.610,101.845" fill="none" stroke="#2F3B4D" stroke-width="2"    stroke-linecap="round" stroke-linejoin="round" /><path d="M 104.610,186.479L 104.610,187.642C104.610,188.804,104.610,191.128,104.610,193.452C104.610,195.777,104.610,198.101,103.647,199.913C102.683,201.724,100.755,203.023,89.084,210.889C77.413,218.754,55.997,233.187,43.631,241.520C31.265,249.854,27.948,252.089,28.282,253.379C28.616,254.669,32.601,255.013,43.137,255.922C53.673,256.831,70.759,258.305,80.460,259.142C90.161,259.979,92.477,260.179,93.635,261.441C94.793,262.703,94.793,265.028,94.793,267.352C94.793,269.676,94.793,272.001,94.793,273.163L 94.793,274.325" fill="none" stroke="#2F3B4D" stroke-width="2"    stroke-linecap="round" stroke-linejoin="round" /><rect x="8.65" y="240.12" width="31.97" height="28.40" rx="2" ry="2" fill="rgba(248,250,252, 0.92)" fill-opacity="0.95" stroke="#7B88A8" stroke-opacity="0.45" stroke-width="0.8"/><text x="24.63" y="258.32" text-anchor="middle" font-family="'trebuchet ms', verdana, arial, sans-serif" font-size="16" fill="#333333"><tspan x="24.63" dy="0.00">yes</tspan></text><path d="M 94.793,328.325L 94.793,329.487C94.793,330.649,94.793,332.974,94.793,335.298C94.793,337.622,94.793,339.947,95.370,342.117C95.947,344.288,97.102,346.305,99.191,349.956C101.281,353.606,104.305,358.889,106.394,362.540C108.484,366.190,109.638,368.207,110.215,370.378C110.793,372.549,110.793,374.873,110.793,377.197C110.793,379.522,110.793,381.846,110.793,383.008L 110.793,384.170" fill="none" stroke="#2F3B4D" stroke-width="2"    stroke-linecap="round" stroke-linejoin="round" /><path d="M 94.793,368.170L 94.793,367.008C94.793,365.846,94.793,363.522,94.793,361.197C94.793,358.873,94.793,356.549,93.631,355.387C92.468,354.224,90.144,354.224,79.675,354.224C69.206,354.224,50.593,354.224,39.286,354.224C27.980,354.224,23.980,354.224,23.099,352.567C22.218,350.910,24.457,347.595,34.581,332.602C44.705,317.610,62.716,290.940,72.840,275.947C82.964,260.955,85.203,257.640,84.578,255.003C83.954,252.366,80.467,250.407,70.967,245.070C61.467,239.733,45.954,231.018,36.454,225.681C26.954,220.344,23.467,218.385,23.723,217.405C23.980,216.425,27.980,216.425,38.256,216.425C48.532,216.425,65.085,216.425,74.523,216.425C83.962,216.425,86.286,216.425,87.448,215.263C88.610,214.101,88.610,211.777,88.610,209.452C88.610,207.128,88.610,204.804,88.610,203.642L 88.610,202.479" fill="none" stroke="#2F3B4D" stroke-width="2"    stroke-linecap="round" stroke-linejoin="round" /><rect x="71.46" y="240.12" width="31.97" height="28.40" rx="2" ry="2" fill="rgba(248,250,252, 0.92)" fill-opacity="0.95" stroke="#7B88A8" stroke-opacity="0.45" stroke-width="0.8"/><text x="87.44" y="258.32" text-anchor="middle" font-family="'trebuchet ms', verdana, arial, sans-serif" font-size="16" fill="#333333"><tspan x="87.44" dy="0.00">yes</tspan></text><path d="M 94.793,461.532L 94.793,462.694C94.793,463.856,94.793,466.181,94.793,468.505C94.793,470.829,94.793,473.154,93.925,475.088C93.056,477.023,91.320,478.568,85.715,483.555C80.110,488.542,70.637,496.972,64.406,502.516C58.175,508.060,55.187,510.719,55.652,512.447C56.118,514.176,60.037,514.975,63.851,515.752C67.665,516.529,71.373,517.284,74.365,517.894C77.358,518.503,79.635,518.968,80.774,520.362C81.913,521.756,81.913,524.080,81.913,526.405C81.913,528.729,81.913,531.053,81.913,532.215L 81.913,533.378" fill="none" stroke="#2F3B4D" stroke-width="2"    stroke-linecap="round" stroke-linejoin="round" /><rect x="40.04" y="499.18" width="24.31" height="28.40" rx="2" ry="2" fill="rgba(248,250,252, 0.92)" fill-opacity="0.95" stroke="#7B88A8" stroke-opacity="0.45" stroke-width="0.8"/><text x="52.20" y="517.38" text-anchor="middle" font-family="'trebuchet ms', verdana, arial, sans-serif" font-size="16" fill="#333333"><tspan x="52.20" dy="0.00">no</tspan></text><path d="M 103.138,681.223L 103.138,682.385C103.138,683.547,103.138,685.872,103.138,688.196C103.138,690.520,103.138,692.845,102.207,694.702C101.275,696.560,99.413,697.951,97.678,699.248C95.942,700.545,94.333,701.747,92.597,703.044C90.862,704.340,89.000,705.731,88.069,707.589C87.138,709.447,87.138,711.771,87.138,714.095C87.138,716.420,87.138,718.744,87.138,719.906L 87.138,721.068" fill="none" stroke="#2F3B4D" stroke-width="2"    stroke-linecap="round" stroke-linejoin="round" /><path d="M 87.138,775.068L 87.138,776.231C87.138,777.393,87.138,779.717,87.138,782.041C87.138,784.366,87.138,786.690,88.069,788.548C89.000,790.405,90.862,791.797,92.597,793.093C94.333,794.390,95.942,795.592,97.678,796.889C99.414,798.186,101.276,799.577,102.207,801.435C103.138,803.292,103.138,805.617,103.138,807.941C103.138,810.265,103.138,812.590,103.138,813.752L 103.138,814.914" fill="none" stroke="#2F3B4D" stroke-width="2"    stroke-linecap="round" stroke-linejoin="round" /><path d="M 87.138,814.914L 87.138,813.752C87.138,812.590,87.138,810.265,87.138,807.941C87.138,805.617,87.138,803.292,88.300,802.130C89.462,800.968,91.786,800.968,101.740,800.968C111.694,800.968,129.277,800.968,140.068,800.968C150.859,800.968,154.859,800.968,156.859,798.968C158.859,796.968,158.859,792.968,158.859,777.335C158.859,761.702,158.859,734.435,158.859,718.802C158.859,703.169,158.859,699.169,156.859,697.169C154.859,695.169,150.859,695.169,140.068,695.169C129.276,695.169,111.693,695.169,101.740,695.169C91.786,695.169,89.462,695.169,88.300,694.007C87.138,692.845,87.138,690.520,87.138,688.196C87.138,685.872,87.138,683.547,87.138,682.385L 87.138,681.223" fill="none" stroke="#2F3B4D" stroke-width="2"    stroke-linecap="round" stroke-linejoin="round" /><path d="M 81.913,587.378L 81.913,588.615C81.913,589.852,81.913,592.326,81.913,594.651C81.913,596.975,81.913,599.149,82.348,601.232C82.784,603.316,83.655,605.308,84.090,606.304C84.525,607.300,84.525,607.300,84.961,608.296C85.396,609.292,86.267,611.285,86.702,613.368C87.138,615.451,87.138,617.626,87.138,619.950C87.138,622.274,87.138,624.749,87.138,625.986L 87.138,627.223" fill="none" stroke="#2F3B4D" stroke-width="2"    stroke-linecap="round" stroke-linejoin="round" /><rect x="39.47" y="8.00" width="98.28" height="54.00" rx="3" ry="3" fill="#ECECFF" stroke="#7B88A8" stroke-width="1" stroke-linejoin="round" stroke-linecap="round"/><text x="88.61" y="39.00" text-anchor="middle" font-family="'trebuchet ms', verdana, arial, sans-serif" font-size="16" fill="#333333"><tspan x="88.61" dy="0.00">Start</tspan></text><polygon points="88.61,101.85 138.93,152.16 88.61,202.48 38.29,152.16" fill="#ECECFF" stroke="#7B88A8" stroke-width="1" stroke-linejoin="round" stroke-linecap="round"/><text x="88.61" y="156.16" text-anchor="middle" font-family="'trebuchet ms', verdana, arial, sans-serif" font-size="16" fill="#333333"><tspan x="88.61" dy="0.00">Decide</tspan></text><rect x="38.00" y="274.32" width="113.59" height="54.00" rx="3" ry="3" fill="#ECECFF" stroke="#7B88A8" stroke-width="1" stroke-linejoin="round" stroke-linecap="round"/><text x="94.79" y="305.32" text-anchor="middle" font-family="'trebuchet ms', verdana, arial, sans-serif" font-size="16" fill="#333333"><tspan x="94.79" dy="0.00">Do work</tspan></text><polygon points="94.79,368.17 141.47,414.85 94.79,461.53 48.11,414.85" fill="#ECECFF" stroke="#7B88A8" stroke-width="1" stroke-linejoin="round" stroke-linecap="round"/><text x="94.79" y="418.85" text-anchor="middle" font-family="'trebuchet ms', verdana, arial, sans-serif" font-size="16" fill="#333333"><tspan x="94.79" dy="0.00">More?</tspan></text><rect x="40.24" y="533.38" width="83.34" height="54.00" rx="3" ry="3" fill="#ECECFF" stroke="#7B88A8" stroke-width="1" stroke-linejoin="round" stroke-linecap="round"/><text x="81.91" y="564.38" text-anchor="middle" font-family="'trebuchet ms', verdana, arial, sans-serif" font-size="16" fill="#333333"><tspan x="81.91" dy="0.00">End</tspan></text><rect x="44.74" y="627.22" width="84.80" height="54.00" rx="3" ry="3" fill="#ECECFF" stroke="#7B88A8" stroke-width="1" stroke-linejoin="round" stroke-linecap="round"/><text x="87.14" y="658.22" text-anchor="middle" font-family="'trebuchet ms', verdana, arial, sans-serif" font-size="16" fill="#333333"><tspan x="87.14" dy="0.00">One</tspan></text><rect x="44.75" y="721.07" width="84.78" height="54.00" rx="3" ry="3" fill="#ECECFF" stroke="#7B88A8" stroke-width="1" stroke-linejoin="round" stroke-linecap="round"/><text x="87.14" y="752.07" text-anchor="middle" font-family="'trebuchet ms', verdana, arial, sans-serif" font-size="16" fill="#333333"><tspan x="87.14" dy="0.00">Two</tspan></text><rect x="38.00" y="814.91" width="98.28" height="54.00" rx="3" ry="3" fill="#ECECFF" stroke="#7B88A8" stroke-width="1" stroke-linejoin="round" stroke-linecap="round"/><text x="87.14" y="845.91" text-anchor="middle" font-family="'trebuchet ms', verdana, arial, sans-serif" font-size="16" fill="#333333"><tspan x="87.14" dy="0.00">Three</tspan></text><g transform="translate(88.61 101.85) rotate(90.00)"><polygon points="0,0 -10.40,6.24 -10.40,-6.24" fill="#2F3B4D" stroke="#2F3B4D" stroke-width="2" stroke-linejoin="round" stroke-linecap="round"/></g><g transform="translate(94.79 274.32) rotate(90.00)"><polygon points="0,0 -10.40,6.24 -10.40,-6.24" fill="#2F3B4D" stroke="#2F3B4D" stroke-width="2" stroke-linejoin="round" stroke-linecap="round"/></g><g transform="translate(110.79 384.17) rotate(90.00)"><polygon points="0,0 -10.40,6.24 -10.40,-6.24" fill="#2F3B4D" stroke="#2F3B4D" stroke-width="2" stroke-linejoin="round" stroke-linecap="round"/></g><g transform="translate(88.61 202.48) rotate(-90.00)"><polygon points="0,0 -10.40,6.24 -10.40,-6.24" fill="#2F3B4D" stroke="#2F3B4D" stroke-width="2" stroke-linejoin="round" stroke-linecap="round"/></g><g transform="translate(81.91 533.38) rotate(90.00)"><polygon points="0,0 -10.40,6.24 -10.40,-6.24" fill="#2F3B4D" stroke="#2F3B4D" stroke-width="2" stroke-linejoin="round" stroke-linecap="round"/></g><g transform="translate(87.14 721.07) rotate(90.00)"><polygon points="0,0 -10.40,6.24 -10.40,-6.24" fill="#2F3B4D" stroke="#2F3B4D" stroke-width="2" stroke-linejoin="round" stroke-linecap="round"/></g><g transform="translate(103.14 814.91) rotate(90.00)"><polygon points="0,0 -10.40,6.24 -10.40,-6.24" fill="#2F3B4D" stroke="#2F3B4D" stroke-width="2" stroke-linejoin="round" stroke-linecap="round"/></g><g transform="translate(87.14 681.22) rotate(-90.00)"><polygon points="0,0 -10.40,6.24 -10.40,-6.24" fill="#2F3B4D" stroke="#2F3B4D" stroke-width="2" stroke-linejoin="round" stroke-linecap="round"/></g><g transform="translate(87.14 627.22) rotate(90.00)"><polygon points="0,0 -10.40,6.24 -10.40,-6.24" fill="#2F3B4D" stroke="#2F3B4D" stroke-width="2" stroke-linejoin="round" stroke-linecap="round"/></g></svg>