<svg xmlns="http://www.w3.org/2000/svg" width="654.0117" height="498.71997" viewBox="0 0 654.0117 498.71997"><rect x="0" y="0" width="654.0117" height="498.71997" fill="#FFFFFF"/><defs><marker id="arrow-0" viewBox="0 0 10 10" refX="5" refY="5" markerUnits="userSpaceOnUse" markerWidth="8" markerHeight="8" orient="auto"><path d="M 0 0 L 10 5 L 0 10 z" fill="#2F3B4D" stroke="#2F3B4D" stroke-width="1" stroke-dasharray="1,0"/></marker><marker id="arrow-start-0" viewBox="0 0 10 10" refX="4.5" refY="5" markerUnits="userSpaceOnUse" markerWidth="8" markerHeight="8" orient="auto"><path d="M 0 5 L 10 10 L 10 0 z" fill="#2F3B4D" stroke="#2F3B4D" stroke-width="1" stroke-dasharray="1,0"/></marker></defs><text x="426.01" y="41.12" text-anchor="middle" font-family="'trebuchet ms', verdana, arial, sans-serif" font-size="16" fill="#333333"><tspan x="426.01" dy="0.00">Sprint Plan</tspan></text><line x1="218.01" y1="64.00" x2="218.01" y2="422.40" stroke="#E2E8F0" stroke-width="1"/><text x="218.01" y="460.48" text-anchor="middle" font-family="'trebuchet ms', verdana, arial, sans-serif" font-size="12.8" fill="#333">2024-03-01</text><line x1="322.01" y1="64.00" x2="322.01" y2="422.40" stroke="#E2E8F0" stroke-width="1"/><text x="322.01" y="460.48" text-anchor="middle" font-family="'trebuchet ms', verdana, arial, sans-serif" font-size="12.8" fill="#333">2024-03-04</text><line x1="426.01" y1="64.00" x2="426.01" y2="422.40" stroke="#E2E8F0" stroke-width="1"/><text x="426.01" y="460.48" text-anchor="middle" font-family="'trebuchet ms', verdana, arial, sans-serif" font-size="12.8" fill="#333">2024-03-07</text><line x1="530.01" y1="64.00" x2="530.01" y2="422.40" stroke="#E2E8F0" stroke-width="1"/><text x="530.01" y="460.48" text-anchor="middle" font-family="'trebuchet ms', verdana, arial, sans-serif" font-size="12.8" fill="#333">2024-03-10</text><line x1="634.01" y1="64.00" x2="634.01" y2="422.40" stroke="#E2E8F0" stroke-width="1"/><text x="634.01" y="460.48" text-anchor="middle" font-family="'trebuchet ms', verdana, arial, sans-serif" font-size="12.8" fill="#333">2024-03-13</text><line x1="218.01" y1="422.40" x2="634.01" y2="422.40" stroke="#2F3B4D" stroke-width="1"/><line x1="218.01" y1="64.00" x2="218.01" y2="422.40" stroke="#E2E8F0" stroke-width="1"/><rect x="0.00" y="64.00" width="218.01" height="134.40" fill="hsl(222.6666564941, 24.8986320496%, 81.2705841064%)" fill-opacity="0.22" stroke="none"/><rect x="218.01" y="64.00" width="416.00" height="134.40" fill="hsl(222.6666564941, 24.8986320496%, 81.2705841064%)" fill-opacity="0.12" stroke="none"/><rect x="0.00" y="64.00" width="4.80" height="134.40" fill="hsl(222.6666564941, 36.3287696838%, 56.2352943420%)" fill-opacity="0.9" stroke="none"/><text x="20.00" y="92.24" text-anchor="start" font-family="'trebuchet ms', verdana, arial, sans-serif" font-size="14.4" fill="#333333"><tspan x="20.00" dy="0.00">Backend</tspan></text><rect x="0.00" y="198.40" width="218.01" height="134.40" fill="hsl(342.6666564941, 24.8986320496%, 81.2705841064%)" fill-opacity="0.22" stroke="none"/><rect x="218.01" y="198.40" width="416.00" height="134.40" fill="hsl(342.6666564941, 24.8986320496%, 81.2705841064%)" fill-opacity="0.12" stroke="none"/><rect x="0.00" y="198.40" width="4.80" height="134.40" fill="hsl(342.6666564941, 36.3287696838%, 56.2352943420%)" fill-opacity="0.9" stroke="none"/><text x="20.00" y="226.64" text-anchor="start" font-family="'trebuchet ms', verdana, arial, sans-serif" font-size="14.4" fill="#333333"><tspan x="20.00" dy="0.00">Frontend</tspan></text><rect x="0.00" y="332.80" width="218.01" height="89.60" fill="hsl(102.6666564941, 24.8986320496%, 81.2705841064%)" fill-opacity="0.22" stroke="none"/><rect x="218.01" y="332.80" width="416.00" height="89.60" fill="hsl(102.6666564941, 24.8986320496%, 81.2705841064%)" fill-opacity="0.12" stroke="none"/><rect x="0.00" y="332.80" width="4.80" height="89.60" fill="hsl(102.6666564941, 36.3287696838%, 56.2352943420%)" fill-opacity="0.9" stroke="none"/><text x="20.00" y="361.04" text-anchor="start" font-family="'trebuchet ms', verdana, arial, sans-serif" font-size="14.4" fill="#333333"><tspan x="20.00" dy="0.00">DevOps</tspan></text><line x1="0.00" y1="64.00" x2="654.01" y2="64.00" stroke="#E2E8F0" stroke-width="1"/><line x1="0.00" y1="108.80" x2="654.01" y2="108.80" stroke="#E2E8F0" stroke-width="1"/><line x1="0.00" y1="153.60" x2="654.01" y2="153.60" stroke="#E2E8F0" stroke-width="1"/><line x1="0.00" y1="198.40" x2="654.01" y2="198.40" stroke="#E2E8F0" stroke-width="1"/><line x1="0.00" y1="243.20" x2="654.01" y2="243.20" stroke="#E2E8F0" stroke-width="1"/><line x1="0.00" y1="288.00" x2="654.01" y2="288.00" stroke="#E2E8F0" stroke-width="1"/><line x1="0.00" y1="332.80" x2="654.01" y2="332.80" stroke="#E2E8F0" stroke-width="1"/><line x1="0.00" y1="377.60" x2="654.01" y2="377.60" stroke="#E2E8F0" stroke-width="1"/><line x1="0.00" y1="422.40" x2="654.01" y2="422.40" stroke="#E2E8F0" stroke-width="1"/><rect x="218.01" y="72.51" width="173.33" height="27.78" rx="3" fill="hsl(222.6666564941, 36.3287696838%, 56.2352943420%)" stroke="#7B88A8" stroke-width="1"/><text x="304.68" y="86.40" text-anchor="middle" dominant-baseline="middle" font-family="&apos;trebuchet ms&apos;, verdana, arial, sans-serif" font-size="12.92" fill="#0F172A">Auth module</text><rect x="391.35" y="117.31" width="104.00" height="27.78" rx="3" fill="hsl(222.6666564941, 36.3287696838%, 56.2352943420%)" stroke="#7B88A8" stroke-width="1"/><text x="443.35" y="131.20" text-anchor="middle" dominant-baseline="middle" font-family="&apos;trebuchet ms&apos;, verdana, arial, sans-serif" font-size="12.92" fill="#0F172A">API endpoints</text><rect x="495.35" y="162.11" width="138.67" height="27.78" rx="3" fill="hsl(222.6666564941, 36.3287696838%, 56.2352943420%)" stroke="#7B88A8" stroke-width="1"/><text x="564.68" y="176.00" text-anchor="middle" dominant-baseline="middle" font-family="&apos;trebuchet ms&apos;, verdana, arial, sans-serif" font-size="12.92" fill="#0F172A">Data migration</text><rect x="218.01" y="206.91" width="104.00" height="27.78" rx="3" fill="hsl(342.6666564941, 36.3287696838%, 56.2352943420%)" stroke="#7B88A8" stroke-width="1"/><text x="270.01" y="220.80" text-anchor="middle" dominant-baseline="middle" font-family="&apos;trebuchet ms&apos;, verdana, arial, sans-serif" font-size="12.92" fill="#0F172A">Login page</text><rect x="322.01" y="251.71" width="173.33" height="27.78" rx="3" fill="hsl(342.6666564941, 36.3287696838%, 56.2352943420%)" stroke="#7B88A8" stroke-width="1"/><text x="408.68" y="265.60" text-anchor="middle" dominant-baseline="middle" font-family="&apos;trebuchet ms&apos;, verdana, arial, sans-serif" font-size="12.92" fill="#0F172A">Dashboard</text><rect x="495.35" y="296.51" width="69.33" height="27.78" rx="3" fill="hsl(342.6666564941, 36.3287696838%, 56.2352943420%)" stroke="#7B88A8" stroke-width="1"/><text x="530.01" y="310.40" text-anchor="middle" dominant-baseline="middle" font-family="&apos;trebuchet ms&apos;, verdana, arial, sans-serif" font-size="12.92" fill="#0F172A">Settings</text><rect x="218.01" y="341.31" width="69.33" height="27.78" rx="3" fill="hsl(102.6666564941, 36.3287696838%, 56.2352943420%)" stroke="#7B88A8" stroke-width="1"/><text x="252.68" y="355.20" text-anchor="middle" dominant-baseline="middle" font-family="&apos;trebuchet ms&apos;, verdana, arial, sans-serif" font-size="12.92" fill="#0F172A">CI pipeline</text><rect x="287.35" y="386.11" width="69.33" height="27.78" rx="3" fill="hsl(102.6666564941, 36.3287696838%, 56.2352943420%)" stroke="#7B88A8" stroke-width="1"/><text x="94.04" y="403.40" text-anchor="start" font-family="'trebuchet ms', verdana, arial, sans-serif" font-size="13.6" fill="#333333"><tspan x="94.04" dy="0.00">Deploy scripts</tspan></text></svg>