<svg xmlns="http://www.w3.org/2000/svg" width="627.87537" height="229.92001" viewBox="0 0 627.87537 229.92001"><rect x="0" y="0" width="627.87537" height="229.92001" fill="#FFFFFF"/><defs><marker id="arrow-0" viewBox="0 0 10 10" refX="5" refY="5" markerUnits="userSpaceOnUse" markerWidth="8" markerHeight="8" orient="auto"><path d="M 0 0 L 10 5 L 0 10 z" fill="#2F3B4D" stroke="#2F3B4D" stroke-width="1" stroke-dasharray="1,0"/></marker><marker id="arrow-start-0" viewBox="0 0 10 10" refX="4.5" refY="5" markerUnits="userSpaceOnUse" markerWidth="8" markerHeight="8" orient="auto"><path d="M 0 5 L 10 10 L 10 0 z" fill="#2F3B4D" stroke="#2F3B4D" stroke-width="1" stroke-dasharray="1,0"/></marker></defs><text x="399.88" y="41.12" text-anchor="middle" font-family="'trebuchet ms', verdana, arial, sans-serif" font-size="16" fill="#333333"><tspan x="399.88" dy="0.00">Plan</tspan></text><line x1="191.88" y1="64.00" x2="191.88" y2="153.60" stroke="#E2E8F0" stroke-width="1"/><text x="191.88" y="191.68" text-anchor="middle" font-family="'trebuchet ms', verdana, arial, sans-serif" font-size="12.8" fill="#333">2026-01-01</text><line x1="295.88" y1="64.00" x2="295.88" y2="153.60" stroke="#E2E8F0" stroke-width="1"/><text x="295.88" y="191.68" text-anchor="middle" font-family="'trebuchet ms', verdana, arial, sans-serif" font-size="12.8" fill="#333">2026-01-03</text><line x1="399.88" y1="64.00" x2="399.88" y2="153.60" stroke="#E2E8F0" stroke-width="1"/><text x="399.88" y="191.68" text-anchor="middle" font-family="'trebuchet ms', verdana, arial, sans-serif" font-size="12.8" fill="#333">2026-01-05</text><line x1="503.88" y1="64.00" x2="503.88" y2="153.60" stroke="#E2E8F0" stroke-width="1"/><text x="503.88" y="191.68" text-anchor="middle" font-family="'trebuchet ms', verdana, arial, sans-serif" font-size="12.8" fill="#333">2026-01-07</text><line x1="607.88" y1="64.00" x2="607.88" y2="153.60" stroke="#E2E8F0" stroke-width="1"/><text x="607.88" y="191.68" text-anchor="middle" font-family="'trebuchet ms', verdana, arial, sans-serif" font-size="12.8" fill="#333">2026-01-09</text><line x1="191.88" y1="153.60" x2="607.88" y2="153.60" stroke="#2F3B4D" stroke-width="1"/><line x1="191.88" y1="64.00" x2="191.88" y2="153.60" stroke="#E2E8F0" stroke-width="1"/><rect x="0.00" y="64.00" width="191.88" height="89.60" fill="hsl(222.6666564941, 24.8986320496%, 81.2705841064%)" fill-opacity="0.22" stroke="none"/><rect x="191.88" y="64.00" width="416.00" height="89.60" fill="hsl(222.6666564941, 24.8986320496%, 81.2705841064%)" fill-opacity="0.12" stroke="none"/><rect x="0.00" y="64.00" width="4.80" height="89.60" fill="hsl(222.6666564941, 36.3287696838%, 56.2352943420%)" fill-opacity="0.9" stroke="none"/><text x="20.00" y="92.24" text-anchor="start" font-family="'trebuchet ms', verdana, arial, sans-serif" font-size="14.4" fill="#333333"><tspan x="20.00" dy="0.00">Alpha</tspan></text><line x1="0.00" y1="64.00" x2="627.88" y2="64.00" stroke="#E2E8F0" stroke-width="1"/><line x1="0.00" y1="108.80" x2="627.88" y2="108.80" stroke="#E2E8F0" stroke-width="1"/><line x1="0.00" y1="153.60" x2="627.88" y2="153.60" stroke="#E2E8F0" stroke-width="1"/><rect x="191.88" y="72.51" width="260.00" height="27.78" rx="3" fill="hsl(222.6666564941, 31.8986320496%, 72.8705902100%)" stroke="#7B88A8" stroke-width="1"/><text x="321.88" y="86.40" text-anchor="middle" dominant-baseline="middle" font-family="&apos;trebuchet ms&apos;, verdana, arial, sans-serif" font-size="12.92" fill="#0F172A">Task A</text><rect x="451.88" y="117.31" width="156.00" height="27.78" rx="3" fill="hsl(222.6666564941, 36.3287696838%, 56.2352943420%)" stroke="#7B88A8" stroke-width="1"/><text x="529.88" y="131.20" text-anchor="middle" dominant-baseline="middle" font-family="&apos;trebuchet ms&apos;, verdana, arial, sans-serif" font-size="12.92" fill="#0F172A">Task B</text></svg>