<svg xmlns="http://www.w3.org/2000/svg" width="576.8" height="274.72" viewBox="0 0 576.8 274.72"><rect x="0" y="0" width="576.8" height="274.72" fill="#FFFFFF"/><defs><marker id="arrow-0" viewBox="0 0 10 10" refX="5" refY="5" markerUnits="userSpaceOnUse" markerWidth="8" markerHeight="8" orient="auto"><path d="M 0 0 L 10 5 L 0 10 z" fill="#333333" stroke="#333333" stroke-width="1" stroke-dasharray="1,0"/></marker><marker id="arrow-start-0" viewBox="0 0 10 10" refX="4.5" refY="5" markerUnits="userSpaceOnUse" markerWidth="8" markerHeight="8" orient="auto"><path d="M 0 5 L 10 10 L 10 0 z" fill="#333333" stroke="#333333" stroke-width="1" stroke-dasharray="1,0"/></marker></defs><text x="348.80" y="41.12" text-anchor="middle" font-family="'trebuchet ms', verdana, arial, sans-serif" font-size="16" fill="#333333"><tspan x="348.80" dy="0.00">Plan</tspan></text><line x1="140.80" y1="64.00" x2="140.80" y2="198.40" stroke="#E2E8F0" stroke-width="1"/><text x="140.80" y="236.48" text-anchor="middle" font-family="'trebuchet ms', verdana, arial, sans-serif" font-size="12.8" fill="#333">2026-01-01</text><line x1="244.80" y1="64.00" x2="244.80" y2="198.40" stroke="#E2E8F0" stroke-width="1"/><text x="244.80" y="236.48" text-anchor="middle" font-family="'trebuchet ms', verdana, arial, sans-serif" font-size="12.8" fill="#333">2026-01-03</text><line x1="348.80" y1="64.00" x2="348.80" y2="198.40" stroke="#E2E8F0" stroke-width="1"/><text x="348.80" y="236.48" text-anchor="middle" font-family="'trebuchet ms', verdana, arial, sans-serif" font-size="12.8" fill="#333">2026-01-05</text><line x1="452.80" y1="64.00" x2="452.80" y2="198.40" stroke="#E2E8F0" stroke-width="1"/><text x="452.80" y="236.48" text-anchor="middle" font-family="'trebuchet ms', verdana, arial, sans-serif" font-size="12.8" fill="#333">2026-01-07</text><line x1="556.80" y1="64.00" x2="556.80" y2="198.40" stroke="#E2E8F0" stroke-width="1"/><text x="556.80" y="236.48" text-anchor="middle" font-family="'trebuchet ms', verdana, arial, sans-serif" font-size="12.8" fill="#333">2026-01-09</text><line x1="140.80" y1="198.40" x2="556.80" y2="198.40" stroke="#333333" stroke-width="1"/><rect x="0.00" y="64.00" width="576.80" height="44.80" fill="#FFFFDE" fill-opacity="0.18" stroke="none"/><text x="20.00" y="90.20" text-anchor="start" font-family="'trebuchet ms', verdana, arial, sans-serif" font-size="15.2" fill="#333333"><tspan x="20.00" dy="0.00">Alpha</tspan></text><line x1="0.00" y1="64.00" x2="576.80" y2="64.00" stroke="#E2E8F0" stroke-width="1"/><line x1="0.00" y1="108.80" x2="576.80" y2="108.80" stroke="#E2E8F0" stroke-width="1"/><line x1="0.00" y1="153.60" x2="576.80" y2="153.60" stroke="#E2E8F0" stroke-width="1"/><line x1="0.00" y1="198.40" x2="576.80" y2="198.40" stroke="#E2E8F0" stroke-width="1"/><rect x="140.80" y="117.31" width="260.00" height="27.78" rx="3" fill="#86efac" stroke="#9370DB" stroke-width="1"/><text x="20.00" y="134.60" text-anchor="start" font-family="'trebuchet ms', verdana, arial, sans-serif" font-size="13.6" fill="#333333"><tspan x="20.00" dy="0.00">Task A</tspan></text><rect x="400.80" y="162.11" width="156.00" height="27.78" rx="3" fill="#60a5fa" stroke="#9370DB" stroke-width="1"/><text x="20.00" y="179.40" text-anchor="start" font-family="'trebuchet ms', verdana, arial, sans-serif" font-size="13.6" fill="#333333"><tspan x="20.00" dy="0.00">Task B</tspan></text></svg>