<svg xmlns="http://www.w3.org/2000/svg" width="635.53046" height="409.12" viewBox="0 0 635.53046 409.12"><rect x="0" y="0" width="635.53046" height="409.12" fill="#FFFFFF"/><defs><marker id="arrow-0" viewBox="0 0 10 10" refX="5" refY="5" markerUnits="userSpaceOnUse" markerWidth="8" markerHeight="8" orient="auto"><path d="M 0 0 L 10 5 L 0 10 z" fill="#333333" stroke="#333333" stroke-width="1" stroke-dasharray="1,0"/></marker><marker id="arrow-start-0" viewBox="0 0 10 10" refX="4.5" refY="5" markerUnits="userSpaceOnUse" markerWidth="8" markerHeight="8" orient="auto"><path d="M 0 5 L 10 10 L 10 0 z" fill="#333333" stroke="#333333" stroke-width="1" stroke-dasharray="1,0"/></marker></defs><text x="407.53" y="41.12" text-anchor="middle" font-family="'trebuchet ms', verdana, arial, sans-serif" font-size="16" fill="#333333"><tspan x="407.53" dy="0.00">Release Plan</tspan></text><line x1="199.53" y1="64.00" x2="199.53" y2="332.80" stroke="#E2E8F0" stroke-width="1"/><text x="199.53" y="370.88" text-anchor="middle" font-family="'trebuchet ms', verdana, arial, sans-serif" font-size="12.8" fill="#333">2026-01-01</text><line x1="303.54" y1="64.00" x2="303.54" y2="332.80" stroke="#E2E8F0" stroke-width="1"/><text x="303.54" y="370.88" text-anchor="middle" font-family="'trebuchet ms', verdana, arial, sans-serif" font-size="12.8" fill="#333">2026-01-07</text><line x1="407.55" y1="64.00" x2="407.55" y2="332.80" stroke="#E2E8F0" stroke-width="1"/><text x="407.55" y="370.88" text-anchor="middle" font-family="'trebuchet ms', verdana, arial, sans-serif" font-size="12.8" fill="#333">2026-01-14</text><line x1="511.52" y1="64.00" x2="511.52" y2="332.80" stroke="#E2E8F0" stroke-width="1"/><text x="511.52" y="370.88" text-anchor="middle" font-family="'trebuchet ms', verdana, arial, sans-serif" font-size="12.8" fill="#333">2026-01-20</text><line x1="615.53" y1="64.00" x2="615.53" y2="332.80" stroke="#E2E8F0" stroke-width="1"/><text x="615.53" y="370.88" text-anchor="middle" font-family="'trebuchet ms', verdana, arial, sans-serif" font-size="12.8" fill="#333">2026-01-26</text><line x1="199.53" y1="332.80" x2="615.53" y2="332.80" stroke="#333333" stroke-width="1"/><line x1="199.53" y1="64.00" x2="199.53" y2="332.80" stroke="#E2E8F0" stroke-width="1"/><rect x="0.00" y="64.00" width="199.53" height="89.60" fill="hsl(259.6261596680, 31.9597759247%, 82.6823501587%)" fill-opacity="0.22" stroke="none"/><rect x="199.53" y="64.00" width="416.00" height="89.60" fill="hsl(259.6261596680, 31.9597759247%, 82.6823501587%)" fill-opacity="0.12" stroke="none"/><rect x="0.00" y="64.00" width="4.80" height="89.60" fill="hsl(259.6261596680, 59.8659172058%, 60.9411773682%)" fill-opacity="0.9" stroke="none"/><text x="20.00" y="92.24" text-anchor="start" font-family="'trebuchet ms', verdana, arial, sans-serif" font-size="14.4" fill="#333333"><tspan x="20.00" dy="0.00">Design</tspan></text><rect x="0.00" y="153.60" width="199.53" height="89.60" fill="hsl(19.6261596680, 31.9597759247%, 82.6823501587%)" fill-opacity="0.22" stroke="none"/><rect x="199.53" y="153.60" width="416.00" height="89.60" fill="hsl(19.6261596680, 31.9597759247%, 82.6823501587%)" fill-opacity="0.12" stroke="none"/><rect x="0.00" y="153.60" width="4.80" height="89.60" fill="hsl(19.6261596680, 59.8659172058%, 60.9411773682%)" fill-opacity="0.9" stroke="none"/><text x="20.00" y="181.84" text-anchor="start" font-family="'trebuchet ms', verdana, arial, sans-serif" font-size="14.4" fill="#333333"><tspan x="20.00" dy="0.00">Build</tspan></text><rect x="0.00" y="243.20" width="199.53" height="89.60" fill="hsl(139.6261596680, 31.9597759247%, 82.6823501587%)" fill-opacity="0.22" stroke="none"/><rect x="199.53" y="243.20" width="416.00" height="89.60" fill="hsl(139.6261596680, 31.9597759247%, 82.6823501587%)" fill-opacity="0.12" stroke="none"/><rect x="0.00" y="243.20" width="4.80" height="89.60" fill="hsl(139.6261596680, 59.8659172058%, 60.9411773682%)" fill-opacity="0.9" stroke="none"/><text x="20.00" y="271.44" text-anchor="start" font-family="'trebuchet ms', verdana, arial, sans-serif" font-size="14.4" fill="#333333"><tspan x="20.00" dy="0.00">Launch</tspan></text><line x1="0.00" y1="64.00" x2="635.53" y2="64.00" stroke="#E2E8F0" stroke-width="1"/><line x1="0.00" y1="108.80" x2="635.53" y2="108.80" stroke="#E2E8F0" stroke-width="1"/><line x1="0.00" y1="153.60" x2="635.53" y2="153.60" stroke="#E2E8F0" stroke-width="1"/><line x1="0.00" y1="198.40" x2="635.53" y2="198.40" stroke="#E2E8F0" stroke-width="1"/><line x1="0.00" y1="243.20" x2="635.53" y2="243.20" stroke="#E2E8F0" stroke-width="1"/><line x1="0.00" y1="288.00" x2="635.53" y2="288.00" stroke="#E2E8F0" stroke-width="1"/><line x1="0.00" y1="332.80" x2="635.53" y2="332.80" stroke="#E2E8F0" stroke-width="1"/><rect x="199.53" y="72.51" width="82.87" height="27.78" rx="3" fill="hsl(259.6261596680, 38.9597778320%, 74.2823562622%)" stroke="#9370DB" stroke-width="1"/><text x="240.97" y="86.40" text-anchor="middle" dominant-baseline="middle" font-family="&apos;trebuchet ms&apos;, verdana, arial, sans-serif" font-size="12.92" fill="#0F172A">Research</text><text x="78.73" y="89.80" text-anchor="start" font-family="'trebuchet ms', verdana, arial, sans-serif" font-size="13.6" fill="#333333"><tspan x="78.73" dy="0.00">Research</tspan></text><rect x="282.40" y="117.31" width="49.72" height="27.78" rx="3" fill="hsl(259.6261596680, 59.8659172058%, 60.9411773682%)" stroke="#9370DB" stroke-width="1"/><text x="78.73" y="134.60" text-anchor="start" font-family="'trebuchet ms', verdana, arial, sans-serif" font-size="13.6" fill="#333333"><tspan x="78.73" dy="0.00">Review</tspan></text><rect x="348.70" y="162.11" width="116.02" height="27.78" rx="3" fill="hsl(19.6261596680, 59.8659172058%, 60.9411773682%)" stroke="#9370DB" stroke-width="1"/><text x="406.71" y="176.00" text-anchor="middle" dominant-baseline="middle" font-family="&apos;trebuchet ms&apos;, verdana, arial, sans-serif" font-size="12.92" fill="#0F172A">API</text><text x="78.73" y="179.40" text-anchor="start" font-family="'trebuchet ms', verdana, arial, sans-serif" font-size="13.6" fill="#333333"><tspan x="78.73" dy="0.00">API</tspan></text><rect x="464.71" y="206.91" width="82.87" height="27.78" rx="3" fill="hsl(19.6261596680, 59.8659172058%, 60.9411773682%)" stroke="#9370DB" stroke-width="1"/><text x="506.15" y="220.80" text-anchor="middle" dominant-baseline="middle" font-family="&apos;trebuchet ms&apos;, verdana, arial, sans-serif" font-size="12.92" fill="#0F172A">UI</text><text x="78.73" y="224.20" text-anchor="start" font-family="'trebuchet ms', verdana, arial, sans-serif" font-size="13.6" fill="#333333"><tspan x="78.73" dy="0.00">UI</tspan></text><rect x="514.44" y="251.71" width="66.30" height="27.78" rx="3" fill="hsl(139.6261596680, 59.8659172058%, 60.9411773682%)" stroke="#9370DB" stroke-width="1"/><text x="547.58" y="265.60" text-anchor="middle" dominant-baseline="middle" font-family="&apos;trebuchet ms&apos;, verdana, arial, sans-serif" font-size="12.92" fill="#0F172A">QA</text><text x="78.73" y="269.00" text-anchor="start" font-family="'trebuchet ms', verdana, arial, sans-serif" font-size="13.6" fill="#333333"><tspan x="78.73" dy="0.00">QA</tspan></text><polygon points="613.88,293.73 630.55,310.40 613.88,327.07 597.21,310.40" fill="hsl(45.0000000000, 65.0000000000%, 60.9411773682%)" stroke="#9370DB" stroke-width="1"/><text x="78.73" y="313.80" text-anchor="start" font-family="'trebuchet ms', verdana, arial, sans-serif" font-size="13.6" fill="#333333"><tspan x="78.73" dy="0.00">Release</tspan></text></svg>