<svg xmlns="http://www.w3.org/2000/svg" width="564.8" height="187.2" viewBox="0 0 564.8 187.2"><rect x="0" y="0" width="564.8" height="187.2" fill="#FFFFFF"/><defs><marker id="arrow-0" viewBox="0 0 10 10" refX="5" refY="5" markerUnits="userSpaceOnUse" markerWidth="8" markerHeight="8" orient="auto"><path d="M 0 0 L 10 5 L 0 10 z" fill="#333333" stroke="#333333" stroke-width="1" stroke-dasharray="1,0"/></marker><marker id="arrow-start-0" viewBox="0 0 10 10" refX="4.5" refY="5" markerUnits="userSpaceOnUse" markerWidth="8" markerHeight="8" orient="auto"><path d="M 0 5 L 10 10 L 10 0 z" fill="#333333" stroke="#333333" stroke-width="1" stroke-dasharray="1,0"/></marker></defs><text x="337.60" y="45.28" text-anchor="middle" font-family="'trebuchet ms', verdana, arial, sans-serif" font-size="16" fill="#333333"><tspan x="337.60" dy="0.00">Plan</tspan></text><line x1="129.60" y1="62.40" x2="129.60" y2="168.00" stroke="#E2E8F0" stroke-width="1"/><text x="129.60" y="189.12" text-anchor="middle" font-family="'trebuchet ms', verdana, arial, sans-serif" font-size="16" fill="#333">2026-01-01</text><line x1="233.60" y1="62.40" x2="233.60" y2="168.00" stroke="#E2E8F0" stroke-width="1"/><text x="233.60" y="189.12" text-anchor="middle" font-family="'trebuchet ms', verdana, arial, sans-serif" font-size="16" fill="#333">2026-01-03</text><line x1="337.60" y1="62.40" x2="337.60" y2="168.00" stroke="#E2E8F0" stroke-width="1"/><text x="337.60" y="189.12" text-anchor="middle" font-family="'trebuchet ms', verdana, arial, sans-serif" font-size="16" fill="#333">2026-01-05</text><line x1="441.60" y1="62.40" x2="441.60" y2="168.00" stroke="#E2E8F0" stroke-width="1"/><text x="441.60" y="189.12" text-anchor="middle" font-family="'trebuchet ms', verdana, arial, sans-serif" font-size="16" fill="#333">2026-01-07</text><line x1="545.60" y1="62.40" x2="545.60" y2="168.00" stroke="#E2E8F0" stroke-width="1"/><text x="545.60" y="189.12" text-anchor="middle" font-family="'trebuchet ms', verdana, arial, sans-serif" font-size="16" fill="#333">2026-01-09</text><line x1="129.60" y1="168.00" x2="545.60" y2="168.00" stroke="#333333" stroke-width="1"/><rect x="0.00" y="62.40" width="564.80" height="35.20" fill="#FFFFDE" stroke="none"/><text x="19.20" y="84.00" text-anchor="start" font-family="'trebuchet ms', verdana, arial, sans-serif" font-size="16" fill="#333333"><tspan x="19.20" dy="0.00">Alpha</tspan></text><rect x="129.60" y="105.52" width="260.00" height="19.36" rx="3" fill="#86efac" stroke="#9370DB" stroke-width="1"/><text x="19.20" y="119.20" text-anchor="start" font-family="'trebuchet ms', verdana, arial, sans-serif" font-size="16" fill="#333333"><tspan x="19.20" dy="0.00">Task A</tspan></text><rect x="389.60" y="140.72" width="156.00" height="19.36" rx="3" fill="#60a5fa" stroke="#9370DB" stroke-width="1"/><text x="19.20" y="154.40" text-anchor="start" font-family="'trebuchet ms', verdana, arial, sans-serif" font-size="16" fill="#333333"><tspan x="19.20" dy="0.00">Task B</tspan></text></svg>