<svg xmlns="http://www.w3.org/2000/svg" width="684.632" height="677.9199" viewBox="0 0 684.632 677.9199"><rect x="0" y="0" width="684.632" height="677.9199" fill="#FFFFFF"/><defs><marker id="arrow-0" viewBox="0 0 10 10" refX="5" refY="5" markerUnits="userSpaceOnUse" markerWidth="8" markerHeight="8" orient="auto"><path d="M 0 0 L 10 5 L 0 10 z" fill="#2F3B4D" stroke="#2F3B4D" stroke-width="1" stroke-dasharray="1,0"/></marker><marker id="arrow-start-0" viewBox="0 0 10 10" refX="4.5" refY="5" markerUnits="userSpaceOnUse" markerWidth="8" markerHeight="8" orient="auto"><path d="M 0 5 L 10 10 L 10 0 z" fill="#2F3B4D" stroke="#2F3B4D" stroke-width="1" stroke-dasharray="1,0"/></marker></defs><text x="456.63" y="41.12" text-anchor="middle" font-family="'trebuchet ms', verdana, arial, sans-serif" font-size="16" fill="#333333"><tspan x="456.63" dy="0.00">Project Timeline</tspan></text><line x1="248.63" y1="64.00" x2="248.63" y2="601.60" stroke="#E2E8F0" stroke-width="1"/><text x="248.63" y="639.68" text-anchor="middle" font-family="'trebuchet ms', verdana, arial, sans-serif" font-size="12.8" fill="#333">2024-01-01</text><line x1="352.63" y1="64.00" x2="352.63" y2="601.60" stroke="#E2E8F0" stroke-width="1"/><text x="352.63" y="639.68" text-anchor="middle" font-family="'trebuchet ms', verdana, arial, sans-serif" font-size="12.8" fill="#333">2078-01-21</text><line x1="456.63" y1="64.00" x2="456.63" y2="601.60" stroke="#E2E8F0" stroke-width="1"/><text x="456.63" y="639.68" text-anchor="middle" font-family="'trebuchet ms', verdana, arial, sans-serif" font-size="12.8" fill="#333">2132-02-11</text><line x1="560.63" y1="64.00" x2="560.63" y2="601.60" stroke="#E2E8F0" stroke-width="1"/><text x="560.63" y="639.68" text-anchor="middle" font-family="'trebuchet ms', verdana, arial, sans-serif" font-size="12.8" fill="#333">2186-03-03</text><line x1="664.63" y1="64.00" x2="664.63" y2="601.60" stroke="#E2E8F0" stroke-width="1"/><text x="664.63" y="639.68" text-anchor="middle" font-family="'trebuchet ms', verdana, arial, sans-serif" font-size="12.8" fill="#333">2240-03-23</text><line x1="248.63" y1="601.60" x2="664.63" y2="601.60" stroke="#2F3B4D" stroke-width="1"/><line x1="248.63" y1="64.00" x2="248.63" y2="601.60" stroke="#E2E8F0" stroke-width="1"/><rect x="0.00" y="64.00" width="248.63" height="134.40" fill="hsl(222.6666564941, 24.8986320496%, 81.2705841064%)" fill-opacity="0.22" stroke="none"/><rect x="248.63" y="64.00" width="416.00" height="134.40" fill="hsl(222.6666564941, 24.8986320496%, 81.2705841064%)" fill-opacity="0.12" stroke="none"/><rect x="0.00" y="64.00" width="4.80" height="134.40" fill="hsl(222.6666564941, 36.3287696838%, 56.2352943420%)" fill-opacity="0.9" stroke="none"/><text x="20.00" y="92.24" text-anchor="start" font-family="'trebuchet ms', verdana, arial, sans-serif" font-size="14.4" fill="#333333"><tspan x="20.00" dy="0.00">Planning</tspan></text><rect x="0.00" y="198.40" width="248.63" height="179.20" fill="hsl(312.6666564941, 24.8986320496%, 81.2705841064%)" fill-opacity="0.22" stroke="none"/><rect x="248.63" y="198.40" width="416.00" height="179.20" fill="hsl(312.6666564941, 24.8986320496%, 81.2705841064%)" fill-opacity="0.12" stroke="none"/><rect x="0.00" y="198.40" width="4.80" height="179.20" fill="hsl(312.6666564941, 36.3287696838%, 56.2352943420%)" fill-opacity="0.9" stroke="none"/><text x="20.00" y="226.64" text-anchor="start" font-family="'trebuchet ms', verdana, arial, sans-serif" font-size="14.4" fill="#333333"><tspan x="20.00" dy="0.00">Development</tspan></text><rect x="0.00" y="377.60" width="248.63" height="134.40" fill="hsl(42.6666564941, 24.8986320496%, 81.2705841064%)" fill-opacity="0.22" stroke="none"/><rect x="248.63" y="377.60" width="416.00" height="134.40" fill="hsl(42.6666564941, 24.8986320496%, 81.2705841064%)" fill-opacity="0.12" stroke="none"/><rect x="0.00" y="377.60" width="4.80" height="134.40" fill="hsl(42.6666564941, 36.3287696838%, 56.2352943420%)" fill-opacity="0.9" stroke="none"/><text x="20.00" y="405.84" text-anchor="start" font-family="'trebuchet ms', verdana, arial, sans-serif" font-size="14.4" fill="#333333"><tspan x="20.00" dy="0.00">Testing</tspan></text><rect x="0.00" y="512.00" width="248.63" height="89.60" fill="hsl(132.6666564941, 24.8986320496%, 81.2705841064%)" fill-opacity="0.22" stroke="none"/><rect x="248.63" y="512.00" width="416.00" height="89.60" fill="hsl(132.6666564941, 24.8986320496%, 81.2705841064%)" fill-opacity="0.12" stroke="none"/><rect x="0.00" y="512.00" width="4.80" height="89.60" fill="hsl(132.6666564941, 36.3287696838%, 56.2352943420%)" fill-opacity="0.9" stroke="none"/><text x="20.00" y="540.24" text-anchor="start" font-family="'trebuchet ms', verdana, arial, sans-serif" font-size="14.4" fill="#333333"><tspan x="20.00" dy="0.00">Release</tspan></text><line x1="0.00" y1="64.00" x2="684.63" y2="64.00" stroke="#E2E8F0" stroke-width="1"/><line x1="0.00" y1="108.80" x2="684.63" y2="108.80" stroke="#E2E8F0" stroke-width="1"/><line x1="0.00" y1="153.60" x2="684.63" y2="153.60" stroke="#E2E8F0" stroke-width="1"/><line x1="0.00" y1="198.40" x2="684.63" y2="198.40" stroke="#E2E8F0" stroke-width="1"/><line x1="0.00" y1="243.20" x2="684.63" y2="243.20" stroke="#E2E8F0" stroke-width="1"/><line x1="0.00" y1="288.00" x2="684.63" y2="288.00" stroke="#E2E8F0" stroke-width="1"/><line x1="0.00" y1="332.80" x2="684.63" y2="332.80" stroke="#E2E8F0" stroke-width="1"/><line x1="0.00" y1="377.60" x2="684.63" y2="377.60" stroke="#E2E8F0" stroke-width="1"/><line x1="0.00" y1="422.40" x2="684.63" y2="422.40" stroke="#E2E8F0" stroke-width="1"/><line x1="0.00" y1="467.20" x2="684.63" y2="467.20" stroke="#E2E8F0" stroke-width="1"/><line x1="0.00" y1="512.00" x2="684.63" y2="512.00" stroke="#E2E8F0" stroke-width="1"/><line x1="0.00" y1="556.80" x2="684.63" y2="556.80" stroke="#E2E8F0" stroke-width="1"/><line x1="0.00" y1="601.60" x2="684.63" y2="601.60" stroke="#E2E8F0" stroke-width="1"/><rect x="248.63" y="72.51" width="22.40" height="27.78" rx="3" fill="hsl(222.6666564941, 31.8986320496%, 72.8705902100%)" stroke="#7B88A8" stroke-width="1"/><text x="117.01" y="89.80" text-anchor="start" font-family="'trebuchet ms', verdana, arial, sans-serif" font-size="13.6" fill="#333333"><tspan x="117.01" dy="0.00">Requirements</tspan></text><rect x="248.71" y="117.31" width="22.40" height="27.78" rx="3" fill="hsl(222.6666564941, 31.8986320496%, 72.8705902100%)" stroke="#7B88A8" stroke-width="1"/><text x="117.01" y="134.60" text-anchor="start" font-family="'trebuchet ms', verdana, arial, sans-serif" font-size="13.6" fill="#333333"><tspan x="117.01" dy="0.00">Architecture</tspan></text><polygon points="352.62,159.33 369.28,176.00 352.62,192.67 335.95,176.00" fill="hsl(45.0000000000, 65.0000000000%, 56.2352943420%)" stroke="#7B88A8" stroke-width="1"/><text x="117.01" y="179.40" text-anchor="start" font-family="'trebuchet ms', verdana, arial, sans-serif" font-size="13.6" fill="#333333"><tspan x="117.01" dy="0.00">Design Review</tspan></text><rect x="456.51" y="206.91" width="22.40" height="27.78" rx="3" fill="hsl(312.6666564941, 56.5315093994%, 53.6941184998%)" stroke="#7B88A8" stroke-width="1"/><text x="117.01" y="224.20" text-anchor="start" font-family="'trebuchet ms', verdana, arial, sans-serif" font-size="13.6" fill="#333333"><tspan x="117.01" dy="0.00">Backend API</tspan></text><rect x="560.52" y="251.71" width="22.40" height="27.78" rx="3" fill="hsl(312.6666564941, 56.5315093994%, 53.6941184998%)" stroke="#7B88A8" stroke-width="1"/><text x="117.01" y="269.00" text-anchor="start" font-family="'trebuchet ms', verdana, arial, sans-serif" font-size="13.6" fill="#333333"><tspan x="117.01" dy="0.00">Frontend UI</tspan></text><rect x="664.56" y="296.51" width="22.40" height="27.78" rx="3" fill="hsl(0.0000000000, 65.0000000000%, 56.2352943420%)" stroke="#7B88A8" stroke-width="1"/><text x="117.01" y="313.80" text-anchor="start" font-family="'trebuchet ms', verdana, arial, sans-serif" font-size="13.6" fill="#333333"><tspan x="117.01" dy="0.00">Database Schema</tspan></text><rect x="456.62" y="341.31" width="22.40" height="27.78" rx="3" fill="hsl(312.6666564941, 36.3287696838%, 56.2352943420%)" stroke="#7B88A8" stroke-width="1"/><text x="117.01" y="358.60" text-anchor="start" font-family="'trebuchet ms', verdana, arial, sans-serif" font-size="13.6" fill="#333333"><tspan x="117.01" dy="0.00">Integration</tspan></text><rect x="456.62" y="386.11" width="22.40" height="27.78" rx="3" fill="hsl(42.6666564941, 36.3287696838%, 56.2352943420%)" stroke="#7B88A8" stroke-width="1"/><text x="117.01" y="403.40" text-anchor="start" font-family="'trebuchet ms', verdana, arial, sans-serif" font-size="13.6" fill="#333333"><tspan x="117.01" dy="0.00">Unit Tests</tspan></text><rect x="456.70" y="430.91" width="22.40" height="27.78" rx="3" fill="hsl(42.6666564941, 36.3287696838%, 56.2352943420%)" stroke="#7B88A8" stroke-width="1"/><text x="117.01" y="448.20" text-anchor="start" font-family="'trebuchet ms', verdana, arial, sans-serif" font-size="13.6" fill="#333333"><tspan x="117.01" dy="0.00">E2E Tests</tspan></text><rect x="456.75" y="475.71" width="22.40" height="27.78" rx="3" fill="hsl(42.6666564941, 36.3287696838%, 56.2352943420%)" stroke="#7B88A8" stroke-width="1"/><text x="117.01" y="493.00" text-anchor="start" font-family="'trebuchet ms', verdana, arial, sans-serif" font-size="13.6" fill="#333333"><tspan x="117.01" dy="0.00">Performance</tspan></text><rect x="456.77" y="520.51" width="22.40" height="27.78" rx="3" fill="hsl(132.6666564941, 36.3287696838%, 56.2352943420%)" stroke="#7B88A8" stroke-width="1"/><text x="117.01" y="537.80" text-anchor="start" font-family="'trebuchet ms', verdana, arial, sans-serif" font-size="13.6" fill="#333333"><tspan x="117.01" dy="0.00">Staging Deploy</tspan></text><polygon points="456.79,562.53 473.46,579.20 456.79,595.87 440.12,579.20" fill="hsl(45.0000000000, 65.0000000000%, 56.2352943420%)" stroke="#7B88A8" stroke-width="1"/><text x="117.01" y="582.60" text-anchor="start" font-family="'trebuchet ms', verdana, arial, sans-serif" font-size="13.6" fill="#333333"><tspan x="117.01" dy="0.00">Production</tspan></text></svg>