<svg xmlns="http://www.w3.org/2000/svg" width="576.8" height="543.51996" viewBox="0 0 576.8 543.51996"><rect x="0" y="0" width="576.8" height="543.51996" fill="#FFFFFF"/><defs><marker id="arrow-0" viewBox="0 0 10 10" refX="5" refY="5" markerUnits="userSpaceOnUse" markerWidth="8" markerHeight="8" orient="auto"><path d="M 0 0 L 10 5 L 0 10 z" fill="#333333" stroke="#333333" stroke-width="1" stroke-dasharray="1,0"/></marker><marker id="arrow-start-0" viewBox="0 0 10 10" refX="4.5" refY="5" markerUnits="userSpaceOnUse" markerWidth="8" markerHeight="8" orient="auto"><path d="M 0 5 L 10 10 L 10 0 z" fill="#333333" stroke="#333333" stroke-width="1" stroke-dasharray="1,0"/></marker></defs><text x="348.80" y="41.12" text-anchor="middle" font-family="'trebuchet ms', verdana, arial, sans-serif" font-size="16" fill="#333333"><tspan x="348.80" dy="0.00">Release Plan</tspan></text><line x1="140.80" y1="64.00" x2="140.80" y2="467.20" stroke="#E2E8F0" stroke-width="1"/><text x="140.80" y="505.28" text-anchor="middle" font-family="'trebuchet ms', verdana, arial, sans-serif" font-size="12.8" fill="#333">2026-01-01</text><line x1="244.81" y1="64.00" x2="244.81" y2="467.20" stroke="#E2E8F0" stroke-width="1"/><text x="244.81" y="505.28" text-anchor="middle" font-family="'trebuchet ms', verdana, arial, sans-serif" font-size="12.8" fill="#333">2026-01-07</text><line x1="348.82" y1="64.00" x2="348.82" y2="467.20" stroke="#E2E8F0" stroke-width="1"/><text x="348.82" y="505.28" text-anchor="middle" font-family="'trebuchet ms', verdana, arial, sans-serif" font-size="12.8" fill="#333">2026-01-14</text><line x1="452.79" y1="64.00" x2="452.79" y2="467.20" stroke="#E2E8F0" stroke-width="1"/><text x="452.79" y="505.28" text-anchor="middle" font-family="'trebuchet ms', verdana, arial, sans-serif" font-size="12.8" fill="#333">2026-01-20</text><line x1="556.80" y1="64.00" x2="556.80" y2="467.20" stroke="#E2E8F0" stroke-width="1"/><text x="556.80" y="505.28" text-anchor="middle" font-family="'trebuchet ms', verdana, arial, sans-serif" font-size="12.8" fill="#333">2026-01-26</text><line x1="140.80" y1="467.20" x2="556.80" y2="467.20" stroke="#333333" stroke-width="1"/><rect x="0.00" y="64.00" width="576.80" height="44.80" fill="#FFFFDE" fill-opacity="0.18" stroke="none"/><text x="20.00" y="90.20" text-anchor="start" font-family="'trebuchet ms', verdana, arial, sans-serif" font-size="15.2" fill="#333333"><tspan x="20.00" dy="0.00">Design</tspan></text><rect x="0.00" y="198.40" width="576.80" height="44.80" fill="#FFFFDE" fill-opacity="0.18" stroke="none"/><text x="20.00" y="224.60" text-anchor="start" font-family="'trebuchet ms', verdana, arial, sans-serif" font-size="15.2" fill="#333333"><tspan x="20.00" dy="0.00">Build</tspan></text><rect x="0.00" y="332.80" width="576.80" height="44.80" fill="#FFFFDE" fill-opacity="0.18" stroke="none"/><text x="20.00" y="359.00" text-anchor="start" font-family="'trebuchet ms', verdana, arial, sans-serif" font-size="15.2" fill="#333333"><tspan x="20.00" dy="0.00">Launch</tspan></text><line x1="0.00" y1="64.00" x2="576.80" y2="64.00" stroke="#E2E8F0" stroke-width="1"/><line x1="0.00" y1="108.80" x2="576.80" y2="108.80" stroke="#E2E8F0" stroke-width="1"/><line x1="0.00" y1="153.60" x2="576.80" y2="153.60" stroke="#E2E8F0" stroke-width="1"/><line x1="0.00" y1="198.40" x2="576.80" y2="198.40" stroke="#E2E8F0" stroke-width="1"/><line x1="0.00" y1="243.20" x2="576.80" y2="243.20" stroke="#E2E8F0" stroke-width="1"/><line x1="0.00" y1="288.00" x2="576.80" y2="288.00" stroke="#E2E8F0" stroke-width="1"/><line x1="0.00" y1="332.80" x2="576.80" y2="332.80" stroke="#E2E8F0" stroke-width="1"/><line x1="0.00" y1="377.60" x2="576.80" y2="377.60" stroke="#E2E8F0" stroke-width="1"/><line x1="0.00" y1="422.40" x2="576.80" y2="422.40" stroke="#E2E8F0" stroke-width="1"/><line x1="0.00" y1="467.20" x2="576.80" y2="467.20" stroke="#E2E8F0" stroke-width="1"/><rect x="140.80" y="117.31" width="82.87" height="27.78" rx="3" fill="#86efac" stroke="#9370DB" stroke-width="1"/><text x="20.00" y="134.60" text-anchor="start" font-family="'trebuchet ms', verdana, arial, sans-serif" font-size="13.6" fill="#333333"><tspan x="20.00" dy="0.00">Research</tspan></text><rect x="223.67" y="162.11" width="49.72" height="27.78" rx="3" fill="#60a5fa" stroke="#9370DB" stroke-width="1"/><text x="20.00" y="179.40" text-anchor="start" font-family="'trebuchet ms', verdana, arial, sans-serif" font-size="13.6" fill="#333333"><tspan x="20.00" dy="0.00">Review</tspan></text><rect x="289.97" y="251.71" width="116.02" height="27.78" rx="3" fill="#34d399" stroke="#9370DB" stroke-width="1"/><text x="20.00" y="269.00" text-anchor="start" font-family="'trebuchet ms', verdana, arial, sans-serif" font-size="13.6" fill="#333333"><tspan x="20.00" dy="0.00">API</tspan></text><rect x="405.98" y="296.51" width="82.87" height="27.78" rx="3" fill="#a78bfa" stroke="#9370DB" stroke-width="1"/><text x="20.00" y="313.80" text-anchor="start" font-family="'trebuchet ms', verdana, arial, sans-serif" font-size="13.6" fill="#333333"><tspan x="20.00" dy="0.00">UI</tspan></text><rect x="455.71" y="386.11" width="66.30" height="27.78" rx="3" fill="#fb923c" stroke="#9370DB" stroke-width="1"/><text x="20.00" y="403.40" text-anchor="start" font-family="'trebuchet ms', verdana, arial, sans-serif" font-size="13.6" fill="#333333"><tspan x="20.00" dy="0.00">QA</tspan></text><polygon points="555.15,428.13 571.81,444.80 555.15,461.47 538.48,444.80" fill="#fbbf24" stroke="#9370DB" stroke-width="1"/><text x="20.00" y="448.20" text-anchor="start" font-family="'trebuchet ms', verdana, arial, sans-serif" font-size="13.6" fill="#333333"><tspan x="20.00" dy="0.00">Release</tspan></text></svg>