<svg xmlns="http://www.w3.org/2000/svg" width="100%" viewBox="-113.54401 -24.64 271.544 161.28069" style="max-width: 271.544px;"><rect x="-113.54401" y="-24.64" width="271.544" height="161.28069" fill="#FFFFFF"/><defs><marker id="arrow-0" viewBox="0 0 10 10" refX="5" refY="5" markerUnits="userSpaceOnUse" markerWidth="8" markerHeight="8" orient="auto"><path d="M 0 0 L 10 5 L 0 10 z" fill="#333333"/></marker><marker id="arrow-start-0" viewBox="0 0 10 10" refX="4.5" refY="5" markerUnits="userSpaceOnUse" markerWidth="8" markerHeight="8" orient="auto"><path d="M 0 5 L 10 10 L 10 0 z" fill="#333333"/></marker></defs><g><line x1="0.00" y1="0.00" x2="150.00" y2="0.00" stroke="#333333" stroke-width="1" stroke-dasharray="2"/><rect x="-88.79" y="-16.64" width="53.79" height="28.64" rx="4.00" ry="4.00" fill="hsl(240, 100%, 46.2745098039%)" stroke="none"/><text x="-79.79" y="2.68" text-anchor="start" font-family="&apos;trebuchet ms&apos;, verdana, arial, sans-serif" font-size="16" fill="#ffffff"><tspan x="-79.79" dy="0.00">main</tspan></text><line x1="0.00" y1="90.00" x2="150.00" y2="90.00" stroke="#333333" stroke-width="1" stroke-dasharray="2"/><rect x="-105.54" y="73.36" width="70.54" height="28.64" rx="4.00" ry="4.00" fill="hsl(60, 100%, 43.5294117647%)" stroke="none"/><text x="-96.54" y="92.68" text-anchor="start" font-family="&apos;trebuchet ms&apos;, verdana, arial, sans-serif" font-size="16" fill="black"><tspan x="-96.54" dy="0.00">feature</tspan></text><g class="commit-arrows"><path d="M 10 0 L 10 70 A 20 20, 0, 0, 0, 30 90 L 60 90" fill="none" stroke="hsl(60, 100%, 43.5294117647%)" stroke-width="8" stroke-linecap="round"/><path d="M 10 0 L 110 0" fill="none" stroke="hsl(240, 100%, 46.2745098039%)" stroke-width="8" stroke-linecap="round"/><path d="M 60 90 L 90 90 A 20 20, 0, 0, 0, 110 70 L 110 0" fill="none" stroke="hsl(60, 100%, 43.5294117647%)" stroke-width="8" stroke-linecap="round"/></g><g class="commit-bullets"><circle cx="10.00" cy="0.00" r="10.00" fill="hsl(240, 100%, 46.2745098039%)" stroke="hsl(240, 100%, 46.2745098039%)"/><circle cx="60.00" cy="90.00" r="10.00" fill="hsl(60, 100%, 43.5294117647%)" stroke="hsl(60, 100%, 43.5294117647%)"/><circle cx="110.00" cy="0.00" r="9.00" fill="hsl(240, 100%, 46.2745098039%)" stroke="hsl(240, 100%, 46.2745098039%)"/><circle cx="110.00" cy="0.00" r="6.00" fill="#ECECFF" stroke="#ECECFF"/></g><g class="commit-labels"><g transform="translate(-29.36, 26.16) rotate(-45.00, 0.00, 0.00)"><rect x="-15.77" y="13.50" width="51.53" height="16.00" fill="#ffffde" opacity="0.5"/><text x="-13.77" y="25.00" text-anchor="start" font-family="'trebuchet ms', verdana, arial, sans-serif" font-size="10" fill="#000021">0-ca4f95f</text></g><g transform="translate(-14.99, 13.30) rotate(-45.00, 50.00, 90.00)"><rect x="53.15" y="103.50" width="13.71" height="16.00" fill="#ffffde" opacity="0.5"/><text x="55.15" y="115.00" text-anchor="start" font-family="'trebuchet ms', verdana, arial, sans-serif" font-size="10" fill="#000021">F1</text></g></g></g></svg>