<svg xmlns="http://www.w3.org/2000/svg" width="375.164" height="198" viewBox="0 0 375.164 198"><rect x="0" y="0" width="375.164" height="198" fill="#FFFFFF"/><defs><marker id="arrow-0" viewBox="0 0 10 10" refX="5" refY="5" markerUnits="userSpaceOnUse" markerWidth="8" markerHeight="8" orient="auto"><path d="M 0 0 L 10 5 L 0 10 z" fill="#333333"/></marker><marker id="arrow-start-0" viewBox="0 0 10 10" refX="4.5" refY="5" markerUnits="userSpaceOnUse" markerWidth="8" markerHeight="8" orient="auto"><path d="M 0 5 L 10 10 L 10 0 z" fill="#333333"/></marker></defs><rect x="8.00" y="8.00" width="359.16" height="182.00" rx="10" ry="10" fill="#FFFFDE" stroke="#AAAA33" stroke-width="1" /><text x="187.58" y="36.00" text-anchor="middle" font-family="'trebuchet ms', verdana, arial, sans-serif" font-size="16" fill="#333333"><tspan x="187.58" dy="0.00">Start</tspan></text><path d="M 158.208,115.000C166.514,115.000,178.973,115.000,183.126,115.000C187.279,115.000,178.973,115.000,183.126,115.000C187.279,115.000,199.738,115.000,208.044,115.000" fill="none" stroke="#333333" stroke-width="2"    stroke-linecap="round" stroke-linejoin="round" /><rect x="32.00" y="64.00" width="126.21" height="102.00" rx="3" ry="3" fill="#ECECFF" stroke="#9370DB" stroke-width="1" stroke-linejoin="round" stroke-linecap="round"/><text x="95.10" y="95.00" text-anchor="middle" font-family="'trebuchet ms', verdana, arial, sans-serif" font-size="16" fill="#333333"><tspan x="95.10" dy="0.00">Step one</tspan><tspan x="95.10" dy="24.00">score: 5</tspan><tspan x="95.10" dy="24.00">Alice</tspan></text><rect x="208.04" y="64.00" width="135.12" height="102.00" rx="3" ry="3" fill="#ECECFF" stroke="#9370DB" stroke-width="1" stroke-linejoin="round" stroke-linecap="round"/><text x="275.60" y="95.00" text-anchor="middle" font-family="'trebuchet ms', verdana, arial, sans-serif" font-size="16" fill="#333333"><tspan x="275.60" dy="0.00">Step two</tspan><tspan x="275.60" dy="24.00">score: 3</tspan><tspan x="275.60" dy="24.00">Alice, Bob</tspan></text></svg>