<svg xmlns="http://www.w3.org/2000/svg" width="100%" viewBox="-392.32895 -130.05899 700.1408 260.11798" style="max-width: 700.141px;"><rect x="-392.32895" y="-130.05899" width="700.1408" height="260.11798" fill="#FFFFFF"/><defs><marker id="arrow-0" viewBox="0 0 10 10" refX="5" refY="5" markerUnits="userSpaceOnUse" markerWidth="8" markerHeight="8" orient="auto"><path d="M 0 0 L 10 5 L 0 10 z" fill="#333333" stroke="#333333" stroke-width="1" stroke-dasharray="1,0"/></marker><marker id="arrow-start-0" viewBox="0 0 10 10" refX="4.5" refY="5" markerUnits="userSpaceOnUse" markerWidth="8" markerHeight="8" orient="auto"><path d="M 0 5 L 10 10 L 10 0 z" fill="#333333" stroke="#333333" stroke-width="1" stroke-dasharray="1,0"/></marker><marker id="arrow-1" viewBox="0 0 10 10" refX="5" refY="5" markerUnits="userSpaceOnUse" markerWidth="8" markerHeight="8" orient="auto"><path d="M 0 0 L 10 5 L 0 10 z" fill="hsl(60, 100%, 73.5294117647%)" stroke="hsl(60, 100%, 73.5294117647%)" stroke-width="1" stroke-dasharray="1,0"/></marker><marker id="arrow-start-1" viewBox="0 0 10 10" refX="4.5" refY="5" markerUnits="userSpaceOnUse" markerWidth="8" markerHeight="8" orient="auto"><path d="M 0 5 L 10 10 L 10 0 z" fill="hsl(60, 100%, 73.5294117647%)" stroke="hsl(60, 100%, 73.5294117647%)" stroke-width="1" stroke-dasharray="1,0"/></marker><marker id="arrow-2" viewBox="0 0 10 10" refX="5" refY="5" markerUnits="userSpaceOnUse" markerWidth="8" markerHeight="8" orient="auto"><path d="M 0 0 L 10 5 L 0 10 z" fill="hsl(80, 100%, 76.2745098039%)" stroke="hsl(80, 100%, 76.2745098039%)" stroke-width="1" stroke-dasharray="1,0"/></marker><marker id="arrow-start-2" viewBox="0 0 10 10" refX="4.5" refY="5" markerUnits="userSpaceOnUse" markerWidth="8" markerHeight="8" orient="auto"><path d="M 0 5 L 10 10 L 10 0 z" fill="hsl(80, 100%, 76.2745098039%)" stroke="hsl(80, 100%, 76.2745098039%)" stroke-width="1" stroke-dasharray="1,0"/></marker><marker id="arrow-3" viewBox="0 0 10 10" refX="5" refY="5" markerUnits="userSpaceOnUse" markerWidth="8" markerHeight="8" orient="auto"><path d="M 0 0 L 10 5 L 0 10 z" fill="hsl(270, 100%, 76.2745098039%)" stroke="hsl(270, 100%, 76.2745098039%)" stroke-width="1" stroke-dasharray="1,0"/></marker><marker id="arrow-start-3" viewBox="0 0 10 10" refX="4.5" refY="5" markerUnits="userSpaceOnUse" markerWidth="8" markerHeight="8" orient="auto"><path d="M 0 5 L 10 10 L 10 0 z" fill="hsl(270, 100%, 76.2745098039%)" stroke="hsl(270, 100%, 76.2745098039%)" stroke-width="1" stroke-dasharray="1,0"/></marker></defs><path d="M 0.000,0.000 L 124.840,-68.853" fill="none" stroke="hsl(60, 100%, 73.5294117647%)" stroke-width="11"    stroke-linecap="round" stroke-linejoin="round" /><path d="M 124.840,-68.853 L 251.460,-103.279" fill="none" stroke="hsl(60, 100%, 73.5294117647%)" stroke-width="8"    stroke-linecap="round" stroke-linejoin="round" /><path d="M 124.840,-68.853 L 255.288,-34.426" fill="none" stroke="hsl(60, 100%, 73.5294117647%)" stroke-width="8"    stroke-linecap="round" stroke-linejoin="round" /><path d="M 0.000,0.000 L -113.357,0.000" fill="none" stroke="hsl(80, 100%, 76.2745098039%)" stroke-width="11"    stroke-linecap="round" stroke-linejoin="round" /><path d="M -113.357,0.000 L -236.150,-34.427" fill="none" stroke="hsl(80, 100%, 76.2745098039%)" stroke-width="8"    stroke-linecap="round" stroke-linejoin="round" /><path d="M -236.150,-34.427 L -351.287,-68.853" fill="none" stroke="hsl(80, 100%, 76.2745098039%)" stroke-width="5"    stroke-linecap="round" stroke-linejoin="round" /><path d="M -236.150,-34.427 L -348.917,-0.000" fill="none" stroke="hsl(80, 100%, 76.2745098039%)" stroke-width="5"    stroke-linecap="round" stroke-linejoin="round" /><path d="M -113.357,0.000 L -239.977,68.853" fill="none" stroke="hsl(80, 100%, 76.2745098039%)" stroke-width="8"    stroke-linecap="round" stroke-linejoin="round" /><path d="M 0.000,0.000 L 117.185,68.853" fill="none" stroke="hsl(270, 100%, 76.2745098039%)" stroke-width="11"    stroke-linecap="round" stroke-linejoin="round" /><path d="M 117.185,68.853 L 232.322,34.426" fill="none" stroke="hsl(270, 100%, 76.2745098039%)" stroke-width="8"    stroke-linecap="round" stroke-linejoin="round" /><path d="M 117.185,68.853 L 226.492,103.279" fill="none" stroke="hsl(270, 100%, 76.2745098039%)" stroke-width="8"    stroke-linecap="round" stroke-linejoin="round" /><path d="M-382.48 -60.73 v-16.25 q0,-8.80 8.80,-8.80 h44.78 q8.80,0 8.80,8.80 v16.25 q0,8.80 -8.80,8.80 h-44.78 q-8.80,0 -8.80,-8.80 Z" fill="hsl(80, 100%, 76.2745098039%)" stroke="none" stroke-width="0" stroke-linejoin="round" stroke-linecap="round"/><line x1="-382.48" y1="-52.73" x2="-320.10" y2="-52.73" stroke="hsl(260, 100%, 86.2745098039%)" stroke-width="3.00" stroke-opacity="0.35"/><text x="-351.29" y="-64.85" text-anchor="middle" font-family="'trebuchet ms', verdana, arial, sans-serif" font-size="16" fill="black"><tspan x="-351.29" dy="0.00">API</tspan></text><path d="M-282.65 -26.30 v-16.25 q0,-8.80 8.80,-8.80 h75.40 q8.80,0 8.80,8.80 v16.25 q0,8.80 -8.80,8.80 h-75.40 q-8.80,0 -8.80,-8.80 Z" fill="hsl(80, 100%, 76.2745098039%)" stroke="none" stroke-width="0" stroke-linejoin="round" stroke-linecap="round"/><line x1="-282.65" y1="-18.30" x2="-189.65" y2="-18.30" stroke="hsl(260, 100%, 86.2745098039%)" stroke-width="3.00" stroke-opacity="0.35"/><text x="-236.15" y="-30.43" text-anchor="middle" font-family="'trebuchet ms', verdana, arial, sans-serif" font-size="16" fill="black"><tspan x="-236.15" dy="0.00">Backend</tspan></text><path d="M197.31 42.55 v-16.25 q0,-8.80 8.80,-8.80 h52.43 q8.80,0 8.80,8.80 v16.25 q0,8.80 -8.80,8.80 h-52.43 q-8.80,0 -8.80,-8.80 Z" fill="hsl(270, 100%, 76.2745098039%)" stroke="none" stroke-width="0" stroke-linejoin="round" stroke-linecap="round"/><line x1="197.31" y1="50.55" x2="267.34" y2="50.55" stroke="hsl(90, 100%, 86.2745098039%)" stroke-width="3.00" stroke-opacity="0.35"/><text x="232.32" y="38.43" text-anchor="middle" font-family="'trebuchet ms', verdana, arial, sans-serif" font-size="16" fill="#ffffff"><tspan x="232.32" dy="0.00">Beta</tspan></text><path d="M212.62 -26.30 v-16.25 q0,-8.80 8.80,-8.80 h67.74 q8.80,0 8.80,8.80 v16.25 q0,8.80 -8.80,8.80 h-67.74 q-8.80,0 -8.80,-8.80 Z" fill="hsl(60, 100%, 73.5294117647%)" stroke="none" stroke-width="0" stroke-linejoin="round" stroke-linecap="round"/><line x1="212.62" y1="-18.30" x2="297.96" y2="-18.30" stroke="hsl(240, 100%, 83.5294117647%)" stroke-width="3.00" stroke-opacity="0.35"/><text x="255.29" y="-30.43" text-anchor="middle" font-family="'trebuchet ms', verdana, arial, sans-serif" font-size="16" fill="black"><tspan x="255.29" dy="0.00">Budget</tspan></text><path d="M-152.20 8.13 v-16.25 q0,-8.80 8.80,-8.80 h60.09 q8.80,0 8.80,8.80 v16.25 q0,8.80 -8.80,8.80 h-60.09 q-8.80,0 -8.80,-8.80 Z" fill="hsl(80, 100%, 76.2745098039%)" stroke="none" stroke-width="0" stroke-linejoin="round" stroke-linecap="round"/><line x1="-152.20" y1="16.13" x2="-74.51" y2="16.13" stroke="hsl(260, 100%, 86.2745098039%)" stroke-width="3.00" stroke-opacity="0.35"/><text x="-113.36" y="4.00" text-anchor="middle" font-family="'trebuchet ms', verdana, arial, sans-serif" font-size="16" fill="black"><tspan x="-113.36" dy="0.00">Build</tspan></text><path d="M-377.73 8.13 v-16.25 q0,-8.80 8.80,-8.80 h40.04 q8.80,0 8.80,8.80 v16.25 q0,8.80 -8.80,8.80 h-40.04 q-8.80,0 -8.80,-8.80 Z" fill="hsl(80, 100%, 76.2745098039%)" stroke="none" stroke-width="0" stroke-linejoin="round" stroke-linecap="round"/><line x1="-377.73" y1="16.13" x2="-320.10" y2="16.13" stroke="hsl(260, 100%, 86.2745098039%)" stroke-width="3.00" stroke-opacity="0.35"/><text x="-348.92" y="4.00" text-anchor="middle" font-family="'trebuchet ms', verdana, arial, sans-serif" font-size="16" fill="black"><tspan x="-348.92" dy="0.00">DB</tspan></text><path d="M-290.30 76.98 v-16.25 q0,-8.80 8.80,-8.80 h83.05 q8.80,0 8.80,8.80 v16.25 q0,8.80 -8.80,8.80 h-83.05 q-8.80,0 -8.80,-8.80 Z" fill="hsl(80, 100%, 76.2745098039%)" stroke="none" stroke-width="0" stroke-linejoin="round" stroke-linecap="round"/><line x1="-290.30" y1="84.98" x2="-189.65" y2="84.98" stroke="hsl(260, 100%, 86.2745098039%)" stroke-width="3.00" stroke-opacity="0.35"/><text x="-239.98" y="72.85" text-anchor="middle" font-family="'trebuchet ms', verdana, arial, sans-serif" font-size="16" fill="black"><tspan x="-239.98" dy="0.00">Frontend</tspan></text><path d="M197.31 111.41 v-16.25 q0,-8.80 8.80,-8.80 h40.77 q8.80,0 8.80,8.80 v16.25 q0,8.80 -8.80,8.80 h-40.77 q-8.80,0 -8.80,-8.80 Z" fill="hsl(270, 100%, 76.2745098039%)" stroke="none" stroke-width="0" stroke-linejoin="round" stroke-linecap="round"/><line x1="197.31" y1="119.41" x2="255.68" y2="119.41" stroke="hsl(90, 100%, 86.2745098039%)" stroke-width="3.00" stroke-opacity="0.35"/><text x="226.49" y="107.28" text-anchor="middle" font-family="'trebuchet ms', verdana, arial, sans-serif" font-size="16" fill="#ffffff"><tspan x="226.49" dy="0.00">GA</tspan></text><path d="M74.51 76.98 v-16.25 q0,-8.80 8.80,-8.80 h67.74 q8.80,0 8.80,8.80 v16.25 q0,8.80 -8.80,8.80 h-67.74 q-8.80,0 -8.80,-8.80 Z" fill="hsl(270, 100%, 76.2745098039%)" stroke="none" stroke-width="0" stroke-linejoin="round" stroke-linecap="round"/><line x1="74.51" y1="84.98" x2="159.86" y2="84.98" stroke="hsl(90, 100%, 86.2745098039%)" stroke-width="3.00" stroke-opacity="0.35"/><text x="117.19" y="72.85" text-anchor="middle" font-family="'trebuchet ms', verdana, arial, sans-serif" font-size="16" fill="#ffffff"><tspan x="117.19" dy="0.00">Launch</tspan></text><path d="M74.51 -60.73 v-16.25 q0,-8.80 8.80,-8.80 h83.05 q8.80,0 8.80,8.80 v16.25 q0,8.80 -8.80,8.80 h-83.05 q-8.80,0 -8.80,-8.80 Z" fill="hsl(60, 100%, 73.5294117647%)" stroke="none" stroke-width="0" stroke-linejoin="round" stroke-linecap="round"/><line x1="74.51" y1="-52.73" x2="175.17" y2="-52.73" stroke="hsl(240, 100%, 83.5294117647%)" stroke-width="3.00" stroke-opacity="0.35"/><text x="124.84" y="-64.85" text-anchor="middle" font-family="'trebuchet ms', verdana, arial, sans-serif" font-size="16" fill="black"><tspan x="124.84" dy="0.00">Planning</tspan></text><path d="M212.62 -95.15 v-16.25 q0,-8.80 8.80,-8.80 h60.09 q8.80,0 8.80,8.80 v16.25 q0,8.80 -8.80,8.80 h-60.09 q-8.80,0 -8.80,-8.80 Z" fill="hsl(60, 100%, 73.5294117647%)" stroke="none" stroke-width="0" stroke-linejoin="round" stroke-linecap="round"/><line x1="212.62" y1="-87.15" x2="290.30" y2="-87.15" stroke="hsl(240, 100%, 83.5294117647%)" stroke-width="3.00" stroke-opacity="0.35"/><text x="251.46" y="-99.28" text-anchor="middle" font-family="'trebuchet ms', verdana, arial, sans-serif" font-size="16" fill="black"><tspan x="251.46" dy="0.00">Scope</tspan></text><circle cx="0.00" cy="0.00" r="37.06" fill="hsl(240, 100%, 46.2745098039%)" stroke="none" stroke-width="0" stroke-linejoin="round" stroke-linecap="round"/><text x="0.00" y="4.00" text-anchor="middle" font-family="'trebuchet ms', verdana, arial, sans-serif" font-size="16" fill="#ffffff"><tspan x="0.00" dy="0.00">Project</tspan></text></svg>