<svg xmlns="http://www.w3.org/2000/svg" width="100%" viewBox="-468.87973 -267.765 968.3798 535.52997" style="max-width: 968.380px;"><rect x="-468.87973" y="-267.765" width="968.3798" height="535.52997" fill="#FFFFFF"/><defs><marker id="arrow-0" viewBox="0 0 10 10" refX="5" refY="5" markerUnits="userSpaceOnUse" markerWidth="8" markerHeight="8" orient="auto"><path d="M 0 0 L 10 5 L 0 10 z" fill="#2F3B4D" stroke="#2F3B4D" stroke-width="1" stroke-dasharray="1,0"/></marker><marker id="arrow-start-0" viewBox="0 0 10 10" refX="4.5" refY="5" markerUnits="userSpaceOnUse" markerWidth="8" markerHeight="8" orient="auto"><path d="M 0 5 L 10 10 L 10 0 z" fill="#2F3B4D" stroke="#2F3B4D" stroke-width="1" stroke-dasharray="1,0"/></marker><marker id="arrow-1" viewBox="0 0 10 10" refX="5" refY="5" markerUnits="userSpaceOnUse" markerWidth="8" markerHeight="8" orient="auto"><path d="M 0 0 L 10 5 L 0 10 z" fill="hsl(60, 100%, 73.5294117647%)" stroke="hsl(60, 100%, 73.5294117647%)" stroke-width="1" stroke-dasharray="1,0"/></marker><marker id="arrow-start-1" viewBox="0 0 10 10" refX="4.5" refY="5" markerUnits="userSpaceOnUse" markerWidth="8" markerHeight="8" orient="auto"><path d="M 0 5 L 10 10 L 10 0 z" fill="hsl(60, 100%, 73.5294117647%)" stroke="hsl(60, 100%, 73.5294117647%)" stroke-width="1" stroke-dasharray="1,0"/></marker><marker id="arrow-2" viewBox="0 0 10 10" refX="5" refY="5" markerUnits="userSpaceOnUse" markerWidth="8" markerHeight="8" orient="auto"><path d="M 0 0 L 10 5 L 0 10 z" fill="hsl(80, 100%, 76.2745098039%)" stroke="hsl(80, 100%, 76.2745098039%)" stroke-width="1" stroke-dasharray="1,0"/></marker><marker id="arrow-start-2" viewBox="0 0 10 10" refX="4.5" refY="5" markerUnits="userSpaceOnUse" markerWidth="8" markerHeight="8" orient="auto"><path d="M 0 5 L 10 10 L 10 0 z" fill="hsl(80, 100%, 76.2745098039%)" stroke="hsl(80, 100%, 76.2745098039%)" stroke-width="1" stroke-dasharray="1,0"/></marker><marker id="arrow-3" viewBox="0 0 10 10" refX="5" refY="5" markerUnits="userSpaceOnUse" markerWidth="8" markerHeight="8" orient="auto"><path d="M 0 0 L 10 5 L 0 10 z" fill="hsl(270, 100%, 76.2745098039%)" stroke="hsl(270, 100%, 76.2745098039%)" stroke-width="1" stroke-dasharray="1,0"/></marker><marker id="arrow-start-3" viewBox="0 0 10 10" refX="4.5" refY="5" markerUnits="userSpaceOnUse" markerWidth="8" markerHeight="8" orient="auto"><path d="M 0 5 L 10 10 L 10 0 z" fill="hsl(270, 100%, 76.2745098039%)" stroke="hsl(270, 100%, 76.2745098039%)" stroke-width="1" stroke-dasharray="1,0"/></marker></defs><path d="M 0.000,0.000 L 124.840,-103.280" fill="none" stroke="hsl(60, 100%, 73.5294117647%)" stroke-width="11"    stroke-linecap="round" stroke-linejoin="round" /><path d="M 124.840,-103.280 L 251.460,-172.133" fill="none" stroke="hsl(60, 100%, 73.5294117647%)" stroke-width="8"    stroke-linecap="round" stroke-linejoin="round" /><path d="M 251.460,-172.133 L 385.735,-240.986" fill="none" stroke="hsl(60, 100%, 73.5294117647%)" stroke-width="5"    stroke-linecap="round" stroke-linejoin="round" /><path d="M 251.460,-172.133 L 366.597,-172.133" fill="none" stroke="hsl(60, 100%, 73.5294117647%)" stroke-width="5"    stroke-linecap="round" stroke-linejoin="round" /><path d="M 251.460,-172.133 L 408.700,-103.280" fill="none" stroke="hsl(60, 100%, 73.5294117647%)" stroke-width="5"    stroke-linecap="round" stroke-linejoin="round" /><path d="M 124.840,-103.280 L 259.115,-0.000" fill="none" stroke="hsl(60, 100%, 73.5294117647%)" stroke-width="8"    stroke-linecap="round" stroke-linejoin="round" /><path d="M 259.115,-0.000 L 404.873,-34.427" fill="none" stroke="hsl(60, 100%, 73.5294117647%)" stroke-width="5"    stroke-linecap="round" stroke-linejoin="round" /><path d="M 259.115,-0.000 L 393.390,34.426" fill="none" stroke="hsl(60, 100%, 73.5294117647%)" stroke-width="5"    stroke-linecap="round" stroke-linejoin="round" /><path d="M 0.000,0.000 L -121.013,0.000" fill="none" stroke="hsl(80, 100%, 76.2745098039%)" stroke-width="11"    stroke-linecap="round" stroke-linejoin="round" /><path d="M -121.013,0.000 L -251.460,-68.853" fill="none" stroke="hsl(80, 100%, 76.2745098039%)" stroke-width="8"    stroke-linecap="round" stroke-linejoin="round" /><path d="M -251.460,-68.853 L -381.908,-103.279" fill="none" stroke="hsl(80, 100%, 76.2745098039%)" stroke-width="5"    stroke-linecap="round" stroke-linejoin="round" /><path d="M -251.460,-68.853 L -393.390,-34.426" fill="none" stroke="hsl(80, 100%, 76.2745098039%)" stroke-width="5"    stroke-linecap="round" stroke-linejoin="round" /><path d="M -121.013,0.000 L -255.288,68.853" fill="none" stroke="hsl(80, 100%, 76.2745098039%)" stroke-width="8"    stroke-linecap="round" stroke-linejoin="round" /><path d="M -255.288,68.853 L -401.045,34.426" fill="none" stroke="hsl(80, 100%, 76.2745098039%)" stroke-width="5"    stroke-linecap="round" stroke-linejoin="round" /><path d="M -255.288,68.853 L -381.908,103.279" fill="none" stroke="hsl(80, 100%, 76.2745098039%)" stroke-width="5"    stroke-linecap="round" stroke-linejoin="round" /><path d="M 0.000,0.000 L 117.916,172.133" fill="none" stroke="hsl(270, 100%, 76.2745098039%)" stroke-width="11"    stroke-linecap="round" stroke-linejoin="round" /><path d="M 117.916,172.133 L 237.611,103.280" fill="none" stroke="hsl(270, 100%, 76.2745098039%)" stroke-width="8"    stroke-linecap="round" stroke-linejoin="round" /><path d="M 117.916,172.133 L 241.439,172.132" fill="none" stroke="hsl(270, 100%, 76.2745098039%)" stroke-width="8"    stroke-linecap="round" stroke-linejoin="round" /><path d="M 117.916,172.133 L 256.749,240.985" fill="none" stroke="hsl(270, 100%, 76.2745098039%)" stroke-width="8"    stroke-linecap="round" stroke-linejoin="round" /><path d="M-167.51 8.13 v-16.25 q0,-8.80 8.80,-8.80 h75.40 q8.80,0 8.80,8.80 v16.25 q0,8.80 -8.80,8.80 h-75.40 q-8.80,0 -8.80,-8.80 Z" fill="hsl(80, 100%, 76.2745098039%)" stroke="none" stroke-width="0" stroke-linejoin="round" stroke-linecap="round"/><line x1="-167.51" y1="16.13" x2="-74.51" y2="16.13" stroke="hsl(260, 100%, 86.2745098039%)" stroke-width="3.00" stroke-opacity="0.35"/><text x="-121.01" y="4.00" text-anchor="middle" font-family="'trebuchet ms', verdana, arial, sans-serif" font-size="16" fill="black"><tspan x="-121.01" dy="0.00">Backend</tspan></text><path d="M198.77 111.41 v-16.25 q0,-8.80 8.80,-8.80 h60.09 q8.80,0 8.80,8.80 v16.25 q0,8.80 -8.80,8.80 h-60.09 q-8.80,0 -8.80,-8.80 Z" fill="hsl(270, 100%, 76.2745098039%)" stroke="none" stroke-width="0" stroke-linejoin="round" stroke-linecap="round"/><line x1="198.77" y1="119.41" x2="276.46" y2="119.41" stroke="hsl(90, 100%, 86.2745098039%)" stroke-width="3.00" stroke-opacity="0.35"/><text x="237.61" y="107.28" text-anchor="middle" font-family="'trebuchet ms', verdana, arial, sans-serif" font-size="16" fill="#ffffff"><tspan x="237.61" dy="0.00">CI/CD</tspan></text><path d="M343.06 -26.30 v-16.25 q0,-8.80 8.80,-8.80 h106.02 q8.80,0 8.80,8.80 v16.25 q0,8.80 -8.80,8.80 h-106.02 q-8.80,0 -8.80,-8.80 Z" fill="hsl(60, 100%, 73.5294117647%)" stroke="none" stroke-width="0" stroke-linejoin="round" stroke-linecap="round"/><line x1="343.06" y1="-18.30" x2="466.68" y2="-18.30" stroke="hsl(240, 100%, 83.5294117647%)" stroke-width="3.00" stroke-opacity="0.35"/><text x="404.87" y="-30.43" text-anchor="middle" font-family="'trebuchet ms', verdana, arial, sans-serif" font-size="16" fill="black"><tspan x="404.87" dy="0.00">CSS Modules</tspan></text><path d="M327.75 -232.86 v-16.25 q0,-8.80 8.80,-8.80 h98.36 q8.80,0 8.80,8.80 v16.25 q0,8.80 -8.80,8.80 h-98.36 q-8.80,0 -8.80,-8.80 Z" fill="hsl(60, 100%, 73.5294117647%)" stroke="none" stroke-width="0" stroke-linejoin="round" stroke-linecap="round"/><line x1="327.75" y1="-224.86" x2="443.72" y2="-224.86" stroke="hsl(240, 100%, 83.5294117647%)" stroke-width="3.00" stroke-opacity="0.35"/><text x="385.74" y="-236.99" text-anchor="middle" font-family="'trebuchet ms', verdana, arial, sans-serif" font-size="16" fill="black"><tspan x="385.74" dy="0.00">Components</tspan></text><path d="M-305.61 76.98 v-16.25 q0,-8.80 8.80,-8.80 h83.05 q8.80,0 8.80,8.80 v16.25 q0,8.80 -8.80,8.80 h-83.05 q-8.80,0 -8.80,-8.80 Z" fill="hsl(80, 100%, 76.2745098039%)" stroke="none" stroke-width="0" stroke-linejoin="round" stroke-linecap="round"/><line x1="-305.61" y1="84.98" x2="-204.96" y2="84.98" stroke="hsl(260, 100%, 86.2745098039%)" stroke-width="3.00" stroke-opacity="0.35"/><text x="-255.29" y="72.85" text-anchor="middle" font-family="'trebuchet ms', verdana, arial, sans-serif" font-size="16" fill="black"><tspan x="-255.29" dy="0.00">Database</tspan></text><path d="M74.51 180.26 v-16.25 q0,-8.80 8.80,-8.80 h69.20 q8.80,0 8.80,8.80 v16.25 q0,8.80 -8.80,8.80 h-69.20 q-8.80,0 -8.80,-8.80 Z" fill="hsl(270, 100%, 76.2745098039%)" stroke="none" stroke-width="0" stroke-linejoin="round" stroke-linecap="round"/><line x1="74.51" y1="188.26" x2="161.32" y2="188.26" stroke="hsl(90, 100%, 86.2745098039%)" stroke-width="3.00" stroke-opacity="0.35"/><text x="117.92" y="176.13" text-anchor="middle" font-family="'trebuchet ms', verdana, arial, sans-serif" font-size="16" fill="#ffffff"><tspan x="117.92" dy="0.00">DevOps</tspan></text><path d="M198.77 180.26 v-16.25 q0,-8.80 8.80,-8.80 h67.74 q8.80,0 8.80,8.80 v16.25 q0,8.80 -8.80,8.80 h-67.74 q-8.80,0 -8.80,-8.80 Z" fill="hsl(270, 100%, 76.2745098039%)" stroke="none" stroke-width="0" stroke-linejoin="round" stroke-linecap="round"/><line x1="198.77" y1="188.26" x2="284.11" y2="188.26" stroke="hsl(90, 100%, 86.2745098039%)" stroke-width="3.00" stroke-opacity="0.35"/><text x="241.44" y="176.13" text-anchor="middle" font-family="'trebuchet ms', verdana, arial, sans-serif" font-size="16" fill="#ffffff"><tspan x="241.44" dy="0.00">Docker</tspan></text><path d="M-428.41 -95.15 v-16.25 q0,-8.80 8.80,-8.80 h75.40 q8.80,0 8.80,8.80 v16.25 q0,8.80 -8.80,8.80 h-75.40 q-8.80,0 -8.80,-8.80 Z" fill="hsl(80, 100%, 76.2745098039%)" stroke="none" stroke-width="0" stroke-linejoin="round" stroke-linecap="round"/><line x1="-428.41" y1="-87.15" x2="-335.41" y2="-87.15" stroke="hsl(260, 100%, 86.2745098039%)" stroke-width="3.00" stroke-opacity="0.35"/><text x="-381.91" y="-99.28" text-anchor="middle" font-family="'trebuchet ms', verdana, arial, sans-serif" font-size="16" fill="black"><tspan x="-381.91" dy="0.00">Express</tspan></text><path d="M74.51 -95.15 v-16.25 q0,-8.80 8.80,-8.80 h83.05 q8.80,0 8.80,8.80 v16.25 q0,8.80 -8.80,8.80 h-83.05 q-8.80,0 -8.80,-8.80 Z" fill="hsl(60, 100%, 73.5294117647%)" stroke="none" stroke-width="0" stroke-linejoin="round" stroke-linecap="round"/><line x1="74.51" y1="-87.15" x2="175.17" y2="-87.15" stroke="hsl(240, 100%, 83.5294117647%)" stroke-width="3.00" stroke-opacity="0.35"/><text x="124.84" y="-99.28" text-anchor="middle" font-family="'trebuchet ms', verdana, arial, sans-serif" font-size="16" fill="black"><tspan x="124.84" dy="0.00">Frontend</tspan></text><path d="M327.75 -164.01 v-16.25 q0,-8.80 8.80,-8.80 h60.09 q8.80,0 8.80,8.80 v16.25 q0,8.80 -8.80,8.80 h-60.09 q-8.80,0 -8.80,-8.80 Z" fill="hsl(60, 100%, 73.5294117647%)" stroke="none" stroke-width="0" stroke-linejoin="round" stroke-linecap="round"/><line x1="327.75" y1="-156.01" x2="405.44" y2="-156.01" stroke="hsl(240, 100%, 83.5294117647%)" stroke-width="3.00" stroke-opacity="0.35"/><text x="366.60" y="-168.13" text-anchor="middle" font-family="'trebuchet ms', verdana, arial, sans-serif" font-size="16" fill="black"><tspan x="366.60" dy="0.00">Hooks</tspan></text><path d="M198.77 249.11 v-16.25 q0,-8.80 8.80,-8.80 h98.36 q8.80,0 8.80,8.80 v16.25 q0,8.80 -8.80,8.80 h-98.36 q-8.80,0 -8.80,-8.80 Z" fill="hsl(270, 100%, 76.2745098039%)" stroke="none" stroke-width="0" stroke-linejoin="round" stroke-linecap="round"/><line x1="198.77" y1="257.11" x2="314.73" y2="257.11" stroke="hsl(90, 100%, 86.2745098039%)" stroke-width="3.00" stroke-opacity="0.35"/><text x="256.75" y="244.99" text-anchor="middle" font-family="'trebuchet ms', verdana, arial, sans-serif" font-size="16" fill="#ffffff"><tspan x="256.75" dy="0.00">Kubernetes</tspan></text><path d="M-451.37 -26.30 v-16.25 q0,-8.80 8.80,-8.80 h98.36 q8.80,0 8.80,8.80 v16.25 q0,8.80 -8.80,8.80 h-98.36 q-8.80,0 -8.80,-8.80 Z" fill="hsl(80, 100%, 76.2745098039%)" stroke="none" stroke-width="0" stroke-linejoin="round" stroke-linecap="round"/><line x1="-451.37" y1="-18.30" x2="-335.41" y2="-18.30" stroke="hsl(260, 100%, 86.2745098039%)" stroke-width="3.00" stroke-opacity="0.35"/><text x="-393.39" y="-30.43" text-anchor="middle" font-family="'trebuchet ms', verdana, arial, sans-serif" font-size="16" fill="black"><tspan x="-393.39" dy="0.00">Middleware</tspan></text><path d="M-297.96 -60.73 v-16.25 q0,-8.80 8.80,-8.80 h75.40 q8.80,0 8.80,8.80 v16.25 q0,8.80 -8.80,8.80 h-75.40 q-8.80,0 -8.80,-8.80 Z" fill="hsl(80, 100%, 76.2745098039%)" stroke="none" stroke-width="0" stroke-linejoin="round" stroke-linecap="round"/><line x1="-297.96" y1="-52.73" x2="-204.96" y2="-52.73" stroke="hsl(260, 100%, 86.2745098039%)" stroke-width="3.00" stroke-opacity="0.35"/><text x="-251.46" y="-64.85" text-anchor="middle" font-family="'trebuchet ms', verdana, arial, sans-serif" font-size="16" fill="black"><tspan x="-251.46" dy="0.00">Node.js</tspan></text><path d="M-459.03 42.55 v-16.25 q0,-8.80 8.80,-8.80 h98.36 q8.80,0 8.80,8.80 v16.25 q0,8.80 -8.80,8.80 h-98.36 q-8.80,0 -8.80,-8.80 Z" fill="hsl(80, 100%, 76.2745098039%)" stroke="none" stroke-width="0" stroke-linejoin="round" stroke-linecap="round"/><line x1="-459.03" y1="50.55" x2="-343.06" y2="50.55" stroke="hsl(260, 100%, 86.2745098039%)" stroke-width="3.00" stroke-opacity="0.35"/><text x="-401.05" y="38.43" text-anchor="middle" font-family="'trebuchet ms', verdana, arial, sans-serif" font-size="16" fill="black"><tspan x="-401.05" dy="0.00">PostgreSQL</tspan></text><path d="M212.62 -164.01 v-16.25 q0,-8.80 8.80,-8.80 h60.09 q8.80,0 8.80,8.80 v16.25 q0,8.80 -8.80,8.80 h-60.09 q-8.80,0 -8.80,-8.80 Z" fill="hsl(60, 100%, 73.5294117647%)" stroke="none" stroke-width="0" stroke-linejoin="round" stroke-linecap="round"/><line x1="212.62" y1="-156.01" x2="290.30" y2="-156.01" stroke="hsl(240, 100%, 83.5294117647%)" stroke-width="3.00" stroke-opacity="0.35"/><text x="251.46" y="-168.13" text-anchor="middle" font-family="'trebuchet ms', verdana, arial, sans-serif" font-size="16" fill="black"><tspan x="251.46" dy="0.00">React</tspan></text><path d="M-420.75 111.41 v-16.25 q0,-8.80 8.80,-8.80 h60.09 q8.80,0 8.80,8.80 v16.25 q0,8.80 -8.80,8.80 h-60.09 q-8.80,0 -8.80,-8.80 Z" fill="hsl(80, 100%, 76.2745098039%)" stroke="none" stroke-width="0" stroke-linejoin="round" stroke-linecap="round"/><line x1="-420.75" y1="119.41" x2="-343.06" y2="119.41" stroke="hsl(260, 100%, 86.2745098039%)" stroke-width="3.00" stroke-opacity="0.35"/><text x="-381.91" y="107.28" text-anchor="middle" font-family="'trebuchet ms', verdana, arial, sans-serif" font-size="16" fill="black"><tspan x="-381.91" dy="0.00">Redis</tspan></text><path d="M327.75 -95.15 v-16.25 q0,-8.80 8.80,-8.80 h144.29 q8.80,0 8.80,8.80 v16.25 q0,8.80 -8.80,8.80 h-144.29 q-8.80,0 -8.80,-8.80 Z" fill="hsl(60, 100%, 73.5294117647%)" stroke="none" stroke-width="0" stroke-linejoin="round" stroke-linecap="round"/><line x1="327.75" y1="-87.15" x2="489.65" y2="-87.15" stroke="hsl(240, 100%, 83.5294117647%)" stroke-width="3.00" stroke-opacity="0.35"/><text x="408.70" y="-99.28" text-anchor="middle" font-family="'trebuchet ms', verdana, arial, sans-serif" font-size="16" fill="black"><tspan x="408.70" dy="0.00">State Management</tspan></text><path d="M212.62 8.13 v-16.25 q0,-8.80 8.80,-8.80 h75.40 q8.80,0 8.80,8.80 v16.25 q0,8.80 -8.80,8.80 h-75.40 q-8.80,0 -8.80,-8.80 Z" fill="hsl(60, 100%, 73.5294117647%)" stroke="none" stroke-width="0" stroke-linejoin="round" stroke-linecap="round"/><line x1="212.62" y1="16.13" x2="305.61" y2="16.13" stroke="hsl(240, 100%, 83.5294117647%)" stroke-width="3.00" stroke-opacity="0.35"/><text x="259.12" y="4.00" text-anchor="middle" font-family="'trebuchet ms', verdana, arial, sans-serif" font-size="16" fill="black"><tspan x="259.12" dy="0.00">Styling</tspan></text><path d="M343.06 42.55 v-16.25 q0,-8.80 8.80,-8.80 h83.05 q8.80,0 8.80,8.80 v16.25 q0,8.80 -8.80,8.80 h-83.05 q-8.80,0 -8.80,-8.80 Z" fill="hsl(60, 100%, 73.5294117647%)" stroke="none" stroke-width="0" stroke-linejoin="round" stroke-linecap="round"/><line x1="343.06" y1="50.55" x2="443.72" y2="50.55" stroke="hsl(240, 100%, 83.5294117647%)" stroke-width="3.00" stroke-opacity="0.35"/><text x="393.39" y="38.43" text-anchor="middle" font-family="'trebuchet ms', verdana, arial, sans-serif" font-size="16" fill="black"><tspan x="393.39" dy="0.00">Tailwind</tspan></text><circle cx="0.00" cy="0.00" r="37.06" fill="hsl(240, 100%, 46.2745098039%)" stroke="none" stroke-width="0" stroke-linejoin="round" stroke-linecap="round"/><text x="0.00" y="4.00" text-anchor="middle" font-family="'trebuchet ms', verdana, arial, sans-serif" font-size="16" fill="#ffffff"><tspan x="0.00" dy="0.00">Project</tspan></text></svg>