<svg xmlns="http://www.w3.org/2000/svg" width="100%" viewBox="-351.39447 -35.434155 533.3262 70.86831" style="max-width: 533.326px;"><rect x="-351.39447" y="-35.434155" width="533.3262" height="70.86831" fill="#FFFFFF"/><defs><marker id="arrow-0" viewBox="0 0 10 10" refX="5" refY="5" markerUnits="userSpaceOnUse" markerWidth="8" markerHeight="8" orient="auto"><path d="M 0 0 L 10 5 L 0 10 z" fill="#333333" stroke="#333333" stroke-width="1" stroke-dasharray="1,0"/></marker><marker id="arrow-start-0" viewBox="0 0 10 10" refX="4.5" refY="5" markerUnits="userSpaceOnUse" markerWidth="8" markerHeight="8" orient="auto"><path d="M 0 5 L 10 10 L 10 0 z" fill="#333333" stroke="#333333" stroke-width="1" stroke-dasharray="1,0"/></marker><marker id="arrow-1" viewBox="0 0 10 10" refX="5" refY="5" markerUnits="userSpaceOnUse" markerWidth="8" markerHeight="8" orient="auto"><path d="M 0 0 L 10 5 L 0 10 z" fill="hsl(60, 100%, 73.5294117647%)" stroke="hsl(60, 100%, 73.5294117647%)" stroke-width="1" stroke-dasharray="1,0"/></marker><marker id="arrow-start-1" viewBox="0 0 10 10" refX="4.5" refY="5" markerUnits="userSpaceOnUse" markerWidth="8" markerHeight="8" orient="auto"><path d="M 0 5 L 10 10 L 10 0 z" fill="hsl(60, 100%, 73.5294117647%)" stroke="hsl(60, 100%, 73.5294117647%)" stroke-width="1" stroke-dasharray="1,0"/></marker><marker id="arrow-2" viewBox="0 0 10 10" refX="5" refY="5" markerUnits="userSpaceOnUse" markerWidth="8" markerHeight="8" orient="auto"><path d="M 0 0 L 10 5 L 0 10 z" fill="hsl(80, 100%, 76.2745098039%)" stroke="hsl(80, 100%, 76.2745098039%)" stroke-width="1" stroke-dasharray="1,0"/></marker><marker id="arrow-start-2" viewBox="0 0 10 10" refX="4.5" refY="5" markerUnits="userSpaceOnUse" markerWidth="8" markerHeight="8" orient="auto"><path d="M 0 5 L 10 10 L 10 0 z" fill="hsl(80, 100%, 76.2745098039%)" stroke="hsl(80, 100%, 76.2745098039%)" stroke-width="1" stroke-dasharray="1,0"/></marker></defs><path d="M 0.000,0.000 L 125.580,0.000" fill="none" stroke="hsl(60, 100%, 73.5294117647%)" stroke-width="11"    stroke-linecap="round" stroke-linejoin="round" /><path d="M 0.000,0.000 L -125.580,0.000" fill="none" stroke="hsl(80, 100%, 76.2745098039%)" stroke-width="11"    stroke-linecap="round" stroke-linejoin="round" /><path d="M -125.580,0.000 L -283.560,0.000" fill="none" stroke="hsl(80, 100%, 76.2745098039%)" stroke-width="8"    stroke-linecap="round" stroke-linejoin="round" /><path d="M79.08 11.93 v-23.85 q0,-5.00 5.00,-5.00 h83.00 q5.00,0 5.00,5.00 v23.85 q0,5.00 -5.00,5.00 h-83.00 q-5.00,0 -5.00,-5.00 Z" fill="hsl(60, 100%, 73.5294117647%)" stroke="none" stroke-width="0" stroke-linejoin="round" stroke-linecap="round"/><line x1="79.08" y1="16.93" x2="172.08" y2="16.93" stroke="hsl(240, 100%, 83.5294117647%)" stroke-width="3.00"/><text x="125.58" y="4.00" text-anchor="middle" font-family="'trebuchet ms', verdana, arial, sans-serif" font-size="16" fill="black"><tspan x="125.58" dy="0.00">Child A</tspan></text><path d="M-172.08 11.93 v-23.85 q0,-5.00 5.00,-5.00 h83.00 q5.00,0 5.00,5.00 v23.85 q0,5.00 -5.00,5.00 h-83.00 q-5.00,0 -5.00,-5.00 Z" fill="hsl(80, 100%, 76.2745098039%)" stroke="none" stroke-width="0" stroke-linejoin="round" stroke-linecap="round"/><line x1="-172.08" y1="16.93" x2="-79.08" y2="16.93" stroke="hsl(260, 100%, 86.2745098039%)" stroke-width="3.00"/><text x="-125.58" y="4.00" text-anchor="middle" font-family="'trebuchet ms', verdana, arial, sans-serif" font-size="16" fill="black"><tspan x="-125.58" dy="0.00">Child B</tspan></text><path d="M-341.54 11.93 v-23.85 q0,-5.00 5.00,-5.00 h105.96 q5.00,0 5.00,5.00 v23.85 q0,5.00 -5.00,5.00 h-105.96 q-5.00,0 -5.00,-5.00 Z" fill="hsl(80, 100%, 76.2745098039%)" stroke="none" stroke-width="0" stroke-linejoin="round" stroke-linecap="round"/><line x1="-341.54" y1="16.93" x2="-225.58" y2="16.93" stroke="hsl(260, 100%, 86.2745098039%)" stroke-width="3.00"/><text x="-283.56" y="4.00" text-anchor="middle" font-family="'trebuchet ms', verdana, arial, sans-serif" font-size="16" fill="black"><tspan x="-283.56" dy="0.00">Grandchild</tspan></text><circle cx="0.00" cy="0.00" r="25.58" fill="hsl(240, 100%, 46.2745098039%)" stroke="none" stroke-width="0" stroke-linejoin="round" stroke-linecap="round"/><text x="0.00" y="4.00" text-anchor="middle" font-family="'trebuchet ms', verdana, arial, sans-serif" font-size="16" fill="#ffffff"><tspan x="0.00" dy="0.00">Root</tspan></text></svg>