<svg xmlns="http://www.w3.org/2000/svg" width="100%" viewBox="-270.82 -36.843998 541.63995 73.687996" style="max-width: 541.640px;"><rect x="-270.82" y="-36.843998" width="541.63995" height="73.687996" fill="#FFFFFF"/><defs><marker id="arrow-0" viewBox="0 0 10 10" refX="5" refY="5" markerUnits="userSpaceOnUse" markerWidth="8" markerHeight="8" orient="auto"><path d="M 0 0 L 10 5 L 0 10 z" fill="#333333"/></marker><marker id="arrow-start-0" viewBox="0 0 10 10" refX="4.5" refY="5" markerUnits="userSpaceOnUse" markerWidth="8" markerHeight="8" orient="auto"><path d="M 0 5 L 10 10 L 10 0 z" fill="#333333"/></marker><marker id="arrow-1" viewBox="0 0 10 10" refX="5" refY="5" markerUnits="userSpaceOnUse" markerWidth="8" markerHeight="8" orient="auto"><path d="M 0 0 L 10 5 L 0 10 z" fill="hsl(60, 100%, 73.5294117647%)"/></marker><marker id="arrow-start-1" viewBox="0 0 10 10" refX="4.5" refY="5" markerUnits="userSpaceOnUse" markerWidth="8" markerHeight="8" orient="auto"><path d="M 0 5 L 10 10 L 10 0 z" fill="hsl(60, 100%, 73.5294117647%)"/></marker><marker id="arrow-2" viewBox="0 0 10 10" refX="5" refY="5" markerUnits="userSpaceOnUse" markerWidth="8" markerHeight="8" orient="auto"><path d="M 0 0 L 10 5 L 0 10 z" fill="hsl(80, 100%, 76.2745098039%)"/></marker><marker id="arrow-start-2" viewBox="0 0 10 10" refX="4.5" refY="5" markerUnits="userSpaceOnUse" markerWidth="8" markerHeight="8" orient="auto"><path d="M 0 5 L 10 10 L 10 0 z" fill="hsl(80, 100%, 76.2745098039%)"/></marker></defs><path d="M 87.06 0.00 L 214.26 0.00" fill="none" stroke="hsl(60, 100%, 73.5294117647%)" stroke-width="11"    stroke-linecap="round" stroke-linejoin="round" /><path d="M 87.06 0.00 L -40.10 0.00" fill="none" stroke="hsl(80, 100%, 76.2745098039%)" stroke-width="11"    stroke-linecap="round" stroke-linejoin="round" /><path d="M -40.10 0.00 L -200.62 0.00" fill="none" stroke="hsl(80, 100%, 76.2745098039%)" stroke-width="8"    stroke-linecap="round" stroke-linejoin="round" /><path d="M167.55 11.93 v-23.85 q0,-5.00 5.00,-5.00 h83.41 q5.00,0 5.00,5.00 v23.85 q0,5.00 -5.00,5.00 h-83.41 q-5.00,0 -5.00,-5.00 Z" fill="hsl(60, 100%, 73.5294117647%)" stroke="none" stroke-width="0" stroke-linejoin="round" stroke-linecap="round"/><line x1="167.55" y1="16.93" x2="260.97" y2="16.93" stroke="hsl(240, 100%, 83.5294117647%)" stroke-width="3.00"/><text x="214.26" y="4.00" text-anchor="middle" font-family="'trebuchet ms', verdana, arial, sans-serif" font-size="16" fill="black"><tspan x="214.26" dy="0.00">Child A</tspan></text><path d="M-86.78 11.93 v-23.85 q0,-5.00 5.00,-5.00 h83.35 q5.00,0 5.00,5.00 v23.85 q0,5.00 -5.00,5.00 h-83.35 q-5.00,0 -5.00,-5.00 Z" fill="hsl(80, 100%, 76.2745098039%)" stroke="none" stroke-width="0" stroke-linejoin="round" stroke-linecap="round"/><line x1="-86.78" y1="16.93" x2="6.57" y2="16.93" stroke="hsl(260, 100%, 86.2745098039%)" stroke-width="3.00"/><text x="-40.10" y="4.00" text-anchor="middle" font-family="'trebuchet ms', verdana, arial, sans-serif" font-size="16" fill="black"><tspan x="-40.10" dy="0.00">Child B</tspan></text><path d="M-260.97 11.93 v-23.85 q0,-5.00 5.00,-5.00 h110.69 q5.00,0 5.00,5.00 v23.85 q0,5.00 -5.00,5.00 h-110.69 q-5.00,0 -5.00,-5.00 Z" fill="hsl(80, 100%, 76.2745098039%)" stroke="none" stroke-width="0" stroke-linejoin="round" stroke-linecap="round"/><line x1="-260.97" y1="16.93" x2="-140.28" y2="16.93" stroke="hsl(260, 100%, 86.2745098039%)" stroke-width="3.00"/><text x="-200.62" y="4.00" text-anchor="middle" font-family="'trebuchet ms', verdana, arial, sans-serif" font-size="16" fill="black"><tspan x="-200.62" dy="0.00">Grandchild</tspan></text><circle cx="87.06" cy="0.00" r="26.99" fill="hsl(240, 100%, 46.2745098039%)" stroke="none" stroke-width="0" stroke-linejoin="round" stroke-linecap="round"/><text x="87.06" y="4.00" text-anchor="middle" font-family="'trebuchet ms', verdana, arial, sans-serif" font-size="16" fill="#ffffff"><tspan x="87.06" dy="0.00">Root</tspan></text></svg>