<svg xmlns="http://www.w3.org/2000/svg" width="100%" viewBox="0 0 586.409 450" style="max-width: 586.409px;"><rect x="0" y="0" width="586.409" height="450" fill="#FFFFFF"/><defs><marker id="arrow-0" viewBox="0 0 10 10" refX="5" refY="5" markerUnits="userSpaceOnUse" markerWidth="8" markerHeight="8" orient="auto"><path d="M 0 0 L 10 5 L 0 10 z" fill="#333333"/></marker><marker id="arrow-start-0" viewBox="0 0 10 10" refX="4.5" refY="5" markerUnits="userSpaceOnUse" markerWidth="8" markerHeight="8" orient="auto"><path d="M 0 5 L 10 10 L 10 0 z" fill="#333333"/></marker></defs><path d="M 225.00 225.00 L 410.00 225.00 A 185.00 185.00 0 1 1 132.50 64.79 Z" fill="#ECECFF" stroke="#000000" stroke-width="2.000" opacity="0.700"/><path d="M 225.00 225.00 L 132.50 64.79 A 185.00 185.00 0 0 1 410.00 225.00 Z" fill="#FFFFDE" stroke="#000000" stroke-width="2.000" opacity="0.700"/><circle cx="225.00" cy="225.00" r="186.00" fill="none" stroke="#000000" stroke-width="2.000"/><text x="155.62" y="345.16" text-anchor="middle" font-family="'trebuchet ms', verdana, arial, sans-serif" font-size="17" fill="#333">67%</text><text x="294.38" y="104.84" text-anchor="middle" font-family="'trebuchet ms', verdana, arial, sans-serif" font-size="17" fill="#333">33%</text><rect x="441.00" y="203.00" width="18.00" height="18.00" fill="#ECECFF" stroke="#ECECFF" stroke-width="2.000"/><text x="463.00" y="217.00" text-anchor="start" font-family="'trebuchet ms', verdana, arial, sans-serif" font-size="17" fill="#333"><tspan x="463.00" dy="0.00">Dogs [10]</tspan></text><rect x="441.00" y="225.00" width="18.00" height="18.00" fill="#FFFFDE" stroke="#FFFFDE" stroke-width="2.000"/><text x="463.00" y="239.00" text-anchor="start" font-family="'trebuchet ms', verdana, arial, sans-serif" font-size="17" fill="#333"><tspan x="463.00" dy="0.00">Cats [5]</tspan></text><text x="225.00" y="25.00" text-anchor="middle" font-family="'trebuchet ms', verdana, arial, sans-serif" font-size="25" fill="#333"><tspan x="225.00" dy="0.00">Pets</tspan></text></svg>