<svg xmlns="http://www.w3.org/2000/svg" width="100%" viewBox="0 0 466.46872 360" style="max-width: 466.469px;"><rect x="0" y="0" width="466.46872" height="360" fill="#FFFFFF"/><defs><marker id="arrow-0" viewBox="0 0 10 10" refX="5" refY="5" markerUnits="userSpaceOnUse" markerWidth="8" markerHeight="8" orient="auto"><path d="M 0 0 L 10 5 L 0 10 z" fill="#2F3B4D" stroke="#2F3B4D" stroke-width="1" stroke-dasharray="1,0"/></marker><marker id="arrow-start-0" viewBox="0 0 10 10" refX="4.5" refY="5" markerUnits="userSpaceOnUse" markerWidth="8" markerHeight="8" orient="auto"><path d="M 0 5 L 10 10 L 10 0 z" fill="#2F3B4D" stroke="#2F3B4D" stroke-width="1" stroke-dasharray="1,0"/></marker></defs><path d="M 180.00 180.00 L 332.00 180.00 A 152.00 152.00 0 1 1 90.66 57.03 Z" fill="#ECECFF" stroke="#FFFFFF" stroke-width="2.000" opacity="0.700"/><path d="M 180.00 180.00 L 90.66 57.03 A 152.00 152.00 0 0 1 261.45 51.66 Z" fill="#FFFFDE" stroke="#FFFFFF" stroke-width="2.000" opacity="0.700"/><path d="M 180.00 180.00 L 261.45 51.66 A 152.00 152.00 0 0 1 297.12 83.11 Z" fill="#ECECFF" stroke="#FFFFFF" stroke-width="2.000" opacity="0.700"/><path d="M 180.00 180.00 L 297.12 83.11 A 152.00 152.00 0 0 1 317.53 115.28 Z" fill="hsl(240.0000000000, 99.9999237061%, 86.2745056152%)" stroke="#FFFFFF" stroke-width="2.000" opacity="0.700"/><path d="M 180.00 180.00 L 317.53 115.28 A 152.00 152.00 0 0 1 329.31 151.52 Z" fill="hsl(60.0000000000, 100.0000000000%, 83.5294189453%)" stroke="#FFFFFF" stroke-width="2.000" opacity="0.700"/><path d="M 180.00 180.00 L 329.31 151.52 A 152.00 152.00 0 0 1 332.00 180.00 Z" fill="hsl(240.0000000000, 99.9999237061%, 86.2745056152%)" stroke="#FFFFFF" stroke-width="2.000" opacity="0.700"/><circle cx="180.00" cy="180.00" r="153.00" fill="none" stroke="#000000" stroke-width="2.000"/><text x="128.25" y="281.57" text-anchor="middle" dominant-baseline="middle" font-family="'trebuchet ms', verdana, arial, sans-serif" font-size="17" fill="#333">65%</text><text x="176.42" y="66.06" text-anchor="middle" dominant-baseline="middle" font-family="'trebuchet ms', verdana, arial, sans-serif" font-size="17" fill="#333">19%</text><path d="M 280.52,65.98 L 353.36,45.46 L 359.36,45.46" fill="none" stroke="#ECECFF" stroke-width="1"/><rect x="353.41" y="32.71" width="46.77" height="25.50" rx="2" ry="2" fill="rgba(248,250,252, 0.92)" stroke="none"/><text x="359.36" y="45.46" text-anchor="start" dominant-baseline="middle" font-family="'trebuchet ms', verdana, arial, sans-serif" font-size="17" fill="#333">Other</text><path d="M 308.34,98.55 L 353.36,83.89 L 359.36,83.89" fill="none" stroke="hsl(240.0000000000, 99.9999237061%, 86.2745056152%)" stroke-width="1"/><rect x="353.41" y="71.14" width="54.50" height="25.50" rx="2" ry="2" fill="rgba(248,250,252, 0.92)" stroke="none"/><text x="359.36" y="83.89" text-anchor="start" dominant-baseline="middle" font-family="'trebuchet ms', verdana, arial, sans-serif" font-size="17" fill="#333">Firefox</text><path d="M 324.56,133.03 L 353.36,124.57 L 359.36,124.57" fill="none" stroke="hsl(60.0000000000, 100.0000000000%, 83.5294189453%)" stroke-width="1"/><rect x="353.41" y="111.82" width="44.46" height="25.50" rx="2" ry="2" fill="rgba(248,250,252, 0.92)" stroke="none"/><text x="359.36" y="124.57" text-anchor="start" dominant-baseline="middle" font-family="'trebuchet ms', verdana, arial, sans-serif" font-size="17" fill="#333">Edge</text><path d="M 331.33,165.70 L 353.36,163.12 L 359.36,163.12" fill="none" stroke="hsl(240.0000000000, 99.9999237061%, 86.2745056152%)" stroke-width="1"/><rect x="353.41" y="150.37" width="50.64" height="25.50" rx="2" ry="2" fill="rgba(248,250,252, 0.92)" stroke="none"/><text x="359.36" y="163.12" text-anchor="start" dominant-baseline="middle" font-family="'trebuchet ms', verdana, arial, sans-serif" font-size="17" fill="#333">Opera</text><rect x="348.80" y="129.00" width="14.00" height="14.00" fill="#ECECFF" stroke="#ECECFF" stroke-width="2.000"/><text x="365.80" y="136.00" text-anchor="start" font-family="'trebuchet ms', verdana, arial, sans-serif" font-size="17" fill="#333"><tspan x="365.80" dy="0.00">Chrome [65]</tspan></text><rect x="348.80" y="146.00" width="14.00" height="14.00" fill="#FFFFDE" stroke="#FFFFDE" stroke-width="2.000"/><text x="365.80" y="153.00" text-anchor="start" font-family="'trebuchet ms', verdana, arial, sans-serif" font-size="17" fill="#333"><tspan x="365.80" dy="0.00">Safari [19]</tspan></text><rect x="348.80" y="163.00" width="14.00" height="14.00" fill="hsl(240.0000000000, 99.9999237061%, 86.2745056152%)" stroke="hsl(240.0000000000, 99.9999237061%, 86.2745056152%)" stroke-width="2.000"/><text x="365.80" y="170.00" text-anchor="start" font-family="'trebuchet ms', verdana, arial, sans-serif" font-size="17" fill="#333"><tspan x="365.80" dy="0.00">Firefox [4]</tspan></text><rect x="348.80" y="180.00" width="14.00" height="14.00" fill="hsl(60.0000000000, 100.0000000000%, 83.5294189453%)" stroke="hsl(60.0000000000, 100.0000000000%, 83.5294189453%)" stroke-width="2.000"/><text x="365.80" y="187.00" text-anchor="start" font-family="'trebuchet ms', verdana, arial, sans-serif" font-size="17" fill="#333"><tspan x="365.80" dy="0.00">Edge [4]</tspan></text><rect x="348.80" y="197.00" width="14.00" height="14.00" fill="hsl(240.0000000000, 99.9999237061%, 86.2745056152%)" stroke="hsl(240.0000000000, 99.9999237061%, 86.2745056152%)" stroke-width="2.000"/><text x="365.80" y="204.00" text-anchor="start" font-family="'trebuchet ms', verdana, arial, sans-serif" font-size="17" fill="#333"><tspan x="365.80" dy="0.00">Opera [3]</tspan></text><rect x="348.80" y="214.00" width="14.00" height="14.00" fill="#ECECFF" stroke="#ECECFF" stroke-width="2.000"/><text x="365.80" y="221.00" text-anchor="start" font-family="'trebuchet ms', verdana, arial, sans-serif" font-size="17" fill="#333"><tspan x="365.80" dy="0.00">Other [5]</tspan></text><text x="180.00" y="25.00" text-anchor="middle" font-family="'trebuchet ms', verdana, arial, sans-serif" font-size="25" fill="#333"><tspan x="180.00" dy="0.00">Browser Market Share</tspan></text></svg>