<svg xmlns="http://www.w3.org/2000/svg" width="486.40002" height="510.40002" viewBox="0 0 486.40002 510.40002"><rect x="0" y="0" width="486.40002" height="510.40002" fill="#FFFFFF"/><defs><marker id="arrow-0" viewBox="0 0 10 10" refX="5" refY="5" markerUnits="userSpaceOnUse" markerWidth="8" markerHeight="8" orient="auto"><path d="M 0 0 L 10 5 L 0 10 z" fill="#333333" stroke="#333333" stroke-width="1" stroke-dasharray="1,0"/></marker><marker id="arrow-start-0" viewBox="0 0 10 10" refX="4.5" refY="5" markerUnits="userSpaceOnUse" markerWidth="8" markerHeight="8" orient="auto"><path d="M 0 5 L 10 10 L 10 0 z" fill="#333333" stroke="#333333" stroke-width="1" stroke-dasharray="1,0"/></marker></defs><rect x="255.20" y="75.20" width="180.00" height="180.00" fill="#ECECFF"/><rect x="75.20" y="75.20" width="180.00" height="180.00" fill="#f1f1ff"/><rect x="75.20" y="255.20" width="180.00" height="180.00" fill="#f6f6ff"/><rect x="255.20" y="255.20" width="180.00" height="180.00" fill="#fbfbff"/><rect x="75.20" y="75.20" width="360.00" height="360.00" fill="none" stroke="#c7c7f1" stroke-width="2"/><line x1="255.20" y1="75.20" x2="255.20" y2="435.20" stroke="#c7c7f1" stroke-width="1"/><line x1="75.20" y1="255.20" x2="435.20" y2="255.20" stroke="#c7c7f1" stroke-width="1"/><text x="255.20" y="28.80" text-anchor="middle" font-family="'trebuchet ms', verdana, arial, sans-serif" font-size="16" fill="#333333"><tspan x="255.20" dy="0.00">Sample</tspan></text><text x="345.20" y="94.20" text-anchor="middle" font-family="'trebuchet ms', verdana, arial, sans-serif" font-size="16" fill="#131300"><tspan x="345.20" dy="0.00">Execute</tspan></text><text x="165.20" y="94.20" text-anchor="middle" font-family="'trebuchet ms', verdana, arial, sans-serif" font-size="16" fill="#131300"><tspan x="165.20" dy="0.00">Expand</tspan></text><text x="165.20" y="274.20" text-anchor="middle" font-family="'trebuchet ms', verdana, arial, sans-serif" font-size="16" fill="#131300"><tspan x="165.20" dy="0.00">Monitor</tspan></text><text x="345.20" y="274.20" text-anchor="middle" font-family="'trebuchet ms', verdana, arial, sans-serif" font-size="16" fill="#131300"><tspan x="345.20" dy="0.00">Re-evaluate</tspan></text><text x="165.20" y="459.20" text-anchor="middle" font-family="'trebuchet ms', verdana, arial, sans-serif" font-size="16" fill="#131300"><tspan x="165.20" dy="0.00">Low Reach</tspan></text><text x="345.20" y="459.20" text-anchor="middle" font-family="'trebuchet ms', verdana, arial, sans-serif" font-size="16" fill="#131300"><tspan x="345.20" dy="0.00">High Reach</tspan></text><text x="60.20" y="345.20" text-anchor="middle" transform="rotate(-90 60.20 345.20)" font-family="'trebuchet ms', verdana, arial, sans-serif" font-size="16" fill="#131300"><tspan>Low Engagement</tspan></text><text x="60.20" y="165.20" text-anchor="middle" transform="rotate(-90 60.20 165.20)" font-family="'trebuchet ms', verdana, arial, sans-serif" font-size="16" fill="#131300"><tspan>High Engagement</tspan></text><circle cx="147.20" cy="147.20" r="5" fill="#6366f1" stroke="#6366f1" stroke-width="1"/><text x="147.20" y="166.20" text-anchor="middle" font-family="'trebuchet ms', verdana, arial, sans-serif" font-size="16" fill="#131300"><tspan x="147.20" dy="0.00">A</tspan></text><circle cx="327.20" cy="327.20" r="5" fill="#f59e0b" stroke="#f59e0b" stroke-width="1"/><text x="327.20" y="346.20" text-anchor="middle" font-family="'trebuchet ms', verdana, arial, sans-serif" font-size="16" fill="#131300"><tspan x="327.20" dy="0.00">B</tspan></text></svg>