<svg xmlns="http://www.w3.org/2000/svg" width="552" height="576" viewBox="0 0 552 576"><rect x="0" y="0" width="552" height="576" fill="#FFFFFF"/><defs><marker id="arrow-0" viewBox="0 0 10 10" refX="5" refY="5" markerUnits="userSpaceOnUse" markerWidth="8" markerHeight="8" orient="auto"><path d="M 0 0 L 10 5 L 0 10 z" fill="#333333"/></marker><marker id="arrow-start-0" viewBox="0 0 10 10" refX="4.5" refY="5" markerUnits="userSpaceOnUse" markerWidth="8" markerHeight="8" orient="auto"><path d="M 0 5 L 10 10 L 10 0 z" fill="#333333"/></marker></defs><rect x="288.00" y="88.00" width="200.00" height="200.00" fill="#ECECFF"/><rect x="88.00" y="88.00" width="200.00" height="200.00" fill="#f1f1ff"/><rect x="88.00" y="288.00" width="200.00" height="200.00" fill="#f6f6ff"/><rect x="288.00" y="288.00" width="200.00" height="200.00" fill="#fbfbff"/><rect x="88.00" y="88.00" width="400.00" height="400.00" fill="none" stroke="#c7c7f1" stroke-width="2"/><line x1="288.00" y1="88.00" x2="288.00" y2="488.00" stroke="#c7c7f1" stroke-width="1"/><line x1="88.00" y1="288.00" x2="488.00" y2="288.00" stroke="#c7c7f1" stroke-width="1"/><text x="288.00" y="32.00" text-anchor="middle" font-family="'trebuchet ms', verdana, arial, sans-serif" font-size="16" fill="#333333"><tspan x="288.00" dy="0.00">Sample</tspan></text><text x="388.00" y="107.00" text-anchor="middle" font-family="'trebuchet ms', verdana, arial, sans-serif" font-size="16" fill="#131300"><tspan x="388.00" dy="0.00">Execute</tspan></text><text x="188.00" y="107.00" text-anchor="middle" font-family="'trebuchet ms', verdana, arial, sans-serif" font-size="16" fill="#131300"><tspan x="188.00" dy="0.00">Expand</tspan></text><text x="188.00" y="307.00" text-anchor="middle" font-family="'trebuchet ms', verdana, arial, sans-serif" font-size="16" fill="#131300"><tspan x="188.00" dy="0.00">Monitor</tspan></text><text x="388.00" y="307.00" text-anchor="middle" font-family="'trebuchet ms', verdana, arial, sans-serif" font-size="16" fill="#131300"><tspan x="388.00" dy="0.00">Re-evaluate</tspan></text><text x="188.00" y="512.00" text-anchor="middle" font-family="'trebuchet ms', verdana, arial, sans-serif" font-size="16" fill="#131300"><tspan x="188.00" dy="0.00">Low Reach</tspan></text><text x="388.00" y="512.00" text-anchor="middle" font-family="'trebuchet ms', verdana, arial, sans-serif" font-size="16" fill="#131300"><tspan x="388.00" dy="0.00">High Reach</tspan></text><text x="73.00" y="388.00" text-anchor="middle" transform="rotate(-90 73.00 388.00)" font-family="'trebuchet ms', verdana, arial, sans-serif" font-size="16" fill="#131300"><tspan>Low Engagement</tspan></text><text x="73.00" y="188.00" text-anchor="middle" transform="rotate(-90 73.00 188.00)" font-family="'trebuchet ms', verdana, arial, sans-serif" font-size="16" fill="#131300"><tspan>High Engagement</tspan></text><circle cx="168.00" cy="168.00" r="5" fill="#6366f1" stroke="#6366f1" stroke-width="1"/><text x="168.00" y="187.00" text-anchor="middle" font-family="'trebuchet ms', verdana, arial, sans-serif" font-size="16" fill="#131300"><tspan x="168.00" dy="0.00">A</tspan></text><circle cx="368.00" cy="368.00" r="5" fill="#f59e0b" stroke="#f59e0b" stroke-width="1"/><text x="368.00" y="387.00" text-anchor="middle" font-family="'trebuchet ms', verdana, arial, sans-serif" font-size="16" fill="#131300"><tspan x="368.00" dy="0.00">B</tspan></text></svg>