<svg xmlns="http://www.w3.org/2000/svg" width="583.5801" height="630" viewBox="0 0 583.5801 630"><rect x="0" y="0" width="583.5801" height="630" fill="#FFFFFF"/><defs><marker id="arrow-0" viewBox="0 0 10 10" refX="5" refY="5" markerUnits="userSpaceOnUse" markerWidth="8" markerHeight="8" orient="auto"><path d="M 0 0 L 10 5 L 0 10 z" fill="#2F3B4D" stroke="#2F3B4D" stroke-width="1" stroke-dasharray="1,0"/></marker><marker id="arrow-start-0" viewBox="0 0 10 10" refX="4.5" refY="5" markerUnits="userSpaceOnUse" markerWidth="8" markerHeight="8" orient="auto"><path d="M 0 5 L 10 10 L 10 0 z" fill="#2F3B4D" stroke="#2F3B4D" stroke-width="1" stroke-dasharray="1,0"/></marker><marker id="arrow-1" viewBox="0 0 10 10" refX="5" refY="5" markerUnits="userSpaceOnUse" markerWidth="8" markerHeight="8" orient="auto"><path d="M 0 0 L 10 5 L 0 10 z" fill="#333333" stroke="#333333" stroke-width="1" stroke-dasharray="1,0"/></marker><marker id="arrow-start-1" viewBox="0 0 10 10" refX="4.5" refY="5" markerUnits="userSpaceOnUse" markerWidth="8" markerHeight="8" orient="auto"><path d="M 0 5 L 10 10 L 10 0 z" fill="#333333" stroke="#333333" stroke-width="1" stroke-dasharray="1,0"/></marker></defs><defs><marker id="req-contains-start" refX="0" refY="10" markerWidth="20" markerHeight="20" orient="auto"><g><circle cx="10" cy="10" r="9" fill="none" stroke="#333333" stroke-width="1"/><line x1="1" x2="19" y1="10" y2="10" stroke="#333333"/><line y1="1" y2="19" x1="10" x2="10" stroke="#333333"/></g></marker><marker id="req-arrow-end" refX="20" refY="10" markerWidth="20" markerHeight="20" orient="auto"><path d="M0,0 L20,10 M20,10 L0,20" fill="none" stroke="#333333" stroke-width="1"/></marker></defs><g transform="translate(4.00,0.00)"><path d="M 337.399,366.000L 337.399,367.458C337.399,368.917,337.399,371.833,337.399,374.750C337.399,377.667,337.399,380.583,338.528,382.964C339.658,385.345,341.916,387.190,350.376,394.101C358.836,401.012,373.496,412.988,381.956,419.899C390.416,426.810,392.674,428.655,393.804,431.036C394.933,433.417,394.933,436.333,394.933,439.250C394.933,442.167,394.933,445.083,394.933,446.542L 394.933,448.000" fill="none" stroke="#333333" stroke-width="1" stroke-dasharray="10,7" marker-end="url(#req-arrow-end)" stroke-linecap="round" stroke-linejoin="round"/><rect x="313.41" y="393.00" width="105.52" height="28.00" rx="2" ry="2" fill="rgba(232,232,232, 0.8)" fill-opacity="0.5" stroke="none"/><text x="366.17" y="411.00" text-anchor="middle" font-family="'trebuchet ms', verdana, arial, sans-serif" font-size="16" fill="#000000"><tspan x="366.17" dy="0.00">&lt;&lt;satisfies&gt;&gt;</tspan></text><path d="M 224.487,366.000L 224.487,367.458C224.487,368.917,224.487,371.833,224.487,374.750C224.487,377.667,224.487,380.583,223.371,382.980C222.255,385.377,220.022,387.254,211.823,394.149C203.624,401.044,189.458,412.956,181.259,419.851C173.060,426.746,170.827,428.623,169.711,431.020C168.595,433.417,168.595,436.333,168.595,439.250C168.595,442.167,168.595,445.083,168.595,446.542L 168.595,448.000" fill="none" stroke="#333333" stroke-width="1" stroke-dasharray="10,7" marker-end="url(#req-arrow-end)" stroke-linecap="round" stroke-linejoin="round"/><rect x="155.27" y="393.00" width="82.55" height="28.00" rx="2" ry="2" fill="rgba(232,232,232, 0.8)" fill-opacity="0.5" stroke="none"/><text x="196.54" y="411.00" text-anchor="middle" font-family="'trebuchet ms', verdana, arial, sans-serif" font-size="16" fill="#000000"><tspan x="196.54" dy="0.00">&lt;&lt;traces&gt;&gt;</tspan></text><path d="M 279.910,110.000L 279.910,111.458C279.910,112.917,279.910,115.833,279.910,118.750C279.910,121.667,279.910,124.583,279.932,127.500C279.954,130.416,279.997,133.333,280.093,139.708C280.188,146.083,280.336,155.917,280.431,162.292C280.527,168.667,280.570,171.584,280.592,174.500C280.614,177.417,280.614,180.333,280.614,183.250C280.614,186.167,280.614,189.083,280.614,190.542L 280.614,192.000" fill="none" stroke="#333333" stroke-width="1" stroke-dasharray="10,7" marker-end="url(#req-arrow-end)" stroke-linecap="round" stroke-linejoin="round"/><rect x="227.50" y="137.00" width="105.52" height="28.00" rx="2" ry="2" fill="rgba(232,232,232, 0.8)" fill-opacity="0.5" stroke="none"/><text x="280.26" y="155.00" text-anchor="middle" font-family="'trebuchet ms', verdana, arial, sans-serif" font-size="16" fill="#000000"><tspan x="280.26" dy="0.00">&lt;&lt;satisfies&gt;&gt;</tspan></text><rect x="8.00" y="448.00" width="243.31" height="174.00" fill="#ECECFF" stroke="#C7D2E5" stroke-width="1"/><rect x="8.00" y="448.00" width="243.31" height="174.00" fill="none" stroke="#9370DB" stroke-width="1.3"/><text x="16.00" y="454.00" text-anchor="start" font-family="&apos;trebuchet ms&apos;, verdana, arial, sans-serif" font-size="16" fill="#131300">&lt;&lt;Requirement&gt;&gt;</text><text x="16.00" y="470.00" text-anchor="start" font-family="&apos;trebuchet ms&apos;, verdana, arial, sans-serif" font-size="16" fill="#131300" font-weight="bold">audit</text><line x1="8.00" y1="500.00" x2="251.31" y2="500.00" stroke="#9370DB" stroke-width="1.3"/><text x="16.00" y="506.00" text-anchor="start" font-family="&apos;trebuchet ms&apos;, verdana, arial, sans-serif" font-size="16" fill="#131300">ID: 3</text><text x="16.00" y="530.00" text-anchor="start" font-family="&apos;trebuchet ms&apos;, verdana, arial, sans-serif" font-size="16" fill="#131300">Text: All logins must be logged</text><text x="16.00" y="554.00" text-anchor="start" font-family="&apos;trebuchet ms&apos;, verdana, arial, sans-serif" font-size="16" fill="#131300">Risk: Low</text><text x="16.00" y="578.00" text-anchor="start" font-family="&apos;trebuchet ms&apos;, verdana, arial, sans-serif" font-size="16" fill="#131300">Verification: Inspection</text><rect x="189.91" y="192.00" width="182.07" height="174.00" fill="#ECECFF" stroke="#C7D2E5" stroke-width="1"/><rect x="189.91" y="192.00" width="182.07" height="174.00" fill="none" stroke="#9370DB" stroke-width="1.3"/><text x="197.91" y="198.00" text-anchor="start" font-family="&apos;trebuchet ms&apos;, verdana, arial, sans-serif" font-size="16" fill="#131300">&lt;&lt;Requirement&gt;&gt;</text><text x="197.91" y="214.00" text-anchor="start" font-family="&apos;trebuchet ms&apos;, verdana, arial, sans-serif" font-size="16" fill="#131300" font-weight="bold">login</text><line x1="189.91" y1="244.00" x2="371.98" y2="244.00" stroke="#9370DB" stroke-width="1.3"/><text x="197.91" y="250.00" text-anchor="start" font-family="&apos;trebuchet ms&apos;, verdana, arial, sans-serif" font-size="16" fill="#131300">ID: 1</text><text x="197.91" y="274.00" text-anchor="start" font-family="&apos;trebuchet ms&apos;, verdana, arial, sans-serif" font-size="16" fill="#131300">Text: Users must log in</text><text x="197.91" y="298.00" text-anchor="start" font-family="&apos;trebuchet ms&apos;, verdana, arial, sans-serif" font-size="16" fill="#131300">Risk: High</text><text x="197.91" y="322.00" text-anchor="start" font-family="&apos;trebuchet ms&apos;, verdana, arial, sans-serif" font-size="16" fill="#131300">Verification: Test</text><rect x="301.31" y="448.00" width="266.27" height="174.00" fill="#ECECFF" stroke="#C7D2E5" stroke-width="1"/><rect x="301.31" y="448.00" width="266.27" height="174.00" fill="none" stroke="#9370DB" stroke-width="1.3"/><text x="309.31" y="454.00" text-anchor="start" font-family="&apos;trebuchet ms&apos;, verdana, arial, sans-serif" font-size="16" fill="#131300">&lt;&lt;Requirement&gt;&gt;</text><text x="309.31" y="470.00" text-anchor="start" font-family="&apos;trebuchet ms&apos;, verdana, arial, sans-serif" font-size="16" fill="#131300" font-weight="bold">session</text><line x1="301.31" y1="500.00" x2="567.58" y2="500.00" stroke="#9370DB" stroke-width="1.3"/><text x="309.31" y="506.00" text-anchor="start" font-family="&apos;trebuchet ms&apos;, verdana, arial, sans-serif" font-size="16" fill="#131300">ID: 2</text><text x="309.31" y="530.00" text-anchor="start" font-family="&apos;trebuchet ms&apos;, verdana, arial, sans-serif" font-size="16" fill="#131300">Text: Sessions expire after 30 min</text><text x="309.31" y="554.00" text-anchor="start" font-family="&apos;trebuchet ms&apos;, verdana, arial, sans-serif" font-size="16" fill="#131300">Risk: Medium</text><text x="309.31" y="578.00" text-anchor="start" font-family="&apos;trebuchet ms&apos;, verdana, arial, sans-serif" font-size="16" fill="#131300">Verification: Test</text><rect x="203.66" y="8.00" width="152.00" height="102.00" fill="#ECECFF" stroke="#C7D2E5" stroke-width="1"/><rect x="203.66" y="8.00" width="152.00" height="102.00" fill="none" stroke="#9370DB" stroke-width="1.3"/><text x="211.66" y="14.00" text-anchor="start" font-family="&apos;trebuchet ms&apos;, verdana, arial, sans-serif" font-size="16" fill="#131300">&lt;&lt;Element&gt;&gt;</text><text x="211.66" y="30.00" text-anchor="start" font-family="&apos;trebuchet ms&apos;, verdana, arial, sans-serif" font-size="16" fill="#131300" font-weight="bold">webapp</text><line x1="203.66" y1="60.00" x2="355.66" y2="60.00" stroke="#9370DB" stroke-width="1.3"/><text x="211.66" y="66.00" text-anchor="start" font-family="&apos;trebuchet ms&apos;, verdana, arial, sans-serif" font-size="16" fill="#131300">Type: application</text></g></svg>