<svg xmlns="http://www.w3.org/2000/svg" width="583.5801" height="630" viewBox="0 0 583.5801 630"><rect x="0" y="0" width="583.5801" height="630" fill="#FFFFFF"/><defs><marker id="arrow-0" viewBox="0 0 10 10" refX="5" refY="5" markerUnits="userSpaceOnUse" markerWidth="8" markerHeight="8" orient="auto"><path d="M 0 0 L 10 5 L 0 10 z" fill="#2F3B4D" stroke="#2F3B4D" stroke-width="1" stroke-dasharray="1,0"/></marker><marker id="arrow-start-0" viewBox="0 0 10 10" refX="4.5" refY="5" markerUnits="userSpaceOnUse" markerWidth="8" markerHeight="8" orient="auto"><path d="M 0 5 L 10 10 L 10 0 z" fill="#2F3B4D" stroke="#2F3B4D" stroke-width="1" stroke-dasharray="1,0"/></marker><marker id="arrow-1" viewBox="0 0 10 10" refX="5" refY="5" markerUnits="userSpaceOnUse" markerWidth="8" markerHeight="8" orient="auto"><path d="M 0 0 L 10 5 L 0 10 z" fill="#333333" stroke="#333333" stroke-width="1" stroke-dasharray="1,0"/></marker><marker id="arrow-start-1" viewBox="0 0 10 10" refX="4.5" refY="5" markerUnits="userSpaceOnUse" markerWidth="8" markerHeight="8" orient="auto"><path d="M 0 5 L 10 10 L 10 0 z" fill="#333333" stroke="#333333" stroke-width="1" stroke-dasharray="1,0"/></marker></defs><defs><marker id="req-contains-start" refX="0" refY="10" markerWidth="20" markerHeight="20" orient="auto"><g><circle cx="10" cy="10" r="9" fill="none" stroke="#333333" stroke-width="1"/><line x1="1" x2="19" y1="10" y2="10" stroke="#333333"/><line y1="1" y2="19" x1="10" x2="10" stroke="#333333"/></g></marker><marker id="req-arrow-end" refX="20" refY="10" markerWidth="20" markerHeight="20" orient="auto"><path d="M0,0 L20,10 M20,10 L0,20" fill="none" stroke="#333333" stroke-width="1"/></marker></defs><g transform="translate(4.00,0.00)"><path d="M 337.399,366.000L 337.399,367.458C337.399,368.917,337.399,371.833,337.399,374.750C337.399,377.667,337.399,380.583,338.711,382.677C340.024,384.771,342.649,386.043,357.510,393.240C372.372,400.438,399.470,413.562,414.332,420.760C429.194,427.957,431.819,429.229,433.131,431.323C434.444,433.417,434.444,436.333,434.444,439.250C434.444,442.167,434.444,445.083,434.444,446.542L 434.444,448.000" fill="none" stroke="#333333" stroke-width="1" stroke-dasharray="10,7" marker-end="url(#req-arrow-end)" stroke-linecap="round" stroke-linejoin="round"/><rect x="333.16" y="393.00" width="105.52" height="28.00" rx="2" ry="2" fill="rgba(232,232,232, 0.8)" fill-opacity="0.5" stroke="none"/><text x="385.92" y="411.00" text-anchor="middle" font-family="'trebuchet ms', verdana, arial, sans-serif" font-size="16" fill="#000000"><tspan x="385.92" dy="0.00">&lt;&lt;satisfies&gt;&gt;</tspan></text><path d="M 224.487,366.000L 224.487,367.458C224.487,368.917,224.487,371.833,224.487,374.750C224.487,377.667,224.487,380.583,223.180,382.689C221.874,384.795,219.260,386.090,204.762,393.276C190.263,400.462,163.878,413.538,149.379,420.724C134.880,427.910,132.267,429.205,130.960,431.311C129.654,433.417,129.654,436.333,129.654,439.250C129.654,442.167,129.654,445.083,129.654,446.542L 129.654,448.000" fill="none" stroke="#333333" stroke-width="1" stroke-dasharray="10,7" marker-end="url(#req-arrow-end)" stroke-linecap="round" stroke-linejoin="round"/><rect x="135.80" y="393.00" width="82.55" height="28.00" rx="2" ry="2" fill="rgba(232,232,232, 0.8)" fill-opacity="0.5" stroke="none"/><text x="177.07" y="411.00" text-anchor="middle" font-family="'trebuchet ms', verdana, arial, sans-serif" font-size="16" fill="#000000"><tspan x="177.07" dy="0.00">&lt;&lt;traces&gt;&gt;</tspan></text><path d="M 279.665,110.000L 279.665,111.458C279.665,112.917,279.665,115.833,279.665,118.750C279.665,121.667,279.665,124.583,279.704,127.499C279.744,130.416,279.823,133.331,279.997,139.707C280.170,146.082,280.438,155.918,280.611,162.293C280.784,168.669,280.864,171.584,280.903,174.501C280.943,177.417,280.943,180.333,280.943,183.250C280.943,186.167,280.943,189.083,280.943,190.542L 280.943,192.000" fill="none" stroke="#333333" stroke-width="1" stroke-dasharray="10,7" marker-end="url(#req-arrow-end)" stroke-linecap="round" stroke-linejoin="round"/><rect x="227.55" y="137.00" width="105.52" height="28.00" rx="2" ry="2" fill="rgba(232,232,232, 0.8)" fill-opacity="0.5" stroke="none"/><text x="280.30" y="155.00" text-anchor="middle" font-family="'trebuchet ms', verdana, arial, sans-serif" font-size="16" fill="#000000"><tspan x="280.30" dy="0.00">&lt;&lt;satisfies&gt;&gt;</tspan></text><rect x="8.00" y="448.00" width="243.31" height="174.00" fill="#ECECFF" stroke="#C7D2E5" stroke-width="1"/><rect x="8.00" y="448.00" width="243.31" height="174.00" fill="none" stroke="#9370DB" stroke-width="1.3"/><text x="16.00" y="454.00" text-anchor="start" font-family="&apos;trebuchet ms&apos;, verdana, arial, sans-serif" font-size="16" fill="#131300">&lt;&lt;Requirement&gt;&gt;</text><text x="16.00" y="470.00" text-anchor="start" font-family="&apos;trebuchet ms&apos;, verdana, arial, sans-serif" font-size="16" fill="#131300" font-weight="bold">audit</text><line x1="8.00" y1="500.00" x2="251.31" y2="500.00" stroke="#9370DB" stroke-width="1.3"/><text x="16.00" y="506.00" text-anchor="start" font-family="&apos;trebuchet ms&apos;, verdana, arial, sans-serif" font-size="16" fill="#131300">ID: 3</text><text x="16.00" y="530.00" text-anchor="start" font-family="&apos;trebuchet ms&apos;, verdana, arial, sans-serif" font-size="16" fill="#131300">Text: All logins must be logged</text><text x="16.00" y="554.00" text-anchor="start" font-family="&apos;trebuchet ms&apos;, verdana, arial, sans-serif" font-size="16" fill="#131300">Risk: Low</text><text x="16.00" y="578.00" text-anchor="start" font-family="&apos;trebuchet ms&apos;, verdana, arial, sans-serif" font-size="16" fill="#131300">Verification: Inspection</text><rect x="189.91" y="192.00" width="182.07" height="174.00" fill="#ECECFF" stroke="#C7D2E5" stroke-width="1"/><rect x="189.91" y="192.00" width="182.07" height="174.00" fill="none" stroke="#9370DB" stroke-width="1.3"/><text x="197.91" y="198.00" text-anchor="start" font-family="&apos;trebuchet ms&apos;, verdana, arial, sans-serif" font-size="16" fill="#131300">&lt;&lt;Requirement&gt;&gt;</text><text x="197.91" y="214.00" text-anchor="start" font-family="&apos;trebuchet ms&apos;, verdana, arial, sans-serif" font-size="16" fill="#131300" font-weight="bold">login</text><line x1="189.91" y1="244.00" x2="371.98" y2="244.00" stroke="#9370DB" stroke-width="1.3"/><text x="197.91" y="250.00" text-anchor="start" font-family="&apos;trebuchet ms&apos;, verdana, arial, sans-serif" font-size="16" fill="#131300">ID: 1</text><text x="197.91" y="274.00" text-anchor="start" font-family="&apos;trebuchet ms&apos;, verdana, arial, sans-serif" font-size="16" fill="#131300">Text: Users must log in</text><text x="197.91" y="298.00" text-anchor="start" font-family="&apos;trebuchet ms&apos;, verdana, arial, sans-serif" font-size="16" fill="#131300">Risk: High</text><text x="197.91" y="322.00" text-anchor="start" font-family="&apos;trebuchet ms&apos;, verdana, arial, sans-serif" font-size="16" fill="#131300">Verification: Test</text><rect x="301.31" y="448.00" width="266.27" height="174.00" fill="#ECECFF" stroke="#C7D2E5" stroke-width="1"/><rect x="301.31" y="448.00" width="266.27" height="174.00" fill="none" stroke="#9370DB" stroke-width="1.3"/><text x="309.31" y="454.00" text-anchor="start" font-family="&apos;trebuchet ms&apos;, verdana, arial, sans-serif" font-size="16" fill="#131300">&lt;&lt;Requirement&gt;&gt;</text><text x="309.31" y="470.00" text-anchor="start" font-family="&apos;trebuchet ms&apos;, verdana, arial, sans-serif" font-size="16" fill="#131300" font-weight="bold">session</text><line x1="301.31" y1="500.00" x2="567.58" y2="500.00" stroke="#9370DB" stroke-width="1.3"/><text x="309.31" y="506.00" text-anchor="start" font-family="&apos;trebuchet ms&apos;, verdana, arial, sans-serif" font-size="16" fill="#131300">ID: 2</text><text x="309.31" y="530.00" text-anchor="start" font-family="&apos;trebuchet ms&apos;, verdana, arial, sans-serif" font-size="16" fill="#131300">Text: Sessions expire after 30 min</text><text x="309.31" y="554.00" text-anchor="start" font-family="&apos;trebuchet ms&apos;, verdana, arial, sans-serif" font-size="16" fill="#131300">Risk: Medium</text><text x="309.31" y="578.00" text-anchor="start" font-family="&apos;trebuchet ms&apos;, verdana, arial, sans-serif" font-size="16" fill="#131300">Verification: Test</text><rect x="203.66" y="8.00" width="152.00" height="102.00" fill="#ECECFF" stroke="#C7D2E5" stroke-width="1"/><rect x="203.66" y="8.00" width="152.00" height="102.00" fill="none" stroke="#9370DB" stroke-width="1.3"/><text x="211.66" y="14.00" text-anchor="start" font-family="&apos;trebuchet ms&apos;, verdana, arial, sans-serif" font-size="16" fill="#131300">&lt;&lt;Element&gt;&gt;</text><text x="211.66" y="30.00" text-anchor="start" font-family="&apos;trebuchet ms&apos;, verdana, arial, sans-serif" font-size="16" fill="#131300" font-weight="bold">webapp</text><line x1="203.66" y1="60.00" x2="355.66" y2="60.00" stroke="#9370DB" stroke-width="1.3"/><text x="211.66" y="66.00" text-anchor="start" font-family="&apos;trebuchet ms&apos;, verdana, arial, sans-serif" font-size="16" fill="#131300">Type: application</text></g></svg>