<svg xmlns="http://www.w3.org/2000/svg" width="583.5801" height="630" viewBox="0 0 583.5801 630"><rect x="0" y="0" width="583.5801" height="630" fill="#FFFFFF"/><defs><marker id="arrow-0" viewBox="0 0 10 10" refX="5" refY="5" markerUnits="userSpaceOnUse" markerWidth="8" markerHeight="8" orient="auto"><path d="M 0 0 L 10 5 L 0 10 z" fill="#2F3B4D" stroke="#2F3B4D" stroke-width="1" stroke-dasharray="1,0"/></marker><marker id="arrow-start-0" viewBox="0 0 10 10" refX="4.5" refY="5" markerUnits="userSpaceOnUse" markerWidth="8" markerHeight="8" orient="auto"><path d="M 0 5 L 10 10 L 10 0 z" fill="#2F3B4D" stroke="#2F3B4D" stroke-width="1" stroke-dasharray="1,0"/></marker><marker id="arrow-1" viewBox="0 0 10 10" refX="5" refY="5" markerUnits="userSpaceOnUse" markerWidth="8" markerHeight="8" orient="auto"><path d="M 0 0 L 10 5 L 0 10 z" fill="#333333" stroke="#333333" stroke-width="1" stroke-dasharray="1,0"/></marker><marker id="arrow-start-1" viewBox="0 0 10 10" refX="4.5" refY="5" markerUnits="userSpaceOnUse" markerWidth="8" markerHeight="8" orient="auto"><path d="M 0 5 L 10 10 L 10 0 z" fill="#333333" stroke="#333333" stroke-width="1" stroke-dasharray="1,0"/></marker></defs><defs><marker id="req-contains-start" refX="0" refY="10" markerWidth="20" markerHeight="20" orient="auto"><g><circle cx="10" cy="10" r="9" fill="none" stroke="#333333" stroke-width="1"/><line x1="1" x2="19" y1="10" y2="10" stroke="#333333"/><line y1="1" y2="19" x1="10" x2="10" stroke="#333333"/></g></marker><marker id="req-arrow-end" refX="20" refY="10" markerWidth="20" markerHeight="20" orient="auto"><path d="M0,0 L20,10 M20,10 L0,20" fill="none" stroke="#333333" stroke-width="1"/></marker></defs><g transform="translate(4.00,0.00)"><path d="M 336.822,366.000L 336.822,367.458C336.822,368.917,336.822,371.833,336.822,374.750C336.822,377.667,336.822,380.583,338.110,382.725C339.398,384.868,341.974,386.235,354.179,392.714C366.384,399.193,388.218,410.783,400.902,417.516C413.586,424.249,417.119,426.125,416.894,427.255C416.670,428.385,412.689,428.770,409.829,429.046C406.970,429.322,405.232,429.490,402.911,429.715C400.591,429.939,397.688,430.219,396.236,431.818C394.785,433.417,394.785,436.333,394.785,439.250C394.785,442.167,394.785,445.083,394.785,446.542L 394.785,448.000" fill="none" stroke="#333333" stroke-width="1" stroke-dasharray="10,7" marker-end="url(#req-arrow-end)" stroke-linecap="round" stroke-linejoin="round"/><rect x="337.46" y="397.84" width="105.52" height="28.00" rx="2" ry="2" fill="rgba(232,232,232, 0.8)" fill-opacity="0.5" stroke="none"/><text x="390.21" y="415.84" text-anchor="middle" font-family="'trebuchet ms', verdana, arial, sans-serif" font-size="16" fill="#000000"><tspan x="390.21" dy="0.00">&lt;&lt;satisfies&gt;&gt;</tspan></text><path d="M 223.910,366.000L 223.910,367.458C223.910,368.917,223.910,371.833,223.910,374.750C223.910,377.667,223.910,380.583,222.625,382.731C221.339,384.878,218.769,386.255,206.692,392.727C194.616,399.199,173.034,410.766,160.480,417.493C147.926,424.221,144.401,426.111,144.630,427.236C144.859,428.361,148.842,428.722,151.985,429.007C155.128,429.292,157.430,429.501,160.034,429.737C162.637,429.973,165.542,430.237,166.994,431.827C168.447,433.417,168.447,436.333,168.447,439.250C168.447,442.167,168.447,445.083,168.447,446.542L 168.447,448.000" fill="none" stroke="#333333" stroke-width="1" stroke-dasharray="10,7" marker-end="url(#req-arrow-end)" stroke-linecap="round" stroke-linejoin="round"/><rect x="128.92" y="398.29" width="82.55" height="28.00" rx="2" ry="2" fill="rgba(232,232,232, 0.8)" fill-opacity="0.5" stroke="none"/><text x="170.19" y="416.29" text-anchor="middle" font-family="'trebuchet ms', verdana, arial, sans-serif" font-size="16" fill="#000000"><tspan x="170.19" dy="0.00">&lt;&lt;traces&gt;&gt;</tspan></text><path d="M 279.700,110.000L 279.700,111.458C279.700,112.917,279.700,115.833,279.700,118.750C279.700,121.667,279.700,124.583,279.696,127.500C279.693,130.417,279.687,133.333,279.671,140.537C279.655,147.740,279.629,159.230,279.616,165.188C279.603,171.147,279.602,171.573,279.648,171.995C279.693,172.417,279.785,172.833,279.831,173.042C279.877,173.250,279.877,173.250,279.923,173.458C279.970,173.667,280.062,174.083,280.108,174.505C280.154,174.927,280.154,175.353,280.154,178.270C280.154,181.187,280.154,186.593,280.154,189.297L 280.154,192.000" fill="none" stroke="#333333" stroke-width="1" stroke-dasharray="10,7" marker-end="url(#req-arrow-end)" stroke-linecap="round" stroke-linejoin="round"/><rect x="226.89" y="137.03" width="105.52" height="28.00" rx="2" ry="2" fill="rgba(232,232,232, 0.8)" fill-opacity="0.5" stroke="none"/><text x="279.65" y="155.03" text-anchor="middle" font-family="'trebuchet ms', verdana, arial, sans-serif" font-size="16" fill="#000000"><tspan x="279.65" dy="0.00">&lt;&lt;satisfies&gt;&gt;</tspan></text><rect x="8.00" y="448.00" width="243.31" height="174.00" fill="#ECECFF" stroke="#C7D2E5" stroke-width="1"/><rect x="8.00" y="448.00" width="243.31" height="174.00" fill="none" stroke="#9370DB" stroke-width="1.3"/><text x="16.00" y="454.00" text-anchor="start" font-family="&apos;trebuchet ms&apos;, verdana, arial, sans-serif" font-size="16" fill="#131300">&lt;&lt;Requirement&gt;&gt;</text><text x="16.00" y="470.00" text-anchor="start" font-family="&apos;trebuchet ms&apos;, verdana, arial, sans-serif" font-size="16" fill="#131300" font-weight="bold">audit</text><line x1="8.00" y1="500.00" x2="251.31" y2="500.00" stroke="#9370DB" stroke-width="1.3"/><text x="16.00" y="506.00" text-anchor="start" font-family="&apos;trebuchet ms&apos;, verdana, arial, sans-serif" font-size="16" fill="#131300">ID: 3</text><text x="16.00" y="530.00" text-anchor="start" font-family="&apos;trebuchet ms&apos;, verdana, arial, sans-serif" font-size="16" fill="#131300">Text: All logins must be logged</text><text x="16.00" y="554.00" text-anchor="start" font-family="&apos;trebuchet ms&apos;, verdana, arial, sans-serif" font-size="16" fill="#131300">Risk: Low</text><text x="16.00" y="578.00" text-anchor="start" font-family="&apos;trebuchet ms&apos;, verdana, arial, sans-serif" font-size="16" fill="#131300">Verification: Inspection</text><rect x="189.33" y="192.00" width="182.07" height="174.00" fill="#ECECFF" stroke="#C7D2E5" stroke-width="1"/><rect x="189.33" y="192.00" width="182.07" height="174.00" fill="none" stroke="#9370DB" stroke-width="1.3"/><text x="197.33" y="198.00" text-anchor="start" font-family="&apos;trebuchet ms&apos;, verdana, arial, sans-serif" font-size="16" fill="#131300">&lt;&lt;Requirement&gt;&gt;</text><text x="197.33" y="214.00" text-anchor="start" font-family="&apos;trebuchet ms&apos;, verdana, arial, sans-serif" font-size="16" fill="#131300" font-weight="bold">login</text><line x1="189.33" y1="244.00" x2="371.40" y2="244.00" stroke="#9370DB" stroke-width="1.3"/><text x="197.33" y="250.00" text-anchor="start" font-family="&apos;trebuchet ms&apos;, verdana, arial, sans-serif" font-size="16" fill="#131300">ID: 1</text><text x="197.33" y="274.00" text-anchor="start" font-family="&apos;trebuchet ms&apos;, verdana, arial, sans-serif" font-size="16" fill="#131300">Text: Users must log in</text><text x="197.33" y="298.00" text-anchor="start" font-family="&apos;trebuchet ms&apos;, verdana, arial, sans-serif" font-size="16" fill="#131300">Risk: High</text><text x="197.33" y="322.00" text-anchor="start" font-family="&apos;trebuchet ms&apos;, verdana, arial, sans-serif" font-size="16" fill="#131300">Verification: Test</text><rect x="301.31" y="448.00" width="266.27" height="174.00" fill="#ECECFF" stroke="#C7D2E5" stroke-width="1"/><rect x="301.31" y="448.00" width="266.27" height="174.00" fill="none" stroke="#9370DB" stroke-width="1.3"/><text x="309.31" y="454.00" text-anchor="start" font-family="&apos;trebuchet ms&apos;, verdana, arial, sans-serif" font-size="16" fill="#131300">&lt;&lt;Requirement&gt;&gt;</text><text x="309.31" y="470.00" text-anchor="start" font-family="&apos;trebuchet ms&apos;, verdana, arial, sans-serif" font-size="16" fill="#131300" font-weight="bold">session</text><line x1="301.31" y1="500.00" x2="567.58" y2="500.00" stroke="#9370DB" stroke-width="1.3"/><text x="309.31" y="506.00" text-anchor="start" font-family="&apos;trebuchet ms&apos;, verdana, arial, sans-serif" font-size="16" fill="#131300">ID: 2</text><text x="309.31" y="530.00" text-anchor="start" font-family="&apos;trebuchet ms&apos;, verdana, arial, sans-serif" font-size="16" fill="#131300">Text: Sessions expire after 30 min</text><text x="309.31" y="554.00" text-anchor="start" font-family="&apos;trebuchet ms&apos;, verdana, arial, sans-serif" font-size="16" fill="#131300">Risk: Medium</text><text x="309.31" y="578.00" text-anchor="start" font-family="&apos;trebuchet ms&apos;, verdana, arial, sans-serif" font-size="16" fill="#131300">Verification: Test</text><rect x="203.54" y="8.00" width="152.00" height="102.00" fill="#ECECFF" stroke="#C7D2E5" stroke-width="1"/><rect x="203.54" y="8.00" width="152.00" height="102.00" fill="none" stroke="#9370DB" stroke-width="1.3"/><text x="211.54" y="14.00" text-anchor="start" font-family="&apos;trebuchet ms&apos;, verdana, arial, sans-serif" font-size="16" fill="#131300">&lt;&lt;Element&gt;&gt;</text><text x="211.54" y="30.00" text-anchor="start" font-family="&apos;trebuchet ms&apos;, verdana, arial, sans-serif" font-size="16" fill="#131300" font-weight="bold">webapp</text><line x1="203.54" y1="60.00" x2="355.54" y2="60.00" stroke="#9370DB" stroke-width="1.3"/><text x="211.54" y="66.00" text-anchor="start" font-family="&apos;trebuchet ms&apos;, verdana, arial, sans-serif" font-size="16" fill="#131300">Type: application</text></g></svg>