<svg xmlns="http://www.w3.org/2000/svg" width="583.5801" height="696" viewBox="0 0 583.5801 696"><rect x="0" y="0" width="583.5801" height="696" fill="#FFFFFF"/><defs><marker id="arrow-0" viewBox="0 0 10 10" refX="5" refY="5" markerUnits="userSpaceOnUse" markerWidth="8" markerHeight="8" orient="auto"><path d="M 0 0 L 10 5 L 0 10 z" fill="#2F3B4D" stroke="#2F3B4D" stroke-width="1" stroke-dasharray="1,0"/></marker><marker id="arrow-start-0" viewBox="0 0 10 10" refX="4.5" refY="5" markerUnits="userSpaceOnUse" markerWidth="8" markerHeight="8" orient="auto"><path d="M 0 5 L 10 10 L 10 0 z" fill="#2F3B4D" stroke="#2F3B4D" stroke-width="1" stroke-dasharray="1,0"/></marker><marker id="arrow-1" viewBox="0 0 10 10" refX="5" refY="5" markerUnits="userSpaceOnUse" markerWidth="8" markerHeight="8" orient="auto"><path d="M 0 0 L 10 5 L 0 10 z" fill="#333333" stroke="#333333" stroke-width="1" stroke-dasharray="1,0"/></marker><marker id="arrow-start-1" viewBox="0 0 10 10" refX="4.5" refY="5" markerUnits="userSpaceOnUse" markerWidth="8" markerHeight="8" orient="auto"><path d="M 0 5 L 10 10 L 10 0 z" fill="#333333" stroke="#333333" stroke-width="1" stroke-dasharray="1,0"/></marker></defs><defs><marker id="req-contains-start" refX="0" refY="10" markerWidth="20" markerHeight="20" orient="auto"><g><circle cx="10" cy="10" r="9" fill="none" stroke="#333333" stroke-width="1"/><line x1="1" x2="19" y1="10" y2="10" stroke="#333333"/><line y1="1" y2="19" x1="10" x2="10" stroke="#333333"/></g></marker><marker id="req-arrow-end" refX="20" refY="10" markerWidth="20" markerHeight="20" orient="auto"><path d="M0,0 L20,10 M20,10 L0,20" fill="none" stroke="#333333" stroke-width="1"/></marker></defs><g transform="translate(4.00,0.00)"><path d="M 335.237,432.000L 335.238,433.458C335.237,434.917,335.237,437.833,335.238,440.750C335.237,443.667,335.237,446.583,336.555,448.666C337.873,450.749,340.509,451.997,355.726,459.206C370.942,466.415,398.739,479.585,413.956,486.794C429.172,494.003,431.808,495.251,433.126,497.334C434.444,499.417,434.444,502.333,434.444,505.250C434.444,508.167,434.444,511.083,434.444,512.542L 434.444,514.000" fill="none" stroke="#333333" stroke-width="1" stroke-dasharray="10,7" marker-end="url(#req-arrow-end)" stroke-linecap="round" stroke-linejoin="round"/><rect x="332.08" y="459.00" width="105.52" height="28.00" rx="2" ry="2" fill="rgba(232,232,232, 0.8)" fill-opacity="0.5" stroke="none"/><text x="384.84" y="477.00" text-anchor="middle" font-family="'trebuchet ms', verdana, arial, sans-serif" font-size="16" fill="#000000"><tspan x="384.84" dy="0.00">&lt;&lt;satisfies&gt;&gt;</tspan></text><path d="M 226.648,432.000L 226.648,433.458C226.648,434.917,226.648,437.833,226.648,440.750C226.648,443.667,226.648,446.583,225.336,448.678C224.024,450.772,221.399,452.044,206.546,459.241C191.692,466.439,164.610,479.561,149.757,486.759C134.903,493.956,132.278,495.228,130.966,497.322C129.654,499.417,129.654,502.333,129.654,505.250C129.654,508.167,129.654,511.083,129.654,512.542L 129.654,514.000" fill="none" stroke="#333333" stroke-width="1" stroke-dasharray="10,7" marker-end="url(#req-arrow-end)" stroke-linecap="round" stroke-linejoin="round"/><rect x="136.88" y="459.00" width="82.55" height="28.00" rx="2" ry="2" fill="rgba(232,232,232, 0.8)" fill-opacity="0.5" stroke="none"/><text x="178.15" y="477.00" text-anchor="middle" font-family="'trebuchet ms', verdana, arial, sans-serif" font-size="16" fill="#000000"><tspan x="178.15" dy="0.00">&lt;&lt;traces&gt;&gt;</tspan></text><path d="M 279.665,176.000L 279.665,177.458C279.665,178.917,279.665,181.833,279.665,184.750C279.665,187.667,279.665,190.583,279.704,193.499C279.744,196.416,279.823,199.331,279.997,205.707C280.170,212.082,280.438,221.918,280.611,228.293C280.784,234.669,280.864,237.584,280.903,240.501C280.943,243.417,280.943,246.333,280.943,249.250C280.943,252.167,280.943,255.083,280.943,256.542L 280.943,258.000" fill="none" stroke="#333333" stroke-width="1" stroke-dasharray="10,7" marker-end="url(#req-arrow-end)" stroke-linecap="round" stroke-linejoin="round"/><rect x="227.55" y="203.00" width="105.52" height="28.00" rx="2" ry="2" fill="rgba(232,232,232, 0.8)" fill-opacity="0.5" stroke="none"/><text x="280.30" y="221.00" text-anchor="middle" font-family="'trebuchet ms', verdana, arial, sans-serif" font-size="16" fill="#000000"><tspan x="280.30" dy="0.00">&lt;&lt;satisfies&gt;&gt;</tspan></text><rect x="8.00" y="514.00" width="243.31" height="174.00" fill="#ECECFF" stroke="#C7D2E5" stroke-width="1"/><rect x="8.00" y="514.00" width="243.31" height="174.00" fill="none" stroke="#9370DB" stroke-width="1.3"/><text x="16.00" y="520.00" text-anchor="start" font-family="&apos;trebuchet ms&apos;, verdana, arial, sans-serif" font-size="16" fill="#131300">&lt;&lt;Requirement&gt;&gt;</text><text x="16.00" y="536.00" text-anchor="start" font-family="&apos;trebuchet ms&apos;, verdana, arial, sans-serif" font-size="16" fill="#131300" font-weight="bold">audit</text><line x1="8.00" y1="566.00" x2="251.31" y2="566.00" stroke="#9370DB" stroke-width="1.3"/><text x="16.00" y="572.00" text-anchor="start" font-family="&apos;trebuchet ms&apos;, verdana, arial, sans-serif" font-size="16" fill="#131300">ID: 3</text><text x="16.00" y="596.00" text-anchor="start" font-family="&apos;trebuchet ms&apos;, verdana, arial, sans-serif" font-size="16" fill="#131300">Text: All logins must be logged</text><text x="16.00" y="620.00" text-anchor="start" font-family="&apos;trebuchet ms&apos;, verdana, arial, sans-serif" font-size="16" fill="#131300">Risk: Low</text><text x="16.00" y="644.00" text-anchor="start" font-family="&apos;trebuchet ms&apos;, verdana, arial, sans-serif" font-size="16" fill="#131300">Verification: Inspection</text><rect x="189.91" y="258.00" width="182.07" height="174.00" fill="#ECECFF" stroke="#C7D2E5" stroke-width="1"/><rect x="189.91" y="258.00" width="182.07" height="174.00" fill="none" stroke="#9370DB" stroke-width="1.3"/><text x="197.91" y="264.00" text-anchor="start" font-family="&apos;trebuchet ms&apos;, verdana, arial, sans-serif" font-size="16" fill="#131300">&lt;&lt;Requirement&gt;&gt;</text><text x="197.91" y="280.00" text-anchor="start" font-family="&apos;trebuchet ms&apos;, verdana, arial, sans-serif" font-size="16" fill="#131300" font-weight="bold">login</text><line x1="189.91" y1="310.00" x2="371.98" y2="310.00" stroke="#9370DB" stroke-width="1.3"/><text x="197.91" y="316.00" text-anchor="start" font-family="&apos;trebuchet ms&apos;, verdana, arial, sans-serif" font-size="16" fill="#131300">ID: 1</text><text x="197.91" y="340.00" text-anchor="start" font-family="&apos;trebuchet ms&apos;, verdana, arial, sans-serif" font-size="16" fill="#131300">Text: Users must log in</text><text x="197.91" y="364.00" text-anchor="start" font-family="&apos;trebuchet ms&apos;, verdana, arial, sans-serif" font-size="16" fill="#131300">Risk: High</text><text x="197.91" y="388.00" text-anchor="start" font-family="&apos;trebuchet ms&apos;, verdana, arial, sans-serif" font-size="16" fill="#131300">Verification: Test</text><rect x="301.31" y="514.00" width="266.27" height="174.00" fill="#ECECFF" stroke="#C7D2E5" stroke-width="1"/><rect x="301.31" y="514.00" width="266.27" height="174.00" fill="none" stroke="#9370DB" stroke-width="1.3"/><text x="309.31" y="520.00" text-anchor="start" font-family="&apos;trebuchet ms&apos;, verdana, arial, sans-serif" font-size="16" fill="#131300">&lt;&lt;Requirement&gt;&gt;</text><text x="309.31" y="536.00" text-anchor="start" font-family="&apos;trebuchet ms&apos;, verdana, arial, sans-serif" font-size="16" fill="#131300" font-weight="bold">session</text><line x1="301.31" y1="566.00" x2="567.58" y2="566.00" stroke="#9370DB" stroke-width="1.3"/><text x="309.31" y="572.00" text-anchor="start" font-family="&apos;trebuchet ms&apos;, verdana, arial, sans-serif" font-size="16" fill="#131300">ID: 2</text><text x="309.31" y="596.00" text-anchor="start" font-family="&apos;trebuchet ms&apos;, verdana, arial, sans-serif" font-size="16" fill="#131300">Text: Sessions expire after 30 min</text><text x="309.31" y="620.00" text-anchor="start" font-family="&apos;trebuchet ms&apos;, verdana, arial, sans-serif" font-size="16" fill="#131300">Risk: Medium</text><text x="309.31" y="644.00" text-anchor="start" font-family="&apos;trebuchet ms&apos;, verdana, arial, sans-serif" font-size="16" fill="#131300">Verification: Test</text><rect x="203.66" y="8.00" width="152.00" height="168.00" fill="#ECECFF" stroke="#C7D2E5" stroke-width="1"/><rect x="203.66" y="8.00" width="152.00" height="168.00" fill="none" stroke="#9370DB" stroke-width="1.3"/><text x="211.66" y="14.00" text-anchor="start" font-family="&apos;trebuchet ms&apos;, verdana, arial, sans-serif" font-size="16" fill="#131300">&lt;&lt;Element&gt;&gt;</text><text x="211.66" y="30.00" text-anchor="start" font-family="&apos;trebuchet ms&apos;, verdana, arial, sans-serif" font-size="16" fill="#131300" font-weight="bold">webapp</text><line x1="203.66" y1="60.00" x2="355.66" y2="60.00" stroke="#9370DB" stroke-width="1.3"/><text x="211.66" y="66.00" text-anchor="start" font-family="&apos;trebuchet ms&apos;, verdana, arial, sans-serif" font-size="16" fill="#131300">Type: application</text></g></svg>