<svg xmlns="http://www.w3.org/2000/svg" width="560" height="360" viewBox="0 0 560 360"><rect x="0" y="0" width="560" height="360" fill="#FFFFFF"/><defs><marker id="arrow-0" viewBox="0 0 10 10" refX="5" refY="5" markerUnits="userSpaceOnUse" markerWidth="8" markerHeight="8" orient="auto"><path d="M 0 0 L 10 5 L 0 10 z" fill="#2F3B4D" stroke="#2F3B4D" stroke-width="1" stroke-dasharray="1,0"/></marker><marker id="arrow-start-0" viewBox="0 0 10 10" refX="4.5" refY="5" markerUnits="userSpaceOnUse" markerWidth="8" markerHeight="8" orient="auto"><path d="M 0 5 L 10 10 L 10 0 z" fill="#2F3B4D" stroke="#2F3B4D" stroke-width="1" stroke-dasharray="1,0"/></marker><marker id="arrow-1" viewBox="0 0 10 10" refX="5" refY="5" markerUnits="userSpaceOnUse" markerWidth="8" markerHeight="8" orient="auto"><path d="M 0 0 L 10 5 L 0 10 z" fill="#4e79a7" stroke="#4e79a7" stroke-width="1" stroke-dasharray="1,0"/></marker><marker id="arrow-start-1" viewBox="0 0 10 10" refX="4.5" refY="5" markerUnits="userSpaceOnUse" markerWidth="8" markerHeight="8" orient="auto"><path d="M 0 5 L 10 10 L 10 0 z" fill="#4e79a7" stroke="#4e79a7" stroke-width="1" stroke-dasharray="1,0"/></marker><marker id="arrow-2" viewBox="0 0 10 10" refX="5" refY="5" markerUnits="userSpaceOnUse" markerWidth="8" markerHeight="8" orient="auto"><path d="M 0 0 L 10 5 L 0 10 z" fill="#f28e2c" stroke="#f28e2c" stroke-width="1" stroke-dasharray="1,0"/></marker><marker id="arrow-start-2" viewBox="0 0 10 10" refX="4.5" refY="5" markerUnits="userSpaceOnUse" markerWidth="8" markerHeight="8" orient="auto"><path d="M 0 5 L 10 10 L 10 0 z" fill="#f28e2c" stroke="#f28e2c" stroke-width="1" stroke-dasharray="1,0"/></marker><marker id="arrow-3" viewBox="0 0 10 10" refX="5" refY="5" markerUnits="userSpaceOnUse" markerWidth="8" markerHeight="8" orient="auto"><path d="M 0 0 L 10 5 L 0 10 z" fill="#59a14f" stroke="#59a14f" stroke-width="1" stroke-dasharray="1,0"/></marker><marker id="arrow-start-3" viewBox="0 0 10 10" refX="4.5" refY="5" markerUnits="userSpaceOnUse" markerWidth="8" markerHeight="8" orient="auto"><path d="M 0 5 L 10 10 L 10 0 z" fill="#59a14f" stroke="#59a14f" stroke-width="1" stroke-dasharray="1,0"/></marker><marker id="arrow-4" viewBox="0 0 10 10" refX="5" refY="5" markerUnits="userSpaceOnUse" markerWidth="8" markerHeight="8" orient="auto"><path d="M 0 0 L 10 5 L 0 10 z" fill="#e15759" stroke="#e15759" stroke-width="1" stroke-dasharray="1,0"/></marker><marker id="arrow-start-4" viewBox="0 0 10 10" refX="4.5" refY="5" markerUnits="userSpaceOnUse" markerWidth="8" markerHeight="8" orient="auto"><path d="M 0 5 L 10 10 L 10 0 z" fill="#e15759" stroke="#e15759" stroke-width="1" stroke-dasharray="1,0"/></marker><marker id="arrow-5" viewBox="0 0 10 10" refX="5" refY="5" markerUnits="userSpaceOnUse" markerWidth="8" markerHeight="8" orient="auto"><path d="M 0 0 L 10 5 L 0 10 z" fill="#edc949" stroke="#edc949" stroke-width="1" stroke-dasharray="1,0"/></marker><marker id="arrow-start-5" viewBox="0 0 10 10" refX="4.5" refY="5" markerUnits="userSpaceOnUse" markerWidth="8" markerHeight="8" orient="auto"><path d="M 0 5 L 10 10 L 10 0 z" fill="#edc949" stroke="#edc949" stroke-width="1" stroke-dasharray="1,0"/></marker></defs><g class="nodes"><g class="node" id="node-1" transform="translate(0.000,0.000)" x="0.000" y="0.000"><rect height="115.4527" width="10" fill="#4e79a7"/></g><g class="node" id="node-2" transform="translate(183.333,0.000)" x="183.333" y="0.000"><rect height="360" width="10" fill="#f28e2c"/></g><g class="node" id="node-3" transform="translate(366.667,0.000)" x="366.667" y="0.000"><rect height="112.062126" width="10" fill="#e15759"/></g><g class="node" id="node-4" transform="translate(366.667,0.553)" x="366.667" y="0.553"><rect height="24.86423" width="10" fill="#76b7b2"/></g><g class="node" id="node-5" transform="translate(366.667,25.417)" x="366.667" y="25.417"><rect height="259.474" width="10" fill="#59a14f"/></g><g class="node" id="node-6" transform="translate(366.667,284.891)" x="366.667" y="284.891"><rect height="75.109184" width="10" fill="#edc949"/></g><g class="node" id="node-7" transform="translate(550.000,25.417)" x="550.000" y="25.417"><rect height="0.0009256284" width="10" fill="#af7aa1"/></g><g class="node" id="node-8" transform="translate(550.000,0.000)" x="550.000" y="0.000"><rect height="112.062126" width="10" fill="#ff9da7"/></g><g class="node" id="node-9" transform="translate(550.000,284.891)" x="550.000" y="284.891"><rect height="73.42918" width="10" fill="#9c755f"/></g></g><g class="node-labels" font-size="14" fill="#333333"><text x="16" y="57.72635" dy="0em" text-anchor="start">Agricultural waste
124.73</text><text x="199.33333" y="180" dy="0em" text-anchor="start">Bio-conversion
388.93</text><text x="382.66666" y="56.031063" dy="0em" text-anchor="start">Liquid
121.07</text><text x="382.66666" y="12.9847145" dy="0em" text-anchor="start">Losses
26.86</text><text x="382.66666" y="155.15382" dy="0em" text-anchor="start">Solid
280.32</text><text x="382.66666" y="322.4454" dy="0em" text-anchor="start">Gas
81.14</text><text x="544" y="25.417294" dy="0em" text-anchor="end">Over generation / exports
0</text><text x="544" y="56.031063" dy="0em" text-anchor="end">Industry
121.07</text><text x="544" y="321.6054" dy="0em" text-anchor="end">Heating and cooling
79.33</text></g><g class="links" fill="none" stroke-opacity="0.5"><g class="link" style="mix-blend-mode: multiply;"><linearGradient id="sankey-grad-0" gradientUnits="userSpaceOnUse" x1="10" x2="183.33333"><stop offset="0%" stop-color="#4e79a7"/><stop offset="100%" stop-color="#f28e2c"/></linearGradient><path d="M10.000,57.726C96.667,57.726,96.667,57.726,183.333,57.726" stroke="url(#sankey-grad-0)" stroke-width="115.4527"/></g><g class="link" style="mix-blend-mode: multiply;"><linearGradient id="sankey-grad-1" gradientUnits="userSpaceOnUse" x1="193.33333" x2="366.66666"><stop offset="0%" stop-color="#f28e2c"/><stop offset="100%" stop-color="#e15759"/></linearGradient><path d="M193.333,0.276C280.000,0.276,280.000,0.276,366.667,0.276" stroke="url(#sankey-grad-1)" stroke-width="0.55260015"/></g><g class="link" style="mix-blend-mode: multiply;"><linearGradient id="sankey-grad-2" gradientUnits="userSpaceOnUse" x1="193.33333" x2="366.66666"><stop offset="0%" stop-color="#f28e2c"/><stop offset="100%" stop-color="#76b7b2"/></linearGradient><path d="M193.333,12.985C280.000,12.985,280.000,12.985,366.667,12.985" stroke="url(#sankey-grad-2)" stroke-width="24.86423"/></g><g class="link" style="mix-blend-mode: multiply;"><linearGradient id="sankey-grad-3" gradientUnits="userSpaceOnUse" x1="193.33333" x2="366.66666"><stop offset="0%" stop-color="#f28e2c"/><stop offset="100%" stop-color="#59a14f"/></linearGradient><path d="M193.333,155.154C280.000,155.154,280.000,155.154,366.667,155.154" stroke="url(#sankey-grad-3)" stroke-width="259.474"/></g><g class="link" style="mix-blend-mode: multiply;"><linearGradient id="sankey-grad-4" gradientUnits="userSpaceOnUse" x1="193.33333" x2="366.66666"><stop offset="0%" stop-color="#f28e2c"/><stop offset="100%" stop-color="#edc949"/></linearGradient><path d="M193.333,322.445C280.000,322.445,280.000,322.445,366.667,322.445" stroke="url(#sankey-grad-4)" stroke-width="75.109184"/></g><g class="link" style="mix-blend-mode: multiply;"><linearGradient id="sankey-grad-5" gradientUnits="userSpaceOnUse" x1="376.66666" x2="550"><stop offset="0%" stop-color="#59a14f"/><stop offset="100%" stop-color="#af7aa1"/></linearGradient><path d="M376.667,25.417C463.333,25.417,463.333,25.417,550.000,25.417" stroke="url(#sankey-grad-5)" stroke-width="0.0009256284"/></g><g class="link" style="mix-blend-mode: multiply;"><linearGradient id="sankey-grad-6" gradientUnits="userSpaceOnUse" x1="376.66666" x2="550"><stop offset="0%" stop-color="#e15759"/><stop offset="100%" stop-color="#ff9da7"/></linearGradient><path d="M376.667,56.031C463.333,56.031,463.333,56.031,550.000,56.031" stroke="url(#sankey-grad-6)" stroke-width="112.062126"/></g><g class="link" style="mix-blend-mode: multiply;"><linearGradient id="sankey-grad-7" gradientUnits="userSpaceOnUse" x1="376.66666" x2="550"><stop offset="0%" stop-color="#edc949"/><stop offset="100%" stop-color="#9c755f"/></linearGradient><path d="M376.667,321.605C463.333,321.605,463.333,321.605,550.000,321.605" stroke="url(#sankey-grad-7)" stroke-width="73.42918"/></g></g></svg>