<svg xmlns="http://www.w3.org/2000/svg" width="1149.261" height="551.19995" viewBox="0 0 1149.261 551.19995"><rect x="0" y="0" width="1149.261" height="551.19995" fill="#FFFFFF"/><defs><marker id="arrow-0" viewBox="0 0 10 10" refX="5" refY="5" markerUnits="userSpaceOnUse" markerWidth="8" markerHeight="8" orient="auto"><path d="M 0 0 L 10 5 L 0 10 z" fill="#2F3B4D" stroke="#2F3B4D" stroke-width="1" stroke-dasharray="1,0"/></marker><marker id="arrow-start-0" viewBox="0 0 10 10" refX="4.5" refY="5" markerUnits="userSpaceOnUse" markerWidth="8" markerHeight="8" orient="auto"><path d="M 0 5 L 10 10 L 10 0 z" fill="#2F3B4D" stroke="#2F3B4D" stroke-width="1" stroke-dasharray="1,0"/></marker><marker id="arrow-seq-0" viewBox="-1 0 12 10" refX="7.9" refY="5" markerUnits="userSpaceOnUse" markerWidth="12" markerHeight="12" orient="auto-start-reverse"><path d="M -1 0 L 10 5 L 0 10 z" fill="#2F3B4D" stroke="#2F3B4D" stroke-width="1" stroke-dasharray="1,0"/></marker><marker id="arrow-start-seq-0" viewBox="-1 0 12 10" refX="2.1" refY="5" markerUnits="userSpaceOnUse" markerWidth="12" markerHeight="12" orient="auto"><path d="M 11 0 L 0 5 L 11 10 z" fill="#2F3B4D" stroke="#2F3B4D" stroke-width="1" stroke-dasharray="1,0"/></marker></defs><line x1="73.00" y1="64.00" x2="73.00" y2="435.20" stroke="#999999" stroke-width="0.5"/><line x1="251.00" y1="64.00" x2="251.00" y2="435.20" stroke="#999999" stroke-width="0.5"/><line x1="429.00" y1="64.00" x2="429.00" y2="435.20" stroke="#999999" stroke-width="0.5"/><line x1="607.00" y1="64.00" x2="607.00" y2="435.20" stroke="#999999" stroke-width="0.5"/><line x1="785.00" y1="64.00" x2="785.00" y2="435.20" stroke="#999999" stroke-width="0.5"/><line x1="963.00" y1="64.00" x2="963.00" y2="435.20" stroke="#999999" stroke-width="0.5"/><path d="M 549.07 108.00 L 653.41 108.00 L 664.93 119.52 L 664.93 146.40 L 549.07 146.40 Z" fill="#FFF5AD" stroke="#AAAA33" stroke-width="1.1"/><polyline points="653.41,108.00 653.41,119.52 664.93,119.52" fill="none" stroke="#AAAA33" stroke-width="1.0"/><text x="607.00" y="131.20" text-anchor="middle" font-family="'trebuchet ms', verdana, arial, sans-serif" font-size="16" fill="#333333"><tspan x="607.00" dy="0.00">Alice starts</tspan></text><path d="M 596.60 197.60 L 783.88 197.60 L 795.40 209.12 L 795.40 236.00 L 596.60 236.00 Z" fill="#FFF5AD" stroke="#AAAA33" stroke-width="1.1"/><polyline points="783.88,197.60 783.88,209.12 795.40,209.12" fill="none" stroke="#AAAA33" stroke-width="1.0"/><text x="696.00" y="220.80" text-anchor="middle" font-family="'trebuchet ms', verdana, arial, sans-serif" font-size="16" fill="#333333"><tspan x="696.00" dy="0.00">Handshake</tspan></text><path d="M 973.40 287.20 L 1077.74 287.20 L 1089.26 298.72 L 1089.26 325.60 L 973.40 325.60 Z" fill="#FFF5AD" stroke="#AAAA33" stroke-width="1.1"/><polyline points="1077.74,287.20 1077.74,298.72 1089.26,298.72" fill="none" stroke="#AAAA33" stroke-width="1.0"/><text x="1031.33" y="310.40" text-anchor="middle" font-family="'trebuchet ms', verdana, arial, sans-serif" font-size="16" fill="#333333"><tspan x="1031.33" dy="0.00">Carol thinks</tspan></text><path d="M 596.60 376.80 L 961.88 376.80 L 973.40 388.32 L 973.40 415.20 L 596.60 415.20 Z" fill="#FFF5AD" stroke="#AAAA33" stroke-width="1.1"/><polyline points="961.88,376.80 961.88,388.32 973.40,388.32" fill="none" stroke="#AAAA33" stroke-width="1.0"/><text x="785.00" y="400.00" text-anchor="middle" font-family="'trebuchet ms', verdana, arial, sans-serif" font-size="16" fill="#333333"><tspan x="785.00" dy="0.00">All connected</tspan></text><path d="M 607.000,155.200 L 785.000,155.200" fill="none" stroke="#2F3B4D" stroke-width="1.5" marker-end="url(#arrow-seq-0)"   stroke-linecap="round" stroke-linejoin="round" /><text x="696.00" y="137.60" text-anchor="middle" font-family="'trebuchet ms', verdana, arial, sans-serif" font-size="16" fill="#333333"><tspan x="696.00" dy="0.00">Hello Bob</tspan></text><path d="M 785.000,244.800 L 963.000,244.800" fill="none" stroke="#2F3B4D" stroke-width="1.5" marker-end="url(#arrow-seq-0)"   stroke-linecap="round" stroke-linejoin="round" /><text x="874.00" y="227.20" text-anchor="middle" font-family="'trebuchet ms', verdana, arial, sans-serif" font-size="16" fill="#333333"><tspan x="874.00" dy="0.00">Introduce Alice</tspan></text><path d="M 963.000,334.400 L 607.000,334.400" fill="none" stroke="#2F3B4D" stroke-width="1.5" marker-end="url(#arrow-seq-0)"  stroke-dasharray="3 3" stroke-linecap="round" stroke-linejoin="round" /><text x="785.00" y="316.80" text-anchor="middle" font-family="'trebuchet ms', verdana, arial, sans-serif" font-size="16" fill="#333333"><tspan x="785.00" dy="0.00">Nice to meet you</tspan></text><rect x="542.00" y="8.00" width="130.00" height="56.00" rx="3" ry="3" fill="#EAEAEA" stroke="#666666" stroke-width="1.0"/><text x="607.00" y="40.00" text-anchor="middle" font-family="'trebuchet ms', verdana, arial, sans-serif" font-size="16" fill="#333333"><tspan x="607.00" dy="0.00">A</tspan></text><rect x="8.00" y="8.00" width="130.00" height="56.00" rx="3" ry="3" fill="#EAEAEA" stroke="#666666" stroke-width="1.0"/><text x="73.00" y="40.00" text-anchor="middle" font-family="'trebuchet ms', verdana, arial, sans-serif" font-size="16" fill="#333333"><tspan x="73.00" dy="0.00">A</tspan></text><rect x="720.00" y="8.00" width="130.00" height="56.00" rx="3" ry="3" fill="#EAEAEA" stroke="#666666" stroke-width="1.0"/><text x="785.00" y="40.00" text-anchor="middle" font-family="'trebuchet ms', verdana, arial, sans-serif" font-size="16" fill="#333333"><tspan x="785.00" dy="0.00">B</tspan></text><rect x="186.00" y="8.00" width="130.00" height="56.00" rx="3" ry="3" fill="#EAEAEA" stroke="#666666" stroke-width="1.0"/><text x="251.00" y="40.00" text-anchor="middle" font-family="'trebuchet ms', verdana, arial, sans-serif" font-size="16" fill="#333333"><tspan x="251.00" dy="0.00">B</tspan></text><rect x="898.00" y="8.00" width="130.00" height="56.00" rx="3" ry="3" fill="#EAEAEA" stroke="#666666" stroke-width="1.0"/><text x="963.00" y="40.00" text-anchor="middle" font-family="'trebuchet ms', verdana, arial, sans-serif" font-size="16" fill="#333333"><tspan x="963.00" dy="0.00">C</tspan></text><rect x="364.00" y="8.00" width="130.00" height="56.00" rx="3" ry="3" fill="#EAEAEA" stroke="#666666" stroke-width="1.0"/><text x="429.00" y="40.00" text-anchor="middle" font-family="'trebuchet ms', verdana, arial, sans-serif" font-size="16" fill="#333333"><tspan x="429.00" dy="0.00">C</tspan></text><rect x="8.00" y="435.20" width="130.00" height="56.00" rx="3" ry="3" fill="#EAEAEA" stroke="#666666" stroke-width="1.0"/><text x="73.00" y="467.20" text-anchor="middle" font-family="'trebuchet ms', verdana, arial, sans-serif" font-size="16" fill="#333333"><tspan x="73.00" dy="0.00">A</tspan></text><rect x="186.00" y="435.20" width="130.00" height="56.00" rx="3" ry="3" fill="#EAEAEA" stroke="#666666" stroke-width="1.0"/><text x="251.00" y="467.20" text-anchor="middle" font-family="'trebuchet ms', verdana, arial, sans-serif" font-size="16" fill="#333333"><tspan x="251.00" dy="0.00">B</tspan></text><rect x="364.00" y="435.20" width="130.00" height="56.00" rx="3" ry="3" fill="#EAEAEA" stroke="#666666" stroke-width="1.0"/><text x="429.00" y="467.20" text-anchor="middle" font-family="'trebuchet ms', verdana, arial, sans-serif" font-size="16" fill="#333333"><tspan x="429.00" dy="0.00">C</tspan></text><rect x="542.00" y="435.20" width="130.00" height="56.00" rx="3" ry="3" fill="#EAEAEA" stroke="#666666" stroke-width="1.0"/><text x="607.00" y="467.20" text-anchor="middle" font-family="'trebuchet ms', verdana, arial, sans-serif" font-size="16" fill="#333333"><tspan x="607.00" dy="0.00">A</tspan></text><rect x="720.00" y="435.20" width="130.00" height="56.00" rx="3" ry="3" fill="#EAEAEA" stroke="#666666" stroke-width="1.0"/><text x="785.00" y="467.20" text-anchor="middle" font-family="'trebuchet ms', verdana, arial, sans-serif" font-size="16" fill="#333333"><tspan x="785.00" dy="0.00">B</tspan></text><rect x="898.00" y="435.20" width="130.00" height="56.00" rx="3" ry="3" fill="#EAEAEA" stroke="#666666" stroke-width="1.0"/><text x="963.00" y="467.20" text-anchor="middle" font-family="'trebuchet ms', verdana, arial, sans-serif" font-size="16" fill="#333333"><tspan x="963.00" dy="0.00">C</tspan></text></svg>