<svg xmlns="http://www.w3.org/2000/svg" width="861.2468" height="472.80005" viewBox="0 0 861.2468 472.80005"><rect x="0" y="0" width="861.2468" height="472.80005" fill="#FFFFFF"/><defs><marker id="arrow-0" viewBox="0 0 10 10" refX="5" refY="5" markerUnits="userSpaceOnUse" markerWidth="8" markerHeight="8" orient="auto"><path d="M 0 0 L 10 5 L 0 10 z" fill="#2F3B4D" stroke="#2F3B4D" stroke-width="1" stroke-dasharray="1,0"/></marker><marker id="arrow-start-0" viewBox="0 0 10 10" refX="4.5" refY="5" markerUnits="userSpaceOnUse" markerWidth="8" markerHeight="8" orient="auto"><path d="M 0 5 L 10 10 L 10 0 z" fill="#2F3B4D" stroke="#2F3B4D" stroke-width="1" stroke-dasharray="1,0"/></marker><marker id="arrow-seq-0" viewBox="-1 0 12 10" refX="7.9" refY="5" markerUnits="userSpaceOnUse" markerWidth="12" markerHeight="12" orient="auto-start-reverse"><path d="M -1 0 L 10 5 L 0 10 z" fill="#2F3B4D" stroke="#2F3B4D" stroke-width="1" stroke-dasharray="1,0"/></marker><marker id="arrow-start-seq-0" viewBox="-1 0 12 10" refX="2.1" refY="5" markerUnits="userSpaceOnUse" markerWidth="12" markerHeight="12" orient="auto"><path d="M 11 0 L 0 5 L 11 10 z" fill="#2F3B4D" stroke="#2F3B4D" stroke-width="1" stroke-dasharray="1,0"/></marker></defs><line x1="71.21" y1="57.60" x2="71.21" y2="415.20" stroke="#999999" stroke-width="0.5"/><line x1="191.25" y1="57.60" x2="191.25" y2="415.20" stroke="#999999" stroke-width="0.5"/><line x1="318.93" y1="57.60" x2="318.93" y2="415.20" stroke="#999999" stroke-width="0.5"/><line x1="458.11" y1="57.60" x2="458.11" y2="415.20" stroke="#999999" stroke-width="0.5"/><line x1="624.07" y1="57.60" x2="624.07" y2="415.20" stroke="#999999" stroke-width="0.5"/><line x1="782.38" y1="57.60" x2="782.38" y2="415.20" stroke="#999999" stroke-width="0.5"/><rect x="452.11" y="227.20" width="12.00" height="33.60" fill="#F4F4F4" stroke="#666666" stroke-width="1"/><rect x="312.93" y="193.60" width="12.00" height="201.60" fill="#F4F4F4" stroke="#666666" stroke-width="1"/><path class="edgePath" d="M 71.213,92.800 L 191.246,92.800" fill="none" stroke="#2F3B4D" stroke-width="1.5" marker-end="url(#arrow-seq-0)"   stroke-linecap="round" stroke-linejoin="round" /><text x="131.23" y="129.60" text-anchor="middle" font-family="'trebuchet ms', verdana, arial, sans-serif" font-size="16" fill="#333333"><tspan x="131.23" dy="0.00">Authenticate</tspan></text><path class="edgePath" d="M 191.246,126.400 L 71.213,126.400" fill="none" stroke="#2F3B4D" stroke-width="1.5" marker-end="url(#arrow-seq-0)"  stroke-dasharray="3 3" stroke-linecap="round" stroke-linejoin="round" /><text x="131.23" y="189.44" text-anchor="middle" font-family="'trebuchet ms', verdana, arial, sans-serif" font-size="16" fill="#333333"><tspan x="131.23" dy="0.00">Token Valid</tspan></text><path class="edgePath" d="M 71.213,160.000 L 318.935,160.000" fill="none" stroke="#2F3B4D" stroke-width="1.5" marker-end="url(#arrow-seq-0)"   stroke-linecap="round" stroke-linejoin="round" /><text x="245.89" y="131.20" text-anchor="middle" font-family="'trebuchet ms', verdana, arial, sans-serif" font-size="16" fill="#333333"><tspan x="245.89" dy="0.00">Create Order</tspan></text><path class="edgePath" d="M 318.935,193.600 L 458.106,193.600" fill="none" stroke="#2F3B4D" stroke-width="1.5" marker-end="url(#arrow-seq-0)"   stroke-linecap="round" stroke-linejoin="round" /><text x="388.52" y="164.80" text-anchor="middle" font-family="'trebuchet ms', verdana, arial, sans-serif" font-size="16" fill="#333333"><tspan x="388.52" dy="0.00">Process Payment</tspan></text><path class="edgePath" d="M 458.106,227.200 L 318.935,227.200" fill="none" stroke="#2F3B4D" stroke-width="1.5" marker-end="url(#arrow-seq-0)"  stroke-dasharray="3 3" stroke-linecap="round" stroke-linejoin="round" /><text x="388.52" y="290.24" text-anchor="middle" font-family="'trebuchet ms', verdana, arial, sans-serif" font-size="16" fill="#333333"><tspan x="388.52" dy="0.00">Payment OK</tspan></text><path class="edgePath" d="M 318.935,260.800 L 782.379,260.800" fill="none" stroke="#2F3B4D" stroke-width="1.5" marker-end="url(#arrow-seq-0)"   stroke-linecap="round" stroke-linejoin="round" /><text x="550.66" y="232.00" text-anchor="middle" font-family="'trebuchet ms', verdana, arial, sans-serif" font-size="16" fill="#333333"><tspan x="550.66" dy="0.00">Publish OrderCreated</tspan></text><path class="edgePath" d="M 782.379,294.400 L 624.070,294.400" fill="none" stroke="#2F3B4D" stroke-width="1.5" marker-end="url(#arrow-seq-0)"  stroke-dasharray="3 3" stroke-linecap="round" stroke-linejoin="round" /><text x="747.30" y="331.20" text-anchor="middle" font-family="'trebuchet ms', verdana, arial, sans-serif" font-size="16" fill="#333333"><tspan x="747.30" dy="0.00">OrderCreated Event</tspan></text><path class="edgePath" d="M 624.070,328.000 L 654.070,328.000 L 654.070,358.000 L 624.070,358.000" fill="none" stroke="#2F3B4D" stroke-width="1.5" marker-end="url(#arrow-seq-0)"   stroke-linecap="round" stroke-linejoin="round" /><text x="621.27" y="335.86" text-anchor="middle" font-family="'trebuchet ms', verdana, arial, sans-serif" font-size="16" fill="#333333"><tspan x="621.27" dy="0.00">Send Email</tspan></text><path class="edgePath" d="M 318.935,361.600 L 71.213,361.600" fill="none" stroke="#2F3B4D" stroke-width="1.5" marker-end="url(#arrow-seq-0)"  stroke-dasharray="3 3" stroke-linecap="round" stroke-linejoin="round" /><text x="195.07" y="332.80" text-anchor="middle" font-family="'trebuchet ms', verdana, arial, sans-serif" font-size="16" fill="#333333"><tspan x="195.07" dy="0.00">Order Confirmed</tspan></text><path class="edgePath" d="M 71.213,395.200 L 101.213,395.200 L 101.213,425.200 L 71.213,425.200" fill="none" stroke="#2F3B4D" stroke-width="1.5" marker-end="url(#arrow-seq-0)"  stroke-dasharray="3 3" stroke-linecap="round" stroke-linejoin="round" /><text x="68.41" y="397.97" text-anchor="middle" font-family="'trebuchet ms', verdana, arial, sans-serif" font-size="16" fill="#333333"><tspan x="68.41" dy="0.00">Return Response</tspan></text><rect x="19.51" y="8.00" width="103.41" height="49.60" rx="3" ry="3" fill="#EAEAEA" stroke="#666666" stroke-width="1.0"/><text x="71.21" y="36.80" text-anchor="middle" font-family="'trebuchet ms', verdana, arial, sans-serif" font-size="16" fill="#333333"><tspan x="71.21" dy="0.00">API Gateway</tspan></text><rect x="537.92" y="8.00" width="172.30" height="49.60" rx="3" ry="3" fill="#EAEAEA" stroke="#666666" stroke-width="1.0"/><text x="624.07" y="36.80" text-anchor="middle" font-family="'trebuchet ms', verdana, arial, sans-serif" font-size="16" fill="#333333"><tspan x="624.07" dy="0.00">Notification Service</tspan></text><rect x="259.58" y="8.00" width="118.72" height="49.60" rx="3" ry="3" fill="#EAEAEA" stroke="#666666" stroke-width="1.0"/><text x="318.93" y="36.80" text-anchor="middle" font-family="'trebuchet ms', verdana, arial, sans-serif" font-size="16" fill="#333333"><tspan x="318.93" dy="0.00">Order Service</tspan></text><rect x="391.09" y="8.00" width="134.03" height="49.60" rx="3" ry="3" fill="#EAEAEA" stroke="#666666" stroke-width="1.0"/><text x="458.11" y="36.80" text-anchor="middle" font-family="'trebuchet ms', verdana, arial, sans-serif" font-size="16" fill="#333333"><tspan x="458.11" dy="0.00">Payment Service</tspan></text><rect x="723.02" y="8.00" width="118.72" height="49.60" rx="3" ry="3" fill="#EAEAEA" stroke="#666666" stroke-width="1.0"/><text x="782.38" y="36.80" text-anchor="middle" font-family="'trebuchet ms', verdana, arial, sans-serif" font-size="16" fill="#333333"><tspan x="782.38" dy="0.00">Message Queue</tspan></text><rect x="135.72" y="8.00" width="111.06" height="49.60" rx="3" ry="3" fill="#EAEAEA" stroke="#666666" stroke-width="1.0"/><text x="191.25" y="36.80" text-anchor="middle" font-family="'trebuchet ms', verdana, arial, sans-serif" font-size="16" fill="#333333"><tspan x="191.25" dy="0.00">User Service</tspan></text><rect x="19.51" y="415.20" width="103.41" height="49.60" rx="3" ry="3" fill="#EAEAEA" stroke="#666666" stroke-width="1.0"/><text x="71.21" y="444.00" text-anchor="middle" font-family="'trebuchet ms', verdana, arial, sans-serif" font-size="16" fill="#333333"><tspan x="71.21" dy="0.00">API Gateway</tspan></text><rect x="135.72" y="415.20" width="111.06" height="49.60" rx="3" ry="3" fill="#EAEAEA" stroke="#666666" stroke-width="1.0"/><text x="191.25" y="444.00" text-anchor="middle" font-family="'trebuchet ms', verdana, arial, sans-serif" font-size="16" fill="#333333"><tspan x="191.25" dy="0.00">User Service</tspan></text><rect x="259.58" y="415.20" width="118.72" height="49.60" rx="3" ry="3" fill="#EAEAEA" stroke="#666666" stroke-width="1.0"/><text x="318.93" y="444.00" text-anchor="middle" font-family="'trebuchet ms', verdana, arial, sans-serif" font-size="16" fill="#333333"><tspan x="318.93" dy="0.00">Order Service</tspan></text><rect x="391.09" y="415.20" width="134.03" height="49.60" rx="3" ry="3" fill="#EAEAEA" stroke="#666666" stroke-width="1.0"/><text x="458.11" y="444.00" text-anchor="middle" font-family="'trebuchet ms', verdana, arial, sans-serif" font-size="16" fill="#333333"><tspan x="458.11" dy="0.00">Payment Service</tspan></text><rect x="537.92" y="415.20" width="172.30" height="49.60" rx="3" ry="3" fill="#EAEAEA" stroke="#666666" stroke-width="1.0"/><text x="624.07" y="444.00" text-anchor="middle" font-family="'trebuchet ms', verdana, arial, sans-serif" font-size="16" fill="#333333"><tspan x="624.07" dy="0.00">Notification Service</tspan></text><rect x="723.02" y="415.20" width="118.72" height="49.60" rx="3" ry="3" fill="#EAEAEA" stroke="#666666" stroke-width="1.0"/><text x="782.38" y="444.00" text-anchor="middle" font-family="'trebuchet ms', verdana, arial, sans-serif" font-size="16" fill="#333333"><tspan x="782.38" dy="0.00">Message Queue</tspan></text></svg>