<svg xmlns="http://www.w3.org/2000/svg" width="615.2609" height="551.19995" viewBox="0 0 615.2609 551.19995"><rect x="0" y="0" width="615.2609" height="551.19995" fill="#FFFFFF"/><defs><marker id="arrow-0" viewBox="0 0 10 10" refX="5" refY="5" markerUnits="userSpaceOnUse" markerWidth="8" markerHeight="8" orient="auto"><path d="M 0 0 L 10 5 L 0 10 z" fill="#2F3B4D" stroke="#2F3B4D" stroke-width="1" stroke-dasharray="1,0"/></marker><marker id="arrow-start-0" viewBox="0 0 10 10" refX="4.5" refY="5" markerUnits="userSpaceOnUse" markerWidth="8" markerHeight="8" orient="auto"><path d="M 0 5 L 10 10 L 10 0 z" fill="#2F3B4D" stroke="#2F3B4D" stroke-width="1" stroke-dasharray="1,0"/></marker><marker id="arrow-seq-0" viewBox="-1 0 12 10" refX="7.9" refY="5" markerUnits="userSpaceOnUse" markerWidth="12" markerHeight="12" orient="auto-start-reverse"><path d="M -1 0 L 10 5 L 0 10 z" fill="#2F3B4D" stroke="#2F3B4D" stroke-width="1" stroke-dasharray="1,0"/></marker><marker id="arrow-start-seq-0" viewBox="-1 0 12 10" refX="2.1" refY="5" markerUnits="userSpaceOnUse" markerWidth="12" markerHeight="12" orient="auto"><path d="M 11 0 L 0 5 L 11 10 z" fill="#2F3B4D" stroke="#2F3B4D" stroke-width="1" stroke-dasharray="1,0"/></marker></defs><line x1="73.00" y1="64.00" x2="73.00" y2="435.20" stroke="#999999" stroke-width="0.5"/><line x1="251.00" y1="64.00" x2="251.00" y2="435.20" stroke="#999999" stroke-width="0.5"/><line x1="429.00" y1="64.00" x2="429.00" y2="435.20" stroke="#999999" stroke-width="0.5"/><path d="M 15.07 108.00 L 119.41 108.00 L 130.93 119.52 L 130.93 146.40 L 15.07 146.40 Z" fill="#FFF5AD" stroke="#AAAA33" stroke-width="1.1"/><polyline points="119.41,108.00 119.41,119.52 130.93,119.52" fill="none" stroke="#AAAA33" stroke-width="1.0"/><text x="73.00" y="131.20" text-anchor="middle" font-family="'trebuchet ms', verdana, arial, sans-serif" font-size="16" fill="#333333"><tspan x="73.00" dy="0.00">Alice starts</tspan></text><path d="M 62.60 197.60 L 249.88 197.60 L 261.40 209.12 L 261.40 236.00 L 62.60 236.00 Z" fill="#FFF5AD" stroke="#AAAA33" stroke-width="1.1"/><polyline points="249.88,197.60 249.88,209.12 261.40,209.12" fill="none" stroke="#AAAA33" stroke-width="1.0"/><text x="162.00" y="220.80" text-anchor="middle" font-family="'trebuchet ms', verdana, arial, sans-serif" font-size="16" fill="#333333"><tspan x="162.00" dy="0.00">Handshake</tspan></text><path d="M 439.40 287.20 L 543.74 287.20 L 555.26 298.72 L 555.26 325.60 L 439.40 325.60 Z" fill="#FFF5AD" stroke="#AAAA33" stroke-width="1.1"/><polyline points="543.74,287.20 543.74,298.72 555.26,298.72" fill="none" stroke="#AAAA33" stroke-width="1.0"/><text x="497.33" y="310.40" text-anchor="middle" font-family="'trebuchet ms', verdana, arial, sans-serif" font-size="16" fill="#333333"><tspan x="497.33" dy="0.00">Carol thinks</tspan></text><path d="M 62.60 376.80 L 427.88 376.80 L 439.40 388.32 L 439.40 415.20 L 62.60 415.20 Z" fill="#FFF5AD" stroke="#AAAA33" stroke-width="1.1"/><polyline points="427.88,376.80 427.88,388.32 439.40,388.32" fill="none" stroke="#AAAA33" stroke-width="1.0"/><text x="251.00" y="400.00" text-anchor="middle" font-family="'trebuchet ms', verdana, arial, sans-serif" font-size="16" fill="#333333"><tspan x="251.00" dy="0.00">All connected</tspan></text><path d="M 73.000,155.200 L 251.000,155.200" fill="none" stroke="#2F3B4D" stroke-width="1.5" marker-end="url(#arrow-seq-0)"   stroke-linecap="round" stroke-linejoin="round" /><text x="162.00" y="137.60" text-anchor="middle" font-family="'trebuchet ms', verdana, arial, sans-serif" font-size="16" fill="#333333"><tspan x="162.00" dy="0.00">Hello Bob</tspan></text><path d="M 251.000,244.800 L 429.000,244.800" fill="none" stroke="#2F3B4D" stroke-width="1.5" marker-end="url(#arrow-seq-0)"   stroke-linecap="round" stroke-linejoin="round" /><text x="340.00" y="227.20" text-anchor="middle" font-family="'trebuchet ms', verdana, arial, sans-serif" font-size="16" fill="#333333"><tspan x="340.00" dy="0.00">Introduce Alice</tspan></text><path d="M 429.000,334.400 L 73.000,334.400" fill="none" stroke="#2F3B4D" stroke-width="1.5" marker-end="url(#arrow-seq-0)"  stroke-dasharray="3 3" stroke-linecap="round" stroke-linejoin="round" /><text x="251.00" y="316.80" text-anchor="middle" font-family="'trebuchet ms', verdana, arial, sans-serif" font-size="16" fill="#333333"><tspan x="251.00" dy="0.00">Nice to meet you</tspan></text><rect x="8.00" y="8.00" width="130.00" height="56.00" rx="3" ry="3" fill="#EAEAEA" stroke="#666666" stroke-width="1.0"/><text x="73.00" y="40.00" text-anchor="middle" font-family="'trebuchet ms', verdana, arial, sans-serif" font-size="16" fill="#333333"><tspan x="73.00" dy="0.00">Alice</tspan></text><rect x="186.00" y="8.00" width="130.00" height="56.00" rx="3" ry="3" fill="#EAEAEA" stroke="#666666" stroke-width="1.0"/><text x="251.00" y="40.00" text-anchor="middle" font-family="'trebuchet ms', verdana, arial, sans-serif" font-size="16" fill="#333333"><tspan x="251.00" dy="0.00">Bob</tspan></text><rect x="364.00" y="8.00" width="130.00" height="56.00" rx="3" ry="3" fill="#EAEAEA" stroke="#666666" stroke-width="1.0"/><text x="429.00" y="40.00" text-anchor="middle" font-family="'trebuchet ms', verdana, arial, sans-serif" font-size="16" fill="#333333"><tspan x="429.00" dy="0.00">Carol</tspan></text><rect x="8.00" y="435.20" width="130.00" height="56.00" rx="3" ry="3" fill="#EAEAEA" stroke="#666666" stroke-width="1.0"/><text x="73.00" y="467.20" text-anchor="middle" font-family="'trebuchet ms', verdana, arial, sans-serif" font-size="16" fill="#333333"><tspan x="73.00" dy="0.00">Alice</tspan></text><rect x="186.00" y="435.20" width="130.00" height="56.00" rx="3" ry="3" fill="#EAEAEA" stroke="#666666" stroke-width="1.0"/><text x="251.00" y="467.20" text-anchor="middle" font-family="'trebuchet ms', verdana, arial, sans-serif" font-size="16" fill="#333333"><tspan x="251.00" dy="0.00">Bob</tspan></text><rect x="364.00" y="435.20" width="130.00" height="56.00" rx="3" ry="3" fill="#EAEAEA" stroke="#666666" stroke-width="1.0"/><text x="429.00" y="467.20" text-anchor="middle" font-family="'trebuchet ms', verdana, arial, sans-serif" font-size="16" fill="#333333"><tspan x="429.00" dy="0.00">Carol</tspan></text></svg>