<svg xmlns="http://www.w3.org/2000/svg" width="582" height="336" viewBox="0 0 582 336"><rect x="0" y="0" width="582" height="336" fill="#FFFFFF"/><defs><marker id="arrow-0" viewBox="0 0 10 10" refX="5" refY="5" markerUnits="userSpaceOnUse" markerWidth="8" markerHeight="8" orient="auto"><path d="M 0 0 L 10 5 L 0 10 z" fill="#333333" stroke="#333333" stroke-width="1" stroke-dasharray="1,0"/></marker><marker id="arrow-start-0" viewBox="0 0 10 10" refX="4.5" refY="5" markerUnits="userSpaceOnUse" markerWidth="8" markerHeight="8" orient="auto"><path d="M 0 5 L 10 10 L 10 0 z" fill="#333333" stroke="#333333" stroke-width="1" stroke-dasharray="1,0"/></marker><marker id="arrow-seq-0" viewBox="-1 0 12 10" refX="7.9" refY="5" markerUnits="userSpaceOnUse" markerWidth="12" markerHeight="12" orient="auto-start-reverse"><path d="M -1 0 L 10 5 L 0 10 z" fill="#333333" stroke="#333333" stroke-width="1" stroke-dasharray="1,0"/></marker><marker id="arrow-start-seq-0" viewBox="-1 0 12 10" refX="2.1" refY="5" markerUnits="userSpaceOnUse" markerWidth="12" markerHeight="12" orient="auto"><path d="M 11 0 L 0 5 L 11 10 z" fill="#333333" stroke="#333333" stroke-width="1" stroke-dasharray="1,0"/></marker></defs><line x1="73.00" y1="64.00" x2="73.00" y2="220.00" stroke="#999999" stroke-width="0.5"/><line x1="251.00" y1="64.00" x2="251.00" y2="220.00" stroke="#999999" stroke-width="0.5"/><line x1="429.00" y1="64.00" x2="429.00" y2="220.00" stroke="#999999" stroke-width="0.5"/><path d="M 73.000,99.200 L 251.000,99.200" fill="none" stroke="#333333" stroke-width="1.5" marker-end="url(#arrow-seq-0)"   stroke-linecap="round" stroke-linejoin="round" /><text x="162.00" y="81.60" text-anchor="middle" font-family="'trebuchet ms', verdana, arial, sans-serif" font-size="16" fill="#333333"><tspan x="162.00" dy="0.00">Open app</tspan></text><path d="M 251.000,132.800 L 429.000,132.800" fill="none" stroke="#333333" stroke-width="1.5" marker-end="url(#arrow-seq-0)"   stroke-linecap="round" stroke-linejoin="round" /><text x="340.00" y="115.20" text-anchor="middle" font-family="'trebuchet ms', verdana, arial, sans-serif" font-size="16" fill="#333333"><tspan x="340.00" dy="0.00">Fetch profile</tspan></text><path d="M 429.000,166.400 L 251.000,166.400" fill="none" stroke="#333333" stroke-width="1.5" marker-end="url(#arrow-seq-0)"  stroke-dasharray="3 3" stroke-linecap="round" stroke-linejoin="round" /><text x="340.00" y="148.80" text-anchor="middle" font-family="'trebuchet ms', verdana, arial, sans-serif" font-size="16" fill="#333333"><tspan x="340.00" dy="0.00">Profile data</tspan></text><path d="M 251.000,200.000 L 73.000,200.000" fill="none" stroke="#333333" stroke-width="1.5" marker-end="url(#arrow-seq-0)"  stroke-dasharray="3 3" stroke-linecap="round" stroke-linejoin="round" /><text x="162.00" y="182.40" text-anchor="middle" font-family="'trebuchet ms', verdana, arial, sans-serif" font-size="16" fill="#333333"><tspan x="162.00" dy="0.00">Render screen</tspan></text><rect x="364.00" y="8.00" width="130.00" height="56.00" rx="3" ry="3" fill="#EAEAEA" stroke="#666666" stroke-width="1.0"/><text x="429.00" y="40.00" text-anchor="middle" font-family="'trebuchet ms', verdana, arial, sans-serif" font-size="16" fill="#333333"><tspan x="429.00" dy="0.00">API</tspan></text><rect x="8.00" y="8.00" width="130.00" height="56.00" rx="3" ry="3" fill="#EAEAEA" stroke="#666666" stroke-width="1.0"/><text x="73.00" y="40.00" text-anchor="middle" font-family="'trebuchet ms', verdana, arial, sans-serif" font-size="16" fill="#333333"><tspan x="73.00" dy="0.00">User</tspan></text><rect x="186.00" y="8.00" width="130.00" height="56.00" rx="3" ry="3" fill="#EAEAEA" stroke="#666666" stroke-width="1.0"/><text x="251.00" y="40.00" text-anchor="middle" font-family="'trebuchet ms', verdana, arial, sans-serif" font-size="16" fill="#333333"><tspan x="251.00" dy="0.00">Web</tspan></text><rect x="8.00" y="220.00" width="130.00" height="56.00" rx="3" ry="3" fill="#EAEAEA" stroke="#666666" stroke-width="1.0"/><text x="73.00" y="252.00" text-anchor="middle" font-family="'trebuchet ms', verdana, arial, sans-serif" font-size="16" fill="#333333"><tspan x="73.00" dy="0.00">User</tspan></text><rect x="186.00" y="220.00" width="130.00" height="56.00" rx="3" ry="3" fill="#EAEAEA" stroke="#666666" stroke-width="1.0"/><text x="251.00" y="252.00" text-anchor="middle" font-family="'trebuchet ms', verdana, arial, sans-serif" font-size="16" fill="#333333"><tspan x="251.00" dy="0.00">Web</tspan></text><rect x="364.00" y="220.00" width="130.00" height="56.00" rx="3" ry="3" fill="#EAEAEA" stroke="#666666" stroke-width="1.0"/><text x="429.00" y="252.00" text-anchor="middle" font-family="'trebuchet ms', verdana, arial, sans-serif" font-size="16" fill="#333333"><tspan x="429.00" dy="0.00">API</tspan></text></svg>