<svg xmlns="http://www.w3.org/2000/svg" width="1472" height="537.60004" viewBox="0 0 1472 537.60004"><rect x="0" y="0" width="1472" height="537.60004" fill="#FFFFFF"/><defs><marker id="arrow-0" viewBox="0 0 10 10" refX="5" refY="5" markerUnits="userSpaceOnUse" markerWidth="8" markerHeight="8" orient="auto"><path d="M 0 0 L 10 5 L 0 10 z" fill="#2F3B4D" stroke="#2F3B4D" stroke-width="1" stroke-dasharray="1,0"/></marker><marker id="arrow-start-0" viewBox="0 0 10 10" refX="4.5" refY="5" markerUnits="userSpaceOnUse" markerWidth="8" markerHeight="8" orient="auto"><path d="M 0 5 L 10 10 L 10 0 z" fill="#2F3B4D" stroke="#2F3B4D" stroke-width="1" stroke-dasharray="1,0"/></marker><marker id="arrow-seq-0" viewBox="-1 0 12 10" refX="7.9" refY="5" markerUnits="userSpaceOnUse" markerWidth="12" markerHeight="12" orient="auto-start-reverse"><path d="M -1 0 L 10 5 L 0 10 z" fill="#2F3B4D" stroke="#2F3B4D" stroke-width="1" stroke-dasharray="1,0"/></marker><marker id="arrow-start-seq-0" viewBox="-1 0 12 10" refX="2.1" refY="5" markerUnits="userSpaceOnUse" markerWidth="12" markerHeight="12" orient="auto"><path d="M 11 0 L 0 5 L 11 10 z" fill="#2F3B4D" stroke="#2F3B4D" stroke-width="1" stroke-dasharray="1,0"/></marker></defs><line x1="73.00" y1="64.00" x2="73.00" y2="421.60" stroke="#999999" stroke-width="0.5"/><line x1="251.00" y1="64.00" x2="251.00" y2="421.60" stroke="#999999" stroke-width="0.5"/><line x1="429.00" y1="64.00" x2="429.00" y2="421.60" stroke="#999999" stroke-width="0.5"/><line x1="607.00" y1="64.00" x2="607.00" y2="421.60" stroke="#999999" stroke-width="0.5"/><line x1="785.00" y1="64.00" x2="785.00" y2="421.60" stroke="#999999" stroke-width="0.5"/><line x1="963.00" y1="64.00" x2="963.00" y2="421.60" stroke="#999999" stroke-width="0.5"/><line x1="1141.00" y1="64.00" x2="1141.00" y2="421.60" stroke="#999999" stroke-width="0.5"/><line x1="1319.00" y1="64.00" x2="1319.00" y2="421.60" stroke="#999999" stroke-width="0.5"/><path d="M 785.000,99.200 L 963.000,99.200" fill="none" stroke="#2F3B4D" stroke-width="1.5" marker-end="url(#arrow-seq-0)"   stroke-linecap="round" stroke-linejoin="round" /><text x="874.00" y="81.60" text-anchor="middle" font-family="'trebuchet ms', verdana, arial, sans-serif" font-size="16" fill="#333333"><tspan x="874.00" dy="0.00">Click Login</tspan></text><path d="M 963.000,132.800 L 1141.000,132.800" fill="none" stroke="#2F3B4D" stroke-width="1.5" marker-end="url(#arrow-seq-0)"   stroke-linecap="round" stroke-linejoin="round" /><text x="1052.00" y="115.20" text-anchor="middle" font-family="'trebuchet ms', verdana, arial, sans-serif" font-size="16" fill="#333333"><tspan x="1052.00" dy="0.00">Authorization Request</tspan></text><path d="M 1141.000,166.400 L 785.000,166.400" fill="none" stroke="#2F3B4D" stroke-width="1.5" marker-end="url(#arrow-seq-0)"   stroke-linecap="round" stroke-linejoin="round" /><text x="963.00" y="148.80" text-anchor="middle" font-family="'trebuchet ms', verdana, arial, sans-serif" font-size="16" fill="#333333"><tspan x="963.00" dy="0.00">Login Page</tspan></text><path d="M 785.000,200.000 L 1141.000,200.000" fill="none" stroke="#2F3B4D" stroke-width="1.5" marker-end="url(#arrow-seq-0)"   stroke-linecap="round" stroke-linejoin="round" /><text x="963.00" y="182.40" text-anchor="middle" font-family="'trebuchet ms', verdana, arial, sans-serif" font-size="16" fill="#333333"><tspan x="963.00" dy="0.00">Enter Credentials</tspan></text><path d="M 1141.000,233.600 L 963.000,233.600" fill="none" stroke="#2F3B4D" stroke-width="1.5" marker-end="url(#arrow-seq-0)"   stroke-linecap="round" stroke-linejoin="round" /><text x="1052.00" y="216.00" text-anchor="middle" font-family="'trebuchet ms', verdana, arial, sans-serif" font-size="16" fill="#333333"><tspan x="1052.00" dy="0.00">Authorization Code</tspan></text><path d="M 963.000,267.200 L 1141.000,267.200" fill="none" stroke="#2F3B4D" stroke-width="1.5" marker-end="url(#arrow-seq-0)"   stroke-linecap="round" stroke-linejoin="round" /><text x="1052.00" y="249.60" text-anchor="middle" font-family="'trebuchet ms', verdana, arial, sans-serif" font-size="16" fill="#333333"><tspan x="1052.00" dy="0.00">Exchange Code for Token</tspan></text><path d="M 1141.000,300.800 L 963.000,300.800" fill="none" stroke="#2F3B4D" stroke-width="1.5" marker-end="url(#arrow-seq-0)"   stroke-linecap="round" stroke-linejoin="round" /><text x="1052.00" y="259.20" text-anchor="middle" font-family="'trebuchet ms', verdana, arial, sans-serif" font-size="16" fill="#333333"><tspan x="1052.00" dy="0.00">Access Token + Refresh</tspan><tspan x="1052.00" dy="24.00">Token</tspan></text><path d="M 963.000,334.400 L 1319.000,334.400" fill="none" stroke="#2F3B4D" stroke-width="1.5" marker-end="url(#arrow-seq-0)"   stroke-linecap="round" stroke-linejoin="round" /><text x="1141.00" y="292.80" text-anchor="middle" font-family="'trebuchet ms', verdana, arial, sans-serif" font-size="16" fill="#333333"><tspan x="1141.00" dy="0.00">API Request + Access</tspan><tspan x="1141.00" dy="24.00">Token</tspan></text><path d="M 1319.000,368.000 L 963.000,368.000" fill="none" stroke="#2F3B4D" stroke-width="1.5" marker-end="url(#arrow-seq-0)"   stroke-linecap="round" stroke-linejoin="round" /><text x="1141.00" y="350.40" text-anchor="middle" font-family="'trebuchet ms', verdana, arial, sans-serif" font-size="16" fill="#333333"><tspan x="1141.00" dy="0.00">Protected Resource</tspan></text><path d="M 963.000,401.600 L 785.000,401.600" fill="none" stroke="#2F3B4D" stroke-width="1.5" marker-end="url(#arrow-seq-0)"   stroke-linecap="round" stroke-linejoin="round" /><text x="874.00" y="384.00" text-anchor="middle" font-family="'trebuchet ms', verdana, arial, sans-serif" font-size="16" fill="#333333"><tspan x="874.00" dy="0.00">Display Data</tspan></text><rect x="1254.00" y="8.00" width="130.00" height="56.00" rx="3" ry="3" fill="#EAEAEA" stroke="#666666" stroke-width="1.0"/><text x="1319.00" y="40.00" text-anchor="middle" font-family="'trebuchet ms', verdana, arial, sans-serif" font-size="16" fill="#333333"><tspan x="1319.00" dy="0.00">API</tspan></text><rect x="898.00" y="8.00" width="130.00" height="56.00" rx="3" ry="3" fill="#EAEAEA" stroke="#666666" stroke-width="1.0"/><text x="963.00" y="40.00" text-anchor="middle" font-family="'trebuchet ms', verdana, arial, sans-serif" font-size="16" fill="#333333"><tspan x="963.00" dy="0.00">App</tspan></text><rect x="186.00" y="8.00" width="130.00" height="56.00" rx="3" ry="3" fill="#EAEAEA" stroke="#666666" stroke-width="1.0"/><text x="251.00" y="40.00" text-anchor="middle" font-family="'trebuchet ms', verdana, arial, sans-serif" font-size="16" fill="#333333"><tspan x="251.00" dy="0.00">App</tspan></text><rect x="1076.00" y="8.00" width="130.00" height="56.00" rx="3" ry="3" fill="#EAEAEA" stroke="#666666" stroke-width="1.0"/><text x="1141.00" y="40.00" text-anchor="middle" font-family="'trebuchet ms', verdana, arial, sans-serif" font-size="16" fill="#333333"><tspan x="1141.00" dy="0.00">Auth</tspan></text><rect x="364.00" y="8.00" width="130.00" height="56.00" rx="3" ry="3" fill="#EAEAEA" stroke="#666666" stroke-width="1.0"/><text x="429.00" y="40.00" text-anchor="middle" font-family="'trebuchet ms', verdana, arial, sans-serif" font-size="16" fill="#333333"><tspan x="429.00" dy="0.00">Auth</tspan></text><rect x="542.00" y="8.00" width="130.00" height="56.00" rx="3" ry="3" fill="#EAEAEA" stroke="#666666" stroke-width="1.0"/><text x="607.00" y="40.00" text-anchor="middle" font-family="'trebuchet ms', verdana, arial, sans-serif" font-size="16" fill="#333333"><tspan x="607.00" dy="0.00">API</tspan></text><rect x="720.00" y="8.00" width="130.00" height="56.00" rx="3" ry="3" fill="#EAEAEA" stroke="#666666" stroke-width="1.0"/><text x="785.00" y="40.00" text-anchor="middle" font-family="'trebuchet ms', verdana, arial, sans-serif" font-size="16" fill="#333333"><tspan x="785.00" dy="0.00">U</tspan></text><rect x="8.00" y="8.00" width="130.00" height="56.00" rx="3" ry="3" fill="#EAEAEA" stroke="#666666" stroke-width="1.0"/><text x="73.00" y="40.00" text-anchor="middle" font-family="'trebuchet ms', verdana, arial, sans-serif" font-size="16" fill="#333333"><tspan x="73.00" dy="0.00">U</tspan></text><rect x="8.00" y="421.60" width="130.00" height="56.00" rx="3" ry="3" fill="#EAEAEA" stroke="#666666" stroke-width="1.0"/><text x="73.00" y="453.60" text-anchor="middle" font-family="'trebuchet ms', verdana, arial, sans-serif" font-size="16" fill="#333333"><tspan x="73.00" dy="0.00">U</tspan></text><rect x="186.00" y="421.60" width="130.00" height="56.00" rx="3" ry="3" fill="#EAEAEA" stroke="#666666" stroke-width="1.0"/><text x="251.00" y="453.60" text-anchor="middle" font-family="'trebuchet ms', verdana, arial, sans-serif" font-size="16" fill="#333333"><tspan x="251.00" dy="0.00">App</tspan></text><rect x="364.00" y="421.60" width="130.00" height="56.00" rx="3" ry="3" fill="#EAEAEA" stroke="#666666" stroke-width="1.0"/><text x="429.00" y="453.60" text-anchor="middle" font-family="'trebuchet ms', verdana, arial, sans-serif" font-size="16" fill="#333333"><tspan x="429.00" dy="0.00">Auth</tspan></text><rect x="542.00" y="421.60" width="130.00" height="56.00" rx="3" ry="3" fill="#EAEAEA" stroke="#666666" stroke-width="1.0"/><text x="607.00" y="453.60" text-anchor="middle" font-family="'trebuchet ms', verdana, arial, sans-serif" font-size="16" fill="#333333"><tspan x="607.00" dy="0.00">API</tspan></text><rect x="720.00" y="421.60" width="130.00" height="56.00" rx="3" ry="3" fill="#EAEAEA" stroke="#666666" stroke-width="1.0"/><text x="785.00" y="453.60" text-anchor="middle" font-family="'trebuchet ms', verdana, arial, sans-serif" font-size="16" fill="#333333"><tspan x="785.00" dy="0.00">U</tspan></text><rect x="898.00" y="421.60" width="130.00" height="56.00" rx="3" ry="3" fill="#EAEAEA" stroke="#666666" stroke-width="1.0"/><text x="963.00" y="453.60" text-anchor="middle" font-family="'trebuchet ms', verdana, arial, sans-serif" font-size="16" fill="#333333"><tspan x="963.00" dy="0.00">App</tspan></text><rect x="1076.00" y="421.60" width="130.00" height="56.00" rx="3" ry="3" fill="#EAEAEA" stroke="#666666" stroke-width="1.0"/><text x="1141.00" y="453.60" text-anchor="middle" font-family="'trebuchet ms', verdana, arial, sans-serif" font-size="16" fill="#333333"><tspan x="1141.00" dy="0.00">Auth</tspan></text><rect x="1254.00" y="421.60" width="130.00" height="56.00" rx="3" ry="3" fill="#EAEAEA" stroke="#666666" stroke-width="1.0"/><text x="1319.00" y="453.60" text-anchor="middle" font-family="'trebuchet ms', verdana, arial, sans-serif" font-size="16" fill="#333333"><tspan x="1319.00" dy="0.00">API</tspan></text></svg>