<svg xmlns="http://www.w3.org/2000/svg" width="1040" height="1107.5999" viewBox="0 0 1040 1107.5999"><rect width="100%" height="100%" fill="#FFFFFF"/><defs><marker id="arrow-0" viewBox="0 0 10 10" refX="10" refY="5" markerWidth="8" markerHeight="8" orient="auto-start-reverse"><path d="M 0 0 L 10 5 L 0 10 z" fill="#333333"/></marker><marker id="arrow-start-0" viewBox="0 0 10 10" refX="0" refY="5" markerWidth="8" markerHeight="8" orient="auto"><path d="M 10 0 L 0 5 L 10 10 z" fill="#333333"/></marker><marker id="arrow-seq-0" viewBox="-1 0 12 10" refX="7.9" refY="5" markerUnits="userSpaceOnUse" markerWidth="12" markerHeight="12" orient="auto-start-reverse"><path d="M -1 0 L 10 5 L 0 10 z" fill="#333333" stroke="#333333"/></marker><marker id="arrow-start-seq-0" viewBox="-1 0 12 10" refX="2.1" refY="5" markerUnits="userSpaceOnUse" markerWidth="12" markerHeight="12" orient="auto"><path d="M 11 0 L 0 5 L 11 10 z" fill="#333333" stroke="#333333"/></marker></defs><line x1="75.00" y1="65.00" x2="75.00" y2="982.60" stroke="#9370DB" stroke-width="0.5"/><line x1="275.00" y1="65.00" x2="275.00" y2="982.60" stroke="#9370DB" stroke-width="0.5"/><line x1="475.00" y1="65.00" x2="475.00" y2="982.60" stroke="#9370DB" stroke-width="0.5"/><line x1="675.00" y1="65.00" x2="675.00" y2="982.60" stroke="#9370DB" stroke-width="0.5"/><line x1="875.00" y1="65.00" x2="875.00" y2="982.60" stroke="#9370DB" stroke-width="0.5"/><path d="M 75.00 111.40 L 275.00 111.40" fill="none" stroke="#333333" stroke-width="1.5" marker-end="url(#arrow-seq-0)"  stroke-dasharray="3 3" /><text x="175.00" y="96.20" text-anchor="middle" font-family=""trebuchet ms", verdana, arial, sans-serif" font-size="16" fill="#333333">Hello 0</text><path d="M 275.00 156.20 L 475.00 156.20" fill="none" stroke="#333333" stroke-width="1.5" marker-end="url(#arrow-seq-0)"   /><text x="375.00" y="141.00" text-anchor="middle" font-family=""trebuchet ms", verdana, arial, sans-serif" font-size="16" fill="#333333">Forward 1</text><path d="M 475.00 201.00 L 675.00 201.00" fill="none" stroke="#333333" stroke-width="1.5" marker-end="url(#arrow-seq-0)"   /><text x="575.00" y="185.80" text-anchor="middle" font-family=""trebuchet ms", verdana, arial, sans-serif" font-size="16" fill="#333333">Process 2</text><path d="M 675.00 245.80 L 875.00 245.80" fill="none" stroke="#333333" stroke-width="1.5" marker-end="url(#arrow-seq-0)"  stroke-dasharray="3 3" /><text x="775.00" y="230.60" text-anchor="middle" font-family=""trebuchet ms", verdana, arial, sans-serif" font-size="16" fill="#333333">Notify 3</text><path d="M 875.00 290.60 L 75.00 290.60" fill="none" stroke="#333333" stroke-width="1.5" marker-end="url(#arrow-seq-0)"   /><text x="475.00" y="275.40" text-anchor="middle" font-family=""trebuchet ms", verdana, arial, sans-serif" font-size="16" fill="#333333">Ack 4</text><path d="M 75.00 335.40 L 275.00 335.40" fill="none" stroke="#333333" stroke-width="1.5" marker-end="url(#arrow-seq-0)"   /><text x="175.00" y="320.20" text-anchor="middle" font-family=""trebuchet ms", verdana, arial, sans-serif" font-size="16" fill="#333333">Hello 5</text><path d="M 275.00 380.20 L 475.00 380.20" fill="none" stroke="#333333" stroke-width="1.5" marker-end="url(#arrow-seq-0)"  stroke-dasharray="3 3" /><text x="375.00" y="365.00" text-anchor="middle" font-family=""trebuchet ms", verdana, arial, sans-serif" font-size="16" fill="#333333">Forward 6</text><path d="M 475.00 425.00 L 675.00 425.00" fill="none" stroke="#333333" stroke-width="1.5" marker-end="url(#arrow-seq-0)"   /><text x="575.00" y="409.80" text-anchor="middle" font-family=""trebuchet ms", verdana, arial, sans-serif" font-size="16" fill="#333333">Process 7</text><path d="M 675.00 469.80 L 875.00 469.80" fill="none" stroke="#333333" stroke-width="1.5" marker-end="url(#arrow-seq-0)"   /><text x="775.00" y="454.60" text-anchor="middle" font-family=""trebuchet ms", verdana, arial, sans-serif" font-size="16" fill="#333333">Notify 8</text><path d="M 875.00 514.60 L 75.00 514.60" fill="none" stroke="#333333" stroke-width="1.5" marker-end="url(#arrow-seq-0)"  stroke-dasharray="3 3" /><text x="475.00" y="499.40" text-anchor="middle" font-family=""trebuchet ms", verdana, arial, sans-serif" font-size="16" fill="#333333">Ack 9</text><path d="M 75.00 559.40 L 275.00 559.40" fill="none" stroke="#333333" stroke-width="1.5" marker-end="url(#arrow-seq-0)"   /><text x="175.00" y="544.20" text-anchor="middle" font-family=""trebuchet ms", verdana, arial, sans-serif" font-size="16" fill="#333333">Hello 10</text><path d="M 275.00 604.20 L 475.00 604.20" fill="none" stroke="#333333" stroke-width="1.5" marker-end="url(#arrow-seq-0)"   /><text x="375.00" y="589.00" text-anchor="middle" font-family=""trebuchet ms", verdana, arial, sans-serif" font-size="16" fill="#333333">Forward 11</text><path d="M 475.00 649.00 L 675.00 649.00" fill="none" stroke="#333333" stroke-width="1.5" marker-end="url(#arrow-seq-0)"  stroke-dasharray="3 3" /><text x="575.00" y="633.80" text-anchor="middle" font-family=""trebuchet ms", verdana, arial, sans-serif" font-size="16" fill="#333333">Process 12</text><path d="M 675.00 693.80 L 875.00 693.80" fill="none" stroke="#333333" stroke-width="1.5" marker-end="url(#arrow-seq-0)"   /><text x="775.00" y="678.60" text-anchor="middle" font-family=""trebuchet ms", verdana, arial, sans-serif" font-size="16" fill="#333333">Notify 13</text><path d="M 875.00 738.60 L 75.00 738.60" fill="none" stroke="#333333" stroke-width="1.5" marker-end="url(#arrow-seq-0)"   /><text x="475.00" y="723.40" text-anchor="middle" font-family=""trebuchet ms", verdana, arial, sans-serif" font-size="16" fill="#333333">Ack 14</text><path d="M 75.00 783.40 L 275.00 783.40" fill="none" stroke="#333333" stroke-width="1.5" marker-end="url(#arrow-seq-0)"  stroke-dasharray="3 3" /><text x="175.00" y="768.20" text-anchor="middle" font-family=""trebuchet ms", verdana, arial, sans-serif" font-size="16" fill="#333333">Hello 15</text><path d="M 275.00 828.20 L 475.00 828.20" fill="none" stroke="#333333" stroke-width="1.5" marker-end="url(#arrow-seq-0)"   /><text x="375.00" y="813.00" text-anchor="middle" font-family=""trebuchet ms", verdana, arial, sans-serif" font-size="16" fill="#333333">Forward 16</text><path d="M 475.00 873.00 L 675.00 873.00" fill="none" stroke="#333333" stroke-width="1.5" marker-end="url(#arrow-seq-0)"   /><text x="575.00" y="857.80" text-anchor="middle" font-family=""trebuchet ms", verdana, arial, sans-serif" font-size="16" fill="#333333">Process 17</text><path d="M 675.00 917.80 L 875.00 917.80" fill="none" stroke="#333333" stroke-width="1.5" marker-end="url(#arrow-seq-0)"  stroke-dasharray="3 3" /><text x="775.00" y="902.60" text-anchor="middle" font-family=""trebuchet ms", verdana, arial, sans-serif" font-size="16" fill="#333333">Notify 18</text><path d="M 875.00 962.60 L 75.00 962.60" fill="none" stroke="#333333" stroke-width="1.5" marker-end="url(#arrow-seq-0)"   /><text x="475.00" y="947.40" text-anchor="middle" font-family=""trebuchet ms", verdana, arial, sans-serif" font-size="16" fill="#333333">Ack 19</text><rect x="0.00" y="0.00" width="150.00" height="65.00" rx="3" ry="3" fill="#ECECFF" stroke="#9370DB" stroke-width="1.0"/><text x="75.00" y="36.50" text-anchor="middle" font-family=""trebuchet ms", verdana, arial, sans-serif" font-size="16" fill="#333333"><tspan x="75.00" dy="0.00">Alice</tspan></text><rect x="200.00" y="0.00" width="150.00" height="65.00" rx="3" ry="3" fill="#ECECFF" stroke="#9370DB" stroke-width="1.0"/><text x="275.00" y="36.50" text-anchor="middle" font-family=""trebuchet ms", verdana, arial, sans-serif" font-size="16" fill="#333333"><tspan x="275.00" dy="0.00">Bob</tspan></text><rect x="400.00" y="0.00" width="150.00" height="65.00" rx="3" ry="3" fill="#ECECFF" stroke="#9370DB" stroke-width="1.0"/><text x="475.00" y="36.50" text-anchor="middle" font-family=""trebuchet ms", verdana, arial, sans-serif" font-size="16" fill="#333333"><tspan x="475.00" dy="0.00">Carol</tspan></text><rect x="600.00" y="0.00" width="150.00" height="65.00" rx="3" ry="3" fill="#ECECFF" stroke="#9370DB" stroke-width="1.0"/><text x="675.00" y="36.50" text-anchor="middle" font-family=""trebuchet ms", verdana, arial, sans-serif" font-size="16" fill="#333333"><tspan x="675.00" dy="0.00">Dave</tspan></text><rect x="800.00" y="0.00" width="150.00" height="65.00" rx="3" ry="3" fill="#ECECFF" stroke="#9370DB" stroke-width="1.0"/><text x="875.00" y="36.50" text-anchor="middle" font-family=""trebuchet ms", verdana, arial, sans-serif" font-size="16" fill="#333333"><tspan x="875.00" dy="0.00">Eve</tspan></text><rect x="0.00" y="982.60" width="150.00" height="65.00" rx="3" ry="3" fill="#ECECFF" stroke="#9370DB" stroke-width="1.0"/><text x="75.00" y="1019.10" text-anchor="middle" font-family=""trebuchet ms", verdana, arial, sans-serif" font-size="16" fill="#333333"><tspan x="75.00" dy="0.00">Alice</tspan></text><rect x="200.00" y="982.60" width="150.00" height="65.00" rx="3" ry="3" fill="#ECECFF" stroke="#9370DB" stroke-width="1.0"/><text x="275.00" y="1019.10" text-anchor="middle" font-family=""trebuchet ms", verdana, arial, sans-serif" font-size="16" fill="#333333"><tspan x="275.00" dy="0.00">Bob</tspan></text><rect x="400.00" y="982.60" width="150.00" height="65.00" rx="3" ry="3" fill="#ECECFF" stroke="#9370DB" stroke-width="1.0"/><text x="475.00" y="1019.10" text-anchor="middle" font-family=""trebuchet ms", verdana, arial, sans-serif" font-size="16" fill="#333333"><tspan x="475.00" dy="0.00">Carol</tspan></text><rect x="600.00" y="982.60" width="150.00" height="65.00" rx="3" ry="3" fill="#ECECFF" stroke="#9370DB" stroke-width="1.0"/><text x="675.00" y="1019.10" text-anchor="middle" font-family=""trebuchet ms", verdana, arial, sans-serif" font-size="16" fill="#333333"><tspan x="675.00" dy="0.00">Dave</tspan></text><rect x="800.00" y="982.60" width="150.00" height="65.00" rx="3" ry="3" fill="#ECECFF" stroke="#9370DB" stroke-width="1.0"/><text x="875.00" y="1019.10" text-anchor="middle" font-family=""trebuchet ms", verdana, arial, sans-serif" font-size="16" fill="#333333"><tspan x="875.00" dy="0.00">Eve</tspan></text></svg>