<svg xmlns="http://www.w3.org/2000/svg" width="410.1219" height="486.4" viewBox="0 0 410.1219 486.4"><rect x="0" y="0" width="410.1219" height="486.4" fill="#FFFFFF"/><defs><marker id="arrow-0" viewBox="0 0 10 10" refX="5" refY="5" markerUnits="userSpaceOnUse" markerWidth="8" markerHeight="8" orient="auto"><path d="M 0 0 L 10 5 L 0 10 z" fill="#2F3B4D" stroke="#2F3B4D" stroke-width="1" stroke-dasharray="1,0"/></marker><marker id="arrow-start-0" viewBox="0 0 10 10" refX="4.5" refY="5" markerUnits="userSpaceOnUse" markerWidth="8" markerHeight="8" orient="auto"><path d="M 0 5 L 10 10 L 10 0 z" fill="#2F3B4D" stroke="#2F3B4D" stroke-width="1" stroke-dasharray="1,0"/></marker><marker id="arrow-seq-0" viewBox="-1 0 12 10" refX="7.9" refY="5" markerUnits="userSpaceOnUse" markerWidth="12" markerHeight="12" orient="auto-start-reverse"><path d="M -1 0 L 10 5 L 0 10 z" fill="#2F3B4D" stroke="#2F3B4D" stroke-width="1" stroke-dasharray="1,0"/></marker><marker id="arrow-start-seq-0" viewBox="-1 0 12 10" refX="2.1" refY="5" markerUnits="userSpaceOnUse" markerWidth="12" markerHeight="12" orient="auto"><path d="M 11 0 L 0 5 L 11 10 z" fill="#2F3B4D" stroke="#2F3B4D" stroke-width="1" stroke-dasharray="1,0"/></marker></defs><line x1="65.93" y1="57.60" x2="65.93" y2="428.80" stroke="#999999" stroke-width="0.5"/><line x1="161.93" y1="57.60" x2="161.93" y2="428.80" stroke="#999999" stroke-width="0.5"/><line x1="257.93" y1="57.60" x2="257.93" y2="428.80" stroke="#999999" stroke-width="0.5"/><path d="M 8.00 101.60 L 112.34 101.60 L 123.86 113.12 L 123.86 140.00 L 8.00 140.00 Z" fill="#FFF5AD" stroke="#AAAA33" stroke-width="1.1"/><polyline points="112.34,101.60 112.34,113.12 123.86,113.12" fill="none" stroke="#AAAA33" stroke-width="1.0"/><text x="65.93" y="124.80" text-anchor="middle" font-family="'trebuchet ms', verdana, arial, sans-serif" font-size="16" fill="#333333"><tspan x="65.93" dy="0.00">Alice starts</tspan></text><path d="M 55.53 191.20 L 160.81 191.20 L 172.33 202.72 L 172.33 229.60 L 55.53 229.60 Z" fill="#FFF5AD" stroke="#AAAA33" stroke-width="1.1"/><polyline points="160.81,191.20 160.81,202.72 172.33,202.72" fill="none" stroke="#AAAA33" stroke-width="1.0"/><text x="113.93" y="214.40" text-anchor="middle" font-family="'trebuchet ms', verdana, arial, sans-serif" font-size="16" fill="#333333"><tspan x="113.93" dy="0.00">Handshake</tspan></text><path d="M 268.33 280.80 L 372.67 280.80 L 384.19 292.32 L 384.19 319.20 L 268.33 319.20 Z" fill="#FFF5AD" stroke="#AAAA33" stroke-width="1.1"/><polyline points="372.67,280.80 372.67,292.32 384.19,292.32" fill="none" stroke="#AAAA33" stroke-width="1.0"/><text x="326.26" y="304.00" text-anchor="middle" font-family="'trebuchet ms', verdana, arial, sans-serif" font-size="16" fill="#333333"><tspan x="326.26" dy="0.00">Carol thinks</tspan></text><path d="M 55.53 370.40 L 256.81 370.40 L 268.33 381.92 L 268.33 408.80 L 55.53 408.80 Z" fill="#FFF5AD" stroke="#AAAA33" stroke-width="1.1"/><polyline points="256.81,370.40 256.81,381.92 268.33,381.92" fill="none" stroke="#AAAA33" stroke-width="1.0"/><text x="161.93" y="393.60" text-anchor="middle" font-family="'trebuchet ms', verdana, arial, sans-serif" font-size="16" fill="#333333"><tspan x="161.93" dy="0.00">All connected</tspan></text><path class="edgePath" d="M 65.930,148.800 L 161.930,148.800" fill="none" stroke="#2F3B4D" stroke-width="1.5" marker-end="url(#arrow-seq-0)"   stroke-linecap="round" stroke-linejoin="round" /><text x="152.97" y="93.76" text-anchor="middle" font-family="'trebuchet ms', verdana, arial, sans-serif" font-size="16" fill="#333333"><tspan x="152.97" dy="0.00">Hello Bob</tspan></text><path class="edgePath" d="M 161.930,238.400 L 257.930,238.400" fill="none" stroke="#2F3B4D" stroke-width="1.5" marker-end="url(#arrow-seq-0)"   stroke-linecap="round" stroke-linejoin="round" /><text x="247.03" y="209.60" text-anchor="middle" font-family="'trebuchet ms', verdana, arial, sans-serif" font-size="16" fill="#333333"><tspan x="247.03" dy="0.00">Introduce Alice</tspan></text><path class="edgePath" d="M 257.930,328.000 L 65.930,328.000" fill="none" stroke="#2F3B4D" stroke-width="1.5" marker-end="url(#arrow-seq-0)"  stroke-dasharray="3 3" stroke-linecap="round" stroke-linejoin="round" /><text x="161.93" y="299.20" text-anchor="middle" font-family="'trebuchet ms', verdana, arial, sans-serif" font-size="16" fill="#333333"><tspan x="161.93" dy="0.00">Nice to meet you</tspan></text><rect x="25.93" y="8.00" width="80.00" height="49.60" rx="3" ry="3" fill="#EAEAEA" stroke="#666666" stroke-width="1.0"/><text x="65.93" y="36.80" text-anchor="middle" font-family="'trebuchet ms', verdana, arial, sans-serif" font-size="16" fill="#333333"><tspan x="65.93" dy="0.00">Alice</tspan></text><rect x="121.93" y="8.00" width="80.00" height="49.60" rx="3" ry="3" fill="#EAEAEA" stroke="#666666" stroke-width="1.0"/><text x="161.93" y="36.80" text-anchor="middle" font-family="'trebuchet ms', verdana, arial, sans-serif" font-size="16" fill="#333333"><tspan x="161.93" dy="0.00">Bob</tspan></text><rect x="217.93" y="8.00" width="80.00" height="49.60" rx="3" ry="3" fill="#EAEAEA" stroke="#666666" stroke-width="1.0"/><text x="257.93" y="36.80" text-anchor="middle" font-family="'trebuchet ms', verdana, arial, sans-serif" font-size="16" fill="#333333"><tspan x="257.93" dy="0.00">Carol</tspan></text><rect x="25.93" y="428.80" width="80.00" height="49.60" rx="3" ry="3" fill="#EAEAEA" stroke="#666666" stroke-width="1.0"/><text x="65.93" y="457.60" text-anchor="middle" font-family="'trebuchet ms', verdana, arial, sans-serif" font-size="16" fill="#333333"><tspan x="65.93" dy="0.00">Alice</tspan></text><rect x="121.93" y="428.80" width="80.00" height="49.60" rx="3" ry="3" fill="#EAEAEA" stroke="#666666" stroke-width="1.0"/><text x="161.93" y="457.60" text-anchor="middle" font-family="'trebuchet ms', verdana, arial, sans-serif" font-size="16" fill="#333333"><tspan x="161.93" dy="0.00">Bob</tspan></text><rect x="217.93" y="428.80" width="80.00" height="49.60" rx="3" ry="3" fill="#EAEAEA" stroke="#666666" stroke-width="1.0"/><text x="257.93" y="457.60" text-anchor="middle" font-family="'trebuchet ms', verdana, arial, sans-serif" font-size="16" fill="#333333"><tspan x="257.93" dy="0.00">Carol</tspan></text></svg>