<svg xmlns="http://www.w3.org/2000/svg" width="307.01807" height="565.2" viewBox="0 0 307.01807 565.2"><rect x="0" y="0" width="307.01807" height="565.2" fill="#FFFFFF"/><defs><marker id="arrow-0" viewBox="0 0 10 10" refX="5" refY="5" markerUnits="userSpaceOnUse" markerWidth="8" markerHeight="8" orient="auto"><path d="M 0 0 L 10 5 L 0 10 z" fill="#2F3B4D" stroke="#2F3B4D" stroke-width="1" stroke-dasharray="1,0"/></marker><marker id="arrow-start-0" viewBox="0 0 10 10" refX="4.5" refY="5" markerUnits="userSpaceOnUse" markerWidth="8" markerHeight="8" orient="auto"><path d="M 0 5 L 10 10 L 10 0 z" fill="#2F3B4D" stroke="#2F3B4D" stroke-width="1" stroke-dasharray="1,0"/></marker><marker id="arrow-seq-0" viewBox="-1 0 12 10" refX="7.9" refY="5" markerUnits="userSpaceOnUse" markerWidth="12" markerHeight="12" orient="auto-start-reverse"><path d="M -1 0 L 10 5 L 0 10 z" fill="#2F3B4D" stroke="#2F3B4D" stroke-width="1" stroke-dasharray="1,0"/></marker><marker id="arrow-start-seq-0" viewBox="-1 0 12 10" refX="2.1" refY="5" markerUnits="userSpaceOnUse" markerWidth="12" markerHeight="12" orient="auto"><path d="M 11 0 L 0 5 L 11 10 z" fill="#2F3B4D" stroke="#2F3B4D" stroke-width="1" stroke-dasharray="1,0"/></marker></defs><rect x="142.31" y="102.40" width="118.40" height="100.80" fill="none" stroke="#7B88A8" stroke-width="2.0" stroke-dasharray="2 2"/><polygon points="142.31,102.40 204.93,102.40 204.93,115.40 192.41,122.40 142.31,122.40" fill="#ECECFF" stroke="#7B88A8" stroke-width="1.1"/><text x="173.62" y="116.40" text-anchor="middle" font-family="'trebuchet ms', verdana, arial, sans-serif" font-size="16" fill="#333333"><tspan x="173.62" dy="0.00">loop</tspan></text><text x="201.51" y="117.60" text-anchor="middle" font-family="'trebuchet ms', verdana, arial, sans-serif" font-size="16" fill="#333333"><tspan x="201.51" dy="0.00">[Health Check]</tspan></text><rect x="46.31" y="211.60" width="118.40" height="67.20" fill="none" stroke="#7B88A8" stroke-width="2.0" stroke-dasharray="2 2"/><polygon points="46.31,211.60 101.27,211.60 101.27,224.60 90.28,231.60 46.31,231.60" fill="#ECECFF" stroke="#7B88A8" stroke-width="1.1"/><text x="73.79" y="225.60" text-anchor="middle" font-family="'trebuchet ms', verdana, arial, sans-serif" font-size="16" fill="#333333"><tspan x="73.79" dy="0.00">opt</tspan></text><text x="105.51" y="226.80" text-anchor="middle" font-family="'trebuchet ms', verdana, arial, sans-serif" font-size="16" fill="#333333"><tspan x="105.51" dy="0.00">[Has Cache]</tspan></text><rect x="142.31" y="287.20" width="118.40" height="134.40" fill="none" stroke="#7B88A8" stroke-width="2.0" stroke-dasharray="2 2"/><line x1="142.31" y1="359.20" x2="260.71" y2="359.20" stroke="#7B88A8" stroke-width="2.0" stroke-dasharray="3 3"/><polygon points="142.31,287.20 197.27,287.20 197.27,300.20 186.28,307.20 142.31,307.20" fill="#ECECFF" stroke="#7B88A8" stroke-width="1.1"/><text x="169.79" y="301.20" text-anchor="middle" font-family="'trebuchet ms', verdana, arial, sans-serif" font-size="16" fill="#333333"><tspan x="169.79" dy="0.00">par</tspan></text><text x="201.51" y="302.40" text-anchor="middle" font-family="'trebuchet ms', verdana, arial, sans-serif" font-size="16" fill="#333333"><tspan x="201.51" dy="0.00">[Task A]</tspan></text><text x="201.51" y="374.40" text-anchor="middle" font-family="'trebuchet ms', verdana, arial, sans-serif" font-size="16" fill="#333333"><tspan x="201.51" dy="0.00">[Task B]</tspan></text><line x1="57.51" y1="57.60" x2="57.51" y2="507.60" stroke="#999999" stroke-width="0.5"/><line x1="153.51" y1="57.60" x2="153.51" y2="507.60" stroke="#999999" stroke-width="0.5"/><line x1="249.51" y1="57.60" x2="249.51" y2="507.60" stroke="#999999" stroke-width="0.5"/><path class="edgePath" d="M 57.509,92.800 L 153.509,92.800" fill="none" stroke="#2F3B4D" stroke-width="1.5" marker-end="url(#arrow-seq-0)"   stroke-linecap="round" stroke-linejoin="round" /><text x="105.51" y="129.60" text-anchor="middle" font-family="'trebuchet ms', verdana, arial, sans-serif" font-size="16" fill="#333333"><tspan x="105.51" dy="0.00">Connect</tspan></text><path class="edgePath" d="M 153.509,160.000 L 249.509,160.000" fill="none" stroke="#2F3B4D" stroke-width="1.5" marker-end="url(#arrow-seq-0)"   stroke-linecap="round" stroke-linejoin="round" /><text x="201.51" y="223.04" text-anchor="middle" font-family="'trebuchet ms', verdana, arial, sans-serif" font-size="16" fill="#333333"><tspan x="201.51" dy="0.00">Ping</tspan></text><path class="edgePath" d="M 249.509,193.600 L 153.509,193.600" fill="none" stroke="#2F3B4D" stroke-width="1.5" marker-end="url(#arrow-seq-0)"  stroke-dasharray="3 3" stroke-linecap="round" stroke-linejoin="round" /><text x="201.51" y="256.64" text-anchor="middle" font-family="'trebuchet ms', verdana, arial, sans-serif" font-size="16" fill="#333333"><tspan x="201.51" dy="0.00">Pong</tspan></text><path class="edgePath" d="M 153.509,269.200 L 57.509,269.200" fill="none" stroke="#2F3B4D" stroke-width="1.5" marker-end="url(#arrow-seq-0)"   stroke-linecap="round" stroke-linejoin="round" /><text x="68.41" y="306.00" text-anchor="middle" font-family="'trebuchet ms', verdana, arial, sans-serif" font-size="16" fill="#333333"><tspan x="68.41" dy="0.00">Cached Response</tspan></text><path class="edgePath" d="M 153.509,344.800 L 249.509,344.800" fill="none" stroke="#2F3B4D" stroke-width="1.5" marker-end="url(#arrow-seq-0)"   stroke-linecap="round" stroke-linejoin="round" /><text x="201.51" y="434.08" text-anchor="middle" font-family="'trebuchet ms', verdana, arial, sans-serif" font-size="16" fill="#333333"><tspan x="201.51" dy="0.00">Query A</tspan></text><path class="edgePath" d="M 153.509,412.000 L 249.509,412.000" fill="none" stroke="#2F3B4D" stroke-width="1.5" marker-end="url(#arrow-seq-0)"   stroke-linecap="round" stroke-linejoin="round" /><text x="201.51" y="475.04" text-anchor="middle" font-family="'trebuchet ms', verdana, arial, sans-serif" font-size="16" fill="#333333"><tspan x="201.51" dy="0.00">Query B</tspan></text><path class="edgePath" d="M 249.509,454.000 L 153.509,454.000" fill="none" stroke="#2F3B4D" stroke-width="1.5" marker-end="url(#arrow-seq-0)"  stroke-dasharray="3 3" stroke-linecap="round" stroke-linejoin="round" /><text x="232.69" y="398.96" text-anchor="middle" font-family="'trebuchet ms', verdana, arial, sans-serif" font-size="16" fill="#333333"><tspan x="232.69" dy="0.00">Results</tspan></text><path class="edgePath" d="M 153.509,487.600 L 57.509,487.600" fill="none" stroke="#2F3B4D" stroke-width="1.5" marker-end="url(#arrow-seq-0)"  stroke-dasharray="3 3" stroke-linecap="round" stroke-linejoin="round" /><text x="105.51" y="458.80" text-anchor="middle" font-family="'trebuchet ms', verdana, arial, sans-serif" font-size="16" fill="#333333"><tspan x="105.51" dy="0.00">Response</tspan></text><rect x="17.51" y="8.00" width="80.00" height="49.60" rx="3" ry="3" fill="#EAEAEA" stroke="#666666" stroke-width="1.0"/><text x="57.51" y="36.80" text-anchor="middle" font-family="'trebuchet ms', verdana, arial, sans-serif" font-size="16" fill="#333333"><tspan x="57.51" dy="0.00">Client</tspan></text><rect x="209.51" y="8.00" width="80.00" height="49.60" rx="3" ry="3" fill="#EAEAEA" stroke="#666666" stroke-width="1.0"/><text x="249.51" y="36.80" text-anchor="middle" font-family="'trebuchet ms', verdana, arial, sans-serif" font-size="16" fill="#333333"><tspan x="249.51" dy="0.00">DB</tspan></text><rect x="113.51" y="8.00" width="80.00" height="49.60" rx="3" ry="3" fill="#EAEAEA" stroke="#666666" stroke-width="1.0"/><text x="153.51" y="36.80" text-anchor="middle" font-family="'trebuchet ms', verdana, arial, sans-serif" font-size="16" fill="#333333"><tspan x="153.51" dy="0.00">Server</tspan></text><rect x="17.51" y="507.60" width="80.00" height="49.60" rx="3" ry="3" fill="#EAEAEA" stroke="#666666" stroke-width="1.0"/><text x="57.51" y="536.40" text-anchor="middle" font-family="'trebuchet ms', verdana, arial, sans-serif" font-size="16" fill="#333333"><tspan x="57.51" dy="0.00">Client</tspan></text><rect x="113.51" y="507.60" width="80.00" height="49.60" rx="3" ry="3" fill="#EAEAEA" stroke="#666666" stroke-width="1.0"/><text x="153.51" y="536.40" text-anchor="middle" font-family="'trebuchet ms', verdana, arial, sans-serif" font-size="16" fill="#333333"><tspan x="153.51" dy="0.00">Server</tspan></text><rect x="209.51" y="507.60" width="80.00" height="49.60" rx="3" ry="3" fill="#EAEAEA" stroke="#666666" stroke-width="1.0"/><text x="249.51" y="536.40" text-anchor="middle" font-family="'trebuchet ms', verdana, arial, sans-serif" font-size="16" fill="#333333"><tspan x="249.51" dy="0.00">DB</tspan></text></svg>