<svg xmlns="http://www.w3.org/2000/svg" width="640" height="715.6" viewBox="0 0 640 715.6"><rect width="100%" height="100%" fill="#FFFFFF"/><defs><marker id="arrow-0" viewBox="0 0 10 10" refX="5" refY="5" markerUnits="userSpaceOnUse" markerWidth="8" markerHeight="8" orient="auto"><path d="M 0 0 L 10 5 L 0 10 z" fill="#333333"/></marker><marker id="arrow-start-0" viewBox="0 0 10 10" refX="4.5" refY="5" markerUnits="userSpaceOnUse" markerWidth="8" markerHeight="8" orient="auto"><path d="M 0 5 L 10 10 L 10 0 z" fill="#333333"/></marker><marker id="arrow-seq-0" viewBox="-1 0 12 10" refX="7.9" refY="5" markerUnits="userSpaceOnUse" markerWidth="12" markerHeight="12" orient="auto-start-reverse"><path d="M -1 0 L 10 5 L 0 10 z" fill="#333333" stroke="#333333"/></marker><marker id="arrow-start-seq-0" viewBox="-1 0 12 10" refX="2.1" refY="5" markerUnits="userSpaceOnUse" markerWidth="12" markerHeight="12" orient="auto"><path d="M 11 0 L 0 5 L 11 10 z" fill="#333333" stroke="#333333"/></marker></defs><rect x="63.80" y="210.60" width="222.40" height="179.20" fill="none" stroke="#9370DB" stroke-width="2.0" stroke-dasharray="2 2"/><line x1="63.80" y1="305.00" x2="286.20" y2="305.00" stroke="#9370DB" stroke-width="2.0" stroke-dasharray="3 3"/><polygon points="63.80,210.60 117.40,210.60 117.40,223.60 106.68,230.60 63.80,230.60" fill="#ECECFF" stroke="#9370DB" stroke-width="1.1"/><text x="90.60" y="224.60" text-anchor="middle" font-family="'trebuchet ms', verdana, arial, sans-serif" font-size="16" fill="#333333"><tspan x="90.60" dy="0.00">alt</tspan></text><text x="175.00" y="225.80" text-anchor="middle" font-family="'trebuchet ms', verdana, arial, sans-serif" font-size="16" fill="#333333"><tspan x="175.00" dy="0.00">[Valid credentials]</tspan></text><text x="175.00" y="320.20" text-anchor="middle" font-family="'trebuchet ms', verdana, arial, sans-serif" font-size="16" fill="#333333"><tspan x="175.00" dy="0.00">[Invalid credentials]</tspan></text><line x1="75.00" y1="65.00" x2="75.00" y2="590.60" stroke="#999999" stroke-width="0.5"/><line x1="275.00" y1="65.00" x2="275.00" y2="590.60" stroke="#999999" stroke-width="0.5"/><line x1="475.00" y1="65.00" x2="475.00" y2="590.60" stroke="#999999" stroke-width="0.5"/><path d="M 75.00 111.40 L 275.00 111.40" fill="none" stroke="#333333" stroke-width="2" marker-end="url(#arrow-seq-0)"   /><text x="175.00" y="80.20" text-anchor="middle" font-family="'trebuchet ms', verdana, arial, sans-serif" font-size="16" fill="#333333">POST /login</text><path d="M 275.00 156.20 L 475.00 156.20" fill="none" stroke="#333333" stroke-width="2" marker-end="url(#arrow-seq-0)"   /><text x="375.00" y="125.00" text-anchor="middle" font-family="'trebuchet ms', verdana, arial, sans-serif" font-size="16" fill="#333333">Query user</text><path d="M 475.00 201.00 L 275.00 201.00" fill="none" stroke="#333333" stroke-width="2" marker-end="url(#arrow-seq-0)"  stroke-dasharray="3 3" /><text x="375.00" y="169.80" text-anchor="middle" font-family="'trebuchet ms', verdana, arial, sans-serif" font-size="16" fill="#333333">User data</text><path d="M 275.00 290.60 L 75.00 290.60" fill="none" stroke="#333333" stroke-width="2" marker-end="url(#arrow-seq-0)"  stroke-dasharray="3 3" /><text x="175.00" y="259.40" text-anchor="middle" font-family="'trebuchet ms', verdana, arial, sans-serif" font-size="16" fill="#333333">200 OK + token</text><path d="M 275.00 380.20 L 75.00 380.20" fill="none" stroke="#333333" stroke-width="2" marker-end="url(#arrow-seq-0)"  stroke-dasharray="3 3" /><text x="175.00" y="349.00" text-anchor="middle" font-family="'trebuchet ms', verdana, arial, sans-serif" font-size="16" fill="#333333">401 Unauthorized</text><path d="M 75.00 436.20 L 275.00 436.20" fill="none" stroke="#333333" stroke-width="2" marker-end="url(#arrow-seq-0)"   /><text x="175.00" y="405.00" text-anchor="middle" font-family="'trebuchet ms', verdana, arial, sans-serif" font-size="16" fill="#333333">GET /profile</text><path d="M 275.00 481.00 L 475.00 481.00" fill="none" stroke="#333333" stroke-width="2" marker-end="url(#arrow-seq-0)"   /><text x="375.00" y="449.80" text-anchor="middle" font-family="'trebuchet ms', verdana, arial, sans-serif" font-size="16" fill="#333333">Fetch profile</text><path d="M 475.00 525.80 L 275.00 525.80" fill="none" stroke="#333333" stroke-width="2" marker-end="url(#arrow-seq-0)"  stroke-dasharray="3 3" /><text x="375.00" y="494.60" text-anchor="middle" font-family="'trebuchet ms', verdana, arial, sans-serif" font-size="16" fill="#333333">Profile data</text><path d="M 275.00 570.60 L 75.00 570.60" fill="none" stroke="#333333" stroke-width="2" marker-end="url(#arrow-seq-0)"  stroke-dasharray="3 3" /><text x="175.00" y="539.40" text-anchor="middle" font-family="'trebuchet ms', verdana, arial, sans-serif" font-size="16" fill="#333333">200 OK + profile</text><rect x="0.00" y="0.00" width="150.00" height="65.00" rx="3" ry="3" fill="#EAEAEA" stroke="#666666" stroke-width="1.0"/><text x="75.00" y="36.50" text-anchor="middle" font-family="'trebuchet ms', verdana, arial, sans-serif" font-size="16" fill="#333333"><tspan x="75.00" dy="0.00">Client</tspan></text><rect x="400.00" y="0.00" width="150.00" height="65.00" rx="3" ry="3" fill="#EAEAEA" stroke="#666666" stroke-width="1.0"/><text x="475.00" y="36.50" text-anchor="middle" font-family="'trebuchet ms', verdana, arial, sans-serif" font-size="16" fill="#333333"><tspan x="475.00" dy="0.00">Database</tspan></text><rect x="200.00" y="0.00" width="150.00" height="65.00" rx="3" ry="3" fill="#EAEAEA" stroke="#666666" stroke-width="1.0"/><text x="275.00" y="36.50" text-anchor="middle" font-family="'trebuchet ms', verdana, arial, sans-serif" font-size="16" fill="#333333"><tspan x="275.00" dy="0.00">Server</tspan></text><rect x="0.00" y="590.60" width="150.00" height="65.00" rx="3" ry="3" fill="#EAEAEA" stroke="#666666" stroke-width="1.0"/><text x="75.00" y="627.10" text-anchor="middle" font-family="'trebuchet ms', verdana, arial, sans-serif" font-size="16" fill="#333333"><tspan x="75.00" dy="0.00">Client</tspan></text><rect x="200.00" y="590.60" width="150.00" height="65.00" rx="3" ry="3" fill="#EAEAEA" stroke="#666666" stroke-width="1.0"/><text x="275.00" y="627.10" text-anchor="middle" font-family="'trebuchet ms', verdana, arial, sans-serif" font-size="16" fill="#333333"><tspan x="275.00" dy="0.00">Server</tspan></text><rect x="400.00" y="590.60" width="150.00" height="65.00" rx="3" ry="3" fill="#EAEAEA" stroke="#666666" stroke-width="1.0"/><text x="475.00" y="627.10" text-anchor="middle" font-family="'trebuchet ms', verdana, arial, sans-serif" font-size="16" fill="#333333"><tspan x="475.00" dy="0.00">Database</tspan></text></svg>