<svg xmlns="http://www.w3.org/2000/svg" width="1456.2094" height="537.60004" viewBox="0 0 1456.2094 537.60004"><rect x="0" y="0" width="1456.2094" height="537.60004" fill="#FFFFFF"/><defs><marker id="arrow-0" viewBox="0 0 10 10" refX="5" refY="5" markerUnits="userSpaceOnUse" markerWidth="8" markerHeight="8" orient="auto"><path d="M 0 0 L 10 5 L 0 10 z" fill="#2F3B4D" stroke="#2F3B4D" stroke-width="1" stroke-dasharray="1,0"/></marker><marker id="arrow-start-0" viewBox="0 0 10 10" refX="4.5" refY="5" markerUnits="userSpaceOnUse" markerWidth="8" markerHeight="8" orient="auto"><path d="M 0 5 L 10 10 L 10 0 z" fill="#2F3B4D" stroke="#2F3B4D" stroke-width="1" stroke-dasharray="1,0"/></marker><marker id="arrow-seq-0" viewBox="-1 0 12 10" refX="7.9" refY="5" markerUnits="userSpaceOnUse" markerWidth="12" markerHeight="12" orient="auto-start-reverse"><path d="M -1 0 L 10 5 L 0 10 z" fill="#2F3B4D" stroke="#2F3B4D" stroke-width="1" stroke-dasharray="1,0"/></marker><marker id="arrow-start-seq-0" viewBox="-1 0 12 10" refX="2.1" refY="5" markerUnits="userSpaceOnUse" markerWidth="12" markerHeight="12" orient="auto"><path d="M 11 0 L 0 5 L 11 10 z" fill="#2F3B4D" stroke="#2F3B4D" stroke-width="1" stroke-dasharray="1,0"/></marker></defs><line x1="101.35" y1="64.00" x2="101.35" y2="421.60" stroke="#999999" stroke-width="0.5"/><line x1="336.05" y1="64.00" x2="336.05" y2="421.60" stroke="#999999" stroke-width="0.5"/><line x1="570.75" y1="64.00" x2="570.75" y2="421.60" stroke="#999999" stroke-width="0.5"/><line x1="805.46" y1="64.00" x2="805.46" y2="421.60" stroke="#999999" stroke-width="0.5"/><line x1="1040.16" y1="64.00" x2="1040.16" y2="421.60" stroke="#999999" stroke-width="0.5"/><line x1="1274.86" y1="64.00" x2="1274.86" y2="421.60" stroke="#999999" stroke-width="0.5"/><rect x="799.46" y="233.60" width="12.00" height="33.60" fill="#F4F4F4" stroke="#666666" stroke-width="1"/><rect x="564.75" y="200.00" width="12.00" height="201.60" fill="#F4F4F4" stroke="#666666" stroke-width="1"/><path d="M 101.351,99.200 L 336.052,99.200" fill="none" stroke="#2F3B4D" stroke-width="1.5" marker-end="url(#arrow-seq-0)"   stroke-linecap="round" stroke-linejoin="round" /><text x="218.70" y="81.60" text-anchor="middle" font-family="'trebuchet ms', verdana, arial, sans-serif" font-size="16" fill="#333333"><tspan x="218.70" dy="0.00">Authenticate</tspan></text><path d="M 336.052,132.800 L 101.351,132.800" fill="none" stroke="#2F3B4D" stroke-width="1.5" marker-end="url(#arrow-seq-0)"  stroke-dasharray="3 3" stroke-linecap="round" stroke-linejoin="round" /><text x="218.70" y="115.20" text-anchor="middle" font-family="'trebuchet ms', verdana, arial, sans-serif" font-size="16" fill="#333333"><tspan x="218.70" dy="0.00">Token Valid</tspan></text><path d="M 101.351,166.400 L 570.754,166.400" fill="none" stroke="#2F3B4D" stroke-width="1.5" marker-end="url(#arrow-seq-0)"   stroke-linecap="round" stroke-linejoin="round" /><text x="336.05" y="148.80" text-anchor="middle" font-family="'trebuchet ms', verdana, arial, sans-serif" font-size="16" fill="#333333"><tspan x="336.05" dy="0.00">Create Order</tspan></text><path d="M 570.754,200.000 L 805.456,200.000" fill="none" stroke="#2F3B4D" stroke-width="1.5" marker-end="url(#arrow-seq-0)"   stroke-linecap="round" stroke-linejoin="round" /><text x="688.10" y="182.40" text-anchor="middle" font-family="'trebuchet ms', verdana, arial, sans-serif" font-size="16" fill="#333333"><tspan x="688.10" dy="0.00">Process Payment</tspan></text><path d="M 805.456,233.600 L 570.754,233.600" fill="none" stroke="#2F3B4D" stroke-width="1.5" marker-end="url(#arrow-seq-0)"  stroke-dasharray="3 3" stroke-linecap="round" stroke-linejoin="round" /><text x="688.10" y="216.00" text-anchor="middle" font-family="'trebuchet ms', verdana, arial, sans-serif" font-size="16" fill="#333333"><tspan x="688.10" dy="0.00">Payment OK</tspan></text><path d="M 570.754,267.200 L 1274.859,267.200" fill="none" stroke="#2F3B4D" stroke-width="1.5" marker-end="url(#arrow-seq-0)"   stroke-linecap="round" stroke-linejoin="round" /><text x="922.81" y="249.60" text-anchor="middle" font-family="'trebuchet ms', verdana, arial, sans-serif" font-size="16" fill="#333333"><tspan x="922.81" dy="0.00">Publish OrderCreated</tspan></text><path d="M 1274.859,300.800 L 1040.157,300.800" fill="none" stroke="#2F3B4D" stroke-width="1.5" marker-end="url(#arrow-seq-0)"  stroke-dasharray="3 3" stroke-linecap="round" stroke-linejoin="round" /><text x="1157.51" y="283.20" text-anchor="middle" font-family="'trebuchet ms', verdana, arial, sans-serif" font-size="16" fill="#333333"><tspan x="1157.51" dy="0.00">OrderCreated Event</tspan></text><path d="M 1040.157,334.400L 1043.157,334.400C1046.157,334.400,1052.157,334.400,1057.157,334.400C1062.157,334.400,1066.157,334.400,1068.157,336.400C1070.157,338.400,1070.157,342.400,1070.157,345.400C1070.157,348.400,1070.157,350.400,1070.157,353.400C1070.157,356.400,1070.157,360.400,1068.157,362.400C1066.157,364.400,1062.157,364.400,1057.157,364.400C1052.157,364.400,1046.157,364.400,1043.157,364.400L 1040.157,364.400" fill="none" stroke="#2F3B4D" stroke-width="1.5" marker-end="url(#arrow-seq-0)"   stroke-linecap="round" stroke-linejoin="round" /><text x="1040.16" y="316.80" text-anchor="middle" font-family="'trebuchet ms', verdana, arial, sans-serif" font-size="16" fill="#333333"><tspan x="1040.16" dy="0.00">Send Email</tspan></text><path d="M 570.754,368.000 L 101.351,368.000" fill="none" stroke="#2F3B4D" stroke-width="1.5" marker-end="url(#arrow-seq-0)"  stroke-dasharray="3 3" stroke-linecap="round" stroke-linejoin="round" /><text x="336.05" y="350.40" text-anchor="middle" font-family="'trebuchet ms', verdana, arial, sans-serif" font-size="16" fill="#333333"><tspan x="336.05" dy="0.00">Order Confirmed</tspan></text><path d="M 101.351,401.600L 104.351,401.600C107.351,401.600,113.351,401.600,118.351,401.600C123.351,401.600,127.351,401.600,129.351,403.600C131.351,405.600,131.351,409.600,131.351,412.600C131.351,415.600,131.351,417.600,131.351,420.600C131.351,423.600,131.351,427.600,129.351,429.600C127.351,431.600,123.351,431.600,118.351,431.600C113.351,431.600,107.351,431.600,104.351,431.600L 101.351,431.600" fill="none" stroke="#2F3B4D" stroke-width="1.5" marker-end="url(#arrow-seq-0)"  stroke-dasharray="3 3" stroke-linecap="round" stroke-linejoin="round" /><text x="101.35" y="384.00" text-anchor="middle" font-family="'trebuchet ms', verdana, arial, sans-serif" font-size="16" fill="#333333"><tspan x="101.35" dy="0.00">Return Response</tspan></text><rect x="8.00" y="8.00" width="186.70" height="56.00" rx="3" ry="3" fill="#EAEAEA" stroke="#666666" stroke-width="1.0"/><text x="101.35" y="40.00" text-anchor="middle" font-family="'trebuchet ms', verdana, arial, sans-serif" font-size="16" fill="#333333"><tspan x="101.35" dy="0.00">API Gateway</tspan></text><rect x="946.81" y="8.00" width="186.70" height="56.00" rx="3" ry="3" fill="#EAEAEA" stroke="#666666" stroke-width="1.0"/><text x="1040.16" y="40.00" text-anchor="middle" font-family="'trebuchet ms', verdana, arial, sans-serif" font-size="16" fill="#333333"><tspan x="1040.16" dy="0.00">Notification Service</tspan></text><rect x="477.40" y="8.00" width="186.70" height="56.00" rx="3" ry="3" fill="#EAEAEA" stroke="#666666" stroke-width="1.0"/><text x="570.75" y="40.00" text-anchor="middle" font-family="'trebuchet ms', verdana, arial, sans-serif" font-size="16" fill="#333333"><tspan x="570.75" dy="0.00">Order Service</tspan></text><rect x="712.10" y="8.00" width="186.70" height="56.00" rx="3" ry="3" fill="#EAEAEA" stroke="#666666" stroke-width="1.0"/><text x="805.46" y="40.00" text-anchor="middle" font-family="'trebuchet ms', verdana, arial, sans-serif" font-size="16" fill="#333333"><tspan x="805.46" dy="0.00">Payment Service</tspan></text><rect x="1181.51" y="8.00" width="186.70" height="56.00" rx="3" ry="3" fill="#EAEAEA" stroke="#666666" stroke-width="1.0"/><text x="1274.86" y="40.00" text-anchor="middle" font-family="'trebuchet ms', verdana, arial, sans-serif" font-size="16" fill="#333333"><tspan x="1274.86" dy="0.00">Message Queue</tspan></text><rect x="242.70" y="8.00" width="186.70" height="56.00" rx="3" ry="3" fill="#EAEAEA" stroke="#666666" stroke-width="1.0"/><text x="336.05" y="40.00" text-anchor="middle" font-family="'trebuchet ms', verdana, arial, sans-serif" font-size="16" fill="#333333"><tspan x="336.05" dy="0.00">User Service</tspan></text><rect x="8.00" y="421.60" width="186.70" height="56.00" rx="3" ry="3" fill="#EAEAEA" stroke="#666666" stroke-width="1.0"/><text x="101.35" y="453.60" text-anchor="middle" font-family="'trebuchet ms', verdana, arial, sans-serif" font-size="16" fill="#333333"><tspan x="101.35" dy="0.00">API Gateway</tspan></text><rect x="242.70" y="421.60" width="186.70" height="56.00" rx="3" ry="3" fill="#EAEAEA" stroke="#666666" stroke-width="1.0"/><text x="336.05" y="453.60" text-anchor="middle" font-family="'trebuchet ms', verdana, arial, sans-serif" font-size="16" fill="#333333"><tspan x="336.05" dy="0.00">User Service</tspan></text><rect x="477.40" y="421.60" width="186.70" height="56.00" rx="3" ry="3" fill="#EAEAEA" stroke="#666666" stroke-width="1.0"/><text x="570.75" y="453.60" text-anchor="middle" font-family="'trebuchet ms', verdana, arial, sans-serif" font-size="16" fill="#333333"><tspan x="570.75" dy="0.00">Order Service</tspan></text><rect x="712.10" y="421.60" width="186.70" height="56.00" rx="3" ry="3" fill="#EAEAEA" stroke="#666666" stroke-width="1.0"/><text x="805.46" y="453.60" text-anchor="middle" font-family="'trebuchet ms', verdana, arial, sans-serif" font-size="16" fill="#333333"><tspan x="805.46" dy="0.00">Payment Service</tspan></text><rect x="946.81" y="421.60" width="186.70" height="56.00" rx="3" ry="3" fill="#EAEAEA" stroke="#666666" stroke-width="1.0"/><text x="1040.16" y="453.60" text-anchor="middle" font-family="'trebuchet ms', verdana, arial, sans-serif" font-size="16" fill="#333333"><tspan x="1040.16" dy="0.00">Notification Service</tspan></text><rect x="1181.51" y="421.60" width="186.70" height="56.00" rx="3" ry="3" fill="#EAEAEA" stroke="#666666" stroke-width="1.0"/><text x="1274.86" y="453.60" text-anchor="middle" font-family="'trebuchet ms', verdana, arial, sans-serif" font-size="16" fill="#333333"><tspan x="1274.86" dy="0.00">Message Queue</tspan></text></svg>