<svg xmlns="http://www.w3.org/2000/svg" width="288" height="372.00003" viewBox="0 0 288 372.00003"><rect x="0" y="0" width="288" height="372.00003" fill="#FFFFFF"/><defs><marker id="arrow-0" viewBox="0 0 10 10" refX="5" refY="5" markerUnits="userSpaceOnUse" markerWidth="8" markerHeight="8" orient="auto"><path d="M 0 0 L 10 5 L 0 10 z" fill="#2F3B4D" stroke="#2F3B4D" stroke-width="1" stroke-dasharray="1,0"/></marker><marker id="arrow-start-0" viewBox="0 0 10 10" refX="4.5" refY="5" markerUnits="userSpaceOnUse" markerWidth="8" markerHeight="8" orient="auto"><path d="M 0 5 L 10 10 L 10 0 z" fill="#2F3B4D" stroke="#2F3B4D" stroke-width="1" stroke-dasharray="1,0"/></marker><marker id="arrow-seq-0" viewBox="-1 0 12 10" refX="7.9" refY="5" markerUnits="userSpaceOnUse" markerWidth="12" markerHeight="12" orient="auto-start-reverse"><path d="M -1 0 L 10 5 L 0 10 z" fill="#2F3B4D" stroke="#2F3B4D" stroke-width="1" stroke-dasharray="1,0"/></marker><marker id="arrow-start-seq-0" viewBox="-1 0 12 10" refX="2.1" refY="5" markerUnits="userSpaceOnUse" markerWidth="12" markerHeight="12" orient="auto"><path d="M 11 0 L 0 5 L 11 10 z" fill="#2F3B4D" stroke="#2F3B4D" stroke-width="1" stroke-dasharray="1,0"/></marker></defs><rect x="36.80" y="169.60" width="118.40" height="134.40" fill="none" stroke="#7B88A8" stroke-width="2.0" stroke-dasharray="2 2"/><line x1="36.80" y1="241.60" x2="155.20" y2="241.60" stroke="#7B88A8" stroke-width="2.0" stroke-dasharray="3 3"/><polygon points="36.80,169.60 91.77,169.60 91.77,182.60 80.77,189.60 36.80,189.60" fill="#ECECFF" stroke="#7B88A8" stroke-width="1.1"/><text x="64.28" y="183.60" text-anchor="middle" font-family="'trebuchet ms', verdana, arial, sans-serif" font-size="16" fill="#333333"><tspan x="64.28" dy="0.00">alt</tspan></text><text x="96.00" y="184.80" text-anchor="middle" font-family="'trebuchet ms', verdana, arial, sans-serif" font-size="16" fill="#333333"><tspan x="96.00" dy="0.00">[success]</tspan></text><text x="96.00" y="256.80" text-anchor="middle" font-family="'trebuchet ms', verdana, arial, sans-serif" font-size="16" fill="#333333"><tspan x="96.00" dy="0.00">[failure]</tspan></text><line x1="48.00" y1="57.60" x2="48.00" y2="314.40" stroke="#999999" stroke-width="0.5"/><line x1="144.00" y1="57.60" x2="144.00" y2="314.40" stroke="#999999" stroke-width="0.5"/><line x1="240.00" y1="57.60" x2="240.00" y2="314.40" stroke="#999999" stroke-width="0.5"/><rect x="234.00" y="160.00" width="12.00" height="67.20" fill="#F4F4F4" stroke="#666666" stroke-width="1"/><rect x="138.00" y="126.40" width="12.00" height="188.16" fill="#F4F4F4" stroke="#666666" stroke-width="1"/><path class="edgePath" d="M 48.000,92.800 L 144.000,92.800" fill="none" stroke="#2F3B4D" stroke-width="1.5" marker-end="url(#arrow-seq-0)"   stroke-linecap="round" stroke-linejoin="round" /><text x="96.00" y="129.60" text-anchor="middle" font-family="'trebuchet ms', verdana, arial, sans-serif" font-size="16" fill="#333333"><tspan x="96.00" dy="0.00">Request</tspan></text><path class="edgePath" d="M 144.000,126.400 L 240.000,126.400" fill="none" stroke="#2F3B4D" stroke-width="1.5" marker-end="url(#arrow-seq-0)"   stroke-linecap="round" stroke-linejoin="round" /><text x="192.00" y="97.60" text-anchor="middle" font-family="'trebuchet ms', verdana, arial, sans-serif" font-size="16" fill="#333333"><tspan x="192.00" dy="0.00">Query</tspan></text><path class="edgePath" d="M 240.000,160.000 L 144.000,160.000" fill="none" stroke="#2F3B4D" stroke-width="1.5" marker-end="url(#arrow-seq-0)"  stroke-dasharray="3 3" stroke-linecap="round" stroke-linejoin="round" /><text x="192.00" y="196.80" text-anchor="middle" font-family="'trebuchet ms', verdana, arial, sans-serif" font-size="16" fill="#333333"><tspan x="192.00" dy="0.00">Rows</tspan></text><path class="edgePath" d="M 144.000,227.200 L 48.000,227.200" fill="none" stroke="#2F3B4D" stroke-width="1.5" marker-end="url(#arrow-seq-0)"  stroke-dasharray="3 3" stroke-linecap="round" stroke-linejoin="round" /><text x="96.00" y="290.24" text-anchor="middle" font-family="'trebuchet ms', verdana, arial, sans-serif" font-size="16" fill="#333333"><tspan x="96.00" dy="0.00">200 OK</tspan></text><path class="edgePath" d="M 144.000,294.400 L 48.000,294.400" fill="none" stroke="#2F3B4D" stroke-width="1.5" marker-end="url(#arrow-seq-0)"  stroke-dasharray="3 3" stroke-linecap="round" stroke-linejoin="round" /><text x="96.00" y="213.12" text-anchor="middle" font-family="'trebuchet ms', verdana, arial, sans-serif" font-size="16" fill="#333333"><tspan x="96.00" dy="0.00">500 Error</tspan></text><rect x="104.00" y="8.00" width="80.00" height="49.60" rx="3" ry="3" fill="#EAEAEA" stroke="#666666" stroke-width="1.0"/><text x="144.00" y="36.80" text-anchor="middle" font-family="'trebuchet ms', verdana, arial, sans-serif" font-size="16" fill="#333333"><tspan x="144.00" dy="0.00">API</tspan></text><rect x="8.00" y="8.00" width="80.00" height="49.60" rx="3" ry="3" fill="#EAEAEA" stroke="#666666" stroke-width="1.0"/><text x="48.00" y="36.80" text-anchor="middle" font-family="'trebuchet ms', verdana, arial, sans-serif" font-size="16" fill="#333333"><tspan x="48.00" dy="0.00">Client</tspan></text><rect x="200.00" y="8.00" width="80.00" height="49.60" rx="3" ry="3" fill="#EAEAEA" stroke="#666666" stroke-width="1.0"/><text x="240.00" y="36.80" text-anchor="middle" font-family="'trebuchet ms', verdana, arial, sans-serif" font-size="16" fill="#333333"><tspan x="240.00" dy="0.00">DB</tspan></text><rect x="8.00" y="314.40" width="80.00" height="49.60" rx="3" ry="3" fill="#EAEAEA" stroke="#666666" stroke-width="1.0"/><text x="48.00" y="343.20" text-anchor="middle" font-family="'trebuchet ms', verdana, arial, sans-serif" font-size="16" fill="#333333"><tspan x="48.00" dy="0.00">Client</tspan></text><rect x="104.00" y="314.40" width="80.00" height="49.60" rx="3" ry="3" fill="#EAEAEA" stroke="#666666" stroke-width="1.0"/><text x="144.00" y="343.20" text-anchor="middle" font-family="'trebuchet ms', verdana, arial, sans-serif" font-size="16" fill="#333333"><tspan x="144.00" dy="0.00">API</tspan></text><rect x="200.00" y="314.40" width="80.00" height="49.60" rx="3" ry="3" fill="#EAEAEA" stroke="#666666" stroke-width="1.0"/><text x="240.00" y="343.20" text-anchor="middle" font-family="'trebuchet ms', verdana, arial, sans-serif" font-size="16" fill="#333333"><tspan x="240.00" dy="0.00">DB</tspan></text></svg>