<svg xmlns="http://www.w3.org/2000/svg" width="300.8" height="565.2" viewBox="0 0 300.8 565.2"><rect x="0" y="0" width="300.8" height="565.2" fill="#FFFFFF"/><defs><marker id="arrow-0" viewBox="0 0 10 10" refX="5" refY="5" markerUnits="userSpaceOnUse" markerWidth="8" markerHeight="8" orient="auto"><path d="M 0 0 L 10 5 L 0 10 z" fill="#2F3B4D" stroke="#2F3B4D" stroke-width="1" stroke-dasharray="1,0"/></marker><marker id="arrow-start-0" viewBox="0 0 10 10" refX="4.5" refY="5" markerUnits="userSpaceOnUse" markerWidth="8" markerHeight="8" orient="auto"><path d="M 0 5 L 10 10 L 10 0 z" fill="#2F3B4D" stroke="#2F3B4D" stroke-width="1" stroke-dasharray="1,0"/></marker><marker id="arrow-seq-0" viewBox="-1 0 12 10" refX="7.9" refY="5" markerUnits="userSpaceOnUse" markerWidth="12" markerHeight="12" orient="auto-start-reverse"><path d="M -1 0 L 10 5 L 0 10 z" fill="#2F3B4D" stroke="#2F3B4D" stroke-width="1" stroke-dasharray="1,0"/></marker><marker id="arrow-start-seq-0" viewBox="-1 0 12 10" refX="2.1" refY="5" markerUnits="userSpaceOnUse" markerWidth="12" markerHeight="12" orient="auto"><path d="M 11 0 L 0 5 L 11 10 z" fill="#2F3B4D" stroke="#2F3B4D" stroke-width="1" stroke-dasharray="1,0"/></marker></defs><rect x="139.20" y="102.40" width="124.80" height="100.80" fill="none" stroke="#7B88A8" stroke-width="2.0" stroke-dasharray="2 2"/><polygon points="139.20,102.40 201.82,102.40 201.82,115.40 189.30,122.40 139.20,122.40" fill="#ECECFF" stroke="#7B88A8" stroke-width="1.1"/><text x="170.51" y="116.40" text-anchor="middle" font-family="'trebuchet ms', verdana, arial, sans-serif" font-size="16" fill="#333333"><tspan x="170.51" dy="0.00">loop</tspan></text><text x="201.60" y="117.60" text-anchor="middle" font-family="'trebuchet ms', verdana, arial, sans-serif" font-size="16" fill="#333333"><tspan x="201.60" dy="0.00">[Health Check]</tspan></text><rect x="36.80" y="211.60" width="124.80" height="67.20" fill="none" stroke="#7B88A8" stroke-width="2.0" stroke-dasharray="2 2"/><polygon points="36.80,211.60 91.77,211.60 91.77,224.60 80.77,231.60 36.80,231.60" fill="#ECECFF" stroke="#7B88A8" stroke-width="1.1"/><text x="64.28" y="225.60" text-anchor="middle" font-family="'trebuchet ms', verdana, arial, sans-serif" font-size="16" fill="#333333"><tspan x="64.28" dy="0.00">opt</tspan></text><text x="99.20" y="226.80" text-anchor="middle" font-family="'trebuchet ms', verdana, arial, sans-serif" font-size="16" fill="#333333"><tspan x="99.20" dy="0.00">[Has Cache]</tspan></text><rect x="139.20" y="287.20" width="124.80" height="134.40" fill="none" stroke="#7B88A8" stroke-width="2.0" stroke-dasharray="2 2"/><line x1="139.20" y1="359.20" x2="264.00" y2="359.20" stroke="#7B88A8" stroke-width="2.0" stroke-dasharray="3 3"/><polygon points="139.20,287.20 194.17,287.20 194.17,300.20 183.17,307.20 139.20,307.20" fill="#ECECFF" stroke="#7B88A8" stroke-width="1.1"/><text x="166.68" y="301.20" text-anchor="middle" font-family="'trebuchet ms', verdana, arial, sans-serif" font-size="16" fill="#333333"><tspan x="166.68" dy="0.00">par</tspan></text><text x="201.60" y="302.40" text-anchor="middle" font-family="'trebuchet ms', verdana, arial, sans-serif" font-size="16" fill="#333333"><tspan x="201.60" dy="0.00">[Task A]</tspan></text><text x="201.60" y="374.40" text-anchor="middle" font-family="'trebuchet ms', verdana, arial, sans-serif" font-size="16" fill="#333333"><tspan x="201.60" dy="0.00">[Task B]</tspan></text><line x1="48.00" y1="57.60" x2="48.00" y2="507.60" stroke="#999999" stroke-width="0.5"/><line x1="150.40" y1="57.60" x2="150.40" y2="507.60" stroke="#999999" stroke-width="0.5"/><line x1="252.80" y1="57.60" x2="252.80" y2="507.60" stroke="#999999" stroke-width="0.5"/><path d="M 48.000,92.800 L 150.400,92.800" fill="none" stroke="#2F3B4D" stroke-width="1.5" marker-end="url(#arrow-seq-0)"   stroke-linecap="round" stroke-linejoin="round" /><text x="99.20" y="75.20" text-anchor="middle" font-family="'trebuchet ms', verdana, arial, sans-serif" font-size="16" fill="#333333"><tspan x="99.20" dy="0.00">Connect</tspan></text><path d="M 150.400,160.000 L 252.800,160.000" fill="none" stroke="#2F3B4D" stroke-width="1.5" marker-end="url(#arrow-seq-0)"   stroke-linecap="round" stroke-linejoin="round" /><text x="201.60" y="142.40" text-anchor="middle" font-family="'trebuchet ms', verdana, arial, sans-serif" font-size="16" fill="#333333"><tspan x="201.60" dy="0.00">Ping</tspan></text><path d="M 252.800,193.600 L 150.400,193.600" fill="none" stroke="#2F3B4D" stroke-width="1.5" marker-end="url(#arrow-seq-0)"  stroke-dasharray="3 3" stroke-linecap="round" stroke-linejoin="round" /><text x="201.60" y="176.00" text-anchor="middle" font-family="'trebuchet ms', verdana, arial, sans-serif" font-size="16" fill="#333333"><tspan x="201.60" dy="0.00">Pong</tspan></text><path d="M 150.400,269.200 L 48.000,269.200" fill="none" stroke="#2F3B4D" stroke-width="1.5" marker-end="url(#arrow-seq-0)"   stroke-linecap="round" stroke-linejoin="round" /><text x="99.20" y="251.60" text-anchor="middle" font-family="'trebuchet ms', verdana, arial, sans-serif" font-size="16" fill="#333333"><tspan x="99.20" dy="0.00">Cached Response</tspan></text><path d="M 150.400,344.800 L 252.800,344.800" fill="none" stroke="#2F3B4D" stroke-width="1.5" marker-end="url(#arrow-seq-0)"   stroke-linecap="round" stroke-linejoin="round" /><text x="201.60" y="327.20" text-anchor="middle" font-family="'trebuchet ms', verdana, arial, sans-serif" font-size="16" fill="#333333"><tspan x="201.60" dy="0.00">Query A</tspan></text><path d="M 150.400,412.000 L 252.800,412.000" fill="none" stroke="#2F3B4D" stroke-width="1.5" marker-end="url(#arrow-seq-0)"   stroke-linecap="round" stroke-linejoin="round" /><text x="201.60" y="394.40" text-anchor="middle" font-family="'trebuchet ms', verdana, arial, sans-serif" font-size="16" fill="#333333"><tspan x="201.60" dy="0.00">Query B</tspan></text><path d="M 252.800,454.000 L 150.400,454.000" fill="none" stroke="#2F3B4D" stroke-width="1.5" marker-end="url(#arrow-seq-0)"  stroke-dasharray="3 3" stroke-linecap="round" stroke-linejoin="round" /><text x="201.60" y="436.40" text-anchor="middle" font-family="'trebuchet ms', verdana, arial, sans-serif" font-size="16" fill="#333333"><tspan x="201.60" dy="0.00">Results</tspan></text><path d="M 150.400,487.600 L 48.000,487.600" fill="none" stroke="#2F3B4D" stroke-width="1.5" marker-end="url(#arrow-seq-0)"  stroke-dasharray="3 3" stroke-linecap="round" stroke-linejoin="round" /><text x="99.20" y="470.00" text-anchor="middle" font-family="'trebuchet ms', verdana, arial, sans-serif" font-size="16" fill="#333333"><tspan x="99.20" dy="0.00">Response</tspan></text><rect x="8.00" y="8.00" width="80.00" height="49.60" rx="3" ry="3" fill="#EAEAEA" stroke="#666666" stroke-width="1.0"/><text x="48.00" y="36.80" text-anchor="middle" font-family="'trebuchet ms', verdana, arial, sans-serif" font-size="16" fill="#333333"><tspan x="48.00" dy="0.00">Client</tspan></text><rect x="212.80" y="8.00" width="80.00" height="49.60" rx="3" ry="3" fill="#EAEAEA" stroke="#666666" stroke-width="1.0"/><text x="252.80" y="36.80" text-anchor="middle" font-family="'trebuchet ms', verdana, arial, sans-serif" font-size="16" fill="#333333"><tspan x="252.80" dy="0.00">DB</tspan></text><rect x="110.40" y="8.00" width="80.00" height="49.60" rx="3" ry="3" fill="#EAEAEA" stroke="#666666" stroke-width="1.0"/><text x="150.40" y="36.80" text-anchor="middle" font-family="'trebuchet ms', verdana, arial, sans-serif" font-size="16" fill="#333333"><tspan x="150.40" dy="0.00">Server</tspan></text><rect x="8.00" y="507.60" width="80.00" height="49.60" rx="3" ry="3" fill="#EAEAEA" stroke="#666666" stroke-width="1.0"/><text x="48.00" y="536.40" text-anchor="middle" font-family="'trebuchet ms', verdana, arial, sans-serif" font-size="16" fill="#333333"><tspan x="48.00" dy="0.00">Client</tspan></text><rect x="110.40" y="507.60" width="80.00" height="49.60" rx="3" ry="3" fill="#EAEAEA" stroke="#666666" stroke-width="1.0"/><text x="150.40" y="536.40" text-anchor="middle" font-family="'trebuchet ms', verdana, arial, sans-serif" font-size="16" fill="#333333"><tspan x="150.40" dy="0.00">Server</tspan></text><rect x="212.80" y="507.60" width="80.00" height="49.60" rx="3" ry="3" fill="#EAEAEA" stroke="#666666" stroke-width="1.0"/><text x="252.80" y="536.40" text-anchor="middle" font-family="'trebuchet ms', verdana, arial, sans-serif" font-size="16" fill="#333333"><tspan x="252.80" dy="0.00">DB</tspan></text></svg>