<svg xmlns="http://www.w3.org/2000/svg" width="2184" height="537.60004" viewBox="0 0 2184 537.60004"><rect x="0" y="0" width="2184" height="537.60004" fill="#FFFFFF"/><defs><marker id="arrow-0" viewBox="0 0 10 10" refX="5" refY="5" markerUnits="userSpaceOnUse" markerWidth="8" markerHeight="8" orient="auto"><path d="M 0 0 L 10 5 L 0 10 z" fill="#2F3B4D" stroke="#2F3B4D" stroke-width="1" stroke-dasharray="1,0"/></marker><marker id="arrow-start-0" viewBox="0 0 10 10" refX="4.5" refY="5" markerUnits="userSpaceOnUse" markerWidth="8" markerHeight="8" orient="auto"><path d="M 0 5 L 10 10 L 10 0 z" fill="#2F3B4D" stroke="#2F3B4D" stroke-width="1" stroke-dasharray="1,0"/></marker><marker id="arrow-seq-0" viewBox="-1 0 12 10" refX="7.9" refY="5" markerUnits="userSpaceOnUse" markerWidth="12" markerHeight="12" orient="auto-start-reverse"><path d="M -1 0 L 10 5 L 0 10 z" fill="#2F3B4D" stroke="#2F3B4D" stroke-width="1" stroke-dasharray="1,0"/></marker><marker id="arrow-start-seq-0" viewBox="-1 0 12 10" refX="2.1" refY="5" markerUnits="userSpaceOnUse" markerWidth="12" markerHeight="12" orient="auto"><path d="M 11 0 L 0 5 L 11 10 z" fill="#2F3B4D" stroke="#2F3B4D" stroke-width="1" stroke-dasharray="1,0"/></marker></defs><line x1="73.00" y1="64.00" x2="73.00" y2="421.60" stroke="#999999" stroke-width="0.5"/><line x1="251.00" y1="64.00" x2="251.00" y2="421.60" stroke="#999999" stroke-width="0.5"/><line x1="429.00" y1="64.00" x2="429.00" y2="421.60" stroke="#999999" stroke-width="0.5"/><line x1="607.00" y1="64.00" x2="607.00" y2="421.60" stroke="#999999" stroke-width="0.5"/><line x1="785.00" y1="64.00" x2="785.00" y2="421.60" stroke="#999999" stroke-width="0.5"/><line x1="963.00" y1="64.00" x2="963.00" y2="421.60" stroke="#999999" stroke-width="0.5"/><line x1="1141.00" y1="64.00" x2="1141.00" y2="421.60" stroke="#999999" stroke-width="0.5"/><line x1="1319.00" y1="64.00" x2="1319.00" y2="421.60" stroke="#999999" stroke-width="0.5"/><line x1="1497.00" y1="64.00" x2="1497.00" y2="421.60" stroke="#999999" stroke-width="0.5"/><line x1="1675.00" y1="64.00" x2="1675.00" y2="421.60" stroke="#999999" stroke-width="0.5"/><line x1="1853.00" y1="64.00" x2="1853.00" y2="421.60" stroke="#999999" stroke-width="0.5"/><line x1="2031.00" y1="64.00" x2="2031.00" y2="421.60" stroke="#999999" stroke-width="0.5"/><rect x="1669.00" y="233.60" width="12.00" height="33.60" fill="#F4F4F4" stroke="#666666" stroke-width="1"/><rect x="1491.00" y="200.00" width="12.00" height="201.60" fill="#F4F4F4" stroke="#666666" stroke-width="1"/><path d="M 1141.000,99.200 L 1319.000,99.200" fill="none" stroke="#2F3B4D" stroke-width="1.5" marker-end="url(#arrow-seq-0)"   stroke-linecap="round" stroke-linejoin="round" /><text x="1230.00" y="81.60" text-anchor="middle" font-family="'trebuchet ms', verdana, arial, sans-serif" font-size="16" fill="#333333"><tspan x="1230.00" dy="0.00">Authenticate</tspan></text><path d="M 1319.000,132.800 L 1141.000,132.800" fill="none" stroke="#2F3B4D" stroke-width="1.5" marker-end="url(#arrow-seq-0)"  stroke-dasharray="3 3" stroke-linecap="round" stroke-linejoin="round" /><text x="1230.00" y="115.20" text-anchor="middle" font-family="'trebuchet ms', verdana, arial, sans-serif" font-size="16" fill="#333333"><tspan x="1230.00" dy="0.00">Token Valid</tspan></text><path d="M 1141.000,166.400 L 1497.000,166.400" fill="none" stroke="#2F3B4D" stroke-width="1.5" marker-end="url(#arrow-seq-0)"   stroke-linecap="round" stroke-linejoin="round" /><text x="1319.00" y="148.80" text-anchor="middle" font-family="'trebuchet ms', verdana, arial, sans-serif" font-size="16" fill="#333333"><tspan x="1319.00" dy="0.00">Create Order</tspan></text><path d="M 1497.000,200.000 L 1675.000,200.000" fill="none" stroke="#2F3B4D" stroke-width="1.5" marker-end="url(#arrow-seq-0)"   stroke-linecap="round" stroke-linejoin="round" /><text x="1586.00" y="182.40" text-anchor="middle" font-family="'trebuchet ms', verdana, arial, sans-serif" font-size="16" fill="#333333"><tspan x="1586.00" dy="0.00">Process Payment</tspan></text><path d="M 1675.000,233.600 L 1497.000,233.600" fill="none" stroke="#2F3B4D" stroke-width="1.5" marker-end="url(#arrow-seq-0)"  stroke-dasharray="3 3" stroke-linecap="round" stroke-linejoin="round" /><text x="1586.00" y="216.00" text-anchor="middle" font-family="'trebuchet ms', verdana, arial, sans-serif" font-size="16" fill="#333333"><tspan x="1586.00" dy="0.00">Payment OK</tspan></text><path d="M 1497.000,267.200 L 1853.000,267.200" fill="none" stroke="#2F3B4D" stroke-width="1.5" marker-end="url(#arrow-seq-0)"   stroke-linecap="round" stroke-linejoin="round" /><text x="1675.00" y="249.60" text-anchor="middle" font-family="'trebuchet ms', verdana, arial, sans-serif" font-size="16" fill="#333333"><tspan x="1675.00" dy="0.00">Publish OrderCreated</tspan></text><path d="M 1853.000,300.800 L 2031.000,300.800" fill="none" stroke="#2F3B4D" stroke-width="1.5" marker-end="url(#arrow-seq-0)"  stroke-dasharray="3 3" stroke-linecap="round" stroke-linejoin="round" /><text x="1942.00" y="283.20" text-anchor="middle" font-family="'trebuchet ms', verdana, arial, sans-serif" font-size="16" fill="#333333"><tspan x="1942.00" dy="0.00">OrderCreated Event</tspan></text><path d="M 2031.000,334.400L 2034.000,334.400C2037.000,334.400,2043.000,334.400,2048.000,334.400C2053.000,334.400,2057.000,334.400,2059.000,336.400C2061.000,338.400,2061.000,342.400,2061.000,345.400C2061.000,348.400,2061.000,350.400,2061.000,353.400C2061.000,356.400,2061.000,360.400,2059.000,362.400C2057.000,364.400,2053.000,364.400,2048.000,364.400C2043.000,364.400,2037.000,364.400,2034.000,364.400L 2031.000,364.400" fill="none" stroke="#2F3B4D" stroke-width="1.5" marker-end="url(#arrow-seq-0)"   stroke-linecap="round" stroke-linejoin="round" /><text x="2031.00" y="316.80" text-anchor="middle" font-family="'trebuchet ms', verdana, arial, sans-serif" font-size="16" fill="#333333"><tspan x="2031.00" dy="0.00">Send Email</tspan></text><path d="M 1497.000,368.000 L 1141.000,368.000" fill="none" stroke="#2F3B4D" stroke-width="1.5" marker-end="url(#arrow-seq-0)"  stroke-dasharray="3 3" stroke-linecap="round" stroke-linejoin="round" /><text x="1319.00" y="350.40" text-anchor="middle" font-family="'trebuchet ms', verdana, arial, sans-serif" font-size="16" fill="#333333"><tspan x="1319.00" dy="0.00">Order Confirmed</tspan></text><path d="M 1141.000,401.600L 1144.000,401.600C1147.000,401.600,1153.000,401.600,1158.000,401.600C1163.000,401.600,1167.000,401.600,1169.000,403.600C1171.000,405.600,1171.000,409.600,1171.000,412.600C1171.000,415.600,1171.000,417.600,1171.000,420.600C1171.000,423.600,1171.000,427.600,1169.000,429.600C1167.000,431.600,1163.000,431.600,1158.000,431.600C1153.000,431.600,1147.000,431.600,1144.000,431.600L 1141.000,431.600" fill="none" stroke="#2F3B4D" stroke-width="1.5" marker-end="url(#arrow-seq-0)"  stroke-dasharray="3 3" stroke-linecap="round" stroke-linejoin="round" /><text x="1141.00" y="384.00" text-anchor="middle" font-family="'trebuchet ms', verdana, arial, sans-serif" font-size="16" fill="#333333"><tspan x="1141.00" dy="0.00">Return Response</tspan></text><rect x="8.00" y="8.00" width="130.00" height="56.00" rx="3" ry="3" fill="#EAEAEA" stroke="#666666" stroke-width="1.0"/><text x="73.00" y="40.00" text-anchor="middle" font-family="'trebuchet ms', verdana, arial, sans-serif" font-size="16" fill="#333333"><tspan x="73.00" dy="0.00">GW</tspan></text><rect x="1076.00" y="8.00" width="130.00" height="56.00" rx="3" ry="3" fill="#EAEAEA" stroke="#666666" stroke-width="1.0"/><text x="1141.00" y="40.00" text-anchor="middle" font-family="'trebuchet ms', verdana, arial, sans-serif" font-size="16" fill="#333333"><tspan x="1141.00" dy="0.00">GW</tspan></text><rect x="898.00" y="8.00" width="130.00" height="56.00" rx="3" ry="3" fill="#EAEAEA" stroke="#666666" stroke-width="1.0"/><text x="963.00" y="40.00" text-anchor="middle" font-family="'trebuchet ms', verdana, arial, sans-serif" font-size="16" fill="#333333"><tspan x="963.00" dy="0.00">Q</tspan></text><rect x="1966.00" y="8.00" width="130.00" height="56.00" rx="3" ry="3" fill="#EAEAEA" stroke="#666666" stroke-width="1.0"/><text x="2031.00" y="40.00" text-anchor="middle" font-family="'trebuchet ms', verdana, arial, sans-serif" font-size="16" fill="#333333"><tspan x="2031.00" dy="0.00">NS</tspan></text><rect x="720.00" y="8.00" width="130.00" height="56.00" rx="3" ry="3" fill="#EAEAEA" stroke="#666666" stroke-width="1.0"/><text x="785.00" y="40.00" text-anchor="middle" font-family="'trebuchet ms', verdana, arial, sans-serif" font-size="16" fill="#333333"><tspan x="785.00" dy="0.00">NS</tspan></text><rect x="1432.00" y="8.00" width="130.00" height="56.00" rx="3" ry="3" fill="#EAEAEA" stroke="#666666" stroke-width="1.0"/><text x="1497.00" y="40.00" text-anchor="middle" font-family="'trebuchet ms', verdana, arial, sans-serif" font-size="16" fill="#333333"><tspan x="1497.00" dy="0.00">OS</tspan></text><rect x="364.00" y="8.00" width="130.00" height="56.00" rx="3" ry="3" fill="#EAEAEA" stroke="#666666" stroke-width="1.0"/><text x="429.00" y="40.00" text-anchor="middle" font-family="'trebuchet ms', verdana, arial, sans-serif" font-size="16" fill="#333333"><tspan x="429.00" dy="0.00">OS</tspan></text><rect x="1610.00" y="8.00" width="130.00" height="56.00" rx="3" ry="3" fill="#EAEAEA" stroke="#666666" stroke-width="1.0"/><text x="1675.00" y="40.00" text-anchor="middle" font-family="'trebuchet ms', verdana, arial, sans-serif" font-size="16" fill="#333333"><tspan x="1675.00" dy="0.00">PS</tspan></text><rect x="542.00" y="8.00" width="130.00" height="56.00" rx="3" ry="3" fill="#EAEAEA" stroke="#666666" stroke-width="1.0"/><text x="607.00" y="40.00" text-anchor="middle" font-family="'trebuchet ms', verdana, arial, sans-serif" font-size="16" fill="#333333"><tspan x="607.00" dy="0.00">PS</tspan></text><rect x="1788.00" y="8.00" width="130.00" height="56.00" rx="3" ry="3" fill="#EAEAEA" stroke="#666666" stroke-width="1.0"/><text x="1853.00" y="40.00" text-anchor="middle" font-family="'trebuchet ms', verdana, arial, sans-serif" font-size="16" fill="#333333"><tspan x="1853.00" dy="0.00">Q</tspan></text><rect x="1254.00" y="8.00" width="130.00" height="56.00" rx="3" ry="3" fill="#EAEAEA" stroke="#666666" stroke-width="1.0"/><text x="1319.00" y="40.00" text-anchor="middle" font-family="'trebuchet ms', verdana, arial, sans-serif" font-size="16" fill="#333333"><tspan x="1319.00" dy="0.00">US</tspan></text><rect x="186.00" y="8.00" width="130.00" height="56.00" rx="3" ry="3" fill="#EAEAEA" stroke="#666666" stroke-width="1.0"/><text x="251.00" y="40.00" text-anchor="middle" font-family="'trebuchet ms', verdana, arial, sans-serif" font-size="16" fill="#333333"><tspan x="251.00" dy="0.00">US</tspan></text><rect x="8.00" y="421.60" width="130.00" height="56.00" rx="3" ry="3" fill="#EAEAEA" stroke="#666666" stroke-width="1.0"/><text x="73.00" y="453.60" text-anchor="middle" font-family="'trebuchet ms', verdana, arial, sans-serif" font-size="16" fill="#333333"><tspan x="73.00" dy="0.00">GW</tspan></text><rect x="186.00" y="421.60" width="130.00" height="56.00" rx="3" ry="3" fill="#EAEAEA" stroke="#666666" stroke-width="1.0"/><text x="251.00" y="453.60" text-anchor="middle" font-family="'trebuchet ms', verdana, arial, sans-serif" font-size="16" fill="#333333"><tspan x="251.00" dy="0.00">US</tspan></text><rect x="364.00" y="421.60" width="130.00" height="56.00" rx="3" ry="3" fill="#EAEAEA" stroke="#666666" stroke-width="1.0"/><text x="429.00" y="453.60" text-anchor="middle" font-family="'trebuchet ms', verdana, arial, sans-serif" font-size="16" fill="#333333"><tspan x="429.00" dy="0.00">OS</tspan></text><rect x="542.00" y="421.60" width="130.00" height="56.00" rx="3" ry="3" fill="#EAEAEA" stroke="#666666" stroke-width="1.0"/><text x="607.00" y="453.60" text-anchor="middle" font-family="'trebuchet ms', verdana, arial, sans-serif" font-size="16" fill="#333333"><tspan x="607.00" dy="0.00">PS</tspan></text><rect x="720.00" y="421.60" width="130.00" height="56.00" rx="3" ry="3" fill="#EAEAEA" stroke="#666666" stroke-width="1.0"/><text x="785.00" y="453.60" text-anchor="middle" font-family="'trebuchet ms', verdana, arial, sans-serif" font-size="16" fill="#333333"><tspan x="785.00" dy="0.00">NS</tspan></text><rect x="898.00" y="421.60" width="130.00" height="56.00" rx="3" ry="3" fill="#EAEAEA" stroke="#666666" stroke-width="1.0"/><text x="963.00" y="453.60" text-anchor="middle" font-family="'trebuchet ms', verdana, arial, sans-serif" font-size="16" fill="#333333"><tspan x="963.00" dy="0.00">Q</tspan></text><rect x="1076.00" y="421.60" width="130.00" height="56.00" rx="3" ry="3" fill="#EAEAEA" stroke="#666666" stroke-width="1.0"/><text x="1141.00" y="453.60" text-anchor="middle" font-family="'trebuchet ms', verdana, arial, sans-serif" font-size="16" fill="#333333"><tspan x="1141.00" dy="0.00">GW</tspan></text><rect x="1254.00" y="421.60" width="130.00" height="56.00" rx="3" ry="3" fill="#EAEAEA" stroke="#666666" stroke-width="1.0"/><text x="1319.00" y="453.60" text-anchor="middle" font-family="'trebuchet ms', verdana, arial, sans-serif" font-size="16" fill="#333333"><tspan x="1319.00" dy="0.00">US</tspan></text><rect x="1432.00" y="421.60" width="130.00" height="56.00" rx="3" ry="3" fill="#EAEAEA" stroke="#666666" stroke-width="1.0"/><text x="1497.00" y="453.60" text-anchor="middle" font-family="'trebuchet ms', verdana, arial, sans-serif" font-size="16" fill="#333333"><tspan x="1497.00" dy="0.00">OS</tspan></text><rect x="1610.00" y="421.60" width="130.00" height="56.00" rx="3" ry="3" fill="#EAEAEA" stroke="#666666" stroke-width="1.0"/><text x="1675.00" y="453.60" text-anchor="middle" font-family="'trebuchet ms', verdana, arial, sans-serif" font-size="16" fill="#333333"><tspan x="1675.00" dy="0.00">PS</tspan></text><rect x="1788.00" y="421.60" width="130.00" height="56.00" rx="3" ry="3" fill="#EAEAEA" stroke="#666666" stroke-width="1.0"/><text x="1853.00" y="453.60" text-anchor="middle" font-family="'trebuchet ms', verdana, arial, sans-serif" font-size="16" fill="#333333"><tspan x="1853.00" dy="0.00">Q</tspan></text><rect x="1966.00" y="421.60" width="130.00" height="56.00" rx="3" ry="3" fill="#EAEAEA" stroke="#666666" stroke-width="1.0"/><text x="2031.00" y="453.60" text-anchor="middle" font-family="'trebuchet ms', verdana, arial, sans-serif" font-size="16" fill="#333333"><tspan x="2031.00" dy="0.00">NS</tspan></text></svg>