<svg xmlns="http://www.w3.org/2000/svg" width="463.2" height="301.2" viewBox="0 0 463.2 301.2"><rect x="0" y="0" width="463.2" height="301.2" fill="#FFFFFF"/><defs><marker id="arrow-0" viewBox="0 0 10 10" refX="5" refY="5" markerUnits="userSpaceOnUse" markerWidth="8" markerHeight="8" orient="auto"><path d="M 0 0 L 10 5 L 0 10 z" fill="#333333"/></marker><marker id="arrow-start-0" viewBox="0 0 10 10" refX="4.5" refY="5" markerUnits="userSpaceOnUse" markerWidth="8" markerHeight="8" orient="auto"><path d="M 0 5 L 10 10 L 10 0 z" fill="#333333"/></marker><marker id="arrow-seq-0" viewBox="-1 0 12 10" refX="7.9" refY="5" markerUnits="userSpaceOnUse" markerWidth="12" markerHeight="12" orient="auto-start-reverse"><path d="M -1 0 L 10 5 L 0 10 z" fill="#333333" stroke="#333333"/></marker><marker id="arrow-start-seq-0" viewBox="-1 0 12 10" refX="2.1" refY="5" markerUnits="userSpaceOnUse" markerWidth="12" markerHeight="12" orient="auto"><path d="M 11 0 L 0 5 L 11 10 z" fill="#333333" stroke="#333333"/></marker></defs><line x1="75.00" y1="65.00" x2="75.00" y2="176.20" stroke="#999999" stroke-width="0.5"/><line x1="286.60" y1="65.00" x2="286.60" y2="176.20" stroke="#999999" stroke-width="0.5"/><path d="M 75.00 111.40 L 286.60 111.40" fill="none" stroke="#333333" stroke-width="2" marker-end="url(#arrow-seq-0)"   /><text x="180.80" y="80.20" text-anchor="middle" font-family="'trebuchet ms', verdana, arial, sans-serif" font-size="16" fill="#333333">Hello Bob</text><path d="M 286.60 156.20 L 75.00 156.20" fill="none" stroke="#333333" stroke-width="2" marker-end="url(#arrow-seq-0)"  stroke-dasharray="3 3" /><text x="180.80" y="125.00" text-anchor="middle" font-family="'trebuchet ms', verdana, arial, sans-serif" font-size="16" fill="#333333">Hi Alice</text><rect x="0.00" y="0.00" width="150.00" height="65.00" rx="3" ry="3" fill="#EAEAEA" stroke="#666666" stroke-width="1.0"/><text x="75.00" y="36.50" text-anchor="middle" font-family="'trebuchet ms', verdana, arial, sans-serif" font-size="16" fill="#333333"><tspan x="75.00" dy="0.00">Alice</tspan></text><rect x="211.60" y="0.00" width="150.00" height="65.00" rx="3" ry="3" fill="#EAEAEA" stroke="#666666" stroke-width="1.0"/><text x="286.60" y="36.50" text-anchor="middle" font-family="'trebuchet ms', verdana, arial, sans-serif" font-size="16" fill="#333333"><tspan x="286.60" dy="0.00">Bob</tspan></text><rect x="0.00" y="176.20" width="150.00" height="65.00" rx="3" ry="3" fill="#EAEAEA" stroke="#666666" stroke-width="1.0"/><text x="75.00" y="212.70" text-anchor="middle" font-family="'trebuchet ms', verdana, arial, sans-serif" font-size="16" fill="#333333"><tspan x="75.00" dy="0.00">Alice</tspan></text><rect x="211.60" y="176.20" width="150.00" height="65.00" rx="3" ry="3" fill="#EAEAEA" stroke="#666666" stroke-width="1.0"/><text x="286.60" y="212.70" text-anchor="middle" font-family="'trebuchet ms', verdana, arial, sans-serif" font-size="16" fill="#333333"><tspan x="286.60" dy="0.00">Bob</tspan></text></svg>