<svg xmlns="http://www.w3.org/2000/svg" width="1141.6493" height="472.80005" viewBox="0 0 1141.6493 472.80005"><rect x="0" y="0" width="1141.6493" height="472.80005" fill="#FFFFFF"/><defs><marker id="arrow-0" viewBox="0 0 10 10" refX="5" refY="5" markerUnits="userSpaceOnUse" markerWidth="8" markerHeight="8" orient="auto"><path d="M 0 0 L 10 5 L 0 10 z" fill="#2F3B4D" stroke="#2F3B4D" stroke-width="1" stroke-dasharray="1,0"/></marker><marker id="arrow-start-0" viewBox="0 0 10 10" refX="4.5" refY="5" markerUnits="userSpaceOnUse" markerWidth="8" markerHeight="8" orient="auto"><path d="M 0 5 L 10 10 L 10 0 z" fill="#2F3B4D" stroke="#2F3B4D" stroke-width="1" stroke-dasharray="1,0"/></marker><marker id="arrow-seq-0" viewBox="-1 0 12 10" refX="7.9" refY="5" markerUnits="userSpaceOnUse" markerWidth="12" markerHeight="12" orient="auto-start-reverse"><path d="M -1 0 L 10 5 L 0 10 z" fill="#2F3B4D" stroke="#2F3B4D" stroke-width="1" stroke-dasharray="1,0"/></marker><marker id="arrow-start-seq-0" viewBox="-1 0 12 10" refX="2.1" refY="5" markerUnits="userSpaceOnUse" markerWidth="12" markerHeight="12" orient="auto"><path d="M 11 0 L 0 5 L 11 10 z" fill="#2F3B4D" stroke="#2F3B4D" stroke-width="1" stroke-dasharray="1,0"/></marker></defs><line x1="94.15" y1="57.60" x2="94.15" y2="415.20" stroke="#999999" stroke-width="0.5"/><line x1="284.82" y1="57.60" x2="284.82" y2="415.20" stroke="#999999" stroke-width="0.5"/><line x1="475.49" y1="57.60" x2="475.49" y2="415.20" stroke="#999999" stroke-width="0.5"/><line x1="666.16" y1="57.60" x2="666.16" y2="415.20" stroke="#999999" stroke-width="0.5"/><line x1="856.83" y1="57.60" x2="856.83" y2="415.20" stroke="#999999" stroke-width="0.5"/><line x1="1047.50" y1="57.60" x2="1047.50" y2="415.20" stroke="#999999" stroke-width="0.5"/><rect x="660.16" y="227.20" width="12.00" height="33.60" fill="#F4F4F4" stroke="#666666" stroke-width="1"/><rect x="469.49" y="193.60" width="12.00" height="201.60" fill="#F4F4F4" stroke="#666666" stroke-width="1"/><path d="M 94.151,92.800 L 284.820,92.800" fill="none" stroke="#2F3B4D" stroke-width="1.5" marker-end="url(#arrow-seq-0)"   stroke-linecap="round" stroke-linejoin="round" /><text x="189.49" y="75.20" text-anchor="middle" font-family="'trebuchet ms', verdana, arial, sans-serif" font-size="16" fill="#333333"><tspan x="189.49" dy="0.00">Authenticate</tspan></text><path d="M 284.820,126.400 L 94.151,126.400" fill="none" stroke="#2F3B4D" stroke-width="1.5" marker-end="url(#arrow-seq-0)"  stroke-dasharray="3 3" stroke-linecap="round" stroke-linejoin="round" /><text x="189.49" y="108.80" text-anchor="middle" font-family="'trebuchet ms', verdana, arial, sans-serif" font-size="16" fill="#333333"><tspan x="189.49" dy="0.00">Token Valid</tspan></text><path d="M 94.151,160.000 L 475.490,160.000" fill="none" stroke="#2F3B4D" stroke-width="1.5" marker-end="url(#arrow-seq-0)"   stroke-linecap="round" stroke-linejoin="round" /><text x="284.82" y="142.40" text-anchor="middle" font-family="'trebuchet ms', verdana, arial, sans-serif" font-size="16" fill="#333333"><tspan x="284.82" dy="0.00">Create Order</tspan></text><path d="M 475.490,193.600 L 666.159,193.600" fill="none" stroke="#2F3B4D" stroke-width="1.5" marker-end="url(#arrow-seq-0)"   stroke-linecap="round" stroke-linejoin="round" /><text x="570.82" y="176.00" text-anchor="middle" font-family="'trebuchet ms', verdana, arial, sans-serif" font-size="16" fill="#333333"><tspan x="570.82" dy="0.00">Process Payment</tspan></text><path d="M 666.159,227.200 L 475.490,227.200" fill="none" stroke="#2F3B4D" stroke-width="1.5" marker-end="url(#arrow-seq-0)"  stroke-dasharray="3 3" stroke-linecap="round" stroke-linejoin="round" /><text x="570.82" y="209.60" text-anchor="middle" font-family="'trebuchet ms', verdana, arial, sans-serif" font-size="16" fill="#333333"><tspan x="570.82" dy="0.00">Payment OK</tspan></text><path d="M 475.490,260.800 L 1047.499,260.800" fill="none" stroke="#2F3B4D" stroke-width="1.5" marker-end="url(#arrow-seq-0)"   stroke-linecap="round" stroke-linejoin="round" /><text x="761.49" y="243.20" text-anchor="middle" font-family="'trebuchet ms', verdana, arial, sans-serif" font-size="16" fill="#333333"><tspan x="761.49" dy="0.00">Publish OrderCreated</tspan></text><path d="M 1047.499,294.400 L 856.829,294.400" fill="none" stroke="#2F3B4D" stroke-width="1.5" marker-end="url(#arrow-seq-0)"  stroke-dasharray="3 3" stroke-linecap="round" stroke-linejoin="round" /><text x="952.16" y="276.80" text-anchor="middle" font-family="'trebuchet ms', verdana, arial, sans-serif" font-size="16" fill="#333333"><tspan x="952.16" dy="0.00">OrderCreated Event</tspan></text><path d="M 856.829,328.000L 859.829,328.000C862.829,328.000,868.829,328.000,873.829,328.000C878.829,328.000,882.829,328.000,884.829,330.000C886.829,332.000,886.829,336.000,886.829,339.000C886.829,342.000,886.829,344.000,886.829,347.000C886.829,350.000,886.829,354.000,884.829,356.000C882.829,358.000,878.829,358.000,873.829,358.000C868.829,358.000,862.829,358.000,859.829,358.000L 856.829,358.000" fill="none" stroke="#2F3B4D" stroke-width="1.5" marker-end="url(#arrow-seq-0)"   stroke-linecap="round" stroke-linejoin="round" /><text x="856.83" y="310.40" text-anchor="middle" font-family="'trebuchet ms', verdana, arial, sans-serif" font-size="16" fill="#333333"><tspan x="856.83" dy="0.00">Send Email</tspan></text><path d="M 475.490,361.600 L 94.151,361.600" fill="none" stroke="#2F3B4D" stroke-width="1.5" marker-end="url(#arrow-seq-0)"  stroke-dasharray="3 3" stroke-linecap="round" stroke-linejoin="round" /><text x="284.82" y="344.00" text-anchor="middle" font-family="'trebuchet ms', verdana, arial, sans-serif" font-size="16" fill="#333333"><tspan x="284.82" dy="0.00">Order Confirmed</tspan></text><path d="M 94.151,395.200L 97.151,395.200C100.151,395.200,106.151,395.200,111.151,395.200C116.151,395.200,120.151,395.200,122.151,397.200C124.151,399.200,124.151,403.200,124.151,406.200C124.151,409.200,124.151,411.200,124.151,414.200C124.151,417.200,124.151,421.200,122.151,423.200C120.151,425.200,116.151,425.200,111.151,425.200C106.151,425.200,100.151,425.200,97.151,425.200L 94.151,425.200" fill="none" stroke="#2F3B4D" stroke-width="1.5" marker-end="url(#arrow-seq-0)"  stroke-dasharray="3 3" stroke-linecap="round" stroke-linejoin="round" /><text x="94.15" y="377.60" text-anchor="middle" font-family="'trebuchet ms', verdana, arial, sans-serif" font-size="16" fill="#333333"><tspan x="94.15" dy="0.00">Return Response</tspan></text><rect x="8.00" y="8.00" width="172.30" height="49.60" rx="3" ry="3" fill="#EAEAEA" stroke="#666666" stroke-width="1.0"/><text x="94.15" y="36.80" text-anchor="middle" font-family="'trebuchet ms', verdana, arial, sans-serif" font-size="16" fill="#333333"><tspan x="94.15" dy="0.00">API Gateway</tspan></text><rect x="770.68" y="8.00" width="172.30" height="49.60" rx="3" ry="3" fill="#EAEAEA" stroke="#666666" stroke-width="1.0"/><text x="856.83" y="36.80" text-anchor="middle" font-family="'trebuchet ms', verdana, arial, sans-serif" font-size="16" fill="#333333"><tspan x="856.83" dy="0.00">Notification Service</tspan></text><rect x="389.34" y="8.00" width="172.30" height="49.60" rx="3" ry="3" fill="#EAEAEA" stroke="#666666" stroke-width="1.0"/><text x="475.49" y="36.80" text-anchor="middle" font-family="'trebuchet ms', verdana, arial, sans-serif" font-size="16" fill="#333333"><tspan x="475.49" dy="0.00">Order Service</tspan></text><rect x="580.01" y="8.00" width="172.30" height="49.60" rx="3" ry="3" fill="#EAEAEA" stroke="#666666" stroke-width="1.0"/><text x="666.16" y="36.80" text-anchor="middle" font-family="'trebuchet ms', verdana, arial, sans-serif" font-size="16" fill="#333333"><tspan x="666.16" dy="0.00">Payment Service</tspan></text><rect x="961.35" y="8.00" width="172.30" height="49.60" rx="3" ry="3" fill="#EAEAEA" stroke="#666666" stroke-width="1.0"/><text x="1047.50" y="36.80" text-anchor="middle" font-family="'trebuchet ms', verdana, arial, sans-serif" font-size="16" fill="#333333"><tspan x="1047.50" dy="0.00">Message Queue</tspan></text><rect x="198.67" y="8.00" width="172.30" height="49.60" rx="3" ry="3" fill="#EAEAEA" stroke="#666666" stroke-width="1.0"/><text x="284.82" y="36.80" text-anchor="middle" font-family="'trebuchet ms', verdana, arial, sans-serif" font-size="16" fill="#333333"><tspan x="284.82" dy="0.00">User Service</tspan></text><rect x="8.00" y="415.20" width="172.30" height="49.60" rx="3" ry="3" fill="#EAEAEA" stroke="#666666" stroke-width="1.0"/><text x="94.15" y="444.00" text-anchor="middle" font-family="'trebuchet ms', verdana, arial, sans-serif" font-size="16" fill="#333333"><tspan x="94.15" dy="0.00">API Gateway</tspan></text><rect x="198.67" y="415.20" width="172.30" height="49.60" rx="3" ry="3" fill="#EAEAEA" stroke="#666666" stroke-width="1.0"/><text x="284.82" y="444.00" text-anchor="middle" font-family="'trebuchet ms', verdana, arial, sans-serif" font-size="16" fill="#333333"><tspan x="284.82" dy="0.00">User Service</tspan></text><rect x="389.34" y="415.20" width="172.30" height="49.60" rx="3" ry="3" fill="#EAEAEA" stroke="#666666" stroke-width="1.0"/><text x="475.49" y="444.00" text-anchor="middle" font-family="'trebuchet ms', verdana, arial, sans-serif" font-size="16" fill="#333333"><tspan x="475.49" dy="0.00">Order Service</tspan></text><rect x="580.01" y="415.20" width="172.30" height="49.60" rx="3" ry="3" fill="#EAEAEA" stroke="#666666" stroke-width="1.0"/><text x="666.16" y="444.00" text-anchor="middle" font-family="'trebuchet ms', verdana, arial, sans-serif" font-size="16" fill="#333333"><tspan x="666.16" dy="0.00">Payment Service</tspan></text><rect x="770.68" y="415.20" width="172.30" height="49.60" rx="3" ry="3" fill="#EAEAEA" stroke="#666666" stroke-width="1.0"/><text x="856.83" y="444.00" text-anchor="middle" font-family="'trebuchet ms', verdana, arial, sans-serif" font-size="16" fill="#333333"><tspan x="856.83" dy="0.00">Notification Service</tspan></text><rect x="961.35" y="415.20" width="172.30" height="49.60" rx="3" ry="3" fill="#EAEAEA" stroke="#666666" stroke-width="1.0"/><text x="1047.50" y="444.00" text-anchor="middle" font-family="'trebuchet ms', verdana, arial, sans-serif" font-size="16" fill="#333333"><tspan x="1047.50" dy="0.00">Message Queue</tspan></text></svg>