<svg xmlns="http://www.w3.org/2000/svg" width="192" height="204" viewBox="0 0 192 204"><rect x="0" y="0" width="192" height="204" fill="#FFFFFF"/><defs><marker id="arrow-0" viewBox="0 0 10 10" refX="5" refY="5" markerUnits="userSpaceOnUse" markerWidth="8" markerHeight="8" orient="auto"><path d="M 0 0 L 10 5 L 0 10 z" fill="#2F3B4D" stroke="#2F3B4D" stroke-width="1" stroke-dasharray="1,0"/></marker><marker id="arrow-start-0" viewBox="0 0 10 10" refX="4.5" refY="5" markerUnits="userSpaceOnUse" markerWidth="8" markerHeight="8" orient="auto"><path d="M 0 5 L 10 10 L 10 0 z" fill="#2F3B4D" stroke="#2F3B4D" stroke-width="1" stroke-dasharray="1,0"/></marker><marker id="arrow-seq-0" viewBox="-1 0 12 10" refX="7.9" refY="5" markerUnits="userSpaceOnUse" markerWidth="12" markerHeight="12" orient="auto-start-reverse"><path d="M -1 0 L 10 5 L 0 10 z" fill="#2F3B4D" stroke="#2F3B4D" stroke-width="1" stroke-dasharray="1,0"/></marker><marker id="arrow-start-seq-0" viewBox="-1 0 12 10" refX="2.1" refY="5" markerUnits="userSpaceOnUse" markerWidth="12" markerHeight="12" orient="auto"><path d="M 11 0 L 0 5 L 11 10 z" fill="#2F3B4D" stroke="#2F3B4D" stroke-width="1" stroke-dasharray="1,0"/></marker></defs><line x1="48.00" y1="57.60" x2="48.00" y2="146.40" stroke="#999999" stroke-width="0.5"/><line x1="144.00" y1="57.60" x2="144.00" y2="146.40" stroke="#999999" stroke-width="0.5"/><path class="edgePath" d="M 48.000,92.800 L 144.000,92.800" fill="none" stroke="#2F3B4D" stroke-width="1.5" marker-end="url(#arrow-seq-0)"   stroke-linecap="round" stroke-linejoin="round" /><text x="96.00" y="129.60" text-anchor="middle" font-family="'trebuchet ms', verdana, arial, sans-serif" font-size="16" fill="#333333"><tspan x="96.00" dy="0.00">Hello Bob</tspan></text><path class="edgePath" d="M 144.000,126.400 L 48.000,126.400" fill="none" stroke="#2F3B4D" stroke-width="1.5" marker-end="url(#arrow-seq-0)"  stroke-dasharray="3 3" stroke-linecap="round" stroke-linejoin="round" /><text x="96.00" y="97.60" text-anchor="middle" font-family="'trebuchet ms', verdana, arial, sans-serif" font-size="16" fill="#333333"><tspan x="96.00" dy="0.00">Hi Alice</tspan></text><rect x="8.00" y="8.00" width="80.00" height="49.60" rx="3" ry="3" fill="#EAEAEA" stroke="#666666" stroke-width="1.0"/><text x="48.00" y="36.80" text-anchor="middle" font-family="'trebuchet ms', verdana, arial, sans-serif" font-size="16" fill="#333333"><tspan x="48.00" dy="0.00">Alice</tspan></text><rect x="104.00" y="8.00" width="80.00" height="49.60" rx="3" ry="3" fill="#EAEAEA" stroke="#666666" stroke-width="1.0"/><text x="144.00" y="36.80" text-anchor="middle" font-family="'trebuchet ms', verdana, arial, sans-serif" font-size="16" fill="#333333"><tspan x="144.00" dy="0.00">Bob</tspan></text><rect x="8.00" y="146.40" width="80.00" height="49.60" rx="3" ry="3" fill="#EAEAEA" stroke="#666666" stroke-width="1.0"/><text x="48.00" y="175.20" text-anchor="middle" font-family="'trebuchet ms', verdana, arial, sans-serif" font-size="16" fill="#333333"><tspan x="48.00" dy="0.00">Alice</tspan></text><rect x="104.00" y="146.40" width="80.00" height="49.60" rx="3" ry="3" fill="#EAEAEA" stroke="#666666" stroke-width="1.0"/><text x="144.00" y="175.20" text-anchor="middle" font-family="'trebuchet ms', verdana, arial, sans-serif" font-size="16" fill="#333333"><tspan x="144.00" dy="0.00">Bob</tspan></text></svg>