<svg xmlns="http://www.w3.org/2000/svg" width="611.875" height="597.0499" viewBox="0 0 611.875 597.0499"><rect width="100%" height="100%" fill="#FFFFFF"/><defs><marker id="arrow-0" viewBox="0 0 10 10" refX="10" refY="5" markerWidth="8" markerHeight="8" orient="auto-start-reverse"><path d="M 0 0 L 10 5 L 0 10 z" fill="#7A8AA6"/></marker><marker id="arrow-start-0" viewBox="0 0 10 10" refX="0" refY="5" markerWidth="8" markerHeight="8" orient="auto"><path d="M 10 0 L 0 5 L 10 10 z" fill="#7A8AA6"/></marker><marker id="arrow-seq-0" viewBox="-1 0 12 10" refX="7.9" refY="5" markerUnits="userSpaceOnUse" markerWidth="12" markerHeight="12" orient="auto-start-reverse"><path d="M -1 0 L 10 5 L 0 10 z" fill="#7A8AA6" stroke="#7A8AA6"/></marker><marker id="arrow-start-seq-0" viewBox="-1 0 12 10" refX="2.1" refY="5" markerUnits="userSpaceOnUse" markerWidth="12" markerHeight="12" orient="auto"><path d="M 11 0 L 0 5 L 11 10 z" fill="#7A8AA6" stroke="#7A8AA6"/></marker></defs><rect x="65.90" y="183.30" width="208.82" height="145.60" fill="none" stroke="#C7D2E5" stroke-width="2.0" stroke-dasharray="2 2"/><line x1="65.90" y1="260.00" x2="274.73" y2="260.00" stroke="#C7D2E5" stroke-width="2.0" stroke-dasharray="3 3"/><polygon points="65.90,183.30 115.30,183.30 115.30,193.86 105.42,199.55 65.90,199.55" fill="#F8FAFF" stroke="#C7D2E5" stroke-width="1.1"/><text x="90.60" y="195.97" text-anchor="middle" font-family="Inter, Segoe UI, system-ui, -apple-system, sans-serif" font-size="13" fill="#1C2430"><tspan x="90.60" dy="0.00">alt</tspan></text><text x="170.31" y="196.95" text-anchor="middle" font-family="Inter, Segoe UI, system-ui, -apple-system, sans-serif" font-size="13" fill="#1C2430"><tspan x="170.31" dy="0.00">[Valid credentials]</tspan></text><text x="170.31" y="273.65" text-anchor="middle" font-family="Inter, Segoe UI, system-ui, -apple-system, sans-serif" font-size="13" fill="#1C2430"><tspan x="170.31" dy="0.00">[Invalid credentials]</tspan></text><line x1="75.00" y1="65.00" x2="75.00" y2="492.05" stroke="#C7D2E5" stroke-width="0.5"/><line x1="265.62" y1="65.00" x2="265.62" y2="492.05" stroke="#C7D2E5" stroke-width="0.5"/><line x1="456.25" y1="65.00" x2="456.25" y2="492.05" stroke="#C7D2E5" stroke-width="0.5"/><path d="M 75.00 102.70 L 265.62 102.70" fill="none" stroke="#7A8AA6" stroke-width="2" marker-end="url(#arrow-seq-0)"   /><text x="170.31" y="90.35" text-anchor="middle" font-family="Inter, Segoe UI, system-ui, -apple-system, sans-serif" font-size="13" fill="#1C2430">POST /login</text><path d="M 265.62 139.10 L 456.25 139.10" fill="none" stroke="#7A8AA6" stroke-width="2" marker-end="url(#arrow-seq-0)"   /><text x="360.94" y="126.75" text-anchor="middle" font-family="Inter, Segoe UI, system-ui, -apple-system, sans-serif" font-size="13" fill="#1C2430">Query user</text><path d="M 456.25 175.50 L 265.62 175.50" fill="none" stroke="#7A8AA6" stroke-width="2" marker-end="url(#arrow-seq-0)"  stroke-dasharray="3 3" /><text x="360.94" y="163.15" text-anchor="middle" font-family="Inter, Segoe UI, system-ui, -apple-system, sans-serif" font-size="13" fill="#1C2430">User data</text><path d="M 265.62 248.30 L 75.00 248.30" fill="none" stroke="#7A8AA6" stroke-width="2" marker-end="url(#arrow-seq-0)"  stroke-dasharray="3 3" /><text x="170.31" y="235.95" text-anchor="middle" font-family="Inter, Segoe UI, system-ui, -apple-system, sans-serif" font-size="13" fill="#1C2430">200 OK + token</text><path d="M 265.62 321.10 L 75.00 321.10" fill="none" stroke="#7A8AA6" stroke-width="2" marker-end="url(#arrow-seq-0)"  stroke-dasharray="3 3" /><text x="170.31" y="308.75" text-anchor="middle" font-family="Inter, Segoe UI, system-ui, -apple-system, sans-serif" font-size="13" fill="#1C2430">401 Unauthorized</text><path d="M 75.00 366.60 L 265.62 366.60" fill="none" stroke="#7A8AA6" stroke-width="2" marker-end="url(#arrow-seq-0)"   /><text x="170.31" y="354.25" text-anchor="middle" font-family="Inter, Segoe UI, system-ui, -apple-system, sans-serif" font-size="13" fill="#1C2430">GET /profile</text><path d="M 265.62 403.00 L 456.25 403.00" fill="none" stroke="#7A8AA6" stroke-width="2" marker-end="url(#arrow-seq-0)"   /><text x="360.94" y="390.65" text-anchor="middle" font-family="Inter, Segoe UI, system-ui, -apple-system, sans-serif" font-size="13" fill="#1C2430">Fetch profile</text><path d="M 456.25 439.40 L 265.62 439.40" fill="none" stroke="#7A8AA6" stroke-width="2" marker-end="url(#arrow-seq-0)"  stroke-dasharray="3 3" /><text x="360.94" y="427.05" text-anchor="middle" font-family="Inter, Segoe UI, system-ui, -apple-system, sans-serif" font-size="13" fill="#1C2430">Profile data</text><path d="M 265.62 475.80 L 75.00 475.80" fill="none" stroke="#7A8AA6" stroke-width="2" marker-end="url(#arrow-seq-0)"  stroke-dasharray="3 3" /><text x="170.31" y="463.45" text-anchor="middle" font-family="Inter, Segoe UI, system-ui, -apple-system, sans-serif" font-size="13" fill="#1C2430">200 OK + profile</text><rect x="0.00" y="0.00" width="150.00" height="65.00" rx="3" ry="3" fill="#F8FAFF" stroke="#C7D2E5" stroke-width="1.0"/><text x="75.00" y="37.05" text-anchor="middle" font-family="Inter, Segoe UI, system-ui, -apple-system, sans-serif" font-size="13" fill="#1C2430"><tspan x="75.00" dy="0.00">Client</tspan></text><rect x="381.25" y="0.00" width="150.00" height="65.00" rx="3" ry="3" fill="#F8FAFF" stroke="#C7D2E5" stroke-width="1.0"/><text x="456.25" y="37.05" text-anchor="middle" font-family="Inter, Segoe UI, system-ui, -apple-system, sans-serif" font-size="13" fill="#1C2430"><tspan x="456.25" dy="0.00">Database</tspan></text><rect x="190.62" y="0.00" width="150.00" height="65.00" rx="3" ry="3" fill="#F8FAFF" stroke="#C7D2E5" stroke-width="1.0"/><text x="265.62" y="37.05" text-anchor="middle" font-family="Inter, Segoe UI, system-ui, -apple-system, sans-serif" font-size="13" fill="#1C2430"><tspan x="265.62" dy="0.00">Server</tspan></text><rect x="0.00" y="492.05" width="150.00" height="65.00" rx="3" ry="3" fill="#F8FAFF" stroke="#C7D2E5" stroke-width="1.0"/><text x="75.00" y="529.10" text-anchor="middle" font-family="Inter, Segoe UI, system-ui, -apple-system, sans-serif" font-size="13" fill="#1C2430"><tspan x="75.00" dy="0.00">Client</tspan></text><rect x="190.62" y="492.05" width="150.00" height="65.00" rx="3" ry="3" fill="#F8FAFF" stroke="#C7D2E5" stroke-width="1.0"/><text x="265.62" y="529.10" text-anchor="middle" font-family="Inter, Segoe UI, system-ui, -apple-system, sans-serif" font-size="13" fill="#1C2430"><tspan x="265.62" dy="0.00">Server</tspan></text><rect x="381.25" y="492.05" width="150.00" height="65.00" rx="3" ry="3" fill="#F8FAFF" stroke="#C7D2E5" stroke-width="1.0"/><text x="456.25" y="529.10" text-anchor="middle" font-family="Inter, Segoe UI, system-ui, -apple-system, sans-serif" font-size="13" fill="#1C2430"><tspan x="456.25" dy="0.00">Database</tspan></text></svg>