<svg xmlns="http://www.w3.org/2000/svg" width="582" height="436.80002" viewBox="0 0 582 436.80002"><rect x="0" y="0" width="582" height="436.80002" fill="#FFFFFF"/><defs><marker id="arrow-0" viewBox="0 0 10 10" refX="5" refY="5" markerUnits="userSpaceOnUse" markerWidth="8" markerHeight="8" orient="auto"><path d="M 0 0 L 10 5 L 0 10 z" fill="#333333" stroke="#333333" stroke-width="1" stroke-dasharray="1,0"/></marker><marker id="arrow-start-0" viewBox="0 0 10 10" refX="4.5" refY="5" markerUnits="userSpaceOnUse" markerWidth="8" markerHeight="8" orient="auto"><path d="M 0 5 L 10 10 L 10 0 z" fill="#333333" stroke="#333333" stroke-width="1" stroke-dasharray="1,0"/></marker><marker id="arrow-seq-0" viewBox="-1 0 12 10" refX="7.9" refY="5" markerUnits="userSpaceOnUse" markerWidth="12" markerHeight="12" orient="auto-start-reverse"><path d="M -1 0 L 10 5 L 0 10 z" fill="#333333" stroke="#333333" stroke-width="1" stroke-dasharray="1,0"/></marker><marker id="arrow-start-seq-0" viewBox="-1 0 12 10" refX="2.1" refY="5" markerUnits="userSpaceOnUse" markerWidth="12" markerHeight="12" orient="auto"><path d="M 11 0 L 0 5 L 11 10 z" fill="#333333" stroke="#333333" stroke-width="1" stroke-dasharray="1,0"/></marker></defs><rect x="61.80" y="176.00" width="200.40" height="134.40" fill="none" stroke="#9370DB" stroke-width="2.0" stroke-dasharray="2 2"/><line x1="61.80" y1="248.00" x2="262.20" y2="248.00" stroke="#9370DB" stroke-width="2.0" stroke-dasharray="3 3"/><polygon points="61.80,176.00 116.77,176.00 116.77,189.00 105.77,196.00 61.80,196.00" fill="#ECECFF" stroke="#9370DB" stroke-width="1.1"/><text x="89.28" y="190.00" text-anchor="middle" font-family="'trebuchet ms', verdana, arial, sans-serif" font-size="16" fill="#333333"><tspan x="89.28" dy="0.00">alt</tspan></text><text x="162.00" y="191.20" text-anchor="middle" font-family="'trebuchet ms', verdana, arial, sans-serif" font-size="16" fill="#333333"><tspan x="162.00" dy="0.00">[success]</tspan></text><text x="162.00" y="263.20" text-anchor="middle" font-family="'trebuchet ms', verdana, arial, sans-serif" font-size="16" fill="#333333"><tspan x="162.00" dy="0.00">[failure]</tspan></text><line x1="73.00" y1="64.00" x2="73.00" y2="320.80" stroke="#999999" stroke-width="0.5"/><line x1="251.00" y1="64.00" x2="251.00" y2="320.80" stroke="#999999" stroke-width="0.5"/><line x1="429.00" y1="64.00" x2="429.00" y2="320.80" stroke="#999999" stroke-width="0.5"/><rect x="423.00" y="166.40" width="12.00" height="67.20" fill="#F4F4F4" stroke="#666666" stroke-width="1"/><rect x="245.00" y="132.80" width="12.00" height="188.16" fill="#F4F4F4" stroke="#666666" stroke-width="1"/><path d="M 73.000,99.200 L 251.000,99.200" fill="none" stroke="#333333" stroke-width="1.5" marker-end="url(#arrow-seq-0)"   stroke-linecap="round" stroke-linejoin="round" /><text x="162.00" y="81.60" text-anchor="middle" font-family="'trebuchet ms', verdana, arial, sans-serif" font-size="16" fill="#333333"><tspan x="162.00" dy="0.00">Request</tspan></text><path d="M 251.000,132.800 L 429.000,132.800" fill="none" stroke="#333333" stroke-width="1.5" marker-end="url(#arrow-seq-0)"   stroke-linecap="round" stroke-linejoin="round" /><text x="340.00" y="115.20" text-anchor="middle" font-family="'trebuchet ms', verdana, arial, sans-serif" font-size="16" fill="#333333"><tspan x="340.00" dy="0.00">Query</tspan></text><path d="M 429.000,166.400 L 251.000,166.400" fill="none" stroke="#333333" stroke-width="1.5" marker-end="url(#arrow-seq-0)"  stroke-dasharray="3 3" stroke-linecap="round" stroke-linejoin="round" /><text x="340.00" y="148.80" text-anchor="middle" font-family="'trebuchet ms', verdana, arial, sans-serif" font-size="16" fill="#333333"><tspan x="340.00" dy="0.00">Rows</tspan></text><path d="M 251.000,233.600 L 73.000,233.600" fill="none" stroke="#333333" stroke-width="1.5" marker-end="url(#arrow-seq-0)"  stroke-dasharray="3 3" stroke-linecap="round" stroke-linejoin="round" /><text x="162.00" y="216.00" text-anchor="middle" font-family="'trebuchet ms', verdana, arial, sans-serif" font-size="16" fill="#333333"><tspan x="162.00" dy="0.00">200 OK</tspan></text><path d="M 251.000,300.800 L 73.000,300.800" fill="none" stroke="#333333" stroke-width="1.5" marker-end="url(#arrow-seq-0)"  stroke-dasharray="3 3" stroke-linecap="round" stroke-linejoin="round" /><text x="162.00" y="283.20" text-anchor="middle" font-family="'trebuchet ms', verdana, arial, sans-serif" font-size="16" fill="#333333"><tspan x="162.00" dy="0.00">500 Error</tspan></text><rect x="186.00" y="8.00" width="130.00" height="56.00" rx="3" ry="3" fill="#EAEAEA" stroke="#666666" stroke-width="1.0"/><text x="251.00" y="40.00" text-anchor="middle" font-family="'trebuchet ms', verdana, arial, sans-serif" font-size="16" fill="#333333"><tspan x="251.00" dy="0.00">API</tspan></text><rect x="8.00" y="8.00" width="130.00" height="56.00" rx="3" ry="3" fill="#EAEAEA" stroke="#666666" stroke-width="1.0"/><text x="73.00" y="40.00" text-anchor="middle" font-family="'trebuchet ms', verdana, arial, sans-serif" font-size="16" fill="#333333"><tspan x="73.00" dy="0.00">Client</tspan></text><rect x="364.00" y="8.00" width="130.00" height="56.00" rx="3" ry="3" fill="#EAEAEA" stroke="#666666" stroke-width="1.0"/><text x="429.00" y="40.00" text-anchor="middle" font-family="'trebuchet ms', verdana, arial, sans-serif" font-size="16" fill="#333333"><tspan x="429.00" dy="0.00">DB</tspan></text><rect x="8.00" y="320.80" width="130.00" height="56.00" rx="3" ry="3" fill="#EAEAEA" stroke="#666666" stroke-width="1.0"/><text x="73.00" y="352.80" text-anchor="middle" font-family="'trebuchet ms', verdana, arial, sans-serif" font-size="16" fill="#333333"><tspan x="73.00" dy="0.00">Client</tspan></text><rect x="186.00" y="320.80" width="130.00" height="56.00" rx="3" ry="3" fill="#EAEAEA" stroke="#666666" stroke-width="1.0"/><text x="251.00" y="352.80" text-anchor="middle" font-family="'trebuchet ms', verdana, arial, sans-serif" font-size="16" fill="#333333"><tspan x="251.00" dy="0.00">API</tspan></text><rect x="364.00" y="320.80" width="130.00" height="56.00" rx="3" ry="3" fill="#EAEAEA" stroke="#666666" stroke-width="1.0"/><text x="429.00" y="352.80" text-anchor="middle" font-family="'trebuchet ms', verdana, arial, sans-serif" font-size="16" fill="#333333"><tspan x="429.00" dy="0.00">DB</tspan></text></svg>