<svg xmlns="http://www.w3.org/2000/svg" width="242.32767" height="579.0299" viewBox="0 0 242.32767 579.0299"><rect x="0" y="0" width="242.32767" height="579.0299" fill="#FFFFFF"/><defs><marker id="arrow-0" viewBox="0 0 10 10" refX="5" refY="5" markerUnits="userSpaceOnUse" markerWidth="8" markerHeight="8" orient="auto"><path d="M 0 0 L 10 5 L 0 10 z" fill="#2F3B4D" stroke="#2F3B4D" stroke-width="1" stroke-dasharray="1,0"/></marker><marker id="arrow-start-0" viewBox="0 0 10 10" refX="4.5" refY="5" markerUnits="userSpaceOnUse" markerWidth="8" markerHeight="8" orient="auto"><path d="M 0 5 L 10 10 L 10 0 z" fill="#2F3B4D" stroke="#2F3B4D" stroke-width="1" stroke-dasharray="1,0"/></marker><marker id="arrow-state-0" viewBox="0 0 20 14" refX="19" refY="7" markerUnits="userSpaceOnUse" markerWidth="20" markerHeight="14" orient="auto"><path d="M 19 7 L 9 13 L 14 7 L 9 1 Z" fill="#2F3B4D" stroke="#2F3B4D" stroke-width="1" stroke-dasharray="1,0"/></marker></defs><path d="M 129.379,23.200L 129.379,23.700C129.379,24.200,129.379,25.200,129.379,26.200C129.379,27.200,129.379,28.200,129.380,29.200C129.382,30.200,129.384,31.200,129.390,33.406C129.396,35.613,129.406,39.026,129.411,41.232C129.417,43.438,129.420,44.438,129.422,45.438C129.423,46.438,129.423,47.438,129.423,48.438C129.423,49.438,129.423,50.438,129.423,50.938L 129.423,51.438" fill="none" stroke="#2F3B4D" stroke-width="1" marker-end="url(#arrow-state-0)"   stroke-linecap="round" stroke-linejoin="round" /><path d="M 129.423,98.478L 129.423,99.302C129.423,100.126,129.423,101.773,129.423,103.420C129.423,105.067,129.423,106.714,129.339,108.357C129.256,110.000,129.088,111.639,128.484,117.565C127.879,123.491,126.837,133.704,126.232,139.630C125.627,145.556,125.460,147.194,125.376,148.837C125.293,150.480,125.293,152.128,125.293,153.775C125.293,155.422,125.293,157.069,125.293,157.893L 125.293,158.717" fill="none" stroke="#2F3B4D" stroke-width="1" marker-end="url(#arrow-state-0)"   stroke-linecap="round" stroke-linejoin="round" /><rect x="104.22" y="122.87" width="45.04" height="23.60" rx="2" ry="2" fill="rgba(248,250,252, 0.92)" fill-opacity="0.70" stroke="#7B88A8" stroke-opacity="0.25" stroke-width="0.8"/><text x="126.74" y="138.07" text-anchor="middle" font-family="'trebuchet ms', verdana, arial, sans-serif" font-size="13.6" fill="#333333"><tspan x="126.74" dy="0.00">submit</tspan></text><path d="M 109.293,205.757L 109.293,206.580C109.293,207.404,109.293,209.051,109.293,210.698C109.293,212.346,109.293,213.993,108.747,215.434C108.202,216.874,107.111,218.109,101.695,224.237C96.278,230.365,86.537,241.387,81.120,247.515C75.704,253.643,74.613,254.877,74.068,256.318C73.522,257.759,73.522,259.406,73.522,261.053C73.522,262.700,73.522,264.348,73.522,265.171L 73.522,265.995" fill="none" stroke="#2F3B4D" stroke-width="1" marker-end="url(#arrow-state-0)"   stroke-linecap="round" stroke-linejoin="round" /><rect x="65.63" y="224.08" width="51.55" height="23.60" rx="2" ry="2" fill="rgba(248,250,252, 0.92)" fill-opacity="0.70" stroke="#7B88A8" stroke-opacity="0.25" stroke-width="0.8"/><text x="91.41" y="239.28" text-anchor="middle" font-family="'trebuchet ms', verdana, arial, sans-serif" font-size="13.6" fill="#333333"><tspan x="91.41" dy="0.00">approve</tspan></text><path d="M 141.293,205.757L 141.293,206.580C141.293,207.404,141.293,209.051,141.293,210.698C141.293,212.346,141.293,213.993,141.756,215.498C142.219,217.002,143.145,218.365,147.267,224.429C151.390,230.493,158.708,241.259,162.831,247.323C166.953,253.387,167.879,254.749,168.342,256.254C168.805,257.759,168.805,259.406,168.805,261.053C168.805,262.700,168.805,264.348,168.805,265.171L 168.805,265.995" fill="none" stroke="#2F3B4D" stroke-width="1" marker-end="url(#arrow-state-0)"   stroke-linecap="round" stroke-linejoin="round" /><rect x="136.28" y="329.07" width="45.04" height="23.60" rx="2" ry="2" fill="rgba(248,250,252, 0.92)" fill-opacity="0.70" stroke="#7B88A8" stroke-opacity="0.25" stroke-width="0.8"/><text x="158.80" y="344.27" text-anchor="middle" font-family="'trebuchet ms', verdana, arial, sans-serif" font-size="13.6" fill="#333333"><tspan x="158.80" dy="0.00">reject</tspan></text><path d="M 57.522,313.035L 57.522,313.859C57.522,314.682,57.522,316.329,57.522,317.977C57.522,319.624,57.522,321.271,57.939,322.805C58.355,324.339,59.188,325.761,62.725,331.795C66.262,337.830,72.502,348.478,76.039,354.513C79.576,360.548,80.409,361.969,80.825,363.503C81.242,365.037,81.242,366.684,81.242,368.332C81.242,369.979,81.242,371.626,81.242,372.450L 81.242,373.273" fill="none" stroke="#2F3B4D" stroke-width="1" marker-end="url(#arrow-state-0)"   stroke-linecap="round" stroke-linejoin="round" /><rect x="43.61" y="331.35" width="51.55" height="23.60" rx="2" ry="2" fill="rgba(248,250,252, 0.92)" fill-opacity="0.70" stroke="#7B88A8" stroke-opacity="0.25" stroke-width="0.8"/><text x="69.38" y="346.55" text-anchor="middle" font-family="'trebuchet ms', verdana, arial, sans-serif" font-size="13.6" fill="#333333"><tspan x="69.38" dy="0.00">publish</tspan></text><path d="M 184.805,265.995L 184.805,264.577C184.805,263.158,184.805,260.322,184.805,258.675C184.805,257.028,184.805,256.570,184.576,256.341C184.347,256.112,183.889,256.112,183.660,256.112C183.431,256.112,183.431,256.112,183.202,256.112C182.973,256.112,182.515,256.112,182.286,255.883C182.057,255.653,182.057,255.195,182.057,232.570C182.057,209.945,182.057,165.154,182.057,140.758C182.057,116.362,182.057,112.362,180.057,110.362C178.057,108.362,174.057,108.362,168.775,108.362C163.493,108.362,156.929,108.362,152.823,108.362C148.717,108.362,147.070,108.362,146.247,107.538C145.423,106.714,145.423,105.067,145.423,103.420C145.423,101.773,145.423,100.126,145.423,99.302L 145.423,98.478" fill="none" stroke="#2F3B4D" stroke-width="1" marker-end="url(#arrow-state-0)"   stroke-linecap="round" stroke-linejoin="round" /><rect x="167.93" y="118.62" width="45.04" height="23.60" rx="2" ry="2" fill="rgba(248,250,252, 0.92)" fill-opacity="0.70" stroke="#7B88A8" stroke-opacity="0.25" stroke-width="0.8"/><text x="190.45" y="133.82" text-anchor="middle" font-family="'trebuchet ms', verdana, arial, sans-serif" font-size="13.6" fill="#333333"><tspan x="190.45" dy="0.00">revise</tspan></text><path d="M 97.242,420.313L 97.242,421.137C97.242,421.960,97.242,423.608,97.242,425.255C97.242,426.902,97.242,428.549,96.939,430.139C96.637,431.729,96.032,433.261,93.672,439.240C91.312,445.219,87.197,455.645,84.837,461.625C82.477,467.604,81.872,469.136,81.569,470.726C81.267,472.315,81.267,473.963,81.267,475.610C81.267,477.257,81.267,478.904,81.267,479.728L 81.267,480.552" fill="none" stroke="#2F3B4D" stroke-width="1" marker-end="url(#arrow-state-0)"   stroke-linecap="round" stroke-linejoin="round" /><rect x="179.37" y="491.39" width="51.55" height="23.60" rx="2" ry="2" fill="rgba(248,250,252, 0.92)" fill-opacity="0.70" stroke="#7B88A8" stroke-opacity="0.25" stroke-width="0.8"/><text x="205.15" y="506.59" text-anchor="middle" font-family="'trebuchet ms', verdana, arial, sans-serif" font-size="13.6" fill="#333333"><tspan x="205.15" dy="0.00">archive</tspan></text><path d="M 65.242,420.313L 65.242,420.813C65.242,421.313,65.242,422.313,65.242,423.313C65.242,424.313,65.242,425.313,65.742,425.813C66.242,426.313,67.242,426.313,77.873,426.313C88.505,426.313,108.768,426.313,120.900,426.313C133.031,426.313,137.031,426.313,139.031,428.313C141.031,430.313,141.031,434.313,141.031,452.899C141.031,471.485,141.031,504.658,141.031,523.244C141.031,541.830,141.031,545.830,139.031,547.830C137.031,549.830,133.031,549.830,123.572,549.830C114.113,549.830,99.195,549.830,91.236,549.830C83.277,549.830,82.277,549.830,81.777,550.330C81.277,550.830,81.277,551.830,81.277,552.830C81.277,553.830,81.277,554.830,81.277,555.330L 81.277,555.830" fill="none" stroke="#2F3B4D" stroke-width="1" marker-end="url(#arrow-state-0)"   stroke-linecap="round" stroke-linejoin="round" /><path d="M 81.267,527.592 L 81.277,555.830" fill="none" stroke="#2F3B4D" stroke-width="1" marker-end="url(#arrow-state-0)"   stroke-linecap="round" stroke-linejoin="round" /><rect x="8.00" y="265.99" width="99.04" height="47.04" rx="10" ry="10" fill="#ECECFF" stroke="#7B88A8" stroke-width="1" stroke-linejoin="round" stroke-linecap="round"/><text x="57.52" y="292.91" text-anchor="middle" font-family="'trebuchet ms', verdana, arial, sans-serif" font-size="13.6" fill="#333333"><tspan x="57.52" dy="0.00">Approved</tspan></text><rect x="31.74" y="480.55" width="99.04" height="47.04" rx="10" ry="10" fill="#ECECFF" stroke="#7B88A8" stroke-width="1" stroke-linejoin="round" stroke-linecap="round"/><text x="81.27" y="507.47" text-anchor="middle" font-family="'trebuchet ms', verdana, arial, sans-serif" font-size="13.6" fill="#333333"><tspan x="81.27" dy="0.00">Archived</tspan></text><rect x="92.53" y="51.44" width="73.78" height="47.04" rx="10" ry="10" fill="#ECECFF" stroke="#7B88A8" stroke-width="1" stroke-linejoin="round" stroke-linecap="round"/><text x="129.42" y="78.36" text-anchor="middle" font-family="'trebuchet ms', verdana, arial, sans-serif" font-size="13.6" fill="#333333"><tspan x="129.42" dy="0.00">Draft</tspan></text><rect x="27.51" y="373.27" width="107.47" height="47.04" rx="10" ry="10" fill="#ECECFF" stroke="#7B88A8" stroke-width="1" stroke-linejoin="round" stroke-linecap="round"/><text x="81.24" y="400.19" text-anchor="middle" font-family="'trebuchet ms', verdana, arial, sans-serif" font-size="13.6" fill="#333333"><tspan x="81.24" dy="0.00">Published</tspan></text><rect x="135.28" y="265.99" width="99.04" height="47.04" rx="10" ry="10" fill="#ECECFF" stroke="#7B88A8" stroke-width="1" stroke-linejoin="round" stroke-linecap="round"/><text x="184.81" y="292.91" text-anchor="middle" font-family="'trebuchet ms', verdana, arial, sans-serif" font-size="13.6" fill="#333333"><tspan x="184.81" dy="0.00">Rejected</tspan></text><rect x="84.19" y="158.72" width="82.20" height="47.04" rx="10" ry="10" fill="#ECECFF" stroke="#7B88A8" stroke-width="1" stroke-linejoin="round" stroke-linecap="round"/><text x="125.29" y="185.64" text-anchor="middle" font-family="'trebuchet ms', verdana, arial, sans-serif" font-size="13.6" fill="#333333"><tspan x="125.29" dy="0.00">Review</tspan></text><circle cx="81.28" cy="563.43" r="7.60" fill="#7B88A8" stroke="#7B88A8" stroke-width="1" stroke-linejoin="round" stroke-linecap="round"/><circle cx="81.28" cy="563.43" r="3.60" fill="#FFFFFF" stroke="#FFFFFF" stroke-width="1.2" stroke-linejoin="round" stroke-linecap="round"/><circle cx="129.38" cy="15.60" r="7.60" fill="#2F3B4D" stroke="#2F3B4D" stroke-width="1" stroke-linejoin="round" stroke-linecap="round"/></svg>