<svg xmlns="http://www.w3.org/2000/svg" width="364.57172" height="485.76" viewBox="0 0 364.57172 485.76"><rect x="0" y="0" width="364.57172" height="485.76" fill="#FFFFFF"/><defs><marker id="arrow-0" viewBox="0 0 10 10" refX="5" refY="5" markerUnits="userSpaceOnUse" markerWidth="8" markerHeight="8" orient="auto"><path d="M 0 0 L 10 5 L 0 10 z" fill="#2F3B4D" stroke="#2F3B4D" stroke-width="1" stroke-dasharray="1,0"/></marker><marker id="arrow-start-0" viewBox="0 0 10 10" refX="4.5" refY="5" markerUnits="userSpaceOnUse" markerWidth="8" markerHeight="8" orient="auto"><path d="M 0 5 L 10 10 L 10 0 z" fill="#2F3B4D" stroke="#2F3B4D" stroke-width="1" stroke-dasharray="1,0"/></marker><marker id="arrow-state-0" viewBox="0 0 20 14" refX="19" refY="7" markerUnits="userSpaceOnUse" markerWidth="20" markerHeight="14" orient="auto"><path d="M 19 7 L 9 13 L 14 7 L 9 1 Z" fill="#2F3B4D" stroke="#2F3B4D" stroke-width="1" stroke-dasharray="1,0"/></marker></defs><rect x="30.40" y="47.20" width="319.77" height="36.00" rx="6" ry="6" fill="hsl(240.0000000000, 99.9999237061%, 92.2745056152%)" stroke="none"/><rect x="30.40" y="83.20" width="319.77" height="335.52" fill="hsl(240.0000000000, 87.9999237061%, 100.0000000000%)" stroke="none"/><line x1="30.40" y1="83.20" x2="350.17" y2="83.20" stroke="#7B88A8" stroke-width="1"/><rect x="30.40" y="47.20" width="319.77" height="371.52" rx="6" ry="6" fill="none" stroke="#7B88A8" stroke-width="1"/><text x="40.00" y="68.60" text-anchor="start" font-family="'trebuchet ms', verdana, arial, sans-serif" font-size="13.6" fill="#333333" font-weight="600"><tspan x="40.00" dy="0.00">Active</tspan></text><rect x="186.29" y="122.40" width="147.89" height="36.00" rx="6" ry="6" fill="hsl(240.0000000000, 99.9999237061%, 92.2745056152%)" stroke="none"/><rect x="186.29" y="158.40" width="147.89" height="189.68" fill="hsl(240.0000000000, 87.9999237061%, 100.0000000000%)" stroke="none"/><line x1="186.29" y1="158.40" x2="334.17" y2="158.40" stroke="#7B88A8" stroke-width="1"/><rect x="186.29" y="122.40" width="147.89" height="225.68" rx="6" ry="6" fill="none" stroke="#7B88A8" stroke-width="1"/><text x="195.89" y="143.80" text-anchor="start" font-family="'trebuchet ms', verdana, arial, sans-serif" font-size="13.6" fill="#333333" font-weight="600"><tspan x="195.89" dy="0.00">Running</tspan></text><path d="M 163.465,22.984L 163.465,23.484C163.465,23.984,163.465,24.984,163.465,25.984C163.465,26.984,163.465,27.984,163.920,28.691C164.375,29.398,165.285,29.813,169.300,31.642C173.315,33.470,180.436,36.713,184.451,38.542C188.466,40.371,189.376,40.785,189.831,41.493C190.286,42.200,190.286,43.200,190.286,44.200C190.286,45.200,190.286,46.200,190.286,46.700L 190.286,47.200" fill="none" stroke="#2F3B4D" stroke-width="1" marker-end="url(#arrow-state-0)"   stroke-linecap="round" stroke-linejoin="round" /><path d="M 61.576,91.404L 62.076,91.404C62.576,91.404,63.576,91.404,64.576,91.404C65.576,91.404,66.576,91.404,67.569,91.489C68.561,91.573,69.547,91.743,99.996,96.991C130.446,102.239,190.359,112.565,220.808,117.812C251.258,123.060,252.243,123.230,253.236,123.315C254.229,123.400,255.229,123.400,256.229,123.400C257.229,123.400,258.229,123.400,258.729,123.400L 259.229,123.400" fill="none" stroke="#2F3B4D" stroke-width="1" marker-end="url(#arrow-state-0)"   stroke-linecap="round" stroke-linejoin="round" /><path d="M 259.229,347.080L 258.729,347.080C258.229,347.080,257.229,347.080,256.229,347.080C255.229,347.080,254.229,347.080,253.246,347.211C252.264,347.341,251.298,347.603,232.010,352.825C212.722,358.048,175.111,368.232,155.822,373.455C136.534,378.677,135.569,378.939,134.586,379.069C133.604,379.200,132.604,379.200,131.604,379.200C130.604,379.200,129.604,379.200,129.104,379.200L 128.604,379.200" fill="none" stroke="#2F3B4D" stroke-width="1" marker-end="url(#arrow-state-0)"   stroke-linecap="round" stroke-linejoin="round" /><rect x="236.68" y="365.21" width="38.53" height="23.60" rx="2" ry="2" fill="rgba(248,250,252, 0.92)" fill-opacity="0.70" stroke="#7B88A8" stroke-opacity="0.25" stroke-width="0.8"/><text x="255.95" y="380.41" text-anchor="middle" font-family="'trebuchet ms', verdana, arial, sans-serif" font-size="13.6" fill="#333333"><tspan x="255.95" dy="0.00">pause</tspan></text><path d="M 87.502,355.680L 87.502,355.180C87.502,354.680,87.502,353.680,87.502,352.680C87.502,351.680,87.502,350.680,88.002,350.180C88.502,349.680,89.502,349.680,132.347,349.680C175.192,349.680,259.882,349.680,304.227,349.680C348.572,349.680,352.572,349.680,354.572,347.680C356.572,345.680,356.572,341.680,356.572,307.133C356.572,272.587,356.572,207.493,356.572,172.947C356.572,138.400,356.572,134.400,354.572,132.400C352.572,130.400,348.572,130.400,333.015,130.400C317.457,130.400,290.343,130.400,276.286,130.400C262.229,130.400,261.229,130.400,260.729,129.900C260.229,129.400,260.229,128.400,260.229,127.400C260.229,126.400,260.229,125.400,260.229,124.900L 260.229,124.400" fill="none" stroke="#2F3B4D" stroke-width="1" marker-end="url(#arrow-state-0)"   stroke-linecap="round" stroke-linejoin="round" /><rect x="315.53" y="333.32" width="45.04" height="23.60" rx="2" ry="2" fill="rgba(248,250,252, 0.92)" fill-opacity="0.70" stroke="#7B88A8" stroke-opacity="0.25" stroke-width="0.8"/><text x="338.05" y="348.52" text-anchor="middle" font-family="'trebuchet ms', verdana, arial, sans-serif" font-size="13.6" fill="#333333"><tspan x="338.05" dy="0.00">resume</tspan></text><path d="M 211.686,173.384L 211.686,173.884C211.686,174.384,211.686,175.384,211.686,176.384C211.686,177.384,211.686,178.384,212.154,179.059C212.622,179.735,213.558,180.087,218.514,181.947C223.470,183.807,232.445,187.176,237.401,189.037C242.356,190.897,243.293,191.249,243.761,191.924C244.229,192.600,244.229,193.600,244.229,194.600C244.229,195.600,244.229,196.600,244.229,197.100L 244.229,197.600" fill="none" stroke="#2F3B4D" stroke-width="1" marker-end="url(#arrow-state-0)"   stroke-linecap="round" stroke-linejoin="round" /><path d="M 244.229,244.640L 244.229,245.340C244.229,246.040,244.229,247.440,244.229,248.840C244.229,250.240,244.229,251.640,244.328,253.033C244.427,254.426,244.625,255.812,245.087,259.052C245.550,262.293,246.277,267.387,246.740,270.628C247.202,273.868,247.400,275.254,247.499,276.647C247.598,278.040,247.598,279.440,247.598,280.840C247.598,282.240,247.598,283.640,247.598,284.340L 247.598,285.040" fill="none" stroke="#2F3B4D" stroke-width="1" marker-end="url(#arrow-state-0)"   stroke-linecap="round" stroke-linejoin="round" /><rect x="305.20" y="162.57" width="38.53" height="23.60" rx="2" ry="2" fill="rgba(248,250,252, 0.92)" fill-opacity="0.70" stroke="#7B88A8" stroke-opacity="0.25" stroke-width="0.8"/><text x="324.47" y="177.77" text-anchor="middle" font-family="'trebuchet ms', verdana, arial, sans-serif" font-size="13.6" fill="#333333"><tspan x="324.47" dy="0.00">yield</tspan></text><path d="M 263.598,285.040L 263.598,284.340C263.598,283.640,263.598,282.240,263.598,280.840C263.598,279.440,263.598,278.040,263.928,276.723C264.259,275.406,264.919,274.171,266.694,270.855C268.469,267.539,271.358,262.141,273.133,258.825C274.908,255.509,275.568,254.274,275.898,252.957C276.229,251.640,276.229,250.240,276.229,248.840C276.229,247.440,276.229,246.040,276.229,245.340L 276.229,244.640" fill="none" stroke="#2F3B4D" stroke-width="1" marker-end="url(#arrow-state-0)"   stroke-linecap="round" stroke-linejoin="round" /><rect x="315.40" y="297.59" width="32.03" height="23.60" rx="2" ry="2" fill="rgba(248,250,252, 0.92)" fill-opacity="0.70" stroke="#7B88A8" stroke-opacity="0.25" stroke-width="0.8"/><text x="331.42" y="312.79" text-anchor="middle" font-family="'trebuchet ms', verdana, arial, sans-serif" font-size="13.6" fill="#333333"><tspan x="331.42" dy="0.00">wake</tspan></text><path d="M 190.286,418.720L 190.286,419.220C190.286,419.720,190.286,420.720,190.286,421.720C190.286,422.720,190.286,423.720,189.863,424.486C189.439,425.252,188.592,425.784,185.512,427.720C182.432,429.656,177.118,432.995,172.768,435.729C168.418,438.463,165.031,440.592,164.363,439.938C163.694,439.285,165.744,435.850,169.573,429.432C173.403,423.015,179.012,413.615,182.760,407.332C186.509,401.050,188.397,397.885,187.499,396.302C186.601,394.720,182.915,394.720,181.073,394.720C179.230,394.720,179.230,394.720,177.387,394.720C175.544,394.720,171.859,394.720,170.016,396.563C168.174,398.405,168.174,402.091,168.174,408.091C168.174,414.091,168.174,422.405,168.174,426.563L 168.174,430.720" fill="none" stroke="#2F3B4D" stroke-width="1" marker-end="url(#arrow-state-0)"   stroke-linecap="round" stroke-linejoin="round" /><rect x="221.56" y="450.50" width="32.03" height="23.60" rx="2" ry="2" fill="rgba(248,250,252, 0.92)" fill-opacity="0.70" stroke="#7B88A8" stroke-opacity="0.25" stroke-width="0.8"/><text x="237.58" y="465.70" text-anchor="middle" font-family="'trebuchet ms', verdana, arial, sans-serif" font-size="13.6" fill="#333333"><tspan x="237.58" dy="0.00">stop</tspan></text><path d="M 152.174,430.720L 130.145,430.720C108.116,430.720,64.058,430.720,40.029,430.720C16.000,430.720,12.000,430.720,11.997,430.829C11.994,430.938,15.988,431.156,50.617,433.047C85.245,434.938,150.508,438.502,185.136,440.393C219.765,442.284,223.759,442.502,224.769,440.871C225.780,439.241,223.807,435.761,188.168,372.914C152.529,310.067,83.224,187.853,47.585,125.006C11.946,62.159,9.973,58.679,10.987,56.940C12.000,55.200,16.000,55.200,45.881,55.200C75.762,55.200,131.524,55.200,159.905,55.200C188.286,55.200,189.286,55.200,189.786,54.700C190.286,54.200,190.286,53.200,190.286,52.200C190.286,51.200,190.286,50.200,190.286,49.700L 190.286,49.200" fill="none" stroke="#2F3B4D" stroke-width="1" marker-end="url(#arrow-state-0)"   stroke-linecap="round" stroke-linejoin="round" /><rect x="101.42" y="253.60" width="51.55" height="23.60" rx="2" ry="2" fill="rgba(248,250,252, 0.92)" fill-opacity="0.70" stroke="#7B88A8" stroke-opacity="0.25" stroke-width="0.8"/><text x="127.20" y="268.80" text-anchor="middle" font-family="'trebuchet ms', verdana, arial, sans-serif" font-size="13.6" fill="#333333"><tspan x="127.20" dy="0.00">restart</tspan></text><path d="M 184.174,430.720L 184.174,430.220C184.174,429.720,184.174,428.720,184.174,427.720C184.174,426.720,184.174,425.720,183.869,425.617C183.565,425.513,182.955,426.306,179.805,430.407C176.654,434.508,170.963,441.916,167.812,446.017C164.662,450.118,164.052,450.911,163.748,450.807C163.443,450.704,163.443,449.704,163.443,448.704C163.443,447.704,163.443,446.704,163.443,446.204L 163.443,445.704" fill="none" stroke="#2F3B4D" stroke-width="1" marker-end="url(#arrow-state-0)"   stroke-linecap="round" stroke-linejoin="round" /><rect x="46.40" y="355.68" width="82.20" height="47.04" rx="10" ry="10" fill="#ECECFF" stroke="#7B88A8" stroke-width="1" stroke-linejoin="round" stroke-linecap="round"/><text x="87.50" y="382.60" text-anchor="middle" font-family="'trebuchet ms', verdana, arial, sans-serif" font-size="13.6" fill="#333333"><tspan x="87.50" dy="0.00">Paused</tspan></text><rect x="202.29" y="197.60" width="115.89" height="47.04" rx="10" ry="10" fill="#ECECFF" stroke="#7B88A8" stroke-width="1" stroke-linejoin="round" stroke-linecap="round"/><text x="260.23" y="224.52" text-anchor="middle" font-family="'trebuchet ms', verdana, arial, sans-serif" font-size="13.6" fill="#333333"><tspan x="260.23" dy="0.00">Processing</tspan></text><rect x="106.86" y="430.72" width="90.62" height="47.04" rx="10" ry="10" fill="#ECECFF" stroke="#7B88A8" stroke-width="1" stroke-linejoin="round" stroke-linecap="round"/><text x="152.17" y="457.64" text-anchor="middle" font-family="'trebuchet ms', verdana, arial, sans-serif" font-size="13.6" fill="#333333"><tspan x="152.17" dy="0.00">Stopped</tspan></text><rect x="202.29" y="285.04" width="90.62" height="47.04" rx="10" ry="10" fill="#ECECFF" stroke="#7B88A8" stroke-width="1" stroke-linejoin="round" stroke-linecap="round"/><text x="247.60" y="311.96" text-anchor="middle" font-family="'trebuchet ms', verdana, arial, sans-serif" font-size="13.6" fill="#333333"><tspan x="247.60" dy="0.00">Waiting</tspan></text><circle cx="161.64" cy="438.32" r="7.60" fill="#7B88A8" stroke="#7B88A8" stroke-width="1" stroke-linejoin="round" stroke-linecap="round"/><circle cx="161.64" cy="438.32" r="3.60" fill="#FFFFFF" stroke="#FFFFFF" stroke-width="1.2" stroke-linejoin="round" stroke-linecap="round"/><circle cx="161.67" cy="15.60" r="7.60" fill="#2F3B4D" stroke="#2F3B4D" stroke-width="1" stroke-linejoin="round" stroke-linecap="round"/><circle cx="54.00" cy="90.80" r="7.60" fill="#2F3B4D" stroke="#2F3B4D" stroke-width="1" stroke-linejoin="round" stroke-linecap="round"/><circle cx="209.89" cy="166.00" r="7.60" fill="#2F3B4D" stroke="#2F3B4D" stroke-width="1" stroke-linejoin="round" stroke-linecap="round"/></svg>