<svg xmlns="http://www.w3.org/2000/svg" width="364.57172" height="485.76" viewBox="0 0 364.57172 485.76"><rect x="0" y="0" width="364.57172" height="485.76" fill="#FFFFFF"/><defs><marker id="arrow-0" viewBox="0 0 10 10" refX="5" refY="5" markerUnits="userSpaceOnUse" markerWidth="8" markerHeight="8" orient="auto"><path d="M 0 0 L 10 5 L 0 10 z" fill="#2F3B4D" stroke="#2F3B4D" stroke-width="1" stroke-dasharray="1,0"/></marker><marker id="arrow-start-0" viewBox="0 0 10 10" refX="4.5" refY="5" markerUnits="userSpaceOnUse" markerWidth="8" markerHeight="8" orient="auto"><path d="M 0 5 L 10 10 L 10 0 z" fill="#2F3B4D" stroke="#2F3B4D" stroke-width="1" stroke-dasharray="1,0"/></marker><marker id="arrow-state-0" viewBox="0 0 20 14" refX="19" refY="7" markerUnits="userSpaceOnUse" markerWidth="20" markerHeight="14" orient="auto"><path d="M 19 7 L 9 13 L 14 7 L 9 1 Z" fill="#2F3B4D" stroke="#2F3B4D" stroke-width="1" stroke-dasharray="1,0"/></marker></defs><rect x="30.40" y="47.20" width="319.77" height="36.00" rx="6" ry="6" fill="hsl(240.0000000000, 99.9999237061%, 92.2745056152%)" stroke="none"/><rect x="30.40" y="83.20" width="319.77" height="335.52" fill="hsl(240.0000000000, 87.9999237061%, 100.0000000000%)" stroke="none"/><line x1="30.40" y1="83.20" x2="350.17" y2="83.20" stroke="#7B88A8" stroke-width="1"/><rect x="30.40" y="47.20" width="319.77" height="371.52" rx="6" ry="6" fill="none" stroke="#7B88A8" stroke-width="1"/><text x="40.00" y="68.60" text-anchor="start" font-family="'trebuchet ms', verdana, arial, sans-serif" font-size="13.6" fill="#333333" font-weight="600"><tspan x="40.00" dy="0.00">Active</tspan></text><rect x="186.29" y="122.40" width="147.89" height="36.00" rx="6" ry="6" fill="hsl(240.0000000000, 99.9999237061%, 92.2745056152%)" stroke="none"/><rect x="186.29" y="158.40" width="147.89" height="189.68" fill="hsl(240.0000000000, 87.9999237061%, 100.0000000000%)" stroke="none"/><line x1="186.29" y1="158.40" x2="334.17" y2="158.40" stroke="#7B88A8" stroke-width="1"/><rect x="186.29" y="122.40" width="147.89" height="225.68" rx="6" ry="6" fill="none" stroke="#7B88A8" stroke-width="1"/><text x="195.89" y="143.80" text-anchor="start" font-family="'trebuchet ms', verdana, arial, sans-serif" font-size="13.6" fill="#333333" font-weight="600"><tspan x="195.89" dy="0.00">Running</tspan></text><path d="M 161.651,23.200L 161.651,23.700C161.651,24.200,161.651,25.200,161.651,26.200C161.651,27.200,161.651,28.200,162.112,28.893C162.573,29.587,163.495,29.973,167.807,31.780C172.118,33.586,179.818,36.813,184.130,38.620C188.441,40.427,189.364,40.813,189.825,41.507C190.286,42.200,190.286,43.200,190.286,44.200C190.286,45.200,190.286,46.200,190.286,46.700L 190.286,47.200" fill="none" stroke="#2F3B4D" stroke-width="1" marker-end="url(#arrow-state-0)"   stroke-linecap="round" stroke-linejoin="round" /><path d="M 61.600,90.800L 62.100,90.800C62.600,90.800,63.600,90.800,64.600,90.800C65.600,90.800,66.600,90.800,67.592,90.886C68.585,90.973,69.570,91.146,100.016,96.493C130.461,101.840,190.368,112.360,220.813,117.707C251.259,123.054,252.244,123.227,253.236,123.314C254.229,123.400,255.229,123.400,256.229,123.400C257.229,123.400,258.229,123.400,258.729,123.400L 259.229,123.400" fill="none" stroke="#2F3B4D" stroke-width="1" marker-end="url(#arrow-state-0)"   stroke-linecap="round" stroke-linejoin="round" /><path d="M 259.229,347.080L 258.729,347.080C258.229,347.080,257.229,347.080,256.229,347.080C255.229,347.080,254.229,347.080,253.246,347.211C252.264,347.341,251.298,347.603,232.010,352.825C212.722,358.048,175.111,368.232,155.822,373.455C136.534,378.677,135.569,378.939,134.586,379.069C133.604,379.200,132.604,379.200,131.604,379.200C130.604,379.200,129.604,379.200,129.104,379.200L 128.604,379.200" fill="none" stroke="#2F3B4D" stroke-width="1" marker-end="url(#arrow-state-0)"   stroke-linecap="round" stroke-linejoin="round" /><rect x="158.11" y="360.79" width="38.53" height="23.60" rx="2" ry="2" fill="rgba(248,250,252, 0.92)" fill-opacity="0.70" stroke="#7B88A8" stroke-opacity="0.25" stroke-width="0.8"/><text x="177.38" y="375.99" text-anchor="middle" font-family="'trebuchet ms', verdana, arial, sans-serif" font-size="13.6" fill="#333333"><tspan x="177.38" dy="0.00">pause</tspan></text><path d="M 87.502,355.680L 87.502,355.180C87.502,354.680,87.502,353.680,87.502,352.680C87.502,351.680,87.502,350.680,88.002,350.180C88.502,349.680,89.502,349.680,132.347,349.680C175.192,349.680,259.882,349.680,304.227,349.680C348.572,349.680,352.572,349.680,354.572,347.680C356.572,345.680,356.572,341.680,356.572,307.133C356.572,272.587,356.572,207.493,356.572,172.947C356.572,138.400,356.572,134.400,354.572,132.400C352.572,130.400,348.572,130.400,333.015,130.400C317.457,130.400,290.343,130.400,276.286,130.400C262.229,130.400,261.229,130.400,260.729,129.900C260.229,129.400,260.229,128.400,260.229,127.400C260.229,126.400,260.229,125.400,260.229,124.900L 260.229,124.400" fill="none" stroke="#2F3B4D" stroke-width="1" marker-end="url(#arrow-state-0)"   stroke-linecap="round" stroke-linejoin="round" /><rect x="281.21" y="342.68" width="45.04" height="23.60" rx="2" ry="2" fill="rgba(248,250,252, 0.92)" fill-opacity="0.70" stroke="#7B88A8" stroke-opacity="0.25" stroke-width="0.8"/><text x="303.73" y="357.88" text-anchor="middle" font-family="'trebuchet ms', verdana, arial, sans-serif" font-size="13.6" fill="#333333"><tspan x="303.73" dy="0.00">resume</tspan></text><path d="M 209.886,173.600L 209.886,174.100C209.886,174.600,209.886,175.600,209.886,176.600C209.886,177.600,209.886,178.600,210.372,179.216C210.859,179.832,211.831,180.064,219.735,181.948C227.640,183.832,242.475,187.368,250.379,189.252C258.283,191.136,259.256,191.368,259.742,191.984C260.229,192.600,260.229,193.600,260.229,194.600C260.229,195.600,260.229,196.600,260.229,197.100L 260.229,197.600" fill="none" stroke="#2F3B4D" stroke-width="1" marker-end="url(#arrow-state-0)"   stroke-linecap="round" stroke-linejoin="round" /><path d="M 260.229,244.640L 260.229,245.340C260.229,246.040,260.229,247.440,260.229,248.840C260.229,250.240,260.229,251.640,259.898,252.957C259.568,254.274,258.908,255.509,257.133,258.825C255.358,262.141,252.469,267.539,250.694,270.855C248.919,274.171,248.259,275.406,247.928,276.723C247.598,278.040,247.598,279.440,247.598,280.840C247.598,282.240,247.598,283.640,247.598,284.340L 247.598,285.040" fill="none" stroke="#2F3B4D" stroke-width="1" marker-end="url(#arrow-state-0)"   stroke-linecap="round" stroke-linejoin="round" /><rect x="149.52" y="207.48" width="38.53" height="23.60" rx="2" ry="2" fill="rgba(248,250,252, 0.92)" fill-opacity="0.70" stroke="#7B88A8" stroke-opacity="0.25" stroke-width="0.8"/><text x="168.79" y="222.68" text-anchor="middle" font-family="'trebuchet ms', verdana, arial, sans-serif" font-size="13.6" fill="#333333"><tspan x="168.79" dy="0.00">yield</tspan></text><path d="M 263.598,285.040L 263.598,284.340C263.598,283.640,263.598,282.240,263.598,280.840C263.598,279.440,263.598,278.040,263.928,276.723C264.259,275.406,264.919,274.171,266.694,270.855C268.469,267.539,271.358,262.141,273.133,258.825C274.908,255.509,275.568,254.274,275.899,252.957C276.229,251.640,276.229,250.240,276.229,248.840C276.229,247.440,276.229,246.040,276.229,245.340L 276.229,244.640" fill="none" stroke="#2F3B4D" stroke-width="1" marker-end="url(#arrow-state-0)"   stroke-linecap="round" stroke-linejoin="round" /><rect x="157.97" y="174.01" width="32.03" height="23.60" rx="2" ry="2" fill="rgba(248,250,252, 0.92)" fill-opacity="0.70" stroke="#7B88A8" stroke-opacity="0.25" stroke-width="0.8"/><text x="173.98" y="189.21" text-anchor="middle" font-family="'trebuchet ms', verdana, arial, sans-serif" font-size="13.6" fill="#333333"><tspan x="173.98" dy="0.00">wake</tspan></text><path d="M 190.286,418.720L 190.286,419.220C190.286,419.720,190.286,420.720,190.286,421.720C190.286,422.720,190.286,423.720,189.786,424.220C189.286,424.720,188.286,424.720,187.767,424.720C187.249,424.720,187.211,424.720,186.692,424.720C186.174,424.720,185.174,424.720,184.674,425.220C184.174,425.720,184.174,426.720,184.174,427.720C184.174,428.720,184.174,429.720,184.174,430.220L 184.174,430.720" fill="none" stroke="#2F3B4D" stroke-width="1" marker-end="url(#arrow-state-0)"   stroke-linecap="round" stroke-linejoin="round" /><rect x="179.74" y="393.72" width="32.03" height="23.60" rx="2" ry="2" fill="rgba(248,250,252, 0.92)" fill-opacity="0.70" stroke="#7B88A8" stroke-opacity="0.25" stroke-width="0.8"/><text x="195.75" y="408.92" text-anchor="middle" font-family="'trebuchet ms', verdana, arial, sans-serif" font-size="13.6" fill="#333333"><tspan x="195.75" dy="0.00">stop</tspan></text><path d="M 120.174,430.720L 120.174,430.220C120.174,429.720,120.174,428.720,120.174,427.720C120.174,426.720,120.174,425.720,119.674,425.220C119.174,424.720,118.174,424.720,101.478,424.720C84.783,424.720,52.391,424.720,34.196,424.720C16.000,424.720,12.000,424.720,10.000,422.720C8.000,420.720,8.000,416.720,8.000,357.133C8.000,297.547,8.000,182.373,8.000,122.787C8.000,63.200,8.000,59.200,10.000,57.200C12.000,55.200,16.000,55.200,45.881,55.200C75.762,55.200,131.524,55.200,159.905,55.200C188.286,55.200,189.286,55.200,189.786,54.700C190.286,54.200,190.286,53.200,190.286,52.200C190.286,51.200,190.286,50.200,190.286,49.700L 190.286,49.200" fill="none" stroke="#2F3B4D" stroke-width="1" marker-end="url(#arrow-state-0)"   stroke-linecap="round" stroke-linejoin="round" /><rect x="20.38" y="228.16" width="51.55" height="23.60" rx="2" ry="2" fill="rgba(248,250,252, 0.92)" fill-opacity="0.70" stroke="#7B88A8" stroke-opacity="0.25" stroke-width="0.8"/><text x="46.15" y="243.36" text-anchor="middle" font-family="'trebuchet ms', verdana, arial, sans-serif" font-size="13.6" fill="#333333"><tspan x="46.15" dy="0.00">restart</tspan></text><path d="M 136.174,430.720L 136.174,430.220C136.174,429.720,136.174,428.720,136.174,427.720C136.174,426.720,136.174,425.720,136.516,425.585C136.858,425.450,137.541,426.179,141.447,430.348C145.353,434.516,152.481,442.124,156.387,446.292C160.293,450.461,160.977,451.190,161.319,451.055C161.661,450.920,161.661,449.920,161.661,448.920C161.661,447.920,161.661,446.920,161.661,446.420L 161.661,445.920" fill="none" stroke="#2F3B4D" stroke-width="1" marker-end="url(#arrow-state-0)"   stroke-linecap="round" stroke-linejoin="round" /><rect x="46.40" y="355.68" width="82.20" height="47.04" rx="10" ry="10" fill="#ECECFF" stroke="#7B88A8" stroke-width="1" stroke-linejoin="round" stroke-linecap="round"/><text x="87.50" y="382.60" text-anchor="middle" font-family="'trebuchet ms', verdana, arial, sans-serif" font-size="13.6" fill="#333333"><tspan x="87.50" dy="0.00">Paused</tspan></text><rect x="202.29" y="197.60" width="115.89" height="47.04" rx="10" ry="10" fill="#ECECFF" stroke="#7B88A8" stroke-width="1" stroke-linejoin="round" stroke-linecap="round"/><text x="260.23" y="224.52" text-anchor="middle" font-family="'trebuchet ms', verdana, arial, sans-serif" font-size="13.6" fill="#333333"><tspan x="260.23" dy="0.00">Processing</tspan></text><rect x="106.86" y="430.72" width="90.62" height="47.04" rx="10" ry="10" fill="#ECECFF" stroke="#7B88A8" stroke-width="1" stroke-linejoin="round" stroke-linecap="round"/><text x="152.17" y="457.64" text-anchor="middle" font-family="'trebuchet ms', verdana, arial, sans-serif" font-size="13.6" fill="#333333"><tspan x="152.17" dy="0.00">Stopped</tspan></text><rect x="202.29" y="285.04" width="90.62" height="47.04" rx="10" ry="10" fill="#ECECFF" stroke="#7B88A8" stroke-width="1" stroke-linejoin="round" stroke-linecap="round"/><text x="247.60" y="311.96" text-anchor="middle" font-family="'trebuchet ms', verdana, arial, sans-serif" font-size="13.6" fill="#333333"><tspan x="247.60" dy="0.00">Waiting</tspan></text><circle cx="161.66" cy="438.32" r="7.60" fill="#7B88A8" stroke="#7B88A8" stroke-width="1" stroke-linejoin="round" stroke-linecap="round"/><circle cx="161.66" cy="438.32" r="3.60" fill="#FFFFFF" stroke="#FFFFFF" stroke-width="1.2" stroke-linejoin="round" stroke-linecap="round"/><circle cx="161.65" cy="15.60" r="7.60" fill="#2F3B4D" stroke="#2F3B4D" stroke-width="1" stroke-linejoin="round" stroke-linecap="round"/><circle cx="54.00" cy="90.80" r="7.60" fill="#2F3B4D" stroke="#2F3B4D" stroke-width="1" stroke-linejoin="round" stroke-linecap="round"/><circle cx="209.89" cy="166.00" r="7.60" fill="#2F3B4D" stroke="#2F3B4D" stroke-width="1" stroke-linejoin="round" stroke-linecap="round"/></svg>