<svg xmlns="http://www.w3.org/2000/svg" width="129.2921" height="190.67726" viewBox="0 0 129.2921 190.67726"><rect x="0" y="0" width="129.2921" height="190.67726" fill="#FFFFFF"/><defs><marker id="arrow-0" viewBox="0 0 10 10" refX="5" refY="5" markerUnits="userSpaceOnUse" markerWidth="8" markerHeight="8" orient="auto"><path d="M 0 0 L 10 5 L 0 10 z" fill="#333333" stroke="#333333" stroke-width="1" stroke-dasharray="1,0"/></marker><marker id="arrow-start-0" viewBox="0 0 10 10" refX="4.5" refY="5" markerUnits="userSpaceOnUse" markerWidth="8" markerHeight="8" orient="auto"><path d="M 0 5 L 10 10 L 10 0 z" fill="#333333" stroke="#333333" stroke-width="1" stroke-dasharray="1,0"/></marker><marker id="arrow-state-0" viewBox="0 0 20 14" refX="19" refY="7" markerUnits="userSpaceOnUse" markerWidth="20" markerHeight="14" orient="auto"><path d="M 19 7 L 9 13 L 14 7 L 9 1 Z" fill="#333333" stroke="#333333" stroke-width="1" stroke-dasharray="1,0"/></marker></defs><path d="M 16.640,25.280L 16.640,25.784C16.640,26.288,16.640,27.296,16.640,28.304C16.640,29.312,16.640,30.320,16.971,31.204C17.302,32.089,17.963,32.849,22.975,38.610C27.986,44.372,37.348,55.134,42.360,60.895C47.371,66.657,48.033,67.417,48.364,68.301C48.695,69.186,48.695,70.194,48.695,71.202C48.695,72.210,48.695,73.218,48.695,73.722L 48.695,74.226" fill="none" stroke="#333333" stroke-width="1" marker-end="url(#arrow-state-0)"   stroke-linecap="round" stroke-linejoin="round" /><path d="M 48.695,116.452L 48.695,117.152C48.695,117.852,48.695,119.252,48.695,120.651C48.695,122.052,48.695,123.452,48.105,124.528C47.515,125.605,46.335,126.358,45.045,127.182C43.756,128.005,42.357,128.898,41.067,129.721C39.778,130.545,38.598,131.298,38.008,132.375C37.418,133.452,37.418,134.852,37.418,136.252C37.418,137.652,37.418,139.052,37.418,139.752L 37.418,140.452" fill="none" stroke="#333333" stroke-width="1" marker-end="url(#arrow-state-0)"   stroke-linecap="round" stroke-linejoin="round" /><rect x="22.79" y="116.25" width="40.53" height="24.40" rx="2" ry="2" fill="rgba(232,232,232, 0.8)" fill-opacity="0.85" stroke="#9370DB" stroke-opacity="0.35" stroke-width="0.8"/><text x="43.06" y="131.85" text-anchor="middle" font-family="'trebuchet ms', verdana, arial, sans-serif" font-size="13.6" fill="#333333"><tspan x="43.06" dy="0.00">start</tspan></text><path d="M 85.286,50.226L 85.286,50.926C85.286,51.626,85.286,53.026,85.286,54.426C85.286,55.826,85.286,57.226,85.141,58.611C84.997,59.996,84.707,61.365,82.268,72.918C79.828,84.471,75.237,106.206,72.797,117.759C70.358,129.312,70.068,130.682,69.924,132.067C69.779,133.452,69.779,134.852,69.779,136.252C69.779,137.652,69.779,139.052,69.779,139.752L 69.779,140.452" fill="none" stroke="#333333" stroke-width="1" marker-end="url(#arrow-state-0)"   stroke-linecap="round" stroke-linejoin="round" /><rect x="21.80" y="140.45" width="63.59" height="42.23" rx="10" ry="10" fill="#ECECFF" stroke="#9370DB" stroke-width="1" stroke-linejoin="round" stroke-linecap="round"/><text x="53.60" y="164.96" text-anchor="middle" font-family="'trebuchet ms', verdana, arial, sans-serif" font-size="13.6" fill="#333333"><tspan x="53.60" dy="0.00">Active</tspan></text><rect x="25.32" y="74.23" width="46.75" height="42.23" rx="10" ry="10" fill="#ECECFF" stroke="#9370DB" stroke-width="1" stroke-linejoin="round" stroke-linecap="round"/><text x="48.69" y="98.74" text-anchor="middle" font-family="'trebuchet ms', verdana, arial, sans-serif" font-size="13.6" fill="#333333"><tspan x="48.69" dy="0.00">Idle</tspan></text><rect x="49.28" y="8.00" width="72.01" height="42.23" rx="10" ry="10" fill="#ECECFF" stroke="#9370DB" stroke-width="1" stroke-linejoin="round" stroke-linecap="round"/><text x="85.29" y="32.51" text-anchor="middle" font-family="'trebuchet ms', verdana, arial, sans-serif" font-size="13.6" fill="#333333"><tspan x="85.29" dy="0.00">Waiting</tspan></text><circle cx="16.64" cy="16.64" r="8.64" fill="#333333" stroke="#333333" stroke-width="1" stroke-linejoin="round" stroke-linecap="round"/></svg>