<svg xmlns="http://www.w3.org/2000/svg" width="147.43097" height="240.33372" viewBox="0 0 147.43097 240.33372"><rect x="0" y="0" width="147.43097" height="240.33372" fill="#FFFFFF"/><defs><marker id="arrow-0" viewBox="0 0 10 10" refX="5" refY="5" markerUnits="userSpaceOnUse" markerWidth="8" markerHeight="8" orient="auto"><path d="M 0 0 L 10 5 L 0 10 z" fill="#2F3B4D" stroke="#2F3B4D" stroke-width="1" stroke-dasharray="1,0"/></marker><marker id="arrow-start-0" viewBox="0 0 10 10" refX="4.5" refY="5" markerUnits="userSpaceOnUse" markerWidth="8" markerHeight="8" orient="auto"><path d="M 0 5 L 10 10 L 10 0 z" fill="#2F3B4D" stroke="#2F3B4D" stroke-width="1" stroke-dasharray="1,0"/></marker><marker id="arrow-state-0" viewBox="0 0 20 14" refX="19" refY="7" markerUnits="userSpaceOnUse" markerWidth="20" markerHeight="14" orient="auto"><path d="M 19 7 L 9 13 L 14 7 L 9 1 Z" fill="#2F3B4D" stroke="#2F3B4D" stroke-width="1" stroke-dasharray="1,0"/></marker></defs><path d="M 15.600,23.200L 15.600,23.700C15.600,24.200,15.600,25.200,15.600,26.200C15.600,27.200,15.600,28.200,15.915,29.089C16.229,29.977,16.858,30.755,22.675,37.940C28.491,45.126,39.495,58.721,45.312,65.906C51.128,73.092,51.757,73.870,52.072,74.758C52.387,75.647,52.387,76.647,52.387,77.647C52.387,78.647,52.387,79.647,52.387,80.147L 52.387,80.647" fill="none" stroke="#2F3B4D" stroke-width="1" marker-end="url(#arrow-state-0)"   stroke-linecap="round" stroke-linejoin="round" /><path d="M 52.387,127.687L 52.387,128.434C52.387,129.181,52.387,130.674,52.387,132.168C52.387,133.662,52.387,135.156,52.457,136.646C52.528,138.136,52.670,139.623,53.229,145.493C53.788,151.364,54.765,161.617,55.324,167.487C55.884,173.357,56.025,174.844,56.096,176.335C56.167,177.825,56.167,179.319,56.167,180.813C56.167,182.306,56.167,183.800,56.167,184.547L 56.167,185.294" fill="none" stroke="#2F3B4D" stroke-width="1" marker-end="url(#arrow-state-0)"   stroke-linecap="round" stroke-linejoin="round" /><rect x="18.19" y="146.29" width="38.53" height="23.60" rx="2" ry="2" fill="rgba(248,250,252, 0.92)" fill-opacity="0.70" stroke="#7B88A8" stroke-opacity="0.25" stroke-width="0.8"/><text x="37.46" y="161.49" text-anchor="middle" font-family="'trebuchet ms', verdana, arial, sans-serif" font-size="13.6" fill="#333333"><tspan x="37.46" dy="0.00">start</tspan></text><path d="M 94.119,55.040L 94.119,55.787C94.119,56.534,94.119,58.027,94.119,59.521C94.119,61.015,94.119,62.509,93.978,63.989C93.838,65.469,93.557,66.937,90.112,84.924C86.668,102.912,80.059,137.421,76.614,155.409C73.170,173.397,72.889,174.864,72.748,176.345C72.608,177.825,72.608,179.319,72.608,180.813C72.608,182.306,72.608,183.800,72.608,184.547L 72.608,185.294" fill="none" stroke="#2F3B4D" stroke-width="1" marker-end="url(#arrow-state-0)"   stroke-linecap="round" stroke-linejoin="round" /><rect x="16.91" y="185.29" width="82.20" height="47.04" rx="10" ry="10" fill="#ECECFF" stroke="#7B88A8" stroke-width="1" stroke-linejoin="round" stroke-linecap="round"/><text x="58.02" y="212.21" text-anchor="middle" font-family="'trebuchet ms', verdana, arial, sans-serif" font-size="13.6" fill="#333333"><tspan x="58.02" dy="0.00">Active</tspan></text><rect x="19.71" y="80.65" width="65.36" height="47.04" rx="10" ry="10" fill="#ECECFF" stroke="#7B88A8" stroke-width="1" stroke-linejoin="round" stroke-linecap="round"/><text x="52.39" y="107.57" text-anchor="middle" font-family="'trebuchet ms', verdana, arial, sans-serif" font-size="13.6" fill="#333333"><tspan x="52.39" dy="0.00">Idle</tspan></text><rect x="48.81" y="8.00" width="90.62" height="47.04" rx="10" ry="10" fill="#ECECFF" stroke="#7B88A8" stroke-width="1" stroke-linejoin="round" stroke-linecap="round"/><text x="94.12" y="34.92" text-anchor="middle" font-family="'trebuchet ms', verdana, arial, sans-serif" font-size="13.6" fill="#333333"><tspan x="94.12" dy="0.00">Waiting</tspan></text><circle cx="15.60" cy="15.60" r="7.60" fill="#2F3B4D" stroke="#2F3B4D" stroke-width="1" stroke-linejoin="round" stroke-linecap="round"/></svg>