<svg xmlns="http://www.w3.org/2000/svg" width="242.3277" height="579.0299" viewBox="0 0 242.3277 579.0299"><rect x="0" y="0" width="242.3277" height="579.0299" fill="#FFFFFF"/><defs><marker id="arrow-0" viewBox="0 0 10 10" refX="5" refY="5" markerUnits="userSpaceOnUse" markerWidth="8" markerHeight="8" orient="auto"><path d="M 0 0 L 10 5 L 0 10 z" fill="#2F3B4D" stroke="#2F3B4D" stroke-width="1" stroke-dasharray="1,0"/></marker><marker id="arrow-start-0" viewBox="0 0 10 10" refX="4.5" refY="5" markerUnits="userSpaceOnUse" markerWidth="8" markerHeight="8" orient="auto"><path d="M 0 5 L 10 10 L 10 0 z" fill="#2F3B4D" stroke="#2F3B4D" stroke-width="1" stroke-dasharray="1,0"/></marker><marker id="arrow-state-0" viewBox="0 0 20 14" refX="19" refY="7" markerUnits="userSpaceOnUse" markerWidth="20" markerHeight="14" orient="auto"><path d="M 19 7 L 9 13 L 14 7 L 9 1 Z" fill="#2F3B4D" stroke="#2F3B4D" stroke-width="1" stroke-dasharray="1,0"/></marker></defs><path d="M 83.057,23.200 L 83.057,51.438" fill="none" stroke="#2F3B4D" stroke-width="1" marker-end="url(#arrow-state-0)"   stroke-linecap="round" stroke-linejoin="round" /><path d="M 83.057,98.478L 83.057,99.302C83.057,100.126,83.057,101.773,83.057,103.420C83.057,105.067,83.057,106.714,82.527,108.168C81.997,109.622,80.937,110.883,77.969,114.412C75.001,117.940,70.126,123.736,66.401,128.165C62.677,132.594,60.102,135.655,60.782,137.546C61.462,139.438,65.396,140.158,73.788,141.696C82.180,143.234,95.029,145.588,102.263,146.914C109.498,148.239,111.118,148.536,111.928,149.508C112.738,150.480,112.738,152.128,112.738,153.775C112.738,155.422,112.738,157.069,112.738,157.893L 112.738,158.717" fill="none" stroke="#2F3B4D" stroke-width="1" marker-end="url(#arrow-state-0)"   stroke-linecap="round" stroke-linejoin="round" /><rect x="35.01" y="126.92" width="45.04" height="23.60" rx="2" ry="2" fill="rgba(248,250,252, 0.92)" fill-opacity="0.70" stroke="#7B88A8" stroke-opacity="0.25" stroke-width="0.8"/><text x="57.53" y="142.12" text-anchor="middle" font-family="'trebuchet ms', verdana, arial, sans-serif" font-size="13.6" fill="#333333"><tspan x="57.53" dy="0.00">submit</tspan></text><path d="M 96.738,205.757L 96.738,206.580C96.738,207.404,96.738,209.051,96.738,210.698C96.738,212.346,96.738,213.993,97.387,215.324C98.035,216.655,99.333,217.670,104.223,221.497C109.113,225.324,117.596,231.962,123.412,236.513C129.228,241.065,132.379,243.530,131.970,245.020C131.562,246.509,127.595,247.024,115.411,248.604C103.227,250.184,82.825,252.830,71.807,254.259C60.789,255.688,59.156,255.900,58.339,256.829C57.522,257.759,57.522,259.406,57.522,261.053C57.522,262.700,57.522,264.348,57.522,265.171L 57.522,265.995" fill="none" stroke="#2F3B4D" stroke-width="1" marker-end="url(#arrow-state-0)"   stroke-linecap="round" stroke-linejoin="round" /><rect x="109.75" y="234.19" width="51.55" height="23.60" rx="2" ry="2" fill="rgba(248,250,252, 0.92)" fill-opacity="0.70" stroke="#7B88A8" stroke-opacity="0.25" stroke-width="0.8"/><text x="135.53" y="249.39" text-anchor="middle" font-family="'trebuchet ms', verdana, arial, sans-serif" font-size="13.6" fill="#333333"><tspan x="135.53" dy="0.00">approve</tspan></text><path d="M 128.738,205.757L 128.738,206.580C128.738,207.404,128.738,209.051,128.738,210.698C128.738,212.346,128.738,213.993,127.981,215.139C127.223,216.286,125.708,216.932,115.680,221.207C105.652,225.482,87.112,233.385,76.002,238.122C64.892,242.858,61.212,244.426,61.364,245.392C61.516,246.357,65.499,246.719,83.225,248.331C100.950,249.942,132.417,252.803,148.971,254.308C165.524,255.813,167.165,255.962,167.985,256.861C168.805,257.759,168.805,259.406,168.805,261.053C168.805,262.700,168.805,264.348,168.805,265.171L 168.805,265.995" fill="none" stroke="#2F3B4D" stroke-width="1" marker-end="url(#arrow-state-0)"   stroke-linecap="round" stroke-linejoin="round" /><rect x="35.01" y="234.19" width="45.04" height="23.60" rx="2" ry="2" fill="rgba(248,250,252, 0.92)" fill-opacity="0.70" stroke="#7B88A8" stroke-opacity="0.25" stroke-width="0.8"/><text x="57.53" y="249.39" text-anchor="middle" font-family="'trebuchet ms', verdana, arial, sans-serif" font-size="13.6" fill="#333333"><tspan x="57.53" dy="0.00">reject</tspan></text><path d="M 73.522,313.035L 73.522,313.859C73.522,314.682,73.522,316.329,73.522,317.977C73.522,319.624,73.522,321.271,74.045,322.731C74.567,324.192,75.612,325.465,78.976,329.564C82.339,333.664,88.021,340.589,91.650,345.011C95.279,349.434,96.854,351.353,98.553,353.156C100.253,354.959,102.076,356.645,103.295,357.772C104.513,358.899,105.127,359.467,106.039,360.310C106.950,361.153,108.160,362.271,108.764,363.654C109.369,365.037,109.369,366.684,109.369,368.332C109.369,369.979,109.369,371.626,109.369,372.450L 109.369,373.273" fill="none" stroke="#2F3B4D" stroke-width="1" marker-end="url(#arrow-state-0)"   stroke-linecap="round" stroke-linejoin="round" /><rect x="72.66" y="341.47" width="51.55" height="23.60" rx="2" ry="2" fill="rgba(248,250,252, 0.92)" fill-opacity="0.70" stroke="#7B88A8" stroke-opacity="0.25" stroke-width="0.8"/><text x="98.43" y="356.67" text-anchor="middle" font-family="'trebuchet ms', verdana, arial, sans-serif" font-size="13.6" fill="#333333"><tspan x="98.43" dy="0.00">publish</tspan></text><path d="M 184.805,265.995L 184.805,265.097C184.805,264.198,184.805,262.402,184.805,260.755C184.805,259.108,184.805,257.610,184.056,256.861C183.307,256.112,181.809,256.112,181.060,256.112C180.311,256.112,180.311,256.112,179.562,256.112C178.813,256.112,177.315,256.112,176.303,255.410C175.290,254.709,174.763,253.307,168.113,235.613C161.463,217.920,148.691,183.935,141.601,165.070C134.511,146.205,133.103,142.461,134.047,139.455C134.992,136.449,138.287,134.182,143.993,130.257C149.699,126.331,157.815,120.747,163.521,116.822C169.226,112.896,172.522,110.629,172.169,109.495C171.817,108.362,167.817,108.362,155.847,108.362C143.878,108.362,123.938,108.362,113.145,108.362C102.352,108.362,100.704,108.362,99.881,107.538C99.057,106.714,99.057,105.067,99.057,103.420C99.057,101.773,99.057,100.126,99.057,99.302L 99.057,98.478" fill="none" stroke="#2F3B4D" stroke-width="1" marker-end="url(#arrow-state-0)"   stroke-linecap="round" stroke-linejoin="round" /><rect x="109.18" y="126.92" width="45.04" height="23.60" rx="2" ry="2" fill="rgba(248,250,252, 0.92)" fill-opacity="0.70" stroke="#7B88A8" stroke-opacity="0.25" stroke-width="0.8"/><text x="131.70" y="142.12" text-anchor="middle" font-family="'trebuchet ms', verdana, arial, sans-serif" font-size="13.6" fill="#333333"><tspan x="131.70" dy="0.00">revise</tspan></text><path d="M 109.369,420.313L 109.369,421.137C109.369,421.960,109.369,423.608,109.369,425.255C109.369,426.902,109.369,428.549,109.090,430.148C108.811,431.746,108.252,433.296,106.994,436.787C105.736,440.277,103.779,445.709,102.235,449.993C100.690,454.277,99.560,457.414,100.433,459.826C101.306,462.238,104.183,463.924,106.349,465.193C108.516,466.463,109.972,467.316,111.410,468.159C112.848,469.002,114.270,469.835,114.980,471.075C115.691,472.315,115.691,473.963,115.691,475.610C115.691,477.257,115.691,478.904,115.691,479.728L 115.691,480.552" fill="none" stroke="#2F3B4D" stroke-width="1" marker-end="url(#arrow-state-0)"   stroke-linecap="round" stroke-linejoin="round" /><rect x="72.66" y="448.75" width="51.55" height="23.60" rx="2" ry="2" fill="rgba(248,250,252, 0.92)" fill-opacity="0.70" stroke="#7B88A8" stroke-opacity="0.25" stroke-width="0.8"/><text x="98.43" y="463.95" text-anchor="middle" font-family="'trebuchet ms', verdana, arial, sans-serif" font-size="13.6" fill="#333333"><tspan x="98.43" dy="0.00">archive</tspan></text><path d="M 141.369,420.313L 141.369,420.813C141.369,421.313,141.369,422.313,141.369,423.313C141.369,424.313,141.369,425.313,141.869,425.813C142.369,426.313,143.369,426.313,147.701,426.313C152.032,426.313,159.696,426.313,165.527,426.313C171.359,426.313,175.359,426.313,177.359,428.313C179.359,430.313,179.359,434.313,179.359,452.899C179.359,471.485,179.359,504.658,179.359,523.244C179.359,541.830,179.359,545.830,177.359,547.830C175.359,549.830,171.359,549.830,161.248,549.830C151.136,549.830,134.913,549.830,126.302,549.830C117.691,549.830,116.691,549.830,116.191,550.330C115.691,550.830,115.691,551.830,115.691,552.830C115.691,553.830,115.691,554.830,115.691,555.330L 115.691,555.830" fill="none" stroke="#2F3B4D" stroke-width="1" marker-end="url(#arrow-state-0)"   stroke-linecap="round" stroke-linejoin="round" /><path d="M 115.691,527.592 L 115.691,555.830" fill="none" stroke="#2F3B4D" stroke-width="1" marker-end="url(#arrow-state-0)"   stroke-linecap="round" stroke-linejoin="round" /><rect x="8.00" y="265.99" width="99.04" height="47.04" rx="10" ry="10" fill="#ECECFF" stroke="#7B88A8" stroke-width="1" stroke-linejoin="round" stroke-linecap="round"/><text x="57.52" y="292.91" text-anchor="middle" font-family="'trebuchet ms', verdana, arial, sans-serif" font-size="13.6" fill="#333333"><tspan x="57.52" dy="0.00">Approved</tspan></text><rect x="66.17" y="480.55" width="99.04" height="47.04" rx="10" ry="10" fill="#ECECFF" stroke="#7B88A8" stroke-width="1" stroke-linejoin="round" stroke-linecap="round"/><text x="115.69" y="507.47" text-anchor="middle" font-family="'trebuchet ms', verdana, arial, sans-serif" font-size="13.6" fill="#333333"><tspan x="115.69" dy="0.00">Archived</tspan></text><rect x="46.17" y="51.44" width="73.78" height="47.04" rx="10" ry="10" fill="#ECECFF" stroke="#7B88A8" stroke-width="1" stroke-linejoin="round" stroke-linecap="round"/><text x="83.06" y="78.36" text-anchor="middle" font-family="'trebuchet ms', verdana, arial, sans-serif" font-size="13.6" fill="#333333"><tspan x="83.06" dy="0.00">Draft</tspan></text><rect x="71.64" y="373.27" width="107.47" height="47.04" rx="10" ry="10" fill="#ECECFF" stroke="#7B88A8" stroke-width="1" stroke-linejoin="round" stroke-linecap="round"/><text x="125.37" y="400.19" text-anchor="middle" font-family="'trebuchet ms', verdana, arial, sans-serif" font-size="13.6" fill="#333333"><tspan x="125.37" dy="0.00">Published</tspan></text><rect x="135.28" y="265.99" width="99.04" height="47.04" rx="10" ry="10" fill="#ECECFF" stroke="#7B88A8" stroke-width="1" stroke-linejoin="round" stroke-linecap="round"/><text x="184.81" y="292.91" text-anchor="middle" font-family="'trebuchet ms', verdana, arial, sans-serif" font-size="13.6" fill="#333333"><tspan x="184.81" dy="0.00">Rejected</tspan></text><rect x="71.64" y="158.72" width="82.20" height="47.04" rx="10" ry="10" fill="#ECECFF" stroke="#7B88A8" stroke-width="1" stroke-linejoin="round" stroke-linecap="round"/><text x="112.74" y="185.64" text-anchor="middle" font-family="'trebuchet ms', verdana, arial, sans-serif" font-size="13.6" fill="#333333"><tspan x="112.74" dy="0.00">Review</tspan></text><circle cx="115.69" cy="563.43" r="7.60" fill="#7B88A8" stroke="#7B88A8" stroke-width="1" stroke-linejoin="round" stroke-linecap="round"/><circle cx="115.69" cy="563.43" r="3.60" fill="#FFFFFF" stroke="#FFFFFF" stroke-width="1.2" stroke-linejoin="round" stroke-linecap="round"/><circle cx="83.06" cy="15.60" r="7.60" fill="#2F3B4D" stroke="#2F3B4D" stroke-width="1" stroke-linejoin="round" stroke-linecap="round"/></svg>