<svg xmlns="http://www.w3.org/2000/svg" width="361.04" height="788" viewBox="0 0 361.04 788"><rect width="100%" height="100%" fill="#FFFFFF"/><defs><marker id="arrow-0" viewBox="0 0 10 10" refX="5" refY="5" markerUnits="userSpaceOnUse" markerWidth="8" markerHeight="8" orient="auto"><path d="M 0 0 L 10 5 L 0 10 z" fill="#333333"/></marker><marker id="arrow-start-0" viewBox="0 0 10 10" refX="4.5" refY="5" markerUnits="userSpaceOnUse" markerWidth="8" markerHeight="8" orient="auto"><path d="M 0 5 L 10 10 L 10 0 z" fill="#333333"/></marker><marker id="arrow-state-0" viewBox="0 0 20 14" refX="19" refY="7" markerUnits="userSpaceOnUse" markerWidth="20" markerHeight="14" orient="auto"><path d="M 19 7 L 9 13 L 14 7 L 9 1 Z" fill="#333333" stroke="#333333"/></marker></defs><rect x="85.88" y="208.80" width="177.20" height="350.40" rx="5" ry="5" fill="#ECECFF" stroke="#9370DB" stroke-width="1"/><rect x="85.88" y="236.80" width="177.20" height="322.40" fill="#FFFFFF" stroke="none"/><text x="97.88" y="226.80" text-anchor="start" font-family="'trebuchet ms', verdana, arial, sans-serif" font-size="16" fill="#333333"><tspan x="97.88" dy="0.00">Processing</tspan></text><path d="M 166.48 45.00 L 166.48 69.82 L 166.48 69.82 L 166.48 94.65" fill="none" stroke="#333333" stroke-width="1" marker-end="url(#arrow-state-0)"   stroke-linecap="round" stroke-linejoin="round" /><path d="M 166.48 151.35 L 166.48 180.08 L 174.48 180.08 L 174.48 208.80" fill="none" stroke="#333333" stroke-width="1" marker-end="url(#arrow-state-0)"   stroke-linecap="round" stroke-linejoin="round" /><rect x="144.88" y="166.08" width="51.20" height="28.00" rx="0" ry="0" fill="#ECECFF" fill-opacity="0.5" stroke="none"/><text x="170.48" y="184.08" text-anchor="middle" font-family="'trebuchet ms', verdana, arial, sans-serif" font-size="16" fill="#333333"><tspan x="170.48" dy="0.00">submit</tspan></text><path d="M 174.48 559.20 L 174.48 579.93 L 84.72 579.93 L 84.72 600.65" fill="none" stroke="#333333" stroke-width="1" marker-end="url(#arrow-state-0)"   stroke-linecap="round" stroke-linejoin="round" /><rect x="96.80" y="565.93" width="65.60" height="28.00" rx="0" ry="0" fill="#ECECFF" fill-opacity="0.5" stroke="none"/><text x="129.60" y="583.93" text-anchor="middle" font-family="'trebuchet ms', verdana, arial, sans-serif" font-size="16" fill="#333333"><tspan x="129.60" dy="0.00">complete</tspan></text><path d="M 174.48 559.20 L 174.48 579.93 L 248.24 579.93 L 248.24 600.65" fill="none" stroke="#333333" stroke-width="1" marker-end="url(#arrow-state-0)"   stroke-linecap="round" stroke-linejoin="round" /><rect x="192.96" y="565.93" width="36.80" height="28.00" rx="0" ry="0" fill="#ECECFF" fill-opacity="0.5" stroke="none"/><text x="211.36" y="583.93" text-anchor="middle" font-family="'trebuchet ms', verdana, arial, sans-serif" font-size="16" fill="#333333"><tspan x="211.36" dy="0.00">fail</tspan></text><path d="M 84.72 657.35 L 84.72 376.00 L 166.48 376.00 L 166.48 94.65" fill="none" stroke="#333333" stroke-width="1" marker-end="url(#arrow-state-0)"   stroke-linecap="round" stroke-linejoin="round" /><rect x="103.60" y="266.00" width="44.00" height="28.00" rx="0" ry="0" fill="#ECECFF" fill-opacity="0.5" stroke="none"/><text x="125.60" y="284.00" text-anchor="middle" font-family="'trebuchet ms', verdana, arial, sans-serif" font-size="16" fill="#333333"><tspan x="125.60" dy="0.00">reset</tspan></text><path d="M 248.24 657.35 L 248.24 376.00 L 166.48 376.00 L 166.48 94.65" fill="none" stroke="#333333" stroke-width="1" marker-end="url(#arrow-state-0)"   stroke-linecap="round" stroke-linejoin="round" /><rect x="185.36" y="362.00" width="44.00" height="28.00" rx="0" ry="0" fill="#ECECFF" fill-opacity="0.5" stroke="none"/><text x="207.36" y="380.00" text-anchor="middle" font-family="'trebuchet ms', verdana, arial, sans-serif" font-size="16" fill="#333333"><tspan x="207.36" dy="0.00">retry</tspan></text><path d="M 248.24 657.35 L 248.24 682.18 L 248.24 682.18 L 248.24 707.00" fill="none" stroke="#333333" stroke-width="1" marker-end="url(#arrow-state-0)"   stroke-linecap="round" stroke-linejoin="round" /><rect x="226.24" y="668.18" width="44.00" height="28.00" rx="0" ry="0" fill="#ECECFF" fill-opacity="0.5" stroke="none"/><text x="248.24" y="686.18" text-anchor="middle" font-family="'trebuchet ms', verdana, arial, sans-serif" font-size="16" fill="#333333"><tspan x="248.24" dy="0.00">abort</tspan></text><path d="M 84.72 657.35 L 84.72 682.18 L 84.72 682.18 L 84.72 707.00" fill="none" stroke="#333333" stroke-width="1" marker-end="url(#arrow-state-0)"   stroke-linecap="round" stroke-linejoin="round" /><rect x="66.32" y="668.18" width="36.80" height="28.00" rx="0" ry="0" fill="#ECECFF" fill-opacity="0.5" stroke="none"/><text x="84.72" y="686.18" text-anchor="middle" font-family="'trebuchet ms', verdana, arial, sans-serif" font-size="16" fill="#333333"><tspan x="84.72" dy="0.00">done</tspan></text><path d="M 174.48 260.20 L 174.48 285.02 L 174.48 285.02 L 174.48 309.85" fill="none" stroke="#333333" stroke-width="1" marker-end="url(#arrow-state-0)"   stroke-linecap="round" stroke-linejoin="round" /><path d="M 174.48 366.55 L 174.48 391.20 L 174.48 391.20 L 174.48 415.85" fill="none" stroke="#333333" stroke-width="1" marker-end="url(#arrow-state-0)"   stroke-linecap="round" stroke-linejoin="round" /><path d="M 174.48 472.55 L 174.48 497.38 L 174.48 497.38 L 174.48 522.20" fill="none" stroke="#333333" stroke-width="1" marker-end="url(#arrow-state-0)"   stroke-linecap="round" stroke-linejoin="round" /><rect x="195.44" y="600.65" width="105.60" height="56.70" rx="10" ry="10" fill="#ECECFF" stroke="#9370DB" stroke-width="1" stroke-linejoin="round" stroke-linecap="round"/><text x="248.24" y="633.00" text-anchor="middle" font-family="'trebuchet ms', verdana, arial, sans-serif" font-size="16" fill="#333333"><tspan x="248.24" dy="0.00">Error</tspan></text><rect x="105.84" y="415.85" width="137.28" height="56.70" rx="10" ry="10" fill="#ECECFF" stroke="#9370DB" stroke-width="1" stroke-linejoin="round" stroke-linecap="round"/><text x="174.48" y="448.20" text-anchor="middle" font-family="'trebuchet ms', verdana, arial, sans-serif" font-size="16" fill="#333333"><tspan x="174.48" dy="0.00">Executing</tspan></text><rect x="117.64" y="94.65" width="97.68" height="56.70" rx="10" ry="10" fill="#ECECFF" stroke="#9370DB" stroke-width="1" stroke-linejoin="round" stroke-linecap="round"/><text x="166.48" y="127.00" text-anchor="middle" font-family="'trebuchet ms', verdana, arial, sans-serif" font-size="16" fill="#333333"><tspan x="166.48" dy="0.00">Idle</tspan></text><rect x="24.00" y="600.65" width="121.44" height="56.70" rx="10" ry="10" fill="#ECECFF" stroke="#9370DB" stroke-width="1" stroke-linejoin="round" stroke-linecap="round"/><text x="84.72" y="633.00" text-anchor="middle" font-family="'trebuchet ms', verdana, arial, sans-serif" font-size="16" fill="#333333"><tspan x="84.72" dy="0.00">Success</tspan></text><rect x="101.88" y="309.85" width="145.20" height="56.70" rx="10" ry="10" fill="#ECECFF" stroke="#9370DB" stroke-width="1" stroke-linejoin="round" stroke-linecap="round"/><text x="174.48" y="342.20" text-anchor="middle" font-family="'trebuchet ms', verdana, arial, sans-serif" font-size="16" fill="#333333"><tspan x="174.48" dy="0.00">Validating</tspan></text><circle cx="248.24" cy="717.50" r="10.50" fill="#9370DB" stroke="#9370DB" stroke-width="1" stroke-linejoin="round" stroke-linecap="round"/><circle cx="248.24" cy="717.50" r="6.50" fill="#FFFFFF" stroke="#FFFFFF" stroke-width="1.2" stroke-linejoin="round" stroke-linecap="round"/><circle cx="84.72" cy="717.50" r="10.50" fill="#9370DB" stroke="#9370DB" stroke-width="1" stroke-linejoin="round" stroke-linecap="round"/><circle cx="84.72" cy="717.50" r="6.50" fill="#FFFFFF" stroke="#FFFFFF" stroke-width="1.2" stroke-linejoin="round" stroke-linecap="round"/><circle cx="174.48" cy="532.70" r="10.50" fill="#9370DB" stroke="#9370DB" stroke-width="1" stroke-linejoin="round" stroke-linecap="round"/><circle cx="174.48" cy="532.70" r="6.50" fill="#FFFFFF" stroke="#FFFFFF" stroke-width="1.2" stroke-linejoin="round" stroke-linecap="round"/><circle cx="166.48" cy="34.50" r="10.50" fill="#333333" stroke="#333333" stroke-width="1" stroke-linejoin="round" stroke-linecap="round"/><circle cx="174.48" cy="249.70" r="10.50" fill="#333333" stroke="#333333" stroke-width="1" stroke-linejoin="round" stroke-linecap="round"/></svg>