<svg xmlns="http://www.w3.org/2000/svg" width="190.18906" height="212.47998" viewBox="0 0 190.18906 212.47998"><rect x="0" y="0" width="190.18906" height="212.47998" fill="#FFFFFF"/><defs><marker id="arrow-0" viewBox="0 0 10 10" refX="5" refY="5" markerUnits="userSpaceOnUse" markerWidth="8" markerHeight="8" orient="auto"><path d="M 0 0 L 10 5 L 0 10 z" fill="#2F3B4D" stroke="#2F3B4D" stroke-width="1" stroke-dasharray="1,0"/></marker><marker id="arrow-start-0" viewBox="0 0 10 10" refX="4.5" refY="5" markerUnits="userSpaceOnUse" markerWidth="8" markerHeight="8" orient="auto"><path d="M 0 5 L 10 10 L 10 0 z" fill="#2F3B4D" stroke="#2F3B4D" stroke-width="1" stroke-dasharray="1,0"/></marker><marker id="arrow-state-0" viewBox="0 0 20 14" refX="19" refY="7" markerUnits="userSpaceOnUse" markerWidth="20" markerHeight="14" orient="auto"><path d="M 19 7 L 9 13 L 14 7 L 9 1 Z" fill="#2F3B4D" stroke="#2F3B4D" stroke-width="1" stroke-dasharray="1,0"/></marker></defs><path d="M 104.60 121.76 L 170.19 121.76 L 182.19 133.76 L 182.19 161.76 L 104.60 161.76 Z" fill="#FFF5AD" stroke="#AAAA33" stroke-width="1.1"/><polyline points="170.19,121.76 170.19,133.76 182.19,133.76" fill="none" stroke="#AAAA33" stroke-width="1.0"/><text x="143.40" y="145.16" text-anchor="middle" font-family="'trebuchet ms', verdana, arial, sans-serif" font-size="13.6" fill="#333333"><tspan x="143.40" dy="0.00">Running</tspan></text><path d="M 47.590,23.200L 47.590,23.700C47.590,24.200,47.590,25.200,47.590,26.200C47.590,27.200,47.590,28.200,47.632,29.198C47.673,30.197,47.756,31.193,47.882,32.695C48.007,34.197,48.174,36.203,48.299,37.705C48.424,39.207,48.507,40.203,48.548,41.202C48.590,42.200,48.590,43.200,48.590,44.200C48.590,45.200,48.590,46.200,48.590,46.700L 48.590,47.200" fill="none" stroke="#2F3B4D" stroke-width="1" marker-end="url(#arrow-state-0)"   stroke-linecap="round" stroke-linejoin="round" /><path d="M 48.590,94.240L 48.590,95.038C48.590,95.837,48.590,97.434,48.590,98.834C48.590,100.234,48.590,101.437,48.633,102.638C48.675,103.840,48.761,105.040,48.803,105.640C48.846,106.240,48.846,106.240,48.888,106.840C48.931,107.440,49.016,108.640,49.059,109.842C49.102,111.043,49.102,112.246,49.102,113.646C49.102,115.046,49.102,116.643,49.102,117.442L 49.102,118.240" fill="none" stroke="#2F3B4D" stroke-width="1" marker-end="url(#arrow-state-0)"   stroke-linecap="round" stroke-linejoin="round" /><path d="M 49.102,165.280L 49.102,165.780C49.102,166.280,49.102,167.280,49.102,168.280C49.102,169.280,49.102,170.280,49.094,171.280C49.086,172.280,49.071,173.280,49.048,174.780C49.025,176.280,48.994,178.280,48.971,179.780C48.948,181.280,48.932,182.280,48.924,183.280C48.917,184.280,48.917,185.280,48.917,186.280C48.917,187.280,48.917,188.280,48.917,188.780L 48.917,189.280" fill="none" stroke="#2F3B4D" stroke-width="1" marker-end="url(#arrow-state-0)"   stroke-linecap="round" stroke-linejoin="round" /><rect x="8.00" y="118.24" width="82.20" height="47.04" rx="10" ry="10" fill="#ECECFF" stroke="#7B88A8" stroke-width="1" stroke-linejoin="round" stroke-linecap="round"/><text x="49.10" y="145.16" text-anchor="middle" font-family="'trebuchet ms', verdana, arial, sans-serif" font-size="13.6" fill="#333333"><tspan x="49.10" dy="0.00">Active</tspan></text><rect x="15.91" y="47.20" width="65.36" height="47.04" rx="10" ry="10" fill="#ECECFF" stroke="#7B88A8" stroke-width="1" stroke-linejoin="round" stroke-linecap="round"/><text x="48.59" y="74.12" text-anchor="middle" font-family="'trebuchet ms', verdana, arial, sans-serif" font-size="13.6" fill="#333333"><tspan x="48.59" dy="0.00">Idle</tspan></text><circle cx="48.92" cy="196.88" r="7.60" fill="#7B88A8" stroke="#7B88A8" stroke-width="1" stroke-linejoin="round" stroke-linecap="round"/><circle cx="48.92" cy="196.88" r="3.60" fill="#FFFFFF" stroke="#FFFFFF" stroke-width="1.2" stroke-linejoin="round" stroke-linecap="round"/><circle cx="47.59" cy="15.60" r="7.60" fill="#2F3B4D" stroke="#2F3B4D" stroke-width="1" stroke-linejoin="round" stroke-linecap="round"/></svg>