<svg xmlns="http://www.w3.org/2000/svg" width="374.17172" height="485.76" viewBox="0 0 374.17172 485.76"><rect x="0" y="0" width="374.17172" height="485.76" fill="#FFFFFF"/><defs><marker id="arrow-0" viewBox="0 0 10 10" refX="5" refY="5" markerUnits="userSpaceOnUse" markerWidth="8" markerHeight="8" orient="auto"><path d="M 0 0 L 10 5 L 0 10 z" fill="#2F3B4D" stroke="#2F3B4D" stroke-width="1" stroke-dasharray="1,0"/></marker><marker id="arrow-start-0" viewBox="0 0 10 10" refX="4.5" refY="5" markerUnits="userSpaceOnUse" markerWidth="8" markerHeight="8" orient="auto"><path d="M 0 5 L 10 10 L 10 0 z" fill="#2F3B4D" stroke="#2F3B4D" stroke-width="1" stroke-dasharray="1,0"/></marker><marker id="arrow-state-0" viewBox="0 0 20 14" refX="19" refY="7" markerUnits="userSpaceOnUse" markerWidth="20" markerHeight="14" orient="auto"><path d="M 19 7 L 9 13 L 14 7 L 9 1 Z" fill="#2F3B4D" stroke="#2F3B4D" stroke-width="1" stroke-dasharray="1,0"/></marker></defs><rect x="34.40" y="35.20" width="331.77" height="36.00" rx="6" ry="6" fill="hsl(240.0000000000, 99.9999237061%, 92.2745056152%)" stroke="none"/><rect x="34.40" y="71.20" width="331.77" height="359.52" fill="hsl(240.0000000000, 87.9999237061%, 100.0000000000%)" stroke="none"/><line x1="34.40" y1="71.20" x2="366.17" y2="71.20" stroke="#7B88A8" stroke-width="1"/><rect x="34.40" y="35.20" width="331.77" height="395.52" rx="6" ry="6" fill="none" stroke="#7B88A8" stroke-width="1"/><text x="44.00" y="56.60" text-anchor="start" font-family="'trebuchet ms', verdana, arial, sans-serif" font-size="13.6" fill="#333333" font-weight="600"><tspan x="44.00" dy="0.00">Active</tspan></text><rect x="46.40" y="47.20" width="228.83" height="36.00" rx="6" ry="6" fill="hsl(240.0000000000, 99.9999237061%, 92.2745056152%)" stroke="none"/><rect x="46.40" y="83.20" width="228.83" height="335.52" fill="hsl(240.0000000000, 87.9999237061%, 100.0000000000%)" stroke="none"/><line x1="46.40" y1="83.20" x2="275.23" y2="83.20" stroke="#7B88A8" stroke-width="1"/><rect x="46.40" y="47.20" width="228.83" height="371.52" rx="6" ry="6" fill="none" stroke="#7B88A8" stroke-width="1"/><text x="56.00" y="68.60" text-anchor="start" font-family="'trebuchet ms', verdana, arial, sans-serif" font-size="13.6" fill="#333333" font-weight="600"><tspan x="56.00" dy="0.00">Running</tspan></text><path d="M 179.465,22.984L 179.465,23.484C179.465,23.984,179.465,24.984,179.465,25.984C179.465,26.984,179.465,27.984,179.965,28.489C180.465,28.994,181.465,29.005,184.435,29.035C187.405,29.066,192.346,29.118,195.316,29.148C198.286,29.179,199.286,29.190,199.786,29.695C200.286,30.200,200.286,31.200,200.286,32.200C200.286,33.200,200.286,34.200,200.286,34.700L 200.286,35.200" fill="none" stroke="#2F3B4D" stroke-width="1" marker-end="url(#arrow-state-0)"   stroke-linecap="round" stroke-linejoin="round" /><path d="M 77.384,89.000L 71.853,89.000C66.322,89.000,55.260,89.000,47.730,89.000C40.199,89.000,36.199,89.000,34.199,87.000C32.199,85.000,32.199,81.000,32.199,76.200C32.199,71.400,32.199,65.800,32.199,61.000C32.199,56.200,32.199,52.200,34.199,50.200C36.199,48.200,40.199,48.200,61.468,48.200C82.737,48.200,121.275,48.200,140.545,48.200L 159.814,48.200" fill="none" stroke="#2F3B4D" stroke-width="1" marker-end="url(#arrow-state-0)"   stroke-linecap="round" stroke-linejoin="round" /><path d="M 159.814,417.720L 159.314,417.720C158.814,417.720,157.814,417.720,156.814,417.720C155.814,417.720,154.814,417.720,154.272,417.222C153.731,416.723,153.648,415.727,153.154,409.805C152.661,403.883,151.757,393.037,151.263,387.115C150.770,381.193,150.687,380.197,150.145,379.698C149.604,379.200,148.604,379.200,147.604,379.200C146.604,379.200,145.604,379.200,145.104,379.200L 144.604,379.200" fill="none" stroke="#2F3B4D" stroke-width="1" marker-end="url(#arrow-state-0)"   stroke-linecap="round" stroke-linejoin="round" /><rect x="269.30" y="387.38" width="38.53" height="23.60" rx="2" ry="2" fill="rgba(248,250,252, 0.92)" fill-opacity="0.70" stroke="#7B88A8" stroke-opacity="0.25" stroke-width="0.8"/><text x="288.57" y="402.58" text-anchor="middle" font-family="'trebuchet ms', verdana, arial, sans-serif" font-size="13.6" fill="#333333"><tspan x="288.57" dy="0.00">pause</tspan></text><path d="M 103.502,355.680L 103.502,355.180C103.502,354.680,103.502,353.680,103.502,352.680C103.502,351.680,103.502,350.680,103.002,350.180C102.502,349.680,101.502,349.680,90.251,349.680C79.001,349.680,57.501,349.680,44.750,349.680C32.000,349.680,28.000,349.680,26.000,347.680C24.000,345.680,24.000,341.680,24.000,294.600C24.000,247.520,24.000,157.360,24.000,110.280C24.000,63.200,24.000,59.200,26.000,57.200C28.000,55.200,32.000,55.200,54.302,55.200C76.605,55.200,117.209,55.200,138.011,55.200C158.814,55.200,159.814,55.200,160.314,54.700C160.814,54.200,160.814,53.200,160.814,52.200C160.814,51.200,160.814,50.200,160.814,49.700L 160.814,49.200" fill="none" stroke="#2F3B4D" stroke-width="1" marker-end="url(#arrow-state-0)"   stroke-linecap="round" stroke-linejoin="round" /><rect x="107.34" y="10.48" width="45.04" height="23.60" rx="2" ry="2" fill="rgba(248,250,252, 0.92)" fill-opacity="0.70" stroke="#7B88A8" stroke-opacity="0.25" stroke-width="0.8"/><text x="129.86" y="25.68" text-anchor="middle" font-family="'trebuchet ms', verdana, arial, sans-serif" font-size="13.6" fill="#333333"><tspan x="129.86" dy="0.00">resume</tspan></text><path d="M 110.540,98.281L 110.540,98.781C110.540,99.281,110.540,100.281,110.540,101.281C110.540,102.281,110.540,103.281,110.854,104.170C111.169,105.058,111.798,105.836,113.117,107.467C114.437,109.098,116.446,111.583,117.766,113.214C119.085,114.845,119.714,115.623,120.028,116.511C120.343,117.400,120.343,118.400,120.343,119.400C120.343,120.400,120.343,121.400,120.343,121.900L 120.343,122.400" fill="none" stroke="#2F3B4D" stroke-width="1" marker-end="url(#arrow-state-0)"   stroke-linecap="round" stroke-linejoin="round" /><path d="M 120.343,169.440L 120.343,170.140C120.343,170.840,120.343,172.240,120.343,173.640C120.343,175.040,120.343,176.440,120.634,177.776C120.926,179.113,121.508,180.386,134.146,207.989C146.783,235.593,171.475,289.527,184.113,317.131C196.750,344.734,197.333,346.007,197.624,347.344C197.916,348.680,197.916,350.080,197.916,351.480C197.916,352.880,197.916,354.280,197.916,354.980L 197.916,355.680" fill="none" stroke="#2F3B4D" stroke-width="1" marker-end="url(#arrow-state-0)"   stroke-linecap="round" stroke-linejoin="round" /><rect x="263.36" y="194.22" width="38.53" height="23.60" rx="2" ry="2" fill="rgba(248,250,252, 0.92)" fill-opacity="0.70" stroke="#7B88A8" stroke-opacity="0.25" stroke-width="0.8"/><text x="282.63" y="209.42" text-anchor="middle" font-family="'trebuchet ms', verdana, arial, sans-serif" font-size="13.6" fill="#333333"><tspan x="282.63" dy="0.00">yield</tspan></text><path d="M 213.916,355.680L 213.916,354.980C213.916,354.280,213.916,352.880,213.916,351.480C213.916,350.080,213.916,348.680,213.624,347.344C213.333,346.007,212.750,344.734,200.113,317.131C187.475,289.527,162.783,235.593,150.146,207.989C137.508,180.386,136.926,179.113,136.634,177.776C136.343,176.440,136.343,175.040,136.343,173.640C136.343,172.240,136.343,170.840,136.343,170.140L 136.343,169.440" fill="none" stroke="#2F3B4D" stroke-width="1" marker-end="url(#arrow-state-0)"   stroke-linecap="round" stroke-linejoin="round" /><rect x="254.75" y="278.89" width="32.03" height="23.60" rx="2" ry="2" fill="rgba(248,250,252, 0.92)" fill-opacity="0.70" stroke="#7B88A8" stroke-opacity="0.25" stroke-width="0.8"/><text x="270.77" y="294.09" text-anchor="middle" font-family="'trebuchet ms', verdana, arial, sans-serif" font-size="13.6" fill="#333333"><tspan x="270.77" dy="0.00">wake</tspan></text><path d="M 199.286,429.720L 198.786,429.720C198.286,429.720,197.286,429.720,196.286,429.720C195.286,429.720,194.286,429.720,193.401,430.040C192.517,430.359,191.748,430.998,190.218,432.269C188.689,433.540,186.400,435.443,184.177,437.290C181.955,439.138,179.800,440.929,177.569,442.620C175.338,444.311,173.031,445.902,170.724,447.493C168.417,449.085,166.110,450.676,164.957,451.471L 163.803,452.267" fill="none" stroke="#2F3B4D" stroke-width="1" marker-end="url(#arrow-state-0)"   stroke-linecap="round" stroke-linejoin="round" /><rect x="180.55" y="453.68" width="32.03" height="23.60" rx="2" ry="2" fill="rgba(248,250,252, 0.92)" fill-opacity="0.70" stroke="#7B88A8" stroke-opacity="0.25" stroke-width="0.8"/><text x="196.56" y="468.88" text-anchor="middle" font-family="'trebuchet ms', verdana, arial, sans-serif" font-size="13.6" fill="#333333"><tspan x="196.56" dy="0.00">stop</tspan></text><path d="M 118.491,430.720L 118.491,430.220C118.491,429.720,118.491,428.720,118.491,427.720C118.491,426.720,118.491,425.720,117.991,425.220C117.491,424.720,116.491,424.720,100.076,424.720C83.661,424.720,51.830,424.720,33.915,424.720C16.000,424.720,12.000,424.720,11.994,424.872C11.988,425.025,15.977,425.329,53.275,428.177C90.573,431.025,161.180,436.415,198.478,439.263C235.776,442.111,239.764,442.415,240.742,440.845C241.720,439.275,239.687,435.830,201.411,370.966C163.136,306.102,88.617,179.818,50.341,114.954C12.066,50.090,10.033,46.645,11.016,44.922C12.000,43.200,16.000,43.200,47.548,43.200C79.095,43.200,138.191,43.200,168.238,43.200C198.286,43.200,199.286,43.200,199.786,42.700C200.286,42.200,200.286,41.200,200.286,40.200C200.286,39.200,200.286,38.200,200.286,37.700L 200.286,37.200" fill="none" stroke="#2F3B4D" stroke-width="1" marker-end="url(#arrow-state-0)"   stroke-linecap="round" stroke-linejoin="round" /><rect x="212.69" y="421.97" width="51.55" height="23.60" rx="2" ry="2" fill="rgba(248,250,252, 0.92)" fill-opacity="0.70" stroke="#7B88A8" stroke-opacity="0.25" stroke-width="0.8"/><text x="238.47" y="437.17" text-anchor="middle" font-family="'trebuchet ms', verdana, arial, sans-serif" font-size="13.6" fill="#333333"><tspan x="238.47" dy="0.00">restart</tspan></text><path d="M 163.803,442.859L 164.303,442.859C164.803,442.859,165.803,442.859,166.803,442.859C167.803,442.859,168.803,442.859,168.818,442.738C168.833,442.618,167.862,442.377,164.090,441.441C160.318,440.505,153.745,438.874,149.973,437.938C146.201,437.002,145.230,436.761,145.245,436.640C145.259,436.520,146.259,436.520,147.259,436.520C148.259,436.520,149.259,436.520,149.759,436.520L 150.259,436.520" fill="none" stroke="#2F3B4D" stroke-width="1" marker-end="url(#arrow-state-0)"   stroke-linecap="round" stroke-linejoin="round" /><rect x="62.40" y="355.68" width="82.20" height="47.04" rx="10" ry="10" fill="#ECECFF" stroke="#7B88A8" stroke-width="1" stroke-linejoin="round" stroke-linecap="round"/><text x="103.50" y="382.60" text-anchor="middle" font-family="'trebuchet ms', verdana, arial, sans-serif" font-size="13.6" fill="#333333"><tspan x="103.50" dy="0.00">Paused</tspan></text><rect x="62.40" y="122.40" width="115.89" height="47.04" rx="10" ry="10" fill="#ECECFF" stroke="#7B88A8" stroke-width="1" stroke-linejoin="round" stroke-linecap="round"/><text x="120.34" y="149.32" text-anchor="middle" font-family="'trebuchet ms', verdana, arial, sans-serif" font-size="13.6" fill="#333333"><tspan x="120.34" dy="0.00">Processing</tspan></text><rect x="73.18" y="430.72" width="90.62" height="47.04" rx="10" ry="10" fill="#ECECFF" stroke="#7B88A8" stroke-width="1" stroke-linejoin="round" stroke-linecap="round"/><text x="118.49" y="457.64" text-anchor="middle" font-family="'trebuchet ms', verdana, arial, sans-serif" font-size="13.6" fill="#333333"><tspan x="118.49" dy="0.00">Stopped</tspan></text><rect x="168.60" y="355.68" width="90.62" height="47.04" rx="10" ry="10" fill="#ECECFF" stroke="#7B88A8" stroke-width="1" stroke-linejoin="round" stroke-linecap="round"/><text x="213.92" y="382.60" text-anchor="middle" font-family="'trebuchet ms', verdana, arial, sans-serif" font-size="13.6" fill="#333333"><tspan x="213.92" dy="0.00">Waiting</tspan></text><circle cx="157.64" cy="438.32" r="7.60" fill="#7B88A8" stroke="#7B88A8" stroke-width="1" stroke-linejoin="round" stroke-linecap="round"/><circle cx="157.64" cy="438.32" r="3.60" fill="#FFFFFF" stroke="#FFFFFF" stroke-width="1.2" stroke-linejoin="round" stroke-linecap="round"/><circle cx="177.67" cy="15.60" r="7.60" fill="#2F3B4D" stroke="#2F3B4D" stroke-width="1" stroke-linejoin="round" stroke-linecap="round"/><circle cx="70.00" cy="90.80" r="7.60" fill="#2F3B4D" stroke="#2F3B4D" stroke-width="1" stroke-linejoin="round" stroke-linecap="round"/><circle cx="109.20" cy="90.80" r="7.60" fill="#2F3B4D" stroke="#2F3B4D" stroke-width="1" stroke-linejoin="round" stroke-linecap="round"/></svg>