<svg xmlns="http://www.w3.org/2000/svg" width="361.04" height="788" viewBox="0 0 361.04 788"><rect width="100%" height="100%" fill="#FFFFFF"/><defs><marker id="arrow-0" viewBox="0 0 10 10" refX="5" refY="5" markerUnits="userSpaceOnUse" markerWidth="8" markerHeight="8" orient="auto"><path d="M 0 0 L 10 5 L 0 10 z" fill="#333333"/></marker><marker id="arrow-start-0" viewBox="0 0 10 10" refX="4.5" refY="5" markerUnits="userSpaceOnUse" markerWidth="8" markerHeight="8" orient="auto"><path d="M 0 5 L 10 10 L 10 0 z" fill="#333333"/></marker><marker id="arrow-state-0" viewBox="0 0 20 14" refX="19" refY="7" markerUnits="userSpaceOnUse" markerWidth="20" markerHeight="14" orient="auto"><path d="M 19 7 L 9 13 L 14 7 L 9 1 Z" fill="#333333" stroke="#333333"/></marker></defs><rect x="85.88" y="208.80" width="177.20" height="350.40" rx="5" ry="5" fill="#ECECFF" stroke="#9370DB" stroke-width="1"/><rect x="85.88" y="236.80" width="177.20" height="322.40" fill="#FFFFFF" stroke="none"/><text x="97.88" y="226.80" text-anchor="start" font-family="'trebuchet ms', verdana, arial, sans-serif" font-size="16" fill="#333333"><tspan x="97.88" dy="0.00">Processing</tspan></text><path d="M 166.480,45.000C166.480,53.275,166.480,65.688,166.480,69.825C166.480,73.962,166.480,65.688,166.480,69.825C166.480,73.962,166.480,86.375,166.480,94.650" fill="none" stroke="#333333" stroke-width="1" marker-end="url(#arrow-state-0)"   stroke-linecap="round" stroke-linejoin="round" /><path d="M 166.480,151.350C166.480,160.925,165.147,175.288,166.480,180.075C167.813,184.863,173.147,175.288,174.480,180.075C175.813,184.863,174.480,199.225,174.480,208.800" fill="none" stroke="#333333" stroke-width="1" marker-end="url(#arrow-state-0)"   stroke-linecap="round" stroke-linejoin="round" /><rect x="144.88" y="166.08" width="51.20" height="28.00" rx="0" ry="0" fill="#ECECFF" fill-opacity="0.5" stroke="none"/><text x="170.48" y="184.08" text-anchor="middle" font-family="'trebuchet ms', verdana, arial, sans-serif" font-size="16" fill="#333333"><tspan x="170.48" dy="0.00">submit</tspan></text><path d="M 174.480,559.200C174.480,566.108,186.733,576.471,174.480,579.925C162.227,583.379,113.213,576.471,100.960,579.925C88.707,583.379,100.960,593.742,100.960,600.650" fill="none" stroke="#333333" stroke-width="1" marker-end="url(#arrow-state-0)"   stroke-linecap="round" stroke-linejoin="round" /><rect x="104.92" y="565.93" width="65.60" height="28.00" rx="0" ry="0" fill="#ECECFF" fill-opacity="0.5" stroke="none"/><text x="137.72" y="583.93" text-anchor="middle" font-family="'trebuchet ms', verdana, arial, sans-serif" font-size="16" fill="#333333"><tspan x="137.72" dy="0.00">complete</tspan></text><path d="M 174.480,559.200C174.480,566.108,159.920,576.471,174.480,579.925C189.040,583.379,247.280,576.471,261.840,579.925C276.400,583.379,261.840,593.742,261.840,600.650" fill="none" stroke="#333333" stroke-width="1" marker-end="url(#arrow-state-0)"   stroke-linecap="round" stroke-linejoin="round" /><rect x="199.76" y="533.93" width="36.80" height="28.00" rx="0" ry="0" fill="#ECECFF" fill-opacity="0.5" stroke="none"/><text x="218.16" y="551.93" text-anchor="middle" font-family="'trebuchet ms', verdana, arial, sans-serif" font-size="16" fill="#333333"><tspan x="218.16" dy="0.00">fail</tspan></text><path d="M 68.480,600.650C55.613,600.650,36.313,675.533,29.880,600.650C23.447,525.767,10.183,226.233,29.880,151.350C49.577,76.467,108.667,151.350,148.060,151.350" fill="none" stroke="#333333" stroke-width="1" marker-end="url(#arrow-state-0)"   stroke-linecap="round" stroke-linejoin="round" /><rect x="7.88" y="362.00" width="44.00" height="28.00" rx="0" ry="0" fill="#ECECFF" fill-opacity="0.5" stroke="none"/><text x="29.88" y="380.00" text-anchor="middle" font-family="'trebuchet ms', verdana, arial, sans-serif" font-size="16" fill="#333333"><tspan x="29.88" dy="0.00">reset</tspan></text><path d="M 234.640,600.650C262.787,600.650,305.007,675.533,319.080,600.650C333.153,525.767,341.443,226.233,319.080,151.350C296.717,76.467,229.627,151.350,184.900,151.350" fill="none" stroke="#333333" stroke-width="1" marker-end="url(#arrow-state-0)"   stroke-linecap="round" stroke-linejoin="round" /><rect x="297.08" y="362.00" width="44.00" height="28.00" rx="0" ry="0" fill="#ECECFF" fill-opacity="0.5" stroke="none"/><text x="319.08" y="380.00" text-anchor="middle" font-family="'trebuchet ms', verdana, arial, sans-serif" font-size="16" fill="#333333"><tspan x="319.08" dy="0.00">retry</tspan></text><path d="M 248.240,657.350C248.240,665.660,261.517,678.126,248.240,682.281C234.963,686.436,181.857,678.126,168.580,682.281C155.303,686.436,168.580,698.902,168.580,707.212" fill="none" stroke="#333333" stroke-width="1" marker-end="url(#arrow-state-0)"   stroke-linecap="round" stroke-linejoin="round" /><rect x="186.41" y="668.28" width="44.00" height="28.00" rx="0" ry="0" fill="#ECECFF" fill-opacity="0.5" stroke="none"/><text x="208.41" y="686.28" text-anchor="middle" font-family="'trebuchet ms', verdana, arial, sans-serif" font-size="16" fill="#333333"><tspan x="208.41" dy="0.00">abort</tspan></text><path d="M 84.720,657.350C84.720,665.660,71.443,678.126,84.720,682.281C97.997,686.436,151.103,678.126,164.380,682.281C177.657,686.436,164.380,698.902,164.380,707.212" fill="none" stroke="#333333" stroke-width="1" marker-end="url(#arrow-state-0)"   stroke-linecap="round" stroke-linejoin="round" /><rect x="106.15" y="668.28" width="36.80" height="28.00" rx="0" ry="0" fill="#ECECFF" fill-opacity="0.5" stroke="none"/><text x="124.55" y="686.28" text-anchor="middle" font-family="'trebuchet ms', verdana, arial, sans-serif" font-size="16" fill="#333333"><tspan x="124.55" dy="0.00">done</tspan></text><path d="M 174.480,260.200C174.480,268.475,174.480,280.888,174.480,285.025C174.480,289.162,174.480,280.887,174.480,285.025C174.480,289.163,174.480,301.575,174.480,309.850" fill="none" stroke="#333333" stroke-width="1" marker-end="url(#arrow-state-0)"   stroke-linecap="round" stroke-linejoin="round" /><path d="M 174.480,366.550C174.480,374.767,174.480,387.092,174.480,391.200C174.480,395.308,174.480,387.092,174.480,391.200C174.480,395.308,174.480,407.633,174.480,415.850" fill="none" stroke="#333333" stroke-width="1" marker-end="url(#arrow-state-0)"   stroke-linecap="round" stroke-linejoin="round" /><path d="M 174.480,472.550C174.480,480.825,174.480,493.237,174.480,497.375C174.480,501.513,174.480,493.237,174.480,497.375C174.480,501.513,174.480,513.925,174.480,522.200" fill="none" stroke="#333333" stroke-width="1" marker-end="url(#arrow-state-0)"   stroke-linecap="round" stroke-linejoin="round" /><rect x="195.44" y="600.65" width="105.60" height="56.70" rx="10" ry="10" fill="#ECECFF" stroke="#9370DB" stroke-width="1" stroke-linejoin="round" stroke-linecap="round"/><text x="248.24" y="633.00" text-anchor="middle" font-family="'trebuchet ms', verdana, arial, sans-serif" font-size="16" fill="#333333"><tspan x="248.24" dy="0.00">Error</tspan></text><rect x="105.84" y="415.85" width="137.28" height="56.70" rx="10" ry="10" fill="#ECECFF" stroke="#9370DB" stroke-width="1" stroke-linejoin="round" stroke-linecap="round"/><text x="174.48" y="448.20" text-anchor="middle" font-family="'trebuchet ms', verdana, arial, sans-serif" font-size="16" fill="#333333"><tspan x="174.48" dy="0.00">Executing</tspan></text><rect x="117.64" y="94.65" width="97.68" height="56.70" rx="10" ry="10" fill="#ECECFF" stroke="#9370DB" stroke-width="1" stroke-linejoin="round" stroke-linecap="round"/><text x="166.48" y="127.00" text-anchor="middle" font-family="'trebuchet ms', verdana, arial, sans-serif" font-size="16" fill="#333333"><tspan x="166.48" dy="0.00">Idle</tspan></text><rect x="24.00" y="600.65" width="121.44" height="56.70" rx="10" ry="10" fill="#ECECFF" stroke="#9370DB" stroke-width="1" stroke-linejoin="round" stroke-linecap="round"/><text x="84.72" y="633.00" text-anchor="middle" font-family="'trebuchet ms', verdana, arial, sans-serif" font-size="16" fill="#333333"><tspan x="84.72" dy="0.00">Success</tspan></text><rect x="101.88" y="309.85" width="145.20" height="56.70" rx="10" ry="10" fill="#ECECFF" stroke="#9370DB" stroke-width="1" stroke-linejoin="round" stroke-linecap="round"/><text x="174.48" y="342.20" text-anchor="middle" font-family="'trebuchet ms', verdana, arial, sans-serif" font-size="16" fill="#333333"><tspan x="174.48" dy="0.00">Validating</tspan></text><circle cx="174.48" cy="532.70" r="10.50" fill="#9370DB" stroke="#9370DB" stroke-width="1" stroke-linejoin="round" stroke-linecap="round"/><circle cx="174.48" cy="532.70" r="6.50" fill="#FFFFFF" stroke="#FFFFFF" stroke-width="1.2" stroke-linejoin="round" stroke-linecap="round"/><circle cx="166.48" cy="717.50" r="10.50" fill="#9370DB" stroke="#9370DB" stroke-width="1" stroke-linejoin="round" stroke-linecap="round"/><circle cx="166.48" cy="717.50" r="6.50" fill="#FFFFFF" stroke="#FFFFFF" stroke-width="1.2" stroke-linejoin="round" stroke-linecap="round"/><circle cx="166.48" cy="34.50" r="10.50" fill="#333333" stroke="#333333" stroke-width="1" stroke-linejoin="round" stroke-linecap="round"/><circle cx="174.48" cy="249.70" r="10.50" fill="#333333" stroke="#333333" stroke-width="1" stroke-linejoin="round" stroke-linecap="round"/></svg>