<svg xmlns="http://www.w3.org/2000/svg" width="111.882935" height="372.8715" viewBox="0 0 111.882935 372.8715"><rect x="0" y="0" width="111.882935" height="372.8715" fill="#FFFFFF"/><defs><marker id="arrow-0" viewBox="0 0 10 10" refX="5" refY="5" markerUnits="userSpaceOnUse" markerWidth="8" markerHeight="8" orient="auto"><path d="M 0 0 L 10 5 L 0 10 z" fill="#333333" stroke="#333333" stroke-width="1" stroke-dasharray="1,0"/></marker><marker id="arrow-start-0" viewBox="0 0 10 10" refX="4.5" refY="5" markerUnits="userSpaceOnUse" markerWidth="8" markerHeight="8" orient="auto"><path d="M 0 5 L 10 10 L 10 0 z" fill="#333333" stroke="#333333" stroke-width="1" stroke-dasharray="1,0"/></marker><marker id="arrow-state-0" viewBox="0 0 20 14" refX="19" refY="7" markerUnits="userSpaceOnUse" markerWidth="20" markerHeight="14" orient="auto"><path d="M 19 7 L 9 13 L 14 7 L 9 1 Z" fill="#333333" stroke="#333333" stroke-width="1" stroke-dasharray="1,0"/></marker></defs><rect x="8.00" y="119.49" width="95.88" height="204.10" rx="5" ry="5" fill="#ECECFF" stroke="#9370DB" stroke-width="1"/><rect x="8.00" y="147.49" width="95.88" height="176.10" fill="#FFFFFF" stroke="none"/><text x="20.00" y="136.89" text-anchor="start" font-family="'trebuchet ms', verdana, arial, sans-serif" font-size="13.6" fill="#333333"><tspan x="20.00" dy="0.00">Working</tspan></text><path d="M 55.941,25.280 L 55.941,49.280" fill="none" stroke="#333333" stroke-width="1" marker-end="url(#arrow-state-0)"   stroke-linecap="round" stroke-linejoin="round" /><path d="M 55.941,95.490 L 55.941,119.490" fill="none" stroke="#333333" stroke-width="1" marker-end="url(#arrow-state-0)"   stroke-linecap="round" stroke-linejoin="round" /><rect x="36.67" y="95.69" width="38.53" height="23.60" rx="2" ry="2" fill="rgba(232,232,232, 0.8)" fill-opacity="0.70" stroke="#9370DB" stroke-opacity="0.25" stroke-width="0.8"/><text x="55.94" y="110.89" text-anchor="middle" font-family="'trebuchet ms', verdana, arial, sans-serif" font-size="13.6" fill="#333333"><tspan x="55.94" dy="0.00">start</tspan></text><path d="M 32.640,167.170L 32.640,167.674C32.640,168.178,32.640,169.186,32.640,170.194C32.640,171.202,32.640,172.210,33.089,172.944C33.538,173.677,34.435,174.136,37.870,175.890C41.305,177.645,47.277,180.696,50.711,182.451C54.146,184.205,55.044,184.664,55.493,185.397C55.941,186.130,55.941,187.138,55.941,188.146C55.941,189.154,55.941,190.162,55.941,190.666L 55.941,191.170" fill="none" stroke="#333333" stroke-width="1" marker-end="url(#arrow-state-0)"   stroke-linecap="round" stroke-linejoin="round" /><path d="M 55.941,237.381 L 55.941,261.381" fill="none" stroke="#333333" stroke-width="1" marker-end="url(#arrow-state-0)"   stroke-linecap="round" stroke-linejoin="round" /><path d="M 55.941,323.591 L 55.942,347.591" fill="none" stroke="#333333" stroke-width="1" marker-end="url(#arrow-state-0)"   stroke-linecap="round" stroke-linejoin="round" /><rect x="28.21" y="49.28" width="55.46" height="46.21" rx="10" ry="10" fill="#ECECFF" stroke="#9370DB" stroke-width="1" stroke-linejoin="round" stroke-linecap="round"/><text x="55.94" y="75.79" text-anchor="middle" font-family="'trebuchet ms', verdana, arial, sans-serif" font-size="13.6" fill="#333333"><tspan x="55.94" dy="0.00">Idle</tspan></text><rect x="24.00" y="191.17" width="63.88" height="46.21" rx="10" ry="10" fill="#ECECFF" stroke="#9370DB" stroke-width="1" stroke-linejoin="round" stroke-linecap="round"/><text x="55.94" y="217.68" text-anchor="middle" font-family="'trebuchet ms', verdana, arial, sans-serif" font-size="13.6" fill="#333333"><tspan x="55.94" dy="0.00">TaskA</tspan></text><rect x="24.00" y="261.38" width="63.88" height="46.21" rx="10" ry="10" fill="#ECECFF" stroke="#9370DB" stroke-width="1" stroke-linejoin="round" stroke-linecap="round"/><text x="55.94" y="287.89" text-anchor="middle" font-family="'trebuchet ms', verdana, arial, sans-serif" font-size="13.6" fill="#333333"><tspan x="55.94" dy="0.00">TaskB</tspan></text><circle cx="55.94" cy="356.23" r="8.64" fill="#9370DB" stroke="#9370DB" stroke-width="1" stroke-linejoin="round" stroke-linecap="round"/><circle cx="55.94" cy="356.23" r="4.64" fill="#FFFFFF" stroke="#FFFFFF" stroke-width="1.2" stroke-linejoin="round" stroke-linecap="round"/><circle cx="55.94" cy="16.64" r="8.64" fill="#333333" stroke="#333333" stroke-width="1" stroke-linejoin="round" stroke-linecap="round"/><circle cx="32.64" cy="158.53" r="8.64" fill="#333333" stroke="#333333" stroke-width="1" stroke-linejoin="round" stroke-linecap="round"/></svg>