<svg xmlns="http://www.w3.org/2000/svg" width="168.58952" height="240.33372" viewBox="0 0 168.58952 240.33372"><rect x="0" y="0" width="168.58952" height="240.33372" fill="#FFFFFF"/><defs><marker id="arrow-0" viewBox="0 0 10 10" refX="5" refY="5" markerUnits="userSpaceOnUse" markerWidth="8" markerHeight="8" orient="auto"><path d="M 0 0 L 10 5 L 0 10 z" fill="#2F3B4D" stroke="#2F3B4D" stroke-width="1" stroke-dasharray="1,0"/></marker><marker id="arrow-start-0" viewBox="0 0 10 10" refX="4.5" refY="5" markerUnits="userSpaceOnUse" markerWidth="8" markerHeight="8" orient="auto"><path d="M 0 5 L 10 10 L 10 0 z" fill="#2F3B4D" stroke="#2F3B4D" stroke-width="1" stroke-dasharray="1,0"/></marker><marker id="arrow-state-0" viewBox="0 0 20 14" refX="19" refY="7" markerUnits="userSpaceOnUse" markerWidth="20" markerHeight="14" orient="auto"><path d="M 19 7 L 9 13 L 14 7 L 9 1 Z" fill="#2F3B4D" stroke="#2F3B4D" stroke-width="1" stroke-dasharray="1,0"/></marker></defs><path d="M 36.988,23.197L 36.988,23.697C36.988,24.197,36.988,25.197,36.988,26.197C36.988,27.197,36.988,28.197,37.022,29.195C37.056,30.194,37.125,31.192,37.611,38.268C38.098,45.344,39.002,58.499,39.488,65.575C39.974,72.652,40.043,73.649,40.077,74.648C40.111,75.647,40.111,76.647,40.111,77.647C40.111,78.647,40.111,79.647,40.111,80.147L 40.111,80.647" fill="none" stroke="#2F3B4D" stroke-width="1" marker-end="url(#arrow-state-0)"   stroke-linecap="round" stroke-linejoin="round" /><path d="M 47.506,127.687L 47.506,128.434C47.506,129.181,47.506,130.674,47.506,132.168C47.506,133.662,47.506,135.156,47.907,136.532C48.309,137.908,49.113,139.167,51.528,142.949C53.943,146.732,57.970,153.037,60.616,157.182C63.262,161.327,64.529,163.310,65.896,165.222C67.263,167.133,68.731,168.973,69.733,170.229C70.735,171.485,71.272,172.157,72.005,173.076C72.739,173.996,73.671,175.164,74.137,176.494C74.603,177.825,74.603,179.319,74.603,180.813C74.603,182.306,74.603,183.800,74.603,184.547L 74.603,185.294" fill="none" stroke="#2F3B4D" stroke-width="1" marker-end="url(#arrow-state-0)"   stroke-linecap="round" stroke-linejoin="round" /><rect x="46.53" y="153.49" width="38.53" height="23.60" rx="2" ry="2" fill="rgba(248,250,252, 0.92)" fill-opacity="0.70" stroke="#7B88A8" stroke-opacity="0.25" stroke-width="0.8"/><text x="65.80" y="168.69" text-anchor="middle" font-family="'trebuchet ms', verdana, arial, sans-serif" font-size="13.6" fill="#333333"><tspan x="65.80" dy="0.00">start</tspan></text><path d="M 113.173,55.040L 113.173,55.787C113.173,56.534,113.173,58.027,113.173,59.521C113.173,61.015,113.173,62.509,113.054,63.993C112.934,65.477,112.696,66.952,109.786,84.936C106.877,102.920,101.296,137.414,98.387,155.398C95.477,173.382,95.239,174.857,95.119,176.341C95.000,177.825,95.000,179.319,95.000,180.813C95.000,182.306,95.000,183.800,95.000,184.547L 95.000,185.294" fill="none" stroke="#2F3B4D" stroke-width="1" marker-end="url(#arrow-state-0)"   stroke-linecap="round" stroke-linejoin="round" /><rect x="46.66" y="185.29" width="82.20" height="47.04" rx="10" ry="10" fill="#ECECFF" stroke="#7B88A8" stroke-width="1" stroke-linejoin="round" stroke-linecap="round"/><text x="87.76" y="212.21" text-anchor="middle" font-family="'trebuchet ms', verdana, arial, sans-serif" font-size="13.6" fill="#333333"><tspan x="87.76" dy="0.00">Active</tspan></text><rect x="8.00" y="80.65" width="65.36" height="47.04" rx="10" ry="10" fill="#ECECFF" stroke="#7B88A8" stroke-width="1" stroke-linejoin="round" stroke-linecap="round"/><text x="40.68" y="107.57" text-anchor="middle" font-family="'trebuchet ms', verdana, arial, sans-serif" font-size="13.6" fill="#333333"><tspan x="40.68" dy="0.00">Idle</tspan></text><rect x="69.97" y="8.00" width="90.62" height="47.04" rx="10" ry="10" fill="#ECECFF" stroke="#7B88A8" stroke-width="1" stroke-linejoin="round" stroke-linecap="round"/><text x="115.28" y="34.92" text-anchor="middle" font-family="'trebuchet ms', verdana, arial, sans-serif" font-size="13.6" fill="#333333"><tspan x="115.28" dy="0.00">Waiting</tspan></text><circle cx="36.76" cy="15.60" r="7.60" fill="#2F3B4D" stroke="#2F3B4D" stroke-width="1" stroke-linejoin="round" stroke-linecap="round"/></svg>