<svg xmlns="http://www.w3.org/2000/svg" width="246.18268" height="465.5626" viewBox="0 0 246.18268 465.5626"><rect x="0" y="0" width="246.18268" height="465.5626" fill="#FFFFFF"/><defs><marker id="arrow-0" viewBox="0 0 10 10" refX="5" refY="5" markerUnits="userSpaceOnUse" markerWidth="8" markerHeight="8" orient="auto"><path d="M 0 0 L 10 5 L 0 10 z" fill="#2F3B4D" stroke="#2F3B4D" stroke-width="1" stroke-dasharray="1,0"/></marker><marker id="arrow-start-0" viewBox="0 0 10 10" refX="4.5" refY="5" markerUnits="userSpaceOnUse" markerWidth="8" markerHeight="8" orient="auto"><path d="M 0 5 L 10 10 L 10 0 z" fill="#2F3B4D" stroke="#2F3B4D" stroke-width="1" stroke-dasharray="1,0"/></marker><marker id="arrow-state-0" viewBox="0 0 20 14" refX="19" refY="7" markerUnits="userSpaceOnUse" markerWidth="20" markerHeight="14" orient="auto"><path d="M 19 7 L 9 13 L 14 7 L 9 1 Z" fill="#2F3B4D" stroke="#2F3B4D" stroke-width="1" stroke-dasharray="1,0"/></marker></defs><path d="M 124.879,23.200L 124.879,23.700C124.879,24.200,124.879,25.200,124.879,26.200C124.879,27.200,124.879,28.200,124.881,29.200C124.882,30.200,124.884,31.200,124.890,33.406C124.895,35.613,124.904,39.026,124.910,41.232C124.915,43.438,124.918,44.438,124.919,45.438C124.920,46.438,124.920,47.438,124.920,48.438C124.920,49.438,124.920,50.438,124.920,50.938L 124.920,51.438" fill="none" stroke="#2F3B4D" stroke-width="1" marker-end="url(#arrow-state-0)"   stroke-linecap="round" stroke-linejoin="round" /><path d="M 124.920,98.478L 124.920,99.302C124.920,100.126,124.920,101.773,124.920,103.420C124.920,105.067,124.920,106.714,124.922,108.362C124.924,110.009,124.927,111.656,124.934,114.660C124.940,117.664,124.949,122.024,124.956,125.028C124.962,128.031,124.966,129.679,124.968,131.326C124.969,132.973,124.969,134.620,124.969,136.268C124.969,137.915,124.969,139.562,124.969,140.386L 124.969,141.209" fill="none" stroke="#2F3B4D" stroke-width="1" marker-end="url(#arrow-state-0)"   stroke-linecap="round" stroke-linejoin="round" /><rect x="83.90" y="108.08" width="45.04" height="23.60" rx="2" ry="2" fill="rgba(248,250,252, 0.92)" fill-opacity="0.70" stroke="#7B88A8" stroke-opacity="0.25" stroke-width="0.8"/><text x="106.42" y="123.28" text-anchor="middle" font-family="'trebuchet ms', verdana, arial, sans-serif" font-size="13.6" fill="#333333"><tspan x="106.42" dy="0.00">submit</tspan></text><path d="M 108.969,188.249L 108.969,189.073C108.969,189.897,108.969,191.544,108.969,193.191C108.969,194.838,108.969,196.486,108.303,197.793C107.637,199.101,106.305,200.070,101.705,203.413C97.106,206.756,89.240,212.474,84.641,215.817C80.042,219.160,78.710,220.128,78.044,221.436C77.377,222.744,77.377,224.391,77.377,226.039C77.377,227.686,77.377,229.333,77.377,230.157L 77.377,230.980" fill="none" stroke="#2F3B4D" stroke-width="1" marker-end="url(#arrow-state-0)"   stroke-linecap="round" stroke-linejoin="round" /><rect x="67.40" y="197.81" width="51.55" height="23.60" rx="2" ry="2" fill="rgba(248,250,252, 0.92)" fill-opacity="0.70" stroke="#7B88A8" stroke-opacity="0.25" stroke-width="0.8"/><text x="93.17" y="213.01" text-anchor="middle" font-family="'trebuchet ms', verdana, arial, sans-serif" font-size="13.6" fill="#333333"><tspan x="93.17" dy="0.00">approve</tspan></text><path d="M 140.969,188.249L 140.969,189.073C140.969,189.897,140.969,191.544,140.969,193.191C140.969,194.838,140.969,196.486,141.636,197.792C142.303,199.099,143.637,200.066,148.252,203.410C152.867,206.754,160.763,212.476,165.378,215.820C169.993,219.164,171.326,220.130,171.993,221.437C172.660,222.744,172.660,224.391,172.660,226.039C172.660,227.686,172.660,229.333,172.660,230.157L 172.660,230.980" fill="none" stroke="#2F3B4D" stroke-width="1" marker-end="url(#arrow-state-0)"   stroke-linecap="round" stroke-linejoin="round" /><rect x="134.29" y="197.81" width="45.04" height="23.60" rx="2" ry="2" fill="rgba(248,250,252, 0.92)" fill-opacity="0.70" stroke="#7B88A8" stroke-opacity="0.25" stroke-width="0.8"/><text x="156.81" y="213.01" text-anchor="middle" font-family="'trebuchet ms', verdana, arial, sans-serif" font-size="13.6" fill="#333333"><tspan x="156.81" dy="0.00">reject</tspan></text><path d="M 61.377,278.020L 61.377,278.844C61.377,279.668,61.377,281.315,61.377,282.962C61.377,284.609,61.377,286.257,61.390,287.904C61.403,289.551,61.428,291.198,61.475,294.202C61.521,297.206,61.589,301.566,61.635,304.570C61.682,307.574,61.707,309.221,61.720,310.868C61.733,312.515,61.733,314.163,61.733,315.810C61.733,317.457,61.733,319.104,61.733,319.928L 61.733,320.752" fill="none" stroke="#2F3B4D" stroke-width="1" marker-end="url(#arrow-state-0)"   stroke-linecap="round" stroke-linejoin="round" /><rect x="35.78" y="287.59" width="51.55" height="23.60" rx="2" ry="2" fill="rgba(248,250,252, 0.92)" fill-opacity="0.70" stroke="#7B88A8" stroke-opacity="0.25" stroke-width="0.8"/><text x="61.55" y="302.79" text-anchor="middle" font-family="'trebuchet ms', verdana, arial, sans-serif" font-size="13.6" fill="#333333"><tspan x="61.55" dy="0.00">publish</tspan></text><path d="M 188.660,230.980L 188.660,212.544C188.660,194.108,188.660,157.235,188.660,136.798C188.660,116.362,188.660,112.362,186.660,110.362C184.660,108.362,180.660,108.362,173.527,108.362C166.394,108.362,156.128,108.362,150.171,108.362C144.215,108.362,142.567,108.362,141.744,107.538C140.920,106.714,140.920,105.067,140.920,103.420C140.920,101.773,140.920,100.126,140.920,99.302L 140.920,98.478" fill="none" stroke="#2F3B4D" stroke-width="1" marker-end="url(#arrow-state-0)"   stroke-linecap="round" stroke-linejoin="round" /><rect x="174.08" y="104.99" width="45.04" height="23.60" rx="2" ry="2" fill="rgba(248,250,252, 0.92)" fill-opacity="0.70" stroke="#7B88A8" stroke-opacity="0.25" stroke-width="0.8"/><text x="196.60" y="120.19" text-anchor="middle" font-family="'trebuchet ms', verdana, arial, sans-serif" font-size="13.6" fill="#333333"><tspan x="196.60" dy="0.00">revise</tspan></text><path d="M 61.733,367.792L 61.733,368.615C61.733,369.439,61.733,371.086,61.733,372.733C61.733,374.380,61.733,376.028,61.735,377.675C61.737,379.322,61.742,380.969,61.751,383.973C61.759,386.977,61.772,391.337,61.780,394.341C61.789,397.345,61.793,398.992,61.796,400.639C61.798,402.286,61.798,403.934,61.798,405.581C61.798,407.228,61.798,408.875,61.798,409.699L 61.798,410.523" fill="none" stroke="#2F3B4D" stroke-width="1" marker-end="url(#arrow-state-0)"   stroke-linecap="round" stroke-linejoin="round" /><rect x="14.79" y="377.42" width="51.55" height="23.60" rx="2" ry="2" fill="rgba(248,250,252, 0.92)" fill-opacity="0.70" stroke="#7B88A8" stroke-opacity="0.25" stroke-width="0.8"/><text x="40.56" y="392.62" text-anchor="middle" font-family="'trebuchet ms', verdana, arial, sans-serif" font-size="13.6" fill="#333333"><tspan x="40.56" dy="0.00">archive</tspan></text><path d="M 77.733,367.792L 77.733,370.813C77.733,373.834,77.733,379.876,77.733,384.898C77.733,389.919,77.733,393.919,79.733,395.919C81.733,397.919,85.733,397.919,91.206,397.919C96.680,397.919,103.628,397.919,109.101,397.919C114.575,397.919,118.575,397.919,120.575,399.919C122.575,401.919,122.575,405.919,122.575,410.940C122.575,415.961,122.575,422.004,122.575,425.025L 122.575,428.046" fill="none" stroke="#2F3B4D" stroke-width="1" marker-end="url(#arrow-state-0)"   stroke-linecap="round" stroke-linejoin="round" /><path d="M 111.320,434.043L 111.820,434.043C112.320,434.043,113.320,434.043,114.320,434.043C115.320,434.043,116.320,434.043,116.326,434.117C116.332,434.191,115.343,434.340,114.748,434.430C114.153,434.519,113.953,434.549,113.358,434.639C112.763,434.728,111.775,434.877,111.780,434.952C111.786,435.026,112.786,435.026,113.786,435.026C114.786,435.026,115.786,435.026,116.286,435.026L 116.786,435.026" fill="none" stroke="#2F3B4D" stroke-width="1" marker-end="url(#arrow-state-0)"   stroke-linecap="round" stroke-linejoin="round" /><rect x="11.86" y="230.98" width="99.04" height="47.04" rx="10" ry="10" fill="#ECECFF" stroke="#7B88A8" stroke-width="1" stroke-linejoin="round" stroke-linecap="round"/><text x="61.38" y="257.90" text-anchor="middle" font-family="'trebuchet ms', verdana, arial, sans-serif" font-size="13.6" fill="#333333"><tspan x="61.38" dy="0.00">Approved</tspan></text><rect x="12.28" y="410.52" width="99.04" height="47.04" rx="10" ry="10" fill="#ECECFF" stroke="#7B88A8" stroke-width="1" stroke-linejoin="round" stroke-linecap="round"/><text x="61.80" y="437.44" text-anchor="middle" font-family="'trebuchet ms', verdana, arial, sans-serif" font-size="13.6" fill="#333333"><tspan x="61.80" dy="0.00">Archived</tspan></text><rect x="88.03" y="51.44" width="73.78" height="47.04" rx="10" ry="10" fill="#ECECFF" stroke="#7B88A8" stroke-width="1" stroke-linejoin="round" stroke-linecap="round"/><text x="124.92" y="78.36" text-anchor="middle" font-family="'trebuchet ms', verdana, arial, sans-serif" font-size="13.6" fill="#333333"><tspan x="124.92" dy="0.00">Draft</tspan></text><rect x="8.00" y="320.75" width="107.47" height="47.04" rx="10" ry="10" fill="#ECECFF" stroke="#7B88A8" stroke-width="1" stroke-linejoin="round" stroke-linecap="round"/><text x="61.73" y="347.67" text-anchor="middle" font-family="'trebuchet ms', verdana, arial, sans-serif" font-size="13.6" fill="#333333"><tspan x="61.73" dy="0.00">Published</tspan></text><rect x="139.14" y="230.98" width="99.04" height="47.04" rx="10" ry="10" fill="#ECECFF" stroke="#7B88A8" stroke-width="1" stroke-linejoin="round" stroke-linecap="round"/><text x="188.66" y="257.90" text-anchor="middle" font-family="'trebuchet ms', verdana, arial, sans-serif" font-size="13.6" fill="#333333"><tspan x="188.66" dy="0.00">Rejected</tspan></text><rect x="83.87" y="141.21" width="82.20" height="47.04" rx="10" ry="10" fill="#ECECFF" stroke="#7B88A8" stroke-width="1" stroke-linejoin="round" stroke-linecap="round"/><text x="124.97" y="168.13" text-anchor="middle" font-family="'trebuchet ms', verdana, arial, sans-serif" font-size="13.6" fill="#333333"><tspan x="124.97" dy="0.00">Review</tspan></text><circle cx="124.37" cy="435.43" r="7.60" fill="#7B88A8" stroke="#7B88A8" stroke-width="1" stroke-linejoin="round" stroke-linecap="round"/><circle cx="124.37" cy="435.43" r="3.60" fill="#FFFFFF" stroke="#FFFFFF" stroke-width="1.2" stroke-linejoin="round" stroke-linecap="round"/><circle cx="124.87" cy="15.60" r="7.60" fill="#2F3B4D" stroke="#2F3B4D" stroke-width="1" stroke-linejoin="round" stroke-linecap="round"/></svg>