<svg xmlns="http://www.w3.org/2000/svg" width="317.34882" height="413.91998" viewBox="0 0 317.34882 413.91998"><rect x="0" y="0" width="317.34882" height="413.91998" fill="#FFFFFF"/><defs><marker id="arrow-0" viewBox="0 0 10 10" refX="5" refY="5" markerUnits="userSpaceOnUse" markerWidth="8" markerHeight="8" orient="auto"><path d="M 0 0 L 10 5 L 0 10 z" fill="#2F3B4D" stroke="#2F3B4D" stroke-width="1" stroke-dasharray="1,0"/></marker><marker id="arrow-start-0" viewBox="0 0 10 10" refX="4.5" refY="5" markerUnits="userSpaceOnUse" markerWidth="8" markerHeight="8" orient="auto"><path d="M 0 5 L 10 10 L 10 0 z" fill="#2F3B4D" stroke="#2F3B4D" stroke-width="1" stroke-dasharray="1,0"/></marker><marker id="arrow-state-0" viewBox="0 0 20 14" refX="19" refY="7" markerUnits="userSpaceOnUse" markerWidth="20" markerHeight="14" orient="auto"><path d="M 19 7 L 9 13 L 14 7 L 9 1 Z" fill="#2F3B4D" stroke="#2F3B4D" stroke-width="1" stroke-dasharray="1,0"/></marker></defs><rect x="8.00" y="118.24" width="301.35" height="36.00" rx="6" ry="6" fill="hsl(240.0000000000, 99.9999237061%, 92.2745056152%)" stroke="none"/><rect x="8.00" y="154.24" width="301.35" height="141.44" fill="hsl(240.0000000000, 87.9999237061%, 100.0000000000%)" stroke="none"/><line x1="8.00" y1="154.24" x2="309.35" y2="154.24" stroke="#7B88A8" stroke-width="1"/><rect x="8.00" y="118.24" width="301.35" height="177.44" rx="6" ry="6" fill="none" stroke="#7B88A8" stroke-width="1"/><text x="17.60" y="139.64" text-anchor="start" font-family="'trebuchet ms', verdana, arial, sans-serif" font-size="13.6" fill="#333333" font-weight="600"><tspan x="17.60" dy="0.00">Active</tspan></text><path d="M 158.667,23.200 L 158.671,47.200" fill="none" stroke="#2F3B4D" stroke-width="1" marker-end="url(#arrow-state-0)"   stroke-linecap="round" stroke-linejoin="round" /><path d="M 158.671,94.240 L 158.674,118.240" fill="none" stroke="#2F3B4D" stroke-width="1" marker-end="url(#arrow-state-0)"   stroke-linecap="round" stroke-linejoin="round" /><path d="M 33.400,169.224L 33.400,169.724C33.400,170.224,33.400,171.224,33.400,172.224C33.400,173.224,33.400,174.224,33.857,174.927C34.314,175.630,35.228,176.036,39.353,177.869C43.478,179.702,50.814,182.962,54.939,184.795C59.064,186.628,59.978,187.034,60.435,187.737C60.891,188.440,60.891,189.440,60.891,190.440C60.891,191.440,60.891,192.440,60.891,192.940L 60.891,193.440" fill="none" stroke="#2F3B4D" stroke-width="1" marker-end="url(#arrow-state-0)"   stroke-linecap="round" stroke-linejoin="round" /><path d="M 78.184,163.640L 78.684,163.640C79.184,163.640,80.184,163.640,81.184,163.640C82.184,163.640,83.184,163.640,83.684,164.140C84.184,164.640,84.184,165.640,84.184,166.840C84.184,168.040,84.184,169.440,84.184,171.340C84.184,173.240,84.184,175.640,85.384,176.840C86.584,178.040,88.984,178.040,92.250,178.040C95.517,178.040,99.650,178.040,103.716,178.040C107.783,178.040,111.783,178.040,113.783,180.040C115.783,182.040,115.783,186.040,115.783,189.851C115.783,193.662,115.783,197.284,115.783,199.595C115.783,201.906,115.783,202.906,116.283,203.406C116.783,203.906,117.783,203.906,118.783,203.906C119.783,203.906,120.783,203.906,121.283,203.906L 121.783,203.906" fill="none" stroke="#2F3B4D" stroke-width="1" marker-end="url(#arrow-state-0)"   stroke-linecap="round" stroke-linejoin="round" /><path d="M 117.384,163.640L 131.414,163.640C145.444,163.640,173.505,163.640,189.536,163.640C205.566,163.640,209.566,163.640,211.566,165.640C213.566,167.640,213.566,171.640,213.566,177.913C213.566,184.185,213.566,192.730,213.566,197.503C213.566,202.276,213.566,203.276,214.066,203.776C214.566,204.276,215.566,204.276,216.566,204.276C217.566,204.276,218.566,204.276,219.066,204.276L 219.566,204.276" fill="none" stroke="#2F3B4D" stroke-width="1" marker-end="url(#arrow-state-0)"   stroke-linecap="round" stroke-linejoin="round" /><path d="M 60.891,240.480L 60.891,240.980C60.891,241.480,60.891,242.480,60.891,243.480C60.891,244.480,60.891,245.480,60.435,246.183C59.978,246.886,59.064,247.292,54.939,249.125C50.814,250.958,43.478,254.218,39.353,256.051C35.228,257.884,34.314,258.290,33.857,258.993C33.400,259.696,33.400,260.696,33.400,261.696C33.400,262.696,33.400,263.696,33.400,264.196L 33.400,264.696" fill="none" stroke="#2F3B4D" stroke-width="1" marker-end="url(#arrow-state-0)"   stroke-linecap="round" stroke-linejoin="round" /><path d="M 121.783,230.014L 121.283,230.014C120.783,230.014,119.783,230.014,118.783,230.014C117.783,230.014,116.783,230.014,116.283,230.514C115.783,231.014,115.783,232.014,115.783,236.539C115.783,241.065,115.783,249.117,115.783,255.143C115.783,261.169,115.783,265.169,113.783,267.169C111.783,269.169,107.783,269.169,94.922,269.169C82.062,269.169,60.341,269.169,49.481,269.169L 38.620,269.169" fill="none" stroke="#2F3B4D" stroke-width="1" marker-end="url(#arrow-state-0)"   stroke-linecap="round" stroke-linejoin="round" /><path d="M 219.566,225.854L 219.066,225.854C218.566,225.854,217.566,225.854,216.566,225.854C215.566,225.854,214.566,225.854,214.066,226.354C213.566,226.854,213.566,227.854,213.566,233.473C213.566,239.092,213.566,249.330,213.566,256.449C213.566,263.569,213.566,267.569,211.566,269.569C209.566,271.569,205.566,271.569,176.502,271.569C147.438,271.569,93.310,271.569,66.247,271.569L 39.183,271.569" fill="none" stroke="#2F3B4D" stroke-width="1" marker-end="url(#arrow-state-0)"   stroke-linecap="round" stroke-linejoin="round" /><path d="M 158.674,295.680 L 158.677,319.680" fill="none" stroke="#2F3B4D" stroke-width="1" marker-end="url(#arrow-state-0)"   stroke-linecap="round" stroke-linejoin="round" /><path d="M 158.677,366.720 L 158.679,390.720" fill="none" stroke="#2F3B4D" stroke-width="1" marker-end="url(#arrow-state-0)"   stroke-linecap="round" stroke-linejoin="round" /><rect x="125.59" y="319.68" width="66.18" height="47.04" rx="10" ry="10" fill="#ECECFF" stroke="#7B88A8" stroke-width="1" stroke-linejoin="round" stroke-linecap="round"/><text x="158.68" y="346.60" text-anchor="middle" font-family="'trebuchet ms', verdana, arial, sans-serif" font-size="13.6" fill="#333333"><tspan x="158.68" dy="0.00">Done</tspan></text><rect x="121.78" y="47.20" width="73.78" height="47.04" rx="10" ry="10" fill="#ECECFF" stroke="#7B88A8" stroke-width="1" stroke-linejoin="round" stroke-linecap="round"/><text x="158.67" y="74.12" text-anchor="middle" font-family="'trebuchet ms', verdana, arial, sans-serif" font-size="13.6" fill="#333333"><tspan x="158.67" dy="0.00">Ready</tspan></text><rect x="24.00" y="193.44" width="73.78" height="47.04" rx="10" ry="10" fill="#ECECFF" stroke="#7B88A8" stroke-width="1" stroke-linejoin="round" stroke-linecap="round"/><text x="60.89" y="220.36" text-anchor="middle" font-family="'trebuchet ms', verdana, arial, sans-serif" font-size="13.6" fill="#333333"><tspan x="60.89" dy="0.00">TaskA</tspan></text><rect x="121.78" y="193.44" width="73.78" height="47.04" rx="10" ry="10" fill="#ECECFF" stroke="#7B88A8" stroke-width="1" stroke-linejoin="round" stroke-linecap="round"/><text x="158.67" y="220.36" text-anchor="middle" font-family="'trebuchet ms', verdana, arial, sans-serif" font-size="13.6" fill="#333333"><tspan x="158.67" dy="0.00">TaskB</tspan></text><rect x="219.57" y="193.44" width="73.78" height="47.04" rx="10" ry="10" fill="#ECECFF" stroke="#7B88A8" stroke-width="1" stroke-linejoin="round" stroke-linecap="round"/><text x="256.46" y="220.36" text-anchor="middle" font-family="'trebuchet ms', verdana, arial, sans-serif" font-size="13.6" fill="#333333"><tspan x="256.46" dy="0.00">TaskC</tspan></text><circle cx="31.60" cy="272.08" r="7.60" fill="#7B88A8" stroke="#7B88A8" stroke-width="1" stroke-linejoin="round" stroke-linecap="round"/><circle cx="31.60" cy="272.08" r="3.60" fill="#FFFFFF" stroke="#FFFFFF" stroke-width="1.2" stroke-linejoin="round" stroke-linecap="round"/><circle cx="158.68" cy="398.32" r="7.60" fill="#7B88A8" stroke="#7B88A8" stroke-width="1" stroke-linejoin="round" stroke-linecap="round"/><circle cx="158.68" cy="398.32" r="3.60" fill="#FFFFFF" stroke="#FFFFFF" stroke-width="1.2" stroke-linejoin="round" stroke-linecap="round"/><circle cx="158.67" cy="15.60" r="7.60" fill="#2F3B4D" stroke="#2F3B4D" stroke-width="1" stroke-linejoin="round" stroke-linecap="round"/><circle cx="31.60" cy="161.84" r="7.60" fill="#2F3B4D" stroke="#2F3B4D" stroke-width="1" stroke-linejoin="round" stroke-linecap="round"/><circle cx="70.80" cy="161.84" r="7.60" fill="#2F3B4D" stroke="#2F3B4D" stroke-width="1" stroke-linejoin="round" stroke-linecap="round"/><circle cx="110.00" cy="161.84" r="7.60" fill="#2F3B4D" stroke="#2F3B4D" stroke-width="1" stroke-linejoin="round" stroke-linecap="round"/></svg>