<svg xmlns="http://www.w3.org/2000/svg" width="128.1041" height="184.01498" viewBox="0 0 128.1041 184.01498"><rect x="0" y="0" width="128.1041" height="184.01498" fill="#FFFFFF"/><defs><marker id="arrow-0" viewBox="0 0 10 10" refX="5" refY="5" markerUnits="userSpaceOnUse" markerWidth="8" markerHeight="8" orient="auto"><path d="M 0 0 L 10 5 L 0 10 z" fill="#333333" stroke="#333333" stroke-width="1" stroke-dasharray="1,0"/></marker><marker id="arrow-start-0" viewBox="0 0 10 10" refX="4.5" refY="5" markerUnits="userSpaceOnUse" markerWidth="8" markerHeight="8" orient="auto"><path d="M 0 5 L 10 10 L 10 0 z" fill="#333333" stroke="#333333" stroke-width="1" stroke-dasharray="1,0"/></marker><marker id="arrow-state-0" viewBox="0 0 20 14" refX="19" refY="7" markerUnits="userSpaceOnUse" markerWidth="20" markerHeight="14" orient="auto"><path d="M 19 7 L 9 13 L 14 7 L 9 1 Z" fill="#333333" stroke="#333333" stroke-width="1" stroke-dasharray="1,0"/></marker></defs><path d="M 16.640,25.280L 16.640,25.784C16.640,26.288,16.640,27.296,16.640,28.304C16.640,29.312,16.640,30.320,16.981,31.195C17.321,32.071,18.003,32.814,22.957,38.214C27.912,43.614,37.139,53.671,42.093,59.071C47.047,64.471,47.729,65.214,48.070,66.090C48.410,66.965,48.410,67.973,48.410,68.981C48.410,69.989,48.410,70.997,48.410,71.501L 48.410,72.005" fill="none" stroke="#333333" stroke-width="1" marker-end="url(#arrow-state-0)"   stroke-linecap="round" stroke-linejoin="round" /><path d="M 48.410,112.010L 48.410,112.710C48.410,113.410,48.410,114.810,48.410,116.210C48.410,117.610,48.410,119.010,47.828,120.098C47.245,121.186,46.080,121.962,44.860,122.774C43.641,123.586,42.368,124.434,41.148,125.246C39.929,126.058,38.764,126.834,38.181,127.922C37.599,129.010,37.599,130.410,37.599,131.810C37.599,133.210,37.599,134.610,37.599,135.310L 37.599,136.010" fill="none" stroke="#333333" stroke-width="1" marker-end="url(#arrow-state-0)"   stroke-linecap="round" stroke-linejoin="round" /><rect x="19.87" y="110.01" width="46.28" height="28.00" rx="2" ry="2" fill="rgba(232,232,232, 0.8)" fill-opacity="0.85" stroke="#9370DB" stroke-opacity="0.35" stroke-width="0.8"/><text x="43.00" y="128.01" text-anchor="middle" font-family="'trebuchet ms', verdana, arial, sans-serif" font-size="16" fill="#333333"><tspan x="43.00" dy="0.00">start</tspan></text><path d="M 84.692,48.005L 84.692,48.705C84.692,49.405,84.692,50.805,84.692,52.205C84.692,53.605,84.692,55.005,84.541,56.388C84.390,57.772,84.087,59.139,81.614,70.323C79.140,81.507,74.495,102.508,72.021,113.692C69.547,124.876,69.245,126.243,69.094,127.627C68.943,129.010,68.943,130.410,68.943,131.810C68.943,133.210,68.943,134.610,68.943,135.310L 68.943,136.010" fill="none" stroke="#333333" stroke-width="1" marker-end="url(#arrow-state-0)"   stroke-linecap="round" stroke-linejoin="round" /><rect x="22.07" y="136.01" width="62.40" height="40.00" rx="10" ry="10" fill="#ECECFF" stroke="#9370DB" stroke-width="1" stroke-linejoin="round" stroke-linecap="round"/><text x="53.27" y="160.01" text-anchor="middle" font-family="'trebuchet ms', verdana, arial, sans-serif" font-size="16" fill="#333333"><tspan x="53.27" dy="0.00">Active</tspan></text><rect x="25.63" y="72.00" width="45.56" height="40.00" rx="10" ry="10" fill="#ECECFF" stroke="#9370DB" stroke-width="1" stroke-linejoin="round" stroke-linecap="round"/><text x="48.41" y="96.01" text-anchor="middle" font-family="'trebuchet ms', verdana, arial, sans-serif" font-size="16" fill="#333333"><tspan x="48.41" dy="0.00">Idle</tspan></text><rect x="49.28" y="8.00" width="70.82" height="40.00" rx="10" ry="10" fill="#ECECFF" stroke="#9370DB" stroke-width="1" stroke-linejoin="round" stroke-linecap="round"/><text x="84.69" y="32.00" text-anchor="middle" font-family="'trebuchet ms', verdana, arial, sans-serif" font-size="16" fill="#333333"><tspan x="84.69" dy="0.00">Waiting</tspan></text><circle cx="16.64" cy="16.64" r="8.64" fill="#333333" stroke="#333333" stroke-width="1" stroke-linejoin="round" stroke-linecap="round"/></svg>