<svg xmlns="http://www.w3.org/2000/svg" width="190.18906" height="212.47998" viewBox="0 0 190.18906 212.47998"><rect x="0" y="0" width="190.18906" height="212.47998" fill="#FFFFFF"/><defs><marker id="arrow-0" viewBox="0 0 10 10" refX="5" refY="5" markerUnits="userSpaceOnUse" markerWidth="8" markerHeight="8" orient="auto"><path d="M 0 0 L 10 5 L 0 10 z" fill="#2F3B4D" stroke="#2F3B4D" stroke-width="1" stroke-dasharray="1,0"/></marker><marker id="arrow-start-0" viewBox="0 0 10 10" refX="4.5" refY="5" markerUnits="userSpaceOnUse" markerWidth="8" markerHeight="8" orient="auto"><path d="M 0 5 L 10 10 L 10 0 z" fill="#2F3B4D" stroke="#2F3B4D" stroke-width="1" stroke-dasharray="1,0"/></marker><marker id="arrow-state-0" viewBox="0 0 20 14" refX="19" refY="7" markerUnits="userSpaceOnUse" markerWidth="20" markerHeight="14" orient="auto"><path d="M 19 7 L 9 13 L 14 7 L 9 1 Z" fill="#2F3B4D" stroke="#2F3B4D" stroke-width="1" stroke-dasharray="1,0"/></marker></defs><path d="M 104.60 121.76 L 170.19 121.76 L 182.19 133.76 L 182.19 161.76 L 104.60 161.76 Z" fill="#FFF5AD" stroke="#AAAA33" stroke-width="1.1"/><polyline points="170.19,121.76 170.19,133.76 182.19,133.76" fill="none" stroke="#AAAA33" stroke-width="1.0"/><text x="143.40" y="145.16" text-anchor="middle" font-family="'trebuchet ms', verdana, arial, sans-serif" font-size="13.6" fill="#333333"><tspan x="143.40" dy="0.00">Running</tspan></text><path d="M 47.711,23.199L 47.711,23.699C47.711,24.199,47.711,25.199,47.711,26.199C47.711,27.199,47.711,28.199,47.737,29.198C47.763,30.198,47.816,31.196,47.895,32.697C47.974,34.198,48.079,36.201,48.158,37.702C48.237,39.203,48.290,40.201,48.316,41.201C48.343,42.200,48.343,43.200,48.343,44.200C48.343,45.200,48.343,46.200,48.343,46.700L 48.343,47.200" fill="none" stroke="#2F3B4D" stroke-width="1" marker-end="url(#arrow-state-0)"   stroke-linecap="round" stroke-linejoin="round" /><path d="M 48.717,94.240L 48.717,95.040C48.717,95.839,48.717,97.438,48.717,98.838C48.717,100.238,48.717,101.439,48.738,102.640C48.760,103.840,48.803,105.040,48.824,105.640C48.846,106.240,48.846,106.240,48.867,106.840C48.889,107.440,48.932,108.640,48.954,109.840C48.975,111.041,48.975,112.242,48.975,113.642C48.975,115.042,48.975,116.641,48.975,117.440L 48.975,118.240" fill="none" stroke="#2F3B4D" stroke-width="1" marker-end="url(#arrow-state-0)"   stroke-linecap="round" stroke-linejoin="round" /><path d="M 49.056,165.280L 49.056,165.780C49.056,166.280,49.056,167.280,49.056,168.280C49.056,169.280,49.056,170.280,49.051,171.280C49.046,172.280,49.036,173.280,49.022,174.780C49.007,176.280,48.988,178.280,48.973,179.780C48.958,181.280,48.949,182.280,48.944,183.280C48.939,184.280,48.939,185.280,48.939,186.280C48.939,187.280,48.939,188.280,48.939,188.780L 48.939,189.280" fill="none" stroke="#2F3B4D" stroke-width="1" marker-end="url(#arrow-state-0)"   stroke-linecap="round" stroke-linejoin="round" /><rect x="8.00" y="118.24" width="82.20" height="47.04" rx="10" ry="10" fill="#ECECFF" stroke="#7B88A8" stroke-width="1" stroke-linejoin="round" stroke-linecap="round"/><text x="49.10" y="145.16" text-anchor="middle" font-family="'trebuchet ms', verdana, arial, sans-serif" font-size="13.6" fill="#333333"><tspan x="49.10" dy="0.00">Active</tspan></text><rect x="15.91" y="47.20" width="65.36" height="47.04" rx="10" ry="10" fill="#ECECFF" stroke="#7B88A8" stroke-width="1" stroke-linejoin="round" stroke-linecap="round"/><text x="48.59" y="74.12" text-anchor="middle" font-family="'trebuchet ms', verdana, arial, sans-serif" font-size="13.6" fill="#333333"><tspan x="48.59" dy="0.00">Idle</tspan></text><circle cx="48.92" cy="196.88" r="7.60" fill="#7B88A8" stroke="#7B88A8" stroke-width="1" stroke-linejoin="round" stroke-linecap="round"/><circle cx="48.92" cy="196.88" r="3.60" fill="#FFFFFF" stroke="#FFFFFF" stroke-width="1.2" stroke-linejoin="round" stroke-linecap="round"/><circle cx="47.59" cy="15.60" r="7.60" fill="#2F3B4D" stroke="#2F3B4D" stroke-width="1" stroke-linejoin="round" stroke-linecap="round"/></svg>