<svg xmlns="http://www.w3.org/2000/svg" width="121.782936" height="406.71997" viewBox="0 0 121.782936 406.71997"><rect x="0" y="0" width="121.782936" height="406.71997" fill="#FFFFFF"/><defs><marker id="arrow-0" viewBox="0 0 10 10" refX="5" refY="5" markerUnits="userSpaceOnUse" markerWidth="8" markerHeight="8" orient="auto"><path d="M 0 0 L 10 5 L 0 10 z" fill="#2F3B4D" stroke="#2F3B4D" stroke-width="1" stroke-dasharray="1,0"/></marker><marker id="arrow-start-0" viewBox="0 0 10 10" refX="4.5" refY="5" markerUnits="userSpaceOnUse" markerWidth="8" markerHeight="8" orient="auto"><path d="M 0 5 L 10 10 L 10 0 z" fill="#2F3B4D" stroke="#2F3B4D" stroke-width="1" stroke-dasharray="1,0"/></marker><marker id="arrow-state-0" viewBox="0 0 20 14" refX="19" refY="7" markerUnits="userSpaceOnUse" markerWidth="20" markerHeight="14" orient="auto"><path d="M 19 7 L 9 13 L 14 7 L 9 1 Z" fill="#2F3B4D" stroke="#2F3B4D" stroke-width="1" stroke-dasharray="1,0"/></marker></defs><rect x="8.00" y="150.24" width="105.78" height="36.00" rx="6" ry="6" fill="hsl(240.0000000000, 99.9999237061%, 92.2745056152%)" stroke="none"/><rect x="8.00" y="186.24" width="105.78" height="173.28" fill="hsl(240.0000000000, 87.9999237061%, 100.0000000000%)" stroke="none"/><line x1="8.00" y1="186.24" x2="113.78" y2="186.24" stroke="#7B88A8" stroke-width="1"/><rect x="8.00" y="150.24" width="105.78" height="209.28" rx="6" ry="6" fill="none" stroke="#7B88A8" stroke-width="1"/><text x="17.60" y="171.64" text-anchor="start" font-family="'trebuchet ms', verdana, arial, sans-serif" font-size="13.6" fill="#333333" font-weight="600"><tspan x="17.60" dy="0.00">Working</tspan></text><path d="M 60.887,23.200 L 60.888,47.200" fill="none" stroke="#2F3B4D" stroke-width="1" marker-end="url(#arrow-state-0)"   stroke-linecap="round" stroke-linejoin="round" /><path d="M 60.888,94.240 L 60.891,150.240" fill="none" stroke="#2F3B4D" stroke-width="1" marker-end="url(#arrow-state-0)"   stroke-linecap="round" stroke-linejoin="round" /><rect x="41.62" y="118.44" width="38.53" height="23.60" rx="2" ry="2" fill="rgba(248,250,252, 0.92)" fill-opacity="0.70" stroke="#7B88A8" stroke-opacity="0.25" stroke-width="0.8"/><text x="60.89" y="133.64" text-anchor="middle" font-family="'trebuchet ms', verdana, arial, sans-serif" font-size="13.6" fill="#333333"><tspan x="60.89" dy="0.00">start</tspan></text><path d="M 33.400,201.224L 33.400,201.724C33.400,202.224,33.400,203.224,33.400,204.224C33.400,205.224,33.400,206.224,33.857,206.927C34.314,207.630,35.228,208.036,39.353,209.869C43.478,211.702,50.814,214.962,54.939,216.795C59.064,218.628,59.978,219.034,60.435,219.737C60.891,220.440,60.891,221.440,60.891,222.440C60.891,223.440,60.891,224.440,60.891,224.940L 60.891,225.440" fill="none" stroke="#2F3B4D" stroke-width="1" marker-end="url(#arrow-state-0)"   stroke-linecap="round" stroke-linejoin="round" /><path d="M 60.891,272.480 L 60.891,296.480" fill="none" stroke="#2F3B4D" stroke-width="1" marker-end="url(#arrow-state-0)"   stroke-linecap="round" stroke-linejoin="round" /><path d="M 60.891,359.520 L 60.892,383.520" fill="none" stroke="#2F3B4D" stroke-width="1" marker-end="url(#arrow-state-0)"   stroke-linecap="round" stroke-linejoin="round" /><rect x="28.21" y="47.20" width="65.36" height="47.04" rx="10" ry="10" fill="#ECECFF" stroke="#7B88A8" stroke-width="1" stroke-linejoin="round" stroke-linecap="round"/><text x="60.89" y="74.12" text-anchor="middle" font-family="'trebuchet ms', verdana, arial, sans-serif" font-size="13.6" fill="#333333"><tspan x="60.89" dy="0.00">Idle</tspan></text><rect x="24.00" y="225.44" width="73.78" height="47.04" rx="10" ry="10" fill="#ECECFF" stroke="#7B88A8" stroke-width="1" stroke-linejoin="round" stroke-linecap="round"/><text x="60.89" y="252.36" text-anchor="middle" font-family="'trebuchet ms', verdana, arial, sans-serif" font-size="13.6" fill="#333333"><tspan x="60.89" dy="0.00">TaskA</tspan></text><rect x="24.00" y="296.48" width="73.78" height="47.04" rx="10" ry="10" fill="#ECECFF" stroke="#7B88A8" stroke-width="1" stroke-linejoin="round" stroke-linecap="round"/><text x="60.89" y="323.40" text-anchor="middle" font-family="'trebuchet ms', verdana, arial, sans-serif" font-size="13.6" fill="#333333"><tspan x="60.89" dy="0.00">TaskB</tspan></text><circle cx="60.89" cy="391.12" r="7.60" fill="#7B88A8" stroke="#7B88A8" stroke-width="1" stroke-linejoin="round" stroke-linecap="round"/><circle cx="60.89" cy="391.12" r="3.60" fill="#FFFFFF" stroke="#FFFFFF" stroke-width="1.2" stroke-linejoin="round" stroke-linecap="round"/><circle cx="60.89" cy="15.60" r="7.60" fill="#2F3B4D" stroke="#2F3B4D" stroke-width="1" stroke-linejoin="round" stroke-linecap="round"/><circle cx="31.60" cy="193.84" r="7.60" fill="#2F3B4D" stroke="#2F3B4D" stroke-width="1" stroke-linejoin="round" stroke-linecap="round"/></svg>