<svg xmlns="http://www.w3.org/2000/svg" width="317.34882" height="413.91998" viewBox="0 0 317.34882 413.91998"><rect x="0" y="0" width="317.34882" height="413.91998" fill="#FFFFFF"/><defs><marker id="arrow-0" viewBox="0 0 10 10" refX="5" refY="5" markerUnits="userSpaceOnUse" markerWidth="8" markerHeight="8" orient="auto"><path d="M 0 0 L 10 5 L 0 10 z" fill="#2F3B4D" stroke="#2F3B4D" stroke-width="1" stroke-dasharray="1,0"/></marker><marker id="arrow-start-0" viewBox="0 0 10 10" refX="4.5" refY="5" markerUnits="userSpaceOnUse" markerWidth="8" markerHeight="8" orient="auto"><path d="M 0 5 L 10 10 L 10 0 z" fill="#2F3B4D" stroke="#2F3B4D" stroke-width="1" stroke-dasharray="1,0"/></marker><marker id="arrow-state-0" viewBox="0 0 20 14" refX="19" refY="7" markerUnits="userSpaceOnUse" markerWidth="20" markerHeight="14" orient="auto"><path d="M 19 7 L 9 13 L 14 7 L 9 1 Z" fill="#2F3B4D" stroke="#2F3B4D" stroke-width="1" stroke-dasharray="1,0"/></marker></defs><rect x="8.00" y="118.24" width="301.35" height="36.00" rx="6" ry="6" fill="hsl(240.0000000000, 99.9999237061%, 92.2745056152%)" stroke="none"/><rect x="8.00" y="154.24" width="301.35" height="141.44" fill="hsl(240.0000000000, 87.9999237061%, 100.0000000000%)" stroke="none"/><line x1="8.00" y1="154.24" x2="309.35" y2="154.24" stroke="#7B88A8" stroke-width="1"/><rect x="8.00" y="118.24" width="301.35" height="177.44" rx="6" ry="6" fill="none" stroke="#7B88A8" stroke-width="1"/><text x="17.60" y="139.64" text-anchor="start" font-family="'trebuchet ms', verdana, arial, sans-serif" font-size="13.6" fill="#333333" font-weight="600"><tspan x="17.60" dy="0.00">Active</tspan></text><path d="M 158.667,23.200 L 158.671,47.200" fill="none" stroke="#2F3B4D" stroke-width="1" marker-end="url(#arrow-state-0)"   stroke-linecap="round" stroke-linejoin="round" /><path d="M 158.671,94.240 L 158.674,118.240" fill="none" stroke="#2F3B4D" stroke-width="1" marker-end="url(#arrow-state-0)"   stroke-linecap="round" stroke-linejoin="round" /><path d="M 31.600,169.440L 31.600,169.940C31.600,170.440,31.600,171.440,31.600,172.440C31.600,173.440,31.600,174.440,32.063,175.130C32.525,175.819,33.451,176.198,37.870,178.009C42.289,179.819,50.202,183.061,54.622,184.871C59.041,186.682,59.966,187.061,60.429,187.750C60.891,188.440,60.891,189.440,60.891,190.440C60.891,191.440,60.891,192.440,60.891,192.940L 60.891,193.440" fill="none" stroke="#2F3B4D" stroke-width="1" marker-end="url(#arrow-state-0)"   stroke-linecap="round" stroke-linejoin="round" /><path d="M 78.400,161.840L 78.900,161.840C79.400,161.840,80.400,161.840,81.400,161.840C82.400,161.840,83.400,161.840,83.900,162.340C84.400,162.840,84.400,163.840,84.400,165.470C84.400,167.100,84.400,169.360,84.400,172.120C84.400,174.880,84.400,178.140,86.030,179.770C87.660,181.400,90.920,181.400,94.520,181.400C98.121,181.400,102.062,181.400,105.662,181.400C109.263,181.400,112.523,181.400,114.153,183.030C115.783,184.660,115.783,187.920,115.783,190.680C115.783,193.440,115.783,195.700,115.783,197.330C115.783,198.960,115.783,199.960,116.283,200.460C116.783,200.960,117.783,200.960,118.783,200.960C119.783,200.960,120.783,200.960,121.283,200.960L 121.783,200.960" fill="none" stroke="#2F3B4D" stroke-width="1" marker-end="url(#arrow-state-0)"   stroke-linecap="round" stroke-linejoin="round" /><path d="M 117.600,161.840L 131.594,161.840C145.589,161.840,173.577,161.840,189.572,161.840C205.566,161.840,209.566,161.840,211.566,163.840C213.566,165.840,213.566,169.840,213.566,175.860C213.566,181.880,213.566,189.920,213.566,194.440C213.566,198.960,213.566,199.960,214.066,200.460C214.566,200.960,215.566,200.960,216.566,200.960C217.566,200.960,218.566,200.960,219.066,200.960L 219.566,200.960" fill="none" stroke="#2F3B4D" stroke-width="1" marker-end="url(#arrow-state-0)"   stroke-linecap="round" stroke-linejoin="round" /><path d="M 60.891,240.480L 60.891,240.980C60.891,241.480,60.891,242.480,60.891,243.480C60.891,244.480,60.891,245.480,60.429,246.170C59.966,246.859,59.041,247.238,54.622,249.049C50.202,250.859,42.289,254.101,37.870,255.911C33.451,257.722,32.525,258.101,32.063,258.790C31.600,259.480,31.600,260.480,31.600,261.480C31.600,262.480,31.600,263.480,31.600,263.980L 31.600,264.480" fill="none" stroke="#2F3B4D" stroke-width="1" marker-end="url(#arrow-state-0)"   stroke-linecap="round" stroke-linejoin="round" /><path d="M 121.783,232.960L 121.283,232.960C120.783,232.960,119.783,232.960,118.783,232.960C117.783,232.960,116.783,232.960,116.283,233.460C115.783,233.960,115.783,234.960,115.783,239.480C115.783,244.000,115.783,252.040,115.783,258.060C115.783,264.080,115.783,268.080,113.783,270.080C111.783,272.080,107.783,272.080,95.019,272.080C82.255,272.080,60.728,272.080,49.964,272.080L 39.200,272.080" fill="none" stroke="#2F3B4D" stroke-width="1" marker-end="url(#arrow-state-0)"   stroke-linecap="round" stroke-linejoin="round" /><path d="M 219.566,232.960L 219.066,232.960C218.566,232.960,217.566,232.960,216.566,232.960C215.566,232.960,214.566,232.960,214.066,233.460C213.566,233.960,213.566,234.960,213.566,241.880C213.566,248.800,213.566,261.640,213.566,270.060C213.566,278.480,213.566,282.480,211.566,284.480C209.566,286.480,205.566,286.480,178.705,286.480C151.844,286.480,102.122,286.480,76.061,286.480C50.000,286.480,47.600,286.480,46.400,285.280C45.200,284.080,45.200,281.680,45.200,279.780C45.200,277.880,45.200,276.480,45.200,275.280C45.200,274.080,45.200,273.080,44.700,272.580C44.200,272.080,43.200,272.080,42.200,272.080C41.200,272.080,40.200,272.080,39.700,272.080L 39.200,272.080" fill="none" stroke="#2F3B4D" stroke-width="1" marker-end="url(#arrow-state-0)"   stroke-linecap="round" stroke-linejoin="round" /><path d="M 158.674,295.680 L 158.677,319.680" fill="none" stroke="#2F3B4D" stroke-width="1" marker-end="url(#arrow-state-0)"   stroke-linecap="round" stroke-linejoin="round" /><path d="M 158.677,366.720 L 158.679,390.720" fill="none" stroke="#2F3B4D" stroke-width="1" marker-end="url(#arrow-state-0)"   stroke-linecap="round" stroke-linejoin="round" /><rect x="125.59" y="319.68" width="66.18" height="47.04" rx="10" ry="10" fill="#ECECFF" stroke="#7B88A8" stroke-width="1" stroke-linejoin="round" stroke-linecap="round"/><text x="158.68" y="346.60" text-anchor="middle" font-family="'trebuchet ms', verdana, arial, sans-serif" font-size="13.6" fill="#333333"><tspan x="158.68" dy="0.00">Done</tspan></text><rect x="121.78" y="47.20" width="73.78" height="47.04" rx="10" ry="10" fill="#ECECFF" stroke="#7B88A8" stroke-width="1" stroke-linejoin="round" stroke-linecap="round"/><text x="158.67" y="74.12" text-anchor="middle" font-family="'trebuchet ms', verdana, arial, sans-serif" font-size="13.6" fill="#333333"><tspan x="158.67" dy="0.00">Ready</tspan></text><rect x="24.00" y="193.44" width="73.78" height="47.04" rx="10" ry="10" fill="#ECECFF" stroke="#7B88A8" stroke-width="1" stroke-linejoin="round" stroke-linecap="round"/><text x="60.89" y="220.36" text-anchor="middle" font-family="'trebuchet ms', verdana, arial, sans-serif" font-size="13.6" fill="#333333"><tspan x="60.89" dy="0.00">TaskA</tspan></text><rect x="121.78" y="193.44" width="73.78" height="47.04" rx="10" ry="10" fill="#ECECFF" stroke="#7B88A8" stroke-width="1" stroke-linejoin="round" stroke-linecap="round"/><text x="158.67" y="220.36" text-anchor="middle" font-family="'trebuchet ms', verdana, arial, sans-serif" font-size="13.6" fill="#333333"><tspan x="158.67" dy="0.00">TaskB</tspan></text><rect x="219.57" y="193.44" width="73.78" height="47.04" rx="10" ry="10" fill="#ECECFF" stroke="#7B88A8" stroke-width="1" stroke-linejoin="round" stroke-linecap="round"/><text x="256.46" y="220.36" text-anchor="middle" font-family="'trebuchet ms', verdana, arial, sans-serif" font-size="13.6" fill="#333333"><tspan x="256.46" dy="0.00">TaskC</tspan></text><circle cx="31.60" cy="272.08" r="7.60" fill="#7B88A8" stroke="#7B88A8" stroke-width="1" stroke-linejoin="round" stroke-linecap="round"/><circle cx="31.60" cy="272.08" r="3.60" fill="#FFFFFF" stroke="#FFFFFF" stroke-width="1.2" stroke-linejoin="round" stroke-linecap="round"/><circle cx="158.68" cy="398.32" r="7.60" fill="#7B88A8" stroke="#7B88A8" stroke-width="1" stroke-linejoin="round" stroke-linecap="round"/><circle cx="158.68" cy="398.32" r="3.60" fill="#FFFFFF" stroke="#FFFFFF" stroke-width="1.2" stroke-linejoin="round" stroke-linecap="round"/><circle cx="158.67" cy="15.60" r="7.60" fill="#2F3B4D" stroke="#2F3B4D" stroke-width="1" stroke-linejoin="round" stroke-linecap="round"/><circle cx="31.60" cy="161.84" r="7.60" fill="#2F3B4D" stroke="#2F3B4D" stroke-width="1" stroke-linejoin="round" stroke-linecap="round"/><circle cx="70.80" cy="161.84" r="7.60" fill="#2F3B4D" stroke="#2F3B4D" stroke-width="1" stroke-linejoin="round" stroke-linecap="round"/><circle cx="110.00" cy="161.84" r="7.60" fill="#2F3B4D" stroke="#2F3B4D" stroke-width="1" stroke-linejoin="round" stroke-linecap="round"/></svg>