<svg xmlns="http://www.w3.org/2000/svg" width="121.782936" height="374.71997" viewBox="0 0 121.782936 374.71997"><rect x="0" y="0" width="121.782936" height="374.71997" fill="#FFFFFF"/><defs><marker id="arrow-0" viewBox="0 0 10 10" refX="5" refY="5" markerUnits="userSpaceOnUse" markerWidth="8" markerHeight="8" orient="auto"><path d="M 0 0 L 10 5 L 0 10 z" fill="#333333" stroke="#333333" stroke-width="1" stroke-dasharray="1,0"/></marker><marker id="arrow-start-0" viewBox="0 0 10 10" refX="4.5" refY="5" markerUnits="userSpaceOnUse" markerWidth="8" markerHeight="8" orient="auto"><path d="M 0 5 L 10 10 L 10 0 z" fill="#333333" stroke="#333333" stroke-width="1" stroke-dasharray="1,0"/></marker><marker id="arrow-state-0" viewBox="0 0 20 14" refX="19" refY="7" markerUnits="userSpaceOnUse" markerWidth="20" markerHeight="14" orient="auto"><path d="M 19 7 L 9 13 L 14 7 L 9 1 Z" fill="#333333" stroke="#333333" stroke-width="1" stroke-dasharray="1,0"/></marker></defs><rect x="8.00" y="118.24" width="105.78" height="36.00" rx="6" ry="6" fill="hsl(240.0000000000, 99.9999237061%, 92.2745056152%)" stroke="none"/><rect x="8.00" y="154.24" width="105.78" height="173.28" fill="hsl(240.0000000000, 87.9999237061%, 100.0000000000%)" stroke="none"/><line x1="8.00" y1="154.24" x2="113.78" y2="154.24" stroke="#9370DB" stroke-width="1"/><rect x="8.00" y="118.24" width="105.78" height="209.28" rx="6" ry="6" fill="none" stroke="#9370DB" stroke-width="1"/><text x="17.60" y="139.64" text-anchor="start" font-family="'trebuchet ms', verdana, arial, sans-serif" font-size="13.6" fill="#333333" font-weight="600"><tspan x="17.60" dy="0.00">Working</tspan></text><path d="M 60.890,23.200 L 60.891,47.200" fill="none" stroke="#333333" stroke-width="1" marker-end="url(#arrow-state-0)"   stroke-linecap="round" stroke-linejoin="round" /><path d="M 60.891,94.240 L 60.891,118.240" fill="none" stroke="#333333" stroke-width="1" marker-end="url(#arrow-state-0)"   stroke-linecap="round" stroke-linejoin="round" /><rect x="41.62" y="94.44" width="38.53" height="23.60" rx="2" ry="2" fill="rgba(232,232,232, 0.8)" fill-opacity="0.70" stroke="#9370DB" stroke-opacity="0.25" stroke-width="0.8"/><text x="60.89" y="109.64" text-anchor="middle" font-family="'trebuchet ms', verdana, arial, sans-serif" font-size="13.6" fill="#333333"><tspan x="60.89" dy="0.00">start</tspan></text><path d="M 31.600,169.440L 31.600,169.940C31.600,170.440,31.600,171.440,31.600,172.440C31.600,173.440,31.600,174.440,32.063,175.130C32.525,175.819,33.451,176.198,37.870,178.009C42.289,179.819,50.202,183.061,54.622,184.871C59.041,186.682,59.966,187.061,60.429,187.750C60.891,188.440,60.891,189.440,60.891,190.440C60.891,191.440,60.891,192.440,60.891,192.940L 60.891,193.440" fill="none" stroke="#333333" stroke-width="1" marker-end="url(#arrow-state-0)"   stroke-linecap="round" stroke-linejoin="round" /><path d="M 60.891,240.480 L 60.891,264.480" fill="none" stroke="#333333" stroke-width="1" marker-end="url(#arrow-state-0)"   stroke-linecap="round" stroke-linejoin="round" /><path d="M 60.891,327.520 L 60.892,351.520" fill="none" stroke="#333333" stroke-width="1" marker-end="url(#arrow-state-0)"   stroke-linecap="round" stroke-linejoin="round" /><rect x="28.21" y="47.20" width="65.36" height="47.04" rx="10" ry="10" fill="#ECECFF" stroke="#9370DB" stroke-width="1" stroke-linejoin="round" stroke-linecap="round"/><text x="60.89" y="74.12" text-anchor="middle" font-family="'trebuchet ms', verdana, arial, sans-serif" font-size="13.6" fill="#333333"><tspan x="60.89" dy="0.00">Idle</tspan></text><rect x="24.00" y="193.44" width="73.78" height="47.04" rx="10" ry="10" fill="#ECECFF" stroke="#9370DB" stroke-width="1" stroke-linejoin="round" stroke-linecap="round"/><text x="60.89" y="220.36" text-anchor="middle" font-family="'trebuchet ms', verdana, arial, sans-serif" font-size="13.6" fill="#333333"><tspan x="60.89" dy="0.00">TaskA</tspan></text><rect x="24.00" y="264.48" width="73.78" height="47.04" rx="10" ry="10" fill="#ECECFF" stroke="#9370DB" stroke-width="1" stroke-linejoin="round" stroke-linecap="round"/><text x="60.89" y="291.40" text-anchor="middle" font-family="'trebuchet ms', verdana, arial, sans-serif" font-size="13.6" fill="#333333"><tspan x="60.89" dy="0.00">TaskB</tspan></text><circle cx="60.89" cy="359.12" r="7.60" fill="#9370DB" stroke="#9370DB" stroke-width="1" stroke-linejoin="round" stroke-linecap="round"/><circle cx="60.89" cy="359.12" r="3.60" fill="#FFFFFF" stroke="#FFFFFF" stroke-width="1.2" stroke-linejoin="round" stroke-linecap="round"/><circle cx="60.89" cy="15.60" r="7.60" fill="#333333" stroke="#333333" stroke-width="1" stroke-linejoin="round" stroke-linecap="round"/><circle cx="31.60" cy="161.84" r="7.60" fill="#333333" stroke="#333333" stroke-width="1" stroke-linejoin="round" stroke-linecap="round"/></svg>