<svg xmlns="http://www.w3.org/2000/svg" width="447.39896" height="806.315" viewBox="0 0 447.39896 806.315"><rect x="0" y="0" width="447.39896" height="806.315" fill="#FFFFFF"/><defs><marker id="arrow-0" viewBox="0 0 10 10" refX="5" refY="5" markerUnits="userSpaceOnUse" markerWidth="8" markerHeight="8" orient="auto"><path d="M 0 0 L 10 5 L 0 10 z" fill="#2F3B4D" stroke="#2F3B4D" stroke-width="1" stroke-dasharray="1,0"/></marker><marker id="arrow-start-0" viewBox="0 0 10 10" refX="4.5" refY="5" markerUnits="userSpaceOnUse" markerWidth="8" markerHeight="8" orient="auto"><path d="M 0 5 L 10 10 L 10 0 z" fill="#2F3B4D" stroke="#2F3B4D" stroke-width="1" stroke-dasharray="1,0"/></marker><marker id="arrow-state-0" viewBox="0 0 20 14" refX="19" refY="7" markerUnits="userSpaceOnUse" markerWidth="20" markerHeight="14" orient="auto"><path d="M 19 7 L 9 13 L 14 7 L 9 1 Z" fill="#2F3B4D" stroke="#2F3B4D" stroke-width="1" stroke-dasharray="1,0"/></marker></defs><path d="M 264.685,23.200L 264.685,23.700C264.685,24.200,264.685,25.200,264.685,26.200C264.685,27.200,264.685,28.200,264.689,29.200C264.694,30.200,264.703,31.200,264.735,34.744C264.766,38.287,264.821,44.375,264.852,47.919C264.884,51.462,264.893,52.462,264.897,53.462C264.902,54.462,264.902,55.462,264.902,56.462C264.902,57.462,264.902,58.462,264.902,58.962L 264.902,59.462" fill="none" stroke="#2F3B4D" stroke-width="1" marker-end="url(#arrow-state-0)"   stroke-linecap="round" stroke-linejoin="round" /><path d="M 246.199,106.502L 246.199,107.560C246.199,108.617,246.199,110.733,246.199,112.848C246.199,114.963,246.199,117.079,245.313,118.713C244.426,120.348,242.653,121.502,234.959,126.509C227.265,131.516,213.650,140.377,205.427,145.729C197.204,151.080,194.373,152.922,194.533,154.452C194.693,155.982,197.843,157.200,200.006,158.037C202.170,158.874,203.347,159.329,204.922,159.938C206.497,160.547,208.469,161.310,209.456,162.749C210.442,164.188,210.442,166.303,210.442,168.418C210.442,170.534,210.442,172.649,210.442,173.707L 210.442,174.764" fill="none" stroke="#2F3B4D" stroke-width="1" marker-end="url(#arrow-state-0)"   stroke-linecap="round" stroke-linejoin="round" /><rect x="101.07" y="68.54" width="84.08" height="23.60" rx="2" ry="2" fill="rgba(248,250,252, 0.92)" fill-opacity="0.70" stroke="#7B88A8" stroke-opacity="0.25" stroke-width="0.8"/><text x="143.11" y="83.74" text-anchor="middle" font-family="'trebuchet ms', verdana, arial, sans-serif" font-size="13.6" fill="#333333"><tspan x="143.11" dy="0.00">passive open</tspan></text><path d="M 283.820,106.502L 283.820,107.560C283.820,108.617,283.820,110.733,283.820,112.848C283.820,114.963,283.820,117.079,284.708,118.711C285.597,120.343,287.373,121.492,295.158,126.529C302.944,131.565,316.739,140.490,325.014,145.844C333.290,151.198,336.047,152.981,335.901,154.482C335.755,155.982,332.706,157.200,330.639,158.026C328.572,158.852,327.488,159.285,325.963,159.894C324.439,160.503,322.474,161.288,321.492,162.738C320.510,164.188,320.510,166.303,320.510,168.418C320.510,170.534,320.510,172.649,320.510,173.707L 320.510,174.764" fill="none" stroke="#2F3B4D" stroke-width="1" marker-end="url(#arrow-state-0)"   stroke-linecap="round" stroke-linejoin="round" /><rect x="116.39" y="24.46" width="116.62" height="23.60" rx="2" ry="2" fill="rgba(248,250,252, 0.92)" fill-opacity="0.70" stroke="#7B88A8" stroke-opacity="0.25" stroke-width="0.8"/><text x="174.70" y="39.66" text-anchor="middle" font-family="'trebuchet ms', verdana, arial, sans-serif" font-size="13.6" fill="#333333"><tspan x="174.70" dy="0.00">active open / SYN</tspan></text><path d="M 194.442,221.804L 194.442,222.862C194.442,223.920,194.442,226.035,194.442,228.150C194.442,230.265,194.442,232.381,194.463,234.496C194.484,236.611,194.526,238.726,194.632,244.042C194.738,249.359,194.907,257.877,195.004,262.748C195.101,267.619,195.125,268.843,195.197,270.064C195.269,271.285,195.389,272.503,195.448,273.112C195.508,273.721,195.508,273.721,195.568,274.330C195.627,274.939,195.747,276.157,195.807,277.378C195.867,278.599,195.867,279.823,195.866,281.938C195.867,284.053,195.867,287.060,195.866,288.563L 195.866,290.066" fill="none" stroke="#2F3B4D" stroke-width="1" marker-end="url(#arrow-state-0)"   stroke-linecap="round" stroke-linejoin="round" /><rect x="256.08" y="241.84" width="90.61" height="23.60" rx="2" ry="2" fill="rgba(248,250,252, 0.92)" fill-opacity="0.70" stroke="#7B88A8" stroke-opacity="0.25" stroke-width="0.8"/><text x="301.38" y="257.04" text-anchor="middle" font-family="'trebuchet ms', verdana, arial, sans-serif" font-size="13.6" fill="#333333"><tspan x="301.38" dy="0.00">SYN / SYN+ACK</tspan></text><path d="M 336.510,221.804L 336.510,222.862C336.510,223.920,336.510,226.035,336.510,228.150C336.510,230.265,336.510,232.381,336.509,234.496C336.507,236.611,336.505,238.727,336.500,242.655C336.495,246.583,336.488,252.325,336.482,257.196C336.476,262.066,336.471,266.066,336.470,270.066C336.468,274.066,336.469,278.066,336.476,296.502C336.482,314.937,336.494,347.807,336.501,366.242C336.507,384.677,336.508,388.677,334.509,390.677C332.510,392.677,328.510,392.677,309.034,392.677C289.557,392.677,254.605,392.677,236.071,392.677C217.537,392.677,215.422,392.677,214.365,393.735C213.307,394.792,213.307,396.907,213.307,399.023C213.307,401.138,213.307,403.253,213.307,404.311L 213.307,405.369" fill="none" stroke="#2F3B4D" stroke-width="1" marker-end="url(#arrow-state-0)"   stroke-linecap="round" stroke-linejoin="round" /><rect x="266.49" y="321.68" width="90.61" height="23.60" rx="2" ry="2" fill="rgba(248,250,252, 0.92)" fill-opacity="0.70" stroke="#7B88A8" stroke-opacity="0.25" stroke-width="0.8"/><text x="311.79" y="336.88" text-anchor="middle" font-family="'trebuchet ms', verdana, arial, sans-serif" font-size="13.6" fill="#333333"><tspan x="311.79" dy="0.00">SYN+ACK / ACK</tspan></text><path d="M 195.866,337.106L 195.866,338.164C195.867,339.222,195.867,341.337,195.866,343.452C195.867,345.568,195.867,347.683,195.888,349.798C195.909,351.913,195.952,354.028,196.044,358.545C196.135,363.062,196.276,369.982,196.375,374.853C196.473,379.724,196.531,382.546,195.286,384.566C194.041,386.587,191.494,387.805,189.901,388.566C188.309,389.328,187.670,389.634,186.397,390.243C185.123,390.852,183.215,391.764,182.261,393.278C181.307,394.792,181.307,396.907,181.307,399.023C181.307,401.138,181.307,403.253,181.307,404.311L 181.307,405.369" fill="none" stroke="#2F3B4D" stroke-width="1" marker-end="url(#arrow-state-0)"   stroke-linecap="round" stroke-linejoin="round" /><rect x="283.68" y="354.31" width="28.93" height="23.60" rx="2" ry="2" fill="rgba(248,250,252, 0.92)" fill-opacity="0.70" stroke="#7B88A8" stroke-opacity="0.25" stroke-width="0.8"/><text x="298.15" y="369.51" text-anchor="middle" font-family="'trebuchet ms', verdana, arial, sans-serif" font-size="13.6" fill="#333333"><tspan x="298.15" dy="0.00">ACK</tspan></text><path d="M 213.307,452.409L 213.307,453.466C213.307,454.524,213.307,456.639,213.307,458.755C213.307,460.870,213.307,462.985,214.218,464.580C215.129,466.174,216.952,467.248,226.001,472.580C235.050,477.911,251.326,487.501,260.477,492.893C269.627,498.284,271.652,499.478,271.660,500.683C271.667,501.889,269.657,503.107,268.551,503.777C267.445,504.447,267.244,504.569,266.239,505.178C265.233,505.787,263.424,506.883,262.520,508.489C261.615,510.094,261.615,512.210,261.615,514.325C261.615,516.440,261.615,518.555,261.615,519.613L 261.615,520.671" fill="none" stroke="#2F3B4D" stroke-width="1" marker-end="url(#arrow-state-0)"   stroke-linecap="round" stroke-linejoin="round" /><rect x="259.90" y="482.99" width="77.57" height="23.60" rx="2" ry="2" fill="rgba(248,250,252, 0.92)" fill-opacity="0.70" stroke="#7B88A8" stroke-opacity="0.25" stroke-width="0.8"/><text x="298.69" y="498.19" text-anchor="middle" font-family="'trebuchet ms', verdana, arial, sans-serif" font-size="13.6" fill="#333333"><tspan x="298.69" dy="0.00">close / FIN</tspan></text><path d="M 181.307,452.409L 181.307,453.466C181.307,454.524,181.307,456.639,181.307,458.755C181.307,460.870,181.307,462.985,180.401,464.588C179.494,466.191,177.682,467.282,168.902,472.565C160.123,477.848,144.376,487.324,135.430,492.708C126.485,498.091,124.341,499.381,124.362,500.635C124.383,501.889,126.568,503.107,127.830,503.810C129.092,504.513,129.430,504.702,130.522,505.311C131.615,505.920,133.463,506.949,134.387,508.522C135.311,510.094,135.311,512.210,135.311,514.325C135.311,516.440,135.311,518.555,135.311,519.613L 135.311,520.671" fill="none" stroke="#2F3B4D" stroke-width="1" marker-end="url(#arrow-state-0)"   stroke-linecap="round" stroke-linejoin="round" /><rect x="6.87" y="711.58" width="64.56" height="23.60" rx="2" ry="2" fill="rgba(248,250,252, 0.92)" fill-opacity="0.70" stroke="#7B88A8" stroke-opacity="0.25" stroke-width="0.8"/><text x="39.15" y="726.78" text-anchor="middle" font-family="'trebuchet ms', verdana, arial, sans-serif" font-size="13.6" fill="#333333"><tspan x="39.15" dy="0.00">FIN / ACK</tspan></text><path d="M 277.615,567.711L 277.615,568.768C277.615,569.826,277.615,571.941,277.615,574.057C277.615,576.172,277.615,578.287,277.632,580.402C277.648,582.518,277.682,584.633,277.766,589.951C277.850,595.269,277.984,603.791,278.061,608.662C278.138,613.533,278.157,614.753,278.202,615.972C278.248,617.191,278.319,618.409,278.355,619.018C278.391,619.627,278.391,619.627,278.427,620.236C278.463,620.845,278.534,622.063,278.570,623.282C278.606,624.501,278.606,625.721,278.606,627.837C278.606,629.952,278.606,632.962,278.606,634.468L 278.606,635.973" fill="none" stroke="#2F3B4D" stroke-width="1" marker-end="url(#arrow-state-0)"   stroke-linecap="round" stroke-linejoin="round" /><rect x="196.95" y="680.12" width="28.93" height="23.60" rx="2" ry="2" fill="rgba(248,250,252, 0.92)" fill-opacity="0.70" stroke="#7B88A8" stroke-opacity="0.25" stroke-width="0.8"/><text x="211.41" y="695.32" text-anchor="middle" font-family="'trebuchet ms', verdana, arial, sans-serif" font-size="13.6" fill="#333333"><tspan x="211.41" dy="0.00">ACK</tspan></text><path d="M 278.606,683.013L 278.606,684.071C278.606,685.128,278.606,687.243,278.606,689.359C278.606,691.474,278.606,693.589,278.614,695.705C278.623,697.820,278.640,699.935,278.677,704.387C278.713,708.838,278.769,715.626,278.808,720.497C278.848,725.367,278.872,728.321,280.230,730.407C281.588,732.493,284.279,733.711,286.006,734.493C287.734,735.275,288.498,735.621,289.843,736.230C291.189,736.839,293.116,737.711,294.079,739.205C295.043,740.699,295.043,742.814,295.043,744.929C295.043,747.044,295.043,749.160,295.043,750.217L 295.043,751.275" fill="none" stroke="#2F3B4D" stroke-width="1" marker-end="url(#arrow-state-0)"   stroke-linecap="round" stroke-linejoin="round" /><rect x="246.48" y="702.56" width="64.56" height="23.60" rx="2" ry="2" fill="rgba(248,250,252, 0.92)" fill-opacity="0.70" stroke="#7B88A8" stroke-opacity="0.25" stroke-width="0.8"/><text x="278.76" y="717.76" text-anchor="middle" font-family="'trebuchet ms', verdana, arial, sans-serif" font-size="13.6" fill="#333333"><tspan x="278.76" dy="0.00">FIN / ACK</tspan></text><path d="M 119.311,567.711L 119.311,568.768C119.311,569.826,119.311,571.941,119.311,574.057C119.311,576.172,119.311,578.287,119.318,580.403C119.326,582.518,119.341,584.633,119.379,589.952C119.417,595.272,119.477,603.795,119.512,608.666C119.547,613.536,119.556,614.755,119.571,615.973C119.586,617.191,119.607,618.409,119.618,619.018C119.629,619.627,119.629,619.627,119.640,620.236C119.650,620.845,119.672,622.063,119.683,623.281C119.693,624.499,119.693,625.718,119.693,627.833C119.693,629.948,119.693,632.961,119.693,634.467L 119.693,635.973" fill="none" stroke="#2F3B4D" stroke-width="1" marker-end="url(#arrow-state-0)"   stroke-linecap="round" stroke-linejoin="round" /><rect x="263.06" y="585.09" width="77.57" height="23.60" rx="2" ry="2" fill="rgba(248,250,252, 0.92)" fill-opacity="0.70" stroke="#7B88A8" stroke-opacity="0.25" stroke-width="0.8"/><text x="301.84" y="600.29" text-anchor="middle" font-family="'trebuchet ms', verdana, arial, sans-serif" font-size="13.6" fill="#333333"><tspan x="301.84" dy="0.00">close / FIN</tspan></text><path d="M 135.693,635.973L 135.693,634.915C135.693,633.858,135.693,631.742,135.693,629.627C135.693,627.512,135.693,625.396,134.636,624.339C133.578,623.281,131.463,623.281,112.181,623.281C92.898,623.281,56.449,623.281,36.225,623.281C16.000,623.281,12.000,623.281,11.454,621.908C10.908,620.535,13.816,617.788,54.346,579.509C94.876,541.230,173.028,467.419,213.558,429.140C254.088,390.862,256.996,388.115,257.076,385.289C257.155,382.463,254.405,379.558,213.796,336.648C173.187,293.738,94.718,210.824,54.108,167.914C13.499,125.004,10.749,122.099,11.375,120.647C12.000,119.194,16.000,119.194,56.701,119.194C97.402,119.194,174.804,119.194,214.563,119.194C254.322,119.194,256.437,119.194,257.495,118.136C258.552,117.079,258.552,114.963,258.552,112.848C258.552,110.733,258.552,108.617,258.552,107.560L 258.552,106.502" fill="none" stroke="#2F3B4D" stroke-width="1" marker-end="url(#arrow-state-0)"   stroke-linecap="round" stroke-linejoin="round" /><rect x="115.20" y="235.95" width="28.93" height="23.60" rx="2" ry="2" fill="rgba(248,250,252, 0.92)" fill-opacity="0.70" stroke="#7B88A8" stroke-opacity="0.25" stroke-width="0.8"/><text x="129.66" y="251.15" text-anchor="middle" font-family="'trebuchet ms', verdana, arial, sans-serif" font-size="13.6" fill="#333333"><tspan x="129.66" dy="0.00">ACK</tspan></text><path d="M 263.043,751.275L 263.043,750.217C263.043,749.160,263.043,747.044,263.043,744.929C263.043,742.814,263.043,740.699,264.101,739.641C265.158,738.583,267.274,738.583,294.666,738.583C322.059,738.583,374.729,738.583,403.064,738.583C431.399,738.583,435.399,738.583,436.839,736.663C438.280,734.743,437.160,730.903,420.561,673.954C403.962,617.005,371.884,506.947,355.285,449.998C338.686,393.049,337.567,389.209,337.728,385.423C337.890,381.638,339.333,377.907,355.770,335.410C372.207,292.913,403.639,211.649,420.076,169.152C436.513,126.655,437.956,122.925,436.677,121.059C435.399,119.194,431.399,119.194,404.136,119.194C376.873,119.194,326.347,119.194,300.027,119.194C273.706,119.194,271.591,119.194,270.533,118.136C269.476,117.079,269.476,114.963,269.476,112.848C269.476,110.733,269.476,108.617,269.476,107.560L 269.476,106.502" fill="none" stroke="#2F3B4D" stroke-width="1" marker-end="url(#arrow-state-0)"   stroke-linecap="round" stroke-linejoin="round" /><rect x="323.12" y="416.27" width="51.55" height="23.60" rx="2" ry="2" fill="rgba(248,250,252, 0.92)" fill-opacity="0.70" stroke="#7B88A8" stroke-opacity="0.25" stroke-width="0.8"/><text x="348.89" y="431.47" text-anchor="middle" font-family="'trebuchet ms', verdana, arial, sans-serif" font-size="13.6" fill="#333333"><tspan x="348.89" dy="0.00">timeout</tspan></text><rect x="219.39" y="59.46" width="91.03" height="47.04" rx="10" ry="10" fill="#ECECFF" stroke="#7B88A8" stroke-width="1" stroke-linejoin="round" stroke-linecap="round"/><text x="264.90" y="86.38" text-anchor="middle" font-family="'trebuchet ms', verdana, arial, sans-serif" font-size="13.6" fill="#333333"><tspan x="264.90" dy="0.00">CLOSED</tspan></text><rect x="56.95" y="520.67" width="124.71" height="47.04" rx="10" ry="10" fill="#ECECFF" stroke="#7B88A8" stroke-width="1" stroke-linejoin="round" stroke-linecap="round"/><text x="119.31" y="547.59" text-anchor="middle" font-family="'trebuchet ms', verdana, arial, sans-serif" font-size="13.6" fill="#333333"><tspan x="119.31" dy="0.00">CLOSE_WAIT</tspan></text><rect x="131.74" y="405.37" width="131.14" height="47.04" rx="10" ry="10" fill="#ECECFF" stroke="#7B88A8" stroke-width="1" stroke-linejoin="round" stroke-linecap="round"/><text x="197.31" y="432.29" text-anchor="middle" font-family="'trebuchet ms', verdana, arial, sans-serif" font-size="13.6" fill="#333333"><tspan x="197.31" dy="0.00">ESTABLISHED</tspan></text><rect x="219.67" y="520.67" width="115.89" height="47.04" rx="10" ry="10" fill="#ECECFF" stroke="#7B88A8" stroke-width="1" stroke-linejoin="round" stroke-linecap="round"/><text x="277.62" y="547.59" text-anchor="middle" font-family="'trebuchet ms', verdana, arial, sans-serif" font-size="13.6" fill="#333333"><tspan x="277.62" dy="0.00">FIN_WAIT_1</tspan></text><rect x="220.66" y="635.97" width="115.89" height="47.04" rx="10" ry="10" fill="#ECECFF" stroke="#7B88A8" stroke-width="1" stroke-linejoin="round" stroke-linecap="round"/><text x="278.61" y="662.89" text-anchor="middle" font-family="'trebuchet ms', verdana, arial, sans-serif" font-size="13.6" fill="#333333"><tspan x="278.61" dy="0.00">FIN_WAIT_2</tspan></text><rect x="66.96" y="635.97" width="105.48" height="47.04" rx="10" ry="10" fill="#ECECFF" stroke="#7B88A8" stroke-width="1" stroke-linejoin="round" stroke-linecap="round"/><text x="119.69" y="662.89" text-anchor="middle" font-family="'trebuchet ms', verdana, arial, sans-serif" font-size="13.6" fill="#333333"><tspan x="119.69" dy="0.00">LAST_ACK</tspan></text><rect x="153.34" y="174.76" width="82.21" height="47.04" rx="10" ry="10" fill="#ECECFF" stroke="#7B88A8" stroke-width="1" stroke-linejoin="round" stroke-linecap="round"/><text x="194.44" y="201.68" text-anchor="middle" font-family="'trebuchet ms', verdana, arial, sans-serif" font-size="13.6" fill="#333333"><tspan x="194.44" dy="0.00">LISTEN</tspan></text><rect x="140.73" y="290.07" width="110.26" height="47.04" rx="10" ry="10" fill="#ECECFF" stroke="#7B88A8" stroke-width="1" stroke-linejoin="round" stroke-linecap="round"/><text x="195.87" y="316.99" text-anchor="middle" font-family="'trebuchet ms', verdana, arial, sans-serif" font-size="13.6" fill="#333333"><tspan x="195.87" dy="0.00">SYN_RCVD</tspan></text><rect x="282.57" y="174.76" width="107.87" height="47.04" rx="10" ry="10" fill="#ECECFF" stroke="#7B88A8" stroke-width="1" stroke-linejoin="round" stroke-linecap="round"/><text x="336.51" y="201.68" text-anchor="middle" font-family="'trebuchet ms', verdana, arial, sans-serif" font-size="13.6" fill="#333333"><tspan x="336.51" dy="0.00">SYN_SENT</tspan></text><rect x="223.91" y="751.28" width="110.26" height="47.04" rx="10" ry="10" fill="#ECECFF" stroke="#7B88A8" stroke-width="1" stroke-linejoin="round" stroke-linecap="round"/><text x="279.04" y="778.20" text-anchor="middle" font-family="'trebuchet ms', verdana, arial, sans-serif" font-size="13.6" fill="#333333"><tspan x="279.04" dy="0.00">TIME_WAIT</tspan></text><circle cx="264.66" cy="15.60" r="7.60" fill="#2F3B4D" stroke="#2F3B4D" stroke-width="1" stroke-linejoin="round" stroke-linecap="round"/></svg>