<svg xmlns="http://www.w3.org/2000/svg" width="149.77097" height="208.85373" viewBox="0 0 149.77097 208.85373"><rect x="0" y="0" width="149.77097" height="208.85373" fill="#FFFFFF"/><defs><marker id="arrow-0" viewBox="0 0 10 10" refX="5" refY="5" markerUnits="userSpaceOnUse" markerWidth="8" markerHeight="8" orient="auto"><path d="M 0 0 L 10 5 L 0 10 z" fill="#333333" stroke="#333333" stroke-width="1" stroke-dasharray="1,0"/></marker><marker id="arrow-start-0" viewBox="0 0 10 10" refX="4.5" refY="5" markerUnits="userSpaceOnUse" markerWidth="8" markerHeight="8" orient="auto"><path d="M 0 5 L 10 10 L 10 0 z" fill="#333333" stroke="#333333" stroke-width="1" stroke-dasharray="1,0"/></marker><marker id="arrow-state-0" viewBox="0 0 20 14" refX="19" refY="7" markerUnits="userSpaceOnUse" markerWidth="20" markerHeight="14" orient="auto"><path d="M 19 7 L 9 13 L 14 7 L 9 1 Z" fill="#333333" stroke="#333333" stroke-width="1" stroke-dasharray="1,0"/></marker></defs><path d="M 16.640,25.280L 16.640,25.784C16.640,26.288,16.640,27.296,16.640,28.304C16.640,29.312,16.640,30.320,16.968,31.206C17.297,32.093,17.953,32.858,23.855,39.730C29.756,46.603,40.902,59.584,46.803,66.457C52.704,73.329,53.361,74.094,53.689,74.980C54.018,75.867,54.018,76.875,54.018,77.883C54.018,78.891,54.018,79.899,54.018,80.403L 54.018,80.907" fill="none" stroke="#333333" stroke-width="1" marker-end="url(#arrow-state-0)"   stroke-linecap="round" stroke-linejoin="round" /><path d="M 54.018,127.947L 54.018,128.701C54.018,129.456,54.018,130.965,54.018,132.474C54.018,133.982,54.018,135.491,53.322,136.539C52.627,137.586,51.236,138.171,48.860,139.172C46.483,140.172,43.120,141.588,40.743,142.589C38.366,143.589,36.975,144.175,36.280,145.222C35.585,146.269,35.585,147.778,35.585,149.287C35.585,150.796,35.585,152.305,35.585,153.059L 35.585,153.814" fill="none" stroke="#333333" stroke-width="1" marker-end="url(#arrow-state-0)"   stroke-linecap="round" stroke-linejoin="round" /><rect x="25.53" y="129.08" width="38.53" height="23.60" rx="2" ry="2" fill="rgba(232,232,232, 0.8)" fill-opacity="0.70" stroke="#9370DB" stroke-opacity="0.25" stroke-width="0.8"/><text x="44.80" y="144.28" text-anchor="middle" font-family="'trebuchet ms', verdana, arial, sans-serif" font-size="13.6" fill="#333333"><tspan x="44.80" dy="0.00">start</tspan></text><path d="M 96.459,55.040L 96.459,55.794C96.459,56.549,96.459,58.058,96.459,59.567C96.459,61.076,96.459,62.584,96.343,64.084C96.226,65.584,95.994,67.075,94.014,79.774C92.033,92.473,88.305,116.380,86.324,129.080C84.344,141.779,84.112,143.269,83.995,144.769C83.879,146.269,83.879,147.778,83.879,149.287C83.879,150.796,83.879,152.305,83.879,153.059L 83.879,153.814" fill="none" stroke="#333333" stroke-width="1" marker-end="url(#arrow-state-0)"   stroke-linecap="round" stroke-linejoin="round" /><rect x="18.63" y="153.81" width="82.20" height="47.04" rx="10" ry="10" fill="#ECECFF" stroke="#9370DB" stroke-width="1" stroke-linejoin="round" stroke-linecap="round"/><text x="59.73" y="180.73" text-anchor="middle" font-family="'trebuchet ms', verdana, arial, sans-serif" font-size="13.6" fill="#333333"><tspan x="59.73" dy="0.00">Active</tspan></text><rect x="21.34" y="80.91" width="65.36" height="47.04" rx="10" ry="10" fill="#ECECFF" stroke="#9370DB" stroke-width="1" stroke-linejoin="round" stroke-linecap="round"/><text x="54.02" y="107.83" text-anchor="middle" font-family="'trebuchet ms', verdana, arial, sans-serif" font-size="13.6" fill="#333333"><tspan x="54.02" dy="0.00">Idle</tspan></text><rect x="51.15" y="8.00" width="90.62" height="47.04" rx="10" ry="10" fill="#ECECFF" stroke="#9370DB" stroke-width="1" stroke-linejoin="round" stroke-linecap="round"/><text x="96.46" y="34.92" text-anchor="middle" font-family="'trebuchet ms', verdana, arial, sans-serif" font-size="13.6" fill="#333333"><tspan x="96.46" dy="0.00">Waiting</tspan></text><circle cx="16.64" cy="16.64" r="8.64" fill="#333333" stroke="#333333" stroke-width="1" stroke-linejoin="round" stroke-linecap="round"/></svg>