<svg xmlns="http://www.w3.org/2000/svg" width="180.28906" height="214.98099" viewBox="0 0 180.28906 214.98099"><rect x="0" y="0" width="180.28906" height="214.98099" fill="#FFFFFF"/><defs><marker id="arrow-0" viewBox="0 0 10 10" refX="5" refY="5" markerUnits="userSpaceOnUse" markerWidth="8" markerHeight="8" orient="auto"><path d="M 0 0 L 10 5 L 0 10 z" fill="#333333" stroke="#333333" stroke-width="1" stroke-dasharray="1,0"/></marker><marker id="arrow-start-0" viewBox="0 0 10 10" refX="4.5" refY="5" markerUnits="userSpaceOnUse" markerWidth="8" markerHeight="8" orient="auto"><path d="M 0 5 L 10 10 L 10 0 z" fill="#333333" stroke="#333333" stroke-width="1" stroke-dasharray="1,0"/></marker><marker id="arrow-state-0" viewBox="0 0 20 14" refX="19" refY="7" markerUnits="userSpaceOnUse" markerWidth="20" markerHeight="14" orient="auto"><path d="M 19 7 L 9 13 L 14 7 L 9 1 Z" fill="#333333" stroke="#333333" stroke-width="1" stroke-dasharray="1,0"/></marker></defs><path d="M 94.70 122.60 L 160.29 122.60 L 172.29 134.60 L 172.29 162.60 L 94.70 162.60 Z" fill="#FFF5AD" stroke="#AAAA33" stroke-width="1.1"/><polyline points="160.29,122.60 160.29,134.60 172.29,134.60" fill="none" stroke="#AAAA33" stroke-width="1.0"/><text x="133.50" y="146.00" text-anchor="middle" font-family="'trebuchet ms', verdana, arial, sans-serif" font-size="13.6" fill="#333333"><tspan x="133.50" dy="0.00">Running</tspan></text><path d="M 42.928,25.280L 42.928,25.784C42.928,26.288,42.928,27.296,42.928,28.304C42.928,29.312,42.928,30.320,42.962,31.327C42.995,32.334,43.063,33.340,43.161,34.821C43.260,36.302,43.391,38.258,43.490,39.739C43.588,41.220,43.656,42.226,43.689,43.233C43.723,44.240,43.723,45.248,43.723,46.256C43.723,47.264,43.723,48.272,43.723,48.776L 43.723,49.280" fill="none" stroke="#333333" stroke-width="1" marker-end="url(#arrow-state-0)"   stroke-linecap="round" stroke-linejoin="round" /><path d="M 43.723,95.490L 43.723,96.289C43.723,97.088,43.723,98.686,43.723,100.086C43.723,101.486,43.723,102.688,43.758,103.889C43.794,105.090,43.866,106.290,43.901,106.890C43.937,107.491,43.937,107.491,43.973,108.090C44.009,108.690,44.080,109.890,44.116,111.092C44.152,112.293,44.152,113.495,44.152,114.895C44.152,116.295,44.152,117.893,44.152,118.692L 44.152,119.490" fill="none" stroke="#333333" stroke-width="1" marker-end="url(#arrow-state-0)"   stroke-linecap="round" stroke-linejoin="round" /><path d="M 44.152,165.701L 44.152,166.205C44.152,166.709,44.152,167.717,44.152,168.725C44.152,169.733,44.152,170.741,44.146,171.749C44.139,172.757,44.127,173.765,44.108,175.245C44.090,176.725,44.066,178.677,44.047,180.157C44.029,181.637,44.017,182.645,44.010,183.653C44.004,184.661,44.004,185.669,44.004,186.677C44.004,187.685,44.004,188.693,44.004,189.197L 44.004,189.701" fill="none" stroke="#333333" stroke-width="1" marker-end="url(#arrow-state-0)"   stroke-linecap="round" stroke-linejoin="round" /><rect x="8.00" y="119.49" width="72.30" height="46.21" rx="10" ry="10" fill="#ECECFF" stroke="#9370DB" stroke-width="1" stroke-linejoin="round" stroke-linecap="round"/><text x="44.15" y="146.00" text-anchor="middle" font-family="'trebuchet ms', verdana, arial, sans-serif" font-size="13.6" fill="#333333"><tspan x="44.15" dy="0.00">Active</tspan></text><rect x="15.99" y="49.28" width="55.46" height="46.21" rx="10" ry="10" fill="#ECECFF" stroke="#9370DB" stroke-width="1" stroke-linejoin="round" stroke-linecap="round"/><text x="43.72" y="75.79" text-anchor="middle" font-family="'trebuchet ms', verdana, arial, sans-serif" font-size="13.6" fill="#333333"><tspan x="43.72" dy="0.00">Idle</tspan></text><circle cx="44.00" cy="198.34" r="8.64" fill="#9370DB" stroke="#9370DB" stroke-width="1" stroke-linejoin="round" stroke-linecap="round"/><circle cx="44.00" cy="198.34" r="4.64" fill="#FFFFFF" stroke="#FFFFFF" stroke-width="1.2" stroke-linejoin="round" stroke-linecap="round"/><circle cx="42.93" cy="16.64" r="8.64" fill="#333333" stroke="#333333" stroke-width="1" stroke-linejoin="round" stroke-linecap="round"/></svg>