<svg xmlns="http://www.w3.org/2000/svg" width="358.17172" height="453.34003" viewBox="0 0 358.17172 453.34003"><rect x="0" y="0" width="358.17172" height="453.34003" fill="#FFFFFF"/><defs><marker id="arrow-0" viewBox="0 0 10 10" refX="5" refY="5" markerUnits="userSpaceOnUse" markerWidth="8" markerHeight="8" orient="auto"><path d="M 0 0 L 10 5 L 0 10 z" fill="#2F3B4D" stroke="#2F3B4D" stroke-width="1" stroke-dasharray="1,0"/></marker><marker id="arrow-start-0" viewBox="0 0 10 10" refX="4.5" refY="5" markerUnits="userSpaceOnUse" markerWidth="8" markerHeight="8" orient="auto"><path d="M 0 5 L 10 10 L 10 0 z" fill="#2F3B4D" stroke="#2F3B4D" stroke-width="1" stroke-dasharray="1,0"/></marker><marker id="arrow-state-0" viewBox="0 0 20 14" refX="19" refY="7" markerUnits="userSpaceOnUse" markerWidth="20" markerHeight="14" orient="auto"><path d="M 19 7 L 9 13 L 14 7 L 9 1 Z" fill="#2F3B4D" stroke="#2F3B4D" stroke-width="1" stroke-dasharray="1,0"/></marker></defs><rect x="30.40" y="47.20" width="319.77" height="36.00" rx="6" ry="6" fill="hsl(240.0000000000, 99.9999237061%, 92.2745056152%)" stroke="none"/><rect x="30.40" y="83.20" width="319.77" height="335.52" fill="hsl(240.0000000000, 87.9999237061%, 100.0000000000%)" stroke="none"/><line x1="30.40" y1="83.20" x2="350.17" y2="83.20" stroke="#7B88A8" stroke-width="1"/><rect x="30.40" y="47.20" width="319.77" height="371.52" rx="6" ry="6" fill="none" stroke="#7B88A8" stroke-width="1"/><text x="40.00" y="68.60" text-anchor="start" font-family="'trebuchet ms', verdana, arial, sans-serif" font-size="13.6" fill="#333333" font-weight="600"><tspan x="40.00" dy="0.00">Active</tspan></text><rect x="186.29" y="122.40" width="147.89" height="36.00" rx="6" ry="6" fill="hsl(240.0000000000, 99.9999237061%, 92.2745056152%)" stroke="none"/><rect x="186.29" y="158.40" width="147.89" height="189.68" fill="hsl(240.0000000000, 87.9999237061%, 100.0000000000%)" stroke="none"/><line x1="186.29" y1="158.40" x2="334.17" y2="158.40" stroke="#7B88A8" stroke-width="1"/><rect x="186.29" y="122.40" width="147.89" height="225.68" rx="6" ry="6" fill="none" stroke="#7B88A8" stroke-width="1"/><text x="195.89" y="143.80" text-anchor="start" font-family="'trebuchet ms', verdana, arial, sans-serif" font-size="13.6" fill="#333333" font-weight="600"><tspan x="195.89" dy="0.00">Running</tspan></text><path d="M 161.651,23.200L 161.651,23.700C161.651,24.200,161.651,25.200,161.651,26.200C161.651,27.200,161.651,28.200,162.112,28.893C162.573,29.587,163.495,29.973,167.807,31.780C172.118,33.586,179.818,36.813,184.130,38.620C188.441,40.427,189.364,40.813,189.825,41.507C190.286,42.200,190.286,43.200,190.286,44.200C190.286,45.200,190.286,46.200,190.286,46.700L 190.286,47.200" fill="none" stroke="#2F3B4D" stroke-width="1" marker-end="url(#arrow-state-0)"   stroke-linecap="round" stroke-linejoin="round" /><path d="M 61.600,90.800L 62.100,90.800C62.600,90.800,63.600,90.800,64.600,90.800C65.600,90.800,66.600,90.800,67.592,90.886C68.585,90.973,69.570,91.146,100.016,96.493C130.461,101.840,190.368,112.360,220.813,117.707C251.259,123.054,252.244,123.227,253.236,123.314C254.229,123.400,255.229,123.400,256.229,123.400C257.229,123.400,258.229,123.400,258.729,123.400L 259.229,123.400" fill="none" stroke="#2F3B4D" stroke-width="1" marker-end="url(#arrow-state-0)"   stroke-linecap="round" stroke-linejoin="round" /><path d="M 259.229,347.080L 258.729,347.080C258.229,347.080,257.229,347.080,256.229,347.080C255.229,347.080,254.229,347.080,253.729,347.580C253.229,348.080,253.229,349.080,253.229,363.457C253.229,377.833,253.229,405.587,253.229,421.463C253.229,437.340,253.229,441.340,251.229,443.340C249.229,445.340,245.229,445.340,227.458,445.340C209.687,445.340,178.145,445.340,160.374,445.340C142.604,445.340,138.604,445.340,136.604,443.340C134.604,441.340,134.604,437.340,134.604,426.817C134.604,416.293,134.604,399.247,134.604,390.223C134.604,381.200,134.604,380.200,134.104,379.700C133.604,379.200,132.604,379.200,131.604,379.200C130.604,379.200,129.604,379.200,129.104,379.200L 128.604,379.200" fill="none" stroke="#2F3B4D" stroke-width="1" marker-end="url(#arrow-state-0)"   stroke-linecap="round" stroke-linejoin="round" /><rect x="233.16" y="422.34" width="38.53" height="23.60" rx="2" ry="2" fill="rgba(248,250,252, 0.92)" fill-opacity="0.70" stroke="#7B88A8" stroke-opacity="0.25" stroke-width="0.8"/><text x="252.43" y="437.54" text-anchor="middle" font-family="'trebuchet ms', verdana, arial, sans-serif" font-size="13.6" fill="#333333"><tspan x="252.43" dy="0.00">pause</tspan></text><path d="M 87.502,355.680L 87.502,355.027C87.502,354.374,87.502,353.068,87.502,352.068C87.502,351.068,87.502,350.374,87.849,350.027C88.196,349.680,88.890,349.680,89.237,349.680C89.584,349.680,89.584,349.680,89.930,349.680C90.277,349.680,90.971,349.680,91.318,349.333C91.665,348.986,91.665,348.292,91.665,313.746C91.665,279.199,91.665,210.799,91.665,174.600C91.665,138.400,91.665,134.400,93.665,132.400C95.665,130.400,99.665,130.400,127.259,130.400C154.853,130.400,206.041,130.400,232.135,130.400C258.229,130.400,259.229,130.400,259.729,129.900C260.229,129.400,260.229,128.400,260.229,127.400C260.229,126.400,260.229,125.400,260.229,124.900L 260.229,124.400" fill="none" stroke="#2F3B4D" stroke-width="1" marker-end="url(#arrow-state-0)"   stroke-linecap="round" stroke-linejoin="round" /><rect x="69.14" y="228.24" width="45.04" height="23.60" rx="2" ry="2" fill="rgba(248,250,252, 0.92)" fill-opacity="0.70" stroke="#7B88A8" stroke-opacity="0.25" stroke-width="0.8"/><text x="91.67" y="243.44" text-anchor="middle" font-family="'trebuchet ms', verdana, arial, sans-serif" font-size="13.6" fill="#333333"><tspan x="91.67" dy="0.00">resume</tspan></text><path d="M 209.886,173.600L 209.886,174.100C209.886,174.600,209.886,175.600,209.886,176.600C209.886,177.600,209.886,178.600,210.372,179.216C210.859,179.832,211.831,180.064,219.735,181.948C227.640,183.832,242.475,187.368,250.379,189.252C258.283,191.136,259.256,191.368,259.742,191.984C260.229,192.600,260.229,193.600,260.229,194.600C260.229,195.600,260.229,196.600,260.229,197.100L 260.229,197.600" fill="none" stroke="#2F3B4D" stroke-width="1" marker-end="url(#arrow-state-0)"   stroke-linecap="round" stroke-linejoin="round" /><path d="M 260.229,244.640L 260.229,245.340C260.229,246.040,260.229,247.440,260.229,248.840C260.229,250.240,260.229,251.640,259.898,252.957C259.568,254.274,258.908,255.509,257.133,258.825C255.358,262.141,252.469,267.539,250.694,270.855C248.919,274.171,248.259,275.406,247.928,276.723C247.598,278.040,247.598,279.440,247.598,280.840C247.598,282.240,247.598,283.640,247.598,284.340L 247.598,285.040" fill="none" stroke="#2F3B4D" stroke-width="1" marker-end="url(#arrow-state-0)"   stroke-linecap="round" stroke-linejoin="round" /><rect x="149.52" y="207.48" width="38.53" height="23.60" rx="2" ry="2" fill="rgba(248,250,252, 0.92)" fill-opacity="0.70" stroke="#7B88A8" stroke-opacity="0.25" stroke-width="0.8"/><text x="168.79" y="222.68" text-anchor="middle" font-family="'trebuchet ms', verdana, arial, sans-serif" font-size="13.6" fill="#333333"><tspan x="168.79" dy="0.00">yield</tspan></text><path d="M 263.598,285.040L 263.598,284.340C263.598,283.640,263.598,282.240,263.598,280.840C263.598,279.440,263.598,278.040,264.138,276.895C264.678,275.750,265.759,274.859,269.990,271.371C274.222,267.883,281.605,261.797,285.837,258.309C290.068,254.821,291.149,253.930,291.689,252.785C292.229,251.640,292.229,250.240,292.229,248.840C292.229,247.440,292.229,246.040,292.229,245.340L 292.229,244.640" fill="none" stroke="#2F3B4D" stroke-width="1" marker-end="url(#arrow-state-0)"   stroke-linecap="round" stroke-linejoin="round" /><rect x="306.28" y="257.93" width="32.03" height="23.60" rx="2" ry="2" fill="rgba(248,250,252, 0.92)" fill-opacity="0.70" stroke="#7B88A8" stroke-opacity="0.25" stroke-width="0.8"/><text x="322.30" y="273.13" text-anchor="middle" font-family="'trebuchet ms', verdana, arial, sans-serif" font-size="13.6" fill="#333333"><tspan x="322.30" dy="0.00">wake</tspan></text><path d="M 190.286,416.720L 190.286,416.220C190.286,415.720,190.286,414.720,190.286,413.720C190.286,412.720,190.286,411.720,190.219,410.725C190.152,409.729,190.018,408.738,189.066,401.700C188.115,394.662,186.345,381.578,185.393,374.540C184.442,367.502,184.308,366.511,184.241,365.515C184.174,364.520,184.174,363.520,184.174,362.520C184.174,361.520,184.174,360.520,184.174,360.020L 184.174,359.520" fill="none" stroke="#2F3B4D" stroke-width="1" marker-end="url(#arrow-state-0)"   stroke-linecap="round" stroke-linejoin="round" /><rect x="185.31" y="374.41" width="32.03" height="23.60" rx="2" ry="2" fill="rgba(248,250,252, 0.92)" fill-opacity="0.70" stroke="#7B88A8" stroke-opacity="0.25" stroke-width="0.8"/><text x="201.32" y="389.61" text-anchor="middle" font-family="'trebuchet ms', verdana, arial, sans-serif" font-size="13.6" fill="#333333"><tspan x="201.32" dy="0.00">stop</tspan></text><path d="M 152.174,312.480L 152.174,311.980C152.174,311.480,152.174,310.480,152.174,309.480C152.174,308.480,152.174,307.480,151.674,306.980C151.174,306.480,150.174,306.480,128.145,306.480C106.116,306.480,63.058,306.480,39.529,306.480C16.000,306.480,12.000,306.480,10.000,304.480C8.000,302.480,8.000,298.480,8.000,258.600C8.000,218.720,8.000,142.960,8.000,103.080C8.000,63.200,8.000,59.200,10.000,57.200C12.000,55.200,16.000,55.200,45.881,55.200C75.762,55.200,131.524,55.200,159.905,55.200C188.286,55.200,189.286,55.200,189.786,54.700C190.286,54.200,190.286,53.200,190.286,52.200C190.286,51.200,190.286,50.200,190.286,49.700L 190.286,49.200" fill="none" stroke="#2F3B4D" stroke-width="1" marker-end="url(#arrow-state-0)"   stroke-linecap="round" stroke-linejoin="round" /><rect x="20.38" y="169.04" width="51.55" height="23.60" rx="2" ry="2" fill="rgba(248,250,252, 0.92)" fill-opacity="0.70" stroke="#7B88A8" stroke-opacity="0.25" stroke-width="0.8"/><text x="46.15" y="184.24" text-anchor="middle" font-family="'trebuchet ms', verdana, arial, sans-serif" font-size="13.6" fill="#333333"><tspan x="46.15" dy="0.00">restart</tspan></text><path d="M 120.174,359.520L 126.630,362.321C133.085,365.122,145.997,370.724,152.911,373.724C159.826,376.724,160.743,377.122,161.202,377.821C161.661,378.520,161.661,379.520,161.661,380.520C161.661,381.520,161.661,382.520,161.661,383.020L 161.661,383.520" fill="none" stroke="#2F3B4D" stroke-width="1" marker-end="url(#arrow-state-0)"   stroke-linecap="round" stroke-linejoin="round" /><rect x="46.40" y="355.68" width="82.20" height="47.04" rx="10" ry="10" fill="#ECECFF" stroke="#7B88A8" stroke-width="1" stroke-linejoin="round" stroke-linecap="round"/><text x="87.50" y="382.60" text-anchor="middle" font-family="'trebuchet ms', verdana, arial, sans-serif" font-size="13.6" fill="#333333"><tspan x="87.50" dy="0.00">Paused</tspan></text><rect x="202.29" y="197.60" width="115.89" height="47.04" rx="10" ry="10" fill="#ECECFF" stroke="#7B88A8" stroke-width="1" stroke-linejoin="round" stroke-linecap="round"/><text x="260.23" y="224.52" text-anchor="middle" font-family="'trebuchet ms', verdana, arial, sans-serif" font-size="13.6" fill="#333333"><tspan x="260.23" dy="0.00">Processing</tspan></text><rect x="106.86" y="312.48" width="90.62" height="47.04" rx="10" ry="10" fill="#ECECFF" stroke="#7B88A8" stroke-width="1" stroke-linejoin="round" stroke-linecap="round"/><text x="152.17" y="339.40" text-anchor="middle" font-family="'trebuchet ms', verdana, arial, sans-serif" font-size="13.6" fill="#333333"><tspan x="152.17" dy="0.00">Stopped</tspan></text><rect x="202.29" y="285.04" width="90.62" height="47.04" rx="10" ry="10" fill="#ECECFF" stroke="#7B88A8" stroke-width="1" stroke-linejoin="round" stroke-linecap="round"/><text x="247.60" y="311.96" text-anchor="middle" font-family="'trebuchet ms', verdana, arial, sans-serif" font-size="13.6" fill="#333333"><tspan x="247.60" dy="0.00">Waiting</tspan></text><circle cx="161.66" cy="391.12" r="7.60" fill="#7B88A8" stroke="#7B88A8" stroke-width="1" stroke-linejoin="round" stroke-linecap="round"/><circle cx="161.66" cy="391.12" r="3.60" fill="#FFFFFF" stroke="#FFFFFF" stroke-width="1.2" stroke-linejoin="round" stroke-linecap="round"/><circle cx="161.65" cy="15.60" r="7.60" fill="#2F3B4D" stroke="#2F3B4D" stroke-width="1" stroke-linejoin="round" stroke-linecap="round"/><circle cx="54.00" cy="90.80" r="7.60" fill="#2F3B4D" stroke="#2F3B4D" stroke-width="1" stroke-linejoin="round" stroke-linecap="round"/><circle cx="209.89" cy="166.00" r="7.60" fill="#2F3B4D" stroke="#2F3B4D" stroke-width="1" stroke-linejoin="round" stroke-linecap="round"/></svg>