<svg xmlns="http://www.w3.org/2000/svg" width="374.17172" height="485.76" viewBox="0 0 374.17172 485.76"><rect x="0" y="0" width="374.17172" height="485.76" fill="#FFFFFF"/><defs><marker id="arrow-0" viewBox="0 0 10 10" refX="5" refY="5" markerUnits="userSpaceOnUse" markerWidth="8" markerHeight="8" orient="auto"><path d="M 0 0 L 10 5 L 0 10 z" fill="#2F3B4D" stroke="#2F3B4D" stroke-width="1" stroke-dasharray="1,0"/></marker><marker id="arrow-start-0" viewBox="0 0 10 10" refX="4.5" refY="5" markerUnits="userSpaceOnUse" markerWidth="8" markerHeight="8" orient="auto"><path d="M 0 5 L 10 10 L 10 0 z" fill="#2F3B4D" stroke="#2F3B4D" stroke-width="1" stroke-dasharray="1,0"/></marker><marker id="arrow-state-0" viewBox="0 0 20 14" refX="19" refY="7" markerUnits="userSpaceOnUse" markerWidth="20" markerHeight="14" orient="auto"><path d="M 19 7 L 9 13 L 14 7 L 9 1 Z" fill="#2F3B4D" stroke="#2F3B4D" stroke-width="1" stroke-dasharray="1,0"/></marker></defs><rect x="34.40" y="35.20" width="331.77" height="36.00" rx="6" ry="6" fill="hsl(240.0000000000, 99.9999237061%, 92.2745056152%)" stroke="none"/><rect x="34.40" y="71.20" width="331.77" height="359.52" fill="hsl(240.0000000000, 87.9999237061%, 100.0000000000%)" stroke="none"/><line x1="34.40" y1="71.20" x2="366.17" y2="71.20" stroke="#7B88A8" stroke-width="1"/><rect x="34.40" y="35.20" width="331.77" height="395.52" rx="6" ry="6" fill="none" stroke="#7B88A8" stroke-width="1"/><text x="44.00" y="56.60" text-anchor="start" font-family="'trebuchet ms', verdana, arial, sans-serif" font-size="13.6" fill="#333333" font-weight="600"><tspan x="44.00" dy="0.00">Active</tspan></text><rect x="46.40" y="47.20" width="228.83" height="36.00" rx="6" ry="6" fill="hsl(240.0000000000, 99.9999237061%, 92.2745056152%)" stroke="none"/><rect x="46.40" y="83.20" width="228.83" height="335.52" fill="hsl(240.0000000000, 87.9999237061%, 100.0000000000%)" stroke="none"/><line x1="46.40" y1="83.20" x2="275.23" y2="83.20" stroke="#7B88A8" stroke-width="1"/><rect x="46.40" y="47.20" width="228.83" height="371.52" rx="6" ry="6" fill="none" stroke="#7B88A8" stroke-width="1"/><text x="56.00" y="68.60" text-anchor="start" font-family="'trebuchet ms', verdana, arial, sans-serif" font-size="13.6" fill="#333333" font-weight="600"><tspan x="56.00" dy="0.00">Running</tspan></text><path d="M 177.655,23.200L 177.655,23.700C177.655,24.200,177.655,25.200,177.655,26.200C177.655,27.200,177.655,28.200,178.155,28.700C178.655,29.200,179.655,29.200,182.927,29.200C186.199,29.200,191.742,29.200,195.014,29.200C198.286,29.200,199.286,29.200,199.786,29.700C200.286,30.200,200.286,31.200,200.286,32.200C200.286,33.200,200.286,34.200,200.286,34.700L 200.286,35.200" fill="none" stroke="#2F3B4D" stroke-width="1" marker-end="url(#arrow-state-0)"   stroke-linecap="round" stroke-linejoin="round" /><path d="M 77.600,90.800L 72.051,90.800C66.502,90.800,55.405,90.800,47.856,90.800C40.307,90.800,36.307,90.800,34.307,88.800C32.307,86.800,32.307,82.800,32.307,77.700C32.307,72.600,32.307,66.400,32.307,61.300C32.307,56.200,32.307,52.200,34.307,50.200C36.307,48.200,40.307,48.200,61.558,48.200C82.809,48.200,121.311,48.200,140.563,48.200L 159.814,48.200" fill="none" stroke="#2F3B4D" stroke-width="1" marker-end="url(#arrow-state-0)"   stroke-linecap="round" stroke-linejoin="round" /><path d="M 159.814,417.720L 159.314,417.720C158.814,417.720,157.814,417.720,156.814,417.720C155.814,417.720,154.814,417.720,154.272,417.222C153.731,416.723,153.648,415.727,153.154,409.805C152.661,403.883,151.757,393.037,151.263,387.115C150.770,381.193,150.687,380.197,150.145,379.698C149.604,379.200,148.604,379.200,147.604,379.200C146.604,379.200,145.604,379.200,145.104,379.200L 144.604,379.200" fill="none" stroke="#2F3B4D" stroke-width="1" marker-end="url(#arrow-state-0)"   stroke-linecap="round" stroke-linejoin="round" /><rect x="232.55" y="419.30" width="38.53" height="23.60" rx="2" ry="2" fill="rgba(248,250,252, 0.92)" fill-opacity="0.70" stroke="#7B88A8" stroke-opacity="0.25" stroke-width="0.8"/><text x="251.81" y="434.50" text-anchor="middle" font-family="'trebuchet ms', verdana, arial, sans-serif" font-size="13.6" fill="#333333"><tspan x="251.81" dy="0.00">pause</tspan></text><path d="M 103.502,355.680L 103.502,355.180C103.502,354.680,103.502,353.680,103.502,352.680C103.502,351.680,103.502,350.680,103.002,350.180C102.502,349.680,101.502,349.680,90.251,349.680C79.001,349.680,57.501,349.680,44.750,349.680C32.000,349.680,28.000,349.680,26.000,347.680C24.000,345.680,24.000,341.680,24.000,294.600C24.000,247.520,24.000,157.360,24.000,110.280C24.000,63.200,24.000,59.200,26.000,57.200C28.000,55.200,32.000,55.200,54.302,55.200C76.605,55.200,117.209,55.200,138.011,55.200C158.814,55.200,159.814,55.200,160.314,54.700C160.814,54.200,160.814,53.200,160.814,52.200C160.814,51.200,160.814,50.200,160.814,49.700L 160.814,49.200" fill="none" stroke="#2F3B4D" stroke-width="1" marker-end="url(#arrow-state-0)"   stroke-linecap="round" stroke-linejoin="round" /><rect x="225.20" y="85.36" width="45.04" height="23.60" rx="2" ry="2" fill="rgba(248,250,252, 0.92)" fill-opacity="0.70" stroke="#7B88A8" stroke-opacity="0.25" stroke-width="0.8"/><text x="247.72" y="100.56" text-anchor="middle" font-family="'trebuchet ms', verdana, arial, sans-serif" font-size="13.6" fill="#333333"><tspan x="247.72" dy="0.00">resume</tspan></text><path d="M 109.200,98.400L 109.200,98.900C109.200,99.400,109.200,100.400,109.200,101.400C109.200,102.400,109.200,103.400,109.540,104.266C109.880,105.133,110.561,105.866,112.078,107.499C113.595,109.133,115.948,111.667,117.465,113.301C118.982,114.934,119.662,115.667,120.003,116.534C120.343,117.400,120.343,118.400,120.343,119.400C120.343,120.400,120.343,121.400,120.343,121.900L 120.343,122.400" fill="none" stroke="#2F3B4D" stroke-width="1" marker-end="url(#arrow-state-0)"   stroke-linecap="round" stroke-linejoin="round" /><path d="M 120.343,169.440L 120.343,170.140C120.343,170.840,120.343,172.240,120.343,173.640C120.343,175.040,120.343,176.440,120.634,177.776C120.926,179.113,121.508,180.386,134.146,207.989C146.783,235.593,171.475,289.527,184.113,317.131C196.750,344.734,197.333,346.007,197.624,347.344C197.916,348.680,197.916,350.080,197.916,351.480C197.916,352.880,197.916,354.280,197.916,354.980L 197.916,355.680" fill="none" stroke="#2F3B4D" stroke-width="1" marker-end="url(#arrow-state-0)"   stroke-linecap="round" stroke-linejoin="round" /><rect x="227.65" y="210.57" width="38.53" height="23.60" rx="2" ry="2" fill="rgba(248,250,252, 0.92)" fill-opacity="0.70" stroke="#7B88A8" stroke-opacity="0.25" stroke-width="0.8"/><text x="246.92" y="225.77" text-anchor="middle" font-family="'trebuchet ms', verdana, arial, sans-serif" font-size="13.6" fill="#333333"><tspan x="246.92" dy="0.00">yield</tspan></text><path d="M 213.916,355.680L 213.916,354.980C213.916,354.280,213.916,352.880,213.916,351.480C213.916,350.080,213.916,348.680,213.624,347.344C213.333,346.007,212.750,344.734,200.113,317.131C187.475,289.527,162.783,235.593,150.146,207.989C137.508,180.386,136.926,179.113,136.634,177.776C136.343,176.440,136.343,175.040,136.343,173.640C136.343,172.240,136.343,170.840,136.343,170.140L 136.343,169.440" fill="none" stroke="#2F3B4D" stroke-width="1" marker-end="url(#arrow-state-0)"   stroke-linecap="round" stroke-linejoin="round" /><rect x="224.67" y="296.36" width="32.03" height="23.60" rx="2" ry="2" fill="rgba(248,250,252, 0.92)" fill-opacity="0.70" stroke="#7B88A8" stroke-opacity="0.25" stroke-width="0.8"/><text x="240.69" y="311.56" text-anchor="middle" font-family="'trebuchet ms', verdana, arial, sans-serif" font-size="13.6" fill="#333333"><tspan x="240.69" dy="0.00">wake</tspan></text><path d="M 199.286,429.720L 198.786,429.720C198.286,429.720,197.286,429.720,196.286,429.720C195.286,429.720,194.286,429.720,193.301,429.843C192.316,429.965,191.347,430.211,184.728,431.887C178.108,433.562,165.839,436.669,157.765,438.713C149.691,440.757,145.814,441.738,145.644,443.161C145.475,444.584,149.014,446.449,152.659,448.369C156.303,450.289,160.053,452.264,161.928,453.252L 163.803,454.240" fill="none" stroke="#2F3B4D" stroke-width="1" marker-end="url(#arrow-state-0)"   stroke-linecap="round" stroke-linejoin="round" /><rect x="125.92" y="430.92" width="32.03" height="23.60" rx="2" ry="2" fill="rgba(248,250,252, 0.92)" fill-opacity="0.70" stroke="#7B88A8" stroke-opacity="0.25" stroke-width="0.8"/><text x="141.94" y="446.12" text-anchor="middle" font-family="'trebuchet ms', verdana, arial, sans-serif" font-size="13.6" fill="#333333"><tspan x="141.94" dy="0.00">stop</tspan></text><path d="M 118.491,430.720L 118.491,430.220C118.491,429.720,118.491,428.720,118.491,427.720C118.491,426.720,118.491,425.720,117.991,425.220C117.491,424.720,116.491,424.720,100.076,424.720C83.661,424.720,51.830,424.720,33.915,424.720C16.000,424.720,12.000,424.720,11.992,424.899C11.984,425.078,15.968,425.437,47.316,428.258C78.664,431.078,137.375,436.362,168.723,439.182C200.071,442.003,204.055,442.362,205.152,440.752C206.248,439.143,204.457,435.567,172.013,370.768C139.568,305.970,76.471,179.950,44.026,115.152C11.582,50.353,9.791,46.777,10.895,44.988C12.000,43.200,16.000,43.200,47.548,43.200C79.095,43.200,138.191,43.200,168.238,43.200C198.286,43.200,199.286,43.200,199.786,42.700C200.286,42.200,200.286,41.200,200.286,40.200C200.286,39.200,200.286,38.200,200.286,37.700L 200.286,37.200" fill="none" stroke="#2F3B4D" stroke-width="1" marker-end="url(#arrow-state-0)"   stroke-linecap="round" stroke-linejoin="round" /><rect x="182.27" y="430.92" width="51.55" height="23.60" rx="2" ry="2" fill="rgba(248,250,252, 0.92)" fill-opacity="0.70" stroke="#7B88A8" stroke-opacity="0.25" stroke-width="0.8"/><text x="208.04" y="446.12" text-anchor="middle" font-family="'trebuchet ms', verdana, arial, sans-serif" font-size="13.6" fill="#333333"><tspan x="208.04" dy="0.00">restart</tspan></text><path d="M 163.803,438.240L 164.303,438.240C164.803,438.240,165.803,438.240,166.803,438.240C167.803,438.240,168.803,438.240,168.803,438.241C168.804,438.243,167.804,438.246,163.770,438.258C159.737,438.270,152.670,438.290,148.637,438.302C144.604,438.314,143.604,438.317,143.604,438.319C143.604,438.320,144.604,438.320,145.604,438.320C146.604,438.320,147.604,438.320,148.104,438.320L 148.604,438.320" fill="none" stroke="#2F3B4D" stroke-width="1" marker-end="url(#arrow-state-0)"   stroke-linecap="round" stroke-linejoin="round" /><rect x="62.40" y="355.68" width="82.20" height="47.04" rx="10" ry="10" fill="#ECECFF" stroke="#7B88A8" stroke-width="1" stroke-linejoin="round" stroke-linecap="round"/><text x="103.50" y="382.60" text-anchor="middle" font-family="'trebuchet ms', verdana, arial, sans-serif" font-size="13.6" fill="#333333"><tspan x="103.50" dy="0.00">Paused</tspan></text><rect x="62.40" y="122.40" width="115.89" height="47.04" rx="10" ry="10" fill="#ECECFF" stroke="#7B88A8" stroke-width="1" stroke-linejoin="round" stroke-linecap="round"/><text x="120.34" y="149.32" text-anchor="middle" font-family="'trebuchet ms', verdana, arial, sans-serif" font-size="13.6" fill="#333333"><tspan x="120.34" dy="0.00">Processing</tspan></text><rect x="73.18" y="430.72" width="90.62" height="47.04" rx="10" ry="10" fill="#ECECFF" stroke="#7B88A8" stroke-width="1" stroke-linejoin="round" stroke-linecap="round"/><text x="118.49" y="457.64" text-anchor="middle" font-family="'trebuchet ms', verdana, arial, sans-serif" font-size="13.6" fill="#333333"><tspan x="118.49" dy="0.00">Stopped</tspan></text><rect x="168.60" y="355.68" width="90.62" height="47.04" rx="10" ry="10" fill="#ECECFF" stroke="#7B88A8" stroke-width="1" stroke-linejoin="round" stroke-linecap="round"/><text x="213.92" y="382.60" text-anchor="middle" font-family="'trebuchet ms', verdana, arial, sans-serif" font-size="13.6" fill="#333333"><tspan x="213.92" dy="0.00">Waiting</tspan></text><circle cx="156.20" cy="438.32" r="7.60" fill="#7B88A8" stroke="#7B88A8" stroke-width="1" stroke-linejoin="round" stroke-linecap="round"/><circle cx="156.20" cy="438.32" r="3.60" fill="#FFFFFF" stroke="#FFFFFF" stroke-width="1.2" stroke-linejoin="round" stroke-linecap="round"/><circle cx="177.65" cy="15.60" r="7.60" fill="#2F3B4D" stroke="#2F3B4D" stroke-width="1" stroke-linejoin="round" stroke-linecap="round"/><circle cx="70.00" cy="90.80" r="7.60" fill="#2F3B4D" stroke="#2F3B4D" stroke-width="1" stroke-linejoin="round" stroke-linecap="round"/><circle cx="109.20" cy="90.80" r="7.60" fill="#2F3B4D" stroke="#2F3B4D" stroke-width="1" stroke-linejoin="round" stroke-linecap="round"/></svg>