<svg xmlns="http://www.w3.org/2000/svg" width="572.24" height="1093.3501" viewBox="0 0 572.24 1093.3501"><rect width="100%" height="100%" fill="#FFFFFF"/><defs><marker id="arrow-0" viewBox="0 0 10 10" refX="5" refY="5" markerUnits="userSpaceOnUse" markerWidth="8" markerHeight="8" orient="auto"><path d="M 0 0 L 10 5 L 0 10 z" fill="#333333"/></marker><marker id="arrow-start-0" viewBox="0 0 10 10" refX="4.5" refY="5" markerUnits="userSpaceOnUse" markerWidth="8" markerHeight="8" orient="auto"><path d="M 0 5 L 10 10 L 10 0 z" fill="#333333"/></marker><marker id="arrow-state-0" viewBox="0 0 20 14" refX="19" refY="7" markerUnits="userSpaceOnUse" markerWidth="20" markerHeight="14" orient="auto"><path d="M 19 7 L 9 13 L 14 7 L 9 1 Z" fill="#333333" stroke="#333333"/></marker></defs><rect x="236.09" y="382.95" width="276.15" height="650.40" rx="5" ry="5" fill="#ECECFF" stroke="#9370DB" stroke-width="1"/><rect x="236.09" y="410.95" width="276.15" height="622.40" fill="#FFFFFF" stroke="none"/><text x="248.09" y="400.95" text-anchor="start" font-family="'trebuchet ms', verdana, arial, sans-serif" font-size="16" fill="#333333"><tspan x="248.09" dy="0.00">Processing</tspan></text><path d="M 295.23 57.35 L 295.23 132.18 L 295.23 132.18 L 295.23 207.00" fill="none" stroke="#333333" stroke-width="1" marker-end="url(#arrow-state-0)"   stroke-linecap="round" stroke-linejoin="round" /><path d="M 295.23 263.70 L 295.23 323.33 L 374.17 323.33 L 374.17 382.95" fill="none" stroke="#333333" stroke-width="1" marker-end="url(#arrow-state-0)"   stroke-linecap="round" stroke-linejoin="round" /><rect x="309.10" y="309.33" width="51.20" height="28.00" rx="0" ry="0" fill="#ECECFF" fill-opacity="0.5" stroke="none"/><text x="334.70" y="327.33" text-anchor="middle" font-family="'trebuchet ms', verdana, arial, sans-serif" font-size="16" fill="#333333"><tspan x="334.70" dy="0.00">submit</tspan></text><path d="M 374.17 1033.35 L 374.17 868.68 L 84.72 868.68 L 84.72 584.00" fill="none" stroke="#333333" stroke-width="1" marker-end="url(#arrow-state-0)"   stroke-linecap="round" stroke-linejoin="round" /><rect x="196.64" y="886.68" width="65.60" height="28.00" rx="0" ry="0" fill="#ECECFF" fill-opacity="0.5" stroke="none"/><text x="229.44" y="904.68" text-anchor="middle" font-family="'trebuchet ms', verdana, arial, sans-serif" font-size="16" fill="#333333"><tspan x="229.44" dy="0.00">complete</tspan></text><path d="M 374.17 1033.35 L 374.17 808.68 L 248.24 808.68 L 248.24 584.00" fill="none" stroke="#333333" stroke-width="1" marker-end="url(#arrow-state-0)"   stroke-linecap="round" stroke-linejoin="round" /><rect x="292.80" y="794.68" width="36.80" height="28.00" rx="0" ry="0" fill="#ECECFF" fill-opacity="0.5" stroke="none"/><text x="311.20" y="812.68" text-anchor="middle" font-family="'trebuchet ms', verdana, arial, sans-serif" font-size="16" fill="#333333"><tspan x="311.20" dy="0.00">fail</tspan></text><path d="M 84.72 640.70 L 84.72 363.85 L 295.23 363.85 L 295.23 207.00" fill="none" stroke="#333333" stroke-width="1" marker-end="url(#arrow-state-0)"   stroke-linecap="round" stroke-linejoin="round" /><rect x="167.98" y="349.85" width="44.00" height="28.00" rx="0" ry="0" fill="#ECECFF" fill-opacity="0.5" stroke="none"/><text x="189.98" y="367.85" text-anchor="middle" font-family="'trebuchet ms', verdana, arial, sans-serif" font-size="16" fill="#333333"><tspan x="189.98" dy="0.00">reset</tspan></text><path d="M 248.24 640.70 L 248.24 423.85 L 295.23 423.85 L 295.23 207.00" fill="none" stroke="#333333" stroke-width="1" marker-end="url(#arrow-state-0)"   stroke-linecap="round" stroke-linejoin="round" /><rect x="249.74" y="409.85" width="44.00" height="28.00" rx="0" ry="0" fill="#ECECFF" fill-opacity="0.5" stroke="none"/><text x="271.74" y="427.85" text-anchor="middle" font-family="'trebuchet ms', verdana, arial, sans-serif" font-size="16" fill="#333333"><tspan x="271.74" dy="0.00">retry</tspan></text><path d="M 248.24 640.70 L 248.24 724.28 L 191.59 724.28 L 191.59 807.85" fill="none" stroke="#333333" stroke-width="1" marker-end="url(#arrow-state-0)"   stroke-linecap="round" stroke-linejoin="round" /><rect x="197.92" y="710.28" width="44.00" height="28.00" rx="0" ry="0" fill="#ECECFF" fill-opacity="0.5" stroke="none"/><text x="219.92" y="728.28" text-anchor="middle" font-family="'trebuchet ms', verdana, arial, sans-serif" font-size="16" fill="#333333"><tspan x="219.92" dy="0.00">abort</tspan></text><path d="M 84.72 640.70 L 84.72 724.28 L 191.59 724.28 L 191.59 807.85" fill="none" stroke="#333333" stroke-width="1" marker-end="url(#arrow-state-0)"   stroke-linecap="round" stroke-linejoin="round" /><rect x="119.75" y="710.28" width="36.80" height="28.00" rx="0" ry="0" fill="#ECECFF" fill-opacity="0.5" stroke="none"/><text x="138.15" y="728.28" text-anchor="middle" font-family="'trebuchet ms', verdana, arial, sans-serif" font-size="16" fill="#333333"><tspan x="138.15" dy="0.00">done</tspan></text><path d="M 295.23 434.35 L 295.23 509.17 L 423.64 509.17 L 423.64 584.00" fill="none" stroke="#333333" stroke-width="1" marker-end="url(#arrow-state-0)"   stroke-linecap="round" stroke-linejoin="round" /><path d="M 423.64 640.70 L 423.64 715.35 L 320.73 715.35 L 320.73 790.00" fill="none" stroke="#333333" stroke-width="1" marker-end="url(#arrow-state-0)"   stroke-linecap="round" stroke-linejoin="round" /><path d="M 320.73 846.70 L 320.73 921.53 L 285.23 921.53 L 285.23 996.35" fill="none" stroke="#333333" stroke-width="1" marker-end="url(#arrow-state-0)"   stroke-linecap="round" stroke-linejoin="round" /><rect x="195.44" y="584.00" width="105.60" height="56.70" rx="10" ry="10" fill="#ECECFF" stroke="#9370DB" stroke-width="1" stroke-linejoin="round" stroke-linecap="round"/><text x="248.24" y="616.35" text-anchor="middle" font-family="'trebuchet ms', verdana, arial, sans-serif" font-size="16" fill="#333333"><tspan x="248.24" dy="0.00">Error</tspan></text><rect x="252.09" y="790.00" width="137.28" height="56.70" rx="10" ry="10" fill="#ECECFF" stroke="#9370DB" stroke-width="1" stroke-linejoin="round" stroke-linecap="round"/><text x="320.73" y="822.35" text-anchor="middle" font-family="'trebuchet ms', verdana, arial, sans-serif" font-size="16" fill="#333333"><tspan x="320.73" dy="0.00">Executing</tspan></text><rect x="246.39" y="207.00" width="97.68" height="56.70" rx="10" ry="10" fill="#ECECFF" stroke="#9370DB" stroke-width="1" stroke-linejoin="round" stroke-linecap="round"/><text x="295.23" y="239.35" text-anchor="middle" font-family="'trebuchet ms', verdana, arial, sans-serif" font-size="16" fill="#333333"><tspan x="295.23" dy="0.00">Idle</tspan></text><rect x="24.00" y="584.00" width="121.44" height="56.70" rx="10" ry="10" fill="#ECECFF" stroke="#9370DB" stroke-width="1" stroke-linejoin="round" stroke-linecap="round"/><text x="84.72" y="616.35" text-anchor="middle" font-family="'trebuchet ms', verdana, arial, sans-serif" font-size="16" fill="#333333"><tspan x="84.72" dy="0.00">Success</tspan></text><rect x="351.04" y="584.00" width="145.20" height="56.70" rx="10" ry="10" fill="#ECECFF" stroke="#9370DB" stroke-width="1" stroke-linejoin="round" stroke-linecap="round"/><text x="423.64" y="616.35" text-anchor="middle" font-family="'trebuchet ms', verdana, arial, sans-serif" font-size="16" fill="#333333"><tspan x="423.64" dy="0.00">Validating</tspan></text><circle cx="285.23" cy="1006.85" r="10.50" fill="#9370DB" stroke="#9370DB" stroke-width="1" stroke-linejoin="round" stroke-linecap="round"/><circle cx="285.23" cy="1006.85" r="6.50" fill="#FFFFFF" stroke="#FFFFFF" stroke-width="1.2" stroke-linejoin="round" stroke-linecap="round"/><circle cx="191.59" cy="818.35" r="10.50" fill="#9370DB" stroke="#9370DB" stroke-width="1" stroke-linejoin="round" stroke-linecap="round"/><circle cx="191.59" cy="818.35" r="6.50" fill="#FFFFFF" stroke="#FFFFFF" stroke-width="1.2" stroke-linejoin="round" stroke-linecap="round"/><circle cx="295.23" cy="46.85" r="10.50" fill="#333333" stroke="#333333" stroke-width="1" stroke-linejoin="round" stroke-linecap="round"/><circle cx="295.23" cy="423.85" r="10.50" fill="#333333" stroke="#333333" stroke-width="1" stroke-linejoin="round" stroke-linecap="round"/></svg>