<svg xmlns="http://www.w3.org/2000/svg" width="242.32767" height="579.0299" viewBox="0 0 242.32767 579.0299"><rect x="0" y="0" width="242.32767" height="579.0299" fill="#FFFFFF"/><defs><marker id="arrow-0" viewBox="0 0 10 10" refX="5" refY="5" markerUnits="userSpaceOnUse" markerWidth="8" markerHeight="8" orient="auto"><path d="M 0 0 L 10 5 L 0 10 z" fill="#2F3B4D" stroke="#2F3B4D" stroke-width="1" stroke-dasharray="1,0"/></marker><marker id="arrow-start-0" viewBox="0 0 10 10" refX="4.5" refY="5" markerUnits="userSpaceOnUse" markerWidth="8" markerHeight="8" orient="auto"><path d="M 0 5 L 10 10 L 10 0 z" fill="#2F3B4D" stroke="#2F3B4D" stroke-width="1" stroke-dasharray="1,0"/></marker><marker id="arrow-state-0" viewBox="0 0 20 14" refX="19" refY="7" markerUnits="userSpaceOnUse" markerWidth="20" markerHeight="14" orient="auto"><path d="M 19 7 L 9 13 L 14 7 L 9 1 Z" fill="#2F3B4D" stroke="#2F3B4D" stroke-width="1" stroke-dasharray="1,0"/></marker></defs><path d="M 129.379,23.200L 129.379,23.700C129.379,24.200,129.379,25.200,129.379,26.200C129.379,27.200,129.379,28.200,129.380,29.200C129.382,30.200,129.384,31.200,129.390,33.406C129.396,35.613,129.406,39.026,129.411,41.232C129.417,43.438,129.420,44.438,129.422,45.438C129.423,46.438,129.423,47.438,129.423,48.438C129.423,49.438,129.423,50.438,129.423,50.938L 129.423,51.438" fill="none" stroke="#2F3B4D" stroke-width="1" marker-end="url(#arrow-state-0)"   stroke-linecap="round" stroke-linejoin="round" /><path d="M 113.423,98.478L 113.423,99.302C113.423,100.126,113.423,101.773,113.423,103.420C113.423,105.067,113.423,106.714,113.655,108.328C113.886,109.942,114.350,111.523,116.097,117.478C117.843,123.433,120.872,133.762,122.619,139.717C124.366,145.672,124.829,147.253,125.061,148.867C125.293,150.480,125.293,152.128,125.293,153.775C125.293,155.422,125.293,157.069,125.293,157.893L 125.293,158.717" fill="none" stroke="#2F3B4D" stroke-width="1" marker-end="url(#arrow-state-0)"   stroke-linecap="round" stroke-linejoin="round" /><rect x="98.62" y="122.87" width="45.04" height="23.60" rx="2" ry="2" fill="rgba(248,250,252, 0.92)" fill-opacity="0.70" stroke="#7B88A8" stroke-opacity="0.25" stroke-width="0.8"/><text x="121.14" y="138.07" text-anchor="middle" font-family="'trebuchet ms', verdana, arial, sans-serif" font-size="13.6" fill="#333333"><tspan x="121.14" dy="0.00">submit</tspan></text><path d="M 109.293,205.757L 109.293,206.580C109.293,207.404,109.293,209.051,109.293,210.698C109.293,212.346,109.293,213.993,108.644,215.324C107.995,216.655,106.697,217.669,98.718,223.907C90.738,230.145,76.077,241.606,68.097,247.844C60.118,254.082,58.820,255.097,58.171,256.428C57.522,257.759,57.522,259.406,57.522,261.053C57.522,262.700,57.522,264.348,57.522,265.171L 57.522,265.995" fill="none" stroke="#2F3B4D" stroke-width="1" marker-end="url(#arrow-state-0)"   stroke-linecap="round" stroke-linejoin="round" /><rect x="57.63" y="224.08" width="51.55" height="23.60" rx="2" ry="2" fill="rgba(248,250,252, 0.92)" fill-opacity="0.70" stroke="#7B88A8" stroke-opacity="0.25" stroke-width="0.8"/><text x="83.41" y="239.28" text-anchor="middle" font-family="'trebuchet ms', verdana, arial, sans-serif" font-size="13.6" fill="#333333"><tspan x="83.41" dy="0.00">approve</tspan></text><path d="M 141.293,205.757L 141.293,206.580C141.293,207.404,141.293,209.051,141.293,210.698C141.293,212.346,141.293,213.993,141.518,215.609C141.743,217.224,142.194,218.809,143.888,224.762C145.581,230.715,148.517,241.037,150.211,246.990C151.904,252.943,152.355,254.527,152.580,256.143C152.805,257.759,152.805,259.406,152.805,261.053C152.805,262.700,152.805,264.348,152.805,265.171L 152.805,265.995" fill="none" stroke="#2F3B4D" stroke-width="1" marker-end="url(#arrow-state-0)"   stroke-linecap="round" stroke-linejoin="round" /><rect x="124.53" y="224.08" width="45.04" height="23.60" rx="2" ry="2" fill="rgba(248,250,252, 0.92)" fill-opacity="0.70" stroke="#7B88A8" stroke-opacity="0.25" stroke-width="0.8"/><text x="147.05" y="239.28" text-anchor="middle" font-family="'trebuchet ms', verdana, arial, sans-serif" font-size="13.6" fill="#333333"><tspan x="147.05" dy="0.00">reject</tspan></text><path d="M 57.522,313.035L 57.522,313.859C57.522,314.682,57.522,316.329,57.522,317.977C57.522,319.624,57.522,321.271,57.939,322.805C58.355,324.339,59.188,325.761,62.725,331.795C66.262,337.830,72.502,348.478,76.039,354.513C79.576,360.548,80.409,361.969,80.825,363.503C81.242,365.037,81.242,366.684,81.242,368.332C81.242,369.979,81.242,371.626,81.242,372.450L 81.242,373.273" fill="none" stroke="#2F3B4D" stroke-width="1" marker-end="url(#arrow-state-0)"   stroke-linecap="round" stroke-linejoin="round" /><rect x="43.61" y="331.35" width="51.55" height="23.60" rx="2" ry="2" fill="rgba(248,250,252, 0.92)" fill-opacity="0.70" stroke="#7B88A8" stroke-opacity="0.25" stroke-width="0.8"/><text x="69.38" y="346.55" text-anchor="middle" font-family="'trebuchet ms', verdana, arial, sans-serif" font-size="13.6" fill="#333333"><tspan x="69.38" dy="0.00">publish</tspan></text><path d="M 216.805,265.995L 216.805,265.171C216.805,264.348,216.805,262.700,216.805,261.053C216.805,259.406,216.805,257.759,215.982,256.935C215.158,256.112,213.511,256.112,212.634,256.112C211.756,256.112,211.649,256.112,210.718,256.112C209.787,256.112,208.032,256.112,207.155,255.234C206.278,254.357,206.278,252.602,206.278,229.977C206.278,207.352,206.278,163.857,206.278,140.109C206.278,116.362,206.278,112.362,204.278,110.362C202.278,108.362,198.278,108.362,188.959,108.362C179.640,108.362,165.002,108.362,156.860,108.362C148.717,108.362,147.070,108.362,146.247,107.538C145.423,106.714,145.423,105.067,145.423,103.420C145.423,101.773,145.423,100.126,145.423,99.302L 145.423,98.478" fill="none" stroke="#2F3B4D" stroke-width="1" marker-end="url(#arrow-state-0)"   stroke-linecap="round" stroke-linejoin="round" /><rect x="183.76" y="170.44" width="45.04" height="23.60" rx="2" ry="2" fill="rgba(248,250,252, 0.92)" fill-opacity="0.70" stroke="#7B88A8" stroke-opacity="0.25" stroke-width="0.8"/><text x="206.28" y="185.64" text-anchor="middle" font-family="'trebuchet ms', verdana, arial, sans-serif" font-size="13.6" fill="#333333"><tspan x="206.28" dy="0.00">revise</tspan></text><path d="M 81.242,420.313L 81.242,421.137C81.242,421.960,81.242,423.608,81.242,425.255C81.242,426.902,81.242,428.549,81.242,430.197C81.243,431.844,81.244,433.491,81.247,439.413C81.251,445.334,81.258,455.530,81.261,461.452C81.265,467.374,81.266,469.021,81.267,470.668C81.267,472.315,81.267,473.963,81.267,475.610C81.267,477.257,81.267,478.904,81.267,479.728L 81.267,480.552" fill="none" stroke="#2F3B4D" stroke-width="1" marker-end="url(#arrow-state-0)"   stroke-linecap="round" stroke-linejoin="round" /><rect x="55.48" y="438.63" width="51.55" height="23.60" rx="2" ry="2" fill="rgba(248,250,252, 0.92)" fill-opacity="0.70" stroke="#7B88A8" stroke-opacity="0.25" stroke-width="0.8"/><text x="81.25" y="453.83" text-anchor="middle" font-family="'trebuchet ms', verdana, arial, sans-serif" font-size="13.6" fill="#333333"><tspan x="81.25" dy="0.00">archive</tspan></text><path d="M 113.242,420.313L 113.242,420.813C113.242,421.313,113.242,422.313,113.242,423.313C113.242,424.313,113.242,425.313,113.742,425.813C114.242,426.313,115.242,426.313,119.049,426.313C122.857,426.313,129.473,426.313,134.781,426.313C140.088,426.313,144.088,426.313,146.088,428.313C148.088,430.313,148.088,434.313,148.088,452.899C148.088,471.485,148.088,504.658,148.088,523.244C148.088,541.830,148.088,545.830,146.088,547.830C144.088,549.830,140.088,549.830,129.453,549.830C118.818,549.830,101.547,549.830,92.412,549.830C83.277,549.830,82.277,549.830,81.777,550.330C81.277,550.830,81.277,551.830,81.277,552.830C81.277,553.830,81.277,554.830,81.277,555.330L 81.277,555.830" fill="none" stroke="#2F3B4D" stroke-width="1" marker-end="url(#arrow-state-0)"   stroke-linecap="round" stroke-linejoin="round" /><path d="M 81.267,527.592 L 81.277,555.830" fill="none" stroke="#2F3B4D" stroke-width="1" marker-end="url(#arrow-state-0)"   stroke-linecap="round" stroke-linejoin="round" /><rect x="8.00" y="265.99" width="99.04" height="47.04" rx="10" ry="10" fill="#ECECFF" stroke="#7B88A8" stroke-width="1" stroke-linejoin="round" stroke-linecap="round"/><text x="57.52" y="292.91" text-anchor="middle" font-family="'trebuchet ms', verdana, arial, sans-serif" font-size="13.6" fill="#333333"><tspan x="57.52" dy="0.00">Approved</tspan></text><rect x="31.74" y="480.55" width="99.04" height="47.04" rx="10" ry="10" fill="#ECECFF" stroke="#7B88A8" stroke-width="1" stroke-linejoin="round" stroke-linecap="round"/><text x="81.27" y="507.47" text-anchor="middle" font-family="'trebuchet ms', verdana, arial, sans-serif" font-size="13.6" fill="#333333"><tspan x="81.27" dy="0.00">Archived</tspan></text><rect x="92.53" y="51.44" width="73.78" height="47.04" rx="10" ry="10" fill="#ECECFF" stroke="#7B88A8" stroke-width="1" stroke-linejoin="round" stroke-linecap="round"/><text x="129.42" y="78.36" text-anchor="middle" font-family="'trebuchet ms', verdana, arial, sans-serif" font-size="13.6" fill="#333333"><tspan x="129.42" dy="0.00">Draft</tspan></text><rect x="27.51" y="373.27" width="107.47" height="47.04" rx="10" ry="10" fill="#ECECFF" stroke="#7B88A8" stroke-width="1" stroke-linejoin="round" stroke-linecap="round"/><text x="81.24" y="400.19" text-anchor="middle" font-family="'trebuchet ms', verdana, arial, sans-serif" font-size="13.6" fill="#333333"><tspan x="81.24" dy="0.00">Published</tspan></text><rect x="135.28" y="265.99" width="99.04" height="47.04" rx="10" ry="10" fill="#ECECFF" stroke="#7B88A8" stroke-width="1" stroke-linejoin="round" stroke-linecap="round"/><text x="184.81" y="292.91" text-anchor="middle" font-family="'trebuchet ms', verdana, arial, sans-serif" font-size="13.6" fill="#333333"><tspan x="184.81" dy="0.00">Rejected</tspan></text><rect x="84.19" y="158.72" width="82.20" height="47.04" rx="10" ry="10" fill="#ECECFF" stroke="#7B88A8" stroke-width="1" stroke-linejoin="round" stroke-linecap="round"/><text x="125.29" y="185.64" text-anchor="middle" font-family="'trebuchet ms', verdana, arial, sans-serif" font-size="13.6" fill="#333333"><tspan x="125.29" dy="0.00">Review</tspan></text><circle cx="81.28" cy="563.43" r="7.60" fill="#7B88A8" stroke="#7B88A8" stroke-width="1" stroke-linejoin="round" stroke-linecap="round"/><circle cx="81.28" cy="563.43" r="3.60" fill="#FFFFFF" stroke="#FFFFFF" stroke-width="1.2" stroke-linejoin="round" stroke-linecap="round"/><circle cx="129.38" cy="15.60" r="7.60" fill="#2F3B4D" stroke="#2F3B4D" stroke-width="1" stroke-linejoin="round" stroke-linecap="round"/></svg>