<svg xmlns="http://www.w3.org/2000/svg" width="367.12067" height="806.315" viewBox="0 0 367.12067 806.315"><rect x="0" y="0" width="367.12067" height="806.315" fill="#FFFFFF"/><defs><marker id="arrow-0" viewBox="0 0 10 10" refX="5" refY="5" markerUnits="userSpaceOnUse" markerWidth="8" markerHeight="8" orient="auto"><path d="M 0 0 L 10 5 L 0 10 z" fill="#2F3B4D" stroke="#2F3B4D" stroke-width="1" stroke-dasharray="1,0"/></marker><marker id="arrow-start-0" viewBox="0 0 10 10" refX="4.5" refY="5" markerUnits="userSpaceOnUse" markerWidth="8" markerHeight="8" orient="auto"><path d="M 0 5 L 10 10 L 10 0 z" fill="#2F3B4D" stroke="#2F3B4D" stroke-width="1" stroke-dasharray="1,0"/></marker><marker id="arrow-state-0" viewBox="0 0 20 14" refX="19" refY="7" markerUnits="userSpaceOnUse" markerWidth="20" markerHeight="14" orient="auto"><path d="M 19 7 L 9 13 L 14 7 L 9 1 Z" fill="#2F3B4D" stroke="#2F3B4D" stroke-width="1" stroke-dasharray="1,0"/></marker></defs><path d="M 192.220,23.200L 192.220,23.700C192.220,24.200,192.220,25.200,192.220,26.200C192.220,27.200,192.220,28.200,192.206,29.200C192.193,30.200,192.167,31.199,192.073,34.743C191.980,38.287,191.819,44.375,191.726,47.919C191.632,51.463,191.606,52.463,191.592,53.462C191.579,54.462,191.579,55.462,191.579,56.462C191.579,57.462,191.579,58.462,191.579,58.962L 191.579,59.462" fill="none" stroke="#2F3B4D" stroke-width="1" marker-end="url(#arrow-state-0)"   stroke-linecap="round" stroke-linejoin="round" /><path d="M 175.579,106.502L 175.579,107.560C175.579,108.617,175.579,110.733,175.579,112.848C175.579,114.963,175.579,117.079,174.918,118.961C174.256,120.844,172.932,122.494,167.863,128.816C162.793,135.137,153.977,146.130,148.908,152.451C143.838,158.772,142.515,160.422,141.853,162.305C141.191,164.188,141.191,166.303,141.192,168.418C141.191,170.534,141.191,172.649,141.192,173.707L 141.191,174.764" fill="none" stroke="#2F3B4D" stroke-width="1" marker-end="url(#arrow-state-0)"   stroke-linecap="round" stroke-linejoin="round" /><rect x="106.93" y="140.57" width="84.08" height="23.60" rx="2" ry="2" fill="rgba(248,250,252, 0.92)" fill-opacity="0.70" stroke="#7B88A8" stroke-opacity="0.25" stroke-width="0.8"/><text x="148.97" y="155.77" text-anchor="middle" font-family="'trebuchet ms', verdana, arial, sans-serif" font-size="13.6" fill="#333333"><tspan x="148.97" dy="0.00">passive open</tspan></text><path d="M 207.579,106.502L 207.579,107.560C207.579,108.617,207.579,110.733,207.579,112.848C207.579,114.963,207.579,117.079,208.223,118.975C208.867,120.872,210.155,122.550,214.997,128.857C219.839,135.165,228.234,146.102,233.076,152.409C237.918,158.717,239.206,160.395,239.850,162.291C240.494,164.188,240.494,166.303,240.494,168.418C240.494,170.534,240.494,172.649,240.494,173.707L 240.494,174.764" fill="none" stroke="#2F3B4D" stroke-width="1" marker-end="url(#arrow-state-0)"   stroke-linecap="round" stroke-linejoin="round" /><rect x="229.48" y="131.33" width="116.62" height="23.60" rx="2" ry="2" fill="rgba(248,250,252, 0.92)" fill-opacity="0.70" stroke="#7B88A8" stroke-opacity="0.25" stroke-width="0.8"/><text x="287.79" y="146.53" text-anchor="middle" font-family="'trebuchet ms', verdana, arial, sans-serif" font-size="13.6" fill="#333333"><tspan x="287.79" dy="0.00">active open / SYN</tspan></text><path d="M 125.191,221.804L 125.192,222.862C125.191,223.920,125.191,226.035,125.192,228.150C125.191,230.265,125.191,232.381,126.055,234.049C126.919,235.717,128.646,236.938,137.894,243.474C147.142,250.010,163.911,261.861,173.159,268.397C182.407,274.933,184.134,276.154,184.998,277.822C185.862,279.490,185.862,281.605,185.862,283.721C185.862,285.836,185.862,287.951,185.862,289.009L 185.862,290.066" fill="none" stroke="#2F3B4D" stroke-width="1" marker-end="url(#arrow-state-0)"   stroke-linecap="round" stroke-linejoin="round" /><rect x="110.22" y="244.14" width="90.61" height="23.60" rx="2" ry="2" fill="rgba(248,250,252, 0.92)" fill-opacity="0.70" stroke="#7B88A8" stroke-opacity="0.25" stroke-width="0.8"/><text x="155.53" y="259.34" text-anchor="middle" font-family="'trebuchet ms', verdana, arial, sans-serif" font-size="13.6" fill="#333333"><tspan x="155.53" dy="0.00">SYN / SYN+ACK</tspan></text><path d="M 256.494,221.804L 256.494,248.283C256.494,274.762,256.494,327.719,256.494,356.198C256.494,384.677,256.494,388.677,254.494,390.677C252.494,392.677,248.494,392.677,241.828,392.677C235.163,392.677,225.833,392.677,220.110,392.677C214.387,392.677,212.272,392.677,211.214,393.735C210.157,394.792,210.157,396.907,210.157,399.023C210.157,401.138,210.157,403.253,210.157,404.311L 210.157,405.369" fill="none" stroke="#2F3B4D" stroke-width="1" marker-end="url(#arrow-state-0)"   stroke-linecap="round" stroke-linejoin="round" /><rect x="211.19" y="355.63" width="90.61" height="23.60" rx="2" ry="2" fill="rgba(248,250,252, 0.92)" fill-opacity="0.70" stroke="#7B88A8" stroke-opacity="0.25" stroke-width="0.8"/><text x="256.49" y="370.83" text-anchor="middle" font-family="'trebuchet ms', verdana, arial, sans-serif" font-size="13.6" fill="#333333"><tspan x="256.49" dy="0.00">SYN+ACK / ACK</tspan></text><path d="M 185.862,337.106L 185.862,338.164C185.862,339.222,185.862,341.337,185.862,343.452C185.862,345.568,185.862,347.683,185.674,349.782C185.487,351.880,185.113,353.962,184.016,360.068C182.919,366.173,181.099,376.302,180.002,382.408C178.905,388.513,178.531,390.595,178.344,392.694C178.157,394.792,178.157,396.907,178.157,399.023C178.157,401.138,178.157,403.253,178.157,404.311L 178.157,405.369" fill="none" stroke="#2F3B4D" stroke-width="1" marker-end="url(#arrow-state-0)"   stroke-linecap="round" stroke-linejoin="round" /><rect x="166.39" y="365.87" width="28.93" height="23.60" rx="2" ry="2" fill="rgba(248,250,252, 0.92)" fill-opacity="0.70" stroke="#7B88A8" stroke-opacity="0.25" stroke-width="0.8"/><text x="180.85" y="381.07" text-anchor="middle" font-family="'trebuchet ms', verdana, arial, sans-serif" font-size="13.6" fill="#333333"><tspan x="180.85" dy="0.00">ACK</tspan></text><path d="M 178.157,452.409L 178.157,453.466C178.157,454.524,178.157,456.639,178.157,458.755C178.157,460.870,178.157,462.985,177.373,464.753C176.590,466.522,175.023,467.943,167.930,474.379C160.837,480.815,148.217,492.265,141.123,498.701C134.030,505.136,132.463,506.558,131.680,508.326C130.897,510.094,130.897,512.210,130.897,514.325C130.897,516.440,130.897,518.555,130.897,519.613L 130.897,520.671" fill="none" stroke="#2F3B4D" stroke-width="1" marker-end="url(#arrow-state-0)"   stroke-linecap="round" stroke-linejoin="round" /><rect x="115.74" y="474.74" width="77.57" height="23.60" rx="2" ry="2" fill="rgba(248,250,252, 0.92)" fill-opacity="0.70" stroke="#7B88A8" stroke-opacity="0.25" stroke-width="0.8"/><text x="154.53" y="489.94" text-anchor="middle" font-family="'trebuchet ms', verdana, arial, sans-serif" font-size="13.6" fill="#333333"><tspan x="154.53" dy="0.00">close / FIN</tspan></text><path d="M 210.157,452.409L 210.157,453.466C210.157,454.524,210.157,456.639,210.157,458.755C210.157,460.870,210.157,462.985,210.925,464.770C211.693,466.554,213.229,468.009,220.011,474.428C226.794,480.847,238.822,492.232,245.604,498.651C252.386,505.071,253.922,506.525,254.691,508.310C255.459,510.094,255.459,512.210,255.459,514.325C255.459,516.440,255.459,518.555,255.459,519.613L 255.459,520.671" fill="none" stroke="#2F3B4D" stroke-width="1" marker-end="url(#arrow-state-0)"   stroke-linecap="round" stroke-linejoin="round" /><rect x="212.28" y="485.86" width="64.56" height="23.60" rx="2" ry="2" fill="rgba(248,250,252, 0.92)" fill-opacity="0.70" stroke="#7B88A8" stroke-opacity="0.25" stroke-width="0.8"/><text x="244.56" y="501.06" text-anchor="middle" font-family="'trebuchet ms', verdana, arial, sans-serif" font-size="13.6" fill="#333333"><tspan x="244.56" dy="0.00">FIN / ACK</tspan></text><path d="M 114.897,567.711L 114.897,568.768C114.897,569.826,114.897,571.941,114.897,574.057C114.897,576.172,114.897,578.287,114.989,580.398C115.080,582.510,115.264,584.617,115.794,590.710C116.325,596.803,117.203,606.881,117.733,612.974C118.264,619.066,118.447,621.174,118.539,623.285C118.631,625.396,118.631,627.512,118.631,629.627C118.631,631.742,118.631,633.858,118.631,634.915L 118.631,635.973" fill="none" stroke="#2F3B4D" stroke-width="1" marker-end="url(#arrow-state-0)"   stroke-linecap="round" stroke-linejoin="round" /><rect x="102.30" y="590.04" width="28.93" height="23.60" rx="2" ry="2" fill="rgba(248,250,252, 0.92)" fill-opacity="0.70" stroke="#7B88A8" stroke-opacity="0.25" stroke-width="0.8"/><text x="116.76" y="605.24" text-anchor="middle" font-family="'trebuchet ms', verdana, arial, sans-serif" font-size="13.6" fill="#333333"><tspan x="116.76" dy="0.00">ACK</tspan></text><path d="M 134.631,683.013L 134.631,684.071C134.631,685.128,134.631,687.243,134.631,689.359C134.631,691.474,134.631,693.589,135.305,695.462C135.979,697.334,137.328,698.964,142.567,705.296C147.806,711.627,156.935,722.661,162.174,728.992C167.413,735.324,168.761,736.954,169.435,738.826C170.110,740.699,170.110,742.814,170.110,744.929C170.110,747.044,170.110,749.160,170.110,750.217L 170.110,751.275" fill="none" stroke="#2F3B4D" stroke-width="1" marker-end="url(#arrow-state-0)"   stroke-linecap="round" stroke-linejoin="round" /><rect x="114.77" y="698.91" width="64.56" height="23.60" rx="2" ry="2" fill="rgba(248,250,252, 0.92)" fill-opacity="0.70" stroke="#7B88A8" stroke-opacity="0.25" stroke-width="0.8"/><text x="147.05" y="714.11" text-anchor="middle" font-family="'trebuchet ms', verdana, arial, sans-serif" font-size="13.6" fill="#333333"><tspan x="147.05" dy="0.00">FIN / ACK</tspan></text><path d="M 271.459,567.711L 271.459,568.768C271.459,569.826,271.459,571.941,271.459,574.057C271.459,576.172,271.459,578.287,271.702,580.374C271.944,582.461,272.430,584.520,273.873,590.637C275.316,596.754,277.717,606.930,279.160,613.047C280.603,619.164,281.089,621.222,281.332,623.309C281.574,625.396,281.574,627.512,281.574,629.627C281.574,631.742,281.574,633.858,281.574,634.915L 281.574,635.973" fill="none" stroke="#2F3B4D" stroke-width="1" marker-end="url(#arrow-state-0)"   stroke-linecap="round" stroke-linejoin="round" /><rect x="236.21" y="583.61" width="77.57" height="23.60" rx="2" ry="2" fill="rgba(248,250,252, 0.92)" fill-opacity="0.70" stroke="#7B88A8" stroke-opacity="0.25" stroke-width="0.8"/><text x="275.00" y="598.81" text-anchor="middle" font-family="'trebuchet ms', verdana, arial, sans-serif" font-size="13.6" fill="#333333"><tspan x="275.00" dy="0.00">close / FIN</tspan></text><path d="M 249.574,635.973L 249.574,634.915C249.574,633.858,249.574,631.742,249.574,629.627C249.574,627.512,249.574,625.396,250.632,624.339C251.690,623.281,253.805,623.281,270.063,623.281C286.320,623.281,316.721,623.281,333.921,623.281C351.121,623.281,355.121,623.281,357.121,621.281C359.121,619.281,359.121,615.281,359.121,533.267C359.121,451.252,359.121,291.223,359.121,209.208C359.121,127.194,359.121,123.194,357.121,121.194C355.121,119.194,351.121,119.194,326.921,119.194C302.722,119.194,258.324,119.194,235.067,119.194C211.810,119.194,209.695,119.194,208.637,118.136C207.579,117.079,207.579,114.963,207.579,112.848C207.579,110.733,207.579,108.617,207.579,107.560L 207.579,106.502" fill="none" stroke="#2F3B4D" stroke-width="1" marker-end="url(#arrow-state-0)"   stroke-linecap="round" stroke-linejoin="round" /><rect x="331.71" y="359.44" width="28.93" height="23.60" rx="2" ry="2" fill="rgba(248,250,252, 0.92)" fill-opacity="0.70" stroke="#7B88A8" stroke-opacity="0.25" stroke-width="0.8"/><text x="346.18" y="374.64" text-anchor="middle" font-family="'trebuchet ms', verdana, arial, sans-serif" font-size="13.6" fill="#333333"><tspan x="346.18" dy="0.00">ACK</tspan></text><path d="M 186.110,751.275L 186.110,750.217C186.110,749.160,186.110,747.044,186.110,744.929C186.110,742.814,186.110,740.699,185.052,739.641C183.994,738.583,181.879,738.583,154.194,738.583C126.509,738.583,73.255,738.583,44.627,738.583C16.000,738.583,12.000,738.583,10.000,736.583C8.000,734.583,8.000,730.583,8.000,629.352C8.000,528.120,8.000,329.657,8.000,228.425C8.000,127.194,8.000,123.194,10.000,121.194C12.000,119.194,16.000,119.194,45.539,119.194C75.078,119.194,130.156,119.194,158.752,119.194C187.349,119.194,189.464,119.194,190.522,118.136C191.579,117.079,191.579,114.963,191.579,112.848C191.579,110.733,191.579,108.617,191.579,107.560L 191.579,106.502" fill="none" stroke="#2F3B4D" stroke-width="1" marker-end="url(#arrow-state-0)"   stroke-linecap="round" stroke-linejoin="round" /><rect x="20.38" y="417.09" width="51.55" height="23.60" rx="2" ry="2" fill="rgba(248,250,252, 0.92)" fill-opacity="0.70" stroke="#7B88A8" stroke-opacity="0.25" stroke-width="0.8"/><text x="46.15" y="432.29" text-anchor="middle" font-family="'trebuchet ms', verdana, arial, sans-serif" font-size="13.6" fill="#333333"><tspan x="46.15" dy="0.00">timeout</tspan></text><rect x="146.07" y="59.46" width="91.03" height="47.04" rx="10" ry="10" fill="#ECECFF" stroke="#7B88A8" stroke-width="1" stroke-linejoin="round" stroke-linecap="round"/><text x="191.58" y="86.38" text-anchor="middle" font-family="'trebuchet ms', verdana, arial, sans-serif" font-size="13.6" fill="#333333"><tspan x="191.58" dy="0.00">CLOSED</tspan></text><rect x="209.10" y="520.67" width="124.71" height="47.04" rx="10" ry="10" fill="#ECECFF" stroke="#7B88A8" stroke-width="1" stroke-linejoin="round" stroke-linecap="round"/><text x="271.46" y="547.59" text-anchor="middle" font-family="'trebuchet ms', verdana, arial, sans-serif" font-size="13.6" fill="#333333"><tspan x="271.46" dy="0.00">CLOSE_WAIT</tspan></text><rect x="128.59" y="405.37" width="131.14" height="47.04" rx="10" ry="10" fill="#ECECFF" stroke="#7B88A8" stroke-width="1" stroke-linejoin="round" stroke-linecap="round"/><text x="194.16" y="432.29" text-anchor="middle" font-family="'trebuchet ms', verdana, arial, sans-serif" font-size="13.6" fill="#333333"><tspan x="194.16" dy="0.00">ESTABLISHED</tspan></text><rect x="56.95" y="520.67" width="115.89" height="47.04" rx="10" ry="10" fill="#ECECFF" stroke="#7B88A8" stroke-width="1" stroke-linejoin="round" stroke-linecap="round"/><text x="114.90" y="547.59" text-anchor="middle" font-family="'trebuchet ms', verdana, arial, sans-serif" font-size="13.6" fill="#333333"><tspan x="114.90" dy="0.00">FIN_WAIT_1</tspan></text><rect x="60.69" y="635.97" width="115.89" height="47.04" rx="10" ry="10" fill="#ECECFF" stroke="#7B88A8" stroke-width="1" stroke-linejoin="round" stroke-linecap="round"/><text x="118.63" y="662.89" text-anchor="middle" font-family="'trebuchet ms', verdana, arial, sans-serif" font-size="13.6" fill="#333333"><tspan x="118.63" dy="0.00">FIN_WAIT_2</tspan></text><rect x="212.84" y="635.97" width="105.48" height="47.04" rx="10" ry="10" fill="#ECECFF" stroke="#7B88A8" stroke-width="1" stroke-linejoin="round" stroke-linecap="round"/><text x="265.57" y="662.89" text-anchor="middle" font-family="'trebuchet ms', verdana, arial, sans-serif" font-size="13.6" fill="#333333"><tspan x="265.57" dy="0.00">LAST_ACK</tspan></text><rect x="84.09" y="174.76" width="82.21" height="47.04" rx="10" ry="10" fill="#ECECFF" stroke="#7B88A8" stroke-width="1" stroke-linejoin="round" stroke-linecap="round"/><text x="125.19" y="201.68" text-anchor="middle" font-family="'trebuchet ms', verdana, arial, sans-serif" font-size="13.6" fill="#333333"><tspan x="125.19" dy="0.00">LISTEN</tspan></text><rect x="130.73" y="290.07" width="110.26" height="47.04" rx="10" ry="10" fill="#ECECFF" stroke="#7B88A8" stroke-width="1" stroke-linejoin="round" stroke-linecap="round"/><text x="185.86" y="316.99" text-anchor="middle" font-family="'trebuchet ms', verdana, arial, sans-serif" font-size="13.6" fill="#333333"><tspan x="185.86" dy="0.00">SYN_RCVD</tspan></text><rect x="202.56" y="174.76" width="107.87" height="47.04" rx="10" ry="10" fill="#ECECFF" stroke="#7B88A8" stroke-width="1" stroke-linejoin="round" stroke-linecap="round"/><text x="256.49" y="201.68" text-anchor="middle" font-family="'trebuchet ms', verdana, arial, sans-serif" font-size="13.6" fill="#333333"><tspan x="256.49" dy="0.00">SYN_SENT</tspan></text><rect x="130.98" y="751.28" width="110.26" height="47.04" rx="10" ry="10" fill="#ECECFF" stroke="#7B88A8" stroke-width="1" stroke-linejoin="round" stroke-linecap="round"/><text x="186.11" y="778.20" text-anchor="middle" font-family="'trebuchet ms', verdana, arial, sans-serif" font-size="13.6" fill="#333333"><tspan x="186.11" dy="0.00">TIME_WAIT</tspan></text><circle cx="192.22" cy="15.60" r="7.60" fill="#2F3B4D" stroke="#2F3B4D" stroke-width="1" stroke-linejoin="round" stroke-linecap="round"/></svg>