<svg xmlns="http://www.w3.org/2000/svg" width="358.17172" height="485.76" viewBox="0 0 358.17172 485.76"><rect x="0" y="0" width="358.17172" height="485.76" fill="#FFFFFF"/><defs><marker id="arrow-0" viewBox="0 0 10 10" refX="5" refY="5" markerUnits="userSpaceOnUse" markerWidth="8" markerHeight="8" orient="auto"><path d="M 0 0 L 10 5 L 0 10 z" fill="#2F3B4D" stroke="#2F3B4D" stroke-width="1" stroke-dasharray="1,0"/></marker><marker id="arrow-start-0" viewBox="0 0 10 10" refX="4.5" refY="5" markerUnits="userSpaceOnUse" markerWidth="8" markerHeight="8" orient="auto"><path d="M 0 5 L 10 10 L 10 0 z" fill="#2F3B4D" stroke="#2F3B4D" stroke-width="1" stroke-dasharray="1,0"/></marker><marker id="arrow-state-0" viewBox="0 0 20 14" refX="19" refY="7" markerUnits="userSpaceOnUse" markerWidth="20" markerHeight="14" orient="auto"><path d="M 19 7 L 9 13 L 14 7 L 9 1 Z" fill="#2F3B4D" stroke="#2F3B4D" stroke-width="1" stroke-dasharray="1,0"/></marker></defs><rect x="18.40" y="35.20" width="331.77" height="36.00" rx="6" ry="6" fill="hsl(240.0000000000, 99.9999237061%, 92.2745056152%)" stroke="none"/><rect x="18.40" y="71.20" width="331.77" height="359.52" fill="hsl(240.0000000000, 87.9999237061%, 100.0000000000%)" stroke="none"/><line x1="18.40" y1="71.20" x2="350.17" y2="71.20" stroke="#7B88A8" stroke-width="1"/><rect x="18.40" y="35.20" width="331.77" height="395.52" rx="6" ry="6" fill="none" stroke="#7B88A8" stroke-width="1"/><text x="28.00" y="56.60" text-anchor="start" font-family="'trebuchet ms', verdana, arial, sans-serif" font-size="13.6" fill="#333333" font-weight="600"><tspan x="28.00" dy="0.00">Active</tspan></text><rect x="30.40" y="47.20" width="228.83" height="36.00" rx="6" ry="6" fill="hsl(240.0000000000, 99.9999237061%, 92.2745056152%)" stroke="none"/><rect x="30.40" y="83.20" width="228.83" height="335.52" fill="hsl(240.0000000000, 87.9999237061%, 100.0000000000%)" stroke="none"/><line x1="30.40" y1="83.20" x2="259.23" y2="83.20" stroke="#7B88A8" stroke-width="1"/><rect x="30.40" y="47.20" width="228.83" height="371.52" rx="6" ry="6" fill="none" stroke="#7B88A8" stroke-width="1"/><text x="40.00" y="68.60" text-anchor="start" font-family="'trebuchet ms', verdana, arial, sans-serif" font-size="13.6" fill="#333333" font-weight="600"><tspan x="40.00" dy="0.00">Running</tspan></text><path d="M 163.454,22.984L 163.454,23.484C163.454,23.984,163.454,24.984,163.454,25.984C163.454,26.984,163.454,27.984,163.954,28.489C164.454,28.994,165.454,29.005,168.426,29.035C171.398,29.066,176.342,29.118,179.314,29.148C182.286,29.179,183.286,29.190,183.786,29.695C184.286,30.200,184.286,31.200,184.286,32.200C184.286,33.200,184.286,34.200,184.286,34.700L 184.286,35.200" fill="none" stroke="#2F3B4D" stroke-width="1" marker-end="url(#arrow-state-0)"   stroke-linecap="round" stroke-linejoin="round" /><path d="M 61.384,89.000L 55.853,89.000C50.322,89.000,39.260,89.000,31.730,89.000C24.199,89.000,20.199,89.000,18.199,87.000C16.199,85.000,16.199,81.000,16.199,76.200C16.199,71.400,16.199,65.800,16.199,61.000C16.199,56.200,16.199,52.200,18.199,50.200C20.199,48.200,24.199,48.200,45.468,48.200C66.737,48.200,105.275,48.200,124.545,48.200L 143.814,48.200" fill="none" stroke="#2F3B4D" stroke-width="1" marker-end="url(#arrow-state-0)"   stroke-linecap="round" stroke-linejoin="round" /><path d="M 143.814,417.720L 143.314,417.720C142.814,417.720,141.814,417.720,140.814,417.720C139.814,417.720,138.814,417.720,138.272,417.222C137.731,416.723,137.648,415.727,137.154,409.805C136.661,403.883,135.757,393.037,135.263,387.115C134.770,381.193,134.687,380.197,134.145,379.698C133.604,379.200,132.604,379.200,131.604,379.200C130.604,379.200,129.604,379.200,129.104,379.200L 128.604,379.200" fill="none" stroke="#2F3B4D" stroke-width="1" marker-end="url(#arrow-state-0)"   stroke-linecap="round" stroke-linejoin="round" /><rect x="28.26" y="412.84" width="38.53" height="23.60" rx="2" ry="2" fill="rgba(248,250,252, 0.92)" fill-opacity="0.70" stroke="#7B88A8" stroke-opacity="0.25" stroke-width="0.8"/><text x="47.53" y="428.04" text-anchor="middle" font-family="'trebuchet ms', verdana, arial, sans-serif" font-size="13.6" fill="#333333"><tspan x="47.53" dy="0.00">pause</tspan></text><path d="M 87.502,355.680L 87.502,355.180C87.502,354.680,87.502,353.680,87.502,352.680C87.502,351.680,87.502,350.680,87.002,350.180C86.502,349.680,85.502,349.680,74.251,349.680C63.001,349.680,41.501,349.680,28.750,349.680C16.000,349.680,12.000,349.680,10.000,347.680C8.000,345.680,8.000,341.680,8.000,294.600C8.000,247.520,8.000,157.360,8.000,110.280C8.000,63.200,8.000,59.200,10.000,57.200C12.000,55.200,16.000,55.200,38.302,55.200C60.605,55.200,101.209,55.200,122.011,55.200C142.814,55.200,143.814,55.200,144.314,54.700C144.814,54.200,144.814,53.200,144.814,52.200C144.814,51.200,144.814,50.200,144.814,49.700L 144.814,49.200" fill="none" stroke="#2F3B4D" stroke-width="1" marker-end="url(#arrow-state-0)"   stroke-linecap="round" stroke-linejoin="round" /><rect x="4.01" y="238.60" width="45.04" height="23.60" rx="2" ry="2" fill="rgba(248,250,252, 0.92)" fill-opacity="0.70" stroke="#7B88A8" stroke-opacity="0.25" stroke-width="0.8"/><text x="26.53" y="253.80" text-anchor="middle" font-family="'trebuchet ms', verdana, arial, sans-serif" font-size="13.6" fill="#333333"><tspan x="26.53" dy="0.00">resume</tspan></text><path d="M 94.540,98.281L 94.540,98.781C94.540,99.281,94.540,100.281,94.540,101.281C94.540,102.281,94.540,103.281,94.854,104.170C95.169,105.058,95.798,105.836,97.117,107.467C98.437,109.098,100.446,111.583,101.766,113.214C103.085,114.845,103.714,115.623,104.028,116.511C104.343,117.400,104.343,118.400,104.343,119.400C104.343,120.400,104.343,121.400,104.343,121.900L 104.343,122.400" fill="none" stroke="#2F3B4D" stroke-width="1" marker-end="url(#arrow-state-0)"   stroke-linecap="round" stroke-linejoin="round" /><path d="M 104.343,169.440L 104.343,170.140C104.343,170.840,104.343,172.240,104.343,173.640C104.343,175.040,104.343,176.440,104.634,177.776C104.926,179.113,105.508,180.386,118.146,207.989C130.783,235.593,155.475,289.527,168.113,317.131C180.750,344.734,181.333,346.007,181.624,347.344C181.916,348.680,181.916,350.080,181.916,351.480C181.916,352.880,181.916,354.280,181.916,354.980L 181.916,355.680" fill="none" stroke="#2F3B4D" stroke-width="1" marker-end="url(#arrow-state-0)"   stroke-linecap="round" stroke-linejoin="round" /><rect x="112.23" y="225.34" width="38.53" height="23.60" rx="2" ry="2" fill="rgba(248,250,252, 0.92)" fill-opacity="0.70" stroke="#7B88A8" stroke-opacity="0.25" stroke-width="0.8"/><text x="131.49" y="240.54" text-anchor="middle" font-family="'trebuchet ms', verdana, arial, sans-serif" font-size="13.6" fill="#333333"><tspan x="131.49" dy="0.00">yield</tspan></text><path d="M 197.916,355.680L 197.916,354.980C197.916,354.280,197.916,352.880,197.916,351.480C197.916,350.080,197.916,348.680,198.616,347.980C199.316,347.280,200.716,347.280,202.633,347.280C204.551,347.280,206.987,347.280,210.122,347.280C213.258,347.280,217.094,347.280,219.011,345.362C220.929,343.444,220.929,339.609,220.929,313.369C220.929,287.129,220.929,238.484,220.929,212.162C220.929,185.840,220.929,181.840,218.929,179.840C216.929,177.840,212.929,177.840,196.865,177.840C180.800,177.840,152.672,177.840,137.907,177.840C123.143,177.840,121.743,177.840,121.043,177.140C120.343,176.440,120.343,175.040,120.343,173.640C120.343,172.240,120.343,170.840,120.343,170.140L 120.343,169.440" fill="none" stroke="#2F3B4D" stroke-width="1" marker-end="url(#arrow-state-0)"   stroke-linecap="round" stroke-linejoin="round" /><rect x="204.91" y="211.97" width="32.03" height="23.60" rx="2" ry="2" fill="rgba(248,250,252, 0.92)" fill-opacity="0.70" stroke="#7B88A8" stroke-opacity="0.25" stroke-width="0.8"/><text x="220.93" y="227.17" text-anchor="middle" font-family="'trebuchet ms', verdana, arial, sans-serif" font-size="13.6" fill="#333333"><tspan x="220.93" dy="0.00">wake</tspan></text><path d="M 184.286,430.720L 184.286,431.220C184.286,431.720,184.286,432.720,184.286,433.720C184.286,434.720,184.286,435.720,184.044,435.782C183.802,435.845,183.319,434.969,182.455,433.407C181.592,431.845,180.349,429.595,179.486,428.033C178.623,426.471,178.139,425.595,177.898,425.658C177.656,425.720,177.656,426.720,177.656,427.720C177.656,428.720,177.656,429.720,177.656,430.220L 177.656,430.720" fill="none" stroke="#2F3B4D" stroke-width="1" marker-end="url(#arrow-state-0)"   stroke-linecap="round" stroke-linejoin="round" /><rect x="216.99" y="435.30" width="32.03" height="23.60" rx="2" ry="2" fill="rgba(248,250,252, 0.92)" fill-opacity="0.70" stroke="#7B88A8" stroke-opacity="0.25" stroke-width="0.8"/><text x="233.00" y="450.50" text-anchor="middle" font-family="'trebuchet ms', verdana, arial, sans-serif" font-size="13.6" fill="#333333"><tspan x="233.00" dy="0.00">stop</tspan></text><path d="M 161.656,430.720L 161.656,430.220C161.656,429.720,161.656,428.720,161.656,427.720C161.656,426.720,161.656,425.720,161.685,424.721C161.715,423.722,161.774,422.724,165.516,359.636C169.258,296.548,176.683,171.372,180.425,108.284C184.167,45.196,184.227,44.198,184.256,43.199C184.286,42.200,184.286,41.200,184.286,40.200C184.286,39.200,184.286,38.200,184.286,37.700L 184.286,37.200" fill="none" stroke="#2F3B4D" stroke-width="1" marker-end="url(#arrow-state-0)"   stroke-linecap="round" stroke-linejoin="round" /><rect x="173.98" y="128.81" width="51.55" height="23.60" rx="2" ry="2" fill="rgba(248,250,252, 0.92)" fill-opacity="0.70" stroke="#7B88A8" stroke-opacity="0.25" stroke-width="0.8"/><text x="199.75" y="144.01" text-anchor="middle" font-family="'trebuchet ms', verdana, arial, sans-serif" font-size="13.6" fill="#333333"><tspan x="199.75" dy="0.00">restart</tspan></text><path d="M 116.344,454.240L 115.844,454.240C115.344,454.240,114.344,454.240,113.344,454.240C112.344,454.240,111.344,454.240,111.308,454.056C111.273,453.871,112.203,453.503,119.187,450.734C126.172,447.965,139.212,442.795,146.196,440.026C153.181,437.257,154.110,436.889,154.075,436.704C154.040,436.520,153.040,436.520,152.040,436.520C151.040,436.520,150.040,436.520,149.540,436.520L 149.040,436.520" fill="none" stroke="#2F3B4D" stroke-width="1" marker-end="url(#arrow-state-0)"   stroke-linecap="round" stroke-linejoin="round" /><rect x="46.40" y="355.68" width="82.20" height="47.04" rx="10" ry="10" fill="#ECECFF" stroke="#7B88A8" stroke-width="1" stroke-linejoin="round" stroke-linecap="round"/><text x="87.50" y="382.60" text-anchor="middle" font-family="'trebuchet ms', verdana, arial, sans-serif" font-size="13.6" fill="#333333"><tspan x="87.50" dy="0.00">Paused</tspan></text><rect x="46.40" y="122.40" width="115.89" height="47.04" rx="10" ry="10" fill="#ECECFF" stroke="#7B88A8" stroke-width="1" stroke-linejoin="round" stroke-linecap="round"/><text x="104.34" y="149.32" text-anchor="middle" font-family="'trebuchet ms', verdana, arial, sans-serif" font-size="13.6" fill="#333333"><tspan x="104.34" dy="0.00">Processing</tspan></text><rect x="116.34" y="430.72" width="90.62" height="47.04" rx="10" ry="10" fill="#ECECFF" stroke="#7B88A8" stroke-width="1" stroke-linejoin="round" stroke-linecap="round"/><text x="161.66" y="457.64" text-anchor="middle" font-family="'trebuchet ms', verdana, arial, sans-serif" font-size="13.6" fill="#333333"><tspan x="161.66" dy="0.00">Stopped</tspan></text><rect x="152.60" y="355.68" width="90.62" height="47.04" rx="10" ry="10" fill="#ECECFF" stroke="#7B88A8" stroke-width="1" stroke-linejoin="round" stroke-linecap="round"/><text x="197.92" y="382.60" text-anchor="middle" font-family="'trebuchet ms', verdana, arial, sans-serif" font-size="13.6" fill="#333333"><tspan x="197.92" dy="0.00">Waiting</tspan></text><circle cx="141.66" cy="438.32" r="7.60" fill="#7B88A8" stroke="#7B88A8" stroke-width="1" stroke-linejoin="round" stroke-linecap="round"/><circle cx="141.66" cy="438.32" r="3.60" fill="#FFFFFF" stroke="#FFFFFF" stroke-width="1.2" stroke-linejoin="round" stroke-linecap="round"/><circle cx="161.65" cy="15.60" r="7.60" fill="#2F3B4D" stroke="#2F3B4D" stroke-width="1" stroke-linejoin="round" stroke-linecap="round"/><circle cx="54.00" cy="90.80" r="7.60" fill="#2F3B4D" stroke="#2F3B4D" stroke-width="1" stroke-linejoin="round" stroke-linecap="round"/><circle cx="93.20" cy="90.80" r="7.60" fill="#2F3B4D" stroke="#2F3B4D" stroke-width="1" stroke-linejoin="round" stroke-linecap="round"/></svg>