<svg xmlns="http://www.w3.org/2000/svg" width="494.36" height="1009.37244" viewBox="0 0 494.36 1009.37244"><rect width="100%" height="100%" fill="#FFFFFF"/><defs><marker id="arrow-0" viewBox="0 0 10 10" refX="10" refY="5" markerWidth="8" markerHeight="8" orient="auto-start-reverse"><path d="M 0 0 L 10 5 L 0 10 z" fill="#7A8AA6"/></marker><marker id="arrow-start-0" viewBox="0 0 10 10" refX="0" refY="5" markerWidth="8" markerHeight="8" orient="auto"><path d="M 10 0 L 0 5 L 10 10 z" fill="#7A8AA6"/></marker></defs><rect x="218.49" y="357.27" width="215.86" height="592.10" rx="5" ry="5" fill="#F8FAFF" stroke="#C7D2E5" stroke-width="1"/><rect x="218.49" y="378.17" width="215.86" height="571.20" fill="#FFFFFF" stroke="none"/><text x="230.49" y="372.27" text-anchor="start" font-family="Inter, Segoe UI, system-ui, -apple-system, sans-serif" font-size="13" fill="#1C2430"><tspan x="230.49" dy="0.00">Processing</tspan></text><path d="M 251.49 41.37 L 251.49 115.69 Q 251.49 116.19 251.49 116.19 L 251.49 116.19 Q 251.49 116.19 251.49 116.69 L 251.49 191.00" fill="none" stroke="#7A8AA6" stroke-width="1.4" marker-end="url(#arrow-0)"   stroke-linecap="round" stroke-linejoin="round" /><path d="M 251.49 229.74 L 251.49 281.51 Q 251.49 293.51 263.49 293.51 L 314.43 293.51 Q 326.43 293.51 326.43 305.51 L 326.43 357.27" fill="none" stroke="#7A8AA6" stroke-width="1.4" marker-end="url(#arrow-0)"   stroke-linecap="round" stroke-linejoin="round" /><rect x="259.56" y="281.06" width="58.80" height="24.90" rx="6" ry="6" fill="#FFFFFF" fill-opacity="0.85" stroke="#C7D2E5" stroke-opacity="0.35" stroke-width="0.8"/><text x="288.96" y="298.06" text-anchor="middle" font-family="Inter, Segoe UI, system-ui, -apple-system, sans-serif" font-size="13" fill="#1C2430"><tspan x="288.96" dy="0.00">submit</tspan></text><path d="M 326.43 949.37 L 326.43 788.19 Q 326.43 776.19 314.43 776.19 L 83.63 776.19 Q 71.63 776.19 71.63 764.19 L 71.63 543.00" fill="none" stroke="#7A8AA6" stroke-width="1.4" marker-end="url(#arrow-0)"   stroke-linecap="round" stroke-linejoin="round" /><rect x="161.83" y="788.64" width="74.40" height="24.90" rx="6" ry="6" fill="#FFFFFF" fill-opacity="0.85" stroke="#C7D2E5" stroke-opacity="0.35" stroke-width="0.8"/><text x="199.03" y="805.64" text-anchor="middle" font-family="Inter, Segoe UI, system-ui, -apple-system, sans-serif" font-size="13" fill="#1C2430"><tspan x="199.03" dy="0.00">complete</tspan></text><path d="M 326.43 949.37 L 326.43 788.19 Q 326.43 776.19 314.43 776.19 L 220.31 776.19 Q 208.31 776.19 208.31 764.19 L 208.31 543.00" fill="none" stroke="#7A8AA6" stroke-width="1.4" marker-end="url(#arrow-0)"   stroke-linecap="round" stroke-linejoin="round" /><rect x="245.77" y="788.64" width="43.20" height="24.90" rx="6" ry="6" fill="#FFFFFF" fill-opacity="0.85" stroke="#C7D2E5" stroke-opacity="0.35" stroke-width="0.8"/><text x="267.37" y="805.64" text-anchor="middle" font-family="Inter, Segoe UI, system-ui, -apple-system, sans-serif" font-size="13" fill="#1C2430"><tspan x="267.37" dy="0.00">fail</tspan></text><path d="M 71.63 581.74 L 71.63 338.37 Q 71.63 326.37 83.63 326.37 L 239.49 326.37 Q 251.49 326.37 251.49 314.37 L 251.49 191.00" fill="none" stroke="#7A8AA6" stroke-width="1.4" marker-end="url(#arrow-0)"   stroke-linecap="round" stroke-linejoin="round" /><rect x="136.06" y="313.92" width="51.00" height="24.90" rx="6" ry="6" fill="#FFFFFF" fill-opacity="0.85" stroke="#C7D2E5" stroke-opacity="0.35" stroke-width="0.8"/><text x="161.56" y="330.92" text-anchor="middle" font-family="Inter, Segoe UI, system-ui, -apple-system, sans-serif" font-size="13" fill="#1C2430"><tspan x="161.56" dy="0.00">reset</tspan></text><path d="M 208.31 581.74 L 208.31 338.37 Q 208.31 326.37 220.31 326.37 L 239.49 326.37 Q 251.49 326.37 251.49 314.37 L 251.49 191.00" fill="none" stroke="#7A8AA6" stroke-width="1.4" marker-end="url(#arrow-0)"   stroke-linecap="round" stroke-linejoin="round" /><rect x="204.40" y="313.92" width="51.00" height="24.90" rx="6" ry="6" fill="#FFFFFF" fill-opacity="0.85" stroke="#C7D2E5" stroke-opacity="0.35" stroke-width="0.8"/><text x="229.90" y="330.92" text-anchor="middle" font-family="Inter, Segoe UI, system-ui, -apple-system, sans-serif" font-size="13" fill="#1C2430"><tspan x="229.90" dy="0.00">retry</tspan></text><path d="M 208.31 581.74 L 208.31 654.55 Q 208.31 662.56 200.30 662.56 L 200.30 662.56 Q 192.28 662.56 192.28 670.57 L 192.28 743.37" fill="none" stroke="#7A8AA6" stroke-width="1.4" marker-end="url(#arrow-0)"   stroke-linecap="round" stroke-linejoin="round" /><rect x="174.80" y="650.11" width="51.00" height="24.90" rx="6" ry="6" fill="#FFFFFF" fill-opacity="0.85" stroke="#C7D2E5" stroke-opacity="0.35" stroke-width="0.8"/><text x="200.30" y="667.11" text-anchor="middle" font-family="Inter, Segoe UI, system-ui, -apple-system, sans-serif" font-size="13" fill="#1C2430"><tspan x="200.30" dy="0.00">abort</tspan></text><path d="M 71.63 581.74 L 71.63 650.56 Q 71.63 662.56 83.63 662.56 L 116.28 662.56 Q 128.28 662.56 128.28 674.56 L 128.28 743.37" fill="none" stroke="#7A8AA6" stroke-width="1.4" marker-end="url(#arrow-0)"   stroke-linecap="round" stroke-linejoin="round" /><rect x="78.36" y="650.11" width="43.20" height="24.90" rx="6" ry="6" fill="#FFFFFF" fill-opacity="0.85" stroke="#C7D2E5" stroke-opacity="0.35" stroke-width="0.8"/><text x="99.96" y="667.11" text-anchor="middle" font-family="Inter, Segoe UI, system-ui, -apple-system, sans-serif" font-size="13" fill="#1C2430"><tspan x="99.96" dy="0.00">done</tspan></text><path d="M 251.49 393.37 L 251.49 456.19 Q 251.49 468.19 263.49 468.19 L 345.86 468.19 Q 357.86 468.19 357.86 480.19 L 357.86 543.00" fill="none" stroke="#7A8AA6" stroke-width="1.4" marker-end="url(#arrow-0)"   stroke-linecap="round" stroke-linejoin="round" /><path d="M 357.86 581.74 L 357.86 644.37 Q 357.86 656.37 345.86 656.37 L 317.49 656.37 Q 305.49 656.37 305.49 668.37 L 305.49 731.00" fill="none" stroke="#7A8AA6" stroke-width="1.4" marker-end="url(#arrow-0)"   stroke-linecap="round" stroke-linejoin="round" /><path d="M 305.49 769.74 L 305.49 832.56 Q 305.49 844.56 293.49 844.56 L 253.49 844.56 Q 241.49 844.56 241.49 856.56 L 241.49 919.37" fill="none" stroke="#7A8AA6" stroke-width="1.4" marker-end="url(#arrow-0)"   stroke-linecap="round" stroke-linejoin="round" /><rect x="169.26" y="543.00" width="78.10" height="38.74" rx="10" ry="10" fill="#F8FAFF" stroke="#C7D2E5" stroke-width="1.4" stroke-linejoin="round" stroke-linecap="round"/><text x="208.31" y="566.92" text-anchor="middle" font-family="Inter, Segoe UI, system-ui, -apple-system, sans-serif" font-size="13" fill="#1C2430"><tspan x="208.31" dy="0.00">Error</tspan></text><rect x="249.28" y="731.00" width="112.42" height="38.74" rx="10" ry="10" fill="#F8FAFF" stroke="#C7D2E5" stroke-width="1.4" stroke-linejoin="round" stroke-linecap="round"/><text x="305.49" y="754.92" text-anchor="middle" font-family="Inter, Segoe UI, system-ui, -apple-system, sans-serif" font-size="13" fill="#1C2430"><tspan x="305.49" dy="0.00">Executing</tspan></text><rect x="216.73" y="191.00" width="69.52" height="38.74" rx="10" ry="10" fill="#F8FAFF" stroke="#C7D2E5" stroke-width="1.4" stroke-linejoin="round" stroke-linecap="round"/><text x="251.49" y="214.92" text-anchor="middle" font-family="Inter, Segoe UI, system-ui, -apple-system, sans-serif" font-size="13" fill="#1C2430"><tspan x="251.49" dy="0.00">Idle</tspan></text><rect x="24.00" y="543.00" width="95.26" height="38.74" rx="10" ry="10" fill="#F8FAFF" stroke="#C7D2E5" stroke-width="1.4" stroke-linejoin="round" stroke-linecap="round"/><text x="71.63" y="566.92" text-anchor="middle" font-family="Inter, Segoe UI, system-ui, -apple-system, sans-serif" font-size="13" fill="#1C2430"><tspan x="71.63" dy="0.00">Success</tspan></text><rect x="297.36" y="543.00" width="121.00" height="38.74" rx="10" ry="10" fill="#F8FAFF" stroke="#C7D2E5" stroke-width="1.4" stroke-linejoin="round" stroke-linecap="round"/><text x="357.86" y="566.92" text-anchor="middle" font-family="Inter, Segoe UI, system-ui, -apple-system, sans-serif" font-size="13" fill="#1C2430"><tspan x="357.86" dy="0.00">Validating</tspan></text><circle cx="192.28" cy="750.37" r="7.00" fill="#C7D2E5" stroke="#C7D2E5" stroke-width="1.4" stroke-linejoin="round" stroke-linecap="round"/><circle cx="192.28" cy="750.37" r="3.00" fill="#FFFFFF" stroke="#FFFFFF" stroke-width="1.2" stroke-linejoin="round" stroke-linecap="round"/><circle cx="128.28" cy="750.37" r="7.00" fill="#C7D2E5" stroke="#C7D2E5" stroke-width="1.4" stroke-linejoin="round" stroke-linecap="round"/><circle cx="128.28" cy="750.37" r="3.00" fill="#FFFFFF" stroke="#FFFFFF" stroke-width="1.2" stroke-linejoin="round" stroke-linecap="round"/><circle cx="241.49" cy="926.37" r="7.00" fill="#C7D2E5" stroke="#C7D2E5" stroke-width="1.4" stroke-linejoin="round" stroke-linecap="round"/><circle cx="241.49" cy="926.37" r="3.00" fill="#FFFFFF" stroke="#FFFFFF" stroke-width="1.2" stroke-linejoin="round" stroke-linecap="round"/><circle cx="251.49" cy="34.37" r="7.00" fill="#7A8AA6" stroke="#7A8AA6" stroke-width="1.4" stroke-linejoin="round" stroke-linecap="round"/><circle cx="251.49" cy="386.37" r="7.00" fill="#7A8AA6" stroke="#7A8AA6" stroke-width="1.4" stroke-linejoin="round" stroke-linecap="round"/></svg>