<svg xmlns="http://www.w3.org/2000/svg" width="170.10208" height="240.33372" viewBox="0 0 170.10208 240.33372"><rect x="0" y="0" width="170.10208" height="240.33372" fill="#FFFFFF"/><defs><marker id="arrow-0" viewBox="0 0 10 10" refX="5" refY="5" markerUnits="userSpaceOnUse" markerWidth="8" markerHeight="8" orient="auto"><path d="M 0 0 L 10 5 L 0 10 z" fill="#2F3B4D" stroke="#2F3B4D" stroke-width="1" stroke-dasharray="1,0"/></marker><marker id="arrow-start-0" viewBox="0 0 10 10" refX="4.5" refY="5" markerUnits="userSpaceOnUse" markerWidth="8" markerHeight="8" orient="auto"><path d="M 0 5 L 10 10 L 10 0 z" fill="#2F3B4D" stroke="#2F3B4D" stroke-width="1" stroke-dasharray="1,0"/></marker><marker id="arrow-state-0" viewBox="0 0 20 14" refX="19" refY="7" markerUnits="userSpaceOnUse" markerWidth="20" markerHeight="14" orient="auto"><path d="M 19 7 L 9 13 L 14 7 L 9 1 Z" fill="#2F3B4D" stroke="#2F3B4D" stroke-width="1" stroke-dasharray="1,0"/></marker></defs><path d="M 38.765,23.184L 38.765,23.684C38.765,24.184,38.765,25.184,38.765,26.184C38.765,27.184,38.765,28.184,38.839,29.178C38.912,30.173,39.059,31.162,40.109,38.245C41.159,45.327,43.112,58.503,44.162,65.586C45.211,72.668,45.358,73.658,45.431,74.652C45.505,75.647,45.505,76.647,45.505,77.647C45.505,78.647,45.505,79.647,45.505,80.147L 45.505,80.647" fill="none" stroke="#2F3B4D" stroke-width="1" marker-end="url(#arrow-state-0)"   stroke-linecap="round" stroke-linejoin="round" /><path d="M 47.077,127.687L 47.077,128.434C47.077,129.181,47.077,130.674,47.077,132.168C47.077,133.662,47.077,135.156,47.104,136.649C47.132,138.142,47.187,139.635,47.325,143.412C47.464,147.190,47.686,153.252,47.833,157.280C47.981,161.308,48.054,163.301,47.706,165.217C47.357,167.133,46.587,168.973,46.105,170.124C45.623,171.274,45.430,171.736,45.044,172.656C44.659,173.576,44.082,174.954,43.794,176.389C43.505,177.825,43.505,179.319,43.505,180.813C43.505,182.306,43.505,183.800,43.505,184.547L 43.505,185.294" fill="none" stroke="#2F3B4D" stroke-width="1" marker-end="url(#arrow-state-0)"   stroke-linecap="round" stroke-linejoin="round" /><rect x="12.72" y="145.73" width="38.53" height="23.60" rx="2" ry="2" fill="rgba(248,250,252, 0.92)" fill-opacity="0.70" stroke="#7B88A8" stroke-opacity="0.25" stroke-width="0.8"/><text x="31.99" y="160.93" text-anchor="middle" font-family="'trebuchet ms', verdana, arial, sans-serif" font-size="13.6" fill="#333333"><tspan x="31.99" dy="0.00">start</tspan></text><path d="M 111.613,55.040L 111.614,55.787C111.613,56.534,111.613,58.027,111.614,59.521C111.613,61.015,111.613,62.509,111.303,63.935C110.993,65.361,110.372,66.720,102.128,84.762C93.884,102.804,78.018,137.530,69.774,155.572C61.530,173.614,60.909,174.973,60.599,176.399C60.289,177.825,60.289,179.319,60.289,180.813C60.289,182.306,60.289,183.800,60.289,184.547L 60.289,185.294" fill="none" stroke="#2F3B4D" stroke-width="1" marker-end="url(#arrow-state-0)"   stroke-linecap="round" stroke-linejoin="round" /><rect x="8.00" y="185.29" width="82.20" height="47.04" rx="10" ry="10" fill="#ECECFF" stroke="#7B88A8" stroke-width="1" stroke-linejoin="round" stroke-linecap="round"/><text x="49.10" y="212.21" text-anchor="middle" font-family="'trebuchet ms', verdana, arial, sans-serif" font-size="13.6" fill="#333333"><tspan x="49.10" dy="0.00">Active</tspan></text><rect x="14.05" y="80.65" width="65.36" height="47.04" rx="10" ry="10" fill="#ECECFF" stroke="#7B88A8" stroke-width="1" stroke-linejoin="round" stroke-linecap="round"/><text x="46.73" y="107.57" text-anchor="middle" font-family="'trebuchet ms', verdana, arial, sans-serif" font-size="13.6" fill="#333333"><tspan x="46.73" dy="0.00">Idle</tspan></text><rect x="71.48" y="8.00" width="90.62" height="47.04" rx="10" ry="10" fill="#ECECFF" stroke="#7B88A8" stroke-width="1" stroke-linejoin="round" stroke-linecap="round"/><text x="116.79" y="34.92" text-anchor="middle" font-family="'trebuchet ms', verdana, arial, sans-serif" font-size="13.6" fill="#333333"><tspan x="116.79" dy="0.00">Waiting</tspan></text><circle cx="38.27" cy="15.60" r="7.60" fill="#2F3B4D" stroke="#2F3B4D" stroke-width="1" stroke-linejoin="round" stroke-linecap="round"/></svg>