<svg xmlns="http://www.w3.org/2000/svg" width="341.81552" height="806.315" viewBox="0 0 341.81552 806.315"><rect x="0" y="0" width="341.81552" height="806.315" fill="#FFFFFF"/><defs><marker id="arrow-0" viewBox="0 0 10 10" refX="5" refY="5" markerUnits="userSpaceOnUse" markerWidth="8" markerHeight="8" orient="auto"><path d="M 0 0 L 10 5 L 0 10 z" fill="#2F3B4D" stroke="#2F3B4D" stroke-width="1" stroke-dasharray="1,0"/></marker><marker id="arrow-start-0" viewBox="0 0 10 10" refX="4.5" refY="5" markerUnits="userSpaceOnUse" markerWidth="8" markerHeight="8" orient="auto"><path d="M 0 5 L 10 10 L 10 0 z" fill="#2F3B4D" stroke="#2F3B4D" stroke-width="1" stroke-dasharray="1,0"/></marker><marker id="arrow-state-0" viewBox="0 0 20 14" refX="19" refY="7" markerUnits="userSpaceOnUse" markerWidth="20" markerHeight="14" orient="auto"><path d="M 19 7 L 9 13 L 14 7 L 9 1 Z" fill="#2F3B4D" stroke="#2F3B4D" stroke-width="1" stroke-dasharray="1,0"/></marker></defs><path d="M 143.266,23.200L 143.266,23.700C143.266,24.200,143.266,25.200,143.266,26.200C143.266,27.200,143.266,28.200,143.252,29.200C143.239,30.200,143.213,31.199,143.119,34.743C143.026,38.287,142.865,44.375,142.772,47.919C142.678,51.463,142.652,52.463,142.639,53.462C142.625,54.462,142.625,55.462,142.625,56.462C142.625,57.462,142.625,58.462,142.625,58.962L 142.625,59.462" fill="none" stroke="#2F3B4D" stroke-width="1" marker-end="url(#arrow-state-0)"   stroke-linecap="round" stroke-linejoin="round" /><path d="M 110.625,106.502L 110.625,107.560C110.625,108.617,110.625,110.733,110.625,112.848C110.625,114.963,110.625,117.079,109.964,118.961C109.302,120.844,107.979,122.494,102.909,128.816C97.839,135.137,89.024,146.130,83.954,152.451C78.884,158.772,77.561,160.422,76.899,162.305C76.238,164.188,76.238,166.303,76.238,168.418C76.238,170.534,76.238,172.649,76.238,173.707L 76.238,174.764" fill="none" stroke="#2F3B4D" stroke-width="1" marker-end="url(#arrow-state-0)"   stroke-linecap="round" stroke-linejoin="round" /><rect x="46.23" y="135.27" width="84.08" height="23.60" rx="2" ry="2" fill="rgba(248,250,252, 0.92)" fill-opacity="0.70" stroke="#7B88A8" stroke-opacity="0.25" stroke-width="0.8"/><text x="88.27" y="150.47" text-anchor="middle" font-family="'trebuchet ms', verdana, arial, sans-serif" font-size="13.6" fill="#333333"><tspan x="88.27" dy="0.00">passive open</tspan></text><path d="M 174.625,106.502L 174.625,107.560C174.625,108.617,174.625,110.733,174.625,112.848C174.625,114.963,174.625,117.079,175.269,118.975C175.913,120.872,177.201,122.550,182.043,128.857C186.885,135.165,195.280,146.102,200.122,152.409C204.964,158.717,206.252,160.395,206.896,162.291C207.540,164.188,207.540,166.303,207.540,168.418C207.540,170.534,207.540,172.649,207.540,173.707L 207.540,174.764" fill="none" stroke="#2F3B4D" stroke-width="1" marker-end="url(#arrow-state-0)"   stroke-linecap="round" stroke-linejoin="round" /><rect x="161.87" y="132.22" width="116.62" height="23.60" rx="2" ry="2" fill="rgba(248,250,252, 0.92)" fill-opacity="0.70" stroke="#7B88A8" stroke-opacity="0.25" stroke-width="0.8"/><text x="220.18" y="147.42" text-anchor="middle" font-family="'trebuchet ms', verdana, arial, sans-serif" font-size="13.6" fill="#333333"><tspan x="220.18" dy="0.00">active open / SYN</tspan></text><path d="M 76.238,221.804L 76.238,222.862C76.238,223.920,76.238,226.035,76.238,228.150C76.238,230.265,76.238,232.381,77.101,234.049C77.965,235.717,79.692,236.938,88.940,243.474C98.188,250.010,114.957,261.861,124.205,268.397C133.453,274.933,135.180,276.154,136.044,277.822C136.908,279.490,136.908,281.605,136.908,283.721C136.908,285.836,136.908,287.951,136.908,289.009L 136.908,290.066" fill="none" stroke="#2F3B4D" stroke-width="1" marker-end="url(#arrow-state-0)"   stroke-linecap="round" stroke-linejoin="round" /><rect x="61.27" y="244.14" width="90.61" height="23.60" rx="2" ry="2" fill="rgba(248,250,252, 0.92)" fill-opacity="0.70" stroke="#7B88A8" stroke-opacity="0.25" stroke-width="0.8"/><text x="106.57" y="259.34" text-anchor="middle" font-family="'trebuchet ms', verdana, arial, sans-serif" font-size="13.6" fill="#333333"><tspan x="106.57" dy="0.00">SYN / SYN+ACK</tspan></text><path d="M 207.540,221.804L 207.540,248.283C207.540,274.762,207.540,327.719,207.540,356.198C207.540,384.677,207.540,388.677,205.540,390.677C203.540,392.677,199.540,392.677,192.875,392.677C186.209,392.677,176.879,392.677,171.156,392.677C165.433,392.677,163.318,392.677,162.260,393.735C161.203,394.792,161.203,396.907,161.203,399.023C161.203,401.138,161.203,403.253,161.203,404.311L 161.203,405.369" fill="none" stroke="#2F3B4D" stroke-width="1" marker-end="url(#arrow-state-0)"   stroke-linecap="round" stroke-linejoin="round" /><rect x="162.24" y="355.63" width="90.61" height="23.60" rx="2" ry="2" fill="rgba(248,250,252, 0.92)" fill-opacity="0.70" stroke="#7B88A8" stroke-opacity="0.25" stroke-width="0.8"/><text x="207.54" y="370.83" text-anchor="middle" font-family="'trebuchet ms', verdana, arial, sans-serif" font-size="13.6" fill="#333333"><tspan x="207.54" dy="0.00">SYN+ACK / ACK</tspan></text><path d="M 136.908,337.106L 136.908,338.164C136.908,339.222,136.908,341.337,136.908,343.452C136.908,345.568,136.908,347.683,137.108,349.779C137.309,351.875,137.711,353.952,138.893,360.060C140.074,366.168,142.036,376.307,143.217,382.415C144.399,388.523,144.801,390.600,145.002,392.696C145.203,394.792,145.203,396.907,145.203,399.023C145.203,401.138,145.203,403.253,145.203,404.311L 145.203,405.369" fill="none" stroke="#2F3B4D" stroke-width="1" marker-end="url(#arrow-state-0)"   stroke-linecap="round" stroke-linejoin="round" /><rect x="113.88" y="361.90" width="28.93" height="23.60" rx="2" ry="2" fill="rgba(248,250,252, 0.92)" fill-opacity="0.70" stroke="#7B88A8" stroke-opacity="0.25" stroke-width="0.8"/><text x="128.35" y="377.10" text-anchor="middle" font-family="'trebuchet ms', verdana, arial, sans-serif" font-size="13.6" fill="#333333"><tspan x="128.35" dy="0.00">ACK</tspan></text><path d="M 113.203,452.409L 113.203,453.466C113.203,454.524,113.203,456.639,113.203,458.755C113.203,460.870,113.203,462.985,112.419,464.753C111.636,466.522,110.069,467.943,102.976,474.379C95.883,480.815,83.263,492.265,76.169,498.701C69.076,505.136,67.510,506.558,66.726,508.326C65.943,510.094,65.943,512.210,65.943,514.325C65.943,516.440,65.943,518.555,65.943,519.613L 65.943,520.671" fill="none" stroke="#2F3B4D" stroke-width="1" marker-end="url(#arrow-state-0)"   stroke-linecap="round" stroke-linejoin="round" /><rect x="50.79" y="474.74" width="77.57" height="23.60" rx="2" ry="2" fill="rgba(248,250,252, 0.92)" fill-opacity="0.70" stroke="#7B88A8" stroke-opacity="0.25" stroke-width="0.8"/><text x="89.57" y="489.94" text-anchor="middle" font-family="'trebuchet ms', verdana, arial, sans-serif" font-size="13.6" fill="#333333"><tspan x="89.57" dy="0.00">close / FIN</tspan></text><path d="M 177.203,452.409L 177.203,453.466C177.203,454.524,177.203,456.639,177.203,458.755C177.203,460.870,177.203,462.985,177.971,464.770C178.739,466.554,180.275,468.009,187.057,474.428C193.840,480.847,205.868,492.232,212.650,498.651C219.432,505.071,220.969,506.525,221.737,508.310C222.505,510.094,222.505,512.210,222.505,514.325C222.505,516.440,222.505,518.555,222.505,519.613L 222.505,520.671" fill="none" stroke="#2F3B4D" stroke-width="1" marker-end="url(#arrow-state-0)"   stroke-linecap="round" stroke-linejoin="round" /><rect x="179.32" y="485.86" width="64.56" height="23.60" rx="2" ry="2" fill="rgba(248,250,252, 0.92)" fill-opacity="0.70" stroke="#7B88A8" stroke-opacity="0.25" stroke-width="0.8"/><text x="211.60" y="501.06" text-anchor="middle" font-family="'trebuchet ms', verdana, arial, sans-serif" font-size="13.6" fill="#333333"><tspan x="211.60" dy="0.00">FIN / ACK</tspan></text><path d="M 65.943,567.711L 65.943,568.768C65.943,569.826,65.943,571.941,65.943,574.057C65.943,576.172,65.943,578.287,66.035,580.398C66.126,582.510,66.310,584.617,66.841,590.710C67.371,596.803,68.249,606.881,68.779,612.974C69.310,619.066,69.494,621.174,69.585,623.285C69.677,625.396,69.677,627.512,69.677,629.627C69.677,631.742,69.677,633.858,69.677,634.915L 69.677,635.973" fill="none" stroke="#2F3B4D" stroke-width="1" marker-end="url(#arrow-state-0)"   stroke-linecap="round" stroke-linejoin="round" /><rect x="53.35" y="590.04" width="28.93" height="23.60" rx="2" ry="2" fill="rgba(248,250,252, 0.92)" fill-opacity="0.70" stroke="#7B88A8" stroke-opacity="0.25" stroke-width="0.8"/><text x="67.81" y="605.24" text-anchor="middle" font-family="'trebuchet ms', verdana, arial, sans-serif" font-size="13.6" fill="#333333"><tspan x="67.81" dy="0.00">ACK</tspan></text><path d="M 69.677,683.013L 69.677,684.071C69.677,685.128,69.677,687.243,69.677,689.359C69.677,691.474,69.677,693.589,70.570,695.214C71.462,696.839,73.248,697.974,83.602,704.553C93.955,711.132,112.878,723.156,123.231,729.735C133.585,736.314,135.370,737.449,136.263,739.074C137.156,740.699,137.156,742.814,137.156,744.929C137.156,747.044,137.156,749.160,137.156,750.217L 137.156,751.275" fill="none" stroke="#2F3B4D" stroke-width="1" marker-end="url(#arrow-state-0)"   stroke-linecap="round" stroke-linejoin="round" /><rect x="71.14" y="705.34" width="64.56" height="23.60" rx="2" ry="2" fill="rgba(248,250,252, 0.92)" fill-opacity="0.70" stroke="#7B88A8" stroke-opacity="0.25" stroke-width="0.8"/><text x="103.42" y="720.54" text-anchor="middle" font-family="'trebuchet ms', verdana, arial, sans-serif" font-size="13.6" fill="#333333"><tspan x="103.42" dy="0.00">FIN / ACK</tspan></text><path d="M 222.505,567.711L 222.505,568.768C222.505,569.826,222.505,571.941,222.505,574.057C222.505,576.172,222.505,578.287,222.748,580.374C222.991,582.461,223.476,584.520,224.919,590.637C226.362,596.754,228.763,606.930,230.206,613.047C231.649,619.164,232.135,621.222,232.378,623.309C232.621,625.396,232.621,627.512,232.621,629.627C232.621,631.742,232.621,633.858,232.621,634.915L 232.621,635.973" fill="none" stroke="#2F3B4D" stroke-width="1" marker-end="url(#arrow-state-0)"   stroke-linecap="round" stroke-linejoin="round" /><rect x="187.26" y="583.61" width="77.57" height="23.60" rx="2" ry="2" fill="rgba(248,250,252, 0.92)" fill-opacity="0.70" stroke="#7B88A8" stroke-opacity="0.25" stroke-width="0.8"/><text x="226.05" y="598.81" text-anchor="middle" font-family="'trebuchet ms', verdana, arial, sans-serif" font-size="13.6" fill="#333333"><tspan x="226.05" dy="0.00">close / FIN</tspan></text><path d="M 216.621,635.973L 216.621,634.915C216.621,633.858,216.621,631.742,216.621,629.627C216.621,627.512,216.621,625.396,217.678,624.339C218.736,623.281,220.851,623.281,238.384,623.281C255.916,623.281,288.866,623.281,307.341,623.281C325.816,623.281,329.816,623.281,331.816,621.281C333.816,619.281,333.816,615.281,333.816,533.267C333.816,451.252,333.816,291.223,333.816,209.208C333.816,127.194,333.816,123.194,331.816,121.194C329.816,119.194,325.816,119.194,297.675,119.194C269.534,119.194,217.253,119.194,190.054,119.194C162.856,119.194,160.741,119.194,159.683,118.136C158.625,117.079,158.625,114.963,158.625,112.848C158.625,110.733,158.625,108.617,158.625,107.560L 158.625,106.502" fill="none" stroke="#2F3B4D" stroke-width="1" marker-end="url(#arrow-state-0)"   stroke-linecap="round" stroke-linejoin="round" /><rect x="282.37" y="359.44" width="28.93" height="23.60" rx="2" ry="2" fill="rgba(248,250,252, 0.92)" fill-opacity="0.70" stroke="#7B88A8" stroke-opacity="0.25" stroke-width="0.8"/><text x="296.84" y="374.64" text-anchor="middle" font-family="'trebuchet ms', verdana, arial, sans-serif" font-size="13.6" fill="#333333"><tspan x="296.84" dy="0.00">ACK</tspan></text><path d="M 153.156,751.275L 153.156,750.217C153.156,749.160,153.156,747.044,153.156,744.929C153.156,742.814,153.156,740.699,154.213,739.641C155.271,738.583,157.386,738.583,185.496,738.583C213.606,738.583,267.711,738.583,296.763,738.583C325.816,738.583,329.816,738.583,331.816,736.583C333.816,734.583,333.816,730.583,333.816,629.352C333.816,528.120,333.816,329.657,333.816,228.425C333.816,127.194,333.816,123.194,331.816,121.194C329.816,119.194,325.816,119.194,295.008,119.194C264.201,119.194,206.586,119.194,176.721,119.194C146.856,119.194,144.741,119.194,143.683,118.136C142.625,117.079,142.625,114.963,142.625,112.848C142.625,110.733,142.625,108.617,142.625,107.560L 142.625,106.502" fill="none" stroke="#2F3B4D" stroke-width="1" marker-end="url(#arrow-state-0)"   stroke-linecap="round" stroke-linejoin="round" /><rect x="244.46" y="417.09" width="51.55" height="23.60" rx="2" ry="2" fill="rgba(248,250,252, 0.92)" fill-opacity="0.70" stroke="#7B88A8" stroke-opacity="0.25" stroke-width="0.8"/><text x="270.23" y="432.29" text-anchor="middle" font-family="'trebuchet ms', verdana, arial, sans-serif" font-size="13.6" fill="#333333"><tspan x="270.23" dy="0.00">timeout</tspan></text><rect x="97.11" y="59.46" width="91.03" height="47.04" rx="10" ry="10" fill="#ECECFF" stroke="#7B88A8" stroke-width="1" stroke-linejoin="round" stroke-linecap="round"/><text x="142.63" y="86.38" text-anchor="middle" font-family="'trebuchet ms', verdana, arial, sans-serif" font-size="13.6" fill="#333333"><tspan x="142.63" dy="0.00">CLOSED</tspan></text><rect x="160.15" y="520.67" width="124.71" height="47.04" rx="10" ry="10" fill="#ECECFF" stroke="#7B88A8" stroke-width="1" stroke-linejoin="round" stroke-linecap="round"/><text x="222.50" y="547.59" text-anchor="middle" font-family="'trebuchet ms', verdana, arial, sans-serif" font-size="13.6" fill="#333333"><tspan x="222.50" dy="0.00">CLOSE_WAIT</tspan></text><rect x="79.63" y="405.37" width="131.14" height="47.04" rx="10" ry="10" fill="#ECECFF" stroke="#7B88A8" stroke-width="1" stroke-linejoin="round" stroke-linecap="round"/><text x="145.20" y="432.29" text-anchor="middle" font-family="'trebuchet ms', verdana, arial, sans-serif" font-size="13.6" fill="#333333"><tspan x="145.20" dy="0.00">ESTABLISHED</tspan></text><rect x="8.00" y="520.67" width="115.89" height="47.04" rx="10" ry="10" fill="#ECECFF" stroke="#7B88A8" stroke-width="1" stroke-linejoin="round" stroke-linecap="round"/><text x="65.94" y="547.59" text-anchor="middle" font-family="'trebuchet ms', verdana, arial, sans-serif" font-size="13.6" fill="#333333"><tspan x="65.94" dy="0.00">FIN_WAIT_1</tspan></text><rect x="11.73" y="635.97" width="115.89" height="47.04" rx="10" ry="10" fill="#ECECFF" stroke="#7B88A8" stroke-width="1" stroke-linejoin="round" stroke-linecap="round"/><text x="69.68" y="662.89" text-anchor="middle" font-family="'trebuchet ms', verdana, arial, sans-serif" font-size="13.6" fill="#333333"><tspan x="69.68" dy="0.00">FIN_WAIT_2</tspan></text><rect x="163.88" y="635.97" width="105.48" height="47.04" rx="10" ry="10" fill="#ECECFF" stroke="#7B88A8" stroke-width="1" stroke-linejoin="round" stroke-linecap="round"/><text x="216.62" y="662.89" text-anchor="middle" font-family="'trebuchet ms', verdana, arial, sans-serif" font-size="13.6" fill="#333333"><tspan x="216.62" dy="0.00">LAST_ACK</tspan></text><rect x="35.13" y="174.76" width="82.21" height="47.04" rx="10" ry="10" fill="#ECECFF" stroke="#7B88A8" stroke-width="1" stroke-linejoin="round" stroke-linecap="round"/><text x="76.24" y="201.68" text-anchor="middle" font-family="'trebuchet ms', verdana, arial, sans-serif" font-size="13.6" fill="#333333"><tspan x="76.24" dy="0.00">LISTEN</tspan></text><rect x="81.78" y="290.07" width="110.26" height="47.04" rx="10" ry="10" fill="#ECECFF" stroke="#7B88A8" stroke-width="1" stroke-linejoin="round" stroke-linecap="round"/><text x="136.91" y="316.99" text-anchor="middle" font-family="'trebuchet ms', verdana, arial, sans-serif" font-size="13.6" fill="#333333"><tspan x="136.91" dy="0.00">SYN_RCVD</tspan></text><rect x="153.60" y="174.76" width="107.87" height="47.04" rx="10" ry="10" fill="#ECECFF" stroke="#7B88A8" stroke-width="1" stroke-linejoin="round" stroke-linecap="round"/><text x="207.54" y="201.68" text-anchor="middle" font-family="'trebuchet ms', verdana, arial, sans-serif" font-size="13.6" fill="#333333"><tspan x="207.54" dy="0.00">SYN_SENT</tspan></text><rect x="82.02" y="751.28" width="110.26" height="47.04" rx="10" ry="10" fill="#ECECFF" stroke="#7B88A8" stroke-width="1" stroke-linejoin="round" stroke-linecap="round"/><text x="137.16" y="778.20" text-anchor="middle" font-family="'trebuchet ms', verdana, arial, sans-serif" font-size="13.6" fill="#333333"><tspan x="137.16" dy="0.00">TIME_WAIT</tspan></text><circle cx="143.27" cy="15.60" r="7.60" fill="#2F3B4D" stroke="#2F3B4D" stroke-width="1" stroke-linejoin="round" stroke-linecap="round"/></svg>