<svg xmlns="http://www.w3.org/2000/svg" width="317.34882" height="413.91998" viewBox="0 0 317.34882 413.91998"><rect x="0" y="0" width="317.34882" height="413.91998" fill="#FFFFFF"/><defs><marker id="arrow-0" viewBox="0 0 10 10" refX="5" refY="5" markerUnits="userSpaceOnUse" markerWidth="8" markerHeight="8" orient="auto"><path d="M 0 0 L 10 5 L 0 10 z" fill="#2F3B4D" stroke="#2F3B4D" stroke-width="1" stroke-dasharray="1,0"/></marker><marker id="arrow-start-0" viewBox="0 0 10 10" refX="4.5" refY="5" markerUnits="userSpaceOnUse" markerWidth="8" markerHeight="8" orient="auto"><path d="M 0 5 L 10 10 L 10 0 z" fill="#2F3B4D" stroke="#2F3B4D" stroke-width="1" stroke-dasharray="1,0"/></marker><marker id="arrow-state-0" viewBox="0 0 20 14" refX="19" refY="7" markerUnits="userSpaceOnUse" markerWidth="20" markerHeight="14" orient="auto"><path d="M 19 7 L 9 13 L 14 7 L 9 1 Z" fill="#2F3B4D" stroke="#2F3B4D" stroke-width="1" stroke-dasharray="1,0"/></marker></defs><rect x="8.00" y="118.24" width="301.35" height="36.00" rx="6" ry="6" fill="hsl(240.0000000000, 99.9999237061%, 92.2745056152%)" stroke="none"/><rect x="8.00" y="154.24" width="301.35" height="141.44" fill="hsl(240.0000000000, 87.9999237061%, 100.0000000000%)" stroke="none"/><line x1="8.00" y1="154.24" x2="309.35" y2="154.24" stroke="#7B88A8" stroke-width="1"/><rect x="8.00" y="118.24" width="301.35" height="177.44" rx="6" ry="6" fill="none" stroke="#7B88A8" stroke-width="1"/><text x="17.60" y="139.64" text-anchor="start" font-family="'trebuchet ms', verdana, arial, sans-serif" font-size="13.6" fill="#333333" font-weight="600"><tspan x="17.60" dy="0.00">Active</tspan></text><path class="edgePath" d="M 158.667,23.200 L 158.667,29.200 L 158.671,41.200 L 158.671,47.200" fill="none" stroke="#2F3B4D" stroke-width="1" marker-end="url(#arrow-state-0)"   stroke-linecap="round" stroke-linejoin="round" /><path class="edgePath" d="M 158.671,94.240 L 158.671,100.240 L 158.674,112.240 L 158.674,118.240" fill="none" stroke="#2F3B4D" stroke-width="1" marker-end="url(#arrow-state-0)"   stroke-linecap="round" stroke-linejoin="round" /><path class="edgePath" d="M 33.400,169.224 L 33.400,175.224 L 60.891,187.440 L 60.891,193.440" fill="none" stroke="#2F3B4D" stroke-width="1" marker-end="url(#arrow-state-0)"   stroke-linecap="round" stroke-linejoin="round" /><path class="edgePath" d="M 78.184,163.640 L 84.184,163.640 L 84.184,178.040 L 115.783,178.040 L 115.783,203.906 L 121.783,203.906" fill="none" stroke="#2F3B4D" stroke-width="1" marker-end="url(#arrow-state-0)"   stroke-linecap="round" stroke-linejoin="round" /><path class="edgePath" d="M 117.384,163.640 L 123.384,163.640 L 213.566,163.640 L 213.566,204.276 L 219.566,204.276" fill="none" stroke="#2F3B4D" stroke-width="1" marker-end="url(#arrow-state-0)"   stroke-linecap="round" stroke-linejoin="round" /><path class="edgePath" d="M 60.891,240.480 L 60.891,246.480 L 33.400,258.696 L 33.400,264.696" fill="none" stroke="#2F3B4D" stroke-width="1" marker-end="url(#arrow-state-0)"   stroke-linecap="round" stroke-linejoin="round" /><path class="edgePath" d="M 121.783,230.014 L 115.783,230.014 L 115.783,269.169 L 44.620,269.169 L 38.620,269.169" fill="none" stroke="#2F3B4D" stroke-width="1" marker-end="url(#arrow-state-0)"   stroke-linecap="round" stroke-linejoin="round" /><path class="edgePath" d="M 219.566,225.854 L 213.566,225.854 L 213.566,271.569 L 45.183,271.569 L 39.183,271.569" fill="none" stroke="#2F3B4D" stroke-width="1" marker-end="url(#arrow-state-0)"   stroke-linecap="round" stroke-linejoin="round" /><path class="edgePath" d="M 158.674,295.680 L 158.674,301.680 L 158.677,313.680 L 158.677,319.680" fill="none" stroke="#2F3B4D" stroke-width="1" marker-end="url(#arrow-state-0)"   stroke-linecap="round" stroke-linejoin="round" /><path class="edgePath" d="M 158.677,366.720 L 158.677,372.720 L 158.679,384.720 L 158.679,390.720" fill="none" stroke="#2F3B4D" stroke-width="1" marker-end="url(#arrow-state-0)"   stroke-linecap="round" stroke-linejoin="round" /><rect x="125.59" y="319.68" width="66.18" height="47.04" rx="10" ry="10" fill="#ECECFF" stroke="#7B88A8" stroke-width="1" stroke-linejoin="round" stroke-linecap="round"/><text x="158.68" y="346.60" text-anchor="middle" font-family="'trebuchet ms', verdana, arial, sans-serif" font-size="13.6" fill="#333333"><tspan x="158.68" dy="0.00">Done</tspan></text><rect x="121.78" y="47.20" width="73.78" height="47.04" rx="10" ry="10" fill="#ECECFF" stroke="#7B88A8" stroke-width="1" stroke-linejoin="round" stroke-linecap="round"/><text x="158.67" y="74.12" text-anchor="middle" font-family="'trebuchet ms', verdana, arial, sans-serif" font-size="13.6" fill="#333333"><tspan x="158.67" dy="0.00">Ready</tspan></text><rect x="24.00" y="193.44" width="73.78" height="47.04" rx="10" ry="10" fill="#ECECFF" stroke="#7B88A8" stroke-width="1" stroke-linejoin="round" stroke-linecap="round"/><text x="60.89" y="220.36" text-anchor="middle" font-family="'trebuchet ms', verdana, arial, sans-serif" font-size="13.6" fill="#333333"><tspan x="60.89" dy="0.00">TaskA</tspan></text><rect x="121.78" y="193.44" width="73.78" height="47.04" rx="10" ry="10" fill="#ECECFF" stroke="#7B88A8" stroke-width="1" stroke-linejoin="round" stroke-linecap="round"/><text x="158.67" y="220.36" text-anchor="middle" font-family="'trebuchet ms', verdana, arial, sans-serif" font-size="13.6" fill="#333333"><tspan x="158.67" dy="0.00">TaskB</tspan></text><rect x="219.57" y="193.44" width="73.78" height="47.04" rx="10" ry="10" fill="#ECECFF" stroke="#7B88A8" stroke-width="1" stroke-linejoin="round" stroke-linecap="round"/><text x="256.46" y="220.36" text-anchor="middle" font-family="'trebuchet ms', verdana, arial, sans-serif" font-size="13.6" fill="#333333"><tspan x="256.46" dy="0.00">TaskC</tspan></text><circle cx="31.60" cy="272.08" r="7.60" fill="#7B88A8" stroke="#7B88A8" stroke-width="1" stroke-linejoin="round" stroke-linecap="round"/><circle cx="31.60" cy="272.08" r="3.60" fill="#FFFFFF" stroke="#FFFFFF" stroke-width="1.2" stroke-linejoin="round" stroke-linecap="round"/><circle cx="158.68" cy="398.32" r="7.60" fill="#7B88A8" stroke="#7B88A8" stroke-width="1" stroke-linejoin="round" stroke-linecap="round"/><circle cx="158.68" cy="398.32" r="3.60" fill="#FFFFFF" stroke="#FFFFFF" stroke-width="1.2" stroke-linejoin="round" stroke-linecap="round"/><circle cx="158.67" cy="15.60" r="7.60" fill="#2F3B4D" stroke="#2F3B4D" stroke-width="1" stroke-linejoin="round" stroke-linecap="round"/><circle cx="31.60" cy="161.84" r="7.60" fill="#2F3B4D" stroke="#2F3B4D" stroke-width="1" stroke-linejoin="round" stroke-linecap="round"/><circle cx="70.80" cy="161.84" r="7.60" fill="#2F3B4D" stroke="#2F3B4D" stroke-width="1" stroke-linejoin="round" stroke-linecap="round"/><circle cx="110.00" cy="161.84" r="7.60" fill="#2F3B4D" stroke="#2F3B4D" stroke-width="1" stroke-linejoin="round" stroke-linecap="round"/></svg>