<svg xmlns="http://www.w3.org/2000/svg" width="374.17172" height="485.76" viewBox="0 0 374.17172 485.76"><rect x="0" y="0" width="374.17172" height="485.76" fill="#FFFFFF"/><defs><marker id="arrow-0" viewBox="0 0 10 10" refX="5" refY="5" markerUnits="userSpaceOnUse" markerWidth="8" markerHeight="8" orient="auto"><path d="M 0 0 L 10 5 L 0 10 z" fill="#2F3B4D" stroke="#2F3B4D" stroke-width="1" stroke-dasharray="1,0"/></marker><marker id="arrow-start-0" viewBox="0 0 10 10" refX="4.5" refY="5" markerUnits="userSpaceOnUse" markerWidth="8" markerHeight="8" orient="auto"><path d="M 0 5 L 10 10 L 10 0 z" fill="#2F3B4D" stroke="#2F3B4D" stroke-width="1" stroke-dasharray="1,0"/></marker><marker id="arrow-state-0" viewBox="0 0 20 14" refX="19" refY="7" markerUnits="userSpaceOnUse" markerWidth="20" markerHeight="14" orient="auto"><path d="M 19 7 L 9 13 L 14 7 L 9 1 Z" fill="#2F3B4D" stroke="#2F3B4D" stroke-width="1" stroke-dasharray="1,0"/></marker></defs><rect x="34.40" y="35.20" width="331.77" height="36.00" rx="6" ry="6" fill="hsl(240.0000000000, 99.9999237061%, 92.2745056152%)" stroke="none"/><rect x="34.40" y="71.20" width="331.77" height="359.52" fill="hsl(240.0000000000, 87.9999237061%, 100.0000000000%)" stroke="none"/><line x1="34.40" y1="71.20" x2="366.17" y2="71.20" stroke="#7B88A8" stroke-width="1"/><rect x="34.40" y="35.20" width="331.77" height="395.52" rx="6" ry="6" fill="none" stroke="#7B88A8" stroke-width="1"/><text x="44.00" y="56.60" text-anchor="start" font-family="'trebuchet ms', verdana, arial, sans-serif" font-size="13.6" fill="#333333" font-weight="600"><tspan x="44.00" dy="0.00">Active</tspan></text><rect x="46.40" y="47.20" width="228.83" height="36.00" rx="6" ry="6" fill="hsl(240.0000000000, 99.9999237061%, 92.2745056152%)" stroke="none"/><rect x="46.40" y="83.20" width="228.83" height="335.52" fill="hsl(240.0000000000, 87.9999237061%, 100.0000000000%)" stroke="none"/><line x1="46.40" y1="83.20" x2="275.23" y2="83.20" stroke="#7B88A8" stroke-width="1"/><rect x="46.40" y="47.20" width="228.83" height="371.52" rx="6" ry="6" fill="none" stroke="#7B88A8" stroke-width="1"/><text x="56.00" y="68.60" text-anchor="start" font-family="'trebuchet ms', verdana, arial, sans-serif" font-size="13.6" fill="#333333" font-weight="600"><tspan x="56.00" dy="0.00">Running</tspan></text><path d="M 177.651,23.200L 177.651,23.700C177.651,24.200,177.651,25.200,177.651,26.200C177.651,27.200,177.651,28.200,178.151,28.700C178.651,29.200,179.651,29.200,182.923,29.200C186.196,29.200,191.741,29.200,195.013,29.200C198.286,29.200,199.286,29.200,199.786,29.700C200.286,30.200,200.286,31.200,200.286,32.200C200.286,33.200,200.286,34.200,200.286,34.700L 200.286,35.200" fill="none" stroke="#2F3B4D" stroke-width="1" marker-end="url(#arrow-state-0)"   stroke-linecap="round" stroke-linejoin="round" /><path d="M 77.600,90.800L 72.051,90.800C66.502,90.800,55.405,90.800,47.856,90.800C40.307,90.800,36.307,90.800,34.307,88.800C32.307,86.800,32.307,82.800,32.307,77.700C32.307,72.600,32.307,66.400,32.307,61.300C32.307,56.200,32.307,52.200,34.307,50.200C36.307,48.200,40.307,48.200,61.558,48.200C82.809,48.200,121.312,48.200,140.563,48.200L 159.814,48.200" fill="none" stroke="#2F3B4D" stroke-width="1" marker-end="url(#arrow-state-0)"   stroke-linecap="round" stroke-linejoin="round" /><path d="M 159.814,417.720L 159.314,417.720C158.814,417.720,157.814,417.720,156.814,417.720C155.814,417.720,154.814,417.720,154.272,417.222C153.731,416.723,153.648,415.727,153.154,409.805C152.661,403.883,151.757,393.037,151.263,387.115C150.770,381.193,150.687,380.197,150.145,379.698C149.604,379.200,148.604,379.200,147.604,379.200C146.604,379.200,145.604,379.200,145.104,379.200L 144.604,379.200" fill="none" stroke="#2F3B4D" stroke-width="1" marker-end="url(#arrow-state-0)"   stroke-linecap="round" stroke-linejoin="round" /><rect x="232.55" y="419.30" width="38.53" height="23.60" rx="2" ry="2" fill="rgba(248,250,252, 0.92)" fill-opacity="0.70" stroke="#7B88A8" stroke-opacity="0.25" stroke-width="0.8"/><text x="251.81" y="434.50" text-anchor="middle" font-family="'trebuchet ms', verdana, arial, sans-serif" font-size="13.6" fill="#333333"><tspan x="251.81" dy="0.00">pause</tspan></text><path d="M 103.502,355.680L 103.502,355.180C103.502,354.680,103.502,353.680,103.502,352.680C103.502,351.680,103.502,350.680,103.002,350.180C102.502,349.680,101.502,349.680,90.251,349.680C79.001,349.680,57.501,349.680,44.750,349.680C32.000,349.680,28.000,349.680,26.000,347.680C24.000,345.680,24.000,341.680,24.000,294.600C24.000,247.520,24.000,157.360,24.000,110.280C24.000,63.200,24.000,59.200,26.000,57.200C28.000,55.200,32.000,55.200,54.302,55.200C76.605,55.200,117.209,55.200,138.012,55.200C158.814,55.200,159.814,55.200,160.314,54.700C160.814,54.200,160.814,53.200,160.814,52.200C160.814,51.200,160.814,50.200,160.814,49.700L 160.814,49.200" fill="none" stroke="#2F3B4D" stroke-width="1" marker-end="url(#arrow-state-0)"   stroke-linecap="round" stroke-linejoin="round" /><rect x="21.06" y="190.64" width="45.04" height="23.60" rx="2" ry="2" fill="rgba(248,250,252, 0.92)" fill-opacity="0.70" stroke="#7B88A8" stroke-opacity="0.25" stroke-width="0.8"/><text x="43.58" y="205.84" text-anchor="middle" font-family="'trebuchet ms', verdana, arial, sans-serif" font-size="13.6" fill="#333333"><tspan x="43.58" dy="0.00">resume</tspan></text><path d="M 109.200,98.400L 109.200,98.900C109.200,99.400,109.200,100.400,109.200,101.400C109.200,102.400,109.200,103.400,109.540,104.266C109.880,105.133,110.561,105.866,112.078,107.499C113.595,109.133,115.948,111.667,117.465,113.301C118.982,114.934,119.662,115.667,120.003,116.534C120.343,117.400,120.343,118.400,120.343,119.400C120.343,120.400,120.343,121.400,120.343,121.900L 120.343,122.400" fill="none" stroke="#2F3B4D" stroke-width="1" marker-end="url(#arrow-state-0)"   stroke-linecap="round" stroke-linejoin="round" /><path d="M 120.343,169.440L 120.343,170.140C120.343,170.840,120.343,172.240,120.343,173.640C120.343,175.040,120.343,176.440,120.681,177.753C121.020,179.066,121.697,180.291,136.954,207.918C152.211,235.546,182.048,289.574,197.305,317.202C212.562,344.829,213.239,346.054,213.577,347.367C213.916,348.680,213.916,350.080,213.916,351.480C213.916,352.880,213.916,354.280,213.916,354.980L 213.916,355.680" fill="none" stroke="#2F3B4D" stroke-width="1" marker-end="url(#arrow-state-0)"   stroke-linecap="round" stroke-linejoin="round" /><rect x="98.61" y="221.49" width="38.53" height="23.60" rx="2" ry="2" fill="rgba(248,250,252, 0.92)" fill-opacity="0.70" stroke="#7B88A8" stroke-opacity="0.25" stroke-width="0.8"/><text x="117.88" y="236.69" text-anchor="middle" font-family="'trebuchet ms', verdana, arial, sans-serif" font-size="13.6" fill="#333333"><tspan x="117.88" dy="0.00">yield</tspan></text><path d="M 229.916,355.680L 229.916,354.980C229.916,354.280,229.916,352.880,229.916,351.480C229.916,350.080,229.916,348.680,229.624,347.344C229.333,346.007,228.750,344.734,216.113,317.131C203.475,289.527,178.783,235.593,166.146,207.989C153.508,180.386,152.926,179.113,152.634,177.776C152.343,176.440,152.343,175.040,152.343,173.640C152.343,172.240,152.343,170.840,152.343,170.140L 152.343,169.440" fill="none" stroke="#2F3B4D" stroke-width="1" marker-end="url(#arrow-state-0)"   stroke-linecap="round" stroke-linejoin="round" /><rect x="226.52" y="265.45" width="32.03" height="23.60" rx="2" ry="2" fill="rgba(248,250,252, 0.92)" fill-opacity="0.70" stroke="#7B88A8" stroke-opacity="0.25" stroke-width="0.8"/><text x="242.53" y="280.65" text-anchor="middle" font-family="'trebuchet ms', verdana, arial, sans-serif" font-size="13.6" fill="#333333"><tspan x="242.53" dy="0.00">wake</tspan></text><path d="M 199.286,429.720L 198.786,429.720C198.286,429.720,197.286,429.720,196.286,429.720C195.286,429.720,194.286,429.720,193.306,429.859C192.325,429.998,191.364,430.275,186.451,431.695C181.537,433.115,172.670,435.678,168.237,436.959L 163.804,438.240" fill="none" stroke="#2F3B4D" stroke-width="1" marker-end="url(#arrow-state-0)"   stroke-linecap="round" stroke-linejoin="round" /><rect x="182.00" y="428.21" width="32.03" height="23.60" rx="2" ry="2" fill="rgba(248,250,252, 0.92)" fill-opacity="0.70" stroke="#7B88A8" stroke-opacity="0.25" stroke-width="0.8"/><text x="198.01" y="443.41" text-anchor="middle" font-family="'trebuchet ms', verdana, arial, sans-serif" font-size="13.6" fill="#333333"><tspan x="198.01" dy="0.00">stop</tspan></text><path d="M 118.491,430.720L 118.491,430.220C118.491,429.720,118.491,428.720,118.491,427.720C118.491,426.720,118.491,425.720,117.991,425.220C117.491,424.720,116.491,424.720,100.076,424.720C83.661,424.720,51.830,424.720,33.915,424.720C16.000,424.720,12.000,424.720,10.000,422.720C8.000,420.720,8.000,416.720,8.000,355.133C8.000,293.547,8.000,174.373,8.000,112.787C8.000,51.200,8.000,47.200,10.000,45.200C12.000,43.200,16.000,43.200,47.548,43.200C79.095,43.200,138.191,43.200,168.238,43.200C198.286,43.200,199.286,43.200,199.786,42.700C200.286,42.200,200.286,41.200,200.286,40.200C200.286,39.200,200.286,38.200,200.286,37.700L 200.286,37.200" fill="none" stroke="#2F3B4D" stroke-width="1" marker-end="url(#arrow-state-0)"   stroke-linecap="round" stroke-linejoin="round" /><rect x="45.81" y="283.91" width="51.55" height="23.60" rx="2" ry="2" fill="rgba(248,250,252, 0.92)" fill-opacity="0.70" stroke="#7B88A8" stroke-opacity="0.25" stroke-width="0.8"/><text x="71.59" y="299.11" text-anchor="middle" font-family="'trebuchet ms', verdana, arial, sans-serif" font-size="13.6" fill="#333333"><tspan x="71.59" dy="0.00">restart</tspan></text><path d="M 163.804,470.240L 164.304,470.240C164.804,470.240,165.804,470.240,166.804,470.240C167.804,470.240,168.804,470.240,169.304,469.740C169.804,469.240,169.804,468.240,169.804,465.180C169.804,462.120,169.804,457.000,169.804,452.440C169.804,447.880,169.804,443.880,167.804,441.880C165.804,439.880,161.804,439.880,157.643,439.880C153.483,439.880,149.162,439.880,146.871,439.880C144.581,439.880,144.321,439.880,144.191,439.750C144.061,439.620,144.061,439.360,144.061,439.230C144.061,439.100,144.061,439.100,144.061,438.970C144.061,438.840,144.061,438.580,144.191,438.450C144.321,438.320,144.581,438.320,145.581,438.320C146.581,438.320,148.321,438.320,149.191,438.320L 150.061,438.320" fill="none" stroke="#2F3B4D" stroke-width="1" marker-end="url(#arrow-state-0)"   stroke-linecap="round" stroke-linejoin="round" /><rect x="62.40" y="355.68" width="82.20" height="47.04" rx="10" ry="10" fill="#ECECFF" stroke="#7B88A8" stroke-width="1" stroke-linejoin="round" stroke-linecap="round"/><text x="103.50" y="382.60" text-anchor="middle" font-family="'trebuchet ms', verdana, arial, sans-serif" font-size="13.6" fill="#333333"><tspan x="103.50" dy="0.00">Paused</tspan></text><rect x="62.40" y="122.40" width="115.89" height="47.04" rx="10" ry="10" fill="#ECECFF" stroke="#7B88A8" stroke-width="1" stroke-linejoin="round" stroke-linecap="round"/><text x="120.34" y="149.32" text-anchor="middle" font-family="'trebuchet ms', verdana, arial, sans-serif" font-size="13.6" fill="#333333"><tspan x="120.34" dy="0.00">Processing</tspan></text><rect x="73.18" y="430.72" width="90.62" height="47.04" rx="10" ry="10" fill="#ECECFF" stroke="#7B88A8" stroke-width="1" stroke-linejoin="round" stroke-linecap="round"/><text x="118.49" y="457.64" text-anchor="middle" font-family="'trebuchet ms', verdana, arial, sans-serif" font-size="13.6" fill="#333333"><tspan x="118.49" dy="0.00">Stopped</tspan></text><rect x="168.60" y="355.68" width="90.62" height="47.04" rx="10" ry="10" fill="#ECECFF" stroke="#7B88A8" stroke-width="1" stroke-linejoin="round" stroke-linecap="round"/><text x="213.92" y="382.60" text-anchor="middle" font-family="'trebuchet ms', verdana, arial, sans-serif" font-size="13.6" fill="#333333"><tspan x="213.92" dy="0.00">Waiting</tspan></text><circle cx="157.66" cy="438.32" r="7.60" fill="#7B88A8" stroke="#7B88A8" stroke-width="1" stroke-linejoin="round" stroke-linecap="round"/><circle cx="157.66" cy="438.32" r="3.60" fill="#FFFFFF" stroke="#FFFFFF" stroke-width="1.2" stroke-linejoin="round" stroke-linecap="round"/><circle cx="177.65" cy="15.60" r="7.60" fill="#2F3B4D" stroke="#2F3B4D" stroke-width="1" stroke-linejoin="round" stroke-linecap="round"/><circle cx="70.00" cy="90.80" r="7.60" fill="#2F3B4D" stroke="#2F3B4D" stroke-width="1" stroke-linejoin="round" stroke-linecap="round"/><circle cx="109.20" cy="90.80" r="7.60" fill="#2F3B4D" stroke="#2F3B4D" stroke-width="1" stroke-linejoin="round" stroke-linecap="round"/></svg>