<svg xmlns="http://www.w3.org/2000/svg" width="433.608" height="679.6072" viewBox="0 0 433.608 679.6072"><rect x="0" y="0" width="433.608" height="679.6072" fill="#FFFFFF"/><defs><marker id="arrow-0" viewBox="0 0 10 10" refX="5" refY="5" markerUnits="userSpaceOnUse" markerWidth="8" markerHeight="8" orient="auto"><path d="M 0 0 L 10 5 L 0 10 z" fill="#2F3B4D" stroke="#2F3B4D" stroke-width="1" stroke-dasharray="1,0"/></marker><marker id="arrow-start-0" viewBox="0 0 10 10" refX="4.5" refY="5" markerUnits="userSpaceOnUse" markerWidth="8" markerHeight="8" orient="auto"><path d="M 0 5 L 10 10 L 10 0 z" fill="#2F3B4D" stroke="#2F3B4D" stroke-width="1" stroke-dasharray="1,0"/></marker><marker id="arrow-state-0" viewBox="0 0 20 14" refX="19" refY="7" markerUnits="userSpaceOnUse" markerWidth="20" markerHeight="14" orient="auto"><path d="M 19 7 L 9 13 L 14 7 L 9 1 Z" fill="#2F3B4D" stroke="#2F3B4D" stroke-width="1" stroke-dasharray="1,0"/></marker></defs><path d="M 256.778,23.200L 256.778,23.700C256.778,24.200,256.778,25.200,256.778,26.200C256.778,27.200,256.778,28.200,256.781,29.200C256.784,30.200,256.789,31.200,256.808,34.744C256.827,38.287,256.860,44.375,256.879,47.918C256.899,51.462,256.904,52.462,256.907,53.462C256.909,54.462,256.909,55.462,256.909,56.462C256.909,57.462,256.909,58.462,256.909,58.962L 256.909,59.462" fill="none" stroke="#2F3B4D" stroke-width="1" marker-end="url(#arrow-state-0)"   stroke-linecap="round" stroke-linejoin="round" /><path d="M 235.400,106.502L 235.400,107.560C235.400,108.617,235.400,110.733,235.400,112.848C235.400,114.963,235.400,117.079,234.566,118.786C233.731,120.492,232.061,121.791,228.232,124.768C224.403,127.746,218.415,132.403,214.585,135.380C210.756,138.358,209.087,139.656,208.252,141.363C207.417,143.070,207.417,145.185,207.417,147.300C207.417,149.416,207.417,151.531,207.417,152.589L 207.417,153.646" fill="none" stroke="#2F3B4D" stroke-width="1" marker-end="url(#arrow-state-0)"   stroke-linecap="round" stroke-linejoin="round" /><rect x="109.00" y="60.51" width="84.08" height="23.60" rx="2" ry="2" fill="rgba(248,250,252, 0.92)" fill-opacity="0.70" stroke="#7B88A8" stroke-opacity="0.25" stroke-width="0.8"/><text x="151.04" y="75.71" text-anchor="middle" font-family="'trebuchet ms', verdana, arial, sans-serif" font-size="13.6" fill="#333333"><tspan x="151.04" dy="0.00">passive open</tspan></text><path d="M 278.501,106.502L 278.501,107.560C278.501,108.617,278.501,110.733,278.501,112.848C278.501,114.963,278.501,117.079,279.338,118.782C280.176,120.486,281.851,121.777,285.716,124.758C289.582,127.739,295.638,132.409,299.503,135.390C303.369,138.371,305.044,139.663,305.881,141.366C306.719,143.070,306.719,145.185,306.719,147.300C306.719,149.416,306.719,151.531,306.719,152.589L 306.719,153.646" fill="none" stroke="#2F3B4D" stroke-width="1" marker-end="url(#arrow-state-0)"   stroke-linecap="round" stroke-linejoin="round" /><rect x="102.47" y="16.61" width="116.62" height="23.60" rx="2" ry="2" fill="rgba(248,250,252, 0.92)" fill-opacity="0.70" stroke="#7B88A8" stroke-opacity="0.25" stroke-width="0.8"/><text x="160.77" y="31.81" text-anchor="middle" font-family="'trebuchet ms', verdana, arial, sans-serif" font-size="13.6" fill="#333333"><tspan x="160.77" dy="0.00">active open / SYN</tspan></text><path d="M 191.417,200.686L 191.417,201.744C191.417,202.802,191.417,204.917,191.417,207.032C191.417,209.148,191.417,211.263,191.478,213.376C191.540,215.490,191.663,217.601,191.813,220.172C191.963,222.743,192.140,225.773,192.290,228.344C192.440,230.915,192.563,233.027,192.625,235.141C192.687,237.254,192.687,239.369,192.687,241.485C192.687,243.600,192.687,245.715,192.687,246.773L 192.687,247.831" fill="none" stroke="#2F3B4D" stroke-width="1" marker-end="url(#arrow-state-0)"   stroke-linecap="round" stroke-linejoin="round" /><rect x="146.75" y="212.46" width="90.61" height="23.60" rx="2" ry="2" fill="rgba(248,250,252, 0.92)" fill-opacity="0.70" stroke="#7B88A8" stroke-opacity="0.25" stroke-width="0.8"/><text x="192.05" y="227.66" text-anchor="middle" font-family="'trebuchet ms', verdana, arial, sans-serif" font-size="13.6" fill="#333333"><tspan x="192.05" dy="0.00">SYN / SYN+ACK</tspan></text><path d="M 306.719,200.686L 306.719,220.126C306.719,239.565,306.719,278.444,306.719,299.884C306.719,321.323,306.719,325.323,304.719,327.323C302.719,329.323,298.719,329.323,283.484,329.323C268.250,329.323,241.780,329.323,227.488,329.323C213.196,329.323,211.080,329.323,210.023,330.381C208.965,331.438,208.965,333.554,208.965,335.669C208.965,337.784,208.965,339.899,208.965,340.957L 208.965,342.015" fill="none" stroke="#2F3B4D" stroke-width="1" marker-end="url(#arrow-state-0)"   stroke-linecap="round" stroke-linejoin="round" /><rect x="261.42" y="308.43" width="90.61" height="23.60" rx="2" ry="2" fill="rgba(248,250,252, 0.92)" fill-opacity="0.70" stroke="#7B88A8" stroke-opacity="0.25" stroke-width="0.8"/><text x="306.72" y="323.63" text-anchor="middle" font-family="'trebuchet ms', verdana, arial, sans-serif" font-size="13.6" fill="#333333"><tspan x="306.72" dy="0.00">SYN+ACK / ACK</tspan></text><path d="M 192.687,294.871L 192.687,295.928C192.687,296.986,192.687,299.101,192.687,301.216C192.687,303.332,192.687,305.447,192.067,307.362C191.448,309.277,190.209,310.991,188.208,313.761C186.207,316.530,183.444,320.355,181.443,323.124C179.443,325.894,178.204,327.608,177.584,329.523C176.965,331.438,176.965,333.554,176.965,335.669C176.965,337.784,176.965,339.899,176.965,340.957L 176.965,342.015" fill="none" stroke="#2F3B4D" stroke-width="1" marker-end="url(#arrow-state-0)"   stroke-linecap="round" stroke-linejoin="round" /><rect x="170.36" y="306.64" width="28.93" height="23.60" rx="2" ry="2" fill="rgba(248,250,252, 0.92)" fill-opacity="0.70" stroke="#7B88A8" stroke-opacity="0.25" stroke-width="0.8"/><text x="184.83" y="321.84" text-anchor="middle" font-family="'trebuchet ms', verdana, arial, sans-serif" font-size="13.6" fill="#333333"><tspan x="184.83" dy="0.00">ACK</tspan></text><path d="M 160.965,389.055L 160.965,390.112C160.965,391.170,160.965,393.285,160.965,395.401C160.965,397.516,160.965,399.631,160.108,401.309C159.251,402.987,157.538,404.227,153.383,407.233C149.229,410.240,142.633,415.013,138.479,418.020C134.324,421.027,132.610,422.267,131.754,423.945C130.897,425.622,130.897,427.738,130.897,429.853C130.897,431.968,130.897,434.084,130.897,435.141L 130.897,436.199" fill="none" stroke="#2F3B4D" stroke-width="1" marker-end="url(#arrow-state-0)"   stroke-linecap="round" stroke-linejoin="round" /><rect x="107.14" y="400.83" width="77.57" height="23.60" rx="2" ry="2" fill="rgba(248,250,252, 0.92)" fill-opacity="0.70" stroke="#7B88A8" stroke-opacity="0.25" stroke-width="0.8"/><text x="145.93" y="416.03" text-anchor="middle" font-family="'trebuchet ms', verdana, arial, sans-serif" font-size="13.6" fill="#333333"><tspan x="145.93" dy="0.00">close / FIN</tspan></text><path d="M 224.965,389.055L 224.965,390.112C224.965,391.170,224.965,393.285,224.965,395.401C224.965,397.516,224.965,399.631,225.826,401.303C226.687,402.975,228.409,404.204,232.630,407.216C236.851,410.229,243.572,415.025,247.794,418.037C252.015,421.050,253.737,422.278,254.598,423.950C255.459,425.622,255.459,427.738,255.459,429.853C255.459,431.968,255.459,434.084,255.459,435.141L 255.459,436.199" fill="none" stroke="#2F3B4D" stroke-width="1" marker-end="url(#arrow-state-0)"   stroke-linecap="round" stroke-linejoin="round" /><rect x="200.78" y="401.18" width="64.56" height="23.60" rx="2" ry="2" fill="rgba(248,250,252, 0.92)" fill-opacity="0.70" stroke="#7B88A8" stroke-opacity="0.25" stroke-width="0.8"/><text x="233.06" y="416.38" text-anchor="middle" font-family="'trebuchet ms', verdana, arial, sans-serif" font-size="13.6" fill="#333333"><tspan x="233.06" dy="0.00">FIN / ACK</tspan></text><path d="M 114.897,483.239L 114.897,484.297C114.897,485.354,114.897,487.469,114.897,489.585C114.897,491.700,114.897,493.815,114.928,495.930C114.960,498.045,115.023,500.159,115.099,502.729C115.175,505.299,115.265,508.323,115.342,510.893C115.418,513.463,115.481,515.577,115.513,517.692C115.544,519.807,115.544,521.922,115.544,524.037C115.544,526.152,115.544,528.268,115.544,529.325L 115.544,530.383" fill="none" stroke="#2F3B4D" stroke-width="1" marker-end="url(#arrow-state-0)"   stroke-linecap="round" stroke-linejoin="round" /><rect x="100.76" y="495.01" width="28.93" height="23.60" rx="2" ry="2" fill="rgba(248,250,252, 0.92)" fill-opacity="0.70" stroke="#7B88A8" stroke-opacity="0.25" stroke-width="0.8"/><text x="115.22" y="510.21" text-anchor="middle" font-family="'trebuchet ms', verdana, arial, sans-serif" font-size="13.6" fill="#333333"><tspan x="115.22" dy="0.00">ACK</tspan></text><path d="M 115.544,577.423L 115.544,578.481C115.544,579.538,115.544,581.654,115.544,583.769C115.544,585.884,115.544,587.999,115.549,590.115C115.555,592.230,115.565,594.345,115.578,596.914C115.591,599.484,115.606,602.507,115.619,605.076C115.632,607.645,115.643,609.760,115.648,611.875C115.653,613.991,115.653,616.106,115.653,618.221C115.653,620.337,115.653,622.452,115.653,623.510L 115.653,624.567" fill="none" stroke="#2F3B4D" stroke-width="1" marker-end="url(#arrow-state-0)"   stroke-linecap="round" stroke-linejoin="round" /><rect x="159.21" y="588.81" width="64.56" height="23.60" rx="2" ry="2" fill="rgba(248,250,252, 0.92)" fill-opacity="0.70" stroke="#7B88A8" stroke-opacity="0.25" stroke-width="0.8"/><text x="191.49" y="604.01" text-anchor="middle" font-family="'trebuchet ms', verdana, arial, sans-serif" font-size="13.6" fill="#333333"><tspan x="191.49" dy="0.00">FIN / ACK</tspan></text><path d="M 271.459,483.239L 271.459,484.297C271.459,485.354,271.459,487.469,271.459,489.585C271.459,491.700,271.459,493.815,272.076,495.732C272.693,497.649,273.926,499.367,275.914,502.135C277.901,504.902,280.643,508.720,282.630,511.487C284.618,514.255,285.851,515.973,286.468,517.890C287.085,519.807,287.085,521.922,287.085,524.037C287.085,526.152,287.085,528.268,287.085,529.325L 287.085,530.383" fill="none" stroke="#2F3B4D" stroke-width="1" marker-end="url(#arrow-state-0)"   stroke-linecap="round" stroke-linejoin="round" /><rect x="281.81" y="396.19" width="77.57" height="23.60" rx="2" ry="2" fill="rgba(248,250,252, 0.92)" fill-opacity="0.70" stroke="#7B88A8" stroke-opacity="0.25" stroke-width="0.8"/><text x="320.60" y="411.39" text-anchor="middle" font-family="'trebuchet ms', verdana, arial, sans-serif" font-size="13.6" fill="#333333"><tspan x="320.60" dy="0.00">close / FIN</tspan></text><path d="M 255.085,530.383L 255.085,529.325C255.085,528.268,255.085,526.152,255.085,524.037C255.085,521.922,255.085,519.807,256.143,518.749C257.201,517.691,259.316,517.691,285.736,517.691C312.157,517.691,362.882,517.691,390.245,517.691C417.608,517.691,421.608,517.691,423.608,515.691C425.608,513.691,425.608,509.691,425.608,445.275C425.608,380.859,425.608,256.026,425.608,191.610C425.608,127.194,425.608,123.194,423.608,121.194C421.608,119.194,417.608,119.194,391.322,119.194C365.036,119.194,316.464,119.194,291.120,119.194C265.776,119.194,263.661,119.194,262.604,118.136C261.546,117.079,261.546,114.963,261.546,112.848C261.546,110.733,261.546,108.617,261.546,107.560L 261.546,106.502" fill="none" stroke="#2F3B4D" stroke-width="1" marker-end="url(#arrow-state-0)"   stroke-linecap="round" stroke-linejoin="round" /><rect x="399.25" y="309.87" width="28.93" height="23.60" rx="2" ry="2" fill="rgba(248,250,252, 0.92)" fill-opacity="0.70" stroke="#7B88A8" stroke-opacity="0.25" stroke-width="0.8"/><text x="413.72" y="325.07" text-anchor="middle" font-family="'trebuchet ms', verdana, arial, sans-serif" font-size="13.6" fill="#333333"><tspan x="413.72" dy="0.00">ACK</tspan></text><path d="M 131.653,624.567L 131.653,623.510C131.653,622.452,131.653,620.337,131.653,618.221C131.653,616.106,131.653,613.991,130.596,612.933C129.538,611.875,127.423,611.875,108.814,611.875C90.205,611.875,55.102,611.875,35.551,611.875C16.000,611.875,12.000,611.875,10.000,609.875C8.000,607.875,8.000,603.875,8.000,523.762C8.000,443.648,8.000,287.421,8.000,207.307C8.000,127.194,8.000,123.194,10.000,121.194C12.000,119.194,16.000,119.194,55.379,119.194C94.759,119.194,169.518,119.194,207.955,119.194C246.392,119.194,248.507,119.194,249.565,118.136C250.623,117.079,250.623,114.963,250.623,112.848C250.623,110.733,250.623,108.617,250.623,107.560L 250.623,106.502" fill="none" stroke="#2F3B4D" stroke-width="1" marker-end="url(#arrow-state-0)"   stroke-linecap="round" stroke-linejoin="round" /><rect x="18.58" y="294.25" width="51.55" height="23.60" rx="2" ry="2" fill="rgba(248,250,252, 0.92)" fill-opacity="0.70" stroke="#7B88A8" stroke-opacity="0.25" stroke-width="0.8"/><text x="44.35" y="309.45" text-anchor="middle" font-family="'trebuchet ms', verdana, arial, sans-serif" font-size="13.6" fill="#333333"><tspan x="44.35" dy="0.00">timeout</tspan></text><rect x="211.40" y="59.46" width="91.03" height="47.04" rx="10" ry="10" fill="#ECECFF" stroke="#7B88A8" stroke-width="1" stroke-linejoin="round" stroke-linecap="round"/><text x="256.91" y="86.38" text-anchor="middle" font-family="'trebuchet ms', verdana, arial, sans-serif" font-size="13.6" fill="#333333"><tspan x="256.91" dy="0.00">CLOSED</tspan></text><rect x="209.10" y="436.20" width="124.71" height="47.04" rx="10" ry="10" fill="#ECECFF" stroke="#7B88A8" stroke-width="1" stroke-linejoin="round" stroke-linecap="round"/><text x="271.46" y="463.12" text-anchor="middle" font-family="'trebuchet ms', verdana, arial, sans-serif" font-size="13.6" fill="#333333"><tspan x="271.46" dy="0.00">CLOSE_WAIT</tspan></text><rect x="127.40" y="342.01" width="131.14" height="47.04" rx="10" ry="10" fill="#ECECFF" stroke="#7B88A8" stroke-width="1" stroke-linejoin="round" stroke-linecap="round"/><text x="192.97" y="368.93" text-anchor="middle" font-family="'trebuchet ms', verdana, arial, sans-serif" font-size="13.6" fill="#333333"><tspan x="192.97" dy="0.00">ESTABLISHED</tspan></text><rect x="56.95" y="436.20" width="115.89" height="47.04" rx="10" ry="10" fill="#ECECFF" stroke="#7B88A8" stroke-width="1" stroke-linejoin="round" stroke-linecap="round"/><text x="114.90" y="463.12" text-anchor="middle" font-family="'trebuchet ms', verdana, arial, sans-serif" font-size="13.6" fill="#333333"><tspan x="114.90" dy="0.00">FIN_WAIT_1</tspan></text><rect x="57.60" y="530.38" width="115.89" height="47.04" rx="10" ry="10" fill="#ECECFF" stroke="#7B88A8" stroke-width="1" stroke-linejoin="round" stroke-linecap="round"/><text x="115.54" y="557.30" text-anchor="middle" font-family="'trebuchet ms', verdana, arial, sans-serif" font-size="13.6" fill="#333333"><tspan x="115.54" dy="0.00">FIN_WAIT_2</tspan></text><rect x="218.35" y="530.38" width="105.48" height="47.04" rx="10" ry="10" fill="#ECECFF" stroke="#7B88A8" stroke-width="1" stroke-linejoin="round" stroke-linecap="round"/><text x="271.09" y="557.30" text-anchor="middle" font-family="'trebuchet ms', verdana, arial, sans-serif" font-size="13.6" fill="#333333"><tspan x="271.09" dy="0.00">LAST_ACK</tspan></text><rect x="150.31" y="153.65" width="82.21" height="47.04" rx="10" ry="10" fill="#ECECFF" stroke="#7B88A8" stroke-width="1" stroke-linejoin="round" stroke-linecap="round"/><text x="191.42" y="180.57" text-anchor="middle" font-family="'trebuchet ms', verdana, arial, sans-serif" font-size="13.6" fill="#333333"><tspan x="191.42" dy="0.00">LISTEN</tspan></text><rect x="137.55" y="247.83" width="110.26" height="47.04" rx="10" ry="10" fill="#ECECFF" stroke="#7B88A8" stroke-width="1" stroke-linejoin="round" stroke-linecap="round"/><text x="192.69" y="274.75" text-anchor="middle" font-family="'trebuchet ms', verdana, arial, sans-serif" font-size="13.6" fill="#333333"><tspan x="192.69" dy="0.00">SYN_RCVD</tspan></text><rect x="268.78" y="153.65" width="107.87" height="47.04" rx="10" ry="10" fill="#ECECFF" stroke="#7B88A8" stroke-width="1" stroke-linejoin="round" stroke-linecap="round"/><text x="322.72" y="180.57" text-anchor="middle" font-family="'trebuchet ms', verdana, arial, sans-serif" font-size="13.6" fill="#333333"><tspan x="322.72" dy="0.00">SYN_SENT</tspan></text><rect x="60.52" y="624.57" width="110.26" height="47.04" rx="10" ry="10" fill="#ECECFF" stroke="#7B88A8" stroke-width="1" stroke-linejoin="round" stroke-linecap="round"/><text x="115.65" y="651.49" text-anchor="middle" font-family="'trebuchet ms', verdana, arial, sans-serif" font-size="13.6" fill="#333333"><tspan x="115.65" dy="0.00">TIME_WAIT</tspan></text><circle cx="256.77" cy="15.60" r="7.60" fill="#2F3B4D" stroke="#2F3B4D" stroke-width="1" stroke-linejoin="round" stroke-linecap="round"/></svg>