<svg xmlns="http://www.w3.org/2000/svg" width="180.5408" height="237.14249" viewBox="0 0 180.5408 237.14249"><rect x="0" y="0" width="180.5408" height="237.14249" fill="#FFFFFF"/><defs><marker id="arrow-0" viewBox="0 0 10 10" refX="5" refY="5" markerUnits="userSpaceOnUse" markerWidth="8" markerHeight="8" orient="auto"><path d="M 0 0 L 10 5 L 0 10 z" fill="#333333"/></marker><marker id="arrow-start-0" viewBox="0 0 10 10" refX="4.5" refY="5" markerUnits="userSpaceOnUse" markerWidth="8" markerHeight="8" orient="auto"><path d="M 0 5 L 10 10 L 10 0 z" fill="#333333"/></marker><marker id="arrow-state-0" viewBox="0 0 20 14" refX="19" refY="7" markerUnits="userSpaceOnUse" markerWidth="20" markerHeight="14" orient="auto"><path d="M 19 7 L 9 13 L 14 7 L 9 1 Z" fill="#333333" stroke="#333333"/></marker></defs><path d="M 28.812,25.280C28.812,33.590,28.812,46.054,28.812,50.209C28.812,54.364,28.812,46.054,28.812,50.209C28.812,54.364,28.812,66.828,28.812,75.137" fill="none" stroke="#333333" stroke-width="1" marker-end="url(#arrow-state-0)"   stroke-linecap="round" stroke-linejoin="round" /><path d="M 28.812,115.142C28.812,127.475,20.931,145.974,28.812,152.140C36.693,158.306,68.215,145.974,76.095,152.140C83.976,158.306,76.095,176.805,76.095,189.137" fill="none" stroke="#333333" stroke-width="1" marker-end="url(#arrow-state-0)"   stroke-linecap="round" stroke-linejoin="round" /><rect x="32.08" y="138.14" width="40.75" height="28.00" rx="2" ry="2" fill="#ECECFF" stroke="none"/><text x="52.45" y="156.14" text-anchor="middle" font-family="'trebuchet ms', verdana, arial, sans-serif" font-size="16" fill="#333333"><tspan x="52.45" dy="0.00">start</tspan></text><path d="M 136.082,115.142C136.082,127.475,143.963,145.974,136.082,152.140C128.202,158.306,96.680,145.974,88.799,152.140C80.918,158.306,88.799,176.805,88.799,189.137" fill="none" stroke="#333333" stroke-width="1" marker-end="url(#arrow-state-0)"   stroke-linecap="round" stroke-linejoin="round" /><rect x="51.39" y="189.14" width="62.11" height="40.00" rx="10" ry="10" fill="#ECECFF" stroke="#9370DB" stroke-width="1" stroke-linejoin="round" stroke-linecap="round"/><text x="82.45" y="213.14" text-anchor="middle" font-family="'trebuchet ms', verdana, arial, sans-serif" font-size="16" fill="#333333"><tspan x="82.45" dy="0.00">Active</tspan></text><rect x="8.00" y="75.14" width="41.62" height="40.00" rx="10" ry="10" fill="#ECECFF" stroke="#9370DB" stroke-width="1" stroke-linejoin="round" stroke-linecap="round"/><text x="28.81" y="99.14" text-anchor="middle" font-family="'trebuchet ms', verdana, arial, sans-serif" font-size="16" fill="#333333"><tspan x="28.81" dy="0.00">Idle</tspan></text><rect x="99.62" y="75.14" width="72.92" height="40.00" rx="10" ry="10" fill="#ECECFF" stroke="#9370DB" stroke-width="1" stroke-linejoin="round" stroke-linecap="round"/><text x="136.08" y="99.14" text-anchor="middle" font-family="'trebuchet ms', verdana, arial, sans-serif" font-size="16" fill="#333333"><tspan x="136.08" dy="0.00">Waiting</tspan></text><circle cx="28.81" cy="16.64" r="8.64" fill="#333333" stroke="#333333" stroke-width="1" stroke-linejoin="round" stroke-linecap="round"/></svg>