<svg xmlns="http://www.w3.org/2000/svg" width="138.0041" height="202.63148" viewBox="0 0 138.0041 202.63148"><rect x="0" y="0" width="138.0041" height="202.63148" fill="#FFFFFF"/><defs><marker id="arrow-0" viewBox="0 0 10 10" refX="5" refY="5" markerUnits="userSpaceOnUse" markerWidth="8" markerHeight="8" orient="auto"><path d="M 0 0 L 10 5 L 0 10 z" fill="#333333" stroke="#333333" stroke-width="1" stroke-dasharray="1,0"/></marker><marker id="arrow-start-0" viewBox="0 0 10 10" refX="4.5" refY="5" markerUnits="userSpaceOnUse" markerWidth="8" markerHeight="8" orient="auto"><path d="M 0 5 L 10 10 L 10 0 z" fill="#333333" stroke="#333333" stroke-width="1" stroke-dasharray="1,0"/></marker><marker id="arrow-state-0" viewBox="0 0 20 14" refX="19" refY="7" markerUnits="userSpaceOnUse" markerWidth="20" markerHeight="14" orient="auto"><path d="M 19 7 L 9 13 L 14 7 L 9 1 Z" fill="#333333" stroke="#333333" stroke-width="1" stroke-dasharray="1,0"/></marker></defs><path d="M 16.640,25.280L 16.640,25.784C16.640,26.288,16.640,27.296,16.640,28.304C16.640,29.312,16.640,30.320,16.963,31.211C17.287,32.101,17.933,32.875,23.300,39.294C28.666,45.713,38.753,57.778,44.120,64.197C49.486,70.616,50.133,71.389,50.456,72.280C50.780,73.170,50.780,74.178,50.780,75.186C50.780,76.194,50.780,77.202,50.780,77.706L 50.780,78.210" fill="none" stroke="#333333" stroke-width="1" marker-end="url(#arrow-state-0)"   stroke-linecap="round" stroke-linejoin="round" /><path d="M 50.780,124.421L 50.780,125.121C50.780,125.821,50.780,127.221,50.780,128.621C50.780,130.021,50.780,131.421,50.151,132.429C49.522,133.437,48.265,134.052,46.442,134.944C44.620,135.837,42.232,137.005,40.410,137.898C38.587,138.790,37.330,139.405,36.701,140.413C36.073,141.421,36.073,142.821,36.073,144.221C36.073,145.621,36.073,147.021,36.073,147.721L 36.073,148.421" fill="none" stroke="#333333" stroke-width="1" marker-end="url(#arrow-state-0)"   stroke-linecap="round" stroke-linejoin="round" /><rect x="24.16" y="124.62" width="38.53" height="23.60" rx="2" ry="2" fill="rgba(232,232,232, 0.8)" fill-opacity="0.70" stroke="#9370DB" stroke-opacity="0.25" stroke-width="0.8"/><text x="43.43" y="139.82" text-anchor="middle" font-family="'trebuchet ms', verdana, arial, sans-serif" font-size="13.6" fill="#333333"><tspan x="43.43" dy="0.00">start</tspan></text><path d="M 89.642,54.210L 89.642,54.910C89.642,55.611,89.642,57.010,89.642,58.411C89.642,59.810,89.642,61.210,89.520,62.600C89.398,63.989,89.154,65.368,86.991,77.580C84.828,89.793,80.747,112.839,78.584,125.051C76.421,137.264,76.177,138.642,76.055,140.032C75.933,141.421,75.933,142.821,75.933,144.221C75.933,145.621,75.933,147.021,75.933,147.721L 75.933,148.421" fill="none" stroke="#333333" stroke-width="1" marker-end="url(#arrow-state-0)"   stroke-linecap="round" stroke-linejoin="round" /><rect x="19.85" y="148.42" width="72.30" height="46.21" rx="10" ry="10" fill="#ECECFF" stroke="#9370DB" stroke-width="1" stroke-linejoin="round" stroke-linecap="round"/><text x="56.00" y="174.93" text-anchor="middle" font-family="'trebuchet ms', verdana, arial, sans-serif" font-size="13.6" fill="#333333"><tspan x="56.00" dy="0.00">Active</tspan></text><rect x="23.05" y="78.21" width="55.46" height="46.21" rx="10" ry="10" fill="#ECECFF" stroke="#9370DB" stroke-width="1" stroke-linejoin="round" stroke-linecap="round"/><text x="50.78" y="104.72" text-anchor="middle" font-family="'trebuchet ms', verdana, arial, sans-serif" font-size="13.6" fill="#333333"><tspan x="50.78" dy="0.00">Idle</tspan></text><rect x="49.28" y="8.00" width="80.72" height="46.21" rx="10" ry="10" fill="#ECECFF" stroke="#9370DB" stroke-width="1" stroke-linejoin="round" stroke-linecap="round"/><text x="89.64" y="34.51" text-anchor="middle" font-family="'trebuchet ms', verdana, arial, sans-serif" font-size="13.6" fill="#333333"><tspan x="89.64" dy="0.00">Waiting</tspan></text><circle cx="16.64" cy="16.64" r="8.64" fill="#333333" stroke="#333333" stroke-width="1" stroke-linejoin="round" stroke-linecap="round"/></svg>