<svg xmlns="http://www.w3.org/2000/svg" width="341.81555" height="806.315" viewBox="0 0 341.81555 806.315"><rect x="0" y="0" width="341.81555" height="806.315" fill="#FFFFFF"/><defs><marker id="arrow-0" viewBox="0 0 10 10" refX="5" refY="5" markerUnits="userSpaceOnUse" markerWidth="8" markerHeight="8" orient="auto"><path d="M 0 0 L 10 5 L 0 10 z" fill="#2F3B4D" stroke="#2F3B4D" stroke-width="1" stroke-dasharray="1,0"/></marker><marker id="arrow-start-0" viewBox="0 0 10 10" refX="4.5" refY="5" markerUnits="userSpaceOnUse" markerWidth="8" markerHeight="8" orient="auto"><path d="M 0 5 L 10 10 L 10 0 z" fill="#2F3B4D" stroke="#2F3B4D" stroke-width="1" stroke-dasharray="1,0"/></marker><marker id="arrow-state-0" viewBox="0 0 20 14" refX="19" refY="7" markerUnits="userSpaceOnUse" markerWidth="20" markerHeight="14" orient="auto"><path d="M 19 7 L 9 13 L 14 7 L 9 1 Z" fill="#2F3B4D" stroke="#2F3B4D" stroke-width="1" stroke-dasharray="1,0"/></marker></defs><path d="M 145.568,23.200 L 145.568,59.462" fill="none" stroke="#2F3B4D" stroke-width="1" marker-end="url(#arrow-state-0)"   stroke-linecap="round" stroke-linejoin="round" /><path d="M 129.568,106.502L 129.568,107.560C129.568,108.617,129.568,110.733,129.568,112.848C129.568,114.963,129.568,117.079,129.165,119.114C128.762,121.150,127.956,123.105,125.745,128.471C123.533,133.836,119.916,142.611,117.876,147.561C115.835,152.512,115.371,153.638,115.138,154.810C114.905,155.982,114.904,157.200,114.903,157.809C114.902,158.418,114.902,158.418,114.901,159.027C114.900,159.636,114.899,160.855,114.898,162.073C114.897,163.291,114.897,164.509,114.897,166.624C114.897,168.739,114.897,171.752,114.897,173.258L 114.897,174.764" fill="none" stroke="#2F3B4D" stroke-width="1" marker-end="url(#arrow-state-0)"   stroke-linecap="round" stroke-linejoin="round" /><rect x="72.87" y="142.96" width="84.08" height="23.60" rx="2" ry="2" fill="rgba(248,250,252, 0.92)" fill-opacity="0.70" stroke="#7B88A8" stroke-opacity="0.25" stroke-width="0.8"/><text x="114.91" y="158.16" text-anchor="middle" font-family="'trebuchet ms', verdana, arial, sans-serif" font-size="13.6" fill="#333333"><tspan x="114.91" dy="0.00">passive open</tspan></text><path d="M 177.568,106.502L 177.568,107.560C177.568,108.617,177.568,110.733,177.568,112.848C177.568,114.963,177.568,117.079,178.543,118.546C179.518,120.014,181.468,120.834,193.724,125.987C205.981,131.140,228.543,140.627,241.668,146.145C254.793,151.664,258.480,153.214,258.374,154.435C258.268,155.656,254.369,156.547,250.072,157.529C245.775,158.512,241.080,159.585,237.702,160.357C234.323,161.130,232.261,161.601,231.230,162.894C230.199,164.188,230.199,166.303,230.199,168.418C230.199,170.534,230.199,172.649,230.199,173.707L 230.199,174.764" fill="none" stroke="#2F3B4D" stroke-width="1" marker-end="url(#arrow-state-0)"   stroke-linecap="round" stroke-linejoin="round" /><rect x="203.86" y="142.96" width="116.62" height="23.60" rx="2" ry="2" fill="rgba(248,250,252, 0.92)" fill-opacity="0.70" stroke="#7B88A8" stroke-opacity="0.25" stroke-width="0.8"/><text x="262.17" y="158.16" text-anchor="middle" font-family="'trebuchet ms', verdana, arial, sans-serif" font-size="13.6" fill="#333333"><tspan x="262.17" dy="0.00">active open / SYN</tspan></text><path d="M 130.897,221.804L 130.897,222.862C130.897,223.920,130.897,226.035,130.897,228.150C130.897,230.265,130.897,232.381,130.463,234.403C130.030,236.425,129.162,238.355,127.317,242.459C125.472,246.563,122.650,252.842,120.418,257.806C118.187,262.770,116.547,266.418,117.711,268.496C118.875,270.573,122.842,271.080,131.335,272.164C139.827,273.248,152.844,274.909,160.401,275.874C167.958,276.839,170.057,277.107,171.106,278.298C172.155,279.490,172.155,281.605,172.155,283.721C172.155,285.836,172.155,287.951,172.155,289.009L 172.155,290.066" fill="none" stroke="#2F3B4D" stroke-width="1" marker-end="url(#arrow-state-0)"   stroke-linecap="round" stroke-linejoin="round" /><rect x="69.60" y="258.27" width="90.61" height="23.60" rx="2" ry="2" fill="rgba(248,250,252, 0.92)" fill-opacity="0.70" stroke="#7B88A8" stroke-opacity="0.25" stroke-width="0.8"/><text x="114.91" y="273.47" text-anchor="middle" font-family="'trebuchet ms', verdana, arial, sans-serif" font-size="13.6" fill="#333333"><tspan x="114.91" dy="0.00">SYN / SYN+ACK</tspan></text><path d="M 246.199,221.804L 246.199,222.862C246.199,223.920,246.199,226.035,246.199,228.150C246.199,230.265,246.199,232.381,247.257,233.438C248.314,234.496,250.430,234.496,253.048,234.496C255.667,234.496,258.788,234.496,262.349,234.496C265.910,234.496,269.910,234.496,270.817,236.171C271.724,237.846,269.539,241.196,266.764,245.450C263.989,249.703,260.625,254.860,257.851,259.113C255.076,263.366,252.891,266.716,252.170,270.357C251.449,273.997,252.193,277.927,255.688,296.397C259.184,314.867,265.431,347.876,268.927,366.346C272.422,384.816,273.166,388.747,271.538,390.712C269.910,392.677,265.910,392.677,257.081,392.677C248.252,392.677,234.595,392.677,226.709,392.677C218.822,392.677,216.707,392.677,215.649,393.735C214.592,394.792,214.592,396.907,214.592,399.023C214.592,401.138,214.592,403.253,214.592,404.311L 214.592,405.369" fill="none" stroke="#2F3B4D" stroke-width="1" marker-end="url(#arrow-state-0)"   stroke-linecap="round" stroke-linejoin="round" /><rect x="205.40" y="258.27" width="90.61" height="23.60" rx="2" ry="2" fill="rgba(248,250,252, 0.92)" fill-opacity="0.70" stroke="#7B88A8" stroke-opacity="0.25" stroke-width="0.8"/><text x="250.71" y="273.47" text-anchor="middle" font-family="'trebuchet ms', verdana, arial, sans-serif" font-size="13.6" fill="#333333"><tspan x="250.71" dy="0.00">SYN+ACK / ACK</tspan></text><path d="M 188.155,337.106L 188.155,338.164C188.155,339.222,188.155,341.337,188.155,343.452C188.155,345.568,188.155,347.683,187.153,349.080C186.152,350.478,184.149,351.157,168.566,356.443C152.984,361.729,123.822,371.621,107.347,377.210C90.872,382.799,87.084,384.084,87.185,384.873C87.285,385.662,91.275,385.956,106.769,387.096C122.263,388.237,149.263,390.224,163.818,391.295C178.373,392.366,180.482,392.522,181.537,393.657C182.592,394.792,182.592,396.907,182.592,399.023C182.592,401.138,182.592,403.253,182.592,404.311L 182.592,405.369" fill="none" stroke="#2F3B4D" stroke-width="1" marker-end="url(#arrow-state-0)"   stroke-linecap="round" stroke-linejoin="round" /><rect x="68.83" y="373.57" width="28.93" height="23.60" rx="2" ry="2" fill="rgba(248,250,252, 0.92)" fill-opacity="0.70" stroke="#7B88A8" stroke-opacity="0.25" stroke-width="0.8"/><text x="83.30" y="388.77" text-anchor="middle" font-family="'trebuchet ms', verdana, arial, sans-serif" font-size="13.6" fill="#333333"><tspan x="83.30" dy="0.00">ACK</tspan></text><path d="M 182.592,452.409L 182.592,453.466C182.592,454.524,182.592,456.639,182.592,458.755C182.592,460.870,182.592,462.985,183.422,464.697C184.253,466.410,185.914,467.719,191.865,472.410C197.815,477.100,208.055,485.171,214.746,490.445C221.437,495.719,224.578,498.195,224.155,499.583C223.731,500.972,219.742,501.273,204.660,502.411C189.577,503.550,163.401,505.526,149.258,506.593C135.115,507.661,133.006,507.820,131.951,508.957C130.897,510.094,130.897,512.210,130.897,514.325C130.897,516.440,130.897,518.555,130.897,519.613L 130.897,520.671" fill="none" stroke="#2F3B4D" stroke-width="1" marker-end="url(#arrow-state-0)"   stroke-linecap="round" stroke-linejoin="round" /><rect x="188.93" y="488.87" width="77.57" height="23.60" rx="2" ry="2" fill="rgba(248,250,252, 0.92)" fill-opacity="0.70" stroke="#7B88A8" stroke-opacity="0.25" stroke-width="0.8"/><text x="227.72" y="504.07" text-anchor="middle" font-family="'trebuchet ms', verdana, arial, sans-serif" font-size="13.6" fill="#333333"><tspan x="227.72" dy="0.00">close / FIN</tspan></text><path d="M 214.592,452.409L 214.592,453.466C214.592,454.524,214.592,456.639,214.592,458.755C214.592,460.870,214.592,462.985,213.596,464.398C212.599,465.811,210.607,466.522,195.877,471.778C181.146,477.035,153.678,486.836,138.060,492.409C122.442,497.982,118.674,499.327,118.788,500.103C118.901,500.879,122.896,501.086,145.265,502.249C167.634,503.412,208.378,505.531,229.806,506.645C251.234,507.759,253.346,507.869,254.403,508.982C255.459,510.094,255.459,512.210,255.459,514.325C255.459,516.440,255.459,518.555,255.459,519.613L 255.459,520.671" fill="none" stroke="#2F3B4D" stroke-width="1" marker-end="url(#arrow-state-0)"   stroke-linecap="round" stroke-linejoin="round" /><rect x="82.63" y="488.87" width="64.56" height="23.60" rx="2" ry="2" fill="rgba(248,250,252, 0.92)" fill-opacity="0.70" stroke="#7B88A8" stroke-opacity="0.25" stroke-width="0.8"/><text x="114.91" y="504.07" text-anchor="middle" font-family="'trebuchet ms', verdana, arial, sans-serif" font-size="13.6" fill="#333333"><tspan x="114.91" dy="0.00">FIN / ACK</tspan></text><path d="M 130.897,567.711L 130.897,568.768C130.897,569.826,130.897,571.941,130.897,574.057C130.897,576.172,130.897,578.287,130.463,580.310C130.030,582.332,129.162,584.261,127.317,588.365C125.472,592.470,122.650,598.749,120.418,603.713C118.187,608.676,116.547,612.325,117.724,614.260C118.901,616.196,122.894,616.419,143.661,617.578C164.427,618.737,201.966,620.832,221.791,621.939C241.616,623.045,243.728,623.163,244.784,624.280C245.840,625.396,245.840,627.512,245.840,629.627C245.840,631.742,245.840,633.858,245.840,634.915L 245.840,635.973" fill="none" stroke="#2F3B4D" stroke-width="1" marker-end="url(#arrow-state-0)"   stroke-linecap="round" stroke-linejoin="round" /><rect x="100.44" y="604.17" width="28.93" height="23.60" rx="2" ry="2" fill="rgba(248,250,252, 0.92)" fill-opacity="0.70" stroke="#7B88A8" stroke-opacity="0.25" stroke-width="0.8"/><text x="114.91" y="619.37" text-anchor="middle" font-family="'trebuchet ms', verdana, arial, sans-serif" font-size="13.6" fill="#333333"><tspan x="114.91" dy="0.00">ACK</tspan></text><path d="M 245.840,683.013L 245.840,684.071C245.840,685.128,245.840,687.243,245.840,689.359C245.840,691.474,245.840,693.589,244.877,695.084C243.914,696.579,241.988,697.453,230.748,702.555C219.507,707.657,198.953,716.986,186.854,722.477C174.756,727.969,171.113,729.622,171.253,730.839C171.394,732.057,175.317,732.838,180.393,733.849C185.470,734.861,191.701,736.102,195.853,736.929C200.006,737.757,202.080,738.170,203.118,739.434C204.155,740.699,204.155,742.814,204.155,744.929C204.155,747.044,204.155,749.160,204.155,750.217L 204.155,751.275" fill="none" stroke="#2F3B4D" stroke-width="1" marker-end="url(#arrow-state-0)"   stroke-linecap="round" stroke-linejoin="round" /><rect x="135.19" y="719.48" width="64.56" height="23.60" rx="2" ry="2" fill="rgba(248,250,252, 0.92)" fill-opacity="0.70" stroke="#7B88A8" stroke-opacity="0.25" stroke-width="0.8"/><text x="167.47" y="734.67" text-anchor="middle" font-family="'trebuchet ms', verdana, arial, sans-serif" font-size="13.6" fill="#333333"><tspan x="167.47" dy="0.00">FIN / ACK</tspan></text><path d="M 209.102,544.191L 208.044,544.191C206.987,544.191,204.871,544.191,202.756,544.191C200.641,544.191,198.525,544.191,197.619,545.238C196.712,546.284,197.014,548.378,198.453,558.362C199.893,568.346,202.470,586.221,204.044,597.138C205.618,608.055,206.189,612.014,205.436,615.703C204.683,619.392,202.607,622.810,198.750,629.160C194.894,635.509,189.258,644.789,185.890,650.333C182.523,655.877,181.425,657.685,179.818,658.589C178.212,659.493,176.096,659.493,173.981,659.493C171.866,659.493,169.751,659.493,168.693,659.493L 167.635,659.493" fill="none" stroke="#2F3B4D" stroke-width="1" marker-end="url(#arrow-state-0)"   stroke-linecap="round" stroke-linejoin="round" /><rect x="167.97" y="604.17" width="77.57" height="23.60" rx="2" ry="2" fill="rgba(248,250,252, 0.92)" fill-opacity="0.70" stroke="#7B88A8" stroke-opacity="0.25" stroke-width="0.8"/><text x="206.76" y="619.37" text-anchor="middle" font-family="'trebuchet ms', verdana, arial, sans-serif" font-size="13.6" fill="#333333"><tspan x="206.76" dy="0.00">close / FIN</tspan></text><path d="M 114.897,635.973L 114.897,634.915C114.897,633.858,114.897,631.742,114.897,629.627C114.897,627.512,114.897,625.396,113.839,624.339C112.782,623.281,110.666,623.281,94.850,623.281C79.034,623.281,49.517,623.281,32.758,623.281C16.000,623.281,12.000,623.281,11.006,621.553C10.013,619.824,12.026,616.368,34.108,578.444C56.191,540.520,98.343,468.129,120.426,430.206C142.509,392.282,144.521,388.825,144.605,385.323C144.688,381.820,142.841,378.272,120.675,335.684C98.509,293.096,56.025,211.467,33.859,168.879C11.693,126.290,9.847,122.742,10.923,120.968C12.000,119.194,16.000,119.194,37.870,119.194C59.741,119.194,99.482,119.194,120.410,119.194C141.338,119.194,143.453,119.194,144.511,118.136C145.568,117.079,145.568,114.963,145.568,112.848C145.568,110.733,145.568,108.617,145.568,107.560L 145.568,106.502" fill="none" stroke="#2F3B4D" stroke-width="1" marker-end="url(#arrow-state-0)"   stroke-linecap="round" stroke-linejoin="round" /><rect x="132.07" y="373.57" width="28.93" height="23.60" rx="2" ry="2" fill="rgba(248,250,252, 0.92)" fill-opacity="0.70" stroke="#7B88A8" stroke-opacity="0.25" stroke-width="0.8"/><text x="146.53" y="388.77" text-anchor="middle" font-family="'trebuchet ms', verdana, arial, sans-serif" font-size="13.6" fill="#333333"><tspan x="146.53" dy="0.00">ACK</tspan></text><path d="M 188.155,751.275L 188.155,750.217C188.155,749.160,188.155,747.044,188.155,744.929C188.155,742.814,188.155,740.699,187.097,739.641C186.040,738.583,183.924,738.583,155.899,738.583C127.873,738.583,73.936,738.583,44.968,738.583C16.000,738.583,12.000,738.583,11.040,736.875C10.080,735.167,12.161,731.750,46.967,674.589C81.773,617.429,149.304,506.523,184.110,449.362C218.917,392.202,220.997,388.785,220.780,385.521C220.563,382.257,218.049,379.146,183.460,336.339C148.871,293.532,82.206,211.030,47.617,168.223C13.028,125.416,10.514,122.305,11.257,120.750C12.000,119.194,16.000,119.194,40.537,119.194C65.074,119.194,110.148,119.194,133.743,119.194C157.338,119.194,159.453,119.194,160.511,118.136C161.568,117.079,161.568,114.963,161.568,112.848C161.568,110.733,161.568,108.617,161.568,107.560L 161.568,106.502" fill="none" stroke="#2F3B4D" stroke-width="1" marker-end="url(#arrow-state-0)"   stroke-linecap="round" stroke-linejoin="round" /><rect x="197.30" y="373.57" width="51.55" height="23.60" rx="2" ry="2" fill="rgba(248,250,252, 0.92)" fill-opacity="0.70" stroke="#7B88A8" stroke-opacity="0.25" stroke-width="0.8"/><text x="223.08" y="388.77" text-anchor="middle" font-family="'trebuchet ms', verdana, arial, sans-serif" font-size="13.6" fill="#333333"><tspan x="223.08" dy="0.00">timeout</tspan></text><rect x="100.05" y="59.46" width="91.03" height="47.04" rx="10" ry="10" fill="#ECECFF" stroke="#7B88A8" stroke-width="1" stroke-linejoin="round" stroke-linecap="round"/><text x="145.57" y="86.38" text-anchor="middle" font-family="'trebuchet ms', verdana, arial, sans-serif" font-size="13.6" fill="#333333"><tspan x="145.57" dy="0.00">CLOSED</tspan></text><rect x="209.10" y="520.67" width="124.71" height="47.04" rx="10" ry="10" fill="#ECECFF" stroke="#7B88A8" stroke-width="1" stroke-linejoin="round" stroke-linecap="round"/><text x="271.46" y="547.59" text-anchor="middle" font-family="'trebuchet ms', verdana, arial, sans-serif" font-size="13.6" fill="#333333"><tspan x="271.46" dy="0.00">CLOSE_WAIT</tspan></text><rect x="133.02" y="405.37" width="131.14" height="47.04" rx="10" ry="10" fill="#ECECFF" stroke="#7B88A8" stroke-width="1" stroke-linejoin="round" stroke-linecap="round"/><text x="198.59" y="432.29" text-anchor="middle" font-family="'trebuchet ms', verdana, arial, sans-serif" font-size="13.6" fill="#333333"><tspan x="198.59" dy="0.00">ESTABLISHED</tspan></text><rect x="56.95" y="520.67" width="115.89" height="47.04" rx="10" ry="10" fill="#ECECFF" stroke="#7B88A8" stroke-width="1" stroke-linejoin="round" stroke-linecap="round"/><text x="114.90" y="547.59" text-anchor="middle" font-family="'trebuchet ms', verdana, arial, sans-serif" font-size="13.6" fill="#333333"><tspan x="114.90" dy="0.00">FIN_WAIT_1</tspan></text><rect x="203.90" y="635.97" width="115.89" height="47.04" rx="10" ry="10" fill="#ECECFF" stroke="#7B88A8" stroke-width="1" stroke-linejoin="round" stroke-linecap="round"/><text x="261.84" y="662.89" text-anchor="middle" font-family="'trebuchet ms', verdana, arial, sans-serif" font-size="13.6" fill="#333333"><tspan x="261.84" dy="0.00">FIN_WAIT_2</tspan></text><rect x="62.16" y="635.97" width="105.48" height="47.04" rx="10" ry="10" fill="#ECECFF" stroke="#7B88A8" stroke-width="1" stroke-linejoin="round" stroke-linecap="round"/><text x="114.90" y="662.89" text-anchor="middle" font-family="'trebuchet ms', verdana, arial, sans-serif" font-size="13.6" fill="#333333"><tspan x="114.90" dy="0.00">LAST_ACK</tspan></text><rect x="73.79" y="174.76" width="82.21" height="47.04" rx="10" ry="10" fill="#ECECFF" stroke="#7B88A8" stroke-width="1" stroke-linejoin="round" stroke-linecap="round"/><text x="114.90" y="201.68" text-anchor="middle" font-family="'trebuchet ms', verdana, arial, sans-serif" font-size="13.6" fill="#333333"><tspan x="114.90" dy="0.00">LISTEN</tspan></text><rect x="133.02" y="290.07" width="110.26" height="47.04" rx="10" ry="10" fill="#ECECFF" stroke="#7B88A8" stroke-width="1" stroke-linejoin="round" stroke-linecap="round"/><text x="188.15" y="316.99" text-anchor="middle" font-family="'trebuchet ms', verdana, arial, sans-serif" font-size="13.6" fill="#333333"><tspan x="188.15" dy="0.00">SYN_RCVD</tspan></text><rect x="192.26" y="174.76" width="107.87" height="47.04" rx="10" ry="10" fill="#ECECFF" stroke="#7B88A8" stroke-width="1" stroke-linejoin="round" stroke-linecap="round"/><text x="246.20" y="201.68" text-anchor="middle" font-family="'trebuchet ms', verdana, arial, sans-serif" font-size="13.6" fill="#333333"><tspan x="246.20" dy="0.00">SYN_SENT</tspan></text><rect x="133.02" y="751.28" width="110.26" height="47.04" rx="10" ry="10" fill="#ECECFF" stroke="#7B88A8" stroke-width="1" stroke-linejoin="round" stroke-linecap="round"/><text x="188.15" y="778.20" text-anchor="middle" font-family="'trebuchet ms', verdana, arial, sans-serif" font-size="13.6" fill="#333333"><tspan x="188.15" dy="0.00">TIME_WAIT</tspan></text><circle cx="145.57" cy="15.60" r="7.60" fill="#2F3B4D" stroke="#2F3B4D" stroke-width="1" stroke-linejoin="round" stroke-linecap="round"/></svg>