<svg xmlns="http://www.w3.org/2000/svg" width="172.49942" height="224.01064" viewBox="0 0 172.49942 224.01064"><rect x="0" y="0" width="172.49942" height="224.01064" fill="#FFFFFF"/><defs><marker id="arrow-0" viewBox="0 0 10 10" refX="5" refY="5" markerUnits="userSpaceOnUse" markerWidth="8" markerHeight="8" orient="auto"><path d="M 0 0 L 10 5 L 0 10 z" fill="#2F3B4D" stroke="#2F3B4D" stroke-width="1" stroke-dasharray="1,0"/></marker><marker id="arrow-start-0" viewBox="0 0 10 10" refX="4.5" refY="5" markerUnits="userSpaceOnUse" markerWidth="8" markerHeight="8" orient="auto"><path d="M 0 5 L 10 10 L 10 0 z" fill="#2F3B4D" stroke="#2F3B4D" stroke-width="1" stroke-dasharray="1,0"/></marker><marker id="arrow-state-0" viewBox="0 0 20 14" refX="19" refY="7" markerUnits="userSpaceOnUse" markerWidth="20" markerHeight="14" orient="auto"><path d="M 19 7 L 9 13 L 14 7 L 9 1 Z" fill="#2F3B4D" stroke="#2F3B4D" stroke-width="1" stroke-dasharray="1,0"/></marker></defs><path d="M 41.099,23.188L 41.099,23.688C41.099,24.188,41.099,25.188,41.099,26.188C41.099,27.188,41.099,28.188,41.163,29.184C41.227,30.180,41.355,31.171,42.270,38.252C43.185,45.333,44.886,58.502,45.801,65.583C46.715,72.663,46.843,73.655,46.907,74.651C46.971,75.647,46.971,76.647,46.971,77.647C46.971,78.647,46.971,79.647,46.971,80.147L 46.971,80.647" fill="none" stroke="#2F3B4D" stroke-width="1" marker-end="url(#arrow-state-0)"   stroke-linecap="round" stroke-linejoin="round" /><path d="M 48.235,127.687L 48.235,128.434C48.235,129.181,48.235,130.674,48.235,132.168C48.235,133.662,48.235,135.156,48.095,136.636C47.956,138.117,47.677,139.584,47.076,142.744C46.475,145.903,45.553,150.754,44.952,153.914C44.352,157.073,44.073,158.541,43.933,160.021C43.794,161.502,43.794,162.996,43.794,164.489C43.794,165.983,43.794,167.477,43.794,168.224L 43.794,168.971" fill="none" stroke="#2F3B4D" stroke-width="1" marker-end="url(#arrow-state-0)"   stroke-linecap="round" stroke-linejoin="round" /><rect x="112.21" y="171.83" width="38.53" height="23.60" rx="2" ry="2" fill="rgba(248,250,252, 0.92)" fill-opacity="0.70" stroke="#7B88A8" stroke-opacity="0.25" stroke-width="0.8"/><text x="131.47" y="187.03" text-anchor="middle" font-family="'trebuchet ms', verdana, arial, sans-serif" font-size="13.6" fill="#333333"><tspan x="131.47" dy="0.00">start</tspan></text><path d="M 113.191,55.040L 113.191,55.787C113.191,56.534,113.191,58.027,113.191,59.521C113.191,61.015,113.191,62.509,112.836,63.912C112.480,65.316,111.769,66.630,103.465,81.974C95.161,97.318,79.264,126.693,70.960,142.037C62.656,157.381,61.945,158.695,61.589,160.098C61.234,161.502,61.234,162.996,61.234,164.489C61.234,165.983,61.234,167.477,61.234,168.224L 61.234,168.971" fill="none" stroke="#2F3B4D" stroke-width="1" marker-end="url(#arrow-state-0)"   stroke-linecap="round" stroke-linejoin="round" /><rect x="8.00" y="168.97" width="82.20" height="47.04" rx="10" ry="10" fill="#ECECFF" stroke="#7B88A8" stroke-width="1" stroke-linejoin="round" stroke-linecap="round"/><text x="49.10" y="195.89" text-anchor="middle" font-family="'trebuchet ms', verdana, arial, sans-serif" font-size="13.6" fill="#333333"><tspan x="49.10" dy="0.00">Active</tspan></text><rect x="15.36" y="80.65" width="65.36" height="47.04" rx="10" ry="10" fill="#ECECFF" stroke="#7B88A8" stroke-width="1" stroke-linejoin="round" stroke-linecap="round"/><text x="48.04" y="107.57" text-anchor="middle" font-family="'trebuchet ms', verdana, arial, sans-serif" font-size="13.6" fill="#333333"><tspan x="48.04" dy="0.00">Idle</tspan></text><rect x="73.88" y="8.00" width="90.62" height="47.04" rx="10" ry="10" fill="#ECECFF" stroke="#7B88A8" stroke-width="1" stroke-linejoin="round" stroke-linecap="round"/><text x="119.19" y="34.92" text-anchor="middle" font-family="'trebuchet ms', verdana, arial, sans-serif" font-size="13.6" fill="#333333"><tspan x="119.19" dy="0.00">Waiting</tspan></text><circle cx="40.67" cy="15.60" r="7.60" fill="#2F3B4D" stroke="#2F3B4D" stroke-width="1" stroke-linejoin="round" stroke-linecap="round"/></svg>