<svg xmlns="http://www.w3.org/2000/svg" width="268.31232" height="579.0299" viewBox="0 0 268.31232 579.0299"><rect x="0" y="0" width="268.31232" height="579.0299" fill="#FFFFFF"/><defs><marker id="arrow-0" viewBox="0 0 10 10" refX="5" refY="5" markerUnits="userSpaceOnUse" markerWidth="8" markerHeight="8" orient="auto"><path d="M 0 0 L 10 5 L 0 10 z" fill="#2F3B4D" stroke="#2F3B4D" stroke-width="1" stroke-dasharray="1,0"/></marker><marker id="arrow-start-0" viewBox="0 0 10 10" refX="4.5" refY="5" markerUnits="userSpaceOnUse" markerWidth="8" markerHeight="8" orient="auto"><path d="M 0 5 L 10 10 L 10 0 z" fill="#2F3B4D" stroke="#2F3B4D" stroke-width="1" stroke-dasharray="1,0"/></marker><marker id="arrow-state-0" viewBox="0 0 20 14" refX="19" refY="7" markerUnits="userSpaceOnUse" markerWidth="20" markerHeight="14" orient="auto"><path d="M 19 7 L 9 13 L 14 7 L 9 1 Z" fill="#2F3B4D" stroke="#2F3B4D" stroke-width="1" stroke-dasharray="1,0"/></marker></defs><path d="M 121.281,23.200L 121.281,23.700C121.281,24.200,121.281,25.200,121.281,26.200C121.281,27.200,121.281,28.200,121.280,29.200C121.279,30.200,121.278,31.200,121.275,33.406C121.272,35.613,121.267,39.026,121.264,41.232C121.260,43.438,121.259,44.438,121.258,45.438C121.258,46.438,121.258,47.438,121.258,48.438C121.258,49.438,121.258,50.438,121.258,50.938L 121.258,51.438" fill="none" stroke="#2F3B4D" stroke-width="1" marker-end="url(#arrow-state-0)"   stroke-linecap="round" stroke-linejoin="round" /><path d="M 121.258,98.478L 121.258,99.302C121.258,100.126,121.258,101.773,121.258,103.420C121.258,105.067,121.258,106.714,121.257,108.362C121.256,110.009,121.255,111.656,121.251,115.872C121.248,120.088,121.242,126.873,121.239,131.109C121.235,135.344,121.234,137.031,121.231,138.717C121.229,140.403,121.225,142.089,121.223,142.951C121.221,143.814,121.221,143.853,121.219,144.696C121.218,145.539,121.214,147.186,121.212,148.833C121.211,150.480,121.211,152.128,121.211,153.775C121.211,155.422,121.211,157.069,121.211,157.893L 121.211,158.717" fill="none" stroke="#2F3B4D" stroke-width="1" marker-end="url(#arrow-state-0)"   stroke-linecap="round" stroke-linejoin="round" /><rect x="98.71" y="126.92" width="45.04" height="23.60" rx="2" ry="2" fill="rgba(248,250,252, 0.92)" fill-opacity="0.70" stroke="#7B88A8" stroke-opacity="0.25" stroke-width="0.8"/><text x="121.23" y="142.12" text-anchor="middle" font-family="'trebuchet ms', verdana, arial, sans-serif" font-size="13.6" fill="#333333"><tspan x="121.23" dy="0.00">submit</tspan></text><path d="M 137.211,205.757L 137.211,206.580C137.211,207.404,137.211,209.051,137.211,210.698C137.211,212.346,137.211,213.993,137.888,215.285C138.566,216.577,139.921,217.513,146.148,221.817C152.375,226.120,163.474,233.791,170.117,238.382C176.760,242.973,178.946,244.484,179.012,246.082C179.078,247.681,177.024,249.367,175.606,250.531C174.188,251.694,173.407,252.335,172.379,253.179C171.352,254.022,170.079,255.067,169.442,256.413C168.805,257.759,168.805,259.406,168.805,261.053C168.805,262.700,168.805,264.348,168.805,265.171L 168.805,265.995" fill="none" stroke="#2F3B4D" stroke-width="1" marker-end="url(#arrow-state-0)"   stroke-linecap="round" stroke-linejoin="round" /><rect x="155.36" y="234.19" width="51.55" height="23.60" rx="2" ry="2" fill="rgba(248,250,252, 0.92)" fill-opacity="0.70" stroke="#7B88A8" stroke-opacity="0.25" stroke-width="0.8"/><text x="181.13" y="249.39" text-anchor="middle" font-family="'trebuchet ms', verdana, arial, sans-serif" font-size="13.6" fill="#333333"><tspan x="181.13" dy="0.00">approve</tspan></text><path d="M 105.211,205.757L 105.211,206.580C105.211,207.404,105.211,209.051,105.211,210.698C105.211,212.346,105.211,213.993,104.533,215.284C103.855,216.576,102.499,217.512,96.263,221.818C90.026,226.123,78.907,233.799,72.257,238.391C65.607,242.982,63.425,244.488,63.357,246.085C63.289,247.681,65.336,249.367,66.747,250.529C68.158,251.692,68.933,252.331,69.956,253.174C70.980,254.017,72.251,255.064,72.887,256.411C73.522,257.759,73.522,259.406,73.522,261.053C73.522,262.700,73.522,264.348,73.522,265.171L 73.522,265.995" fill="none" stroke="#2F3B4D" stroke-width="1" marker-end="url(#arrow-state-0)"   stroke-linecap="round" stroke-linejoin="round" /><rect x="38.72" y="234.19" width="45.04" height="23.60" rx="2" ry="2" fill="rgba(248,250,252, 0.92)" fill-opacity="0.70" stroke="#7B88A8" stroke-opacity="0.25" stroke-width="0.8"/><text x="61.24" y="249.39" text-anchor="middle" font-family="'trebuchet ms', verdana, arial, sans-serif" font-size="13.6" fill="#333333"><tspan x="61.24" dy="0.00">reject</tspan></text><path d="M 184.805,313.035L 184.805,313.859C184.805,314.682,184.805,316.329,184.805,317.977C184.805,319.624,184.805,321.271,184.800,322.918C184.795,324.566,184.785,326.213,184.759,330.429C184.733,334.645,184.690,341.430,184.664,345.666C184.638,349.901,184.627,351.587,184.619,353.273C184.610,354.959,184.603,356.645,184.599,357.508C184.596,358.370,184.596,358.409,184.592,359.252C184.589,360.095,184.582,361.743,184.578,363.390C184.575,365.037,184.575,366.684,184.575,368.332C184.575,369.979,184.575,371.626,184.575,372.450L 184.575,373.273" fill="none" stroke="#2F3B4D" stroke-width="1" marker-end="url(#arrow-state-0)"   stroke-linecap="round" stroke-linejoin="round" /><rect x="158.84" y="341.47" width="51.55" height="23.60" rx="2" ry="2" fill="rgba(248,250,252, 0.92)" fill-opacity="0.70" stroke="#7B88A8" stroke-opacity="0.25" stroke-width="0.8"/><text x="184.62" y="356.67" text-anchor="middle" font-family="'trebuchet ms', verdana, arial, sans-serif" font-size="13.6" fill="#333333"><tspan x="184.62" dy="0.00">publish</tspan></text><path d="M 57.522,265.995L 57.522,264.925C57.522,263.855,57.522,261.714,57.522,260.067C57.522,258.420,57.522,257.266,58.099,256.689C58.676,256.112,59.831,256.112,60.408,256.112C60.985,256.112,60.985,256.112,61.562,256.112C62.139,256.112,63.293,256.112,64.300,255.727C65.307,255.342,66.166,254.572,86.523,236.340C106.879,218.109,146.732,182.416,168.148,163.235C189.564,144.054,192.544,141.385,192.085,139.600C191.626,137.814,187.729,136.912,167.832,132.304C147.934,127.696,112.036,119.382,92.138,114.775C72.241,110.167,68.344,109.264,68.395,108.813C68.447,108.362,72.447,108.362,78.425,108.362C84.403,108.362,92.360,108.362,97.161,108.362C101.963,108.362,103.610,108.362,104.434,107.538C105.258,106.714,105.258,105.067,105.258,103.420C105.258,101.773,105.258,100.126,105.258,99.302L 105.258,98.478" fill="none" stroke="#2F3B4D" stroke-width="1" marker-end="url(#arrow-state-0)"   stroke-linecap="round" stroke-linejoin="round" /><rect x="173.00" y="126.92" width="45.04" height="23.60" rx="2" ry="2" fill="rgba(248,250,252, 0.92)" fill-opacity="0.70" stroke="#7B88A8" stroke-opacity="0.25" stroke-width="0.8"/><text x="195.52" y="142.12" text-anchor="middle" font-family="'trebuchet ms', verdana, arial, sans-serif" font-size="13.6" fill="#333333"><tspan x="195.52" dy="0.00">revise</tspan></text><path d="M 168.575,420.313L 168.575,421.137C168.575,421.960,168.575,423.608,168.575,425.255C168.575,426.902,168.575,428.549,168.958,430.102C169.342,431.655,170.108,433.112,172.377,437.425C174.646,441.738,178.416,448.907,180.694,453.237C182.971,457.567,183.756,459.059,184.147,460.648C184.537,462.238,184.533,463.924,184.531,464.786C184.529,465.649,184.529,465.688,184.527,466.531C184.526,467.374,184.522,469.021,184.520,470.668C184.518,472.315,184.518,473.963,184.518,475.610C184.518,477.257,184.518,478.904,184.518,479.728L 184.518,480.552" fill="none" stroke="#2F3B4D" stroke-width="1" marker-end="url(#arrow-state-0)"   stroke-linecap="round" stroke-linejoin="round" /><rect x="158.77" y="448.75" width="51.55" height="23.60" rx="2" ry="2" fill="rgba(248,250,252, 0.92)" fill-opacity="0.70" stroke="#7B88A8" stroke-opacity="0.25" stroke-width="0.8"/><text x="184.54" y="463.95" text-anchor="middle" font-family="'trebuchet ms', verdana, arial, sans-serif" font-size="13.6" fill="#333333"><tspan x="184.54" dy="0.00">archive</tspan></text><path d="M 200.575,420.313L 200.575,420.813C200.575,421.313,200.575,422.313,200.575,423.313C200.575,424.313,200.575,425.313,201.075,425.813C201.575,426.313,202.575,426.313,210.531,426.313C218.487,426.313,233.400,426.313,242.856,426.313C252.312,426.313,256.312,426.313,258.312,428.313C260.312,430.313,260.312,434.313,260.312,452.899C260.312,471.485,260.312,504.658,260.312,523.244C260.312,541.830,260.312,545.830,258.312,547.830C256.312,549.830,252.312,549.830,240.178,549.830C228.044,549.830,207.775,549.830,197.140,549.830C186.506,549.830,185.506,549.830,185.006,550.330C184.506,550.830,184.506,551.830,184.506,552.830C184.506,553.830,184.506,554.830,184.506,555.330L 184.506,555.830" fill="none" stroke="#2F3B4D" stroke-width="1" marker-end="url(#arrow-state-0)"   stroke-linecap="round" stroke-linejoin="round" /><path d="M 184.518,527.592 L 184.506,555.830" fill="none" stroke="#2F3B4D" stroke-width="1" marker-end="url(#arrow-state-0)"   stroke-linecap="round" stroke-linejoin="round" /><rect x="135.28" y="265.99" width="99.04" height="47.04" rx="10" ry="10" fill="#ECECFF" stroke="#7B88A8" stroke-width="1" stroke-linejoin="round" stroke-linecap="round"/><text x="184.81" y="292.91" text-anchor="middle" font-family="'trebuchet ms', verdana, arial, sans-serif" font-size="13.6" fill="#333333"><tspan x="184.81" dy="0.00">Approved</tspan></text><rect x="135.00" y="480.55" width="99.04" height="47.04" rx="10" ry="10" fill="#ECECFF" stroke="#7B88A8" stroke-width="1" stroke-linejoin="round" stroke-linecap="round"/><text x="184.52" y="507.47" text-anchor="middle" font-family="'trebuchet ms', verdana, arial, sans-serif" font-size="13.6" fill="#333333"><tspan x="184.52" dy="0.00">Archived</tspan></text><rect x="84.37" y="51.44" width="73.78" height="47.04" rx="10" ry="10" fill="#ECECFF" stroke="#7B88A8" stroke-width="1" stroke-linejoin="round" stroke-linecap="round"/><text x="121.26" y="78.36" text-anchor="middle" font-family="'trebuchet ms', verdana, arial, sans-serif" font-size="13.6" fill="#333333"><tspan x="121.26" dy="0.00">Draft</tspan></text><rect x="130.84" y="373.27" width="107.47" height="47.04" rx="10" ry="10" fill="#ECECFF" stroke="#7B88A8" stroke-width="1" stroke-linejoin="round" stroke-linecap="round"/><text x="184.57" y="400.19" text-anchor="middle" font-family="'trebuchet ms', verdana, arial, sans-serif" font-size="13.6" fill="#333333"><tspan x="184.57" dy="0.00">Published</tspan></text><rect x="8.00" y="265.99" width="99.04" height="47.04" rx="10" ry="10" fill="#ECECFF" stroke="#7B88A8" stroke-width="1" stroke-linejoin="round" stroke-linecap="round"/><text x="57.52" y="292.91" text-anchor="middle" font-family="'trebuchet ms', verdana, arial, sans-serif" font-size="13.6" fill="#333333"><tspan x="57.52" dy="0.00">Rejected</tspan></text><rect x="80.11" y="158.72" width="82.20" height="47.04" rx="10" ry="10" fill="#ECECFF" stroke="#7B88A8" stroke-width="1" stroke-linejoin="round" stroke-linecap="round"/><text x="121.21" y="185.64" text-anchor="middle" font-family="'trebuchet ms', verdana, arial, sans-serif" font-size="13.6" fill="#333333"><tspan x="121.21" dy="0.00">Review</tspan></text><circle cx="184.51" cy="563.43" r="7.60" fill="#7B88A8" stroke="#7B88A8" stroke-width="1" stroke-linejoin="round" stroke-linecap="round"/><circle cx="184.51" cy="563.43" r="3.60" fill="#FFFFFF" stroke="#FFFFFF" stroke-width="1.2" stroke-linejoin="round" stroke-linecap="round"/><circle cx="121.28" cy="15.60" r="7.60" fill="#2F3B4D" stroke="#2F3B4D" stroke-width="1" stroke-linejoin="round" stroke-linecap="round"/></svg>