<svg xmlns="http://www.w3.org/2000/svg" width="147.43097" height="240.33372" viewBox="0 0 147.43097 240.33372"><rect x="0" y="0" width="147.43097" height="240.33372" fill="#FFFFFF"/><defs><marker id="arrow-0" viewBox="0 0 10 10" refX="5" refY="5" markerUnits="userSpaceOnUse" markerWidth="8" markerHeight="8" orient="auto"><path d="M 0 0 L 10 5 L 0 10 z" fill="#2F3B4D" stroke="#2F3B4D" stroke-width="1" stroke-dasharray="1,0"/></marker><marker id="arrow-start-0" viewBox="0 0 10 10" refX="4.5" refY="5" markerUnits="userSpaceOnUse" markerWidth="8" markerHeight="8" orient="auto"><path d="M 0 5 L 10 10 L 10 0 z" fill="#2F3B4D" stroke="#2F3B4D" stroke-width="1" stroke-dasharray="1,0"/></marker><marker id="arrow-state-0" viewBox="0 0 20 14" refX="19" refY="7" markerUnits="userSpaceOnUse" markerWidth="20" markerHeight="14" orient="auto"><path d="M 19 7 L 9 13 L 14 7 L 9 1 Z" fill="#2F3B4D" stroke="#2F3B4D" stroke-width="1" stroke-dasharray="1,0"/></marker></defs><path d="M 17.400,22.984L 17.400,23.484C17.400,23.984,17.400,24.984,17.400,25.984C17.400,26.984,17.400,27.984,17.672,28.903C17.945,29.823,18.489,30.661,23.157,37.852C27.826,45.044,36.618,58.587,41.286,65.778C45.955,72.969,46.499,73.808,46.771,74.727C47.044,75.647,47.044,76.647,47.044,77.647C47.044,78.647,47.044,79.647,47.044,80.147L 47.044,80.647" fill="none" stroke="#2F3B4D" stroke-width="1" marker-end="url(#arrow-state-0)"   stroke-linecap="round" stroke-linejoin="round" /><path d="M 53.203,127.687L 53.203,128.434C53.203,129.181,53.203,130.674,53.203,132.168C53.203,133.662,53.203,135.156,53.172,136.649C53.142,138.142,53.080,139.634,52.840,145.502C52.600,151.369,52.181,161.611,51.941,167.479C51.700,173.346,51.639,174.839,51.609,176.332C51.578,177.825,51.578,179.319,51.578,180.813C51.578,182.306,51.578,183.800,51.578,184.547L 51.578,185.294" fill="none" stroke="#2F3B4D" stroke-width="1" marker-end="url(#arrow-state-0)"   stroke-linecap="round" stroke-linejoin="round" /><rect x="16.24" y="144.00" width="38.53" height="23.60" rx="2" ry="2" fill="rgba(248,250,252, 0.92)" fill-opacity="0.70" stroke="#7B88A8" stroke-opacity="0.25" stroke-width="0.8"/><text x="35.51" y="159.20" text-anchor="middle" font-family="'trebuchet ms', verdana, arial, sans-serif" font-size="13.6" fill="#333333"><tspan x="35.51" dy="0.00">start</tspan></text><path d="M 91.358,55.040L 91.358,55.787C91.358,56.534,91.358,58.027,91.358,59.521C91.358,61.015,91.358,62.509,91.206,63.987C91.054,65.465,90.750,66.927,87.012,84.918C83.274,102.908,76.103,137.426,72.365,155.416C68.627,173.406,68.323,174.869,68.171,176.347C68.019,177.825,68.019,179.319,68.019,180.813C68.019,182.306,68.019,183.800,68.019,184.547L 68.019,185.294" fill="none" stroke="#2F3B4D" stroke-width="1" marker-end="url(#arrow-state-0)"   stroke-linecap="round" stroke-linejoin="round" /><rect x="16.91" y="185.29" width="82.20" height="47.04" rx="10" ry="10" fill="#ECECFF" stroke="#7B88A8" stroke-width="1" stroke-linejoin="round" stroke-linecap="round"/><text x="58.02" y="212.21" text-anchor="middle" font-family="'trebuchet ms', verdana, arial, sans-serif" font-size="13.6" fill="#333333"><tspan x="58.02" dy="0.00">Active</tspan></text><rect x="19.71" y="80.65" width="65.36" height="47.04" rx="10" ry="10" fill="#ECECFF" stroke="#7B88A8" stroke-width="1" stroke-linejoin="round" stroke-linecap="round"/><text x="52.39" y="107.57" text-anchor="middle" font-family="'trebuchet ms', verdana, arial, sans-serif" font-size="13.6" fill="#333333"><tspan x="52.39" dy="0.00">Idle</tspan></text><rect x="48.81" y="8.00" width="90.62" height="47.04" rx="10" ry="10" fill="#ECECFF" stroke="#7B88A8" stroke-width="1" stroke-linejoin="round" stroke-linecap="round"/><text x="94.12" y="34.92" text-anchor="middle" font-family="'trebuchet ms', verdana, arial, sans-serif" font-size="13.6" fill="#333333"><tspan x="94.12" dy="0.00">Waiting</tspan></text><circle cx="15.60" cy="15.60" r="7.60" fill="#2F3B4D" stroke="#2F3B4D" stroke-width="1" stroke-linejoin="round" stroke-linecap="round"/></svg>