<svg xmlns="http://www.w3.org/2000/svg" width="205.44" height="1342" viewBox="0 0 205.44 1342"><rect width="100%" height="100%" fill="#FFFFFF"/><defs><marker id="arrow-0" viewBox="0 0 10 10" refX="10" refY="5" markerWidth="8" markerHeight="8" orient="auto-start-reverse"><path d="M 0 0 L 10 5 L 0 10 z" fill="#333333"/></marker><marker id="arrow-start-0" viewBox="0 0 10 10" refX="0" refY="5" markerWidth="8" markerHeight="8" orient="auto"><path d="M 10 0 L 0 5 L 10 10 z" fill="#333333"/></marker></defs><path d="M 84.72 45.00 L 84.72 69.32 Q 84.72 69.82 84.72 69.82 L 84.72 69.82 Q 84.72 69.82 84.72 70.32 L 84.72 94.65" fill="none" stroke="#333333" stroke-width="2" marker-end="url(#arrow-0)"   stroke-linecap="round" stroke-linejoin="round" /><path d="M 84.72 257.35 L 84.72 281.50 Q 84.72 282.00 84.72 282.00 L 84.72 282.00 Q 84.72 282.00 84.72 282.50 L 84.72 306.65" fill="none" stroke="#333333" stroke-width="2" marker-end="url(#arrow-0)"   stroke-linecap="round" stroke-linejoin="round" /><rect x="60.72" y="266.00" width="48.00" height="32.00" rx="0" ry="0" fill="#E8E8E8" fill-opacity="0.8" stroke="none"/><text x="84.72" y="286.00" text-anchor="middle" font-family=""trebuchet ms", verdana, arial, sans-serif" font-size="16" fill="#333333"><tspan x="84.72" dy="0.00">step1</tspan></text><path d="M 84.72 363.35 L 84.72 387.50 Q 84.72 388.00 84.72 388.00 L 84.72 388.00 Q 84.72 388.00 84.72 388.50 L 84.72 412.65" fill="none" stroke="#333333" stroke-width="2" marker-end="url(#arrow-0)"   stroke-linecap="round" stroke-linejoin="round" /><rect x="60.72" y="372.00" width="48.00" height="32.00" rx="0" ry="0" fill="#E8E8E8" fill-opacity="0.8" stroke="none"/><text x="84.72" y="392.00" text-anchor="middle" font-family=""trebuchet ms", verdana, arial, sans-serif" font-size="16" fill="#333333"><tspan x="84.72" dy="0.00">step2</tspan></text><path d="M 84.72 469.35 L 84.72 493.50 Q 84.72 494.00 84.72 494.00 L 84.72 494.00 Q 84.72 494.00 84.72 494.50 L 84.72 518.65" fill="none" stroke="#333333" stroke-width="2" marker-end="url(#arrow-0)"   stroke-linecap="round" stroke-linejoin="round" /><rect x="60.72" y="478.00" width="48.00" height="32.00" rx="0" ry="0" fill="#E8E8E8" fill-opacity="0.8" stroke="none"/><text x="84.72" y="498.00" text-anchor="middle" font-family=""trebuchet ms", verdana, arial, sans-serif" font-size="16" fill="#333333"><tspan x="84.72" dy="0.00">step3</tspan></text><path d="M 84.72 575.35 L 84.72 599.50 Q 84.72 600.00 84.72 600.00 L 84.72 600.00 Q 84.72 600.00 84.72 600.50 L 84.72 624.65" fill="none" stroke="#333333" stroke-width="2" marker-end="url(#arrow-0)"   stroke-linecap="round" stroke-linejoin="round" /><rect x="60.72" y="584.00" width="48.00" height="32.00" rx="0" ry="0" fill="#E8E8E8" fill-opacity="0.8" stroke="none"/><text x="84.72" y="604.00" text-anchor="middle" font-family=""trebuchet ms", verdana, arial, sans-serif" font-size="16" fill="#333333"><tspan x="84.72" dy="0.00">step4</tspan></text><path d="M 84.72 681.35 L 84.72 705.50 Q 84.72 706.00 84.72 706.00 L 84.72 706.00 Q 84.72 706.00 84.72 706.50 L 84.72 730.65" fill="none" stroke="#333333" stroke-width="2" marker-end="url(#arrow-0)"   stroke-linecap="round" stroke-linejoin="round" /><rect x="60.72" y="690.00" width="48.00" height="32.00" rx="0" ry="0" fill="#E8E8E8" fill-opacity="0.8" stroke="none"/><text x="84.72" y="710.00" text-anchor="middle" font-family=""trebuchet ms", verdana, arial, sans-serif" font-size="16" fill="#333333"><tspan x="84.72" dy="0.00">step5</tspan></text><path d="M 84.72 787.35 L 84.72 811.50 Q 84.72 812.00 84.72 812.00 L 84.72 812.00 Q 84.72 812.00 84.72 812.50 L 84.72 836.65" fill="none" stroke="#333333" stroke-width="2" marker-end="url(#arrow-0)"   stroke-linecap="round" stroke-linejoin="round" /><rect x="60.72" y="796.00" width="48.00" height="32.00" rx="0" ry="0" fill="#E8E8E8" fill-opacity="0.8" stroke="none"/><text x="84.72" y="816.00" text-anchor="middle" font-family=""trebuchet ms", verdana, arial, sans-serif" font-size="16" fill="#333333"><tspan x="84.72" dy="0.00">step6</tspan></text><path d="M 84.72 893.35 L 84.72 917.50 Q 84.72 918.00 84.72 918.00 L 84.72 918.00 Q 84.72 918.00 84.72 918.50 L 84.72 942.65" fill="none" stroke="#333333" stroke-width="2" marker-end="url(#arrow-0)"   stroke-linecap="round" stroke-linejoin="round" /><rect x="60.72" y="902.00" width="48.00" height="32.00" rx="0" ry="0" fill="#E8E8E8" fill-opacity="0.8" stroke="none"/><text x="84.72" y="922.00" text-anchor="middle" font-family=""trebuchet ms", verdana, arial, sans-serif" font-size="16" fill="#333333"><tspan x="84.72" dy="0.00">step7</tspan></text><path d="M 84.72 999.35 L 84.72 1023.50 Q 84.72 1024.00 84.72 1024.00 L 84.72 1024.00 Q 84.72 1024.00 84.72 1024.50 L 84.72 1048.65" fill="none" stroke="#333333" stroke-width="2" marker-end="url(#arrow-0)"   stroke-linecap="round" stroke-linejoin="round" /><rect x="60.72" y="1008.00" width="48.00" height="32.00" rx="0" ry="0" fill="#E8E8E8" fill-opacity="0.8" stroke="none"/><text x="84.72" y="1028.00" text-anchor="middle" font-family=""trebuchet ms", verdana, arial, sans-serif" font-size="16" fill="#333333"><tspan x="84.72" dy="0.00">step8</tspan></text><path d="M 84.72 1105.35 L 84.72 1129.50 Q 84.72 1130.00 84.72 1130.00 L 84.72 1130.00 Q 84.72 1130.00 84.72 1130.50 L 84.72 1154.65" fill="none" stroke="#333333" stroke-width="2" marker-end="url(#arrow-0)"   stroke-linecap="round" stroke-linejoin="round" /><rect x="60.72" y="1114.00" width="48.00" height="32.00" rx="0" ry="0" fill="#E8E8E8" fill-opacity="0.8" stroke="none"/><text x="84.72" y="1134.00" text-anchor="middle" font-family=""trebuchet ms", verdana, arial, sans-serif" font-size="16" fill="#333333"><tspan x="84.72" dy="0.00">step9</tspan></text><path d="M 84.72 151.35 L 84.72 175.50 Q 84.72 176.00 84.72 176.00 L 84.72 176.00 Q 84.72 176.00 84.72 176.50 L 84.72 200.65" fill="none" stroke="#333333" stroke-width="2" marker-end="url(#arrow-0)"   stroke-linecap="round" stroke-linejoin="round" /><rect x="60.72" y="160.00" width="48.00" height="32.00" rx="0" ry="0" fill="#E8E8E8" fill-opacity="0.8" stroke="none"/><text x="84.72" y="180.00" text-anchor="middle" font-family=""trebuchet ms", verdana, arial, sans-serif" font-size="16" fill="#333333"><tspan x="84.72" dy="0.00">start</tspan></text><path d="M 84.72 1211.35 L 84.72 1235.68 Q 84.72 1236.18 84.72 1236.18 L 84.72 1236.18 Q 84.72 1236.18 84.72 1236.68 L 84.72 1261.00" fill="none" stroke="#333333" stroke-width="2" marker-end="url(#arrow-0)"   stroke-linecap="round" stroke-linejoin="round" /><rect x="35.88" y="94.65" width="97.68" height="56.70" rx="10" ry="10" fill="#ECECFF" stroke="#9370DB" stroke-width="1" stroke-linejoin="round" stroke-linecap="round"/><text x="84.72" y="127.00" text-anchor="middle" font-family=""trebuchet ms", verdana, arial, sans-serif" font-size="16" fill="#333333"><tspan x="84.72" dy="0.00">Idle</tspan></text><rect x="27.96" y="200.65" width="113.52" height="56.70" rx="10" ry="10" fill="#ECECFF" stroke="#9370DB" stroke-width="1" stroke-linejoin="round" stroke-linecap="round"/><text x="84.72" y="233.00" text-anchor="middle" font-family=""trebuchet ms", verdana, arial, sans-serif" font-size="16" fill="#333333"><tspan x="84.72" dy="0.00">State1</tspan></text><rect x="24.00" y="1154.65" width="121.44" height="56.70" rx="10" ry="10" fill="#ECECFF" stroke="#9370DB" stroke-width="1" stroke-linejoin="round" stroke-linecap="round"/><text x="84.72" y="1187.00" text-anchor="middle" font-family=""trebuchet ms", verdana, arial, sans-serif" font-size="16" fill="#333333"><tspan x="84.72" dy="0.00">State10</tspan></text><rect x="27.96" y="306.65" width="113.52" height="56.70" rx="10" ry="10" fill="#ECECFF" stroke="#9370DB" stroke-width="1" stroke-linejoin="round" stroke-linecap="round"/><text x="84.72" y="339.00" text-anchor="middle" font-family=""trebuchet ms", verdana, arial, sans-serif" font-size="16" fill="#333333"><tspan x="84.72" dy="0.00">State2</tspan></text><rect x="27.96" y="412.65" width="113.52" height="56.70" rx="10" ry="10" fill="#ECECFF" stroke="#9370DB" stroke-width="1" stroke-linejoin="round" stroke-linecap="round"/><text x="84.72" y="445.00" text-anchor="middle" font-family=""trebuchet ms", verdana, arial, sans-serif" font-size="16" fill="#333333"><tspan x="84.72" dy="0.00">State3</tspan></text><rect x="27.96" y="518.65" width="113.52" height="56.70" rx="10" ry="10" fill="#ECECFF" stroke="#9370DB" stroke-width="1" stroke-linejoin="round" stroke-linecap="round"/><text x="84.72" y="551.00" text-anchor="middle" font-family=""trebuchet ms", verdana, arial, sans-serif" font-size="16" fill="#333333"><tspan x="84.72" dy="0.00">State4</tspan></text><rect x="27.96" y="624.65" width="113.52" height="56.70" rx="10" ry="10" fill="#ECECFF" stroke="#9370DB" stroke-width="1" stroke-linejoin="round" stroke-linecap="round"/><text x="84.72" y="657.00" text-anchor="middle" font-family=""trebuchet ms", verdana, arial, sans-serif" font-size="16" fill="#333333"><tspan x="84.72" dy="0.00">State5</tspan></text><rect x="27.96" y="730.65" width="113.52" height="56.70" rx="10" ry="10" fill="#ECECFF" stroke="#9370DB" stroke-width="1" stroke-linejoin="round" stroke-linecap="round"/><text x="84.72" y="763.00" text-anchor="middle" font-family=""trebuchet ms", verdana, arial, sans-serif" font-size="16" fill="#333333"><tspan x="84.72" dy="0.00">State6</tspan></text><rect x="27.96" y="836.65" width="113.52" height="56.70" rx="10" ry="10" fill="#ECECFF" stroke="#9370DB" stroke-width="1" stroke-linejoin="round" stroke-linecap="round"/><text x="84.72" y="869.00" text-anchor="middle" font-family=""trebuchet ms", verdana, arial, sans-serif" font-size="16" fill="#333333"><tspan x="84.72" dy="0.00">State7</tspan></text><rect x="27.96" y="942.65" width="113.52" height="56.70" rx="10" ry="10" fill="#ECECFF" stroke="#9370DB" stroke-width="1" stroke-linejoin="round" stroke-linecap="round"/><text x="84.72" y="975.00" text-anchor="middle" font-family=""trebuchet ms", verdana, arial, sans-serif" font-size="16" fill="#333333"><tspan x="84.72" dy="0.00">State8</tspan></text><rect x="27.96" y="1048.65" width="113.52" height="56.70" rx="10" ry="10" fill="#ECECFF" stroke="#9370DB" stroke-width="1" stroke-linejoin="round" stroke-linecap="round"/><text x="84.72" y="1081.00" text-anchor="middle" font-family=""trebuchet ms", verdana, arial, sans-serif" font-size="16" fill="#333333"><tspan x="84.72" dy="0.00">State9</tspan></text><circle cx="84.72" cy="1271.50" r="10.50" fill="#9370DB" stroke="#9370DB" stroke-width="1" stroke-linejoin="round" stroke-linecap="round"/><circle cx="84.72" cy="1271.50" r="6.50" fill="#FFFFFF" stroke="#FFFFFF" stroke-width="1.2" stroke-linejoin="round" stroke-linecap="round"/><circle cx="84.72" cy="34.50" r="10.50" fill="#333333" stroke="#333333" stroke-width="1" stroke-linejoin="round" stroke-linecap="round"/></svg>