<svg xmlns="http://www.w3.org/2000/svg" width="190.18906" height="216.63998" viewBox="0 0 190.18906 216.63998"><rect x="0" y="0" width="190.18906" height="216.63998" fill="#FFFFFF"/><defs><marker id="arrow-0" viewBox="0 0 10 10" refX="5" refY="5" markerUnits="userSpaceOnUse" markerWidth="8" markerHeight="8" orient="auto"><path d="M 0 0 L 10 5 L 0 10 z" fill="#333333" stroke="#333333" stroke-width="1" stroke-dasharray="1,0"/></marker><marker id="arrow-start-0" viewBox="0 0 10 10" refX="4.5" refY="5" markerUnits="userSpaceOnUse" markerWidth="8" markerHeight="8" orient="auto"><path d="M 0 5 L 10 10 L 10 0 z" fill="#333333" stroke="#333333" stroke-width="1" stroke-dasharray="1,0"/></marker><marker id="arrow-state-0" viewBox="0 0 20 14" refX="19" refY="7" markerUnits="userSpaceOnUse" markerWidth="20" markerHeight="14" orient="auto"><path d="M 19 7 L 9 13 L 14 7 L 9 1 Z" fill="#333333" stroke="#333333" stroke-width="1" stroke-dasharray="1,0"/></marker></defs><path d="M 104.60 123.84 L 170.19 123.84 L 182.19 135.84 L 182.19 163.84 L 104.60 163.84 Z" fill="#FFF5AD" stroke="#AAAA33" stroke-width="1.1"/><polyline points="170.19,123.84 170.19,135.84 182.19,135.84" fill="none" stroke="#AAAA33" stroke-width="1.0"/><text x="143.40" y="147.24" text-anchor="middle" font-family="'trebuchet ms', verdana, arial, sans-serif" font-size="13.6" fill="#333333"><tspan x="143.40" dy="0.00">Running</tspan></text><path d="M 47.640,25.280L 47.640,25.784C47.640,26.288,47.640,27.296,47.640,28.304C47.640,29.312,47.640,30.320,47.681,31.326C47.722,32.333,47.803,33.337,47.923,34.819C48.043,36.301,48.202,38.259,48.322,39.741C48.442,41.223,48.523,42.227,48.564,43.234C48.604,44.240,48.604,45.248,48.604,46.256C48.604,47.264,48.604,48.272,48.604,48.776L 48.604,49.280" fill="none" stroke="#333333" stroke-width="1" marker-end="url(#arrow-state-0)"   stroke-linecap="round" stroke-linejoin="round" /><path d="M 48.604,96.320L 48.604,97.119C48.604,97.917,48.604,99.514,48.604,100.914C48.604,102.314,48.604,103.517,48.646,104.719C48.687,105.920,48.770,107.120,48.812,107.720C48.853,108.320,48.853,108.320,48.894,108.920C48.936,109.520,49.019,110.720,49.060,111.921C49.102,113.123,49.102,114.326,49.102,115.726C49.102,117.126,49.102,118.723,49.102,119.521L 49.102,120.320" fill="none" stroke="#333333" stroke-width="1" marker-end="url(#arrow-state-0)"   stroke-linecap="round" stroke-linejoin="round" /><path d="M 49.102,167.360L 49.102,167.864C49.102,168.368,49.102,169.376,49.102,170.384C49.102,171.392,49.102,172.400,49.094,173.408C49.087,174.416,49.072,175.424,49.049,176.904C49.027,178.384,48.998,180.336,48.976,181.816C48.953,183.296,48.938,184.304,48.931,185.312C48.923,186.320,48.923,187.328,48.923,188.336C48.923,189.344,48.923,190.352,48.923,190.856L 48.923,191.360" fill="none" stroke="#333333" stroke-width="1" marker-end="url(#arrow-state-0)"   stroke-linecap="round" stroke-linejoin="round" /><rect x="8.00" y="120.32" width="82.20" height="47.04" rx="10" ry="10" fill="#ECECFF" stroke="#9370DB" stroke-width="1" stroke-linejoin="round" stroke-linecap="round"/><text x="49.10" y="147.24" text-anchor="middle" font-family="'trebuchet ms', verdana, arial, sans-serif" font-size="13.6" fill="#333333"><tspan x="49.10" dy="0.00">Active</tspan></text><rect x="15.92" y="49.28" width="65.36" height="47.04" rx="10" ry="10" fill="#ECECFF" stroke="#9370DB" stroke-width="1" stroke-linejoin="round" stroke-linecap="round"/><text x="48.60" y="76.20" text-anchor="middle" font-family="'trebuchet ms', verdana, arial, sans-serif" font-size="13.6" fill="#333333"><tspan x="48.60" dy="0.00">Idle</tspan></text><circle cx="48.92" cy="200.00" r="8.64" fill="#9370DB" stroke="#9370DB" stroke-width="1" stroke-linejoin="round" stroke-linecap="round"/><circle cx="48.92" cy="200.00" r="4.64" fill="#FFFFFF" stroke="#FFFFFF" stroke-width="1.2" stroke-linejoin="round" stroke-linecap="round"/><circle cx="47.64" cy="16.64" r="8.64" fill="#333333" stroke="#333333" stroke-width="1" stroke-linejoin="round" stroke-linecap="round"/></svg>