<svg xmlns="http://www.w3.org/2000/svg" width="137.68506" height="406.71997" viewBox="0 0 137.68506 406.71997"><rect x="0" y="0" width="137.68506" height="406.71997" fill="#FFFFFF"/><defs><marker id="arrow-0" viewBox="0 0 10 10" refX="5" refY="5" markerUnits="userSpaceOnUse" markerWidth="8" markerHeight="8" orient="auto"><path d="M 0 0 L 10 5 L 0 10 z" fill="#2F3B4D" stroke="#2F3B4D" stroke-width="1" stroke-dasharray="1,0"/></marker><marker id="arrow-start-0" viewBox="0 0 10 10" refX="4.5" refY="5" markerUnits="userSpaceOnUse" markerWidth="8" markerHeight="8" orient="auto"><path d="M 0 5 L 10 10 L 10 0 z" fill="#2F3B4D" stroke="#2F3B4D" stroke-width="1" stroke-dasharray="1,0"/></marker><marker id="arrow-state-0" viewBox="0 0 20 14" refX="19" refY="7" markerUnits="userSpaceOnUse" markerWidth="20" markerHeight="14" orient="auto"><path d="M 19 7 L 9 13 L 14 7 L 9 1 Z" fill="#2F3B4D" stroke="#2F3B4D" stroke-width="1" stroke-dasharray="1,0"/></marker></defs><rect x="23.90" y="150.24" width="105.78" height="36.00" rx="6" ry="6" fill="hsl(240.0000000000, 99.9999237061%, 92.2745056152%)" stroke="none"/><rect x="23.90" y="186.24" width="105.78" height="173.28" fill="hsl(240.0000000000, 87.9999237061%, 100.0000000000%)" stroke="none"/><line x1="23.90" y1="186.24" x2="129.69" y2="186.24" stroke="#7B88A8" stroke-width="1"/><rect x="23.90" y="150.24" width="105.78" height="209.28" rx="6" ry="6" fill="none" stroke="#7B88A8" stroke-width="1"/><text x="33.50" y="171.64" text-anchor="start" font-family="'trebuchet ms', verdana, arial, sans-serif" font-size="13.6" fill="#333333" font-weight="600"><tspan x="33.50" dy="0.00">Working</tspan></text><path d="M 40.681,23.200 L 40.681,47.200" fill="none" stroke="#2F3B4D" stroke-width="1" marker-end="url(#arrow-state-0)"   stroke-linecap="round" stroke-linejoin="round" /><path d="M 40.681,94.240L 40.681,94.740C40.681,95.240,40.681,96.240,40.681,97.240C40.681,98.240,40.681,99.240,40.814,100.222C40.947,101.204,41.212,102.168,42.059,105.240C42.905,108.312,44.333,113.491,45.577,118.009C46.822,122.527,47.885,126.384,50.203,129.210C52.521,132.037,56.095,133.833,60.289,135.942C64.484,138.051,69.298,140.472,72.153,141.907C75.007,143.342,75.900,143.791,76.347,144.515C76.794,145.240,76.794,146.240,76.794,147.240C76.794,148.240,76.794,149.240,76.794,149.740L 76.794,150.240" fill="none" stroke="#2F3B4D" stroke-width="1" marker-end="url(#arrow-state-0)"   stroke-linecap="round" stroke-linejoin="round" /><rect x="29.68" y="118.44" width="38.53" height="23.60" rx="2" ry="2" fill="rgba(248,250,252, 0.92)" fill-opacity="0.70" stroke="#7B88A8" stroke-opacity="0.25" stroke-width="0.8"/><text x="48.95" y="133.64" text-anchor="middle" font-family="'trebuchet ms', verdana, arial, sans-serif" font-size="13.6" fill="#333333"><tspan x="48.95" dy="0.00">start</tspan></text><path d="M 47.502,201.440L 47.502,201.940C47.502,202.440,47.502,203.440,47.502,204.440C47.502,205.440,47.502,206.440,47.965,207.130C48.427,207.819,49.353,208.198,53.772,210.009C58.191,211.819,66.104,215.061,70.524,216.871C74.943,218.682,75.868,219.061,76.331,219.750C76.794,220.440,76.794,221.440,76.794,222.440C76.794,223.440,76.794,224.440,76.794,224.940L 76.794,225.440" fill="none" stroke="#2F3B4D" stroke-width="1" marker-end="url(#arrow-state-0)"   stroke-linecap="round" stroke-linejoin="round" /><path d="M 76.794,272.480 L 76.794,296.480" fill="none" stroke="#2F3B4D" stroke-width="1" marker-end="url(#arrow-state-0)"   stroke-linecap="round" stroke-linejoin="round" /><path d="M 76.794,359.520 L 76.794,383.520" fill="none" stroke="#2F3B4D" stroke-width="1" marker-end="url(#arrow-state-0)"   stroke-linecap="round" stroke-linejoin="round" /><rect x="8.00" y="47.20" width="65.36" height="47.04" rx="10" ry="10" fill="#ECECFF" stroke="#7B88A8" stroke-width="1" stroke-linejoin="round" stroke-linecap="round"/><text x="40.68" y="74.12" text-anchor="middle" font-family="'trebuchet ms', verdana, arial, sans-serif" font-size="13.6" fill="#333333"><tspan x="40.68" dy="0.00">Idle</tspan></text><rect x="39.90" y="225.44" width="73.78" height="47.04" rx="10" ry="10" fill="#ECECFF" stroke="#7B88A8" stroke-width="1" stroke-linejoin="round" stroke-linecap="round"/><text x="76.79" y="252.36" text-anchor="middle" font-family="'trebuchet ms', verdana, arial, sans-serif" font-size="13.6" fill="#333333"><tspan x="76.79" dy="0.00">TaskA</tspan></text><rect x="39.90" y="296.48" width="73.78" height="47.04" rx="10" ry="10" fill="#ECECFF" stroke="#7B88A8" stroke-width="1" stroke-linejoin="round" stroke-linecap="round"/><text x="76.79" y="323.40" text-anchor="middle" font-family="'trebuchet ms', verdana, arial, sans-serif" font-size="13.6" fill="#333333"><tspan x="76.79" dy="0.00">TaskB</tspan></text><circle cx="76.79" cy="391.12" r="7.60" fill="#7B88A8" stroke="#7B88A8" stroke-width="1" stroke-linejoin="round" stroke-linecap="round"/><circle cx="76.79" cy="391.12" r="3.60" fill="#FFFFFF" stroke="#FFFFFF" stroke-width="1.2" stroke-linejoin="round" stroke-linecap="round"/><circle cx="40.68" cy="15.60" r="7.60" fill="#2F3B4D" stroke="#2F3B4D" stroke-width="1" stroke-linejoin="round" stroke-linecap="round"/><circle cx="47.50" cy="193.84" r="7.60" fill="#2F3B4D" stroke="#2F3B4D" stroke-width="1" stroke-linejoin="round" stroke-linecap="round"/></svg>