<svg id="my-svg" width="100%" xmlns="http://www.w3.org/2000/svg" xmlns:xlink="http://www.w3.org/1999/xlink" style="max-width: 700px; background-color: white;" viewBox="0 0 700 500" role="graphics-document document" aria-roledescription="xychart"><style>#my-svg{font-family:"trebuchet ms",verdana,arial,sans-serif;font-size:16px;fill:#333;}@keyframes edge-animation-frame{from{stroke-dashoffset:0;}}@keyframes dash{to{stroke-dashoffset:0;}}#my-svg .edge-animation-slow{stroke-dasharray:9,5!important;stroke-dashoffset:900;animation:dash 50s linear infinite;stroke-linecap:round;}#my-svg .edge-animation-fast{stroke-dasharray:9,5!important;stroke-dashoffset:900;animation:dash 20s linear infinite;stroke-linecap:round;}#my-svg .error-icon{fill:#552222;}#my-svg .error-text{fill:#552222;stroke:#552222;}#my-svg .edge-thickness-normal{stroke-width:1px;}#my-svg .edge-thickness-thick{stroke-width:3.5px;}#my-svg .edge-pattern-solid{stroke-dasharray:0;}#my-svg .edge-thickness-invisible{stroke-width:0;fill:none;}#my-svg .edge-pattern-dashed{stroke-dasharray:3;}#my-svg .edge-pattern-dotted{stroke-dasharray:2;}#my-svg .marker{fill:#333333;stroke:#333333;}#my-svg .marker.cross{stroke:#333333;}#my-svg svg{font-family:"trebuchet ms",verdana,arial,sans-serif;font-size:16px;}#my-svg p{margin:0;}#my-svg :root{--mermaid-font-family:"trebuchet ms",verdana,arial,sans-serif;}</style><g/><g class="main"><rect width="700" height="500" class="background" fill="white"/><g class="chart-title"><text x="0" y="0" fill="#131300" font-size="20" dominant-baseline="middle" text-anchor="middle" transform="translate(350, 21) rotate(0)">Monthly Revenue (2024)</text></g><g class="plot"><g class="line-plot-0"><path d="M80.799,360.84L135.887,340.39L190.976,328.12L246.065,303.58L301.153,279.04L356.242,254.5L411.33,229.96L466.419,205.42L521.508,221.78L576.596,189.06L631.685,156.34L686.773,115.44" fill="none" stroke="#ECECFF" stroke-width="2"/></g></g><g class="bottom-axis"><g class="axis-line"><path d="M 67.57226753234863,468 L 700,468" fill="none" stroke="#131300" stroke-width="2"/></g><g class="label"><text x="0" y="0" fill="#131300" font-size="14" dominant-baseline="text-before-edge" text-anchor="middle" transform="translate(80.79883003234863, 479) rotate(0)">Jan</text><text x="0" y="0" fill="#131300" font-size="14" dominant-baseline="text-before-edge" text-anchor="middle" transform="translate(135.88743071122605, 479) rotate(0)">Feb</text><text x="0" y="0" fill="#131300" font-size="14" dominant-baseline="text-before-edge" text-anchor="middle" transform="translate(190.97603139010343, 479) rotate(0)">Mar</text><text x="0" y="0" fill="#131300" font-size="14" dominant-baseline="text-before-edge" text-anchor="middle" transform="translate(246.0646320689808, 479) rotate(0)">Apr</text><text x="0" y="0" fill="#131300" font-size="14" dominant-baseline="text-before-edge" text-anchor="middle" transform="translate(301.1532327478582, 479) rotate(0)">May</text><text x="0" y="0" fill="#131300" font-size="14" dominant-baseline="text-before-edge" text-anchor="middle" transform="translate(356.24183342673564, 479) rotate(0)">Jun</text><text x="0" y="0" fill="#131300" font-size="14" dominant-baseline="text-before-edge" text-anchor="middle" transform="translate(411.330434105613, 479) rotate(0)">Jul</text><text x="0" y="0" fill="#131300" font-size="14" dominant-baseline="text-before-edge" text-anchor="middle" transform="translate(466.4190347844904, 479) rotate(0)">Aug</text><text x="0" y="0" fill="#131300" font-size="14" dominant-baseline="text-before-edge" text-anchor="middle" transform="translate(521.5076354633678, 479) rotate(0)">Sep</text><text x="0" y="0" fill="#131300" font-size="14" dominant-baseline="text-before-edge" text-anchor="middle" transform="translate(576.5962361422453, 479) rotate(0)">Oct</text><text x="0" y="0" fill="#131300" font-size="14" dominant-baseline="text-before-edge" text-anchor="middle" transform="translate(631.6848368211226, 479) rotate(0)">Nov</text><text x="0" y="0" fill="#131300" font-size="14" dominant-baseline="text-before-edge" text-anchor="middle" transform="translate(686.7734375, 479) rotate(0)">Dec</text></g><g class="ticks"><path d="M 80.79883003234863,469 L 80.79883003234863,474" fill="none" stroke="#131300" stroke-width="2"/><path d="M 135.88743071122605,469 L 135.88743071122605,474" fill="none" stroke="#131300" stroke-width="2"/><path d="M 190.97603139010343,469 L 190.97603139010343,474" fill="none" stroke="#131300" stroke-width="2"/><path d="M 246.0646320689808,469 L 246.0646320689808,474" fill="none" stroke="#131300" stroke-width="2"/><path d="M 301.1532327478582,469 L 301.1532327478582,474" fill="none" stroke="#131300" stroke-width="2"/><path d="M 356.24183342673564,469 L 356.24183342673564,474" fill="none" stroke="#131300" stroke-width="2"/><path d="M 411.330434105613,469 L 411.330434105613,474" fill="none" stroke="#131300" stroke-width="2"/><path d="M 466.4190347844904,469 L 466.4190347844904,474" fill="none" stroke="#131300" stroke-width="2"/><path d="M 521.5076354633678,469 L 521.5076354633678,474" fill="none" stroke="#131300" stroke-width="2"/><path d="M 576.5962361422453,469 L 576.5962361422453,474" fill="none" stroke="#131300" stroke-width="2"/><path d="M 631.6848368211226,469 L 631.6848368211226,474" fill="none" stroke="#131300" stroke-width="2"/><path d="M 686.7734375,469 L 686.7734375,474" fill="none" stroke="#131300" stroke-width="2"/></g></g><g class="left-axis"><g class="axisl-line"><path d="M 66.57226753234863,42 L 66.57226753234863,467" fill="none" stroke="#131300" stroke-width="2"/></g><g class="label"><text x="0" y="0" fill="#131300" font-size="14" dominant-baseline="middle" text-anchor="end" transform="translate(55.57226753234863, 50) rotate(0)">500</text><text x="0" y="0" fill="#131300" font-size="14" dominant-baseline="middle" text-anchor="end" transform="translate(55.57226753234863, 90.89999999999999) rotate(0)">450</text><text x="0" y="0" fill="#131300" font-size="14" dominant-baseline="middle" text-anchor="end" transform="translate(55.57226753234863, 131.79999999999998) rotate(0)">400</text><text x="0" y="0" fill="#131300" font-size="14" dominant-baseline="middle" text-anchor="end" transform="translate(55.57226753234863, 172.70000000000002) rotate(0)">350</text><text x="0" y="0" fill="#131300" font-size="14" dominant-baseline="middle" text-anchor="end" transform="translate(55.57226753234863, 213.60000000000002) rotate(0)">300</text><text x="0" y="0" fill="#131300" font-size="14" dominant-baseline="middle" text-anchor="end" transform="translate(55.57226753234863, 254.5) rotate(0)">250</text><text x="0" y="0" fill="#131300" font-size="14" dominant-baseline="middle" text-anchor="end" transform="translate(55.57226753234863, 295.4) rotate(0)">200</text><text x="0" y="0" fill="#131300" font-size="14" dominant-baseline="middle" text-anchor="end" transform="translate(55.57226753234863, 336.29999999999995) rotate(0)">150</text><text x="0" y="0" fill="#131300" font-size="14" dominant-baseline="middle" text-anchor="end" transform="translate(55.57226753234863, 377.20000000000005) rotate(0)">100</text><text x="0" y="0" fill="#131300" font-size="14" dominant-baseline="middle" text-anchor="end" transform="translate(55.57226753234863, 418.1) rotate(0)">50</text><text x="0" y="0" fill="#131300" font-size="14" dominant-baseline="middle" text-anchor="end" transform="translate(55.57226753234863, 459) rotate(0)">0</text></g><g class="ticks"><path d="M 65.57226753234863,50 L 60.57226753234863,50" fill="none" stroke="#131300" stroke-width="2"/><path d="M 65.57226753234863,90.89999999999999 L 60.57226753234863,90.89999999999999" fill="none" stroke="#131300" stroke-width="2"/><path d="M 65.57226753234863,131.79999999999998 L 60.57226753234863,131.79999999999998" fill="none" stroke="#131300" stroke-width="2"/><path d="M 65.57226753234863,172.70000000000002 L 60.57226753234863,172.70000000000002" fill="none" stroke="#131300" stroke-width="2"/><path d="M 65.57226753234863,213.60000000000002 L 60.57226753234863,213.60000000000002" fill="none" stroke="#131300" stroke-width="2"/><path d="M 65.57226753234863,254.5 L 60.57226753234863,254.5" fill="none" stroke="#131300" stroke-width="2"/><path d="M 65.57226753234863,295.4 L 60.57226753234863,295.4" fill="none" stroke="#131300" stroke-width="2"/><path d="M 65.57226753234863,336.29999999999995 L 60.57226753234863,336.29999999999995" fill="none" stroke="#131300" stroke-width="2"/><path d="M 65.57226753234863,377.20000000000005 L 60.57226753234863,377.20000000000005" fill="none" stroke="#131300" stroke-width="2"/><path d="M 65.57226753234863,418.1 L 60.57226753234863,418.1" fill="none" stroke="#131300" stroke-width="2"/><path d="M 65.57226753234863,459 L 60.57226753234863,459" fill="none" stroke="#131300" stroke-width="2"/></g><g class="title"><text x="0" y="0" fill="#131300" font-size="16" dominant-baseline="text-before-edge" text-anchor="middle" transform="translate(5, 254.5) rotate(270)">Revenue ($K)</text></g></g></g><g class="mermaid-tmp-group"/></svg>