<svg xmlns="http://www.w3.org/2000/svg" width="1454.3999" height="210.70001" viewBox="0 0 1454.3999 210.70001"><rect width="100%" height="100%" fill="#FFFFFF"/><defs><marker id="arrow-0" viewBox="0 0 10 10" refX="10" refY="5" markerWidth="8" markerHeight="8" orient="auto-start-reverse"><path d="M 0 0 L 10 5 L 0 10 z" fill="#7A8AA6"/></marker><marker id="arrow-start-0" viewBox="0 0 10 10" refX="0" refY="5" markerWidth="8" markerHeight="8" orient="auto"><path d="M 10 0 L 0 5 L 10 10 z" fill="#7A8AA6"/></marker></defs><rect x="24.00" y="24.00" width="1249.20" height="126.70" rx="10" ry="10" fill="#e7f3e7" stroke="#2e7d32" stroke-width="1.2" /><text x="648.60" y="49.00" text-anchor="middle" font-family="Inter, Segoe UI, system-ui, -apple-system, sans-serif" font-size="13" fill="#1C2430"><tspan x="648.60" dy="0.00">mmdr (Rust - Native)</tspan></text><rect x="180.10" y="24.00" width="1214.30" height="126.70" rx="10" ry="10" fill="#fff8e7" stroke="#f57c00" stroke-width="1.2" /><text x="787.25" y="49.00" text-anchor="middle" font-family="Inter, Segoe UI, system-ui, -apple-system, sans-serif" font-size="13" fill="#1C2430"><tspan x="787.25" dy="0.00">mermaid-cli (Node.js)</tspan></text><path d="M 103.00 118.25 L 103.00 109.03 Q 103.00 99.80 112.22 99.80 L 249.77 99.80 Q 259.00 99.80 259.00 90.57 L 259.00 81.35" fill="none" stroke="#7A8AA6" stroke-width="1.4" marker-end="url(#arrow-0)"   stroke-linecap="round" stroke-linejoin="round" /><path d="M 259.00 118.25 L 259.00 106.91 Q 259.00 95.57 270.34 95.57 L 395.66 95.57 Q 407.00 95.57 407.00 84.24 L 407.00 72.90" fill="none" stroke="#7A8AA6" stroke-width="1.4" marker-end="url(#arrow-0)"   stroke-linecap="round" stroke-linejoin="round" /><path d="M 407.00 126.70 L 407.00 115.36 Q 407.00 104.03 418.34 104.03 L 543.66 104.03 Q 555.00 104.03 555.00 92.69 L 555.00 81.35" fill="none" stroke="#7A8AA6" stroke-width="1.4" marker-end="url(#arrow-0)"   stroke-linecap="round" stroke-linejoin="round" /><path d="M 555.00 118.25 L 555.00 106.91 Q 555.00 95.57 566.34 95.57 L 699.66 95.57 Q 711.00 95.57 711.00 84.24 L 711.00 72.90" fill="none" stroke="#7A8AA6" stroke-width="1.4" marker-end="url(#arrow-0)"   stroke-linecap="round" stroke-linejoin="round" /><path d="M 711.00 126.70 L 711.00 115.36 Q 711.00 104.03 722.34 104.03 L 855.66 104.03 Q 867.00 104.03 867.00 92.69 L 867.00 81.35" fill="none" stroke="#7A8AA6" stroke-width="1.4" marker-end="url(#arrow-0)"   stroke-linecap="round" stroke-linejoin="round" /><path d="M 867.00 118.25 L 867.00 109.03 Q 867.00 99.80 876.22 99.80 L 986.28 99.80 Q 995.50 99.80 995.50 90.57 L 995.50 81.35" fill="none" stroke="#7A8AA6" stroke-width="1.4" marker-end="url(#arrow-0)"   stroke-linecap="round" stroke-linejoin="round" /><path d="M 995.50 118.25 L 995.50 109.03 Q 995.50 99.80 1004.72 99.80 L 1099.28 99.80 Q 1108.50 99.80 1108.50 90.57 L 1108.50 81.35" fill="none" stroke="#7A8AA6" stroke-width="1.2" marker-end="url(#arrow-0)"  stroke-dasharray="3 5" stroke-linecap="round" stroke-linejoin="round" /><path d="M 1108.50 118.25 L 1108.50 109.03 Q 1108.50 99.80 1117.72 99.80 L 1212.28 99.80 Q 1221.50 99.80 1221.50 90.57 L 1221.50 81.35" fill="none" stroke="#7A8AA6" stroke-width="1.2" marker-end="url(#arrow-0)"  stroke-dasharray="3 5" stroke-linecap="round" stroke-linejoin="round" /><path d="M 259.10 118.25 L 259.10 109.03 Q 259.10 99.80 268.33 99.80 L 409.88 99.80 Q 419.10 99.80 419.10 90.57 L 419.10 81.35" fill="none" stroke="#7A8AA6" stroke-width="1.4" marker-end="url(#arrow-0)"   stroke-linecap="round" stroke-linejoin="round" /><path d="M 419.10 118.25 L 419.10 109.03 Q 419.10 99.80 428.33 99.80 L 550.38 99.80 Q 559.60 99.80 559.60 90.57 L 559.60 81.35" fill="none" stroke="#7A8AA6" stroke-width="1.4" marker-end="url(#arrow-0)"   stroke-linecap="round" stroke-linejoin="round" /><path d="M 559.60 118.25 L 559.60 109.03 Q 559.60 99.80 568.82 99.80 L 694.38 99.80 Q 703.60 99.80 703.60 90.57 L 703.60 81.35" fill="none" stroke="#7A8AA6" stroke-width="1.4" marker-end="url(#arrow-0)"   stroke-linecap="round" stroke-linejoin="round" /><path d="M 703.60 118.25 L 703.60 109.03 Q 703.60 99.80 712.83 99.80 L 853.88 99.80 Q 863.10 99.80 863.10 90.57 L 863.10 81.35" fill="none" stroke="#7A8AA6" stroke-width="1.4" marker-end="url(#arrow-0)"   stroke-linecap="round" stroke-linejoin="round" /><path d="M 863.10 118.25 L 863.10 106.91 Q 863.10 95.57 874.44 95.57 L 1007.76 95.57 Q 1019.10 95.57 1019.10 84.24 L 1019.10 72.90" fill="none" stroke="#7A8AA6" stroke-width="1.4" marker-end="url(#arrow-0)"   stroke-linecap="round" stroke-linejoin="round" /><path d="M 1019.10 126.70 L 1019.10 115.36 Q 1019.10 104.03 1030.44 104.03 L 1167.76 104.03 Q 1179.10 104.03 1179.10 92.69 L 1179.10 81.35" fill="none" stroke="#7A8AA6" stroke-width="1.4" marker-end="url(#arrow-0)"   stroke-linecap="round" stroke-linejoin="round" /><path d="M 1179.10 118.25 L 1179.10 109.03 Q 1179.10 99.80 1188.32 99.80 L 1317.88 99.80 Q 1327.10 99.80 1327.10 90.57 L 1327.10 81.35" fill="none" stroke="#7A8AA6" stroke-width="1.4" marker-end="url(#arrow-0)"   stroke-linecap="round" stroke-linejoin="round" /><rect x="48.00" y="81.35" width="110.00" height="36.90" rx="6" ry="6" fill="#F8FAFF" stroke="#C7D2E5" stroke-width="1.4" stroke-linejoin="round" stroke-linecap="round"/><text x="103.00" y="104.35" text-anchor="middle" font-family="Inter, Segoe UI, system-ui, -apple-system, sans-serif" font-size="13" fill="#1C2430"><tspan x="103.00" dy="0.00">.mmd input</tspan></text><rect x="204.10" y="81.35" width="110.00" height="36.90" rx="6" ry="6" fill="#F8FAFF" stroke="#C7D2E5" stroke-width="1.4" stroke-linejoin="round" stroke-linecap="round"/><text x="259.10" y="104.35" text-anchor="middle" font-family="Inter, Segoe UI, system-ui, -apple-system, sans-serif" font-size="13" fill="#1C2430"><tspan x="259.10" dy="0.00">.mmd input</tspan></text><rect x="207.90" y="81.35" width="102.20" height="36.90" rx="6" ry="6" fill="#F8FAFF" stroke="#C7D2E5" stroke-width="1.4" stroke-linejoin="round" stroke-linecap="round"/><text x="259.00" y="104.35" text-anchor="middle" font-family="Inter, Segoe UI, system-ui, -apple-system, sans-serif" font-size="13" fill="#1C2430"><tspan x="259.00" dy="0.00">parser.rs</tspan></text><rect x="364.10" y="81.35" width="110.00" height="36.90" rx="6" ry="6" fill="#F8FAFF" stroke="#C7D2E5" stroke-width="1.4" stroke-linejoin="round" stroke-linecap="round"/><text x="419.10" y="104.35" text-anchor="middle" font-family="Inter, Segoe UI, system-ui, -apple-system, sans-serif" font-size="13" fill="#1C2430"><tspan x="419.10" dy="0.00">mermaid-js</tspan></text><rect x="359.80" y="72.90" width="94.40" height="53.80" rx="6" ry="6" fill="#F8FAFF" stroke="#C7D2E5" stroke-width="1.4" stroke-linejoin="round" stroke-linecap="round"/><text x="407.00" y="95.90" text-anchor="middle" font-family="Inter, Segoe UI, system-ui, -apple-system, sans-serif" font-size="13" fill="#1C2430"><tspan x="407.00" dy="0.00">ir.rs</tspan><tspan x="407.00" dy="16.90">Graph IR</tspan></text><rect x="524.10" y="81.35" width="71.00" height="36.90" rx="6" ry="6" fill="#F8FAFF" stroke="#C7D2E5" stroke-width="1.4" stroke-linejoin="round" stroke-linecap="round"/><text x="559.60" y="104.35" text-anchor="middle" font-family="Inter, Segoe UI, system-ui, -apple-system, sans-serif" font-size="13" fill="#1C2430"><tspan x="559.60" dy="0.00">dagre</tspan></text><rect x="503.90" y="81.35" width="102.20" height="36.90" rx="6" ry="6" fill="#F8FAFF" stroke="#C7D2E5" stroke-width="1.4" stroke-linejoin="round" stroke-linecap="round"/><text x="555.00" y="104.35" text-anchor="middle" font-family="Inter, Segoe UI, system-ui, -apple-system, sans-serif" font-size="13" fill="#1C2430"><tspan x="555.00" dy="0.00">layout.rs</tspan></text><rect x="656.00" y="72.90" width="110.00" height="53.80" rx="6" ry="6" fill="#F8FAFF" stroke="#C7D2E5" stroke-width="1.4" stroke-linejoin="round" stroke-linecap="round"/><text x="711.00" y="95.90" text-anchor="middle" font-family="Inter, Segoe UI, system-ui, -apple-system, sans-serif" font-size="13" fill="#1C2430"><tspan x="711.00" dy="0.00">dagre_rust</tspan><tspan x="711.00" dy="16.90">(vendored)</tspan></text><rect x="644.70" y="81.35" width="117.80" height="36.90" rx="6" ry="6" fill="#F8FAFF" stroke="#C7D2E5" stroke-width="1.4" stroke-linejoin="round" stroke-linecap="round"/><text x="703.60" y="104.35" text-anchor="middle" font-family="Inter, Segoe UI, system-ui, -apple-system, sans-serif" font-size="13" fill="#1C2430"><tspan x="703.60" dy="0.00">Browser DOM</tspan></text><rect x="815.90" y="81.35" width="102.20" height="36.90" rx="6" ry="6" fill="#F8FAFF" stroke="#C7D2E5" stroke-width="1.4" stroke-linejoin="round" stroke-linecap="round"/><text x="867.00" y="104.35" text-anchor="middle" font-family="Inter, Segoe UI, system-ui, -apple-system, sans-serif" font-size="13" fill="#1C2430"><tspan x="867.00" dy="0.00">render.rs</tspan></text><rect x="812.00" y="81.35" width="102.20" height="36.90" rx="6" ry="6" fill="#F8FAFF" stroke="#C7D2E5" stroke-width="1.4" stroke-linejoin="round" stroke-linecap="round"/><text x="863.10" y="104.35" text-anchor="middle" font-family="Inter, Segoe UI, system-ui, -apple-system, sans-serif" font-size="13" fill="#1C2430"><tspan x="863.10" dy="0.00">Puppeteer</tspan></text><rect x="967.80" y="81.35" width="55.40" height="36.90" rx="6" ry="6" fill="#F8FAFF" stroke="#C7D2E5" stroke-width="1.4" stroke-linejoin="round" stroke-linecap="round"/><text x="995.50" y="104.35" text-anchor="middle" font-family="Inter, Segoe UI, system-ui, -apple-system, sans-serif" font-size="13" fill="#1C2430"><tspan x="995.50" dy="0.00">SVG</tspan></text><rect x="964.10" y="72.90" width="110.00" height="53.80" rx="6" ry="6" fill="#F8FAFF" stroke="#C7D2E5" stroke-width="1.4" stroke-linejoin="round" stroke-linecap="round"/><text x="1019.10" y="95.90" text-anchor="middle" font-family="Inter, Segoe UI, system-ui, -apple-system, sans-serif" font-size="13" fill="#1C2430"><tspan x="1019.10" dy="0.00">Chromium</tspan><tspan x="1019.10" dy="16.90">(headless)</tspan></text><rect x="1073.00" y="81.35" width="71.00" height="36.90" rx="6" ry="6" fill="#F8FAFF" stroke="#C7D2E5" stroke-width="1.4" stroke-linejoin="round" stroke-linecap="round"/><text x="1108.50" y="104.35" text-anchor="middle" font-family="Inter, Segoe UI, system-ui, -apple-system, sans-serif" font-size="13" fill="#1C2430"><tspan x="1108.50" dy="0.00">resvg</tspan></text><rect x="1124.10" y="81.35" width="110.00" height="36.90" rx="6" ry="6" fill="#F8FAFF" stroke="#C7D2E5" stroke-width="1.4" stroke-linejoin="round" stroke-linecap="round"/><text x="1179.10" y="104.35" text-anchor="middle" font-family="Inter, Segoe UI, system-ui, -apple-system, sans-serif" font-size="13" fill="#1C2430"><tspan x="1179.10" dy="0.00">Screenshot</tspan></text><rect x="1193.80" y="81.35" width="55.40" height="36.90" rx="6" ry="6" fill="#F8FAFF" stroke="#C7D2E5" stroke-width="1.4" stroke-linejoin="round" stroke-linecap="round"/><text x="1221.50" y="104.35" text-anchor="middle" font-family="Inter, Segoe UI, system-ui, -apple-system, sans-serif" font-size="13" fill="#1C2430"><tspan x="1221.50" dy="0.00">PNG</tspan></text><rect x="1283.80" y="81.35" width="86.60" height="36.90" rx="6" ry="6" fill="#F8FAFF" stroke="#C7D2E5" stroke-width="1.4" stroke-linejoin="round" stroke-linecap="round"/><text x="1327.10" y="104.35" text-anchor="middle" font-family="Inter, Segoe UI, system-ui, -apple-system, sans-serif" font-size="13" fill="#1C2430"><tspan x="1327.10" dy="0.00">PNG/SVG</tspan></text></svg>