<svg xmlns="http://www.w3.org/2000/svg" width="501.49353" height="872" viewBox="0 0 501.49353 872"><rect x="0" y="0" width="501.49353" height="872" fill="#FFFFFF"/><defs><marker id="arrow-0" viewBox="0 0 10 10" refX="5" refY="5" markerUnits="userSpaceOnUse" markerWidth="8" markerHeight="8" orient="auto"><path d="M 0 0 L 10 5 L 0 10 z" fill="#333333" stroke="#333333" stroke-width="1" stroke-dasharray="1,0"/></marker><marker id="arrow-start-0" viewBox="0 0 10 10" refX="4.5" refY="5" markerUnits="userSpaceOnUse" markerWidth="8" markerHeight="8" orient="auto"><path d="M 0 5 L 10 10 L 10 0 z" fill="#333333" stroke="#333333" stroke-width="1" stroke-dasharray="1,0"/></marker></defs><rect x="257.43" y="8.00" width="236.07" height="856.00" rx="10" ry="10" fill="#fff3e0" stroke="#f57c00" stroke-width="2" /><text x="375.46" y="36.00" text-anchor="middle" font-family="'trebuchet ms', verdana, arial, sans-serif" font-size="16" fill="#333333"><tspan x="375.46" dy="0.00">mermaid-cli (Node.js) ~</tspan><tspan x="375.46" dy="24.00">2500ms total</tspan></text><rect x="8.00" y="22.00" width="236.07" height="842.00" rx="10" ry="10" fill="#e8f5e9" stroke="#2e7d32" stroke-width="2" /><text x="126.03" y="50.00" text-anchor="middle" font-family="'trebuchet ms', verdana, arial, sans-serif" font-size="16" fill="#333333"><tspan x="126.03" dy="0.00">mmdr (Rust) ~ 3ms total</tspan></text><path d="M 126.033,101.000 L 126.033,151.000" fill="none" stroke="#333333" stroke-width="2" marker-end="url(#arrow-0)"   stroke-linecap="round" stroke-linejoin="round" /><path d="M 126.033,205.000 L 126.033,254.800" fill="none" stroke="#333333" stroke-width="2" marker-end="url(#arrow-0)"   stroke-linecap="round" stroke-linejoin="round" /><path d="M 126.033,314.200 L 126.033,364.000" fill="none" stroke="#333333" stroke-width="2" marker-end="url(#arrow-0)"   stroke-linecap="round" stroke-linejoin="round" /><path d="M 126.033,418.000 L 126.033,468.000" fill="none" stroke="#333333" stroke-width="2" marker-end="url(#arrow-0)"   stroke-linecap="round" stroke-linejoin="round" /><path d="M 126.033,522.000 L 126.033,582.000" fill="none" stroke="#333333" stroke-width="2" marker-end="url(#arrow-0)"   stroke-linecap="round" stroke-linejoin="round" /><path d="M 126.033,621.000 L 126.033,681.000" fill="none" stroke="#333333" stroke-width="2" marker-end="url(#arrow-0)"  stroke-dasharray="2" stroke-linecap="round" stroke-linejoin="round" /><path d="M 126.033,735.000 L 126.033,785.000" fill="none" stroke="#333333" stroke-width="2" marker-end="url(#arrow-0)"  stroke-dasharray="2" stroke-linecap="round" stroke-linejoin="round" /><path d="M 375.460,101.000L 364.963,104.529C354.465,108.059,333.471,115.117,321.078,119.284C308.684,123.451,304.893,124.725,304.893,126.000C304.893,127.275,308.684,128.549,321.078,132.716C333.471,136.883,354.465,143.941,364.963,147.471L 375.460,151.000" fill="none" stroke="#333333" stroke-width="2" marker-end="url(#arrow-0)"   stroke-linecap="round" stroke-linejoin="round" /><path d="M 375.460,205.000L 364.963,208.529C354.465,212.059,333.471,219.117,321.078,223.284C308.684,227.451,304.893,228.725,304.873,230.056C304.853,231.387,308.605,232.775,320.998,237.358C333.391,241.942,354.426,249.721,364.943,253.610L 375.460,257.500" fill="none" stroke="#333333" stroke-width="2" marker-end="url(#arrow-0)"   stroke-linecap="round" stroke-linejoin="round" /><path d="M 375.460,311.500L 364.943,315.390C354.426,319.279,333.391,327.058,320.998,331.642C308.605,336.225,304.853,337.613,304.873,338.944C304.893,340.275,308.684,341.549,321.078,345.716C333.471,349.883,354.465,356.941,364.963,360.471L 375.460,364.000" fill="none" stroke="#333333" stroke-width="2" marker-end="url(#arrow-0)"   stroke-linecap="round" stroke-linejoin="round" /><path d="M 375.460,418.000L 364.963,421.529C354.465,425.059,333.471,432.117,321.078,436.284C308.684,440.451,304.893,441.725,304.893,443.000C304.893,444.275,308.684,445.549,321.078,449.716C333.471,453.883,354.465,460.941,364.963,464.471L 375.460,468.000" fill="none" stroke="#333333" stroke-width="2" marker-end="url(#arrow-0)"   stroke-linecap="round" stroke-linejoin="round" /><path d="M 375.460,522.000L 364.963,525.529C354.465,529.059,333.471,536.117,321.078,540.284C308.684,544.451,304.893,545.725,304.895,546.995C304.896,548.266,308.691,549.531,321.084,553.664C333.477,557.798,354.468,564.799,364.964,568.299L 375.460,571.800" fill="none" stroke="#333333" stroke-width="2" marker-end="url(#arrow-0)"   stroke-linecap="round" stroke-linejoin="round" /><path d="M 375.460,631.200L 364.964,634.701C354.468,638.201,333.477,645.202,321.084,649.336C308.691,653.469,304.896,654.734,304.895,656.005C304.893,657.275,308.684,658.549,321.078,662.716C333.471,666.883,354.465,673.941,364.963,677.471L 375.460,681.000" fill="none" stroke="#333333" stroke-width="2" marker-end="url(#arrow-0)"   stroke-linecap="round" stroke-linejoin="round" /><path d="M 375.460,735.000L 364.963,738.529C354.465,742.059,333.471,749.117,321.078,753.284C308.684,757.451,304.893,758.725,304.893,760.000C304.893,761.275,308.684,762.549,321.078,766.716C333.471,770.883,354.465,777.941,364.963,781.471L 375.460,785.000" fill="none" stroke="#333333" stroke-width="2" marker-end="url(#arrow-0)"   stroke-linecap="round" stroke-linejoin="round" /><polygon points="339.09,571.80 411.83,571.80 448.20,601.50 411.83,631.20 339.09,631.20 302.72,601.50" fill="#ffcdd2" stroke="#c62828" stroke-width="1" stroke-linejoin="round" stroke-linecap="round"/><text x="375.46" y="605.50" text-anchor="middle" font-family="'trebuchet ms', verdana, arial, sans-serif" font-size="16" fill="#333333"><tspan x="375.46" dy="0.00">Chromium</tspan></text><rect x="326.32" y="257.50" width="98.28" height="54.00" rx="3" ry="3" fill="#ECECFF" stroke="#9370DB" stroke-width="1" stroke-linejoin="round" stroke-linecap="round"/><text x="375.46" y="288.50" text-anchor="middle" font-family="'trebuchet ms', verdana, arial, sans-serif" font-size="16" fill="#333333"><tspan x="375.46" dy="0.00">dagre</tspan></text><rect x="303.36" y="364.00" width="144.21" height="54.00" rx="3" ry="3" fill="#ECECFF" stroke="#9370DB" stroke-width="1" stroke-linejoin="round" stroke-linecap="round"/><text x="375.46" y="395.00" text-anchor="middle" font-family="'trebuchet ms', verdana, arial, sans-serif" font-size="16" fill="#333333"><tspan x="375.46" dy="0.00">Browser DOM</tspan></text><polygon points="86.82,62.00 187.30,62.00 165.24,101.00 64.77,101.00" fill="#ECECFF" stroke="#9370DB" stroke-width="1" stroke-linejoin="round" stroke-linecap="round"/><text x="126.03" y="85.50" text-anchor="middle" font-family="'trebuchet ms', verdana, arial, sans-serif" font-size="16" fill="#333333"><tspan x="126.03" dy="0.00">.mmd file</tspan></text><polygon points="336.25,62.00 436.73,62.00 414.67,101.00 314.19,101.00" fill="#ECECFF" stroke="#9370DB" stroke-width="1" stroke-linejoin="round" stroke-linecap="round"/><text x="375.46" y="85.50" text-anchor="middle" font-family="'trebuchet ms', verdana, arial, sans-serif" font-size="16" fill="#333333"><tspan x="375.46" dy="0.00">.mmd file</tspan></text><ellipse cx="126.03" cy="261.93" rx="66.68" ry="7.13" fill="#ECECFF" stroke="#9370DB" stroke-width="1" stroke-linejoin="round" stroke-linecap="round"/><rect x="59.35" y="261.93" width="133.36" height="45.14" fill="#ECECFF" stroke="#9370DB" stroke-width="1" stroke-linejoin="round" stroke-linecap="round"/><ellipse cx="126.03" cy="307.07" rx="66.68" ry="7.13" fill="none" stroke="#9370DB" stroke-width="1" stroke-linejoin="round" stroke-linecap="round"/><text x="126.03" y="288.50" text-anchor="middle" font-family="'trebuchet ms', verdana, arial, sans-serif" font-size="16" fill="#333333"><tspan x="126.03" dy="0.00">Graph IR</tspan></text><rect x="73.07" y="364.00" width="105.93" height="54.00" rx="3" ry="3" fill="#ECECFF" stroke="#9370DB" stroke-width="1" stroke-linejoin="round" stroke-linecap="round"/><text x="126.03" y="395.00" text-anchor="middle" font-family="'trebuchet ms', verdana, arial, sans-serif" font-size="16" fill="#333333"><tspan x="126.03" dy="0.00">Layout</tspan></text><rect x="307.18" y="151.00" width="136.55" height="54.00" rx="3" ry="3" fill="#ECECFF" stroke="#9370DB" stroke-width="1" stroke-linejoin="round" stroke-linecap="round"/><text x="375.46" y="182.00" text-anchor="middle" font-family="'trebuchet ms', verdana, arial, sans-serif" font-size="16" fill="#333333"><tspan x="375.46" dy="0.00">mermaid-js</tspan></text><polygon points="100.00,582.00 166.71,582.00 152.07,621.00 85.36,621.00" fill="#ECECFF" stroke="#9370DB" stroke-width="1" stroke-linejoin="round" stroke-linecap="round"/><text x="126.03" y="605.50" text-anchor="middle" font-family="'trebuchet ms', verdana, arial, sans-serif" font-size="16" fill="#333333"><tspan x="126.03" dy="0.00">SVG</tspan></text><polygon points="99.77,785.00 167.07,785.00 152.30,824.00 85.00,824.00" fill="#ECECFF" stroke="#9370DB" stroke-width="1" stroke-linejoin="round" stroke-linecap="round"/><text x="126.03" y="808.50" text-anchor="middle" font-family="'trebuchet ms', verdana, arial, sans-serif" font-size="16" fill="#333333"><tspan x="126.03" dy="0.00">PNG</tspan></text><polygon points="339.16,785.00 432.18,785.00 411.76,824.00 318.74,824.00" fill="#ECECFF" stroke="#9370DB" stroke-width="1" stroke-linejoin="round" stroke-linecap="round"/><text x="375.46" y="808.50" text-anchor="middle" font-family="'trebuchet ms', verdana, arial, sans-serif" font-size="16" fill="#333333"><tspan x="375.46" dy="0.00">PNG/SVG</tspan></text><rect x="76.90" y="151.00" width="98.28" height="54.00" rx="3" ry="3" fill="#ECECFF" stroke="#9370DB" stroke-width="1" stroke-linejoin="round" stroke-linecap="round"/><text x="126.03" y="182.00" text-anchor="middle" font-family="'trebuchet ms', verdana, arial, sans-serif" font-size="16" fill="#333333"><tspan x="126.03" dy="0.00">Parse</tspan></text><rect x="311.01" y="468.00" width="128.90" height="54.00" rx="3" ry="3" fill="#ECECFF" stroke="#9370DB" stroke-width="1" stroke-linejoin="round" stroke-linecap="round"/><text x="375.46" y="499.00" text-anchor="middle" font-family="'trebuchet ms', verdana, arial, sans-serif" font-size="16" fill="#333333"><tspan x="375.46" dy="0.00">Puppeteer</tspan></text><rect x="73.07" y="468.00" width="105.93" height="54.00" rx="3" ry="3" fill="#ECECFF" stroke="#9370DB" stroke-width="1" stroke-linejoin="round" stroke-linecap="round"/><text x="126.03" y="499.00" text-anchor="middle" font-family="'trebuchet ms', verdana, arial, sans-serif" font-size="16" fill="#333333"><tspan x="126.03" dy="0.00">Render</tspan></text><rect x="76.90" y="681.00" width="98.28" height="54.00" rx="3" ry="3" fill="#ECECFF" stroke="#9370DB" stroke-width="1" stroke-linejoin="round" stroke-linecap="round"/><text x="126.03" y="712.00" text-anchor="middle" font-family="'trebuchet ms', verdana, arial, sans-serif" font-size="16" fill="#333333"><tspan x="126.03" dy="0.00">resvg</tspan></text><rect x="307.18" y="681.00" width="136.55" height="54.00" rx="3" ry="3" fill="#ECECFF" stroke="#9370DB" stroke-width="1" stroke-linejoin="round" stroke-linecap="round"/><text x="375.46" y="712.00" text-anchor="middle" font-family="'trebuchet ms', verdana, arial, sans-serif" font-size="16" fill="#333333"><tspan x="375.46" dy="0.00">Screenshot</tspan></text></svg>