<svg xmlns="http://www.w3.org/2000/svg" width="2616.98" height="214.39001" viewBox="0 0 2616.98 214.39001"><rect width="100%" height="100%" fill="#FFFFFF"/><defs><marker id="arrow-0" viewBox="0 0 10 10" refX="10" refY="5" markerWidth="8" markerHeight="8" orient="auto-start-reverse"><path d="M 0 0 L 10 5 L 0 10 z" fill="#7A8AA6"/></marker><marker id="arrow-start-0" viewBox="0 0 10 10" refX="0" refY="5" markerWidth="8" markerHeight="8" orient="auto"><path d="M 10 0 L 0 5 L 10 10 z" fill="#7A8AA6"/></marker></defs><rect x="1310.20" y="24.00" width="1246.78" height="130.39" rx="10" ry="10" fill="#fff3e0" stroke="#f57c00" stroke-width="2" /><text x="1933.59" y="49.00" text-anchor="middle" font-family="Inter, Segoe UI, system-ui, -apple-system, sans-serif" font-size="13" fill="#1C2430"><tspan x="1933.59" dy="0.00">mermaid-cli (Node.js)</tspan><tspan x="1933.59" dy="16.90">~ 2500ms total</tspan></text><rect x="24.00" y="24.00" width="1053.56" height="130.39" rx="10" ry="10" fill="#e8f5e9" stroke="#2e7d32" stroke-width="2" /><text x="550.78" y="49.00" text-anchor="middle" font-family="Inter, Segoe UI, system-ui, -apple-system, sans-serif" font-size="13" fill="#1C2430"><tspan x="550.78" dy="0.00">mmdr (Rust) ~ 3ms</tspan><tspan x="550.78" dy="16.90">total</tspan></text><path d="M 109.32 128.55 L 109.32 119.32 Q 109.32 110.10 118.55 110.10 L 246.60 110.10 Q 255.82 110.10 255.82 100.87 L 255.82 91.65" fill="none" stroke="#7A8AA6" stroke-width="1.4" marker-end="url(#arrow-0)"   stroke-linecap="round" stroke-linejoin="round" /><path d="M 255.82 128.55 L 255.82 118.86 Q 255.82 109.17 265.51 109.17 L 383.13 109.17 Q 392.82 109.17 392.82 99.49 L 392.82 89.80" fill="none" stroke="#7A8AA6" stroke-width="1.4" marker-end="url(#arrow-0)"   stroke-linecap="round" stroke-linejoin="round" /><path d="M 392.82 130.39 L 392.82 120.70 Q 392.82 111.02 402.51 111.02 L 523.63 111.02 Q 533.32 111.02 533.32 101.33 L 533.32 91.65" fill="none" stroke="#7A8AA6" stroke-width="1.4" marker-end="url(#arrow-0)"   stroke-linecap="round" stroke-linejoin="round" /><path d="M 533.32 128.55 L 533.32 119.32 Q 533.32 110.10 542.55 110.10 L 652.10 110.10 Q 661.32 110.10 661.32 100.87 L 661.32 91.65" fill="none" stroke="#7A8AA6" stroke-width="1.4" marker-end="url(#arrow-0)"   stroke-linecap="round" stroke-linejoin="round" /><path d="M 661.32 128.55 L 661.32 119.32 Q 661.32 110.10 670.55 110.10 L 774.10 110.10 Q 783.32 110.10 783.32 100.87 L 783.32 91.65" fill="none" stroke="#7A8AA6" stroke-width="1.4" marker-end="url(#arrow-0)"   stroke-linecap="round" stroke-linejoin="round" /><path d="M 783.32 128.55 L 783.32 119.32 Q 783.32 110.10 792.55 110.10 L 892.60 110.10 Q 901.82 110.10 901.82 100.87 L 901.82 91.65" fill="none" stroke="#7A8AA6" stroke-width="1.2" marker-end="url(#arrow-0)"  stroke-dasharray="3 5" stroke-linecap="round" stroke-linejoin="round" /><path d="M 901.82 128.55 L 901.82 119.32 Q 901.82 110.10 911.05 110.10 L 1011.10 110.10 Q 1020.32 110.10 1020.32 100.87 L 1020.32 91.65" fill="none" stroke="#7A8AA6" stroke-width="1.2" marker-end="url(#arrow-0)"  stroke-dasharray="3 5" stroke-linecap="round" stroke-linejoin="round" /><path d="M 1395.52 128.55 L 1395.52 119.32 Q 1395.52 110.10 1404.74 110.10 L 1552.30 110.10 Q 1561.52 110.10 1561.52 100.87 L 1561.52 91.65" fill="none" stroke="#7A8AA6" stroke-width="1.4" marker-end="url(#arrow-0)"   stroke-linecap="round" stroke-linejoin="round" /><path d="M 1561.52 128.55 L 1561.52 119.32 Q 1561.52 110.10 1570.74 110.10 L 1692.80 110.10 Q 1702.02 110.10 1702.02 100.87 L 1702.02 91.65" fill="none" stroke="#7A8AA6" stroke-width="1.4" marker-end="url(#arrow-0)"   stroke-linecap="round" stroke-linejoin="round" /><path d="M 1702.02 128.55 L 1702.02 119.32 Q 1702.02 110.10 1711.24 110.10 L 1836.80 110.10 Q 1846.02 110.10 1846.02 100.87 L 1846.02 91.65" fill="none" stroke="#7A8AA6" stroke-width="1.4" marker-end="url(#arrow-0)"   stroke-linecap="round" stroke-linejoin="round" /><path d="M 1846.02 128.55 L 1846.02 119.32 Q 1846.02 110.10 1855.25 110.10 L 1996.30 110.10 Q 2005.52 110.10 2005.52 100.87 L 2005.52 91.65" fill="none" stroke="#7A8AA6" stroke-width="1.4" marker-end="url(#arrow-0)"   stroke-linecap="round" stroke-linejoin="round" /><path d="M 2005.52 128.55 L 2005.52 118.86 Q 2005.52 109.17 2015.21 109.17 L 2153.33 109.17 Q 2163.02 109.17 2163.02 99.49 L 2163.02 89.80" fill="none" stroke="#7A8AA6" stroke-width="1.4" marker-end="url(#arrow-0)"   stroke-linecap="round" stroke-linejoin="round" /><path d="M 2163.02 130.39 L 2163.02 120.70 Q 2163.02 111.02 2172.71 111.02 L 2314.83 111.02 Q 2324.52 111.02 2324.52 101.33 L 2324.52 91.65" fill="none" stroke="#7A8AA6" stroke-width="1.4" marker-end="url(#arrow-0)"   stroke-linecap="round" stroke-linejoin="round" /><path d="M 2324.52 128.55 L 2324.52 119.32 Q 2324.52 110.10 2333.75 110.10 L 2471.79 110.10 Q 2481.02 110.10 2481.02 100.87 L 2481.02 91.65" fill="none" stroke="#7A8AA6" stroke-width="1.4" marker-end="url(#arrow-0)"   stroke-linecap="round" stroke-linejoin="round" /><polygon points="2134.70,89.80 2191.34,89.80 2219.66,110.10 2191.34,130.39 2134.70,130.39 2106.38,110.10" fill="#ffcdd2" stroke="#c62828" stroke-width="1.4" stroke-linejoin="round" stroke-linecap="round"/><text x="2163.02" y="114.65" text-anchor="middle" font-family="Inter, Segoe UI, system-ui, -apple-system, sans-serif" font-size="13" fill="#1C2430"><tspan x="2163.02" dy="0.00">Chromium</tspan></text><rect x="1666.52" y="91.65" width="71.00" height="36.90" rx="6" ry="6" fill="#F8FAFF" stroke="#C7D2E5" stroke-width="1.4" stroke-linejoin="round" stroke-linecap="round"/><text x="1702.02" y="114.65" text-anchor="middle" font-family="Inter, Segoe UI, system-ui, -apple-system, sans-serif" font-size="13" fill="#1C2430"><tspan x="1702.02" dy="0.00">dagre</tspan></text><rect x="1787.12" y="91.65" width="117.80" height="36.90" rx="6" ry="6" fill="#F8FAFF" stroke="#C7D2E5" stroke-width="1.4" stroke-linejoin="round" stroke-linecap="round"/><text x="1846.02" y="114.65" text-anchor="middle" font-family="Inter, Segoe UI, system-ui, -apple-system, sans-serif" font-size="13" fill="#1C2430"><tspan x="1846.02" dy="0.00">Browser DOM</tspan></text><polygon points="70.08,91.65 170.64,91.65 148.56,128.55 48.00,128.55" fill="#F8FAFF" stroke="#C7D2E5" stroke-width="1.4" stroke-linejoin="round" stroke-linecap="round"/><text x="109.32" y="114.65" text-anchor="middle" font-family="Inter, Segoe UI, system-ui, -apple-system, sans-serif" font-size="13" fill="#1C2430"><tspan x="109.32" dy="0.00">.mmd file</tspan></text><polygon points="1356.28,91.65 1456.84,91.65 1434.76,128.55 1334.20,128.55" fill="#F8FAFF" stroke="#C7D2E5" stroke-width="1.4" stroke-linejoin="round" stroke-linecap="round"/><text x="1395.52" y="114.65" text-anchor="middle" font-family="Inter, Segoe UI, system-ui, -apple-system, sans-serif" font-size="13" fill="#1C2430"><tspan x="1395.52" dy="0.00">.mmd file</tspan></text><ellipse cx="392.82" cy="95.80" rx="51.92" ry="6.00" fill="#F8FAFF" stroke="#C7D2E5" stroke-width="1.4" stroke-linejoin="round" stroke-linecap="round"/><rect x="340.90" y="95.80" width="103.84" height="28.59" fill="#F8FAFF" stroke="#C7D2E5" stroke-width="1.4" stroke-linejoin="round" stroke-linecap="round"/><ellipse cx="392.82" cy="124.39" rx="51.92" ry="6.00" fill="none" stroke="#C7D2E5" stroke-width="1.4" stroke-linejoin="round" stroke-linecap="round"/><text x="392.82" y="114.65" text-anchor="middle" font-family="Inter, Segoe UI, system-ui, -apple-system, sans-serif" font-size="13" fill="#1C2430"><tspan x="392.82" dy="0.00">Graph IR</tspan></text><rect x="493.92" y="91.65" width="78.80" height="36.90" rx="6" ry="6" fill="#F8FAFF" stroke="#C7D2E5" stroke-width="1.4" stroke-linejoin="round" stroke-linecap="round"/><text x="533.32" y="114.65" text-anchor="middle" font-family="Inter, Segoe UI, system-ui, -apple-system, sans-serif" font-size="13" fill="#1C2430"><tspan x="533.32" dy="0.00">Layout</tspan></text><rect x="1506.52" y="91.65" width="110.00" height="36.90" rx="6" ry="6" fill="#F8FAFF" stroke="#C7D2E5" stroke-width="1.4" stroke-linejoin="round" stroke-linecap="round"/><text x="1561.52" y="114.65" text-anchor="middle" font-family="Inter, Segoe UI, system-ui, -apple-system, sans-serif" font-size="13" fill="#1C2430"><tspan x="1561.52" dy="0.00">mermaid-js</tspan></text><polygon points="762.05,91.65 816.56,91.65 804.59,128.55 750.08,128.55" fill="#F8FAFF" stroke="#C7D2E5" stroke-width="1.4" stroke-linejoin="round" stroke-linecap="round"/><text x="783.32" y="114.65" text-anchor="middle" font-family="Inter, Segoe UI, system-ui, -apple-system, sans-serif" font-size="13" fill="#1C2430"><tspan x="783.32" dy="0.00">SVG</tspan></text><polygon points="999.05,91.65 1053.56,91.65 1041.59,128.55 987.08,128.55" fill="#F8FAFF" stroke="#C7D2E5" stroke-width="1.4" stroke-linejoin="round" stroke-linecap="round"/><text x="1020.32" y="114.65" text-anchor="middle" font-family="Inter, Segoe UI, system-ui, -apple-system, sans-serif" font-size="13" fill="#1C2430"><tspan x="1020.32" dy="0.00">PNG</tspan></text><polygon points="2447.77,91.65 2532.98,91.65 2514.27,128.55 2429.06,128.55" fill="#F8FAFF" stroke="#C7D2E5" stroke-width="1.4" stroke-linejoin="round" stroke-linecap="round"/><text x="2481.02" y="114.65" text-anchor="middle" font-family="Inter, Segoe UI, system-ui, -apple-system, sans-serif" font-size="13" fill="#1C2430"><tspan x="2481.02" dy="0.00">PNG/SVG</tspan></text><rect x="220.32" y="91.65" width="71.00" height="36.90" rx="6" ry="6" fill="#F8FAFF" stroke="#C7D2E5" stroke-width="1.4" stroke-linejoin="round" stroke-linecap="round"/><text x="255.82" y="114.65" text-anchor="middle" font-family="Inter, Segoe UI, system-ui, -apple-system, sans-serif" font-size="13" fill="#1C2430"><tspan x="255.82" dy="0.00">Parse</tspan></text><rect x="1954.42" y="91.65" width="102.20" height="36.90" rx="6" ry="6" fill="#F8FAFF" stroke="#C7D2E5" stroke-width="1.4" stroke-linejoin="round" stroke-linecap="round"/><text x="2005.52" y="114.65" text-anchor="middle" font-family="Inter, Segoe UI, system-ui, -apple-system, sans-serif" font-size="13" fill="#1C2430"><tspan x="2005.52" dy="0.00">Puppeteer</tspan></text><rect x="621.92" y="91.65" width="78.80" height="36.90" rx="6" ry="6" fill="#F8FAFF" stroke="#C7D2E5" stroke-width="1.4" stroke-linejoin="round" stroke-linecap="round"/><text x="661.32" y="114.65" text-anchor="middle" font-family="Inter, Segoe UI, system-ui, -apple-system, sans-serif" font-size="13" fill="#1C2430"><tspan x="661.32" dy="0.00">Render</tspan></text><rect x="866.32" y="91.65" width="71.00" height="36.90" rx="6" ry="6" fill="#F8FAFF" stroke="#C7D2E5" stroke-width="1.4" stroke-linejoin="round" stroke-linecap="round"/><text x="901.82" y="114.65" text-anchor="middle" font-family="Inter, Segoe UI, system-ui, -apple-system, sans-serif" font-size="13" fill="#1C2430"><tspan x="901.82" dy="0.00">resvg</tspan></text><rect x="2269.52" y="91.65" width="110.00" height="36.90" rx="6" ry="6" fill="#F8FAFF" stroke="#C7D2E5" stroke-width="1.4" stroke-linejoin="round" stroke-linecap="round"/><text x="2324.52" y="114.65" text-anchor="middle" font-family="Inter, Segoe UI, system-ui, -apple-system, sans-serif" font-size="13" fill="#1C2430"><tspan x="2324.52" dy="0.00">Screenshot</tspan></text></svg>