<svg xmlns="http://www.w3.org/2000/svg" width="416.6576" height="1808" viewBox="0 0 416.6576 1808"><rect x="0" y="0" width="416.6576" height="1808" fill="#FFFFFF"/><defs><marker id="arrow-0" viewBox="0 0 10 10" refX="5" refY="5" markerUnits="userSpaceOnUse" markerWidth="8" markerHeight="8" orient="auto"><path d="M 0 0 L 10 5 L 0 10 z" fill="#333333"/></marker><marker id="arrow-start-0" viewBox="0 0 10 10" refX="4.5" refY="5" markerUnits="userSpaceOnUse" markerWidth="8" markerHeight="8" orient="auto"><path d="M 0 5 L 10 10 L 10 0 z" fill="#333333"/></marker></defs><rect x="184.00" y="944.00" width="224.66" height="856.00" rx="10" ry="10" fill="#fff3e0" stroke="#f57c00" stroke-width="2" /><text x="296.33" y="972.00" text-anchor="middle" font-family="'trebuchet ms', verdana, arial, sans-serif" font-size="16" fill="#333333"><tspan x="296.33" dy="0.00">mermaid-cli (Node.js)</tspan><tspan x="296.33" dy="24.00">~ 2500ms total</tspan></text><rect x="8.00" y="8.00" width="201.95" height="856.00" rx="10" ry="10" fill="#e8f5e9" stroke="#2e7d32" stroke-width="2" /><text x="108.98" y="36.00" text-anchor="middle" font-family="'trebuchet ms', verdana, arial, sans-serif" font-size="16" fill="#333333"><tspan x="108.98" dy="0.00">mmdr (Rust) ~ 3ms</tspan><tspan x="108.98" dy="24.00">total</tspan></text><path d="M 108.976,101.000C108.976,109.333,108.976,121.833,108.976,126.000C108.976,130.167,108.976,121.833,108.976,126.000C108.976,130.167,108.976,142.667,108.976,151.000" fill="none" stroke="#333333" stroke-width="2" marker-end="url(#arrow-0)"   stroke-linecap="round" stroke-linejoin="round" /><path d="M 108.976,205.000C108.976,213.300,108.976,225.750,108.976,229.900C108.976,234.050,108.976,225.750,108.976,229.900C108.976,234.050,108.976,246.500,108.976,254.800" fill="none" stroke="#333333" stroke-width="2" marker-end="url(#arrow-0)"   stroke-linecap="round" stroke-linejoin="round" /><path d="M 108.976,314.200C108.976,322.500,108.976,334.950,108.976,339.100C108.976,343.250,108.976,334.950,108.976,339.100C108.976,343.250,108.976,355.700,108.976,364.000" fill="none" stroke="#333333" stroke-width="2" marker-end="url(#arrow-0)"   stroke-linecap="round" stroke-linejoin="round" /><path d="M 108.976,418.000C108.976,426.333,108.976,438.833,108.976,443.000C108.976,447.167,108.976,438.833,108.976,443.000C108.976,447.167,108.976,459.667,108.976,468.000" fill="none" stroke="#333333" stroke-width="2" marker-end="url(#arrow-0)"   stroke-linecap="round" stroke-linejoin="round" /><path d="M 108.976,522.000C108.976,532.000,108.976,547.000,108.976,552.000C108.976,557.000,108.976,547.000,108.976,552.000C108.976,557.000,108.976,572.000,108.976,582.000" fill="none" stroke="#333333" stroke-width="2" marker-end="url(#arrow-0)"   stroke-linecap="round" stroke-linejoin="round" /><path d="M 108.976,621.000C108.976,631.000,108.976,646.000,108.976,651.000C108.976,656.000,108.976,646.000,108.976,651.000C108.976,656.000,108.976,671.000,108.976,681.000" fill="none" stroke="#333333" stroke-width="2" marker-end="url(#arrow-0)"  stroke-dasharray="2" stroke-linecap="round" stroke-linejoin="round" /><path d="M 108.976,735.000C108.976,743.333,108.976,755.833,108.976,760.000C108.976,764.167,108.976,755.833,108.976,760.000C108.976,764.167,108.976,776.667,108.976,785.000" fill="none" stroke="#333333" stroke-width="2" marker-end="url(#arrow-0)"  stroke-dasharray="2" stroke-linecap="round" stroke-linejoin="round" /><path d="M 296.328,1037.000C296.328,1045.333,296.328,1057.833,296.328,1062.000C296.328,1066.167,296.328,1057.833,296.328,1062.000C296.328,1066.167,296.328,1078.667,296.328,1087.000" fill="none" stroke="#333333" stroke-width="2" marker-end="url(#arrow-0)"   stroke-linecap="round" stroke-linejoin="round" /><path d="M 296.328,1141.000C296.328,1149.750,296.328,1162.875,296.328,1167.250C296.328,1171.625,296.328,1162.875,296.328,1167.250C296.328,1171.625,296.328,1184.750,296.328,1193.500" fill="none" stroke="#333333" stroke-width="2" marker-end="url(#arrow-0)"   stroke-linecap="round" stroke-linejoin="round" /><path d="M 296.328,1247.500C296.328,1256.250,296.328,1269.375,296.328,1273.750C296.328,1278.125,296.328,1269.375,296.328,1273.750C296.328,1278.125,296.328,1291.250,296.328,1300.000" fill="none" stroke="#333333" stroke-width="2" marker-end="url(#arrow-0)"   stroke-linecap="round" stroke-linejoin="round" /><path d="M 296.328,1354.000C296.328,1362.333,296.328,1374.833,296.328,1379.000C296.328,1383.167,296.328,1374.833,296.328,1379.000C296.328,1383.167,296.328,1395.667,296.328,1404.000" fill="none" stroke="#333333" stroke-width="2" marker-end="url(#arrow-0)"   stroke-linecap="round" stroke-linejoin="round" /><path d="M 296.328,1458.000C296.328,1466.300,296.328,1478.750,296.328,1482.900C296.328,1487.050,296.328,1478.750,296.328,1482.900C296.328,1487.050,296.328,1499.500,296.328,1507.800" fill="none" stroke="#333333" stroke-width="2" marker-end="url(#arrow-0)"   stroke-linecap="round" stroke-linejoin="round" /><path d="M 296.328,1567.200C296.328,1575.500,296.328,1587.950,296.328,1592.100C296.328,1596.250,296.328,1587.950,296.328,1592.100C296.328,1596.250,296.328,1608.700,296.328,1617.000" fill="none" stroke="#333333" stroke-width="2" marker-end="url(#arrow-0)"   stroke-linecap="round" stroke-linejoin="round" /><path d="M 296.328,1671.000C296.328,1679.333,296.328,1691.833,296.328,1696.000C296.328,1700.167,296.328,1691.833,296.328,1696.000C296.328,1700.167,296.328,1712.667,296.328,1721.000" fill="none" stroke="#333333" stroke-width="2" marker-end="url(#arrow-0)"   stroke-linecap="round" stroke-linejoin="round" /><polygon points="255.16,1507.80 337.49,1507.80 378.66,1537.50 337.49,1567.20 255.16,1567.20 214.00,1537.50" fill="#ffcdd2" stroke="#c62828" stroke-width="1" stroke-linejoin="round" stroke-linecap="round"/><text x="296.33" y="1541.50" text-anchor="middle" font-family="'trebuchet ms', verdana, arial, sans-serif" font-size="16" fill="#333333"><tspan x="296.33" dy="0.00">Chromium</tspan></text><rect x="244.78" y="1193.50" width="103.09" height="54.00" rx="3" ry="3" fill="#ECECFF" stroke="#9370DB" stroke-width="1" stroke-linejoin="round" stroke-linecap="round"/><text x="296.33" y="1224.50" text-anchor="middle" font-family="'trebuchet ms', verdana, arial, sans-serif" font-size="16" fill="#333333"><tspan x="296.33" dy="0.00">dagre</tspan></text><rect x="214.01" y="1300.00" width="164.64" height="54.00" rx="3" ry="3" fill="#ECECFF" stroke="#9370DB" stroke-width="1" stroke-linejoin="round" stroke-linecap="round"/><text x="296.33" y="1331.00" text-anchor="middle" font-family="'trebuchet ms', verdana, arial, sans-serif" font-size="16" fill="#333333"><tspan x="296.33" dy="0.00">Browser DOM</tspan></text><polygon points="69.52,62.00 170.63,62.00 148.43,101.00 47.32,101.00" fill="#ECECFF" stroke="#9370DB" stroke-width="1" stroke-linejoin="round" stroke-linecap="round"/><text x="108.98" y="85.50" text-anchor="middle" font-family="'trebuchet ms', verdana, arial, sans-serif" font-size="16" fill="#333333"><tspan x="108.98" dy="0.00">.mmd file</tspan></text><polygon points="256.87,998.00 357.98,998.00 335.79,1037.00 234.68,1037.00" fill="#ECECFF" stroke="#9370DB" stroke-width="1" stroke-linejoin="round" stroke-linecap="round"/><text x="296.33" y="1021.50" text-anchor="middle" font-family="'trebuchet ms', verdana, arial, sans-serif" font-size="16" fill="#333333"><tspan x="296.33" dy="0.00">.mmd file</tspan></text><ellipse cx="108.98" cy="261.93" rx="68.78" ry="7.13" fill="#ECECFF" stroke="#9370DB" stroke-width="1" stroke-linejoin="round" stroke-linecap="round"/><rect x="40.20" y="261.93" width="137.56" height="45.14" fill="#ECECFF" stroke="#9370DB" stroke-width="1" stroke-linejoin="round" stroke-linecap="round"/><ellipse cx="108.98" cy="307.07" rx="68.78" ry="7.13" fill="none" stroke="#9370DB" stroke-width="1" stroke-linejoin="round" stroke-linecap="round"/><text x="108.98" y="288.50" text-anchor="middle" font-family="'trebuchet ms', verdana, arial, sans-serif" font-size="16" fill="#333333"><tspan x="108.98" dy="0.00">Graph IR</tspan></text><rect x="53.94" y="364.00" width="110.06" height="54.00" rx="3" ry="3" fill="#ECECFF" stroke="#9370DB" stroke-width="1" stroke-linejoin="round" stroke-linecap="round"/><text x="108.98" y="395.00" text-anchor="middle" font-family="'trebuchet ms', verdana, arial, sans-serif" font-size="16" fill="#333333"><tspan x="108.98" dy="0.00">Layout</tspan></text><rect x="223.29" y="1087.00" width="146.08" height="54.00" rx="3" ry="3" fill="#ECECFF" stroke="#9370DB" stroke-width="1" stroke-linejoin="round" stroke-linecap="round"/><text x="296.33" y="1118.00" text-anchor="middle" font-family="'trebuchet ms', verdana, arial, sans-serif" font-size="16" fill="#333333"><tspan x="296.33" dy="0.00">mermaid-js</tspan></text><polygon points="81.39,582.00 152.08,582.00 136.57,621.00 65.87,621.00" fill="#ECECFF" stroke="#9370DB" stroke-width="1" stroke-linejoin="round" stroke-linecap="round"/><text x="108.98" y="605.50" text-anchor="middle" font-family="'trebuchet ms', verdana, arial, sans-serif" font-size="16" fill="#333333"><tspan x="108.98" dy="0.00">SVG</tspan></text><polygon points="80.92,785.00 152.82,785.00 137.04,824.00 65.13,824.00" fill="#ECECFF" stroke="#9370DB" stroke-width="1" stroke-linejoin="round" stroke-linecap="round"/><text x="108.98" y="808.50" text-anchor="middle" font-family="'trebuchet ms', verdana, arial, sans-serif" font-size="16" fill="#333333"><tspan x="108.98" dy="0.00">PNG</tspan></text><polygon points="254.94,1721.00 361.00,1721.00 337.72,1760.00 231.65,1760.00" fill="#ECECFF" stroke="#9370DB" stroke-width="1" stroke-linejoin="round" stroke-linecap="round"/><text x="296.33" y="1744.50" text-anchor="middle" font-family="'trebuchet ms', verdana, arial, sans-serif" font-size="16" fill="#333333"><tspan x="296.33" dy="0.00">PNG/SVG</tspan></text><rect x="57.94" y="151.00" width="102.08" height="54.00" rx="3" ry="3" fill="#ECECFF" stroke="#9370DB" stroke-width="1" stroke-linejoin="round" stroke-linecap="round"/><text x="108.98" y="182.00" text-anchor="middle" font-family="'trebuchet ms', verdana, arial, sans-serif" font-size="16" fill="#333333"><tspan x="108.98" dy="0.00">Parse</tspan></text><rect x="228.11" y="1404.00" width="136.43" height="54.00" rx="3" ry="3" fill="#ECECFF" stroke="#9370DB" stroke-width="1" stroke-linejoin="round" stroke-linecap="round"/><text x="296.33" y="1435.00" text-anchor="middle" font-family="'trebuchet ms', verdana, arial, sans-serif" font-size="16" fill="#333333"><tspan x="296.33" dy="0.00">Puppeteer</tspan></text><rect x="52.30" y="468.00" width="113.36" height="54.00" rx="3" ry="3" fill="#ECECFF" stroke="#9370DB" stroke-width="1" stroke-linejoin="round" stroke-linecap="round"/><text x="108.98" y="499.00" text-anchor="middle" font-family="'trebuchet ms', verdana, arial, sans-serif" font-size="16" fill="#333333"><tspan x="108.98" dy="0.00">Render</tspan></text><rect x="58.16" y="681.00" width="101.63" height="54.00" rx="3" ry="3" fill="#ECECFF" stroke="#9370DB" stroke-width="1" stroke-linejoin="round" stroke-linecap="round"/><text x="108.98" y="712.00" text-anchor="middle" font-family="'trebuchet ms', verdana, arial, sans-serif" font-size="16" fill="#333333"><tspan x="108.98" dy="0.00">resvg</tspan></text><rect x="224.16" y="1617.00" width="144.34" height="54.00" rx="3" ry="3" fill="#ECECFF" stroke="#9370DB" stroke-width="1" stroke-linejoin="round" stroke-linecap="round"/><text x="296.33" y="1648.00" text-anchor="middle" font-family="'trebuchet ms', verdana, arial, sans-serif" font-size="16" fill="#333333"><tspan x="296.33" dy="0.00">Screenshot</tspan></text></svg>