<svg xmlns="http://www.w3.org/2000/svg" width="2529" height="200" viewBox="0 0 2529 200"><rect width="100%" height="100%" fill="#FFFFFF"/><defs><marker id="arrow-0" viewBox="0 0 10 10" refX="10" refY="5" markerWidth="8" markerHeight="8" orient="auto-start-reverse"><path d="M 0 0 L 10 5 L 0 10 z" fill="#7A8AA6"/></marker><marker id="arrow-start-0" viewBox="0 0 10 10" refX="0" refY="5" markerWidth="8" markerHeight="8" orient="auto"><path d="M 10 0 L 0 5 L 10 10 z" fill="#7A8AA6"/></marker></defs><rect x="24.00" y="24.00" width="1108.40" height="109.80" rx="10" ry="10" fill="#e7f3e7" stroke="#2e7d32" stroke-width="1.2" /><text x="578.20" y="49.00" text-anchor="middle" font-family="Inter, Segoe UI, system-ui, -apple-system, sans-serif" font-size="13" fill="#1C2430"><tspan x="578.20" dy="0.00">mmdr (Rust - Native)</tspan></text><rect x="1446.00" y="24.00" width="1023.00" height="109.80" rx="10" ry="10" fill="#fff8e7" stroke="#f57c00" stroke-width="1.2" /><text x="1957.50" y="49.00" text-anchor="middle" font-family="Inter, Segoe UI, system-ui, -apple-system, sans-serif" font-size="13" fill="#1C2430"><tspan x="1957.50" dy="0.00">mermaid-cli (Node.js)</tspan></text><path d="M 103.00 109.80 L 103.00 100.58 Q 103.00 91.35 112.22 91.35 L 249.77 91.35 Q 259.00 91.35 259.00 82.12 L 259.00 72.90" fill="none" stroke="#7A8AA6" stroke-width="1.4" marker-end="url(#arrow-0)"   stroke-linecap="round" stroke-linejoin="round" /><path d="M 259.00 109.80 L 259.00 100.58 Q 259.00 91.35 268.23 91.35 L 386.27 91.35 Q 395.50 91.35 395.50 82.12 L 395.50 72.90" fill="none" stroke="#7A8AA6" stroke-width="1.4" marker-end="url(#arrow-0)"   stroke-linecap="round" stroke-linejoin="round" /><path d="M 395.50 109.80 L 395.50 100.58 Q 395.50 91.35 404.73 91.35 L 573.28 91.35 Q 582.50 91.35 582.50 82.12 L 582.50 72.90" fill="none" stroke="#7A8AA6" stroke-width="1.4" marker-end="url(#arrow-0)"   stroke-linecap="round" stroke-linejoin="round" /><path d="M 582.50 109.80 L 582.50 100.58 Q 582.50 91.35 591.72 91.35 L 775.78 91.35 Q 785.00 91.35 785.00 82.12 L 785.00 72.90" fill="none" stroke="#7A8AA6" stroke-width="1.4" marker-end="url(#arrow-0)"   stroke-linecap="round" stroke-linejoin="round" /><path d="M 785.00 109.80 L 785.00 100.58 Q 785.00 91.35 794.22 91.35 L 904.28 91.35 Q 913.50 91.35 913.50 82.12 L 913.50 72.90" fill="none" stroke="#7A8AA6" stroke-width="1.4" marker-end="url(#arrow-0)"   stroke-linecap="round" stroke-linejoin="round" /><path d="M 913.50 109.80 L 913.50 100.58 Q 913.50 91.35 922.72 91.35 L 1040.28 91.35 Q 1049.50 91.35 1049.50 82.12 L 1049.50 72.90" fill="none" stroke="#7A8AA6" stroke-width="1.2" marker-end="url(#arrow-0)"  stroke-dasharray="3 5" stroke-linecap="round" stroke-linejoin="round" /><path d="M 1525.00 109.80 L 1525.00 100.58 Q 1525.00 91.35 1534.22 91.35 L 1706.78 91.35 Q 1716.00 91.35 1716.00 82.12 L 1716.00 72.90" fill="none" stroke="#7A8AA6" stroke-width="1.4" marker-end="url(#arrow-0)"   stroke-linecap="round" stroke-linejoin="round" /><path d="M 1716.00 109.80 L 1716.00 100.58 Q 1716.00 91.35 1725.22 91.35 L 1901.28 91.35 Q 1910.50 91.35 1910.50 82.12 L 1910.50 72.90" fill="none" stroke="#7A8AA6" stroke-width="1.4" marker-end="url(#arrow-0)"   stroke-linecap="round" stroke-linejoin="round" /><path d="M 1910.50 109.80 L 1910.50 100.58 Q 1910.50 91.35 1919.73 91.35 L 2103.77 91.35 Q 2113.00 91.35 2113.00 82.12 L 2113.00 72.90" fill="none" stroke="#7A8AA6" stroke-width="1.4" marker-end="url(#arrow-0)"   stroke-linecap="round" stroke-linejoin="round" /><path d="M 2113.00 109.80 L 2113.00 100.58 Q 2113.00 91.35 2122.23 91.35 L 2341.77 91.35 Q 2351.00 91.35 2351.00 82.12 L 2351.00 72.90" fill="none" stroke="#7A8AA6" stroke-width="1.4" marker-end="url(#arrow-0)"   stroke-linecap="round" stroke-linejoin="round" /><rect x="48.00" y="72.90" width="110.00" height="36.90" rx="6" ry="6" fill="#F8FAFF" stroke="#C7D2E5" stroke-width="1.4" stroke-linejoin="round" stroke-linecap="round"/><text x="103.00" y="95.90" text-anchor="middle" font-family="Inter, Segoe UI, system-ui, -apple-system, sans-serif" font-size="13" fill="#1C2430"><tspan x="103.00" dy="0.00">.mmd input</tspan></text><rect x="1470.00" y="72.90" width="110.00" height="36.90" rx="6" ry="6" fill="#F8FAFF" stroke="#C7D2E5" stroke-width="1.4" stroke-linejoin="round" stroke-linecap="round"/><text x="1525.00" y="95.90" text-anchor="middle" font-family="Inter, Segoe UI, system-ui, -apple-system, sans-serif" font-size="13" fill="#1C2430"><tspan x="1525.00" dy="0.00">.mmd input</tspan></text><rect x="207.90" y="72.90" width="102.20" height="36.90" rx="6" ry="6" fill="#F8FAFF" stroke="#C7D2E5" stroke-width="1.4" stroke-linejoin="round" stroke-linecap="round"/><text x="259.00" y="95.90" text-anchor="middle" font-family="Inter, Segoe UI, system-ui, -apple-system, sans-serif" font-size="13" fill="#1C2430"><tspan x="259.00" dy="0.00">parser.rs</tspan></text><rect x="1629.80" y="72.90" width="172.40" height="36.90" rx="6" ry="6" fill="#F8FAFF" stroke="#C7D2E5" stroke-width="1.4" stroke-linejoin="round" stroke-linecap="round"/><text x="1716.00" y="95.90" text-anchor="middle" font-family="Inter, Segoe UI, system-ui, -apple-system, sans-serif" font-size="13" fill="#1C2430"><tspan x="1716.00" dy="0.00">mermaid-js + dagre</tspan></text><rect x="360.00" y="72.90" width="71.00" height="36.90" rx="6" ry="6" fill="#F8FAFF" stroke="#C7D2E5" stroke-width="1.4" stroke-linejoin="round" stroke-linecap="round"/><text x="395.50" y="95.90" text-anchor="middle" font-family="Inter, Segoe UI, system-ui, -apple-system, sans-serif" font-size="13" fill="#1C2430"><tspan x="395.50" dy="0.00">ir.rs</tspan></text><rect x="1851.60" y="72.90" width="117.80" height="36.90" rx="6" ry="6" fill="#F8FAFF" stroke="#C7D2E5" stroke-width="1.4" stroke-linejoin="round" stroke-linecap="round"/><text x="1910.50" y="95.90" text-anchor="middle" font-family="Inter, Segoe UI, system-ui, -apple-system, sans-serif" font-size="13" fill="#1C2430"><tspan x="1910.50" dy="0.00">Browser DOM</tspan></text><rect x="480.70" y="72.90" width="203.60" height="36.90" rx="6" ry="6" fill="#F8FAFF" stroke="#C7D2E5" stroke-width="1.4" stroke-linejoin="round" stroke-linecap="round"/><text x="582.50" y="95.90" text-anchor="middle" font-family="Inter, Segoe UI, system-ui, -apple-system, sans-serif" font-size="13" fill="#1C2430"><tspan x="582.50" dy="0.00">layout.rs + dagre_rust</tspan></text><rect x="2019.00" y="72.90" width="188.00" height="36.90" rx="6" ry="6" fill="#F8FAFF" stroke="#C7D2E5" stroke-width="1.4" stroke-linejoin="round" stroke-linecap="round"/><text x="2113.00" y="95.90" text-anchor="middle" font-family="Inter, Segoe UI, system-ui, -apple-system, sans-serif" font-size="13" fill="#1C2430"><tspan x="2113.00" dy="0.00">Puppeteer + Chromium</tspan></text><rect x="733.90" y="72.90" width="102.20" height="36.90" rx="6" ry="6" fill="#F8FAFF" stroke="#C7D2E5" stroke-width="1.4" stroke-linejoin="round" stroke-linecap="round"/><text x="785.00" y="95.90" text-anchor="middle" font-family="Inter, Segoe UI, system-ui, -apple-system, sans-serif" font-size="13" fill="#1C2430"><tspan x="785.00" dy="0.00">render.rs</tspan></text><rect x="2257.00" y="72.90" width="188.00" height="36.90" rx="6" ry="6" fill="#F8FAFF" stroke="#C7D2E5" stroke-width="1.4" stroke-linejoin="round" stroke-linecap="round"/><text x="2351.00" y="95.90" text-anchor="middle" font-family="Inter, Segoe UI, system-ui, -apple-system, sans-serif" font-size="13" fill="#1C2430"><tspan x="2351.00" dy="0.00">Screenshot → PNG/SVG</tspan></text><rect x="885.80" y="72.90" width="55.40" height="36.90" rx="6" ry="6" fill="#F8FAFF" stroke="#C7D2E5" stroke-width="1.4" stroke-linejoin="round" stroke-linecap="round"/><text x="913.50" y="95.90" text-anchor="middle" font-family="Inter, Segoe UI, system-ui, -apple-system, sans-serif" font-size="13" fill="#1C2430"><tspan x="913.50" dy="0.00">SVG</tspan></text><rect x="990.60" y="72.90" width="117.80" height="36.90" rx="6" ry="6" fill="#F8FAFF" stroke="#C7D2E5" stroke-width="1.4" stroke-linejoin="round" stroke-linecap="round"/><text x="1049.50" y="95.90" text-anchor="middle" font-family="Inter, Segoe UI, system-ui, -apple-system, sans-serif" font-size="13" fill="#1C2430"><tspan x="1049.50" dy="0.00">resvg → PNG</tspan></text></svg>