<svg xmlns="http://www.w3.org/2000/svg" width="487.80002" height="667.0499" viewBox="0 0 487.80002 667.0499"><rect width="100%" height="100%" fill="#FFFFFF"/><defs><marker id="arrow-0" viewBox="0 0 10 10" refX="10" refY="5" markerWidth="8" markerHeight="8" orient="auto-start-reverse"><path d="M 0 0 L 10 5 L 0 10 z" fill="#7A8AA6"/></marker><marker id="arrow-start-0" viewBox="0 0 10 10" refX="0" refY="5" markerWidth="8" markerHeight="8" orient="auto"><path d="M 10 0 L 0 5 L 10 10 z" fill="#7A8AA6"/></marker></defs><rect x="24.00" y="24.00" width="396.00" height="573.70" rx="10" ry="10" fill="#F7FAFF" stroke="#D7E0F0" stroke-width="1.2" /><text x="222.00" y="49.00" text-anchor="middle" font-family="Inter, Segoe UI, system-ui, -apple-system, sans-serif" font-size="13" fill="#1C2430"><tspan x="222.00" dy="0.00">Rust Renderer (this</tspan><tspan x="222.00" dy="16.90">project)</tspan></text><rect x="24.00" y="136.25" width="403.80" height="470.80" rx="10" ry="10" fill="#F7FAFF" stroke="#D7E0F0" stroke-width="1.2" /><text x="225.90" y="161.25" text-anchor="middle" font-family="Inter, Segoe UI, system-ui, -apple-system, sans-serif" font-size="13" fill="#1C2430"><tspan x="225.90" dy="0.00">Mermaid CLI (mmdc)</tspan></text><path d="M 189.20 108.25 L 130.60 108.25 Q 118.60 108.25 118.60 120.25 L 118.60 182.25 Q 118.60 194.25 106.60 194.25 L 48.00 194.25" fill="none" stroke="#7A8AA6" stroke-width="1.4" marker-end="url(#arrow-0)"   stroke-linecap="round" stroke-linejoin="round" /><path d="M 204.80 194.25 L 188.15 194.25 Q 176.15 194.25 176.15 206.25 L 176.15 276.75 Q 176.15 288.75 164.15 288.75 L 147.50 288.75" fill="none" stroke="#7A8AA6" stroke-width="1.4" marker-end="url(#arrow-0)"   stroke-linecap="round" stroke-linejoin="round" /><path d="M 304.30 288.75 L 245.70 288.75 Q 233.70 288.75 233.70 300.75 L 233.70 371.25 Q 233.70 383.25 221.70 383.25 L 163.10 383.25" fill="none" stroke="#7A8AA6" stroke-width="1.4" marker-end="url(#arrow-0)"   stroke-linecap="round" stroke-linejoin="round" /><path d="M 288.70 383.25 L 230.10 383.25 Q 218.10 383.25 218.10 395.25 L 218.10 457.25 Q 218.10 469.25 206.10 469.25 L 147.50 469.25" fill="none" stroke="#7A8AA6" stroke-width="1.4" marker-end="url(#arrow-0)"   stroke-linecap="round" stroke-linejoin="round" /><path d="M 304.30 469.25 L 251.55 469.25 Q 239.55 469.25 239.55 481.25 L 239.55 543.25 Q 239.55 555.25 227.55 555.25 L 174.80 555.25" fill="none" stroke="#7A8AA6" stroke-width="1.4" marker-end="url(#arrow-0)"   stroke-linecap="round" stroke-linejoin="round" /><path d="M 396.00 194.25 L 283.75 194.25 Q 271.75 194.25 271.75 206.25 L 271.75 276.75 Q 271.75 288.75 259.75 288.75 L 147.50 288.75" fill="none" stroke="#7A8AA6" stroke-width="1.4" marker-end="url(#arrow-0)"   stroke-linecap="round" stroke-linejoin="round" /><path d="M 193.10 203.60 L 132.55 203.60 Q 120.55 203.60 120.55 215.60 L 120.55 277.60 Q 120.55 289.60 108.55 289.60 L 48.00 289.60" fill="none" stroke="#7A8AA6" stroke-width="1.4" marker-end="url(#arrow-0)"   stroke-linecap="round" stroke-linejoin="round" /><path d="M 212.60 289.60 L 189.12 289.60 Q 177.12 289.60 177.12 301.60 L 177.12 372.10 Q 177.12 384.10 165.12 384.10 L 141.65 384.10" fill="none" stroke="#7A8AA6" stroke-width="1.4" marker-end="url(#arrow-0)"   stroke-linecap="round" stroke-linejoin="round" /><path d="M 321.85 384.10 L 241.80 384.10 Q 229.80 384.10 229.80 396.10 L 229.80 466.60 Q 229.80 478.60 217.80 478.60 L 137.75 478.60" fill="none" stroke="#7A8AA6" stroke-width="1.4" marker-end="url(#arrow-0)"   stroke-linecap="round" stroke-linejoin="round" /><path d="M 325.75 478.60 L 265.20 478.60 Q 253.20 478.60 253.20 490.60 L 253.20 552.60 Q 253.20 564.60 241.20 564.60 L 180.65 564.60" fill="none" stroke="#7A8AA6" stroke-width="1.4" marker-end="url(#arrow-0)"   stroke-linecap="round" stroke-linejoin="round" /><path d="M 403.80 289.60 L 284.73 289.60 Q 272.73 289.60 272.73 301.60 L 272.73 372.10 Q 272.73 384.10 260.73 384.10 L 141.65 384.10" fill="none" stroke="#7A8AA6" stroke-width="1.4" marker-end="url(#arrow-0)"   stroke-linecap="round" stroke-linejoin="round" /><rect x="63.60" y="89.80" width="125.60" height="36.90" rx="6" ry="6" fill="#F8FAFF" stroke="#C7D2E5" stroke-width="1.4" stroke-linejoin="round" stroke-linecap="round"/><text x="126.40" y="112.80" text-anchor="middle" font-family="Inter, Segoe UI, system-ui, -apple-system, sans-serif" font-size="13" fill="#1C2430"><tspan x="126.40" dy="0.00">Mermaid text</tspan></text><rect x="67.50" y="185.15" width="125.60" height="36.90" rx="6" ry="6" fill="#F8FAFF" stroke="#C7D2E5" stroke-width="1.4" stroke-linejoin="round" stroke-linecap="round"/><text x="130.30" y="208.15" text-anchor="middle" font-family="Inter, Segoe UI, system-ui, -apple-system, sans-serif" font-size="13" fill="#1C2430"><tspan x="130.30" dy="0.00">Mermaid text</tspan></text><rect x="48.00" y="175.80" width="156.80" height="36.90" rx="6" ry="6" fill="#F8FAFF" stroke="#C7D2E5" stroke-width="1.4" stroke-linejoin="round" stroke-linecap="round"/><text x="126.40" y="198.80" text-anchor="middle" font-family="Inter, Segoe UI, system-ui, -apple-system, sans-serif" font-size="13" fill="#1C2430"><tspan x="126.40" dy="0.00">Rust parser / IR</tspan></text><rect x="48.00" y="271.15" width="164.60" height="36.90" rx="6" ry="6" fill="#F8FAFF" stroke="#C7D2E5" stroke-width="1.4" stroke-linejoin="round" stroke-linecap="round"/><text x="130.30" y="294.15" text-anchor="middle" font-family="Inter, Segoe UI, system-ui, -apple-system, sans-serif" font-size="13" fill="#1C2430"><tspan x="130.30" dy="0.00">mermaid-js parser</tspan></text><rect x="147.50" y="261.85" width="156.80" height="53.80" rx="6" ry="6" fill="#F8FAFF" stroke="#C7D2E5" stroke-width="1.4" stroke-linejoin="round" stroke-linecap="round"/><text x="225.90" y="284.85" text-anchor="middle" font-family="Inter, Segoe UI, system-ui, -apple-system, sans-serif" font-size="13" fill="#1C2430"><tspan x="225.90" dy="0.00">Layout + overlap</tspan><tspan x="225.90" dy="16.90">avoidance</tspan></text><rect x="141.65" y="357.20" width="180.20" height="53.80" rx="6" ry="6" fill="#F8FAFF" stroke="#C7D2E5" stroke-width="1.4" stroke-linejoin="round" stroke-linecap="round"/><text x="231.75" y="380.20" text-anchor="middle" font-family="Inter, Segoe UI, system-ui, -apple-system, sans-serif" font-size="13" fill="#1C2430"><tspan x="231.75" dy="0.00">mermaid-js layout +</tspan><tspan x="231.75" dy="16.90">SVG</tspan></text><rect x="163.10" y="364.80" width="125.60" height="36.90" rx="6" ry="6" fill="#F8FAFF" stroke="#C7D2E5" stroke-width="1.4" stroke-linejoin="round" stroke-linecap="round"/><text x="225.90" y="387.80" text-anchor="middle" font-family="Inter, Segoe UI, system-ui, -apple-system, sans-serif" font-size="13" fill="#1C2430"><tspan x="225.90" dy="0.00">SVG renderer</tspan></text><rect x="137.75" y="460.15" width="188.00" height="36.90" rx="6" ry="6" fill="#F8FAFF" stroke="#C7D2E5" stroke-width="1.4" stroke-linejoin="round" stroke-linecap="round"/><text x="231.75" y="483.15" text-anchor="middle" font-family="Inter, Segoe UI, system-ui, -apple-system, sans-serif" font-size="13" fill="#1C2430"><tspan x="231.75" dy="0.00">Puppeteer / Chromium</tspan></text><rect x="147.50" y="450.80" width="156.80" height="36.90" rx="6" ry="6" fill="#F8FAFF" stroke="#C7D2E5" stroke-width="1.4" stroke-linejoin="round" stroke-linecap="round"/><text x="225.90" y="473.80" text-anchor="middle" font-family="Inter, Segoe UI, system-ui, -apple-system, sans-serif" font-size="13" fill="#1C2430"><tspan x="225.90" dy="0.00">resvg rasterizer</tspan></text><rect x="180.65" y="546.15" width="102.20" height="36.90" rx="6" ry="6" fill="#F8FAFF" stroke="#C7D2E5" stroke-width="1.4" stroke-linejoin="round" stroke-linecap="round"/><text x="231.75" y="569.15" text-anchor="middle" font-family="Inter, Segoe UI, system-ui, -apple-system, sans-serif" font-size="13" fill="#1C2430"><tspan x="231.75" dy="0.00">PNG / PDF</tspan></text><rect x="174.80" y="536.80" width="102.20" height="36.90" rx="6" ry="6" fill="#F8FAFF" stroke="#C7D2E5" stroke-width="1.4" stroke-linejoin="round" stroke-linecap="round"/><text x="225.90" y="559.80" text-anchor="middle" font-family="Inter, Segoe UI, system-ui, -apple-system, sans-serif" font-size="13" fill="#1C2430"><tspan x="225.90" dy="0.00">PNG / PDF</tspan></text><rect x="254.80" y="175.80" width="141.20" height="36.90" rx="6" ry="6" fill="#F8FAFF" stroke="#C7D2E5" stroke-width="1.4" stroke-linejoin="round" stroke-linecap="round"/><text x="325.40" y="198.80" text-anchor="middle" font-family="Inter, Segoe UI, system-ui, -apple-system, sans-serif" font-size="13" fill="#1C2430"><tspan x="325.40" dy="0.00">Theme + config</tspan></text><rect x="262.60" y="271.15" width="141.20" height="36.90" rx="6" ry="6" fill="#F8FAFF" stroke="#C7D2E5" stroke-width="1.4" stroke-linejoin="round" stroke-linecap="round"/><text x="333.20" y="294.15" text-anchor="middle" font-family="Inter, Segoe UI, system-ui, -apple-system, sans-serif" font-size="13" fill="#1C2430"><tspan x="333.20" dy="0.00">Theme + config</tspan></text></svg>