<svg xmlns="http://www.w3.org/2000/svg" viewBox="0 0 600 300">
<style>
  .title { font: bold 14px sans-serif; }
  .tick-label { font: 10px sans-serif; }
  .legend { font: 11px sans-serif; }
  .bar-parse { fill: #4CAF50; }
  .bar-layout { fill: #2196F3; }
  .bar-render { fill: #FF9800; }
</style>
<text x="300.0" y="25" text-anchor="middle" class="title">mmdr Pipeline Breakdown</text>
<rect x="100" y="40.93103448275862" width="23.906275109509863" height="4.344827586206896" class="bar-parse"/>
<rect x="123.90627510950986" y="40.93103448275862" width="87.14387911147975" height="4.344827586206896" class="bar-layout"/>
<text x="167.47821466524974" y="47.103448275862064" text-anchor="middle" fill="white" font-size="9">4.47</text>
<rect x="211.0501542209896" y="40.93103448275862" width="0.8624970840569192" height="4.344827586206896" class="bar-render"/>
<text x="95" y="47.103448275862064" text-anchor="end" class="tick-label">flowchart small</text>
<rect x="100" y="47.137931034482754" width="24.274176408076514" height="4.344827586206896" class="bar-parse"/>
<rect x="124.27417640807651" y="47.137931034482754" width="120.53762214561573" height="4.344827586206896" class="bar-layout"/>
<text x="184.5429874808844" y="53.3103448275862" text-anchor="middle" fill="white" font-size="9">6.18</text>
<rect x="244.81179855369226" y="47.137931034482754" width="2.0904590342396516" height="4.344827586206896" class="bar-render"/>
<text x="95" y="53.3103448275862" text-anchor="end" class="tick-label">flowchart medium</text>
<rect x="100" y="53.3448275862069" width="31.67849459578549" height="4.344827586206896" class="bar-parse"/>
<text x="115.83924729789274" y="59.51724137931034" text-anchor="middle" fill="white" font-size="9">1.63</text>
<rect x="131.67849459578548" y="53.3448275862069" width="429.71115315829036" height="4.344827586206896" class="bar-layout"/>
<text x="346.53407117493066" y="59.51724137931034" text-anchor="middle" fill="white" font-size="9">22.05</text>
<rect x="561.3896477540759" y="53.3448275862069" width="8.61035224592416" height="4.344827586206896" class="bar-render"/>
<text x="95" y="59.51724137931034" text-anchor="end" class="tick-label">flowchart large</text>
<rect x="100" y="59.55172413793103" width="7.041289754024001" height="4.344827586206896" class="bar-parse"/>
<rect x="107.041289754024" y="59.55172413793103" width="106.02135766309841" height="4.344827586206896" class="bar-layout"/>
<text x="160.0519685855732" y="65.72413793103448" text-anchor="middle" fill="white" font-size="9">5.44</text>
<rect x="213.06264741712243" y="59.55172413793103" width="2.416940981312045" height="4.344827586206896" class="bar-render"/>
<text x="95" y="65.72413793103448" text-anchor="end" class="tick-label">class medium</text>
<rect x="100" y="65.75862068965517" width="6.707498509629092" height="4.344827586206896" class="bar-parse"/>
<rect x="106.70749850962909" y="65.75862068965517" width="122.04333739405406" height="4.344827586206896" class="bar-layout"/>
<text x="167.72916720665611" y="71.93103448275862" text-anchor="middle" fill="white" font-size="9">6.26</text>
<rect x="228.75083590368314" y="65.75862068965517" width="1.5373888701692542" height="4.344827586206896" class="bar-render"/>
<text x="95" y="71.93103448275862" text-anchor="end" class="tick-label">state medium</text>
<rect x="100" y="71.96551724137932" width="7.51395764754672" height="4.344827586206896" class="bar-parse"/>
<rect x="107.51395764754672" y="71.96551724137932" width="113.16010471475596" height="4.344827586206896" class="bar-layout"/>
<text x="164.0940100049247" y="78.13793103448276" text-anchor="middle" fill="white" font-size="9">5.81</text>
<rect x="220.67406236230266" y="71.96551724137932" width="1.4033850859231225" height="4.344827586206896" class="bar-render"/>
<text x="95" y="78.13793103448276" text-anchor="end" class="tick-label">sequence medium</text>
<rect x="100" y="78.17241379310344" width="5.676887587154299" height="4.344827586206896" class="bar-parse"/>
<rect x="105.6768875871543" y="78.17241379310344" width="83.3503538010938" height="4.344827586206896" class="bar-layout"/>
<text x="147.3520644877012" y="84.34482758620689" text-anchor="middle" fill="white" font-size="9">4.28</text>
<rect x="189.02724138824811" y="78.17241379310344" width="1.1694875716026023" height="4.344827586206896" class="bar-render"/>
<text x="95" y="84.34482758620689" text-anchor="end" class="tick-label">er medium</text>
<rect x="100" y="84.37931034482759" width="7.526139809750914" height="4.344827586206896" class="bar-parse"/>
<rect x="107.52613980975092" y="84.37931034482759" width="93.72955599906689" height="4.344827586206896" class="bar-layout"/>
<text x="154.39091780928436" y="90.55172413793103" text-anchor="middle" fill="white" font-size="9">4.81</text>
<rect x="201.2556958088178" y="84.37931034482759" width="0.9989373007438894" height="4.344827586206896" class="bar-render"/>
<text x="95" y="90.55172413793103" text-anchor="end" class="tick-label">pie medium</text>
<rect x="100" y="90.58620689655173" width="6.059407480365984" height="4.344827586206896" class="bar-parse"/>
<rect x="106.05940748036599" y="90.58620689655173" width="84.18117726341983" height="4.344827586206896" class="bar-layout"/>
<text x="148.1499961120759" y="96.75862068965517" text-anchor="middle" fill="white" font-size="9">4.32</text>
<rect x="190.2405847437858" y="90.58620689655173" width="1.3887664912780902" height="4.344827586206896" class="bar-render"/>
<text x="95" y="96.75862068965517" text-anchor="end" class="tick-label">mindmap medium</text>
<rect x="100" y="96.79310344827586" width="5.718306938648557" height="4.344827586206896" class="bar-parse"/>
<rect x="105.71830693864855" y="96.79310344827586" width="97.0869599025427" height="4.344827586206896" class="bar-layout"/>
<text x="154.2617868899199" y="102.9655172413793" text-anchor="middle" fill="white" font-size="9">4.98</text>
<rect x="202.80526684119127" y="96.79310344827586" width="0.8210777325626605" height="4.344827586206896" class="bar-render"/>
<text x="95" y="102.9655172413793" text-anchor="end" class="tick-label">journey medium</text>
<rect x="100" y="103.0" width="7.250822943936134" height="4.344827586206896" class="bar-parse"/>
<rect x="107.25082294393613" y="103.0" width="121.74121977139006" height="4.344827586206896" class="bar-layout"/>
<text x="168.12143282963115" y="109.17241379310344" text-anchor="middle" fill="white" font-size="9">6.25</text>
<rect x="228.9920427153262" y="103.0" width="0.9355900572820818" height="4.344827586206896" class="bar-render"/>
<text x="95" y="109.17241379310344" text-anchor="end" class="tick-label">timeline medium</text>
<rect x="100" y="109.20689655172414" width="7.194784997796843" height="4.344827586206896" class="bar-parse"/>
<rect x="107.19478499779684" y="109.20689655172414" width="122.32352712475054" height="4.344827586206896" class="bar-layout"/>
<text x="168.35654856017212" y="115.37931034482759" text-anchor="middle" fill="white" font-size="9">6.28</text>
<rect x="229.5183121225474" y="109.20689655172414" width="0.7674762188642078" height="4.344827586206896" class="bar-render"/>
<text x="95" y="115.37931034482759" text-anchor="end" class="tick-label">gantt medium</text>
<rect x="100" y="115.41379310344827" width="6.6831341852207045" height="4.344827586206896" class="bar-parse"/>
<rect x="106.68313418522071" y="115.41379310344827" width="118.5641118685363" height="4.344827586206896" class="bar-layout"/>
<text x="165.96519011948885" y="121.58620689655172" text-anchor="middle" fill="white" font-size="9">6.08</text>
<rect x="225.247246053757" y="115.41379310344827" width="1.0086830305072445" height="4.344827586206896" class="bar-render"/>
<text x="95" y="121.58620689655172" text-anchor="end" class="tick-label">requirement medium</text>
<rect x="100" y="121.62068965517241" width="5.901039371711465" height="4.344827586206896" class="bar-parse"/>
<rect x="105.90103937171146" y="121.62068965517241" width="89.68264171483372" height="4.344827586206896" class="bar-layout"/>
<text x="150.74236022912834" y="127.79310344827586" text-anchor="middle" fill="white" font-size="9">4.60</text>
<rect x="195.5836810865452" y="121.62068965517241" width="0.7406754620149815" height="4.344827586206896" class="bar-render"/>
<text x="95" y="127.79310344827586" text-anchor="end" class="tick-label">gitgraph medium</text>
<rect x="100" y="127.82758620689656" width="5.728052668411912" height="4.344827586206896" class="bar-parse"/>
<rect x="105.72805266841192" y="127.82758620689656" width="83.60374277494104" height="4.344827586206896" class="bar-layout"/>
<text x="147.52992405588245" y="134.0" text-anchor="middle" fill="white" font-size="9">4.29</text>
<rect x="189.33179544335297" y="127.82758620689656" width="1.1597418418392473" height="4.344827586206896" class="bar-render"/>
<text x="95" y="134.0" text-anchor="end" class="tick-label">c4 medium</text>
<rect x="100" y="134.0344827586207" width="4.97032217931106" height="4.344827586206896" class="bar-parse"/>
<rect x="104.97032217931105" y="134.0344827586207" width="76.97664653585963" height="4.344827586206896" class="bar-layout"/>
<text x="143.45864544724088" y="140.20689655172416" text-anchor="middle" fill="white" font-size="9">3.95</text>
<rect x="181.94696871517067" y="134.0344827586207" width="0.5189601098986548" height="4.344827586206896" class="bar-render"/>
<text x="95" y="140.20689655172416" text-anchor="end" class="tick-label">sankey medium</text>
<rect x="100" y="140.24137931034485" width="5.335787045436874" height="4.344827586206896" class="bar-parse"/>
<rect x="105.33578704543687" y="140.24137931034485" width="77.67833907882118" height="4.344827586206896" class="bar-layout"/>
<text x="144.17495658484745" y="146.4137931034483" text-anchor="middle" fill="white" font-size="9">3.99</text>
<rect x="183.01412612425804" y="140.24137931034485" width="0.5896166506829787" height="4.344827586206896" class="bar-render"/>
<text x="95" y="146.4137931034483" text-anchor="end" class="tick-label">quadrant medium</text>
<rect x="100" y="146.44827586206898" width="5.199346828749902" height="4.344827586206896" class="bar-parse"/>
<rect x="105.1993468287499" y="146.44827586206898" width="81.12101811772635" height="4.344827586206896" class="bar-layout"/>
<text x="145.75985588761307" y="152.62068965517244" text-anchor="middle" fill="white" font-size="9">4.16</text>
<rect x="186.32036494647625" y="146.44827586206898" width="0.6042352453280112" height="4.344827586206896" class="bar-render"/>
<text x="95" y="152.62068965517244" text-anchor="end" class="tick-label">zenuml medium</text>
<rect x="100" y="152.6551724137931" width="18.005235737798397" height="4.344827586206896" class="bar-parse"/>
<rect x="118.0052357377984" y="152.6551724137931" width="100.2055934268163" height="4.344827586206896" class="bar-layout"/>
<text x="168.10803245120655" y="158.82758620689657" text-anchor="middle" fill="white" font-size="9">5.14</text>
<rect x="218.21082916461472" y="152.6551724137931" width="0.5603794613929136" height="4.344827586206896" class="bar-render"/>
<text x="95" y="158.82758620689657" text-anchor="end" class="tick-label">block medium</text>
<rect x="100" y="158.86206896551724" width="5.22371115315829" height="4.344827586206896" class="bar-parse"/>
<rect x="105.22371115315829" y="158.86206896551724" width="80.07335216816568" height="4.344827586206896" class="bar-layout"/>
<text x="145.26038723724113" y="165.0344827586207" text-anchor="middle" fill="white" font-size="9">4.11</text>
<rect x="185.29706332132398" y="158.86206896551724" width="0.4921593530494285" height="4.344827586206896" class="bar-render"/>
<text x="95" y="165.0344827586207" text-anchor="end" class="tick-label">packet medium</text>
<rect x="100" y="165.0689655172414" width="14.019232264586195" height="4.344827586206896" class="bar-parse"/>
<rect x="114.0192322645862" y="165.0689655172414" width="111.79082968300459" height="4.344827586206896" class="bar-layout"/>
<text x="169.9146471060885" y="171.24137931034485" text-anchor="middle" fill="white" font-size="9">5.74</text>
<rect x="225.81006194759078" y="165.0689655172414" width="0.8040227054767891" height="4.344827586206896" class="bar-render"/>
<text x="95" y="171.24137931034485" text-anchor="end" class="tick-label">kanban medium</text>
<rect x="100" y="171.27586206896552" width="7.048599051346517" height="4.344827586206896" class="bar-parse"/>
<rect x="107.04859905134651" y="171.27586206896552" width="96.48028822477384" height="4.344827586206896" class="bar-layout"/>
<text x="155.28874316373344" y="177.44827586206898" text-anchor="middle" fill="white" font-size="9">4.95</text>
<rect x="203.52888727612037" y="171.27586206896552" width="0.6505274617039475" height="4.344827586206896" class="bar-render"/>
<text x="95" y="177.44827586206898" text-anchor="end" class="tick-label">architecture medium</text>
<rect x="100" y="177.48275862068968" width="6.532075373888702" height="4.344827586206896" class="bar-parse"/>
<rect x="106.5320753738887" y="177.48275862068968" width="110.73829086856225" height="4.344827586206896" class="bar-layout"/>
<text x="161.90122080816982" y="183.65517241379314" text-anchor="middle" fill="white" font-size="9">5.68</text>
<rect x="217.27036624245096" y="177.48275862068968" width="0.9258443275187269" height="4.344827586206896" class="bar-render"/>
<text x="95" y="183.65517241379314" text-anchor="end" class="tick-label">radar medium</text>
<rect x="100" y="183.6896551724138" width="5.321168450791841" height="4.344827586206896" class="bar-parse"/>
<rect x="105.32116845079184" y="183.6896551724138" width="82.18330266193205" height="4.344827586206896" class="bar-layout"/>
<text x="146.41281978175786" y="189.86206896551727" text-anchor="middle" fill="white" font-size="9">4.22</text>
<rect x="187.50447111272388" y="183.6896551724138" width="0.6334724346180762" height="4.344827586206896" class="bar-render"/>
<text x="95" y="189.86206896551727" text-anchor="end" class="tick-label">treemap medium</text>
<rect x="100" y="189.89655172413794" width="7.216712889764392" height="4.344827586206896" class="bar-parse"/>
<rect x="107.2167128897644" y="189.89655172413794" width="110.29486016432959" height="4.344827586206896" class="bar-layout"/>
<text x="162.3641429719292" y="196.0689655172414" text-anchor="middle" fill="white" font-size="9">5.66</text>
<rect x="217.511573054094" y="189.89655172413794" width="1.103703895699956" height="4.344827586206896" class="bar-render"/>
<text x="95" y="196.0689655172414" text-anchor="end" class="tick-label">xychart medium</text>
<rect x="100" y="196.1034482758621" width="23.00723153884036" height="4.344827586206896" class="bar-parse"/>
<rect x="123.00723153884036" y="196.1034482758621" width="83.70363650501541" height="4.344827586206896" class="bar-layout"/>
<text x="164.85904979134807" y="202.27586206896555" text-anchor="middle" fill="white" font-size="9">4.29</text>
<rect x="206.71086804385578" y="196.1034482758621" width="1.2401441123869261" height="4.344827586206896" class="bar-render"/>
<text x="95" y="202.27586206896555" text-anchor="end" class="tick-label">flowchart</text>
<rect x="100" y="202.31034482758622" width="5.8182006687229455" height="4.344827586206896" class="bar-parse"/>
<rect x="105.81820066872295" y="202.31034482758622" width="81.51572017314223" height="4.344827586206896" class="bar-layout"/>
<text x="146.57606075529407" y="208.48275862068968" text-anchor="middle" fill="white" font-size="9">4.18</text>
<rect x="187.33392084186517" y="202.31034482758622" width="0.7577304891008527" height="4.344827586206896" class="bar-render"/>
<text x="95" y="208.48275862068968" text-anchor="end" class="tick-label">sequence</text>
<rect x="100" y="208.51724137931035" width="6.977942510562194" height="4.344827586206896" class="bar-parse"/>
<rect x="106.9779425105622" y="208.51724137931035" width="118.32777792177498" height="4.344827586206896" class="bar-layout"/>
<text x="166.14183147144968" y="214.6896551724138" text-anchor="middle" fill="white" font-size="9">6.07</text>
<rect x="225.30572043233718" y="208.51724137931035" width="1.201161193333506" height="4.344827586206896" class="bar-render"/>
<text x="95" y="214.6896551724138" text-anchor="end" class="tick-label">class</text>
<rect x="100" y="214.7241379310345" width="6.8658666182836114" height="4.344827586206896" class="bar-parse"/>
<rect x="106.8658666182836" y="214.7241379310345" width="122.53306031466265" height="4.344827586206896" class="bar-layout"/>
<text x="168.13239677561492" y="220.89655172413796" text-anchor="middle" fill="white" font-size="9">6.29</text>
<rect x="229.39892693294627" y="214.7241379310345" width="1.6177911407169334" height="4.344827586206896" class="bar-render"/>
<text x="95" y="220.89655172413796" text-anchor="end" class="tick-label">state</text>
<rect x="100" y="270" width="12" height="12" class="bar-parse"/>
<text x="117" y="280" class="legend">Parse</text>
<rect x="180" y="270" width="12" height="12" class="bar-layout"/>
<text x="197" y="280" class="legend">Layout</text>
<rect x="270" y="270" width="12" height="12" class="bar-render"/>
<text x="287" y="280" class="legend">Render</text>
</svg>