<svg xmlns="http://www.w3.org/2000/svg" viewBox="0 0 600 300">
<style>
  .title { font: bold 14px sans-serif; }
  .tick-label { font: 10px sans-serif; }
  .legend { font: 11px sans-serif; }
  .bar-parse { fill: #4CAF50; }
  .bar-layout { fill: #2196F3; }
  .bar-render { fill: #FF9800; }
</style>
<text x="300.0" y="25" text-anchor="middle" class="title">mmdr Pipeline Breakdown</text>
<rect x="100" y="40.55102040816327" width="13.518761278899522" height="2.571428571428571" class="bar-parse"/>
<rect x="113.51876127889952" y="40.55102040816327" width="4.290209631470826" height="2.571428571428571" class="bar-layout"/>
<rect x="117.80897091037035" y="40.55102040816327" width="0.5307750803000897" height="2.571428571428571" class="bar-render"/>
<text x="95" y="45.83673469387755" text-anchor="end" class="tick-label">flowchart small</text>
<rect x="100" y="44.22448979591837" width="16.301996436151498" height="2.571428571428571" class="bar-parse"/>
<rect x="116.3019964361515" y="44.22448979591837" width="42.639375986017" height="2.571428571428571" class="bar-layout"/>
<text x="137.62168442915998" y="49.51020408163266" text-anchor="middle" fill="white" font-size="9">4.00</text>
<rect x="158.9413724221685" y="44.22448979591837" width="4.240866219483129" height="2.571428571428571" class="bar-render"/>
<text x="95" y="49.51020408163266" text-anchor="end" class="tick-label">flowchart medium</text>
<rect x="100" y="47.89795918367347" width="19.217258560613796" height="2.571428571428571" class="bar-parse"/>
<rect x="119.2172585606138" y="47.89795918367347" width="433.2591621551069" height="2.571428571428571" class="bar-layout"/>
<text x="335.84683963816724" y="53.183673469387756" text-anchor="middle" fill="white" font-size="9">40.61</text>
<rect x="552.4764207157207" y="47.89795918367347" width="17.523579284279343" height="2.571428571428571" class="bar-render"/>
<text x="95" y="53.183673469387756" text-anchor="end" class="tick-label">flowchart large</text>
<rect x="100" y="51.57142857142858" width="13.149352491856494" height="2.571428571428571" class="bar-parse"/>
<rect x="113.14935249185649" y="51.57142857142858" width="1.2095803965632697" height="2.571428571428571" class="bar-layout"/>
<rect x="114.35893288841976" y="51.57142857142858" width="0.2880588375497974" height="2.571428571428571" class="bar-render"/>
<text x="95" y="56.85714285714286" text-anchor="end" class="tick-label">flowchart tiny</text>
<rect x="100" y="55.244897959183675" width="15.179100411999046" height="2.571428571428571" class="bar-parse"/>
<rect x="115.17910041199904" y="55.244897959183675" width="417.8520151633809" height="2.571428571428571" class="bar-layout"/>
<text x="324.1051079936895" y="60.53061224489796" text-anchor="middle" fill="white" font-size="9">39.17</text>
<rect x="533.0311155753799" y="55.244897959183675" width="10.44480007263895" height="2.571428571428571" class="bar-render"/>
<text x="95" y="60.53061224489796" text-anchor="end" class="tick-label">flowchart ports heavy</text>
<rect x="100" y="58.91836734693878" width="17.660940674407254" height="2.571428571428571" class="bar-parse"/>
<rect x="117.66094067440726" y="58.91836734693878" width="126.49783785624298" height="2.571428571428571" class="bar-layout"/>
<text x="180.90985960252874" y="64.20408163265307" text-anchor="middle" fill="white" font-size="9">11.86</text>
<rect x="244.15877853065024" y="58.91836734693878" width="8.70977901869318" height="2.571428571428571" class="bar-render"/>
<text x="95" y="64.20408163265307" text-anchor="end" class="tick-label">flowchart weave</text>
<rect x="100" y="62.591836734693885" width="20.853592790584177" height="2.571428571428571" class="bar-parse"/>
<rect x="120.85359279058417" y="62.591836734693885" width="82.1301088449272" height="2.571428571428571" class="bar-layout"/>
<text x="161.91864721304776" y="67.87755102040816" text-anchor="middle" fill="white" font-size="9">7.70</text>
<rect x="202.98370163551135" y="62.591836734693885" width="4.806315048747546" height="2.571428571428571" class="bar-render"/>
<text x="95" y="67.87755102040816" text-anchor="end" class="tick-label">flowchart backedges subgraphs</text>
<rect x="100" y="66.26530612244899" width="22.60728432474151" height="2.571428571428571" class="bar-parse"/>
<rect x="122.60728432474151" y="66.26530612244899" width="38.88794306922265" height="2.571428571428571" class="bar-layout"/>
<text x="142.05125585935284" y="71.55102040816328" text-anchor="middle" fill="white" font-size="9">3.65</text>
<rect x="161.49522739396417" y="66.26530612244899" width="2.7672318884992113" height="2.571428571428571" class="bar-render"/>
<text x="95" y="71.55102040816328" text-anchor="end" class="tick-label">flowchart sparse components</text>
<rect x="100" y="69.93877551020408" width="15.737881212616477" height="2.571428571428571" class="bar-parse"/>
<rect x="115.73788121261647" y="69.93877551020408" width="107.3112522274053" height="2.571428571428571" class="bar-layout"/>
<text x="169.39350732631914" y="75.22448979591837" text-anchor="middle" fill="white" font-size="9">10.06</text>
<rect x="223.04913344002176" y="69.93877551020408" width="3.2886717286935205" height="2.571428571428571" class="bar-render"/>
<text x="95" y="75.22448979591837" text-anchor="end" class="tick-label">flowchart lanes crossfeed</text>
<rect x="100" y="73.61224489795919" width="14.389605820195897" height="2.571428571428571" class="bar-parse"/>
<rect x="114.3896058201959" y="73.61224489795919" width="81.1232365192323" height="2.571428571428571" class="bar-layout"/>
<text x="154.95122407981205" y="78.89795918367348" text-anchor="middle" fill="white" font-size="9">7.60</text>
<rect x="195.51284233942818" y="73.61224489795919" width="8.255019464968731" height="2.571428571428571" class="bar-render"/>
<text x="95" y="78.89795918367348" text-anchor="end" class="tick-label">flowchart grid feedback</text>
<rect x="100" y="77.28571428571429" width="13.693463629450555" height="2.571428571428571" class="bar-parse"/>
<rect x="113.69346362945055" y="77.28571428571429" width="158.9871406358178" height="2.571428571428571" class="bar-layout"/>
<text x="193.18703394735945" y="82.57142857142858" text-anchor="middle" fill="white" font-size="9">14.90</text>
<rect x="272.68060426526836" y="77.28571428571429" width="5.614480120762256" height="2.571428571428571" class="bar-render"/>
<text x="95" y="82.57142857142858" text-anchor="end" class="tick-label">flowchart fanout returns</text>
<rect x="100" y="80.95918367346938" width="12.17048588647894" height="2.571428571428571" class="bar-parse"/>
<rect x="112.17048588647894" y="80.95918367346938" width="119.3750496555325" height="2.571428571428571" class="bar-layout"/>
<text x="171.85801071424518" y="86.24489795918367" text-anchor="middle" fill="white" font-size="9">11.19</text>
<rect x="231.54553554201144" y="80.95918367346938" width="9.44592938132044" height="2.571428571428571" class="bar-render"/>
<text x="95" y="86.24489795918367" text-anchor="end" class="tick-label">flowchart label collision</text>
<rect x="100" y="84.6326530612245" width="14.72834167546279" height="2.571428571428571" class="bar-parse"/>
<rect x="114.72834167546279" y="84.6326530612245" width="43.82761869090991" height="2.571428571428571" class="bar-layout"/>
<text x="136.64215102091774" y="89.9183673469388" text-anchor="middle" fill="white" font-size="9">4.11</text>
<rect x="158.5559603663727" y="84.6326530612245" width="2.7899031858989636" height="2.571428571428571" class="bar-render"/>
<text x="95" y="89.9183673469388" text-anchor="end" class="tick-label">flowchart nested clusters</text>
<rect x="100" y="88.3061224489796" width="17.398220345716002" height="2.571428571428571" class="bar-parse"/>
<rect x="117.398220345716" y="88.3061224489796" width="10.738193333106336" height="2.571428571428571" class="bar-layout"/>
<rect x="128.13641367882232" y="88.3061224489796" width="2.1937814248584107" height="2.571428571428571" class="bar-render"/>
<text x="95" y="93.59183673469389" text-anchor="end" class="tick-label">flowchart asymmetric components</text>
<rect x="100" y="91.9795918367347" width="22.428581157002284" height="2.571428571428571" class="bar-parse"/>
<rect x="122.42858115700228" y="91.9795918367347" width="42.900762708978846" height="2.571428571428571" class="bar-layout"/>
<text x="143.8789625114917" y="97.26530612244899" text-anchor="middle" fill="white" font-size="9">4.02</text>
<rect x="165.32934386598112" y="91.9795918367347" width="6.119916692203798" height="2.571428571428571" class="bar-render"/>
<text x="95" y="97.26530612244899" text-anchor="end" class="tick-label">flowchart parallel merges</text>
<rect x="100" y="95.6530612244898" width="14.5323016332414" height="2.571428571428571" class="bar-parse"/>
<rect x="114.5323016332414" y="95.6530612244898" width="43.85295719976847" height="2.571428571428571" class="bar-layout"/>
<text x="136.45878023312565" y="100.9387755102041" text-anchor="middle" fill="white" font-size="9">4.11</text>
<rect x="158.38525883300986" y="95.6530612244898" width="6.526666439669947" height="2.571428571428571" class="bar-render"/>
<text x="95" y="100.9387755102041" text-anchor="end" class="tick-label">flowchart long edge labels</text>
<rect x="100" y="99.3265306122449" width="14.250910824338588" height="2.571428571428571" class="bar-parse"/>
<rect x="114.25091082433859" y="99.3265306122449" width="47.43768940038816" height="2.571428571428571" class="bar-layout"/>
<text x="137.96975552453267" y="104.61224489795919" text-anchor="middle" fill="white" font-size="9">4.45</text>
<rect x="161.68860022472674" y="99.3265306122449" width="16.075283462153973" height="2.571428571428571" class="bar-render"/>
<text x="95" y="104.61224489795919" text-anchor="end" class="tick-label">flowchart selfloop bidi</text>
<rect x="100" y="103.00000000000001" width="15.39781175162019" height="2.571428571428571" class="bar-parse"/>
<rect x="115.3978117516202" y="103.00000000000001" width="31.494432905444516" height="2.571428571428571" class="bar-layout"/>
<text x="131.14502820434245" y="108.2857142857143" text-anchor="middle" fill="white" font-size="9">2.95</text>
<rect x="146.8922446570647" y="103.00000000000001" width="3.076628417719364" height="2.571428571428571" class="bar-render"/>
<text x="95" y="108.2857142857143" text-anchor="end" class="tick-label">flowchart component packing</text>
<rect x="100" y="106.6734693877551" width="13.65212185183924" height="2.571428571428571" class="bar-parse"/>
<rect x="113.65212185183924" y="106.6734693877551" width="83.46771539151258" height="2.571428571428571" class="bar-layout"/>
<text x="155.38597954759553" y="111.9591836734694" text-anchor="middle" fill="white" font-size="9">7.82</text>
<rect x="197.1198372433518" y="106.6734693877551" width="6.720039270432542" height="2.571428571428571" class="bar-render"/>
<text x="95" y="111.9591836734694" text-anchor="end" class="tick-label">flowchart direction conflict</text>
<rect x="100" y="110.34693877551021" width="13.344058928348487" height="2.571428571428571" class="bar-parse"/>
<rect x="113.34405892834849" y="110.34693877551021" width="27.508285380276252" height="2.571428571428571" class="bar-layout"/>
<text x="127.09820161848661" y="115.6326530612245" text-anchor="middle" fill="white" font-size="9">2.58</text>
<rect x="140.85234430862474" y="110.34693877551021" width="5.685161224420306" height="2.571428571428571" class="bar-render"/>
<text x="95" y="115.6326530612245" text-anchor="end" class="tick-label">flowchart parallel label stack</text>
<rect x="100" y="114.02040816326532" width="3.859454980875526" height="2.571428571428571" class="bar-parse"/>
<rect x="103.85945498087553" y="114.02040816326532" width="9.968702827244146" height="2.571428571428571" class="bar-layout"/>
<rect x="113.82815780811967" y="114.02040816326532" width="5.619814543679845" height="2.571428571428571" class="bar-render"/>
<text x="95" y="119.30612244897961" text-anchor="end" class="tick-label">class medium</text>
<rect x="100" y="117.6938775510204" width="5.271743448307172" height="2.571428571428571" class="bar-parse"/>
<rect x="105.27174344830718" y="117.6938775510204" width="13.640119400274665" height="2.571428571428571" class="bar-layout"/>
<rect x="118.91186284858185" y="117.6938775510204" width="9.676643172506157" height="2.571428571428571" class="bar-render"/>
<text x="95" y="122.9795918367347" text-anchor="end" class="tick-label">state medium</text>
<rect x="100" y="121.36734693877551" width="6.620018840727752" height="2.571428571428571" class="bar-parse"/>
<rect x="106.62001884072775" y="121.36734693877551" width="2.637872132747682" height="2.571428571428571" class="bar-layout"/>
<rect x="109.25789097347544" y="121.36734693877551" width="1.6523374987231436" height="2.571428571428571" class="bar-render"/>
<text x="95" y="126.6530612244898" text-anchor="end" class="tick-label">sequence medium</text>
<rect x="100" y="125.04081632653062" width="7.728245201856834" height="2.571428571428571" class="bar-parse"/>
<rect x="107.72824520185684" y="125.04081632653062" width="9.400586786520936" height="2.571428571428571" class="bar-layout"/>
<rect x="117.12883198837777" y="125.04081632653062" width="4.2715391512592635" height="2.571428571428571" class="bar-render"/>
<text x="95" y="130.3265306122449" text-anchor="end" class="tick-label">er medium</text>
<rect x="100" y="128.71428571428572" width="5.901205352582655" height="2.571428571428571" class="bar-parse"/>
<rect x="105.90120535258265" y="128.71428571428572" width="2.317806757692351" height="2.571428571428571" class="bar-layout"/>
<rect x="108.219012110275" y="128.71428571428572" width="1.2682590486567469" height="2.571428571428571" class="bar-render"/>
<text x="95" y="134.0" text-anchor="end" class="tick-label">pie medium</text>
<rect x="100" y="132.3877551020408" width="6.522665622481755" height="2.571428571428571" class="bar-parse"/>
<rect x="106.52266562248175" y="132.3877551020408" width="2.4084919472913615" height="2.571428571428571" class="bar-layout"/>
<rect x="108.93115756977312" y="132.3877551020408" width="1.598993269547255" height="2.571428571428571" class="bar-render"/>
<text x="95" y="137.6734693877551" text-anchor="end" class="tick-label">mindmap medium</text>
<rect x="100" y="136.0612244897959" width="7.454856027330405" height="2.571428571428571" class="bar-parse"/>
<rect x="107.45485602733041" y="136.0612244897959" width="2.727223716617295" height="2.571428571428571" class="bar-layout"/>
<rect x="110.1820797439477" y="136.0612244897959" width="0.8975166558843225" height="2.571428571428571" class="bar-render"/>
<text x="95" y="141.34693877551018" text-anchor="end" class="tick-label">journey medium</text>
<rect x="100" y="139.73469387755102" width="4.659618418513853" height="2.571428571428571" class="bar-parse"/>
<rect x="104.65961841851386" y="139.73469387755102" width="1.4869703882778893" height="2.571428571428571" class="bar-layout"/>
<rect x="106.14658880679175" y="139.73469387755102" width="0.5921209438523614" height="2.571428571428571" class="bar-render"/>
<text x="95" y="145.0204081632653" text-anchor="end" class="tick-label">timeline medium</text>
<rect x="100" y="143.40816326530611" width="6.321291157342777" height="2.571428571428571" class="bar-parse"/>
<rect x="106.32129115734277" y="143.40816326530611" width="2.268463345704655" height="2.571428571428571" class="bar-layout"/>
<rect x="108.58975450304743" y="143.40816326530611" width="0.9495272793308137" height="2.571428571428571" class="bar-render"/>
<text x="95" y="148.6938775510204" text-anchor="end" class="tick-label">gantt medium</text>
<rect x="100" y="147.0816326530612" width="6.0705732802161" height="2.571428571428571" class="bar-parse"/>
<rect x="106.0705732802161" y="147.0816326530612" width="3.115302983871883" height="2.571428571428571" class="bar-layout"/>
<rect x="109.18587626408798" y="147.0816326530612" width="1.428291736184412" height="2.571428571428571" class="bar-render"/>
<text x="95" y="152.36734693877548" text-anchor="end" class="tick-label">requirement medium</text>
<rect x="100" y="150.75510204081633" width="7.604219869022892" height="2.571428571428571" class="bar-parse"/>
<rect x="107.6042198690229" y="150.75510204081633" width="2.5285164629371106" height="2.571428571428571" class="bar-layout"/>
<rect x="110.13273633196" y="150.75510204081633" width="1.1188952069642593" height="2.571428571428571" class="bar-render"/>
<text x="95" y="156.0408163265306" text-anchor="end" class="tick-label">gitgraph medium</text>
<rect x="100" y="154.42857142857142" width="6.526666439669947" height="2.571428571428571" class="bar-parse"/>
<rect x="106.52666643966995" y="154.42857142857142" width="2.3738181983270343" height="2.571428571428571" class="bar-layout"/>
<rect x="108.90048463799698" y="154.42857142857142" width="1.4029532273258651" height="2.571428571428571" class="bar-render"/>
<text x="95" y="159.7142857142857" text-anchor="end" class="tick-label">c4 medium</text>
<rect x="100" y="158.1020408163265" width="6.7920539798199915" height="2.571428571428571" class="bar-parse"/>
<rect x="106.79205397982" y="158.1020408163265" width="2.5978639608657654" height="2.571428571428571" class="bar-layout"/>
<rect x="109.38991794068576" y="158.1020408163265" width="0.7814929574267652" height="2.571428571428571" class="bar-render"/>
<text x="95" y="163.38775510204079" text-anchor="end" class="tick-label">sankey medium</text>
<rect x="100" y="161.77551020408163" width="7.26148319656781" height="2.571428571428571" class="bar-parse"/>
<rect x="107.26148319656781" y="161.77551020408163" width="2.4271624275029224" height="2.571428571428571" class="bar-layout"/>
<rect x="109.68864562407073" y="161.77551020408163" width="0.8148331006616955" height="2.571428571428571" class="bar-render"/>
<text x="95" y="167.0612244897959" text-anchor="end" class="tick-label">quadrant medium</text>
<rect x="100" y="165.44897959183675" width="7.840268083126198" height="2.571428571428571" class="bar-parse"/>
<rect x="107.8402680831262" y="165.44897959183675" width="2.9779415937439704" height="2.571428571428571" class="bar-layout"/>
<rect x="110.81820967687017" y="165.44897959183675" width="1.052214920494399" height="2.571428571428571" class="bar-render"/>
<text x="95" y="170.73469387755102" text-anchor="end" class="tick-label">zenuml medium</text>
<rect x="100" y="169.12244897959184" width="19.05855947881553" height="2.571428571428571" class="bar-parse"/>
<rect x="119.05855947881552" y="169.12244897959184" width="1.6683407674759099" height="2.571428571428571" class="bar-layout"/>
<rect x="120.72690024629144" y="169.12244897959184" width="0.646798778757647" height="2.571428571428571" class="bar-render"/>
<text x="95" y="174.40816326530611" text-anchor="end" class="tick-label">block medium</text>
<rect x="100" y="172.79591836734693" width="3.944805747556948" height="2.571428571428571" class="bar-parse"/>
<rect x="103.94480574755694" y="172.79591836734693" width="1.7977005232274395" height="2.571428571428571" class="bar-layout"/>
<rect x="105.74250627078438" y="172.79591836734693" width="0.36940878704302726" height="2.571428571428571" class="bar-render"/>
<text x="95" y="178.0816326530612" text-anchor="end" class="tick-label">packet medium</text>
<rect x="100" y="176.46938775510202" width="3.0552907260490088" height="2.571428571428571" class="bar-parse"/>
<rect x="103.05529072604901" y="176.46938775510202" width="1.0868886694587263" height="2.571428571428571" class="bar-layout"/>
<rect x="104.14217939550774" y="176.46938775510202" width="0.29072604900859184" height="2.571428571428571" class="bar-render"/>
<text x="95" y="181.7551020408163" text-anchor="end" class="tick-label">kanban medium</text>
<rect x="100" y="180.14285714285714" width="3.6194059495840287" height="2.571428571428571" class="bar-parse"/>
<rect x="103.61940594958403" y="180.14285714285714" width="1.2709262601155413" height="2.571428571428571" class="bar-layout"/>
<rect x="104.89033220969958" y="180.14285714285714" width="0.4174185933013268" height="2.571428571428571" class="bar-render"/>
<text x="95" y="185.42857142857142" text-anchor="end" class="tick-label">architecture medium</text>
<rect x="100" y="183.81632653061223" width="2.9472686619678345" height="2.571428571428571" class="bar-parse"/>
<rect x="102.94726866196784" y="183.81632653061223" width="0.8668437241081867" height="2.571428571428571" class="bar-layout"/>
<rect x="103.81411238607603" y="183.81632653061223" width="0.3507383068314663" height="2.571428571428571" class="bar-render"/>
<text x="95" y="189.1020408163265" text-anchor="end" class="tick-label">radar medium</text>
<rect x="100" y="187.48979591836735" width="5.634484206703212" height="2.571428571428571" class="bar-parse"/>
<rect x="105.6344842067032" y="187.48979591836735" width="2.1204331097415645" height="2.571428571428571" class="bar-layout"/>
<rect x="107.75491731644478" y="187.48979591836735" width="0.6654692589692078" height="2.571428571428571" class="bar-render"/>
<text x="95" y="192.77551020408163" text-anchor="end" class="tick-label">treemap medium</text>
<rect x="100" y="191.16326530612244" width="6.323958368801571" height="2.571428571428571" class="bar-parse"/>
<rect x="106.32395836880157" y="191.16326530612244" width="1.800367734686234" height="2.571428571428571" class="bar-layout"/>
<rect x="108.1243261034878" y="191.16326530612244" width="0.8348371866026536" height="2.571428571428571" class="bar-render"/>
<text x="95" y="196.44897959183672" text-anchor="end" class="tick-label">xychart medium</text>
<rect x="100" y="194.83673469387753" width="17.894321677051767" height="2.571428571428571" class="bar-parse"/>
<rect x="117.89432167705176" y="194.83673469387753" width="7.84426890031439" height="2.571428571428571" class="bar-layout"/>
<rect x="125.73859057736615" y="194.83673469387753" width="2.3458124780096927" height="2.571428571428571" class="bar-render"/>
<text x="95" y="200.1224489795918" text-anchor="end" class="tick-label">flowchart</text>
<rect x="100" y="198.51020408163265" width="4.219528527812773" height="2.571428571428571" class="bar-parse"/>
<rect x="104.21952852781277" y="198.51020408163265" width="1.6109957211118298" height="2.571428571428571" class="bar-layout"/>
<rect x="105.8305242489246" y="198.51020408163265" width="0.7028102193923298" height="2.571428571428571" class="bar-render"/>
<text x="95" y="203.79591836734693" text-anchor="end" class="tick-label">sequence</text>
<rect x="100" y="202.18367346938774" width="7.441519970036433" height="2.571428571428571" class="bar-parse"/>
<rect x="107.44151997003644" y="202.18367346938774" width="3.9674770449567003" height="2.571428571428571" class="bar-layout"/>
<rect x="111.40899701499313" y="202.18367346938774" width="1.707015333628429" height="2.571428571428571" class="bar-render"/>
<text x="95" y="207.46938775510202" text-anchor="end" class="tick-label">class</text>
<rect x="100" y="205.85714285714286" width="4.684956927372399" height="2.571428571428571" class="bar-parse"/>
<rect x="104.6849569273724" y="205.85714285714286" width="8.24568422486295" height="2.571428571428571" class="bar-layout"/>
<rect x="112.93064115223535" y="205.85714285714286" width="4.3782276096110415" height="2.571428571428571" class="bar-render"/>
<text x="95" y="211.14285714285714" text-anchor="end" class="tick-label">state</text>
<rect x="100" y="209.53061224489795" width="6.245275630767135" height="2.571428571428571" class="bar-parse"/>
<rect x="106.24527563076714" y="209.53061224489795" width="2.4378312733381002" height="2.571428571428571" class="bar-layout"/>
<rect x="108.68310690410524" y="209.53061224489795" width="0.4467579193480654" height="2.571428571428571" class="bar-render"/>
<text x="95" y="214.81632653061223" text-anchor="end" class="tick-label">class tiny</text>
<rect x="100" y="213.20408163265304" width="6.7680490766908425" height="2.571428571428571" class="bar-parse"/>
<rect x="106.76804907669084" y="213.20408163265304" width="3.3780233125631334" height="2.571428571428571" class="bar-layout"/>
<rect x="110.14607238925397" y="213.20408163265304" width="0.7641560829446015" height="2.571428571428571" class="bar-render"/>
<text x="95" y="218.48979591836732" text-anchor="end" class="tick-label">state tiny</text>
<rect x="100" y="216.87755102040816" width="5.341090946235826" height="2.571428571428571" class="bar-parse"/>
<rect x="105.34109094623582" y="216.87755102040816" width="1.8377086951093557" height="2.571428571428571" class="bar-layout"/>
<rect x="107.17879964134518" y="216.87755102040816" width="0.8255019464968731" height="2.571428571428571" class="bar-render"/>
<text x="95" y="222.16326530612244" text-anchor="end" class="tick-label">sequence tiny</text>
<rect x="100" y="270" width="12" height="12" class="bar-parse"/>
<text x="117" y="280" class="legend">Parse</text>
<rect x="180" y="270" width="12" height="12" class="bar-layout"/>
<text x="197" y="280" class="legend">Layout</text>
<rect x="270" y="270" width="12" height="12" class="bar-render"/>
<text x="287" y="280" class="legend">Render</text>
</svg>