<svg xmlns="http://www.w3.org/2000/svg" viewBox="0 0 520 300">
  <style>
    .title { font: bold 18px system-ui, sans-serif; fill: #000; }
    .label { font: bold 13px system-ui, sans-serif; fill: #000; }
    .value { font: bold 10px system-ui, sans-serif; fill: white; }
    .axis { font: 12px system-ui, sans-serif; fill: #000; }
    .legend { font: bold 12px system-ui, sans-serif; fill: #000; }
  </style>

  <text x="260.0" y="28" text-anchor="middle" class="title">mmdr Pipeline Breakdown (ms)</text>

  <!-- Legend -->
  <rect x="140" y="46" width="14" height="14" rx="2" fill="#10b981"/>
  <text x="158" y="58" class="legend">Parse</text>
  <rect x="220" y="46" width="14" height="14" rx="2" fill="#3b82f6"/>
  <text x="238" y="58" class="legend">Layout</text>
  <rect x="310" y="46" width="14" height="14" rx="2" fill="#8b5cf6"/>
  <text x="328" y="58" class="legend">Render</text>

  <line x1="50" y1="260.0" x2="500" y2="260.0" stroke="#d1d5db" stroke-width="1"/>
  <text x="44" y="264.0" text-anchor="end" class="axis">0.0</text>
  <line x1="50" y1="205.0" x2="500" y2="205.0" stroke="#d1d5db" stroke-width="1"/>
  <text x="44" y="209.0" text-anchor="end" class="axis">0.9</text>
  <line x1="50" y1="150.0" x2="500" y2="150.0" stroke="#d1d5db" stroke-width="1"/>
  <text x="44" y="154.0" text-anchor="end" class="axis">1.8</text>
  <line x1="50" y1="95.0" x2="500" y2="95.0" stroke="#d1d5db" stroke-width="1"/>
  <text x="44" y="99.0" text-anchor="end" class="axis">2.8</text>
  <line x1="50" y1="40.0" x2="500" y2="40.0" stroke="#d1d5db" stroke-width="1"/>
  <text x="44" y="44.0" text-anchor="end" class="axis">3.7</text>
  <!-- Flowchart (3.7ms) -->
  <rect x="72.5" y="120.9" width="67.5" height="139.1" fill="#10b981"/>
  <text x="106.25" y="194.4" text-anchor="middle" class="value">2.3</text>
  <rect x="72.5" y="53.5" width="67.5" height="67.4" fill="#3b82f6"/>
  <text x="106.25" y="91.2" text-anchor="middle" class="value">1.1</text>
  <rect x="72.5" y="40.0" width="67.5" height="13.5" rx="3 3 0 0" fill="#8b5cf6"/>
  <text x="106.25" y="278" text-anchor="middle" class="label">Flowchart</text>

  <!-- Class (0.9ms) -->
  <rect x="185.0" y="229.5" width="67.5" height="30.5" fill="#10b981"/>
  <text x="218.75" y="248.7" text-anchor="middle" class="value">0.5</text>
  <rect x="185.0" y="213.8" width="67.5" height="15.7" fill="#3b82f6"/>
  <text x="218.75" y="225.7" text-anchor="middle" class="value">0.3</text>
  <rect x="185.0" y="207.3" width="67.5" height="6.5" rx="3 3 0 0" fill="#8b5cf6"/>
  <text x="218.75" y="278" text-anchor="middle" class="label">Class</text>

  <!-- State (1.4ms) -->
  <rect x="297.5" y="227.9" width="67.5" height="32.1" fill="#10b981"/>
  <text x="331.25" y="247.9" text-anchor="middle" class="value">0.5</text>
  <rect x="297.5" y="184.3" width="67.5" height="43.6" fill="#3b82f6"/>
  <text x="331.25" y="210.1" text-anchor="middle" class="value">0.7</text>
  <rect x="297.5" y="175.0" width="67.5" height="9.4" rx="3 3 0 0" fill="#8b5cf6"/>
  <text x="331.25" y="278" text-anchor="middle" class="label">State</text>

  <!-- Sequence (0.7ms) -->
  <rect x="410.0" y="232.3" width="67.5" height="27.7" fill="#10b981"/>
  <text x="443.75" y="250.1" text-anchor="middle" class="value">0.5</text>
  <rect x="410.0" y="221.8" width="67.5" height="10.5" fill="#3b82f6"/>
  <text x="443.75" y="231.1" text-anchor="middle" class="value">0.2</text>
  <rect x="410.0" y="217.3" width="67.5" height="4.5" rx="3 3 0 0" fill="#8b5cf6"/>
  <text x="443.75" y="278" text-anchor="middle" class="label">Sequence</text>
</svg>
