<svg xmlns="http://www.w3.org/2000/svg" viewBox="0 0 520 300">
  <style>
    .title { font: bold 18px system-ui, sans-serif; fill: #000; }
    .label { font: bold 13px system-ui, sans-serif; fill: #000; }
    .value { font: bold 10px system-ui, sans-serif; fill: white; }
    .axis { font: 12px system-ui, sans-serif; fill: #000; }
    .legend { font: bold 12px system-ui, sans-serif; fill: #000; }
  </style>

  <text x="260.0" y="28" text-anchor="middle" class="title">mmdr Pipeline Breakdown (ms)</text>

  <!-- Legend -->
  <rect x="140" y="46" width="14" height="14" rx="2" fill="#10b981"/>
  <text x="158" y="58" class="legend">Parse</text>
  <rect x="220" y="46" width="14" height="14" rx="2" fill="#3b82f6"/>
  <text x="238" y="58" class="legend">Layout</text>
  <rect x="310" y="46" width="14" height="14" rx="2" fill="#8b5cf6"/>
  <text x="328" y="58" class="legend">Render</text>

  <line x1="50" y1="260.0" x2="500" y2="260.0" stroke="#d1d5db" stroke-width="1"/>
  <text x="44" y="264.0" text-anchor="end" class="axis">0.0</text>
  <line x1="50" y1="205.0" x2="500" y2="205.0" stroke="#d1d5db" stroke-width="1"/>
  <text x="44" y="209.0" text-anchor="end" class="axis">1.7</text>
  <line x1="50" y1="150.0" x2="500" y2="150.0" stroke="#d1d5db" stroke-width="1"/>
  <text x="44" y="154.0" text-anchor="end" class="axis">3.4</text>
  <line x1="50" y1="95.0" x2="500" y2="95.0" stroke="#d1d5db" stroke-width="1"/>
  <text x="44" y="99.0" text-anchor="end" class="axis">5.0</text>
  <line x1="50" y1="40.0" x2="500" y2="40.0" stroke="#d1d5db" stroke-width="1"/>
  <text x="44" y="44.0" text-anchor="end" class="axis">6.7</text>
  <!-- Flowchart (5.5ms) -->
  <rect x="72.5" y="221.4" width="67.5" height="38.6" fill="#10b981"/>
  <text x="106.25" y="244.7" text-anchor="middle" class="value">1.2</text>
  <rect x="72.5" y="80.8" width="67.5" height="140.6" fill="#3b82f6"/>
  <text x="106.25" y="155.1" text-anchor="middle" class="value">4.3</text>
  <rect x="72.5" y="78.7" width="67.5" height="2.1" rx="3 3 0 0" fill="#8b5cf6"/>
  <text x="106.25" y="278" text-anchor="middle" class="label">Flowchart</text>

  <!-- Class (6.5ms) -->
  <rect x="185.0" y="248.3" width="67.5" height="11.7" fill="#10b981"/>
  <text x="218.75" y="258.1" text-anchor="middle" class="value">0.4</text>
  <rect x="185.0" y="49.6" width="67.5" height="198.7" fill="#3b82f6"/>
  <text x="218.75" y="152.9" text-anchor="middle" class="value">6.1</text>
  <rect x="185.0" y="47.6" width="67.5" height="2.0" rx="3 3 0 0" fill="#8b5cf6"/>
  <text x="218.75" y="278" text-anchor="middle" class="label">Class</text>

  <!-- State (6.7ms) -->
  <rect x="297.5" y="248.5" width="67.5" height="11.5" fill="#10b981"/>
  <text x="331.25" y="258.2" text-anchor="middle" class="value">0.4</text>
  <rect x="297.5" y="42.7" width="67.5" height="205.8" fill="#3b82f6"/>
  <text x="331.25" y="149.6" text-anchor="middle" class="value">6.3</text>
  <rect x="297.5" y="40.0" width="67.5" height="2.7" rx="3 3 0 0" fill="#8b5cf6"/>
  <text x="331.25" y="278" text-anchor="middle" class="label">State</text>

  <!-- Sequence (4.5ms) -->
  <rect x="410.0" y="250.2" width="67.5" height="9.8" fill="#10b981"/>
  <text x="443.75" y="259.1" text-anchor="middle" class="value">0.3</text>
  <rect x="410.0" y="113.4" width="67.5" height="136.9" fill="#3b82f6"/>
  <text x="443.75" y="185.8" text-anchor="middle" class="value">4.2</text>
  <rect x="410.0" y="112.1" width="67.5" height="1.3" rx="3 3 0 0" fill="#8b5cf6"/>
  <text x="443.75" y="278" text-anchor="middle" class="label">Sequence</text>
</svg>
