<svg xmlns="http://www.w3.org/2000/svg" viewBox="0 0 600 300">
<style>
  .title { font: bold 14px sans-serif; }
  .tick-label { font: 10px sans-serif; }
  .legend { font: 11px sans-serif; }
  .bar-parse { fill: #4CAF50; }
  .bar-layout { fill: #2196F3; }
  .bar-render { fill: #FF9800; }
</style>
<text x="300.0" y="25" text-anchor="middle" class="title">mmdr Pipeline Breakdown</text>
<rect x="100" y="44.5" width="13.765040764689344" height="21.0" class="bar-parse"/>
<rect x="113.76504076468935" y="44.5" width="0.6391973573235873" height="21.0" class="bar-layout"/>
<rect x="114.40423812201293" y="44.5" width="0.6491073938712398" height="21.0" class="bar-render"/>
<text x="95" y="59.0" text-anchor="end" class="tick-label">flowchart small</text>
<rect x="100" y="74.5" width="14.959200168681473" height="21.0" class="bar-parse"/>
<rect x="114.95920016868148" y="74.5" width="73.75214366038797" height="21.0" class="bar-layout"/>
<text x="151.83527199887547" y="89.0" text-anchor="middle" fill="white" font-size="9">5.58</text>
<rect x="188.71134382906945" y="74.5" width="2.8854723081248244" height="21.0" class="bar-render"/>
<text x="95" y="89.0" text-anchor="end" class="tick-label">flowchart medium</text>
<rect x="100" y="104.5" width="22.56515321900478" height="21.0" class="bar-parse"/>
<rect x="122.56515321900478" y="104.5" width="436.8063325836379" height="21.0" class="bar-layout"/>
<text x="340.96831951082373" y="119.0" text-anchor="middle" fill="white" font-size="9">33.06</text>
<rect x="559.3714858026427" y="104.5" width="10.628514197357323" height="21.0" class="bar-render"/>
<text x="95" y="119.0" text-anchor="end" class="tick-label">flowchart large</text>
<rect x="100" y="134.5" width="4.761772561147034" height="21.0" class="bar-parse"/>
<rect x="104.76177256114704" y="134.5" width="3.0770663480461065" height="21.0" class="bar-layout"/>
<rect x="107.83883890919314" y="134.5" width="1.9687939274669664" height="21.0" class="bar-render"/>
<text x="95" y="149.0" text-anchor="end" class="tick-label">class medium</text>
<rect x="100" y="164.5" width="5.156522350295192" height="21.0" class="bar-parse"/>
<rect x="105.15652235029519" y="164.5" width="2.3222518976665727" height="21.0" class="bar-layout"/>
<rect x="107.47877424796177" y="164.5" width="1.38575344391341" height="21.0" class="bar-render"/>
<text x="95" y="179.0" text-anchor="end" class="tick-label">state medium</text>
<rect x="100" y="194.5" width="4.897209727298285" height="21.0" class="bar-parse"/>
<rect x="104.89720972729829" y="194.5" width="0.40796317121169523" height="21.0" class="bar-layout"/>
<rect x="105.30517289850998" y="194.5" width="0.9612735451222941" height="21.0" class="bar-render"/>
<text x="95" y="209.0" text-anchor="end" class="tick-label">sequence medium</text>
<rect x="100" y="270" width="12" height="12" class="bar-parse"/>
<text x="117" y="280" class="legend">Parse</text>
<rect x="180" y="270" width="12" height="12" class="bar-layout"/>
<text x="197" y="280" class="legend">Layout</text>
<rect x="270" y="270" width="12" height="12" class="bar-render"/>
<text x="287" y="280" class="legend">Render</text>
</svg>