<svg xmlns="http://www.w3.org/2000/svg" viewBox="0 0 600 300">
<style>
  .title { font: bold 14px sans-serif; }
  .tick-label { font: 10px sans-serif; }
  .legend { font: 11px sans-serif; }
  .bar-parse { fill: #4CAF50; }
  .bar-layout { fill: #2196F3; }
  .bar-render { fill: #FF9800; }
</style>
<text x="300.0" y="25" text-anchor="middle" class="title">mmdr Pipeline Breakdown</text>
<rect x="100" y="40.81818181818182" width="65.94457514355821" height="3.8181818181818175" class="bar-parse"/>
<text x="132.9722875717791" y="46.72727272727273" text-anchor="middle" fill="white" font-size="9">2.77</text>
<rect x="165.9445751435582" y="40.81818181818182" width="17.06129366826035" height="3.8181818181818175" class="bar-layout"/>
<rect x="183.00586881181857" y="40.81818181818182" width="2.0628114644203284" height="3.8181818181818175" class="bar-render"/>
<text x="95" y="46.72727272727273" text-anchor="end" class="tick-label">flowchart small</text>
<rect x="100" y="46.27272727272727" width="30.31500594470163" height="3.8181818181818175" class="bar-parse"/>
<text x="115.15750297235081" y="52.18181818181818" text-anchor="middle" fill="white" font-size="9">1.27</text>
<rect x="130.31500594470162" y="46.27272727272727" width="53.59445751435582" height="3.8181818181818175" class="bar-layout"/>
<text x="157.11223470187954" y="52.18181818181818" text-anchor="middle" fill="white" font-size="9">2.25</text>
<rect x="183.90946345905743" y="46.27272727272727" width="2.6305304697579115" height="3.8181818181818175" class="bar-render"/>
<text x="95" y="52.18181818181818" text-anchor="end" class="tick-label">flowchart medium</text>
<rect x="100" y="51.72727272727273" width="40.79848726316057" height="3.8181818181818175" class="bar-parse"/>
<text x="120.39924363158028" y="57.63636363636363" text-anchor="middle" fill="white" font-size="9">1.72</text>
<rect x="140.79848726316055" y="51.72727272727273" width="418.7477549265134" height="3.8181818181818175" class="bar-layout"/>
<text x="350.17236472641724" y="57.63636363636363" text-anchor="middle" fill="white" font-size="9">17.61</text>
<rect x="559.5462421896739" y="51.72727272727273" width="10.453757810326074" height="3.8181818181818175" class="bar-render"/>
<text x="95" y="57.63636363636363" text-anchor="end" class="tick-label">flowchart large</text>
<rect x="100" y="57.18181818181818" width="30.243669525182767" height="3.8181818181818175" class="bar-parse"/>
<text x="115.12183476259139" y="63.090909090909086" text-anchor="middle" fill="white" font-size="9">1.27</text>
<rect x="130.24366952518278" y="57.18181818181818" width="2.0628114644203284" height="3.8181818181818175" class="bar-layout"/>
<rect x="132.3064809896031" y="57.18181818181818" width="0.46665907768586684" height="3.8181818181818175" class="bar-render"/>
<text x="95" y="63.090909090909086" text-anchor="end" class="tick-label">flowchart tiny</text>
<rect x="100" y="62.63636363636363" width="9.377766815916623" height="3.8181818181818175" class="bar-parse"/>
<rect x="109.37776681591663" y="62.63636363636363" width="19.813690521362982" height="3.8181818181818175" class="bar-layout"/>
<rect x="129.19145733727962" y="62.63636363636363" width="3.305254104373783" height="3.8181818181818175" class="bar-render"/>
<text x="95" y="68.54545454545455" text-anchor="end" class="tick-label">class medium</text>
<rect x="100" y="68.09090909090908" width="15.518643596165036" height="3.8181818181818175" class="bar-parse"/>
<rect x="115.51864359616503" y="68.09090909090908" width="25.603829905643675" height="3.8181818181818175" class="bar-layout"/>
<text x="128.32055854898687" y="73.99999999999999" text-anchor="middle" fill="white" font-size="9">1.08</text>
<rect x="141.1224735018087" y="68.09090909090908" width="3.219055930788495" height="3.8181818181818175" class="bar-render"/>
<text x="95" y="73.99999999999999" text-anchor="end" class="tick-label">state medium</text>
<rect x="100" y="73.54545454545453" width="16.5708557840682" height="3.8181818181818175" class="bar-parse"/>
<rect x="116.5708557840682" y="73.54545454545453" width="6.051706255849839" height="3.8181818181818175" class="bar-layout"/>
<rect x="122.62256203991804" y="73.54545454545453" width="3.2458070881080676" height="3.8181818181818175" class="bar-render"/>
<text x="95" y="79.45454545454544" text-anchor="end" class="tick-label">sequence medium</text>
<rect x="100" y="79.0" width="11.473274139283093" height="3.8181818181818175" class="bar-parse"/>
<rect x="111.47327413928309" y="79.0" width="11.223596670967089" height="3.8181818181818175" class="bar-layout"/>
<rect x="122.69687081025018" y="79.0" width="2.785092712048772" height="3.8181818181818175" class="bar-render"/>
<text x="95" y="84.9090909090909" text-anchor="end" class="tick-label">er medium</text>
<rect x="100" y="84.45454545454544" width="14.484265513141585" height="3.8181818181818175" class="bar-parse"/>
<rect x="114.48426551314158" y="84.45454545454544" width="4.648756671978953" height="3.8181818181818175" class="bar-layout"/>
<rect x="119.13302218512054" y="84.45454545454544" width="2.6394475221977687" height="3.8181818181818175" class="bar-render"/>
<text x="95" y="90.36363636363635" text-anchor="end" class="tick-label">pie medium</text>
<rect x="100" y="89.9090909090909" width="15.795072221800611" height="3.8181818181818175" class="bar-parse"/>
<rect x="115.79507222180061" y="89.9090909090909" width="5.703941210695404" height="3.8181818181818175" class="bar-layout"/>
<rect x="121.49901343249601" y="89.9090909090909" width="4.241544610558802" height="3.8181818181818175" class="bar-render"/>
<text x="95" y="95.81818181818181" text-anchor="end" class="tick-label">mindmap medium</text>
<rect x="100" y="95.36363636363635" width="15.548367104297892" height="3.8181818181818175" class="bar-parse"/>
<rect x="115.5483671042979" y="95.36363636363635" width="10.700462927828793" height="3.8181818181818175" class="bar-layout"/>
<rect x="126.24883003212669" y="95.36363636363635" width="1.9052768713161825" height="3.8181818181818175" class="bar-render"/>
<text x="95" y="101.27272727272725" text-anchor="end" class="tick-label">journey medium</text>
<rect x="100" y="100.81818181818181" width="14.638827755432446" height="3.8181818181818175" class="bar-parse"/>
<rect x="114.63882775543244" y="100.81818181818181" width="4.247489312185373" height="3.8181818181818175" class="bar-layout"/>
<rect x="118.88631706761782" y="100.81818181818181" width="1.7834104879714654" height="3.8181818181818175" class="bar-render"/>
<text x="95" y="106.72727272727272" text-anchor="end" class="tick-label">timeline medium</text>
<rect x="100" y="106.27272727272727" width="15.426500720953177" height="3.8181818181818175" class="bar-parse"/>
<rect x="115.42650072095317" y="106.27272727272727" width="4.1820975942930865" height="3.8181818181818175" class="bar-layout"/>
<rect x="119.60859831524625" y="106.27272727272727" width="1.2929726037793126" height="3.8181818181818175" class="bar-render"/>
<text x="95" y="112.18181818181817" text-anchor="end" class="tick-label">gantt medium</text>
<rect x="100" y="111.72727272727272" width="15.872353342946043" height="3.8181818181818175" class="bar-parse"/>
<rect x="115.87235334294604" y="111.72727272727272" width="7.077167286433432" height="3.8181818181818175" class="bar-layout"/>
<rect x="122.94952062937948" y="111.72727272727272" width="2.131175533125901" height="3.8181818181818175" class="bar-render"/>
<text x="95" y="117.63636363636363" text-anchor="end" class="tick-label">requirement medium</text>
<rect x="100" y="117.18181818181817" width="15.970440919784473" height="3.8181818181818175" class="bar-parse"/>
<rect x="115.97044091978447" y="117.18181818181817" width="4.889517087855101" height="3.8181818181818175" class="bar-layout"/>
<rect x="120.85995800763956" y="117.18181818181817" width="2.033087956287471" height="3.8181818181818175" class="bar-render"/>
<text x="95" y="123.09090909090908" text-anchor="end" class="tick-label">gitgraph medium</text>
<rect x="100" y="122.63636363636363" width="11.066062077862943" height="3.8181818181818175" class="bar-parse"/>
<rect x="111.06606207786294" y="122.63636363636363" width="3.9026966178442235" height="3.8181818181818175" class="bar-layout"/>
<rect x="114.96875869570717" y="122.63636363636363" width="2.3719359490020495" height="3.8181818181818175" class="bar-render"/>
<text x="95" y="128.54545454545453" text-anchor="end" class="tick-label">c4 medium</text>
<rect x="100" y="128.0909090909091" width="7.885646707647163" height="3.8181818181818175" class="bar-parse"/>
<rect x="107.88564670764717" y="128.0909090909091" width="2.9247932002732036" height="3.8181818181818175" class="bar-layout"/>
<rect x="110.81043990792037" y="128.0909090909091" width="0.8708987882927323" height="3.8181818181818175" class="bar-render"/>
<text x="95" y="134.0" text-anchor="end" class="tick-label">sankey medium</text>
<rect x="100" y="133.54545454545453" width="5.935784574131695" height="3.8181818181818175" class="bar-parse"/>
<rect x="105.9357845741317" y="133.54545454545453" width="1.7239634717057497" height="3.8181818181818175" class="bar-layout"/>
<rect x="107.65974804583745" y="133.54545454545453" width="0.6598618805494422" height="3.8181818181818175" class="bar-render"/>
<text x="95" y="139.45454545454544" text-anchor="end" class="tick-label">quadrant medium</text>
<rect x="100" y="139.0" width="8.063987756444309" height="3.8181818181818175" class="bar-parse"/>
<rect x="108.0639877564443" y="139.0" width="2.499747033973337" height="3.8181818181818175" class="bar-layout"/>
<rect x="110.56373479041764" y="139.0" width="0.8441476309731603" height="3.8181818181818175" class="bar-render"/>
<text x="95" y="144.9090909090909" text-anchor="end" class="tick-label">zenuml medium</text>
<rect x="100" y="144.45454545454544" width="32.6631630871974" height="3.8181818181818175" class="bar-parse"/>
<text x="116.3315815435987" y="150.36363636363635" text-anchor="middle" fill="white" font-size="9">1.37</text>
<rect x="132.6631630871974" y="144.45454545454544" width="1.6734335078798916" height="3.8181818181818175" class="bar-layout"/>
<rect x="134.33659659507728" y="144.45454545454544" width="0.6806683362424426" height="3.8181818181818175" class="bar-render"/>
<text x="95" y="150.36363636363635" text-anchor="end" class="tick-label">block medium</text>
<rect x="100" y="149.90909090909088" width="8.313665224760316" height="3.8181818181818175" class="bar-parse"/>
<rect x="108.31366522476031" y="149.90909090909088" width="3.513318661303787" height="3.8181818181818175" class="bar-layout"/>
<rect x="111.8269838860641" y="149.90909090909088" width="0.6598618805494422" height="3.8181818181818175" class="bar-render"/>
<text x="95" y="155.81818181818178" text-anchor="end" class="tick-label">packet medium</text>
<rect x="100" y="155.36363636363635" width="7.377374718575296" height="3.8181818181818175" class="bar-parse"/>
<rect x="107.3773747185753" y="155.36363636363635" width="2.553249348612481" height="3.8181818181818175" class="bar-layout"/>
<rect x="109.93062406718778" y="155.36363636363635" width="0.7044471427487288" height="3.8181818181818175" class="bar-render"/>
<text x="95" y="161.27272727272725" text-anchor="end" class="tick-label">kanban medium</text>
<rect x="100" y="160.8181818181818" width="6.6402317168804235" height="3.8181818181818175" class="bar-parse"/>
<rect x="106.64023171688042" y="160.8181818181818" width="2.0093091497811844" height="3.8181818181818175" class="bar-layout"/>
<rect x="108.64954086666161" y="160.8181818181818" width="0.6301383724165844" height="3.8181818181818175" class="bar-render"/>
<text x="95" y="166.72727272727272" text-anchor="end" class="tick-label">architecture medium</text>
<rect x="100" y="166.27272727272725" width="6.806683362424427" height="3.8181818181818175" class="bar-parse"/>
<rect x="106.80668336242442" y="166.27272727272725" width="1.976613290835041" height="3.8181818181818175" class="bar-layout"/>
<rect x="108.78329665325947" y="166.27272727272725" width="0.9392628569983051" height="3.8181818181818175" class="bar-render"/>
<text x="95" y="172.18181818181816" text-anchor="end" class="tick-label">radar medium</text>
<rect x="100" y="171.72727272727272" width="8.890301282537756" height="3.8181818181818175" class="bar-parse"/>
<rect x="108.89030128253776" y="171.72727272727272" width="2.96937846247249" height="3.8181818181818175" class="bar-layout"/>
<rect x="111.85967974501025" y="171.72727272727272" width="0.90062229642559" height="3.8181818181818175" class="bar-render"/>
<text x="95" y="177.63636363636363" text-anchor="end" class="tick-label">treemap medium</text>
<rect x="100" y="177.18181818181816" width="13.437998026864992" height="3.8181818181818175" class="bar-parse"/>
<rect x="113.43799802686499" y="177.18181818181816" width="3.6084338873289314" height="3.8181818181818175" class="bar-layout"/>
<rect x="117.04643191419392" y="177.18181818181816" width="1.7388252257721788" height="3.8181818181818175" class="bar-render"/>
<text x="95" y="183.09090909090907" text-anchor="end" class="tick-label">xychart medium</text>
<rect x="100" y="182.63636363636363" width="34.43765652272899" height="3.8181818181818175" class="bar-parse"/>
<text x="117.2188282613645" y="188.54545454545453" text-anchor="middle" fill="white" font-size="9">1.45</text>
<rect x="134.437656522729" y="182.63636363636363" width="13.152652348789557" height="3.8181818181818175" class="bar-layout"/>
<rect x="147.59030887151854" y="182.63636363636363" width="1.9736409400217552" height="3.8181818181818175" class="bar-render"/>
<text x="95" y="188.54545454545453" text-anchor="end" class="tick-label">flowchart</text>
<rect x="100" y="188.09090909090907" width="14.950924590827453" height="3.8181818181818175" class="bar-parse"/>
<rect x="114.95092459082746" y="188.09090909090907" width="4.9341023500543875" height="3.8181818181818175" class="bar-layout"/>
<rect x="119.88502694088184" y="188.09090909090907" width="2.077673218486757" height="3.8181818181818175" class="bar-render"/>
<text x="95" y="193.99999999999997" text-anchor="end" class="tick-label">sequence</text>
<rect x="100" y="193.54545454545453" width="16.784865042624777" height="3.8181818181818175" class="bar-parse"/>
<rect x="116.78486504262477" y="193.54545454545453" width="8.277997015000887" height="3.8181818181818175" class="bar-layout"/>
<rect x="125.06286205762567" y="193.54545454545453" width="2.651336925450912" height="3.8181818181818175" class="bar-render"/>
<text x="95" y="199.45454545454544" text-anchor="end" class="tick-label">class</text>
<rect x="100" y="198.99999999999997" width="14.641800106245732" height="3.8181818181818175" class="bar-parse"/>
<rect x="114.64180010624574" y="198.99999999999997" width="18.38398978017252" height="3.8181818181818175" class="bar-layout"/>
<rect x="133.02578988641827" y="198.99999999999997" width="2.761313905542486" height="3.8181818181818175" class="bar-render"/>
<text x="95" y="204.90909090909088" text-anchor="end" class="tick-label">state</text>
<rect x="100" y="204.45454545454544" width="7.540854013306013" height="3.8181818181818175" class="bar-parse"/>
<rect x="107.54085401330602" y="204.45454545454544" width="3.049631934431206" height="3.8181818181818175" class="bar-layout"/>
<rect x="110.59048594773722" y="204.45454545454544" width="0.6658065821760137" height="3.8181818181818175" class="bar-render"/>
<text x="95" y="210.36363636363635" text-anchor="end" class="tick-label">class tiny</text>
<rect x="100" y="209.90909090909088" width="7.309010649869722" height="3.8181818181818175" class="bar-parse"/>
<rect x="107.30901064986972" y="209.90909090909088" width="3.272558245427639" height="3.8181818181818175" class="bar-layout"/>
<rect x="110.58156889529735" y="209.90909090909088" width="0.5855531102172978" height="3.8181818181818175" class="bar-render"/>
<text x="95" y="215.81818181818178" text-anchor="end" class="tick-label">state tiny</text>
<rect x="100" y="215.36363636363635" width="10.762882294907795" height="3.8181818181818175" class="bar-parse"/>
<rect x="110.7628822949078" y="215.36363636363635" width="3.6827426576610764" height="3.8181818181818175" class="bar-layout"/>
<rect x="114.44562495256888" y="215.36363636363635" width="1.0195163289570213" height="3.8181818181818175" class="bar-render"/>
<text x="95" y="221.27272727272725" text-anchor="end" class="tick-label">sequence tiny</text>
<rect x="100" y="270" width="12" height="12" class="bar-parse"/>
<text x="117" y="280" class="legend">Parse</text>
<rect x="180" y="270" width="12" height="12" class="bar-layout"/>
<text x="197" y="280" class="legend">Layout</text>
<rect x="270" y="270" width="12" height="12" class="bar-render"/>
<text x="287" y="280" class="legend">Render</text>
</svg>