<svg xmlns="http://www.w3.org/2000/svg" viewBox="0 0 600 300">
<rect width="600" height="300" fill="#FFFFFF"/>
<style>
  .title { font: bold 14px sans-serif; }
  .tick-label { font: 10px sans-serif; }
  .legend { font: 11px sans-serif; }
  .bar-parse { fill: #4CAF50; }
  .bar-layout { fill: #2196F3; }
  .bar-render { fill: #FF9800; }
</style>
<text x="300.0" y="25" text-anchor="middle" class="title">mmdr Pipeline Breakdown</text>
<rect x="100" y="40.55102040816327" width="13.39764427189577" height="2.571428571428571" class="bar-parse"/>
<rect x="113.39764427189577" y="40.55102040816327" width="5.449365006251234" height="2.571428571428571" class="bar-layout"/>
<rect x="118.847009278147" y="40.55102040816327" width="0.5783378298348358" height="2.571428571428571" class="bar-render"/>
<text x="95" y="45.83673469387755" text-anchor="end" class="tick-label">flowchart small</text>
<rect x="100" y="44.22448979591837" width="15.921300256629598" height="2.571428571428571" class="bar-parse"/>
<rect x="115.92130025662959" y="44.22448979591837" width="47.53813252615648" height="2.571428571428571" class="bar-layout"/>
<text x="139.69036651970782" y="49.51020408163266" text-anchor="middle" fill="white" font-size="9">5.12</text>
<rect x="163.45943278278608" y="44.22448979591837" width="2.938079884187669" height="2.571428571428571" class="bar-render"/>
<text x="95" y="49.51020408163266" text-anchor="end" class="tick-label">flowchart medium</text>
<rect x="100" y="47.89795918367347" width="17.92228729354478" height="2.571428571428571" class="bar-parse"/>
<rect x="117.92228729354478" y="47.89795918367347" width="419.62275449101793" height="2.571428571428571" class="bar-layout"/>
<text x="327.73366453905373" y="53.183673469387756" text-anchor="middle" fill="white" font-size="9">45.23</text>
<rect x="537.5450417845627" y="47.89795918367347" width="6.250378364150819" height="2.571428571428571" class="bar-render"/>
<text x="95" y="53.183673469387756" text-anchor="end" class="tick-label">flowchart large</text>
<rect x="100" y="51.57142857142858" width="11.418306244653552" height="2.571428571428571" class="bar-parse"/>
<rect x="111.41830624465355" y="51.57142857142858" width="0.8628676712509048" height="2.571428571428571" class="bar-layout"/>
<rect x="112.28117391590446" y="51.57142857142858" width="0.21649009672961766" height="2.571428571428571" class="bar-render"/>
<text x="95" y="56.85714285714286" text-anchor="end" class="tick-label">flowchart tiny</text>
<rect x="100" y="55.244897959183675" width="12.822399157728498" height="2.571428571428571" class="bar-parse"/>
<rect x="112.8223991577285" y="55.244897959183675" width="455.5508324011318" height="2.571428571428571" class="bar-layout"/>
<text x="340.5978153582944" y="60.53061224489796" text-anchor="middle" fill="white" font-size="9">49.10</text>
<rect x="568.3732315588603" y="55.244897959183675" width="1.6267684411396988" height="2.571428571428571" class="bar-render"/>
<text x="95" y="60.53061224489796" text-anchor="end" class="tick-label">flowchart ports heavy</text>
<rect x="100" y="58.91836734693878" width="13.221359478844509" height="2.571428571428571" class="bar-parse"/>
<rect x="113.2213594788445" y="58.91836734693878" width="326.08356912548527" height="2.571428571428571" class="bar-layout"/>
<text x="276.2631440415871" y="64.20408163265307" text-anchor="middle" fill="white" font-size="9">35.15</text>
<rect x="439.3049286043298" y="58.91836734693878" width="1.2618279923669145" height="2.571428571428571" class="bar-render"/>
<text x="95" y="64.20408163265307" text-anchor="end" class="tick-label">flowchart weave</text>
<rect x="100" y="62.591836734693885" width="12.763637560044748" height="2.571428571428571" class="bar-parse"/>
<rect x="112.76363756004474" y="62.591836734693885" width="87.90116470355991" height="2.571428571428571" class="bar-layout"/>
<text x="156.7142199118247" y="67.87755102040816" text-anchor="middle" fill="white" font-size="9">9.47</text>
<rect x="200.66480226360466" y="62.591836734693885" width="0.9247219846022241" height="2.571428571428571" class="bar-render"/>
<text x="95" y="67.87755102040816" text-anchor="end" class="tick-label">flowchart backedges subgraphs</text>
<rect x="100" y="66.26530612244899" width="14.254326511811541" height="2.571428571428571" class="bar-parse"/>
<rect x="114.25432651181154" y="66.26530612244899" width="49.49272882805817" height="2.571428571428571" class="bar-layout"/>
<text x="139.00069092584062" y="71.55102040816328" text-anchor="middle" fill="white" font-size="9">5.33</text>
<rect x="163.74705533986972" y="66.26530612244899" width="0.8876093965914327" height="2.571428571428571" class="bar-render"/>
<text x="95" y="71.55102040816328" text-anchor="end" class="tick-label">flowchart sparse components</text>
<rect x="100" y="69.93877551020408" width="14.016187405408964" height="2.571428571428571" class="bar-parse"/>
<rect x="114.01618740540897" y="69.93877551020408" width="109.06152530104625" height="2.571428571428571" class="bar-layout"/>
<text x="168.5469500559321" y="75.22448979591837" text-anchor="middle" fill="white" font-size="9">11.75</text>
<rect x="223.0777127064552" y="69.93877551020408" width="0.9865762979535435" height="2.571428571428571" class="bar-render"/>
<text x="95" y="75.22448979591837" text-anchor="end" class="tick-label">flowchart lanes crossfeed</text>
<rect x="100" y="73.61224489795919" width="12.587352766993487" height="2.571428571428571" class="bar-parse"/>
<rect x="112.58735276699349" y="73.61224489795919" width="265.92406395999205" height="2.571428571428571" class="bar-layout"/>
<text x="245.54938474698952" y="78.89795918367348" text-anchor="middle" fill="white" font-size="9">28.66</text>
<rect x="378.51141672698554" y="73.61224489795919" width="1.5278015397775875" height="2.571428571428571" class="bar-render"/>
<text x="95" y="78.89795918367348" text-anchor="end" class="tick-label">flowchart grid feedback</text>
<rect x="100" y="77.28571428571429" width="12.596630913996185" height="2.571428571428571" class="bar-parse"/>
<rect x="112.59663091399618" y="77.28571428571429" width="190.4896361123906" height="2.571428571428571" class="bar-layout"/>
<text x="207.8414489701915" y="82.57142857142858" text-anchor="middle" fill="white" font-size="9">20.53</text>
<rect x="303.0862670263868" y="77.28571428571429" width="1.0577087583075608" height="2.571428571428571" class="bar-render"/>
<text x="95" y="82.57142857142858" text-anchor="end" class="tick-label">flowchart fanout returns</text>
<rect x="100" y="80.95918367346938" width="11.569849312364283" height="2.571428571428571" class="bar-parse"/>
<rect x="111.56984931236428" y="80.95918367346938" width="199.8512864381128" height="2.571428571428571" class="bar-layout"/>
<text x="211.49549253142067" y="86.24489795918367" text-anchor="middle" fill="white" font-size="9">21.54</text>
<rect x="311.4211357504771" y="80.95918367346938" width="1.1350266499967099" height="2.571428571428571" class="bar-render"/>
<text x="95" y="86.24489795918367" text-anchor="end" class="tick-label">flowchart label collision</text>
<rect x="100" y="84.6326530612245" width="13.277028360860697" height="2.571428571428571" class="bar-parse"/>
<rect x="113.2770283608607" y="84.6326530612245" width="83.49404487727843" height="2.571428571428571" class="bar-layout"/>
<text x="155.02405079949992" y="89.9183673469388" text-anchor="middle" fill="white" font-size="9">9.00</text>
<rect x="196.77107323813914" y="84.6326530612245" width="0.9803908666184117" height="2.571428571428571" class="bar-render"/>
<text x="95" y="89.9183673469388" text-anchor="end" class="tick-label">flowchart nested clusters</text>
<rect x="100" y="88.3061224489796" width="14.4306113048628" height="2.571428571428571" class="bar-parse"/>
<rect x="114.4306113048628" y="88.3061224489796" width="23.29433440810686" height="2.571428571428571" class="bar-layout"/>
<rect x="137.72494571296966" y="88.3061224489796" width="0.7144173192077383" height="2.571428571428571" class="bar-render"/>
<text x="95" y="93.59183673469389" text-anchor="end" class="tick-label">flowchart asymmetric components</text>
<rect x="100" y="91.9795918367347" width="13.258472066855301" height="2.571428571428571" class="bar-parse"/>
<rect x="113.2584720668553" y="91.9795918367347" width="56.94308087122459" height="2.571428571428571" class="bar-layout"/>
<text x="141.7300125024676" y="97.26530612244899" text-anchor="middle" fill="white" font-size="9">6.14</text>
<rect x="170.20155293807989" y="91.9795918367347" width="0.9865762979535435" height="2.571428571428571" class="bar-render"/>
<text x="95" y="97.26530612244899" text-anchor="end" class="tick-label">flowchart parallel merges</text>
<rect x="100" y="95.6530612244898" width="13.778048299006382" height="2.571428571428571" class="bar-parse"/>
<rect x="113.77804829900639" y="95.6530612244898" width="195.0946897413963" height="2.571428571428571" class="bar-layout"/>
<text x="211.32539316970454" y="100.9387755102041" text-anchor="middle" fill="white" font-size="9">21.03</text>
<rect x="308.8727380404027" y="95.6530612244898" width="1.4257419227479107" height="2.571428571428571" class="bar-render"/>
<text x="95" y="100.9387755102041" text-anchor="end" class="tick-label">flowchart long edge labels</text>
<rect x="100" y="99.3265306122449" width="12.401789826939527" height="2.571428571428571" class="bar-parse"/>
<rect x="112.40178982693953" y="99.3265306122449" width="132.92801210765285" height="2.571428571428571" class="bar-layout"/>
<text x="178.86579588076597" y="104.61224489795919" text-anchor="middle" fill="white" font-size="9">14.33</text>
<rect x="245.32980193459238" y="99.3265306122449" width="1.1752319536750675" height="2.571428571428571" class="bar-render"/>
<text x="95" y="104.61224489795919" text-anchor="end" class="tick-label">flowchart selfloop bidi</text>
<rect x="100" y="103.00000000000001" width="12.68322695268803" height="2.571428571428571" class="bar-parse"/>
<rect x="112.68322695268803" y="103.00000000000001" width="26.053036783575706" height="2.571428571428571" class="bar-layout"/>
<text x="125.70974534447589" y="108.2857142857143" text-anchor="middle" fill="white" font-size="9">2.81</text>
<rect x="138.73626373626374" y="103.00000000000001" width="0.7298808975455683" height="2.571428571428571" class="bar-render"/>
<text x="95" y="108.2857142857143" text-anchor="end" class="tick-label">flowchart component packing</text>
<rect x="100" y="106.6734693877551" width="15.296571691781274" height="2.571428571428571" class="bar-parse"/>
<rect x="115.29657169178128" y="106.6734693877551" width="53.02151740475094" height="2.571428571428571" class="bar-layout"/>
<text x="141.80733039415674" y="111.9591836734694" text-anchor="middle" fill="white" font-size="9">5.71</text>
<rect x="168.31808909653222" y="106.6734693877551" width="1.0236888859643352" height="2.571428571428571" class="bar-render"/>
<text x="95" y="111.9591836734694" text-anchor="end" class="tick-label">flowchart direction conflict</text>
<rect x="100" y="110.34693877551021" width="18.738764229782195" height="2.571428571428571" class="bar-parse"/>
<rect x="118.73876422978219" y="110.34693877551021" width="170.02204382443904" height="2.571428571428571" class="bar-layout"/>
<text x="203.7497861420017" y="115.6326530612245" text-anchor="middle" fill="white" font-size="9">18.32</text>
<rect x="288.76080805422123" y="110.34693877551021" width="1.2741988550371783" height="2.571428571428571" class="bar-render"/>
<text x="95" y="115.6326530612245" text-anchor="end" class="tick-label">flowchart parallel label stack</text>
<rect x="100" y="114.02040816326532" width="3.6834243600710668" height="2.571428571428571" class="bar-parse"/>
<rect x="103.68342436007107" y="114.02040816326532" width="22.889188655655722" height="2.571428571428571" class="bar-layout"/>
<rect x="126.5726130157268" y="114.02040816326532" width="1.1443047969994078" height="2.571428571428571" class="bar-render"/>
<text x="95" y="119.30612244897961" text-anchor="end" class="tick-label">class medium</text>
<rect x="100" y="117.6938775510204" width="3.538066723695466" height="2.571428571428571" class="bar-parse"/>
<rect x="103.53806672369547" y="117.6938775510204" width="19.960386918470753" height="2.571428571428571" class="bar-layout"/>
<rect x="123.49845364216623" y="117.6938775510204" width="0.7206027505428704" height="2.571428571428571" class="bar-render"/>
<text x="95" y="122.9795918367347" text-anchor="end" class="tick-label">state medium</text>
<rect x="100" y="121.36734693877551" width="3.352503783641508" height="2.571428571428571" class="bar-parse"/>
<rect x="103.35250378364151" y="121.36734693877551" width="2.659735474106732" height="2.571428571428571" class="bar-layout"/>
<rect x="106.01223925774823" y="121.36734693877551" width="0.6927683095347766" height="2.571428571428571" class="bar-render"/>
<text x="95" y="126.6530612244898" text-anchor="end" class="tick-label">sequence medium</text>
<rect x="100" y="125.04081632653062" width="3.287556754622623" height="2.571428571428571" class="bar-parse"/>
<rect x="103.28755675462263" y="125.04081632653062" width="7.72251102191222" height="2.571428571428571" class="bar-layout"/>
<rect x="111.01006777653485" y="125.04081632653062" width="0.9154438375995263" height="2.571428571428571" class="bar-render"/>
<text x="95" y="130.3265306122449" text-anchor="end" class="tick-label">er medium</text>
<rect x="100" y="128.71428571428572" width="2.3040731723366457" height="2.571428571428571" class="bar-parse"/>
<rect x="102.30407317233664" y="128.71428571428572" width="0.7948279265644536" height="2.571428571428571" class="bar-layout"/>
<rect x="103.0989010989011" y="128.71428571428572" width="0.4824636441402908" height="2.571428571428571" class="bar-render"/>
<text x="95" y="134.0" text-anchor="end" class="tick-label">pie medium</text>
<rect x="100" y="132.3877551020408" width="2.628808317431072" height="2.571428571428571" class="bar-parse"/>
<rect x="102.62880831743107" y="132.3877551020408" width="1.0638941896426926" height="2.571428571428571" class="bar-layout"/>
<rect x="103.69270250707376" y="132.3877551020408" width="0.5814305455024018" height="2.571428571428571" class="bar-render"/>
<text x="95" y="137.6734693877551" text-anchor="end" class="tick-label">mindmap medium</text>
<rect x="100" y="136.0612244897959" width="2.4648943870500757" height="2.571428571428571" class="bar-parse"/>
<rect x="102.46489438705008" y="136.0612244897959" width="0.7639007698887937" height="2.571428571428571" class="bar-layout"/>
<rect x="103.22879515693887" y="136.0612244897959" width="0.2938079884187669" height="2.571428571428571" class="bar-render"/>
<text x="95" y="141.34693877551018" text-anchor="end" class="tick-label">journey medium</text>
<rect x="100" y="139.73469387755102" width="2.7123116404553533" height="2.571428571428571" class="bar-parse"/>
<rect x="102.71231164045535" y="139.73469387755102" width="0.8937948279265644" height="2.571428571428571" class="bar-layout"/>
<rect x="103.60610646838192" y="139.73469387755102" width="0.3773113114430479" height="2.571428571428571" class="bar-render"/>
<text x="95" y="145.0204081632653" text-anchor="end" class="tick-label">timeline medium</text>
<rect x="100" y="143.40816326530611" width="3.0494176482200435" height="2.571428571428571" class="bar-parse"/>
<rect x="103.04941764822004" y="143.40816326530611" width="1.0020398762913734" height="2.571428571428571" class="bar-layout"/>
<rect x="104.05145752451142" y="143.40816326530611" width="0.4391656247943673" height="2.571428571428571" class="bar-render"/>
<text x="95" y="148.6938775510204" text-anchor="end" class="tick-label">gantt medium</text>
<rect x="100" y="147.0816326530612" width="3.080344804895703" height="2.571428571428571" class="bar-parse"/>
<rect x="103.0803448048957" y="147.0816326530612" width="3.222609725603738" height="2.571428571428571" class="bar-layout"/>
<rect x="106.30295453049943" y="147.0816326530612" width="0.41442389945383956" height="2.571428571428571" class="bar-render"/>
<text x="95" y="152.36734693877548" text-anchor="end" class="tick-label">requirement medium</text>
<rect x="100" y="150.75510204081633" width="3.19786800026321" height="2.571428571428571" class="bar-parse"/>
<rect x="103.19786800026321" y="150.75510204081633" width="1.125748502994012" height="2.571428571428571" class="bar-layout"/>
<rect x="104.32361650325723" y="150.75510204081633" width="0.4639073501348951" height="2.571428571428571" class="bar-render"/>
<text x="95" y="156.0408163265306" text-anchor="end" class="tick-label">gitgraph medium</text>
<rect x="100" y="154.42857142857142" width="2.6566427584391654" height="2.571428571428571" class="bar-parse"/>
<rect x="102.65664275843916" y="154.42857142857142" width="1.032967032967033" height="2.571428571428571" class="bar-layout"/>
<rect x="103.6896097914062" y="154.42857142857142" width="0.5535961044943081" height="2.571428571428571" class="bar-render"/>
<text x="95" y="159.7142857142857" text-anchor="end" class="tick-label">c4 medium</text>
<rect x="100" y="158.1020408163265" width="2.7772586694742385" height="2.571428571428571" class="bar-parse"/>
<rect x="102.77725866947424" y="158.1020408163265" width="1.0144107389616372" height="2.571428571428571" class="bar-layout"/>
<rect x="103.79166940843588" y="158.1020408163265" width="0.32164242942686055" height="2.571428571428571" class="bar-render"/>
<text x="95" y="163.38775510204079" text-anchor="end" class="tick-label">sankey medium</text>
<rect x="100" y="161.77551020408163" width="2.9318944528525366" height="2.571428571428571" class="bar-parse"/>
<rect x="102.93189445285253" y="161.77551020408163" width="0.9649272882805816" height="2.571428571428571" class="bar-layout"/>
<rect x="103.89682174113311" y="161.77551020408163" width="0.3618477331052181" height="2.571428571428571" class="bar-render"/>
<text x="95" y="167.0612244897959" text-anchor="end" class="tick-label">quadrant medium</text>
<rect x="100" y="165.44897959183675" width="2.9999341975389875" height="2.571428571428571" class="bar-parse"/>
<rect x="102.99993419753899" y="165.44897959183675" width="1.1876028163453314" height="2.571428571428571" class="bar-layout"/>
<rect x="104.18753701388432" y="165.44897959183675" width="0.467000065802461" height="2.571428571428571" class="bar-render"/>
<text x="95" y="170.73469387755102" text-anchor="end" class="tick-label">zenuml medium</text>
<rect x="100" y="169.12244897959184" width="8.851352240573798" height="2.571428571428571" class="bar-parse"/>
<rect x="108.8513522405738" y="169.12244897959184" width="0.7546226228860958" height="2.571428571428571" class="bar-layout"/>
<rect x="109.60597486345989" y="169.12244897959184" width="0.26288083174310717" height="2.571428571428571" class="bar-render"/>
<text x="95" y="174.40816326530611" text-anchor="end" class="tick-label">block medium</text>
<rect x="100" y="172.79591836734693" width="3.1607554122524184" height="2.571428571428571" class="bar-parse"/>
<rect x="103.16075541225241" y="172.79591836734693" width="1.7844969401855633" height="2.571428571428571" class="bar-layout"/>
<rect x="104.94525235243798" y="172.79591836734693" width="0.34329143909982235" height="2.571428571428571" class="bar-render"/>
<text x="95" y="178.0816326530612" text-anchor="end" class="tick-label">packet medium</text>
<rect x="100" y="176.46938775510202" width="3.19786800026321" height="2.571428571428571" class="bar-parse"/>
<rect x="103.19786800026321" y="176.46938775510202" width="1.2401789826939527" height="2.571428571428571" class="bar-layout"/>
<rect x="104.43804698295716" y="176.46938775510202" width="0.32164242942686055" height="2.571428571428571" class="bar-render"/>
<text x="95" y="181.7551020408163" text-anchor="end" class="tick-label">kanban medium</text>
<rect x="100" y="180.14285714285714" width="3.408172665657695" height="2.571428571428571" class="bar-parse"/>
<rect x="103.4081726656577" y="180.14285714285714" width="1.2185299730209909" height="2.571428571428571" class="bar-layout"/>
<rect x="104.6267026386787" y="180.14285714285714" width="0.36494044877278414" height="2.571428571428571" class="bar-render"/>
<text x="95" y="185.42857142857142" text-anchor="end" class="tick-label">architecture medium</text>
<rect x="100" y="183.81632653061223" width="3.5751793117062576" height="2.571428571428571" class="bar-parse"/>
<rect x="103.57517931170625" y="183.81632653061223" width="0.9742054352832795" height="2.571428571428571" class="bar-layout"/>
<rect x="104.54938474698953" y="183.81632653061223" width="0.42060933078897156" height="2.571428571428571" class="bar-render"/>
<text x="95" y="189.1020408163265" text-anchor="end" class="tick-label">radar medium</text>
<rect x="100" y="187.48979591836735" width="3.3988945186549975" height="2.571428571428571" class="bar-parse"/>
<rect x="103.398894518655" y="187.48979591836735" width="1.3793511877344213" height="2.571428571428571" class="bar-layout"/>
<rect x="104.77824570638941" y="187.48979591836735" width="0.40205303678357573" height="2.571428571428571" class="bar-render"/>
<text x="95" y="192.77551020408163" text-anchor="end" class="tick-label">treemap medium</text>
<rect x="100" y="191.16326530612244" width="2.678291768112128" height="2.571428571428571" class="bar-parse"/>
<rect x="102.67829176811213" y="191.16326530612244" width="0.7700862012239258" height="2.571428571428571" class="bar-layout"/>
<rect x="103.44837796933606" y="191.16326530612244" width="0.3773113114430479" height="2.571428571428571" class="bar-render"/>
<text x="95" y="196.44897959183672" text-anchor="end" class="tick-label">xychart medium</text>
<rect x="100" y="194.83673469387753" width="14.733697440284267" height="2.571428571428571" class="bar-parse"/>
<rect x="114.73369744028426" y="194.83673469387753" width="17.16147923932355" height="2.571428571428571" class="bar-layout"/>
<rect x="131.8951766796078" y="194.83673469387753" width="0.7917352108968875" height="2.571428571428571" class="bar-render"/>
<text x="95" y="200.1224489795918" text-anchor="end" class="tick-label">flowchart</text>
<rect x="100" y="198.51020408163265" width="4.017437652168191" height="2.571428571428571" class="bar-parse"/>
<rect x="104.01743765216818" y="198.51020408163265" width="1.8247022438639204" height="2.571428571428571" class="bar-layout"/>
<rect x="105.84213989603211" y="198.51020408163265" width="0.565966967164572" height="2.571428571428571" class="bar-render"/>
<text x="95" y="203.79591836734693" text-anchor="end" class="tick-label">sequence</text>
<rect x="100" y="202.18367346938774" width="3.93393432914391" height="2.571428571428571" class="bar-parse"/>
<rect x="103.93393432914391" y="202.18367346938774" width="3.2102388629334735" height="2.571428571428571" class="bar-layout"/>
<rect x="107.14417319207739" y="202.18367346938774" width="0.49174179114298877" height="2.571428571428571" class="bar-render"/>
<text x="95" y="207.46938775510202" text-anchor="end" class="tick-label">class</text>
<rect x="100" y="205.85714285714286" width="3.2442587352766994" height="2.571428571428571" class="bar-parse"/>
<rect x="103.2442587352767" y="205.85714285714286" width="14.687306705270776" height="2.571428571428571" class="bar-layout"/>
<rect x="117.93156544054747" y="205.85714285714286" width="0.44225834046193324" height="2.571428571428571" class="bar-render"/>
<text x="95" y="211.14285714285714" text-anchor="end" class="tick-label">state</text>
<rect x="100" y="209.53061224489795" width="2.9782851878660264" height="2.571428571428571" class="bar-parse"/>
<rect x="102.97828518786602" y="209.53061224489795" width="1.4473909324208725" height="2.571428571428571" class="bar-layout"/>
<rect x="104.4256761202869" y="209.53061224489795" width="0.278344410080937" height="2.571428571428571" class="bar-render"/>
<text x="95" y="214.81632653061223" text-anchor="end" class="tick-label">class tiny</text>
<rect x="100" y="213.20408163265304" width="3.058695795222741" height="2.571428571428571" class="bar-parse"/>
<rect x="103.05869579522275" y="213.20408163265304" width="1.5587286964532476" height="2.571428571428571" class="bar-layout"/>
<rect x="104.61742449167599" y="213.20408163265304" width="0.2721589787458051" height="2.571428571428571" class="bar-render"/>
<text x="95" y="218.48979591836732" text-anchor="end" class="tick-label">state tiny</text>
<rect x="100" y="216.87755102040816" width="4.688556952030006" height="2.571428571428571" class="bar-parse"/>
<rect x="104.68855695203001" y="216.87755102040816" width="1.5370796867802854" height="2.571428571428571" class="bar-layout"/>
<rect x="106.2256366388103" y="216.87755102040816" width="0.5133908008159506" height="2.571428571428571" class="bar-render"/>
<text x="95" y="222.16326530612244" text-anchor="end" class="tick-label">sequence tiny</text>
<rect x="100" y="270" width="12" height="12" class="bar-parse"/>
<text x="117" y="280" class="legend">Parse</text>
<rect x="180" y="270" width="12" height="12" class="bar-layout"/>
<text x="197" y="280" class="legend">Layout</text>
<rect x="270" y="270" width="12" height="12" class="bar-render"/>
<text x="287" y="280" class="legend">Render</text>
</svg>