<svg xmlns="http://www.w3.org/2000/svg" viewBox="0 0 600 300">
<style>
  .title { font: bold 14px sans-serif; }
  .tick-label { font: 10px sans-serif; }
  .legend { font: 11px sans-serif; }
  .bar-parse { fill: #4CAF50; }
  .bar-layout { fill: #2196F3; }
  .bar-render { fill: #FF9800; }
</style>
<text x="300.0" y="25" text-anchor="middle" class="title">mmdr Pipeline Breakdown</text>
<rect x="100" y="40.81818181818182" width="26.15962974433089" height="3.8181818181818175" class="bar-parse"/>
<text x="113.07981487216544" y="46.72727272727273" text-anchor="middle" fill="white" font-size="9">2.02</text>
<rect x="126.15962974433089" y="40.81818181818182" width="7.903685351502012" height="3.8181818181818175" class="bar-layout"/>
<rect x="134.0633150958329" y="40.81818181818182" width="1.1013729740889853" height="3.8181818181818175" class="bar-render"/>
<text x="95" y="46.72727272727273" text-anchor="end" class="tick-label">flowchart small</text>
<rect x="100" y="46.27272727272727" width="27.79794225938543" height="3.8181818181818175" class="bar-parse"/>
<text x="113.89897112969271" y="52.18181818181818" text-anchor="middle" fill="white" font-size="9">2.15</text>
<rect x="127.79794225938542" y="46.27272727272727" width="65.39988300471423" height="3.8181818181818175" class="bar-layout"/>
<text x="160.49788376174254" y="52.18181818181818" text-anchor="middle" fill="white" font-size="9">5.05</text>
<rect x="193.19782526409966" y="46.27272727272727" width="6.582361240150029" height="3.8181818181818175" class="bar-render"/>
<text x="95" y="52.18181818181818" text-anchor="end" class="tick-label">flowchart medium</text>
<rect x="100" y="51.72727272727273" width="20.487801520938714" height="3.8181818181818175" class="bar-parse"/>
<rect x="120.48780152093872" y="51.72727272727273" width="429.3106568941193" height="3.8181818181818175" class="bar-layout"/>
<text x="335.14312996799833" y="57.63636363636363" text-anchor="middle" fill="white" font-size="9">33.18</text>
<rect x="549.798458415058" y="51.72727272727273" width="20.201541584942017" height="3.8181818181818175" class="bar-render"/>
<text x="95" y="57.63636363636363" text-anchor="end" class="tick-label">flowchart large</text>
<rect x="100" y="57.18181818181818" width="26.648050652076666" height="3.8181818181818175" class="bar-parse"/>
<text x="113.32402532603834" y="63.090909090909086" text-anchor="middle" fill="white" font-size="9">2.06</text>
<rect x="126.64805065207666" y="57.18181818181818" width="1.8420907745776127" height="3.8181818181818175" class="bar-layout"/>
<rect x="128.49014142665428" y="57.18181818181818" width="0.4819517566498055" height="3.8181818181818175" class="bar-render"/>
<text x="95" y="63.090909090909086" text-anchor="end" class="tick-label">flowchart tiny</text>
<rect x="100" y="62.63636363636363" width="9.634183269674134" height="3.8181818181818175" class="bar-parse"/>
<rect x="109.63418326967414" y="62.63636363636363" width="22.082447266095453" height="3.8181818181818175" class="bar-layout"/>
<rect x="131.71663053576958" y="62.63636363636363" width="5.383950999621486" height="3.8181818181818175" class="bar-render"/>
<text x="95" y="68.54545454545455" text-anchor="end" class="tick-label">class medium</text>
<rect x="100" y="68.09090909090908" width="9.082688138742645" height="3.8181818181818175" class="bar-parse"/>
<rect x="109.08268813874264" y="68.09090909090908" width="17.28233715288531" height="3.8181818181818175" class="bar-layout"/>
<rect x="126.36502529162794" y="68.09090909090908" width="3.8248855854925847" height="3.8181818181818175" class="bar-render"/>
<text x="95" y="73.99999999999999" text-anchor="end" class="tick-label">state medium</text>
<rect x="100" y="73.54545454545453" width="8.332266611610063" height="3.8181818181818175" class="bar-parse"/>
<rect x="108.33226661161007" y="73.54545454545453" width="3.082550497229964" height="3.8181818181818175" class="bar-layout"/>
<rect x="111.41481710884003" y="73.54545454545453" width="1.8081277313237674" height="3.8181818181818175" class="bar-render"/>
<text x="95" y="79.45454545454544" text-anchor="end" class="tick-label">sequence medium</text>
<rect x="100" y="79.0" width="9.237947765045938" height="3.8181818181818175" class="bar-parse"/>
<rect x="109.23794776504593" y="79.0" width="9.520973125494647" height="3.8181818181818175" class="bar-layout"/>
<rect x="118.75892089054058" y="79.0" width="2.865833935514951" height="3.8181818181818175" class="bar-render"/>
<text x="95" y="84.9090909090909" text-anchor="end" class="tick-label">er medium</text>
<rect x="100" y="84.45454545454544" width="8.566773338838994" height="3.8181818181818175" class="bar-parse"/>
<rect x="108.566773338839" y="84.45454545454544" width="2.6944014314717317" height="3.8181818181818175" class="bar-layout"/>
<rect x="111.26117477031073" y="84.45454545454544" width="1.5267196586490484" height="3.8181818181818175" class="bar-render"/>
<text x="95" y="90.36363636363635" text-anchor="end" class="tick-label">pie medium</text>
<rect x="100" y="89.9090909090909" width="9.029317642200887" height="3.8181818181818175" class="bar-parse"/>
<rect x="109.02931764220088" y="89.9090909090909" width="3.3025016344929625" height="3.8181818181818175" class="bar-layout"/>
<rect x="112.33181927669384" y="89.9090909090909" width="2.4210797976669767" height="3.8181818181818175" class="bar-render"/>
<text x="95" y="95.81818181818181" text-anchor="end" class="tick-label">mindmap medium</text>
<rect x="100" y="95.36363636363635" width="8.623378410928735" height="3.8181818181818175" class="bar-parse"/>
<rect x="108.62337841092874" y="95.36363636363635" width="6.776435773029146" height="3.8181818181818175" class="bar-layout"/>
<rect x="115.39981418395789" y="95.36363636363635" width="1.1579780461787272" height="3.8181818181818175" class="bar-render"/>
<text x="95" y="101.27272727272725" text-anchor="end" class="tick-label">journey medium</text>
<rect x="100" y="100.81818181818181" width="8.561921475517016" height="3.8181818181818175" class="bar-parse"/>
<rect x="108.56192147551701" y="100.81818181818181" width="2.532672654072468" height="3.8181818181818175" class="bar-layout"/>
<rect x="111.09459412958948" y="100.81818181818181" width="1.1321014417948452" height="3.8181818181818175" class="bar-render"/>
<text x="95" y="106.72727272727272" text-anchor="end" class="tick-label">timeline medium</text>
<rect x="100" y="106.27272727272727" width="4.3828498675200445" height="3.8181818181818175" class="bar-parse"/>
<rect x="104.38284986752005" y="106.27272727272727" width="1.408657651147586" height="3.8181818181818175" class="bar-layout"/>
<rect x="105.79150751866764" y="106.27272727272727" width="0.4237293967860707" height="3.8181818181818175" class="bar-render"/>
<text x="95" y="112.18181818181817" text-anchor="end" class="tick-label">gantt medium</text>
<rect x="100" y="111.72727272727272" width="4.371528853102095" height="3.8181818181818175" class="bar-parse"/>
<rect x="104.37152885310209" y="111.72727272727272" width="2.445339114276866" height="3.8181818181818175" class="bar-layout"/>
<rect x="106.81686796737895" y="111.72727272727272" width="0.907298441209869" height="3.8181818181818175" class="bar-render"/>
<text x="95" y="117.63636363636363" text-anchor="end" class="tick-label">requirement medium</text>
<rect x="100" y="117.18181818181817" width="3.3946870376105434" height="3.8181818181818175" class="bar-parse"/>
<rect x="103.39468703761054" y="117.18181818181817" width="1.0415333264512578" height="3.8181818181818175" class="bar-layout"/>
<rect x="104.4362203640618" y="117.18181818181817" width="0.45284057671793815" height="3.8181818181818175" class="bar-render"/>
<text x="95" y="123.09090909090908" text-anchor="end" class="tick-label">gitgraph medium</text>
<rect x="100" y="122.63636363636363" width="8.152747668696879" height="3.8181818181818175" class="bar-parse"/>
<rect x="108.15274766869688" y="122.63636363636363" width="2.9369945975706275" height="3.8181818181818175" class="bar-layout"/>
<rect x="111.0897422662675" y="122.63636363636363" width="1.7725474002959294" height="3.8181818181818175" class="bar-render"/>
<text x="95" y="128.54545454545453" text-anchor="end" class="tick-label">c4 medium</text>
<rect x="100" y="128.0909090909091" width="8.052475826709335" height="3.8181818181818175" class="bar-parse"/>
<rect x="108.05247582670934" y="128.0909090909091" width="2.720278035855614" height="3.8181818181818175" class="bar-layout"/>
<rect x="110.77275386256495" y="128.0909090909091" width="0.8684835346340456" height="3.8181818181818175" class="bar-render"/>
<text x="95" y="134.0" text-anchor="end" class="tick-label">sankey medium</text>
<rect x="100" y="133.54545454545453" width="8.597501806544853" height="3.8181818181818175" class="bar-parse"/>
<rect x="108.59750180654486" y="133.54545454545453" width="2.5181170641065345" height="3.8181818181818175" class="bar-layout"/>
<rect x="111.11561887065139" y="133.54545454545453" width="0.849076081346134" height="3.8181818181818175" class="bar-render"/>
<text x="95" y="139.45454545454544" text-anchor="end" class="tick-label">quadrant medium</text>
<rect x="100" y="139.0" width="9.43040501015106" height="3.8181818181818175" class="bar-parse"/>
<rect x="109.43040501015106" y="139.0" width="2.8431919066790545" height="3.8181818181818175" class="bar-layout"/>
<rect x="112.27359691683012" y="139.0" width="0.9881628299095006" height="3.8181818181818175" class="bar-render"/>
<text x="95" y="144.9090909090909" text-anchor="end" class="tick-label">zenuml medium</text>
<rect x="100" y="144.45454545454544" width="24.85447851071883" height="3.8181818181818175" class="bar-parse"/>
<rect x="124.85447851071883" y="144.45454545454544" width="1.4992257664911737" height="3.8181818181818175" class="bar-layout"/>
<rect x="126.35370427721001" y="144.45454545454544" width="0.5709025842194005" height="3.8181818181818175" class="bar-render"/>
<text x="95" y="150.36363636363635" text-anchor="end" class="tick-label">block medium</text>
<rect x="100" y="149.90909090909088" width="8.409896424761708" height="3.8181818181818175" class="bar-parse"/>
<rect x="108.40989642476171" y="149.90909090909088" width="3.768280513402842" height="3.8181818181818175" class="bar-layout"/>
<rect x="112.17817693816455" y="149.90909090909088" width="0.7649771170985169" height="3.8181818181818175" class="bar-render"/>
<text x="95" y="155.81818181818178" text-anchor="end" class="tick-label">packet medium</text>
<rect x="100" y="155.36363636363635" width="8.516637417845223" height="3.8181818181818175" class="bar-parse"/>
<rect x="108.51663741784522" y="155.36363636363635" width="2.9175871442827157" height="3.8181818181818175" class="bar-layout"/>
<rect x="111.43422456212794" y="155.36363636363635" width="0.7358659371666494" height="3.8181818181818175" class="bar-render"/>
<text x="95" y="161.27272727272725" text-anchor="end" class="tick-label">kanban medium</text>
<rect x="100" y="160.8181818181818" width="8.532810295585149" height="3.8181818181818175" class="bar-parse"/>
<rect x="108.53281029558515" y="160.8181818181818" width="2.5536973951343724" height="3.8181818181818175" class="bar-layout"/>
<rect x="111.08650769071953" y="160.8181818181818" width="0.8248167647362444" height="3.8181818181818175" class="bar-render"/>
<text x="95" y="166.72727272727272" text-anchor="end" class="tick-label">architecture medium</text>
<rect x="100" y="166.27272727272725" width="8.565156051065001" height="3.8181818181818175" class="bar-parse"/>
<rect x="108.565156051065" y="166.27272727272725" width="2.383882178865145" height="3.8181818181818175" class="bar-layout"/>
<rect x="110.94903822993015" y="166.27272727272725" width="1.0059529954234196" height="3.8181818181818175" class="bar-render"/>
<text x="95" y="172.18181818181816" text-anchor="end" class="tick-label">radar medium</text>
<rect x="100" y="171.72727272727272" width="8.212587316334606" height="3.8181818181818175" class="bar-parse"/>
<rect x="108.2125873163346" y="171.72727272727272" width="2.712191596985651" height="3.8181818181818175" class="bar-layout"/>
<rect x="110.92477891332025" y="171.72727272727272" width="0.8733353979560236" height="3.8181818181818175" class="bar-render"/>
<text x="95" y="177.63636363636363" text-anchor="end" class="tick-label">treemap medium</text>
<rect x="100" y="177.18181818181816" width="8.817452943807853" height="3.8181818181818175" class="bar-parse"/>
<rect x="108.81745294380785" y="177.18181818181816" width="2.283610336877602" height="3.8181818181818175" class="bar-layout"/>
<rect x="111.10106328068545" y="177.18181818181816" width="1.0722617941571178" height="3.8181818181818175" class="bar-render"/>
<text x="95" y="183.09090909090907" text-anchor="end" class="tick-label">xychart medium</text>
<rect x="100" y="182.63636363636363" width="38.205189085028046" height="3.8181818181818175" class="bar-parse"/>
<text x="119.10259454251403" y="188.54545454545453" text-anchor="middle" fill="white" font-size="9">2.95</text>
<rect x="138.20518908502805" y="182.63636363636363" width="16.310347200715736" height="3.8181818181818175" class="bar-layout"/>
<rect x="154.5155362857438" y="182.63636363636363" width="4.234059392312721" height="3.8181818181818175" class="bar-render"/>
<text x="95" y="188.54545454545453" text-anchor="end" class="tick-label">flowchart</text>
<rect x="100" y="188.09090909090907" width="8.772168886136058" height="3.8181818181818175" class="bar-parse"/>
<rect x="108.77216888613606" y="188.09090909090907" width="2.776883107945356" height="3.8181818181818175" class="bar-layout"/>
<rect x="111.54905199408141" y="188.09090909090907" width="1.3100030969340353" height="3.8181818181818175" class="bar-render"/>
<text x="95" y="193.99999999999997" text-anchor="end" class="tick-label">sequence</text>
<rect x="100" y="193.54545454545453" width="8.875675303671589" height="3.8181818181818175" class="bar-parse"/>
<rect x="108.87567530367158" y="193.54545454545453" width="3.9623550462819583" height="3.8181818181818175" class="bar-layout"/>
<rect x="112.83803034995354" y="193.54545454545453" width="1.9472144798871336" height="3.8181818181818175" class="bar-render"/>
<text x="95" y="199.45454545454544" text-anchor="end" class="tick-label">class</text>
<rect x="100" y="198.99999999999997" width="9.46113347785692" height="3.8181818181818175" class="bar-parse"/>
<rect x="109.46113347785692" y="198.99999999999997" width="13.518908502804445" height="3.8181818181818175" class="bar-layout"/>
<rect x="122.98004198066137" y="198.99999999999997" width="2.653969237121916" height="3.8181818181818175" class="bar-render"/>
<text x="95" y="204.90909090909088" text-anchor="end" class="tick-label">state</text>
<rect x="100" y="204.45454545454544" width="8.15436495647087" height="3.8181818181818175" class="bar-parse"/>
<rect x="108.15436495647087" y="204.45454545454544" width="2.9159698565087226" height="3.8181818181818175" class="bar-layout"/>
<rect x="111.0703348129796" y="204.45454545454544" width="0.5450259798355184" height="3.8181818181818175" class="bar-render"/>
<text x="95" y="210.36363636363635" text-anchor="end" class="tick-label">class tiny</text>
<rect x="100" y="209.90909090909088" width="8.904786483603454" height="3.8181818181818175" class="bar-parse"/>
<rect x="108.90478648360346" y="209.90909090909088" width="3.520835483981969" height="3.8181818181818175" class="bar-layout"/>
<rect x="112.42562196758543" y="209.90909090909088" width="0.7843845703864285" height="3.8181818181818175" class="bar-render"/>
<text x="95" y="215.81818181818178" text-anchor="end" class="tick-label">state tiny</text>
<rect x="100" y="215.36363636363635" width="8.624995698702728" height="3.8181818181818175" class="bar-parse"/>
<rect x="108.62499569870273" y="215.36363636363635" width="2.5116479130105636" height="3.8181818181818175" class="bar-layout"/>
<rect x="111.1366436117133" y="215.36363636363635" width="0.7035201816867968" height="3.8181818181818175" class="bar-render"/>
<text x="95" y="221.27272727272725" text-anchor="end" class="tick-label">sequence tiny</text>
<rect x="100" y="270" width="12" height="12" class="bar-parse"/>
<text x="117" y="280" class="legend">Parse</text>
<rect x="180" y="270" width="12" height="12" class="bar-layout"/>
<text x="197" y="280" class="legend">Layout</text>
<rect x="270" y="270" width="12" height="12" class="bar-render"/>
<text x="287" y="280" class="legend">Render</text>
</svg>