<svg xmlns="http://www.w3.org/2000/svg" viewBox="0 0 600 300">
<style>
  .title { font: bold 14px sans-serif; }
  .tick-label { font: 10px sans-serif; }
  .legend { font: 11px sans-serif; }
  .bar-parse { fill: #4CAF50; }
  .bar-layout { fill: #2196F3; }
  .bar-render { fill: #FF9800; }
</style>
<text x="300.0" y="25" text-anchor="middle" class="title">mmdr Pipeline Breakdown</text>
<rect x="100" y="40.93103448275862" width="49.76715054159606" height="4.344827586206896" class="bar-parse"/>
<text x="124.88357527079803" y="47.103448275862064" text-anchor="middle" fill="white" font-size="9">1.08</text>
<rect x="149.76715054159607" y="40.93103448275862" width="175.69154815415226" height="4.344827586206896" class="bar-layout"/>
<text x="237.6129246186722" y="47.103448275862064" text-anchor="middle" fill="white" font-size="9">3.80</text>
<rect x="325.45869869574835" y="40.93103448275862" width="1.6335077248053447" height="4.344827586206896" class="bar-render"/>
<text x="95" y="47.103448275862064" text-anchor="end" class="tick-label">flowchart small</text>
<rect x="100" y="47.137931034482754" width="57.47292019747993" height="4.344827586206896" class="bar-parse"/>
<text x="128.73646009873997" y="53.3103448275862" text-anchor="middle" fill="white" font-size="9">1.24</text>
<rect x="157.47292019747994" y="47.137931034482754" width="212.03853805909665" height="4.344827586206896" class="bar-layout"/>
<text x="263.49218922702823" y="53.3103448275862" text-anchor="middle" fill="white" font-size="9">4.59</text>
<rect x="369.5114582565766" y="47.137931034482754" width="5.073686537469605" height="4.344827586206896" class="bar-render"/>
<text x="95" y="53.3103448275862" text-anchor="end" class="tick-label">flowchart medium</text>
<rect x="100" y="53.3448275862069" width="78.48340824797977" height="4.344827586206896" class="bar-parse"/>
<text x="139.24170412398988" y="59.51724137931034" text-anchor="middle" fill="white" font-size="9">1.70</text>
<rect x="178.48340824797975" y="53.3448275862069" width="369.88848770662935" height="4.344827586206896" class="bar-layout"/>
<text x="363.4276521012944" y="59.51724137931034" text-anchor="middle" fill="white" font-size="9">8.01</text>
<rect x="548.371895954609" y="53.3448275862069" width="21.62810404539091" height="4.344827586206896" class="bar-render"/>
<text x="95" y="59.51724137931034" text-anchor="end" class="tick-label">flowchart large</text>
<rect x="100" y="59.55172413793103" width="15.959889961437383" height="4.344827586206896" class="bar-parse"/>
<rect x="115.95988996143738" y="59.55172413793103" width="240.92795912853393" height="4.344827586206896" class="bar-layout"/>
<text x="236.42386952570433" y="65.72413793103448" text-anchor="middle" fill="white" font-size="9">5.22</text>
<rect x="356.8878490899713" y="59.55172413793103" width="5.610492962935672" height="4.344827586206896" class="bar-render"/>
<text x="95" y="65.72413793103448" text-anchor="end" class="tick-label">class medium</text>
<rect x="100" y="65.75862068965517" width="12.85449365067669" height="4.344827586206896" class="bar-parse"/>
<rect x="112.85449365067669" y="65.75862068965517" width="193.4869697639575" height="4.344827586206896" class="bar-layout"/>
<text x="209.59797853265542" y="71.93103448275862" text-anchor="middle" fill="white" font-size="9">4.19</text>
<rect x="306.3414634146342" y="65.75862068965517" width="2.4300591948517676" height="4.344827586206896" class="bar-render"/>
<text x="95" y="71.93103448275862" text-anchor="end" class="tick-label">state medium</text>
<rect x="100" y="71.96551724137932" width="13.397072188244545" height="4.344827586206896" class="bar-parse"/>
<rect x="113.39707218824455" y="71.96551724137932" width="194.33547024291997" height="4.344827586206896" class="bar-layout"/>
<text x="210.56480730970452" y="78.13793103448276" text-anchor="middle" fill="white" font-size="9">4.21</text>
<rect x="307.7325424311645" y="71.96551724137932" width="2.389654410139268" height="4.344827586206896" class="bar-render"/>
<text x="95" y="78.13793103448276" text-anchor="end" class="tick-label">sequence medium</text>
<rect x="100" y="78.17241379310344" width="13.298946282514187" height="4.344827586206896" class="bar-parse"/>
<rect x="113.29894628251418" y="78.17241379310344" width="198.62414953454675" height="4.344827586206896" class="bar-layout"/>
<text x="212.61102104978755" y="84.34482758620689" text-anchor="middle" fill="white" font-size="9">4.30</text>
<rect x="311.9230958170609" y="78.17241379310344" width="2.5397293247856956" height="4.344827586206896" class="bar-render"/>
<text x="95" y="84.34482758620689" text-anchor="end" class="tick-label">er medium</text>
<rect x="100" y="84.37931034482759" width="11.890550929678483" height="4.344827586206896" class="bar-parse"/>
<rect x="111.89055092967848" y="84.37931034482759" width="186.32955075774325" height="4.344827586206896" class="bar-layout"/>
<text x="205.0553263085501" y="90.55172413793103" text-anchor="middle" fill="white" font-size="9">4.04</text>
<rect x="298.22010168742173" y="84.37931034482759" width="1.9798344509124857" height="4.344827586206896" class="bar-render"/>
<text x="95" y="90.55172413793103" text-anchor="end" class="tick-label">pie medium</text>
<rect x="100" y="90.58620689655173" width="13.391300076142757" height="4.344827586206896" class="bar-parse"/>
<rect x="113.39130007614276" y="90.58620689655173" width="206.60120845921452" height="4.344827586206896" class="bar-layout"/>
<text x="216.69190430575003" y="96.75862068965517" text-anchor="middle" fill="white" font-size="9">4.47</text>
<rect x="319.9925085353573" y="90.58620689655173" width="3.1746616559821197" height="4.344827586206896" class="bar-render"/>
<text x="95" y="96.75862068965517" text-anchor="end" class="tick-label">mindmap medium</text>
<rect x="100" y="96.79310344827586" width="11.786652911846339" height="4.344827586206896" class="bar-parse"/>
<rect x="111.78665291184635" y="96.79310344827586" width="178.88352614643972" height="4.344827586206896" class="bar-layout"/>
<text x="201.2284159850662" y="102.9655172413793" text-anchor="middle" fill="white" font-size="9">3.87</text>
<rect x="290.67017905828607" y="96.79310344827586" width="1.3564463439196328" height="4.344827586206896" class="bar-render"/>
<text x="95" y="102.9655172413793" text-anchor="end" class="tick-label">journey medium</text>
<rect x="100" y="103.0" width="12.023309508019553" height="4.344827586206896" class="bar-parse"/>
<rect x="112.02330950801955" y="103.0" width="191.69761501240393" height="4.344827586206896" class="bar-layout"/>
<text x="207.87211701422152" y="109.17241379310344" text-anchor="middle" fill="white" font-size="9">4.15</text>
<rect x="303.72092452042347" y="103.0" width="1.6450519490089164" height="4.344827586206896" class="bar-render"/>
<text x="95" y="109.17241379310344" text-anchor="end" class="tick-label">timeline medium</text>
<rect x="100" y="109.20689655172414" width="11.913639378085625" height="4.344827586206896" class="bar-parse"/>
<rect x="111.91363937808562" y="109.20689655172414" width="177.45781445729867" height="4.344827586206896" class="bar-layout"/>
<text x="200.64254660673495" y="115.37931034482759" text-anchor="middle" fill="white" font-size="9">3.84</text>
<rect x="289.3714538353843" y="109.20689655172414" width="1.0505244025249922" height="4.344827586206896" class="bar-render"/>
<text x="95" y="115.37931034482759" text-anchor="end" class="tick-label">gantt medium</text>
<rect x="100" y="115.41379310344827" width="13.408616412448115" height="4.344827586206896" class="bar-parse"/>
<rect x="113.40861641244811" y="115.41379310344827" width="204.1538329280574" height="4.344827586206896" class="bar-layout"/>
<text x="215.4855328764768" y="121.58620689655172" text-anchor="middle" fill="white" font-size="9">4.42</text>
<rect x="317.5624493405055" y="115.41379310344827" width="1.806671087858915" height="4.344827586206896" class="bar-render"/>
<text x="95" y="121.58620689655172" text-anchor="end" class="tick-label">requirement medium</text>
<rect x="100" y="121.62068965517241" width="12.335003561515979" height="4.344827586206896" class="bar-parse"/>
<rect x="112.33500356151598" y="121.62068965517241" width="173.948370299413" height="4.344827586206896" class="bar-layout"/>
<text x="199.30918871122248" y="127.79310344827586" text-anchor="middle" fill="white" font-size="9">3.77</text>
<rect x="286.283373860929" y="121.62068965517241" width="1.4892049222607031" height="4.344827586206896" class="bar-render"/>
<text x="95" y="127.79310344827586" text-anchor="end" class="tick-label">gitgraph medium</text>
<rect x="100" y="127.82758620689656" width="12.877582099083833" height="4.344827586206896" class="bar-parse"/>
<rect x="112.87758209908384" y="127.82758620689656" width="177.5617124751308" height="4.344827586206896" class="bar-layout"/>
<text x="201.65843833664923" y="134.0" text-anchor="middle" fill="white" font-size="9">3.85</text>
<rect x="290.4392945742146" y="127.82758620689656" width="2.66671579102498" height="4.344827586206896" class="bar-render"/>
<text x="95" y="134.0" text-anchor="end" class="tick-label">c4 medium</text>
<rect x="100" y="134.0344827586207" width="11.757792351337411" height="4.344827586206896" class="bar-parse"/>
<rect x="111.75779235133741" y="134.0344827586207" width="185.5503156240022" height="4.344827586206896" class="bar-layout"/>
<text x="204.5329501633385" y="140.20689655172416" text-anchor="middle" fill="white" font-size="9">4.02</text>
<rect x="297.3081079753396" y="134.0344827586207" width="1.246776213985705" height="4.344827586206896" class="bar-render"/>
<text x="95" y="140.20689655172416" text-anchor="end" class="tick-label">sankey medium</text>
<rect x="100" y="140.24137931034485" width="13.091150246849901" height="4.344827586206896" class="bar-parse"/>
<rect x="113.0911502468499" y="140.24137931034485" width="195.18974283398427" height="4.344827586206896" class="bar-layout"/>
<text x="210.68602166384204" y="146.4137931034483" text-anchor="middle" fill="white" font-size="9">4.23</text>
<rect x="308.2808930808342" y="140.24137931034485" width="1.5931029400928454" height="4.344827586206896" class="bar-render"/>
<text x="95" y="146.4137931034483" text-anchor="end" class="tick-label">quadrant medium</text>
<rect x="100" y="146.44827586206898" width="12.704418736030263" height="4.344827586206896" class="bar-parse"/>
<rect x="112.70441873603026" y="146.44827586206898" width="178.79694446491294" height="4.344827586206896" class="bar-layout"/>
<text x="202.10289096848675" y="152.62068965517244" text-anchor="middle" fill="white" font-size="9">3.87</text>
<rect x="291.5013632009432" y="146.44827586206898" width="1.281408886596419" height="4.344827586206896" class="bar-render"/>
<text x="95" y="152.62068965517244" text-anchor="end" class="tick-label">zenuml medium</text>
<rect x="100" y="152.6551724137931" width="31.82742612924619" height="4.344827586206896" class="bar-parse"/>
<text x="115.9137130646231" y="158.82758620689657" text-anchor="middle" fill="white" font-size="9">0.69</text>
<rect x="131.8274261292462" y="152.6551724137931" width="171.10849114533443" height="4.344827586206896" class="bar-layout"/>
<text x="217.3816717019134" y="158.82758620689657" text-anchor="middle" fill="white" font-size="9">3.71</text>
<rect x="302.9359172745806" y="152.6551724137931" width="0.9004494878785647" height="4.344827586206896" class="bar-render"/>
<text x="95" y="158.82758620689657" text-anchor="end" class="tick-label">block medium</text>
<rect x="100" y="158.86206896551724" width="12.156068086360623" height="4.344827586206896" class="bar-parse"/>
<rect x="112.15606808636062" y="158.86206896551724" width="173.49237344337192" height="4.344827586206896" class="bar-layout"/>
<text x="198.90225480804656" y="165.0344827586207" text-anchor="middle" fill="white" font-size="9">3.76</text>
<rect x="285.6484415297325" y="158.86206896551724" width="1.0505244025249922" height="4.344827586206896" class="bar-render"/>
<text x="95" y="165.0344827586207" text-anchor="end" class="tick-label">packet medium</text>
<rect x="100" y="165.0689655172414" width="12.265738216294553" height="4.344827586206896" class="bar-parse"/>
<rect x="112.26573821629455" y="165.0689655172414" width="175.50684056689514" height="4.344827586206896" class="bar-layout"/>
<text x="200.0191584997421" y="171.24137931034485" text-anchor="middle" fill="white" font-size="9">3.80</text>
<rect x="287.7725787831897" y="165.0689655172414" width="1.0101196178124923" height="4.344827586206896" class="bar-render"/>
<text x="95" y="171.24137931034485" text-anchor="end" class="tick-label">kanban medium</text>
<rect x="100" y="171.27586206896552" width="11.861690369169557" height="4.344827586206896" class="bar-parse"/>
<rect x="111.86169036916955" y="171.27586206896552" width="172.55729128288263" height="4.344827586206896" class="bar-layout"/>
<text x="198.14033601061087" y="177.44827586206898" text-anchor="middle" fill="white" font-size="9">3.74</text>
<rect x="284.4189816520522" y="171.27586206896552" width="1.1371060840517773" height="4.344827586206896" class="bar-render"/>
<text x="95" y="177.44827586206898" text-anchor="end" class="tick-label">architecture medium</text>
<rect x="100" y="177.48275862068968" width="11.81551347235527" height="4.344827586206896" class="bar-parse"/>
<rect x="111.81551347235526" y="177.48275862068968" width="171.3970967504237" height="4.344827586206896" class="bar-layout"/>
<text x="197.51406184756712" y="183.65517241379314" text-anchor="middle" fill="white" font-size="9">3.71</text>
<rect x="283.21261022277895" y="177.48275862068968" width="1.4430280254464178" height="4.344827586206896" class="bar-render"/>
<text x="95" y="183.65517241379314" text-anchor="end" class="tick-label">radar medium</text>
<rect x="100" y="183.6896551724138" width="12.005993171714197" height="4.344827586206896" class="bar-parse"/>
<rect x="112.0059931717142" y="183.6896551724138" width="177.8503180802201" height="4.344827586206896" class="bar-layout"/>
<text x="200.93115221182424" y="189.86206896551727" text-anchor="middle" fill="white" font-size="9">3.85</text>
<rect x="289.8563112519343" y="183.6896551724138" width="1.16019453245892" height="4.344827586206896" class="bar-render"/>
<text x="95" y="189.86206896551727" text-anchor="end" class="tick-label">treemap medium</text>
<rect x="100" y="189.89655172413794" width="12.750595632844547" height="4.344827586206896" class="bar-parse"/>
<rect x="112.75059563284455" y="189.89655172413794" width="178.67573011077545" height="4.344827586206896" class="bar-layout"/>
<text x="202.08846068823226" y="196.0689655172414" text-anchor="middle" fill="white" font-size="9">3.87</text>
<rect x="291.42632574362" y="189.89655172413794" width="1.5873308279910598" height="4.344827586206896" class="bar-render"/>
<text x="95" y="196.0689655172414" text-anchor="end" class="tick-label">xychart medium</text>
<rect x="100" y="196.1034482758621" width="50.74263748679784" height="4.344827586206896" class="bar-parse"/>
<text x="125.37131874339892" y="202.27586206896555" text-anchor="middle" fill="white" font-size="9">1.10</text>
<rect x="150.74263748679783" y="196.1034482758621" width="180.93262594257365" height="4.344827586206896" class="bar-layout"/>
<text x="241.20895045808464" y="202.27586206896555" text-anchor="middle" fill="white" font-size="9">3.92</text>
<rect x="331.6752634293715" y="196.1034482758621" width="2.337705401223197" height="4.344827586206896" class="bar-render"/>
<text x="95" y="202.27586206896555" text-anchor="end" class="tick-label">flowchart</text>
<rect x="100" y="202.31034482758622" width="12.923758995898117" height="4.344827586206896" class="bar-parse"/>
<rect x="112.92375899589811" y="202.31034482758622" width="180.32655417188616" height="4.344827586206896" class="bar-layout"/>
<text x="203.08703608184118" y="208.48275862068968" text-anchor="middle" fill="white" font-size="9">3.91</text>
<rect x="293.25031316778427" y="202.31034482758622" width="1.598875052194631" height="4.344827586206896" class="bar-render"/>
<text x="95" y="208.48275862068968" text-anchor="end" class="tick-label">sequence</text>
<rect x="100" y="208.51724137931035" width="13.489425981873115" height="4.344827586206896" class="bar-parse"/>
<rect x="113.48942598187311" y="208.51724137931035" width="178.31208704836294" height="4.344827586206896" class="bar-layout"/>
<text x="202.64546950605458" y="214.6896551724138" text-anchor="middle" fill="white" font-size="9">3.86</text>
<rect x="291.80151303023604" y="208.51724137931035" width="1.789354751553558" height="4.344827586206896" class="bar-render"/>
<text x="95" y="214.6896551724138" text-anchor="end" class="tick-label">class</text>
<rect x="100" y="214.7241379310345" width="13.535602878687401" height="4.344827586206896" class="bar-parse"/>
<rect x="113.5356028786874" y="214.7241379310345" width="195.2532360671039" height="4.344827586206896" class="bar-layout"/>
<text x="211.16222091223935" y="220.89655172413796" text-anchor="middle" fill="white" font-size="9">4.23</text>
<rect x="308.7888389457913" y="214.7241379310345" width="2.2338073833910546" height="4.344827586206896" class="bar-render"/>
<text x="95" y="220.89655172413796" text-anchor="end" class="tick-label">state</text>
<rect x="100" y="270" width="12" height="12" class="bar-parse"/>
<text x="117" y="280" class="legend">Parse</text>
<rect x="180" y="270" width="12" height="12" class="bar-layout"/>
<text x="197" y="280" class="legend">Layout</text>
<rect x="270" y="270" width="12" height="12" class="bar-render"/>
<text x="287" y="280" class="legend">Render</text>
</svg>