<svg xmlns="http://www.w3.org/2000/svg" viewBox="0 0 600 300">
<rect width="600" height="300" fill="#FFFFFF"/>
<style>
  .title { font: bold 14px sans-serif; }
  .tick-label { font: 10px sans-serif; }
  .legend { font: 11px sans-serif; }
  .bar-parse { fill: #4CAF50; }
  .bar-layout { fill: #2196F3; }
  .bar-render { fill: #FF9800; }
</style>
<text x="300.0" y="25" text-anchor="middle" class="title">mmdr Pipeline Breakdown</text>
<rect x="100" y="40.55102040816327" width="11.174111060042618" height="2.571428571428571" class="bar-parse"/>
<rect x="111.17411106004262" y="40.55102040816327" width="5.555143525675845" height="2.571428571428571" class="bar-layout"/>
<rect x="116.72925458571846" y="40.55102040816327" width="0.5425040738728951" height="2.571428571428571" class="bar-render"/>
<text x="95" y="45.83673469387755" text-anchor="end" class="tick-label">flowchart small</text>
<rect x="100" y="44.22448979591837" width="18.22420925082522" height="2.571428571428571" class="bar-parse"/>
<rect x="118.22420925082523" y="44.22448979591837" width="46.05638657920026" height="2.571428571428571" class="bar-layout"/>
<text x="141.25240254042535" y="49.51020408163266" text-anchor="middle" fill="white" font-size="9">6.25</text>
<rect x="164.28059583002548" y="44.22448979591837" width="2.005546734634187" height="2.571428571428571" class="bar-render"/>
<text x="95" y="49.51020408163266" text-anchor="end" class="tick-label">flowchart medium</text>
<rect x="100" y="47.89795918367347" width="12.693613420799732" height="2.571428571428571" class="bar-parse"/>
<rect x="112.69361342079974" y="47.89795918367347" width="297.5352546692851" height="2.571428571428571" class="bar-layout"/>
<text x="261.4612407554423" y="53.183673469387756" text-anchor="middle" fill="white" font-size="9">40.40</text>
<rect x="410.22886809008486" y="47.89795918367347" width="4.5094116909706266" height="2.571428571428571" class="bar-render"/>
<text x="95" y="53.183673469387756" text-anchor="end" class="tick-label">flowchart large</text>
<rect x="100" y="51.57142857142858" width="8.43458822546275" height="2.571428571428571" class="bar-parse"/>
<rect x="108.43458822546275" y="51.57142857142858" width="0.5842351564785024" height="2.571428571428571" class="bar-layout"/>
<rect x="109.01882338194125" y="51.57142857142858" width="0.1595600217273221" height="2.571428571428571" class="bar-render"/>
<text x="95" y="56.85714285714286" text-anchor="end" class="tick-label">flowchart tiny</text>
<rect x="100" y="55.244897959183675" width="10.877083942673297" height="2.571428571428571" class="bar-parse"/>
<rect x="110.8770839426733" y="55.244897959183675" width="457.56168261396397" height="2.571428571428571" class="bar-layout"/>
<text x="339.65792524965525" y="60.53061224489796" text-anchor="middle" fill="white" font-size="9">62.13</text>
<rect x="568.4387665566372" y="55.244897959183675" width="1.5612334433627209" height="2.571428571428571" class="bar-render"/>
<text x="95" y="60.53061224489796" text-anchor="end" class="tick-label">flowchart ports heavy</text>
<rect x="100" y="58.91836734693878" width="11.566874190448335" height="2.571428571428571" class="bar-parse"/>
<rect x="111.56687419044833" y="58.91836734693878" width="302.50861780804746" height="2.571428571428571" class="bar-layout"/>
<text x="262.8211830944721" y="64.20408163265307" text-anchor="middle" fill="white" font-size="9">41.08</text>
<rect x="414.0754919984958" y="58.91836734693878" width="1.2887540216437554" height="2.571428571428571" class="bar-render"/>
<text x="95" y="64.20408163265307" text-anchor="end" class="tick-label">flowchart weave</text>
<rect x="100" y="62.591836734693885" width="9.831352107968076" height="2.571428571428571" class="bar-parse"/>
<rect x="109.83135210796807" y="62.591836734693885" width="64.55062048217941" height="2.571428571428571" class="bar-layout"/>
<text x="142.10666234905779" y="67.87755102040816" text-anchor="middle" fill="white" font-size="9">8.77</text>
<rect x="174.38197259014748" y="62.591836734693885" width="0.6235114695190741" height="2.571428571428571" class="bar-render"/>
<text x="95" y="67.87755102040816" text-anchor="end" class="tick-label">flowchart backedges subgraphs</text>
<rect x="100" y="66.26530612244899" width="9.576056073204361" height="2.571428571428571" class="bar-parse"/>
<rect x="109.57605607320436" y="66.26530612244899" width="30.22312288471984" height="2.571428571428571" class="bar-layout"/>
<text x="124.68761751556427" y="71.55102040816328" text-anchor="middle" fill="white" font-size="9">4.10</text>
<rect x="139.7991789579242" y="66.26530612244899" width="0.5179563782225378" height="2.571428571428571" class="bar-render"/>
<text x="95" y="71.55102040816328" text-anchor="end" class="tick-label">flowchart sparse components</text>
<rect x="100" y="69.93877551020408" width="9.080192621067146" height="2.571428571428571" class="bar-parse"/>
<rect x="109.08019262106714" y="69.93877551020408" width="65.63808339949024" height="2.571428571428571" class="bar-layout"/>
<text x="141.89923432081227" y="75.22448979591837" text-anchor="middle" fill="white" font-size="9">8.91</text>
<rect x="174.71827602055737" y="69.93877551020408" width="0.6087828521288596" height="2.571428571428571" class="bar-render"/>
<text x="95" y="75.22448979591837" text-anchor="end" class="tick-label">flowchart lanes crossfeed</text>
<rect x="100" y="73.61224489795919" width="10.55305436008858" height="2.571428571428571" class="bar-parse"/>
<rect x="110.55305436008858" y="73.61224489795919" width="213.29738227551917" height="2.571428571428571" class="bar-layout"/>
<text x="217.20174549784815" y="78.89795918367348" text-anchor="middle" fill="white" font-size="9">28.96</text>
<rect x="323.85043663560776" y="73.61224489795919" width="1.4139472694605775" height="2.571428571428571" class="bar-render"/>
<text x="95" y="78.89795918367348" text-anchor="end" class="tick-label">flowchart grid feedback</text>
<rect x="100" y="77.28571428571429" width="11.719069903480548" height="2.571428571428571" class="bar-parse"/>
<rect x="111.71906990348054" y="77.28571428571429" width="200.00235031128565" height="2.571428571428571" class="bar-layout"/>
<text x="211.72024505912339" y="82.57142857142858" text-anchor="middle" fill="white" font-size="9">27.16</text>
<rect x="311.7214202147662" y="77.28571428571429" width="1.1954727781723977" height="2.571428571428571" class="bar-render"/>
<text x="95" y="82.57142857142858" text-anchor="end" class="tick-label">flowchart fanout returns</text>
<rect x="100" y="80.95918367346938" width="9.777347177537292" height="2.571428571428571" class="bar-parse"/>
<rect x="109.7773471775373" y="80.95918367346938" width="185.42101909497345" height="2.571428571428571" class="bar-layout"/>
<text x="202.48785672502402" y="86.24489795918367" text-anchor="middle" fill="white" font-size="9">25.18</text>
<rect x="295.1983662725107" y="80.95918367346938" width="1.2421133999080767" height="2.571428571428571" class="bar-render"/>
<text x="95" y="86.24489795918367" text-anchor="end" class="tick-label">flowchart label collision</text>
<rect x="100" y="84.6326530612245" width="12.043099486065266" height="2.571428571428571" class="bar-parse"/>
<rect x="112.04309948606527" y="84.6326530612245" width="79.40934065934066" height="2.571428571428571" class="bar-layout"/>
<text x="151.7477698157356" y="89.9183673469388" text-anchor="middle" fill="white" font-size="9">10.78</text>
<rect x="191.45244014540594" y="84.6326530612245" width="0.9377219738436469" height="2.571428571428571" class="bar-render"/>
<text x="95" y="89.9183673469388" text-anchor="end" class="tick-label">flowchart nested clusters</text>
<rect x="100" y="88.3061224489796" width="13.403041825095057" height="2.571428571428571" class="bar-parse"/>
<rect x="113.40304182509506" y="88.3061224489796" width="27.25039694146158" height="2.571428571428571" class="bar-layout"/>
<text x="127.02824029582585" y="93.59183673469389" text-anchor="middle" fill="white" font-size="9">3.70</text>
<rect x="140.65343876655663" y="88.3061224489796" width="0.8591693477625036" height="2.571428571428571" class="bar-render"/>
<text x="95" y="93.59183673469389" text-anchor="end" class="tick-label">flowchart asymmetric components</text>
<rect x="100" y="91.9795918367347" width="11.505504951322441" height="2.571428571428571" class="bar-parse"/>
<rect x="111.50550495132244" y="91.9795918367347" width="61.65153762587222" height="2.571428571428571" class="bar-layout"/>
<text x="142.33127376425855" y="97.26530612244899" text-anchor="middle" fill="white" font-size="9">8.37</text>
<rect x="173.15704257719466" y="91.9795918367347" width="1.2494777086031836" height="2.571428571428571" class="bar-render"/>
<text x="95" y="97.26530612244899" text-anchor="end" class="tick-label">flowchart parallel merges</text>
<rect x="100" y="95.6530612244898" width="11.375402164375547" height="2.571428571428571" class="bar-parse"/>
<rect x="111.37540216437554" y="95.6530612244898" width="147.3966385325701" height="2.571428571428571" class="bar-layout"/>
<text x="185.0737214306606" y="100.9387755102041" text-anchor="middle" fill="white" font-size="9">20.02</text>
<rect x="258.7720406969456" y="95.6530612244898" width="0.9377219738436469" height="2.571428571428571" class="bar-render"/>
<text x="95" y="100.9387755102041" text-anchor="end" class="tick-label">flowchart long edge labels</text>
<rect x="100" y="99.3265306122449" width="9.372310199306398" height="2.571428571428571" class="bar-parse"/>
<rect x="109.3723101993064" y="99.3265306122449" width="139.29344419838716" height="2.571428571428571" class="bar-layout"/>
<text x="179.01903229849998" y="104.61224489795919" text-anchor="middle" fill="white" font-size="9">18.91</text>
<rect x="248.66575439769355" y="99.3265306122449" width="0.802709647766682" height="2.571428571428571" class="bar-render"/>
<text x="95" y="104.61224489795919" text-anchor="end" class="tick-label">flowchart selfloop bidi</text>
<rect x="100" y="103.00000000000001" width="9.33057911670079" height="2.571428571428571" class="bar-parse"/>
<rect x="109.33057911670079" y="103.00000000000001" width="20.0505578072118" height="2.571428571428571" class="bar-layout"/>
<rect x="129.38113692391258" y="103.00000000000001" width="0.5940542347386455" height="2.571428571428571" class="bar-render"/>
<text x="95" y="108.2857142857143" text-anchor="end" class="tick-label">flowchart component packing</text>
<rect x="100" y="106.6734693877551" width="10.479411273137508" height="2.571428571428571" class="bar-parse"/>
<rect x="110.47941127313752" y="106.6734693877551" width="46.95483224000335" height="2.571428571428571" class="bar-layout"/>
<text x="133.95682739313918" y="111.9591836734694" text-anchor="middle" fill="white" font-size="9">6.38</text>
<rect x="157.43424351314087" y="106.6734693877551" width="0.6357853173442527" height="2.571428571428571" class="bar-render"/>
<text x="95" y="111.9591836734694" text-anchor="end" class="tick-label">flowchart direction conflict</text>
<rect x="100" y="110.34693877551021" width="9.016368612376215" height="2.571428571428571" class="bar-parse"/>
<rect x="109.01636861237621" y="110.34693877551021" width="73.78546358584381" height="2.571428571428571" class="bar-layout"/>
<text x="145.90910040529812" y="115.6326530612245" text-anchor="middle" fill="white" font-size="9">10.02</text>
<rect x="182.80183219822004" y="110.34693877551021" width="0.6210566999540383" height="2.571428571428571" class="bar-render"/>
<text x="95" y="115.6326530612245" text-anchor="end" class="tick-label">flowchart parallel label stack</text>
<rect x="100" y="114.02040816326532" width="2.246114152007688" height="2.571428571428571" class="bar-parse"/>
<rect x="102.24611415200769" y="114.02040816326532" width="11.67242928174487" height="2.571428571428571" class="bar-layout"/>
<rect x="113.91854343375256" y="114.02040816326532" width="0.5645969999582168" height="2.571428571428571" class="bar-render"/>
<text x="95" y="119.30612244897961" text-anchor="end" class="tick-label">class medium</text>
<rect x="100" y="117.6938775510204" width="3.223112438891907" height="2.571428571428571" class="bar-parse"/>
<rect x="103.2231124388919" y="117.6938775510204" width="17.38222329001797" height="2.571428571428571" class="bar-layout"/>
<rect x="120.60533572890986" y="117.6938775510204" width="0.7045188651652531" height="2.571428571428571" class="bar-render"/>
<text x="95" y="122.9795918367347" text-anchor="end" class="tick-label">state medium</text>
<rect x="100" y="121.36734693877551" width="2.741977604144904" height="2.571428571428571" class="bar-parse"/>
<rect x="102.7419776041449" y="121.36734693877551" width="2.2215664563573307" height="2.571428571428571" class="bar-layout"/>
<rect x="104.96354406050224" y="121.36734693877551" width="0.5940542347386455" height="2.571428571428571" class="bar-render"/>
<text x="95" y="126.6530612244898" text-anchor="end" class="tick-label">sequence medium</text>
<rect x="100" y="125.04081632653062" width="3.0365499519491914" height="2.571428571428571" class="bar-parse"/>
<rect x="103.0365499519492" y="125.04081632653062" width="7.325032382066602" height="2.571428571428571" class="bar-layout"/>
<rect x="110.3615823340158" y="125.04081632653062" width="0.9205385868883967" height="2.571428571428571" class="bar-render"/>
<text x="95" y="130.3265306122449" text-anchor="end" class="tick-label">er medium</text>
<rect x="100" y="128.71428571428572" width="4.894810512681235" height="2.571428571428571" class="bar-parse"/>
<rect x="104.89481051268123" y="128.71428571428572" width="3.0733714954247273" height="2.571428571428571" class="bar-layout"/>
<rect x="107.96818200810596" y="128.71428571428572" width="1.0064555216646471" height="2.571428571428571" class="bar-render"/>
<text x="95" y="134.0" text-anchor="end" class="tick-label">pie medium</text>
<rect x="100" y="132.3877551020408" width="5.162380395270129" height="2.571428571428571" class="bar-parse"/>
<rect x="105.16238039527013" y="132.3877551020408" width="2.2682070780930097" height="2.571428571428571" class="bar-layout"/>
<rect x="107.43058747336315" y="132.3877551020408" width="1.259296786863327" height="2.571428571428571" class="bar-render"/>
<text x="95" y="137.6734693877551" text-anchor="end" class="tick-label">mindmap medium</text>
<rect x="100" y="136.0612244897959" width="4.767162495299377" height="2.571428571428571" class="bar-parse"/>
<rect x="104.76716249529937" y="136.0612244897959" width="1.6422408390088998" height="2.571428571428571" class="bar-layout"/>
<rect x="106.40940333430828" y="136.0612244897959" width="0.6112376216938954" height="2.571428571428571" class="bar-render"/>
<text x="95" y="141.34693877551018" text-anchor="end" class="tick-label">journey medium</text>
<rect x="100" y="139.73469387755102" width="4.779436343124557" height="2.571428571428571" class="bar-parse"/>
<rect x="104.77943634312456" y="139.73469387755102" width="1.4777712781515062" height="2.571428571428571" class="bar-layout"/>
<rect x="106.25720762127607" y="139.73469387755102" width="0.6333305477792169" height="2.571428571428571" class="bar-render"/>
<text x="95" y="145.0204081632653" text-anchor="end" class="tick-label">timeline medium</text>
<rect x="100" y="143.40816326530611" width="4.929177286591735" height="2.571428571428571" class="bar-parse"/>
<rect x="104.92917728659174" y="143.40816326530611" width="1.6815171520494714" height="2.571428571428571" class="bar-layout"/>
<rect x="106.6106944386412" y="143.40816326530611" width="0.7634333347261104" height="2.571428571428571" class="bar-render"/>
<text x="95" y="148.6938775510204" text-anchor="end" class="tick-label">gantt medium</text>
<rect x="100" y="147.0816326530612" width="3.4194940040947643" height="2.571428571428571" class="bar-parse"/>
<rect x="103.41949400409476" y="147.0816326530612" width="3.736159277984372" height="2.571428571428571" class="bar-layout"/>
<rect x="107.15565328207913" y="147.0816326530612" width="0.4786800651819663" height="2.571428571428571" class="bar-render"/>
<text x="95" y="152.36734693877548" text-anchor="end" class="tick-label">requirement medium</text>
<rect x="100" y="150.75510204081633" width="2.4866815693811892" height="2.571428571428571" class="bar-parse"/>
<rect x="102.48668156938119" y="150.75510204081633" width="0.8370764216771821" height="2.571428571428571" class="bar-layout"/>
<rect x="103.32375799105837" y="150.75510204081633" width="0.3780345130155016" height="2.571428571428571" class="bar-render"/>
<text x="95" y="156.0408163265306" text-anchor="end" class="tick-label">gitgraph medium</text>
<rect x="100" y="154.42857142857142" width="3.2574792128024064" height="2.571428571428571" class="bar-parse"/>
<rect x="103.25747921280241" y="154.42857142857142" width="1.507228512931935" height="2.571428571428571" class="bar-layout"/>
<rect x="104.76470772573434" y="154.42857142857142" width="0.7192474825554673" height="2.571428571428571" class="bar-render"/>
<text x="95" y="159.7142857142857" text-anchor="end" class="tick-label">c4 medium</text>
<rect x="100" y="158.1020408163265" width="3.2893912171478714" height="2.571428571428571" class="bar-parse"/>
<rect x="103.28939121714787" y="158.1020408163265" width="1.2617515564283626" height="2.571428571428571" class="bar-layout"/>
<rect x="104.55114277357623" y="158.1020408163265" width="0.40749174779593034" height="2.571428571428571" class="bar-render"/>
<text x="95" y="163.38775510204079" text-anchor="end" class="tick-label">sankey medium</text>
<rect x="100" y="161.77551020408163" width="5.7343417039234525" height="2.571428571428571" class="bar-parse"/>
<rect x="105.73434170392345" y="161.77551020408163" width="1.7944365520411147" height="2.571428571428571" class="bar-layout"/>
<rect x="107.52877825596457" y="161.77551020408163" width="0.5670517695232524" height="2.571428571428571" class="bar-render"/>
<text x="95" y="167.0612244897959" text-anchor="end" class="tick-label">quadrant medium</text>
<rect x="100" y="165.44897959183675" width="4.752433877909164" height="2.571428571428571" class="bar-parse"/>
<rect x="104.75243387790917" y="165.44897959183675" width="1.6815171520494714" height="2.571428571428571" class="bar-layout"/>
<rect x="106.43395102995864" y="165.44897959183675" width="0.5670517695232524" height="2.571428571428571" class="bar-render"/>
<text x="95" y="170.73469387755102" text-anchor="end" class="tick-label">zenuml medium</text>
<rect x="100" y="169.12244897959184" width="14.53714536414156" height="2.571428571428571" class="bar-parse"/>
<rect x="114.53714536414157" y="169.12244897959184" width="0.927902895583504" height="2.571428571428571" class="bar-layout"/>
<rect x="115.46504825972507" y="169.12244897959184" width="0.34121296953996577" height="2.571428571428571" class="bar-render"/>
<text x="95" y="174.40816326530611" text-anchor="end" class="tick-label">block medium</text>
<rect x="100" y="172.79591836734693" width="4.514321230100697" height="2.571428571428571" class="bar-parse"/>
<rect x="104.51432123010069" y="172.79591836734693" width="2.0693707433251163" height="2.571428571428571" class="bar-layout"/>
<rect x="106.5836919734258" y="172.79591836734693" width="0.4050369782308946" height="2.571428571428571" class="bar-render"/>
<text x="95" y="178.0816326530612" text-anchor="end" class="tick-label">packet medium</text>
<rect x="100" y="176.46938775510202" width="4.956179751807128" height="2.571428571428571" class="bar-parse"/>
<rect x="104.95617975180713" y="176.46938775510202" width="1.7355220824802573" height="2.571428571428571" class="bar-layout"/>
<rect x="106.69170183428739" y="176.46938775510202" width="0.4295846738812518" height="2.571428571428571" class="bar-render"/>
<text x="95" y="181.7551020408163" text-anchor="end" class="tick-label">kanban medium</text>
<rect x="100" y="180.14285714285714" width="4.860443738770735" height="2.571428571428571" class="bar-parse"/>
<rect x="104.86044373877074" y="180.14285714285714" width="1.5096832824969706" height="2.571428571428571" class="bar-layout"/>
<rect x="106.3701270212677" y="180.14285714285714" width="0.46886098692182343" height="2.571428571428571" class="bar-render"/>
<text x="95" y="185.42857142857142" text-anchor="end" class="tick-label">architecture medium</text>
<rect x="100" y="183.81632653061223" width="4.909539130071449" height="2.571428571428571" class="bar-parse"/>
<rect x="104.90953913007145" y="183.81632653061223" width="1.3844900346801488" height="2.571428571428571" class="bar-layout"/>
<rect x="106.2940291647516" y="183.81632653061223" width="0.5842351564785024" height="2.571428571428571" class="bar-render"/>
<text x="95" y="189.1020408163265" text-anchor="end" class="tick-label">radar medium</text>
<rect x="100" y="187.48979591836735" width="5.218840095265951" height="2.571428571428571" class="bar-parse"/>
<rect x="105.21884009526595" y="187.48979591836735" width="2.2436593824426523" height="2.571428571428571" class="bar-layout"/>
<rect x="107.4624994777086" y="187.48979591836735" width="0.5965090043036811" height="2.571428571428571" class="bar-render"/>
<text x="95" y="192.77551020408163" text-anchor="end" class="tick-label">treemap medium</text>
<rect x="100" y="191.16326530612244" width="3.250114904107299" height="2.571428571428571" class="bar-parse"/>
<rect x="103.2501149041073" y="191.16326530612244" width="0.9745435173191828" height="2.571428571428571" class="bar-layout"/>
<rect x="104.22465842142648" y="191.16326530612244" width="0.46886098692182343" height="2.571428571428571" class="bar-render"/>
<text x="95" y="196.44897959183672" text-anchor="end" class="tick-label">xychart medium</text>
<rect x="100" y="194.83673469387753" width="15.749801529269208" height="2.571428571428571" class="bar-parse"/>
<rect x="115.7498015292692" y="194.83673469387753" width="17.048374629173107" height="2.571428571428571" class="bar-layout"/>
<rect x="132.79817615844232" y="194.83673469387753" width="0.8125287260268248" height="2.571428571428571" class="bar-render"/>
<text x="95" y="200.1224489795918" text-anchor="end" class="tick-label">flowchart</text>
<rect x="100" y="198.51020408163265" width="3.520139556261229" height="2.571428571428571" class="bar-parse"/>
<rect x="103.52013955626123" y="198.51020408163265" width="1.6913362303096142" height="2.571428571428571" class="bar-layout"/>
<rect x="105.21147578657084" y="198.51020408163265" width="0.6210566999540383" height="2.571428571428571" class="bar-render"/>
<text x="95" y="203.79591836734693" text-anchor="end" class="tick-label">sequence</text>
<rect x="100" y="202.18367346938774" width="5.722067856098275" height="2.571428571428571" class="bar-parse"/>
<rect x="105.72206785609828" y="202.18367346938774" width="5.329304725692558" height="2.571428571428571" class="bar-layout"/>
<rect x="111.05137258179083" y="202.18367346938774" width="0.8272573434170392" height="2.571428571428571" class="bar-render"/>
<text x="95" y="207.46938775510202" text-anchor="end" class="tick-label">class</text>
<rect x="100" y="205.85714285714286" width="2.8868090084820124" height="2.571428571428571" class="bar-parse"/>
<rect x="102.88680900848202" y="205.85714285714286" width="15.467503029290102" height="2.571428571428571" class="bar-layout"/>
<rect x="118.35431203777212" y="205.85714285714286" width="0.49340868257218073" height="2.571428571428571" class="bar-render"/>
<text x="95" y="211.14285714285714" text-anchor="end" class="tick-label">state</text>
<rect x="100" y="209.53061224489795" width="4.904629590941378" height="2.571428571428571" class="bar-parse"/>
<rect x="104.90462959094138" y="209.53061224489795" width="2.4204027911252246" height="2.571428571428571" class="bar-layout"/>
<rect x="107.32503238206661" y="209.53061224489795" width="0.5940542347386455" height="2.571428571428571" class="bar-render"/>
<text x="95" y="214.81632653061223" text-anchor="end" class="tick-label">class tiny</text>
<rect x="100" y="213.20408163265304" width="5.45449797350938" height="2.571428571428571" class="bar-parse"/>
<rect x="105.45449797350938" y="213.20408163265304" width="2.827894538921155" height="2.571428571428571" class="bar-layout"/>
<rect x="108.28239251243053" y="213.20408163265304" width="0.5105920695274307" height="2.571428571428571" class="bar-render"/>
<text x="95" y="218.48979591836732" text-anchor="end" class="tick-label">state tiny</text>
<rect x="100" y="216.87755102040816" width="4.722976643128734" height="2.571428571428571" class="bar-parse"/>
<rect x="104.72297664312873" y="216.87755102040816" width="1.5956002172732209" height="2.571428571428571" class="bar-layout"/>
<rect x="106.31857686040195" y="216.87755102040816" width="0.5155016086575022" height="2.571428571428571" class="bar-render"/>
<text x="95" y="222.16326530612244" text-anchor="end" class="tick-label">sequence tiny</text>
<rect x="100" y="270" width="12" height="12" class="bar-parse"/>
<text x="117" y="280" class="legend">Parse</text>
<rect x="180" y="270" width="12" height="12" class="bar-layout"/>
<text x="197" y="280" class="legend">Layout</text>
<rect x="270" y="270" width="12" height="12" class="bar-render"/>
<text x="287" y="280" class="legend">Render</text>
</svg>