<svg xmlns="http://www.w3.org/2000/svg" viewBox="0 0 520 300">
  <rect width="520" height="300" fill="#FFFFFF"/>
  <style>
    .title { font: bold 18px system-ui, sans-serif; fill: #000; }
    .label { font: bold 13px system-ui, sans-serif; fill: #000; }
    .value { font: bold 10px system-ui, sans-serif; fill: white; }
    .axis { font: 12px system-ui, sans-serif; fill: #000; }
    .legend { font: bold 12px system-ui, sans-serif; fill: #000; }
  </style>

  <text x="260.0" y="28" text-anchor="middle" class="title">mmdr Pipeline Breakdown (ms)</text>

  <!-- Legend -->
  <rect x="140" y="46" width="14" height="14" rx="2" fill="#10b981"/>
  <text x="158" y="58" class="legend">Parse</text>
  <rect x="220" y="46" width="14" height="14" rx="2" fill="#3b82f6"/>
  <text x="238" y="58" class="legend">Layout</text>
  <rect x="310" y="46" width="14" height="14" rx="2" fill="#8b5cf6"/>
  <text x="328" y="58" class="legend">Render</text>

  <!-- Grid lines for 0.0 to 2.8ms -->
  <line x1="50" y1="260.0" x2="500" y2="260.0" stroke="#d1d5db" stroke-width="1"/>
  <text x="44" y="264.0" text-anchor="end" class="axis">0.0</text>
  <line x1="50" y1="205.0" x2="500" y2="205.0" stroke="#d1d5db" stroke-width="1"/>
  <text x="44" y="209.0" text-anchor="end" class="axis">0.7</text>
  <line x1="50" y1="150.0" x2="500" y2="150.0" stroke="#d1d5db" stroke-width="1"/>
  <text x="44" y="154.0" text-anchor="end" class="axis">1.4</text>
  <line x1="50" y1="95.0" x2="500" y2="95.0" stroke="#d1d5db" stroke-width="1"/>
  <text x="44" y="99.0" text-anchor="end" class="axis">2.1</text>
  <line x1="50" y1="40.0" x2="500" y2="40.0" stroke="#d1d5db" stroke-width="1"/>
  <text x="44" y="44.0" text-anchor="end" class="axis">2.8</text>

  <!-- Flowchart (2.63ms): parse=1.68 layout=0.74 render=0.22 -->
  <rect x="72.5" y="128.0" width="67.5" height="132.0" fill="#10b981"/>
  <text x="106.25" y="198.0" text-anchor="middle" class="value">1.68</text>
  <rect x="72.5" y="70.0" width="67.5" height="58.0" fill="#3b82f6"/>
  <text x="106.25" y="103.0" text-anchor="middle" class="value">0.74</text>
  <rect x="72.5" y="53.0" width="67.5" height="17.0" rx="3 3 0 0" fill="#8b5cf6"/>
  <text x="106.25" y="278" text-anchor="middle" class="label">Flowchart</text>

  <!-- Class (1.23ms): parse=0.70 layout=0.37 render=0.16 -->
  <rect x="185.0" y="205.0" width="67.5" height="55.0" fill="#10b981"/>
  <text x="218.75" y="236.0" text-anchor="middle" class="value">0.70</text>
  <rect x="185.0" y="176.0" width="67.5" height="29.0" fill="#3b82f6"/>
  <text x="218.75" y="194.0" text-anchor="middle" class="value">0.37</text>
  <rect x="185.0" y="163.0" width="67.5" height="13.0" rx="3 3 0 0" fill="#8b5cf6"/>
  <text x="218.75" y="278" text-anchor="middle" class="label">Class</text>

  <!-- State (1.62ms): parse=0.44 layout=0.77 render=0.41 -->
  <rect x="297.5" y="225.0" width="67.5" height="35.0" fill="#10b981"/>
  <text x="331.25" y="246.0" text-anchor="middle" class="value">0.44</text>
  <rect x="297.5" y="164.0" width="67.5" height="61.0" fill="#3b82f6"/>
  <text x="331.25" y="198.0" text-anchor="middle" class="value">0.77</text>
  <rect x="297.5" y="132.0" width="67.5" height="32.0" rx="3 3 0 0" fill="#8b5cf6"/>
  <text x="331.25" y="278" text-anchor="middle" class="label">State</text>

  <!-- Sequence (0.61ms): parse=0.40 layout=0.15 render=0.07 -->
  <rect x="410.0" y="228.0" width="67.5" height="32.0" fill="#10b981"/>
  <text x="443.75" y="248.0" text-anchor="middle" class="value">0.40</text>
  <rect x="410.0" y="216.0" width="67.5" height="12.0" fill="#3b82f6"/>
  <text x="443.75" y="226.0" text-anchor="middle" class="value">0.15</text>
  <rect x="410.0" y="210.0" width="67.5" height="6.0" rx="3 3 0 0" fill="#8b5cf6"/>
  <text x="443.75" y="278" text-anchor="middle" class="label">Sequence</text>
</svg>
