<svg xmlns="http://www.w3.org/2000/svg" viewBox="0 0 600 300">
<style>
  .title { font: bold 14px sans-serif; }
  .tick-label { font: 10px sans-serif; }
  .legend { font: 11px sans-serif; }
  .bar-parse { fill: #4CAF50; }
  .bar-layout { fill: #2196F3; }
  .bar-render { fill: #FF9800; }
</style>
<text x="300.0" y="25" text-anchor="middle" class="title">mmdr Pipeline Breakdown</text>
<rect x="100" y="42.45454545454545" width="11.32249131624862" height="11.454545454545453" class="bar-parse"/>
<rect x="111.32249131624862" y="42.45454545454545" width="3.319121133056753" height="11.454545454545453" class="bar-layout"/>
<rect x="114.64161244930537" y="42.45454545454545" width="0.42677345704253333" height="11.454545454545453" class="bar-render"/>
<text x="95" y="52.18181818181818" text-anchor="end" class="tick-label">flowchart small</text>
<rect x="100" y="58.81818181818181" width="10.000451103967825" height="11.454545454545453" class="bar-parse"/>
<rect x="110.00045110396782" y="58.81818181818181" width="27.4147231604053" height="11.454545454545453" class="bar-layout"/>
<text x="123.70781268417046" y="68.54545454545453" text-anchor="middle" fill="white" font-size="9">5.01</text>
<rect x="137.41517426437312" y="58.81818181818181" width="3.0072482221410564" height="11.454545454545453" class="bar-render"/>
<text x="95" y="68.54545454545453" text-anchor="end" class="tick-label">flowchart medium</text>
<rect x="100" y="75.18181818181817" width="22.359099130824518" height="11.454545454545453" class="bar-parse"/>
<rect x="122.35909913082452" y="75.18181818181817" width="433.13402298884023" height="11.454545454545453" class="bar-layout"/>
<text x="338.92611062524463" y="84.9090909090909" text-anchor="middle" fill="white" font-size="9">79.16</text>
<rect x="555.4931221196648" y="75.18181818181817" width="14.506877880335214" height="11.454545454545453" class="bar-render"/>
<text x="95" y="84.9090909090909" text-anchor="end" class="tick-label">flowchart large</text>
<rect x="100" y="91.54545454545455" width="9.725510511450038" height="11.454545454545453" class="bar-parse"/>
<rect x="109.72551051145004" y="91.54545454545455" width="4.665782890936158" height="11.454545454545453" class="bar-layout"/>
<rect x="114.3912934023862" y="91.54545454545455" width="1.149005461268359" height="11.454545454545453" class="bar-render"/>
<text x="95" y="101.27272727272728" text-anchor="end" class="tick-label">flowchart</text>
<rect x="100" y="107.9090909090909" width="9.557263283192885" height="11.454545454545453" class="bar-parse"/>
<rect x="109.55726328319288" y="107.9090909090909" width="0.7892573227998131" height="11.454545454545453" class="bar-layout"/>
<rect x="110.3465206059927" y="107.9090909090909" width="0.22022604674310214" height="11.454545454545453" class="bar-render"/>
<text x="95" y="117.63636363636363" text-anchor="end" class="tick-label">flowchart tiny</text>
<rect x="100" y="124.27272727272727" width="2.5579050149664657" height="11.454545454545453" class="bar-parse"/>
<rect x="102.55790501496647" y="124.27272727272727" width="1.2686935301504796" height="11.454545454545453" class="bar-layout"/>
<rect x="103.82659854511695" y="124.27272727272727" width="0.5957046171218694" height="11.454545454545453" class="bar-render"/>
<text x="95" y="134.0" text-anchor="end" class="tick-label">class</text>
<rect x="100" y="140.63636363636365" width="2.0976188986369384" height="11.454545454545453" class="bar-parse"/>
<rect x="102.09761889863694" y="140.63636363636365" width="0.9192043690146872" height="11.454545454545453" class="bar-layout"/>
<rect x="103.01682326765163" y="140.63636363636365" width="0.19628843296667794" height="11.454545454545453" class="bar-render"/>
<text x="95" y="150.36363636363637" text-anchor="end" class="tick-label">class tiny</text>
<rect x="100" y="157.00000000000003" width="2.558588946788649" height="11.454545454545453" class="bar-parse"/>
<rect x="102.55858894678865" y="157.00000000000003" width="4.251320206692928" height="11.454545454545453" class="bar-layout"/>
<rect x="106.80990915348157" y="157.00000000000003" width="1.0005922558545293" height="11.454545454545453" class="bar-render"/>
<text x="95" y="166.72727272727275" text-anchor="end" class="tick-label">state</text>
<rect x="100" y="173.36363636363637" width="2.0565829893059258" height="11.454545454545453" class="bar-parse"/>
<rect x="102.05658298930592" y="173.36363636363637" width="0.9274115508808897" height="11.454545454545453" class="bar-layout"/>
<rect x="102.98399454018681" y="173.36363636363637" width="0.21612245581000084" height="11.454545454545453" class="bar-render"/>
<text x="95" y="183.0909090909091" text-anchor="end" class="tick-label">state tiny</text>
<rect x="100" y="189.72727272727275" width="2.3513576046670344" height="11.454545454545453" class="bar-parse"/>
<rect x="102.35135760466703" y="189.72727272727275" width="0.8343968230639273" height="11.454545454545453" class="bar-layout"/>
<rect x="103.18575442773096" y="189.72727272727275" width="0.3645356612238306" height="11.454545454545453" class="bar-render"/>
<text x="95" y="199.45454545454547" text-anchor="end" class="tick-label">sequence</text>
<rect x="100" y="206.0909090909091" width="2.0853081258376345" height="11.454545454545453" class="bar-parse"/>
<rect x="102.08530812583763" y="206.0909090909091" width="0.6675174584511419" height="11.454545454545453" class="bar-layout"/>
<rect x="102.75282558428877" y="206.0909090909091" width="0.21475459216563375" height="11.454545454545453" class="bar-render"/>
<text x="95" y="215.8181818181818" text-anchor="end" class="tick-label">sequence tiny</text>
<rect x="100" y="270" width="12" height="12" class="bar-parse"/>
<text x="117" y="280" class="legend">Parse</text>
<rect x="180" y="270" width="12" height="12" class="bar-layout"/>
<text x="197" y="280" class="legend">Layout</text>
<rect x="270" y="270" width="12" height="12" class="bar-render"/>
<text x="287" y="280" class="legend">Render</text>
</svg>