<svg xmlns="http://www.w3.org/2000/svg" xmlns:xlink="http://www.w3.org/1999/xlink" version="1.1" class="marks" width="522" height="358" viewBox="0 0 522 358"><rect width="522" height="358" fill="white"/><g fill="none" stroke-miterlimit="10" transform="translate(47,31)"><g class="mark-group role-frame root" role="graphics-object" aria-roledescription="group mark container"><g transform="translate(0,0)"><path class="background" aria-hidden="true" d="M0,0h400v250h-400Z"/><g><g class="mark-group role-axis" aria-hidden="true"><g transform="translate(0.5,0.5)"><path class="background" aria-hidden="true" d="M0,0h0v0h0Z" pointer-events="none"/><g><g class="mark-rule role-axis-grid" pointer-events="none"><line transform="translate(0,250)" x2="400" y2="0" stroke="#ddd" stroke-width="1" opacity="1"/><line transform="translate(0,208)" x2="400" y2="0" stroke="#ddd" stroke-width="1" opacity="1"/><line transform="translate(0,167)" x2="400" y2="0" stroke="#ddd" stroke-width="1" opacity="1"/><line transform="translate(0,125)" x2="400" y2="0" stroke="#ddd" stroke-width="1" opacity="1"/><line transform="translate(0,83)" x2="400" y2="0" stroke="#ddd" stroke-width="1" opacity="1"/><line transform="translate(0,42)" x2="400" y2="0" stroke="#ddd" stroke-width="1" opacity="1"/><line transform="translate(0,0)" x2="400" y2="0" stroke="#ddd" stroke-width="1" opacity="1"/></g></g><path class="foreground" aria-hidden="true" d="" pointer-events="none" display="none"/></g></g><g class="mark-group role-axis" role="graphics-symbol" aria-roledescription="axis" aria-label="X-axis for a discrete scale with 4 values: Flowchart, Class, State, Sequence"><g transform="translate(0.5,250.5)"><path class="background" aria-hidden="true" d="M0,0h0v0h0Z" pointer-events="none"/><g><g class="mark-rule role-axis-tick" pointer-events="none"><line transform="translate(50,0)" x2="0" y2="5" stroke="#888" stroke-width="1" opacity="1"/><line transform="translate(150,0)" x2="0" y2="5" stroke="#888" stroke-width="1" opacity="1"/><line transform="translate(250,0)" x2="0" y2="5" stroke="#888" stroke-width="1" opacity="1"/><line transform="translate(350,0)" x2="0" y2="5" stroke="#888" stroke-width="1" opacity="1"/></g><g class="mark-text role-axis-label" pointer-events="none"><text text-anchor="end" transform="translate(49.5,7) rotate(270) translate(0,4)" font-family="sans-serif" font-size="12px" fill="#000" opacity="1">Flowchart</text><text text-anchor="end" transform="translate(149.5,7) rotate(270) translate(0,4)" font-family="sans-serif" font-size="12px" fill="#000" opacity="1">Class</text><text text-anchor="end" transform="translate(249.5,7) rotate(270) translate(0,4)" font-family="sans-serif" font-size="12px" fill="#000" opacity="1">State</text><text text-anchor="end" transform="translate(349.5,7) rotate(270) translate(0,4)" font-family="sans-serif" font-size="12px" fill="#000" opacity="1">Sequence</text></g><g class="mark-rule role-axis-domain" pointer-events="none"><line transform="translate(0,0)" x2="400" y2="0" stroke="#888" stroke-width="1" opacity="1"/></g></g><path class="foreground" aria-hidden="true" d="" pointer-events="none" display="none"/></g></g><g class="mark-group role-axis" role="graphics-symbol" aria-roledescription="axis" aria-label="Y-axis titled 'Time (ms)' for a linear scale with values from 0.0 to 1.2"><g transform="translate(0.5,0.5)"><path class="background" aria-hidden="true" d="M0,0h0v0h0Z" pointer-events="none"/><g><g class="mark-rule role-axis-tick" pointer-events="none"><line transform="translate(0,250)" x2="-5" y2="0" stroke="#888" stroke-width="1" opacity="1"/><line transform="translate(0,208)" x2="-5" y2="0" stroke="#888" stroke-width="1" opacity="1"/><line transform="translate(0,167)" x2="-5" y2="0" stroke="#888" stroke-width="1" opacity="1"/><line transform="translate(0,125)" x2="-5" y2="0" stroke="#888" stroke-width="1" opacity="1"/><line transform="translate(0,83)" x2="-5" y2="0" stroke="#888" stroke-width="1" opacity="1"/><line transform="translate(0,42)" x2="-5" y2="0" stroke="#888" stroke-width="1" opacity="1"/><line transform="translate(0,0)" x2="-5" y2="0" stroke="#888" stroke-width="1" opacity="1"/></g><g class="mark-text role-axis-label" pointer-events="none"><text text-anchor="end" transform="translate(-7,253)" font-family="sans-serif" font-size="11px" fill="#000" opacity="1">0.0</text><text text-anchor="end" transform="translate(-7,211.33333333333331)" font-family="sans-serif" font-size="11px" fill="#000" opacity="1">0.2</text><text text-anchor="end" transform="translate(-7,169.66666666666666)" font-family="sans-serif" font-size="11px" fill="#000" opacity="1">0.4</text><text text-anchor="end" transform="translate(-7,128)" font-family="sans-serif" font-size="11px" fill="#000" opacity="1">0.6</text><text text-anchor="end" transform="translate(-7,86.33333333333331)" font-family="sans-serif" font-size="11px" fill="#000" opacity="1">0.8</text><text text-anchor="end" transform="translate(-7,44.66666666666666)" font-family="sans-serif" font-size="11px" fill="#000" opacity="1">1.0</text><text text-anchor="end" transform="translate(-7,3)" font-family="sans-serif" font-size="11px" fill="#000" opacity="1">1.2</text></g><g class="mark-rule role-axis-domain" pointer-events="none"><line transform="translate(0,250)" x2="0" y2="-250" stroke="#888" stroke-width="1" opacity="1"/></g><g class="mark-text role-axis-title" pointer-events="none"><text text-anchor="middle" transform="translate(-30.798828125,125) rotate(-90) translate(0,-2)" font-family="sans-serif" font-size="11px" font-weight="bold" fill="#000" opacity="1">Time (ms)</text></g></g><path class="foreground" aria-hidden="true" d="" pointer-events="none" display="none"/></g></g><g class="mark-group role-scope" role="graphics-object" aria-roledescription="group mark container"><g transform="translate(5,12.499999999999956)"><path class="background" aria-hidden="true" d="M3,0L87,0C88.655745073482,0,90,1.344254926518,90,3L90,237.50000000000006C90,237.50000000000006,90,237.50000000000006,90,237.50000000000006L0,237.50000000000006C0,237.50000000000006,0,237.50000000000006,0,237.50000000000006L0,3C0,1.344254926518,1.344254926518,0,3,0Z"/><g clip-path="url(#clip1)"><g class="mark-group role-scope" role="graphics-object" aria-roledescription="group mark container"><g transform="translate(0,-12.499999999999956)"><path class="background" aria-hidden="true" d="M0,0h90v0h-90Z"/><g><g class="mark-rect role-mark marks" role="graphics-object" aria-roledescription="rect mark container"><path aria-label="diagram: Flowchart; time: 1.04; stage: Parse; Time (ms): 1.04" role="graphics-symbol" aria-roledescription="bar" d="M0,22.91666666666664h90v216.6666666666667h-90Z" fill="#10b981"/><path aria-label="diagram: Flowchart; time: 0.05; stage: Layout; Time (ms): 0.05" role="graphics-symbol" aria-roledescription="bar" d="M0,12.499999999999956h90v10.416666666666684h-90Z" fill="#3b82f6"/><path aria-label="diagram: Flowchart; time: 0.05; stage: Render; Time (ms): 0.05" role="graphics-symbol" aria-roledescription="bar" d="M0,239.58333333333334h90v10.416666666666657h-90Z" fill="#8b5cf6"/></g></g><path class="foreground" aria-hidden="true" d="" display="none"/></g></g></g><path class="foreground" aria-hidden="true" d="" display="none"/></g><g transform="translate(105,95.83333333333333)"><path class="background" aria-hidden="true" d="M3,0L87,0C88.655745073482,0,90,1.344254926518,90,3L90,154.16666666666669C90,154.16666666666669,90,154.16666666666669,90,154.16666666666669L0,154.16666666666669C0,154.16666666666669,0,154.16666666666669,0,154.16666666666669L0,3C0,1.344254926518,1.344254926518,0,3,0Z"/><g clip-path="url(#clip2)"><g class="mark-group role-scope" role="graphics-object" aria-roledescription="group mark container"><g transform="translate(0,-95.83333333333333)"><path class="background" aria-hidden="true" d="M0,0h90v0h-90Z"/><g><g class="mark-rect role-mark marks" role="graphics-object" aria-roledescription="rect mark container"><path aria-label="diagram: Class; time: 0.36; stage: Parse; Time (ms): 0.36" role="graphics-symbol" aria-roledescription="bar" d="M0,143.75h90v75h-90Z" fill="#10b981"/><path aria-label="diagram: Class; time: 0.23; stage: Layout; Time (ms): 0.23" role="graphics-symbol" aria-roledescription="bar" d="M0,95.83333333333333h90v47.91666666666667h-90Z" fill="#3b82f6"/><path aria-label="diagram: Class; time: 0.15; stage: Render; Time (ms): 0.15" role="graphics-symbol" aria-roledescription="bar" d="M0,218.75h90v31.25h-90Z" fill="#8b5cf6"/></g></g><path class="foreground" aria-hidden="true" d="" display="none"/></g></g></g><path class="foreground" aria-hidden="true" d="" display="none"/></g><g transform="translate(205,110.41666666666666)"><path class="background" aria-hidden="true" d="M3,0L87,0C88.655745073482,0,90,1.344254926518,90,3L90,139.58333333333334C90,139.58333333333334,90,139.58333333333334,90,139.58333333333334L0,139.58333333333334C0,139.58333333333334,0,139.58333333333334,0,139.58333333333334L0,3C0,1.344254926518,1.344254926518,0,3,0Z"/><g clip-path="url(#clip3)"><g class="mark-group role-scope" role="graphics-object" aria-roledescription="group mark container"><g transform="translate(0,-110.41666666666666)"><path class="background" aria-hidden="true" d="M0,0h90v0h-90Z"/><g><g class="mark-rect role-mark marks" role="graphics-object" aria-roledescription="rect mark container"><path aria-label="diagram: State; time: 0.39; stage: Parse; Time (ms): 0.39" role="graphics-symbol" aria-roledescription="bar" d="M0,147.91666666666666h90v81.25h-90Z" fill="#10b981"/><path aria-label="diagram: State; time: 0.18; stage: Layout; Time (ms): 0.18" role="graphics-symbol" aria-roledescription="bar" d="M0,110.41666666666666h90v37.5h-90Z" fill="#3b82f6"/><path aria-label="diagram: State; time: 0.1; stage: Render; Time (ms): 0.10" role="graphics-symbol" aria-roledescription="bar" d="M0,229.16666666666666h90v20.833333333333343h-90Z" fill="#8b5cf6"/></g></g><path class="foreground" aria-hidden="true" d="" display="none"/></g></g></g><path class="foreground" aria-hidden="true" d="" display="none"/></g><g transform="translate(305,152.08333333333334)"><path class="background" aria-hidden="true" d="M3,0L87,0C88.655745073482,0,90,1.344254926518,90,3L90,97.91666666666666C90,97.91666666666666,90,97.91666666666666,90,97.91666666666666L0,97.91666666666666C0,97.91666666666666,0,97.91666666666666,0,97.91666666666666L0,3C0,1.344254926518,1.344254926518,0,3,0Z"/><g clip-path="url(#clip4)"><g class="mark-group role-scope" role="graphics-object" aria-roledescription="group mark container"><g transform="translate(0,-152.08333333333334)"><path class="background" aria-hidden="true" d="M0,0h90v0h-90Z"/><g><g class="mark-rect role-mark marks" role="graphics-object" aria-roledescription="rect mark container"><path aria-label="diagram: Sequence; time: 0.37; stage: Parse; Time (ms): 0.37" role="graphics-symbol" aria-roledescription="bar" d="M0,158.33333333333331h90v77.08333333333334h-90Z" fill="#10b981"/><path aria-label="diagram: Sequence; time: 0.03; stage: Layout; Time (ms): 0.03" role="graphics-symbol" aria-roledescription="bar" d="M0,152.08333333333334h90v6.249999999999972h-90Z" fill="#3b82f6"/><path aria-label="diagram: Sequence; time: 0.07; stage: Render; Time (ms): 0.07" role="graphics-symbol" aria-roledescription="bar" d="M0,235.41666666666666h90v14.583333333333343h-90Z" fill="#8b5cf6"/></g></g><path class="foreground" aria-hidden="true" d="" display="none"/></g></g></g><path class="foreground" aria-hidden="true" d="" display="none"/></g></g><g class="mark-group role-legend" role="graphics-symbol" aria-roledescription="legend" aria-label="Symbol legend for fill color with 3 values: Layout, Parse, Render"><g transform="translate(418,0)"><path class="background" aria-hidden="true" d="M0,0h52v37h-52Z" pointer-events="none"/><g><g class="mark-group role-legend-entry"><g transform="translate(0,0)"><path class="background" aria-hidden="true" d="M0,0h0v0h0Z" pointer-events="none"/><g><g class="mark-group role-scope" role="graphics-object" aria-roledescription="group mark container"><g transform="translate(0,0)"><path class="background" aria-hidden="true" d="M0,0h51.994140625v11h-51.994140625Z" pointer-events="none" opacity="1"/><g><g class="mark-symbol role-legend-symbol" pointer-events="none"><path transform="translate(6,6)" d="M-5,-5h10v10h-10Z" fill="#3b82f6" stroke-width="1.5" opacity="1"/></g><g class="mark-text role-legend-label" pointer-events="none"><text text-anchor="start" transform="translate(16,9)" font-family="sans-serif" font-size="10px" fill="#000" opacity="1">Layout</text></g></g><path class="foreground" aria-hidden="true" d="" pointer-events="none" display="none"/></g><g transform="translate(0,13)"><path class="background" aria-hidden="true" d="M0,0h51.994140625v11h-51.994140625Z" pointer-events="none" opacity="1"/><g><g class="mark-symbol role-legend-symbol" pointer-events="none"><path transform="translate(6,6)" d="M-5,-5h10v10h-10Z" fill="#10b981" stroke-width="1.5" opacity="1"/></g><g class="mark-text role-legend-label" pointer-events="none"><text text-anchor="start" transform="translate(16,9)" font-family="sans-serif" font-size="10px" fill="#000" opacity="1">Parse</text></g></g><path class="foreground" aria-hidden="true" d="" pointer-events="none" display="none"/></g><g transform="translate(0,26)"><path class="background" aria-hidden="true" d="M0,0h51.994140625v11h-51.994140625Z" pointer-events="none" opacity="1"/><g><g class="mark-symbol role-legend-symbol" pointer-events="none"><path transform="translate(6,6)" d="M-5,-5h10v10h-10Z" fill="#8b5cf6" stroke-width="1.5" opacity="1"/></g><g class="mark-text role-legend-label" pointer-events="none"><text text-anchor="start" transform="translate(16,9)" font-family="sans-serif" font-size="10px" fill="#000" opacity="1">Render</text></g></g><path class="foreground" aria-hidden="true" d="" pointer-events="none" display="none"/></g></g></g><path class="foreground" aria-hidden="true" d="" pointer-events="none" display="none"/></g></g></g><path class="foreground" aria-hidden="true" d="" pointer-events="none" display="none"/></g></g><g class="mark-group role-title"><g transform="translate(200,-26)"><path class="background" aria-hidden="true" d="M0,0h0v0h0Z" pointer-events="none"/><g><g class="mark-text role-title-text" role="graphics-symbol" aria-roledescription="title" aria-label="Title text 'mmdr Pipeline Breakdown'" pointer-events="none"><text text-anchor="middle" transform="translate(0,13)" font-family="sans-serif" font-size="16px" font-weight="bold" fill="#000" opacity="1">mmdr Pipeline Breakdown</text></g></g><path class="foreground" aria-hidden="true" d="" pointer-events="none" display="none"/></g></g></g><path class="foreground" aria-hidden="true" d="" display="none"/></g></g></g><defs><clipPath id="clip1"><path d="M3,0L87,0C88.655745073482,0,90,1.344254926518,90,3L90,237.50000000000006C90,237.50000000000006,90,237.50000000000006,90,237.50000000000006L0,237.50000000000006C0,237.50000000000006,0,237.50000000000006,0,237.50000000000006L0,3C0,1.344254926518,1.344254926518,0,3,0Z"/></clipPath><clipPath id="clip2"><path d="M3,0L87,0C88.655745073482,0,90,1.344254926518,90,3L90,154.16666666666669C90,154.16666666666669,90,154.16666666666669,90,154.16666666666669L0,154.16666666666669C0,154.16666666666669,0,154.16666666666669,0,154.16666666666669L0,3C0,1.344254926518,1.344254926518,0,3,0Z"/></clipPath><clipPath id="clip3"><path d="M3,0L87,0C88.655745073482,0,90,1.344254926518,90,3L90,139.58333333333334C90,139.58333333333334,90,139.58333333333334,90,139.58333333333334L0,139.58333333333334C0,139.58333333333334,0,139.58333333333334,0,139.58333333333334L0,3C0,1.344254926518,1.344254926518,0,3,0Z"/></clipPath><clipPath id="clip4"><path d="M3,0L87,0C88.655745073482,0,90,1.344254926518,90,3L90,97.91666666666666C90,97.91666666666666,90,97.91666666666666,90,97.91666666666666L0,97.91666666666666C0,97.91666666666666,0,97.91666666666666,0,97.91666666666666L0,3C0,1.344254926518,1.344254926518,0,3,0Z"/></clipPath></defs></svg>