<svg xmlns="http://www.w3.org/2000/svg" viewBox="0 0 800 400">
<style>
  .title { font: bold 16px sans-serif; }
  .axis-label { font: 12px sans-serif; }
  .tick-label { font: 11px sans-serif; }
  .legend { font: 12px sans-serif; }
  .bar-mmdr { fill: #2e7d32; }
  .bar-cli { fill: #f57c00; }
  .bar-label { font: 10px sans-serif; fill: white; }
</style>
<text x="400.0" y="25" text-anchor="middle" class="title">Render Time Comparison (log scale)</text>
<line x1="120" y1="320.0" x2="650" y2="320.0" stroke="#ddd" stroke-dasharray="2,2"/>
<text x="110" y="324.0" text-anchor="end" class="tick-label">1 ms</text>
<line x1="120" y1="246.20029002541253" x2="650" y2="246.20029002541253" stroke="#ddd" stroke-dasharray="2,2"/>
<text x="110" y="250.20029002541253" text-anchor="end" class="tick-label">10 ms</text>
<line x1="120" y1="172.40058005082506" x2="650" y2="172.40058005082506" stroke="#ddd" stroke-dasharray="2,2"/>
<text x="110" y="176.40058005082506" text-anchor="end" class="tick-label">100 ms</text>
<line x1="120" y1="98.60087007623758" x2="650" y2="98.60087007623758" stroke="#ddd" stroke-dasharray="2,2"/>
<text x="110" y="102.60087007623758" text-anchor="end" class="tick-label">1000 ms</text>
<rect x="122.74137931034483" y="255.92126770836379" width="6.396551724137931" height="64.07873229163621" class="bar-mmdr" rx="2"/>
<text x="125.9396551724138" y="270.92126770836376" text-anchor="middle" class="bar-label">7.4</text>
<rect x="134.13793103448276" y="75.09568763851405" width="6.396551724137931" height="244.90431236148595" class="bar-cli" rx="2"/>
<text x="137.33620689655172" y="90.09568763851405" text-anchor="middle" class="bar-label">2082</text>
<text x="129.13793103448276" y="340" text-anchor="middle" class="tick-label" transform="rotate(-30 129.13793103448276 340)">flow small</text>
<rect x="141.01724137931035" y="248.8541933897236" width="6.396551724137931" height="71.1458066102764" class="bar-mmdr" rx="2"/>
<text x="144.2155172413793" y="263.8541933897236" text-anchor="middle" class="bar-label">9.2</text>
<rect x="152.41379310344828" y="72.08174471561307" width="6.396551724137931" height="247.91825528438693" class="bar-cli" rx="2"/>
<text x="155.61206896551724" y="87.08174471561307" text-anchor="middle" class="bar-label">2287</text>
<text x="147.41379310344828" y="340" text-anchor="middle" class="tick-label" transform="rotate(-30 147.41379310344828 340)">flow med</text>
<rect x="159.29310344827587" y="215.18898084572106" width="6.396551724137931" height="104.81101915427894" class="bar-mmdr" rx="2"/>
<text x="162.49137931034483" y="230.18898084572106" text-anchor="middle" class="bar-label">26.3</text>
<rect x="170.6896551724138" y="65.26968487723451" width="6.396551724137931" height="254.7303151227655" class="bar-cli" rx="2"/>
<text x="173.88793103448276" y="80.26968487723451" text-anchor="middle" class="bar-label">2829</text>
<text x="165.6896551724138" y="340" text-anchor="middle" class="tick-label" transform="rotate(-30 165.6896551724138 340)">flow large</text>
<rect x="177.56896551724137" y="254.15379521942813" width="6.396551724137931" height="65.84620478057187" class="bar-mmdr" rx="2"/>
<text x="180.76724137931032" y="269.15379521942816" text-anchor="middle" class="bar-label">7.8</text>
<rect x="188.9655172413793" y="70.82138414912919" width="6.396551724137931" height="249.1786158508708" class="bar-cli" rx="2"/>
<text x="192.16379310344826" y="85.82138414912919" text-anchor="middle" class="bar-label">2379</text>
<text x="183.9655172413793" y="340" text-anchor="middle" class="tick-label" transform="rotate(-30 183.9655172413793 340)">class med</text>
<rect x="195.8448275862069" y="249.82775978226903" width="6.396551724137931" height="70.17224021773099" class="bar-mmdr" rx="2"/>
<text x="199.04310344827584" y="264.827759782269" text-anchor="middle" class="bar-label">8.9</text>
<rect x="207.24137931034483" y="74.5842359926281" width="6.396551724137931" height="245.4157640073719" class="bar-cli" rx="2"/>
<text x="210.43965517241378" y="89.5842359926281" text-anchor="middle" class="bar-label">2116</text>
<text x="202.24137931034483" y="340" text-anchor="middle" class="tick-label" transform="rotate(-30 202.24137931034483 340)">state med</text>
<rect x="214.1206896551724" y="250.3119066176107" width="6.396551724137931" height="69.68809338238931" class="bar-mmdr" rx="2"/>
<text x="217.31896551724137" y="265.3119066176107" text-anchor="middle" class="bar-label">8.8</text>
<rect x="225.51724137931035" y="75.15422570567159" width="6.396551724137931" height="244.8457742943284" class="bar-cli" rx="2"/>
<text x="228.7155172413793" y="90.15422570567159" text-anchor="middle" class="bar-label">2078</text>
<text x="220.51724137931035" y="340" text-anchor="middle" class="tick-label" transform="rotate(-30 220.51724137931035 340)">sequence med</text>
<rect x="232.3965517241379" y="261.29373003988763" width="6.396551724137931" height="58.70626996011239" class="bar-mmdr" rx="2"/>
<text x="235.59482758620686" y="276.29373003988763" text-anchor="middle" class="bar-label">6.2</text>
<rect x="243.79310344827584" y="71.9358889413486" width="6.396551724137931" height="248.0641110586514" class="bar-cli" rx="2"/>
<text x="246.9913793103448" y="86.9358889413486" text-anchor="middle" class="bar-label">2298</text>
<text x="238.79310344827584" y="340" text-anchor="middle" class="tick-label" transform="rotate(-30 238.79310344827584 340)">er med</text>
<rect x="250.67241379310343" y="257.81583388826726" width="6.396551724137931" height="62.18416611173274" class="bar-mmdr" rx="2"/>
<text x="253.87068965517238" y="272.81583388826726" text-anchor="middle" class="bar-label">7.0</text>
<rect x="262.06896551724134" y="75.9559021105251" width="6.396551724137931" height="244.0440978894749" class="bar-cli" rx="2"/>
<text x="265.2672413793103" y="90.9559021105251" text-anchor="middle" class="bar-label">2027</text>
<text x="257.06896551724134" y="340" text-anchor="middle" class="tick-label" transform="rotate(-30 257.06896551724134 340)">pie med</text>
<rect x="268.94827586206895" y="260.5347090896837" width="6.396551724137931" height="59.465290910316284" class="bar-mmdr" rx="2"/>
<text x="272.1465517241379" y="275.5347090896837" text-anchor="middle" class="bar-label">6.4</text>
<rect x="280.34482758620686" y="75.88553788400421" width="6.396551724137931" height="244.1144621159958" class="bar-cli" rx="2"/>
<text x="283.5431034482758" y="90.88553788400421" text-anchor="middle" class="bar-label">2031</text>
<text x="275.34482758620686" y="340" text-anchor="middle" class="tick-label" transform="rotate(-30 275.34482758620686 340)">mindmap med</text>
<rect x="287.2241379310345" y="256.9954881348451" width="6.396551724137931" height="63.004511865154896" class="bar-mmdr" rx="2"/>
<text x="290.42241379310343" y="271.9954881348451" text-anchor="middle" class="bar-label">7.1</text>
<rect x="298.6206896551724" y="77.25217683986364" width="6.396551724137931" height="242.74782316013636" class="bar-cli" rx="2"/>
<text x="301.81896551724134" y="92.25217683986364" text-anchor="middle" class="bar-label">1947</text>
<text x="293.6206896551724" y="340" text-anchor="middle" class="tick-label" transform="rotate(-30 293.6206896551724 340)">journey med</text>
<rect x="305.5" y="250.0538721486431" width="6.396551724137931" height="69.94612785135688" class="bar-mmdr" rx="2"/>
<text x="308.69827586206895" y="265.0538721486431" text-anchor="middle" class="bar-label">8.9</text>
<rect x="316.8965517241379" y="75.70524025933307" width="6.396551724137931" height="244.29475974066693" class="bar-cli" rx="2"/>
<text x="320.09482758620686" y="90.70524025933307" text-anchor="middle" class="bar-label">2043</text>
<text x="311.8965517241379" y="340" text-anchor="middle" class="tick-label" transform="rotate(-30 311.8965517241379 340)">timeline med</text>
<rect x="323.7758620689655" y="248.58206057477898" width="6.396551724137931" height="71.41793942522102" class="bar-mmdr" rx="2"/>
<text x="326.9741379310345" y="263.582060574779" text-anchor="middle" class="bar-label">9.3</text>
<rect x="335.17241379310343" y="77.32195938912417" width="6.396551724137931" height="242.67804061087583" class="bar-cli" rx="2"/>
<text x="338.3706896551724" y="92.32195938912417" text-anchor="middle" class="bar-label">1942</text>
<text x="330.17241379310343" y="340" text-anchor="middle" class="tick-label" transform="rotate(-30 330.17241379310343 340)">gantt med</text>
<rect x="342.051724137931" y="249.23186323941522" width="6.396551724137931" height="70.76813676058478" class="bar-mmdr" rx="2"/>
<text x="345.24999999999994" y="264.23186323941525" text-anchor="middle" class="bar-label">9.1</text>
<rect x="353.4482758620689" y="76.6713726547562" width="6.396551724137931" height="243.3286273452438" class="bar-cli" rx="2"/>
<text x="356.64655172413785" y="91.6713726547562" text-anchor="middle" class="bar-label">1982</text>
<text x="348.4482758620689" y="340" text-anchor="middle" class="tick-label" transform="rotate(-30 348.4482758620689 340)">requirement med</text>
<rect x="360.32758620689657" y="258.4148976658595" width="6.396551724137931" height="61.58510233414049" class="bar-mmdr" rx="2"/>
<text x="363.5258620689655" y="273.4148976658595" text-anchor="middle" class="bar-label">6.8</text>
<rect x="371.7241379310345" y="77.34654801114354" width="6.396551724137931" height="242.65345198885646" class="bar-cli" rx="2"/>
<text x="374.92241379310343" y="92.34654801114354" text-anchor="middle" class="bar-label">1941</text>
<text x="366.7241379310345" y="340" text-anchor="middle" class="tick-label" transform="rotate(-30 366.7241379310345 340)">gitgraph med</text>
<rect x="378.60344827586204" y="260.3439886807804" width="6.396551724137931" height="59.65601131921961" class="bar-mmdr" rx="2"/>
<text x="381.801724137931" y="275.3439886807804" text-anchor="middle" class="bar-label">6.4</text>
<rect x="389.99999999999994" y="73.37196291716671" width="6.396551724137931" height="246.6280370828333" class="bar-cli" rx="2"/>
<text x="393.1982758620689" y="88.37196291716671" text-anchor="middle" class="bar-label">2197</text>
<text x="384.99999999999994" y="340" text-anchor="middle" class="tick-label" transform="rotate(-30 384.99999999999994 340)">c4 med</text>
<rect x="396.87931034482756" y="263.6786583597613" width="6.396551724137931" height="56.32134164023872" class="bar-mmdr" rx="2"/>
<text x="400.0775862068965" y="278.6786583597613" text-anchor="middle" class="bar-label">5.8</text>
<rect x="408.27586206896547" y="70.544535538046" width="6.396551724137931" height="249.455464461954" class="bar-cli" rx="2"/>
<text x="411.4741379310344" y="85.544535538046" text-anchor="middle" class="bar-label">2400</text>
<text x="403.27586206896547" y="340" text-anchor="middle" class="tick-label" transform="rotate(-30 403.27586206896547 340)">sankey med</text>
<rect x="415.1551724137931" y="263.8275260499538" width="6.396551724137931" height="56.1724739500462" class="bar-mmdr" rx="2"/>
<text x="418.35344827586204" y="278.8275260499538" text-anchor="middle" class="bar-label">5.8</text>
<rect x="426.551724137931" y="70.47538466892803" width="6.396551724137931" height="249.52461533107197" class="bar-cli" rx="2"/>
<text x="429.74999999999994" y="85.47538466892803" text-anchor="middle" class="bar-label">2405</text>
<text x="421.551724137931" y="340" text-anchor="middle" class="tick-label" transform="rotate(-30 421.551724137931 340)">quadrant med</text>
<rect x="433.4310344827586" y="263.06693391377485" width="6.396551724137931" height="56.93306608622515" class="bar-mmdr" rx="2"/>
<text x="436.62931034482756" y="278.06693391377485" text-anchor="middle" class="bar-label">5.9</text>
<rect x="444.8275862068965" y="60.57824176190314" width="6.396551724137931" height="259.42175823809686" class="bar-cli" rx="2"/>
<text x="448.02586206896547" y="75.57824176190314" text-anchor="middle" class="bar-label">3275</text>
<text x="439.8275862068965" y="340" text-anchor="middle" class="tick-label" transform="rotate(-30 439.8275862068965 340)">zenuml med</text>
<rect x="451.7068965517241" y="253.1250375325016" width="6.396551724137931" height="66.87496246749839" class="bar-mmdr" rx="2"/>
<text x="454.9051724137931" y="268.1250375325016" text-anchor="middle" class="bar-label">8.1</text>
<rect x="463.10344827586204" y="72.05436483734752" width="6.396551724137931" height="247.94563516265248" class="bar-cli" rx="2"/>
<text x="466.301724137931" y="87.05436483734752" text-anchor="middle" class="bar-label">2289</text>
<text x="458.10344827586204" y="340" text-anchor="middle" class="tick-label" transform="rotate(-30 458.10344827586204 340)">block med</text>
<rect x="469.98275862068965" y="262.95986024275453" width="6.396551724137931" height="57.04013975724548" class="bar-mmdr" rx="2"/>
<text x="473.1810344827586" y="277.95986024275453" text-anchor="middle" class="bar-label">5.9</text>
<rect x="481.37931034482756" y="64.88906512233686" width="6.396551724137931" height="255.11093487766314" class="bar-cli" rx="2"/>
<text x="484.5775862068965" y="79.88906512233686" text-anchor="middle" class="bar-label">2863</text>
<text x="476.37931034482756" y="340" text-anchor="middle" class="tick-label" transform="rotate(-30 476.37931034482756 340)">packet med</text>
<rect x="488.2586206896552" y="250.57338444374574" width="6.396551724137931" height="69.42661555625428" class="bar-mmdr" rx="2"/>
<text x="491.4568965517241" y="265.57338444374574" text-anchor="middle" class="bar-label">8.7</text>
<rect x="499.6551724137931" y="65.62199461311548" width="6.396551724137931" height="254.37800538688452" class="bar-cli" rx="2"/>
<text x="502.85344827586204" y="80.62199461311548" text-anchor="middle" class="bar-label">2798</text>
<text x="494.6551724137931" y="340" text-anchor="middle" class="tick-label" transform="rotate(-30 494.6551724137931 340)">kanban med</text>
<rect x="506.53448275862064" y="256.84979998427934" width="6.396551724137931" height="63.150200015720664" class="bar-mmdr" rx="2"/>
<text x="509.7327586206896" y="271.84979998427934" text-anchor="middle" class="bar-label">7.2</text>
<rect x="517.9310344827586" y="52.99548384736926" width="6.396551724137931" height="267.00451615263074" class="bar-cli" rx="2"/>
<text x="521.1293103448276" y="67.99548384736926" text-anchor="middle" class="bar-label">4149</text>
<text x="512.9310344827586" y="340" text-anchor="middle" class="tick-label" transform="rotate(-30 512.9310344827586 340)">architecture med</text>
<rect x="524.8103448275863" y="252.2725874622328" width="6.396551724137931" height="67.72741253776721" class="bar-mmdr" rx="2"/>
<text x="528.0086206896552" y="267.27258746223276" text-anchor="middle" class="bar-label">8.3</text>
<rect x="536.2068965517242" y="67.95092821573655" width="6.396551724137931" height="252.04907178426345" class="bar-cli" rx="2"/>
<text x="539.4051724137931" y="82.95092821573655" text-anchor="middle" class="bar-label">2602</text>
<text x="531.2068965517242" y="340" text-anchor="middle" class="tick-label" transform="rotate(-30 531.2068965517242 340)">radar med</text>
<rect x="543.0862068965517" y="262.0678210603779" width="6.396551724137931" height="57.93217893962207" class="bar-mmdr" rx="2"/>
<text x="546.2844827586207" y="277.0678210603779" text-anchor="middle" class="bar-label">6.1</text>
<rect x="554.4827586206897" y="73.75027288857476" width="6.396551724137931" height="246.24972711142524" class="bar-cli" rx="2"/>
<text x="557.6810344827586" y="88.75027288857476" text-anchor="middle" class="bar-label">2171</text>
<text x="549.4827586206897" y="340" text-anchor="middle" class="tick-label" transform="rotate(-30 549.4827586206897 340)">treemap med</text>
<rect x="561.3620689655172" y="251.90739823287896" width="6.396551724137931" height="68.09260176712105" class="bar-mmdr" rx="2"/>
<text x="564.5603448275862" y="266.90739823287896" text-anchor="middle" class="bar-label">8.4</text>
<text x="567.7586206896551" y="340" text-anchor="middle" class="tick-label" transform="rotate(-30 567.7586206896551 340)">xychart med</text>
<rect x="579.6379310344828" y="256.7976309963141" width="6.396551724137931" height="63.20236900368589" class="bar-mmdr" rx="2"/>
<text x="582.8362068965517" y="271.7976309963141" text-anchor="middle" class="bar-label">7.2</text>
<rect x="591.0344827586207" y="72.57691115266525" width="6.396551724137931" height="247.42308884733475" class="bar-cli" rx="2"/>
<text x="594.2327586206897" y="87.57691115266525" text-anchor="middle" class="bar-label">2252</text>
<text x="586.0344827586207" y="340" text-anchor="middle" class="tick-label" transform="rotate(-30 586.0344827586207 340)">flowchart</text>
<rect x="597.9137931034484" y="261.5538675984456" width="6.396551724137931" height="58.44613240155439" class="bar-mmdr" rx="2"/>
<text x="601.1120689655173" y="276.5538675984456" text-anchor="middle" class="bar-label">6.2</text>
<rect x="609.3103448275863" y="69.60741690148859" width="6.396551724137931" height="250.3925830985114" class="bar-cli" rx="2"/>
<text x="612.5086206896552" y="84.60741690148859" text-anchor="middle" class="bar-label">2471</text>
<text x="604.3103448275863" y="340" text-anchor="middle" class="tick-label" transform="rotate(-30 604.3103448275863 340)">sequence</text>
<rect x="616.1896551724138" y="249.26512255964084" width="6.396551724137931" height="70.73487744035916" class="bar-mmdr" rx="2"/>
<text x="619.3879310344828" y="264.2651225596409" text-anchor="middle" class="bar-label">9.1</text>
<rect x="627.5862068965517" y="71.6716782138592" width="6.396551724137931" height="248.3283217861408" class="bar-cli" rx="2"/>
<text x="630.7844827586207" y="86.6716782138592" text-anchor="middle" class="bar-label">2317</text>
<text x="622.5862068965517" y="340" text-anchor="middle" class="tick-label" transform="rotate(-30 622.5862068965517 340)">class</text>
<rect x="634.4655172413793" y="248.46733933452975" width="6.396551724137931" height="71.53266066547023" class="bar-mmdr" rx="2"/>
<text x="637.6637931034483" y="263.46733933452975" text-anchor="middle" class="bar-label">9.3</text>
<rect x="645.8620689655172" y="72.53594924652202" width="6.396551724137931" height="247.46405075347798" class="bar-cli" rx="2"/>
<text x="649.0603448275862" y="87.53594924652202" text-anchor="middle" class="bar-label">2255</text>
<text x="640.8620689655172" y="340" text-anchor="middle" class="tick-label" transform="rotate(-30 640.8620689655172 340)">state</text>
<rect x="670" y="60" width="15" height="15" class="bar-mmdr"/>
<text x="690" y="72" class="legend">mmdr</text>
<rect x="670" y="85" width="15" height="15" class="bar-cli"/>
<text x="690" y="97" class="legend">mermaid-cli</text>
<line x1="120" y1="40" x2="120" y2="320" stroke="#333" stroke-width="2"/>
<line x1="120" y1="320" x2="650" y2="320" stroke="#333" stroke-width="2"/>
</svg>