<svg xmlns="http://www.w3.org/2000/svg" viewBox="0 0 800 400">
<rect width="800" height="400" fill="#FFFFFF"/>
<style>
  .title { font: bold 16px sans-serif; }
  .axis-label { font: 12px sans-serif; }
  .tick-label { font: 11px sans-serif; }
  .legend { font: 12px sans-serif; }
  .bar-mmdr { fill: #2e7d32; }
  .bar-cli { fill: #f57c00; }
  .bar-label { font: 10px sans-serif; fill: white; }
</style>
<text x="400.0" y="25" text-anchor="middle" class="title">Render Time Comparison (log scale)</text>
<line x1="120" y1="320.0" x2="650" y2="320.0" stroke="#ddd" stroke-dasharray="2,2"/>
<text x="110" y="324.0" text-anchor="end" class="tick-label">1 ms</text>
<line x1="120" y1="239.98088539006176" x2="650" y2="239.98088539006176" stroke="#ddd" stroke-dasharray="2,2"/>
<text x="110" y="243.98088539006176" text-anchor="end" class="tick-label">10 ms</text>
<line x1="120" y1="159.96177078012354" x2="650" y2="159.96177078012354" stroke="#ddd" stroke-dasharray="2,2"/>
<text x="110" y="163.96177078012354" text-anchor="end" class="tick-label">100 ms</text>
<line x1="120" y1="79.94265617018536" x2="650" y2="79.94265617018536" stroke="#ddd" stroke-dasharray="2,2"/>
<text x="110" y="83.94265617018536" text-anchor="end" class="tick-label">1000 ms</text>
<rect x="121.62244897959184" y="262.5904549928249" width="3.785714285714285" height="57.409545007175105" class="bar-mmdr" rx="2"/>
<text x="123.51530612244898" y="277.5904549928249" text-anchor="middle" class="bar-label">5.2</text>
<rect x="130.40816326530614" y="59.81446613097853" width="3.785714285714285" height="260.18553386902147" class="bar-cli" rx="2"/>
<text x="132.30102040816328" y="74.81446613097853" text-anchor="middle" class="bar-label">1785</text>
<text x="125.40816326530613" y="340" text-anchor="middle" class="tick-label" transform="rotate(-30 125.40816326530613 340)">flow small</text>
<rect x="132.43877551020407" y="232.88466810353918" width="3.785714285714285" height="87.1153318964608" class="bar-mmdr" rx="2"/>
<text x="134.3316326530612" y="247.88466810353918" text-anchor="middle" class="bar-label">12.3</text>
<rect x="141.22448979591834" y="58.6610502392399" width="3.785714285714285" height="261.3389497607601" class="bar-cli" rx="2"/>
<text x="143.11734693877548" y="73.6610502392399" text-anchor="middle" class="bar-label">1845</text>
<text x="136.22448979591834" y="340" text-anchor="middle" class="tick-label" transform="rotate(-30 136.22448979591834 340)">flow med</text>
<rect x="143.25510204081633" y="187.42973332236554" width="3.785714285714285" height="132.57026667763446" class="bar-mmdr" rx="2"/>
<text x="145.14795918367346" y="202.42973332236554" text-anchor="middle" class="bar-label">45.4</text>
<rect x="152.0408163265306" y="54.09066664018491" width="3.785714285714285" height="265.9093333598151" class="bar-cli" rx="2"/>
<text x="153.93367346938774" y="69.0906666401849" text-anchor="middle" class="bar-label">2104</text>
<text x="147.0408163265306" y="340" text-anchor="middle" class="tick-label" transform="rotate(-30 147.0408163265306 340)">flow large</text>
<rect x="154.07142857142858" y="287.17556142207155" width="3.785714285714285" height="32.82443857792844" class="bar-mmdr" rx="2"/>
<text x="155.96428571428572" y="302.17556142207155" text-anchor="middle" class="bar-label">2.6</text>
<rect x="162.85714285714286" y="59.66064111919616" width="3.785714285714285" height="260.33935888080384" class="bar-cli" rx="2"/>
<text x="164.75" y="74.66064111919616" text-anchor="middle" class="bar-label">1793</text>
<text x="157.85714285714286" y="340" text-anchor="middle" class="tick-label" transform="rotate(-30 157.85714285714286 340)">flow tiny</text>
<rect x="164.8877551020408" y="173.75490487408774" width="3.785714285714285" height="146.24509512591226" class="bar-mmdr" rx="2"/>
<text x="166.78061224489795" y="188.75490487408774" text-anchor="middle" class="bar-label">67.2</text>
<rect x="173.6734693877551" y="60.01013267050513" width="3.785714285714285" height="259.98986732949487" class="bar-cli" rx="2"/>
<text x="175.56632653061223" y="75.01013267050513" text-anchor="middle" class="bar-label">1775</text>
<text x="168.6734693877551" y="340" text-anchor="middle" class="tick-label" transform="rotate(-30 168.6734693877551 340)">flow ports heavy</text>
<rect x="175.70408163265304" y="186.58313778026425" width="3.785714285714285" height="133.41686221973575" class="bar-mmdr" rx="2"/>
<text x="177.59693877551018" y="201.58313778026425" text-anchor="middle" class="bar-label">46.5</text>
<rect x="184.48979591836732" y="58.29074554773217" width="3.785714285714285" height="261.7092544522678" class="bar-cli" rx="2"/>
<text x="186.38265306122446" y="73.29074554773217" text-anchor="middle" class="bar-label">1865</text>
<text x="179.48979591836732" y="340" text-anchor="middle" class="tick-label" transform="rotate(-30 179.48979591836732 340)">flow weave</text>
<rect x="186.5204081632653" y="233.01770340093938" width="3.785714285714285" height="86.98229659906062" class="bar-mmdr" rx="2"/>
<text x="188.41326530612244" y="248.01770340093938" text-anchor="middle" class="bar-label">12.2</text>
<rect x="195.30612244897958" y="60.005216744392726" width="3.785714285714285" height="259.9947832556073" class="bar-cli" rx="2"/>
<text x="197.19897959183672" y="75.00521674439273" text-anchor="middle" class="bar-label">1775</text>
<text x="190.30612244897958" y="340" text-anchor="middle" class="tick-label" transform="rotate(-30 190.30612244897958 340)">flow backedges subgraphs</text>
<rect x="197.33673469387756" y="251.60463370611507" width="3.785714285714285" height="68.39536629388493" class="bar-mmdr" rx="2"/>
<text x="199.2295918367347" y="266.60463370611507" text-anchor="middle" class="bar-label">7.2</text>
<rect x="206.12244897959184" y="59.36687299717761" width="3.785714285714285" height="260.6331270028224" class="bar-cli" rx="2"/>
<text x="208.01530612244898" y="74.36687299717761" text-anchor="middle" class="bar-label">1808</text>
<text x="201.12244897959184" y="340" text-anchor="middle" class="tick-label" transform="rotate(-30 201.12244897959184 340)">flow sparse components</text>
<rect x="208.1530612244898" y="233.74497511982946" width="3.785714285714285" height="86.25502488017054" class="bar-mmdr" rx="2"/>
<text x="210.04591836734693" y="248.74497511982946" text-anchor="middle" class="bar-label">12.0</text>
<rect x="216.93877551020407" y="59.71794139714871" width="3.785714285714285" height="260.2820586028513" class="bar-cli" rx="2"/>
<text x="218.8316326530612" y="74.7179413971487" text-anchor="middle" class="bar-label">1790</text>
<text x="211.93877551020407" y="340" text-anchor="middle" class="tick-label" transform="rotate(-30 211.93877551020407 340)">flow lanes crossfeed</text>
<rect x="218.96938775510202" y="197.8743254371349" width="3.785714285714285" height="122.1256745628651" class="bar-mmdr" rx="2"/>
<text x="220.86224489795916" y="212.8743254371349" text-anchor="middle" class="bar-label">33.6</text>
<rect x="227.7551020408163" y="58.75767169427235" width="3.785714285714285" height="261.24232830572765" class="bar-cli" rx="2"/>
<text x="229.64795918367344" y="73.75767169427235" text-anchor="middle" class="bar-label">1840</text>
<text x="222.7551020408163" y="340" text-anchor="middle" class="tick-label" transform="rotate(-30 222.7551020408163 340)">flow grid feedback</text>
<rect x="229.78571428571428" y="199.2869610800181" width="3.785714285714285" height="120.7130389199819" class="bar-mmdr" rx="2"/>
<text x="231.67857142857142" y="214.2869610800181" text-anchor="middle" class="bar-label">32.3</text>
<rect x="238.57142857142856" y="58.87415957778609" width="3.785714285714285" height="261.1258404222139" class="bar-cli" rx="2"/>
<text x="240.4642857142857" y="73.87415957778609" text-anchor="middle" class="bar-label">1834</text>
<text x="233.57142857142856" y="340" text-anchor="middle" class="tick-label" transform="rotate(-30 233.57142857142856 340)">flow fanout returns</text>
<rect x="240.60204081632654" y="201.12755978572454" width="3.785714285714285" height="118.87244021427546" class="bar-mmdr" rx="2"/>
<text x="242.49489795918367" y="216.12755978572454" text-anchor="middle" class="bar-label">30.6</text>
<rect x="249.3877551020408" y="58.85250821516746" width="3.785714285714285" height="261.14749178483254" class="bar-cli" rx="2"/>
<text x="251.28061224489795" y="73.85250821516746" text-anchor="middle" class="bar-label">1835</text>
<text x="244.3877551020408" y="340" text-anchor="middle" class="tick-label" transform="rotate(-30 244.3877551020408 340)">flow label collision</text>
<rect x="251.41836734693877" y="224.10212371549704" width="3.785714285714285" height="95.89787628450296" class="bar-mmdr" rx="2"/>
<text x="253.3112244897959" y="239.10212371549704" text-anchor="middle" class="bar-label">15.8</text>
<rect x="260.204081632653" y="59.533292923777196" width="3.785714285714285" height="260.4667070762228" class="bar-cli" rx="2"/>
<text x="262.0969387755102" y="74.5332929237772" text-anchor="middle" class="bar-label">1799</text>
<text x="255.20408163265304" y="340" text-anchor="middle" class="tick-label" transform="rotate(-30 255.20408163265304 340)">flow nested clusters</text>
<rect x="262.23469387755097" y="244.26289869067813" width="3.785714285714285" height="75.73710130932189" class="bar-mmdr" rx="2"/>
<text x="264.12755102040813" y="259.2628986906781" text-anchor="middle" class="bar-label">8.8</text>
<rect x="271.02040816326524" y="58.923748600232386" width="3.785714285714285" height="261.0762513997676" class="bar-cli" rx="2"/>
<text x="272.9132653061224" y="73.92374860023239" text-anchor="middle" class="bar-label">1831</text>
<text x="266.02040816326524" y="340" text-anchor="middle" class="tick-label" transform="rotate(-30 266.02040816326524 340)">flow asymmetric components</text>
<rect x="273.05102040816325" y="228.59779081107183" width="3.785714285714285" height="91.40220918892818" class="bar-mmdr" rx="2"/>
<text x="274.9438775510204" y="243.59779081107183" text-anchor="middle" class="bar-label">13.9</text>
<rect x="281.83673469387753" y="59.38638903599508" width="3.785714285714285" height="260.6136109640049" class="bar-cli" rx="2"/>
<text x="283.7295918367347" y="74.38638903599508" text-anchor="middle" class="bar-label">1807</text>
<text x="276.83673469387753" y="340" text-anchor="middle" class="tick-label" transform="rotate(-30 276.83673469387753 340)">flow parallel merges</text>
<rect x="283.8673469387755" y="208.63856885139165" width="3.785714285714285" height="111.36143114860833" class="bar-mmdr" rx="2"/>
<text x="285.76020408163265" y="223.63856885139165" text-anchor="middle" class="bar-label">24.6</text>
<rect x="292.65306122448976" y="59.8631909279876" width="3.785714285714285" height="260.1368090720124" class="bar-cli" rx="2"/>
<text x="294.5459183673469" y="74.8631909279876" text-anchor="middle" class="bar-label">1782</text>
<text x="287.65306122448976" y="340" text-anchor="middle" class="tick-label" transform="rotate(-30 287.65306122448976 340)">flow long edge labels</text>
<rect x="294.6836734693877" y="211.47047663248006" width="3.785714285714285" height="108.52952336751994" class="bar-mmdr" rx="2"/>
<text x="296.5765306122449" y="226.47047663248006" text-anchor="middle" class="bar-label">22.7</text>
<rect x="303.469387755102" y="58.560535176884116" width="3.785714285714285" height="261.4394648231159" class="bar-cli" rx="2"/>
<text x="305.36224489795916" y="73.56053517688412" text-anchor="middle" class="bar-label">1850</text>
<text x="298.469387755102" y="340" text-anchor="middle" class="tick-label" transform="rotate(-30 298.469387755102 340)">flow selfloop bidi</text>
<rect x="305.49999999999994" y="260.51571850087805" width="3.785714285714285" height="59.484281499121956" class="bar-mmdr" rx="2"/>
<text x="307.3928571428571" y="275.51571850087805" text-anchor="middle" class="bar-label">5.5</text>
<rect x="314.2857142857142" y="59.49891255341146" width="3.785714285714285" height="260.50108744658854" class="bar-cli" rx="2"/>
<text x="316.1785714285714" y="74.49891255341146" text-anchor="middle" class="bar-label">1801</text>
<text x="309.2857142857142" y="340" text-anchor="middle" class="tick-label" transform="rotate(-30 309.2857142857142 340)">flow component packing</text>
<rect x="316.3163265306122" y="240.16349884350421" width="3.785714285714285" height="79.83650115649579" class="bar-mmdr" rx="2"/>
<text x="318.20918367346934" y="255.16349884350421" text-anchor="middle" class="bar-label">9.9</text>
<rect x="325.10204081632645" y="56.40625649598337" width="3.785714285714285" height="263.59374350401663" class="bar-cli" rx="2"/>
<text x="326.9948979591836" y="71.40625649598337" text-anchor="middle" class="bar-label">1968</text>
<text x="320.10204081632645" y="340" text-anchor="middle" class="tick-label" transform="rotate(-30 320.10204081632645 340)">flow direction conflict</text>
<rect x="327.13265306122446" y="229.81633737086275" width="3.785714285714285" height="90.18366262913725" class="bar-mmdr" rx="2"/>
<text x="329.0255102040816" y="244.81633737086275" text-anchor="middle" class="bar-label">13.4</text>
<rect x="335.91836734693874" y="57.95117122245114" width="3.785714285714285" height="262.04882877754886" class="bar-cli" rx="2"/>
<text x="337.8112244897959" y="72.95117122245114" text-anchor="middle" class="bar-label">1883</text>
<text x="330.91836734693874" y="340" text-anchor="middle" class="tick-label" transform="rotate(-30 330.91836734693874 340)">flow parallel label stack</text>
<rect x="337.9489795918367" y="276.8942652959717" width="3.785714285714285" height="43.105734704028315" class="bar-mmdr" rx="2"/>
<text x="339.84183673469386" y="291.8942652959717" text-anchor="middle" class="bar-label">3.5</text>
<rect x="346.73469387755097" y="58.52837423269807" width="3.785714285714285" height="261.47162576730193" class="bar-cli" rx="2"/>
<text x="348.62755102040813" y="73.52837423269807" text-anchor="middle" class="bar-label">1852</text>
<text x="341.73469387755097" y="340" text-anchor="middle" class="tick-label" transform="rotate(-30 341.73469387755097 340)">class med</text>
<rect x="348.7653061224489" y="263.3295841901515" width="3.785714285714285" height="56.670415809848514" class="bar-mmdr" rx="2"/>
<text x="350.6581632653061" y="278.3295841901515" text-anchor="middle" class="bar-label">5.1</text>
<rect x="357.5510204081632" y="60.21314503913453" width="3.785714285714285" height="259.78685496086547" class="bar-cli" rx="2"/>
<text x="359.44387755102036" y="75.21314503913453" text-anchor="middle" class="bar-label">1764</text>
<text x="352.5510204081632" y="340" text-anchor="middle" class="tick-label" transform="rotate(-30 352.5510204081632 340)">state med</text>
<rect x="359.5816326530612" y="286.9527579841381" width="3.785714285714285" height="33.04724201586193" class="bar-mmdr" rx="2"/>
<text x="361.4744897959184" y="301.9527579841381" text-anchor="middle" class="bar-label">2.6</text>
<rect x="368.3673469387755" y="60.07797847763777" width="3.785714285714285" height="259.92202152236223" class="bar-cli" rx="2"/>
<text x="370.26020408163265" y="75.07797847763777" text-anchor="middle" class="bar-label">1771</text>
<text x="363.3673469387755" y="340" text-anchor="middle" class="tick-label" transform="rotate(-30 363.3673469387755 340)">sequence med</text>
<rect x="370.39795918367344" y="275.2826651310046" width="3.785714285714285" height="44.71733486899544" class="bar-mmdr" rx="2"/>
<text x="372.2908163265306" y="290.2826651310046" text-anchor="middle" class="bar-label">3.6</text>
<rect x="379.1836734693877" y="59.27884911958466" width="3.785714285714285" height="260.72115088041534" class="bar-cli" rx="2"/>
<text x="381.0765306122449" y="74.27884911958466" text-anchor="middle" class="bar-label">1812</text>
<text x="374.1836734693877" y="340" text-anchor="middle" class="tick-label" transform="rotate(-30 374.1836734693877 340)">er med</text>
<rect x="381.21428571428567" y="267.04277651775567" width="3.785714285714285" height="52.95722348224436" class="bar-mmdr" rx="2"/>
<text x="383.10714285714283" y="282.04277651775567" text-anchor="middle" class="bar-label">4.6</text>
<rect x="389.99999999999994" y="59.54442074003697" width="3.785714285714285" height="260.45557925996303" class="bar-cli" rx="2"/>
<text x="391.8928571428571" y="74.54442074003697" text-anchor="middle" class="bar-label">1799</text>
<text x="384.99999999999994" y="340" text-anchor="middle" class="tick-label" transform="rotate(-30 384.99999999999994 340)">pie med</text>
<rect x="392.0306122448979" y="263.9732006513416" width="3.785714285714285" height="56.02679934865842" class="bar-mmdr" rx="2"/>
<text x="393.92346938775506" y="278.9732006513416" text-anchor="middle" class="bar-label">5.0</text>
<rect x="400.8163265306122" y="59.59852482324055" width="3.785714285714285" height="260.40147517675945" class="bar-cli" rx="2"/>
<text x="402.70918367346934" y="74.59852482324055" text-anchor="middle" class="bar-label">1796</text>
<text x="395.8163265306122" y="340" text-anchor="middle" class="tick-label" transform="rotate(-30 395.8163265306122 340)">mindmap med</text>
<rect x="402.8469387755101" y="268.2957247077479" width="3.785714285714285" height="51.70427529225209" class="bar-mmdr" rx="2"/>
<text x="404.7397959183673" y="283.2957247077479" text-anchor="middle" class="bar-label">4.4</text>
<rect x="411.6326530612244" y="61.29181179187373" width="3.785714285714285" height="258.7081882081263" class="bar-cli" rx="2"/>
<text x="413.52551020408157" y="76.29181179187373" text-anchor="middle" class="bar-label">1710</text>
<text x="406.6326530612244" y="340" text-anchor="middle" class="tick-label" transform="rotate(-30 406.6326530612244 340)">journey med</text>
<rect x="413.6632653061224" y="268.36277498119745" width="3.785714285714285" height="51.637225018802575" class="bar-mmdr" rx="2"/>
<text x="415.5561224489796" y="283.36277498119745" text-anchor="middle" class="bar-label">4.4</text>
<rect x="422.4489795918367" y="61.411940701219066" width="3.785714285714285" height="258.58805929878093" class="bar-cli" rx="2"/>
<text x="424.34183673469386" y="76.41194070121907" text-anchor="middle" class="bar-label">1704</text>
<text x="417.4489795918367" y="340" text-anchor="middle" class="tick-label" transform="rotate(-30 417.4489795918367 340)">timeline med</text>
<rect x="424.47959183673464" y="267.56835616480305" width="3.785714285714285" height="52.43164383519693" class="bar-mmdr" rx="2"/>
<text x="426.3724489795918" y="282.56835616480305" text-anchor="middle" class="bar-label">4.5</text>
<rect x="433.2653061224489" y="60.141519311967556" width="3.785714285714285" height="259.85848068803244" class="bar-cli" rx="2"/>
<text x="435.1581632653061" y="75.14151931196756" text-anchor="middle" class="bar-label">1768</text>
<text x="428.2653061224489" y="340" text-anchor="middle" class="tick-label" transform="rotate(-30 428.2653061224489 340)">gantt med</text>
<rect x="435.29591836734687" y="268.89545443206464" width="3.785714285714285" height="51.104545567935375" class="bar-mmdr" rx="2"/>
<text x="437.18877551020404" y="283.89545443206464" text-anchor="middle" class="bar-label">4.4</text>
<rect x="444.08163265306115" y="60.1007660211917" width="3.785714285714285" height="259.8992339788083" class="bar-cli" rx="2"/>
<text x="445.9744897959183" y="75.1007660211917" text-anchor="middle" class="bar-label">1770</text>
<text x="439.08163265306115" y="340" text-anchor="middle" class="tick-label" transform="rotate(-30 439.08163265306115 340)">requirement med</text>
<rect x="446.11224489795916" y="282.38470380404584" width="3.785714285714285" height="37.61529619595417" class="bar-mmdr" rx="2"/>
<text x="448.0051020408163" y="297.38470380404584" text-anchor="middle" class="bar-label">3.0</text>
<rect x="454.89795918367344" y="59.67865494059538" width="3.785714285714285" height="260.3213450594046" class="bar-cli" rx="2"/>
<text x="456.7908163265306" y="74.67865494059538" text-anchor="middle" class="bar-label">1792</text>
<text x="449.89795918367344" y="340" text-anchor="middle" class="tick-label" transform="rotate(-30 449.89795918367344 340)">gitgraph med</text>
<rect x="456.9285714285714" y="272.89543219842375" width="3.785714285714285" height="47.10456780157623" class="bar-mmdr" rx="2"/>
<text x="458.82142857142856" y="287.89543219842375" text-anchor="middle" class="bar-label">3.9</text>
<rect x="465.71428571428567" y="61.009754826475046" width="3.785714285714285" height="258.99024517352495" class="bar-cli" rx="2"/>
<text x="467.60714285714283" y="76.00975482647505" text-anchor="middle" class="bar-label">1724</text>
<text x="460.71428571428567" y="340" text-anchor="middle" class="tick-label" transform="rotate(-30 460.71428571428567 340)">c4 med</text>
<rect x="467.7448979591836" y="272.92231087002676" width="3.785714285714285" height="47.07768912997323" class="bar-mmdr" rx="2"/>
<text x="469.6377551020408" y="287.92231087002676" text-anchor="middle" class="bar-label">3.9</text>
<rect x="476.5306122448979" y="61.58073831266114" width="3.785714285714285" height="258.41926168733886" class="bar-cli" rx="2"/>
<text x="478.42346938775506" y="76.58073831266114" text-anchor="middle" class="bar-label">1696</text>
<text x="471.5306122448979" y="340" text-anchor="middle" class="tick-label" transform="rotate(-30 471.5306122448979 340)">sankey med</text>
<rect x="478.56122448979585" y="259.63718993568114" width="3.785714285714285" height="60.362810064318865" class="bar-mmdr" rx="2"/>
<text x="480.454081632653" y="274.63718993568114" text-anchor="middle" class="bar-label">5.7</text>
<rect x="487.3469387755101" y="61.135022933605626" width="3.785714285714285" height="258.8649770663944" class="bar-cli" rx="2"/>
<text x="489.2397959183673" y="76.13502293360563" text-anchor="middle" class="bar-label">1718</text>
<text x="482.3469387755101" y="340" text-anchor="middle" class="tick-label" transform="rotate(-30 482.3469387755101 340)">quadrant med</text>
<rect x="489.3775510204081" y="267.17840065938515" width="3.785714285714285" height="52.82159934061485" class="bar-mmdr" rx="2"/>
<text x="491.27040816326524" y="282.17840065938515" text-anchor="middle" class="bar-label">4.6</text>
<rect x="498.16326530612236" y="58.23135314799873" width="3.785714285714285" height="261.76864685200127" class="bar-cli" rx="2"/>
<text x="500.0561224489795" y="73.23135314799873" text-anchor="middle" class="bar-label">1868</text>
<text x="493.16326530612236" y="340" text-anchor="middle" class="tick-label" transform="rotate(-30 493.16326530612236 340)">zenuml med</text>
<rect x="500.19387755102036" y="262.1550604178332" width="3.785714285714285" height="57.84493958216678" class="bar-mmdr" rx="2"/>
<text x="502.08673469387753" y="277.1550604178332" text-anchor="middle" class="bar-label">5.3</text>
<rect x="508.97959183673464" y="60.24840866654921" width="3.785714285714285" height="259.7515913334508" class="bar-cli" rx="2"/>
<text x="510.8724489795918" y="75.24840866654921" text-anchor="middle" class="bar-label">1762</text>
<text x="503.97959183673464" y="340" text-anchor="middle" class="tick-label" transform="rotate(-30 503.97959183673464 340)">block med</text>
<rect x="511.0102040816326" y="271.20581035252064" width="3.785714285714285" height="48.79418964747935" class="bar-mmdr" rx="2"/>
<text x="512.9030612244898" y="286.20581035252064" text-anchor="middle" class="bar-label">4.1</text>
<rect x="519.7959183673469" y="61.51395529003952" width="3.785714285714285" height="258.4860447099605" class="bar-cli" rx="2"/>
<text x="521.688775510204" y="76.51395529003952" text-anchor="middle" class="bar-label">1699</text>
<text x="514.7959183673469" y="340" text-anchor="middle" class="tick-label" transform="rotate(-30 514.7959183673469 340)">packet med</text>
<rect x="521.8265306122448" y="269.49762478681356" width="3.785714285714285" height="50.502375213186426" class="bar-mmdr" rx="2"/>
<text x="523.7193877551019" y="284.49762478681356" text-anchor="middle" class="bar-label">4.3</text>
<rect x="530.6122448979592" y="61.268921615590955" width="3.785714285714285" height="258.73107838440905" class="bar-cli" rx="2"/>
<text x="532.5051020408163" y="76.26892161559095" text-anchor="middle" class="bar-label">1711</text>
<text x="525.6122448979592" y="340" text-anchor="middle" class="tick-label" transform="rotate(-30 525.6122448979592 340)">kanban med</text>
<rect x="532.6428571428571" y="269.56782668928594" width="3.785714285714285" height="50.43217331071405" class="bar-mmdr" rx="2"/>
<text x="534.5357142857142" y="284.56782668928594" text-anchor="middle" class="bar-label">4.3</text>
<rect x="541.4285714285714" y="59.357358665268634" width="3.785714285714285" height="260.64264133473137" class="bar-cli" rx="2"/>
<text x="543.3214285714286" y="74.35735866526863" text-anchor="middle" class="bar-label">1808</text>
<text x="536.4285714285714" y="340" text-anchor="middle" class="tick-label" transform="rotate(-30 536.4285714285714 340)">architecture med</text>
<rect x="543.4591836734694" y="269.89978698778134" width="3.785714285714285" height="50.10021301221865" class="bar-mmdr" rx="2"/>
<text x="545.3520408163265" y="284.89978698778134" text-anchor="middle" class="bar-label">4.2</text>
<rect x="552.2448979591837" y="61.3404324155361" width="3.785714285714285" height="258.6595675844639" class="bar-cli" rx="2"/>
<text x="554.1377551020408" y="76.3404324155361" text-anchor="middle" class="bar-label">1708</text>
<text x="547.2448979591837" y="340" text-anchor="middle" class="tick-label" transform="rotate(-30 547.2448979591837 340)">radar med</text>
<rect x="554.2755102040816" y="267.41778042731926" width="3.785714285714285" height="52.58221957268077" class="bar-mmdr" rx="2"/>
<text x="556.1683673469387" y="282.41778042731926" text-anchor="middle" class="bar-label">4.5</text>
<rect x="563.0612244897959" y="60.20748823429523" width="3.785714285714285" height="259.7925117657048" class="bar-cli" rx="2"/>
<text x="564.954081632653" y="75.20748823429523" text-anchor="middle" class="bar-label">1765</text>
<text x="558.0612244897959" y="340" text-anchor="middle" class="tick-label" transform="rotate(-30 558.0612244897959 340)">treemap med</text>
<rect x="565.0918367346937" y="274.3929581634849" width="3.785714285714285" height="45.607041836515116" class="bar-mmdr" rx="2"/>
<text x="566.9846938775509" y="289.3929581634849" text-anchor="middle" class="bar-label">3.7</text>
<text x="568.8775510204081" y="340" text-anchor="middle" class="tick-label" transform="rotate(-30 568.8775510204081 340)">xychart med</text>
<rect x="575.908163265306" y="245.02069758729996" width="3.785714285714285" height="74.97930241270004" class="bar-mmdr" rx="2"/>
<text x="577.8010204081631" y="260.0206975873" text-anchor="middle" class="bar-label">8.7</text>
<rect x="584.6938775510204" y="59.43117703739006" width="3.785714285714285" height="260.56882296260994" class="bar-cli" rx="2"/>
<text x="586.5867346938775" y="74.43117703739006" text-anchor="middle" class="bar-label">1804</text>
<text x="579.6938775510204" y="340" text-anchor="middle" class="tick-label" transform="rotate(-30 579.6938775510204 340)">flowchart</text>
<rect x="586.7244897959183" y="271.0417570358084" width="3.785714285714285" height="48.95824296419158" class="bar-mmdr" rx="2"/>
<text x="588.6173469387754" y="286.0417570358084" text-anchor="middle" class="bar-label">4.1</text>
<rect x="595.5102040816327" y="60.169091539638316" width="3.785714285714285" height="259.8309084603617" class="bar-cli" rx="2"/>
<text x="597.4030612244898" y="75.16909153963832" text-anchor="middle" class="bar-label">1766</text>
<text x="590.5102040816327" y="340" text-anchor="middle" class="tick-label" transform="rotate(-30 590.5102040816327 340)">sequence</text>
<rect x="597.5408163265306" y="250.98905510298945" width="3.785714285714285" height="69.01094489701055" class="bar-mmdr" rx="2"/>
<text x="599.4336734693877" y="265.9890551029895" text-anchor="middle" class="bar-label">7.3</text>
<rect x="606.3265306122449" y="60.40779423110479" width="3.785714285714285" height="259.5922057688952" class="bar-cli" rx="2"/>
<text x="608.219387755102" y="75.40779423110479" text-anchor="middle" class="bar-label">1754</text>
<text x="601.3265306122449" y="340" text-anchor="middle" class="tick-label" transform="rotate(-30 601.3265306122449 340)">class</text>
<rect x="608.3571428571428" y="257.84210539210085" width="3.785714285714285" height="62.15789460789918" class="bar-mmdr" rx="2"/>
<text x="610.2499999999999" y="272.84210539210085" text-anchor="middle" class="bar-label">6.0</text>
<rect x="617.1428571428571" y="60.495856389878554" width="3.785714285714285" height="259.50414361012145" class="bar-cli" rx="2"/>
<text x="619.0357142857142" y="75.49585638987855" text-anchor="middle" class="bar-label">1750</text>
<text x="612.1428571428571" y="340" text-anchor="middle" class="tick-label" transform="rotate(-30 612.1428571428571 340)">state</text>
<rect x="619.1734693877551" y="259.3403927862253" width="3.785714285714285" height="60.65960721377467" class="bar-mmdr" rx="2"/>
<text x="621.0663265306122" y="274.3403927862253" text-anchor="middle" class="bar-label">5.7</text>
<rect x="627.9591836734694" y="60.493211481944456" width="3.785714285714285" height="259.50678851805554" class="bar-cli" rx="2"/>
<text x="629.8520408163265" y="75.49321148194446" text-anchor="middle" class="bar-label">1750</text>
<text x="622.9591836734694" y="340" text-anchor="middle" class="tick-label" transform="rotate(-30 622.9591836734694 340)">class tiny</text>
<rect x="629.9897959183672" y="255.82046771324468" width="3.785714285714285" height="64.1795322867553" class="bar-mmdr" rx="2"/>
<text x="631.8826530612243" y="270.8204677132447" text-anchor="middle" class="bar-label">6.3</text>
<rect x="638.7755102040816" y="59.767335409147506" width="3.785714285714285" height="260.2326645908525" class="bar-cli" rx="2"/>
<text x="640.6683673469387" y="74.7673354091475" text-anchor="middle" class="bar-label">1787</text>
<text x="633.7755102040816" y="340" text-anchor="middle" class="tick-label" transform="rotate(-30 633.7755102040816 340)">state tiny</text>
<rect x="640.8061224489795" y="258.9621606962611" width="3.785714285714285" height="61.037839303738906" class="bar-mmdr" rx="2"/>
<text x="642.6989795918366" y="273.9621606962611" text-anchor="middle" class="bar-label">5.8</text>
<rect x="649.5918367346939" y="60.187488907844" width="3.785714285714285" height="259.812511092156" class="bar-cli" rx="2"/>
<text x="651.484693877551" y="75.187488907844" text-anchor="middle" class="bar-label">1766</text>
<text x="644.5918367346939" y="340" text-anchor="middle" class="tick-label" transform="rotate(-30 644.5918367346939 340)">sequence tiny</text>
<rect x="670" y="60" width="15" height="15" class="bar-mmdr"/>
<text x="690" y="72" class="legend">mmdr</text>
<rect x="670" y="85" width="15" height="15" class="bar-cli"/>
<text x="690" y="97" class="legend">mermaid-cli</text>
<line x1="120" y1="40" x2="120" y2="320" stroke="#333" stroke-width="2"/>
<line x1="120" y1="320" x2="650" y2="320" stroke="#333" stroke-width="2"/>
</svg>