<svg xmlns="http://www.w3.org/2000/svg" viewBox="0 0 600 320">
  <style>
    .title { font: bold 18px system-ui, sans-serif; fill: #000; }
    .label { font: bold 14px system-ui, sans-serif; fill: #000; }
    .value { font: bold 11px system-ui, sans-serif; fill: white; }
    .speedup { font: bold 14px system-ui, sans-serif; fill: #047857; }
    .legend { font: 13px system-ui, sans-serif; fill: #000; }
  </style>

  <text x="300.0" y="28" text-anchor="middle" class="title">Render Time Comparison (ms)</text>

  <!-- Legend -->
  <rect x="200" y="45" width="14" height="14" rx="2" fill="#10b981"/>
  <text x="218" y="57" class="legend">mmdr</text>
  <rect x="290" y="45" width="14" height="14" rx="2" fill="#f97316"/>
  <text x="308" y="57" class="legend">mermaid-cli</text>

  <!-- Flowchart -->
  <text x="105" y="95" text-anchor="middle" class="label">Flowchart</text>
  <rect x="55" y="267" width="50" height="18" rx="4" fill="#10b981"/>
  <text x="80.0" y="281" text-anchor="middle" class="value">4.5</text>
  <rect x="115" y="126.35099566446212" width="50" height="158.64900433553788" rx="4" fill="#f97316"/>
  <text x="140.0" y="146.35099566446212" text-anchor="middle" class="value">2449</text>
  <text x="105" y="305" text-anchor="middle" class="speedup">539×</text>

  <!-- Class -->
  <text x="230" y="95" text-anchor="middle" class="label">Class</text>
  <rect x="180" y="267" width="50" height="18" rx="4" fill="#10b981"/>
  <text x="205.0" y="281" text-anchor="middle" class="value">6.5</text>
  <rect x="240" y="128.40248860509024" width="50" height="156.59751139490976" rx="4" fill="#f97316"/>
  <text x="265.0" y="148.40248860509024" text-anchor="middle" class="value">2417</text>
  <text x="230" y="305" text-anchor="middle" class="speedup">371×</text>

  <!-- State -->
  <text x="355" y="95" text-anchor="middle" class="label">State</text>
  <rect x="305" y="267" width="50" height="18" rx="4" fill="#10b981"/>
  <text x="330.0" y="281" text-anchor="middle" class="value">6.0</text>
  <rect x="365" y="105.0" width="50" height="180.0" rx="4" fill="#f97316"/>
  <text x="390.0" y="125.0" text-anchor="middle" class="value">2778</text>
  <text x="355" y="305" text-anchor="middle" class="speedup">463×</text>

  <!-- Sequence -->
  <text x="480" y="95" text-anchor="middle" class="label">Sequence</text>
  <rect x="430" y="267" width="50" height="18" rx="4" fill="#10b981"/>
  <text x="455.0" y="281" text-anchor="middle" class="value">5.7</text>
  <rect x="490" y="136.16328775447434" width="50" height="148.83671224552566" rx="4" fill="#f97316"/>
  <text x="515.0" y="156.16328775447434" text-anchor="middle" class="value">2297</text>
  <text x="480" y="305" text-anchor="middle" class="speedup">402×</text>
</svg>
