<svg xmlns="http://www.w3.org/2000/svg" viewBox="0 0 800 400">
<style>
  .title { font: bold 16px sans-serif; }
  .axis-label { font: 12px sans-serif; }
  .tick-label { font: 11px sans-serif; }
  .legend { font: 12px sans-serif; }
  .bar-mmdr { fill: #2e7d32; }
  .bar-cli { fill: #f57c00; }
  .bar-label { font: 10px sans-serif; fill: white; }
</style>
<text x="400.0" y="25" text-anchor="middle" class="title">Render Time Comparison (log scale)</text>
<line x1="120" y1="320.0" x2="650" y2="320.0" stroke="#ddd" stroke-dasharray="2,2"/>
<text x="110" y="324.0" text-anchor="end" class="tick-label">1 ms</text>
<line x1="120" y1="244.2957263929294" x2="650" y2="244.2957263929294" stroke="#ddd" stroke-dasharray="2,2"/>
<text x="110" y="248.2957263929294" text-anchor="end" class="tick-label">10 ms</text>
<line x1="120" y1="168.59145278585882" x2="650" y2="168.59145278585882" stroke="#ddd" stroke-dasharray="2,2"/>
<text x="110" y="172.59145278585882" text-anchor="end" class="tick-label">100 ms</text>
<line x1="120" y1="92.88717917878822" x2="650" y2="92.88717917878822" stroke="#ddd" stroke-dasharray="2,2"/>
<text x="110" y="96.88717917878822" text-anchor="end" class="tick-label">1000 ms</text>
<rect x="133.25" y="259.9888063887187" width="30.916666666666664" height="60.011193611281335" class="bar-mmdr" rx="2"/>
<text x="148.70833333333334" y="274.9888063887187" text-anchor="middle" class="bar-label">6.2</text>
<rect x="169.16666666666666" y="59.17940838480149" width="30.916666666666664" height="260.8205916151985" class="bar-cli" rx="2"/>
<text x="184.625" y="74.17940838480149" text-anchor="middle" class="bar-label">2788</text>
<text x="164.16666666666666" y="340" text-anchor="middle" class="tick-label" transform="rotate(-30 164.16666666666666 340)">flow small</text>
<rect x="221.58333333333331" y="214.24028268305167" width="30.916666666666664" height="105.75971731694833" class="bar-mmdr" rx="2"/>
<text x="237.04166666666666" y="229.24028268305167" text-anchor="middle" class="bar-label">24.9</text>
<rect x="257.5" y="57.96730659007295" width="30.916666666666664" height="262.03269340992705" class="bar-cli" rx="2"/>
<text x="272.9583333333333" y="72.96730659007295" text-anchor="middle" class="bar-label">2892</text>
<text x="252.49999999999997" y="340" text-anchor="middle" class="tick-label" transform="rotate(-30 252.49999999999997 340)">flow med</text>
<rect x="309.91666666666663" y="167.90165060947467" width="30.916666666666664" height="152.09834939052533" class="bar-mmdr" rx="2"/>
<text x="325.37499999999994" y="182.90165060947467" text-anchor="middle" class="bar-label">102.1</text>
<rect x="345.8333333333333" y="53.33086085536485" width="30.916666666666664" height="266.66913914463515" class="bar-cli" rx="2"/>
<text x="361.29166666666663" y="68.33086085536485" text-anchor="middle" class="bar-label">3331</text>
<text x="340.8333333333333" y="340" text-anchor="middle" class="tick-label" transform="rotate(-30 340.8333333333333 340)">flow large</text>
<rect x="398.25" y="263.74460499686074" width="30.916666666666664" height="56.25539500313923" class="bar-mmdr" rx="2"/>
<text x="413.7083333333333" y="278.74460499686074" text-anchor="middle" class="bar-label">5.5</text>
<rect x="434.1666666666667" y="56.81122775322626" width="30.916666666666664" height="263.18877224677374" class="bar-cli" rx="2"/>
<text x="449.625" y="71.81122775322626" text-anchor="middle" class="bar-label">2996</text>
<text x="429.1666666666667" y="340" text-anchor="middle" class="tick-label" transform="rotate(-30 429.1666666666667 340)">class med</text>
<rect x="486.5833333333333" y="260.24132019873923" width="30.916666666666664" height="59.75867980126079" class="bar-mmdr" rx="2"/>
<text x="502.04166666666663" y="275.24132019873923" text-anchor="middle" class="bar-label">6.2</text>
<rect x="522.5" y="60.26490724753876" width="30.916666666666664" height="259.73509275246124" class="bar-cli" rx="2"/>
<text x="537.9583333333334" y="75.26490724753876" text-anchor="middle" class="bar-label">2697</text>
<text x="517.5" y="340" text-anchor="middle" class="tick-label" transform="rotate(-30 517.5 340)">state med</text>
<rect x="574.9166666666666" y="285.5012950824961" width="30.916666666666664" height="34.49870491750393" class="bar-mmdr" rx="2"/>
<text x="590.375" y="300.5012950824961" text-anchor="middle" class="bar-label">2.9</text>
<rect x="610.8333333333333" y="60.638468784639315" width="30.916666666666664" height="259.3615312153607" class="bar-cli" rx="2"/>
<text x="626.2916666666666" y="75.63846878463931" text-anchor="middle" class="bar-label">2667</text>
<text x="605.8333333333333" y="340" text-anchor="middle" class="tick-label" transform="rotate(-30 605.8333333333333 340)">sequence med</text>
<rect x="670" y="60" width="15" height="15" class="bar-mmdr"/>
<text x="690" y="72" class="legend">mmdr</text>
<rect x="670" y="85" width="15" height="15" class="bar-cli"/>
<text x="690" y="97" class="legend">mermaid-cli</text>
<line x1="120" y1="40" x2="120" y2="320" stroke="#333" stroke-width="2"/>
<line x1="120" y1="320" x2="650" y2="320" stroke="#333" stroke-width="2"/>
</svg>