<svg xmlns="http://www.w3.org/2000/svg" viewBox="0 0 800 400">
<style>
  .title { font: bold 16px sans-serif; }
  .axis-label { font: 12px sans-serif; }
  .tick-label { font: 11px sans-serif; }
  .legend { font: 12px sans-serif; }
  .bar-mmdr { fill: #2e7d32; }
  .bar-cli { fill: #f57c00; }
  .bar-label { font: 10px sans-serif; fill: white; }
</style>
<text x="400.0" y="25" text-anchor="middle" class="title">Render Time Comparison (log scale)</text>
<line x1="120" y1="320.0" x2="650" y2="320.0" stroke="#ddd" stroke-dasharray="2,2"/>
<text x="110" y="324.0" text-anchor="end" class="tick-label">1 ms</text>
<line x1="120" y1="243.55590986840508" x2="650" y2="243.55590986840508" stroke="#ddd" stroke-dasharray="2,2"/>
<text x="110" y="247.55590986840508" text-anchor="end" class="tick-label">10 ms</text>
<line x1="120" y1="167.11181973681016" x2="650" y2="167.11181973681016" stroke="#ddd" stroke-dasharray="2,2"/>
<text x="110" y="171.11181973681016" text-anchor="end" class="tick-label">100 ms</text>
<line x1="120" y1="90.66772960521521" x2="650" y2="90.66772960521521" stroke="#ddd" stroke-dasharray="2,2"/>
<text x="110" y="94.66772960521521" text-anchor="end" class="tick-label">1000 ms</text>
<rect x="127.22727272727272" y="237.29669904971325" width="16.863636363636363" height="82.70330095028676" class="bar-mmdr" rx="2"/>
<text x="135.6590909090909" y="252.29669904971325" text-anchor="middle" class="bar-label">12.1</text>
<text x="144.0909090909091" y="340" text-anchor="middle" class="tick-label" transform="rotate(-30 144.0909090909091 340)">flow small</text>
<rect x="175.4090909090909" y="242.8541780182571" width="16.863636363636363" height="77.1458219817429" class="bar-mmdr" rx="2"/>
<text x="183.8409090909091" y="257.85417801825713" text-anchor="middle" class="bar-label">10.2</text>
<text x="192.27272727272728" y="340" text-anchor="middle" class="tick-label" transform="rotate(-30 192.27272727272728 340)">flow med</text>
<rect x="223.5909090909091" y="169.8836945049762" width="16.863636363636363" height="150.1163054950238" class="bar-mmdr" rx="2"/>
<text x="232.02272727272728" y="184.8836945049762" text-anchor="middle" class="bar-label">92.0</text>
<text x="240.45454545454547" y="340" text-anchor="middle" class="tick-label" transform="rotate(-30 240.45454545454547 340)">flow large</text>
<rect x="271.77272727272725" y="264.12396591146455" width="16.863636363636363" height="55.87603408853545" class="bar-mmdr" rx="2"/>
<text x="280.20454545454544" y="279.12396591146455" text-anchor="middle" class="bar-label">5.4</text>
<text x="288.6363636363636" y="340" text-anchor="middle" class="tick-label" transform="rotate(-30 288.6363636363636 340)">flowchart</text>
<rect x="319.9545454545455" y="271.67636589937104" width="16.863636363636363" height="48.323634100628986" class="bar-mmdr" rx="2"/>
<text x="328.3863636363637" y="286.67636589937104" text-anchor="middle" class="bar-label">4.3</text>
<text x="336.81818181818187" y="340" text-anchor="middle" class="tick-label" transform="rotate(-30 336.81818181818187 340)">flow tiny</text>
<rect x="368.1363636363636" y="274.47562133486105" width="16.863636363636363" height="45.524378665138975" class="bar-mmdr" rx="2"/>
<text x="376.5681818181818" y="289.47562133486105" text-anchor="middle" class="bar-label">3.9</text>
<text x="385.0" y="340" text-anchor="middle" class="tick-label" transform="rotate(-30 385.0 340)">class</text>
<rect x="416.3181818181818" y="278.9388543502608" width="16.863636363636363" height="41.06114564973923" class="bar-mmdr" rx="2"/>
<text x="424.75" y="293.9388543502608" text-anchor="middle" class="bar-label">3.4</text>
<text x="433.1818181818182" y="340" text-anchor="middle" class="tick-label" transform="rotate(-30 433.1818181818182 340)">class tiny</text>
<rect x="464.5" y="273.33231968179786" width="16.863636363636363" height="46.66768031820214" class="bar-mmdr" rx="2"/>
<text x="472.9318181818182" y="288.33231968179786" text-anchor="middle" class="bar-label">4.1</text>
<text x="481.3636363636364" y="340" text-anchor="middle" class="tick-label" transform="rotate(-30 481.3636363636364 340)">state</text>
<rect x="512.6818181818181" y="287.7857515216778" width="16.863636363636363" height="32.21424847832218" class="bar-mmdr" rx="2"/>
<text x="521.1136363636363" y="302.7857515216778" text-anchor="middle" class="bar-label">2.6</text>
<rect x="534.5454545454545" y="54.17255638830716" width="16.863636363636363" height="265.82744361169284" class="bar-cli" rx="2"/>
<text x="542.9772727272726" y="69.17255638830716" text-anchor="middle" class="bar-label">3002</text>
<text x="529.5454545454545" y="340" text-anchor="middle" class="tick-label" transform="rotate(-30 529.5454545454545 340)">state tiny</text>
<rect x="560.8636363636364" y="279.5384405442948" width="16.863636363636363" height="40.46155945570517" class="bar-mmdr" rx="2"/>
<text x="569.2954545454545" y="294.5384405442948" text-anchor="middle" class="bar-label">3.4</text>
<rect x="582.7272727272727" y="53.4611360786385" width="16.863636363636363" height="266.5388639213615" class="bar-cli" rx="2"/>
<text x="591.1590909090909" y="68.4611360786385" text-anchor="middle" class="bar-label">3067</text>
<text x="577.7272727272727" y="340" text-anchor="middle" class="tick-label" transform="rotate(-30 577.7272727272727 340)">sequence</text>
<rect x="609.0454545454545" y="286.07420490365456" width="16.863636363636363" height="33.92579509634545" class="bar-mmdr" rx="2"/>
<text x="617.4772727272726" y="301.07420490365456" text-anchor="middle" class="bar-label">2.8</text>
<rect x="630.9090909090909" y="55.840151552930024" width="16.863636363636363" height="264.15984844707" class="bar-cli" rx="2"/>
<text x="639.340909090909" y="70.84015155293002" text-anchor="middle" class="bar-label">2855</text>
<text x="625.9090909090909" y="340" text-anchor="middle" class="tick-label" transform="rotate(-30 625.9090909090909 340)">sequence tiny</text>
<rect x="670" y="60" width="15" height="15" class="bar-mmdr"/>
<text x="690" y="72" class="legend">mmdr</text>
<rect x="670" y="85" width="15" height="15" class="bar-cli"/>
<text x="690" y="97" class="legend">mermaid-cli</text>
<line x1="120" y1="40" x2="120" y2="320" stroke="#333" stroke-width="2"/>
<line x1="120" y1="320" x2="650" y2="320" stroke="#333" stroke-width="2"/>
</svg>