<svg xmlns="http://www.w3.org/2000/svg" viewBox="0 0 800 400">
<style>
  .title { font: bold 16px sans-serif; }
  .axis-label { font: 12px sans-serif; }
  .tick-label { font: 11px sans-serif; }
  .legend { font: 12px sans-serif; }
  .bar-mmdr { fill: #2e7d32; }
  .bar-cli { fill: #f57c00; }
  .bar-label { font: 10px sans-serif; fill: white; }
</style>
<text x="400.0" y="25" text-anchor="middle" class="title">Render Time Comparison (log scale)</text>
<line x1="120" y1="320.0" x2="650" y2="320.0" stroke="#ddd" stroke-dasharray="2,2"/>
<text x="110" y="324.0" text-anchor="end" class="tick-label">1 ms</text>
<line x1="120" y1="241.00368190477872" x2="650" y2="241.00368190477872" stroke="#ddd" stroke-dasharray="2,2"/>
<text x="110" y="245.00368190477872" text-anchor="end" class="tick-label">10 ms</text>
<line x1="120" y1="162.00736380955743" x2="650" y2="162.00736380955743" stroke="#ddd" stroke-dasharray="2,2"/>
<text x="110" y="166.00736380955743" text-anchor="end" class="tick-label">100 ms</text>
<line x1="120" y1="83.01104571433618" x2="650" y2="83.01104571433618" stroke="#ddd" stroke-dasharray="2,2"/>
<text x="110" y="87.01104571433618" text-anchor="end" class="tick-label">1000 ms</text>
<rect x="122.74137931034483" y="255.5313072846086" width="6.396551724137931" height="64.4686927153914" class="bar-mmdr" rx="2"/>
<text x="125.9396551724138" y="270.5313072846086" text-anchor="middle" class="bar-label">6.5</text>
<rect x="134.13793103448276" y="62.16917586303964" width="6.396551724137931" height="257.83082413696036" class="bar-cli" rx="2"/>
<text x="137.33620689655172" y="77.16917586303964" text-anchor="middle" class="bar-label">1836</text>
<text x="129.13793103448276" y="340" text-anchor="middle" class="tick-label" transform="rotate(-30 129.13793103448276 340)">flow small</text>
<rect x="141.01724137931035" y="249.6723369329402" width="6.396551724137931" height="70.3276630670598" class="bar-mmdr" rx="2"/>
<text x="144.2155172413793" y="264.6723369329402" text-anchor="middle" class="bar-label">7.8</text>
<rect x="152.41379310344828" y="61.10853388295459" width="6.396551724137931" height="258.8914661170454" class="bar-cli" rx="2"/>
<text x="155.61206896551724" y="76.10853388295459" text-anchor="middle" class="bar-label">1893</text>
<text x="147.41379310344828" y="340" text-anchor="middle" class="tick-label" transform="rotate(-30 147.41379310344828 340)">flow med</text>
<rect x="159.29310344827587" y="234.60120421057576" width="6.396551724137931" height="85.39879578942424" class="bar-mmdr" rx="2"/>
<text x="162.49137931034483" y="249.60120421057576" text-anchor="middle" class="bar-label">12.1</text>
<rect x="170.6896551724138" y="53.910561114150596" width="6.396551724137931" height="266.0894388858494" class="bar-cli" rx="2"/>
<text x="173.88793103448276" y="68.9105611141506" text-anchor="middle" class="bar-label">2335</text>
<text x="165.6896551724138" y="340" text-anchor="middle" class="tick-label" transform="rotate(-30 165.6896551724138 340)">flow large</text>
<rect x="177.56896551724137" y="249.425248184885" width="6.396551724137931" height="70.57475181511502" class="bar-mmdr" rx="2"/>
<text x="180.76724137931032" y="264.425248184885" text-anchor="middle" class="bar-label">7.8</text>
<rect x="188.9655172413793" y="60.05070731422052" width="6.396551724137931" height="259.9492926857795" class="bar-cli" rx="2"/>
<text x="192.16379310344826" y="75.05070731422052" text-anchor="middle" class="bar-label">1953</text>
<text x="183.9655172413793" y="340" text-anchor="middle" class="tick-label" transform="rotate(-30 183.9655172413793 340)">class med</text>
<rect x="195.8448275862069" y="258.1088565685309" width="6.396551724137931" height="61.89114343146913" class="bar-mmdr" rx="2"/>
<text x="199.04310344827584" y="273.1088565685309" text-anchor="middle" class="bar-label">6.1</text>
<rect x="207.24137931034483" y="60.053876264704" width="6.396551724137931" height="259.946123735296" class="bar-cli" rx="2"/>
<text x="210.43965517241378" y="75.053876264704" text-anchor="middle" class="bar-label">1953</text>
<text x="202.24137931034483" y="340" text-anchor="middle" class="tick-label" transform="rotate(-30 202.24137931034483 340)">state med</text>
<rect x="214.1206896551724" y="257.95471714129565" width="6.396551724137931" height="62.04528285870433" class="bar-mmdr" rx="2"/>
<text x="217.31896551724137" y="272.95471714129565" text-anchor="middle" class="bar-label">6.1</text>
<rect x="225.51724137931035" y="61.349055503346904" width="6.396551724137931" height="258.6509444966531" class="bar-cli" rx="2"/>
<text x="228.7155172413793" y="76.3490555033469" text-anchor="middle" class="bar-label">1880</text>
<text x="220.51724137931035" y="340" text-anchor="middle" class="tick-label" transform="rotate(-30 220.51724137931035 340)">sequence med</text>
<rect x="232.3965517241379" y="256.9678131992356" width="6.396551724137931" height="63.03218680076439" class="bar-mmdr" rx="2"/>
<text x="235.59482758620686" y="271.9678131992356" text-anchor="middle" class="bar-label">6.3</text>
<rect x="243.79310344827584" y="60.58518957588342" width="6.396551724137931" height="259.4148104241166" class="bar-cli" rx="2"/>
<text x="246.9913793103448" y="75.58518957588342" text-anchor="middle" class="bar-label">1923</text>
<text x="238.79310344827584" y="340" text-anchor="middle" class="tick-label" transform="rotate(-30 238.79310344827584 340)">er med</text>
<rect x="250.67241379310343" y="259.3841968076579" width="6.396551724137931" height="60.61580319234212" class="bar-mmdr" rx="2"/>
<text x="253.87068965517238" y="274.3841968076579" text-anchor="middle" class="bar-label">5.9</text>
<rect x="262.06896551724134" y="61.672307457335876" width="6.396551724137931" height="258.3276925426641" class="bar-cli" rx="2"/>
<text x="265.2672413793103" y="76.67230745733588" text-anchor="middle" class="bar-label">1863</text>
<text x="257.06896551724134" y="340" text-anchor="middle" class="tick-label" transform="rotate(-30 257.06896551724134 340)">pie med</text>
<rect x="268.94827586206895" y="255.66463544900185" width="6.396551724137931" height="64.33536455099815" class="bar-mmdr" rx="2"/>
<text x="272.1465517241379" y="270.6646354490018" text-anchor="middle" class="bar-label">6.5</text>
<rect x="280.34482758620686" y="60.941560133070936" width="6.396551724137931" height="259.05843986692906" class="bar-cli" rx="2"/>
<text x="283.5431034482758" y="75.94156013307094" text-anchor="middle" class="bar-label">1903</text>
<text x="275.34482758620686" y="340" text-anchor="middle" class="tick-label" transform="rotate(-30 275.34482758620686 340)">mindmap med</text>
<rect x="287.2241379310345" y="261.2763856140133" width="6.396551724137931" height="58.723614385986735" class="bar-mmdr" rx="2"/>
<text x="290.42241379310343" y="276.2763856140133" text-anchor="middle" class="bar-label">5.5</text>
<rect x="298.6206896551724" y="61.72769614228213" width="6.396551724137931" height="258.2723038577179" class="bar-cli" rx="2"/>
<text x="301.81896551724134" y="76.72769614228213" text-anchor="middle" class="bar-label">1860</text>
<text x="293.6206896551724" y="340" text-anchor="middle" class="tick-label" transform="rotate(-30 293.6206896551724 340)">journey med</text>
<rect x="305.5" y="258.7596907427207" width="6.396551724137931" height="61.24030925727933" class="bar-mmdr" rx="2"/>
<text x="308.69827586206895" y="273.7596907427207" text-anchor="middle" class="bar-label">6.0</text>
<rect x="316.8965517241379" y="62.6111292185991" width="6.396551724137931" height="257.3888707814009" class="bar-cli" rx="2"/>
<text x="320.09482758620686" y="77.6111292185991" text-anchor="middle" class="bar-label">1812</text>
<text x="311.8965517241379" y="340" text-anchor="middle" class="tick-label" transform="rotate(-30 311.8965517241379 340)">timeline med</text>
<rect x="323.7758620689655" y="261.676067820311" width="6.396551724137931" height="58.32393217968901" class="bar-mmdr" rx="2"/>
<text x="326.9741379310345" y="276.676067820311" text-anchor="middle" class="bar-label">5.5</text>
<rect x="335.17241379310343" y="62.611064676558726" width="6.396551724137931" height="257.3889353234413" class="bar-cli" rx="2"/>
<text x="338.3706896551724" y="77.61106467655873" text-anchor="middle" class="bar-label">1812</text>
<text x="330.17241379310343" y="340" text-anchor="middle" class="tick-label" transform="rotate(-30 330.17241379310343 340)">gantt med</text>
<rect x="342.051724137931" y="255.57560676609796" width="6.396551724137931" height="64.42439323390205" class="bar-mmdr" rx="2"/>
<text x="345.24999999999994" y="270.57560676609796" text-anchor="middle" class="bar-label">6.5</text>
<rect x="353.4482758620689" y="62.38958798827417" width="6.396551724137931" height="257.6104120117258" class="bar-cli" rx="2"/>
<text x="356.64655172413785" y="77.38958798827417" text-anchor="middle" class="bar-label">1824</text>
<text x="348.4482758620689" y="340" text-anchor="middle" class="tick-label" transform="rotate(-30 348.4482758620689 340)">requirement med</text>
<rect x="360.32758620689657" y="260.70897681789944" width="6.396551724137931" height="59.291023182100545" class="bar-mmdr" rx="2"/>
<text x="363.5258620689655" y="275.70897681789944" text-anchor="middle" class="bar-label">5.6</text>
<rect x="371.7241379310345" y="62.31959495555293" width="6.396551724137931" height="257.68040504444707" class="bar-cli" rx="2"/>
<text x="374.92241379310343" y="77.31959495555293" text-anchor="middle" class="bar-label">1828</text>
<text x="366.7241379310345" y="340" text-anchor="middle" class="tick-label" transform="rotate(-30 366.7241379310345 340)">gitgraph med</text>
<rect x="378.60344827586204" y="259.5288358076308" width="6.396551724137931" height="60.47116419236919" class="bar-mmdr" rx="2"/>
<text x="381.801724137931" y="274.5288358076308" text-anchor="middle" class="bar-label">5.8</text>
<rect x="389.99999999999994" y="62.746717807631" width="6.396551724137931" height="257.253282192369" class="bar-cli" rx="2"/>
<text x="393.1982758620689" y="77.746717807631" text-anchor="middle" class="bar-label">1805</text>
<text x="384.99999999999994" y="340" text-anchor="middle" class="tick-label" transform="rotate(-30 384.99999999999994 340)">c4 med</text>
<rect x="396.87931034482756" y="258.92746295656696" width="6.396551724137931" height="61.07253704343305" class="bar-mmdr" rx="2"/>
<text x="400.0775862068965" y="273.92746295656696" text-anchor="middle" class="bar-label">5.9</text>
<rect x="408.27586206896547" y="63.27081079718084" width="6.396551724137931" height="256.72918920281916" class="bar-cli" rx="2"/>
<text x="411.4741379310344" y="78.27081079718084" text-anchor="middle" class="bar-label">1778</text>
<text x="403.27586206896547" y="340" text-anchor="middle" class="tick-label" transform="rotate(-30 403.27586206896547 340)">sankey med</text>
<rect x="415.1551724137931" y="257.99064820816375" width="6.396551724137931" height="62.009351791836266" class="bar-mmdr" rx="2"/>
<text x="418.35344827586204" y="272.99064820816375" text-anchor="middle" class="bar-label">6.1</text>
<rect x="426.551724137931" y="63.39966139221593" width="6.396551724137931" height="256.60033860778407" class="bar-cli" rx="2"/>
<text x="429.74999999999994" y="78.39966139221593" text-anchor="middle" class="bar-label">1771</text>
<text x="421.551724137931" y="340" text-anchor="middle" class="tick-label" transform="rotate(-30 421.551724137931 340)">quadrant med</text>
<rect x="433.4310344827586" y="260.5716770226405" width="6.396551724137931" height="59.42832297735952" class="bar-mmdr" rx="2"/>
<text x="436.62931034482756" y="275.5716770226405" text-anchor="middle" class="bar-label">5.7</text>
<rect x="444.8275862068965" y="61.07914906090008" width="6.396551724137931" height="258.9208509390999" class="bar-cli" rx="2"/>
<text x="448.02586206896547" y="76.07914906090008" text-anchor="middle" class="bar-label">1895</text>
<text x="439.8275862068965" y="340" text-anchor="middle" class="tick-label" transform="rotate(-30 439.8275862068965 340)">zenuml med</text>
<rect x="451.7068965517241" y="258.8706567035668" width="6.396551724137931" height="61.129343296433184" class="bar-mmdr" rx="2"/>
<text x="454.9051724137931" y="273.8706567035668" text-anchor="middle" class="bar-label">5.9</text>
<rect x="463.10344827586204" y="62.33343999069973" width="6.396551724137931" height="257.66656000930027" class="bar-cli" rx="2"/>
<text x="466.301724137931" y="77.33343999069973" text-anchor="middle" class="bar-label">1827</text>
<text x="458.10344827586204" y="340" text-anchor="middle" class="tick-label" transform="rotate(-30 458.10344827586204 340)">block med</text>
<rect x="469.98275862068965" y="261.59225531410186" width="6.396551724137931" height="58.40774468589815" class="bar-mmdr" rx="2"/>
<text x="473.1810344827586" y="276.59225531410186" text-anchor="middle" class="bar-label">5.5</text>
<rect x="481.37931034482756" y="61.91642595191024" width="6.396551724137931" height="258.08357404808976" class="bar-cli" rx="2"/>
<text x="484.5775862068965" y="76.91642595191024" text-anchor="middle" class="bar-label">1849</text>
<text x="476.37931034482756" y="340" text-anchor="middle" class="tick-label" transform="rotate(-30 476.37931034482756 340)">packet med</text>
<rect x="488.2586206896552" y="261.52039603143476" width="6.396551724137931" height="58.47960396856527" class="bar-mmdr" rx="2"/>
<text x="491.4568965517241" y="276.52039603143476" text-anchor="middle" class="bar-label">5.5</text>
<rect x="499.6551724137931" y="61.99351457098817" width="6.396551724137931" height="258.00648542901183" class="bar-cli" rx="2"/>
<text x="502.85344827586204" y="76.99351457098817" text-anchor="middle" class="bar-label">1845</text>
<text x="494.6551724137931" y="340" text-anchor="middle" class="tick-label" transform="rotate(-30 494.6551724137931 340)">kanban med</text>
<rect x="506.53448275862064" y="261.92605772628366" width="6.396551724137931" height="58.07394227371635" class="bar-mmdr" rx="2"/>
<text x="509.7327586206896" y="276.92605772628366" text-anchor="middle" class="bar-label">5.4</text>
<rect x="517.9310344827586" y="61.10446574114667" width="6.396551724137931" height="258.89553425885333" class="bar-cli" rx="2"/>
<text x="521.1293103448276" y="76.10446574114667" text-anchor="middle" class="bar-label">1894</text>
<text x="512.9310344827586" y="340" text-anchor="middle" class="tick-label" transform="rotate(-30 512.9310344827586 340)">architecture med</text>
<rect x="524.8103448275863" y="262.195578058732" width="6.396551724137931" height="57.804421941268" class="bar-mmdr" rx="2"/>
<text x="528.0086206896552" y="277.195578058732" text-anchor="middle" class="bar-label">5.4</text>
<rect x="536.2068965517242" y="63.167278493510594" width="6.396551724137931" height="256.8327215064894" class="bar-cli" rx="2"/>
<text x="539.4051724137931" y="78.1672784935106" text-anchor="middle" class="bar-label">1783</text>
<text x="531.2068965517242" y="340" text-anchor="middle" class="tick-label" transform="rotate(-30 531.2068965517242 340)">radar med</text>
<rect x="543.0862068965517" y="260.82429383134956" width="6.396551724137931" height="59.17570616865042" class="bar-mmdr" rx="2"/>
<text x="546.2844827586207" y="275.82429383134956" text-anchor="middle" class="bar-label">5.6</text>
<rect x="554.4827586206897" y="61.87431904279214" width="6.396551724137931" height="258.12568095720786" class="bar-cli" rx="2"/>
<text x="557.6810344827586" y="76.87431904279214" text-anchor="middle" class="bar-label">1852</text>
<text x="549.4827586206897" y="340" text-anchor="middle" class="tick-label" transform="rotate(-30 549.4827586206897 340)">treemap med</text>
<rect x="561.3620689655172" y="259.93882749180153" width="6.396551724137931" height="60.061172508198474" class="bar-mmdr" rx="2"/>
<text x="564.5603448275862" y="274.93882749180153" text-anchor="middle" class="bar-label">5.8</text>
<text x="567.7586206896551" y="340" text-anchor="middle" class="tick-label" transform="rotate(-30 567.7586206896551 340)">xychart med</text>
<rect x="579.6379310344828" y="254.60435193819455" width="6.396551724137931" height="65.39564806180546" class="bar-mmdr" rx="2"/>
<text x="582.8362068965517" y="269.60435193819455" text-anchor="middle" class="bar-label">6.7</text>
<rect x="591.0344827586207" y="62.16320933614281" width="6.396551724137931" height="257.8367906638572" class="bar-cli" rx="2"/>
<text x="594.2327586206897" y="77.16320933614281" text-anchor="middle" class="bar-label">1836</text>
<text x="586.0344827586207" y="340" text-anchor="middle" class="tick-label" transform="rotate(-30 586.0344827586207 340)">flowchart</text>
<rect x="597.9137931034484" y="259.5514384815624" width="6.396551724137931" height="60.4485615184376" class="bar-mmdr" rx="2"/>
<text x="601.1120689655173" y="274.5514384815624" text-anchor="middle" class="bar-label">5.8</text>
<rect x="609.3103448275863" y="63.007050108409715" width="6.396551724137931" height="256.9929498915903" class="bar-cli" rx="2"/>
<text x="612.5086206896552" y="78.00705010840971" text-anchor="middle" class="bar-label">1792</text>
<text x="604.3103448275863" y="340" text-anchor="middle" class="tick-label" transform="rotate(-30 604.3103448275863 340)">sequence</text>
<rect x="616.1896551724138" y="259.77406171651745" width="6.396551724137931" height="60.22593828348255" class="bar-mmdr" rx="2"/>
<text x="619.3879310344828" y="274.77406171651745" text-anchor="middle" class="bar-label">5.8</text>
<rect x="627.5862068965517" y="61.928245600991715" width="6.396551724137931" height="258.0717543990083" class="bar-cli" rx="2"/>
<text x="630.7844827586207" y="76.92824560099172" text-anchor="middle" class="bar-label">1849</text>
<text x="622.5862068965517" y="340" text-anchor="middle" class="tick-label" transform="rotate(-30 622.5862068965517 340)">class</text>
<rect x="634.4655172413793" y="256.9982807842528" width="6.396551724137931" height="63.001719215747165" class="bar-mmdr" rx="2"/>
<text x="637.6637931034483" y="271.9982807842528" text-anchor="middle" class="bar-label">6.3</text>
<rect x="645.8620689655172" y="62.217992622797" width="6.396551724137931" height="257.782007377203" class="bar-cli" rx="2"/>
<text x="649.0603448275862" y="77.217992622797" text-anchor="middle" class="bar-label">1833</text>
<text x="640.8620689655172" y="340" text-anchor="middle" class="tick-label" transform="rotate(-30 640.8620689655172 340)">state</text>
<rect x="670" y="60" width="15" height="15" class="bar-mmdr"/>
<text x="690" y="72" class="legend">mmdr</text>
<rect x="670" y="85" width="15" height="15" class="bar-cli"/>
<text x="690" y="97" class="legend">mermaid-cli</text>
<line x1="120" y1="40" x2="120" y2="320" stroke="#333" stroke-width="2"/>
<line x1="120" y1="320" x2="650" y2="320" stroke="#333" stroke-width="2"/>
</svg>