<svg xmlns="http://www.w3.org/2000/svg" xmlns:xlink="http://www.w3.org/1999/xlink" version="1.1" class="marks" width="452" height="302" viewBox="0 0 452 302"><rect width="452" height="302" fill="white"/><g fill="none" stroke-miterlimit="10" transform="translate(47,25)"><g class="mark-group role-frame root" role="graphics-object" aria-roledescription="group mark container"><g transform="translate(0,0)"><path class="background" aria-hidden="true" d="M0,0h400v200h-400Z"/><g><g class="mark-group role-axis" aria-hidden="true"><g transform="translate(0.5,0.5)"><path class="background" aria-hidden="true" d="M0,0h0v0h0Z" pointer-events="none"/><g><g class="mark-rule role-axis-grid" pointer-events="none"><line transform="translate(0,200)" x2="400" y2="0" stroke="#ddd" stroke-width="1" opacity="1"/><line transform="translate(0,162)" x2="400" y2="0" stroke="#ddd" stroke-width="1" opacity="1"/><line transform="translate(0,123)" x2="400" y2="0" stroke="#ddd" stroke-width="1" opacity="1"/><line transform="translate(0,85)" x2="400" y2="0" stroke="#ddd" stroke-width="1" opacity="1"/><line transform="translate(0,46)" x2="400" y2="0" stroke="#ddd" stroke-width="1" opacity="1"/><line transform="translate(0,8)" x2="400" y2="0" stroke="#ddd" stroke-width="1" opacity="1"/></g></g><path class="foreground" aria-hidden="true" d="" pointer-events="none" display="none"/></g></g><g class="mark-group role-axis" role="graphics-symbol" aria-roledescription="axis" aria-label="X-axis for a discrete scale with 4 values: Flowchart, Class, State, Sequence"><g transform="translate(0.5,200.5)"><path class="background" aria-hidden="true" d="M0,0h0v0h0Z" pointer-events="none"/><g><g class="mark-rule role-axis-tick" pointer-events="none"><line transform="translate(50,0)" x2="0" y2="5" stroke="#888" stroke-width="1" opacity="1"/><line transform="translate(150,0)" x2="0" y2="5" stroke="#888" stroke-width="1" opacity="1"/><line transform="translate(250,0)" x2="0" y2="5" stroke="#888" stroke-width="1" opacity="1"/><line transform="translate(350,0)" x2="0" y2="5" stroke="#888" stroke-width="1" opacity="1"/></g><g class="mark-text role-axis-label" pointer-events="none"><text text-anchor="end" transform="translate(49.5,7) rotate(270) translate(0,4)" font-family="sans-serif" font-size="12px" fill="#000" opacity="1">Flowchart</text><text text-anchor="end" transform="translate(149.5,7) rotate(270) translate(0,4)" font-family="sans-serif" font-size="12px" fill="#000" opacity="1">Class</text><text text-anchor="end" transform="translate(249.5,7) rotate(270) translate(0,4)" font-family="sans-serif" font-size="12px" fill="#000" opacity="1">State</text><text text-anchor="end" transform="translate(349.5,7) rotate(270) translate(0,4)" font-family="sans-serif" font-size="12px" fill="#000" opacity="1">Sequence</text></g><g class="mark-rule role-axis-domain" pointer-events="none"><line transform="translate(0,0)" x2="400" y2="0" stroke="#888" stroke-width="1" opacity="1"/></g></g><path class="foreground" aria-hidden="true" d="" pointer-events="none" display="none"/></g></g><g class="mark-group role-axis" role="graphics-symbol" aria-roledescription="axis" aria-label="Y-axis titled 'Time (ms)' for a linear scale with values from 0.0 to 2.6"><g transform="translate(0.5,0.5)"><path class="background" aria-hidden="true" d="M0,0h0v0h0Z" pointer-events="none"/><g><g class="mark-rule role-axis-tick" pointer-events="none"><line transform="translate(0,200)" x2="-5" y2="0" stroke="#888" stroke-width="1" opacity="1"/><line transform="translate(0,162)" x2="-5" y2="0" stroke="#888" stroke-width="1" opacity="1"/><line transform="translate(0,123)" x2="-5" y2="0" stroke="#888" stroke-width="1" opacity="1"/><line transform="translate(0,85)" x2="-5" y2="0" stroke="#888" stroke-width="1" opacity="1"/><line transform="translate(0,46)" x2="-5" y2="0" stroke="#888" stroke-width="1" opacity="1"/><line transform="translate(0,8)" x2="-5" y2="0" stroke="#888" stroke-width="1" opacity="1"/></g><g class="mark-text role-axis-label" pointer-events="none"><text text-anchor="end" transform="translate(-7,203)" font-family="sans-serif" font-size="11px" fill="#000" opacity="1">0.0</text><text text-anchor="end" transform="translate(-7,164.53846153846155)" font-family="sans-serif" font-size="11px" fill="#000" opacity="1">0.5</text><text text-anchor="end" transform="translate(-7,126.07692307692308)" font-family="sans-serif" font-size="11px" fill="#000" opacity="1">1.0</text><text text-anchor="end" transform="translate(-7,87.61538461538463)" font-family="sans-serif" font-size="11px" fill="#000" opacity="1">1.5</text><text text-anchor="end" transform="translate(-7,49.15384615384617)" font-family="sans-serif" font-size="11px" fill="#000" opacity="1">2.0</text><text text-anchor="end" transform="translate(-7,10.69230769230771)" font-family="sans-serif" font-size="11px" fill="#000" opacity="1">2.5</text></g><g class="mark-rule role-axis-domain" pointer-events="none"><line transform="translate(0,200)" x2="0" y2="-200" stroke="#888" stroke-width="1" opacity="1"/></g><g class="mark-text role-axis-title" pointer-events="none"><text text-anchor="middle" transform="translate(-30.798828125,100) rotate(-90) translate(0,-2)" font-family="sans-serif" font-size="11px" font-weight="bold" fill="#000" opacity="1">Time (ms)</text></g></g><path class="foreground" aria-hidden="true" d="" pointer-events="none" display="none"/></g></g><g class="mark-group role-scope" role="graphics-object" aria-roledescription="group mark container"><g transform="translate(5,85.38461538461539)"><path class="background" aria-hidden="true" d="M4,0L86,0C88.207660097976,0,90,1.792339902024,90,4L90,114.61538461538461C90,114.61538461538461,90,114.61538461538461,90,114.61538461538461L0,114.61538461538461C0,114.61538461538461,0,114.61538461538461,0,114.61538461538461L0,4C0,1.792339902024,1.792339902024,0,4,0Z"/><g clip-path="url(#clip1)"><g class="mark-group role-scope" role="graphics-object" aria-roledescription="group mark container"><g transform="translate(0,-85.38461538461539)"><path class="background" aria-hidden="true" d="M0,0h90v0h-90Z"/><g><g class="mark-rect role-mark marks" role="graphics-object" aria-roledescription="rect mark container"><path aria-label="diagram: Flowchart; time: 1.49; Time (ms): 1.490" role="graphics-symbol" aria-roledescription="bar" d="M0,85.38461538461539h90v114.61538461538461h-90Z" fill="#10b981"/></g></g><path class="foreground" aria-hidden="true" d="" display="none"/></g></g></g><path class="foreground" aria-hidden="true" d="" display="none"/></g><g transform="translate(105,6.923076923076943)"><path class="background" aria-hidden="true" d="M4,0L86,0C88.207660097976,0,90,1.792339902024,90,4L90,193.07692307692307C90,193.07692307692307,90,193.07692307692307,90,193.07692307692307L0,193.07692307692307C0,193.07692307692307,0,193.07692307692307,0,193.07692307692307L0,4C0,1.792339902024,1.792339902024,0,4,0Z"/><g clip-path="url(#clip2)"><g class="mark-group role-scope" role="graphics-object" aria-roledescription="group mark container"><g transform="translate(0,-6.923076923076943)"><path class="background" aria-hidden="true" d="M0,0h90v0h-90Z"/><g><g class="mark-rect role-mark marks" role="graphics-object" aria-roledescription="rect mark container"><path aria-label="diagram: Class; time: 2.51; Time (ms): 2.510" role="graphics-symbol" aria-roledescription="bar" d="M0,6.923076923076943h90v193.07692307692307h-90Z" fill="#10b981"/></g></g><path class="foreground" aria-hidden="true" d="" display="none"/></g></g></g><path class="foreground" aria-hidden="true" d="" display="none"/></g><g transform="translate(205,43.07692307692308)"><path class="background" aria-hidden="true" d="M4,0L86,0C88.207660097976,0,90,1.792339902024,90,4L90,156.9230769230769C90,156.9230769230769,90,156.9230769230769,90,156.9230769230769L0,156.9230769230769C0,156.9230769230769,0,156.9230769230769,0,156.9230769230769L0,4C0,1.792339902024,1.792339902024,0,4,0Z"/><g clip-path="url(#clip3)"><g class="mark-group role-scope" role="graphics-object" aria-roledescription="group mark container"><g transform="translate(0,-43.07692307692308)"><path class="background" aria-hidden="true" d="M0,0h90v0h-90Z"/><g><g class="mark-rect role-mark marks" role="graphics-object" aria-roledescription="rect mark container"><path aria-label="diagram: State; time: 2.04; Time (ms): 2.040" role="graphics-symbol" aria-roledescription="bar" d="M0,43.07692307692308h90v156.9230769230769h-90Z" fill="#10b981"/></g></g><path class="foreground" aria-hidden="true" d="" display="none"/></g></g></g><path class="foreground" aria-hidden="true" d="" display="none"/></g><g transform="translate(305,194.46153846153845)"><path class="background" aria-hidden="true" d="M2.7692307692307736,0L87.23076923076923,0C88.75914929859877,0,90,1.2408507014012329,90,2.7692307692307736L90,5.538461538461547C90,5.538461538461547,90,5.538461538461547,90,5.538461538461547L0,5.538461538461547C0,5.538461538461547,0,5.538461538461547,0,5.538461538461547L0,2.7692307692307736C0,1.2408507014012329,1.2408507014012329,0,2.7692307692307736,0Z"/><g clip-path="url(#clip4)"><g class="mark-group role-scope" role="graphics-object" aria-roledescription="group mark container"><g transform="translate(0,-194.46153846153845)"><path class="background" aria-hidden="true" d="M0,0h90v0h-90Z"/><g><g class="mark-rect role-mark marks" role="graphics-object" aria-roledescription="rect mark container"><path aria-label="diagram: Sequence; time: 0.072; Time (ms): 0.072" role="graphics-symbol" aria-roledescription="bar" d="M0,194.46153846153845h90v5.538461538461547h-90Z" fill="#10b981"/></g></g><path class="foreground" aria-hidden="true" d="" display="none"/></g></g></g><path class="foreground" aria-hidden="true" d="" display="none"/></g></g><g class="mark-group role-title"><g transform="translate(200,-20)"><path class="background" aria-hidden="true" d="M0,0h0v0h0Z" pointer-events="none"/><g><g class="mark-text role-title-text" role="graphics-symbol" aria-roledescription="title" aria-label="Title text 'Library Performance (no CLI overhead)'" pointer-events="none"><text text-anchor="middle" transform="translate(0,13)" font-family="sans-serif" font-size="16px" font-weight="bold" fill="#000" opacity="1">Library Performance (no CLI overhead)</text></g></g><path class="foreground" aria-hidden="true" d="" pointer-events="none" display="none"/></g></g></g><path class="foreground" aria-hidden="true" d="" display="none"/></g></g></g><defs><clipPath id="clip1"><path d="M4,0L86,0C88.207660097976,0,90,1.792339902024,90,4L90,114.61538461538461C90,114.61538461538461,90,114.61538461538461,90,114.61538461538461L0,114.61538461538461C0,114.61538461538461,0,114.61538461538461,0,114.61538461538461L0,4C0,1.792339902024,1.792339902024,0,4,0Z"/></clipPath><clipPath id="clip2"><path d="M4,0L86,0C88.207660097976,0,90,1.792339902024,90,4L90,193.07692307692307C90,193.07692307692307,90,193.07692307692307,90,193.07692307692307L0,193.07692307692307C0,193.07692307692307,0,193.07692307692307,0,193.07692307692307L0,4C0,1.792339902024,1.792339902024,0,4,0Z"/></clipPath><clipPath id="clip3"><path d="M4,0L86,0C88.207660097976,0,90,1.792339902024,90,4L90,156.9230769230769C90,156.9230769230769,90,156.9230769230769,90,156.9230769230769L0,156.9230769230769C0,156.9230769230769,0,156.9230769230769,0,156.9230769230769L0,4C0,1.792339902024,1.792339902024,0,4,0Z"/></clipPath><clipPath id="clip4"><path d="M2.7692307692307736,0L87.23076923076923,0C88.75914929859877,0,90,1.2408507014012329,90,2.7692307692307736L90,5.538461538461547C90,5.538461538461547,90,5.538461538461547,90,5.538461538461547L0,5.538461538461547C0,5.538461538461547,0,5.538461538461547,0,5.538461538461547L0,2.7692307692307736C0,1.2408507014012329,1.2408507014012329,0,2.7692307692307736,0Z"/></clipPath></defs></svg>